<?xml version="1.0" encoding="utf-8" standalone="no"?>
<!DOCTYPE svg PUBLIC "-//W3C//DTD SVG 1.1//EN"
  "http://www.w3.org/Graphics/SVG/1.1/DTD/svg11.dtd">
<svg xmlns:xlink="http://www.w3.org/1999/xlink" width="720pt" height="360pt" viewBox="0 0 720 360" xmlns="http://www.w3.org/2000/svg" version="1.1">
 <metadata>
  <rdf:RDF xmlns:dc="http://purl.org/dc/elements/1.1/" xmlns:cc="http://creativecommons.org/ns#" xmlns:rdf="http://www.w3.org/1999/02/22-rdf-syntax-ns#">
   <cc:Work>
    <dc:type rdf:resource="http://purl.org/dc/dcmitype/StillImage"/>
    <dc:date>2025-12-09T00:04:44.113659</dc:date>
    <dc:format>image/svg+xml</dc:format>
    <dc:creator>
     <cc:Agent>
      <dc:title>Matplotlib v3.10.1, https://matplotlib.org/</dc:title>
     </cc:Agent>
    </dc:creator>
   </cc:Work>
  </rdf:RDF>
 </metadata>
 <defs>
  <style type="text/css">*{stroke-linejoin: round; stroke-linecap: butt}</style>
 </defs>
 <g id="figure_1">
  <g id="patch_1">
   <path d="M 0 360 
L 720 360 
L 720 0 
L 0 0 
z
" style="fill: #ffffff"/>
  </g>
  <g id="axes_1">
   <g id="patch_2">
    <path d="M 90 320.4 
L 648 320.4 
L 648 43.2 
L 90 43.2 
z
" style="fill: #ffffff"/>
   </g>
   <g id="matplotlib.axis_1">
    <g id="xtick_1">
     <g id="line2d_1">
      <defs>
       <path id="m5ac83afca3" d="M 0 0 
L 0 3.5 
" style="stroke: #000000; stroke-width: 0.8"/>
      </defs>
      <g>
       <use xlink:href="#m5ac83afca3" x="115.363636" y="320.4" style="stroke: #000000; stroke-width: 0.8"/>
      </g>
     </g>
     <g id="text_1">
      <!-- 0 -->
      <g transform="translate(112.182386 334.998438) scale(0.1 -0.1)">
       <defs>
        <path id="DejaVuSans-30" d="M 2034 4250 
Q 1547 4250 1301 3770 
Q 1056 3291 1056 2328 
Q 1056 1369 1301 889 
Q 1547 409 2034 409 
Q 2525 409 2770 889 
Q 3016 1369 3016 2328 
Q 3016 3291 2770 3770 
Q 2525 4250 2034 4250 
z
M 2034 4750 
Q 2819 4750 3233 4129 
Q 3647 3509 3647 2328 
Q 3647 1150 3233 529 
Q 2819 -91 2034 -91 
Q 1250 -91 836 529 
Q 422 1150 422 2328 
Q 422 3509 836 4129 
Q 1250 4750 2034 4750 
z
" transform="scale(0.015625)"/>
       </defs>
       <use xlink:href="#DejaVuSans-30"/>
      </g>
     </g>
    </g>
    <g id="xtick_2">
     <g id="line2d_2">
      <g>
       <use xlink:href="#m5ac83afca3" x="217.157495" y="320.4" style="stroke: #000000; stroke-width: 0.8"/>
      </g>
     </g>
     <g id="text_2">
      <!-- 60 -->
      <g transform="translate(210.794995 334.998438) scale(0.1 -0.1)">
       <defs>
        <path id="DejaVuSans-36" d="M 2113 2584 
Q 1688 2584 1439 2293 
Q 1191 2003 1191 1497 
Q 1191 994 1439 701 
Q 1688 409 2113 409 
Q 2538 409 2786 701 
Q 3034 994 3034 1497 
Q 3034 2003 2786 2293 
Q 2538 2584 2113 2584 
z
M 3366 4563 
L 3366 3988 
Q 3128 4100 2886 4159 
Q 2644 4219 2406 4219 
Q 1781 4219 1451 3797 
Q 1122 3375 1075 2522 
Q 1259 2794 1537 2939 
Q 1816 3084 2150 3084 
Q 2853 3084 3261 2657 
Q 3669 2231 3669 1497 
Q 3669 778 3244 343 
Q 2819 -91 2113 -91 
Q 1303 -91 875 529 
Q 447 1150 447 2328 
Q 447 3434 972 4092 
Q 1497 4750 2381 4750 
Q 2619 4750 2861 4703 
Q 3103 4656 3366 4563 
z
" transform="scale(0.015625)"/>
       </defs>
       <use xlink:href="#DejaVuSans-36"/>
       <use xlink:href="#DejaVuSans-30" transform="translate(63.623047 0)"/>
      </g>
     </g>
    </g>
    <g id="xtick_3">
     <g id="line2d_3">
      <g>
       <use xlink:href="#m5ac83afca3" x="318.951353" y="320.4" style="stroke: #000000; stroke-width: 0.8"/>
      </g>
     </g>
     <g id="text_3">
      <!-- 120 -->
      <g transform="translate(309.407603 334.998438) scale(0.1 -0.1)">
       <defs>
        <path id="DejaVuSans-31" d="M 794 531 
L 1825 531 
L 1825 4091 
L 703 3866 
L 703 4441 
L 1819 4666 
L 2450 4666 
L 2450 531 
L 3481 531 
L 3481 0 
L 794 0 
L 794 531 
z
" transform="scale(0.015625)"/>
        <path id="DejaVuSans-32" d="M 1228 531 
L 3431 531 
L 3431 0 
L 469 0 
L 469 531 
Q 828 903 1448 1529 
Q 2069 2156 2228 2338 
Q 2531 2678 2651 2914 
Q 2772 3150 2772 3378 
Q 2772 3750 2511 3984 
Q 2250 4219 1831 4219 
Q 1534 4219 1204 4116 
Q 875 4013 500 3803 
L 500 4441 
Q 881 4594 1212 4672 
Q 1544 4750 1819 4750 
Q 2544 4750 2975 4387 
Q 3406 4025 3406 3419 
Q 3406 3131 3298 2873 
Q 3191 2616 2906 2266 
Q 2828 2175 2409 1742 
Q 1991 1309 1228 531 
z
" transform="scale(0.015625)"/>
       </defs>
       <use xlink:href="#DejaVuSans-31"/>
       <use xlink:href="#DejaVuSans-32" transform="translate(63.623047 0)"/>
       <use xlink:href="#DejaVuSans-30" transform="translate(127.246094 0)"/>
      </g>
     </g>
    </g>
    <g id="xtick_4">
     <g id="line2d_4">
      <g>
       <use xlink:href="#m5ac83afca3" x="420.745211" y="320.4" style="stroke: #000000; stroke-width: 0.8"/>
      </g>
     </g>
     <g id="text_4">
      <!-- 180 -->
      <g transform="translate(411.201461 334.998438) scale(0.1 -0.1)">
       <defs>
        <path id="DejaVuSans-38" d="M 2034 2216 
Q 1584 2216 1326 1975 
Q 1069 1734 1069 1313 
Q 1069 891 1326 650 
Q 1584 409 2034 409 
Q 2484 409 2743 651 
Q 3003 894 3003 1313 
Q 3003 1734 2745 1975 
Q 2488 2216 2034 2216 
z
M 1403 2484 
Q 997 2584 770 2862 
Q 544 3141 544 3541 
Q 544 4100 942 4425 
Q 1341 4750 2034 4750 
Q 2731 4750 3128 4425 
Q 3525 4100 3525 3541 
Q 3525 3141 3298 2862 
Q 3072 2584 2669 2484 
Q 3125 2378 3379 2068 
Q 3634 1759 3634 1313 
Q 3634 634 3220 271 
Q 2806 -91 2034 -91 
Q 1263 -91 848 271 
Q 434 634 434 1313 
Q 434 1759 690 2068 
Q 947 2378 1403 2484 
z
M 1172 3481 
Q 1172 3119 1398 2916 
Q 1625 2713 2034 2713 
Q 2441 2713 2670 2916 
Q 2900 3119 2900 3481 
Q 2900 3844 2670 4047 
Q 2441 4250 2034 4250 
Q 1625 4250 1398 4047 
Q 1172 3844 1172 3481 
z
" transform="scale(0.015625)"/>
       </defs>
       <use xlink:href="#DejaVuSans-31"/>
       <use xlink:href="#DejaVuSans-38" transform="translate(63.623047 0)"/>
       <use xlink:href="#DejaVuSans-30" transform="translate(127.246094 0)"/>
      </g>
     </g>
    </g>
    <g id="xtick_5">
     <g id="line2d_5">
      <g>
       <use xlink:href="#m5ac83afca3" x="522.53907" y="320.4" style="stroke: #000000; stroke-width: 0.8"/>
      </g>
     </g>
     <g id="text_5">
      <!-- 240 -->
      <g transform="translate(512.99532 334.998438) scale(0.1 -0.1)">
       <defs>
        <path id="DejaVuSans-34" d="M 2419 4116 
L 825 1625 
L 2419 1625 
L 2419 4116 
z
M 2253 4666 
L 3047 4666 
L 3047 1625 
L 3713 1625 
L 3713 1100 
L 3047 1100 
L 3047 0 
L 2419 0 
L 2419 1100 
L 313 1100 
L 313 1709 
L 2253 4666 
z
" transform="scale(0.015625)"/>
       </defs>
       <use xlink:href="#DejaVuSans-32"/>
       <use xlink:href="#DejaVuSans-34" transform="translate(63.623047 0)"/>
       <use xlink:href="#DejaVuSans-30" transform="translate(127.246094 0)"/>
      </g>
     </g>
    </g>
    <g id="text_6">
     <!-- Epoch -->
     <g transform="translate(353.689062 348.676562) scale(0.1 -0.1)">
      <defs>
       <path id="DejaVuSans-45" d="M 628 4666 
L 3578 4666 
L 3578 4134 
L 1259 4134 
L 1259 2753 
L 3481 2753 
L 3481 2222 
L 1259 2222 
L 1259 531 
L 3634 531 
L 3634 0 
L 628 0 
L 628 4666 
z
" transform="scale(0.015625)"/>
       <path id="DejaVuSans-70" d="M 1159 525 
L 1159 -1331 
L 581 -1331 
L 581 3500 
L 1159 3500 
L 1159 2969 
Q 1341 3281 1617 3432 
Q 1894 3584 2278 3584 
Q 2916 3584 3314 3078 
Q 3713 2572 3713 1747 
Q 3713 922 3314 415 
Q 2916 -91 2278 -91 
Q 1894 -91 1617 61 
Q 1341 213 1159 525 
z
M 3116 1747 
Q 3116 2381 2855 2742 
Q 2594 3103 2138 3103 
Q 1681 3103 1420 2742 
Q 1159 2381 1159 1747 
Q 1159 1113 1420 752 
Q 1681 391 2138 391 
Q 2594 391 2855 752 
Q 3116 1113 3116 1747 
z
" transform="scale(0.015625)"/>
       <path id="DejaVuSans-6f" d="M 1959 3097 
Q 1497 3097 1228 2736 
Q 959 2375 959 1747 
Q 959 1119 1226 758 
Q 1494 397 1959 397 
Q 2419 397 2687 759 
Q 2956 1122 2956 1747 
Q 2956 2369 2687 2733 
Q 2419 3097 1959 3097 
z
M 1959 3584 
Q 2709 3584 3137 3096 
Q 3566 2609 3566 1747 
Q 3566 888 3137 398 
Q 2709 -91 1959 -91 
Q 1206 -91 779 398 
Q 353 888 353 1747 
Q 353 2609 779 3096 
Q 1206 3584 1959 3584 
z
" transform="scale(0.015625)"/>
       <path id="DejaVuSans-63" d="M 3122 3366 
L 3122 2828 
Q 2878 2963 2633 3030 
Q 2388 3097 2138 3097 
Q 1578 3097 1268 2742 
Q 959 2388 959 1747 
Q 959 1106 1268 751 
Q 1578 397 2138 397 
Q 2388 397 2633 464 
Q 2878 531 3122 666 
L 3122 134 
Q 2881 22 2623 -34 
Q 2366 -91 2075 -91 
Q 1284 -91 818 406 
Q 353 903 353 1747 
Q 353 2603 823 3093 
Q 1294 3584 2113 3584 
Q 2378 3584 2631 3529 
Q 2884 3475 3122 3366 
z
" transform="scale(0.015625)"/>
       <path id="DejaVuSans-68" d="M 3513 2113 
L 3513 0 
L 2938 0 
L 2938 2094 
Q 2938 2591 2744 2837 
Q 2550 3084 2163 3084 
Q 1697 3084 1428 2787 
Q 1159 2491 1159 1978 
L 1159 0 
L 581 0 
L 581 4863 
L 1159 4863 
L 1159 2956 
Q 1366 3272 1645 3428 
Q 1925 3584 2291 3584 
Q 2894 3584 3203 3211 
Q 3513 2838 3513 2113 
z
" transform="scale(0.015625)"/>
      </defs>
      <use xlink:href="#DejaVuSans-45"/>
      <use xlink:href="#DejaVuSans-70" transform="translate(63.183594 0)"/>
      <use xlink:href="#DejaVuSans-6f" transform="translate(126.660156 0)"/>
      <use xlink:href="#DejaVuSans-63" transform="translate(187.841797 0)"/>
      <use xlink:href="#DejaVuSans-68" transform="translate(242.822266 0)"/>
     </g>
    </g>
   </g>
   <g id="matplotlib.axis_2">
    <g id="ytick_1">
     <g id="line2d_6">
      <defs>
       <path id="m829992ef91" d="M 0 0 
L -3.5 0 
" style="stroke: #000000; stroke-width: 0.8"/>
      </defs>
      <g>
       <use xlink:href="#m829992ef91" x="90" y="309.310789" style="stroke: #000000; stroke-width: 0.8"/>
      </g>
     </g>
     <g id="text_7">
      <!-- 0.00 -->
      <g transform="translate(60.734375 313.110008) scale(0.1 -0.1)">
       <defs>
        <path id="DejaVuSans-2e" d="M 684 794 
L 1344 794 
L 1344 0 
L 684 0 
L 684 794 
z
" transform="scale(0.015625)"/>
       </defs>
       <use xlink:href="#DejaVuSans-30"/>
       <use xlink:href="#DejaVuSans-2e" transform="translate(63.623047 0)"/>
       <use xlink:href="#DejaVuSans-30" transform="translate(95.410156 0)"/>
       <use xlink:href="#DejaVuSans-30" transform="translate(159.033203 0)"/>
      </g>
     </g>
    </g>
    <g id="ytick_2">
     <g id="line2d_7">
      <g>
       <use xlink:href="#m829992ef91" x="90" y="274.582034" style="stroke: #000000; stroke-width: 0.8"/>
      </g>
     </g>
     <g id="text_8">
      <!-- 0.02 -->
      <g transform="translate(60.734375 278.381253) scale(0.1 -0.1)">
       <use xlink:href="#DejaVuSans-30"/>
       <use xlink:href="#DejaVuSans-2e" transform="translate(63.623047 0)"/>
       <use xlink:href="#DejaVuSans-30" transform="translate(95.410156 0)"/>
       <use xlink:href="#DejaVuSans-32" transform="translate(159.033203 0)"/>
      </g>
     </g>
    </g>
    <g id="ytick_3">
     <g id="line2d_8">
      <g>
       <use xlink:href="#m829992ef91" x="90" y="239.853279" style="stroke: #000000; stroke-width: 0.8"/>
      </g>
     </g>
     <g id="text_9">
      <!-- 0.04 -->
      <g transform="translate(60.734375 243.652498) scale(0.1 -0.1)">
       <use xlink:href="#DejaVuSans-30"/>
       <use xlink:href="#DejaVuSans-2e" transform="translate(63.623047 0)"/>
       <use xlink:href="#DejaVuSans-30" transform="translate(95.410156 0)"/>
       <use xlink:href="#DejaVuSans-34" transform="translate(159.033203 0)"/>
      </g>
     </g>
    </g>
    <g id="ytick_4">
     <g id="line2d_9">
      <g>
       <use xlink:href="#m829992ef91" x="90" y="205.124524" style="stroke: #000000; stroke-width: 0.8"/>
      </g>
     </g>
     <g id="text_10">
      <!-- 0.06 -->
      <g transform="translate(60.734375 208.923743) scale(0.1 -0.1)">
       <use xlink:href="#DejaVuSans-30"/>
       <use xlink:href="#DejaVuSans-2e" transform="translate(63.623047 0)"/>
       <use xlink:href="#DejaVuSans-30" transform="translate(95.410156 0)"/>
       <use xlink:href="#DejaVuSans-36" transform="translate(159.033203 0)"/>
      </g>
     </g>
    </g>
    <g id="ytick_5">
     <g id="line2d_10">
      <g>
       <use xlink:href="#m829992ef91" x="90" y="170.395769" style="stroke: #000000; stroke-width: 0.8"/>
      </g>
     </g>
     <g id="text_11">
      <!-- 0.08 -->
      <g transform="translate(60.734375 174.194988) scale(0.1 -0.1)">
       <use xlink:href="#DejaVuSans-30"/>
       <use xlink:href="#DejaVuSans-2e" transform="translate(63.623047 0)"/>
       <use xlink:href="#DejaVuSans-30" transform="translate(95.410156 0)"/>
       <use xlink:href="#DejaVuSans-38" transform="translate(159.033203 0)"/>
      </g>
     </g>
    </g>
    <g id="ytick_6">
     <g id="line2d_11">
      <g>
       <use xlink:href="#m829992ef91" x="90" y="135.667015" style="stroke: #000000; stroke-width: 0.8"/>
      </g>
     </g>
     <g id="text_12">
      <!-- 0.10 -->
      <g transform="translate(60.734375 139.466233) scale(0.1 -0.1)">
       <use xlink:href="#DejaVuSans-30"/>
       <use xlink:href="#DejaVuSans-2e" transform="translate(63.623047 0)"/>
       <use xlink:href="#DejaVuSans-31" transform="translate(95.410156 0)"/>
       <use xlink:href="#DejaVuSans-30" transform="translate(159.033203 0)"/>
      </g>
     </g>
    </g>
    <g id="ytick_7">
     <g id="line2d_12">
      <g>
       <use xlink:href="#m829992ef91" x="90" y="100.93826" style="stroke: #000000; stroke-width: 0.8"/>
      </g>
     </g>
     <g id="text_13">
      <!-- 0.12 -->
      <g transform="translate(60.734375 104.737478) scale(0.1 -0.1)">
       <use xlink:href="#DejaVuSans-30"/>
       <use xlink:href="#DejaVuSans-2e" transform="translate(63.623047 0)"/>
       <use xlink:href="#DejaVuSans-31" transform="translate(95.410156 0)"/>
       <use xlink:href="#DejaVuSans-32" transform="translate(159.033203 0)"/>
      </g>
     </g>
    </g>
    <g id="ytick_8">
     <g id="line2d_13">
      <g>
       <use xlink:href="#m829992ef91" x="90" y="66.209505" style="stroke: #000000; stroke-width: 0.8"/>
      </g>
     </g>
     <g id="text_14">
      <!-- 0.14 -->
      <g transform="translate(60.734375 70.008723) scale(0.1 -0.1)">
       <use xlink:href="#DejaVuSans-30"/>
       <use xlink:href="#DejaVuSans-2e" transform="translate(63.623047 0)"/>
       <use xlink:href="#DejaVuSans-31" transform="translate(95.410156 0)"/>
       <use xlink:href="#DejaVuSans-34" transform="translate(159.033203 0)"/>
      </g>
     </g>
    </g>
    <g id="text_15">
     <!-- Estimation Loss -->
     <g transform="translate(54.654687 220.98125) rotate(-90) scale(0.1 -0.1)">
      <defs>
       <path id="DejaVuSans-73" d="M 2834 3397 
L 2834 2853 
Q 2591 2978 2328 3040 
Q 2066 3103 1784 3103 
Q 1356 3103 1142 2972 
Q 928 2841 928 2578 
Q 928 2378 1081 2264 
Q 1234 2150 1697 2047 
L 1894 2003 
Q 2506 1872 2764 1633 
Q 3022 1394 3022 966 
Q 3022 478 2636 193 
Q 2250 -91 1575 -91 
Q 1294 -91 989 -36 
Q 684 19 347 128 
L 347 722 
Q 666 556 975 473 
Q 1284 391 1588 391 
Q 1994 391 2212 530 
Q 2431 669 2431 922 
Q 2431 1156 2273 1281 
Q 2116 1406 1581 1522 
L 1381 1569 
Q 847 1681 609 1914 
Q 372 2147 372 2553 
Q 372 3047 722 3315 
Q 1072 3584 1716 3584 
Q 2034 3584 2315 3537 
Q 2597 3491 2834 3397 
z
" transform="scale(0.015625)"/>
       <path id="DejaVuSans-74" d="M 1172 4494 
L 1172 3500 
L 2356 3500 
L 2356 3053 
L 1172 3053 
L 1172 1153 
Q 1172 725 1289 603 
Q 1406 481 1766 481 
L 2356 481 
L 2356 0 
L 1766 0 
Q 1100 0 847 248 
Q 594 497 594 1153 
L 594 3053 
L 172 3053 
L 172 3500 
L 594 3500 
L 594 4494 
L 1172 4494 
z
" transform="scale(0.015625)"/>
       <path id="DejaVuSans-69" d="M 603 3500 
L 1178 3500 
L 1178 0 
L 603 0 
L 603 3500 
z
M 603 4863 
L 1178 4863 
L 1178 4134 
L 603 4134 
L 603 4863 
z
" transform="scale(0.015625)"/>
       <path id="DejaVuSans-6d" d="M 3328 2828 
Q 3544 3216 3844 3400 
Q 4144 3584 4550 3584 
Q 5097 3584 5394 3201 
Q 5691 2819 5691 2113 
L 5691 0 
L 5113 0 
L 5113 2094 
Q 5113 2597 4934 2840 
Q 4756 3084 4391 3084 
Q 3944 3084 3684 2787 
Q 3425 2491 3425 1978 
L 3425 0 
L 2847 0 
L 2847 2094 
Q 2847 2600 2669 2842 
Q 2491 3084 2119 3084 
Q 1678 3084 1418 2786 
Q 1159 2488 1159 1978 
L 1159 0 
L 581 0 
L 581 3500 
L 1159 3500 
L 1159 2956 
Q 1356 3278 1631 3431 
Q 1906 3584 2284 3584 
Q 2666 3584 2933 3390 
Q 3200 3197 3328 2828 
z
" transform="scale(0.015625)"/>
       <path id="DejaVuSans-61" d="M 2194 1759 
Q 1497 1759 1228 1600 
Q 959 1441 959 1056 
Q 959 750 1161 570 
Q 1363 391 1709 391 
Q 2188 391 2477 730 
Q 2766 1069 2766 1631 
L 2766 1759 
L 2194 1759 
z
M 3341 1997 
L 3341 0 
L 2766 0 
L 2766 531 
Q 2569 213 2275 61 
Q 1981 -91 1556 -91 
Q 1019 -91 701 211 
Q 384 513 384 1019 
Q 384 1609 779 1909 
Q 1175 2209 1959 2209 
L 2766 2209 
L 2766 2266 
Q 2766 2663 2505 2880 
Q 2244 3097 1772 3097 
Q 1472 3097 1187 3025 
Q 903 2953 641 2809 
L 641 3341 
Q 956 3463 1253 3523 
Q 1550 3584 1831 3584 
Q 2591 3584 2966 3190 
Q 3341 2797 3341 1997 
z
" transform="scale(0.015625)"/>
       <path id="DejaVuSans-6e" d="M 3513 2113 
L 3513 0 
L 2938 0 
L 2938 2094 
Q 2938 2591 2744 2837 
Q 2550 3084 2163 3084 
Q 1697 3084 1428 2787 
Q 1159 2491 1159 1978 
L 1159 0 
L 581 0 
L 581 3500 
L 1159 3500 
L 1159 2956 
Q 1366 3272 1645 3428 
Q 1925 3584 2291 3584 
Q 2894 3584 3203 3211 
Q 3513 2838 3513 2113 
z
" transform="scale(0.015625)"/>
       <path id="DejaVuSans-20" transform="scale(0.015625)"/>
       <path id="DejaVuSans-4c" d="M 628 4666 
L 1259 4666 
L 1259 531 
L 3531 531 
L 3531 0 
L 628 0 
L 628 4666 
z
" transform="scale(0.015625)"/>
      </defs>
      <use xlink:href="#DejaVuSans-45"/>
      <use xlink:href="#DejaVuSans-73" transform="translate(63.183594 0)"/>
      <use xlink:href="#DejaVuSans-74" transform="translate(115.283203 0)"/>
      <use xlink:href="#DejaVuSans-69" transform="translate(154.492188 0)"/>
      <use xlink:href="#DejaVuSans-6d" transform="translate(182.275391 0)"/>
      <use xlink:href="#DejaVuSans-61" transform="translate(279.6875 0)"/>
      <use xlink:href="#DejaVuSans-74" transform="translate(340.966797 0)"/>
      <use xlink:href="#DejaVuSans-69" transform="translate(380.175781 0)"/>
      <use xlink:href="#DejaVuSans-6f" transform="translate(407.958984 0)"/>
      <use xlink:href="#DejaVuSans-6e" transform="translate(469.140625 0)"/>
      <use xlink:href="#DejaVuSans-20" transform="translate(532.519531 0)"/>
      <use xlink:href="#DejaVuSans-4c" transform="translate(564.306641 0)"/>
      <use xlink:href="#DejaVuSans-6f" transform="translate(618.269531 0)"/>
      <use xlink:href="#DejaVuSans-73" transform="translate(679.451172 0)"/>
      <use xlink:href="#DejaVuSans-73" transform="translate(731.550781 0)"/>
     </g>
    </g>
   </g>
   <g id="line2d_14">
    <path d="M 115.363636 193.89812 
L 117.060201 290.80954 
L 118.756765 297.81367 
L 120.453329 300.465601 
L 122.149894 301.934754 
L 123.846458 302.948894 
L 127.239587 304.166024 
L 130.632715 304.96015 
L 142.508665 306.272158 
L 161.170873 307.142122 
L 193.405594 307.660992 
L 213.764366 307.663247 
L 220.550623 307.602062 
L 229.033445 307.576682 
L 239.212831 307.495517 
L 341.006689 307.079258 
L 363.062025 306.92494 
L 539.504713 306.916358 
L 546.29097 306.962841 
L 559.863484 306.899645 
L 566.649742 306.904303 
L 581.91882 306.946482 
L 597.187899 306.954834 
L 600.581028 306.976014 
L 622.636364 307.015616 
L 622.636364 307.015616 
" clip-path="url(#p2dc3e52e67)" style="fill: none; stroke: #1f77b4; stroke-width: 1.5; stroke-linecap: square"/>
   </g>
   <g id="line2d_15">
    <path d="M 115.363636 55.8 
L 117.060201 171.821744 
L 118.756765 184.930556 
L 120.453329 190.373039 
L 122.149894 193.867331 
L 123.846458 196.336107 
L 125.543022 198.133903 
L 127.239587 199.424806 
L 130.632715 201.331737 
L 132.329279 201.908666 
L 134.025844 202.607228 
L 135.722408 202.77315 
L 137.418972 203.465134 
L 142.508665 204.49507 
L 144.20523 204.594839 
L 145.901794 205.094755 
L 147.598358 205.208713 
L 149.294922 205.110582 
L 150.991487 205.528296 
L 152.688051 205.830243 
L 156.08118 206.043806 
L 157.777744 205.985158 
L 161.170873 206.302444 
L 164.564001 206.136321 
L 166.260566 206.350311 
L 167.95713 206.232701 
L 169.653694 206.361981 
L 171.350258 206.161847 
L 173.046823 206.178628 
L 176.439951 206.071032 
L 178.136516 206.132238 
L 181.529644 206.073624 
L 183.226209 205.696411 
L 184.922773 205.921135 
L 190.012466 205.351549 
L 191.70903 204.878821 
L 193.405594 204.992691 
L 195.102159 204.876254 
L 196.798723 204.514457 
L 200.191852 204.248102 
L 203.58498 203.212448 
L 205.281545 203.308902 
L 206.978109 202.633819 
L 208.674673 202.548692 
L 210.371237 201.918451 
L 212.067802 201.936959 
L 213.764366 201.135555 
L 215.46093 201.202104 
L 217.157495 200.209328 
L 218.854059 200.303192 
L 220.550623 199.102978 
L 222.247188 199.166836 
L 223.943752 198.241659 
L 225.640316 198.02681 
L 229.033445 196.507631 
L 230.730009 196.286593 
L 232.426573 195.558244 
L 234.123138 194.969066 
L 235.819702 194.560956 
L 237.516266 193.476297 
L 239.212831 193.508639 
L 240.909395 192.222021 
L 242.605959 192.023343 
L 244.302524 190.844851 
L 245.999088 190.726756 
L 247.695652 189.299679 
L 249.392216 189.131949 
L 251.088781 188.068577 
L 252.785345 188.253601 
L 254.481909 187.257834 
L 256.178474 187.383205 
L 257.875038 186.497762 
L 259.571602 186.898474 
L 261.268167 186.101246 
L 262.964731 186.3267 
L 264.661295 185.701406 
L 266.35786 185.848354 
L 268.054424 185.153828 
L 269.750988 185.33178 
L 271.447552 184.869094 
L 273.144117 184.81981 
L 278.23381 184.024881 
L 279.930374 183.905511 
L 281.626938 183.554773 
L 283.323503 183.469639 
L 285.020067 183.00482 
L 286.716631 183.074983 
L 288.413196 182.403774 
L 290.10976 182.576109 
L 291.806324 181.972685 
L 293.502888 182.175966 
L 295.199453 181.361645 
L 296.896017 181.580849 
L 298.592581 181.125042 
L 300.289146 181.260636 
L 301.98571 180.466968 
L 303.682274 180.735391 
L 305.378839 179.811396 
L 307.075403 180.194797 
L 308.771967 179.338587 
L 310.468531 179.620173 
L 312.165096 178.793299 
L 313.86166 179.071336 
L 315.558224 178.570529 
L 317.254789 178.559385 
L 318.951353 178.023483 
L 320.647917 178.240724 
L 322.344482 177.424903 
L 324.041046 178.002007 
L 325.73761 177.331605 
L 327.434175 178.01089 
L 329.130739 177.45123 
L 330.827303 177.923445 
L 332.523867 177.545784 
L 334.220432 177.829749 
L 335.916996 177.733932 
L 339.310125 177.776561 
L 341.006689 177.220458 
L 342.703253 177.606319 
L 344.399818 176.971954 
L 346.096382 177.278544 
L 347.792946 177.010192 
L 349.48951 176.561189 
L 351.186075 176.69276 
L 352.882639 175.843517 
L 354.579203 176.485904 
L 356.275768 175.022538 
L 357.972332 175.931261 
L 359.668896 174.309933 
L 361.365461 175.429977 
L 363.062025 174.322795 
L 364.758589 174.996758 
L 366.455154 174.35355 
L 368.151718 174.468601 
L 369.848282 173.743885 
L 371.544846 173.748674 
L 373.241411 172.795827 
L 374.937975 173.240932 
L 376.634539 171.845657 
L 378.331104 172.89792 
L 380.027668 171.252787 
L 381.724232 172.552456 
L 383.420797 170.832398 
L 385.117361 172.151217 
L 386.813925 170.879927 
L 388.51049 171.770225 
L 390.207054 170.706312 
L 391.903618 171.485602 
L 393.600182 170.683635 
L 395.296747 171.35117 
L 396.993311 170.643795 
L 398.689875 171.299766 
L 400.38644 170.727102 
L 402.083004 171.33725 
L 403.779568 170.358878 
L 405.476133 171.331278 
L 407.172697 170.114367 
L 408.869261 171.391077 
L 410.565825 170.228483 
L 412.26239 170.91384 
L 413.958954 169.811873 
L 415.655518 170.704759 
L 417.352083 169.640809 
L 419.048647 170.512209 
L 420.745211 169.592362 
L 422.441776 170.604637 
L 424.13834 169.446153 
L 425.834904 170.279799 
L 427.531469 168.870764 
L 429.228033 169.597349 
L 430.924597 168.267289 
L 432.621161 169.463841 
L 434.317726 168.221397 
L 436.01429 168.990464 
L 437.710854 167.643959 
L 439.407419 168.799517 
L 441.103983 167.60882 
L 442.800547 168.808792 
L 444.497112 167.607815 
L 446.193676 168.639668 
L 447.89024 167.616892 
L 449.586804 168.339069 
L 451.283369 167.605668 
L 452.979933 167.946994 
L 454.676497 167.355989 
L 456.373062 168.198122 
L 458.069626 167.257711 
L 459.76619 168.080213 
L 461.462755 167.410387 
L 463.159319 168.160512 
L 464.855883 167.479847 
L 466.552448 168.377599 
L 468.249012 167.253884 
L 469.945576 168.586193 
L 471.64214 167.685382 
L 473.338705 168.367217 
L 475.035269 167.464923 
L 476.731833 168.436636 
L 478.428398 167.380726 
L 480.124962 167.997773 
L 481.821526 167.311087 
L 483.518091 167.802481 
L 485.214655 166.994598 
L 486.911219 167.573932 
L 488.607784 166.685536 
L 490.304348 167.095871 
L 492.000912 166.222402 
L 493.697476 166.610567 
L 495.394041 165.923188 
L 497.090605 166.442679 
L 498.787169 165.84584 
L 500.483734 166.265041 
L 502.180298 165.709044 
L 503.876862 165.77042 
L 505.573427 165.170181 
L 507.269991 165.463051 
L 508.966555 164.859686 
L 510.663119 164.973167 
L 512.359684 164.321929 
L 514.056248 164.777862 
L 515.752812 164.078045 
L 517.449377 164.639125 
L 519.145941 163.974898 
L 520.842505 164.023366 
L 522.53907 163.649542 
L 524.235634 163.724493 
L 525.932198 163.483367 
L 527.628763 164.084282 
L 531.021891 164.355676 
L 532.718455 163.791635 
L 534.41502 164.0556 
L 536.111584 163.884006 
L 539.504713 164.044489 
L 541.201277 164.474731 
L 542.897841 164.561168 
L 544.594406 164.763559 
L 546.29097 164.553215 
L 547.987534 164.899551 
L 549.684099 164.925449 
L 551.380663 165.127643 
L 553.077227 165.093144 
L 554.773791 165.271519 
L 556.470356 165.591718 
L 558.16692 165.542362 
L 561.560049 165.814013 
L 563.256613 165.562305 
L 564.953177 165.782062 
L 568.346306 165.86345 
L 570.04287 165.694141 
L 573.435999 166.277572 
L 575.132563 166.357569 
L 576.829127 166.209191 
L 578.525692 166.53079 
L 580.222256 166.045611 
L 581.91882 166.630919 
L 583.615385 165.851635 
L 585.311949 166.588831 
L 587.008513 165.647593 
L 588.705078 166.777558 
L 590.401642 165.961474 
L 592.098206 166.74607 
L 593.79477 165.898324 
L 595.491335 166.862574 
L 597.187899 166.565244 
L 598.884463 167.14709 
L 600.581028 166.825548 
L 602.277592 167.41284 
L 603.974156 167.03853 
L 605.670721 167.484915 
L 607.367285 167.280088 
L 609.063849 167.615605 
L 610.760413 167.146103 
L 612.456978 167.531748 
L 614.153542 167.217532 
L 615.850106 167.824443 
L 617.546671 167.223029 
L 619.243235 167.801165 
L 620.939799 167.363974 
L 622.636364 167.349154 
L 622.636364 167.349154 
" clip-path="url(#p2dc3e52e67)" style="fill: none; stroke: #ff7f0e; stroke-width: 1.5; stroke-linecap: square"/>
   </g>
   <g id="line2d_16">
    <path d="M 115.363636 284.373856 
L 117.060201 296.744917 
L 118.756765 299.570896 
L 120.453329 301.263631 
L 123.846458 303.713421 
L 125.543022 303.494861 
L 127.239587 304.630775 
L 128.936151 303.989921 
L 130.632715 305.332806 
L 132.329279 305.814706 
L 134.025844 305.805983 
L 137.418972 305.992655 
L 139.115537 305.747228 
L 140.812101 306.311793 
L 142.508665 306.50789 
L 144.20523 306.497784 
L 147.598358 306.864223 
L 150.991487 306.888403 
L 152.688051 306.10135 
L 154.384615 307.262672 
L 157.777744 307.011796 
L 159.474308 307.465464 
L 162.867437 306.468193 
L 164.564001 307.359845 
L 171.350258 307.48461 
L 173.046823 307.298362 
L 174.743387 307.611502 
L 176.439951 307.421241 
L 179.83308 307.573049 
L 183.226209 307.718568 
L 186.619337 307.106994 
L 188.315901 307.432444 
L 191.70903 307.799192 
L 195.102159 307.383944 
L 196.798723 307.8 
L 198.495287 307.56014 
L 200.191852 307.561755 
L 201.888416 307.78438 
L 205.281545 307.584627 
L 206.978109 307.731625 
L 208.674673 307.607341 
L 210.371237 307.735993 
L 213.764366 307.49091 
L 215.46093 307.795896 
L 218.854059 307.487358 
L 220.550623 307.634183 
L 222.247188 307.661519 
L 223.943752 307.309712 
L 225.640316 307.692278 
L 227.336881 307.647146 
L 229.033445 307.718015 
L 234.123138 307.402651 
L 237.516266 307.694339 
L 239.212831 307.480793 
L 240.909395 307.110744 
L 249.392216 307.477977 
L 252.785345 307.202802 
L 254.481909 307.311838 
L 256.178474 307.18348 
L 257.875038 307.423167 
L 259.571602 307.088276 
L 261.268167 307.053546 
L 262.964731 307.352656 
L 268.054424 307.083734 
L 269.750988 307.261804 
L 273.144117 307.253547 
L 276.537245 307.142247 
L 278.23381 307.25475 
L 279.930374 307.088146 
L 285.020067 307.125575 
L 288.413196 307.138336 
L 290.10976 306.980567 
L 291.806324 307.078044 
L 293.502888 306.9203 
L 310.468531 306.725254 
L 312.165096 306.662445 
L 313.86166 306.750626 
L 318.951353 306.568638 
L 325.73761 306.648213 
L 330.827303 306.559432 
L 335.916996 306.650753 
L 337.61356 306.346591 
L 339.310125 306.241743 
L 346.096382 306.496395 
L 351.186075 306.369283 
L 356.275768 306.216342 
L 357.972332 305.913447 
L 359.668896 306.072289 
L 368.151718 306.019274 
L 371.544846 306.104901 
L 374.937975 306.112927 
L 380.027668 306.114614 
L 385.117361 306.023843 
L 386.813925 306.139422 
L 390.207054 306.069631 
L 393.600182 305.949993 
L 395.296747 305.786721 
L 398.689875 305.827547 
L 402.083004 305.835067 
L 419.048647 305.716316 
L 420.745211 305.604356 
L 422.441776 305.682952 
L 424.13834 305.519525 
L 425.834904 305.523304 
L 427.531469 305.258767 
L 429.228033 305.450343 
L 430.924597 305.408122 
L 432.621161 305.597335 
L 439.407419 305.359635 
L 446.193676 305.672376 
L 447.89024 305.732462 
L 452.979933 305.507433 
L 454.676497 305.637196 
L 461.462755 305.54196 
L 466.552448 305.604989 
L 468.249012 305.516059 
L 473.338705 305.660178 
L 475.035269 305.509118 
L 476.731833 305.651905 
L 478.428398 305.513333 
L 480.124962 305.598465 
L 486.911219 305.403695 
L 488.607784 305.508789 
L 490.304348 305.396475 
L 498.787169 305.519525 
L 500.483734 305.421044 
L 503.876862 305.53055 
L 512.359684 305.598346 
L 517.449377 305.615503 
L 519.145941 305.55331 
L 520.842505 305.6658 
L 522.53907 305.656962 
L 524.235634 305.766847 
L 536.111584 305.826455 
L 537.808148 305.929488 
L 539.504713 305.829143 
L 541.201277 305.996341 
L 542.897841 305.713643 
L 544.594406 306.035131 
L 546.29097 305.721669 
L 547.987534 305.884207 
L 549.684099 305.763842 
L 551.380663 305.837101 
L 553.077227 305.788665 
L 554.773791 305.916334 
L 570.04287 305.84943 
L 571.739434 305.758967 
L 573.435999 305.935336 
L 575.132563 305.887706 
L 576.829127 306.006158 
L 583.615385 305.888271 
L 588.705078 305.945226 
L 590.401642 305.772734 
L 593.79477 305.701026 
L 595.491335 305.675655 
L 597.187899 305.844136 
L 598.884463 305.756719 
L 600.581028 305.870365 
L 602.277592 305.726139 
L 603.974156 305.760568 
L 605.670721 305.936006 
L 607.367285 305.882784 
L 609.063849 305.992887 
L 610.760413 305.913561 
L 612.456978 306.159074 
L 614.153542 305.964071 
L 615.850106 306.209445 
L 617.546671 306.099166 
L 619.243235 306.220436 
L 622.636364 306.118828 
L 622.636364 306.118828 
" clip-path="url(#p2dc3e52e67)" style="fill: none; stroke: #2ca02c; stroke-width: 1.5; stroke-linecap: square"/>
   </g>
   <g id="line2d_17">
    <path d="M 115.363636 177.331572 
L 117.060201 194.948733 
L 118.756765 200.473811 
L 120.453329 203.702338 
L 122.149894 206.531721 
L 123.846458 209.012376 
L 125.543022 211.885899 
L 127.239587 211.07129 
L 128.936151 210.806695 
L 130.632715 214.123214 
L 132.329279 213.737752 
L 134.025844 214.833684 
L 135.722408 214.699057 
L 137.418972 214.733476 
L 139.115537 216.247016 
L 140.812101 215.645746 
L 142.508665 216.720688 
L 144.20523 216.520017 
L 145.901794 217.185715 
L 147.598358 217.630796 
L 149.294922 217.558521 
L 150.991487 217.834402 
L 152.688051 218.686863 
L 154.384615 219.199258 
L 156.08118 218.74385 
L 157.777744 218.626939 
L 161.170873 219.743954 
L 162.867437 217.894971 
L 164.564001 219.231108 
L 166.260566 219.120603 
L 167.95713 219.452403 
L 171.350258 219.027559 
L 173.046823 218.621023 
L 174.743387 219.672409 
L 176.439951 219.963835 
L 178.136516 219.865483 
L 179.83308 219.940494 
L 181.529644 218.897911 
L 183.226209 219.197583 
L 184.922773 218.673398 
L 186.619337 218.696052 
L 188.315901 218.884863 
L 190.012466 219.395131 
L 191.70903 218.288074 
L 193.405594 219.185982 
L 195.102159 218.063779 
L 196.798723 218.282308 
L 198.495287 217.620668 
L 201.888416 217.961027 
L 203.58498 217.421789 
L 205.281545 216.730123 
L 206.978109 216.848254 
L 208.674673 216.761508 
L 210.371237 216.232701 
L 212.067802 215.839558 
L 213.764366 214.56781 
L 215.46093 215.809264 
L 217.157495 214.599272 
L 218.854059 214.283333 
L 220.550623 213.413507 
L 222.247188 213.535493 
L 223.943752 213.077847 
L 225.640316 214.044759 
L 227.336881 212.685832 
L 229.033445 212.335808 
L 230.730009 211.814688 
L 232.426573 211.583875 
L 234.123138 210.546866 
L 237.516266 210.356074 
L 239.212831 210.719434 
L 240.909395 209.843351 
L 242.605959 209.250137 
L 245.999088 207.084442 
L 247.695652 206.10942 
L 249.392216 206.102633 
L 251.088781 205.808072 
L 252.785345 205.729831 
L 254.481909 204.624316 
L 256.178474 205.399005 
L 257.875038 204.490708 
L 259.571602 204.460807 
L 261.268167 204.712767 
L 262.964731 205.200792 
L 264.661295 205.473586 
L 266.35786 204.940375 
L 268.054424 205.00089 
L 269.750988 204.945959 
L 271.447552 205.228583 
L 273.144117 205.030777 
L 274.840681 204.718407 
L 276.537245 204.526939 
L 278.23381 204.705593 
L 279.930374 204.556928 
L 281.626938 204.60904 
L 283.323503 204.308848 
L 285.020067 204.353424 
L 286.716631 204.00637 
L 288.413196 203.860211 
L 290.10976 203.290983 
L 291.806324 203.165087 
L 293.502888 202.545029 
L 295.199453 202.344632 
L 301.98571 200.760262 
L 303.682274 200.547341 
L 305.378839 199.784612 
L 307.075403 199.228788 
L 308.771967 198.869663 
L 310.468531 198.190668 
L 313.86166 197.575552 
L 315.558224 197.401205 
L 317.254789 196.948725 
L 318.951353 196.261652 
L 320.647917 196.909684 
L 322.344482 196.408782 
L 324.041046 196.171074 
L 325.73761 196.957169 
L 327.434175 195.921566 
L 329.130739 196.841174 
L 330.827303 196.032293 
L 332.523867 196.593094 
L 334.220432 196.167279 
L 335.916996 195.914671 
L 337.61356 194.879886 
L 341.006689 194.425916 
L 342.703253 194.053177 
L 344.399818 192.947225 
L 346.096382 192.992332 
L 347.792946 192.591563 
L 349.48951 192.884415 
L 351.186075 192.51608 
L 352.882639 192.366809 
L 354.579203 191.420206 
L 356.275768 191.376135 
L 357.972332 189.704715 
L 359.668896 190.404781 
L 361.365461 189.361779 
L 363.062025 190.12302 
L 364.758589 189.283172 
L 366.455154 189.477328 
L 368.151718 188.612908 
L 369.848282 188.278064 
L 374.937975 187.880099 
L 376.634539 187.779606 
L 380.027668 187.414535 
L 381.724232 187.433587 
L 383.420797 187.209985 
L 385.117361 187.277687 
L 386.813925 187.01086 
L 388.51049 187.03735 
L 390.207054 186.740641 
L 391.903618 186.598964 
L 393.600182 186.614364 
L 395.296747 186.376656 
L 396.993311 186.955223 
L 400.38644 187.557505 
L 402.083004 187.673837 
L 407.172697 187.46882 
L 408.869261 187.922527 
L 417.352083 186.42579 
L 419.048647 186.580633 
L 420.745211 185.952753 
L 422.441776 186.11194 
L 424.13834 185.583123 
L 425.834904 185.235044 
L 427.531469 184.264351 
L 429.228033 184.329496 
L 430.924597 183.544759 
L 432.621161 183.904351 
L 436.01429 183.589577 
L 437.710854 183.096776 
L 439.407419 183.132134 
L 441.103983 183.008071 
L 442.800547 183.039411 
L 444.497112 183.728198 
L 446.193676 183.512367 
L 447.89024 183.486959 
L 449.586804 183.854333 
L 451.283369 183.749538 
L 452.979933 184.039563 
L 454.676497 183.970961 
L 456.373062 184.314784 
L 458.069626 184.054274 
L 459.76619 184.408269 
L 461.462755 184.125764 
L 463.159319 184.889478 
L 464.855883 184.722501 
L 466.552448 185.443029 
L 468.249012 185.096004 
L 469.945576 186.189827 
L 471.64214 186.050507 
L 473.338705 186.43135 
L 475.035269 186.057235 
L 476.731833 186.617058 
L 478.428398 186.395204 
L 480.124962 186.641739 
L 481.821526 186.760411 
L 483.518091 187.069557 
L 485.214655 186.589486 
L 486.911219 187.147637 
L 488.607784 186.799157 
L 490.304348 186.918601 
L 492.000912 186.560008 
L 493.697476 186.810979 
L 495.394041 186.634918 
L 498.787169 187.019457 
L 500.483734 186.467558 
L 502.180298 187.127174 
L 503.876862 186.823755 
L 507.269991 186.97723 
L 508.966555 187.284569 
L 510.663119 186.997271 
L 512.359684 187.07247 
L 514.056248 186.756478 
L 515.752812 187.176452 
L 517.449377 186.075308 
L 519.145941 185.690635 
L 520.842505 186.283972 
L 522.53907 184.840922 
L 524.235634 185.402712 
L 525.932198 185.079595 
L 527.628763 185.288124 
L 529.325327 185.173169 
L 532.718455 184.671292 
L 534.41502 184.276434 
L 536.111584 184.338889 
L 537.808148 184.257299 
L 539.504713 183.895484 
L 541.201277 183.981282 
L 542.897841 184.700457 
L 544.594406 183.941377 
L 546.29097 184.622095 
L 549.684099 184.382129 
L 551.380663 184.448605 
L 553.077227 184.739551 
L 554.773791 184.758703 
L 558.16692 185.010173 
L 559.863484 185.038593 
L 561.560049 186.152288 
L 563.256613 185.755344 
L 566.649742 186.641051 
L 568.346306 186.256993 
L 570.04287 186.517561 
L 571.739434 185.649265 
L 573.435999 186.143195 
L 575.132563 185.805792 
L 576.829127 186.41671 
L 580.222256 186.030624 
L 581.91882 186.401189 
L 583.615385 185.730875 
L 585.311949 185.742646 
L 587.008513 185.42137 
L 588.705078 185.790153 
L 590.401642 185.972095 
L 592.098206 185.541659 
L 593.79477 186.272218 
L 595.491335 185.314297 
L 597.187899 186.564859 
L 598.884463 186.479383 
L 600.581028 187.026194 
L 602.277592 186.079435 
L 603.974156 185.57978 
L 605.670721 185.765002 
L 607.367285 186.62792 
L 609.063849 187.028788 
L 610.760413 186.547845 
L 612.456978 187.169174 
L 614.153542 187.448502 
L 615.850106 187.150446 
L 617.546671 186.980438 
L 620.939799 187.349696 
L 622.636364 186.532076 
L 622.636364 186.532076 
" clip-path="url(#p2dc3e52e67)" style="fill: none; stroke: #d62728; stroke-width: 1.5; stroke-linecap: square"/>
   </g>
   <g id="patch_3">
    <path d="M 90 320.4 
L 90 43.2 
" style="fill: none; stroke: #000000; stroke-width: 0.8; stroke-linejoin: miter; stroke-linecap: square"/>
   </g>
   <g id="patch_4">
    <path d="M 648 320.4 
L 648 43.2 
" style="fill: none; stroke: #000000; stroke-width: 0.8; stroke-linejoin: miter; stroke-linecap: square"/>
   </g>
   <g id="patch_5">
    <path d="M 90 320.4 
L 648 320.4 
" style="fill: none; stroke: #000000; stroke-width: 0.8; stroke-linejoin: miter; stroke-linecap: square"/>
   </g>
   <g id="patch_6">
    <path d="M 90 43.2 
L 648 43.2 
" style="fill: none; stroke: #000000; stroke-width: 0.8; stroke-linejoin: miter; stroke-linecap: square"/>
   </g>
   <g id="text_16">
    <!-- Training and Validating Estimation Loss -->
    <g transform="translate(251.535937 37.2) scale(0.12 -0.12)">
     <defs>
      <path id="DejaVuSans-54" d="M -19 4666 
L 3928 4666 
L 3928 4134 
L 2272 4134 
L 2272 0 
L 1638 0 
L 1638 4134 
L -19 4134 
L -19 4666 
z
" transform="scale(0.015625)"/>
      <path id="DejaVuSans-72" d="M 2631 2963 
Q 2534 3019 2420 3045 
Q 2306 3072 2169 3072 
Q 1681 3072 1420 2755 
Q 1159 2438 1159 1844 
L 1159 0 
L 581 0 
L 581 3500 
L 1159 3500 
L 1159 2956 
Q 1341 3275 1631 3429 
Q 1922 3584 2338 3584 
Q 2397 3584 2469 3576 
Q 2541 3569 2628 3553 
L 2631 2963 
z
" transform="scale(0.015625)"/>
      <path id="DejaVuSans-67" d="M 2906 1791 
Q 2906 2416 2648 2759 
Q 2391 3103 1925 3103 
Q 1463 3103 1205 2759 
Q 947 2416 947 1791 
Q 947 1169 1205 825 
Q 1463 481 1925 481 
Q 2391 481 2648 825 
Q 2906 1169 2906 1791 
z
M 3481 434 
Q 3481 -459 3084 -895 
Q 2688 -1331 1869 -1331 
Q 1566 -1331 1297 -1286 
Q 1028 -1241 775 -1147 
L 775 -588 
Q 1028 -725 1275 -790 
Q 1522 -856 1778 -856 
Q 2344 -856 2625 -561 
Q 2906 -266 2906 331 
L 2906 616 
Q 2728 306 2450 153 
Q 2172 0 1784 0 
Q 1141 0 747 490 
Q 353 981 353 1791 
Q 353 2603 747 3093 
Q 1141 3584 1784 3584 
Q 2172 3584 2450 3431 
Q 2728 3278 2906 2969 
L 2906 3500 
L 3481 3500 
L 3481 434 
z
" transform="scale(0.015625)"/>
      <path id="DejaVuSans-64" d="M 2906 2969 
L 2906 4863 
L 3481 4863 
L 3481 0 
L 2906 0 
L 2906 525 
Q 2725 213 2448 61 
Q 2172 -91 1784 -91 
Q 1150 -91 751 415 
Q 353 922 353 1747 
Q 353 2572 751 3078 
Q 1150 3584 1784 3584 
Q 2172 3584 2448 3432 
Q 2725 3281 2906 2969 
z
M 947 1747 
Q 947 1113 1208 752 
Q 1469 391 1925 391 
Q 2381 391 2643 752 
Q 2906 1113 2906 1747 
Q 2906 2381 2643 2742 
Q 2381 3103 1925 3103 
Q 1469 3103 1208 2742 
Q 947 2381 947 1747 
z
" transform="scale(0.015625)"/>
      <path id="DejaVuSans-56" d="M 1831 0 
L 50 4666 
L 709 4666 
L 2188 738 
L 3669 4666 
L 4325 4666 
L 2547 0 
L 1831 0 
z
" transform="scale(0.015625)"/>
      <path id="DejaVuSans-6c" d="M 603 4863 
L 1178 4863 
L 1178 0 
L 603 0 
L 603 4863 
z
" transform="scale(0.015625)"/>
     </defs>
     <use xlink:href="#DejaVuSans-54"/>
     <use xlink:href="#DejaVuSans-72" transform="translate(46.333984 0)"/>
     <use xlink:href="#DejaVuSans-61" transform="translate(87.447266 0)"/>
     <use xlink:href="#DejaVuSans-69" transform="translate(148.726562 0)"/>
     <use xlink:href="#DejaVuSans-6e" transform="translate(176.509766 0)"/>
     <use xlink:href="#DejaVuSans-69" transform="translate(239.888672 0)"/>
     <use xlink:href="#DejaVuSans-6e" transform="translate(267.671875 0)"/>
     <use xlink:href="#DejaVuSans-67" transform="translate(331.050781 0)"/>
     <use xlink:href="#DejaVuSans-20" transform="translate(394.527344 0)"/>
     <use xlink:href="#DejaVuSans-61" transform="translate(426.314453 0)"/>
     <use xlink:href="#DejaVuSans-6e" transform="translate(487.59375 0)"/>
     <use xlink:href="#DejaVuSans-64" transform="translate(550.972656 0)"/>
     <use xlink:href="#DejaVuSans-20" transform="translate(614.449219 0)"/>
     <use xlink:href="#DejaVuSans-56" transform="translate(646.236328 0)"/>
     <use xlink:href="#DejaVuSans-61" transform="translate(706.894531 0)"/>
     <use xlink:href="#DejaVuSans-6c" transform="translate(768.173828 0)"/>
     <use xlink:href="#DejaVuSans-69" transform="translate(795.957031 0)"/>
     <use xlink:href="#DejaVuSans-64" transform="translate(823.740234 0)"/>
     <use xlink:href="#DejaVuSans-61" transform="translate(887.216797 0)"/>
     <use xlink:href="#DejaVuSans-74" transform="translate(948.496094 0)"/>
     <use xlink:href="#DejaVuSans-69" transform="translate(987.705078 0)"/>
     <use xlink:href="#DejaVuSans-6e" transform="translate(1015.488281 0)"/>
     <use xlink:href="#DejaVuSans-67" transform="translate(1078.867188 0)"/>
     <use xlink:href="#DejaVuSans-20" transform="translate(1142.34375 0)"/>
     <use xlink:href="#DejaVuSans-45" transform="translate(1174.130859 0)"/>
     <use xlink:href="#DejaVuSans-73" transform="translate(1237.314453 0)"/>
     <use xlink:href="#DejaVuSans-74" transform="translate(1289.414062 0)"/>
     <use xlink:href="#DejaVuSans-69" transform="translate(1328.623047 0)"/>
     <use xlink:href="#DejaVuSans-6d" transform="translate(1356.40625 0)"/>
     <use xlink:href="#DejaVuSans-61" transform="translate(1453.818359 0)"/>
     <use xlink:href="#DejaVuSans-74" transform="translate(1515.097656 0)"/>
     <use xlink:href="#DejaVuSans-69" transform="translate(1554.306641 0)"/>
     <use xlink:href="#DejaVuSans-6f" transform="translate(1582.089844 0)"/>
     <use xlink:href="#DejaVuSans-6e" transform="translate(1643.271484 0)"/>
     <use xlink:href="#DejaVuSans-20" transform="translate(1706.650391 0)"/>
     <use xlink:href="#DejaVuSans-4c" transform="translate(1738.4375 0)"/>
     <use xlink:href="#DejaVuSans-6f" transform="translate(1792.400391 0)"/>
     <use xlink:href="#DejaVuSans-73" transform="translate(1853.582031 0)"/>
     <use xlink:href="#DejaVuSans-73" transform="translate(1905.681641 0)"/>
    </g>
   </g>
   <g id="legend_1">
    <g id="patch_7">
     <path d="M 521.439062 109.9125 
L 641 109.9125 
Q 643 109.9125 643 107.9125 
L 643 50.2 
Q 643 48.2 641 48.2 
L 521.439062 48.2 
Q 519.439062 48.2 519.439062 50.2 
L 519.439062 107.9125 
Q 519.439062 109.9125 521.439062 109.9125 
z
" style="fill: #ffffff; opacity: 0.8; stroke: #cccccc; stroke-linejoin: miter"/>
    </g>
    <g id="line2d_18">
     <path d="M 523.439062 56.298437 
L 533.439062 56.298437 
L 543.439062 56.298437 
" style="fill: none; stroke: #1f77b4; stroke-width: 1.5; stroke-linecap: square"/>
    </g>
    <g id="text_17">
     <!-- Training-Source -->
     <g transform="translate(551.439062 59.798437) scale(0.1 -0.1)">
      <defs>
       <path id="DejaVuSans-2d" d="M 313 2009 
L 1997 2009 
L 1997 1497 
L 313 1497 
L 313 2009 
z
" transform="scale(0.015625)"/>
       <path id="DejaVuSans-53" d="M 3425 4513 
L 3425 3897 
Q 3066 4069 2747 4153 
Q 2428 4238 2131 4238 
Q 1616 4238 1336 4038 
Q 1056 3838 1056 3469 
Q 1056 3159 1242 3001 
Q 1428 2844 1947 2747 
L 2328 2669 
Q 3034 2534 3370 2195 
Q 3706 1856 3706 1288 
Q 3706 609 3251 259 
Q 2797 -91 1919 -91 
Q 1588 -91 1214 -16 
Q 841 59 441 206 
L 441 856 
Q 825 641 1194 531 
Q 1563 422 1919 422 
Q 2459 422 2753 634 
Q 3047 847 3047 1241 
Q 3047 1584 2836 1778 
Q 2625 1972 2144 2069 
L 1759 2144 
Q 1053 2284 737 2584 
Q 422 2884 422 3419 
Q 422 4038 858 4394 
Q 1294 4750 2059 4750 
Q 2388 4750 2728 4690 
Q 3069 4631 3425 4513 
z
" transform="scale(0.015625)"/>
       <path id="DejaVuSans-75" d="M 544 1381 
L 544 3500 
L 1119 3500 
L 1119 1403 
Q 1119 906 1312 657 
Q 1506 409 1894 409 
Q 2359 409 2629 706 
Q 2900 1003 2900 1516 
L 2900 3500 
L 3475 3500 
L 3475 0 
L 2900 0 
L 2900 538 
Q 2691 219 2414 64 
Q 2138 -91 1772 -91 
Q 1169 -91 856 284 
Q 544 659 544 1381 
z
M 1991 3584 
L 1991 3584 
z
" transform="scale(0.015625)"/>
       <path id="DejaVuSans-65" d="M 3597 1894 
L 3597 1613 
L 953 1613 
Q 991 1019 1311 708 
Q 1631 397 2203 397 
Q 2534 397 2845 478 
Q 3156 559 3463 722 
L 3463 178 
Q 3153 47 2828 -22 
Q 2503 -91 2169 -91 
Q 1331 -91 842 396 
Q 353 884 353 1716 
Q 353 2575 817 3079 
Q 1281 3584 2069 3584 
Q 2775 3584 3186 3129 
Q 3597 2675 3597 1894 
z
M 3022 2063 
Q 3016 2534 2758 2815 
Q 2500 3097 2075 3097 
Q 1594 3097 1305 2825 
Q 1016 2553 972 2059 
L 3022 2063 
z
" transform="scale(0.015625)"/>
      </defs>
      <use xlink:href="#DejaVuSans-54"/>
      <use xlink:href="#DejaVuSans-72" transform="translate(46.333984 0)"/>
      <use xlink:href="#DejaVuSans-61" transform="translate(87.447266 0)"/>
      <use xlink:href="#DejaVuSans-69" transform="translate(148.726562 0)"/>
      <use xlink:href="#DejaVuSans-6e" transform="translate(176.509766 0)"/>
      <use xlink:href="#DejaVuSans-69" transform="translate(239.888672 0)"/>
      <use xlink:href="#DejaVuSans-6e" transform="translate(267.671875 0)"/>
      <use xlink:href="#DejaVuSans-67" transform="translate(331.050781 0)"/>
      <use xlink:href="#DejaVuSans-2d" transform="translate(394.527344 0)"/>
      <use xlink:href="#DejaVuSans-53" transform="translate(430.611328 0)"/>
      <use xlink:href="#DejaVuSans-6f" transform="translate(494.087891 0)"/>
      <use xlink:href="#DejaVuSans-75" transform="translate(555.269531 0)"/>
      <use xlink:href="#DejaVuSans-72" transform="translate(618.648438 0)"/>
      <use xlink:href="#DejaVuSans-63" transform="translate(657.511719 0)"/>
      <use xlink:href="#DejaVuSans-65" transform="translate(712.492188 0)"/>
     </g>
    </g>
    <g id="line2d_19">
     <path d="M 523.439062 70.976562 
L 533.439062 70.976562 
L 543.439062 70.976562 
" style="fill: none; stroke: #ff7f0e; stroke-width: 1.5; stroke-linecap: square"/>
    </g>
    <g id="text_18">
     <!-- Training-Target -->
     <g transform="translate(551.439062 74.476562) scale(0.1 -0.1)">
      <use xlink:href="#DejaVuSans-54"/>
      <use xlink:href="#DejaVuSans-72" transform="translate(46.333984 0)"/>
      <use xlink:href="#DejaVuSans-61" transform="translate(87.447266 0)"/>
      <use xlink:href="#DejaVuSans-69" transform="translate(148.726562 0)"/>
      <use xlink:href="#DejaVuSans-6e" transform="translate(176.509766 0)"/>
      <use xlink:href="#DejaVuSans-69" transform="translate(239.888672 0)"/>
      <use xlink:href="#DejaVuSans-6e" transform="translate(267.671875 0)"/>
      <use xlink:href="#DejaVuSans-67" transform="translate(331.050781 0)"/>
      <use xlink:href="#DejaVuSans-2d" transform="translate(394.527344 0)"/>
      <use xlink:href="#DejaVuSans-54" transform="translate(421.486328 0)"/>
      <use xlink:href="#DejaVuSans-61" transform="translate(466.070312 0)"/>
      <use xlink:href="#DejaVuSans-72" transform="translate(527.349609 0)"/>
      <use xlink:href="#DejaVuSans-67" transform="translate(566.712891 0)"/>
      <use xlink:href="#DejaVuSans-65" transform="translate(630.189453 0)"/>
      <use xlink:href="#DejaVuSans-74" transform="translate(691.712891 0)"/>
     </g>
    </g>
    <g id="line2d_20">
     <path d="M 523.439062 85.654687 
L 533.439062 85.654687 
L 543.439062 85.654687 
" style="fill: none; stroke: #2ca02c; stroke-width: 1.5; stroke-linecap: square"/>
    </g>
    <g id="text_19">
     <!-- Validating-Source -->
     <g transform="translate(551.439062 89.154687) scale(0.1 -0.1)">
      <use xlink:href="#DejaVuSans-56"/>
      <use xlink:href="#DejaVuSans-61" transform="translate(60.658203 0)"/>
      <use xlink:href="#DejaVuSans-6c" transform="translate(121.9375 0)"/>
      <use xlink:href="#DejaVuSans-69" transform="translate(149.720703 0)"/>
      <use xlink:href="#DejaVuSans-64" transform="translate(177.503906 0)"/>
      <use xlink:href="#DejaVuSans-61" transform="translate(240.980469 0)"/>
      <use xlink:href="#DejaVuSans-74" transform="translate(302.259766 0)"/>
      <use xlink:href="#DejaVuSans-69" transform="translate(341.46875 0)"/>
      <use xlink:href="#DejaVuSans-6e" transform="translate(369.251953 0)"/>
      <use xlink:href="#DejaVuSans-67" transform="translate(432.630859 0)"/>
      <use xlink:href="#DejaVuSans-2d" transform="translate(496.107422 0)"/>
      <use xlink:href="#DejaVuSans-53" transform="translate(532.191406 0)"/>
      <use xlink:href="#DejaVuSans-6f" transform="translate(595.667969 0)"/>
      <use xlink:href="#DejaVuSans-75" transform="translate(656.849609 0)"/>
      <use xlink:href="#DejaVuSans-72" transform="translate(720.228516 0)"/>
      <use xlink:href="#DejaVuSans-63" transform="translate(759.091797 0)"/>
      <use xlink:href="#DejaVuSans-65" transform="translate(814.072266 0)"/>
     </g>
    </g>
    <g id="line2d_21">
     <path d="M 523.439062 100.332812 
L 533.439062 100.332812 
L 543.439062 100.332812 
" style="fill: none; stroke: #d62728; stroke-width: 1.5; stroke-linecap: square"/>
    </g>
    <g id="text_20">
     <!-- Validating-Target -->
     <g transform="translate(551.439062 103.832812) scale(0.1 -0.1)">
      <use xlink:href="#DejaVuSans-56"/>
      <use xlink:href="#DejaVuSans-61" transform="translate(60.658203 0)"/>
      <use xlink:href="#DejaVuSans-6c" transform="translate(121.9375 0)"/>
      <use xlink:href="#DejaVuSans-69" transform="translate(149.720703 0)"/>
      <use xlink:href="#DejaVuSans-64" transform="translate(177.503906 0)"/>
      <use xlink:href="#DejaVuSans-61" transform="translate(240.980469 0)"/>
      <use xlink:href="#DejaVuSans-74" transform="translate(302.259766 0)"/>
      <use xlink:href="#DejaVuSans-69" transform="translate(341.46875 0)"/>
      <use xlink:href="#DejaVuSans-6e" transform="translate(369.251953 0)"/>
      <use xlink:href="#DejaVuSans-67" transform="translate(432.630859 0)"/>
      <use xlink:href="#DejaVuSans-2d" transform="translate(496.107422 0)"/>
      <use xlink:href="#DejaVuSans-54" transform="translate(523.066406 0)"/>
      <use xlink:href="#DejaVuSans-61" transform="translate(567.650391 0)"/>
      <use xlink:href="#DejaVuSans-72" transform="translate(628.929688 0)"/>
      <use xlink:href="#DejaVuSans-67" transform="translate(668.292969 0)"/>
      <use xlink:href="#DejaVuSans-65" transform="translate(731.769531 0)"/>
      <use xlink:href="#DejaVuSans-74" transform="translate(793.292969 0)"/>
     </g>
    </g>
   </g>
  </g>
 </g>
 <defs>
  <clipPath id="p2dc3e52e67">
   <rect x="90" y="43.2" width="558" height="277.2"/>
  </clipPath>
 </defs>
</svg>
