<?xml version="1.0" encoding="utf-8" standalone="no"?>
<!DOCTYPE svg PUBLIC "-//W3C//DTD SVG 1.1//EN"
  "http://www.w3.org/Graphics/SVG/1.1/DTD/svg11.dtd">
<svg xmlns:xlink="http://www.w3.org/1999/xlink" width="720pt" height="360pt" viewBox="0 0 720 360" xmlns="http://www.w3.org/2000/svg" version="1.1">
 <metadata>
  <rdf:RDF xmlns:dc="http://purl.org/dc/elements/1.1/" xmlns:cc="http://creativecommons.org/ns#" xmlns:rdf="http://www.w3.org/1999/02/22-rdf-syntax-ns#">
   <cc:Work>
    <dc:type rdf:resource="http://purl.org/dc/dcmitype/StillImage"/>
    <dc:date>2025-12-05T22:34:12.499933</dc:date>
    <dc:format>image/svg+xml</dc:format>
    <dc:creator>
     <cc:Agent>
      <dc:title>Matplotlib v3.10.1, https://matplotlib.org/</dc:title>
     </cc:Agent>
    </dc:creator>
   </cc:Work>
  </rdf:RDF>
 </metadata>
 <defs>
  <style type="text/css">*{stroke-linejoin: round; stroke-linecap: butt}</style>
 </defs>
 <g id="figure_1">
  <g id="patch_1">
   <path d="M 0 360 
L 720 360 
L 720 0 
L 0 0 
z
" style="fill: #ffffff"/>
  </g>
  <g id="axes_1">
   <g id="patch_2">
    <path d="M 90 320.4 
L 648 320.4 
L 648 43.2 
L 90 43.2 
z
" style="fill: #ffffff"/>
   </g>
   <g id="matplotlib.axis_1">
    <g id="xtick_1">
     <g id="line2d_1">
      <defs>
       <path id="m842e1d9f73" d="M 0 0 
L 0 3.5 
" style="stroke: #000000; stroke-width: 0.8"/>
      </defs>
      <g>
       <use xlink:href="#m842e1d9f73" x="115.363636" y="320.4" style="stroke: #000000; stroke-width: 0.8"/>
      </g>
     </g>
     <g id="text_1">
      <!-- 0 -->
      <g transform="translate(112.182386 334.998438) scale(0.1 -0.1)">
       <defs>
        <path id="DejaVuSans-30" d="M 2034 4250 
Q 1547 4250 1301 3770 
Q 1056 3291 1056 2328 
Q 1056 1369 1301 889 
Q 1547 409 2034 409 
Q 2525 409 2770 889 
Q 3016 1369 3016 2328 
Q 3016 3291 2770 3770 
Q 2525 4250 2034 4250 
z
M 2034 4750 
Q 2819 4750 3233 4129 
Q 3647 3509 3647 2328 
Q 3647 1150 3233 529 
Q 2819 -91 2034 -91 
Q 1250 -91 836 529 
Q 422 1150 422 2328 
Q 422 3509 836 4129 
Q 1250 4750 2034 4750 
z
" transform="scale(0.015625)"/>
       </defs>
       <use xlink:href="#DejaVuSans-30"/>
      </g>
     </g>
    </g>
    <g id="xtick_2">
     <g id="line2d_2">
      <g>
       <use xlink:href="#m842e1d9f73" x="217.157495" y="320.4" style="stroke: #000000; stroke-width: 0.8"/>
      </g>
     </g>
     <g id="text_2">
      <!-- 60 -->
      <g transform="translate(210.794995 334.998438) scale(0.1 -0.1)">
       <defs>
        <path id="DejaVuSans-36" d="M 2113 2584 
Q 1688 2584 1439 2293 
Q 1191 2003 1191 1497 
Q 1191 994 1439 701 
Q 1688 409 2113 409 
Q 2538 409 2786 701 
Q 3034 994 3034 1497 
Q 3034 2003 2786 2293 
Q 2538 2584 2113 2584 
z
M 3366 4563 
L 3366 3988 
Q 3128 4100 2886 4159 
Q 2644 4219 2406 4219 
Q 1781 4219 1451 3797 
Q 1122 3375 1075 2522 
Q 1259 2794 1537 2939 
Q 1816 3084 2150 3084 
Q 2853 3084 3261 2657 
Q 3669 2231 3669 1497 
Q 3669 778 3244 343 
Q 2819 -91 2113 -91 
Q 1303 -91 875 529 
Q 447 1150 447 2328 
Q 447 3434 972 4092 
Q 1497 4750 2381 4750 
Q 2619 4750 2861 4703 
Q 3103 4656 3366 4563 
z
" transform="scale(0.015625)"/>
       </defs>
       <use xlink:href="#DejaVuSans-36"/>
       <use xlink:href="#DejaVuSans-30" transform="translate(63.623047 0)"/>
      </g>
     </g>
    </g>
    <g id="xtick_3">
     <g id="line2d_3">
      <g>
       <use xlink:href="#m842e1d9f73" x="318.951353" y="320.4" style="stroke: #000000; stroke-width: 0.8"/>
      </g>
     </g>
     <g id="text_3">
      <!-- 120 -->
      <g transform="translate(309.407603 334.998438) scale(0.1 -0.1)">
       <defs>
        <path id="DejaVuSans-31" d="M 794 531 
L 1825 531 
L 1825 4091 
L 703 3866 
L 703 4441 
L 1819 4666 
L 2450 4666 
L 2450 531 
L 3481 531 
L 3481 0 
L 794 0 
L 794 531 
z
" transform="scale(0.015625)"/>
        <path id="DejaVuSans-32" d="M 1228 531 
L 3431 531 
L 3431 0 
L 469 0 
L 469 531 
Q 828 903 1448 1529 
Q 2069 2156 2228 2338 
Q 2531 2678 2651 2914 
Q 2772 3150 2772 3378 
Q 2772 3750 2511 3984 
Q 2250 4219 1831 4219 
Q 1534 4219 1204 4116 
Q 875 4013 500 3803 
L 500 4441 
Q 881 4594 1212 4672 
Q 1544 4750 1819 4750 
Q 2544 4750 2975 4387 
Q 3406 4025 3406 3419 
Q 3406 3131 3298 2873 
Q 3191 2616 2906 2266 
Q 2828 2175 2409 1742 
Q 1991 1309 1228 531 
z
" transform="scale(0.015625)"/>
       </defs>
       <use xlink:href="#DejaVuSans-31"/>
       <use xlink:href="#DejaVuSans-32" transform="translate(63.623047 0)"/>
       <use xlink:href="#DejaVuSans-30" transform="translate(127.246094 0)"/>
      </g>
     </g>
    </g>
    <g id="xtick_4">
     <g id="line2d_4">
      <g>
       <use xlink:href="#m842e1d9f73" x="420.745211" y="320.4" style="stroke: #000000; stroke-width: 0.8"/>
      </g>
     </g>
     <g id="text_4">
      <!-- 180 -->
      <g transform="translate(411.201461 334.998438) scale(0.1 -0.1)">
       <defs>
        <path id="DejaVuSans-38" d="M 2034 2216 
Q 1584 2216 1326 1975 
Q 1069 1734 1069 1313 
Q 1069 891 1326 650 
Q 1584 409 2034 409 
Q 2484 409 2743 651 
Q 3003 894 3003 1313 
Q 3003 1734 2745 1975 
Q 2488 2216 2034 2216 
z
M 1403 2484 
Q 997 2584 770 2862 
Q 544 3141 544 3541 
Q 544 4100 942 4425 
Q 1341 4750 2034 4750 
Q 2731 4750 3128 4425 
Q 3525 4100 3525 3541 
Q 3525 3141 3298 2862 
Q 3072 2584 2669 2484 
Q 3125 2378 3379 2068 
Q 3634 1759 3634 1313 
Q 3634 634 3220 271 
Q 2806 -91 2034 -91 
Q 1263 -91 848 271 
Q 434 634 434 1313 
Q 434 1759 690 2068 
Q 947 2378 1403 2484 
z
M 1172 3481 
Q 1172 3119 1398 2916 
Q 1625 2713 2034 2713 
Q 2441 2713 2670 2916 
Q 2900 3119 2900 3481 
Q 2900 3844 2670 4047 
Q 2441 4250 2034 4250 
Q 1625 4250 1398 4047 
Q 1172 3844 1172 3481 
z
" transform="scale(0.015625)"/>
       </defs>
       <use xlink:href="#DejaVuSans-31"/>
       <use xlink:href="#DejaVuSans-38" transform="translate(63.623047 0)"/>
       <use xlink:href="#DejaVuSans-30" transform="translate(127.246094 0)"/>
      </g>
     </g>
    </g>
    <g id="xtick_5">
     <g id="line2d_5">
      <g>
       <use xlink:href="#m842e1d9f73" x="522.53907" y="320.4" style="stroke: #000000; stroke-width: 0.8"/>
      </g>
     </g>
     <g id="text_5">
      <!-- 240 -->
      <g transform="translate(512.99532 334.998438) scale(0.1 -0.1)">
       <defs>
        <path id="DejaVuSans-34" d="M 2419 4116 
L 825 1625 
L 2419 1625 
L 2419 4116 
z
M 2253 4666 
L 3047 4666 
L 3047 1625 
L 3713 1625 
L 3713 1100 
L 3047 1100 
L 3047 0 
L 2419 0 
L 2419 1100 
L 313 1100 
L 313 1709 
L 2253 4666 
z
" transform="scale(0.015625)"/>
       </defs>
       <use xlink:href="#DejaVuSans-32"/>
       <use xlink:href="#DejaVuSans-34" transform="translate(63.623047 0)"/>
       <use xlink:href="#DejaVuSans-30" transform="translate(127.246094 0)"/>
      </g>
     </g>
    </g>
    <g id="text_6">
     <!-- Epoch -->
     <g transform="translate(353.689062 348.676562) scale(0.1 -0.1)">
      <defs>
       <path id="DejaVuSans-45" d="M 628 4666 
L 3578 4666 
L 3578 4134 
L 1259 4134 
L 1259 2753 
L 3481 2753 
L 3481 2222 
L 1259 2222 
L 1259 531 
L 3634 531 
L 3634 0 
L 628 0 
L 628 4666 
z
" transform="scale(0.015625)"/>
       <path id="DejaVuSans-70" d="M 1159 525 
L 1159 -1331 
L 581 -1331 
L 581 3500 
L 1159 3500 
L 1159 2969 
Q 1341 3281 1617 3432 
Q 1894 3584 2278 3584 
Q 2916 3584 3314 3078 
Q 3713 2572 3713 1747 
Q 3713 922 3314 415 
Q 2916 -91 2278 -91 
Q 1894 -91 1617 61 
Q 1341 213 1159 525 
z
M 3116 1747 
Q 3116 2381 2855 2742 
Q 2594 3103 2138 3103 
Q 1681 3103 1420 2742 
Q 1159 2381 1159 1747 
Q 1159 1113 1420 752 
Q 1681 391 2138 391 
Q 2594 391 2855 752 
Q 3116 1113 3116 1747 
z
" transform="scale(0.015625)"/>
       <path id="DejaVuSans-6f" d="M 1959 3097 
Q 1497 3097 1228 2736 
Q 959 2375 959 1747 
Q 959 1119 1226 758 
Q 1494 397 1959 397 
Q 2419 397 2687 759 
Q 2956 1122 2956 1747 
Q 2956 2369 2687 2733 
Q 2419 3097 1959 3097 
z
M 1959 3584 
Q 2709 3584 3137 3096 
Q 3566 2609 3566 1747 
Q 3566 888 3137 398 
Q 2709 -91 1959 -91 
Q 1206 -91 779 398 
Q 353 888 353 1747 
Q 353 2609 779 3096 
Q 1206 3584 1959 3584 
z
" transform="scale(0.015625)"/>
       <path id="DejaVuSans-63" d="M 3122 3366 
L 3122 2828 
Q 2878 2963 2633 3030 
Q 2388 3097 2138 3097 
Q 1578 3097 1268 2742 
Q 959 2388 959 1747 
Q 959 1106 1268 751 
Q 1578 397 2138 397 
Q 2388 397 2633 464 
Q 2878 531 3122 666 
L 3122 134 
Q 2881 22 2623 -34 
Q 2366 -91 2075 -91 
Q 1284 -91 818 406 
Q 353 903 353 1747 
Q 353 2603 823 3093 
Q 1294 3584 2113 3584 
Q 2378 3584 2631 3529 
Q 2884 3475 3122 3366 
z
" transform="scale(0.015625)"/>
       <path id="DejaVuSans-68" d="M 3513 2113 
L 3513 0 
L 2938 0 
L 2938 2094 
Q 2938 2591 2744 2837 
Q 2550 3084 2163 3084 
Q 1697 3084 1428 2787 
Q 1159 2491 1159 1978 
L 1159 0 
L 581 0 
L 581 4863 
L 1159 4863 
L 1159 2956 
Q 1366 3272 1645 3428 
Q 1925 3584 2291 3584 
Q 2894 3584 3203 3211 
Q 3513 2838 3513 2113 
z
" transform="scale(0.015625)"/>
      </defs>
      <use xlink:href="#DejaVuSans-45"/>
      <use xlink:href="#DejaVuSans-70" transform="translate(63.183594 0)"/>
      <use xlink:href="#DejaVuSans-6f" transform="translate(126.660156 0)"/>
      <use xlink:href="#DejaVuSans-63" transform="translate(187.841797 0)"/>
      <use xlink:href="#DejaVuSans-68" transform="translate(242.822266 0)"/>
     </g>
    </g>
   </g>
   <g id="matplotlib.axis_2">
    <g id="ytick_1">
     <g id="line2d_6">
      <defs>
       <path id="m358a2057e2" d="M 0 0 
L -3.5 0 
" style="stroke: #000000; stroke-width: 0.8"/>
      </defs>
      <g>
       <use xlink:href="#m358a2057e2" x="90" y="308.634798" style="stroke: #000000; stroke-width: 0.8"/>
      </g>
     </g>
     <g id="text_7">
      <!-- 0.0 -->
      <g transform="translate(67.096875 312.434017) scale(0.1 -0.1)">
       <defs>
        <path id="DejaVuSans-2e" d="M 684 794 
L 1344 794 
L 1344 0 
L 684 0 
L 684 794 
z
" transform="scale(0.015625)"/>
       </defs>
       <use xlink:href="#DejaVuSans-30"/>
       <use xlink:href="#DejaVuSans-2e" transform="translate(63.623047 0)"/>
       <use xlink:href="#DejaVuSans-30" transform="translate(95.410156 0)"/>
      </g>
     </g>
    </g>
    <g id="ytick_2">
     <g id="line2d_7">
      <g>
       <use xlink:href="#m358a2057e2" x="90" y="258.844812" style="stroke: #000000; stroke-width: 0.8"/>
      </g>
     </g>
     <g id="text_8">
      <!-- 0.1 -->
      <g transform="translate(67.096875 262.644031) scale(0.1 -0.1)">
       <use xlink:href="#DejaVuSans-30"/>
       <use xlink:href="#DejaVuSans-2e" transform="translate(63.623047 0)"/>
       <use xlink:href="#DejaVuSans-31" transform="translate(95.410156 0)"/>
      </g>
     </g>
    </g>
    <g id="ytick_3">
     <g id="line2d_8">
      <g>
       <use xlink:href="#m358a2057e2" x="90" y="209.054826" style="stroke: #000000; stroke-width: 0.8"/>
      </g>
     </g>
     <g id="text_9">
      <!-- 0.2 -->
      <g transform="translate(67.096875 212.854045) scale(0.1 -0.1)">
       <use xlink:href="#DejaVuSans-30"/>
       <use xlink:href="#DejaVuSans-2e" transform="translate(63.623047 0)"/>
       <use xlink:href="#DejaVuSans-32" transform="translate(95.410156 0)"/>
      </g>
     </g>
    </g>
    <g id="ytick_4">
     <g id="line2d_9">
      <g>
       <use xlink:href="#m358a2057e2" x="90" y="159.26484" style="stroke: #000000; stroke-width: 0.8"/>
      </g>
     </g>
     <g id="text_10">
      <!-- 0.3 -->
      <g transform="translate(67.096875 163.064059) scale(0.1 -0.1)">
       <defs>
        <path id="DejaVuSans-33" d="M 2597 2516 
Q 3050 2419 3304 2112 
Q 3559 1806 3559 1356 
Q 3559 666 3084 287 
Q 2609 -91 1734 -91 
Q 1441 -91 1130 -33 
Q 819 25 488 141 
L 488 750 
Q 750 597 1062 519 
Q 1375 441 1716 441 
Q 2309 441 2620 675 
Q 2931 909 2931 1356 
Q 2931 1769 2642 2001 
Q 2353 2234 1838 2234 
L 1294 2234 
L 1294 2753 
L 1863 2753 
Q 2328 2753 2575 2939 
Q 2822 3125 2822 3475 
Q 2822 3834 2567 4026 
Q 2313 4219 1838 4219 
Q 1578 4219 1281 4162 
Q 984 4106 628 3988 
L 628 4550 
Q 988 4650 1302 4700 
Q 1616 4750 1894 4750 
Q 2613 4750 3031 4423 
Q 3450 4097 3450 3541 
Q 3450 3153 3228 2886 
Q 3006 2619 2597 2516 
z
" transform="scale(0.015625)"/>
       </defs>
       <use xlink:href="#DejaVuSans-30"/>
       <use xlink:href="#DejaVuSans-2e" transform="translate(63.623047 0)"/>
       <use xlink:href="#DejaVuSans-33" transform="translate(95.410156 0)"/>
      </g>
     </g>
    </g>
    <g id="ytick_5">
     <g id="line2d_10">
      <g>
       <use xlink:href="#m358a2057e2" x="90" y="109.474854" style="stroke: #000000; stroke-width: 0.8"/>
      </g>
     </g>
     <g id="text_11">
      <!-- 0.4 -->
      <g transform="translate(67.096875 113.274073) scale(0.1 -0.1)">
       <use xlink:href="#DejaVuSans-30"/>
       <use xlink:href="#DejaVuSans-2e" transform="translate(63.623047 0)"/>
       <use xlink:href="#DejaVuSans-34" transform="translate(95.410156 0)"/>
      </g>
     </g>
    </g>
    <g id="ytick_6">
     <g id="line2d_11">
      <g>
       <use xlink:href="#m358a2057e2" x="90" y="59.684868" style="stroke: #000000; stroke-width: 0.8"/>
      </g>
     </g>
     <g id="text_12">
      <!-- 0.5 -->
      <g transform="translate(67.096875 63.484087) scale(0.1 -0.1)">
       <defs>
        <path id="DejaVuSans-35" d="M 691 4666 
L 3169 4666 
L 3169 4134 
L 1269 4134 
L 1269 2991 
Q 1406 3038 1543 3061 
Q 1681 3084 1819 3084 
Q 2600 3084 3056 2656 
Q 3513 2228 3513 1497 
Q 3513 744 3044 326 
Q 2575 -91 1722 -91 
Q 1428 -91 1123 -41 
Q 819 9 494 109 
L 494 744 
Q 775 591 1075 516 
Q 1375 441 1709 441 
Q 2250 441 2565 725 
Q 2881 1009 2881 1497 
Q 2881 1984 2565 2268 
Q 2250 2553 1709 2553 
Q 1456 2553 1204 2497 
Q 953 2441 691 2322 
L 691 4666 
z
" transform="scale(0.015625)"/>
       </defs>
       <use xlink:href="#DejaVuSans-30"/>
       <use xlink:href="#DejaVuSans-2e" transform="translate(63.623047 0)"/>
       <use xlink:href="#DejaVuSans-35" transform="translate(95.410156 0)"/>
      </g>
     </g>
    </g>
    <g id="text_13">
     <!-- Estimation Loss -->
     <g transform="translate(61.017187 220.98125) rotate(-90) scale(0.1 -0.1)">
      <defs>
       <path id="DejaVuSans-73" d="M 2834 3397 
L 2834 2853 
Q 2591 2978 2328 3040 
Q 2066 3103 1784 3103 
Q 1356 3103 1142 2972 
Q 928 2841 928 2578 
Q 928 2378 1081 2264 
Q 1234 2150 1697 2047 
L 1894 2003 
Q 2506 1872 2764 1633 
Q 3022 1394 3022 966 
Q 3022 478 2636 193 
Q 2250 -91 1575 -91 
Q 1294 -91 989 -36 
Q 684 19 347 128 
L 347 722 
Q 666 556 975 473 
Q 1284 391 1588 391 
Q 1994 391 2212 530 
Q 2431 669 2431 922 
Q 2431 1156 2273 1281 
Q 2116 1406 1581 1522 
L 1381 1569 
Q 847 1681 609 1914 
Q 372 2147 372 2553 
Q 372 3047 722 3315 
Q 1072 3584 1716 3584 
Q 2034 3584 2315 3537 
Q 2597 3491 2834 3397 
z
" transform="scale(0.015625)"/>
       <path id="DejaVuSans-74" d="M 1172 4494 
L 1172 3500 
L 2356 3500 
L 2356 3053 
L 1172 3053 
L 1172 1153 
Q 1172 725 1289 603 
Q 1406 481 1766 481 
L 2356 481 
L 2356 0 
L 1766 0 
Q 1100 0 847 248 
Q 594 497 594 1153 
L 594 3053 
L 172 3053 
L 172 3500 
L 594 3500 
L 594 4494 
L 1172 4494 
z
" transform="scale(0.015625)"/>
       <path id="DejaVuSans-69" d="M 603 3500 
L 1178 3500 
L 1178 0 
L 603 0 
L 603 3500 
z
M 603 4863 
L 1178 4863 
L 1178 4134 
L 603 4134 
L 603 4863 
z
" transform="scale(0.015625)"/>
       <path id="DejaVuSans-6d" d="M 3328 2828 
Q 3544 3216 3844 3400 
Q 4144 3584 4550 3584 
Q 5097 3584 5394 3201 
Q 5691 2819 5691 2113 
L 5691 0 
L 5113 0 
L 5113 2094 
Q 5113 2597 4934 2840 
Q 4756 3084 4391 3084 
Q 3944 3084 3684 2787 
Q 3425 2491 3425 1978 
L 3425 0 
L 2847 0 
L 2847 2094 
Q 2847 2600 2669 2842 
Q 2491 3084 2119 3084 
Q 1678 3084 1418 2786 
Q 1159 2488 1159 1978 
L 1159 0 
L 581 0 
L 581 3500 
L 1159 3500 
L 1159 2956 
Q 1356 3278 1631 3431 
Q 1906 3584 2284 3584 
Q 2666 3584 2933 3390 
Q 3200 3197 3328 2828 
z
" transform="scale(0.015625)"/>
       <path id="DejaVuSans-61" d="M 2194 1759 
Q 1497 1759 1228 1600 
Q 959 1441 959 1056 
Q 959 750 1161 570 
Q 1363 391 1709 391 
Q 2188 391 2477 730 
Q 2766 1069 2766 1631 
L 2766 1759 
L 2194 1759 
z
M 3341 1997 
L 3341 0 
L 2766 0 
L 2766 531 
Q 2569 213 2275 61 
Q 1981 -91 1556 -91 
Q 1019 -91 701 211 
Q 384 513 384 1019 
Q 384 1609 779 1909 
Q 1175 2209 1959 2209 
L 2766 2209 
L 2766 2266 
Q 2766 2663 2505 2880 
Q 2244 3097 1772 3097 
Q 1472 3097 1187 3025 
Q 903 2953 641 2809 
L 641 3341 
Q 956 3463 1253 3523 
Q 1550 3584 1831 3584 
Q 2591 3584 2966 3190 
Q 3341 2797 3341 1997 
z
" transform="scale(0.015625)"/>
       <path id="DejaVuSans-6e" d="M 3513 2113 
L 3513 0 
L 2938 0 
L 2938 2094 
Q 2938 2591 2744 2837 
Q 2550 3084 2163 3084 
Q 1697 3084 1428 2787 
Q 1159 2491 1159 1978 
L 1159 0 
L 581 0 
L 581 3500 
L 1159 3500 
L 1159 2956 
Q 1366 3272 1645 3428 
Q 1925 3584 2291 3584 
Q 2894 3584 3203 3211 
Q 3513 2838 3513 2113 
z
" transform="scale(0.015625)"/>
       <path id="DejaVuSans-20" transform="scale(0.015625)"/>
       <path id="DejaVuSans-4c" d="M 628 4666 
L 1259 4666 
L 1259 531 
L 3531 531 
L 3531 0 
L 628 0 
L 628 4666 
z
" transform="scale(0.015625)"/>
      </defs>
      <use xlink:href="#DejaVuSans-45"/>
      <use xlink:href="#DejaVuSans-73" transform="translate(63.183594 0)"/>
      <use xlink:href="#DejaVuSans-74" transform="translate(115.283203 0)"/>
      <use xlink:href="#DejaVuSans-69" transform="translate(154.492188 0)"/>
      <use xlink:href="#DejaVuSans-6d" transform="translate(182.275391 0)"/>
      <use xlink:href="#DejaVuSans-61" transform="translate(279.6875 0)"/>
      <use xlink:href="#DejaVuSans-74" transform="translate(340.966797 0)"/>
      <use xlink:href="#DejaVuSans-69" transform="translate(380.175781 0)"/>
      <use xlink:href="#DejaVuSans-6f" transform="translate(407.958984 0)"/>
      <use xlink:href="#DejaVuSans-6e" transform="translate(469.140625 0)"/>
      <use xlink:href="#DejaVuSans-20" transform="translate(532.519531 0)"/>
      <use xlink:href="#DejaVuSans-4c" transform="translate(564.306641 0)"/>
      <use xlink:href="#DejaVuSans-6f" transform="translate(618.269531 0)"/>
      <use xlink:href="#DejaVuSans-73" transform="translate(679.451172 0)"/>
      <use xlink:href="#DejaVuSans-73" transform="translate(731.550781 0)"/>
     </g>
    </g>
   </g>
   <g id="line2d_12">
    <path d="M 115.363636 55.8 
L 117.060201 193.038181 
L 118.756765 236.247282 
L 120.453329 255.487897 
L 122.149894 267.658748 
L 123.846458 275.751111 
L 125.543022 281.054555 
L 127.239587 284.68376 
L 128.936151 287.293141 
L 130.632715 289.280647 
L 132.329279 290.812352 
L 134.025844 292.130454 
L 137.418972 294.164484 
L 140.812101 295.71329 
L 144.20523 296.974343 
L 147.598358 298.01604 
L 150.991487 298.920455 
L 152.688051 299.394243 
L 154.384615 299.720571 
L 157.777744 300.537466 
L 159.474308 300.740825 
L 161.170873 301.192529 
L 173.046823 302.954922 
L 174.743387 303.136696 
L 176.439951 303.430702 
L 178.136516 303.40379 
L 179.83308 303.716244 
L 188.315901 304.348741 
L 190.012466 304.552443 
L 191.70903 304.502911 
L 195.102159 304.853712 
L 196.798723 304.826619 
L 200.191852 305.028738 
L 203.58498 305.226017 
L 205.281545 305.33039 
L 206.978109 305.190663 
L 208.674673 305.40442 
L 237.516266 306.190755 
L 239.212831 306.102997 
L 245.999088 306.311771 
L 247.695652 306.258229 
L 251.088781 306.425376 
L 254.481909 306.35685 
L 256.178474 306.483215 
L 259.571602 306.450001 
L 261.268167 306.555797 
L 262.964731 306.432082 
L 264.661295 306.596819 
L 269.750988 306.539613 
L 274.840681 306.718215 
L 276.537245 306.583143 
L 279.930374 306.745446 
L 281.626938 306.679857 
L 286.716631 306.801252 
L 288.413196 306.667295 
L 290.10976 306.843429 
L 300.289146 306.839901 
L 301.98571 306.934705 
L 303.682274 306.842006 
L 305.378839 306.952496 
L 310.468531 306.930907 
L 312.165096 307.024416 
L 313.86166 306.885268 
L 317.254789 307.01456 
L 322.344482 307.057932 
L 330.827303 307.080629 
L 334.220432 307.106422 
L 388.51049 307.24107 
L 390.207054 307.378434 
L 405.476133 307.372196 
L 407.172697 307.442926 
L 408.869261 307.313638 
L 413.958954 307.376667 
L 439.407419 307.536459 
L 441.103983 307.400719 
L 444.497112 307.496724 
L 454.676497 307.454659 
L 456.373062 307.567741 
L 466.552448 307.49232 
L 468.249012 307.572485 
L 469.945576 307.505953 
L 473.338705 307.60462 
L 476.731833 307.531378 
L 480.124962 307.570396 
L 486.911219 307.568618 
L 517.449377 307.625077 
L 519.145941 307.658462 
L 520.842505 307.566245 
L 524.235634 307.629054 
L 532.718455 307.710134 
L 534.41502 307.571882 
L 537.808148 307.697191 
L 542.897841 307.663704 
L 544.594406 307.720091 
L 546.29097 307.585982 
L 547.987534 307.7027 
L 564.953177 307.627229 
L 566.649742 307.744931 
L 573.435999 307.669205 
L 575.132563 307.763841 
L 578.525692 307.703349 
L 581.91882 307.721387 
L 585.311949 307.72634 
L 588.705078 307.776158 
L 592.098206 307.660103 
L 593.79477 307.782588 
L 602.277592 307.699236 
L 605.670721 307.8 
L 607.367285 307.704086 
L 612.456978 307.755469 
L 622.636364 307.715749 
L 622.636364 307.715749 
" clip-path="url(#p120de26e85)" style="fill: none; stroke: #1f77b4; stroke-width: 1.5; stroke-linecap: square"/>
   </g>
   <g id="line2d_13">
    <path d="M 115.363636 93.075243 
L 117.060201 192.46102 
L 118.756765 225.337724 
L 120.453329 240.792668 
L 122.149894 250.746941 
L 123.846458 257.402133 
L 125.543022 261.628096 
L 127.239587 264.437765 
L 128.936151 266.516962 
L 130.632715 268.122893 
L 132.329279 269.4841 
L 135.722408 271.673503 
L 137.418972 272.592667 
L 142.508665 274.761921 
L 149.294922 276.927003 
L 161.170873 279.792229 
L 166.260566 280.776406 
L 167.95713 280.979089 
L 169.653694 281.331523 
L 173.046823 281.711114 
L 174.743387 282.052124 
L 176.439951 282.267157 
L 178.136516 282.318109 
L 179.83308 282.689823 
L 188.315901 283.368074 
L 190.012466 283.603163 
L 191.70903 283.552749 
L 193.405594 283.794936 
L 195.102159 283.906735 
L 196.798723 283.822662 
L 198.495287 284.108342 
L 205.281545 284.425237 
L 206.978109 284.34067 
L 208.674673 284.59289 
L 212.067802 284.594208 
L 215.46093 284.805814 
L 217.157495 284.75591 
L 218.854059 284.939888 
L 222.247188 284.926584 
L 223.943752 285.10357 
L 230.730009 285.194517 
L 232.426573 285.368036 
L 234.123138 285.218518 
L 237.516266 285.427286 
L 240.909395 285.367686 
L 242.605959 285.540018 
L 247.695652 285.503148 
L 251.088781 285.739026 
L 252.785345 285.603944 
L 259.571602 285.663261 
L 261.268167 285.86077 
L 262.964731 285.685199 
L 264.661295 285.884078 
L 271.447552 285.885614 
L 279.930374 285.940232 
L 283.323503 286.065493 
L 288.413196 286.032728 
L 291.806324 286.161887 
L 295.199453 286.105376 
L 296.896017 286.281656 
L 300.289146 286.172061 
L 301.98571 286.28599 
L 303.682274 286.15945 
L 305.378839 286.333149 
L 307.075403 286.346707 
L 308.771967 286.23028 
L 312.165096 286.425922 
L 313.86166 286.248122 
L 315.558224 286.365129 
L 317.254789 286.288512 
L 318.951353 286.390085 
L 320.647917 286.314214 
L 322.344482 286.481704 
L 324.041046 286.338839 
L 325.73761 286.465626 
L 329.130739 286.471487 
L 330.827303 286.501427 
L 332.523867 286.405173 
L 335.916996 286.506691 
L 337.61356 286.333183 
L 339.310125 286.585775 
L 342.703253 286.500467 
L 344.399818 286.598908 
L 346.096382 286.49589 
L 347.792946 286.671445 
L 351.186075 286.467676 
L 352.882639 286.693914 
L 354.579203 286.586409 
L 359.668896 286.681084 
L 361.365461 286.614897 
L 363.062025 286.723017 
L 366.455154 286.636094 
L 368.151718 286.704221 
L 369.848282 286.625359 
L 371.544846 286.726582 
L 378.331104 286.729839 
L 380.027668 286.804637 
L 383.420797 286.740337 
L 385.117361 286.724309 
L 386.813925 286.877709 
L 388.51049 286.679733 
L 390.207054 286.85276 
L 395.296747 286.800676 
L 400.38644 286.813982 
L 405.476133 286.876344 
L 415.655518 286.882341 
L 417.352083 286.935581 
L 419.048647 286.793425 
L 420.745211 286.925109 
L 425.834904 286.915282 
L 432.621161 287.00613 
L 434.317726 286.867411 
L 437.710854 286.997534 
L 444.497112 287.004191 
L 454.676497 286.979051 
L 456.373062 287.122014 
L 459.76619 287.026638 
L 461.462755 286.985201 
L 463.159319 287.111088 
L 464.855883 287.018086 
L 468.249012 287.1161 
L 471.64214 287.100064 
L 473.338705 287.143114 
L 476.731833 287.033748 
L 493.697476 287.127825 
L 495.394041 287.008559 
L 497.090605 287.175911 
L 500.483734 287.07146 
L 502.180298 287.185613 
L 507.269991 287.16302 
L 522.53907 287.18237 
L 525.932198 287.25338 
L 527.628763 287.168476 
L 529.325327 287.310669 
L 537.808148 287.311792 
L 539.504713 287.352307 
L 541.201277 287.276131 
L 544.594406 287.385919 
L 546.29097 287.260733 
L 547.987534 287.354441 
L 551.380663 287.331712 
L 559.863484 287.395169 
L 561.560049 287.290858 
L 563.256613 287.47705 
L 564.953177 287.355753 
L 566.649742 287.409126 
L 568.346306 287.326262 
L 570.04287 287.430715 
L 583.615385 287.399978 
L 585.311949 287.480248 
L 587.008513 287.42324 
L 590.401642 287.436681 
L 592.098206 287.386989 
L 595.491335 287.442474 
L 602.277592 287.367254 
L 605.670721 287.482253 
L 609.063849 287.435641 
L 622.636364 287.382229 
L 622.636364 287.382229 
" clip-path="url(#p120de26e85)" style="fill: none; stroke: #ff7f0e; stroke-width: 1.5; stroke-linecap: square"/>
   </g>
   <g id="line2d_14">
    <path d="M 115.363636 151.498674 
L 117.060201 217.937307 
L 118.756765 242.428954 
L 120.453329 256.875881 
L 122.149894 266.666498 
L 123.846458 273.185985 
L 125.543022 277.583951 
L 127.239587 280.762309 
L 128.936151 283.194461 
L 130.632715 285.107374 
L 132.329279 286.718709 
L 134.025844 288.084858 
L 137.418972 290.262746 
L 139.115537 291.218223 
L 140.812101 291.871783 
L 142.508665 292.862812 
L 150.991487 295.851964 
L 154.384615 296.842187 
L 156.08118 297.26269 
L 157.777744 297.445992 
L 159.474308 298.223288 
L 161.170873 298.486707 
L 162.867437 298.963272 
L 174.743387 300.964246 
L 176.439951 301.074048 
L 181.529644 301.76087 
L 193.405594 302.801804 
L 195.102159 302.94955 
L 196.798723 302.613137 
L 200.191852 303.257792 
L 201.888416 303.178781 
L 203.58498 303.369536 
L 205.281545 303.412423 
L 206.978109 303.314842 
L 208.674673 303.698326 
L 212.067802 303.689116 
L 215.46093 303.877418 
L 217.157495 303.693588 
L 218.854059 304.044955 
L 220.550623 304.092853 
L 222.247188 304.011011 
L 223.943752 304.197083 
L 225.640316 304.048197 
L 229.033445 304.264659 
L 230.730009 304.167831 
L 232.426573 304.459411 
L 234.123138 304.231979 
L 237.516266 304.602186 
L 239.212831 304.494263 
L 244.302524 304.730423 
L 247.695652 304.622548 
L 252.785345 304.841473 
L 254.481909 304.751059 
L 257.875038 304.921943 
L 259.571602 304.768896 
L 261.268167 304.98911 
L 262.964731 304.895779 
L 268.054424 305.02915 
L 269.750988 305.062208 
L 271.447552 304.969839 
L 276.537245 305.167845 
L 278.23381 305.217769 
L 279.930374 304.999357 
L 281.626938 305.29817 
L 296.896017 305.258485 
L 298.592581 305.441292 
L 301.98571 305.399573 
L 303.682274 305.281073 
L 307.075403 305.485348 
L 308.771967 305.319286 
L 315.558224 305.49711 
L 317.254789 305.453527 
L 318.951353 305.589477 
L 320.647917 305.452309 
L 322.344482 305.668723 
L 324.041046 305.204345 
L 325.73761 305.627168 
L 329.130739 305.544934 
L 330.827303 305.675101 
L 334.220432 305.506204 
L 335.916996 305.711417 
L 337.61356 305.544091 
L 339.310125 305.783226 
L 341.006689 305.659522 
L 342.703253 305.41547 
L 344.399818 305.773989 
L 346.096382 305.721526 
L 347.792946 305.822519 
L 349.48951 305.779183 
L 351.186075 305.520409 
L 352.882639 305.700784 
L 354.579203 305.75336 
L 356.275768 305.642502 
L 357.972332 305.805974 
L 364.758589 305.873274 
L 366.455154 305.716892 
L 369.848282 305.847116 
L 371.544846 305.79845 
L 374.937975 305.909467 
L 383.420797 305.923488 
L 385.117361 305.72487 
L 386.813925 306.02375 
L 388.51049 305.830538 
L 391.903618 305.926754 
L 395.296747 305.873719 
L 398.689875 305.999118 
L 400.38644 305.907617 
L 402.083004 305.996121 
L 403.779568 305.761507 
L 405.476133 305.979425 
L 410.565825 305.878087 
L 412.26239 306.100081 
L 413.958954 305.935473 
L 417.352083 306.024898 
L 419.048647 305.842915 
L 422.441776 306.034086 
L 424.13834 305.965335 
L 427.531469 306.121247 
L 432.621161 306.121036 
L 434.317726 305.925404 
L 439.407419 306.140397 
L 447.89024 305.94915 
L 449.586804 306.180164 
L 451.283369 305.940188 
L 452.979933 306.164516 
L 456.373062 306.064915 
L 458.069626 306.212825 
L 459.76619 306.221209 
L 461.462755 306.109373 
L 463.159319 306.218586 
L 464.855883 305.998489 
L 466.552448 306.209829 
L 471.64214 306.243152 
L 473.338705 306.347232 
L 475.035269 306.232124 
L 476.731833 306.232557 
L 478.428398 306.005004 
L 480.124962 306.19963 
L 483.518091 306.160996 
L 486.911219 306.22736 
L 488.607784 306.084589 
L 493.697476 306.302199 
L 495.394041 306.092568 
L 497.090605 306.283365 
L 500.483734 306.057512 
L 503.876862 306.277395 
L 505.573427 306.14468 
L 507.269991 306.222571 
L 512.359684 306.2136 
L 517.449377 306.326766 
L 519.145941 306.074909 
L 520.842505 306.355629 
L 522.53907 306.2675 
L 524.235634 306.394706 
L 525.932198 306.403033 
L 527.628763 306.213821 
L 529.325327 306.36089 
L 531.021891 306.32292 
L 532.718455 306.146471 
L 534.41502 306.374875 
L 536.111584 306.392008 
L 537.808148 306.265878 
L 544.594406 306.366298 
L 554.773791 306.384126 
L 564.953177 306.465776 
L 568.346306 306.439451 
L 570.04287 306.378413 
L 571.739434 306.475612 
L 576.829127 306.371056 
L 580.222256 306.523515 
L 581.91882 306.513677 
L 583.615385 306.31805 
L 585.311949 306.506739 
L 588.705078 306.378213 
L 590.401642 306.582886 
L 597.187899 306.497238 
L 602.277592 306.518621 
L 603.974156 306.45698 
L 607.367285 306.571185 
L 609.063849 306.41474 
L 610.760413 306.538487 
L 615.850106 306.467253 
L 619.243235 306.514248 
L 620.939799 306.573672 
L 622.636364 306.517246 
L 622.636364 306.517246 
" clip-path="url(#p120de26e85)" style="fill: none; stroke: #2ca02c; stroke-width: 1.5; stroke-linecap: square"/>
   </g>
   <g id="line2d_15">
    <path d="M 115.363636 149.161004 
L 117.060201 206.395456 
L 118.756765 228.079765 
L 120.453329 240.68456 
L 122.149894 249.125642 
L 123.846458 254.445716 
L 125.543022 257.798155 
L 127.239587 260.172 
L 128.936151 262.032854 
L 132.329279 264.684521 
L 134.025844 265.78108 
L 135.722408 266.510978 
L 137.418972 267.416331 
L 139.115537 268.072148 
L 140.812101 268.247129 
L 142.508665 269.328704 
L 144.20523 269.645832 
L 145.901794 270.338398 
L 147.598358 270.628902 
L 149.294922 271.24394 
L 150.991487 271.554115 
L 152.688051 272.042159 
L 156.08118 272.790637 
L 157.777744 272.709597 
L 159.474308 273.47735 
L 161.170873 273.693434 
L 166.260566 274.586375 
L 176.439951 275.923112 
L 178.136516 275.905161 
L 179.83308 276.170305 
L 184.922773 276.585407 
L 186.619337 276.541899 
L 188.315901 276.636034 
L 190.012466 276.950237 
L 193.405594 277.18894 
L 195.102159 277.390784 
L 196.798723 276.737601 
L 198.495287 277.329538 
L 200.191852 277.503213 
L 201.888416 277.356442 
L 203.58498 277.626056 
L 206.978109 277.602585 
L 208.674673 277.923615 
L 210.371237 277.748135 
L 217.157495 277.796139 
L 220.550623 278.122129 
L 222.247188 277.988454 
L 223.943752 278.208974 
L 225.640316 277.937869 
L 229.033445 278.09836 
L 230.730009 277.894152 
L 232.426573 278.307708 
L 234.123138 277.992429 
L 235.819702 278.33515 
L 237.516266 278.558366 
L 239.212831 278.399688 
L 242.605959 278.466407 
L 244.302524 278.543045 
L 247.695652 278.283791 
L 249.392216 278.363082 
L 251.088781 278.685703 
L 254.481909 278.464327 
L 257.875038 278.620956 
L 259.571602 278.360878 
L 261.268167 278.735508 
L 262.964731 278.527802 
L 269.750988 278.702274 
L 271.447552 278.503761 
L 274.840681 278.821313 
L 278.23381 278.896576 
L 279.930374 278.646336 
L 281.626938 279.016102 
L 283.323503 278.970694 
L 286.716631 279.030142 
L 288.413196 279.032691 
L 291.806324 278.851901 
L 295.199453 278.795164 
L 296.896017 278.877809 
L 298.592581 279.125232 
L 301.98571 278.942583 
L 303.682274 278.820731 
L 305.378839 278.894637 
L 307.075403 279.086015 
L 308.771967 278.820888 
L 313.86166 279.177622 
L 317.254789 279.027226 
L 318.951353 279.194409 
L 320.647917 279.001502 
L 322.344482 279.298378 
L 324.041046 278.641418 
L 325.73761 279.236589 
L 329.130739 279.080351 
L 330.827303 279.303238 
L 334.220432 279.021601 
L 335.916996 279.250405 
L 337.61356 279.04133 
L 339.310125 279.374708 
L 342.703253 278.968889 
L 344.399818 279.322797 
L 349.48951 279.347284 
L 351.186075 279.065023 
L 352.882639 279.249214 
L 354.579203 279.270731 
L 356.275768 279.136749 
L 357.972332 279.349551 
L 361.365461 279.506582 
L 363.062025 279.381884 
L 364.758589 279.461027 
L 366.455154 279.271873 
L 378.331104 279.541109 
L 381.724232 279.426883 
L 383.420797 279.585108 
L 385.117361 279.236972 
L 386.813925 279.623842 
L 388.51049 279.325736 
L 391.903618 279.428733 
L 393.600182 279.329039 
L 396.993311 279.462043 
L 400.38644 279.48768 
L 402.083004 279.490632 
L 403.779568 279.324013 
L 407.172697 279.50573 
L 408.869261 279.513965 
L 410.565825 279.394666 
L 412.26239 279.645426 
L 413.958954 279.473591 
L 415.655518 279.436125 
L 417.352083 279.538195 
L 419.048647 279.274205 
L 422.441776 279.536436 
L 424.13834 279.481592 
L 425.834904 279.634457 
L 429.228033 279.691661 
L 430.924597 279.478359 
L 432.621161 279.682169 
L 434.317726 279.471616 
L 439.407419 279.626938 
L 441.103983 279.71884 
L 442.800547 279.510002 
L 446.193676 279.650939 
L 447.89024 279.350121 
L 449.586804 279.751206 
L 451.283369 279.423135 
L 452.979933 279.752237 
L 454.676497 279.577252 
L 456.373062 279.57408 
L 458.069626 279.765118 
L 463.159319 279.719194 
L 464.855883 279.500682 
L 466.552448 279.723993 
L 469.945576 279.657275 
L 473.338705 279.943029 
L 475.035269 279.757236 
L 476.731833 279.754977 
L 478.428398 279.444919 
L 480.124962 279.653598 
L 485.214655 279.663369 
L 486.911219 279.752218 
L 488.607784 279.480694 
L 493.697476 279.810285 
L 495.394041 279.578699 
L 497.090605 279.820482 
L 500.483734 279.476145 
L 502.180298 279.701317 
L 503.876862 279.757077 
L 505.573427 279.607881 
L 507.269991 279.77132 
L 510.663119 279.562346 
L 512.359684 279.741882 
L 517.449377 279.900904 
L 519.145941 279.580787 
L 520.842505 279.922052 
L 522.53907 279.812282 
L 525.932198 279.995646 
L 527.628763 279.748311 
L 529.325327 279.929873 
L 532.718455 279.733581 
L 534.41502 279.956135 
L 536.111584 279.954799 
L 537.808148 279.705354 
L 539.504713 279.900914 
L 553.077227 279.964401 
L 559.863484 280.062158 
L 563.256613 280.031601 
L 566.649742 280.117352 
L 570.04287 279.971775 
L 573.435999 280.062455 
L 575.132563 280.099814 
L 576.829127 279.942977 
L 580.222256 280.137709 
L 581.91882 280.112965 
L 583.615385 279.870584 
L 585.311949 280.096654 
L 588.705078 279.958179 
L 590.401642 280.184925 
L 597.187899 280.10448 
L 605.670721 280.091965 
L 607.367285 280.173702 
L 609.063849 280.0072 
L 610.760413 280.167881 
L 612.456978 280.137427 
L 614.153542 280.235896 
L 615.850106 280.17493 
L 617.546671 280.265949 
L 619.243235 280.180774 
L 620.939799 280.280697 
L 622.636364 280.218183 
L 622.636364 280.218183 
" clip-path="url(#p120de26e85)" style="fill: none; stroke: #d62728; stroke-width: 1.5; stroke-linecap: square"/>
   </g>
   <g id="patch_3">
    <path d="M 90 320.4 
L 90 43.2 
" style="fill: none; stroke: #000000; stroke-width: 0.8; stroke-linejoin: miter; stroke-linecap: square"/>
   </g>
   <g id="patch_4">
    <path d="M 648 320.4 
L 648 43.2 
" style="fill: none; stroke: #000000; stroke-width: 0.8; stroke-linejoin: miter; stroke-linecap: square"/>
   </g>
   <g id="patch_5">
    <path d="M 90 320.4 
L 648 320.4 
" style="fill: none; stroke: #000000; stroke-width: 0.8; stroke-linejoin: miter; stroke-linecap: square"/>
   </g>
   <g id="patch_6">
    <path d="M 90 43.2 
L 648 43.2 
" style="fill: none; stroke: #000000; stroke-width: 0.8; stroke-linejoin: miter; stroke-linecap: square"/>
   </g>
   <g id="text_14">
    <!-- Training and Validating Estimation Loss -->
    <g transform="translate(251.535937 37.2) scale(0.12 -0.12)">
     <defs>
      <path id="DejaVuSans-54" d="M -19 4666 
L 3928 4666 
L 3928 4134 
L 2272 4134 
L 2272 0 
L 1638 0 
L 1638 4134 
L -19 4134 
L -19 4666 
z
" transform="scale(0.015625)"/>
      <path id="DejaVuSans-72" d="M 2631 2963 
Q 2534 3019 2420 3045 
Q 2306 3072 2169 3072 
Q 1681 3072 1420 2755 
Q 1159 2438 1159 1844 
L 1159 0 
L 581 0 
L 581 3500 
L 1159 3500 
L 1159 2956 
Q 1341 3275 1631 3429 
Q 1922 3584 2338 3584 
Q 2397 3584 2469 3576 
Q 2541 3569 2628 3553 
L 2631 2963 
z
" transform="scale(0.015625)"/>
      <path id="DejaVuSans-67" d="M 2906 1791 
Q 2906 2416 2648 2759 
Q 2391 3103 1925 3103 
Q 1463 3103 1205 2759 
Q 947 2416 947 1791 
Q 947 1169 1205 825 
Q 1463 481 1925 481 
Q 2391 481 2648 825 
Q 2906 1169 2906 1791 
z
M 3481 434 
Q 3481 -459 3084 -895 
Q 2688 -1331 1869 -1331 
Q 1566 -1331 1297 -1286 
Q 1028 -1241 775 -1147 
L 775 -588 
Q 1028 -725 1275 -790 
Q 1522 -856 1778 -856 
Q 2344 -856 2625 -561 
Q 2906 -266 2906 331 
L 2906 616 
Q 2728 306 2450 153 
Q 2172 0 1784 0 
Q 1141 0 747 490 
Q 353 981 353 1791 
Q 353 2603 747 3093 
Q 1141 3584 1784 3584 
Q 2172 3584 2450 3431 
Q 2728 3278 2906 2969 
L 2906 3500 
L 3481 3500 
L 3481 434 
z
" transform="scale(0.015625)"/>
      <path id="DejaVuSans-64" d="M 2906 2969 
L 2906 4863 
L 3481 4863 
L 3481 0 
L 2906 0 
L 2906 525 
Q 2725 213 2448 61 
Q 2172 -91 1784 -91 
Q 1150 -91 751 415 
Q 353 922 353 1747 
Q 353 2572 751 3078 
Q 1150 3584 1784 3584 
Q 2172 3584 2448 3432 
Q 2725 3281 2906 2969 
z
M 947 1747 
Q 947 1113 1208 752 
Q 1469 391 1925 391 
Q 2381 391 2643 752 
Q 2906 1113 2906 1747 
Q 2906 2381 2643 2742 
Q 2381 3103 1925 3103 
Q 1469 3103 1208 2742 
Q 947 2381 947 1747 
z
" transform="scale(0.015625)"/>
      <path id="DejaVuSans-56" d="M 1831 0 
L 50 4666 
L 709 4666 
L 2188 738 
L 3669 4666 
L 4325 4666 
L 2547 0 
L 1831 0 
z
" transform="scale(0.015625)"/>
      <path id="DejaVuSans-6c" d="M 603 4863 
L 1178 4863 
L 1178 0 
L 603 0 
L 603 4863 
z
" transform="scale(0.015625)"/>
     </defs>
     <use xlink:href="#DejaVuSans-54"/>
     <use xlink:href="#DejaVuSans-72" transform="translate(46.333984 0)"/>
     <use xlink:href="#DejaVuSans-61" transform="translate(87.447266 0)"/>
     <use xlink:href="#DejaVuSans-69" transform="translate(148.726562 0)"/>
     <use xlink:href="#DejaVuSans-6e" transform="translate(176.509766 0)"/>
     <use xlink:href="#DejaVuSans-69" transform="translate(239.888672 0)"/>
     <use xlink:href="#DejaVuSans-6e" transform="translate(267.671875 0)"/>
     <use xlink:href="#DejaVuSans-67" transform="translate(331.050781 0)"/>
     <use xlink:href="#DejaVuSans-20" transform="translate(394.527344 0)"/>
     <use xlink:href="#DejaVuSans-61" transform="translate(426.314453 0)"/>
     <use xlink:href="#DejaVuSans-6e" transform="translate(487.59375 0)"/>
     <use xlink:href="#DejaVuSans-64" transform="translate(550.972656 0)"/>
     <use xlink:href="#DejaVuSans-20" transform="translate(614.449219 0)"/>
     <use xlink:href="#DejaVuSans-56" transform="translate(646.236328 0)"/>
     <use xlink:href="#DejaVuSans-61" transform="translate(706.894531 0)"/>
     <use xlink:href="#DejaVuSans-6c" transform="translate(768.173828 0)"/>
     <use xlink:href="#DejaVuSans-69" transform="translate(795.957031 0)"/>
     <use xlink:href="#DejaVuSans-64" transform="translate(823.740234 0)"/>
     <use xlink:href="#DejaVuSans-61" transform="translate(887.216797 0)"/>
     <use xlink:href="#DejaVuSans-74" transform="translate(948.496094 0)"/>
     <use xlink:href="#DejaVuSans-69" transform="translate(987.705078 0)"/>
     <use xlink:href="#DejaVuSans-6e" transform="translate(1015.488281 0)"/>
     <use xlink:href="#DejaVuSans-67" transform="translate(1078.867188 0)"/>
     <use xlink:href="#DejaVuSans-20" transform="translate(1142.34375 0)"/>
     <use xlink:href="#DejaVuSans-45" transform="translate(1174.130859 0)"/>
     <use xlink:href="#DejaVuSans-73" transform="translate(1237.314453 0)"/>
     <use xlink:href="#DejaVuSans-74" transform="translate(1289.414062 0)"/>
     <use xlink:href="#DejaVuSans-69" transform="translate(1328.623047 0)"/>
     <use xlink:href="#DejaVuSans-6d" transform="translate(1356.40625 0)"/>
     <use xlink:href="#DejaVuSans-61" transform="translate(1453.818359 0)"/>
     <use xlink:href="#DejaVuSans-74" transform="translate(1515.097656 0)"/>
     <use xlink:href="#DejaVuSans-69" transform="translate(1554.306641 0)"/>
     <use xlink:href="#DejaVuSans-6f" transform="translate(1582.089844 0)"/>
     <use xlink:href="#DejaVuSans-6e" transform="translate(1643.271484 0)"/>
     <use xlink:href="#DejaVuSans-20" transform="translate(1706.650391 0)"/>
     <use xlink:href="#DejaVuSans-4c" transform="translate(1738.4375 0)"/>
     <use xlink:href="#DejaVuSans-6f" transform="translate(1792.400391 0)"/>
     <use xlink:href="#DejaVuSans-73" transform="translate(1853.582031 0)"/>
     <use xlink:href="#DejaVuSans-73" transform="translate(1905.681641 0)"/>
    </g>
   </g>
   <g id="legend_1">
    <g id="patch_7">
     <path d="M 521.439062 109.9125 
L 641 109.9125 
Q 643 109.9125 643 107.9125 
L 643 50.2 
Q 643 48.2 641 48.2 
L 521.439062 48.2 
Q 519.439062 48.2 519.439062 50.2 
L 519.439062 107.9125 
Q 519.439062 109.9125 521.439062 109.9125 
z
" style="fill: #ffffff; opacity: 0.8; stroke: #cccccc; stroke-linejoin: miter"/>
    </g>
    <g id="line2d_16">
     <path d="M 523.439062 56.298437 
L 533.439062 56.298437 
L 543.439062 56.298437 
" style="fill: none; stroke: #1f77b4; stroke-width: 1.5; stroke-linecap: square"/>
    </g>
    <g id="text_15">
     <!-- Training-Source -->
     <g transform="translate(551.439062 59.798437) scale(0.1 -0.1)">
      <defs>
       <path id="DejaVuSans-2d" d="M 313 2009 
L 1997 2009 
L 1997 1497 
L 313 1497 
L 313 2009 
z
" transform="scale(0.015625)"/>
       <path id="DejaVuSans-53" d="M 3425 4513 
L 3425 3897 
Q 3066 4069 2747 4153 
Q 2428 4238 2131 4238 
Q 1616 4238 1336 4038 
Q 1056 3838 1056 3469 
Q 1056 3159 1242 3001 
Q 1428 2844 1947 2747 
L 2328 2669 
Q 3034 2534 3370 2195 
Q 3706 1856 3706 1288 
Q 3706 609 3251 259 
Q 2797 -91 1919 -91 
Q 1588 -91 1214 -16 
Q 841 59 441 206 
L 441 856 
Q 825 641 1194 531 
Q 1563 422 1919 422 
Q 2459 422 2753 634 
Q 3047 847 3047 1241 
Q 3047 1584 2836 1778 
Q 2625 1972 2144 2069 
L 1759 2144 
Q 1053 2284 737 2584 
Q 422 2884 422 3419 
Q 422 4038 858 4394 
Q 1294 4750 2059 4750 
Q 2388 4750 2728 4690 
Q 3069 4631 3425 4513 
z
" transform="scale(0.015625)"/>
       <path id="DejaVuSans-75" d="M 544 1381 
L 544 3500 
L 1119 3500 
L 1119 1403 
Q 1119 906 1312 657 
Q 1506 409 1894 409 
Q 2359 409 2629 706 
Q 2900 1003 2900 1516 
L 2900 3500 
L 3475 3500 
L 3475 0 
L 2900 0 
L 2900 538 
Q 2691 219 2414 64 
Q 2138 -91 1772 -91 
Q 1169 -91 856 284 
Q 544 659 544 1381 
z
M 1991 3584 
L 1991 3584 
z
" transform="scale(0.015625)"/>
       <path id="DejaVuSans-65" d="M 3597 1894 
L 3597 1613 
L 953 1613 
Q 991 1019 1311 708 
Q 1631 397 2203 397 
Q 2534 397 2845 478 
Q 3156 559 3463 722 
L 3463 178 
Q 3153 47 2828 -22 
Q 2503 -91 2169 -91 
Q 1331 -91 842 396 
Q 353 884 353 1716 
Q 353 2575 817 3079 
Q 1281 3584 2069 3584 
Q 2775 3584 3186 3129 
Q 3597 2675 3597 1894 
z
M 3022 2063 
Q 3016 2534 2758 2815 
Q 2500 3097 2075 3097 
Q 1594 3097 1305 2825 
Q 1016 2553 972 2059 
L 3022 2063 
z
" transform="scale(0.015625)"/>
      </defs>
      <use xlink:href="#DejaVuSans-54"/>
      <use xlink:href="#DejaVuSans-72" transform="translate(46.333984 0)"/>
      <use xlink:href="#DejaVuSans-61" transform="translate(87.447266 0)"/>
      <use xlink:href="#DejaVuSans-69" transform="translate(148.726562 0)"/>
      <use xlink:href="#DejaVuSans-6e" transform="translate(176.509766 0)"/>
      <use xlink:href="#DejaVuSans-69" transform="translate(239.888672 0)"/>
      <use xlink:href="#DejaVuSans-6e" transform="translate(267.671875 0)"/>
      <use xlink:href="#DejaVuSans-67" transform="translate(331.050781 0)"/>
      <use xlink:href="#DejaVuSans-2d" transform="translate(394.527344 0)"/>
      <use xlink:href="#DejaVuSans-53" transform="translate(430.611328 0)"/>
      <use xlink:href="#DejaVuSans-6f" transform="translate(494.087891 0)"/>
      <use xlink:href="#DejaVuSans-75" transform="translate(555.269531 0)"/>
      <use xlink:href="#DejaVuSans-72" transform="translate(618.648438 0)"/>
      <use xlink:href="#DejaVuSans-63" transform="translate(657.511719 0)"/>
      <use xlink:href="#DejaVuSans-65" transform="translate(712.492188 0)"/>
     </g>
    </g>
    <g id="line2d_17">
     <path d="M 523.439062 70.976562 
L 533.439062 70.976562 
L 543.439062 70.976562 
" style="fill: none; stroke: #ff7f0e; stroke-width: 1.5; stroke-linecap: square"/>
    </g>
    <g id="text_16">
     <!-- Training-Target -->
     <g transform="translate(551.439062 74.476562) scale(0.1 -0.1)">
      <use xlink:href="#DejaVuSans-54"/>
      <use xlink:href="#DejaVuSans-72" transform="translate(46.333984 0)"/>
      <use xlink:href="#DejaVuSans-61" transform="translate(87.447266 0)"/>
      <use xlink:href="#DejaVuSans-69" transform="translate(148.726562 0)"/>
      <use xlink:href="#DejaVuSans-6e" transform="translate(176.509766 0)"/>
      <use xlink:href="#DejaVuSans-69" transform="translate(239.888672 0)"/>
      <use xlink:href="#DejaVuSans-6e" transform="translate(267.671875 0)"/>
      <use xlink:href="#DejaVuSans-67" transform="translate(331.050781 0)"/>
      <use xlink:href="#DejaVuSans-2d" transform="translate(394.527344 0)"/>
      <use xlink:href="#DejaVuSans-54" transform="translate(421.486328 0)"/>
      <use xlink:href="#DejaVuSans-61" transform="translate(466.070312 0)"/>
      <use xlink:href="#DejaVuSans-72" transform="translate(527.349609 0)"/>
      <use xlink:href="#DejaVuSans-67" transform="translate(566.712891 0)"/>
      <use xlink:href="#DejaVuSans-65" transform="translate(630.189453 0)"/>
      <use xlink:href="#DejaVuSans-74" transform="translate(691.712891 0)"/>
     </g>
    </g>
    <g id="line2d_18">
     <path d="M 523.439062 85.654687 
L 533.439062 85.654687 
L 543.439062 85.654687 
" style="fill: none; stroke: #2ca02c; stroke-width: 1.5; stroke-linecap: square"/>
    </g>
    <g id="text_17">
     <!-- Validating-Source -->
     <g transform="translate(551.439062 89.154687) scale(0.1 -0.1)">
      <use xlink:href="#DejaVuSans-56"/>
      <use xlink:href="#DejaVuSans-61" transform="translate(60.658203 0)"/>
      <use xlink:href="#DejaVuSans-6c" transform="translate(121.9375 0)"/>
      <use xlink:href="#DejaVuSans-69" transform="translate(149.720703 0)"/>
      <use xlink:href="#DejaVuSans-64" transform="translate(177.503906 0)"/>
      <use xlink:href="#DejaVuSans-61" transform="translate(240.980469 0)"/>
      <use xlink:href="#DejaVuSans-74" transform="translate(302.259766 0)"/>
      <use xlink:href="#DejaVuSans-69" transform="translate(341.46875 0)"/>
      <use xlink:href="#DejaVuSans-6e" transform="translate(369.251953 0)"/>
      <use xlink:href="#DejaVuSans-67" transform="translate(432.630859 0)"/>
      <use xlink:href="#DejaVuSans-2d" transform="translate(496.107422 0)"/>
      <use xlink:href="#DejaVuSans-53" transform="translate(532.191406 0)"/>
      <use xlink:href="#DejaVuSans-6f" transform="translate(595.667969 0)"/>
      <use xlink:href="#DejaVuSans-75" transform="translate(656.849609 0)"/>
      <use xlink:href="#DejaVuSans-72" transform="translate(720.228516 0)"/>
      <use xlink:href="#DejaVuSans-63" transform="translate(759.091797 0)"/>
      <use xlink:href="#DejaVuSans-65" transform="translate(814.072266 0)"/>
     </g>
    </g>
    <g id="line2d_19">
     <path d="M 523.439062 100.332812 
L 533.439062 100.332812 
L 543.439062 100.332812 
" style="fill: none; stroke: #d62728; stroke-width: 1.5; stroke-linecap: square"/>
    </g>
    <g id="text_18">
     <!-- Validating-Target -->
     <g transform="translate(551.439062 103.832812) scale(0.1 -0.1)">
      <use xlink:href="#DejaVuSans-56"/>
      <use xlink:href="#DejaVuSans-61" transform="translate(60.658203 0)"/>
      <use xlink:href="#DejaVuSans-6c" transform="translate(121.9375 0)"/>
      <use xlink:href="#DejaVuSans-69" transform="translate(149.720703 0)"/>
      <use xlink:href="#DejaVuSans-64" transform="translate(177.503906 0)"/>
      <use xlink:href="#DejaVuSans-61" transform="translate(240.980469 0)"/>
      <use xlink:href="#DejaVuSans-74" transform="translate(302.259766 0)"/>
      <use xlink:href="#DejaVuSans-69" transform="translate(341.46875 0)"/>
      <use xlink:href="#DejaVuSans-6e" transform="translate(369.251953 0)"/>
      <use xlink:href="#DejaVuSans-67" transform="translate(432.630859 0)"/>
      <use xlink:href="#DejaVuSans-2d" transform="translate(496.107422 0)"/>
      <use xlink:href="#DejaVuSans-54" transform="translate(523.066406 0)"/>
      <use xlink:href="#DejaVuSans-61" transform="translate(567.650391 0)"/>
      <use xlink:href="#DejaVuSans-72" transform="translate(628.929688 0)"/>
      <use xlink:href="#DejaVuSans-67" transform="translate(668.292969 0)"/>
      <use xlink:href="#DejaVuSans-65" transform="translate(731.769531 0)"/>
      <use xlink:href="#DejaVuSans-74" transform="translate(793.292969 0)"/>
     </g>
    </g>
   </g>
  </g>
 </g>
 <defs>
  <clipPath id="p120de26e85">
   <rect x="90" y="43.2" width="558" height="277.2"/>
  </clipPath>
 </defs>
</svg>
