<?xml version="1.0" encoding="utf-8" standalone="no"?>
<!DOCTYPE svg PUBLIC "-//W3C//DTD SVG 1.1//EN"
  "http://www.w3.org/Graphics/SVG/1.1/DTD/svg11.dtd">
<svg xmlns:xlink="http://www.w3.org/1999/xlink" width="720pt" height="360pt" viewBox="0 0 720 360" xmlns="http://www.w3.org/2000/svg" version="1.1">
 <metadata>
  <rdf:RDF xmlns:dc="http://purl.org/dc/elements/1.1/" xmlns:cc="http://creativecommons.org/ns#" xmlns:rdf="http://www.w3.org/1999/02/22-rdf-syntax-ns#">
   <cc:Work>
    <dc:type rdf:resource="http://purl.org/dc/dcmitype/StillImage"/>
    <dc:date>2026-03-06T15:03:18.655615</dc:date>
    <dc:format>image/svg+xml</dc:format>
    <dc:creator>
     <cc:Agent>
      <dc:title>Matplotlib v3.10.1, https://matplotlib.org/</dc:title>
     </cc:Agent>
    </dc:creator>
   </cc:Work>
  </rdf:RDF>
 </metadata>
 <defs>
  <style type="text/css">*{stroke-linejoin: round; stroke-linecap: butt}</style>
 </defs>
 <g id="figure_1">
  <g id="patch_1">
   <path d="M 0 360 
L 720 360 
L 720 0 
L 0 0 
z
" style="fill: #ffffff"/>
  </g>
  <g id="axes_1">
   <g id="patch_2">
    <path d="M 90 320.4 
L 648 320.4 
L 648 43.2 
L 90 43.2 
z
" style="fill: #ffffff"/>
   </g>
   <g id="matplotlib.axis_1">
    <g id="xtick_1">
     <g id="line2d_1">
      <defs>
       <path id="m6ade40f4c1" d="M 0 0 
L 0 3.5 
" style="stroke: #000000; stroke-width: 0.8"/>
      </defs>
      <g>
       <use xlink:href="#m6ade40f4c1" x="115.363636" y="320.4" style="stroke: #000000; stroke-width: 0.8"/>
      </g>
     </g>
     <g id="text_1">
      <!-- 0 -->
      <g transform="translate(112.182386 334.998438) scale(0.1 -0.1)">
       <defs>
        <path id="DejaVuSans-30" d="M 2034 4250 
Q 1547 4250 1301 3770 
Q 1056 3291 1056 2328 
Q 1056 1369 1301 889 
Q 1547 409 2034 409 
Q 2525 409 2770 889 
Q 3016 1369 3016 2328 
Q 3016 3291 2770 3770 
Q 2525 4250 2034 4250 
z
M 2034 4750 
Q 2819 4750 3233 4129 
Q 3647 3509 3647 2328 
Q 3647 1150 3233 529 
Q 2819 -91 2034 -91 
Q 1250 -91 836 529 
Q 422 1150 422 2328 
Q 422 3509 836 4129 
Q 1250 4750 2034 4750 
z
" transform="scale(0.015625)"/>
       </defs>
       <use xlink:href="#DejaVuSans-30"/>
      </g>
     </g>
    </g>
    <g id="xtick_2">
     <g id="line2d_2">
      <g>
       <use xlink:href="#m6ade40f4c1" x="217.157495" y="320.4" style="stroke: #000000; stroke-width: 0.8"/>
      </g>
     </g>
     <g id="text_2">
      <!-- 60 -->
      <g transform="translate(210.794995 334.998438) scale(0.1 -0.1)">
       <defs>
        <path id="DejaVuSans-36" d="M 2113 2584 
Q 1688 2584 1439 2293 
Q 1191 2003 1191 1497 
Q 1191 994 1439 701 
Q 1688 409 2113 409 
Q 2538 409 2786 701 
Q 3034 994 3034 1497 
Q 3034 2003 2786 2293 
Q 2538 2584 2113 2584 
z
M 3366 4563 
L 3366 3988 
Q 3128 4100 2886 4159 
Q 2644 4219 2406 4219 
Q 1781 4219 1451 3797 
Q 1122 3375 1075 2522 
Q 1259 2794 1537 2939 
Q 1816 3084 2150 3084 
Q 2853 3084 3261 2657 
Q 3669 2231 3669 1497 
Q 3669 778 3244 343 
Q 2819 -91 2113 -91 
Q 1303 -91 875 529 
Q 447 1150 447 2328 
Q 447 3434 972 4092 
Q 1497 4750 2381 4750 
Q 2619 4750 2861 4703 
Q 3103 4656 3366 4563 
z
" transform="scale(0.015625)"/>
       </defs>
       <use xlink:href="#DejaVuSans-36"/>
       <use xlink:href="#DejaVuSans-30" transform="translate(63.623047 0)"/>
      </g>
     </g>
    </g>
    <g id="xtick_3">
     <g id="line2d_3">
      <g>
       <use xlink:href="#m6ade40f4c1" x="318.951353" y="320.4" style="stroke: #000000; stroke-width: 0.8"/>
      </g>
     </g>
     <g id="text_3">
      <!-- 120 -->
      <g transform="translate(309.407603 334.998438) scale(0.1 -0.1)">
       <defs>
        <path id="DejaVuSans-31" d="M 794 531 
L 1825 531 
L 1825 4091 
L 703 3866 
L 703 4441 
L 1819 4666 
L 2450 4666 
L 2450 531 
L 3481 531 
L 3481 0 
L 794 0 
L 794 531 
z
" transform="scale(0.015625)"/>
        <path id="DejaVuSans-32" d="M 1228 531 
L 3431 531 
L 3431 0 
L 469 0 
L 469 531 
Q 828 903 1448 1529 
Q 2069 2156 2228 2338 
Q 2531 2678 2651 2914 
Q 2772 3150 2772 3378 
Q 2772 3750 2511 3984 
Q 2250 4219 1831 4219 
Q 1534 4219 1204 4116 
Q 875 4013 500 3803 
L 500 4441 
Q 881 4594 1212 4672 
Q 1544 4750 1819 4750 
Q 2544 4750 2975 4387 
Q 3406 4025 3406 3419 
Q 3406 3131 3298 2873 
Q 3191 2616 2906 2266 
Q 2828 2175 2409 1742 
Q 1991 1309 1228 531 
z
" transform="scale(0.015625)"/>
       </defs>
       <use xlink:href="#DejaVuSans-31"/>
       <use xlink:href="#DejaVuSans-32" transform="translate(63.623047 0)"/>
       <use xlink:href="#DejaVuSans-30" transform="translate(127.246094 0)"/>
      </g>
     </g>
    </g>
    <g id="xtick_4">
     <g id="line2d_4">
      <g>
       <use xlink:href="#m6ade40f4c1" x="420.745211" y="320.4" style="stroke: #000000; stroke-width: 0.8"/>
      </g>
     </g>
     <g id="text_4">
      <!-- 180 -->
      <g transform="translate(411.201461 334.998438) scale(0.1 -0.1)">
       <defs>
        <path id="DejaVuSans-38" d="M 2034 2216 
Q 1584 2216 1326 1975 
Q 1069 1734 1069 1313 
Q 1069 891 1326 650 
Q 1584 409 2034 409 
Q 2484 409 2743 651 
Q 3003 894 3003 1313 
Q 3003 1734 2745 1975 
Q 2488 2216 2034 2216 
z
M 1403 2484 
Q 997 2584 770 2862 
Q 544 3141 544 3541 
Q 544 4100 942 4425 
Q 1341 4750 2034 4750 
Q 2731 4750 3128 4425 
Q 3525 4100 3525 3541 
Q 3525 3141 3298 2862 
Q 3072 2584 2669 2484 
Q 3125 2378 3379 2068 
Q 3634 1759 3634 1313 
Q 3634 634 3220 271 
Q 2806 -91 2034 -91 
Q 1263 -91 848 271 
Q 434 634 434 1313 
Q 434 1759 690 2068 
Q 947 2378 1403 2484 
z
M 1172 3481 
Q 1172 3119 1398 2916 
Q 1625 2713 2034 2713 
Q 2441 2713 2670 2916 
Q 2900 3119 2900 3481 
Q 2900 3844 2670 4047 
Q 2441 4250 2034 4250 
Q 1625 4250 1398 4047 
Q 1172 3844 1172 3481 
z
" transform="scale(0.015625)"/>
       </defs>
       <use xlink:href="#DejaVuSans-31"/>
       <use xlink:href="#DejaVuSans-38" transform="translate(63.623047 0)"/>
       <use xlink:href="#DejaVuSans-30" transform="translate(127.246094 0)"/>
      </g>
     </g>
    </g>
    <g id="xtick_5">
     <g id="line2d_5">
      <g>
       <use xlink:href="#m6ade40f4c1" x="522.53907" y="320.4" style="stroke: #000000; stroke-width: 0.8"/>
      </g>
     </g>
     <g id="text_5">
      <!-- 240 -->
      <g transform="translate(512.99532 334.998438) scale(0.1 -0.1)">
       <defs>
        <path id="DejaVuSans-34" d="M 2419 4116 
L 825 1625 
L 2419 1625 
L 2419 4116 
z
M 2253 4666 
L 3047 4666 
L 3047 1625 
L 3713 1625 
L 3713 1100 
L 3047 1100 
L 3047 0 
L 2419 0 
L 2419 1100 
L 313 1100 
L 313 1709 
L 2253 4666 
z
" transform="scale(0.015625)"/>
       </defs>
       <use xlink:href="#DejaVuSans-32"/>
       <use xlink:href="#DejaVuSans-34" transform="translate(63.623047 0)"/>
       <use xlink:href="#DejaVuSans-30" transform="translate(127.246094 0)"/>
      </g>
     </g>
    </g>
    <g id="text_6">
     <!-- Epoch -->
     <g transform="translate(353.689062 348.676562) scale(0.1 -0.1)">
      <defs>
       <path id="DejaVuSans-45" d="M 628 4666 
L 3578 4666 
L 3578 4134 
L 1259 4134 
L 1259 2753 
L 3481 2753 
L 3481 2222 
L 1259 2222 
L 1259 531 
L 3634 531 
L 3634 0 
L 628 0 
L 628 4666 
z
" transform="scale(0.015625)"/>
       <path id="DejaVuSans-70" d="M 1159 525 
L 1159 -1331 
L 581 -1331 
L 581 3500 
L 1159 3500 
L 1159 2969 
Q 1341 3281 1617 3432 
Q 1894 3584 2278 3584 
Q 2916 3584 3314 3078 
Q 3713 2572 3713 1747 
Q 3713 922 3314 415 
Q 2916 -91 2278 -91 
Q 1894 -91 1617 61 
Q 1341 213 1159 525 
z
M 3116 1747 
Q 3116 2381 2855 2742 
Q 2594 3103 2138 3103 
Q 1681 3103 1420 2742 
Q 1159 2381 1159 1747 
Q 1159 1113 1420 752 
Q 1681 391 2138 391 
Q 2594 391 2855 752 
Q 3116 1113 3116 1747 
z
" transform="scale(0.015625)"/>
       <path id="DejaVuSans-6f" d="M 1959 3097 
Q 1497 3097 1228 2736 
Q 959 2375 959 1747 
Q 959 1119 1226 758 
Q 1494 397 1959 397 
Q 2419 397 2687 759 
Q 2956 1122 2956 1747 
Q 2956 2369 2687 2733 
Q 2419 3097 1959 3097 
z
M 1959 3584 
Q 2709 3584 3137 3096 
Q 3566 2609 3566 1747 
Q 3566 888 3137 398 
Q 2709 -91 1959 -91 
Q 1206 -91 779 398 
Q 353 888 353 1747 
Q 353 2609 779 3096 
Q 1206 3584 1959 3584 
z
" transform="scale(0.015625)"/>
       <path id="DejaVuSans-63" d="M 3122 3366 
L 3122 2828 
Q 2878 2963 2633 3030 
Q 2388 3097 2138 3097 
Q 1578 3097 1268 2742 
Q 959 2388 959 1747 
Q 959 1106 1268 751 
Q 1578 397 2138 397 
Q 2388 397 2633 464 
Q 2878 531 3122 666 
L 3122 134 
Q 2881 22 2623 -34 
Q 2366 -91 2075 -91 
Q 1284 -91 818 406 
Q 353 903 353 1747 
Q 353 2603 823 3093 
Q 1294 3584 2113 3584 
Q 2378 3584 2631 3529 
Q 2884 3475 3122 3366 
z
" transform="scale(0.015625)"/>
       <path id="DejaVuSans-68" d="M 3513 2113 
L 3513 0 
L 2938 0 
L 2938 2094 
Q 2938 2591 2744 2837 
Q 2550 3084 2163 3084 
Q 1697 3084 1428 2787 
Q 1159 2491 1159 1978 
L 1159 0 
L 581 0 
L 581 4863 
L 1159 4863 
L 1159 2956 
Q 1366 3272 1645 3428 
Q 1925 3584 2291 3584 
Q 2894 3584 3203 3211 
Q 3513 2838 3513 2113 
z
" transform="scale(0.015625)"/>
      </defs>
      <use xlink:href="#DejaVuSans-45"/>
      <use xlink:href="#DejaVuSans-70" transform="translate(63.183594 0)"/>
      <use xlink:href="#DejaVuSans-6f" transform="translate(126.660156 0)"/>
      <use xlink:href="#DejaVuSans-63" transform="translate(187.841797 0)"/>
      <use xlink:href="#DejaVuSans-68" transform="translate(242.822266 0)"/>
     </g>
    </g>
   </g>
   <g id="matplotlib.axis_2">
    <g id="ytick_1">
     <g id="line2d_6">
      <defs>
       <path id="m58d6f1739d" d="M 0 0 
L -3.5 0 
" style="stroke: #000000; stroke-width: 0.8"/>
      </defs>
      <g>
       <use xlink:href="#m58d6f1739d" x="90" y="312.516187" style="stroke: #000000; stroke-width: 0.8"/>
      </g>
     </g>
     <g id="text_7">
      <!-- 0.00 -->
      <g transform="translate(60.734375 316.315406) scale(0.1 -0.1)">
       <defs>
        <path id="DejaVuSans-2e" d="M 684 794 
L 1344 794 
L 1344 0 
L 684 0 
L 684 794 
z
" transform="scale(0.015625)"/>
       </defs>
       <use xlink:href="#DejaVuSans-30"/>
       <use xlink:href="#DejaVuSans-2e" transform="translate(63.623047 0)"/>
       <use xlink:href="#DejaVuSans-30" transform="translate(95.410156 0)"/>
       <use xlink:href="#DejaVuSans-30" transform="translate(159.033203 0)"/>
      </g>
     </g>
    </g>
    <g id="ytick_2">
     <g id="line2d_7">
      <g>
       <use xlink:href="#m58d6f1739d" x="90" y="261.985029" style="stroke: #000000; stroke-width: 0.8"/>
      </g>
     </g>
     <g id="text_8">
      <!-- 0.05 -->
      <g transform="translate(60.734375 265.784247) scale(0.1 -0.1)">
       <defs>
        <path id="DejaVuSans-35" d="M 691 4666 
L 3169 4666 
L 3169 4134 
L 1269 4134 
L 1269 2991 
Q 1406 3038 1543 3061 
Q 1681 3084 1819 3084 
Q 2600 3084 3056 2656 
Q 3513 2228 3513 1497 
Q 3513 744 3044 326 
Q 2575 -91 1722 -91 
Q 1428 -91 1123 -41 
Q 819 9 494 109 
L 494 744 
Q 775 591 1075 516 
Q 1375 441 1709 441 
Q 2250 441 2565 725 
Q 2881 1009 2881 1497 
Q 2881 1984 2565 2268 
Q 2250 2553 1709 2553 
Q 1456 2553 1204 2497 
Q 953 2441 691 2322 
L 691 4666 
z
" transform="scale(0.015625)"/>
       </defs>
       <use xlink:href="#DejaVuSans-30"/>
       <use xlink:href="#DejaVuSans-2e" transform="translate(63.623047 0)"/>
       <use xlink:href="#DejaVuSans-30" transform="translate(95.410156 0)"/>
       <use xlink:href="#DejaVuSans-35" transform="translate(159.033203 0)"/>
      </g>
     </g>
    </g>
    <g id="ytick_3">
     <g id="line2d_8">
      <g>
       <use xlink:href="#m58d6f1739d" x="90" y="211.45387" style="stroke: #000000; stroke-width: 0.8"/>
      </g>
     </g>
     <g id="text_9">
      <!-- 0.10 -->
      <g transform="translate(60.734375 215.253089) scale(0.1 -0.1)">
       <use xlink:href="#DejaVuSans-30"/>
       <use xlink:href="#DejaVuSans-2e" transform="translate(63.623047 0)"/>
       <use xlink:href="#DejaVuSans-31" transform="translate(95.410156 0)"/>
       <use xlink:href="#DejaVuSans-30" transform="translate(159.033203 0)"/>
      </g>
     </g>
    </g>
    <g id="ytick_4">
     <g id="line2d_9">
      <g>
       <use xlink:href="#m58d6f1739d" x="90" y="160.922712" style="stroke: #000000; stroke-width: 0.8"/>
      </g>
     </g>
     <g id="text_10">
      <!-- 0.15 -->
      <g transform="translate(60.734375 164.721931) scale(0.1 -0.1)">
       <use xlink:href="#DejaVuSans-30"/>
       <use xlink:href="#DejaVuSans-2e" transform="translate(63.623047 0)"/>
       <use xlink:href="#DejaVuSans-31" transform="translate(95.410156 0)"/>
       <use xlink:href="#DejaVuSans-35" transform="translate(159.033203 0)"/>
      </g>
     </g>
    </g>
    <g id="ytick_5">
     <g id="line2d_10">
      <g>
       <use xlink:href="#m58d6f1739d" x="90" y="110.391553" style="stroke: #000000; stroke-width: 0.8"/>
      </g>
     </g>
     <g id="text_11">
      <!-- 0.20 -->
      <g transform="translate(60.734375 114.190772) scale(0.1 -0.1)">
       <use xlink:href="#DejaVuSans-30"/>
       <use xlink:href="#DejaVuSans-2e" transform="translate(63.623047 0)"/>
       <use xlink:href="#DejaVuSans-32" transform="translate(95.410156 0)"/>
       <use xlink:href="#DejaVuSans-30" transform="translate(159.033203 0)"/>
      </g>
     </g>
    </g>
    <g id="ytick_6">
     <g id="line2d_11">
      <g>
       <use xlink:href="#m58d6f1739d" x="90" y="59.860395" style="stroke: #000000; stroke-width: 0.8"/>
      </g>
     </g>
     <g id="text_12">
      <!-- 0.25 -->
      <g transform="translate(60.734375 63.659614) scale(0.1 -0.1)">
       <use xlink:href="#DejaVuSans-30"/>
       <use xlink:href="#DejaVuSans-2e" transform="translate(63.623047 0)"/>
       <use xlink:href="#DejaVuSans-32" transform="translate(95.410156 0)"/>
       <use xlink:href="#DejaVuSans-35" transform="translate(159.033203 0)"/>
      </g>
     </g>
    </g>
    <g id="text_13">
     <!-- Loss -->
     <g transform="translate(54.654688 192.767187) rotate(-90) scale(0.1 -0.1)">
      <defs>
       <path id="DejaVuSans-4c" d="M 628 4666 
L 1259 4666 
L 1259 531 
L 3531 531 
L 3531 0 
L 628 0 
L 628 4666 
z
" transform="scale(0.015625)"/>
       <path id="DejaVuSans-73" d="M 2834 3397 
L 2834 2853 
Q 2591 2978 2328 3040 
Q 2066 3103 1784 3103 
Q 1356 3103 1142 2972 
Q 928 2841 928 2578 
Q 928 2378 1081 2264 
Q 1234 2150 1697 2047 
L 1894 2003 
Q 2506 1872 2764 1633 
Q 3022 1394 3022 966 
Q 3022 478 2636 193 
Q 2250 -91 1575 -91 
Q 1294 -91 989 -36 
Q 684 19 347 128 
L 347 722 
Q 666 556 975 473 
Q 1284 391 1588 391 
Q 1994 391 2212 530 
Q 2431 669 2431 922 
Q 2431 1156 2273 1281 
Q 2116 1406 1581 1522 
L 1381 1569 
Q 847 1681 609 1914 
Q 372 2147 372 2553 
Q 372 3047 722 3315 
Q 1072 3584 1716 3584 
Q 2034 3584 2315 3537 
Q 2597 3491 2834 3397 
z
" transform="scale(0.015625)"/>
      </defs>
      <use xlink:href="#DejaVuSans-4c"/>
      <use xlink:href="#DejaVuSans-6f" transform="translate(53.962891 0)"/>
      <use xlink:href="#DejaVuSans-73" transform="translate(115.144531 0)"/>
      <use xlink:href="#DejaVuSans-73" transform="translate(167.244141 0)"/>
     </g>
    </g>
   </g>
   <g id="line2d_12">
    <path d="M 115.363636 247.907942 
L 117.060201 291.739743 
L 118.756765 295.010502 
L 120.453329 296.591838 
L 122.149894 297.622791 
L 123.846458 298.373643 
L 127.239587 299.435384 
L 130.632715 300.188675 
L 135.722408 301.008607 
L 142.508665 301.771368 
L 150.991487 302.425939 
L 161.170873 302.970487 
L 176.439951 303.526971 
L 198.495287 304.070448 
L 232.426573 304.648809 
L 274.840681 305.168508 
L 364.758589 305.995751 
L 570.04287 307.489178 
L 622.636364 307.8 
L 622.636364 307.8 
" clip-path="url(#p085d8f67a3)" style="fill: none; stroke: #1f77b4; stroke-width: 1.5; stroke-linecap: square"/>
   </g>
   <g id="line2d_13">
    <path d="M 115.363636 289.630854 
L 117.060201 294.059563 
L 118.756765 295.689294 
L 122.149894 297.592195 
L 123.846458 298.369686 
L 127.239587 299.552566 
L 130.632715 300.334015 
L 135.722408 301.161146 
L 142.508665 301.924288 
L 149.294922 302.429225 
L 159.474308 302.945817 
L 183.226209 303.557034 
L 215.46093 303.959616 
L 291.806324 304.315567 
L 354.579203 304.338935 
L 386.813925 304.305947 
L 622.636364 303.513161 
L 622.636364 303.513161 
" clip-path="url(#p085d8f67a3)" style="fill: none; stroke: #ff7f0e; stroke-width: 1.5; stroke-linecap: square"/>
   </g>
   <g id="line2d_14">
    <path d="M 115.363636 175.722661 
L 117.060201 197.207955 
L 118.756765 205.832492 
L 120.453329 209.669703 
L 122.149894 210.52666 
L 123.846458 210.455137 
L 125.543022 209.494729 
L 127.239587 207.920041 
L 128.936151 205.933923 
L 130.632715 203.732641 
L 132.329279 201.310821 
L 135.722408 195.74424 
L 139.115537 191.145554 
L 144.20523 185.491003 
L 147.598358 181.209623 
L 154.384615 175.032419 
L 156.08118 173.395178 
L 159.474308 168.920316 
L 166.260566 162.003561 
L 169.653694 159.090947 
L 174.743387 154.906084 
L 176.439951 153.684478 
L 178.136516 152.628681 
L 179.83308 151.158245 
L 181.529644 150.234026 
L 184.922773 148.029044 
L 186.619337 146.739651 
L 190.012466 144.944785 
L 195.102159 141.695828 
L 196.798723 140.983308 
L 208.674673 135.084176 
L 210.371237 134.474588 
L 212.067802 133.494952 
L 213.764366 132.668014 
L 217.157495 131.42035 
L 218.854059 130.723857 
L 222.247188 129.52702 
L 223.943752 129.216067 
L 225.640316 128.282904 
L 230.730009 126.559588 
L 232.426573 125.672258 
L 234.123138 125.00725 
L 242.605959 122.482503 
L 244.302524 122.263536 
L 247.695652 121.391076 
L 249.392216 120.601184 
L 251.088781 120.466631 
L 254.481909 119.405912 
L 264.661295 116.598672 
L 266.35786 116.215249 
L 268.054424 115.685386 
L 269.750988 115.300125 
L 271.447552 114.662578 
L 273.144117 114.292776 
L 276.537245 113.182485 
L 279.930374 112.29245 
L 281.626938 112.105902 
L 288.413196 110.176352 
L 293.502888 109.092971 
L 295.199453 108.424411 
L 296.896017 108.081738 
L 298.592581 107.412109 
L 301.98571 106.378421 
L 303.682274 105.843376 
L 305.378839 105.064222 
L 307.075403 104.686332 
L 308.771967 103.940699 
L 312.165096 103.135357 
L 313.86166 102.979108 
L 317.254789 102.015149 
L 320.647917 101.088449 
L 322.344482 100.487883 
L 324.041046 100.047198 
L 325.73761 99.469197 
L 329.130739 98.58946 
L 330.827303 98.109081 
L 332.523867 97.834524 
L 334.220432 97.210599 
L 335.916996 96.983021 
L 337.61356 96.149516 
L 341.006689 95.807713 
L 342.703253 95.427702 
L 344.399818 95.203851 
L 346.096382 94.74022 
L 347.792946 94.069859 
L 349.48951 93.741254 
L 351.186075 93.120297 
L 352.882639 92.895736 
L 354.579203 92.364591 
L 356.275768 92.357862 
L 359.668896 91.371013 
L 361.365461 91.197316 
L 363.062025 90.645535 
L 364.758589 90.544756 
L 366.455154 89.944423 
L 369.848282 89.349394 
L 371.544846 89.3325 
L 373.241411 88.761737 
L 374.937975 88.323445 
L 376.634539 87.752176 
L 378.331104 87.624973 
L 380.027668 87.156564 
L 381.724232 87.156911 
L 388.51049 86.036212 
L 390.207054 85.858388 
L 391.903618 85.359339 
L 395.296747 84.874819 
L 396.993311 84.439858 
L 398.689875 83.843489 
L 400.38644 83.629041 
L 410.565825 81.174115 
L 412.26239 80.763206 
L 413.958954 80.626718 
L 415.655518 80.271346 
L 417.352083 80.156473 
L 419.048647 80.312637 
L 422.441776 79.963667 
L 424.13834 80.081881 
L 425.834904 79.794424 
L 427.531469 79.713984 
L 429.228033 79.250825 
L 430.924597 78.956714 
L 432.621161 78.961972 
L 434.317726 78.449007 
L 436.01429 78.32239 
L 437.710854 77.997007 
L 439.407419 77.498646 
L 442.800547 77.249735 
L 446.193676 77.246941 
L 447.89024 76.87139 
L 451.283369 76.856586 
L 452.979933 76.484713 
L 454.676497 76.266849 
L 456.373062 75.896183 
L 461.462755 75.4262 
L 463.159319 75.386266 
L 466.552448 74.463898 
L 469.945576 74.144648 
L 473.338705 73.375467 
L 475.035269 73.135747 
L 476.731833 73.22309 
L 478.428398 72.81487 
L 480.124962 72.67449 
L 481.821526 72.218936 
L 483.518091 72.086268 
L 485.214655 71.777675 
L 486.911219 71.651129 
L 488.607784 71.167898 
L 492.000912 71.122184 
L 493.697476 70.705139 
L 495.394041 70.898968 
L 498.787169 70.159528 
L 502.180298 69.811148 
L 503.876862 69.546431 
L 505.573427 69.461942 
L 507.269991 69.073702 
L 508.966555 68.856924 
L 510.663119 68.929678 
L 515.752812 68.507538 
L 520.842505 68.263386 
L 522.53907 67.97245 
L 524.235634 68.061407 
L 525.932198 67.447224 
L 527.628763 67.342795 
L 531.021891 66.886102 
L 532.718455 66.468028 
L 537.808148 65.642407 
L 539.504713 65.531342 
L 541.201277 64.886453 
L 542.897841 64.910988 
L 549.684099 64.279344 
L 551.380663 64.792928 
L 554.773791 64.228501 
L 556.470356 63.543195 
L 559.863484 63.043839 
L 561.560049 62.428972 
L 563.256613 62.414439 
L 564.953177 62.002142 
L 566.649742 61.981523 
L 568.346306 61.601069 
L 570.04287 61.515695 
L 571.739434 60.614603 
L 573.435999 60.402452 
L 575.132563 60.733955 
L 576.829127 60.364525 
L 578.525692 60.338208 
L 580.222256 60.1391 
L 581.91882 60.095872 
L 585.311949 59.667954 
L 587.008513 59.618928 
L 590.401642 59.161229 
L 592.098206 58.861406 
L 593.79477 58.934534 
L 595.491335 58.406731 
L 598.884463 58.260025 
L 600.581028 57.654149 
L 605.670721 56.868523 
L 607.367285 56.923668 
L 609.063849 56.594966 
L 610.760413 56.743045 
L 612.456978 56.514109 
L 614.153542 56.598648 
L 615.850106 56.542295 
L 617.546671 56.176325 
L 619.243235 56.265877 
L 620.939799 56.234924 
L 622.636364 55.8 
L 622.636364 55.8 
" clip-path="url(#p085d8f67a3)" style="fill: none; stroke: #2ca02c; stroke-width: 1.5; stroke-linecap: square"/>
   </g>
   <g id="line2d_15">
    <path d="M 115.363636 255.886322 
L 117.060201 264.935421 
L 118.756765 268.331044 
L 120.453329 269.946917 
L 122.149894 270.599725 
L 123.846458 271.017459 
L 125.543022 271.182208 
L 128.936151 271.052167 
L 132.329279 270.77231 
L 134.025844 270.438303 
L 135.722408 270.220222 
L 139.115537 269.943597 
L 145.901794 269.22873 
L 147.598358 268.926376 
L 152.688051 268.314788 
L 156.08118 267.780867 
L 161.170873 266.357396 
L 162.867437 265.951953 
L 164.564001 265.70262 
L 166.260566 265.316843 
L 174.743387 264.057383 
L 193.405594 261.724632 
L 195.102159 261.474318 
L 198.495287 261.103708 
L 205.281545 260.371376 
L 212.067802 259.532856 
L 213.764366 259.266148 
L 217.157495 258.983802 
L 222.247188 258.433556 
L 223.943752 258.374175 
L 225.640316 258.089269 
L 230.730009 257.687422 
L 235.819702 257.09486 
L 244.302524 256.407372 
L 249.392216 255.792905 
L 251.088781 255.78359 
L 262.964731 254.653243 
L 274.840681 253.597299 
L 278.23381 253.304442 
L 283.323503 252.950116 
L 286.716631 252.681535 
L 290.10976 252.432748 
L 293.502888 252.211768 
L 296.896017 251.905493 
L 307.075403 251.102051 
L 308.771967 250.884184 
L 317.254789 250.415165 
L 327.434175 249.738029 
L 334.220432 249.377896 
L 349.48951 248.373692 
L 351.186075 248.183062 
L 356.275768 248.007367 
L 359.668896 247.734962 
L 361.365461 247.69045 
L 363.062025 247.505056 
L 366.455154 247.34077 
L 386.813925 246.283603 
L 388.51049 246.270295 
L 391.903618 246.035553 
L 396.993311 245.872212 
L 398.689875 245.710879 
L 400.38644 245.709515 
L 403.779568 245.427505 
L 422.441776 244.756281 
L 427.531469 244.595904 
L 430.924597 244.328269 
L 436.01429 244.148716 
L 442.800547 243.955613 
L 446.193676 243.942847 
L 447.89024 243.786994 
L 452.979933 243.634208 
L 458.069626 243.460395 
L 463.159319 243.485129 
L 468.249012 243.242981 
L 469.945576 243.245007 
L 471.64214 243.12708 
L 473.338705 243.155818 
L 475.035269 243.069662 
L 476.731833 243.115603 
L 478.428398 242.998236 
L 488.607784 242.916963 
L 492.000912 242.944743 
L 493.697476 242.914872 
L 495.394041 243.07466 
L 500.483734 242.813135 
L 502.180298 242.827997 
L 505.573427 242.676589 
L 508.966555 242.542183 
L 512.359684 242.64042 
L 515.752812 242.569613 
L 534.41502 242.324038 
L 536.111584 242.256783 
L 539.504713 242.279682 
L 541.201277 242.137152 
L 554.773791 242.314824 
L 556.470356 242.20615 
L 559.863484 242.176022 
L 561.560049 241.972183 
L 563.256613 242.02064 
L 564.953177 241.919536 
L 568.346306 241.922979 
L 570.04287 241.920501 
L 571.739434 241.717561 
L 573.435999 241.656889 
L 575.132563 241.763713 
L 578.525692 241.60136 
L 580.222256 241.605279 
L 583.615385 241.446351 
L 588.705078 241.349252 
L 593.79477 241.234367 
L 595.491335 241.123026 
L 598.884463 241.180214 
L 602.277592 240.959901 
L 605.670721 240.903341 
L 607.367285 240.947095 
L 609.063849 240.870442 
L 610.760413 241.003777 
L 612.456978 240.958247 
L 615.850106 241.122297 
L 617.546671 241.077463 
L 620.939799 241.14843 
L 622.636364 241.087221 
L 622.636364 241.087221 
" clip-path="url(#p085d8f67a3)" style="fill: none; stroke: #d62728; stroke-width: 1.5; stroke-linecap: square"/>
   </g>
   <g id="patch_3">
    <path d="M 90 320.4 
L 90 43.2 
" style="fill: none; stroke: #000000; stroke-width: 0.8; stroke-linejoin: miter; stroke-linecap: square"/>
   </g>
   <g id="patch_4">
    <path d="M 648 320.4 
L 648 43.2 
" style="fill: none; stroke: #000000; stroke-width: 0.8; stroke-linejoin: miter; stroke-linecap: square"/>
   </g>
   <g id="patch_5">
    <path d="M 90 320.4 
L 648 320.4 
" style="fill: none; stroke: #000000; stroke-width: 0.8; stroke-linejoin: miter; stroke-linecap: square"/>
   </g>
   <g id="patch_6">
    <path d="M 90 43.2 
L 648 43.2 
" style="fill: none; stroke: #000000; stroke-width: 0.8; stroke-linejoin: miter; stroke-linecap: square"/>
   </g>
   <g id="text_14">
    <!-- Estimation Losses -->
    <g transform="translate(315.165 37.2) scale(0.12 -0.12)">
     <defs>
      <path id="DejaVuSans-74" d="M 1172 4494 
L 1172 3500 
L 2356 3500 
L 2356 3053 
L 1172 3053 
L 1172 1153 
Q 1172 725 1289 603 
Q 1406 481 1766 481 
L 2356 481 
L 2356 0 
L 1766 0 
Q 1100 0 847 248 
Q 594 497 594 1153 
L 594 3053 
L 172 3053 
L 172 3500 
L 594 3500 
L 594 4494 
L 1172 4494 
z
" transform="scale(0.015625)"/>
      <path id="DejaVuSans-69" d="M 603 3500 
L 1178 3500 
L 1178 0 
L 603 0 
L 603 3500 
z
M 603 4863 
L 1178 4863 
L 1178 4134 
L 603 4134 
L 603 4863 
z
" transform="scale(0.015625)"/>
      <path id="DejaVuSans-6d" d="M 3328 2828 
Q 3544 3216 3844 3400 
Q 4144 3584 4550 3584 
Q 5097 3584 5394 3201 
Q 5691 2819 5691 2113 
L 5691 0 
L 5113 0 
L 5113 2094 
Q 5113 2597 4934 2840 
Q 4756 3084 4391 3084 
Q 3944 3084 3684 2787 
Q 3425 2491 3425 1978 
L 3425 0 
L 2847 0 
L 2847 2094 
Q 2847 2600 2669 2842 
Q 2491 3084 2119 3084 
Q 1678 3084 1418 2786 
Q 1159 2488 1159 1978 
L 1159 0 
L 581 0 
L 581 3500 
L 1159 3500 
L 1159 2956 
Q 1356 3278 1631 3431 
Q 1906 3584 2284 3584 
Q 2666 3584 2933 3390 
Q 3200 3197 3328 2828 
z
" transform="scale(0.015625)"/>
      <path id="DejaVuSans-61" d="M 2194 1759 
Q 1497 1759 1228 1600 
Q 959 1441 959 1056 
Q 959 750 1161 570 
Q 1363 391 1709 391 
Q 2188 391 2477 730 
Q 2766 1069 2766 1631 
L 2766 1759 
L 2194 1759 
z
M 3341 1997 
L 3341 0 
L 2766 0 
L 2766 531 
Q 2569 213 2275 61 
Q 1981 -91 1556 -91 
Q 1019 -91 701 211 
Q 384 513 384 1019 
Q 384 1609 779 1909 
Q 1175 2209 1959 2209 
L 2766 2209 
L 2766 2266 
Q 2766 2663 2505 2880 
Q 2244 3097 1772 3097 
Q 1472 3097 1187 3025 
Q 903 2953 641 2809 
L 641 3341 
Q 956 3463 1253 3523 
Q 1550 3584 1831 3584 
Q 2591 3584 2966 3190 
Q 3341 2797 3341 1997 
z
" transform="scale(0.015625)"/>
      <path id="DejaVuSans-6e" d="M 3513 2113 
L 3513 0 
L 2938 0 
L 2938 2094 
Q 2938 2591 2744 2837 
Q 2550 3084 2163 3084 
Q 1697 3084 1428 2787 
Q 1159 2491 1159 1978 
L 1159 0 
L 581 0 
L 581 3500 
L 1159 3500 
L 1159 2956 
Q 1366 3272 1645 3428 
Q 1925 3584 2291 3584 
Q 2894 3584 3203 3211 
Q 3513 2838 3513 2113 
z
" transform="scale(0.015625)"/>
      <path id="DejaVuSans-20" transform="scale(0.015625)"/>
      <path id="DejaVuSans-65" d="M 3597 1894 
L 3597 1613 
L 953 1613 
Q 991 1019 1311 708 
Q 1631 397 2203 397 
Q 2534 397 2845 478 
Q 3156 559 3463 722 
L 3463 178 
Q 3153 47 2828 -22 
Q 2503 -91 2169 -91 
Q 1331 -91 842 396 
Q 353 884 353 1716 
Q 353 2575 817 3079 
Q 1281 3584 2069 3584 
Q 2775 3584 3186 3129 
Q 3597 2675 3597 1894 
z
M 3022 2063 
Q 3016 2534 2758 2815 
Q 2500 3097 2075 3097 
Q 1594 3097 1305 2825 
Q 1016 2553 972 2059 
L 3022 2063 
z
" transform="scale(0.015625)"/>
     </defs>
     <use xlink:href="#DejaVuSans-45"/>
     <use xlink:href="#DejaVuSans-73" transform="translate(63.183594 0)"/>
     <use xlink:href="#DejaVuSans-74" transform="translate(115.283203 0)"/>
     <use xlink:href="#DejaVuSans-69" transform="translate(154.492188 0)"/>
     <use xlink:href="#DejaVuSans-6d" transform="translate(182.275391 0)"/>
     <use xlink:href="#DejaVuSans-61" transform="translate(279.6875 0)"/>
     <use xlink:href="#DejaVuSans-74" transform="translate(340.966797 0)"/>
     <use xlink:href="#DejaVuSans-69" transform="translate(380.175781 0)"/>
     <use xlink:href="#DejaVuSans-6f" transform="translate(407.958984 0)"/>
     <use xlink:href="#DejaVuSans-6e" transform="translate(469.140625 0)"/>
     <use xlink:href="#DejaVuSans-20" transform="translate(532.519531 0)"/>
     <use xlink:href="#DejaVuSans-4c" transform="translate(564.306641 0)"/>
     <use xlink:href="#DejaVuSans-6f" transform="translate(618.269531 0)"/>
     <use xlink:href="#DejaVuSans-73" transform="translate(679.451172 0)"/>
     <use xlink:href="#DejaVuSans-73" transform="translate(731.550781 0)"/>
     <use xlink:href="#DejaVuSans-65" transform="translate(783.650391 0)"/>
     <use xlink:href="#DejaVuSans-73" transform="translate(845.173828 0)"/>
    </g>
   </g>
   <g id="legend_1">
    <g id="patch_7">
     <path d="M 97 109.9125 
L 266.067188 109.9125 
Q 268.067188 109.9125 268.067188 107.9125 
L 268.067188 50.2 
Q 268.067188 48.2 266.067188 48.2 
L 97 48.2 
Q 95 48.2 95 50.2 
L 95 107.9125 
Q 95 109.9125 97 109.9125 
z
" style="fill: #ffffff; opacity: 0.8; stroke: #cccccc; stroke-linejoin: miter"/>
    </g>
    <g id="line2d_16">
     <path d="M 99 56.298437 
L 109 56.298437 
L 119 56.298437 
" style="fill: none; stroke: #1f77b4; stroke-width: 1.5; stroke-linecap: square"/>
    </g>
    <g id="text_15">
     <!-- Train Loss - Pseudo Domain -->
     <g transform="translate(127 59.798437) scale(0.1 -0.1)">
      <defs>
       <path id="DejaVuSans-54" d="M -19 4666 
L 3928 4666 
L 3928 4134 
L 2272 4134 
L 2272 0 
L 1638 0 
L 1638 4134 
L -19 4134 
L -19 4666 
z
" transform="scale(0.015625)"/>
       <path id="DejaVuSans-72" d="M 2631 2963 
Q 2534 3019 2420 3045 
Q 2306 3072 2169 3072 
Q 1681 3072 1420 2755 
Q 1159 2438 1159 1844 
L 1159 0 
L 581 0 
L 581 3500 
L 1159 3500 
L 1159 2956 
Q 1341 3275 1631 3429 
Q 1922 3584 2338 3584 
Q 2397 3584 2469 3576 
Q 2541 3569 2628 3553 
L 2631 2963 
z
" transform="scale(0.015625)"/>
       <path id="DejaVuSans-2d" d="M 313 2009 
L 1997 2009 
L 1997 1497 
L 313 1497 
L 313 2009 
z
" transform="scale(0.015625)"/>
       <path id="DejaVuSans-50" d="M 1259 4147 
L 1259 2394 
L 2053 2394 
Q 2494 2394 2734 2622 
Q 2975 2850 2975 3272 
Q 2975 3691 2734 3919 
Q 2494 4147 2053 4147 
L 1259 4147 
z
M 628 4666 
L 2053 4666 
Q 2838 4666 3239 4311 
Q 3641 3956 3641 3272 
Q 3641 2581 3239 2228 
Q 2838 1875 2053 1875 
L 1259 1875 
L 1259 0 
L 628 0 
L 628 4666 
z
" transform="scale(0.015625)"/>
       <path id="DejaVuSans-75" d="M 544 1381 
L 544 3500 
L 1119 3500 
L 1119 1403 
Q 1119 906 1312 657 
Q 1506 409 1894 409 
Q 2359 409 2629 706 
Q 2900 1003 2900 1516 
L 2900 3500 
L 3475 3500 
L 3475 0 
L 2900 0 
L 2900 538 
Q 2691 219 2414 64 
Q 2138 -91 1772 -91 
Q 1169 -91 856 284 
Q 544 659 544 1381 
z
M 1991 3584 
L 1991 3584 
z
" transform="scale(0.015625)"/>
       <path id="DejaVuSans-64" d="M 2906 2969 
L 2906 4863 
L 3481 4863 
L 3481 0 
L 2906 0 
L 2906 525 
Q 2725 213 2448 61 
Q 2172 -91 1784 -91 
Q 1150 -91 751 415 
Q 353 922 353 1747 
Q 353 2572 751 3078 
Q 1150 3584 1784 3584 
Q 2172 3584 2448 3432 
Q 2725 3281 2906 2969 
z
M 947 1747 
Q 947 1113 1208 752 
Q 1469 391 1925 391 
Q 2381 391 2643 752 
Q 2906 1113 2906 1747 
Q 2906 2381 2643 2742 
Q 2381 3103 1925 3103 
Q 1469 3103 1208 2742 
Q 947 2381 947 1747 
z
" transform="scale(0.015625)"/>
       <path id="DejaVuSans-44" d="M 1259 4147 
L 1259 519 
L 2022 519 
Q 2988 519 3436 956 
Q 3884 1394 3884 2338 
Q 3884 3275 3436 3711 
Q 2988 4147 2022 4147 
L 1259 4147 
z
M 628 4666 
L 1925 4666 
Q 3281 4666 3915 4102 
Q 4550 3538 4550 2338 
Q 4550 1131 3912 565 
Q 3275 0 1925 0 
L 628 0 
L 628 4666 
z
" transform="scale(0.015625)"/>
      </defs>
      <use xlink:href="#DejaVuSans-54"/>
      <use xlink:href="#DejaVuSans-72" transform="translate(46.333984 0)"/>
      <use xlink:href="#DejaVuSans-61" transform="translate(87.447266 0)"/>
      <use xlink:href="#DejaVuSans-69" transform="translate(148.726562 0)"/>
      <use xlink:href="#DejaVuSans-6e" transform="translate(176.509766 0)"/>
      <use xlink:href="#DejaVuSans-20" transform="translate(239.888672 0)"/>
      <use xlink:href="#DejaVuSans-4c" transform="translate(271.675781 0)"/>
      <use xlink:href="#DejaVuSans-6f" transform="translate(325.638672 0)"/>
      <use xlink:href="#DejaVuSans-73" transform="translate(386.820312 0)"/>
      <use xlink:href="#DejaVuSans-73" transform="translate(438.919922 0)"/>
      <use xlink:href="#DejaVuSans-20" transform="translate(491.019531 0)"/>
      <use xlink:href="#DejaVuSans-2d" transform="translate(522.806641 0)"/>
      <use xlink:href="#DejaVuSans-20" transform="translate(558.890625 0)"/>
      <use xlink:href="#DejaVuSans-50" transform="translate(590.677734 0)"/>
      <use xlink:href="#DejaVuSans-73" transform="translate(649.230469 0)"/>
      <use xlink:href="#DejaVuSans-65" transform="translate(701.330078 0)"/>
      <use xlink:href="#DejaVuSans-75" transform="translate(762.853516 0)"/>
      <use xlink:href="#DejaVuSans-64" transform="translate(826.232422 0)"/>
      <use xlink:href="#DejaVuSans-6f" transform="translate(889.708984 0)"/>
      <use xlink:href="#DejaVuSans-20" transform="translate(950.890625 0)"/>
      <use xlink:href="#DejaVuSans-44" transform="translate(982.677734 0)"/>
      <use xlink:href="#DejaVuSans-6f" transform="translate(1059.679688 0)"/>
      <use xlink:href="#DejaVuSans-6d" transform="translate(1120.861328 0)"/>
      <use xlink:href="#DejaVuSans-61" transform="translate(1218.273438 0)"/>
      <use xlink:href="#DejaVuSans-69" transform="translate(1279.552734 0)"/>
      <use xlink:href="#DejaVuSans-6e" transform="translate(1307.335938 0)"/>
     </g>
    </g>
    <g id="line2d_17">
     <path d="M 99 70.976562 
L 109 70.976562 
L 119 70.976562 
" style="fill: none; stroke: #ff7f0e; stroke-width: 1.5; stroke-linecap: square"/>
    </g>
    <g id="text_16">
     <!-- Val Loss - Pseudo Domain -->
     <g transform="translate(127 74.476562) scale(0.1 -0.1)">
      <defs>
       <path id="DejaVuSans-56" d="M 1831 0 
L 50 4666 
L 709 4666 
L 2188 738 
L 3669 4666 
L 4325 4666 
L 2547 0 
L 1831 0 
z
" transform="scale(0.015625)"/>
       <path id="DejaVuSans-6c" d="M 603 4863 
L 1178 4863 
L 1178 0 
L 603 0 
L 603 4863 
z
" transform="scale(0.015625)"/>
      </defs>
      <use xlink:href="#DejaVuSans-56"/>
      <use xlink:href="#DejaVuSans-61" transform="translate(60.658203 0)"/>
      <use xlink:href="#DejaVuSans-6c" transform="translate(121.9375 0)"/>
      <use xlink:href="#DejaVuSans-20" transform="translate(149.720703 0)"/>
      <use xlink:href="#DejaVuSans-4c" transform="translate(181.507812 0)"/>
      <use xlink:href="#DejaVuSans-6f" transform="translate(235.470703 0)"/>
      <use xlink:href="#DejaVuSans-73" transform="translate(296.652344 0)"/>
      <use xlink:href="#DejaVuSans-73" transform="translate(348.751953 0)"/>
      <use xlink:href="#DejaVuSans-20" transform="translate(400.851562 0)"/>
      <use xlink:href="#DejaVuSans-2d" transform="translate(432.638672 0)"/>
      <use xlink:href="#DejaVuSans-20" transform="translate(468.722656 0)"/>
      <use xlink:href="#DejaVuSans-50" transform="translate(500.509766 0)"/>
      <use xlink:href="#DejaVuSans-73" transform="translate(559.0625 0)"/>
      <use xlink:href="#DejaVuSans-65" transform="translate(611.162109 0)"/>
      <use xlink:href="#DejaVuSans-75" transform="translate(672.685547 0)"/>
      <use xlink:href="#DejaVuSans-64" transform="translate(736.064453 0)"/>
      <use xlink:href="#DejaVuSans-6f" transform="translate(799.541016 0)"/>
      <use xlink:href="#DejaVuSans-20" transform="translate(860.722656 0)"/>
      <use xlink:href="#DejaVuSans-44" transform="translate(892.509766 0)"/>
      <use xlink:href="#DejaVuSans-6f" transform="translate(969.511719 0)"/>
      <use xlink:href="#DejaVuSans-6d" transform="translate(1030.693359 0)"/>
      <use xlink:href="#DejaVuSans-61" transform="translate(1128.105469 0)"/>
      <use xlink:href="#DejaVuSans-69" transform="translate(1189.384766 0)"/>
      <use xlink:href="#DejaVuSans-6e" transform="translate(1217.167969 0)"/>
     </g>
    </g>
    <g id="line2d_18">
     <path d="M 99 85.654687 
L 109 85.654687 
L 119 85.654687 
" style="fill: none; stroke: #2ca02c; stroke-width: 1.5; stroke-linecap: square"/>
    </g>
    <g id="text_17">
     <!-- Val Loss - Source Domain -->
     <g transform="translate(127 89.154687) scale(0.1 -0.1)">
      <defs>
       <path id="DejaVuSans-53" d="M 3425 4513 
L 3425 3897 
Q 3066 4069 2747 4153 
Q 2428 4238 2131 4238 
Q 1616 4238 1336 4038 
Q 1056 3838 1056 3469 
Q 1056 3159 1242 3001 
Q 1428 2844 1947 2747 
L 2328 2669 
Q 3034 2534 3370 2195 
Q 3706 1856 3706 1288 
Q 3706 609 3251 259 
Q 2797 -91 1919 -91 
Q 1588 -91 1214 -16 
Q 841 59 441 206 
L 441 856 
Q 825 641 1194 531 
Q 1563 422 1919 422 
Q 2459 422 2753 634 
Q 3047 847 3047 1241 
Q 3047 1584 2836 1778 
Q 2625 1972 2144 2069 
L 1759 2144 
Q 1053 2284 737 2584 
Q 422 2884 422 3419 
Q 422 4038 858 4394 
Q 1294 4750 2059 4750 
Q 2388 4750 2728 4690 
Q 3069 4631 3425 4513 
z
" transform="scale(0.015625)"/>
      </defs>
      <use xlink:href="#DejaVuSans-56"/>
      <use xlink:href="#DejaVuSans-61" transform="translate(60.658203 0)"/>
      <use xlink:href="#DejaVuSans-6c" transform="translate(121.9375 0)"/>
      <use xlink:href="#DejaVuSans-20" transform="translate(149.720703 0)"/>
      <use xlink:href="#DejaVuSans-4c" transform="translate(181.507812 0)"/>
      <use xlink:href="#DejaVuSans-6f" transform="translate(235.470703 0)"/>
      <use xlink:href="#DejaVuSans-73" transform="translate(296.652344 0)"/>
      <use xlink:href="#DejaVuSans-73" transform="translate(348.751953 0)"/>
      <use xlink:href="#DejaVuSans-20" transform="translate(400.851562 0)"/>
      <use xlink:href="#DejaVuSans-2d" transform="translate(432.638672 0)"/>
      <use xlink:href="#DejaVuSans-20" transform="translate(468.722656 0)"/>
      <use xlink:href="#DejaVuSans-53" transform="translate(500.509766 0)"/>
      <use xlink:href="#DejaVuSans-6f" transform="translate(563.986328 0)"/>
      <use xlink:href="#DejaVuSans-75" transform="translate(625.167969 0)"/>
      <use xlink:href="#DejaVuSans-72" transform="translate(688.546875 0)"/>
      <use xlink:href="#DejaVuSans-63" transform="translate(727.410156 0)"/>
      <use xlink:href="#DejaVuSans-65" transform="translate(782.390625 0)"/>
      <use xlink:href="#DejaVuSans-20" transform="translate(843.914062 0)"/>
      <use xlink:href="#DejaVuSans-44" transform="translate(875.701172 0)"/>
      <use xlink:href="#DejaVuSans-6f" transform="translate(952.703125 0)"/>
      <use xlink:href="#DejaVuSans-6d" transform="translate(1013.884766 0)"/>
      <use xlink:href="#DejaVuSans-61" transform="translate(1111.296875 0)"/>
      <use xlink:href="#DejaVuSans-69" transform="translate(1172.576172 0)"/>
      <use xlink:href="#DejaVuSans-6e" transform="translate(1200.359375 0)"/>
     </g>
    </g>
    <g id="line2d_19">
     <path d="M 99 100.332812 
L 109 100.332812 
L 119 100.332812 
" style="fill: none; stroke: #d62728; stroke-width: 1.5; stroke-linecap: square"/>
    </g>
    <g id="text_18">
     <!-- Val Loss - Target Domain -->
     <g transform="translate(127 103.832812) scale(0.1 -0.1)">
      <defs>
       <path id="DejaVuSans-67" d="M 2906 1791 
Q 2906 2416 2648 2759 
Q 2391 3103 1925 3103 
Q 1463 3103 1205 2759 
Q 947 2416 947 1791 
Q 947 1169 1205 825 
Q 1463 481 1925 481 
Q 2391 481 2648 825 
Q 2906 1169 2906 1791 
z
M 3481 434 
Q 3481 -459 3084 -895 
Q 2688 -1331 1869 -1331 
Q 1566 -1331 1297 -1286 
Q 1028 -1241 775 -1147 
L 775 -588 
Q 1028 -725 1275 -790 
Q 1522 -856 1778 -856 
Q 2344 -856 2625 -561 
Q 2906 -266 2906 331 
L 2906 616 
Q 2728 306 2450 153 
Q 2172 0 1784 0 
Q 1141 0 747 490 
Q 353 981 353 1791 
Q 353 2603 747 3093 
Q 1141 3584 1784 3584 
Q 2172 3584 2450 3431 
Q 2728 3278 2906 2969 
L 2906 3500 
L 3481 3500 
L 3481 434 
z
" transform="scale(0.015625)"/>
      </defs>
      <use xlink:href="#DejaVuSans-56"/>
      <use xlink:href="#DejaVuSans-61" transform="translate(60.658203 0)"/>
      <use xlink:href="#DejaVuSans-6c" transform="translate(121.9375 0)"/>
      <use xlink:href="#DejaVuSans-20" transform="translate(149.720703 0)"/>
      <use xlink:href="#DejaVuSans-4c" transform="translate(181.507812 0)"/>
      <use xlink:href="#DejaVuSans-6f" transform="translate(235.470703 0)"/>
      <use xlink:href="#DejaVuSans-73" transform="translate(296.652344 0)"/>
      <use xlink:href="#DejaVuSans-73" transform="translate(348.751953 0)"/>
      <use xlink:href="#DejaVuSans-20" transform="translate(400.851562 0)"/>
      <use xlink:href="#DejaVuSans-2d" transform="translate(432.638672 0)"/>
      <use xlink:href="#DejaVuSans-20" transform="translate(468.722656 0)"/>
      <use xlink:href="#DejaVuSans-54" transform="translate(500.509766 0)"/>
      <use xlink:href="#DejaVuSans-61" transform="translate(545.09375 0)"/>
      <use xlink:href="#DejaVuSans-72" transform="translate(606.373047 0)"/>
      <use xlink:href="#DejaVuSans-67" transform="translate(645.736328 0)"/>
      <use xlink:href="#DejaVuSans-65" transform="translate(709.212891 0)"/>
      <use xlink:href="#DejaVuSans-74" transform="translate(770.736328 0)"/>
      <use xlink:href="#DejaVuSans-20" transform="translate(809.945312 0)"/>
      <use xlink:href="#DejaVuSans-44" transform="translate(841.732422 0)"/>
      <use xlink:href="#DejaVuSans-6f" transform="translate(918.734375 0)"/>
      <use xlink:href="#DejaVuSans-6d" transform="translate(979.916016 0)"/>
      <use xlink:href="#DejaVuSans-61" transform="translate(1077.328125 0)"/>
      <use xlink:href="#DejaVuSans-69" transform="translate(1138.607422 0)"/>
      <use xlink:href="#DejaVuSans-6e" transform="translate(1166.390625 0)"/>
     </g>
    </g>
   </g>
  </g>
 </g>
 <defs>
  <clipPath id="p085d8f67a3">
   <rect x="90" y="43.2" width="558" height="277.2"/>
  </clipPath>
 </defs>
</svg>
