<?xml version="1.0" encoding="utf-8" standalone="no"?>
<!DOCTYPE svg PUBLIC "-//W3C//DTD SVG 1.1//EN"
  "http://www.w3.org/Graphics/SVG/1.1/DTD/svg11.dtd">
<svg xmlns:xlink="http://www.w3.org/1999/xlink" width="720pt" height="360pt" viewBox="0 0 720 360" xmlns="http://www.w3.org/2000/svg" version="1.1">
 <metadata>
  <rdf:RDF xmlns:dc="http://purl.org/dc/elements/1.1/" xmlns:cc="http://creativecommons.org/ns#" xmlns:rdf="http://www.w3.org/1999/02/22-rdf-syntax-ns#">
   <cc:Work>
    <dc:type rdf:resource="http://purl.org/dc/dcmitype/StillImage"/>
    <dc:date>2025-11-18T10:39:25.267185</dc:date>
    <dc:format>image/svg+xml</dc:format>
    <dc:creator>
     <cc:Agent>
      <dc:title>Matplotlib v3.10.1, https://matplotlib.org/</dc:title>
     </cc:Agent>
    </dc:creator>
   </cc:Work>
  </rdf:RDF>
 </metadata>
 <defs>
  <style type="text/css">*{stroke-linejoin: round; stroke-linecap: butt}</style>
 </defs>
 <g id="figure_1">
  <g id="patch_1">
   <path d="M 0 360 
L 720 360 
L 720 0 
L 0 0 
z
" style="fill: #ffffff"/>
  </g>
  <g id="axes_1">
   <g id="patch_2">
    <path d="M 90 320.4 
L 648 320.4 
L 648 43.2 
L 90 43.2 
z
" style="fill: #ffffff"/>
   </g>
   <g id="matplotlib.axis_1">
    <g id="xtick_1">
     <g id="line2d_1">
      <defs>
       <path id="md8dfd5cff4" d="M 0 0 
L 0 3.5 
" style="stroke: #000000; stroke-width: 0.8"/>
      </defs>
      <g>
       <use xlink:href="#md8dfd5cff4" x="115.363636" y="320.4" style="stroke: #000000; stroke-width: 0.8"/>
      </g>
     </g>
     <g id="text_1">
      <!-- 0 -->
      <g transform="translate(112.182386 334.998438) scale(0.1 -0.1)">
       <defs>
        <path id="DejaVuSans-30" d="M 2034 4250 
Q 1547 4250 1301 3770 
Q 1056 3291 1056 2328 
Q 1056 1369 1301 889 
Q 1547 409 2034 409 
Q 2525 409 2770 889 
Q 3016 1369 3016 2328 
Q 3016 3291 2770 3770 
Q 2525 4250 2034 4250 
z
M 2034 4750 
Q 2819 4750 3233 4129 
Q 3647 3509 3647 2328 
Q 3647 1150 3233 529 
Q 2819 -91 2034 -91 
Q 1250 -91 836 529 
Q 422 1150 422 2328 
Q 422 3509 836 4129 
Q 1250 4750 2034 4750 
z
" transform="scale(0.015625)"/>
       </defs>
       <use xlink:href="#DejaVuSans-30"/>
      </g>
     </g>
    </g>
    <g id="xtick_2">
     <g id="line2d_2">
      <g>
       <use xlink:href="#md8dfd5cff4" x="217.157495" y="320.4" style="stroke: #000000; stroke-width: 0.8"/>
      </g>
     </g>
     <g id="text_2">
      <!-- 60 -->
      <g transform="translate(210.794995 334.998438) scale(0.1 -0.1)">
       <defs>
        <path id="DejaVuSans-36" d="M 2113 2584 
Q 1688 2584 1439 2293 
Q 1191 2003 1191 1497 
Q 1191 994 1439 701 
Q 1688 409 2113 409 
Q 2538 409 2786 701 
Q 3034 994 3034 1497 
Q 3034 2003 2786 2293 
Q 2538 2584 2113 2584 
z
M 3366 4563 
L 3366 3988 
Q 3128 4100 2886 4159 
Q 2644 4219 2406 4219 
Q 1781 4219 1451 3797 
Q 1122 3375 1075 2522 
Q 1259 2794 1537 2939 
Q 1816 3084 2150 3084 
Q 2853 3084 3261 2657 
Q 3669 2231 3669 1497 
Q 3669 778 3244 343 
Q 2819 -91 2113 -91 
Q 1303 -91 875 529 
Q 447 1150 447 2328 
Q 447 3434 972 4092 
Q 1497 4750 2381 4750 
Q 2619 4750 2861 4703 
Q 3103 4656 3366 4563 
z
" transform="scale(0.015625)"/>
       </defs>
       <use xlink:href="#DejaVuSans-36"/>
       <use xlink:href="#DejaVuSans-30" transform="translate(63.623047 0)"/>
      </g>
     </g>
    </g>
    <g id="xtick_3">
     <g id="line2d_3">
      <g>
       <use xlink:href="#md8dfd5cff4" x="318.951353" y="320.4" style="stroke: #000000; stroke-width: 0.8"/>
      </g>
     </g>
     <g id="text_3">
      <!-- 120 -->
      <g transform="translate(309.407603 334.998438) scale(0.1 -0.1)">
       <defs>
        <path id="DejaVuSans-31" d="M 794 531 
L 1825 531 
L 1825 4091 
L 703 3866 
L 703 4441 
L 1819 4666 
L 2450 4666 
L 2450 531 
L 3481 531 
L 3481 0 
L 794 0 
L 794 531 
z
" transform="scale(0.015625)"/>
        <path id="DejaVuSans-32" d="M 1228 531 
L 3431 531 
L 3431 0 
L 469 0 
L 469 531 
Q 828 903 1448 1529 
Q 2069 2156 2228 2338 
Q 2531 2678 2651 2914 
Q 2772 3150 2772 3378 
Q 2772 3750 2511 3984 
Q 2250 4219 1831 4219 
Q 1534 4219 1204 4116 
Q 875 4013 500 3803 
L 500 4441 
Q 881 4594 1212 4672 
Q 1544 4750 1819 4750 
Q 2544 4750 2975 4387 
Q 3406 4025 3406 3419 
Q 3406 3131 3298 2873 
Q 3191 2616 2906 2266 
Q 2828 2175 2409 1742 
Q 1991 1309 1228 531 
z
" transform="scale(0.015625)"/>
       </defs>
       <use xlink:href="#DejaVuSans-31"/>
       <use xlink:href="#DejaVuSans-32" transform="translate(63.623047 0)"/>
       <use xlink:href="#DejaVuSans-30" transform="translate(127.246094 0)"/>
      </g>
     </g>
    </g>
    <g id="xtick_4">
     <g id="line2d_4">
      <g>
       <use xlink:href="#md8dfd5cff4" x="420.745211" y="320.4" style="stroke: #000000; stroke-width: 0.8"/>
      </g>
     </g>
     <g id="text_4">
      <!-- 180 -->
      <g transform="translate(411.201461 334.998438) scale(0.1 -0.1)">
       <defs>
        <path id="DejaVuSans-38" d="M 2034 2216 
Q 1584 2216 1326 1975 
Q 1069 1734 1069 1313 
Q 1069 891 1326 650 
Q 1584 409 2034 409 
Q 2484 409 2743 651 
Q 3003 894 3003 1313 
Q 3003 1734 2745 1975 
Q 2488 2216 2034 2216 
z
M 1403 2484 
Q 997 2584 770 2862 
Q 544 3141 544 3541 
Q 544 4100 942 4425 
Q 1341 4750 2034 4750 
Q 2731 4750 3128 4425 
Q 3525 4100 3525 3541 
Q 3525 3141 3298 2862 
Q 3072 2584 2669 2484 
Q 3125 2378 3379 2068 
Q 3634 1759 3634 1313 
Q 3634 634 3220 271 
Q 2806 -91 2034 -91 
Q 1263 -91 848 271 
Q 434 634 434 1313 
Q 434 1759 690 2068 
Q 947 2378 1403 2484 
z
M 1172 3481 
Q 1172 3119 1398 2916 
Q 1625 2713 2034 2713 
Q 2441 2713 2670 2916 
Q 2900 3119 2900 3481 
Q 2900 3844 2670 4047 
Q 2441 4250 2034 4250 
Q 1625 4250 1398 4047 
Q 1172 3844 1172 3481 
z
" transform="scale(0.015625)"/>
       </defs>
       <use xlink:href="#DejaVuSans-31"/>
       <use xlink:href="#DejaVuSans-38" transform="translate(63.623047 0)"/>
       <use xlink:href="#DejaVuSans-30" transform="translate(127.246094 0)"/>
      </g>
     </g>
    </g>
    <g id="xtick_5">
     <g id="line2d_5">
      <g>
       <use xlink:href="#md8dfd5cff4" x="522.53907" y="320.4" style="stroke: #000000; stroke-width: 0.8"/>
      </g>
     </g>
     <g id="text_5">
      <!-- 240 -->
      <g transform="translate(512.99532 334.998438) scale(0.1 -0.1)">
       <defs>
        <path id="DejaVuSans-34" d="M 2419 4116 
L 825 1625 
L 2419 1625 
L 2419 4116 
z
M 2253 4666 
L 3047 4666 
L 3047 1625 
L 3713 1625 
L 3713 1100 
L 3047 1100 
L 3047 0 
L 2419 0 
L 2419 1100 
L 313 1100 
L 313 1709 
L 2253 4666 
z
" transform="scale(0.015625)"/>
       </defs>
       <use xlink:href="#DejaVuSans-32"/>
       <use xlink:href="#DejaVuSans-34" transform="translate(63.623047 0)"/>
       <use xlink:href="#DejaVuSans-30" transform="translate(127.246094 0)"/>
      </g>
     </g>
    </g>
    <g id="text_6">
     <!-- Epoch -->
     <g transform="translate(353.689062 348.676562) scale(0.1 -0.1)">
      <defs>
       <path id="DejaVuSans-45" d="M 628 4666 
L 3578 4666 
L 3578 4134 
L 1259 4134 
L 1259 2753 
L 3481 2753 
L 3481 2222 
L 1259 2222 
L 1259 531 
L 3634 531 
L 3634 0 
L 628 0 
L 628 4666 
z
" transform="scale(0.015625)"/>
       <path id="DejaVuSans-70" d="M 1159 525 
L 1159 -1331 
L 581 -1331 
L 581 3500 
L 1159 3500 
L 1159 2969 
Q 1341 3281 1617 3432 
Q 1894 3584 2278 3584 
Q 2916 3584 3314 3078 
Q 3713 2572 3713 1747 
Q 3713 922 3314 415 
Q 2916 -91 2278 -91 
Q 1894 -91 1617 61 
Q 1341 213 1159 525 
z
M 3116 1747 
Q 3116 2381 2855 2742 
Q 2594 3103 2138 3103 
Q 1681 3103 1420 2742 
Q 1159 2381 1159 1747 
Q 1159 1113 1420 752 
Q 1681 391 2138 391 
Q 2594 391 2855 752 
Q 3116 1113 3116 1747 
z
" transform="scale(0.015625)"/>
       <path id="DejaVuSans-6f" d="M 1959 3097 
Q 1497 3097 1228 2736 
Q 959 2375 959 1747 
Q 959 1119 1226 758 
Q 1494 397 1959 397 
Q 2419 397 2687 759 
Q 2956 1122 2956 1747 
Q 2956 2369 2687 2733 
Q 2419 3097 1959 3097 
z
M 1959 3584 
Q 2709 3584 3137 3096 
Q 3566 2609 3566 1747 
Q 3566 888 3137 398 
Q 2709 -91 1959 -91 
Q 1206 -91 779 398 
Q 353 888 353 1747 
Q 353 2609 779 3096 
Q 1206 3584 1959 3584 
z
" transform="scale(0.015625)"/>
       <path id="DejaVuSans-63" d="M 3122 3366 
L 3122 2828 
Q 2878 2963 2633 3030 
Q 2388 3097 2138 3097 
Q 1578 3097 1268 2742 
Q 959 2388 959 1747 
Q 959 1106 1268 751 
Q 1578 397 2138 397 
Q 2388 397 2633 464 
Q 2878 531 3122 666 
L 3122 134 
Q 2881 22 2623 -34 
Q 2366 -91 2075 -91 
Q 1284 -91 818 406 
Q 353 903 353 1747 
Q 353 2603 823 3093 
Q 1294 3584 2113 3584 
Q 2378 3584 2631 3529 
Q 2884 3475 3122 3366 
z
" transform="scale(0.015625)"/>
       <path id="DejaVuSans-68" d="M 3513 2113 
L 3513 0 
L 2938 0 
L 2938 2094 
Q 2938 2591 2744 2837 
Q 2550 3084 2163 3084 
Q 1697 3084 1428 2787 
Q 1159 2491 1159 1978 
L 1159 0 
L 581 0 
L 581 4863 
L 1159 4863 
L 1159 2956 
Q 1366 3272 1645 3428 
Q 1925 3584 2291 3584 
Q 2894 3584 3203 3211 
Q 3513 2838 3513 2113 
z
" transform="scale(0.015625)"/>
      </defs>
      <use xlink:href="#DejaVuSans-45"/>
      <use xlink:href="#DejaVuSans-70" transform="translate(63.183594 0)"/>
      <use xlink:href="#DejaVuSans-6f" transform="translate(126.660156 0)"/>
      <use xlink:href="#DejaVuSans-63" transform="translate(187.841797 0)"/>
      <use xlink:href="#DejaVuSans-68" transform="translate(242.822266 0)"/>
     </g>
    </g>
   </g>
   <g id="matplotlib.axis_2">
    <g id="ytick_1">
     <g id="line2d_6">
      <defs>
       <path id="maab563a18e" d="M 0 0 
L -3.5 0 
" style="stroke: #000000; stroke-width: 0.8"/>
      </defs>
      <g>
       <use xlink:href="#maab563a18e" x="90" y="309.228818" style="stroke: #000000; stroke-width: 0.8"/>
      </g>
     </g>
     <g id="text_7">
      <!-- 0.00 -->
      <g transform="translate(60.734375 313.028037) scale(0.1 -0.1)">
       <defs>
        <path id="DejaVuSans-2e" d="M 684 794 
L 1344 794 
L 1344 0 
L 684 0 
L 684 794 
z
" transform="scale(0.015625)"/>
       </defs>
       <use xlink:href="#DejaVuSans-30"/>
       <use xlink:href="#DejaVuSans-2e" transform="translate(63.623047 0)"/>
       <use xlink:href="#DejaVuSans-30" transform="translate(95.410156 0)"/>
       <use xlink:href="#DejaVuSans-30" transform="translate(159.033203 0)"/>
      </g>
     </g>
    </g>
    <g id="ytick_2">
     <g id="line2d_7">
      <g>
       <use xlink:href="#maab563a18e" x="90" y="273.855319" style="stroke: #000000; stroke-width: 0.8"/>
      </g>
     </g>
     <g id="text_8">
      <!-- 0.05 -->
      <g transform="translate(60.734375 277.654538) scale(0.1 -0.1)">
       <defs>
        <path id="DejaVuSans-35" d="M 691 4666 
L 3169 4666 
L 3169 4134 
L 1269 4134 
L 1269 2991 
Q 1406 3038 1543 3061 
Q 1681 3084 1819 3084 
Q 2600 3084 3056 2656 
Q 3513 2228 3513 1497 
Q 3513 744 3044 326 
Q 2575 -91 1722 -91 
Q 1428 -91 1123 -41 
Q 819 9 494 109 
L 494 744 
Q 775 591 1075 516 
Q 1375 441 1709 441 
Q 2250 441 2565 725 
Q 2881 1009 2881 1497 
Q 2881 1984 2565 2268 
Q 2250 2553 1709 2553 
Q 1456 2553 1204 2497 
Q 953 2441 691 2322 
L 691 4666 
z
" transform="scale(0.015625)"/>
       </defs>
       <use xlink:href="#DejaVuSans-30"/>
       <use xlink:href="#DejaVuSans-2e" transform="translate(63.623047 0)"/>
       <use xlink:href="#DejaVuSans-30" transform="translate(95.410156 0)"/>
       <use xlink:href="#DejaVuSans-35" transform="translate(159.033203 0)"/>
      </g>
     </g>
    </g>
    <g id="ytick_3">
     <g id="line2d_8">
      <g>
       <use xlink:href="#maab563a18e" x="90" y="238.481821" style="stroke: #000000; stroke-width: 0.8"/>
      </g>
     </g>
     <g id="text_9">
      <!-- 0.10 -->
      <g transform="translate(60.734375 242.281039) scale(0.1 -0.1)">
       <use xlink:href="#DejaVuSans-30"/>
       <use xlink:href="#DejaVuSans-2e" transform="translate(63.623047 0)"/>
       <use xlink:href="#DejaVuSans-31" transform="translate(95.410156 0)"/>
       <use xlink:href="#DejaVuSans-30" transform="translate(159.033203 0)"/>
      </g>
     </g>
    </g>
    <g id="ytick_4">
     <g id="line2d_9">
      <g>
       <use xlink:href="#maab563a18e" x="90" y="203.108322" style="stroke: #000000; stroke-width: 0.8"/>
      </g>
     </g>
     <g id="text_10">
      <!-- 0.15 -->
      <g transform="translate(60.734375 206.907541) scale(0.1 -0.1)">
       <use xlink:href="#DejaVuSans-30"/>
       <use xlink:href="#DejaVuSans-2e" transform="translate(63.623047 0)"/>
       <use xlink:href="#DejaVuSans-31" transform="translate(95.410156 0)"/>
       <use xlink:href="#DejaVuSans-35" transform="translate(159.033203 0)"/>
      </g>
     </g>
    </g>
    <g id="ytick_5">
     <g id="line2d_10">
      <g>
       <use xlink:href="#maab563a18e" x="90" y="167.734823" style="stroke: #000000; stroke-width: 0.8"/>
      </g>
     </g>
     <g id="text_11">
      <!-- 0.20 -->
      <g transform="translate(60.734375 171.534042) scale(0.1 -0.1)">
       <use xlink:href="#DejaVuSans-30"/>
       <use xlink:href="#DejaVuSans-2e" transform="translate(63.623047 0)"/>
       <use xlink:href="#DejaVuSans-32" transform="translate(95.410156 0)"/>
       <use xlink:href="#DejaVuSans-30" transform="translate(159.033203 0)"/>
      </g>
     </g>
    </g>
    <g id="ytick_6">
     <g id="line2d_11">
      <g>
       <use xlink:href="#maab563a18e" x="90" y="132.361325" style="stroke: #000000; stroke-width: 0.8"/>
      </g>
     </g>
     <g id="text_12">
      <!-- 0.25 -->
      <g transform="translate(60.734375 136.160544) scale(0.1 -0.1)">
       <use xlink:href="#DejaVuSans-30"/>
       <use xlink:href="#DejaVuSans-2e" transform="translate(63.623047 0)"/>
       <use xlink:href="#DejaVuSans-32" transform="translate(95.410156 0)"/>
       <use xlink:href="#DejaVuSans-35" transform="translate(159.033203 0)"/>
      </g>
     </g>
    </g>
    <g id="ytick_7">
     <g id="line2d_12">
      <g>
       <use xlink:href="#maab563a18e" x="90" y="96.987826" style="stroke: #000000; stroke-width: 0.8"/>
      </g>
     </g>
     <g id="text_13">
      <!-- 0.30 -->
      <g transform="translate(60.734375 100.787045) scale(0.1 -0.1)">
       <defs>
        <path id="DejaVuSans-33" d="M 2597 2516 
Q 3050 2419 3304 2112 
Q 3559 1806 3559 1356 
Q 3559 666 3084 287 
Q 2609 -91 1734 -91 
Q 1441 -91 1130 -33 
Q 819 25 488 141 
L 488 750 
Q 750 597 1062 519 
Q 1375 441 1716 441 
Q 2309 441 2620 675 
Q 2931 909 2931 1356 
Q 2931 1769 2642 2001 
Q 2353 2234 1838 2234 
L 1294 2234 
L 1294 2753 
L 1863 2753 
Q 2328 2753 2575 2939 
Q 2822 3125 2822 3475 
Q 2822 3834 2567 4026 
Q 2313 4219 1838 4219 
Q 1578 4219 1281 4162 
Q 984 4106 628 3988 
L 628 4550 
Q 988 4650 1302 4700 
Q 1616 4750 1894 4750 
Q 2613 4750 3031 4423 
Q 3450 4097 3450 3541 
Q 3450 3153 3228 2886 
Q 3006 2619 2597 2516 
z
" transform="scale(0.015625)"/>
       </defs>
       <use xlink:href="#DejaVuSans-30"/>
       <use xlink:href="#DejaVuSans-2e" transform="translate(63.623047 0)"/>
       <use xlink:href="#DejaVuSans-33" transform="translate(95.410156 0)"/>
       <use xlink:href="#DejaVuSans-30" transform="translate(159.033203 0)"/>
      </g>
     </g>
    </g>
    <g id="ytick_8">
     <g id="line2d_13">
      <g>
       <use xlink:href="#maab563a18e" x="90" y="61.614328" style="stroke: #000000; stroke-width: 0.8"/>
      </g>
     </g>
     <g id="text_14">
      <!-- 0.35 -->
      <g transform="translate(60.734375 65.413546) scale(0.1 -0.1)">
       <use xlink:href="#DejaVuSans-30"/>
       <use xlink:href="#DejaVuSans-2e" transform="translate(63.623047 0)"/>
       <use xlink:href="#DejaVuSans-33" transform="translate(95.410156 0)"/>
       <use xlink:href="#DejaVuSans-35" transform="translate(159.033203 0)"/>
      </g>
     </g>
    </g>
    <g id="text_15">
     <!-- Estimation Loss -->
     <g transform="translate(54.654687 220.98125) rotate(-90) scale(0.1 -0.1)">
      <defs>
       <path id="DejaVuSans-73" d="M 2834 3397 
L 2834 2853 
Q 2591 2978 2328 3040 
Q 2066 3103 1784 3103 
Q 1356 3103 1142 2972 
Q 928 2841 928 2578 
Q 928 2378 1081 2264 
Q 1234 2150 1697 2047 
L 1894 2003 
Q 2506 1872 2764 1633 
Q 3022 1394 3022 966 
Q 3022 478 2636 193 
Q 2250 -91 1575 -91 
Q 1294 -91 989 -36 
Q 684 19 347 128 
L 347 722 
Q 666 556 975 473 
Q 1284 391 1588 391 
Q 1994 391 2212 530 
Q 2431 669 2431 922 
Q 2431 1156 2273 1281 
Q 2116 1406 1581 1522 
L 1381 1569 
Q 847 1681 609 1914 
Q 372 2147 372 2553 
Q 372 3047 722 3315 
Q 1072 3584 1716 3584 
Q 2034 3584 2315 3537 
Q 2597 3491 2834 3397 
z
" transform="scale(0.015625)"/>
       <path id="DejaVuSans-74" d="M 1172 4494 
L 1172 3500 
L 2356 3500 
L 2356 3053 
L 1172 3053 
L 1172 1153 
Q 1172 725 1289 603 
Q 1406 481 1766 481 
L 2356 481 
L 2356 0 
L 1766 0 
Q 1100 0 847 248 
Q 594 497 594 1153 
L 594 3053 
L 172 3053 
L 172 3500 
L 594 3500 
L 594 4494 
L 1172 4494 
z
" transform="scale(0.015625)"/>
       <path id="DejaVuSans-69" d="M 603 3500 
L 1178 3500 
L 1178 0 
L 603 0 
L 603 3500 
z
M 603 4863 
L 1178 4863 
L 1178 4134 
L 603 4134 
L 603 4863 
z
" transform="scale(0.015625)"/>
       <path id="DejaVuSans-6d" d="M 3328 2828 
Q 3544 3216 3844 3400 
Q 4144 3584 4550 3584 
Q 5097 3584 5394 3201 
Q 5691 2819 5691 2113 
L 5691 0 
L 5113 0 
L 5113 2094 
Q 5113 2597 4934 2840 
Q 4756 3084 4391 3084 
Q 3944 3084 3684 2787 
Q 3425 2491 3425 1978 
L 3425 0 
L 2847 0 
L 2847 2094 
Q 2847 2600 2669 2842 
Q 2491 3084 2119 3084 
Q 1678 3084 1418 2786 
Q 1159 2488 1159 1978 
L 1159 0 
L 581 0 
L 581 3500 
L 1159 3500 
L 1159 2956 
Q 1356 3278 1631 3431 
Q 1906 3584 2284 3584 
Q 2666 3584 2933 3390 
Q 3200 3197 3328 2828 
z
" transform="scale(0.015625)"/>
       <path id="DejaVuSans-61" d="M 2194 1759 
Q 1497 1759 1228 1600 
Q 959 1441 959 1056 
Q 959 750 1161 570 
Q 1363 391 1709 391 
Q 2188 391 2477 730 
Q 2766 1069 2766 1631 
L 2766 1759 
L 2194 1759 
z
M 3341 1997 
L 3341 0 
L 2766 0 
L 2766 531 
Q 2569 213 2275 61 
Q 1981 -91 1556 -91 
Q 1019 -91 701 211 
Q 384 513 384 1019 
Q 384 1609 779 1909 
Q 1175 2209 1959 2209 
L 2766 2209 
L 2766 2266 
Q 2766 2663 2505 2880 
Q 2244 3097 1772 3097 
Q 1472 3097 1187 3025 
Q 903 2953 641 2809 
L 641 3341 
Q 956 3463 1253 3523 
Q 1550 3584 1831 3584 
Q 2591 3584 2966 3190 
Q 3341 2797 3341 1997 
z
" transform="scale(0.015625)"/>
       <path id="DejaVuSans-6e" d="M 3513 2113 
L 3513 0 
L 2938 0 
L 2938 2094 
Q 2938 2591 2744 2837 
Q 2550 3084 2163 3084 
Q 1697 3084 1428 2787 
Q 1159 2491 1159 1978 
L 1159 0 
L 581 0 
L 581 3500 
L 1159 3500 
L 1159 2956 
Q 1366 3272 1645 3428 
Q 1925 3584 2291 3584 
Q 2894 3584 3203 3211 
Q 3513 2838 3513 2113 
z
" transform="scale(0.015625)"/>
       <path id="DejaVuSans-20" transform="scale(0.015625)"/>
       <path id="DejaVuSans-4c" d="M 628 4666 
L 1259 4666 
L 1259 531 
L 3531 531 
L 3531 0 
L 628 0 
L 628 4666 
z
" transform="scale(0.015625)"/>
      </defs>
      <use xlink:href="#DejaVuSans-45"/>
      <use xlink:href="#DejaVuSans-73" transform="translate(63.183594 0)"/>
      <use xlink:href="#DejaVuSans-74" transform="translate(115.283203 0)"/>
      <use xlink:href="#DejaVuSans-69" transform="translate(154.492188 0)"/>
      <use xlink:href="#DejaVuSans-6d" transform="translate(182.275391 0)"/>
      <use xlink:href="#DejaVuSans-61" transform="translate(279.6875 0)"/>
      <use xlink:href="#DejaVuSans-74" transform="translate(340.966797 0)"/>
      <use xlink:href="#DejaVuSans-69" transform="translate(380.175781 0)"/>
      <use xlink:href="#DejaVuSans-6f" transform="translate(407.958984 0)"/>
      <use xlink:href="#DejaVuSans-6e" transform="translate(469.140625 0)"/>
      <use xlink:href="#DejaVuSans-20" transform="translate(532.519531 0)"/>
      <use xlink:href="#DejaVuSans-4c" transform="translate(564.306641 0)"/>
      <use xlink:href="#DejaVuSans-6f" transform="translate(618.269531 0)"/>
      <use xlink:href="#DejaVuSans-73" transform="translate(679.451172 0)"/>
      <use xlink:href="#DejaVuSans-73" transform="translate(731.550781 0)"/>
     </g>
    </g>
   </g>
   <g id="line2d_14">
    <path d="M 115.363636 175.160488 
L 117.060201 185.228052 
L 118.756765 191.596798 
L 120.453329 198.516947 
L 122.149894 201.325603 
L 123.846458 201.057383 
L 125.543022 201.314075 
L 127.239587 201.406655 
L 128.936151 202.546553 
L 130.632715 204.17143 
L 132.329279 205.022598 
L 135.722408 204.753503 
L 137.418972 204.40689 
L 139.115537 205.051256 
L 142.508665 205.802363 
L 145.901794 206.434419 
L 147.598358 207.114804 
L 149.294922 207.57484 
L 150.991487 207.728813 
L 152.688051 208.049607 
L 154.384615 208.215326 
L 156.08118 208.214587 
L 159.474308 208.386414 
L 162.867437 208.560729 
L 164.564001 208.831869 
L 166.260566 209.426472 
L 167.95713 209.886425 
L 173.046823 209.991425 
L 179.83308 210.742632 
L 181.529644 211.0561 
L 190.012466 212.036293 
L 196.798723 213.07714 
L 198.495287 213.216224 
L 201.888416 213.12447 
L 203.58498 213.071729 
L 213.764366 214.058108 
L 217.157495 214.790415 
L 218.854059 215.099446 
L 225.640316 215.660714 
L 234.123138 216.327701 
L 237.516266 216.734939 
L 244.302524 217.484205 
L 249.392216 218.217066 
L 252.785345 218.920855 
L 256.178474 219.771788 
L 262.964731 220.697634 
L 264.661295 220.826818 
L 269.750988 221.543904 
L 273.144117 221.878076 
L 276.537245 222.460139 
L 279.930374 223.18145 
L 295.199453 225.842666 
L 300.289146 226.728707 
L 305.378839 227.537495 
L 308.771967 228.03627 
L 313.86166 228.7299 
L 320.647917 229.646925 
L 325.73761 230.293734 
L 342.703253 232.695043 
L 359.668896 234.74662 
L 366.455154 236.061753 
L 368.151718 236.682387 
L 369.848282 238.167877 
L 371.544846 283.095084 
L 373.241411 286.982448 
L 374.937975 292.99861 
L 376.634539 292.735793 
L 378.331104 294.53328 
L 380.027668 296.905434 
L 381.724232 299.04294 
L 383.420797 300.507492 
L 385.117361 301.469322 
L 388.51049 302.765079 
L 391.903618 303.761777 
L 395.296747 304.497692 
L 396.993311 304.776005 
L 403.779568 305.341459 
L 408.869261 305.635138 
L 424.13834 306.273901 
L 456.373062 306.913587 
L 507.269991 307.36471 
L 531.021891 307.484107 
L 549.684099 307.563283 
L 575.132563 307.653676 
L 610.760413 307.76268 
L 622.636364 307.8 
L 622.636364 307.8 
" clip-path="url(#p51636ca4ac)" style="fill: none; stroke: #1f77b4; stroke-width: 1.5; stroke-linecap: square"/>
   </g>
   <g id="line2d_15">
    <path d="M 115.363636 212.658576 
L 117.060201 226.974784 
L 118.756765 235.593678 
L 120.453329 242.850282 
L 122.149894 246.83958 
L 123.846458 248.101886 
L 125.543022 249.539931 
L 127.239587 250.705707 
L 130.632715 253.924823 
L 132.329279 254.833204 
L 137.418972 255.429257 
L 139.115537 256.14713 
L 140.812101 256.617051 
L 144.20523 257.032576 
L 145.901794 257.202865 
L 149.294922 257.838853 
L 156.08118 258.538422 
L 157.777744 258.897324 
L 164.564001 259.665398 
L 166.260566 260.091447 
L 167.95713 260.244004 
L 171.350258 260.010347 
L 179.83308 260.912787 
L 184.922773 261.708584 
L 188.315901 262.17065 
L 193.405594 262.849772 
L 198.495287 263.204255 
L 203.58498 263.202348 
L 210.371237 263.776222 
L 213.764366 263.864512 
L 217.157495 264.396693 
L 218.854059 264.731825 
L 222.247188 264.919552 
L 225.640316 265.065214 
L 249.392216 266.723853 
L 252.785345 267.145271 
L 256.178474 267.610552 
L 271.447552 268.216793 
L 274.840681 268.401665 
L 288.413196 269.530297 
L 291.806324 269.858244 
L 312.165096 271.025039 
L 322.344482 271.456188 
L 332.523867 271.870014 
L 339.310125 272.212979 
L 351.186075 272.624167 
L 366.455154 273.521448 
L 368.151718 273.82424 
L 369.848282 274.542414 
L 371.544846 290.057603 
L 373.241411 292.886527 
L 374.937975 292.634275 
L 378.331104 292.71658 
L 383.420797 292.463471 
L 388.51049 292.22817 
L 391.903618 292.035426 
L 398.689875 292.310231 
L 402.083004 292.50433 
L 405.476133 292.664924 
L 413.958954 293.023043 
L 429.228033 293.593886 
L 451.283369 293.909521 
L 463.159319 293.989244 
L 468.249012 294.0521 
L 473.338705 294.02737 
L 497.090605 294.21311 
L 505.573427 294.169986 
L 508.966555 294.265613 
L 512.359684 294.21724 
L 522.53907 294.304871 
L 539.504713 294.341232 
L 544.594406 294.343446 
L 554.773791 294.366638 
L 587.008513 294.351587 
L 598.884463 294.367715 
L 609.063849 294.438865 
L 622.636364 294.424011 
L 622.636364 294.424011 
" clip-path="url(#p51636ca4ac)" style="fill: none; stroke: #ff7f0e; stroke-width: 1.5; stroke-linecap: square"/>
   </g>
   <g id="line2d_16">
    <path d="M 115.363636 55.8 
L 117.060201 60.124624 
L 118.756765 76.836384 
L 120.453329 88.505463 
L 122.149894 91.89572 
L 123.846458 92.080683 
L 125.543022 88.96874 
L 127.239587 95.798123 
L 128.936151 96.3907 
L 130.632715 101.06518 
L 132.329279 100.26267 
L 134.025844 100.68049 
L 135.722408 100.783583 
L 137.418972 98.837179 
L 139.115537 101.726558 
L 140.812101 100.431143 
L 142.508665 103.538598 
L 144.20523 102.52397 
L 145.901794 104.986635 
L 147.598358 106.969407 
L 149.294922 106.495119 
L 150.991487 106.600911 
L 152.688051 107.91898 
L 154.384615 106.900413 
L 156.08118 106.304295 
L 157.777744 109.069499 
L 159.474308 109.303035 
L 161.170873 105.688314 
L 162.867437 109.310096 
L 164.564001 107.036588 
L 166.260566 111.451153 
L 167.95713 111.126207 
L 169.653694 110.645821 
L 171.350258 111.406119 
L 173.046823 113.284029 
L 174.743387 109.876753 
L 176.439951 111.577912 
L 178.136516 111.792158 
L 181.529644 113.503813 
L 183.226209 114.873764 
L 184.922773 113.686563 
L 186.619337 114.46628 
L 188.315901 113.692944 
L 190.012466 115.396982 
L 191.70903 116.292764 
L 193.405594 113.556529 
L 195.102159 116.439265 
L 196.798723 115.459243 
L 198.495287 117.146746 
L 200.191852 115.755706 
L 201.888416 116.775606 
L 203.58498 117.644499 
L 205.281545 116.278809 
L 206.978109 117.49059 
L 208.674673 118.853954 
L 210.371237 118.597392 
L 212.067802 117.221488 
L 213.764366 117.919879 
L 215.46093 120.389381 
L 217.157495 119.316067 
L 218.854059 119.844592 
L 220.550623 120.051156 
L 222.247188 119.757949 
L 223.943752 120.854506 
L 225.640316 122.95324 
L 227.336881 122.992041 
L 229.033445 121.881129 
L 230.730009 124.122218 
L 232.426573 121.611133 
L 234.123138 122.665236 
L 235.819702 125.782693 
L 237.516266 124.994897 
L 239.212831 123.982195 
L 240.909395 124.965929 
L 242.605959 124.706604 
L 244.302524 127.152117 
L 245.999088 128.155671 
L 247.695652 126.364087 
L 249.392216 128.328147 
L 251.088781 128.532019 
L 254.481909 130.670545 
L 256.178474 129.774911 
L 257.875038 131.277621 
L 259.571602 132.603006 
L 261.268167 132.543653 
L 262.964731 131.438689 
L 264.661295 133.630331 
L 266.35786 135.438991 
L 268.054424 134.737979 
L 269.750988 134.882897 
L 271.447552 133.146759 
L 273.144117 134.725535 
L 274.840681 134.826463 
L 276.537245 135.15075 
L 278.23381 137.286178 
L 279.930374 138.369935 
L 281.626938 137.340747 
L 285.020067 140.813268 
L 286.716631 139.602218 
L 288.413196 139.876272 
L 290.10976 140.860295 
L 291.806324 140.538176 
L 293.502888 142.77201 
L 295.199453 140.715669 
L 296.896017 141.437781 
L 298.592581 144.887499 
L 300.289146 143.271048 
L 301.98571 144.407001 
L 303.682274 143.805444 
L 305.378839 146.451329 
L 307.075403 145.477855 
L 308.771967 146.974642 
L 310.468531 147.751438 
L 312.165096 148.017527 
L 313.86166 147.717499 
L 315.558224 149.190197 
L 317.254789 150.150142 
L 318.951353 149.551943 
L 320.647917 151.28292 
L 322.344482 150.734522 
L 324.041046 151.210967 
L 325.73761 153.089581 
L 327.434175 151.598696 
L 329.130739 151.86868 
L 330.827303 152.269494 
L 332.523867 155.18441 
L 334.220432 154.47985 
L 335.916996 156.126574 
L 337.61356 156.306667 
L 339.310125 156.074206 
L 341.006689 155.309734 
L 342.703253 155.690453 
L 344.399818 155.150735 
L 346.096382 157.764487 
L 347.792946 157.093759 
L 349.48951 158.871383 
L 351.186075 160.078884 
L 352.882639 157.593359 
L 354.579203 158.107301 
L 356.275768 159.116395 
L 357.972332 160.828685 
L 359.668896 161.615043 
L 361.365461 161.237569 
L 363.062025 161.505075 
L 364.758589 163.082522 
L 366.455154 162.727777 
L 368.151718 165.660267 
L 369.848282 172.432619 
L 371.544846 286.827773 
L 373.241411 269.888787 
L 374.937975 279.531248 
L 376.634539 278.204897 
L 378.331104 284.515647 
L 380.027668 288.740048 
L 381.724232 291.910081 
L 383.420797 294.51261 
L 385.117361 296.157568 
L 388.51049 298.340045 
L 391.903618 300.095525 
L 396.993311 301.518789 
L 405.476133 302.742846 
L 407.172697 302.904799 
L 408.869261 302.941306 
L 410.565825 303.147681 
L 412.26239 303.210385 
L 413.958954 303.486596 
L 424.13834 304.137475 
L 427.531469 304.219957 
L 429.228033 304.392925 
L 430.924597 304.378691 
L 432.621161 304.576246 
L 434.317726 304.509874 
L 441.103983 304.895479 
L 444.497112 304.882707 
L 446.193676 305.058063 
L 449.586804 304.985409 
L 451.283369 305.186413 
L 459.76619 305.337808 
L 463.159319 305.414908 
L 473.338705 305.670185 
L 476.731833 305.665336 
L 478.428398 305.764667 
L 480.124962 305.697812 
L 485.214655 305.855998 
L 486.911219 305.792238 
L 490.304348 305.871944 
L 500.483734 305.997964 
L 503.876862 305.995863 
L 522.53907 306.148821 
L 527.628763 306.207544 
L 554.773791 306.432375 
L 558.16692 306.412725 
L 559.863484 306.389675 
L 563.256613 306.491494 
L 570.04287 306.519059 
L 573.435999 306.535466 
L 580.222256 306.537228 
L 583.615385 306.60675 
L 595.491335 306.615973 
L 598.884463 306.68661 
L 612.456978 306.724844 
L 614.153542 306.662943 
L 615.850106 306.712714 
L 617.546671 306.644728 
L 619.243235 306.780529 
L 622.636364 306.780779 
L 622.636364 306.780779 
" clip-path="url(#p51636ca4ac)" style="fill: none; stroke: #2ca02c; stroke-width: 1.5; stroke-linecap: square"/>
   </g>
   <g id="line2d_17">
    <path d="M 115.363636 131.677306 
L 117.060201 147.046138 
L 118.756765 165.859403 
L 120.453329 178.364152 
L 122.149894 184.212878 
L 123.846458 186.813222 
L 125.543022 187.948053 
L 127.239587 194.432 
L 128.936151 196.607139 
L 130.632715 200.494886 
L 132.329279 200.18489 
L 135.722408 202.081513 
L 137.418972 201.592034 
L 139.115537 203.820536 
L 140.812101 203.305018 
L 142.508665 205.100529 
L 144.20523 204.166664 
L 145.901794 205.623095 
L 147.598358 206.320475 
L 149.294922 206.051591 
L 150.991487 206.53966 
L 152.688051 207.284879 
L 154.384615 206.683172 
L 156.08118 206.928627 
L 157.777744 209.152783 
L 159.474308 209.684826 
L 161.170873 207.613934 
L 162.867437 209.907264 
L 164.564001 208.946041 
L 166.260566 211.061034 
L 169.653694 209.759965 
L 171.350258 210.32275 
L 173.046823 211.725845 
L 174.743387 209.698527 
L 176.439951 210.970062 
L 178.136516 211.27099 
L 181.529644 212.525114 
L 183.226209 213.878708 
L 184.922773 213.580152 
L 186.619337 214.334398 
L 188.315901 214.155104 
L 190.012466 215.526093 
L 191.70903 216.284444 
L 193.405594 214.476718 
L 195.102159 216.038167 
L 196.798723 215.541378 
L 198.495287 216.540003 
L 200.191852 215.709274 
L 203.58498 217.182477 
L 205.281545 216.561907 
L 206.978109 217.416787 
L 208.674673 218.481182 
L 210.371237 218.277495 
L 212.067802 217.236567 
L 213.764366 217.466737 
L 215.46093 219.242463 
L 217.157495 218.75677 
L 218.854059 219.481665 
L 220.550623 219.533081 
L 222.247188 219.176308 
L 223.943752 219.777897 
L 225.640316 221.252759 
L 227.336881 221.290969 
L 229.033445 220.597501 
L 230.730009 222.116757 
L 232.426573 220.531977 
L 234.123138 221.31327 
L 235.819702 223.213953 
L 237.516266 222.850606 
L 239.212831 222.146137 
L 240.909395 222.678041 
L 242.605959 222.364494 
L 244.302524 223.965495 
L 245.999088 224.564947 
L 247.695652 223.29659 
L 249.392216 224.541491 
L 251.088781 224.79134 
L 254.481909 226.042255 
L 256.178474 225.439622 
L 259.571602 226.994899 
L 261.268167 226.686109 
L 262.964731 225.814547 
L 264.661295 227.251657 
L 266.35786 228.156253 
L 268.054424 227.555767 
L 269.750988 227.460881 
L 271.447552 226.095493 
L 273.144117 226.990241 
L 274.840681 226.866351 
L 276.537245 226.868822 
L 278.23381 227.954618 
L 279.930374 228.58506 
L 281.626938 227.772607 
L 283.323503 228.876695 
L 285.020067 229.830511 
L 286.716631 228.958927 
L 288.413196 229.052446 
L 290.10976 229.673555 
L 291.806324 229.44471 
L 293.502888 230.70272 
L 295.199453 229.389446 
L 296.896017 229.667734 
L 298.592581 231.893481 
L 300.289146 230.665616 
L 301.98571 231.166368 
L 303.682274 230.593531 
L 305.378839 232.293092 
L 307.075403 231.396836 
L 308.771967 232.123743 
L 310.468531 232.594639 
L 313.86166 232.261704 
L 315.558224 233.190044 
L 317.254789 233.574159 
L 318.951353 233.013376 
L 320.647917 233.994925 
L 322.344482 233.504856 
L 324.041046 233.49592 
L 325.73761 234.566102 
L 327.434175 233.582466 
L 329.130739 233.490162 
L 330.827303 233.645666 
L 332.523867 235.35045 
L 334.220432 234.585983 
L 335.916996 235.543015 
L 337.61356 235.652377 
L 339.310125 235.275735 
L 341.006689 234.509113 
L 342.703253 234.592603 
L 344.399818 234.141146 
L 346.096382 235.632661 
L 347.792946 235.137218 
L 349.48951 236.155944 
L 351.186075 236.791515 
L 352.882639 235.007661 
L 356.275768 235.803044 
L 357.972332 236.907675 
L 359.668896 237.349641 
L 361.365461 236.815265 
L 363.062025 236.947635 
L 364.758589 237.75749 
L 366.455154 237.248141 
L 368.151718 238.863316 
L 369.848282 242.357892 
L 371.544846 282.759279 
L 373.241411 276.060127 
L 374.937975 277.730265 
L 376.634539 278.076757 
L 378.331104 277.76285 
L 380.027668 277.766495 
L 381.724232 277.623611 
L 388.51049 276.309033 
L 390.207054 276.263959 
L 391.903618 275.941954 
L 393.600182 276.348041 
L 395.296747 276.084228 
L 396.993311 276.639726 
L 402.083004 276.81324 
L 403.779568 277.337652 
L 405.476133 277.014065 
L 407.172697 277.365249 
L 408.869261 277.958487 
L 410.565825 277.508697 
L 412.26239 277.985436 
L 413.958954 277.539747 
L 415.655518 277.496089 
L 417.352083 278.242821 
L 419.048647 278.180974 
L 420.745211 277.982345 
L 422.441776 278.723736 
L 424.13834 278.593561 
L 425.834904 279.009452 
L 427.531469 278.576069 
L 429.228033 278.738983 
L 430.924597 279.251835 
L 432.621161 278.553545 
L 434.317726 279.354806 
L 436.01429 278.860538 
L 441.103983 279.159825 
L 442.800547 279.151108 
L 444.497112 279.589846 
L 446.193676 278.991163 
L 447.89024 279.246537 
L 449.586804 279.915315 
L 451.283369 279.116792 
L 452.979933 279.465927 
L 454.676497 279.506531 
L 456.373062 279.865369 
L 458.069626 279.396361 
L 461.462755 279.279156 
L 463.159319 279.821838 
L 464.855883 279.504926 
L 468.249012 279.824658 
L 469.945576 280.02401 
L 471.64214 279.590562 
L 473.338705 279.551281 
L 475.035269 280.059151 
L 476.731833 280.311737 
L 478.428398 279.531843 
L 480.124962 280.108473 
L 483.518091 279.862858 
L 485.214655 280.114922 
L 486.911219 280.192112 
L 488.607784 280.136668 
L 490.304348 280.244175 
L 492.000912 279.932481 
L 495.394041 280.430975 
L 497.090605 280.426057 
L 498.787169 280.584912 
L 500.483734 279.830398 
L 502.180298 280.335707 
L 505.573427 280.353137 
L 507.269991 280.153929 
L 508.966555 280.245991 
L 510.663119 280.548937 
L 514.056248 280.624296 
L 515.752812 280.127579 
L 517.449377 280.596964 
L 519.145941 280.744391 
L 520.842505 280.394079 
L 522.53907 280.300469 
L 524.235634 280.640579 
L 525.932198 280.554031 
L 527.628763 280.666234 
L 529.325327 280.248625 
L 531.021891 280.566397 
L 534.41502 280.60723 
L 536.111584 280.248189 
L 537.808148 280.577799 
L 539.504713 280.77996 
L 541.201277 280.736898 
L 542.897841 280.933971 
L 544.594406 280.996397 
L 546.29097 280.483652 
L 549.684099 280.643083 
L 551.380663 280.373606 
L 553.077227 280.548583 
L 554.773791 280.31578 
L 556.470356 280.870009 
L 558.16692 281.03982 
L 559.863484 280.819164 
L 561.560049 280.458941 
L 564.953177 280.628759 
L 566.649742 280.87816 
L 568.346306 280.685024 
L 570.04287 280.770609 
L 571.739434 280.379961 
L 573.435999 280.851888 
L 575.132563 280.954355 
L 576.829127 280.564323 
L 578.525692 280.725862 
L 580.222256 280.667785 
L 581.91882 280.49404 
L 583.615385 280.691207 
L 593.79477 280.695656 
L 595.491335 280.796141 
L 597.187899 280.480799 
L 598.884463 280.910676 
L 600.581028 280.729031 
L 607.367285 280.884087 
L 610.760413 280.682454 
L 612.456978 280.912048 
L 614.153542 280.864417 
L 615.850106 280.654836 
L 617.546671 280.981341 
L 619.243235 280.61263 
L 622.636364 280.786531 
L 622.636364 280.786531 
" clip-path="url(#p51636ca4ac)" style="fill: none; stroke: #d62728; stroke-width: 1.5; stroke-linecap: square"/>
   </g>
   <g id="patch_3">
    <path d="M 90 320.4 
L 90 43.2 
" style="fill: none; stroke: #000000; stroke-width: 0.8; stroke-linejoin: miter; stroke-linecap: square"/>
   </g>
   <g id="patch_4">
    <path d="M 648 320.4 
L 648 43.2 
" style="fill: none; stroke: #000000; stroke-width: 0.8; stroke-linejoin: miter; stroke-linecap: square"/>
   </g>
   <g id="patch_5">
    <path d="M 90 320.4 
L 648 320.4 
" style="fill: none; stroke: #000000; stroke-width: 0.8; stroke-linejoin: miter; stroke-linecap: square"/>
   </g>
   <g id="patch_6">
    <path d="M 90 43.2 
L 648 43.2 
" style="fill: none; stroke: #000000; stroke-width: 0.8; stroke-linejoin: miter; stroke-linecap: square"/>
   </g>
   <g id="text_16">
    <!-- Training and Validating Estimation Loss -->
    <g transform="translate(251.535937 37.2) scale(0.12 -0.12)">
     <defs>
      <path id="DejaVuSans-54" d="M -19 4666 
L 3928 4666 
L 3928 4134 
L 2272 4134 
L 2272 0 
L 1638 0 
L 1638 4134 
L -19 4134 
L -19 4666 
z
" transform="scale(0.015625)"/>
      <path id="DejaVuSans-72" d="M 2631 2963 
Q 2534 3019 2420 3045 
Q 2306 3072 2169 3072 
Q 1681 3072 1420 2755 
Q 1159 2438 1159 1844 
L 1159 0 
L 581 0 
L 581 3500 
L 1159 3500 
L 1159 2956 
Q 1341 3275 1631 3429 
Q 1922 3584 2338 3584 
Q 2397 3584 2469 3576 
Q 2541 3569 2628 3553 
L 2631 2963 
z
" transform="scale(0.015625)"/>
      <path id="DejaVuSans-67" d="M 2906 1791 
Q 2906 2416 2648 2759 
Q 2391 3103 1925 3103 
Q 1463 3103 1205 2759 
Q 947 2416 947 1791 
Q 947 1169 1205 825 
Q 1463 481 1925 481 
Q 2391 481 2648 825 
Q 2906 1169 2906 1791 
z
M 3481 434 
Q 3481 -459 3084 -895 
Q 2688 -1331 1869 -1331 
Q 1566 -1331 1297 -1286 
Q 1028 -1241 775 -1147 
L 775 -588 
Q 1028 -725 1275 -790 
Q 1522 -856 1778 -856 
Q 2344 -856 2625 -561 
Q 2906 -266 2906 331 
L 2906 616 
Q 2728 306 2450 153 
Q 2172 0 1784 0 
Q 1141 0 747 490 
Q 353 981 353 1791 
Q 353 2603 747 3093 
Q 1141 3584 1784 3584 
Q 2172 3584 2450 3431 
Q 2728 3278 2906 2969 
L 2906 3500 
L 3481 3500 
L 3481 434 
z
" transform="scale(0.015625)"/>
      <path id="DejaVuSans-64" d="M 2906 2969 
L 2906 4863 
L 3481 4863 
L 3481 0 
L 2906 0 
L 2906 525 
Q 2725 213 2448 61 
Q 2172 -91 1784 -91 
Q 1150 -91 751 415 
Q 353 922 353 1747 
Q 353 2572 751 3078 
Q 1150 3584 1784 3584 
Q 2172 3584 2448 3432 
Q 2725 3281 2906 2969 
z
M 947 1747 
Q 947 1113 1208 752 
Q 1469 391 1925 391 
Q 2381 391 2643 752 
Q 2906 1113 2906 1747 
Q 2906 2381 2643 2742 
Q 2381 3103 1925 3103 
Q 1469 3103 1208 2742 
Q 947 2381 947 1747 
z
" transform="scale(0.015625)"/>
      <path id="DejaVuSans-56" d="M 1831 0 
L 50 4666 
L 709 4666 
L 2188 738 
L 3669 4666 
L 4325 4666 
L 2547 0 
L 1831 0 
z
" transform="scale(0.015625)"/>
      <path id="DejaVuSans-6c" d="M 603 4863 
L 1178 4863 
L 1178 0 
L 603 0 
L 603 4863 
z
" transform="scale(0.015625)"/>
     </defs>
     <use xlink:href="#DejaVuSans-54"/>
     <use xlink:href="#DejaVuSans-72" transform="translate(46.333984 0)"/>
     <use xlink:href="#DejaVuSans-61" transform="translate(87.447266 0)"/>
     <use xlink:href="#DejaVuSans-69" transform="translate(148.726562 0)"/>
     <use xlink:href="#DejaVuSans-6e" transform="translate(176.509766 0)"/>
     <use xlink:href="#DejaVuSans-69" transform="translate(239.888672 0)"/>
     <use xlink:href="#DejaVuSans-6e" transform="translate(267.671875 0)"/>
     <use xlink:href="#DejaVuSans-67" transform="translate(331.050781 0)"/>
     <use xlink:href="#DejaVuSans-20" transform="translate(394.527344 0)"/>
     <use xlink:href="#DejaVuSans-61" transform="translate(426.314453 0)"/>
     <use xlink:href="#DejaVuSans-6e" transform="translate(487.59375 0)"/>
     <use xlink:href="#DejaVuSans-64" transform="translate(550.972656 0)"/>
     <use xlink:href="#DejaVuSans-20" transform="translate(614.449219 0)"/>
     <use xlink:href="#DejaVuSans-56" transform="translate(646.236328 0)"/>
     <use xlink:href="#DejaVuSans-61" transform="translate(706.894531 0)"/>
     <use xlink:href="#DejaVuSans-6c" transform="translate(768.173828 0)"/>
     <use xlink:href="#DejaVuSans-69" transform="translate(795.957031 0)"/>
     <use xlink:href="#DejaVuSans-64" transform="translate(823.740234 0)"/>
     <use xlink:href="#DejaVuSans-61" transform="translate(887.216797 0)"/>
     <use xlink:href="#DejaVuSans-74" transform="translate(948.496094 0)"/>
     <use xlink:href="#DejaVuSans-69" transform="translate(987.705078 0)"/>
     <use xlink:href="#DejaVuSans-6e" transform="translate(1015.488281 0)"/>
     <use xlink:href="#DejaVuSans-67" transform="translate(1078.867188 0)"/>
     <use xlink:href="#DejaVuSans-20" transform="translate(1142.34375 0)"/>
     <use xlink:href="#DejaVuSans-45" transform="translate(1174.130859 0)"/>
     <use xlink:href="#DejaVuSans-73" transform="translate(1237.314453 0)"/>
     <use xlink:href="#DejaVuSans-74" transform="translate(1289.414062 0)"/>
     <use xlink:href="#DejaVuSans-69" transform="translate(1328.623047 0)"/>
     <use xlink:href="#DejaVuSans-6d" transform="translate(1356.40625 0)"/>
     <use xlink:href="#DejaVuSans-61" transform="translate(1453.818359 0)"/>
     <use xlink:href="#DejaVuSans-74" transform="translate(1515.097656 0)"/>
     <use xlink:href="#DejaVuSans-69" transform="translate(1554.306641 0)"/>
     <use xlink:href="#DejaVuSans-6f" transform="translate(1582.089844 0)"/>
     <use xlink:href="#DejaVuSans-6e" transform="translate(1643.271484 0)"/>
     <use xlink:href="#DejaVuSans-20" transform="translate(1706.650391 0)"/>
     <use xlink:href="#DejaVuSans-4c" transform="translate(1738.4375 0)"/>
     <use xlink:href="#DejaVuSans-6f" transform="translate(1792.400391 0)"/>
     <use xlink:href="#DejaVuSans-73" transform="translate(1853.582031 0)"/>
     <use xlink:href="#DejaVuSans-73" transform="translate(1905.681641 0)"/>
    </g>
   </g>
   <g id="legend_1">
    <g id="patch_7">
     <path d="M 521.439062 109.9125 
L 641 109.9125 
Q 643 109.9125 643 107.9125 
L 643 50.2 
Q 643 48.2 641 48.2 
L 521.439062 48.2 
Q 519.439062 48.2 519.439062 50.2 
L 519.439062 107.9125 
Q 519.439062 109.9125 521.439062 109.9125 
z
" style="fill: #ffffff; opacity: 0.8; stroke: #cccccc; stroke-linejoin: miter"/>
    </g>
    <g id="line2d_18">
     <path d="M 523.439062 56.298437 
L 533.439062 56.298437 
L 543.439062 56.298437 
" style="fill: none; stroke: #1f77b4; stroke-width: 1.5; stroke-linecap: square"/>
    </g>
    <g id="text_17">
     <!-- Training-Source -->
     <g transform="translate(551.439062 59.798437) scale(0.1 -0.1)">
      <defs>
       <path id="DejaVuSans-2d" d="M 313 2009 
L 1997 2009 
L 1997 1497 
L 313 1497 
L 313 2009 
z
" transform="scale(0.015625)"/>
       <path id="DejaVuSans-53" d="M 3425 4513 
L 3425 3897 
Q 3066 4069 2747 4153 
Q 2428 4238 2131 4238 
Q 1616 4238 1336 4038 
Q 1056 3838 1056 3469 
Q 1056 3159 1242 3001 
Q 1428 2844 1947 2747 
L 2328 2669 
Q 3034 2534 3370 2195 
Q 3706 1856 3706 1288 
Q 3706 609 3251 259 
Q 2797 -91 1919 -91 
Q 1588 -91 1214 -16 
Q 841 59 441 206 
L 441 856 
Q 825 641 1194 531 
Q 1563 422 1919 422 
Q 2459 422 2753 634 
Q 3047 847 3047 1241 
Q 3047 1584 2836 1778 
Q 2625 1972 2144 2069 
L 1759 2144 
Q 1053 2284 737 2584 
Q 422 2884 422 3419 
Q 422 4038 858 4394 
Q 1294 4750 2059 4750 
Q 2388 4750 2728 4690 
Q 3069 4631 3425 4513 
z
" transform="scale(0.015625)"/>
       <path id="DejaVuSans-75" d="M 544 1381 
L 544 3500 
L 1119 3500 
L 1119 1403 
Q 1119 906 1312 657 
Q 1506 409 1894 409 
Q 2359 409 2629 706 
Q 2900 1003 2900 1516 
L 2900 3500 
L 3475 3500 
L 3475 0 
L 2900 0 
L 2900 538 
Q 2691 219 2414 64 
Q 2138 -91 1772 -91 
Q 1169 -91 856 284 
Q 544 659 544 1381 
z
M 1991 3584 
L 1991 3584 
z
" transform="scale(0.015625)"/>
       <path id="DejaVuSans-65" d="M 3597 1894 
L 3597 1613 
L 953 1613 
Q 991 1019 1311 708 
Q 1631 397 2203 397 
Q 2534 397 2845 478 
Q 3156 559 3463 722 
L 3463 178 
Q 3153 47 2828 -22 
Q 2503 -91 2169 -91 
Q 1331 -91 842 396 
Q 353 884 353 1716 
Q 353 2575 817 3079 
Q 1281 3584 2069 3584 
Q 2775 3584 3186 3129 
Q 3597 2675 3597 1894 
z
M 3022 2063 
Q 3016 2534 2758 2815 
Q 2500 3097 2075 3097 
Q 1594 3097 1305 2825 
Q 1016 2553 972 2059 
L 3022 2063 
z
" transform="scale(0.015625)"/>
      </defs>
      <use xlink:href="#DejaVuSans-54"/>
      <use xlink:href="#DejaVuSans-72" transform="translate(46.333984 0)"/>
      <use xlink:href="#DejaVuSans-61" transform="translate(87.447266 0)"/>
      <use xlink:href="#DejaVuSans-69" transform="translate(148.726562 0)"/>
      <use xlink:href="#DejaVuSans-6e" transform="translate(176.509766 0)"/>
      <use xlink:href="#DejaVuSans-69" transform="translate(239.888672 0)"/>
      <use xlink:href="#DejaVuSans-6e" transform="translate(267.671875 0)"/>
      <use xlink:href="#DejaVuSans-67" transform="translate(331.050781 0)"/>
      <use xlink:href="#DejaVuSans-2d" transform="translate(394.527344 0)"/>
      <use xlink:href="#DejaVuSans-53" transform="translate(430.611328 0)"/>
      <use xlink:href="#DejaVuSans-6f" transform="translate(494.087891 0)"/>
      <use xlink:href="#DejaVuSans-75" transform="translate(555.269531 0)"/>
      <use xlink:href="#DejaVuSans-72" transform="translate(618.648438 0)"/>
      <use xlink:href="#DejaVuSans-63" transform="translate(657.511719 0)"/>
      <use xlink:href="#DejaVuSans-65" transform="translate(712.492188 0)"/>
     </g>
    </g>
    <g id="line2d_19">
     <path d="M 523.439062 70.976562 
L 533.439062 70.976562 
L 543.439062 70.976562 
" style="fill: none; stroke: #ff7f0e; stroke-width: 1.5; stroke-linecap: square"/>
    </g>
    <g id="text_18">
     <!-- Training-Target -->
     <g transform="translate(551.439062 74.476562) scale(0.1 -0.1)">
      <use xlink:href="#DejaVuSans-54"/>
      <use xlink:href="#DejaVuSans-72" transform="translate(46.333984 0)"/>
      <use xlink:href="#DejaVuSans-61" transform="translate(87.447266 0)"/>
      <use xlink:href="#DejaVuSans-69" transform="translate(148.726562 0)"/>
      <use xlink:href="#DejaVuSans-6e" transform="translate(176.509766 0)"/>
      <use xlink:href="#DejaVuSans-69" transform="translate(239.888672 0)"/>
      <use xlink:href="#DejaVuSans-6e" transform="translate(267.671875 0)"/>
      <use xlink:href="#DejaVuSans-67" transform="translate(331.050781 0)"/>
      <use xlink:href="#DejaVuSans-2d" transform="translate(394.527344 0)"/>
      <use xlink:href="#DejaVuSans-54" transform="translate(421.486328 0)"/>
      <use xlink:href="#DejaVuSans-61" transform="translate(466.070312 0)"/>
      <use xlink:href="#DejaVuSans-72" transform="translate(527.349609 0)"/>
      <use xlink:href="#DejaVuSans-67" transform="translate(566.712891 0)"/>
      <use xlink:href="#DejaVuSans-65" transform="translate(630.189453 0)"/>
      <use xlink:href="#DejaVuSans-74" transform="translate(691.712891 0)"/>
     </g>
    </g>
    <g id="line2d_20">
     <path d="M 523.439062 85.654687 
L 533.439062 85.654687 
L 543.439062 85.654687 
" style="fill: none; stroke: #2ca02c; stroke-width: 1.5; stroke-linecap: square"/>
    </g>
    <g id="text_19">
     <!-- Validating-Source -->
     <g transform="translate(551.439062 89.154687) scale(0.1 -0.1)">
      <use xlink:href="#DejaVuSans-56"/>
      <use xlink:href="#DejaVuSans-61" transform="translate(60.658203 0)"/>
      <use xlink:href="#DejaVuSans-6c" transform="translate(121.9375 0)"/>
      <use xlink:href="#DejaVuSans-69" transform="translate(149.720703 0)"/>
      <use xlink:href="#DejaVuSans-64" transform="translate(177.503906 0)"/>
      <use xlink:href="#DejaVuSans-61" transform="translate(240.980469 0)"/>
      <use xlink:href="#DejaVuSans-74" transform="translate(302.259766 0)"/>
      <use xlink:href="#DejaVuSans-69" transform="translate(341.46875 0)"/>
      <use xlink:href="#DejaVuSans-6e" transform="translate(369.251953 0)"/>
      <use xlink:href="#DejaVuSans-67" transform="translate(432.630859 0)"/>
      <use xlink:href="#DejaVuSans-2d" transform="translate(496.107422 0)"/>
      <use xlink:href="#DejaVuSans-53" transform="translate(532.191406 0)"/>
      <use xlink:href="#DejaVuSans-6f" transform="translate(595.667969 0)"/>
      <use xlink:href="#DejaVuSans-75" transform="translate(656.849609 0)"/>
      <use xlink:href="#DejaVuSans-72" transform="translate(720.228516 0)"/>
      <use xlink:href="#DejaVuSans-63" transform="translate(759.091797 0)"/>
      <use xlink:href="#DejaVuSans-65" transform="translate(814.072266 0)"/>
     </g>
    </g>
    <g id="line2d_21">
     <path d="M 523.439062 100.332812 
L 533.439062 100.332812 
L 543.439062 100.332812 
" style="fill: none; stroke: #d62728; stroke-width: 1.5; stroke-linecap: square"/>
    </g>
    <g id="text_20">
     <!-- Validating-Target -->
     <g transform="translate(551.439062 103.832812) scale(0.1 -0.1)">
      <use xlink:href="#DejaVuSans-56"/>
      <use xlink:href="#DejaVuSans-61" transform="translate(60.658203 0)"/>
      <use xlink:href="#DejaVuSans-6c" transform="translate(121.9375 0)"/>
      <use xlink:href="#DejaVuSans-69" transform="translate(149.720703 0)"/>
      <use xlink:href="#DejaVuSans-64" transform="translate(177.503906 0)"/>
      <use xlink:href="#DejaVuSans-61" transform="translate(240.980469 0)"/>
      <use xlink:href="#DejaVuSans-74" transform="translate(302.259766 0)"/>
      <use xlink:href="#DejaVuSans-69" transform="translate(341.46875 0)"/>
      <use xlink:href="#DejaVuSans-6e" transform="translate(369.251953 0)"/>
      <use xlink:href="#DejaVuSans-67" transform="translate(432.630859 0)"/>
      <use xlink:href="#DejaVuSans-2d" transform="translate(496.107422 0)"/>
      <use xlink:href="#DejaVuSans-54" transform="translate(523.066406 0)"/>
      <use xlink:href="#DejaVuSans-61" transform="translate(567.650391 0)"/>
      <use xlink:href="#DejaVuSans-72" transform="translate(628.929688 0)"/>
      <use xlink:href="#DejaVuSans-67" transform="translate(668.292969 0)"/>
      <use xlink:href="#DejaVuSans-65" transform="translate(731.769531 0)"/>
      <use xlink:href="#DejaVuSans-74" transform="translate(793.292969 0)"/>
     </g>
    </g>
   </g>
  </g>
 </g>
 <defs>
  <clipPath id="p51636ca4ac">
   <rect x="90" y="43.2" width="558" height="277.2"/>
  </clipPath>
 </defs>
</svg>
