<?xml version="1.0" encoding="utf-8" standalone="no"?>
<!DOCTYPE svg PUBLIC "-//W3C//DTD SVG 1.1//EN"
  "http://www.w3.org/Graphics/SVG/1.1/DTD/svg11.dtd">
<svg xmlns:xlink="http://www.w3.org/1999/xlink" width="720pt" height="360pt" viewBox="0 0 720 360" xmlns="http://www.w3.org/2000/svg" version="1.1">
 <metadata>
  <rdf:RDF xmlns:dc="http://purl.org/dc/elements/1.1/" xmlns:cc="http://creativecommons.org/ns#" xmlns:rdf="http://www.w3.org/1999/02/22-rdf-syntax-ns#">
   <cc:Work>
    <dc:type rdf:resource="http://purl.org/dc/dcmitype/StillImage"/>
    <dc:date>2025-11-18T00:38:36.327475</dc:date>
    <dc:format>image/svg+xml</dc:format>
    <dc:creator>
     <cc:Agent>
      <dc:title>Matplotlib v3.10.1, https://matplotlib.org/</dc:title>
     </cc:Agent>
    </dc:creator>
   </cc:Work>
  </rdf:RDF>
 </metadata>
 <defs>
  <style type="text/css">*{stroke-linejoin: round; stroke-linecap: butt}</style>
 </defs>
 <g id="figure_1">
  <g id="patch_1">
   <path d="M 0 360 
L 720 360 
L 720 0 
L 0 0 
z
" style="fill: #ffffff"/>
  </g>
  <g id="axes_1">
   <g id="patch_2">
    <path d="M 90 320.4 
L 648 320.4 
L 648 43.2 
L 90 43.2 
z
" style="fill: #ffffff"/>
   </g>
   <g id="matplotlib.axis_1">
    <g id="xtick_1">
     <g id="line2d_1">
      <defs>
       <path id="m79919ee834" d="M 0 0 
L 0 3.5 
" style="stroke: #000000; stroke-width: 0.8"/>
      </defs>
      <g>
       <use xlink:href="#m79919ee834" x="115.363636" y="320.4" style="stroke: #000000; stroke-width: 0.8"/>
      </g>
     </g>
     <g id="text_1">
      <!-- 0 -->
      <g transform="translate(112.182386 334.998438) scale(0.1 -0.1)">
       <defs>
        <path id="DejaVuSans-30" d="M 2034 4250 
Q 1547 4250 1301 3770 
Q 1056 3291 1056 2328 
Q 1056 1369 1301 889 
Q 1547 409 2034 409 
Q 2525 409 2770 889 
Q 3016 1369 3016 2328 
Q 3016 3291 2770 3770 
Q 2525 4250 2034 4250 
z
M 2034 4750 
Q 2819 4750 3233 4129 
Q 3647 3509 3647 2328 
Q 3647 1150 3233 529 
Q 2819 -91 2034 -91 
Q 1250 -91 836 529 
Q 422 1150 422 2328 
Q 422 3509 836 4129 
Q 1250 4750 2034 4750 
z
" transform="scale(0.015625)"/>
       </defs>
       <use xlink:href="#DejaVuSans-30"/>
      </g>
     </g>
    </g>
    <g id="xtick_2">
     <g id="line2d_2">
      <g>
       <use xlink:href="#m79919ee834" x="217.157495" y="320.4" style="stroke: #000000; stroke-width: 0.8"/>
      </g>
     </g>
     <g id="text_2">
      <!-- 60 -->
      <g transform="translate(210.794995 334.998438) scale(0.1 -0.1)">
       <defs>
        <path id="DejaVuSans-36" d="M 2113 2584 
Q 1688 2584 1439 2293 
Q 1191 2003 1191 1497 
Q 1191 994 1439 701 
Q 1688 409 2113 409 
Q 2538 409 2786 701 
Q 3034 994 3034 1497 
Q 3034 2003 2786 2293 
Q 2538 2584 2113 2584 
z
M 3366 4563 
L 3366 3988 
Q 3128 4100 2886 4159 
Q 2644 4219 2406 4219 
Q 1781 4219 1451 3797 
Q 1122 3375 1075 2522 
Q 1259 2794 1537 2939 
Q 1816 3084 2150 3084 
Q 2853 3084 3261 2657 
Q 3669 2231 3669 1497 
Q 3669 778 3244 343 
Q 2819 -91 2113 -91 
Q 1303 -91 875 529 
Q 447 1150 447 2328 
Q 447 3434 972 4092 
Q 1497 4750 2381 4750 
Q 2619 4750 2861 4703 
Q 3103 4656 3366 4563 
z
" transform="scale(0.015625)"/>
       </defs>
       <use xlink:href="#DejaVuSans-36"/>
       <use xlink:href="#DejaVuSans-30" transform="translate(63.623047 0)"/>
      </g>
     </g>
    </g>
    <g id="xtick_3">
     <g id="line2d_3">
      <g>
       <use xlink:href="#m79919ee834" x="318.951353" y="320.4" style="stroke: #000000; stroke-width: 0.8"/>
      </g>
     </g>
     <g id="text_3">
      <!-- 120 -->
      <g transform="translate(309.407603 334.998438) scale(0.1 -0.1)">
       <defs>
        <path id="DejaVuSans-31" d="M 794 531 
L 1825 531 
L 1825 4091 
L 703 3866 
L 703 4441 
L 1819 4666 
L 2450 4666 
L 2450 531 
L 3481 531 
L 3481 0 
L 794 0 
L 794 531 
z
" transform="scale(0.015625)"/>
        <path id="DejaVuSans-32" d="M 1228 531 
L 3431 531 
L 3431 0 
L 469 0 
L 469 531 
Q 828 903 1448 1529 
Q 2069 2156 2228 2338 
Q 2531 2678 2651 2914 
Q 2772 3150 2772 3378 
Q 2772 3750 2511 3984 
Q 2250 4219 1831 4219 
Q 1534 4219 1204 4116 
Q 875 4013 500 3803 
L 500 4441 
Q 881 4594 1212 4672 
Q 1544 4750 1819 4750 
Q 2544 4750 2975 4387 
Q 3406 4025 3406 3419 
Q 3406 3131 3298 2873 
Q 3191 2616 2906 2266 
Q 2828 2175 2409 1742 
Q 1991 1309 1228 531 
z
" transform="scale(0.015625)"/>
       </defs>
       <use xlink:href="#DejaVuSans-31"/>
       <use xlink:href="#DejaVuSans-32" transform="translate(63.623047 0)"/>
       <use xlink:href="#DejaVuSans-30" transform="translate(127.246094 0)"/>
      </g>
     </g>
    </g>
    <g id="xtick_4">
     <g id="line2d_4">
      <g>
       <use xlink:href="#m79919ee834" x="420.745211" y="320.4" style="stroke: #000000; stroke-width: 0.8"/>
      </g>
     </g>
     <g id="text_4">
      <!-- 180 -->
      <g transform="translate(411.201461 334.998438) scale(0.1 -0.1)">
       <defs>
        <path id="DejaVuSans-38" d="M 2034 2216 
Q 1584 2216 1326 1975 
Q 1069 1734 1069 1313 
Q 1069 891 1326 650 
Q 1584 409 2034 409 
Q 2484 409 2743 651 
Q 3003 894 3003 1313 
Q 3003 1734 2745 1975 
Q 2488 2216 2034 2216 
z
M 1403 2484 
Q 997 2584 770 2862 
Q 544 3141 544 3541 
Q 544 4100 942 4425 
Q 1341 4750 2034 4750 
Q 2731 4750 3128 4425 
Q 3525 4100 3525 3541 
Q 3525 3141 3298 2862 
Q 3072 2584 2669 2484 
Q 3125 2378 3379 2068 
Q 3634 1759 3634 1313 
Q 3634 634 3220 271 
Q 2806 -91 2034 -91 
Q 1263 -91 848 271 
Q 434 634 434 1313 
Q 434 1759 690 2068 
Q 947 2378 1403 2484 
z
M 1172 3481 
Q 1172 3119 1398 2916 
Q 1625 2713 2034 2713 
Q 2441 2713 2670 2916 
Q 2900 3119 2900 3481 
Q 2900 3844 2670 4047 
Q 2441 4250 2034 4250 
Q 1625 4250 1398 4047 
Q 1172 3844 1172 3481 
z
" transform="scale(0.015625)"/>
       </defs>
       <use xlink:href="#DejaVuSans-31"/>
       <use xlink:href="#DejaVuSans-38" transform="translate(63.623047 0)"/>
       <use xlink:href="#DejaVuSans-30" transform="translate(127.246094 0)"/>
      </g>
     </g>
    </g>
    <g id="xtick_5">
     <g id="line2d_5">
      <g>
       <use xlink:href="#m79919ee834" x="522.53907" y="320.4" style="stroke: #000000; stroke-width: 0.8"/>
      </g>
     </g>
     <g id="text_5">
      <!-- 240 -->
      <g transform="translate(512.99532 334.998438) scale(0.1 -0.1)">
       <defs>
        <path id="DejaVuSans-34" d="M 2419 4116 
L 825 1625 
L 2419 1625 
L 2419 4116 
z
M 2253 4666 
L 3047 4666 
L 3047 1625 
L 3713 1625 
L 3713 1100 
L 3047 1100 
L 3047 0 
L 2419 0 
L 2419 1100 
L 313 1100 
L 313 1709 
L 2253 4666 
z
" transform="scale(0.015625)"/>
       </defs>
       <use xlink:href="#DejaVuSans-32"/>
       <use xlink:href="#DejaVuSans-34" transform="translate(63.623047 0)"/>
       <use xlink:href="#DejaVuSans-30" transform="translate(127.246094 0)"/>
      </g>
     </g>
    </g>
    <g id="text_6">
     <!-- Epoch -->
     <g transform="translate(353.689062 348.676562) scale(0.1 -0.1)">
      <defs>
       <path id="DejaVuSans-45" d="M 628 4666 
L 3578 4666 
L 3578 4134 
L 1259 4134 
L 1259 2753 
L 3481 2753 
L 3481 2222 
L 1259 2222 
L 1259 531 
L 3634 531 
L 3634 0 
L 628 0 
L 628 4666 
z
" transform="scale(0.015625)"/>
       <path id="DejaVuSans-70" d="M 1159 525 
L 1159 -1331 
L 581 -1331 
L 581 3500 
L 1159 3500 
L 1159 2969 
Q 1341 3281 1617 3432 
Q 1894 3584 2278 3584 
Q 2916 3584 3314 3078 
Q 3713 2572 3713 1747 
Q 3713 922 3314 415 
Q 2916 -91 2278 -91 
Q 1894 -91 1617 61 
Q 1341 213 1159 525 
z
M 3116 1747 
Q 3116 2381 2855 2742 
Q 2594 3103 2138 3103 
Q 1681 3103 1420 2742 
Q 1159 2381 1159 1747 
Q 1159 1113 1420 752 
Q 1681 391 2138 391 
Q 2594 391 2855 752 
Q 3116 1113 3116 1747 
z
" transform="scale(0.015625)"/>
       <path id="DejaVuSans-6f" d="M 1959 3097 
Q 1497 3097 1228 2736 
Q 959 2375 959 1747 
Q 959 1119 1226 758 
Q 1494 397 1959 397 
Q 2419 397 2687 759 
Q 2956 1122 2956 1747 
Q 2956 2369 2687 2733 
Q 2419 3097 1959 3097 
z
M 1959 3584 
Q 2709 3584 3137 3096 
Q 3566 2609 3566 1747 
Q 3566 888 3137 398 
Q 2709 -91 1959 -91 
Q 1206 -91 779 398 
Q 353 888 353 1747 
Q 353 2609 779 3096 
Q 1206 3584 1959 3584 
z
" transform="scale(0.015625)"/>
       <path id="DejaVuSans-63" d="M 3122 3366 
L 3122 2828 
Q 2878 2963 2633 3030 
Q 2388 3097 2138 3097 
Q 1578 3097 1268 2742 
Q 959 2388 959 1747 
Q 959 1106 1268 751 
Q 1578 397 2138 397 
Q 2388 397 2633 464 
Q 2878 531 3122 666 
L 3122 134 
Q 2881 22 2623 -34 
Q 2366 -91 2075 -91 
Q 1284 -91 818 406 
Q 353 903 353 1747 
Q 353 2603 823 3093 
Q 1294 3584 2113 3584 
Q 2378 3584 2631 3529 
Q 2884 3475 3122 3366 
z
" transform="scale(0.015625)"/>
       <path id="DejaVuSans-68" d="M 3513 2113 
L 3513 0 
L 2938 0 
L 2938 2094 
Q 2938 2591 2744 2837 
Q 2550 3084 2163 3084 
Q 1697 3084 1428 2787 
Q 1159 2491 1159 1978 
L 1159 0 
L 581 0 
L 581 4863 
L 1159 4863 
L 1159 2956 
Q 1366 3272 1645 3428 
Q 1925 3584 2291 3584 
Q 2894 3584 3203 3211 
Q 3513 2838 3513 2113 
z
" transform="scale(0.015625)"/>
      </defs>
      <use xlink:href="#DejaVuSans-45"/>
      <use xlink:href="#DejaVuSans-70" transform="translate(63.183594 0)"/>
      <use xlink:href="#DejaVuSans-6f" transform="translate(126.660156 0)"/>
      <use xlink:href="#DejaVuSans-63" transform="translate(187.841797 0)"/>
      <use xlink:href="#DejaVuSans-68" transform="translate(242.822266 0)"/>
     </g>
    </g>
   </g>
   <g id="matplotlib.axis_2">
    <g id="ytick_1">
     <g id="line2d_6">
      <defs>
       <path id="m415f34a97d" d="M 0 0 
L -3.5 0 
" style="stroke: #000000; stroke-width: 0.8"/>
      </defs>
      <g>
       <use xlink:href="#m415f34a97d" x="90" y="309.622191" style="stroke: #000000; stroke-width: 0.8"/>
      </g>
     </g>
     <g id="text_7">
      <!-- 0.00 -->
      <g transform="translate(60.734375 313.42141) scale(0.1 -0.1)">
       <defs>
        <path id="DejaVuSans-2e" d="M 684 794 
L 1344 794 
L 1344 0 
L 684 0 
L 684 794 
z
" transform="scale(0.015625)"/>
       </defs>
       <use xlink:href="#DejaVuSans-30"/>
       <use xlink:href="#DejaVuSans-2e" transform="translate(63.623047 0)"/>
       <use xlink:href="#DejaVuSans-30" transform="translate(95.410156 0)"/>
       <use xlink:href="#DejaVuSans-30" transform="translate(159.033203 0)"/>
      </g>
     </g>
    </g>
    <g id="ytick_2">
     <g id="line2d_7">
      <g>
       <use xlink:href="#m415f34a97d" x="90" y="249.855395" style="stroke: #000000; stroke-width: 0.8"/>
      </g>
     </g>
     <g id="text_8">
      <!-- 0.02 -->
      <g transform="translate(60.734375 253.654614) scale(0.1 -0.1)">
       <use xlink:href="#DejaVuSans-30"/>
       <use xlink:href="#DejaVuSans-2e" transform="translate(63.623047 0)"/>
       <use xlink:href="#DejaVuSans-30" transform="translate(95.410156 0)"/>
       <use xlink:href="#DejaVuSans-32" transform="translate(159.033203 0)"/>
      </g>
     </g>
    </g>
    <g id="ytick_3">
     <g id="line2d_8">
      <g>
       <use xlink:href="#m415f34a97d" x="90" y="190.0886" style="stroke: #000000; stroke-width: 0.8"/>
      </g>
     </g>
     <g id="text_9">
      <!-- 0.04 -->
      <g transform="translate(60.734375 193.887819) scale(0.1 -0.1)">
       <use xlink:href="#DejaVuSans-30"/>
       <use xlink:href="#DejaVuSans-2e" transform="translate(63.623047 0)"/>
       <use xlink:href="#DejaVuSans-30" transform="translate(95.410156 0)"/>
       <use xlink:href="#DejaVuSans-34" transform="translate(159.033203 0)"/>
      </g>
     </g>
    </g>
    <g id="ytick_4">
     <g id="line2d_9">
      <g>
       <use xlink:href="#m415f34a97d" x="90" y="130.321804" style="stroke: #000000; stroke-width: 0.8"/>
      </g>
     </g>
     <g id="text_10">
      <!-- 0.06 -->
      <g transform="translate(60.734375 134.121023) scale(0.1 -0.1)">
       <use xlink:href="#DejaVuSans-30"/>
       <use xlink:href="#DejaVuSans-2e" transform="translate(63.623047 0)"/>
       <use xlink:href="#DejaVuSans-30" transform="translate(95.410156 0)"/>
       <use xlink:href="#DejaVuSans-36" transform="translate(159.033203 0)"/>
      </g>
     </g>
    </g>
    <g id="ytick_5">
     <g id="line2d_10">
      <g>
       <use xlink:href="#m415f34a97d" x="90" y="70.555009" style="stroke: #000000; stroke-width: 0.8"/>
      </g>
     </g>
     <g id="text_11">
      <!-- 0.08 -->
      <g transform="translate(60.734375 74.354228) scale(0.1 -0.1)">
       <use xlink:href="#DejaVuSans-30"/>
       <use xlink:href="#DejaVuSans-2e" transform="translate(63.623047 0)"/>
       <use xlink:href="#DejaVuSans-30" transform="translate(95.410156 0)"/>
       <use xlink:href="#DejaVuSans-38" transform="translate(159.033203 0)"/>
      </g>
     </g>
    </g>
    <g id="text_12">
     <!-- Estimation Loss -->
     <g transform="translate(54.654687 220.98125) rotate(-90) scale(0.1 -0.1)">
      <defs>
       <path id="DejaVuSans-73" d="M 2834 3397 
L 2834 2853 
Q 2591 2978 2328 3040 
Q 2066 3103 1784 3103 
Q 1356 3103 1142 2972 
Q 928 2841 928 2578 
Q 928 2378 1081 2264 
Q 1234 2150 1697 2047 
L 1894 2003 
Q 2506 1872 2764 1633 
Q 3022 1394 3022 966 
Q 3022 478 2636 193 
Q 2250 -91 1575 -91 
Q 1294 -91 989 -36 
Q 684 19 347 128 
L 347 722 
Q 666 556 975 473 
Q 1284 391 1588 391 
Q 1994 391 2212 530 
Q 2431 669 2431 922 
Q 2431 1156 2273 1281 
Q 2116 1406 1581 1522 
L 1381 1569 
Q 847 1681 609 1914 
Q 372 2147 372 2553 
Q 372 3047 722 3315 
Q 1072 3584 1716 3584 
Q 2034 3584 2315 3537 
Q 2597 3491 2834 3397 
z
" transform="scale(0.015625)"/>
       <path id="DejaVuSans-74" d="M 1172 4494 
L 1172 3500 
L 2356 3500 
L 2356 3053 
L 1172 3053 
L 1172 1153 
Q 1172 725 1289 603 
Q 1406 481 1766 481 
L 2356 481 
L 2356 0 
L 1766 0 
Q 1100 0 847 248 
Q 594 497 594 1153 
L 594 3053 
L 172 3053 
L 172 3500 
L 594 3500 
L 594 4494 
L 1172 4494 
z
" transform="scale(0.015625)"/>
       <path id="DejaVuSans-69" d="M 603 3500 
L 1178 3500 
L 1178 0 
L 603 0 
L 603 3500 
z
M 603 4863 
L 1178 4863 
L 1178 4134 
L 603 4134 
L 603 4863 
z
" transform="scale(0.015625)"/>
       <path id="DejaVuSans-6d" d="M 3328 2828 
Q 3544 3216 3844 3400 
Q 4144 3584 4550 3584 
Q 5097 3584 5394 3201 
Q 5691 2819 5691 2113 
L 5691 0 
L 5113 0 
L 5113 2094 
Q 5113 2597 4934 2840 
Q 4756 3084 4391 3084 
Q 3944 3084 3684 2787 
Q 3425 2491 3425 1978 
L 3425 0 
L 2847 0 
L 2847 2094 
Q 2847 2600 2669 2842 
Q 2491 3084 2119 3084 
Q 1678 3084 1418 2786 
Q 1159 2488 1159 1978 
L 1159 0 
L 581 0 
L 581 3500 
L 1159 3500 
L 1159 2956 
Q 1356 3278 1631 3431 
Q 1906 3584 2284 3584 
Q 2666 3584 2933 3390 
Q 3200 3197 3328 2828 
z
" transform="scale(0.015625)"/>
       <path id="DejaVuSans-61" d="M 2194 1759 
Q 1497 1759 1228 1600 
Q 959 1441 959 1056 
Q 959 750 1161 570 
Q 1363 391 1709 391 
Q 2188 391 2477 730 
Q 2766 1069 2766 1631 
L 2766 1759 
L 2194 1759 
z
M 3341 1997 
L 3341 0 
L 2766 0 
L 2766 531 
Q 2569 213 2275 61 
Q 1981 -91 1556 -91 
Q 1019 -91 701 211 
Q 384 513 384 1019 
Q 384 1609 779 1909 
Q 1175 2209 1959 2209 
L 2766 2209 
L 2766 2266 
Q 2766 2663 2505 2880 
Q 2244 3097 1772 3097 
Q 1472 3097 1187 3025 
Q 903 2953 641 2809 
L 641 3341 
Q 956 3463 1253 3523 
Q 1550 3584 1831 3584 
Q 2591 3584 2966 3190 
Q 3341 2797 3341 1997 
z
" transform="scale(0.015625)"/>
       <path id="DejaVuSans-6e" d="M 3513 2113 
L 3513 0 
L 2938 0 
L 2938 2094 
Q 2938 2591 2744 2837 
Q 2550 3084 2163 3084 
Q 1697 3084 1428 2787 
Q 1159 2491 1159 1978 
L 1159 0 
L 581 0 
L 581 3500 
L 1159 3500 
L 1159 2956 
Q 1366 3272 1645 3428 
Q 1925 3584 2291 3584 
Q 2894 3584 3203 3211 
Q 3513 2838 3513 2113 
z
" transform="scale(0.015625)"/>
       <path id="DejaVuSans-20" transform="scale(0.015625)"/>
       <path id="DejaVuSans-4c" d="M 628 4666 
L 1259 4666 
L 1259 531 
L 3531 531 
L 3531 0 
L 628 0 
L 628 4666 
z
" transform="scale(0.015625)"/>
      </defs>
      <use xlink:href="#DejaVuSans-45"/>
      <use xlink:href="#DejaVuSans-73" transform="translate(63.183594 0)"/>
      <use xlink:href="#DejaVuSans-74" transform="translate(115.283203 0)"/>
      <use xlink:href="#DejaVuSans-69" transform="translate(154.492188 0)"/>
      <use xlink:href="#DejaVuSans-6d" transform="translate(182.275391 0)"/>
      <use xlink:href="#DejaVuSans-61" transform="translate(279.6875 0)"/>
      <use xlink:href="#DejaVuSans-74" transform="translate(340.966797 0)"/>
      <use xlink:href="#DejaVuSans-69" transform="translate(380.175781 0)"/>
      <use xlink:href="#DejaVuSans-6f" transform="translate(407.958984 0)"/>
      <use xlink:href="#DejaVuSans-6e" transform="translate(469.140625 0)"/>
      <use xlink:href="#DejaVuSans-20" transform="translate(532.519531 0)"/>
      <use xlink:href="#DejaVuSans-4c" transform="translate(564.306641 0)"/>
      <use xlink:href="#DejaVuSans-6f" transform="translate(618.269531 0)"/>
      <use xlink:href="#DejaVuSans-73" transform="translate(679.451172 0)"/>
      <use xlink:href="#DejaVuSans-73" transform="translate(731.550781 0)"/>
     </g>
    </g>
   </g>
   <g id="line2d_11">
    <path d="M 115.363636 145.020333 
L 117.060201 242.754804 
L 118.756765 266.387516 
L 120.453329 282.048249 
L 122.149894 289.773323 
L 123.846458 293.547101 
L 125.543022 295.63963 
L 127.239587 297.006242 
L 128.936151 298.028928 
L 130.632715 298.840319 
L 132.329279 299.494983 
L 135.722408 300.489059 
L 139.115537 301.256865 
L 144.20523 302.029055 
L 149.294922 302.589103 
L 157.777744 303.223214 
L 164.564001 303.631616 
L 179.83308 304.277156 
L 244.302524 305.910214 
L 256.178474 306.064265 
L 264.661295 306.21526 
L 269.750988 306.265691 
L 278.23381 306.339486 
L 283.323503 306.391311 
L 290.10976 306.453054 
L 312.165096 306.637503 
L 318.951353 306.694871 
L 346.096382 306.875836 
L 357.972332 306.905879 
L 363.062025 306.982173 
L 369.848282 306.997897 
L 374.937975 307.043355 
L 380.027668 307.047142 
L 396.993311 307.142694 
L 402.083004 307.163793 
L 413.958954 307.19929 
L 419.048647 307.226195 
L 425.834904 307.27952 
L 429.228033 307.271334 
L 444.497112 307.304626 
L 449.586804 307.326394 
L 476.731833 307.383431 
L 490.304348 307.437386 
L 532.718455 307.571983 
L 561.560049 307.639698 
L 580.222256 307.665957 
L 622.636364 307.784263 
L 622.636364 307.784263 
" clip-path="url(#p81381b388e)" style="fill: none; stroke: #1f77b4; stroke-width: 1.5; stroke-linecap: square"/>
   </g>
   <g id="line2d_12">
    <path d="M 115.363636 117.778414 
L 117.060201 195.059157 
L 118.756765 213.254552 
L 120.453329 222.090341 
L 122.149894 225.862911 
L 123.846458 227.548989 
L 125.543022 228.591257 
L 130.632715 230.8143 
L 134.025844 232.294978 
L 137.418972 233.494011 
L 147.598358 235.862003 
L 149.294922 236.252041 
L 156.08118 237.326682 
L 161.170873 238.157651 
L 164.564001 238.61553 
L 173.046823 239.805537 
L 186.619337 241.654173 
L 188.315901 241.722865 
L 190.012466 242.020946 
L 193.405594 242.329602 
L 198.495287 243.159828 
L 200.191852 243.258994 
L 201.888416 243.555671 
L 205.281545 243.935924 
L 217.157495 245.327583 
L 218.854059 245.305608 
L 229.033445 246.357924 
L 230.730009 246.285475 
L 244.302524 247.2666 
L 245.999088 247.331622 
L 247.695652 247.549881 
L 256.178474 247.806528 
L 257.875038 248.102701 
L 259.571602 248.007656 
L 261.268167 248.293865 
L 262.964731 248.168931 
L 266.35786 248.584794 
L 268.054424 248.612977 
L 271.447552 248.863983 
L 273.144117 248.694876 
L 274.840681 248.958488 
L 283.323503 249.345653 
L 286.716631 249.292533 
L 288.413196 249.588751 
L 290.10976 249.59826 
L 291.806324 249.489392 
L 295.199453 249.79437 
L 298.592581 249.734972 
L 300.289146 249.88624 
L 301.98571 249.822769 
L 303.682274 250.021533 
L 308.771967 250.149294 
L 312.165096 250.08327 
L 313.86166 250.257123 
L 315.558224 250.186213 
L 317.254789 250.324149 
L 318.951353 250.049772 
L 320.647917 250.441262 
L 322.344482 250.535294 
L 324.041046 250.32108 
L 325.73761 250.424804 
L 329.130739 250.315558 
L 330.827303 250.606822 
L 332.523867 250.512314 
L 334.220432 250.676469 
L 337.61356 250.774455 
L 339.310125 250.615537 
L 344.399818 250.863368 
L 347.792946 250.829127 
L 351.186075 251.064452 
L 352.882639 250.923484 
L 354.579203 251.030109 
L 356.275768 250.834164 
L 357.972332 251.284805 
L 366.455154 251.235285 
L 369.848282 251.450378 
L 371.544846 251.347703 
L 376.634539 251.629043 
L 378.331104 251.384177 
L 380.027668 251.646023 
L 385.117361 251.506274 
L 386.813925 251.656374 
L 388.51049 251.669618 
L 390.207054 251.880749 
L 391.903618 251.604071 
L 395.296747 251.635253 
L 398.689875 251.915503 
L 400.38644 251.977672 
L 402.083004 251.851735 
L 403.779568 252.059155 
L 407.172697 251.975345 
L 408.869261 252.133099 
L 410.565825 252.007123 
L 413.958954 252.148095 
L 415.655518 252.03203 
L 425.834904 252.322475 
L 430.924597 252.413437 
L 432.621161 252.27539 
L 434.317726 252.485508 
L 436.01429 252.448217 
L 437.710854 252.25085 
L 439.407419 252.282528 
L 441.103983 252.440081 
L 456.373062 252.461196 
L 458.069626 252.502808 
L 459.76619 252.394023 
L 461.462755 252.525538 
L 463.159319 252.415751 
L 468.249012 252.528183 
L 469.945576 252.624446 
L 473.338705 252.434568 
L 476.731833 252.616529 
L 480.124962 252.459637 
L 481.821526 252.765357 
L 483.518091 252.603458 
L 486.911219 252.838306 
L 497.090605 252.608666 
L 498.787169 252.705637 
L 503.876862 252.634923 
L 505.573427 252.817442 
L 507.269991 252.697706 
L 508.966555 252.782995 
L 510.663119 252.63481 
L 512.359684 252.785342 
L 514.056248 252.723135 
L 517.449377 252.917044 
L 524.235634 252.823714 
L 529.325327 253.047106 
L 531.021891 252.780066 
L 532.718455 252.90718 
L 534.41502 252.816967 
L 536.111584 253.00418 
L 537.808148 252.812326 
L 539.504713 252.970724 
L 541.201277 252.864439 
L 542.897841 252.95124 
L 544.594406 252.883415 
L 547.987534 253.05956 
L 553.077227 253.014336 
L 563.256613 252.834852 
L 564.953177 253.06358 
L 566.649742 252.817518 
L 570.04287 253.095237 
L 571.739434 253.145518 
L 573.435999 253.035449 
L 575.132563 253.052762 
L 576.829127 252.904328 
L 578.525692 253.160192 
L 581.91882 253.048999 
L 583.615385 253.342729 
L 585.311949 253.367492 
L 587.008513 253.193557 
L 590.401642 253.236326 
L 592.098206 253.130896 
L 595.491335 253.308903 
L 597.187899 253.116565 
L 598.884463 253.191331 
L 600.581028 253.419409 
L 602.277592 253.327042 
L 605.670721 253.396112 
L 607.367285 253.265748 
L 610.760413 253.450987 
L 614.153542 253.312352 
L 615.850106 253.328809 
L 617.546671 253.500405 
L 620.939799 253.426895 
L 622.636364 253.439302 
L 622.636364 253.439302 
" clip-path="url(#p81381b388e)" style="fill: none; stroke: #ff7f0e; stroke-width: 1.5; stroke-linecap: square"/>
   </g>
   <g id="line2d_13">
    <path d="M 115.363636 168.234453 
L 117.060201 218.921909 
L 118.756765 255.190998 
L 120.453329 274.128824 
L 122.149894 282.670771 
L 123.846458 286.796689 
L 127.239587 290.878241 
L 130.632715 293.309656 
L 134.025844 295.074907 
L 135.722408 295.433084 
L 137.418972 296.280632 
L 139.115537 296.84234 
L 140.812101 297.171728 
L 142.508665 297.684126 
L 144.20523 298.04405 
L 147.598358 298.368539 
L 149.294922 298.592914 
L 150.991487 298.973502 
L 154.384615 299.036598 
L 156.08118 299.05086 
L 157.777744 299.36558 
L 162.867437 299.861714 
L 164.564001 299.981644 
L 167.95713 300.030615 
L 171.350258 300.301259 
L 173.046823 300.345148 
L 176.439951 300.768714 
L 178.136516 300.600367 
L 179.83308 300.652388 
L 181.529644 300.924832 
L 183.226209 301.059172 
L 184.922773 300.873626 
L 186.619337 301.078254 
L 188.315901 300.939171 
L 195.102159 301.305583 
L 196.798723 301.48444 
L 198.495287 301.339851 
L 201.888416 301.256189 
L 203.58498 301.441597 
L 205.281545 301.17734 
L 206.978109 301.49483 
L 208.674673 301.311484 
L 210.371237 301.379445 
L 212.067802 301.922699 
L 213.764366 301.673295 
L 217.157495 302.016458 
L 218.854059 301.688365 
L 222.247188 302.282709 
L 223.943752 302.023291 
L 225.640316 302.54247 
L 227.336881 302.273979 
L 229.033445 301.773437 
L 230.730009 302.292116 
L 232.426573 302.55201 
L 237.516266 302.366916 
L 239.212831 302.238061 
L 240.909395 303.005096 
L 242.605959 302.544841 
L 244.302524 302.863868 
L 249.392216 302.757046 
L 251.088781 303.235618 
L 254.481909 302.699147 
L 256.178474 303.252952 
L 257.875038 303.428337 
L 259.571602 303.24069 
L 261.268167 303.322395 
L 262.964731 303.551471 
L 264.661295 303.236111 
L 268.054424 303.517135 
L 269.750988 303.390925 
L 271.447552 303.146501 
L 273.144117 303.416406 
L 278.23381 303.531806 
L 279.930374 303.462682 
L 281.626938 303.598209 
L 283.323503 303.124193 
L 290.10976 303.553883 
L 291.806324 303.437432 
L 293.502888 303.440063 
L 295.199453 303.649644 
L 298.592581 303.382949 
L 300.289146 303.661651 
L 303.682274 303.797244 
L 305.378839 303.778039 
L 307.075403 303.171179 
L 308.771967 303.84728 
L 310.468531 303.667873 
L 312.165096 303.873981 
L 315.558224 303.774724 
L 317.254789 303.902397 
L 318.951353 303.829602 
L 320.647917 303.872059 
L 322.344482 303.665545 
L 324.041046 303.59736 
L 325.73761 303.891212 
L 327.434175 303.398826 
L 329.130739 304.355468 
L 330.827303 304.2078 
L 332.523867 303.913772 
L 334.220432 303.977634 
L 335.916996 304.272328 
L 341.006689 303.885307 
L 342.703253 304.246912 
L 346.096382 304.119193 
L 347.792946 304.499563 
L 349.48951 303.936939 
L 351.186075 303.796134 
L 352.882639 304.160846 
L 354.579203 304.004995 
L 356.275768 304.020249 
L 357.972332 304.300577 
L 361.365461 304.35836 
L 363.062025 304.110583 
L 364.758589 304.101144 
L 366.455154 304.357471 
L 368.151718 304.127282 
L 369.848282 304.302252 
L 380.027668 304.557121 
L 381.724232 304.293605 
L 383.420797 304.39784 
L 385.117361 303.923931 
L 386.813925 304.020552 
L 390.207054 304.488666 
L 391.903618 304.358317 
L 393.600182 304.390965 
L 395.296747 304.271194 
L 396.993311 304.350077 
L 398.689875 304.607696 
L 400.38644 304.301536 
L 402.083004 304.566865 
L 403.779568 303.961642 
L 407.172697 304.536488 
L 408.869261 304.1937 
L 410.565825 304.551488 
L 412.26239 304.265864 
L 413.958954 304.446323 
L 417.352083 304.342597 
L 419.048647 304.931837 
L 420.745211 304.781376 
L 422.441776 304.291182 
L 424.13834 304.716642 
L 425.834904 303.978786 
L 427.531469 304.670833 
L 429.228033 304.783425 
L 430.924597 304.369355 
L 434.317726 304.885071 
L 437.710854 304.38523 
L 439.407419 304.646404 
L 441.103983 304.38818 
L 442.800547 303.804177 
L 444.497112 304.815607 
L 446.193676 304.506822 
L 449.586804 304.845774 
L 451.283369 304.595755 
L 454.676497 305.013749 
L 456.373062 304.731276 
L 458.069626 304.686848 
L 459.76619 304.770012 
L 461.462755 304.546201 
L 463.159319 304.838207 
L 464.855883 304.885412 
L 466.552448 304.338005 
L 469.945576 305.183536 
L 471.64214 305.085813 
L 473.338705 304.800163 
L 475.035269 304.852411 
L 476.731833 304.747094 
L 478.428398 305.027772 
L 480.124962 305.148425 
L 481.821526 304.918269 
L 483.518091 304.979864 
L 485.214655 305.188012 
L 486.911219 304.826847 
L 488.607784 305.425347 
L 492.000912 304.491166 
L 495.394041 304.977345 
L 498.787169 304.474098 
L 500.483734 305.174825 
L 502.180298 304.952314 
L 503.876862 305.011282 
L 505.573427 304.573016 
L 507.269991 305.351657 
L 508.966555 304.945998 
L 510.663119 304.988891 
L 512.359684 305.288731 
L 514.056248 305.104422 
L 515.752812 304.725841 
L 517.449377 304.858545 
L 519.145941 304.730023 
L 520.842505 305.212948 
L 522.53907 304.875131 
L 524.235634 304.851199 
L 525.932198 304.566029 
L 527.628763 305.286131 
L 529.325327 305.249934 
L 531.021891 305.364043 
L 532.718455 304.595101 
L 534.41502 305.014546 
L 536.111584 304.788588 
L 537.808148 305.34236 
L 539.504713 305.320642 
L 541.201277 305.167445 
L 544.594406 305.374133 
L 546.29097 304.959915 
L 547.987534 305.129852 
L 551.380663 304.962194 
L 553.077227 304.977493 
L 554.773791 304.580878 
L 556.470356 305.10171 
L 558.16692 304.967321 
L 559.863484 304.658113 
L 561.560049 305.193923 
L 563.256613 305.327659 
L 564.953177 304.763659 
L 566.649742 305.509816 
L 570.04287 305.318061 
L 573.435999 305.395039 
L 575.132563 305.306891 
L 576.829127 305.502646 
L 578.525692 305.46748 
L 580.222256 305.153299 
L 581.91882 305.54477 
L 587.008513 305.279651 
L 590.401642 305.323966 
L 592.098206 305.331656 
L 593.79477 304.951324 
L 595.491335 305.227992 
L 597.187899 305.000035 
L 600.581028 304.986505 
L 602.277592 305.233861 
L 603.974156 305.115678 
L 605.670721 305.505608 
L 607.367285 305.429208 
L 609.063849 305.711995 
L 610.760413 305.58689 
L 612.456978 305.309247 
L 614.153542 305.449548 
L 615.850106 305.723443 
L 617.546671 305.380918 
L 619.243235 305.271247 
L 620.939799 305.435518 
L 622.636364 305.389376 
L 622.636364 305.389376 
" clip-path="url(#p81381b388e)" style="fill: none; stroke: #2ca02c; stroke-width: 1.5; stroke-linecap: square"/>
   </g>
   <g id="line2d_14">
    <path d="M 115.363636 55.8 
L 117.060201 113.549275 
L 118.756765 135.350713 
L 120.453329 144.723353 
L 122.149894 149.838684 
L 123.846458 151.421845 
L 125.543022 151.463441 
L 127.239587 154.697361 
L 128.936151 155.857692 
L 130.632715 158.154732 
L 132.329279 158.63039 
L 135.722408 161.527394 
L 137.418972 162.528813 
L 139.115537 163.373848 
L 140.812101 164.797932 
L 142.508665 163.870995 
L 144.20523 165.865852 
L 145.901794 166.980526 
L 147.598358 165.442284 
L 149.294922 167.105616 
L 150.991487 167.516443 
L 152.688051 167.527274 
L 154.384615 166.68325 
L 156.08118 168.53822 
L 157.777744 169.45991 
L 162.867437 169.858114 
L 164.564001 170.14935 
L 166.260566 170.177651 
L 167.95713 170.016535 
L 169.653694 171.030861 
L 171.350258 172.577541 
L 173.046823 173.20838 
L 174.743387 172.158161 
L 176.439951 173.458408 
L 178.136516 173.376455 
L 179.83308 174.872213 
L 181.529644 174.477987 
L 183.226209 172.746613 
L 184.922773 174.627331 
L 186.619337 175.395676 
L 188.315901 173.680715 
L 190.012466 176.220253 
L 191.70903 176.343954 
L 193.405594 175.341313 
L 195.102159 176.910711 
L 196.798723 176.604892 
L 198.495287 175.351729 
L 201.888416 177.489604 
L 203.58498 175.859323 
L 205.281545 177.440347 
L 206.978109 176.703955 
L 208.674673 177.418104 
L 210.371237 177.8852 
L 212.067802 178.095265 
L 215.46093 179.194574 
L 217.157495 179.279079 
L 218.854059 178.490907 
L 220.550623 178.678521 
L 222.247188 180.051984 
L 223.943752 180.230147 
L 225.640316 179.510432 
L 227.336881 179.527912 
L 229.033445 177.509293 
L 230.730009 181.437925 
L 232.426573 178.848754 
L 234.123138 180.642602 
L 235.819702 182.690668 
L 237.516266 180.343456 
L 239.212831 181.78219 
L 240.909395 180.209145 
L 242.605959 181.795429 
L 244.302524 182.559349 
L 245.999088 180.893292 
L 247.695652 182.711586 
L 249.392216 181.664542 
L 251.088781 184.544561 
L 252.785345 182.139324 
L 254.481909 181.090575 
L 256.178474 183.073335 
L 257.875038 183.157317 
L 259.571602 185.934466 
L 261.268167 183.761081 
L 262.964731 183.421476 
L 264.661295 184.723869 
L 266.35786 186.459938 
L 268.054424 186.140886 
L 269.750988 185.364722 
L 271.447552 185.261702 
L 273.144117 186.029971 
L 274.840681 188.368515 
L 276.537245 187.566838 
L 278.23381 186.490324 
L 279.930374 187.224925 
L 281.626938 187.244648 
L 283.323503 187.528598 
L 285.020067 185.670399 
L 288.413196 188.000073 
L 290.10976 185.674499 
L 291.806324 188.088277 
L 293.502888 189.274923 
L 296.896017 188.914557 
L 298.592581 187.590473 
L 300.289146 188.013695 
L 301.98571 188.552602 
L 303.682274 185.099182 
L 305.378839 187.34018 
L 307.075403 187.879203 
L 308.771967 187.437838 
L 310.468531 189.160741 
L 312.165096 188.752818 
L 313.86166 189.173893 
L 315.558224 187.971521 
L 317.254789 190.296196 
L 318.951353 189.196904 
L 320.647917 188.633172 
L 322.344482 189.082392 
L 324.041046 186.99569 
L 325.73761 189.445151 
L 327.434175 191.089439 
L 329.130739 190.988804 
L 330.827303 191.376498 
L 332.523867 190.588992 
L 335.916996 192.492544 
L 337.61356 188.60772 
L 339.310125 191.501515 
L 341.006689 192.109563 
L 342.703253 191.825048 
L 344.399818 191.910359 
L 346.096382 191.049295 
L 347.792946 191.93733 
L 349.48951 188.902629 
L 351.186075 191.498971 
L 352.882639 192.946523 
L 354.579203 190.796448 
L 356.275768 189.962776 
L 357.972332 191.501888 
L 359.668896 193.201582 
L 361.365461 193.559264 
L 363.062025 190.853957 
L 364.758589 190.933099 
L 366.455154 192.338532 
L 368.151718 193.175895 
L 369.848282 191.483985 
L 371.544846 192.447178 
L 373.241411 191.148107 
L 374.937975 193.521377 
L 376.634539 192.349503 
L 378.331104 190.544308 
L 380.027668 192.845646 
L 383.420797 191.624115 
L 386.813925 189.637462 
L 388.51049 190.222364 
L 390.207054 193.387021 
L 391.903618 191.812371 
L 393.600182 194.942167 
L 395.296747 192.419825 
L 396.993311 191.907474 
L 398.689875 188.939716 
L 400.38644 190.47732 
L 402.083004 190.974051 
L 403.779568 190.045407 
L 405.476133 191.859052 
L 407.172697 191.657729 
L 408.869261 189.893615 
L 410.565825 194.550711 
L 412.26239 196.562786 
L 413.958954 194.47071 
L 415.655518 192.028146 
L 417.352083 191.891302 
L 419.048647 192.820622 
L 420.745211 191.595209 
L 422.441776 190.112662 
L 424.13834 192.833589 
L 425.834904 191.556004 
L 427.531469 195.674703 
L 429.228033 190.965006 
L 430.924597 189.375816 
L 432.621161 190.475885 
L 434.317726 192.585382 
L 436.01429 193.623432 
L 437.710854 190.973537 
L 439.407419 191.036431 
L 441.103983 191.600575 
L 442.800547 190.022532 
L 444.497112 193.538182 
L 446.193676 192.437889 
L 447.89024 192.186274 
L 449.586804 190.921246 
L 451.283369 194.480914 
L 454.676497 190.607617 
L 456.373062 192.253305 
L 458.069626 190.675215 
L 459.76619 192.221033 
L 461.462755 191.965568 
L 463.159319 191.004411 
L 464.855883 191.177287 
L 466.552448 189.731004 
L 468.249012 192.695635 
L 471.64214 194.267457 
L 473.338705 191.540001 
L 475.035269 193.083749 
L 476.731833 193.60105 
L 478.428398 192.672141 
L 480.124962 194.818345 
L 481.821526 190.203778 
L 483.518091 192.987969 
L 485.214655 192.001446 
L 486.911219 194.208484 
L 488.607784 194.396534 
L 490.304348 192.203124 
L 492.000912 191.407394 
L 493.697476 189.592733 
L 495.394041 191.346412 
L 497.090605 191.235904 
L 498.787169 191.401376 
L 500.483734 192.519201 
L 502.180298 189.445125 
L 503.876862 193.529747 
L 505.573427 194.631464 
L 507.269991 191.30605 
L 510.663119 189.054917 
L 512.359684 191.768916 
L 514.056248 190.387925 
L 515.752812 190.444698 
L 517.449377 191.710216 
L 519.145941 190.931498 
L 520.842505 191.307546 
L 522.53907 194.552025 
L 524.235634 190.688605 
L 525.932198 193.085727 
L 527.628763 192.901904 
L 529.325327 192.121535 
L 531.021891 190.953796 
L 532.718455 193.985575 
L 534.41502 192.931713 
L 536.111584 191.746636 
L 537.808148 193.825741 
L 539.504713 194.845883 
L 541.201277 192.87489 
L 542.897841 192.215937 
L 544.594406 193.248876 
L 546.29097 191.036404 
L 547.987534 192.051814 
L 549.684099 190.251234 
L 551.380663 189.482273 
L 553.077227 191.329078 
L 554.773791 193.463239 
L 556.470356 191.615617 
L 558.16692 191.912043 
L 559.863484 189.539357 
L 563.256613 193.872077 
L 564.953177 191.651632 
L 566.649742 192.672113 
L 568.346306 192.848101 
L 570.04287 191.455791 
L 571.739434 193.996755 
L 573.435999 194.341185 
L 575.132563 192.811312 
L 576.829127 194.975091 
L 578.525692 192.558997 
L 580.222256 191.80347 
L 581.91882 195.95606 
L 583.615385 193.565334 
L 587.008513 191.898031 
L 588.705078 194.067229 
L 590.401642 193.37212 
L 592.098206 192.412829 
L 593.79477 192.337514 
L 595.491335 192.586325 
L 597.187899 193.296269 
L 598.884463 190.887903 
L 600.581028 192.540472 
L 602.277592 192.395412 
L 603.974156 193.408598 
L 605.670721 191.274829 
L 607.367285 193.980541 
L 609.063849 194.144649 
L 610.760413 191.767386 
L 612.456978 194.111477 
L 614.153542 194.720798 
L 615.850106 193.02473 
L 617.546671 192.184071 
L 619.243235 192.524844 
L 620.939799 194.330767 
L 622.636364 194.79183 
L 622.636364 194.79183 
" clip-path="url(#p81381b388e)" style="fill: none; stroke: #d62728; stroke-width: 1.5; stroke-linecap: square"/>
   </g>
   <g id="patch_3">
    <path d="M 90 320.4 
L 90 43.2 
" style="fill: none; stroke: #000000; stroke-width: 0.8; stroke-linejoin: miter; stroke-linecap: square"/>
   </g>
   <g id="patch_4">
    <path d="M 648 320.4 
L 648 43.2 
" style="fill: none; stroke: #000000; stroke-width: 0.8; stroke-linejoin: miter; stroke-linecap: square"/>
   </g>
   <g id="patch_5">
    <path d="M 90 320.4 
L 648 320.4 
" style="fill: none; stroke: #000000; stroke-width: 0.8; stroke-linejoin: miter; stroke-linecap: square"/>
   </g>
   <g id="patch_6">
    <path d="M 90 43.2 
L 648 43.2 
" style="fill: none; stroke: #000000; stroke-width: 0.8; stroke-linejoin: miter; stroke-linecap: square"/>
   </g>
   <g id="text_13">
    <!-- Training and Validating Estimation Loss -->
    <g transform="translate(251.535937 37.2) scale(0.12 -0.12)">
     <defs>
      <path id="DejaVuSans-54" d="M -19 4666 
L 3928 4666 
L 3928 4134 
L 2272 4134 
L 2272 0 
L 1638 0 
L 1638 4134 
L -19 4134 
L -19 4666 
z
" transform="scale(0.015625)"/>
      <path id="DejaVuSans-72" d="M 2631 2963 
Q 2534 3019 2420 3045 
Q 2306 3072 2169 3072 
Q 1681 3072 1420 2755 
Q 1159 2438 1159 1844 
L 1159 0 
L 581 0 
L 581 3500 
L 1159 3500 
L 1159 2956 
Q 1341 3275 1631 3429 
Q 1922 3584 2338 3584 
Q 2397 3584 2469 3576 
Q 2541 3569 2628 3553 
L 2631 2963 
z
" transform="scale(0.015625)"/>
      <path id="DejaVuSans-67" d="M 2906 1791 
Q 2906 2416 2648 2759 
Q 2391 3103 1925 3103 
Q 1463 3103 1205 2759 
Q 947 2416 947 1791 
Q 947 1169 1205 825 
Q 1463 481 1925 481 
Q 2391 481 2648 825 
Q 2906 1169 2906 1791 
z
M 3481 434 
Q 3481 -459 3084 -895 
Q 2688 -1331 1869 -1331 
Q 1566 -1331 1297 -1286 
Q 1028 -1241 775 -1147 
L 775 -588 
Q 1028 -725 1275 -790 
Q 1522 -856 1778 -856 
Q 2344 -856 2625 -561 
Q 2906 -266 2906 331 
L 2906 616 
Q 2728 306 2450 153 
Q 2172 0 1784 0 
Q 1141 0 747 490 
Q 353 981 353 1791 
Q 353 2603 747 3093 
Q 1141 3584 1784 3584 
Q 2172 3584 2450 3431 
Q 2728 3278 2906 2969 
L 2906 3500 
L 3481 3500 
L 3481 434 
z
" transform="scale(0.015625)"/>
      <path id="DejaVuSans-64" d="M 2906 2969 
L 2906 4863 
L 3481 4863 
L 3481 0 
L 2906 0 
L 2906 525 
Q 2725 213 2448 61 
Q 2172 -91 1784 -91 
Q 1150 -91 751 415 
Q 353 922 353 1747 
Q 353 2572 751 3078 
Q 1150 3584 1784 3584 
Q 2172 3584 2448 3432 
Q 2725 3281 2906 2969 
z
M 947 1747 
Q 947 1113 1208 752 
Q 1469 391 1925 391 
Q 2381 391 2643 752 
Q 2906 1113 2906 1747 
Q 2906 2381 2643 2742 
Q 2381 3103 1925 3103 
Q 1469 3103 1208 2742 
Q 947 2381 947 1747 
z
" transform="scale(0.015625)"/>
      <path id="DejaVuSans-56" d="M 1831 0 
L 50 4666 
L 709 4666 
L 2188 738 
L 3669 4666 
L 4325 4666 
L 2547 0 
L 1831 0 
z
" transform="scale(0.015625)"/>
      <path id="DejaVuSans-6c" d="M 603 4863 
L 1178 4863 
L 1178 0 
L 603 0 
L 603 4863 
z
" transform="scale(0.015625)"/>
     </defs>
     <use xlink:href="#DejaVuSans-54"/>
     <use xlink:href="#DejaVuSans-72" transform="translate(46.333984 0)"/>
     <use xlink:href="#DejaVuSans-61" transform="translate(87.447266 0)"/>
     <use xlink:href="#DejaVuSans-69" transform="translate(148.726562 0)"/>
     <use xlink:href="#DejaVuSans-6e" transform="translate(176.509766 0)"/>
     <use xlink:href="#DejaVuSans-69" transform="translate(239.888672 0)"/>
     <use xlink:href="#DejaVuSans-6e" transform="translate(267.671875 0)"/>
     <use xlink:href="#DejaVuSans-67" transform="translate(331.050781 0)"/>
     <use xlink:href="#DejaVuSans-20" transform="translate(394.527344 0)"/>
     <use xlink:href="#DejaVuSans-61" transform="translate(426.314453 0)"/>
     <use xlink:href="#DejaVuSans-6e" transform="translate(487.59375 0)"/>
     <use xlink:href="#DejaVuSans-64" transform="translate(550.972656 0)"/>
     <use xlink:href="#DejaVuSans-20" transform="translate(614.449219 0)"/>
     <use xlink:href="#DejaVuSans-56" transform="translate(646.236328 0)"/>
     <use xlink:href="#DejaVuSans-61" transform="translate(706.894531 0)"/>
     <use xlink:href="#DejaVuSans-6c" transform="translate(768.173828 0)"/>
     <use xlink:href="#DejaVuSans-69" transform="translate(795.957031 0)"/>
     <use xlink:href="#DejaVuSans-64" transform="translate(823.740234 0)"/>
     <use xlink:href="#DejaVuSans-61" transform="translate(887.216797 0)"/>
     <use xlink:href="#DejaVuSans-74" transform="translate(948.496094 0)"/>
     <use xlink:href="#DejaVuSans-69" transform="translate(987.705078 0)"/>
     <use xlink:href="#DejaVuSans-6e" transform="translate(1015.488281 0)"/>
     <use xlink:href="#DejaVuSans-67" transform="translate(1078.867188 0)"/>
     <use xlink:href="#DejaVuSans-20" transform="translate(1142.34375 0)"/>
     <use xlink:href="#DejaVuSans-45" transform="translate(1174.130859 0)"/>
     <use xlink:href="#DejaVuSans-73" transform="translate(1237.314453 0)"/>
     <use xlink:href="#DejaVuSans-74" transform="translate(1289.414062 0)"/>
     <use xlink:href="#DejaVuSans-69" transform="translate(1328.623047 0)"/>
     <use xlink:href="#DejaVuSans-6d" transform="translate(1356.40625 0)"/>
     <use xlink:href="#DejaVuSans-61" transform="translate(1453.818359 0)"/>
     <use xlink:href="#DejaVuSans-74" transform="translate(1515.097656 0)"/>
     <use xlink:href="#DejaVuSans-69" transform="translate(1554.306641 0)"/>
     <use xlink:href="#DejaVuSans-6f" transform="translate(1582.089844 0)"/>
     <use xlink:href="#DejaVuSans-6e" transform="translate(1643.271484 0)"/>
     <use xlink:href="#DejaVuSans-20" transform="translate(1706.650391 0)"/>
     <use xlink:href="#DejaVuSans-4c" transform="translate(1738.4375 0)"/>
     <use xlink:href="#DejaVuSans-6f" transform="translate(1792.400391 0)"/>
     <use xlink:href="#DejaVuSans-73" transform="translate(1853.582031 0)"/>
     <use xlink:href="#DejaVuSans-73" transform="translate(1905.681641 0)"/>
    </g>
   </g>
   <g id="legend_1">
    <g id="patch_7">
     <path d="M 521.439062 109.9125 
L 641 109.9125 
Q 643 109.9125 643 107.9125 
L 643 50.2 
Q 643 48.2 641 48.2 
L 521.439062 48.2 
Q 519.439062 48.2 519.439062 50.2 
L 519.439062 107.9125 
Q 519.439062 109.9125 521.439062 109.9125 
z
" style="fill: #ffffff; opacity: 0.8; stroke: #cccccc; stroke-linejoin: miter"/>
    </g>
    <g id="line2d_15">
     <path d="M 523.439062 56.298437 
L 533.439062 56.298437 
L 543.439062 56.298437 
" style="fill: none; stroke: #1f77b4; stroke-width: 1.5; stroke-linecap: square"/>
    </g>
    <g id="text_14">
     <!-- Training-Source -->
     <g transform="translate(551.439062 59.798437) scale(0.1 -0.1)">
      <defs>
       <path id="DejaVuSans-2d" d="M 313 2009 
L 1997 2009 
L 1997 1497 
L 313 1497 
L 313 2009 
z
" transform="scale(0.015625)"/>
       <path id="DejaVuSans-53" d="M 3425 4513 
L 3425 3897 
Q 3066 4069 2747 4153 
Q 2428 4238 2131 4238 
Q 1616 4238 1336 4038 
Q 1056 3838 1056 3469 
Q 1056 3159 1242 3001 
Q 1428 2844 1947 2747 
L 2328 2669 
Q 3034 2534 3370 2195 
Q 3706 1856 3706 1288 
Q 3706 609 3251 259 
Q 2797 -91 1919 -91 
Q 1588 -91 1214 -16 
Q 841 59 441 206 
L 441 856 
Q 825 641 1194 531 
Q 1563 422 1919 422 
Q 2459 422 2753 634 
Q 3047 847 3047 1241 
Q 3047 1584 2836 1778 
Q 2625 1972 2144 2069 
L 1759 2144 
Q 1053 2284 737 2584 
Q 422 2884 422 3419 
Q 422 4038 858 4394 
Q 1294 4750 2059 4750 
Q 2388 4750 2728 4690 
Q 3069 4631 3425 4513 
z
" transform="scale(0.015625)"/>
       <path id="DejaVuSans-75" d="M 544 1381 
L 544 3500 
L 1119 3500 
L 1119 1403 
Q 1119 906 1312 657 
Q 1506 409 1894 409 
Q 2359 409 2629 706 
Q 2900 1003 2900 1516 
L 2900 3500 
L 3475 3500 
L 3475 0 
L 2900 0 
L 2900 538 
Q 2691 219 2414 64 
Q 2138 -91 1772 -91 
Q 1169 -91 856 284 
Q 544 659 544 1381 
z
M 1991 3584 
L 1991 3584 
z
" transform="scale(0.015625)"/>
       <path id="DejaVuSans-65" d="M 3597 1894 
L 3597 1613 
L 953 1613 
Q 991 1019 1311 708 
Q 1631 397 2203 397 
Q 2534 397 2845 478 
Q 3156 559 3463 722 
L 3463 178 
Q 3153 47 2828 -22 
Q 2503 -91 2169 -91 
Q 1331 -91 842 396 
Q 353 884 353 1716 
Q 353 2575 817 3079 
Q 1281 3584 2069 3584 
Q 2775 3584 3186 3129 
Q 3597 2675 3597 1894 
z
M 3022 2063 
Q 3016 2534 2758 2815 
Q 2500 3097 2075 3097 
Q 1594 3097 1305 2825 
Q 1016 2553 972 2059 
L 3022 2063 
z
" transform="scale(0.015625)"/>
      </defs>
      <use xlink:href="#DejaVuSans-54"/>
      <use xlink:href="#DejaVuSans-72" transform="translate(46.333984 0)"/>
      <use xlink:href="#DejaVuSans-61" transform="translate(87.447266 0)"/>
      <use xlink:href="#DejaVuSans-69" transform="translate(148.726562 0)"/>
      <use xlink:href="#DejaVuSans-6e" transform="translate(176.509766 0)"/>
      <use xlink:href="#DejaVuSans-69" transform="translate(239.888672 0)"/>
      <use xlink:href="#DejaVuSans-6e" transform="translate(267.671875 0)"/>
      <use xlink:href="#DejaVuSans-67" transform="translate(331.050781 0)"/>
      <use xlink:href="#DejaVuSans-2d" transform="translate(394.527344 0)"/>
      <use xlink:href="#DejaVuSans-53" transform="translate(430.611328 0)"/>
      <use xlink:href="#DejaVuSans-6f" transform="translate(494.087891 0)"/>
      <use xlink:href="#DejaVuSans-75" transform="translate(555.269531 0)"/>
      <use xlink:href="#DejaVuSans-72" transform="translate(618.648438 0)"/>
      <use xlink:href="#DejaVuSans-63" transform="translate(657.511719 0)"/>
      <use xlink:href="#DejaVuSans-65" transform="translate(712.492188 0)"/>
     </g>
    </g>
    <g id="line2d_16">
     <path d="M 523.439062 70.976562 
L 533.439062 70.976562 
L 543.439062 70.976562 
" style="fill: none; stroke: #ff7f0e; stroke-width: 1.5; stroke-linecap: square"/>
    </g>
    <g id="text_15">
     <!-- Training-Target -->
     <g transform="translate(551.439062 74.476562) scale(0.1 -0.1)">
      <use xlink:href="#DejaVuSans-54"/>
      <use xlink:href="#DejaVuSans-72" transform="translate(46.333984 0)"/>
      <use xlink:href="#DejaVuSans-61" transform="translate(87.447266 0)"/>
      <use xlink:href="#DejaVuSans-69" transform="translate(148.726562 0)"/>
      <use xlink:href="#DejaVuSans-6e" transform="translate(176.509766 0)"/>
      <use xlink:href="#DejaVuSans-69" transform="translate(239.888672 0)"/>
      <use xlink:href="#DejaVuSans-6e" transform="translate(267.671875 0)"/>
      <use xlink:href="#DejaVuSans-67" transform="translate(331.050781 0)"/>
      <use xlink:href="#DejaVuSans-2d" transform="translate(394.527344 0)"/>
      <use xlink:href="#DejaVuSans-54" transform="translate(421.486328 0)"/>
      <use xlink:href="#DejaVuSans-61" transform="translate(466.070312 0)"/>
      <use xlink:href="#DejaVuSans-72" transform="translate(527.349609 0)"/>
      <use xlink:href="#DejaVuSans-67" transform="translate(566.712891 0)"/>
      <use xlink:href="#DejaVuSans-65" transform="translate(630.189453 0)"/>
      <use xlink:href="#DejaVuSans-74" transform="translate(691.712891 0)"/>
     </g>
    </g>
    <g id="line2d_17">
     <path d="M 523.439062 85.654687 
L 533.439062 85.654687 
L 543.439062 85.654687 
" style="fill: none; stroke: #2ca02c; stroke-width: 1.5; stroke-linecap: square"/>
    </g>
    <g id="text_16">
     <!-- Validating-Source -->
     <g transform="translate(551.439062 89.154687) scale(0.1 -0.1)">
      <use xlink:href="#DejaVuSans-56"/>
      <use xlink:href="#DejaVuSans-61" transform="translate(60.658203 0)"/>
      <use xlink:href="#DejaVuSans-6c" transform="translate(121.9375 0)"/>
      <use xlink:href="#DejaVuSans-69" transform="translate(149.720703 0)"/>
      <use xlink:href="#DejaVuSans-64" transform="translate(177.503906 0)"/>
      <use xlink:href="#DejaVuSans-61" transform="translate(240.980469 0)"/>
      <use xlink:href="#DejaVuSans-74" transform="translate(302.259766 0)"/>
      <use xlink:href="#DejaVuSans-69" transform="translate(341.46875 0)"/>
      <use xlink:href="#DejaVuSans-6e" transform="translate(369.251953 0)"/>
      <use xlink:href="#DejaVuSans-67" transform="translate(432.630859 0)"/>
      <use xlink:href="#DejaVuSans-2d" transform="translate(496.107422 0)"/>
      <use xlink:href="#DejaVuSans-53" transform="translate(532.191406 0)"/>
      <use xlink:href="#DejaVuSans-6f" transform="translate(595.667969 0)"/>
      <use xlink:href="#DejaVuSans-75" transform="translate(656.849609 0)"/>
      <use xlink:href="#DejaVuSans-72" transform="translate(720.228516 0)"/>
      <use xlink:href="#DejaVuSans-63" transform="translate(759.091797 0)"/>
      <use xlink:href="#DejaVuSans-65" transform="translate(814.072266 0)"/>
     </g>
    </g>
    <g id="line2d_18">
     <path d="M 523.439062 100.332812 
L 533.439062 100.332812 
L 543.439062 100.332812 
" style="fill: none; stroke: #d62728; stroke-width: 1.5; stroke-linecap: square"/>
    </g>
    <g id="text_17">
     <!-- Validating-Target -->
     <g transform="translate(551.439062 103.832812) scale(0.1 -0.1)">
      <use xlink:href="#DejaVuSans-56"/>
      <use xlink:href="#DejaVuSans-61" transform="translate(60.658203 0)"/>
      <use xlink:href="#DejaVuSans-6c" transform="translate(121.9375 0)"/>
      <use xlink:href="#DejaVuSans-69" transform="translate(149.720703 0)"/>
      <use xlink:href="#DejaVuSans-64" transform="translate(177.503906 0)"/>
      <use xlink:href="#DejaVuSans-61" transform="translate(240.980469 0)"/>
      <use xlink:href="#DejaVuSans-74" transform="translate(302.259766 0)"/>
      <use xlink:href="#DejaVuSans-69" transform="translate(341.46875 0)"/>
      <use xlink:href="#DejaVuSans-6e" transform="translate(369.251953 0)"/>
      <use xlink:href="#DejaVuSans-67" transform="translate(432.630859 0)"/>
      <use xlink:href="#DejaVuSans-2d" transform="translate(496.107422 0)"/>
      <use xlink:href="#DejaVuSans-54" transform="translate(523.066406 0)"/>
      <use xlink:href="#DejaVuSans-61" transform="translate(567.650391 0)"/>
      <use xlink:href="#DejaVuSans-72" transform="translate(628.929688 0)"/>
      <use xlink:href="#DejaVuSans-67" transform="translate(668.292969 0)"/>
      <use xlink:href="#DejaVuSans-65" transform="translate(731.769531 0)"/>
      <use xlink:href="#DejaVuSans-74" transform="translate(793.292969 0)"/>
     </g>
    </g>
   </g>
  </g>
 </g>
 <defs>
  <clipPath id="p81381b388e">
   <rect x="90" y="43.2" width="558" height="277.2"/>
  </clipPath>
 </defs>
</svg>
