<?xml version="1.0" encoding="utf-8" standalone="no"?>
<!DOCTYPE svg PUBLIC "-//W3C//DTD SVG 1.1//EN"
  "http://www.w3.org/Graphics/SVG/1.1/DTD/svg11.dtd">
<svg xmlns:xlink="http://www.w3.org/1999/xlink" width="720pt" height="360pt" viewBox="0 0 720 360" xmlns="http://www.w3.org/2000/svg" version="1.1">
 <metadata>
  <rdf:RDF xmlns:dc="http://purl.org/dc/elements/1.1/" xmlns:cc="http://creativecommons.org/ns#" xmlns:rdf="http://www.w3.org/1999/02/22-rdf-syntax-ns#">
   <cc:Work>
    <dc:type rdf:resource="http://purl.org/dc/dcmitype/StillImage"/>
    <dc:date>2026-02-10T18:50:38.013417</dc:date>
    <dc:format>image/svg+xml</dc:format>
    <dc:creator>
     <cc:Agent>
      <dc:title>Matplotlib v3.10.1, https://matplotlib.org/</dc:title>
     </cc:Agent>
    </dc:creator>
   </cc:Work>
  </rdf:RDF>
 </metadata>
 <defs>
  <style type="text/css">*{stroke-linejoin: round; stroke-linecap: butt}</style>
 </defs>
 <g id="figure_1">
  <g id="patch_1">
   <path d="M 0 360 
L 720 360 
L 720 0 
L 0 0 
z
" style="fill: #ffffff"/>
  </g>
  <g id="axes_1">
   <g id="patch_2">
    <path d="M 90 320.4 
L 648 320.4 
L 648 43.2 
L 90 43.2 
z
" style="fill: #ffffff"/>
   </g>
   <g id="matplotlib.axis_1">
    <g id="xtick_1">
     <g id="line2d_1">
      <defs>
       <path id="m6097944315" d="M 0 0 
L 0 3.5 
" style="stroke: #000000; stroke-width: 0.8"/>
      </defs>
      <g>
       <use xlink:href="#m6097944315" x="115.363636" y="320.4" style="stroke: #000000; stroke-width: 0.8"/>
      </g>
     </g>
     <g id="text_1">
      <!-- 0 -->
      <g transform="translate(112.182386 334.998438) scale(0.1 -0.1)">
       <defs>
        <path id="DejaVuSans-30" d="M 2034 4250 
Q 1547 4250 1301 3770 
Q 1056 3291 1056 2328 
Q 1056 1369 1301 889 
Q 1547 409 2034 409 
Q 2525 409 2770 889 
Q 3016 1369 3016 2328 
Q 3016 3291 2770 3770 
Q 2525 4250 2034 4250 
z
M 2034 4750 
Q 2819 4750 3233 4129 
Q 3647 3509 3647 2328 
Q 3647 1150 3233 529 
Q 2819 -91 2034 -91 
Q 1250 -91 836 529 
Q 422 1150 422 2328 
Q 422 3509 836 4129 
Q 1250 4750 2034 4750 
z
" transform="scale(0.015625)"/>
       </defs>
       <use xlink:href="#DejaVuSans-30"/>
      </g>
     </g>
    </g>
    <g id="xtick_2">
     <g id="line2d_2">
      <g>
       <use xlink:href="#m6097944315" x="217.195336" y="320.4" style="stroke: #000000; stroke-width: 0.8"/>
      </g>
     </g>
     <g id="text_2">
      <!-- 54 -->
      <g transform="translate(210.832836 334.998438) scale(0.1 -0.1)">
       <defs>
        <path id="DejaVuSans-35" d="M 691 4666 
L 3169 4666 
L 3169 4134 
L 1269 4134 
L 1269 2991 
Q 1406 3038 1543 3061 
Q 1681 3084 1819 3084 
Q 2600 3084 3056 2656 
Q 3513 2228 3513 1497 
Q 3513 744 3044 326 
Q 2575 -91 1722 -91 
Q 1428 -91 1123 -41 
Q 819 9 494 109 
L 494 744 
Q 775 591 1075 516 
Q 1375 441 1709 441 
Q 2250 441 2565 725 
Q 2881 1009 2881 1497 
Q 2881 1984 2565 2268 
Q 2250 2553 1709 2553 
Q 1456 2553 1204 2497 
Q 953 2441 691 2322 
L 691 4666 
z
" transform="scale(0.015625)"/>
        <path id="DejaVuSans-34" d="M 2419 4116 
L 825 1625 
L 2419 1625 
L 2419 4116 
z
M 2253 4666 
L 3047 4666 
L 3047 1625 
L 3713 1625 
L 3713 1100 
L 3047 1100 
L 3047 0 
L 2419 0 
L 2419 1100 
L 313 1100 
L 313 1709 
L 2253 4666 
z
" transform="scale(0.015625)"/>
       </defs>
       <use xlink:href="#DejaVuSans-35"/>
       <use xlink:href="#DejaVuSans-34" transform="translate(63.623047 0)"/>
      </g>
     </g>
    </g>
    <g id="xtick_3">
     <g id="line2d_3">
      <g>
       <use xlink:href="#m6097944315" x="319.027036" y="320.4" style="stroke: #000000; stroke-width: 0.8"/>
      </g>
     </g>
     <g id="text_3">
      <!-- 108 -->
      <g transform="translate(309.483286 334.998438) scale(0.1 -0.1)">
       <defs>
        <path id="DejaVuSans-31" d="M 794 531 
L 1825 531 
L 1825 4091 
L 703 3866 
L 703 4441 
L 1819 4666 
L 2450 4666 
L 2450 531 
L 3481 531 
L 3481 0 
L 794 0 
L 794 531 
z
" transform="scale(0.015625)"/>
        <path id="DejaVuSans-38" d="M 2034 2216 
Q 1584 2216 1326 1975 
Q 1069 1734 1069 1313 
Q 1069 891 1326 650 
Q 1584 409 2034 409 
Q 2484 409 2743 651 
Q 3003 894 3003 1313 
Q 3003 1734 2745 1975 
Q 2488 2216 2034 2216 
z
M 1403 2484 
Q 997 2584 770 2862 
Q 544 3141 544 3541 
Q 544 4100 942 4425 
Q 1341 4750 2034 4750 
Q 2731 4750 3128 4425 
Q 3525 4100 3525 3541 
Q 3525 3141 3298 2862 
Q 3072 2584 2669 2484 
Q 3125 2378 3379 2068 
Q 3634 1759 3634 1313 
Q 3634 634 3220 271 
Q 2806 -91 2034 -91 
Q 1263 -91 848 271 
Q 434 634 434 1313 
Q 434 1759 690 2068 
Q 947 2378 1403 2484 
z
M 1172 3481 
Q 1172 3119 1398 2916 
Q 1625 2713 2034 2713 
Q 2441 2713 2670 2916 
Q 2900 3119 2900 3481 
Q 2900 3844 2670 4047 
Q 2441 4250 2034 4250 
Q 1625 4250 1398 4047 
Q 1172 3844 1172 3481 
z
" transform="scale(0.015625)"/>
       </defs>
       <use xlink:href="#DejaVuSans-31"/>
       <use xlink:href="#DejaVuSans-30" transform="translate(63.623047 0)"/>
       <use xlink:href="#DejaVuSans-38" transform="translate(127.246094 0)"/>
      </g>
     </g>
    </g>
    <g id="xtick_4">
     <g id="line2d_4">
      <g>
       <use xlink:href="#m6097944315" x="420.858736" y="320.4" style="stroke: #000000; stroke-width: 0.8"/>
      </g>
     </g>
     <g id="text_4">
      <!-- 162 -->
      <g transform="translate(411.314986 334.998438) scale(0.1 -0.1)">
       <defs>
        <path id="DejaVuSans-36" d="M 2113 2584 
Q 1688 2584 1439 2293 
Q 1191 2003 1191 1497 
Q 1191 994 1439 701 
Q 1688 409 2113 409 
Q 2538 409 2786 701 
Q 3034 994 3034 1497 
Q 3034 2003 2786 2293 
Q 2538 2584 2113 2584 
z
M 3366 4563 
L 3366 3988 
Q 3128 4100 2886 4159 
Q 2644 4219 2406 4219 
Q 1781 4219 1451 3797 
Q 1122 3375 1075 2522 
Q 1259 2794 1537 2939 
Q 1816 3084 2150 3084 
Q 2853 3084 3261 2657 
Q 3669 2231 3669 1497 
Q 3669 778 3244 343 
Q 2819 -91 2113 -91 
Q 1303 -91 875 529 
Q 447 1150 447 2328 
Q 447 3434 972 4092 
Q 1497 4750 2381 4750 
Q 2619 4750 2861 4703 
Q 3103 4656 3366 4563 
z
" transform="scale(0.015625)"/>
        <path id="DejaVuSans-32" d="M 1228 531 
L 3431 531 
L 3431 0 
L 469 0 
L 469 531 
Q 828 903 1448 1529 
Q 2069 2156 2228 2338 
Q 2531 2678 2651 2914 
Q 2772 3150 2772 3378 
Q 2772 3750 2511 3984 
Q 2250 4219 1831 4219 
Q 1534 4219 1204 4116 
Q 875 4013 500 3803 
L 500 4441 
Q 881 4594 1212 4672 
Q 1544 4750 1819 4750 
Q 2544 4750 2975 4387 
Q 3406 4025 3406 3419 
Q 3406 3131 3298 2873 
Q 3191 2616 2906 2266 
Q 2828 2175 2409 1742 
Q 1991 1309 1228 531 
z
" transform="scale(0.015625)"/>
       </defs>
       <use xlink:href="#DejaVuSans-31"/>
       <use xlink:href="#DejaVuSans-36" transform="translate(63.623047 0)"/>
       <use xlink:href="#DejaVuSans-32" transform="translate(127.246094 0)"/>
      </g>
     </g>
    </g>
    <g id="xtick_5">
     <g id="line2d_5">
      <g>
       <use xlink:href="#m6097944315" x="522.690436" y="320.4" style="stroke: #000000; stroke-width: 0.8"/>
      </g>
     </g>
     <g id="text_5">
      <!-- 216 -->
      <g transform="translate(513.146686 334.998438) scale(0.1 -0.1)">
       <use xlink:href="#DejaVuSans-32"/>
       <use xlink:href="#DejaVuSans-31" transform="translate(63.623047 0)"/>
       <use xlink:href="#DejaVuSans-36" transform="translate(127.246094 0)"/>
      </g>
     </g>
    </g>
    <g id="text_6">
     <!-- Epoch -->
     <g transform="translate(353.689062 348.676562) scale(0.1 -0.1)">
      <defs>
       <path id="DejaVuSans-45" d="M 628 4666 
L 3578 4666 
L 3578 4134 
L 1259 4134 
L 1259 2753 
L 3481 2753 
L 3481 2222 
L 1259 2222 
L 1259 531 
L 3634 531 
L 3634 0 
L 628 0 
L 628 4666 
z
" transform="scale(0.015625)"/>
       <path id="DejaVuSans-70" d="M 1159 525 
L 1159 -1331 
L 581 -1331 
L 581 3500 
L 1159 3500 
L 1159 2969 
Q 1341 3281 1617 3432 
Q 1894 3584 2278 3584 
Q 2916 3584 3314 3078 
Q 3713 2572 3713 1747 
Q 3713 922 3314 415 
Q 2916 -91 2278 -91 
Q 1894 -91 1617 61 
Q 1341 213 1159 525 
z
M 3116 1747 
Q 3116 2381 2855 2742 
Q 2594 3103 2138 3103 
Q 1681 3103 1420 2742 
Q 1159 2381 1159 1747 
Q 1159 1113 1420 752 
Q 1681 391 2138 391 
Q 2594 391 2855 752 
Q 3116 1113 3116 1747 
z
" transform="scale(0.015625)"/>
       <path id="DejaVuSans-6f" d="M 1959 3097 
Q 1497 3097 1228 2736 
Q 959 2375 959 1747 
Q 959 1119 1226 758 
Q 1494 397 1959 397 
Q 2419 397 2687 759 
Q 2956 1122 2956 1747 
Q 2956 2369 2687 2733 
Q 2419 3097 1959 3097 
z
M 1959 3584 
Q 2709 3584 3137 3096 
Q 3566 2609 3566 1747 
Q 3566 888 3137 398 
Q 2709 -91 1959 -91 
Q 1206 -91 779 398 
Q 353 888 353 1747 
Q 353 2609 779 3096 
Q 1206 3584 1959 3584 
z
" transform="scale(0.015625)"/>
       <path id="DejaVuSans-63" d="M 3122 3366 
L 3122 2828 
Q 2878 2963 2633 3030 
Q 2388 3097 2138 3097 
Q 1578 3097 1268 2742 
Q 959 2388 959 1747 
Q 959 1106 1268 751 
Q 1578 397 2138 397 
Q 2388 397 2633 464 
Q 2878 531 3122 666 
L 3122 134 
Q 2881 22 2623 -34 
Q 2366 -91 2075 -91 
Q 1284 -91 818 406 
Q 353 903 353 1747 
Q 353 2603 823 3093 
Q 1294 3584 2113 3584 
Q 2378 3584 2631 3529 
Q 2884 3475 3122 3366 
z
" transform="scale(0.015625)"/>
       <path id="DejaVuSans-68" d="M 3513 2113 
L 3513 0 
L 2938 0 
L 2938 2094 
Q 2938 2591 2744 2837 
Q 2550 3084 2163 3084 
Q 1697 3084 1428 2787 
Q 1159 2491 1159 1978 
L 1159 0 
L 581 0 
L 581 4863 
L 1159 4863 
L 1159 2956 
Q 1366 3272 1645 3428 
Q 1925 3584 2291 3584 
Q 2894 3584 3203 3211 
Q 3513 2838 3513 2113 
z
" transform="scale(0.015625)"/>
      </defs>
      <use xlink:href="#DejaVuSans-45"/>
      <use xlink:href="#DejaVuSans-70" transform="translate(63.183594 0)"/>
      <use xlink:href="#DejaVuSans-6f" transform="translate(126.660156 0)"/>
      <use xlink:href="#DejaVuSans-63" transform="translate(187.841797 0)"/>
      <use xlink:href="#DejaVuSans-68" transform="translate(242.822266 0)"/>
     </g>
    </g>
   </g>
   <g id="matplotlib.axis_2">
    <g id="ytick_1">
     <g id="line2d_6">
      <defs>
       <path id="m5ab186f0b6" d="M 0 0 
L -3.5 0 
" style="stroke: #000000; stroke-width: 0.8"/>
      </defs>
      <g>
       <use xlink:href="#m5ab186f0b6" x="90" y="318.687679" style="stroke: #000000; stroke-width: 0.8"/>
      </g>
     </g>
     <g id="text_7">
      <!-- 0.00 -->
      <g transform="translate(60.734375 322.486898) scale(0.1 -0.1)">
       <defs>
        <path id="DejaVuSans-2e" d="M 684 794 
L 1344 794 
L 1344 0 
L 684 0 
L 684 794 
z
" transform="scale(0.015625)"/>
       </defs>
       <use xlink:href="#DejaVuSans-30"/>
       <use xlink:href="#DejaVuSans-2e" transform="translate(63.623047 0)"/>
       <use xlink:href="#DejaVuSans-30" transform="translate(95.410156 0)"/>
       <use xlink:href="#DejaVuSans-30" transform="translate(159.033203 0)"/>
      </g>
     </g>
    </g>
    <g id="ytick_2">
     <g id="line2d_7">
      <g>
       <use xlink:href="#m5ab186f0b6" x="90" y="269.111422" style="stroke: #000000; stroke-width: 0.8"/>
      </g>
     </g>
     <g id="text_8">
      <!-- 0.05 -->
      <g transform="translate(60.734375 272.910641) scale(0.1 -0.1)">
       <use xlink:href="#DejaVuSans-30"/>
       <use xlink:href="#DejaVuSans-2e" transform="translate(63.623047 0)"/>
       <use xlink:href="#DejaVuSans-30" transform="translate(95.410156 0)"/>
       <use xlink:href="#DejaVuSans-35" transform="translate(159.033203 0)"/>
      </g>
     </g>
    </g>
    <g id="ytick_3">
     <g id="line2d_8">
      <g>
       <use xlink:href="#m5ab186f0b6" x="90" y="219.535165" style="stroke: #000000; stroke-width: 0.8"/>
      </g>
     </g>
     <g id="text_9">
      <!-- 0.10 -->
      <g transform="translate(60.734375 223.334384) scale(0.1 -0.1)">
       <use xlink:href="#DejaVuSans-30"/>
       <use xlink:href="#DejaVuSans-2e" transform="translate(63.623047 0)"/>
       <use xlink:href="#DejaVuSans-31" transform="translate(95.410156 0)"/>
       <use xlink:href="#DejaVuSans-30" transform="translate(159.033203 0)"/>
      </g>
     </g>
    </g>
    <g id="ytick_4">
     <g id="line2d_9">
      <g>
       <use xlink:href="#m5ab186f0b6" x="90" y="169.958909" style="stroke: #000000; stroke-width: 0.8"/>
      </g>
     </g>
     <g id="text_10">
      <!-- 0.15 -->
      <g transform="translate(60.734375 173.758127) scale(0.1 -0.1)">
       <use xlink:href="#DejaVuSans-30"/>
       <use xlink:href="#DejaVuSans-2e" transform="translate(63.623047 0)"/>
       <use xlink:href="#DejaVuSans-31" transform="translate(95.410156 0)"/>
       <use xlink:href="#DejaVuSans-35" transform="translate(159.033203 0)"/>
      </g>
     </g>
    </g>
    <g id="ytick_5">
     <g id="line2d_10">
      <g>
       <use xlink:href="#m5ab186f0b6" x="90" y="120.382652" style="stroke: #000000; stroke-width: 0.8"/>
      </g>
     </g>
     <g id="text_11">
      <!-- 0.20 -->
      <g transform="translate(60.734375 124.18187) scale(0.1 -0.1)">
       <use xlink:href="#DejaVuSans-30"/>
       <use xlink:href="#DejaVuSans-2e" transform="translate(63.623047 0)"/>
       <use xlink:href="#DejaVuSans-32" transform="translate(95.410156 0)"/>
       <use xlink:href="#DejaVuSans-30" transform="translate(159.033203 0)"/>
      </g>
     </g>
    </g>
    <g id="ytick_6">
     <g id="line2d_11">
      <g>
       <use xlink:href="#m5ab186f0b6" x="90" y="70.806395" style="stroke: #000000; stroke-width: 0.8"/>
      </g>
     </g>
     <g id="text_12">
      <!-- 0.25 -->
      <g transform="translate(60.734375 74.605614) scale(0.1 -0.1)">
       <use xlink:href="#DejaVuSans-30"/>
       <use xlink:href="#DejaVuSans-2e" transform="translate(63.623047 0)"/>
       <use xlink:href="#DejaVuSans-32" transform="translate(95.410156 0)"/>
       <use xlink:href="#DejaVuSans-35" transform="translate(159.033203 0)"/>
      </g>
     </g>
    </g>
    <g id="text_13">
     <!-- Total Loss -->
     <g transform="translate(54.654687 206.032812) rotate(-90) scale(0.1 -0.1)">
      <defs>
       <path id="DejaVuSans-54" d="M -19 4666 
L 3928 4666 
L 3928 4134 
L 2272 4134 
L 2272 0 
L 1638 0 
L 1638 4134 
L -19 4134 
L -19 4666 
z
" transform="scale(0.015625)"/>
       <path id="DejaVuSans-74" d="M 1172 4494 
L 1172 3500 
L 2356 3500 
L 2356 3053 
L 1172 3053 
L 1172 1153 
Q 1172 725 1289 603 
Q 1406 481 1766 481 
L 2356 481 
L 2356 0 
L 1766 0 
Q 1100 0 847 248 
Q 594 497 594 1153 
L 594 3053 
L 172 3053 
L 172 3500 
L 594 3500 
L 594 4494 
L 1172 4494 
z
" transform="scale(0.015625)"/>
       <path id="DejaVuSans-61" d="M 2194 1759 
Q 1497 1759 1228 1600 
Q 959 1441 959 1056 
Q 959 750 1161 570 
Q 1363 391 1709 391 
Q 2188 391 2477 730 
Q 2766 1069 2766 1631 
L 2766 1759 
L 2194 1759 
z
M 3341 1997 
L 3341 0 
L 2766 0 
L 2766 531 
Q 2569 213 2275 61 
Q 1981 -91 1556 -91 
Q 1019 -91 701 211 
Q 384 513 384 1019 
Q 384 1609 779 1909 
Q 1175 2209 1959 2209 
L 2766 2209 
L 2766 2266 
Q 2766 2663 2505 2880 
Q 2244 3097 1772 3097 
Q 1472 3097 1187 3025 
Q 903 2953 641 2809 
L 641 3341 
Q 956 3463 1253 3523 
Q 1550 3584 1831 3584 
Q 2591 3584 2966 3190 
Q 3341 2797 3341 1997 
z
" transform="scale(0.015625)"/>
       <path id="DejaVuSans-6c" d="M 603 4863 
L 1178 4863 
L 1178 0 
L 603 0 
L 603 4863 
z
" transform="scale(0.015625)"/>
       <path id="DejaVuSans-20" transform="scale(0.015625)"/>
       <path id="DejaVuSans-4c" d="M 628 4666 
L 1259 4666 
L 1259 531 
L 3531 531 
L 3531 0 
L 628 0 
L 628 4666 
z
" transform="scale(0.015625)"/>
       <path id="DejaVuSans-73" d="M 2834 3397 
L 2834 2853 
Q 2591 2978 2328 3040 
Q 2066 3103 1784 3103 
Q 1356 3103 1142 2972 
Q 928 2841 928 2578 
Q 928 2378 1081 2264 
Q 1234 2150 1697 2047 
L 1894 2003 
Q 2506 1872 2764 1633 
Q 3022 1394 3022 966 
Q 3022 478 2636 193 
Q 2250 -91 1575 -91 
Q 1294 -91 989 -36 
Q 684 19 347 128 
L 347 722 
Q 666 556 975 473 
Q 1284 391 1588 391 
Q 1994 391 2212 530 
Q 2431 669 2431 922 
Q 2431 1156 2273 1281 
Q 2116 1406 1581 1522 
L 1381 1569 
Q 847 1681 609 1914 
Q 372 2147 372 2553 
Q 372 3047 722 3315 
Q 1072 3584 1716 3584 
Q 2034 3584 2315 3537 
Q 2597 3491 2834 3397 
z
" transform="scale(0.015625)"/>
      </defs>
      <use xlink:href="#DejaVuSans-54"/>
      <use xlink:href="#DejaVuSans-6f" transform="translate(44.083984 0)"/>
      <use xlink:href="#DejaVuSans-74" transform="translate(105.265625 0)"/>
      <use xlink:href="#DejaVuSans-61" transform="translate(144.474609 0)"/>
      <use xlink:href="#DejaVuSans-6c" transform="translate(205.753906 0)"/>
      <use xlink:href="#DejaVuSans-20" transform="translate(233.537109 0)"/>
      <use xlink:href="#DejaVuSans-4c" transform="translate(265.324219 0)"/>
      <use xlink:href="#DejaVuSans-6f" transform="translate(319.287109 0)"/>
      <use xlink:href="#DejaVuSans-73" transform="translate(380.46875 0)"/>
      <use xlink:href="#DejaVuSans-73" transform="translate(432.568359 0)"/>
     </g>
    </g>
   </g>
   <g id="line2d_12">
    <path d="M 115.363636 307.8 
L 121.020953 307.180404 
L 126.67827 306.42884 
L 134.221359 305.176966 
L 139.878675 304.051988 
L 151.193309 301.625251 
L 164.393714 299.097715 
L 168.165259 298.793726 
L 179.479892 297.147511 
L 185.137209 295.907205 
L 188.908753 294.776338 
L 192.680297 293.410371 
L 194.56607 292.558911 
L 196.451842 291.364277 
L 205.880703 286.651712 
L 209.652247 284.386635 
L 211.53802 283.235915 
L 213.423792 281.636753 
L 215.309564 280.308109 
L 217.195336 280.084065 
L 220.966881 276.019539 
L 222.852653 275.021294 
L 224.738425 272.938383 
L 226.624197 271.982346 
L 228.50997 270.045442 
L 230.395742 268.870944 
L 232.281514 265.794194 
L 234.167286 263.532113 
L 236.053058 263.433316 
L 237.938831 261.809683 
L 239.824603 259.447817 
L 241.710375 258.039277 
L 243.596147 254.129518 
L 245.48192 252.681527 
L 247.367692 250.815559 
L 249.253464 249.713708 
L 251.139236 246.865428 
L 253.025008 245.17088 
L 254.910781 242.564902 
L 256.796553 240.575256 
L 258.682325 237.692702 
L 260.568097 235.118108 
L 262.45387 231.553621 
L 264.339642 229.364548 
L 266.225414 227.45778 
L 268.111186 224.257367 
L 269.996958 222.247434 
L 271.882731 218.041675 
L 273.768503 216.533704 
L 275.654275 212.825038 
L 277.540047 211.566183 
L 279.42582 208.409121 
L 281.311592 207.369495 
L 283.197364 205.469955 
L 285.083136 202.813849 
L 286.968908 199.906562 
L 288.854681 197.681864 
L 290.740453 195.707086 
L 292.626225 193.975472 
L 294.511997 191.364604 
L 296.39777 190.584152 
L 298.283542 186.788108 
L 300.169314 184.854673 
L 303.940858 179.694554 
L 305.826631 173.599139 
L 307.712403 164.605006 
L 309.598175 170.520454 
L 311.483947 170.008957 
L 313.369719 166.523956 
L 315.255492 165.545903 
L 317.141264 164.326841 
L 319.027036 164.894364 
L 320.912808 160.026693 
L 322.798581 160.042516 
L 324.684353 161.732284 
L 326.570125 155.898514 
L 328.455897 154.667131 
L 330.341669 156.186775 
L 332.227442 154.162187 
L 334.113214 153.305369 
L 335.998986 150.431113 
L 337.884758 145.1285 
L 339.770531 144.630562 
L 341.656303 141.039255 
L 343.542075 143.521037 
L 345.427847 144.566647 
L 347.313619 144.120749 
L 349.199392 144.797365 
L 351.085164 141.114882 
L 352.970936 124.850627 
L 354.856708 131.085209 
L 356.742481 133.714917 
L 358.628253 137.730216 
L 360.514025 129.494813 
L 362.399797 132.490905 
L 364.285569 131.053237 
L 366.171342 132.493591 
L 368.057114 127.71946 
L 369.942886 133.52799 
L 371.828658 125.046881 
L 373.714431 132.230832 
L 375.600203 130.023236 
L 377.485975 119.682037 
L 379.371747 123.445617 
L 381.257519 120.085604 
L 383.143292 128.024235 
L 385.029064 119.629128 
L 386.914836 113.071318 
L 388.800608 115.004176 
L 390.686381 111.515566 
L 392.572153 126.796836 
L 394.457925 127.140977 
L 396.343697 113.95194 
L 398.229469 118.216515 
L 400.115242 110.532963 
L 402.001014 116.124186 
L 403.886786 116.536791 
L 405.772558 114.108005 
L 407.658331 118.170777 
L 409.544103 119.623011 
L 411.429875 119.049768 
L 413.315647 108.153088 
L 415.201419 107.685681 
L 417.087192 123.441884 
L 418.972964 124.724245 
L 420.858736 121.03058 
L 422.744508 120.195456 
L 424.630281 124.900554 
L 426.516053 120.504896 
L 428.401825 125.319243 
L 430.287597 107.131234 
L 432.173369 118.441055 
L 434.059142 126.0741 
L 435.944914 118.624635 
L 437.830686 116.453252 
L 439.716458 128.69501 
L 441.60223 117.6448 
L 443.488003 112.256419 
L 445.373775 120.109337 
L 447.259547 114.149144 
L 449.145319 130.663323 
L 451.031092 115.659423 
L 452.916864 121.315675 
L 454.802636 111.553601 
L 456.688408 112.354688 
L 458.57418 114.178438 
L 460.459953 118.677233 
L 462.345725 110.608616 
L 464.231497 127.5158 
L 468.003042 112.455573 
L 469.888814 112.097446 
L 471.774586 126.057133 
L 473.660358 106.73936 
L 475.54613 109.617691 
L 477.431903 115.702419 
L 479.317675 125.69871 
L 481.203447 119.971391 
L 483.089219 116.482791 
L 484.974992 122.332071 
L 486.860764 123.40604 
L 488.746536 122.858584 
L 490.632308 117.322724 
L 492.51808 113.559273 
L 494.403853 116.769025 
L 496.289625 115.491317 
L 498.175397 112.876216 
L 500.061169 105.077072 
L 501.946942 124.410883 
L 503.832714 110.280231 
L 505.718486 119.86978 
L 507.604258 121.836109 
L 509.49003 119.950073 
L 511.375803 117.643312 
L 513.261575 116.414101 
L 515.147347 116.361058 
L 517.033119 123.63136 
L 518.918892 116.589004 
L 520.804664 131.582712 
L 522.690436 122.224594 
L 524.576208 118.995073 
L 526.46198 115.515057 
L 528.347753 117.378206 
L 530.233525 124.943812 
L 532.119297 113.857272 
L 534.005069 120.824762 
L 535.890842 115.043095 
L 537.776614 129.165952 
L 539.662386 110.739077 
L 541.548158 121.931323 
L 543.43393 118.100389 
L 545.319703 122.97709 
L 547.205475 121.499082 
L 549.091247 113.561036 
L 550.977019 113.332358 
L 552.862791 120.392201 
L 554.748564 131.4003 
L 556.634336 124.895088 
L 558.520108 133.647653 
L 560.40588 122.782985 
L 562.291653 120.027037 
L 564.177425 122.148203 
L 566.063197 136.204327 
L 567.948969 126.428608 
L 569.834741 122.552265 
L 571.720514 114.754625 
L 573.606286 117.759519 
L 575.492058 118.307064 
L 577.37783 108.799845 
L 579.263603 121.571296 
L 581.149375 110.872494 
L 583.035147 125.750764 
L 584.920919 136.923034 
L 586.806691 129.967891 
L 588.692464 138.78475 
L 590.578236 96.329752 
L 592.464008 101.42265 
L 594.34978 124.522769 
L 596.235553 113.768863 
L 598.121325 125.84738 
L 600.007097 131.36489 
L 601.892869 111.201908 
L 603.778641 137.955311 
L 605.664414 108.018682 
L 607.550186 100.464248 
L 609.435958 116.734947 
L 611.32173 105.791695 
L 613.207503 104.449505 
L 615.093275 98.815745 
L 616.979047 116.296175 
L 618.864819 124.44458 
L 620.750591 123.175167 
L 622.636364 114.470713 
L 622.636364 114.470713 
" clip-path="url(#p9f8bef4eef)" style="fill: none; stroke: #1f77b4; stroke-width: 1.5; stroke-linecap: square"/>
   </g>
   <g id="line2d_13">
    <path d="M 115.363636 304.399094 
L 119.135181 304.181825 
L 121.020953 303.768522 
L 122.906725 303.559277 
L 132.335586 301.822974 
L 134.221359 301.245516 
L 137.992903 300.554275 
L 139.878675 300.003695 
L 141.764447 299.68554 
L 143.65022 299.14428 
L 145.535992 298.418858 
L 147.421764 298.21755 
L 151.193309 297.471988 
L 153.079081 296.991121 
L 154.964853 296.81541 
L 156.850625 296.428993 
L 160.62217 295.316523 
L 162.507942 294.997873 
L 168.165259 295.211648 
L 171.936803 294.965551 
L 173.822575 295.039546 
L 177.59412 294.413459 
L 179.479892 293.849203 
L 181.365664 294.281597 
L 183.251436 293.787928 
L 185.137209 293.468114 
L 187.022981 292.986298 
L 190.794525 292.366845 
L 192.680297 291.73591 
L 194.56607 291.268525 
L 196.451842 289.937037 
L 198.337614 285.852805 
L 200.223386 285.699096 
L 202.109158 285.987355 
L 203.994931 285.033978 
L 205.880703 284.965497 
L 207.766475 282.000401 
L 209.652247 282.644505 
L 211.53802 277.845488 
L 213.423792 273.488037 
L 215.309564 277.972268 
L 217.195336 279.112848 
L 219.081108 276.135085 
L 220.966881 274.913356 
L 222.852653 268.723726 
L 224.738425 271.797361 
L 226.624197 270.657375 
L 228.50997 266.595565 
L 230.395742 267.478506 
L 232.281514 261.085592 
L 234.167286 265.874842 
L 236.053058 260.080029 
L 237.938831 262.619476 
L 239.824603 254.757702 
L 241.710375 258.744556 
L 245.48192 247.55408 
L 247.367692 249.326446 
L 249.253464 249.72775 
L 251.139236 243.416209 
L 253.025008 244.000799 
L 254.910781 244.375774 
L 258.682325 236.539425 
L 260.568097 235.748187 
L 262.45387 232.276672 
L 264.339642 227.679086 
L 266.225414 226.328932 
L 268.111186 222.670839 
L 271.882731 210.885258 
L 273.768503 212.089057 
L 275.654275 207.824133 
L 277.540047 206.113665 
L 279.42582 201.090527 
L 281.311592 197.661499 
L 283.197364 193.578109 
L 285.083136 190.414567 
L 286.968908 190.948216 
L 288.854681 185.293222 
L 290.740453 185.318594 
L 294.511997 178.953286 
L 296.39777 177.09061 
L 298.283542 171.926795 
L 300.169314 168.465519 
L 302.055086 165.622674 
L 303.940858 159.448948 
L 305.826631 165.172483 
L 307.712403 158.324286 
L 311.483947 153.459155 
L 313.369719 150.845586 
L 315.255492 147.157911 
L 317.141264 146.562402 
L 319.027036 143.782628 
L 320.912808 141.777528 
L 322.798581 137.063591 
L 324.684353 137.315379 
L 326.570125 135.412844 
L 328.455897 136.060895 
L 330.341669 135.959587 
L 332.227442 130.37838 
L 334.113214 117.037505 
L 335.998986 127.531863 
L 337.884758 125.322469 
L 339.770531 129.389617 
L 341.656303 108.694095 
L 343.542075 119.654782 
L 345.427847 120.885524 
L 347.313619 114.299423 
L 349.199392 121.661793 
L 351.085164 124.574643 
L 352.970936 110.941292 
L 354.856708 119.055989 
L 356.742481 118.401825 
L 358.628253 120.034913 
L 360.514025 98.056687 
L 362.399797 117.390166 
L 364.285569 115.633246 
L 366.171342 124.331072 
L 368.057114 108.68995 
L 369.942886 104.312755 
L 371.828658 115.424444 
L 373.714431 109.90587 
L 375.600203 114.161175 
L 377.485975 108.912817 
L 379.371747 116.114555 
L 381.257519 108.402445 
L 383.143292 110.081132 
L 385.029064 97.55967 
L 386.914836 109.115523 
L 388.800608 117.954935 
L 390.686381 82.501459 
L 392.572153 116.386537 
L 394.457925 101.970384 
L 396.343697 106.795567 
L 398.229469 109.112417 
L 400.115242 98.186402 
L 402.001014 118.016839 
L 403.886786 85.775795 
L 405.772558 92.311618 
L 407.658331 88.19148 
L 409.544103 107.637919 
L 411.429875 90.227429 
L 413.315647 74.91214 
L 415.201419 126.071426 
L 417.087192 109.435131 
L 418.972964 107.379845 
L 420.858736 109.814263 
L 422.744508 100.871017 
L 424.630281 101.964144 
L 426.516053 102.609851 
L 428.401825 91.143159 
L 430.287597 97.536397 
L 432.173369 100.156055 
L 435.944914 103.256797 
L 437.830686 107.973265 
L 439.716458 103.296166 
L 441.60223 108.470585 
L 443.488003 84.584451 
L 445.373775 73.334371 
L 447.259547 115.212528 
L 449.145319 99.38609 
L 451.031092 102.62015 
L 452.916864 69.77428 
L 454.802636 93.633351 
L 456.688408 97.98332 
L 458.57418 106.089968 
L 460.459953 107.198058 
L 462.345725 98.153279 
L 464.231497 93.29108 
L 466.117269 91.604045 
L 468.003042 64.438082 
L 469.888814 89.002652 
L 471.774586 98.296483 
L 473.660358 98.849082 
L 475.54613 105.723419 
L 477.431903 85.425497 
L 479.317675 106.333011 
L 481.203447 87.405377 
L 483.089219 99.215896 
L 484.974992 63.920657 
L 486.860764 95.531609 
L 488.746536 69.53045 
L 490.632308 74.443934 
L 492.51808 103.461006 
L 494.403853 63.587181 
L 496.289625 99.587054 
L 498.175397 59.253918 
L 500.061169 82.734372 
L 501.946942 93.3579 
L 503.832714 86.877493 
L 505.718486 56.022564 
L 507.604258 99.467196 
L 509.49003 95.943979 
L 511.375803 71.232775 
L 513.261575 96.044679 
L 515.147347 103.492796 
L 517.033119 84.613723 
L 518.918892 94.23458 
L 520.804664 96.499089 
L 522.690436 94.012389 
L 524.576208 105.035829 
L 526.46198 90.10938 
L 528.347753 105.496428 
L 530.233525 100.614001 
L 532.119297 86.80914 
L 534.005069 108.216764 
L 535.890842 92.587408 
L 537.776614 98.988473 
L 539.662386 92.060533 
L 541.548158 55.8 
L 543.43393 94.362386 
L 545.319703 94.830589 
L 547.205475 99.773553 
L 549.091247 98.036409 
L 550.977019 94.094489 
L 552.862791 86.924289 
L 554.748564 94.939853 
L 556.634336 88.931718 
L 558.520108 96.807606 
L 560.40588 101.060325 
L 562.291653 106.652883 
L 564.177425 93.939413 
L 566.063197 85.096437 
L 567.948969 63.377056 
L 569.834741 70.059805 
L 571.720514 68.520857 
L 573.606286 101.633184 
L 575.492058 88.529182 
L 577.37783 96.778929 
L 579.263603 59.448564 
L 581.149375 83.517342 
L 583.035147 72.58249 
L 584.920919 77.877464 
L 586.806691 79.614291 
L 588.692464 90.976467 
L 590.578236 78.53478 
L 592.464008 103.617005 
L 594.34978 77.775337 
L 596.235553 67.137078 
L 598.121325 83.842258 
L 600.007097 91.521985 
L 601.892869 98.712687 
L 603.778641 70.097635 
L 605.664414 92.927785 
L 607.550186 82.878712 
L 609.435958 89.907644 
L 611.32173 98.578673 
L 613.207503 109.265598 
L 615.093275 105.625336 
L 616.979047 101.553961 
L 618.864819 82.396792 
L 620.750591 58.122116 
L 622.636364 81.447842 
L 622.636364 81.447842 
" clip-path="url(#p9f8bef4eef)" style="fill: none; stroke: #ff7f0e; stroke-width: 1.5; stroke-linecap: square"/>
   </g>
   <g id="patch_3">
    <path d="M 90 320.4 
L 90 43.2 
" style="fill: none; stroke: #000000; stroke-width: 0.8; stroke-linejoin: miter; stroke-linecap: square"/>
   </g>
   <g id="patch_4">
    <path d="M 648 320.4 
L 648 43.2 
" style="fill: none; stroke: #000000; stroke-width: 0.8; stroke-linejoin: miter; stroke-linecap: square"/>
   </g>
   <g id="patch_5">
    <path d="M 90 320.4 
L 648 320.4 
" style="fill: none; stroke: #000000; stroke-width: 0.8; stroke-linejoin: miter; stroke-linecap: square"/>
   </g>
   <g id="patch_6">
    <path d="M 90 43.2 
L 648 43.2 
" style="fill: none; stroke: #000000; stroke-width: 0.8; stroke-linejoin: miter; stroke-linecap: square"/>
   </g>
   <g id="text_14">
    <!-- Training and Validating Total Loss -->
    <g transform="translate(269.474063 37.2) scale(0.12 -0.12)">
     <defs>
      <path id="DejaVuSans-72" d="M 2631 2963 
Q 2534 3019 2420 3045 
Q 2306 3072 2169 3072 
Q 1681 3072 1420 2755 
Q 1159 2438 1159 1844 
L 1159 0 
L 581 0 
L 581 3500 
L 1159 3500 
L 1159 2956 
Q 1341 3275 1631 3429 
Q 1922 3584 2338 3584 
Q 2397 3584 2469 3576 
Q 2541 3569 2628 3553 
L 2631 2963 
z
" transform="scale(0.015625)"/>
      <path id="DejaVuSans-69" d="M 603 3500 
L 1178 3500 
L 1178 0 
L 603 0 
L 603 3500 
z
M 603 4863 
L 1178 4863 
L 1178 4134 
L 603 4134 
L 603 4863 
z
" transform="scale(0.015625)"/>
      <path id="DejaVuSans-6e" d="M 3513 2113 
L 3513 0 
L 2938 0 
L 2938 2094 
Q 2938 2591 2744 2837 
Q 2550 3084 2163 3084 
Q 1697 3084 1428 2787 
Q 1159 2491 1159 1978 
L 1159 0 
L 581 0 
L 581 3500 
L 1159 3500 
L 1159 2956 
Q 1366 3272 1645 3428 
Q 1925 3584 2291 3584 
Q 2894 3584 3203 3211 
Q 3513 2838 3513 2113 
z
" transform="scale(0.015625)"/>
      <path id="DejaVuSans-67" d="M 2906 1791 
Q 2906 2416 2648 2759 
Q 2391 3103 1925 3103 
Q 1463 3103 1205 2759 
Q 947 2416 947 1791 
Q 947 1169 1205 825 
Q 1463 481 1925 481 
Q 2391 481 2648 825 
Q 2906 1169 2906 1791 
z
M 3481 434 
Q 3481 -459 3084 -895 
Q 2688 -1331 1869 -1331 
Q 1566 -1331 1297 -1286 
Q 1028 -1241 775 -1147 
L 775 -588 
Q 1028 -725 1275 -790 
Q 1522 -856 1778 -856 
Q 2344 -856 2625 -561 
Q 2906 -266 2906 331 
L 2906 616 
Q 2728 306 2450 153 
Q 2172 0 1784 0 
Q 1141 0 747 490 
Q 353 981 353 1791 
Q 353 2603 747 3093 
Q 1141 3584 1784 3584 
Q 2172 3584 2450 3431 
Q 2728 3278 2906 2969 
L 2906 3500 
L 3481 3500 
L 3481 434 
z
" transform="scale(0.015625)"/>
      <path id="DejaVuSans-64" d="M 2906 2969 
L 2906 4863 
L 3481 4863 
L 3481 0 
L 2906 0 
L 2906 525 
Q 2725 213 2448 61 
Q 2172 -91 1784 -91 
Q 1150 -91 751 415 
Q 353 922 353 1747 
Q 353 2572 751 3078 
Q 1150 3584 1784 3584 
Q 2172 3584 2448 3432 
Q 2725 3281 2906 2969 
z
M 947 1747 
Q 947 1113 1208 752 
Q 1469 391 1925 391 
Q 2381 391 2643 752 
Q 2906 1113 2906 1747 
Q 2906 2381 2643 2742 
Q 2381 3103 1925 3103 
Q 1469 3103 1208 2742 
Q 947 2381 947 1747 
z
" transform="scale(0.015625)"/>
      <path id="DejaVuSans-56" d="M 1831 0 
L 50 4666 
L 709 4666 
L 2188 738 
L 3669 4666 
L 4325 4666 
L 2547 0 
L 1831 0 
z
" transform="scale(0.015625)"/>
     </defs>
     <use xlink:href="#DejaVuSans-54"/>
     <use xlink:href="#DejaVuSans-72" transform="translate(46.333984 0)"/>
     <use xlink:href="#DejaVuSans-61" transform="translate(87.447266 0)"/>
     <use xlink:href="#DejaVuSans-69" transform="translate(148.726562 0)"/>
     <use xlink:href="#DejaVuSans-6e" transform="translate(176.509766 0)"/>
     <use xlink:href="#DejaVuSans-69" transform="translate(239.888672 0)"/>
     <use xlink:href="#DejaVuSans-6e" transform="translate(267.671875 0)"/>
     <use xlink:href="#DejaVuSans-67" transform="translate(331.050781 0)"/>
     <use xlink:href="#DejaVuSans-20" transform="translate(394.527344 0)"/>
     <use xlink:href="#DejaVuSans-61" transform="translate(426.314453 0)"/>
     <use xlink:href="#DejaVuSans-6e" transform="translate(487.59375 0)"/>
     <use xlink:href="#DejaVuSans-64" transform="translate(550.972656 0)"/>
     <use xlink:href="#DejaVuSans-20" transform="translate(614.449219 0)"/>
     <use xlink:href="#DejaVuSans-56" transform="translate(646.236328 0)"/>
     <use xlink:href="#DejaVuSans-61" transform="translate(706.894531 0)"/>
     <use xlink:href="#DejaVuSans-6c" transform="translate(768.173828 0)"/>
     <use xlink:href="#DejaVuSans-69" transform="translate(795.957031 0)"/>
     <use xlink:href="#DejaVuSans-64" transform="translate(823.740234 0)"/>
     <use xlink:href="#DejaVuSans-61" transform="translate(887.216797 0)"/>
     <use xlink:href="#DejaVuSans-74" transform="translate(948.496094 0)"/>
     <use xlink:href="#DejaVuSans-69" transform="translate(987.705078 0)"/>
     <use xlink:href="#DejaVuSans-6e" transform="translate(1015.488281 0)"/>
     <use xlink:href="#DejaVuSans-67" transform="translate(1078.867188 0)"/>
     <use xlink:href="#DejaVuSans-20" transform="translate(1142.34375 0)"/>
     <use xlink:href="#DejaVuSans-54" transform="translate(1174.130859 0)"/>
     <use xlink:href="#DejaVuSans-6f" transform="translate(1218.214844 0)"/>
     <use xlink:href="#DejaVuSans-74" transform="translate(1279.396484 0)"/>
     <use xlink:href="#DejaVuSans-61" transform="translate(1318.605469 0)"/>
     <use xlink:href="#DejaVuSans-6c" transform="translate(1379.884766 0)"/>
     <use xlink:href="#DejaVuSans-20" transform="translate(1407.667969 0)"/>
     <use xlink:href="#DejaVuSans-4c" transform="translate(1439.455078 0)"/>
     <use xlink:href="#DejaVuSans-6f" transform="translate(1493.417969 0)"/>
     <use xlink:href="#DejaVuSans-73" transform="translate(1554.599609 0)"/>
     <use xlink:href="#DejaVuSans-73" transform="translate(1606.699219 0)"/>
    </g>
   </g>
   <g id="legend_1">
    <g id="patch_7">
     <path d="M 97 80.55625 
L 178.610938 80.55625 
Q 180.610938 80.55625 180.610938 78.55625 
L 180.610938 50.2 
Q 180.610938 48.2 178.610938 48.2 
L 97 48.2 
Q 95 48.2 95 50.2 
L 95 78.55625 
Q 95 80.55625 97 80.55625 
z
" style="fill: #ffffff; opacity: 0.8; stroke: #cccccc; stroke-linejoin: miter"/>
    </g>
    <g id="line2d_14">
     <path d="M 99 56.298437 
L 109 56.298437 
L 119 56.298437 
" style="fill: none; stroke: #1f77b4; stroke-width: 1.5; stroke-linecap: square"/>
    </g>
    <g id="text_15">
     <!-- Training -->
     <g transform="translate(127 59.798437) scale(0.1 -0.1)">
      <use xlink:href="#DejaVuSans-54"/>
      <use xlink:href="#DejaVuSans-72" transform="translate(46.333984 0)"/>
      <use xlink:href="#DejaVuSans-61" transform="translate(87.447266 0)"/>
      <use xlink:href="#DejaVuSans-69" transform="translate(148.726562 0)"/>
      <use xlink:href="#DejaVuSans-6e" transform="translate(176.509766 0)"/>
      <use xlink:href="#DejaVuSans-69" transform="translate(239.888672 0)"/>
      <use xlink:href="#DejaVuSans-6e" transform="translate(267.671875 0)"/>
      <use xlink:href="#DejaVuSans-67" transform="translate(331.050781 0)"/>
     </g>
    </g>
    <g id="line2d_15">
     <path d="M 99 70.976562 
L 109 70.976562 
L 119 70.976562 
" style="fill: none; stroke: #ff7f0e; stroke-width: 1.5; stroke-linecap: square"/>
    </g>
    <g id="text_16">
     <!-- Validating -->
     <g transform="translate(127 74.476562) scale(0.1 -0.1)">
      <use xlink:href="#DejaVuSans-56"/>
      <use xlink:href="#DejaVuSans-61" transform="translate(60.658203 0)"/>
      <use xlink:href="#DejaVuSans-6c" transform="translate(121.9375 0)"/>
      <use xlink:href="#DejaVuSans-69" transform="translate(149.720703 0)"/>
      <use xlink:href="#DejaVuSans-64" transform="translate(177.503906 0)"/>
      <use xlink:href="#DejaVuSans-61" transform="translate(240.980469 0)"/>
      <use xlink:href="#DejaVuSans-74" transform="translate(302.259766 0)"/>
      <use xlink:href="#DejaVuSans-69" transform="translate(341.46875 0)"/>
      <use xlink:href="#DejaVuSans-6e" transform="translate(369.251953 0)"/>
      <use xlink:href="#DejaVuSans-67" transform="translate(432.630859 0)"/>
     </g>
    </g>
   </g>
  </g>
 </g>
 <defs>
  <clipPath id="p9f8bef4eef">
   <rect x="90" y="43.2" width="558" height="277.2"/>
  </clipPath>
 </defs>
</svg>
