<?xml version="1.0" encoding="utf-8" standalone="no"?>
<!DOCTYPE svg PUBLIC "-//W3C//DTD SVG 1.1//EN"
  "http://www.w3.org/Graphics/SVG/1.1/DTD/svg11.dtd">
<svg xmlns:xlink="http://www.w3.org/1999/xlink" width="720pt" height="360pt" viewBox="0 0 720 360" xmlns="http://www.w3.org/2000/svg" version="1.1">
 <metadata>
  <rdf:RDF xmlns:dc="http://purl.org/dc/elements/1.1/" xmlns:cc="http://creativecommons.org/ns#" xmlns:rdf="http://www.w3.org/1999/02/22-rdf-syntax-ns#">
   <cc:Work>
    <dc:type rdf:resource="http://purl.org/dc/dcmitype/StillImage"/>
    <dc:date>2026-02-18T07:11:28.296885</dc:date>
    <dc:format>image/svg+xml</dc:format>
    <dc:creator>
     <cc:Agent>
      <dc:title>Matplotlib v3.10.1, https://matplotlib.org/</dc:title>
     </cc:Agent>
    </dc:creator>
   </cc:Work>
  </rdf:RDF>
 </metadata>
 <defs>
  <style type="text/css">*{stroke-linejoin: round; stroke-linecap: butt}</style>
 </defs>
 <g id="figure_1">
  <g id="patch_1">
   <path d="M 0 360 
L 720 360 
L 720 0 
L 0 0 
z
" style="fill: #ffffff"/>
  </g>
  <g id="axes_1">
   <g id="patch_2">
    <path d="M 90 320.4 
L 648 320.4 
L 648 43.2 
L 90 43.2 
z
" style="fill: #ffffff"/>
   </g>
   <g id="matplotlib.axis_1">
    <g id="xtick_1">
     <g id="line2d_1">
      <defs>
       <path id="m006a9bbb33" d="M 0 0 
L 0 3.5 
" style="stroke: #000000; stroke-width: 0.8"/>
      </defs>
      <g>
       <use xlink:href="#m006a9bbb33" x="115.363636" y="320.4" style="stroke: #000000; stroke-width: 0.8"/>
      </g>
     </g>
     <g id="text_1">
      <!-- 0 -->
      <g transform="translate(112.182386 334.998438) scale(0.1 -0.1)">
       <defs>
        <path id="DejaVuSans-30" d="M 2034 4250 
Q 1547 4250 1301 3770 
Q 1056 3291 1056 2328 
Q 1056 1369 1301 889 
Q 1547 409 2034 409 
Q 2525 409 2770 889 
Q 3016 1369 3016 2328 
Q 3016 3291 2770 3770 
Q 2525 4250 2034 4250 
z
M 2034 4750 
Q 2819 4750 3233 4129 
Q 3647 3509 3647 2328 
Q 3647 1150 3233 529 
Q 2819 -91 2034 -91 
Q 1250 -91 836 529 
Q 422 1150 422 2328 
Q 422 3509 836 4129 
Q 1250 4750 2034 4750 
z
" transform="scale(0.015625)"/>
       </defs>
       <use xlink:href="#DejaVuSans-30"/>
      </g>
     </g>
    </g>
    <g id="xtick_2">
     <g id="line2d_2">
      <g>
       <use xlink:href="#m006a9bbb33" x="217.157495" y="320.4" style="stroke: #000000; stroke-width: 0.8"/>
      </g>
     </g>
     <g id="text_2">
      <!-- 60 -->
      <g transform="translate(210.794995 334.998438) scale(0.1 -0.1)">
       <defs>
        <path id="DejaVuSans-36" d="M 2113 2584 
Q 1688 2584 1439 2293 
Q 1191 2003 1191 1497 
Q 1191 994 1439 701 
Q 1688 409 2113 409 
Q 2538 409 2786 701 
Q 3034 994 3034 1497 
Q 3034 2003 2786 2293 
Q 2538 2584 2113 2584 
z
M 3366 4563 
L 3366 3988 
Q 3128 4100 2886 4159 
Q 2644 4219 2406 4219 
Q 1781 4219 1451 3797 
Q 1122 3375 1075 2522 
Q 1259 2794 1537 2939 
Q 1816 3084 2150 3084 
Q 2853 3084 3261 2657 
Q 3669 2231 3669 1497 
Q 3669 778 3244 343 
Q 2819 -91 2113 -91 
Q 1303 -91 875 529 
Q 447 1150 447 2328 
Q 447 3434 972 4092 
Q 1497 4750 2381 4750 
Q 2619 4750 2861 4703 
Q 3103 4656 3366 4563 
z
" transform="scale(0.015625)"/>
       </defs>
       <use xlink:href="#DejaVuSans-36"/>
       <use xlink:href="#DejaVuSans-30" transform="translate(63.623047 0)"/>
      </g>
     </g>
    </g>
    <g id="xtick_3">
     <g id="line2d_3">
      <g>
       <use xlink:href="#m006a9bbb33" x="318.951353" y="320.4" style="stroke: #000000; stroke-width: 0.8"/>
      </g>
     </g>
     <g id="text_3">
      <!-- 120 -->
      <g transform="translate(309.407603 334.998438) scale(0.1 -0.1)">
       <defs>
        <path id="DejaVuSans-31" d="M 794 531 
L 1825 531 
L 1825 4091 
L 703 3866 
L 703 4441 
L 1819 4666 
L 2450 4666 
L 2450 531 
L 3481 531 
L 3481 0 
L 794 0 
L 794 531 
z
" transform="scale(0.015625)"/>
        <path id="DejaVuSans-32" d="M 1228 531 
L 3431 531 
L 3431 0 
L 469 0 
L 469 531 
Q 828 903 1448 1529 
Q 2069 2156 2228 2338 
Q 2531 2678 2651 2914 
Q 2772 3150 2772 3378 
Q 2772 3750 2511 3984 
Q 2250 4219 1831 4219 
Q 1534 4219 1204 4116 
Q 875 4013 500 3803 
L 500 4441 
Q 881 4594 1212 4672 
Q 1544 4750 1819 4750 
Q 2544 4750 2975 4387 
Q 3406 4025 3406 3419 
Q 3406 3131 3298 2873 
Q 3191 2616 2906 2266 
Q 2828 2175 2409 1742 
Q 1991 1309 1228 531 
z
" transform="scale(0.015625)"/>
       </defs>
       <use xlink:href="#DejaVuSans-31"/>
       <use xlink:href="#DejaVuSans-32" transform="translate(63.623047 0)"/>
       <use xlink:href="#DejaVuSans-30" transform="translate(127.246094 0)"/>
      </g>
     </g>
    </g>
    <g id="xtick_4">
     <g id="line2d_4">
      <g>
       <use xlink:href="#m006a9bbb33" x="420.745211" y="320.4" style="stroke: #000000; stroke-width: 0.8"/>
      </g>
     </g>
     <g id="text_4">
      <!-- 180 -->
      <g transform="translate(411.201461 334.998438) scale(0.1 -0.1)">
       <defs>
        <path id="DejaVuSans-38" d="M 2034 2216 
Q 1584 2216 1326 1975 
Q 1069 1734 1069 1313 
Q 1069 891 1326 650 
Q 1584 409 2034 409 
Q 2484 409 2743 651 
Q 3003 894 3003 1313 
Q 3003 1734 2745 1975 
Q 2488 2216 2034 2216 
z
M 1403 2484 
Q 997 2584 770 2862 
Q 544 3141 544 3541 
Q 544 4100 942 4425 
Q 1341 4750 2034 4750 
Q 2731 4750 3128 4425 
Q 3525 4100 3525 3541 
Q 3525 3141 3298 2862 
Q 3072 2584 2669 2484 
Q 3125 2378 3379 2068 
Q 3634 1759 3634 1313 
Q 3634 634 3220 271 
Q 2806 -91 2034 -91 
Q 1263 -91 848 271 
Q 434 634 434 1313 
Q 434 1759 690 2068 
Q 947 2378 1403 2484 
z
M 1172 3481 
Q 1172 3119 1398 2916 
Q 1625 2713 2034 2713 
Q 2441 2713 2670 2916 
Q 2900 3119 2900 3481 
Q 2900 3844 2670 4047 
Q 2441 4250 2034 4250 
Q 1625 4250 1398 4047 
Q 1172 3844 1172 3481 
z
" transform="scale(0.015625)"/>
       </defs>
       <use xlink:href="#DejaVuSans-31"/>
       <use xlink:href="#DejaVuSans-38" transform="translate(63.623047 0)"/>
       <use xlink:href="#DejaVuSans-30" transform="translate(127.246094 0)"/>
      </g>
     </g>
    </g>
    <g id="xtick_5">
     <g id="line2d_5">
      <g>
       <use xlink:href="#m006a9bbb33" x="522.53907" y="320.4" style="stroke: #000000; stroke-width: 0.8"/>
      </g>
     </g>
     <g id="text_5">
      <!-- 240 -->
      <g transform="translate(512.99532 334.998438) scale(0.1 -0.1)">
       <defs>
        <path id="DejaVuSans-34" d="M 2419 4116 
L 825 1625 
L 2419 1625 
L 2419 4116 
z
M 2253 4666 
L 3047 4666 
L 3047 1625 
L 3713 1625 
L 3713 1100 
L 3047 1100 
L 3047 0 
L 2419 0 
L 2419 1100 
L 313 1100 
L 313 1709 
L 2253 4666 
z
" transform="scale(0.015625)"/>
       </defs>
       <use xlink:href="#DejaVuSans-32"/>
       <use xlink:href="#DejaVuSans-34" transform="translate(63.623047 0)"/>
       <use xlink:href="#DejaVuSans-30" transform="translate(127.246094 0)"/>
      </g>
     </g>
    </g>
    <g id="text_6">
     <!-- Epoch -->
     <g transform="translate(353.689062 348.676562) scale(0.1 -0.1)">
      <defs>
       <path id="DejaVuSans-45" d="M 628 4666 
L 3578 4666 
L 3578 4134 
L 1259 4134 
L 1259 2753 
L 3481 2753 
L 3481 2222 
L 1259 2222 
L 1259 531 
L 3634 531 
L 3634 0 
L 628 0 
L 628 4666 
z
" transform="scale(0.015625)"/>
       <path id="DejaVuSans-70" d="M 1159 525 
L 1159 -1331 
L 581 -1331 
L 581 3500 
L 1159 3500 
L 1159 2969 
Q 1341 3281 1617 3432 
Q 1894 3584 2278 3584 
Q 2916 3584 3314 3078 
Q 3713 2572 3713 1747 
Q 3713 922 3314 415 
Q 2916 -91 2278 -91 
Q 1894 -91 1617 61 
Q 1341 213 1159 525 
z
M 3116 1747 
Q 3116 2381 2855 2742 
Q 2594 3103 2138 3103 
Q 1681 3103 1420 2742 
Q 1159 2381 1159 1747 
Q 1159 1113 1420 752 
Q 1681 391 2138 391 
Q 2594 391 2855 752 
Q 3116 1113 3116 1747 
z
" transform="scale(0.015625)"/>
       <path id="DejaVuSans-6f" d="M 1959 3097 
Q 1497 3097 1228 2736 
Q 959 2375 959 1747 
Q 959 1119 1226 758 
Q 1494 397 1959 397 
Q 2419 397 2687 759 
Q 2956 1122 2956 1747 
Q 2956 2369 2687 2733 
Q 2419 3097 1959 3097 
z
M 1959 3584 
Q 2709 3584 3137 3096 
Q 3566 2609 3566 1747 
Q 3566 888 3137 398 
Q 2709 -91 1959 -91 
Q 1206 -91 779 398 
Q 353 888 353 1747 
Q 353 2609 779 3096 
Q 1206 3584 1959 3584 
z
" transform="scale(0.015625)"/>
       <path id="DejaVuSans-63" d="M 3122 3366 
L 3122 2828 
Q 2878 2963 2633 3030 
Q 2388 3097 2138 3097 
Q 1578 3097 1268 2742 
Q 959 2388 959 1747 
Q 959 1106 1268 751 
Q 1578 397 2138 397 
Q 2388 397 2633 464 
Q 2878 531 3122 666 
L 3122 134 
Q 2881 22 2623 -34 
Q 2366 -91 2075 -91 
Q 1284 -91 818 406 
Q 353 903 353 1747 
Q 353 2603 823 3093 
Q 1294 3584 2113 3584 
Q 2378 3584 2631 3529 
Q 2884 3475 3122 3366 
z
" transform="scale(0.015625)"/>
       <path id="DejaVuSans-68" d="M 3513 2113 
L 3513 0 
L 2938 0 
L 2938 2094 
Q 2938 2591 2744 2837 
Q 2550 3084 2163 3084 
Q 1697 3084 1428 2787 
Q 1159 2491 1159 1978 
L 1159 0 
L 581 0 
L 581 4863 
L 1159 4863 
L 1159 2956 
Q 1366 3272 1645 3428 
Q 1925 3584 2291 3584 
Q 2894 3584 3203 3211 
Q 3513 2838 3513 2113 
z
" transform="scale(0.015625)"/>
      </defs>
      <use xlink:href="#DejaVuSans-45"/>
      <use xlink:href="#DejaVuSans-70" transform="translate(63.183594 0)"/>
      <use xlink:href="#DejaVuSans-6f" transform="translate(126.660156 0)"/>
      <use xlink:href="#DejaVuSans-63" transform="translate(187.841797 0)"/>
      <use xlink:href="#DejaVuSans-68" transform="translate(242.822266 0)"/>
     </g>
    </g>
   </g>
   <g id="matplotlib.axis_2">
    <g id="ytick_1">
     <g id="line2d_6">
      <defs>
       <path id="ma22a629e3a" d="M 0 0 
L -3.5 0 
" style="stroke: #000000; stroke-width: 0.8"/>
      </defs>
      <g>
       <use xlink:href="#ma22a629e3a" x="90" y="308.059891" style="stroke: #000000; stroke-width: 0.8"/>
      </g>
     </g>
     <g id="text_7">
      <!-- 0.0 -->
      <g transform="translate(67.096875 311.85911) scale(0.1 -0.1)">
       <defs>
        <path id="DejaVuSans-2e" d="M 684 794 
L 1344 794 
L 1344 0 
L 684 0 
L 684 794 
z
" transform="scale(0.015625)"/>
       </defs>
       <use xlink:href="#DejaVuSans-30"/>
       <use xlink:href="#DejaVuSans-2e" transform="translate(63.623047 0)"/>
       <use xlink:href="#DejaVuSans-30" transform="translate(95.410156 0)"/>
      </g>
     </g>
    </g>
    <g id="ytick_2">
     <g id="line2d_7">
      <g>
       <use xlink:href="#ma22a629e3a" x="90" y="273.191047" style="stroke: #000000; stroke-width: 0.8"/>
      </g>
     </g>
     <g id="text_8">
      <!-- 0.1 -->
      <g transform="translate(67.096875 276.990266) scale(0.1 -0.1)">
       <use xlink:href="#DejaVuSans-30"/>
       <use xlink:href="#DejaVuSans-2e" transform="translate(63.623047 0)"/>
       <use xlink:href="#DejaVuSans-31" transform="translate(95.410156 0)"/>
      </g>
     </g>
    </g>
    <g id="ytick_3">
     <g id="line2d_8">
      <g>
       <use xlink:href="#ma22a629e3a" x="90" y="238.322203" style="stroke: #000000; stroke-width: 0.8"/>
      </g>
     </g>
     <g id="text_9">
      <!-- 0.2 -->
      <g transform="translate(67.096875 242.121422) scale(0.1 -0.1)">
       <use xlink:href="#DejaVuSans-30"/>
       <use xlink:href="#DejaVuSans-2e" transform="translate(63.623047 0)"/>
       <use xlink:href="#DejaVuSans-32" transform="translate(95.410156 0)"/>
      </g>
     </g>
    </g>
    <g id="ytick_4">
     <g id="line2d_9">
      <g>
       <use xlink:href="#ma22a629e3a" x="90" y="203.453359" style="stroke: #000000; stroke-width: 0.8"/>
      </g>
     </g>
     <g id="text_10">
      <!-- 0.3 -->
      <g transform="translate(67.096875 207.252577) scale(0.1 -0.1)">
       <defs>
        <path id="DejaVuSans-33" d="M 2597 2516 
Q 3050 2419 3304 2112 
Q 3559 1806 3559 1356 
Q 3559 666 3084 287 
Q 2609 -91 1734 -91 
Q 1441 -91 1130 -33 
Q 819 25 488 141 
L 488 750 
Q 750 597 1062 519 
Q 1375 441 1716 441 
Q 2309 441 2620 675 
Q 2931 909 2931 1356 
Q 2931 1769 2642 2001 
Q 2353 2234 1838 2234 
L 1294 2234 
L 1294 2753 
L 1863 2753 
Q 2328 2753 2575 2939 
Q 2822 3125 2822 3475 
Q 2822 3834 2567 4026 
Q 2313 4219 1838 4219 
Q 1578 4219 1281 4162 
Q 984 4106 628 3988 
L 628 4550 
Q 988 4650 1302 4700 
Q 1616 4750 1894 4750 
Q 2613 4750 3031 4423 
Q 3450 4097 3450 3541 
Q 3450 3153 3228 2886 
Q 3006 2619 2597 2516 
z
" transform="scale(0.015625)"/>
       </defs>
       <use xlink:href="#DejaVuSans-30"/>
       <use xlink:href="#DejaVuSans-2e" transform="translate(63.623047 0)"/>
       <use xlink:href="#DejaVuSans-33" transform="translate(95.410156 0)"/>
      </g>
     </g>
    </g>
    <g id="ytick_5">
     <g id="line2d_10">
      <g>
       <use xlink:href="#ma22a629e3a" x="90" y="168.584514" style="stroke: #000000; stroke-width: 0.8"/>
      </g>
     </g>
     <g id="text_11">
      <!-- 0.4 -->
      <g transform="translate(67.096875 172.383733) scale(0.1 -0.1)">
       <use xlink:href="#DejaVuSans-30"/>
       <use xlink:href="#DejaVuSans-2e" transform="translate(63.623047 0)"/>
       <use xlink:href="#DejaVuSans-34" transform="translate(95.410156 0)"/>
      </g>
     </g>
    </g>
    <g id="ytick_6">
     <g id="line2d_11">
      <g>
       <use xlink:href="#ma22a629e3a" x="90" y="133.71567" style="stroke: #000000; stroke-width: 0.8"/>
      </g>
     </g>
     <g id="text_12">
      <!-- 0.5 -->
      <g transform="translate(67.096875 137.514889) scale(0.1 -0.1)">
       <defs>
        <path id="DejaVuSans-35" d="M 691 4666 
L 3169 4666 
L 3169 4134 
L 1269 4134 
L 1269 2991 
Q 1406 3038 1543 3061 
Q 1681 3084 1819 3084 
Q 2600 3084 3056 2656 
Q 3513 2228 3513 1497 
Q 3513 744 3044 326 
Q 2575 -91 1722 -91 
Q 1428 -91 1123 -41 
Q 819 9 494 109 
L 494 744 
Q 775 591 1075 516 
Q 1375 441 1709 441 
Q 2250 441 2565 725 
Q 2881 1009 2881 1497 
Q 2881 1984 2565 2268 
Q 2250 2553 1709 2553 
Q 1456 2553 1204 2497 
Q 953 2441 691 2322 
L 691 4666 
z
" transform="scale(0.015625)"/>
       </defs>
       <use xlink:href="#DejaVuSans-30"/>
       <use xlink:href="#DejaVuSans-2e" transform="translate(63.623047 0)"/>
       <use xlink:href="#DejaVuSans-35" transform="translate(95.410156 0)"/>
      </g>
     </g>
    </g>
    <g id="ytick_7">
     <g id="line2d_12">
      <g>
       <use xlink:href="#ma22a629e3a" x="90" y="98.846826" style="stroke: #000000; stroke-width: 0.8"/>
      </g>
     </g>
     <g id="text_13">
      <!-- 0.6 -->
      <g transform="translate(67.096875 102.646045) scale(0.1 -0.1)">
       <use xlink:href="#DejaVuSans-30"/>
       <use xlink:href="#DejaVuSans-2e" transform="translate(63.623047 0)"/>
       <use xlink:href="#DejaVuSans-36" transform="translate(95.410156 0)"/>
      </g>
     </g>
    </g>
    <g id="ytick_8">
     <g id="line2d_13">
      <g>
       <use xlink:href="#ma22a629e3a" x="90" y="63.977982" style="stroke: #000000; stroke-width: 0.8"/>
      </g>
     </g>
     <g id="text_14">
      <!-- 0.7 -->
      <g transform="translate(67.096875 67.7772) scale(0.1 -0.1)">
       <defs>
        <path id="DejaVuSans-37" d="M 525 4666 
L 3525 4666 
L 3525 4397 
L 1831 0 
L 1172 0 
L 2766 4134 
L 525 4134 
L 525 4666 
z
" transform="scale(0.015625)"/>
       </defs>
       <use xlink:href="#DejaVuSans-30"/>
       <use xlink:href="#DejaVuSans-2e" transform="translate(63.623047 0)"/>
       <use xlink:href="#DejaVuSans-37" transform="translate(95.410156 0)"/>
      </g>
     </g>
    </g>
    <g id="text_15">
     <!-- NMSE -->
     <g transform="translate(61.017187 196.188281) rotate(-90) scale(0.1 -0.1)">
      <defs>
       <path id="DejaVuSans-4e" d="M 628 4666 
L 1478 4666 
L 3547 763 
L 3547 4666 
L 4159 4666 
L 4159 0 
L 3309 0 
L 1241 3903 
L 1241 0 
L 628 0 
L 628 4666 
z
" transform="scale(0.015625)"/>
       <path id="DejaVuSans-4d" d="M 628 4666 
L 1569 4666 
L 2759 1491 
L 3956 4666 
L 4897 4666 
L 4897 0 
L 4281 0 
L 4281 4097 
L 3078 897 
L 2444 897 
L 1241 4097 
L 1241 0 
L 628 0 
L 628 4666 
z
" transform="scale(0.015625)"/>
       <path id="DejaVuSans-53" d="M 3425 4513 
L 3425 3897 
Q 3066 4069 2747 4153 
Q 2428 4238 2131 4238 
Q 1616 4238 1336 4038 
Q 1056 3838 1056 3469 
Q 1056 3159 1242 3001 
Q 1428 2844 1947 2747 
L 2328 2669 
Q 3034 2534 3370 2195 
Q 3706 1856 3706 1288 
Q 3706 609 3251 259 
Q 2797 -91 1919 -91 
Q 1588 -91 1214 -16 
Q 841 59 441 206 
L 441 856 
Q 825 641 1194 531 
Q 1563 422 1919 422 
Q 2459 422 2753 634 
Q 3047 847 3047 1241 
Q 3047 1584 2836 1778 
Q 2625 1972 2144 2069 
L 1759 2144 
Q 1053 2284 737 2584 
Q 422 2884 422 3419 
Q 422 4038 858 4394 
Q 1294 4750 2059 4750 
Q 2388 4750 2728 4690 
Q 3069 4631 3425 4513 
z
" transform="scale(0.015625)"/>
      </defs>
      <use xlink:href="#DejaVuSans-4e"/>
      <use xlink:href="#DejaVuSans-4d" transform="translate(74.804688 0)"/>
      <use xlink:href="#DejaVuSans-53" transform="translate(161.083984 0)"/>
      <use xlink:href="#DejaVuSans-45" transform="translate(224.560547 0)"/>
     </g>
    </g>
   </g>
   <g id="line2d_14">
    <path d="M 115.363636 269.380585 
L 117.060201 292.407066 
L 118.756765 289.25507 
L 120.453329 297.272377 
L 122.149894 296.2629 
L 123.846458 298.617893 
L 125.543022 299.414867 
L 127.239587 301.153797 
L 128.936151 299.567683 
L 130.632715 300.207319 
L 132.329279 299.793239 
L 134.025844 301.331327 
L 135.722408 300.215836 
L 137.418972 303.312496 
L 139.115537 303.417301 
L 140.812101 303.293317 
L 142.508665 302.474672 
L 144.20523 302.873997 
L 145.901794 303.670969 
L 147.598358 303.986372 
L 149.294922 304.591561 
L 150.991487 304.35046 
L 152.688051 303.986749 
L 154.384615 303.997476 
L 156.08118 304.65128 
L 157.777744 305.103538 
L 159.474308 305.194829 
L 161.170873 304.86244 
L 162.867437 305.518614 
L 164.564001 305.581362 
L 166.260566 305.439774 
L 167.95713 305.874995 
L 169.653694 305.297175 
L 171.350258 305.568184 
L 173.046823 305.725684 
L 174.743387 305.662317 
L 176.439951 305.930042 
L 178.136516 305.975785 
L 179.83308 306.171107 
L 181.529644 306.185695 
L 183.226209 306.455778 
L 184.922773 306.309418 
L 186.619337 306.607843 
L 188.315901 306.50794 
L 190.012466 306.289224 
L 191.70903 306.504285 
L 193.405594 306.554982 
L 195.102159 306.329683 
L 198.495287 306.658167 
L 201.888416 306.740611 
L 208.674673 306.879698 
L 210.371237 306.676735 
L 212.067802 306.890312 
L 213.764366 306.967208 
L 220.550623 306.876111 
L 222.247188 306.939927 
L 223.943752 306.873315 
L 225.640316 307.098409 
L 229.033445 307.015763 
L 230.730009 307.099743 
L 232.426573 307.019397 
L 234.123138 307.084033 
L 235.819702 306.990437 
L 237.516266 307.125721 
L 239.212831 307.006116 
L 242.605959 307.00316 
L 244.302524 306.79164 
L 245.999088 307.097444 
L 247.695652 306.918815 
L 249.392216 307.175359 
L 254.481909 307.078739 
L 257.875038 307.249861 
L 264.661295 307.247394 
L 273.144117 307.284826 
L 281.626938 307.357771 
L 293.502888 307.375687 
L 295.199453 307.109571 
L 296.896017 307.377836 
L 305.378839 307.397915 
L 317.254789 307.453451 
L 320.647917 307.403684 
L 332.523867 307.42594 
L 357.972332 307.565529 
L 364.758589 307.545887 
L 369.848282 307.582832 
L 380.027668 307.578294 
L 385.117361 307.606364 
L 393.600182 307.607191 
L 398.689875 307.599304 
L 405.476133 307.619881 
L 602.277592 307.782561 
L 603.974156 307.702674 
L 607.367285 307.791097 
L 614.153542 307.719126 
L 617.546671 307.780399 
L 620.939799 307.785015 
L 622.636364 307.782062 
L 622.636364 307.782062 
" clip-path="url(#pf3a61b5619)" style="fill: none; stroke: #1f77b4; stroke-width: 1.5; stroke-linecap: square"/>
   </g>
   <g id="line2d_15">
    <path d="M 115.363636 55.8 
L 117.060201 167.594244 
L 118.756765 172.939623 
L 120.453329 204.570993 
L 122.149894 195.636466 
L 123.846458 214.076927 
L 125.543022 212.541652 
L 127.239587 223.613502 
L 128.936151 216.973389 
L 130.632715 218.673847 
L 132.329279 221.029273 
L 134.025844 224.321859 
L 135.722408 224.099858 
L 137.418972 235.751405 
L 139.115537 237.355052 
L 140.812101 236.399399 
L 142.508665 231.680742 
L 144.20523 236.867187 
L 145.901794 238.232807 
L 147.598358 241.326559 
L 149.294922 242.96179 
L 150.991487 242.765047 
L 152.688051 241.38578 
L 154.384615 242.10076 
L 156.08118 245.500352 
L 157.777744 247.313118 
L 159.474308 248.17042 
L 161.170873 247.999652 
L 162.867437 249.277322 
L 164.564001 250.874193 
L 166.260566 249.338677 
L 167.95713 251.691642 
L 169.653694 247.334711 
L 171.350258 248.358578 
L 174.743387 250.877849 
L 176.439951 251.214859 
L 178.136516 253.432209 
L 179.83308 254.104369 
L 181.529644 253.22629 
L 183.226209 256.908627 
L 184.922773 254.317331 
L 186.619337 257.046722 
L 188.315901 256.797168 
L 190.012466 254.245431 
L 191.70903 256.316333 
L 193.405594 256.691426 
L 195.102159 258.999939 
L 196.798723 256.400308 
L 198.495287 259.140286 
L 200.191852 260.03908 
L 201.888416 259.715597 
L 203.58498 259.732881 
L 205.281545 260.935293 
L 206.978109 259.533783 
L 208.674673 260.686963 
L 210.371237 261.051882 
L 212.067802 261.801095 
L 213.764366 261.820844 
L 215.46093 261.478622 
L 217.157495 262.255117 
L 218.854059 262.731467 
L 220.550623 261.321529 
L 222.247188 261.711242 
L 223.943752 260.97162 
L 225.640316 263.922102 
L 227.336881 264.40217 
L 230.730009 264.507905 
L 232.426573 264.747804 
L 234.123138 264.398529 
L 235.819702 265.352385 
L 237.516266 265.570808 
L 239.212831 263.417228 
L 240.909395 264.113686 
L 244.302524 262.912292 
L 245.999088 264.057459 
L 247.695652 264.116192 
L 249.392216 265.449842 
L 251.088781 267.093503 
L 252.785345 265.579152 
L 254.481909 264.495475 
L 256.178474 266.237199 
L 257.875038 266.090721 
L 259.571602 266.608479 
L 261.268167 265.43403 
L 262.964731 264.746777 
L 264.661295 267.102179 
L 266.35786 267.910117 
L 268.054424 266.813873 
L 269.750988 266.385855 
L 271.447552 267.170212 
L 273.144117 266.947761 
L 274.840681 266.521903 
L 276.537245 268.882836 
L 278.23381 266.957572 
L 279.930374 266.988825 
L 283.323503 268.419447 
L 285.020067 268.18807 
L 286.716631 268.236712 
L 288.413196 266.77438 
L 290.10976 266.890672 
L 291.806324 268.056446 
L 293.502888 268.469341 
L 295.199453 265.861806 
L 296.896017 269.016846 
L 298.592581 269.003025 
L 300.289146 267.318564 
L 301.98571 269.255403 
L 303.682274 268.911212 
L 305.378839 268.856072 
L 307.075403 268.989705 
L 308.771967 267.670135 
L 310.468531 268.520628 
L 312.165096 267.029537 
L 313.86166 268.1403 
L 315.558224 267.675067 
L 317.254789 269.11152 
L 318.951353 269.284729 
L 320.647917 268.461741 
L 322.344482 267.0407 
L 324.041046 270.007991 
L 325.73761 268.006784 
L 327.434175 267.583814 
L 329.130739 268.002446 
L 330.827303 269.58087 
L 332.523867 268.71392 
L 334.220432 268.833241 
L 335.916996 267.834397 
L 337.61356 269.075983 
L 339.310125 269.08465 
L 341.006689 267.745575 
L 342.703253 269.055525 
L 344.399818 270.571334 
L 346.096382 269.860298 
L 347.792946 268.540489 
L 349.48951 269.05696 
L 351.186075 270.923338 
L 352.882639 268.424704 
L 354.579203 269.299373 
L 356.275768 270.94441 
L 357.972332 271.287065 
L 359.668896 268.864614 
L 361.365461 268.845171 
L 363.062025 269.71993 
L 364.758589 269.566118 
L 369.848282 269.872367 
L 371.544846 270.043166 
L 373.241411 269.891226 
L 374.937975 269.091044 
L 376.634539 271.032654 
L 378.331104 269.795624 
L 380.027668 269.781744 
L 381.724232 269.93451 
L 383.420797 270.84704 
L 385.117361 269.804802 
L 388.51049 270.095675 
L 390.207054 268.919162 
L 391.903618 270.337909 
L 393.600182 269.755874 
L 395.296747 270.6416 
L 398.689875 270.045138 
L 400.38644 270.187719 
L 402.083004 270.722926 
L 403.779568 268.913677 
L 405.476133 269.501177 
L 407.172697 271.117505 
L 408.869261 270.128344 
L 410.565825 270.573514 
L 412.26239 270.180356 
L 413.958954 270.056595 
L 415.655518 270.767127 
L 417.352083 269.195279 
L 419.048647 270.586909 
L 420.745211 270.454496 
L 422.441776 270.898942 
L 424.13834 269.741506 
L 425.834904 270.124727 
L 427.531469 270.781873 
L 429.228033 270.541232 
L 430.924597 269.995311 
L 432.621161 270.19942 
L 434.317726 269.872694 
L 439.407419 271.511078 
L 441.103983 270.55184 
L 442.800547 270.329893 
L 444.497112 269.811649 
L 446.193676 271.57519 
L 449.586804 270.109346 
L 451.283369 270.465261 
L 452.979933 270.337909 
L 454.676497 270.987534 
L 456.373062 270.701055 
L 458.069626 271.430341 
L 459.76619 270.082101 
L 461.462755 270.979662 
L 463.159319 270.496477 
L 464.855883 270.360109 
L 466.552448 271.08668 
L 468.249012 270.128746 
L 469.945576 270.515899 
L 471.64214 270.292412 
L 473.338705 270.90722 
L 475.035269 270.921208 
L 476.731833 270.409901 
L 478.428398 271.391785 
L 480.124962 270.700522 
L 481.821526 271.084622 
L 485.214655 270.444704 
L 488.607784 270.572719 
L 490.304348 271.266825 
L 492.000912 270.329994 
L 493.697476 270.887365 
L 495.394041 270.758248 
L 497.090605 270.379105 
L 498.787169 270.752003 
L 500.483734 270.768952 
L 502.180298 270.278373 
L 503.876862 270.986928 
L 505.573427 271.204993 
L 507.269991 270.946554 
L 508.966555 270.336645 
L 510.663119 271.266273 
L 512.359684 270.922132 
L 514.056248 271.853935 
L 515.752812 271.044937 
L 517.449377 272.364538 
L 519.145941 270.956257 
L 520.842505 271.111073 
L 522.53907 271.071109 
L 524.235634 270.889772 
L 525.932198 271.433279 
L 527.628763 271.686354 
L 529.325327 271.216326 
L 531.021891 271.330726 
L 532.718455 271.219682 
L 534.41502 271.857764 
L 536.111584 271.189927 
L 537.808148 271.6865 
L 539.504713 271.227611 
L 541.201277 271.654313 
L 542.897841 271.873467 
L 544.594406 270.790496 
L 546.29097 271.457911 
L 547.987534 271.475161 
L 549.684099 272.26482 
L 553.077227 271.596662 
L 554.773791 271.476808 
L 556.470356 271.243796 
L 558.16692 271.90083 
L 559.863484 272.425668 
L 561.560049 272.427581 
L 563.256613 271.483335 
L 564.953177 271.549153 
L 566.649742 271.472591 
L 568.346306 271.92695 
L 570.04287 271.399091 
L 571.739434 272.377638 
L 573.435999 271.722986 
L 575.132563 271.397544 
L 580.222256 271.980665 
L 581.91882 272.545215 
L 583.615385 272.211016 
L 585.311949 271.42443 
L 587.008513 271.311853 
L 588.705078 272.095621 
L 590.401642 270.994513 
L 592.098206 272.015862 
L 593.79477 271.754691 
L 595.491335 271.818865 
L 597.187899 271.995621 
L 598.884463 272.340076 
L 600.581028 272.037804 
L 602.277592 271.587242 
L 603.974156 271.90297 
L 605.670721 272.101507 
L 609.063849 271.984322 
L 612.456978 271.49998 
L 614.153542 271.851026 
L 617.546671 271.55406 
L 619.243235 272.122122 
L 620.939799 272.161302 
L 622.636364 272.036823 
L 622.636364 272.036823 
" clip-path="url(#pf3a61b5619)" style="fill: none; stroke: #ff7f0e; stroke-width: 1.5; stroke-linecap: square"/>
   </g>
   <g id="patch_3">
    <path d="M 90 320.4 
L 90 43.2 
" style="fill: none; stroke: #000000; stroke-width: 0.8; stroke-linejoin: miter; stroke-linecap: square"/>
   </g>
   <g id="patch_4">
    <path d="M 648 320.4 
L 648 43.2 
" style="fill: none; stroke: #000000; stroke-width: 0.8; stroke-linejoin: miter; stroke-linecap: square"/>
   </g>
   <g id="patch_5">
    <path d="M 90 320.4 
L 648 320.4 
" style="fill: none; stroke: #000000; stroke-width: 0.8; stroke-linejoin: miter; stroke-linecap: square"/>
   </g>
   <g id="patch_6">
    <path d="M 90 43.2 
L 648 43.2 
" style="fill: none; stroke: #000000; stroke-width: 0.8; stroke-linejoin: miter; stroke-linecap: square"/>
   </g>
   <g id="text_16">
    <!-- NMSE in Validation -->
    <g transform="translate(312.822187 37.2) scale(0.12 -0.12)">
     <defs>
      <path id="DejaVuSans-20" transform="scale(0.015625)"/>
      <path id="DejaVuSans-69" d="M 603 3500 
L 1178 3500 
L 1178 0 
L 603 0 
L 603 3500 
z
M 603 4863 
L 1178 4863 
L 1178 4134 
L 603 4134 
L 603 4863 
z
" transform="scale(0.015625)"/>
      <path id="DejaVuSans-6e" d="M 3513 2113 
L 3513 0 
L 2938 0 
L 2938 2094 
Q 2938 2591 2744 2837 
Q 2550 3084 2163 3084 
Q 1697 3084 1428 2787 
Q 1159 2491 1159 1978 
L 1159 0 
L 581 0 
L 581 3500 
L 1159 3500 
L 1159 2956 
Q 1366 3272 1645 3428 
Q 1925 3584 2291 3584 
Q 2894 3584 3203 3211 
Q 3513 2838 3513 2113 
z
" transform="scale(0.015625)"/>
      <path id="DejaVuSans-56" d="M 1831 0 
L 50 4666 
L 709 4666 
L 2188 738 
L 3669 4666 
L 4325 4666 
L 2547 0 
L 1831 0 
z
" transform="scale(0.015625)"/>
      <path id="DejaVuSans-61" d="M 2194 1759 
Q 1497 1759 1228 1600 
Q 959 1441 959 1056 
Q 959 750 1161 570 
Q 1363 391 1709 391 
Q 2188 391 2477 730 
Q 2766 1069 2766 1631 
L 2766 1759 
L 2194 1759 
z
M 3341 1997 
L 3341 0 
L 2766 0 
L 2766 531 
Q 2569 213 2275 61 
Q 1981 -91 1556 -91 
Q 1019 -91 701 211 
Q 384 513 384 1019 
Q 384 1609 779 1909 
Q 1175 2209 1959 2209 
L 2766 2209 
L 2766 2266 
Q 2766 2663 2505 2880 
Q 2244 3097 1772 3097 
Q 1472 3097 1187 3025 
Q 903 2953 641 2809 
L 641 3341 
Q 956 3463 1253 3523 
Q 1550 3584 1831 3584 
Q 2591 3584 2966 3190 
Q 3341 2797 3341 1997 
z
" transform="scale(0.015625)"/>
      <path id="DejaVuSans-6c" d="M 603 4863 
L 1178 4863 
L 1178 0 
L 603 0 
L 603 4863 
z
" transform="scale(0.015625)"/>
      <path id="DejaVuSans-64" d="M 2906 2969 
L 2906 4863 
L 3481 4863 
L 3481 0 
L 2906 0 
L 2906 525 
Q 2725 213 2448 61 
Q 2172 -91 1784 -91 
Q 1150 -91 751 415 
Q 353 922 353 1747 
Q 353 2572 751 3078 
Q 1150 3584 1784 3584 
Q 2172 3584 2448 3432 
Q 2725 3281 2906 2969 
z
M 947 1747 
Q 947 1113 1208 752 
Q 1469 391 1925 391 
Q 2381 391 2643 752 
Q 2906 1113 2906 1747 
Q 2906 2381 2643 2742 
Q 2381 3103 1925 3103 
Q 1469 3103 1208 2742 
Q 947 2381 947 1747 
z
" transform="scale(0.015625)"/>
      <path id="DejaVuSans-74" d="M 1172 4494 
L 1172 3500 
L 2356 3500 
L 2356 3053 
L 1172 3053 
L 1172 1153 
Q 1172 725 1289 603 
Q 1406 481 1766 481 
L 2356 481 
L 2356 0 
L 1766 0 
Q 1100 0 847 248 
Q 594 497 594 1153 
L 594 3053 
L 172 3053 
L 172 3500 
L 594 3500 
L 594 4494 
L 1172 4494 
z
" transform="scale(0.015625)"/>
     </defs>
     <use xlink:href="#DejaVuSans-4e"/>
     <use xlink:href="#DejaVuSans-4d" transform="translate(74.804688 0)"/>
     <use xlink:href="#DejaVuSans-53" transform="translate(161.083984 0)"/>
     <use xlink:href="#DejaVuSans-45" transform="translate(224.560547 0)"/>
     <use xlink:href="#DejaVuSans-20" transform="translate(287.744141 0)"/>
     <use xlink:href="#DejaVuSans-69" transform="translate(319.53125 0)"/>
     <use xlink:href="#DejaVuSans-6e" transform="translate(347.314453 0)"/>
     <use xlink:href="#DejaVuSans-20" transform="translate(410.693359 0)"/>
     <use xlink:href="#DejaVuSans-56" transform="translate(442.480469 0)"/>
     <use xlink:href="#DejaVuSans-61" transform="translate(503.138672 0)"/>
     <use xlink:href="#DejaVuSans-6c" transform="translate(564.417969 0)"/>
     <use xlink:href="#DejaVuSans-69" transform="translate(592.201172 0)"/>
     <use xlink:href="#DejaVuSans-64" transform="translate(619.984375 0)"/>
     <use xlink:href="#DejaVuSans-61" transform="translate(683.460938 0)"/>
     <use xlink:href="#DejaVuSans-74" transform="translate(744.740234 0)"/>
     <use xlink:href="#DejaVuSans-69" transform="translate(783.949219 0)"/>
     <use xlink:href="#DejaVuSans-6f" transform="translate(811.732422 0)"/>
     <use xlink:href="#DejaVuSans-6e" transform="translate(872.914062 0)"/>
    </g>
   </g>
   <g id="legend_1">
    <g id="patch_7">
     <path d="M 532.676563 80.55625 
L 641 80.55625 
Q 643 80.55625 643 78.55625 
L 643 50.2 
Q 643 48.2 641 48.2 
L 532.676563 48.2 
Q 530.676563 48.2 530.676563 50.2 
L 530.676563 78.55625 
Q 530.676563 80.55625 532.676563 80.55625 
z
" style="fill: #ffffff; opacity: 0.8; stroke: #cccccc; stroke-linejoin: miter"/>
    </g>
    <g id="line2d_16">
     <path d="M 534.676563 56.298437 
L 544.676563 56.298437 
L 554.676563 56.298437 
" style="fill: none; stroke: #1f77b4; stroke-width: 1.5; stroke-linecap: square"/>
    </g>
    <g id="text_17">
     <!-- Source Domain -->
     <g transform="translate(562.676563 59.798437) scale(0.1 -0.1)">
      <defs>
       <path id="DejaVuSans-75" d="M 544 1381 
L 544 3500 
L 1119 3500 
L 1119 1403 
Q 1119 906 1312 657 
Q 1506 409 1894 409 
Q 2359 409 2629 706 
Q 2900 1003 2900 1516 
L 2900 3500 
L 3475 3500 
L 3475 0 
L 2900 0 
L 2900 538 
Q 2691 219 2414 64 
Q 2138 -91 1772 -91 
Q 1169 -91 856 284 
Q 544 659 544 1381 
z
M 1991 3584 
L 1991 3584 
z
" transform="scale(0.015625)"/>
       <path id="DejaVuSans-72" d="M 2631 2963 
Q 2534 3019 2420 3045 
Q 2306 3072 2169 3072 
Q 1681 3072 1420 2755 
Q 1159 2438 1159 1844 
L 1159 0 
L 581 0 
L 581 3500 
L 1159 3500 
L 1159 2956 
Q 1341 3275 1631 3429 
Q 1922 3584 2338 3584 
Q 2397 3584 2469 3576 
Q 2541 3569 2628 3553 
L 2631 2963 
z
" transform="scale(0.015625)"/>
       <path id="DejaVuSans-65" d="M 3597 1894 
L 3597 1613 
L 953 1613 
Q 991 1019 1311 708 
Q 1631 397 2203 397 
Q 2534 397 2845 478 
Q 3156 559 3463 722 
L 3463 178 
Q 3153 47 2828 -22 
Q 2503 -91 2169 -91 
Q 1331 -91 842 396 
Q 353 884 353 1716 
Q 353 2575 817 3079 
Q 1281 3584 2069 3584 
Q 2775 3584 3186 3129 
Q 3597 2675 3597 1894 
z
M 3022 2063 
Q 3016 2534 2758 2815 
Q 2500 3097 2075 3097 
Q 1594 3097 1305 2825 
Q 1016 2553 972 2059 
L 3022 2063 
z
" transform="scale(0.015625)"/>
       <path id="DejaVuSans-44" d="M 1259 4147 
L 1259 519 
L 2022 519 
Q 2988 519 3436 956 
Q 3884 1394 3884 2338 
Q 3884 3275 3436 3711 
Q 2988 4147 2022 4147 
L 1259 4147 
z
M 628 4666 
L 1925 4666 
Q 3281 4666 3915 4102 
Q 4550 3538 4550 2338 
Q 4550 1131 3912 565 
Q 3275 0 1925 0 
L 628 0 
L 628 4666 
z
" transform="scale(0.015625)"/>
       <path id="DejaVuSans-6d" d="M 3328 2828 
Q 3544 3216 3844 3400 
Q 4144 3584 4550 3584 
Q 5097 3584 5394 3201 
Q 5691 2819 5691 2113 
L 5691 0 
L 5113 0 
L 5113 2094 
Q 5113 2597 4934 2840 
Q 4756 3084 4391 3084 
Q 3944 3084 3684 2787 
Q 3425 2491 3425 1978 
L 3425 0 
L 2847 0 
L 2847 2094 
Q 2847 2600 2669 2842 
Q 2491 3084 2119 3084 
Q 1678 3084 1418 2786 
Q 1159 2488 1159 1978 
L 1159 0 
L 581 0 
L 581 3500 
L 1159 3500 
L 1159 2956 
Q 1356 3278 1631 3431 
Q 1906 3584 2284 3584 
Q 2666 3584 2933 3390 
Q 3200 3197 3328 2828 
z
" transform="scale(0.015625)"/>
      </defs>
      <use xlink:href="#DejaVuSans-53"/>
      <use xlink:href="#DejaVuSans-6f" transform="translate(63.476562 0)"/>
      <use xlink:href="#DejaVuSans-75" transform="translate(124.658203 0)"/>
      <use xlink:href="#DejaVuSans-72" transform="translate(188.037109 0)"/>
      <use xlink:href="#DejaVuSans-63" transform="translate(226.900391 0)"/>
      <use xlink:href="#DejaVuSans-65" transform="translate(281.880859 0)"/>
      <use xlink:href="#DejaVuSans-20" transform="translate(343.404297 0)"/>
      <use xlink:href="#DejaVuSans-44" transform="translate(375.191406 0)"/>
      <use xlink:href="#DejaVuSans-6f" transform="translate(452.193359 0)"/>
      <use xlink:href="#DejaVuSans-6d" transform="translate(513.375 0)"/>
      <use xlink:href="#DejaVuSans-61" transform="translate(610.787109 0)"/>
      <use xlink:href="#DejaVuSans-69" transform="translate(672.066406 0)"/>
      <use xlink:href="#DejaVuSans-6e" transform="translate(699.849609 0)"/>
     </g>
    </g>
    <g id="line2d_17">
     <path d="M 534.676563 70.976562 
L 544.676563 70.976562 
L 554.676563 70.976562 
" style="fill: none; stroke: #ff7f0e; stroke-width: 1.5; stroke-linecap: square"/>
    </g>
    <g id="text_18">
     <!-- Target Domain -->
     <g transform="translate(562.676563 74.476562) scale(0.1 -0.1)">
      <defs>
       <path id="DejaVuSans-54" d="M -19 4666 
L 3928 4666 
L 3928 4134 
L 2272 4134 
L 2272 0 
L 1638 0 
L 1638 4134 
L -19 4134 
L -19 4666 
z
" transform="scale(0.015625)"/>
       <path id="DejaVuSans-67" d="M 2906 1791 
Q 2906 2416 2648 2759 
Q 2391 3103 1925 3103 
Q 1463 3103 1205 2759 
Q 947 2416 947 1791 
Q 947 1169 1205 825 
Q 1463 481 1925 481 
Q 2391 481 2648 825 
Q 2906 1169 2906 1791 
z
M 3481 434 
Q 3481 -459 3084 -895 
Q 2688 -1331 1869 -1331 
Q 1566 -1331 1297 -1286 
Q 1028 -1241 775 -1147 
L 775 -588 
Q 1028 -725 1275 -790 
Q 1522 -856 1778 -856 
Q 2344 -856 2625 -561 
Q 2906 -266 2906 331 
L 2906 616 
Q 2728 306 2450 153 
Q 2172 0 1784 0 
Q 1141 0 747 490 
Q 353 981 353 1791 
Q 353 2603 747 3093 
Q 1141 3584 1784 3584 
Q 2172 3584 2450 3431 
Q 2728 3278 2906 2969 
L 2906 3500 
L 3481 3500 
L 3481 434 
z
" transform="scale(0.015625)"/>
      </defs>
      <use xlink:href="#DejaVuSans-54"/>
      <use xlink:href="#DejaVuSans-61" transform="translate(44.583984 0)"/>
      <use xlink:href="#DejaVuSans-72" transform="translate(105.863281 0)"/>
      <use xlink:href="#DejaVuSans-67" transform="translate(145.226562 0)"/>
      <use xlink:href="#DejaVuSans-65" transform="translate(208.703125 0)"/>
      <use xlink:href="#DejaVuSans-74" transform="translate(270.226562 0)"/>
      <use xlink:href="#DejaVuSans-20" transform="translate(309.435547 0)"/>
      <use xlink:href="#DejaVuSans-44" transform="translate(341.222656 0)"/>
      <use xlink:href="#DejaVuSans-6f" transform="translate(418.224609 0)"/>
      <use xlink:href="#DejaVuSans-6d" transform="translate(479.40625 0)"/>
      <use xlink:href="#DejaVuSans-61" transform="translate(576.818359 0)"/>
      <use xlink:href="#DejaVuSans-69" transform="translate(638.097656 0)"/>
      <use xlink:href="#DejaVuSans-6e" transform="translate(665.880859 0)"/>
     </g>
    </g>
   </g>
  </g>
 </g>
 <defs>
  <clipPath id="pf3a61b5619">
   <rect x="90" y="43.2" width="558" height="277.2"/>
  </clipPath>
 </defs>
</svg>
