<?xml version="1.0" encoding="utf-8" standalone="no"?>
<!DOCTYPE svg PUBLIC "-//W3C//DTD SVG 1.1//EN"
  "http://www.w3.org/Graphics/SVG/1.1/DTD/svg11.dtd">
<svg xmlns:xlink="http://www.w3.org/1999/xlink" width="720pt" height="360pt" viewBox="0 0 720 360" xmlns="http://www.w3.org/2000/svg" version="1.1">
 <metadata>
  <rdf:RDF xmlns:dc="http://purl.org/dc/elements/1.1/" xmlns:cc="http://creativecommons.org/ns#" xmlns:rdf="http://www.w3.org/1999/02/22-rdf-syntax-ns#">
   <cc:Work>
    <dc:type rdf:resource="http://purl.org/dc/dcmitype/StillImage"/>
    <dc:date>2026-02-27T21:09:50.483016</dc:date>
    <dc:format>image/svg+xml</dc:format>
    <dc:creator>
     <cc:Agent>
      <dc:title>Matplotlib v3.10.1, https://matplotlib.org/</dc:title>
     </cc:Agent>
    </dc:creator>
   </cc:Work>
  </rdf:RDF>
 </metadata>
 <defs>
  <style type="text/css">*{stroke-linejoin: round; stroke-linecap: butt}</style>
 </defs>
 <g id="figure_1">
  <g id="patch_1">
   <path d="M 0 360 
L 720 360 
L 720 0 
L 0 0 
z
" style="fill: #ffffff"/>
  </g>
  <g id="axes_1">
   <g id="patch_2">
    <path d="M 90 320.4 
L 648 320.4 
L 648 43.2 
L 90 43.2 
z
" style="fill: #ffffff"/>
   </g>
   <g id="matplotlib.axis_1">
    <g id="xtick_1">
     <g id="line2d_1">
      <defs>
       <path id="md9a1a344e0" d="M 0 0 
L 0 3.5 
" style="stroke: #000000; stroke-width: 0.8"/>
      </defs>
      <g>
       <use xlink:href="#md9a1a344e0" x="115.363636" y="320.4" style="stroke: #000000; stroke-width: 0.8"/>
      </g>
     </g>
     <g id="text_1">
      <!-- 0 -->
      <g transform="translate(112.182386 334.998438) scale(0.1 -0.1)">
       <defs>
        <path id="DejaVuSans-30" d="M 2034 4250 
Q 1547 4250 1301 3770 
Q 1056 3291 1056 2328 
Q 1056 1369 1301 889 
Q 1547 409 2034 409 
Q 2525 409 2770 889 
Q 3016 1369 3016 2328 
Q 3016 3291 2770 3770 
Q 2525 4250 2034 4250 
z
M 2034 4750 
Q 2819 4750 3233 4129 
Q 3647 3509 3647 2328 
Q 3647 1150 3233 529 
Q 2819 -91 2034 -91 
Q 1250 -91 836 529 
Q 422 1150 422 2328 
Q 422 3509 836 4129 
Q 1250 4750 2034 4750 
z
" transform="scale(0.015625)"/>
       </defs>
       <use xlink:href="#DejaVuSans-30"/>
      </g>
     </g>
    </g>
    <g id="xtick_2">
     <g id="line2d_2">
      <g>
       <use xlink:href="#md9a1a344e0" x="217.157495" y="320.4" style="stroke: #000000; stroke-width: 0.8"/>
      </g>
     </g>
     <g id="text_2">
      <!-- 60 -->
      <g transform="translate(210.794995 334.998438) scale(0.1 -0.1)">
       <defs>
        <path id="DejaVuSans-36" d="M 2113 2584 
Q 1688 2584 1439 2293 
Q 1191 2003 1191 1497 
Q 1191 994 1439 701 
Q 1688 409 2113 409 
Q 2538 409 2786 701 
Q 3034 994 3034 1497 
Q 3034 2003 2786 2293 
Q 2538 2584 2113 2584 
z
M 3366 4563 
L 3366 3988 
Q 3128 4100 2886 4159 
Q 2644 4219 2406 4219 
Q 1781 4219 1451 3797 
Q 1122 3375 1075 2522 
Q 1259 2794 1537 2939 
Q 1816 3084 2150 3084 
Q 2853 3084 3261 2657 
Q 3669 2231 3669 1497 
Q 3669 778 3244 343 
Q 2819 -91 2113 -91 
Q 1303 -91 875 529 
Q 447 1150 447 2328 
Q 447 3434 972 4092 
Q 1497 4750 2381 4750 
Q 2619 4750 2861 4703 
Q 3103 4656 3366 4563 
z
" transform="scale(0.015625)"/>
       </defs>
       <use xlink:href="#DejaVuSans-36"/>
       <use xlink:href="#DejaVuSans-30" transform="translate(63.623047 0)"/>
      </g>
     </g>
    </g>
    <g id="xtick_3">
     <g id="line2d_3">
      <g>
       <use xlink:href="#md9a1a344e0" x="318.951353" y="320.4" style="stroke: #000000; stroke-width: 0.8"/>
      </g>
     </g>
     <g id="text_3">
      <!-- 120 -->
      <g transform="translate(309.407603 334.998438) scale(0.1 -0.1)">
       <defs>
        <path id="DejaVuSans-31" d="M 794 531 
L 1825 531 
L 1825 4091 
L 703 3866 
L 703 4441 
L 1819 4666 
L 2450 4666 
L 2450 531 
L 3481 531 
L 3481 0 
L 794 0 
L 794 531 
z
" transform="scale(0.015625)"/>
        <path id="DejaVuSans-32" d="M 1228 531 
L 3431 531 
L 3431 0 
L 469 0 
L 469 531 
Q 828 903 1448 1529 
Q 2069 2156 2228 2338 
Q 2531 2678 2651 2914 
Q 2772 3150 2772 3378 
Q 2772 3750 2511 3984 
Q 2250 4219 1831 4219 
Q 1534 4219 1204 4116 
Q 875 4013 500 3803 
L 500 4441 
Q 881 4594 1212 4672 
Q 1544 4750 1819 4750 
Q 2544 4750 2975 4387 
Q 3406 4025 3406 3419 
Q 3406 3131 3298 2873 
Q 3191 2616 2906 2266 
Q 2828 2175 2409 1742 
Q 1991 1309 1228 531 
z
" transform="scale(0.015625)"/>
       </defs>
       <use xlink:href="#DejaVuSans-31"/>
       <use xlink:href="#DejaVuSans-32" transform="translate(63.623047 0)"/>
       <use xlink:href="#DejaVuSans-30" transform="translate(127.246094 0)"/>
      </g>
     </g>
    </g>
    <g id="xtick_4">
     <g id="line2d_4">
      <g>
       <use xlink:href="#md9a1a344e0" x="420.745211" y="320.4" style="stroke: #000000; stroke-width: 0.8"/>
      </g>
     </g>
     <g id="text_4">
      <!-- 180 -->
      <g transform="translate(411.201461 334.998438) scale(0.1 -0.1)">
       <defs>
        <path id="DejaVuSans-38" d="M 2034 2216 
Q 1584 2216 1326 1975 
Q 1069 1734 1069 1313 
Q 1069 891 1326 650 
Q 1584 409 2034 409 
Q 2484 409 2743 651 
Q 3003 894 3003 1313 
Q 3003 1734 2745 1975 
Q 2488 2216 2034 2216 
z
M 1403 2484 
Q 997 2584 770 2862 
Q 544 3141 544 3541 
Q 544 4100 942 4425 
Q 1341 4750 2034 4750 
Q 2731 4750 3128 4425 
Q 3525 4100 3525 3541 
Q 3525 3141 3298 2862 
Q 3072 2584 2669 2484 
Q 3125 2378 3379 2068 
Q 3634 1759 3634 1313 
Q 3634 634 3220 271 
Q 2806 -91 2034 -91 
Q 1263 -91 848 271 
Q 434 634 434 1313 
Q 434 1759 690 2068 
Q 947 2378 1403 2484 
z
M 1172 3481 
Q 1172 3119 1398 2916 
Q 1625 2713 2034 2713 
Q 2441 2713 2670 2916 
Q 2900 3119 2900 3481 
Q 2900 3844 2670 4047 
Q 2441 4250 2034 4250 
Q 1625 4250 1398 4047 
Q 1172 3844 1172 3481 
z
" transform="scale(0.015625)"/>
       </defs>
       <use xlink:href="#DejaVuSans-31"/>
       <use xlink:href="#DejaVuSans-38" transform="translate(63.623047 0)"/>
       <use xlink:href="#DejaVuSans-30" transform="translate(127.246094 0)"/>
      </g>
     </g>
    </g>
    <g id="xtick_5">
     <g id="line2d_5">
      <g>
       <use xlink:href="#md9a1a344e0" x="522.53907" y="320.4" style="stroke: #000000; stroke-width: 0.8"/>
      </g>
     </g>
     <g id="text_5">
      <!-- 240 -->
      <g transform="translate(512.99532 334.998438) scale(0.1 -0.1)">
       <defs>
        <path id="DejaVuSans-34" d="M 2419 4116 
L 825 1625 
L 2419 1625 
L 2419 4116 
z
M 2253 4666 
L 3047 4666 
L 3047 1625 
L 3713 1625 
L 3713 1100 
L 3047 1100 
L 3047 0 
L 2419 0 
L 2419 1100 
L 313 1100 
L 313 1709 
L 2253 4666 
z
" transform="scale(0.015625)"/>
       </defs>
       <use xlink:href="#DejaVuSans-32"/>
       <use xlink:href="#DejaVuSans-34" transform="translate(63.623047 0)"/>
       <use xlink:href="#DejaVuSans-30" transform="translate(127.246094 0)"/>
      </g>
     </g>
    </g>
    <g id="text_6">
     <!-- Epoch -->
     <g transform="translate(353.689062 348.676562) scale(0.1 -0.1)">
      <defs>
       <path id="DejaVuSans-45" d="M 628 4666 
L 3578 4666 
L 3578 4134 
L 1259 4134 
L 1259 2753 
L 3481 2753 
L 3481 2222 
L 1259 2222 
L 1259 531 
L 3634 531 
L 3634 0 
L 628 0 
L 628 4666 
z
" transform="scale(0.015625)"/>
       <path id="DejaVuSans-70" d="M 1159 525 
L 1159 -1331 
L 581 -1331 
L 581 3500 
L 1159 3500 
L 1159 2969 
Q 1341 3281 1617 3432 
Q 1894 3584 2278 3584 
Q 2916 3584 3314 3078 
Q 3713 2572 3713 1747 
Q 3713 922 3314 415 
Q 2916 -91 2278 -91 
Q 1894 -91 1617 61 
Q 1341 213 1159 525 
z
M 3116 1747 
Q 3116 2381 2855 2742 
Q 2594 3103 2138 3103 
Q 1681 3103 1420 2742 
Q 1159 2381 1159 1747 
Q 1159 1113 1420 752 
Q 1681 391 2138 391 
Q 2594 391 2855 752 
Q 3116 1113 3116 1747 
z
" transform="scale(0.015625)"/>
       <path id="DejaVuSans-6f" d="M 1959 3097 
Q 1497 3097 1228 2736 
Q 959 2375 959 1747 
Q 959 1119 1226 758 
Q 1494 397 1959 397 
Q 2419 397 2687 759 
Q 2956 1122 2956 1747 
Q 2956 2369 2687 2733 
Q 2419 3097 1959 3097 
z
M 1959 3584 
Q 2709 3584 3137 3096 
Q 3566 2609 3566 1747 
Q 3566 888 3137 398 
Q 2709 -91 1959 -91 
Q 1206 -91 779 398 
Q 353 888 353 1747 
Q 353 2609 779 3096 
Q 1206 3584 1959 3584 
z
" transform="scale(0.015625)"/>
       <path id="DejaVuSans-63" d="M 3122 3366 
L 3122 2828 
Q 2878 2963 2633 3030 
Q 2388 3097 2138 3097 
Q 1578 3097 1268 2742 
Q 959 2388 959 1747 
Q 959 1106 1268 751 
Q 1578 397 2138 397 
Q 2388 397 2633 464 
Q 2878 531 3122 666 
L 3122 134 
Q 2881 22 2623 -34 
Q 2366 -91 2075 -91 
Q 1284 -91 818 406 
Q 353 903 353 1747 
Q 353 2603 823 3093 
Q 1294 3584 2113 3584 
Q 2378 3584 2631 3529 
Q 2884 3475 3122 3366 
z
" transform="scale(0.015625)"/>
       <path id="DejaVuSans-68" d="M 3513 2113 
L 3513 0 
L 2938 0 
L 2938 2094 
Q 2938 2591 2744 2837 
Q 2550 3084 2163 3084 
Q 1697 3084 1428 2787 
Q 1159 2491 1159 1978 
L 1159 0 
L 581 0 
L 581 4863 
L 1159 4863 
L 1159 2956 
Q 1366 3272 1645 3428 
Q 1925 3584 2291 3584 
Q 2894 3584 3203 3211 
Q 3513 2838 3513 2113 
z
" transform="scale(0.015625)"/>
      </defs>
      <use xlink:href="#DejaVuSans-45"/>
      <use xlink:href="#DejaVuSans-70" transform="translate(63.183594 0)"/>
      <use xlink:href="#DejaVuSans-6f" transform="translate(126.660156 0)"/>
      <use xlink:href="#DejaVuSans-63" transform="translate(187.841797 0)"/>
      <use xlink:href="#DejaVuSans-68" transform="translate(242.822266 0)"/>
     </g>
    </g>
   </g>
   <g id="matplotlib.axis_2">
    <g id="ytick_1">
     <g id="line2d_6">
      <defs>
       <path id="mfedd796238" d="M 0 0 
L -3.5 0 
" style="stroke: #000000; stroke-width: 0.8"/>
      </defs>
      <g>
       <use xlink:href="#mfedd796238" x="90" y="307.867832" style="stroke: #000000; stroke-width: 0.8"/>
      </g>
     </g>
     <g id="text_7">
      <!-- 0.00 -->
      <g transform="translate(60.734375 311.667051) scale(0.1 -0.1)">
       <defs>
        <path id="DejaVuSans-2e" d="M 684 794 
L 1344 794 
L 1344 0 
L 684 0 
L 684 794 
z
" transform="scale(0.015625)"/>
       </defs>
       <use xlink:href="#DejaVuSans-30"/>
       <use xlink:href="#DejaVuSans-2e" transform="translate(63.623047 0)"/>
       <use xlink:href="#DejaVuSans-30" transform="translate(95.410156 0)"/>
       <use xlink:href="#DejaVuSans-30" transform="translate(159.033203 0)"/>
      </g>
     </g>
    </g>
    <g id="ytick_2">
     <g id="line2d_7">
      <g>
       <use xlink:href="#mfedd796238" x="90" y="272.796763" style="stroke: #000000; stroke-width: 0.8"/>
      </g>
     </g>
     <g id="text_8">
      <!-- 0.02 -->
      <g transform="translate(60.734375 276.595982) scale(0.1 -0.1)">
       <use xlink:href="#DejaVuSans-30"/>
       <use xlink:href="#DejaVuSans-2e" transform="translate(63.623047 0)"/>
       <use xlink:href="#DejaVuSans-30" transform="translate(95.410156 0)"/>
       <use xlink:href="#DejaVuSans-32" transform="translate(159.033203 0)"/>
      </g>
     </g>
    </g>
    <g id="ytick_3">
     <g id="line2d_8">
      <g>
       <use xlink:href="#mfedd796238" x="90" y="237.725695" style="stroke: #000000; stroke-width: 0.8"/>
      </g>
     </g>
     <g id="text_9">
      <!-- 0.04 -->
      <g transform="translate(60.734375 241.524914) scale(0.1 -0.1)">
       <use xlink:href="#DejaVuSans-30"/>
       <use xlink:href="#DejaVuSans-2e" transform="translate(63.623047 0)"/>
       <use xlink:href="#DejaVuSans-30" transform="translate(95.410156 0)"/>
       <use xlink:href="#DejaVuSans-34" transform="translate(159.033203 0)"/>
      </g>
     </g>
    </g>
    <g id="ytick_4">
     <g id="line2d_9">
      <g>
       <use xlink:href="#mfedd796238" x="90" y="202.654626" style="stroke: #000000; stroke-width: 0.8"/>
      </g>
     </g>
     <g id="text_10">
      <!-- 0.06 -->
      <g transform="translate(60.734375 206.453845) scale(0.1 -0.1)">
       <use xlink:href="#DejaVuSans-30"/>
       <use xlink:href="#DejaVuSans-2e" transform="translate(63.623047 0)"/>
       <use xlink:href="#DejaVuSans-30" transform="translate(95.410156 0)"/>
       <use xlink:href="#DejaVuSans-36" transform="translate(159.033203 0)"/>
      </g>
     </g>
    </g>
    <g id="ytick_5">
     <g id="line2d_10">
      <g>
       <use xlink:href="#mfedd796238" x="90" y="167.583558" style="stroke: #000000; stroke-width: 0.8"/>
      </g>
     </g>
     <g id="text_11">
      <!-- 0.08 -->
      <g transform="translate(60.734375 171.382776) scale(0.1 -0.1)">
       <use xlink:href="#DejaVuSans-30"/>
       <use xlink:href="#DejaVuSans-2e" transform="translate(63.623047 0)"/>
       <use xlink:href="#DejaVuSans-30" transform="translate(95.410156 0)"/>
       <use xlink:href="#DejaVuSans-38" transform="translate(159.033203 0)"/>
      </g>
     </g>
    </g>
    <g id="ytick_6">
     <g id="line2d_11">
      <g>
       <use xlink:href="#mfedd796238" x="90" y="132.512489" style="stroke: #000000; stroke-width: 0.8"/>
      </g>
     </g>
     <g id="text_12">
      <!-- 0.10 -->
      <g transform="translate(60.734375 136.311708) scale(0.1 -0.1)">
       <use xlink:href="#DejaVuSans-30"/>
       <use xlink:href="#DejaVuSans-2e" transform="translate(63.623047 0)"/>
       <use xlink:href="#DejaVuSans-31" transform="translate(95.410156 0)"/>
       <use xlink:href="#DejaVuSans-30" transform="translate(159.033203 0)"/>
      </g>
     </g>
    </g>
    <g id="ytick_7">
     <g id="line2d_12">
      <g>
       <use xlink:href="#mfedd796238" x="90" y="97.441421" style="stroke: #000000; stroke-width: 0.8"/>
      </g>
     </g>
     <g id="text_13">
      <!-- 0.12 -->
      <g transform="translate(60.734375 101.240639) scale(0.1 -0.1)">
       <use xlink:href="#DejaVuSans-30"/>
       <use xlink:href="#DejaVuSans-2e" transform="translate(63.623047 0)"/>
       <use xlink:href="#DejaVuSans-31" transform="translate(95.410156 0)"/>
       <use xlink:href="#DejaVuSans-32" transform="translate(159.033203 0)"/>
      </g>
     </g>
    </g>
    <g id="ytick_8">
     <g id="line2d_13">
      <g>
       <use xlink:href="#mfedd796238" x="90" y="62.370352" style="stroke: #000000; stroke-width: 0.8"/>
      </g>
     </g>
     <g id="text_14">
      <!-- 0.14 -->
      <g transform="translate(60.734375 66.169571) scale(0.1 -0.1)">
       <use xlink:href="#DejaVuSans-30"/>
       <use xlink:href="#DejaVuSans-2e" transform="translate(63.623047 0)"/>
       <use xlink:href="#DejaVuSans-31" transform="translate(95.410156 0)"/>
       <use xlink:href="#DejaVuSans-34" transform="translate(159.033203 0)"/>
      </g>
     </g>
    </g>
    <g id="text_15">
     <!-- Estimation Loss -->
     <g transform="translate(54.654687 220.98125) rotate(-90) scale(0.1 -0.1)">
      <defs>
       <path id="DejaVuSans-73" d="M 2834 3397 
L 2834 2853 
Q 2591 2978 2328 3040 
Q 2066 3103 1784 3103 
Q 1356 3103 1142 2972 
Q 928 2841 928 2578 
Q 928 2378 1081 2264 
Q 1234 2150 1697 2047 
L 1894 2003 
Q 2506 1872 2764 1633 
Q 3022 1394 3022 966 
Q 3022 478 2636 193 
Q 2250 -91 1575 -91 
Q 1294 -91 989 -36 
Q 684 19 347 128 
L 347 722 
Q 666 556 975 473 
Q 1284 391 1588 391 
Q 1994 391 2212 530 
Q 2431 669 2431 922 
Q 2431 1156 2273 1281 
Q 2116 1406 1581 1522 
L 1381 1569 
Q 847 1681 609 1914 
Q 372 2147 372 2553 
Q 372 3047 722 3315 
Q 1072 3584 1716 3584 
Q 2034 3584 2315 3537 
Q 2597 3491 2834 3397 
z
" transform="scale(0.015625)"/>
       <path id="DejaVuSans-74" d="M 1172 4494 
L 1172 3500 
L 2356 3500 
L 2356 3053 
L 1172 3053 
L 1172 1153 
Q 1172 725 1289 603 
Q 1406 481 1766 481 
L 2356 481 
L 2356 0 
L 1766 0 
Q 1100 0 847 248 
Q 594 497 594 1153 
L 594 3053 
L 172 3053 
L 172 3500 
L 594 3500 
L 594 4494 
L 1172 4494 
z
" transform="scale(0.015625)"/>
       <path id="DejaVuSans-69" d="M 603 3500 
L 1178 3500 
L 1178 0 
L 603 0 
L 603 3500 
z
M 603 4863 
L 1178 4863 
L 1178 4134 
L 603 4134 
L 603 4863 
z
" transform="scale(0.015625)"/>
       <path id="DejaVuSans-6d" d="M 3328 2828 
Q 3544 3216 3844 3400 
Q 4144 3584 4550 3584 
Q 5097 3584 5394 3201 
Q 5691 2819 5691 2113 
L 5691 0 
L 5113 0 
L 5113 2094 
Q 5113 2597 4934 2840 
Q 4756 3084 4391 3084 
Q 3944 3084 3684 2787 
Q 3425 2491 3425 1978 
L 3425 0 
L 2847 0 
L 2847 2094 
Q 2847 2600 2669 2842 
Q 2491 3084 2119 3084 
Q 1678 3084 1418 2786 
Q 1159 2488 1159 1978 
L 1159 0 
L 581 0 
L 581 3500 
L 1159 3500 
L 1159 2956 
Q 1356 3278 1631 3431 
Q 1906 3584 2284 3584 
Q 2666 3584 2933 3390 
Q 3200 3197 3328 2828 
z
" transform="scale(0.015625)"/>
       <path id="DejaVuSans-61" d="M 2194 1759 
Q 1497 1759 1228 1600 
Q 959 1441 959 1056 
Q 959 750 1161 570 
Q 1363 391 1709 391 
Q 2188 391 2477 730 
Q 2766 1069 2766 1631 
L 2766 1759 
L 2194 1759 
z
M 3341 1997 
L 3341 0 
L 2766 0 
L 2766 531 
Q 2569 213 2275 61 
Q 1981 -91 1556 -91 
Q 1019 -91 701 211 
Q 384 513 384 1019 
Q 384 1609 779 1909 
Q 1175 2209 1959 2209 
L 2766 2209 
L 2766 2266 
Q 2766 2663 2505 2880 
Q 2244 3097 1772 3097 
Q 1472 3097 1187 3025 
Q 903 2953 641 2809 
L 641 3341 
Q 956 3463 1253 3523 
Q 1550 3584 1831 3584 
Q 2591 3584 2966 3190 
Q 3341 2797 3341 1997 
z
" transform="scale(0.015625)"/>
       <path id="DejaVuSans-6e" d="M 3513 2113 
L 3513 0 
L 2938 0 
L 2938 2094 
Q 2938 2591 2744 2837 
Q 2550 3084 2163 3084 
Q 1697 3084 1428 2787 
Q 1159 2491 1159 1978 
L 1159 0 
L 581 0 
L 581 3500 
L 1159 3500 
L 1159 2956 
Q 1366 3272 1645 3428 
Q 1925 3584 2291 3584 
Q 2894 3584 3203 3211 
Q 3513 2838 3513 2113 
z
" transform="scale(0.015625)"/>
       <path id="DejaVuSans-20" transform="scale(0.015625)"/>
       <path id="DejaVuSans-4c" d="M 628 4666 
L 1259 4666 
L 1259 531 
L 3531 531 
L 3531 0 
L 628 0 
L 628 4666 
z
" transform="scale(0.015625)"/>
      </defs>
      <use xlink:href="#DejaVuSans-45"/>
      <use xlink:href="#DejaVuSans-73" transform="translate(63.183594 0)"/>
      <use xlink:href="#DejaVuSans-74" transform="translate(115.283203 0)"/>
      <use xlink:href="#DejaVuSans-69" transform="translate(154.492188 0)"/>
      <use xlink:href="#DejaVuSans-6d" transform="translate(182.275391 0)"/>
      <use xlink:href="#DejaVuSans-61" transform="translate(279.6875 0)"/>
      <use xlink:href="#DejaVuSans-74" transform="translate(340.966797 0)"/>
      <use xlink:href="#DejaVuSans-69" transform="translate(380.175781 0)"/>
      <use xlink:href="#DejaVuSans-6f" transform="translate(407.958984 0)"/>
      <use xlink:href="#DejaVuSans-6e" transform="translate(469.140625 0)"/>
      <use xlink:href="#DejaVuSans-20" transform="translate(532.519531 0)"/>
      <use xlink:href="#DejaVuSans-4c" transform="translate(564.306641 0)"/>
      <use xlink:href="#DejaVuSans-6f" transform="translate(618.269531 0)"/>
      <use xlink:href="#DejaVuSans-73" transform="translate(679.451172 0)"/>
      <use xlink:href="#DejaVuSans-73" transform="translate(731.550781 0)"/>
     </g>
    </g>
   </g>
   <g id="line2d_14">
    <path d="M 115.363636 212.109726 
L 117.060201 294.147119 
L 118.756765 299.704071 
L 120.453329 301.830123 
L 122.149894 303.066283 
L 123.846458 303.851144 
L 125.543022 304.38617 
L 128.936151 305.093539 
L 132.329279 305.581087 
L 139.115537 306.139809 
L 150.991487 306.671489 
L 186.619337 307.251176 
L 217.157495 307.451168 
L 262.964731 307.600431 
L 432.621161 307.759485 
L 622.636364 307.799949 
L 622.636364 307.799949 
" clip-path="url(#p3540c6580e)" style="fill: none; stroke: #1f77b4; stroke-width: 1.5; stroke-linecap: square"/>
   </g>
   <g id="line2d_15">
    <path d="M 115.363636 55.8 
L 117.060201 236.030058 
L 118.756765 262.423983 
L 120.453329 273.241218 
L 122.149894 278.882132 
L 123.846458 282.487938 
L 125.543022 284.979112 
L 127.239587 286.7878 
L 128.936151 288.380467 
L 130.632715 289.5924 
L 132.329279 290.614548 
L 134.025844 291.499436 
L 137.418972 292.960954 
L 142.508665 294.489547 
L 145.901794 295.288779 
L 150.991487 296.228921 
L 157.777744 297.162715 
L 166.260566 297.992854 
L 179.83308 298.642432 
L 196.798723 298.708485 
L 208.674673 298.511962 
L 247.695652 297.33249 
L 251.088781 297.198183 
L 317.254789 295.12396 
L 322.344482 294.999914 
L 335.916996 294.631075 
L 349.48951 294.31505 
L 366.455154 293.934421 
L 371.544846 293.85632 
L 381.724232 293.65534 
L 386.813925 293.575178 
L 390.207054 293.499171 
L 415.655518 293.136908 
L 420.745211 293.062828 
L 458.069626 292.647203 
L 544.594406 292.073119 
L 554.773791 292.039555 
L 580.222256 291.91988 
L 622.636364 291.774465 
L 622.636364 291.774465 
" clip-path="url(#p3540c6580e)" style="fill: none; stroke: #ff7f0e; stroke-width: 1.5; stroke-linecap: square"/>
   </g>
   <g id="line2d_16">
    <path d="M 115.363636 283.997432 
L 117.060201 295.461719 
L 118.756765 301.06623 
L 120.453329 301.196216 
L 122.149894 303.522863 
L 123.846458 304.620955 
L 125.543022 304.205666 
L 127.239587 304.459031 
L 128.936151 304.245223 
L 130.632715 304.644823 
L 132.329279 305.809513 
L 134.025844 305.20843 
L 135.722408 305.509598 
L 137.418972 306.130462 
L 139.115537 306.162142 
L 140.812101 305.604372 
L 142.508665 306.39384 
L 144.20523 306.063053 
L 145.901794 306.267629 
L 147.598358 306.73108 
L 150.991487 306.567029 
L 152.688051 306.776172 
L 156.08118 306.610069 
L 157.777744 307.032571 
L 159.474308 306.84983 
L 161.170873 306.937539 
L 162.867437 306.790632 
L 166.260566 307.047961 
L 173.046823 306.877346 
L 174.743387 307.039463 
L 176.439951 306.791292 
L 178.136516 307.006317 
L 179.83308 307.098342 
L 181.529644 307.060396 
L 183.226209 307.141382 
L 184.922773 307.098926 
L 188.315901 307.145958 
L 196.798723 307.147059 
L 198.495287 307.218965 
L 201.888416 307.137508 
L 203.58498 307.299627 
L 210.371237 307.294956 
L 213.764366 307.437372 
L 215.46093 307.343612 
L 218.854059 307.414119 
L 225.640316 307.403419 
L 232.426573 307.493019 
L 235.819702 307.4653 
L 268.054424 307.521711 
L 271.447552 307.57019 
L 281.626938 307.512683 
L 283.323503 307.600736 
L 286.716631 307.60336 
L 357.972332 307.675803 
L 369.848282 307.690565 
L 381.724232 307.702153 
L 391.903618 307.708393 
L 405.476133 307.720065 
L 432.621161 307.717068 
L 452.979933 307.749536 
L 459.76619 307.732281 
L 471.64214 307.753634 
L 483.518091 307.740009 
L 502.180298 307.763506 
L 507.269991 307.716554 
L 519.145941 307.770884 
L 527.628763 307.765381 
L 622.636364 307.788524 
L 622.636364 307.788524 
" clip-path="url(#p3540c6580e)" style="fill: none; stroke: #2ca02c; stroke-width: 1.5; stroke-linecap: square"/>
   </g>
   <g id="line2d_17">
    <path d="M 115.363636 202.681509 
L 117.060201 252.828724 
L 118.756765 267.893353 
L 120.453329 275.559735 
L 122.149894 281.510445 
L 123.846458 284.514299 
L 125.543022 285.198052 
L 127.239587 287.636184 
L 128.936151 287.549442 
L 130.632715 289.931989 
L 132.329279 291.999177 
L 134.025844 291.683497 
L 137.418972 293.879195 
L 139.115537 294.195991 
L 140.812101 293.668297 
L 142.508665 294.384062 
L 144.20523 295.647319 
L 145.901794 295.812787 
L 147.598358 296.304544 
L 149.294922 295.793918 
L 150.991487 296.573396 
L 152.688051 296.717143 
L 154.384615 297.361214 
L 157.777744 297.334247 
L 159.474308 297.92499 
L 161.170873 298.04231 
L 162.867437 297.670497 
L 164.564001 298.405665 
L 166.260566 298.231943 
L 169.653694 298.222174 
L 171.350258 298.497057 
L 173.046823 298.333421 
L 174.743387 298.824674 
L 176.439951 298.600188 
L 179.83308 298.935696 
L 183.226209 298.866213 
L 184.922773 298.818112 
L 186.619337 298.990659 
L 188.315901 299.037968 
L 191.70903 298.894331 
L 193.405594 298.955801 
L 196.798723 298.83891 
L 198.495287 298.795992 
L 200.191852 298.87843 
L 201.888416 298.781662 
L 203.58498 298.953041 
L 208.674673 298.654773 
L 213.764366 298.633349 
L 215.46093 298.426073 
L 217.157495 298.764233 
L 218.854059 298.46756 
L 220.550623 298.647429 
L 222.247188 298.363167 
L 223.943752 298.582478 
L 225.640316 298.35253 
L 227.336881 298.416263 
L 229.033445 298.184349 
L 232.426573 298.403294 
L 234.123138 298.184938 
L 235.819702 297.710686 
L 237.516266 298.013945 
L 239.212831 298.093434 
L 240.909395 297.879447 
L 242.605959 298.005231 
L 244.302524 297.837412 
L 247.695652 297.913075 
L 249.392216 297.686703 
L 254.481909 297.570168 
L 256.178474 297.697034 
L 257.875038 297.250057 
L 259.571602 297.440944 
L 261.268167 297.30824 
L 262.964731 297.495607 
L 264.661295 297.1863 
L 266.35786 297.166218 
L 268.054424 297.001003 
L 269.750988 297.174898 
L 273.144117 297.037056 
L 276.537245 296.731944 
L 278.23381 296.946438 
L 279.930374 296.788176 
L 281.626938 296.303601 
L 283.323503 296.646201 
L 286.716631 296.246192 
L 288.413196 296.474443 
L 290.10976 296.462453 
L 291.806324 296.242724 
L 293.502888 296.361037 
L 295.199453 296.09683 
L 296.896017 296.227512 
L 298.592581 295.652781 
L 300.289146 296.016634 
L 303.682274 296.188646 
L 305.378839 295.722855 
L 307.075403 295.759756 
L 308.771967 295.43624 
L 310.468531 295.728361 
L 312.165096 295.594897 
L 313.86166 295.642418 
L 315.558224 295.305913 
L 317.254789 295.470359 
L 318.951353 295.125614 
L 320.647917 295.444688 
L 322.344482 295.074464 
L 325.73761 295.191268 
L 327.434175 295.196303 
L 329.130739 294.952663 
L 330.827303 295.099118 
L 332.523867 295.132938 
L 335.916996 294.764862 
L 337.61356 295.186535 
L 339.310125 294.883369 
L 342.703253 294.977232 
L 344.399818 294.734373 
L 346.096382 294.744534 
L 347.792946 294.88351 
L 349.48951 294.804977 
L 351.186075 294.580607 
L 354.579203 294.598752 
L 356.275768 294.784981 
L 357.972332 294.444271 
L 364.758589 294.423575 
L 366.455154 294.324715 
L 368.151718 294.438184 
L 373.241411 294.178903 
L 376.634539 294.294368 
L 378.331104 294.253692 
L 381.724232 293.997887 
L 383.420797 294.122375 
L 391.903618 293.969097 
L 393.600182 293.694865 
L 395.296747 293.839264 
L 400.38644 293.871396 
L 402.083004 293.781472 
L 403.779568 293.895536 
L 405.476133 293.59513 
L 407.172697 293.92832 
L 408.869261 293.410709 
L 410.565825 293.913783 
L 412.26239 293.513371 
L 413.958954 293.571621 
L 415.655518 293.829057 
L 417.352083 293.631607 
L 419.048647 293.554251 
L 420.745211 293.70243 
L 422.441776 293.65216 
L 425.834904 293.297834 
L 427.531469 293.50111 
L 429.228033 293.540712 
L 430.924597 293.398696 
L 432.621161 293.525476 
L 436.01429 293.364779 
L 437.710854 293.433917 
L 439.407419 293.135896 
L 441.103983 293.383317 
L 442.800547 292.8819 
L 446.193676 293.373663 
L 451.283369 292.864778 
L 452.979933 293.00528 
L 454.676497 293.325975 
L 456.373062 293.067615 
L 458.069626 293.103985 
L 459.76619 293.013355 
L 463.159319 293.236139 
L 471.64214 292.851839 
L 473.338705 293.103931 
L 475.035269 292.845682 
L 476.731833 292.975447 
L 478.428398 292.853267 
L 480.124962 293.074522 
L 481.821526 292.790605 
L 483.518091 292.952035 
L 485.214655 292.859816 
L 486.911219 292.937112 
L 488.607784 292.637115 
L 490.304348 292.790634 
L 492.000912 292.654569 
L 493.697476 292.76002 
L 497.090605 292.595133 
L 498.787169 292.435121 
L 500.483734 292.495836 
L 502.180298 292.748925 
L 503.876862 292.845811 
L 505.573427 292.482618 
L 507.269991 292.704928 
L 508.966555 292.419382 
L 510.663119 292.4779 
L 512.359684 292.659769 
L 515.752812 292.600857 
L 517.449377 292.717107 
L 519.145941 292.509095 
L 520.842505 292.753855 
L 522.53907 292.479205 
L 524.235634 292.588387 
L 525.932198 292.345159 
L 529.325327 292.594079 
L 531.021891 292.313694 
L 532.718455 292.439184 
L 536.111584 292.342602 
L 537.808148 292.560888 
L 539.504713 292.382318 
L 541.201277 292.406897 
L 542.897841 292.558659 
L 544.594406 292.392958 
L 546.29097 292.609285 
L 551.380663 292.245138 
L 553.077227 292.175524 
L 554.773791 292.534035 
L 558.16692 292.32218 
L 561.560049 292.267975 
L 563.256613 292.122848 
L 564.953177 292.406712 
L 570.04287 292.179813 
L 571.739434 292.48742 
L 573.435999 292.152957 
L 576.829127 292.265228 
L 578.525692 292.429246 
L 585.311949 292.051712 
L 587.008513 292.228412 
L 588.705078 292.040799 
L 592.098206 292.219616 
L 593.79477 291.984572 
L 595.491335 291.971088 
L 597.187899 292.166255 
L 598.884463 291.975598 
L 600.581028 292.045107 
L 602.277592 291.976261 
L 607.367285 292.035828 
L 610.760413 291.922481 
L 612.456978 292.057088 
L 619.243235 292.142143 
L 620.939799 291.917604 
L 622.636364 291.930518 
L 622.636364 291.930518 
" clip-path="url(#p3540c6580e)" style="fill: none; stroke: #d62728; stroke-width: 1.5; stroke-linecap: square"/>
   </g>
   <g id="patch_3">
    <path d="M 90 320.4 
L 90 43.2 
" style="fill: none; stroke: #000000; stroke-width: 0.8; stroke-linejoin: miter; stroke-linecap: square"/>
   </g>
   <g id="patch_4">
    <path d="M 648 320.4 
L 648 43.2 
" style="fill: none; stroke: #000000; stroke-width: 0.8; stroke-linejoin: miter; stroke-linecap: square"/>
   </g>
   <g id="patch_5">
    <path d="M 90 320.4 
L 648 320.4 
" style="fill: none; stroke: #000000; stroke-width: 0.8; stroke-linejoin: miter; stroke-linecap: square"/>
   </g>
   <g id="patch_6">
    <path d="M 90 43.2 
L 648 43.2 
" style="fill: none; stroke: #000000; stroke-width: 0.8; stroke-linejoin: miter; stroke-linecap: square"/>
   </g>
   <g id="text_16">
    <!-- Training and Validating Estimation Loss -->
    <g transform="translate(251.535937 37.2) scale(0.12 -0.12)">
     <defs>
      <path id="DejaVuSans-54" d="M -19 4666 
L 3928 4666 
L 3928 4134 
L 2272 4134 
L 2272 0 
L 1638 0 
L 1638 4134 
L -19 4134 
L -19 4666 
z
" transform="scale(0.015625)"/>
      <path id="DejaVuSans-72" d="M 2631 2963 
Q 2534 3019 2420 3045 
Q 2306 3072 2169 3072 
Q 1681 3072 1420 2755 
Q 1159 2438 1159 1844 
L 1159 0 
L 581 0 
L 581 3500 
L 1159 3500 
L 1159 2956 
Q 1341 3275 1631 3429 
Q 1922 3584 2338 3584 
Q 2397 3584 2469 3576 
Q 2541 3569 2628 3553 
L 2631 2963 
z
" transform="scale(0.015625)"/>
      <path id="DejaVuSans-67" d="M 2906 1791 
Q 2906 2416 2648 2759 
Q 2391 3103 1925 3103 
Q 1463 3103 1205 2759 
Q 947 2416 947 1791 
Q 947 1169 1205 825 
Q 1463 481 1925 481 
Q 2391 481 2648 825 
Q 2906 1169 2906 1791 
z
M 3481 434 
Q 3481 -459 3084 -895 
Q 2688 -1331 1869 -1331 
Q 1566 -1331 1297 -1286 
Q 1028 -1241 775 -1147 
L 775 -588 
Q 1028 -725 1275 -790 
Q 1522 -856 1778 -856 
Q 2344 -856 2625 -561 
Q 2906 -266 2906 331 
L 2906 616 
Q 2728 306 2450 153 
Q 2172 0 1784 0 
Q 1141 0 747 490 
Q 353 981 353 1791 
Q 353 2603 747 3093 
Q 1141 3584 1784 3584 
Q 2172 3584 2450 3431 
Q 2728 3278 2906 2969 
L 2906 3500 
L 3481 3500 
L 3481 434 
z
" transform="scale(0.015625)"/>
      <path id="DejaVuSans-64" d="M 2906 2969 
L 2906 4863 
L 3481 4863 
L 3481 0 
L 2906 0 
L 2906 525 
Q 2725 213 2448 61 
Q 2172 -91 1784 -91 
Q 1150 -91 751 415 
Q 353 922 353 1747 
Q 353 2572 751 3078 
Q 1150 3584 1784 3584 
Q 2172 3584 2448 3432 
Q 2725 3281 2906 2969 
z
M 947 1747 
Q 947 1113 1208 752 
Q 1469 391 1925 391 
Q 2381 391 2643 752 
Q 2906 1113 2906 1747 
Q 2906 2381 2643 2742 
Q 2381 3103 1925 3103 
Q 1469 3103 1208 2742 
Q 947 2381 947 1747 
z
" transform="scale(0.015625)"/>
      <path id="DejaVuSans-56" d="M 1831 0 
L 50 4666 
L 709 4666 
L 2188 738 
L 3669 4666 
L 4325 4666 
L 2547 0 
L 1831 0 
z
" transform="scale(0.015625)"/>
      <path id="DejaVuSans-6c" d="M 603 4863 
L 1178 4863 
L 1178 0 
L 603 0 
L 603 4863 
z
" transform="scale(0.015625)"/>
     </defs>
     <use xlink:href="#DejaVuSans-54"/>
     <use xlink:href="#DejaVuSans-72" transform="translate(46.333984 0)"/>
     <use xlink:href="#DejaVuSans-61" transform="translate(87.447266 0)"/>
     <use xlink:href="#DejaVuSans-69" transform="translate(148.726562 0)"/>
     <use xlink:href="#DejaVuSans-6e" transform="translate(176.509766 0)"/>
     <use xlink:href="#DejaVuSans-69" transform="translate(239.888672 0)"/>
     <use xlink:href="#DejaVuSans-6e" transform="translate(267.671875 0)"/>
     <use xlink:href="#DejaVuSans-67" transform="translate(331.050781 0)"/>
     <use xlink:href="#DejaVuSans-20" transform="translate(394.527344 0)"/>
     <use xlink:href="#DejaVuSans-61" transform="translate(426.314453 0)"/>
     <use xlink:href="#DejaVuSans-6e" transform="translate(487.59375 0)"/>
     <use xlink:href="#DejaVuSans-64" transform="translate(550.972656 0)"/>
     <use xlink:href="#DejaVuSans-20" transform="translate(614.449219 0)"/>
     <use xlink:href="#DejaVuSans-56" transform="translate(646.236328 0)"/>
     <use xlink:href="#DejaVuSans-61" transform="translate(706.894531 0)"/>
     <use xlink:href="#DejaVuSans-6c" transform="translate(768.173828 0)"/>
     <use xlink:href="#DejaVuSans-69" transform="translate(795.957031 0)"/>
     <use xlink:href="#DejaVuSans-64" transform="translate(823.740234 0)"/>
     <use xlink:href="#DejaVuSans-61" transform="translate(887.216797 0)"/>
     <use xlink:href="#DejaVuSans-74" transform="translate(948.496094 0)"/>
     <use xlink:href="#DejaVuSans-69" transform="translate(987.705078 0)"/>
     <use xlink:href="#DejaVuSans-6e" transform="translate(1015.488281 0)"/>
     <use xlink:href="#DejaVuSans-67" transform="translate(1078.867188 0)"/>
     <use xlink:href="#DejaVuSans-20" transform="translate(1142.34375 0)"/>
     <use xlink:href="#DejaVuSans-45" transform="translate(1174.130859 0)"/>
     <use xlink:href="#DejaVuSans-73" transform="translate(1237.314453 0)"/>
     <use xlink:href="#DejaVuSans-74" transform="translate(1289.414062 0)"/>
     <use xlink:href="#DejaVuSans-69" transform="translate(1328.623047 0)"/>
     <use xlink:href="#DejaVuSans-6d" transform="translate(1356.40625 0)"/>
     <use xlink:href="#DejaVuSans-61" transform="translate(1453.818359 0)"/>
     <use xlink:href="#DejaVuSans-74" transform="translate(1515.097656 0)"/>
     <use xlink:href="#DejaVuSans-69" transform="translate(1554.306641 0)"/>
     <use xlink:href="#DejaVuSans-6f" transform="translate(1582.089844 0)"/>
     <use xlink:href="#DejaVuSans-6e" transform="translate(1643.271484 0)"/>
     <use xlink:href="#DejaVuSans-20" transform="translate(1706.650391 0)"/>
     <use xlink:href="#DejaVuSans-4c" transform="translate(1738.4375 0)"/>
     <use xlink:href="#DejaVuSans-6f" transform="translate(1792.400391 0)"/>
     <use xlink:href="#DejaVuSans-73" transform="translate(1853.582031 0)"/>
     <use xlink:href="#DejaVuSans-73" transform="translate(1905.681641 0)"/>
    </g>
   </g>
   <g id="legend_1">
    <g id="patch_7">
     <path d="M 521.439062 109.9125 
L 641 109.9125 
Q 643 109.9125 643 107.9125 
L 643 50.2 
Q 643 48.2 641 48.2 
L 521.439062 48.2 
Q 519.439062 48.2 519.439062 50.2 
L 519.439062 107.9125 
Q 519.439062 109.9125 521.439062 109.9125 
z
" style="fill: #ffffff; opacity: 0.8; stroke: #cccccc; stroke-linejoin: miter"/>
    </g>
    <g id="line2d_18">
     <path d="M 523.439062 56.298437 
L 533.439062 56.298437 
L 543.439062 56.298437 
" style="fill: none; stroke: #1f77b4; stroke-width: 1.5; stroke-linecap: square"/>
    </g>
    <g id="text_17">
     <!-- Training-Source -->
     <g transform="translate(551.439062 59.798437) scale(0.1 -0.1)">
      <defs>
       <path id="DejaVuSans-2d" d="M 313 2009 
L 1997 2009 
L 1997 1497 
L 313 1497 
L 313 2009 
z
" transform="scale(0.015625)"/>
       <path id="DejaVuSans-53" d="M 3425 4513 
L 3425 3897 
Q 3066 4069 2747 4153 
Q 2428 4238 2131 4238 
Q 1616 4238 1336 4038 
Q 1056 3838 1056 3469 
Q 1056 3159 1242 3001 
Q 1428 2844 1947 2747 
L 2328 2669 
Q 3034 2534 3370 2195 
Q 3706 1856 3706 1288 
Q 3706 609 3251 259 
Q 2797 -91 1919 -91 
Q 1588 -91 1214 -16 
Q 841 59 441 206 
L 441 856 
Q 825 641 1194 531 
Q 1563 422 1919 422 
Q 2459 422 2753 634 
Q 3047 847 3047 1241 
Q 3047 1584 2836 1778 
Q 2625 1972 2144 2069 
L 1759 2144 
Q 1053 2284 737 2584 
Q 422 2884 422 3419 
Q 422 4038 858 4394 
Q 1294 4750 2059 4750 
Q 2388 4750 2728 4690 
Q 3069 4631 3425 4513 
z
" transform="scale(0.015625)"/>
       <path id="DejaVuSans-75" d="M 544 1381 
L 544 3500 
L 1119 3500 
L 1119 1403 
Q 1119 906 1312 657 
Q 1506 409 1894 409 
Q 2359 409 2629 706 
Q 2900 1003 2900 1516 
L 2900 3500 
L 3475 3500 
L 3475 0 
L 2900 0 
L 2900 538 
Q 2691 219 2414 64 
Q 2138 -91 1772 -91 
Q 1169 -91 856 284 
Q 544 659 544 1381 
z
M 1991 3584 
L 1991 3584 
z
" transform="scale(0.015625)"/>
       <path id="DejaVuSans-65" d="M 3597 1894 
L 3597 1613 
L 953 1613 
Q 991 1019 1311 708 
Q 1631 397 2203 397 
Q 2534 397 2845 478 
Q 3156 559 3463 722 
L 3463 178 
Q 3153 47 2828 -22 
Q 2503 -91 2169 -91 
Q 1331 -91 842 396 
Q 353 884 353 1716 
Q 353 2575 817 3079 
Q 1281 3584 2069 3584 
Q 2775 3584 3186 3129 
Q 3597 2675 3597 1894 
z
M 3022 2063 
Q 3016 2534 2758 2815 
Q 2500 3097 2075 3097 
Q 1594 3097 1305 2825 
Q 1016 2553 972 2059 
L 3022 2063 
z
" transform="scale(0.015625)"/>
      </defs>
      <use xlink:href="#DejaVuSans-54"/>
      <use xlink:href="#DejaVuSans-72" transform="translate(46.333984 0)"/>
      <use xlink:href="#DejaVuSans-61" transform="translate(87.447266 0)"/>
      <use xlink:href="#DejaVuSans-69" transform="translate(148.726562 0)"/>
      <use xlink:href="#DejaVuSans-6e" transform="translate(176.509766 0)"/>
      <use xlink:href="#DejaVuSans-69" transform="translate(239.888672 0)"/>
      <use xlink:href="#DejaVuSans-6e" transform="translate(267.671875 0)"/>
      <use xlink:href="#DejaVuSans-67" transform="translate(331.050781 0)"/>
      <use xlink:href="#DejaVuSans-2d" transform="translate(394.527344 0)"/>
      <use xlink:href="#DejaVuSans-53" transform="translate(430.611328 0)"/>
      <use xlink:href="#DejaVuSans-6f" transform="translate(494.087891 0)"/>
      <use xlink:href="#DejaVuSans-75" transform="translate(555.269531 0)"/>
      <use xlink:href="#DejaVuSans-72" transform="translate(618.648438 0)"/>
      <use xlink:href="#DejaVuSans-63" transform="translate(657.511719 0)"/>
      <use xlink:href="#DejaVuSans-65" transform="translate(712.492188 0)"/>
     </g>
    </g>
    <g id="line2d_19">
     <path d="M 523.439062 70.976562 
L 533.439062 70.976562 
L 543.439062 70.976562 
" style="fill: none; stroke: #ff7f0e; stroke-width: 1.5; stroke-linecap: square"/>
    </g>
    <g id="text_18">
     <!-- Training-Target -->
     <g transform="translate(551.439062 74.476562) scale(0.1 -0.1)">
      <use xlink:href="#DejaVuSans-54"/>
      <use xlink:href="#DejaVuSans-72" transform="translate(46.333984 0)"/>
      <use xlink:href="#DejaVuSans-61" transform="translate(87.447266 0)"/>
      <use xlink:href="#DejaVuSans-69" transform="translate(148.726562 0)"/>
      <use xlink:href="#DejaVuSans-6e" transform="translate(176.509766 0)"/>
      <use xlink:href="#DejaVuSans-69" transform="translate(239.888672 0)"/>
      <use xlink:href="#DejaVuSans-6e" transform="translate(267.671875 0)"/>
      <use xlink:href="#DejaVuSans-67" transform="translate(331.050781 0)"/>
      <use xlink:href="#DejaVuSans-2d" transform="translate(394.527344 0)"/>
      <use xlink:href="#DejaVuSans-54" transform="translate(421.486328 0)"/>
      <use xlink:href="#DejaVuSans-61" transform="translate(466.070312 0)"/>
      <use xlink:href="#DejaVuSans-72" transform="translate(527.349609 0)"/>
      <use xlink:href="#DejaVuSans-67" transform="translate(566.712891 0)"/>
      <use xlink:href="#DejaVuSans-65" transform="translate(630.189453 0)"/>
      <use xlink:href="#DejaVuSans-74" transform="translate(691.712891 0)"/>
     </g>
    </g>
    <g id="line2d_20">
     <path d="M 523.439062 85.654687 
L 533.439062 85.654687 
L 543.439062 85.654687 
" style="fill: none; stroke: #2ca02c; stroke-width: 1.5; stroke-linecap: square"/>
    </g>
    <g id="text_19">
     <!-- Validating-Source -->
     <g transform="translate(551.439062 89.154687) scale(0.1 -0.1)">
      <use xlink:href="#DejaVuSans-56"/>
      <use xlink:href="#DejaVuSans-61" transform="translate(60.658203 0)"/>
      <use xlink:href="#DejaVuSans-6c" transform="translate(121.9375 0)"/>
      <use xlink:href="#DejaVuSans-69" transform="translate(149.720703 0)"/>
      <use xlink:href="#DejaVuSans-64" transform="translate(177.503906 0)"/>
      <use xlink:href="#DejaVuSans-61" transform="translate(240.980469 0)"/>
      <use xlink:href="#DejaVuSans-74" transform="translate(302.259766 0)"/>
      <use xlink:href="#DejaVuSans-69" transform="translate(341.46875 0)"/>
      <use xlink:href="#DejaVuSans-6e" transform="translate(369.251953 0)"/>
      <use xlink:href="#DejaVuSans-67" transform="translate(432.630859 0)"/>
      <use xlink:href="#DejaVuSans-2d" transform="translate(496.107422 0)"/>
      <use xlink:href="#DejaVuSans-53" transform="translate(532.191406 0)"/>
      <use xlink:href="#DejaVuSans-6f" transform="translate(595.667969 0)"/>
      <use xlink:href="#DejaVuSans-75" transform="translate(656.849609 0)"/>
      <use xlink:href="#DejaVuSans-72" transform="translate(720.228516 0)"/>
      <use xlink:href="#DejaVuSans-63" transform="translate(759.091797 0)"/>
      <use xlink:href="#DejaVuSans-65" transform="translate(814.072266 0)"/>
     </g>
    </g>
    <g id="line2d_21">
     <path d="M 523.439062 100.332812 
L 533.439062 100.332812 
L 543.439062 100.332812 
" style="fill: none; stroke: #d62728; stroke-width: 1.5; stroke-linecap: square"/>
    </g>
    <g id="text_20">
     <!-- Validating-Target -->
     <g transform="translate(551.439062 103.832812) scale(0.1 -0.1)">
      <use xlink:href="#DejaVuSans-56"/>
      <use xlink:href="#DejaVuSans-61" transform="translate(60.658203 0)"/>
      <use xlink:href="#DejaVuSans-6c" transform="translate(121.9375 0)"/>
      <use xlink:href="#DejaVuSans-69" transform="translate(149.720703 0)"/>
      <use xlink:href="#DejaVuSans-64" transform="translate(177.503906 0)"/>
      <use xlink:href="#DejaVuSans-61" transform="translate(240.980469 0)"/>
      <use xlink:href="#DejaVuSans-74" transform="translate(302.259766 0)"/>
      <use xlink:href="#DejaVuSans-69" transform="translate(341.46875 0)"/>
      <use xlink:href="#DejaVuSans-6e" transform="translate(369.251953 0)"/>
      <use xlink:href="#DejaVuSans-67" transform="translate(432.630859 0)"/>
      <use xlink:href="#DejaVuSans-2d" transform="translate(496.107422 0)"/>
      <use xlink:href="#DejaVuSans-54" transform="translate(523.066406 0)"/>
      <use xlink:href="#DejaVuSans-61" transform="translate(567.650391 0)"/>
      <use xlink:href="#DejaVuSans-72" transform="translate(628.929688 0)"/>
      <use xlink:href="#DejaVuSans-67" transform="translate(668.292969 0)"/>
      <use xlink:href="#DejaVuSans-65" transform="translate(731.769531 0)"/>
      <use xlink:href="#DejaVuSans-74" transform="translate(793.292969 0)"/>
     </g>
    </g>
   </g>
  </g>
 </g>
 <defs>
  <clipPath id="p3540c6580e">
   <rect x="90" y="43.2" width="558" height="277.2"/>
  </clipPath>
 </defs>
</svg>
