<?xml version="1.0" encoding="utf-8" standalone="no"?>
<!DOCTYPE svg PUBLIC "-//W3C//DTD SVG 1.1//EN"
  "http://www.w3.org/Graphics/SVG/1.1/DTD/svg11.dtd">
<svg xmlns:xlink="http://www.w3.org/1999/xlink" width="720pt" height="360pt" viewBox="0 0 720 360" xmlns="http://www.w3.org/2000/svg" version="1.1">
 <metadata>
  <rdf:RDF xmlns:dc="http://purl.org/dc/elements/1.1/" xmlns:cc="http://creativecommons.org/ns#" xmlns:rdf="http://www.w3.org/1999/02/22-rdf-syntax-ns#">
   <cc:Work>
    <dc:type rdf:resource="http://purl.org/dc/dcmitype/StillImage"/>
    <dc:date>2026-01-22T16:49:58.055617</dc:date>
    <dc:format>image/svg+xml</dc:format>
    <dc:creator>
     <cc:Agent>
      <dc:title>Matplotlib v3.10.1, https://matplotlib.org/</dc:title>
     </cc:Agent>
    </dc:creator>
   </cc:Work>
  </rdf:RDF>
 </metadata>
 <defs>
  <style type="text/css">*{stroke-linejoin: round; stroke-linecap: butt}</style>
 </defs>
 <g id="figure_1">
  <g id="patch_1">
   <path d="M 0 360 
L 720 360 
L 720 0 
L 0 0 
z
" style="fill: #ffffff"/>
  </g>
  <g id="axes_1">
   <g id="patch_2">
    <path d="M 90 320.4 
L 648 320.4 
L 648 43.2 
L 90 43.2 
z
" style="fill: #ffffff"/>
   </g>
   <g id="matplotlib.axis_1">
    <g id="xtick_1">
     <g id="line2d_1">
      <defs>
       <path id="m62ca617843" d="M 0 0 
L 0 3.5 
" style="stroke: #000000; stroke-width: 0.8"/>
      </defs>
      <g>
       <use xlink:href="#m62ca617843" x="115.363636" y="320.4" style="stroke: #000000; stroke-width: 0.8"/>
      </g>
     </g>
     <g id="text_1">
      <!-- 0 -->
      <g transform="translate(112.182386 334.998438) scale(0.1 -0.1)">
       <defs>
        <path id="DejaVuSans-30" d="M 2034 4250 
Q 1547 4250 1301 3770 
Q 1056 3291 1056 2328 
Q 1056 1369 1301 889 
Q 1547 409 2034 409 
Q 2525 409 2770 889 
Q 3016 1369 3016 2328 
Q 3016 3291 2770 3770 
Q 2525 4250 2034 4250 
z
M 2034 4750 
Q 2819 4750 3233 4129 
Q 3647 3509 3647 2328 
Q 3647 1150 3233 529 
Q 2819 -91 2034 -91 
Q 1250 -91 836 529 
Q 422 1150 422 2328 
Q 422 3509 836 4129 
Q 1250 4750 2034 4750 
z
" transform="scale(0.015625)"/>
       </defs>
       <use xlink:href="#DejaVuSans-30"/>
      </g>
     </g>
    </g>
    <g id="xtick_2">
     <g id="line2d_2">
      <g>
       <use xlink:href="#m62ca617843" x="217.157495" y="320.4" style="stroke: #000000; stroke-width: 0.8"/>
      </g>
     </g>
     <g id="text_2">
      <!-- 60 -->
      <g transform="translate(210.794995 334.998438) scale(0.1 -0.1)">
       <defs>
        <path id="DejaVuSans-36" d="M 2113 2584 
Q 1688 2584 1439 2293 
Q 1191 2003 1191 1497 
Q 1191 994 1439 701 
Q 1688 409 2113 409 
Q 2538 409 2786 701 
Q 3034 994 3034 1497 
Q 3034 2003 2786 2293 
Q 2538 2584 2113 2584 
z
M 3366 4563 
L 3366 3988 
Q 3128 4100 2886 4159 
Q 2644 4219 2406 4219 
Q 1781 4219 1451 3797 
Q 1122 3375 1075 2522 
Q 1259 2794 1537 2939 
Q 1816 3084 2150 3084 
Q 2853 3084 3261 2657 
Q 3669 2231 3669 1497 
Q 3669 778 3244 343 
Q 2819 -91 2113 -91 
Q 1303 -91 875 529 
Q 447 1150 447 2328 
Q 447 3434 972 4092 
Q 1497 4750 2381 4750 
Q 2619 4750 2861 4703 
Q 3103 4656 3366 4563 
z
" transform="scale(0.015625)"/>
       </defs>
       <use xlink:href="#DejaVuSans-36"/>
       <use xlink:href="#DejaVuSans-30" transform="translate(63.623047 0)"/>
      </g>
     </g>
    </g>
    <g id="xtick_3">
     <g id="line2d_3">
      <g>
       <use xlink:href="#m62ca617843" x="318.951353" y="320.4" style="stroke: #000000; stroke-width: 0.8"/>
      </g>
     </g>
     <g id="text_3">
      <!-- 120 -->
      <g transform="translate(309.407603 334.998438) scale(0.1 -0.1)">
       <defs>
        <path id="DejaVuSans-31" d="M 794 531 
L 1825 531 
L 1825 4091 
L 703 3866 
L 703 4441 
L 1819 4666 
L 2450 4666 
L 2450 531 
L 3481 531 
L 3481 0 
L 794 0 
L 794 531 
z
" transform="scale(0.015625)"/>
        <path id="DejaVuSans-32" d="M 1228 531 
L 3431 531 
L 3431 0 
L 469 0 
L 469 531 
Q 828 903 1448 1529 
Q 2069 2156 2228 2338 
Q 2531 2678 2651 2914 
Q 2772 3150 2772 3378 
Q 2772 3750 2511 3984 
Q 2250 4219 1831 4219 
Q 1534 4219 1204 4116 
Q 875 4013 500 3803 
L 500 4441 
Q 881 4594 1212 4672 
Q 1544 4750 1819 4750 
Q 2544 4750 2975 4387 
Q 3406 4025 3406 3419 
Q 3406 3131 3298 2873 
Q 3191 2616 2906 2266 
Q 2828 2175 2409 1742 
Q 1991 1309 1228 531 
z
" transform="scale(0.015625)"/>
       </defs>
       <use xlink:href="#DejaVuSans-31"/>
       <use xlink:href="#DejaVuSans-32" transform="translate(63.623047 0)"/>
       <use xlink:href="#DejaVuSans-30" transform="translate(127.246094 0)"/>
      </g>
     </g>
    </g>
    <g id="xtick_4">
     <g id="line2d_4">
      <g>
       <use xlink:href="#m62ca617843" x="420.745211" y="320.4" style="stroke: #000000; stroke-width: 0.8"/>
      </g>
     </g>
     <g id="text_4">
      <!-- 180 -->
      <g transform="translate(411.201461 334.998438) scale(0.1 -0.1)">
       <defs>
        <path id="DejaVuSans-38" d="M 2034 2216 
Q 1584 2216 1326 1975 
Q 1069 1734 1069 1313 
Q 1069 891 1326 650 
Q 1584 409 2034 409 
Q 2484 409 2743 651 
Q 3003 894 3003 1313 
Q 3003 1734 2745 1975 
Q 2488 2216 2034 2216 
z
M 1403 2484 
Q 997 2584 770 2862 
Q 544 3141 544 3541 
Q 544 4100 942 4425 
Q 1341 4750 2034 4750 
Q 2731 4750 3128 4425 
Q 3525 4100 3525 3541 
Q 3525 3141 3298 2862 
Q 3072 2584 2669 2484 
Q 3125 2378 3379 2068 
Q 3634 1759 3634 1313 
Q 3634 634 3220 271 
Q 2806 -91 2034 -91 
Q 1263 -91 848 271 
Q 434 634 434 1313 
Q 434 1759 690 2068 
Q 947 2378 1403 2484 
z
M 1172 3481 
Q 1172 3119 1398 2916 
Q 1625 2713 2034 2713 
Q 2441 2713 2670 2916 
Q 2900 3119 2900 3481 
Q 2900 3844 2670 4047 
Q 2441 4250 2034 4250 
Q 1625 4250 1398 4047 
Q 1172 3844 1172 3481 
z
" transform="scale(0.015625)"/>
       </defs>
       <use xlink:href="#DejaVuSans-31"/>
       <use xlink:href="#DejaVuSans-38" transform="translate(63.623047 0)"/>
       <use xlink:href="#DejaVuSans-30" transform="translate(127.246094 0)"/>
      </g>
     </g>
    </g>
    <g id="xtick_5">
     <g id="line2d_5">
      <g>
       <use xlink:href="#m62ca617843" x="522.53907" y="320.4" style="stroke: #000000; stroke-width: 0.8"/>
      </g>
     </g>
     <g id="text_5">
      <!-- 240 -->
      <g transform="translate(512.99532 334.998438) scale(0.1 -0.1)">
       <defs>
        <path id="DejaVuSans-34" d="M 2419 4116 
L 825 1625 
L 2419 1625 
L 2419 4116 
z
M 2253 4666 
L 3047 4666 
L 3047 1625 
L 3713 1625 
L 3713 1100 
L 3047 1100 
L 3047 0 
L 2419 0 
L 2419 1100 
L 313 1100 
L 313 1709 
L 2253 4666 
z
" transform="scale(0.015625)"/>
       </defs>
       <use xlink:href="#DejaVuSans-32"/>
       <use xlink:href="#DejaVuSans-34" transform="translate(63.623047 0)"/>
       <use xlink:href="#DejaVuSans-30" transform="translate(127.246094 0)"/>
      </g>
     </g>
    </g>
    <g id="text_6">
     <!-- Epoch -->
     <g transform="translate(353.689062 348.676562) scale(0.1 -0.1)">
      <defs>
       <path id="DejaVuSans-45" d="M 628 4666 
L 3578 4666 
L 3578 4134 
L 1259 4134 
L 1259 2753 
L 3481 2753 
L 3481 2222 
L 1259 2222 
L 1259 531 
L 3634 531 
L 3634 0 
L 628 0 
L 628 4666 
z
" transform="scale(0.015625)"/>
       <path id="DejaVuSans-70" d="M 1159 525 
L 1159 -1331 
L 581 -1331 
L 581 3500 
L 1159 3500 
L 1159 2969 
Q 1341 3281 1617 3432 
Q 1894 3584 2278 3584 
Q 2916 3584 3314 3078 
Q 3713 2572 3713 1747 
Q 3713 922 3314 415 
Q 2916 -91 2278 -91 
Q 1894 -91 1617 61 
Q 1341 213 1159 525 
z
M 3116 1747 
Q 3116 2381 2855 2742 
Q 2594 3103 2138 3103 
Q 1681 3103 1420 2742 
Q 1159 2381 1159 1747 
Q 1159 1113 1420 752 
Q 1681 391 2138 391 
Q 2594 391 2855 752 
Q 3116 1113 3116 1747 
z
" transform="scale(0.015625)"/>
       <path id="DejaVuSans-6f" d="M 1959 3097 
Q 1497 3097 1228 2736 
Q 959 2375 959 1747 
Q 959 1119 1226 758 
Q 1494 397 1959 397 
Q 2419 397 2687 759 
Q 2956 1122 2956 1747 
Q 2956 2369 2687 2733 
Q 2419 3097 1959 3097 
z
M 1959 3584 
Q 2709 3584 3137 3096 
Q 3566 2609 3566 1747 
Q 3566 888 3137 398 
Q 2709 -91 1959 -91 
Q 1206 -91 779 398 
Q 353 888 353 1747 
Q 353 2609 779 3096 
Q 1206 3584 1959 3584 
z
" transform="scale(0.015625)"/>
       <path id="DejaVuSans-63" d="M 3122 3366 
L 3122 2828 
Q 2878 2963 2633 3030 
Q 2388 3097 2138 3097 
Q 1578 3097 1268 2742 
Q 959 2388 959 1747 
Q 959 1106 1268 751 
Q 1578 397 2138 397 
Q 2388 397 2633 464 
Q 2878 531 3122 666 
L 3122 134 
Q 2881 22 2623 -34 
Q 2366 -91 2075 -91 
Q 1284 -91 818 406 
Q 353 903 353 1747 
Q 353 2603 823 3093 
Q 1294 3584 2113 3584 
Q 2378 3584 2631 3529 
Q 2884 3475 3122 3366 
z
" transform="scale(0.015625)"/>
       <path id="DejaVuSans-68" d="M 3513 2113 
L 3513 0 
L 2938 0 
L 2938 2094 
Q 2938 2591 2744 2837 
Q 2550 3084 2163 3084 
Q 1697 3084 1428 2787 
Q 1159 2491 1159 1978 
L 1159 0 
L 581 0 
L 581 4863 
L 1159 4863 
L 1159 2956 
Q 1366 3272 1645 3428 
Q 1925 3584 2291 3584 
Q 2894 3584 3203 3211 
Q 3513 2838 3513 2113 
z
" transform="scale(0.015625)"/>
      </defs>
      <use xlink:href="#DejaVuSans-45"/>
      <use xlink:href="#DejaVuSans-70" transform="translate(63.183594 0)"/>
      <use xlink:href="#DejaVuSans-6f" transform="translate(126.660156 0)"/>
      <use xlink:href="#DejaVuSans-63" transform="translate(187.841797 0)"/>
      <use xlink:href="#DejaVuSans-68" transform="translate(242.822266 0)"/>
     </g>
    </g>
   </g>
   <g id="matplotlib.axis_2">
    <g id="ytick_1">
     <g id="line2d_6">
      <defs>
       <path id="m47b009aff1" d="M 0 0 
L -3.5 0 
" style="stroke: #000000; stroke-width: 0.8"/>
      </defs>
      <g>
       <use xlink:href="#m47b009aff1" x="90" y="319.848432" style="stroke: #000000; stroke-width: 0.8"/>
      </g>
     </g>
     <g id="text_7">
      <!-- 0.10 -->
      <g transform="translate(60.734375 323.647651) scale(0.1 -0.1)">
       <defs>
        <path id="DejaVuSans-2e" d="M 684 794 
L 1344 794 
L 1344 0 
L 684 0 
L 684 794 
z
" transform="scale(0.015625)"/>
       </defs>
       <use xlink:href="#DejaVuSans-30"/>
       <use xlink:href="#DejaVuSans-2e" transform="translate(63.623047 0)"/>
       <use xlink:href="#DejaVuSans-31" transform="translate(95.410156 0)"/>
       <use xlink:href="#DejaVuSans-30" transform="translate(159.033203 0)"/>
      </g>
     </g>
    </g>
    <g id="ytick_2">
     <g id="line2d_7">
      <g>
       <use xlink:href="#m47b009aff1" x="90" y="280.403536" style="stroke: #000000; stroke-width: 0.8"/>
      </g>
     </g>
     <g id="text_8">
      <!-- 0.12 -->
      <g transform="translate(60.734375 284.202755) scale(0.1 -0.1)">
       <use xlink:href="#DejaVuSans-30"/>
       <use xlink:href="#DejaVuSans-2e" transform="translate(63.623047 0)"/>
       <use xlink:href="#DejaVuSans-31" transform="translate(95.410156 0)"/>
       <use xlink:href="#DejaVuSans-32" transform="translate(159.033203 0)"/>
      </g>
     </g>
    </g>
    <g id="ytick_3">
     <g id="line2d_8">
      <g>
       <use xlink:href="#m47b009aff1" x="90" y="240.95864" style="stroke: #000000; stroke-width: 0.8"/>
      </g>
     </g>
     <g id="text_9">
      <!-- 0.14 -->
      <g transform="translate(60.734375 244.757859) scale(0.1 -0.1)">
       <use xlink:href="#DejaVuSans-30"/>
       <use xlink:href="#DejaVuSans-2e" transform="translate(63.623047 0)"/>
       <use xlink:href="#DejaVuSans-31" transform="translate(95.410156 0)"/>
       <use xlink:href="#DejaVuSans-34" transform="translate(159.033203 0)"/>
      </g>
     </g>
    </g>
    <g id="ytick_4">
     <g id="line2d_9">
      <g>
       <use xlink:href="#m47b009aff1" x="90" y="201.513744" style="stroke: #000000; stroke-width: 0.8"/>
      </g>
     </g>
     <g id="text_10">
      <!-- 0.16 -->
      <g transform="translate(60.734375 205.312963) scale(0.1 -0.1)">
       <use xlink:href="#DejaVuSans-30"/>
       <use xlink:href="#DejaVuSans-2e" transform="translate(63.623047 0)"/>
       <use xlink:href="#DejaVuSans-31" transform="translate(95.410156 0)"/>
       <use xlink:href="#DejaVuSans-36" transform="translate(159.033203 0)"/>
      </g>
     </g>
    </g>
    <g id="ytick_5">
     <g id="line2d_10">
      <g>
       <use xlink:href="#m47b009aff1" x="90" y="162.068848" style="stroke: #000000; stroke-width: 0.8"/>
      </g>
     </g>
     <g id="text_11">
      <!-- 0.18 -->
      <g transform="translate(60.734375 165.868067) scale(0.1 -0.1)">
       <use xlink:href="#DejaVuSans-30"/>
       <use xlink:href="#DejaVuSans-2e" transform="translate(63.623047 0)"/>
       <use xlink:href="#DejaVuSans-31" transform="translate(95.410156 0)"/>
       <use xlink:href="#DejaVuSans-38" transform="translate(159.033203 0)"/>
      </g>
     </g>
    </g>
    <g id="ytick_6">
     <g id="line2d_11">
      <g>
       <use xlink:href="#m47b009aff1" x="90" y="122.623952" style="stroke: #000000; stroke-width: 0.8"/>
      </g>
     </g>
     <g id="text_12">
      <!-- 0.20 -->
      <g transform="translate(60.734375 126.423171) scale(0.1 -0.1)">
       <use xlink:href="#DejaVuSans-30"/>
       <use xlink:href="#DejaVuSans-2e" transform="translate(63.623047 0)"/>
       <use xlink:href="#DejaVuSans-32" transform="translate(95.410156 0)"/>
       <use xlink:href="#DejaVuSans-30" transform="translate(159.033203 0)"/>
      </g>
     </g>
    </g>
    <g id="ytick_7">
     <g id="line2d_12">
      <g>
       <use xlink:href="#m47b009aff1" x="90" y="83.179056" style="stroke: #000000; stroke-width: 0.8"/>
      </g>
     </g>
     <g id="text_13">
      <!-- 0.22 -->
      <g transform="translate(60.734375 86.978275) scale(0.1 -0.1)">
       <use xlink:href="#DejaVuSans-30"/>
       <use xlink:href="#DejaVuSans-2e" transform="translate(63.623047 0)"/>
       <use xlink:href="#DejaVuSans-32" transform="translate(95.410156 0)"/>
       <use xlink:href="#DejaVuSans-32" transform="translate(159.033203 0)"/>
      </g>
     </g>
    </g>
    <g id="ytick_8">
     <g id="line2d_13">
      <g>
       <use xlink:href="#m47b009aff1" x="90" y="43.73416" style="stroke: #000000; stroke-width: 0.8"/>
      </g>
     </g>
     <g id="text_14">
      <!-- 0.24 -->
      <g transform="translate(60.734375 47.533379) scale(0.1 -0.1)">
       <use xlink:href="#DejaVuSans-30"/>
       <use xlink:href="#DejaVuSans-2e" transform="translate(63.623047 0)"/>
       <use xlink:href="#DejaVuSans-32" transform="translate(95.410156 0)"/>
       <use xlink:href="#DejaVuSans-34" transform="translate(159.033203 0)"/>
      </g>
     </g>
    </g>
    <g id="text_15">
     <!-- Estimation Loss -->
     <g transform="translate(54.654687 220.98125) rotate(-90) scale(0.1 -0.1)">
      <defs>
       <path id="DejaVuSans-73" d="M 2834 3397 
L 2834 2853 
Q 2591 2978 2328 3040 
Q 2066 3103 1784 3103 
Q 1356 3103 1142 2972 
Q 928 2841 928 2578 
Q 928 2378 1081 2264 
Q 1234 2150 1697 2047 
L 1894 2003 
Q 2506 1872 2764 1633 
Q 3022 1394 3022 966 
Q 3022 478 2636 193 
Q 2250 -91 1575 -91 
Q 1294 -91 989 -36 
Q 684 19 347 128 
L 347 722 
Q 666 556 975 473 
Q 1284 391 1588 391 
Q 1994 391 2212 530 
Q 2431 669 2431 922 
Q 2431 1156 2273 1281 
Q 2116 1406 1581 1522 
L 1381 1569 
Q 847 1681 609 1914 
Q 372 2147 372 2553 
Q 372 3047 722 3315 
Q 1072 3584 1716 3584 
Q 2034 3584 2315 3537 
Q 2597 3491 2834 3397 
z
" transform="scale(0.015625)"/>
       <path id="DejaVuSans-74" d="M 1172 4494 
L 1172 3500 
L 2356 3500 
L 2356 3053 
L 1172 3053 
L 1172 1153 
Q 1172 725 1289 603 
Q 1406 481 1766 481 
L 2356 481 
L 2356 0 
L 1766 0 
Q 1100 0 847 248 
Q 594 497 594 1153 
L 594 3053 
L 172 3053 
L 172 3500 
L 594 3500 
L 594 4494 
L 1172 4494 
z
" transform="scale(0.015625)"/>
       <path id="DejaVuSans-69" d="M 603 3500 
L 1178 3500 
L 1178 0 
L 603 0 
L 603 3500 
z
M 603 4863 
L 1178 4863 
L 1178 4134 
L 603 4134 
L 603 4863 
z
" transform="scale(0.015625)"/>
       <path id="DejaVuSans-6d" d="M 3328 2828 
Q 3544 3216 3844 3400 
Q 4144 3584 4550 3584 
Q 5097 3584 5394 3201 
Q 5691 2819 5691 2113 
L 5691 0 
L 5113 0 
L 5113 2094 
Q 5113 2597 4934 2840 
Q 4756 3084 4391 3084 
Q 3944 3084 3684 2787 
Q 3425 2491 3425 1978 
L 3425 0 
L 2847 0 
L 2847 2094 
Q 2847 2600 2669 2842 
Q 2491 3084 2119 3084 
Q 1678 3084 1418 2786 
Q 1159 2488 1159 1978 
L 1159 0 
L 581 0 
L 581 3500 
L 1159 3500 
L 1159 2956 
Q 1356 3278 1631 3431 
Q 1906 3584 2284 3584 
Q 2666 3584 2933 3390 
Q 3200 3197 3328 2828 
z
" transform="scale(0.015625)"/>
       <path id="DejaVuSans-61" d="M 2194 1759 
Q 1497 1759 1228 1600 
Q 959 1441 959 1056 
Q 959 750 1161 570 
Q 1363 391 1709 391 
Q 2188 391 2477 730 
Q 2766 1069 2766 1631 
L 2766 1759 
L 2194 1759 
z
M 3341 1997 
L 3341 0 
L 2766 0 
L 2766 531 
Q 2569 213 2275 61 
Q 1981 -91 1556 -91 
Q 1019 -91 701 211 
Q 384 513 384 1019 
Q 384 1609 779 1909 
Q 1175 2209 1959 2209 
L 2766 2209 
L 2766 2266 
Q 2766 2663 2505 2880 
Q 2244 3097 1772 3097 
Q 1472 3097 1187 3025 
Q 903 2953 641 2809 
L 641 3341 
Q 956 3463 1253 3523 
Q 1550 3584 1831 3584 
Q 2591 3584 2966 3190 
Q 3341 2797 3341 1997 
z
" transform="scale(0.015625)"/>
       <path id="DejaVuSans-6e" d="M 3513 2113 
L 3513 0 
L 2938 0 
L 2938 2094 
Q 2938 2591 2744 2837 
Q 2550 3084 2163 3084 
Q 1697 3084 1428 2787 
Q 1159 2491 1159 1978 
L 1159 0 
L 581 0 
L 581 3500 
L 1159 3500 
L 1159 2956 
Q 1366 3272 1645 3428 
Q 1925 3584 2291 3584 
Q 2894 3584 3203 3211 
Q 3513 2838 3513 2113 
z
" transform="scale(0.015625)"/>
       <path id="DejaVuSans-20" transform="scale(0.015625)"/>
       <path id="DejaVuSans-4c" d="M 628 4666 
L 1259 4666 
L 1259 531 
L 3531 531 
L 3531 0 
L 628 0 
L 628 4666 
z
" transform="scale(0.015625)"/>
      </defs>
      <use xlink:href="#DejaVuSans-45"/>
      <use xlink:href="#DejaVuSans-73" transform="translate(63.183594 0)"/>
      <use xlink:href="#DejaVuSans-74" transform="translate(115.283203 0)"/>
      <use xlink:href="#DejaVuSans-69" transform="translate(154.492188 0)"/>
      <use xlink:href="#DejaVuSans-6d" transform="translate(182.275391 0)"/>
      <use xlink:href="#DejaVuSans-61" transform="translate(279.6875 0)"/>
      <use xlink:href="#DejaVuSans-74" transform="translate(340.966797 0)"/>
      <use xlink:href="#DejaVuSans-69" transform="translate(380.175781 0)"/>
      <use xlink:href="#DejaVuSans-6f" transform="translate(407.958984 0)"/>
      <use xlink:href="#DejaVuSans-6e" transform="translate(469.140625 0)"/>
      <use xlink:href="#DejaVuSans-20" transform="translate(532.519531 0)"/>
      <use xlink:href="#DejaVuSans-4c" transform="translate(564.306641 0)"/>
      <use xlink:href="#DejaVuSans-6f" transform="translate(618.269531 0)"/>
      <use xlink:href="#DejaVuSans-73" transform="translate(679.451172 0)"/>
      <use xlink:href="#DejaVuSans-73" transform="translate(731.550781 0)"/>
     </g>
    </g>
   </g>
   <g id="line2d_14">
    <path d="M 115.363636 86.908565 
L 117.060201 254.308236 
L 118.756765 273.629355 
L 120.453329 282.370222 
L 122.149894 286.369082 
L 123.846458 288.891855 
L 125.543022 290.739215 
L 127.239587 292.325423 
L 128.936151 293.520131 
L 130.632715 294.126295 
L 132.329279 294.852723 
L 134.025844 295.716936 
L 135.722408 296.083694 
L 137.418972 296.304599 
L 139.115537 296.903477 
L 140.812101 297.348155 
L 142.508665 297.464967 
L 144.20523 297.720404 
L 145.901794 298.097579 
L 147.598358 298.090147 
L 149.294922 298.39624 
L 150.991487 298.588137 
L 152.688051 298.545348 
L 154.384615 298.92059 
L 156.08118 298.970615 
L 157.777744 299.187897 
L 159.474308 299.194066 
L 161.170873 299.403226 
L 162.867437 299.388346 
L 164.564001 299.645747 
L 166.260566 299.646722 
L 167.95713 299.852701 
L 171.350258 299.873738 
L 174.743387 300.114914 
L 176.439951 300.01709 
L 178.136516 300.329208 
L 179.83308 300.24172 
L 181.529644 300.406205 
L 183.226209 300.282237 
L 184.922773 300.481971 
L 186.619337 300.544562 
L 188.315901 300.466374 
L 195.102159 300.764119 
L 198.495287 300.821646 
L 201.888416 300.902205 
L 203.58498 300.896267 
L 205.281545 301.019005 
L 208.674673 301.003561 
L 210.371237 301.1189 
L 217.157495 301.127408 
L 218.854059 301.262109 
L 220.550623 301.207386 
L 223.943752 301.270983 
L 237.516266 301.466927 
L 245.999088 301.531149 
L 247.695652 301.606592 
L 251.088781 301.606224 
L 303.682274 302.023114 
L 305.378839 301.946819 
L 308.771967 302.000798 
L 312.165096 301.97999 
L 313.86166 302.078144 
L 320.647917 302.040592 
L 342.703253 302.15707 
L 351.186075 302.167792 
L 354.579203 302.174712 
L 369.848282 302.250119 
L 374.937975 302.246607 
L 388.51049 302.310876 
L 391.903618 302.254844 
L 393.600182 302.34108 
L 400.38644 302.302125 
L 403.779568 302.355811 
L 413.958954 302.340649 
L 420.745211 302.392988 
L 451.283369 302.45648 
L 454.676497 302.439497 
L 498.787169 302.517555 
L 515.752812 302.536289 
L 547.987534 302.56509 
L 558.16692 302.583953 
L 593.79477 302.618749 
L 600.581028 302.624918 
L 610.760413 302.632426 
L 622.636364 302.637098 
L 622.636364 302.637098 
" clip-path="url(#pb6584bbf56)" style="fill: none; stroke: #1f77b4; stroke-width: 1.5; stroke-linecap: square"/>
   </g>
   <g id="line2d_15">
    <path d="M 115.363636 55.8 
L 117.060201 227.06598 
L 118.756765 252.277701 
L 120.453329 264.459453 
L 122.149894 270.071333 
L 123.846458 274.981926 
L 125.543022 278.583551 
L 127.239587 281.674636 
L 128.936151 284.126715 
L 130.632715 285.586428 
L 132.329279 287.507121 
L 134.025844 288.885073 
L 135.722408 289.761316 
L 137.418972 290.292734 
L 140.812101 292.159735 
L 144.20523 292.939309 
L 145.901794 293.314819 
L 147.598358 294.389305 
L 149.294922 294.683422 
L 150.991487 295.160448 
L 152.688051 294.717058 
L 154.384615 295.184543 
L 156.08118 295.519938 
L 157.777744 296.108571 
L 159.474308 296.229819 
L 161.170873 296.691389 
L 162.867437 296.45655 
L 164.564001 297.144972 
L 166.260566 297.206442 
L 167.95713 297.454005 
L 169.653694 297.299968 
L 171.350258 297.402414 
L 174.743387 297.229726 
L 176.439951 297.859133 
L 178.136516 298.696872 
L 179.83308 298.956381 
L 181.529644 298.738094 
L 183.226209 298.765621 
L 184.922773 299.208054 
L 186.619337 299.021276 
L 188.315901 299.505609 
L 190.012466 299.438196 
L 191.70903 299.847354 
L 193.405594 299.635405 
L 195.102159 299.694467 
L 196.798723 300.030019 
L 198.495287 300.5051 
L 200.191852 300.207388 
L 201.888416 300.422591 
L 203.58498 300.02969 
L 205.281545 300.681756 
L 208.674673 300.206184 
L 212.067802 300.669291 
L 213.764366 300.530117 
L 215.46093 300.951307 
L 217.157495 300.802702 
L 218.854059 301.485516 
L 220.550623 301.137375 
L 223.943752 300.796634 
L 225.640316 301.156212 
L 227.336881 300.915714 
L 229.033445 300.86728 
L 230.730009 301.025148 
L 232.426573 301.380324 
L 235.819702 301.668438 
L 237.516266 301.502657 
L 239.212831 301.717023 
L 240.909395 302.150042 
L 242.605959 301.718911 
L 244.302524 302.516109 
L 245.999088 302.074853 
L 247.695652 302.065553 
L 249.392216 302.353809 
L 251.088781 302.429325 
L 252.785345 302.379882 
L 254.481909 302.521306 
L 257.875038 302.026637 
L 259.571602 302.521436 
L 273.144117 302.922034 
L 274.840681 303.729357 
L 276.537245 303.034731 
L 278.23381 302.864423 
L 279.930374 303.634273 
L 281.626938 303.140633 
L 283.323503 303.542818 
L 285.020067 303.364831 
L 286.716631 303.642096 
L 288.413196 303.713692 
L 290.10976 303.170136 
L 291.806324 302.979287 
L 293.502888 303.550586 
L 295.199453 303.816202 
L 296.896017 303.464266 
L 298.592581 303.397408 
L 300.289146 303.795086 
L 301.98571 303.997579 
L 303.682274 303.86457 
L 305.378839 304.072968 
L 307.075403 303.76494 
L 308.771967 303.979522 
L 310.468531 303.506228 
L 312.165096 304.255515 
L 313.86166 304.508624 
L 315.558224 304.269064 
L 317.254789 304.554225 
L 320.647917 303.865068 
L 322.344482 304.251308 
L 324.041046 304.300026 
L 325.73761 303.665996 
L 327.434175 304.664921 
L 329.130739 304.88487 
L 332.523867 304.23587 
L 334.220432 304.722442 
L 337.61356 304.285045 
L 341.006689 305.050602 
L 342.703253 304.54994 
L 344.399818 305.01179 
L 346.096382 304.942483 
L 347.792946 304.5005 
L 349.48951 304.620536 
L 351.186075 305.123393 
L 352.882639 304.848888 
L 354.579203 305.088818 
L 357.972332 304.915489 
L 359.668896 305.721686 
L 361.365461 305.230739 
L 363.062025 305.057734 
L 364.758589 305.641101 
L 366.455154 305.52361 
L 368.151718 304.910517 
L 369.848282 305.088523 
L 371.544846 305.538778 
L 373.241411 305.596139 
L 374.937975 305.269669 
L 376.634539 305.545224 
L 380.027668 305.532031 
L 381.724232 306.028429 
L 383.420797 305.790985 
L 385.117361 305.737702 
L 386.813925 305.298139 
L 388.51049 305.617717 
L 390.207054 305.355149 
L 391.903618 305.665921 
L 393.600182 305.860157 
L 395.296747 305.608436 
L 396.993311 305.878728 
L 398.689875 305.987411 
L 400.38644 305.799096 
L 402.083004 306.05446 
L 403.779568 305.816271 
L 408.869261 305.822371 
L 410.565825 305.577531 
L 412.26239 306.598812 
L 413.958954 306.244319 
L 417.352083 306.240621 
L 419.048647 306.293382 
L 420.745211 306.219051 
L 424.13834 306.328859 
L 425.834904 306.114885 
L 427.531469 306.292371 
L 430.924597 306.29692 
L 432.621161 306.192622 
L 437.710854 306.23013 
L 439.407419 306.206367 
L 442.800547 306.556007 
L 446.193676 306.319533 
L 447.89024 306.72028 
L 449.586804 306.796812 
L 451.283369 306.707307 
L 452.979933 306.312068 
L 456.373062 306.540872 
L 458.069626 306.306656 
L 459.76619 306.594601 
L 463.159319 306.688153 
L 464.855883 307.003451 
L 466.552448 306.892509 
L 468.249012 306.484676 
L 469.945576 306.645202 
L 471.64214 306.514371 
L 473.338705 306.882454 
L 475.035269 306.788629 
L 476.731833 306.484747 
L 478.428398 306.454679 
L 480.124962 306.708509 
L 481.821526 306.816843 
L 483.518091 306.751003 
L 485.214655 306.995878 
L 486.911219 306.507542 
L 488.607784 306.797536 
L 490.304348 306.880102 
L 492.000912 306.686098 
L 495.394041 306.694124 
L 497.090605 306.958354 
L 500.483734 307.033291 
L 502.180298 307.058063 
L 503.876862 306.596085 
L 505.573427 306.88174 
L 507.269991 306.772462 
L 508.966555 306.927127 
L 510.663119 306.831285 
L 514.056248 307.039277 
L 515.752812 307.390863 
L 517.449377 307.490952 
L 519.145941 306.930957 
L 520.842505 306.570581 
L 522.53907 306.975233 
L 524.235634 307.189623 
L 525.932198 306.920933 
L 527.628763 307.242827 
L 529.325327 306.884134 
L 531.021891 306.975936 
L 532.718455 307.312077 
L 536.111584 306.781325 
L 537.808148 306.733592 
L 539.504713 307.269611 
L 541.201277 306.687287 
L 542.897841 307.138671 
L 544.594406 306.984229 
L 558.16692 307.225471 
L 559.863484 307.359658 
L 561.560049 307.243472 
L 563.256613 307.504923 
L 564.953177 307.574774 
L 568.346306 307.224385 
L 570.04287 307.059787 
L 571.739434 307.469003 
L 573.435999 307.193543 
L 575.132563 307.512005 
L 576.829127 307.639377 
L 578.525692 307.436888 
L 581.91882 307.520118 
L 583.615385 307.374635 
L 585.311949 307.421916 
L 587.008513 307.246258 
L 588.705078 307.725344 
L 590.401642 307.394061 
L 592.098206 307.596086 
L 593.79477 307.116645 
L 598.884463 307.342079 
L 600.581028 307.622149 
L 602.277592 307.395618 
L 605.670721 307.394207 
L 607.367285 307.50824 
L 609.063849 307.789765 
L 610.760413 307.54593 
L 612.456978 307.8 
L 615.850106 307.585038 
L 617.546671 307.672793 
L 620.939799 307.607692 
L 622.636364 307.6865 
L 622.636364 307.6865 
" clip-path="url(#pb6584bbf56)" style="fill: none; stroke: #ff7f0e; stroke-width: 1.5; stroke-linecap: square"/>
   </g>
   <g id="line2d_16">
    <path d="M 115.363636 190.696968 
L 117.060201 211.313443 
L 118.756765 221.239117 
L 120.453329 224.963466 
L 122.149894 229.490246 
L 123.846458 232.197885 
L 125.543022 233.966412 
L 127.239587 234.444242 
L 128.936151 235.422628 
L 130.632715 236.234845 
L 132.329279 236.217469 
L 134.025844 236.524493 
L 135.722408 237.644295 
L 137.418972 237.71022 
L 139.115537 238.02908 
L 142.508665 238.289191 
L 144.20523 239.046392 
L 145.901794 238.232114 
L 147.598358 238.277309 
L 149.294922 237.533346 
L 150.991487 239.664154 
L 152.688051 238.849358 
L 154.384615 238.598127 
L 156.08118 238.827878 
L 157.777744 240.01909 
L 159.474308 239.914143 
L 161.170873 239.675229 
L 164.564001 240.03057 
L 167.95713 239.261755 
L 169.653694 240.645846 
L 171.350258 240.947952 
L 173.046823 240.127696 
L 174.743387 240.554091 
L 176.439951 240.177043 
L 179.83308 240.756052 
L 181.529644 240.843736 
L 184.922773 240.480214 
L 188.315901 240.901146 
L 190.012466 240.951009 
L 191.70903 240.636903 
L 193.405594 240.578865 
L 195.102159 240.650806 
L 196.798723 241.145545 
L 198.495287 240.429999 
L 200.191852 241.287887 
L 201.888416 240.4609 
L 203.58498 241.359846 
L 206.978109 241.285164 
L 208.674673 241.727624 
L 210.371237 241.282248 
L 212.067802 241.702135 
L 213.764366 241.553155 
L 215.46093 241.780166 
L 218.854059 241.457038 
L 220.550623 241.743488 
L 222.247188 241.911826 
L 227.336881 241.744149 
L 229.033445 241.529401 
L 230.730009 241.816565 
L 232.426573 241.852924 
L 234.123138 241.475932 
L 235.819702 241.841135 
L 237.516266 242.015518 
L 239.212831 241.976348 
L 240.909395 241.765965 
L 242.605959 241.989203 
L 244.302524 241.987719 
L 245.999088 241.578848 
L 247.695652 241.910948 
L 249.392216 241.784655 
L 251.088781 241.994509 
L 252.785345 241.602646 
L 254.481909 242.06216 
L 256.178474 241.785027 
L 257.875038 241.230889 
L 259.571602 242.122743 
L 261.268167 242.208567 
L 262.964731 241.778115 
L 264.661295 242.177965 
L 266.35786 242.03383 
L 271.447552 242.093746 
L 273.144117 242.132396 
L 274.840681 241.753871 
L 276.537245 241.998667 
L 279.930374 241.967667 
L 281.626938 242.011935 
L 285.020067 241.86312 
L 290.10976 242.283424 
L 291.806324 242.143834 
L 293.502888 242.152154 
L 295.199453 242.444535 
L 296.896017 242.457285 
L 298.592581 241.920568 
L 300.289146 242.383626 
L 301.98571 241.867185 
L 303.682274 242.223915 
L 307.075403 242.250333 
L 308.771967 242.447207 
L 310.468531 242.304864 
L 313.86166 242.217807 
L 315.558224 242.438144 
L 317.254789 242.168475 
L 320.647917 242.496438 
L 322.344482 242.415206 
L 324.041046 242.575965 
L 327.434175 242.348247 
L 329.130739 242.493609 
L 332.523867 242.283953 
L 334.220432 242.496105 
L 335.916996 242.235014 
L 337.61356 242.48012 
L 341.006689 242.387537 
L 342.703253 242.412838 
L 344.399818 242.553834 
L 346.096382 242.527681 
L 347.792946 242.006281 
L 349.48951 242.589015 
L 356.275768 242.238487 
L 359.668896 242.686285 
L 361.365461 242.293981 
L 363.062025 242.547061 
L 364.758589 242.553398 
L 366.455154 242.400488 
L 373.241411 242.539477 
L 374.937975 242.003621 
L 378.331104 242.706573 
L 385.117361 242.507313 
L 386.813925 242.578247 
L 388.51049 242.425014 
L 390.207054 242.450799 
L 391.903618 242.638191 
L 395.296747 242.656667 
L 396.993311 242.547232 
L 398.689875 242.63415 
L 400.38644 242.51223 
L 402.083004 242.654624 
L 403.779568 242.161138 
L 405.476133 242.6672 
L 407.172697 242.515381 
L 408.869261 242.594572 
L 410.565825 242.47368 
L 413.958954 242.722715 
L 415.655518 242.610353 
L 417.352083 242.801136 
L 419.048647 242.692832 
L 420.745211 242.106487 
L 422.441776 242.808761 
L 424.13834 242.650246 
L 429.228033 242.705625 
L 430.924597 242.496367 
L 434.317726 242.781732 
L 437.710854 242.539546 
L 441.103983 242.593261 
L 442.800547 242.749513 
L 444.497112 242.686337 
L 446.193676 242.345041 
L 447.89024 242.76955 
L 449.586804 242.722317 
L 452.979933 242.767283 
L 454.676497 242.80655 
L 456.373062 242.618019 
L 458.069626 242.885211 
L 459.76619 242.754522 
L 461.462755 242.86898 
L 463.159319 242.712246 
L 468.249012 242.779897 
L 469.945576 242.317807 
L 471.64214 242.848538 
L 473.338705 242.896154 
L 475.035269 242.750069 
L 476.731833 242.873461 
L 478.428398 242.65933 
L 480.124962 242.805193 
L 481.821526 242.774636 
L 483.518091 242.214871 
L 485.214655 242.77259 
L 486.911219 242.537185 
L 488.607784 242.917117 
L 492.000912 242.798491 
L 497.090605 242.940586 
L 498.787169 242.753142 
L 502.180298 242.738651 
L 503.876862 242.964078 
L 505.573427 242.810616 
L 508.966555 242.963276 
L 510.663119 242.81566 
L 515.752812 242.722138 
L 517.449377 242.951392 
L 520.842505 242.67731 
L 522.53907 242.7791 
L 524.235634 243.00664 
L 527.628763 242.889852 
L 532.718455 242.841686 
L 534.41502 243.007952 
L 537.808148 242.815464 
L 546.29097 242.913903 
L 556.470356 242.860767 
L 561.560049 243.065555 
L 566.649742 242.682323 
L 568.346306 242.943316 
L 570.04287 242.995637 
L 573.435999 242.754159 
L 580.222256 242.964636 
L 583.615385 242.826572 
L 585.311949 242.948097 
L 587.008513 242.686093 
L 588.705078 242.987919 
L 590.401642 242.988266 
L 592.098206 242.82544 
L 593.79477 242.801809 
L 595.491335 242.971864 
L 614.153542 242.861415 
L 615.850106 243.063738 
L 620.939799 242.901865 
L 622.636364 242.967995 
L 622.636364 242.967995 
" clip-path="url(#pb6584bbf56)" style="fill: none; stroke: #2ca02c; stroke-width: 1.5; stroke-linecap: square"/>
   </g>
   <g id="line2d_17">
    <path d="M 115.363636 180.241153 
L 117.060201 210.203647 
L 118.756765 230.278233 
L 122.149894 246.038307 
L 125.543022 257.653765 
L 127.239587 257.750511 
L 128.936151 261.246451 
L 130.632715 261.44559 
L 132.329279 262.498278 
L 134.025844 265.664606 
L 135.722408 264.697338 
L 137.418972 267.914273 
L 139.115537 268.773463 
L 140.812101 269.493785 
L 142.508665 270.914303 
L 144.20523 269.235212 
L 145.901794 268.71208 
L 147.598358 270.033251 
L 149.294922 267.756729 
L 150.991487 272.243994 
L 154.384615 268.929059 
L 156.08118 269.779657 
L 157.777744 273.180015 
L 159.474308 272.8484 
L 161.170873 270.481327 
L 164.564001 273.245418 
L 166.260566 273.31624 
L 167.95713 271.78372 
L 169.653694 273.087482 
L 171.350258 272.742696 
L 173.046823 273.18657 
L 174.743387 272.494723 
L 176.439951 273.912412 
L 178.136516 271.617884 
L 179.83308 273.427061 
L 181.529644 270.887062 
L 183.226209 273.905441 
L 184.922773 274.202718 
L 186.619337 271.984732 
L 188.315901 273.633693 
L 190.012466 273.844713 
L 191.70903 273.86558 
L 193.405594 273.095772 
L 195.102159 275.270517 
L 196.798723 273.481291 
L 198.495287 273.583056 
L 200.191852 275.301448 
L 201.888416 274.657349 
L 203.58498 274.759785 
L 206.978109 273.865172 
L 208.674673 275.327167 
L 210.371237 272.291011 
L 212.067802 276.239589 
L 213.764366 272.38006 
L 215.46093 275.445617 
L 217.157495 274.854484 
L 218.854059 275.132171 
L 220.550623 276.978841 
L 222.247188 274.793032 
L 223.943752 277.860739 
L 225.640316 277.356294 
L 227.336881 275.062587 
L 229.033445 273.627161 
L 230.730009 274.195542 
L 232.426573 274.3241 
L 234.123138 274.723643 
L 235.819702 275.449057 
L 237.516266 276.029171 
L 239.212831 276.152138 
L 240.909395 276.712081 
L 242.605959 275.392626 
L 244.302524 275.234899 
L 245.999088 275.938869 
L 247.695652 273.475718 
L 249.392216 275.98831 
L 251.088781 275.539551 
L 252.785345 276.218021 
L 254.481909 274.755041 
L 256.178474 276.55479 
L 257.875038 275.725115 
L 259.571602 274.538904 
L 261.268167 273.619149 
L 262.964731 275.271669 
L 264.661295 276.326729 
L 266.35786 275.122037 
L 268.054424 276.401509 
L 269.750988 276.350799 
L 271.447552 275.362372 
L 273.144117 277.594341 
L 274.840681 277.686041 
L 276.537245 274.813895 
L 278.23381 276.780809 
L 281.626938 274.533278 
L 283.323503 277.894609 
L 285.020067 276.284632 
L 286.716631 276.978193 
L 288.413196 276.333447 
L 291.806324 275.427691 
L 293.502888 275.425879 
L 295.199453 278.410055 
L 296.896017 277.889323 
L 298.592581 275.922682 
L 300.289146 276.618918 
L 301.98571 275.862383 
L 303.682274 278.201096 
L 305.378839 275.069693 
L 307.075403 277.841542 
L 308.771967 276.891603 
L 310.468531 276.404337 
L 312.165096 277.52849 
L 313.86166 275.468479 
L 315.558224 277.980657 
L 317.254789 276.925026 
L 318.951353 278.136431 
L 320.647917 277.534682 
L 322.344482 278.592711 
L 324.041046 276.893176 
L 325.73761 276.186661 
L 327.434175 277.319029 
L 329.130739 278.195297 
L 330.827303 278.807565 
L 332.523867 277.804084 
L 334.220432 277.056609 
L 335.916996 276.783196 
L 339.310125 277.55777 
L 341.006689 277.626929 
L 342.703253 278.386772 
L 344.399818 277.221986 
L 346.096382 277.687164 
L 347.792946 276.407129 
L 349.48951 279.211028 
L 351.186075 277.499425 
L 352.882639 276.413199 
L 354.579203 278.012472 
L 356.275768 276.71294 
L 357.972332 278.021108 
L 359.668896 279.095935 
L 361.365461 278.368152 
L 363.062025 278.468499 
L 364.758589 276.865915 
L 366.455154 280.050265 
L 368.151718 278.106558 
L 369.848282 278.584858 
L 371.544846 277.093095 
L 373.241411 276.96861 
L 374.937975 279.6607 
L 376.634539 278.015571 
L 378.331104 277.459947 
L 380.027668 277.654378 
L 381.724232 278.74646 
L 383.420797 277.188178 
L 385.117361 278.322664 
L 386.813925 278.908077 
L 388.51049 278.385554 
L 390.207054 278.356906 
L 391.903618 276.993396 
L 393.600182 276.922499 
L 395.296747 278.814166 
L 396.993311 278.988442 
L 400.38644 276.98492 
L 402.083004 278.876664 
L 403.779568 277.872334 
L 405.476133 279.445884 
L 407.172697 276.753333 
L 408.869261 277.565444 
L 410.565825 279.727843 
L 412.26239 278.572067 
L 413.958954 277.834225 
L 415.655518 277.839619 
L 417.352083 277.369377 
L 419.048647 280.149032 
L 420.745211 280.070245 
L 422.441776 278.255278 
L 424.13834 278.401172 
L 425.834904 279.400322 
L 427.531469 277.140525 
L 429.228033 279.1125 
L 430.924597 279.410643 
L 432.621161 278.569107 
L 434.317726 278.847244 
L 436.01429 279.349933 
L 437.710854 277.596542 
L 441.103983 278.521057 
L 442.800547 279.226575 
L 444.497112 278.274984 
L 446.193676 279.728076 
L 447.89024 278.578944 
L 449.586804 278.916742 
L 451.283369 278.398898 
L 452.979933 278.9664 
L 454.676497 278.880018 
L 456.373062 278.422781 
L 458.069626 278.795354 
L 459.76619 279.026076 
L 461.462755 278.716272 
L 463.159319 279.386441 
L 464.855883 278.931228 
L 466.552448 278.744665 
L 468.249012 279.364055 
L 471.64214 278.80948 
L 473.338705 279.416114 
L 475.035269 278.735022 
L 476.731833 277.026146 
L 478.428398 278.311554 
L 480.124962 279.417229 
L 481.821526 278.945013 
L 483.518091 280.654703 
L 485.214655 280.213425 
L 486.911219 280.107991 
L 488.607784 278.146811 
L 492.000912 279.015082 
L 493.697476 277.917602 
L 497.090605 279.232773 
L 498.787169 280.043512 
L 500.483734 279.077129 
L 502.180298 280.308946 
L 503.876862 278.14448 
L 505.573427 279.18338 
L 507.269991 278.699772 
L 510.663119 278.440548 
L 512.359684 279.228585 
L 514.056248 279.618057 
L 515.752812 278.675403 
L 517.449377 279.312125 
L 519.145941 279.169667 
L 520.842505 278.787106 
L 522.53907 279.018831 
L 524.235634 279.406292 
L 525.932198 277.454356 
L 527.628763 280.103789 
L 529.325327 279.014351 
L 531.021891 279.855335 
L 532.718455 276.802855 
L 534.41502 278.828257 
L 536.111584 280.136522 
L 537.808148 279.074874 
L 541.201277 277.648682 
L 542.897841 278.941986 
L 544.594406 278.24813 
L 546.29097 279.055276 
L 547.987534 279.468229 
L 549.684099 279.543004 
L 551.380663 278.732888 
L 553.077227 278.954923 
L 554.773791 279.894933 
L 556.470356 279.143291 
L 558.16692 279.017209 
L 559.863484 279.19282 
L 561.560049 279.561266 
L 563.256613 278.991547 
L 564.953177 278.814349 
L 566.649742 278.940487 
L 571.739434 278.635411 
L 573.435999 278.776857 
L 575.132563 279.238331 
L 578.525692 280.622146 
L 580.222256 279.115284 
L 581.91882 278.889801 
L 583.615385 278.42219 
L 585.311949 280.049545 
L 587.008513 278.103444 
L 588.705078 279.700177 
L 590.401642 278.713609 
L 592.098206 279.161947 
L 593.79477 277.682782 
L 595.491335 279.065994 
L 597.187899 278.953773 
L 598.884463 278.720439 
L 600.581028 279.257284 
L 602.277592 279.264386 
L 603.974156 278.481142 
L 605.670721 278.027957 
L 607.367285 279.186818 
L 609.063849 278.53715 
L 610.760413 279.787671 
L 612.456978 279.680117 
L 614.153542 279.793931 
L 615.850106 279.77121 
L 617.546671 280.874892 
L 619.243235 279.209983 
L 620.939799 277.754176 
L 622.636364 278.957871 
L 622.636364 278.957871 
" clip-path="url(#pb6584bbf56)" style="fill: none; stroke: #d62728; stroke-width: 1.5; stroke-linecap: square"/>
   </g>
   <g id="patch_3">
    <path d="M 90 320.4 
L 90 43.2 
" style="fill: none; stroke: #000000; stroke-width: 0.8; stroke-linejoin: miter; stroke-linecap: square"/>
   </g>
   <g id="patch_4">
    <path d="M 648 320.4 
L 648 43.2 
" style="fill: none; stroke: #000000; stroke-width: 0.8; stroke-linejoin: miter; stroke-linecap: square"/>
   </g>
   <g id="patch_5">
    <path d="M 90 320.4 
L 648 320.4 
" style="fill: none; stroke: #000000; stroke-width: 0.8; stroke-linejoin: miter; stroke-linecap: square"/>
   </g>
   <g id="patch_6">
    <path d="M 90 43.2 
L 648 43.2 
" style="fill: none; stroke: #000000; stroke-width: 0.8; stroke-linejoin: miter; stroke-linecap: square"/>
   </g>
   <g id="text_16">
    <!-- Training and Validating Estimation Loss -->
    <g transform="translate(251.535937 37.2) scale(0.12 -0.12)">
     <defs>
      <path id="DejaVuSans-54" d="M -19 4666 
L 3928 4666 
L 3928 4134 
L 2272 4134 
L 2272 0 
L 1638 0 
L 1638 4134 
L -19 4134 
L -19 4666 
z
" transform="scale(0.015625)"/>
      <path id="DejaVuSans-72" d="M 2631 2963 
Q 2534 3019 2420 3045 
Q 2306 3072 2169 3072 
Q 1681 3072 1420 2755 
Q 1159 2438 1159 1844 
L 1159 0 
L 581 0 
L 581 3500 
L 1159 3500 
L 1159 2956 
Q 1341 3275 1631 3429 
Q 1922 3584 2338 3584 
Q 2397 3584 2469 3576 
Q 2541 3569 2628 3553 
L 2631 2963 
z
" transform="scale(0.015625)"/>
      <path id="DejaVuSans-67" d="M 2906 1791 
Q 2906 2416 2648 2759 
Q 2391 3103 1925 3103 
Q 1463 3103 1205 2759 
Q 947 2416 947 1791 
Q 947 1169 1205 825 
Q 1463 481 1925 481 
Q 2391 481 2648 825 
Q 2906 1169 2906 1791 
z
M 3481 434 
Q 3481 -459 3084 -895 
Q 2688 -1331 1869 -1331 
Q 1566 -1331 1297 -1286 
Q 1028 -1241 775 -1147 
L 775 -588 
Q 1028 -725 1275 -790 
Q 1522 -856 1778 -856 
Q 2344 -856 2625 -561 
Q 2906 -266 2906 331 
L 2906 616 
Q 2728 306 2450 153 
Q 2172 0 1784 0 
Q 1141 0 747 490 
Q 353 981 353 1791 
Q 353 2603 747 3093 
Q 1141 3584 1784 3584 
Q 2172 3584 2450 3431 
Q 2728 3278 2906 2969 
L 2906 3500 
L 3481 3500 
L 3481 434 
z
" transform="scale(0.015625)"/>
      <path id="DejaVuSans-64" d="M 2906 2969 
L 2906 4863 
L 3481 4863 
L 3481 0 
L 2906 0 
L 2906 525 
Q 2725 213 2448 61 
Q 2172 -91 1784 -91 
Q 1150 -91 751 415 
Q 353 922 353 1747 
Q 353 2572 751 3078 
Q 1150 3584 1784 3584 
Q 2172 3584 2448 3432 
Q 2725 3281 2906 2969 
z
M 947 1747 
Q 947 1113 1208 752 
Q 1469 391 1925 391 
Q 2381 391 2643 752 
Q 2906 1113 2906 1747 
Q 2906 2381 2643 2742 
Q 2381 3103 1925 3103 
Q 1469 3103 1208 2742 
Q 947 2381 947 1747 
z
" transform="scale(0.015625)"/>
      <path id="DejaVuSans-56" d="M 1831 0 
L 50 4666 
L 709 4666 
L 2188 738 
L 3669 4666 
L 4325 4666 
L 2547 0 
L 1831 0 
z
" transform="scale(0.015625)"/>
      <path id="DejaVuSans-6c" d="M 603 4863 
L 1178 4863 
L 1178 0 
L 603 0 
L 603 4863 
z
" transform="scale(0.015625)"/>
     </defs>
     <use xlink:href="#DejaVuSans-54"/>
     <use xlink:href="#DejaVuSans-72" transform="translate(46.333984 0)"/>
     <use xlink:href="#DejaVuSans-61" transform="translate(87.447266 0)"/>
     <use xlink:href="#DejaVuSans-69" transform="translate(148.726562 0)"/>
     <use xlink:href="#DejaVuSans-6e" transform="translate(176.509766 0)"/>
     <use xlink:href="#DejaVuSans-69" transform="translate(239.888672 0)"/>
     <use xlink:href="#DejaVuSans-6e" transform="translate(267.671875 0)"/>
     <use xlink:href="#DejaVuSans-67" transform="translate(331.050781 0)"/>
     <use xlink:href="#DejaVuSans-20" transform="translate(394.527344 0)"/>
     <use xlink:href="#DejaVuSans-61" transform="translate(426.314453 0)"/>
     <use xlink:href="#DejaVuSans-6e" transform="translate(487.59375 0)"/>
     <use xlink:href="#DejaVuSans-64" transform="translate(550.972656 0)"/>
     <use xlink:href="#DejaVuSans-20" transform="translate(614.449219 0)"/>
     <use xlink:href="#DejaVuSans-56" transform="translate(646.236328 0)"/>
     <use xlink:href="#DejaVuSans-61" transform="translate(706.894531 0)"/>
     <use xlink:href="#DejaVuSans-6c" transform="translate(768.173828 0)"/>
     <use xlink:href="#DejaVuSans-69" transform="translate(795.957031 0)"/>
     <use xlink:href="#DejaVuSans-64" transform="translate(823.740234 0)"/>
     <use xlink:href="#DejaVuSans-61" transform="translate(887.216797 0)"/>
     <use xlink:href="#DejaVuSans-74" transform="translate(948.496094 0)"/>
     <use xlink:href="#DejaVuSans-69" transform="translate(987.705078 0)"/>
     <use xlink:href="#DejaVuSans-6e" transform="translate(1015.488281 0)"/>
     <use xlink:href="#DejaVuSans-67" transform="translate(1078.867188 0)"/>
     <use xlink:href="#DejaVuSans-20" transform="translate(1142.34375 0)"/>
     <use xlink:href="#DejaVuSans-45" transform="translate(1174.130859 0)"/>
     <use xlink:href="#DejaVuSans-73" transform="translate(1237.314453 0)"/>
     <use xlink:href="#DejaVuSans-74" transform="translate(1289.414062 0)"/>
     <use xlink:href="#DejaVuSans-69" transform="translate(1328.623047 0)"/>
     <use xlink:href="#DejaVuSans-6d" transform="translate(1356.40625 0)"/>
     <use xlink:href="#DejaVuSans-61" transform="translate(1453.818359 0)"/>
     <use xlink:href="#DejaVuSans-74" transform="translate(1515.097656 0)"/>
     <use xlink:href="#DejaVuSans-69" transform="translate(1554.306641 0)"/>
     <use xlink:href="#DejaVuSans-6f" transform="translate(1582.089844 0)"/>
     <use xlink:href="#DejaVuSans-6e" transform="translate(1643.271484 0)"/>
     <use xlink:href="#DejaVuSans-20" transform="translate(1706.650391 0)"/>
     <use xlink:href="#DejaVuSans-4c" transform="translate(1738.4375 0)"/>
     <use xlink:href="#DejaVuSans-6f" transform="translate(1792.400391 0)"/>
     <use xlink:href="#DejaVuSans-73" transform="translate(1853.582031 0)"/>
     <use xlink:href="#DejaVuSans-73" transform="translate(1905.681641 0)"/>
    </g>
   </g>
   <g id="legend_1">
    <g id="patch_7">
     <path d="M 521.439062 109.9125 
L 641 109.9125 
Q 643 109.9125 643 107.9125 
L 643 50.2 
Q 643 48.2 641 48.2 
L 521.439062 48.2 
Q 519.439062 48.2 519.439062 50.2 
L 519.439062 107.9125 
Q 519.439062 109.9125 521.439062 109.9125 
z
" style="fill: #ffffff; opacity: 0.8; stroke: #cccccc; stroke-linejoin: miter"/>
    </g>
    <g id="line2d_18">
     <path d="M 523.439062 56.298437 
L 533.439062 56.298437 
L 543.439062 56.298437 
" style="fill: none; stroke: #1f77b4; stroke-width: 1.5; stroke-linecap: square"/>
    </g>
    <g id="text_17">
     <!-- Training-Source -->
     <g transform="translate(551.439062 59.798437) scale(0.1 -0.1)">
      <defs>
       <path id="DejaVuSans-2d" d="M 313 2009 
L 1997 2009 
L 1997 1497 
L 313 1497 
L 313 2009 
z
" transform="scale(0.015625)"/>
       <path id="DejaVuSans-53" d="M 3425 4513 
L 3425 3897 
Q 3066 4069 2747 4153 
Q 2428 4238 2131 4238 
Q 1616 4238 1336 4038 
Q 1056 3838 1056 3469 
Q 1056 3159 1242 3001 
Q 1428 2844 1947 2747 
L 2328 2669 
Q 3034 2534 3370 2195 
Q 3706 1856 3706 1288 
Q 3706 609 3251 259 
Q 2797 -91 1919 -91 
Q 1588 -91 1214 -16 
Q 841 59 441 206 
L 441 856 
Q 825 641 1194 531 
Q 1563 422 1919 422 
Q 2459 422 2753 634 
Q 3047 847 3047 1241 
Q 3047 1584 2836 1778 
Q 2625 1972 2144 2069 
L 1759 2144 
Q 1053 2284 737 2584 
Q 422 2884 422 3419 
Q 422 4038 858 4394 
Q 1294 4750 2059 4750 
Q 2388 4750 2728 4690 
Q 3069 4631 3425 4513 
z
" transform="scale(0.015625)"/>
       <path id="DejaVuSans-75" d="M 544 1381 
L 544 3500 
L 1119 3500 
L 1119 1403 
Q 1119 906 1312 657 
Q 1506 409 1894 409 
Q 2359 409 2629 706 
Q 2900 1003 2900 1516 
L 2900 3500 
L 3475 3500 
L 3475 0 
L 2900 0 
L 2900 538 
Q 2691 219 2414 64 
Q 2138 -91 1772 -91 
Q 1169 -91 856 284 
Q 544 659 544 1381 
z
M 1991 3584 
L 1991 3584 
z
" transform="scale(0.015625)"/>
       <path id="DejaVuSans-65" d="M 3597 1894 
L 3597 1613 
L 953 1613 
Q 991 1019 1311 708 
Q 1631 397 2203 397 
Q 2534 397 2845 478 
Q 3156 559 3463 722 
L 3463 178 
Q 3153 47 2828 -22 
Q 2503 -91 2169 -91 
Q 1331 -91 842 396 
Q 353 884 353 1716 
Q 353 2575 817 3079 
Q 1281 3584 2069 3584 
Q 2775 3584 3186 3129 
Q 3597 2675 3597 1894 
z
M 3022 2063 
Q 3016 2534 2758 2815 
Q 2500 3097 2075 3097 
Q 1594 3097 1305 2825 
Q 1016 2553 972 2059 
L 3022 2063 
z
" transform="scale(0.015625)"/>
      </defs>
      <use xlink:href="#DejaVuSans-54"/>
      <use xlink:href="#DejaVuSans-72" transform="translate(46.333984 0)"/>
      <use xlink:href="#DejaVuSans-61" transform="translate(87.447266 0)"/>
      <use xlink:href="#DejaVuSans-69" transform="translate(148.726562 0)"/>
      <use xlink:href="#DejaVuSans-6e" transform="translate(176.509766 0)"/>
      <use xlink:href="#DejaVuSans-69" transform="translate(239.888672 0)"/>
      <use xlink:href="#DejaVuSans-6e" transform="translate(267.671875 0)"/>
      <use xlink:href="#DejaVuSans-67" transform="translate(331.050781 0)"/>
      <use xlink:href="#DejaVuSans-2d" transform="translate(394.527344 0)"/>
      <use xlink:href="#DejaVuSans-53" transform="translate(430.611328 0)"/>
      <use xlink:href="#DejaVuSans-6f" transform="translate(494.087891 0)"/>
      <use xlink:href="#DejaVuSans-75" transform="translate(555.269531 0)"/>
      <use xlink:href="#DejaVuSans-72" transform="translate(618.648438 0)"/>
      <use xlink:href="#DejaVuSans-63" transform="translate(657.511719 0)"/>
      <use xlink:href="#DejaVuSans-65" transform="translate(712.492188 0)"/>
     </g>
    </g>
    <g id="line2d_19">
     <path d="M 523.439062 70.976562 
L 533.439062 70.976562 
L 543.439062 70.976562 
" style="fill: none; stroke: #ff7f0e; stroke-width: 1.5; stroke-linecap: square"/>
    </g>
    <g id="text_18">
     <!-- Training-Target -->
     <g transform="translate(551.439062 74.476562) scale(0.1 -0.1)">
      <use xlink:href="#DejaVuSans-54"/>
      <use xlink:href="#DejaVuSans-72" transform="translate(46.333984 0)"/>
      <use xlink:href="#DejaVuSans-61" transform="translate(87.447266 0)"/>
      <use xlink:href="#DejaVuSans-69" transform="translate(148.726562 0)"/>
      <use xlink:href="#DejaVuSans-6e" transform="translate(176.509766 0)"/>
      <use xlink:href="#DejaVuSans-69" transform="translate(239.888672 0)"/>
      <use xlink:href="#DejaVuSans-6e" transform="translate(267.671875 0)"/>
      <use xlink:href="#DejaVuSans-67" transform="translate(331.050781 0)"/>
      <use xlink:href="#DejaVuSans-2d" transform="translate(394.527344 0)"/>
      <use xlink:href="#DejaVuSans-54" transform="translate(421.486328 0)"/>
      <use xlink:href="#DejaVuSans-61" transform="translate(466.070312 0)"/>
      <use xlink:href="#DejaVuSans-72" transform="translate(527.349609 0)"/>
      <use xlink:href="#DejaVuSans-67" transform="translate(566.712891 0)"/>
      <use xlink:href="#DejaVuSans-65" transform="translate(630.189453 0)"/>
      <use xlink:href="#DejaVuSans-74" transform="translate(691.712891 0)"/>
     </g>
    </g>
    <g id="line2d_20">
     <path d="M 523.439062 85.654687 
L 533.439062 85.654687 
L 543.439062 85.654687 
" style="fill: none; stroke: #2ca02c; stroke-width: 1.5; stroke-linecap: square"/>
    </g>
    <g id="text_19">
     <!-- Validating-Source -->
     <g transform="translate(551.439062 89.154687) scale(0.1 -0.1)">
      <use xlink:href="#DejaVuSans-56"/>
      <use xlink:href="#DejaVuSans-61" transform="translate(60.658203 0)"/>
      <use xlink:href="#DejaVuSans-6c" transform="translate(121.9375 0)"/>
      <use xlink:href="#DejaVuSans-69" transform="translate(149.720703 0)"/>
      <use xlink:href="#DejaVuSans-64" transform="translate(177.503906 0)"/>
      <use xlink:href="#DejaVuSans-61" transform="translate(240.980469 0)"/>
      <use xlink:href="#DejaVuSans-74" transform="translate(302.259766 0)"/>
      <use xlink:href="#DejaVuSans-69" transform="translate(341.46875 0)"/>
      <use xlink:href="#DejaVuSans-6e" transform="translate(369.251953 0)"/>
      <use xlink:href="#DejaVuSans-67" transform="translate(432.630859 0)"/>
      <use xlink:href="#DejaVuSans-2d" transform="translate(496.107422 0)"/>
      <use xlink:href="#DejaVuSans-53" transform="translate(532.191406 0)"/>
      <use xlink:href="#DejaVuSans-6f" transform="translate(595.667969 0)"/>
      <use xlink:href="#DejaVuSans-75" transform="translate(656.849609 0)"/>
      <use xlink:href="#DejaVuSans-72" transform="translate(720.228516 0)"/>
      <use xlink:href="#DejaVuSans-63" transform="translate(759.091797 0)"/>
      <use xlink:href="#DejaVuSans-65" transform="translate(814.072266 0)"/>
     </g>
    </g>
    <g id="line2d_21">
     <path d="M 523.439062 100.332812 
L 533.439062 100.332812 
L 543.439062 100.332812 
" style="fill: none; stroke: #d62728; stroke-width: 1.5; stroke-linecap: square"/>
    </g>
    <g id="text_20">
     <!-- Validating-Target -->
     <g transform="translate(551.439062 103.832812) scale(0.1 -0.1)">
      <use xlink:href="#DejaVuSans-56"/>
      <use xlink:href="#DejaVuSans-61" transform="translate(60.658203 0)"/>
      <use xlink:href="#DejaVuSans-6c" transform="translate(121.9375 0)"/>
      <use xlink:href="#DejaVuSans-69" transform="translate(149.720703 0)"/>
      <use xlink:href="#DejaVuSans-64" transform="translate(177.503906 0)"/>
      <use xlink:href="#DejaVuSans-61" transform="translate(240.980469 0)"/>
      <use xlink:href="#DejaVuSans-74" transform="translate(302.259766 0)"/>
      <use xlink:href="#DejaVuSans-69" transform="translate(341.46875 0)"/>
      <use xlink:href="#DejaVuSans-6e" transform="translate(369.251953 0)"/>
      <use xlink:href="#DejaVuSans-67" transform="translate(432.630859 0)"/>
      <use xlink:href="#DejaVuSans-2d" transform="translate(496.107422 0)"/>
      <use xlink:href="#DejaVuSans-54" transform="translate(523.066406 0)"/>
      <use xlink:href="#DejaVuSans-61" transform="translate(567.650391 0)"/>
      <use xlink:href="#DejaVuSans-72" transform="translate(628.929688 0)"/>
      <use xlink:href="#DejaVuSans-67" transform="translate(668.292969 0)"/>
      <use xlink:href="#DejaVuSans-65" transform="translate(731.769531 0)"/>
      <use xlink:href="#DejaVuSans-74" transform="translate(793.292969 0)"/>
     </g>
    </g>
   </g>
  </g>
 </g>
 <defs>
  <clipPath id="pb6584bbf56">
   <rect x="90" y="43.2" width="558" height="277.2"/>
  </clipPath>
 </defs>
</svg>
