<?xml version="1.0" encoding="utf-8" standalone="no"?>
<!DOCTYPE svg PUBLIC "-//W3C//DTD SVG 1.1//EN"
  "http://www.w3.org/Graphics/SVG/1.1/DTD/svg11.dtd">
<svg xmlns:xlink="http://www.w3.org/1999/xlink" width="720pt" height="360pt" viewBox="0 0 720 360" xmlns="http://www.w3.org/2000/svg" version="1.1">
 <metadata>
  <rdf:RDF xmlns:dc="http://purl.org/dc/elements/1.1/" xmlns:cc="http://creativecommons.org/ns#" xmlns:rdf="http://www.w3.org/1999/02/22-rdf-syntax-ns#">
   <cc:Work>
    <dc:type rdf:resource="http://purl.org/dc/dcmitype/StillImage"/>
    <dc:date>2025-11-14T05:48:11.734907</dc:date>
    <dc:format>image/svg+xml</dc:format>
    <dc:creator>
     <cc:Agent>
      <dc:title>Matplotlib v3.10.1, https://matplotlib.org/</dc:title>
     </cc:Agent>
    </dc:creator>
   </cc:Work>
  </rdf:RDF>
 </metadata>
 <defs>
  <style type="text/css">*{stroke-linejoin: round; stroke-linecap: butt}</style>
 </defs>
 <g id="figure_1">
  <g id="patch_1">
   <path d="M 0 360 
L 720 360 
L 720 0 
L 0 0 
z
" style="fill: #ffffff"/>
  </g>
  <g id="axes_1">
   <g id="patch_2">
    <path d="M 90 320.4 
L 648 320.4 
L 648 43.2 
L 90 43.2 
z
" style="fill: #ffffff"/>
   </g>
   <g id="matplotlib.axis_1">
    <g id="xtick_1">
     <g id="line2d_1">
      <defs>
       <path id="ma2deda3396" d="M 0 0 
L 0 3.5 
" style="stroke: #000000; stroke-width: 0.8"/>
      </defs>
      <g>
       <use xlink:href="#ma2deda3396" x="115.363636" y="320.4" style="stroke: #000000; stroke-width: 0.8"/>
      </g>
     </g>
     <g id="text_1">
      <!-- 0 -->
      <g transform="translate(112.182386 334.998438) scale(0.1 -0.1)">
       <defs>
        <path id="DejaVuSans-30" d="M 2034 4250 
Q 1547 4250 1301 3770 
Q 1056 3291 1056 2328 
Q 1056 1369 1301 889 
Q 1547 409 2034 409 
Q 2525 409 2770 889 
Q 3016 1369 3016 2328 
Q 3016 3291 2770 3770 
Q 2525 4250 2034 4250 
z
M 2034 4750 
Q 2819 4750 3233 4129 
Q 3647 3509 3647 2328 
Q 3647 1150 3233 529 
Q 2819 -91 2034 -91 
Q 1250 -91 836 529 
Q 422 1150 422 2328 
Q 422 3509 836 4129 
Q 1250 4750 2034 4750 
z
" transform="scale(0.015625)"/>
       </defs>
       <use xlink:href="#DejaVuSans-30"/>
      </g>
     </g>
    </g>
    <g id="xtick_2">
     <g id="line2d_2">
      <g>
       <use xlink:href="#ma2deda3396" x="217.157495" y="320.4" style="stroke: #000000; stroke-width: 0.8"/>
      </g>
     </g>
     <g id="text_2">
      <!-- 60 -->
      <g transform="translate(210.794995 334.998438) scale(0.1 -0.1)">
       <defs>
        <path id="DejaVuSans-36" d="M 2113 2584 
Q 1688 2584 1439 2293 
Q 1191 2003 1191 1497 
Q 1191 994 1439 701 
Q 1688 409 2113 409 
Q 2538 409 2786 701 
Q 3034 994 3034 1497 
Q 3034 2003 2786 2293 
Q 2538 2584 2113 2584 
z
M 3366 4563 
L 3366 3988 
Q 3128 4100 2886 4159 
Q 2644 4219 2406 4219 
Q 1781 4219 1451 3797 
Q 1122 3375 1075 2522 
Q 1259 2794 1537 2939 
Q 1816 3084 2150 3084 
Q 2853 3084 3261 2657 
Q 3669 2231 3669 1497 
Q 3669 778 3244 343 
Q 2819 -91 2113 -91 
Q 1303 -91 875 529 
Q 447 1150 447 2328 
Q 447 3434 972 4092 
Q 1497 4750 2381 4750 
Q 2619 4750 2861 4703 
Q 3103 4656 3366 4563 
z
" transform="scale(0.015625)"/>
       </defs>
       <use xlink:href="#DejaVuSans-36"/>
       <use xlink:href="#DejaVuSans-30" transform="translate(63.623047 0)"/>
      </g>
     </g>
    </g>
    <g id="xtick_3">
     <g id="line2d_3">
      <g>
       <use xlink:href="#ma2deda3396" x="318.951353" y="320.4" style="stroke: #000000; stroke-width: 0.8"/>
      </g>
     </g>
     <g id="text_3">
      <!-- 120 -->
      <g transform="translate(309.407603 334.998438) scale(0.1 -0.1)">
       <defs>
        <path id="DejaVuSans-31" d="M 794 531 
L 1825 531 
L 1825 4091 
L 703 3866 
L 703 4441 
L 1819 4666 
L 2450 4666 
L 2450 531 
L 3481 531 
L 3481 0 
L 794 0 
L 794 531 
z
" transform="scale(0.015625)"/>
        <path id="DejaVuSans-32" d="M 1228 531 
L 3431 531 
L 3431 0 
L 469 0 
L 469 531 
Q 828 903 1448 1529 
Q 2069 2156 2228 2338 
Q 2531 2678 2651 2914 
Q 2772 3150 2772 3378 
Q 2772 3750 2511 3984 
Q 2250 4219 1831 4219 
Q 1534 4219 1204 4116 
Q 875 4013 500 3803 
L 500 4441 
Q 881 4594 1212 4672 
Q 1544 4750 1819 4750 
Q 2544 4750 2975 4387 
Q 3406 4025 3406 3419 
Q 3406 3131 3298 2873 
Q 3191 2616 2906 2266 
Q 2828 2175 2409 1742 
Q 1991 1309 1228 531 
z
" transform="scale(0.015625)"/>
       </defs>
       <use xlink:href="#DejaVuSans-31"/>
       <use xlink:href="#DejaVuSans-32" transform="translate(63.623047 0)"/>
       <use xlink:href="#DejaVuSans-30" transform="translate(127.246094 0)"/>
      </g>
     </g>
    </g>
    <g id="xtick_4">
     <g id="line2d_4">
      <g>
       <use xlink:href="#ma2deda3396" x="420.745211" y="320.4" style="stroke: #000000; stroke-width: 0.8"/>
      </g>
     </g>
     <g id="text_4">
      <!-- 180 -->
      <g transform="translate(411.201461 334.998438) scale(0.1 -0.1)">
       <defs>
        <path id="DejaVuSans-38" d="M 2034 2216 
Q 1584 2216 1326 1975 
Q 1069 1734 1069 1313 
Q 1069 891 1326 650 
Q 1584 409 2034 409 
Q 2484 409 2743 651 
Q 3003 894 3003 1313 
Q 3003 1734 2745 1975 
Q 2488 2216 2034 2216 
z
M 1403 2484 
Q 997 2584 770 2862 
Q 544 3141 544 3541 
Q 544 4100 942 4425 
Q 1341 4750 2034 4750 
Q 2731 4750 3128 4425 
Q 3525 4100 3525 3541 
Q 3525 3141 3298 2862 
Q 3072 2584 2669 2484 
Q 3125 2378 3379 2068 
Q 3634 1759 3634 1313 
Q 3634 634 3220 271 
Q 2806 -91 2034 -91 
Q 1263 -91 848 271 
Q 434 634 434 1313 
Q 434 1759 690 2068 
Q 947 2378 1403 2484 
z
M 1172 3481 
Q 1172 3119 1398 2916 
Q 1625 2713 2034 2713 
Q 2441 2713 2670 2916 
Q 2900 3119 2900 3481 
Q 2900 3844 2670 4047 
Q 2441 4250 2034 4250 
Q 1625 4250 1398 4047 
Q 1172 3844 1172 3481 
z
" transform="scale(0.015625)"/>
       </defs>
       <use xlink:href="#DejaVuSans-31"/>
       <use xlink:href="#DejaVuSans-38" transform="translate(63.623047 0)"/>
       <use xlink:href="#DejaVuSans-30" transform="translate(127.246094 0)"/>
      </g>
     </g>
    </g>
    <g id="xtick_5">
     <g id="line2d_5">
      <g>
       <use xlink:href="#ma2deda3396" x="522.53907" y="320.4" style="stroke: #000000; stroke-width: 0.8"/>
      </g>
     </g>
     <g id="text_5">
      <!-- 240 -->
      <g transform="translate(512.99532 334.998438) scale(0.1 -0.1)">
       <defs>
        <path id="DejaVuSans-34" d="M 2419 4116 
L 825 1625 
L 2419 1625 
L 2419 4116 
z
M 2253 4666 
L 3047 4666 
L 3047 1625 
L 3713 1625 
L 3713 1100 
L 3047 1100 
L 3047 0 
L 2419 0 
L 2419 1100 
L 313 1100 
L 313 1709 
L 2253 4666 
z
" transform="scale(0.015625)"/>
       </defs>
       <use xlink:href="#DejaVuSans-32"/>
       <use xlink:href="#DejaVuSans-34" transform="translate(63.623047 0)"/>
       <use xlink:href="#DejaVuSans-30" transform="translate(127.246094 0)"/>
      </g>
     </g>
    </g>
    <g id="text_6">
     <!-- Epoch -->
     <g transform="translate(353.689062 348.676562) scale(0.1 -0.1)">
      <defs>
       <path id="DejaVuSans-45" d="M 628 4666 
L 3578 4666 
L 3578 4134 
L 1259 4134 
L 1259 2753 
L 3481 2753 
L 3481 2222 
L 1259 2222 
L 1259 531 
L 3634 531 
L 3634 0 
L 628 0 
L 628 4666 
z
" transform="scale(0.015625)"/>
       <path id="DejaVuSans-70" d="M 1159 525 
L 1159 -1331 
L 581 -1331 
L 581 3500 
L 1159 3500 
L 1159 2969 
Q 1341 3281 1617 3432 
Q 1894 3584 2278 3584 
Q 2916 3584 3314 3078 
Q 3713 2572 3713 1747 
Q 3713 922 3314 415 
Q 2916 -91 2278 -91 
Q 1894 -91 1617 61 
Q 1341 213 1159 525 
z
M 3116 1747 
Q 3116 2381 2855 2742 
Q 2594 3103 2138 3103 
Q 1681 3103 1420 2742 
Q 1159 2381 1159 1747 
Q 1159 1113 1420 752 
Q 1681 391 2138 391 
Q 2594 391 2855 752 
Q 3116 1113 3116 1747 
z
" transform="scale(0.015625)"/>
       <path id="DejaVuSans-6f" d="M 1959 3097 
Q 1497 3097 1228 2736 
Q 959 2375 959 1747 
Q 959 1119 1226 758 
Q 1494 397 1959 397 
Q 2419 397 2687 759 
Q 2956 1122 2956 1747 
Q 2956 2369 2687 2733 
Q 2419 3097 1959 3097 
z
M 1959 3584 
Q 2709 3584 3137 3096 
Q 3566 2609 3566 1747 
Q 3566 888 3137 398 
Q 2709 -91 1959 -91 
Q 1206 -91 779 398 
Q 353 888 353 1747 
Q 353 2609 779 3096 
Q 1206 3584 1959 3584 
z
" transform="scale(0.015625)"/>
       <path id="DejaVuSans-63" d="M 3122 3366 
L 3122 2828 
Q 2878 2963 2633 3030 
Q 2388 3097 2138 3097 
Q 1578 3097 1268 2742 
Q 959 2388 959 1747 
Q 959 1106 1268 751 
Q 1578 397 2138 397 
Q 2388 397 2633 464 
Q 2878 531 3122 666 
L 3122 134 
Q 2881 22 2623 -34 
Q 2366 -91 2075 -91 
Q 1284 -91 818 406 
Q 353 903 353 1747 
Q 353 2603 823 3093 
Q 1294 3584 2113 3584 
Q 2378 3584 2631 3529 
Q 2884 3475 3122 3366 
z
" transform="scale(0.015625)"/>
       <path id="DejaVuSans-68" d="M 3513 2113 
L 3513 0 
L 2938 0 
L 2938 2094 
Q 2938 2591 2744 2837 
Q 2550 3084 2163 3084 
Q 1697 3084 1428 2787 
Q 1159 2491 1159 1978 
L 1159 0 
L 581 0 
L 581 4863 
L 1159 4863 
L 1159 2956 
Q 1366 3272 1645 3428 
Q 1925 3584 2291 3584 
Q 2894 3584 3203 3211 
Q 3513 2838 3513 2113 
z
" transform="scale(0.015625)"/>
      </defs>
      <use xlink:href="#DejaVuSans-45"/>
      <use xlink:href="#DejaVuSans-70" transform="translate(63.183594 0)"/>
      <use xlink:href="#DejaVuSans-6f" transform="translate(126.660156 0)"/>
      <use xlink:href="#DejaVuSans-63" transform="translate(187.841797 0)"/>
      <use xlink:href="#DejaVuSans-68" transform="translate(242.822266 0)"/>
     </g>
    </g>
   </g>
   <g id="matplotlib.axis_2">
    <g id="ytick_1">
     <g id="line2d_6">
      <defs>
       <path id="m29bb6c9645" d="M 0 0 
L -3.5 0 
" style="stroke: #000000; stroke-width: 0.8"/>
      </defs>
      <g>
       <use xlink:href="#m29bb6c9645" x="90" y="312.754998" style="stroke: #000000; stroke-width: 0.8"/>
      </g>
     </g>
     <g id="text_7">
      <!-- 0.00 -->
      <g transform="translate(60.734375 316.554217) scale(0.1 -0.1)">
       <defs>
        <path id="DejaVuSans-2e" d="M 684 794 
L 1344 794 
L 1344 0 
L 684 0 
L 684 794 
z
" transform="scale(0.015625)"/>
       </defs>
       <use xlink:href="#DejaVuSans-30"/>
       <use xlink:href="#DejaVuSans-2e" transform="translate(63.623047 0)"/>
       <use xlink:href="#DejaVuSans-30" transform="translate(95.410156 0)"/>
       <use xlink:href="#DejaVuSans-30" transform="translate(159.033203 0)"/>
      </g>
     </g>
    </g>
    <g id="ytick_2">
     <g id="line2d_7">
      <g>
       <use xlink:href="#m29bb6c9645" x="90" y="267.803349" style="stroke: #000000; stroke-width: 0.8"/>
      </g>
     </g>
     <g id="text_8">
      <!-- 0.01 -->
      <g transform="translate(60.734375 271.602568) scale(0.1 -0.1)">
       <use xlink:href="#DejaVuSans-30"/>
       <use xlink:href="#DejaVuSans-2e" transform="translate(63.623047 0)"/>
       <use xlink:href="#DejaVuSans-30" transform="translate(95.410156 0)"/>
       <use xlink:href="#DejaVuSans-31" transform="translate(159.033203 0)"/>
      </g>
     </g>
    </g>
    <g id="ytick_3">
     <g id="line2d_8">
      <g>
       <use xlink:href="#m29bb6c9645" x="90" y="222.851699" style="stroke: #000000; stroke-width: 0.8"/>
      </g>
     </g>
     <g id="text_9">
      <!-- 0.02 -->
      <g transform="translate(60.734375 226.650918) scale(0.1 -0.1)">
       <use xlink:href="#DejaVuSans-30"/>
       <use xlink:href="#DejaVuSans-2e" transform="translate(63.623047 0)"/>
       <use xlink:href="#DejaVuSans-30" transform="translate(95.410156 0)"/>
       <use xlink:href="#DejaVuSans-32" transform="translate(159.033203 0)"/>
      </g>
     </g>
    </g>
    <g id="ytick_4">
     <g id="line2d_9">
      <g>
       <use xlink:href="#m29bb6c9645" x="90" y="177.90005" style="stroke: #000000; stroke-width: 0.8"/>
      </g>
     </g>
     <g id="text_10">
      <!-- 0.03 -->
      <g transform="translate(60.734375 181.699268) scale(0.1 -0.1)">
       <defs>
        <path id="DejaVuSans-33" d="M 2597 2516 
Q 3050 2419 3304 2112 
Q 3559 1806 3559 1356 
Q 3559 666 3084 287 
Q 2609 -91 1734 -91 
Q 1441 -91 1130 -33 
Q 819 25 488 141 
L 488 750 
Q 750 597 1062 519 
Q 1375 441 1716 441 
Q 2309 441 2620 675 
Q 2931 909 2931 1356 
Q 2931 1769 2642 2001 
Q 2353 2234 1838 2234 
L 1294 2234 
L 1294 2753 
L 1863 2753 
Q 2328 2753 2575 2939 
Q 2822 3125 2822 3475 
Q 2822 3834 2567 4026 
Q 2313 4219 1838 4219 
Q 1578 4219 1281 4162 
Q 984 4106 628 3988 
L 628 4550 
Q 988 4650 1302 4700 
Q 1616 4750 1894 4750 
Q 2613 4750 3031 4423 
Q 3450 4097 3450 3541 
Q 3450 3153 3228 2886 
Q 3006 2619 2597 2516 
z
" transform="scale(0.015625)"/>
       </defs>
       <use xlink:href="#DejaVuSans-30"/>
       <use xlink:href="#DejaVuSans-2e" transform="translate(63.623047 0)"/>
       <use xlink:href="#DejaVuSans-30" transform="translate(95.410156 0)"/>
       <use xlink:href="#DejaVuSans-33" transform="translate(159.033203 0)"/>
      </g>
     </g>
    </g>
    <g id="ytick_5">
     <g id="line2d_10">
      <g>
       <use xlink:href="#m29bb6c9645" x="90" y="132.9484" style="stroke: #000000; stroke-width: 0.8"/>
      </g>
     </g>
     <g id="text_11">
      <!-- 0.04 -->
      <g transform="translate(60.734375 136.747619) scale(0.1 -0.1)">
       <use xlink:href="#DejaVuSans-30"/>
       <use xlink:href="#DejaVuSans-2e" transform="translate(63.623047 0)"/>
       <use xlink:href="#DejaVuSans-30" transform="translate(95.410156 0)"/>
       <use xlink:href="#DejaVuSans-34" transform="translate(159.033203 0)"/>
      </g>
     </g>
    </g>
    <g id="ytick_6">
     <g id="line2d_11">
      <g>
       <use xlink:href="#m29bb6c9645" x="90" y="87.99675" style="stroke: #000000; stroke-width: 0.8"/>
      </g>
     </g>
     <g id="text_12">
      <!-- 0.05 -->
      <g transform="translate(60.734375 91.795969) scale(0.1 -0.1)">
       <defs>
        <path id="DejaVuSans-35" d="M 691 4666 
L 3169 4666 
L 3169 4134 
L 1269 4134 
L 1269 2991 
Q 1406 3038 1543 3061 
Q 1681 3084 1819 3084 
Q 2600 3084 3056 2656 
Q 3513 2228 3513 1497 
Q 3513 744 3044 326 
Q 2575 -91 1722 -91 
Q 1428 -91 1123 -41 
Q 819 9 494 109 
L 494 744 
Q 775 591 1075 516 
Q 1375 441 1709 441 
Q 2250 441 2565 725 
Q 2881 1009 2881 1497 
Q 2881 1984 2565 2268 
Q 2250 2553 1709 2553 
Q 1456 2553 1204 2497 
Q 953 2441 691 2322 
L 691 4666 
z
" transform="scale(0.015625)"/>
       </defs>
       <use xlink:href="#DejaVuSans-30"/>
       <use xlink:href="#DejaVuSans-2e" transform="translate(63.623047 0)"/>
       <use xlink:href="#DejaVuSans-30" transform="translate(95.410156 0)"/>
       <use xlink:href="#DejaVuSans-35" transform="translate(159.033203 0)"/>
      </g>
     </g>
    </g>
    <g id="text_13">
     <!-- Estimation Loss -->
     <g transform="translate(54.654687 220.98125) rotate(-90) scale(0.1 -0.1)">
      <defs>
       <path id="DejaVuSans-73" d="M 2834 3397 
L 2834 2853 
Q 2591 2978 2328 3040 
Q 2066 3103 1784 3103 
Q 1356 3103 1142 2972 
Q 928 2841 928 2578 
Q 928 2378 1081 2264 
Q 1234 2150 1697 2047 
L 1894 2003 
Q 2506 1872 2764 1633 
Q 3022 1394 3022 966 
Q 3022 478 2636 193 
Q 2250 -91 1575 -91 
Q 1294 -91 989 -36 
Q 684 19 347 128 
L 347 722 
Q 666 556 975 473 
Q 1284 391 1588 391 
Q 1994 391 2212 530 
Q 2431 669 2431 922 
Q 2431 1156 2273 1281 
Q 2116 1406 1581 1522 
L 1381 1569 
Q 847 1681 609 1914 
Q 372 2147 372 2553 
Q 372 3047 722 3315 
Q 1072 3584 1716 3584 
Q 2034 3584 2315 3537 
Q 2597 3491 2834 3397 
z
" transform="scale(0.015625)"/>
       <path id="DejaVuSans-74" d="M 1172 4494 
L 1172 3500 
L 2356 3500 
L 2356 3053 
L 1172 3053 
L 1172 1153 
Q 1172 725 1289 603 
Q 1406 481 1766 481 
L 2356 481 
L 2356 0 
L 1766 0 
Q 1100 0 847 248 
Q 594 497 594 1153 
L 594 3053 
L 172 3053 
L 172 3500 
L 594 3500 
L 594 4494 
L 1172 4494 
z
" transform="scale(0.015625)"/>
       <path id="DejaVuSans-69" d="M 603 3500 
L 1178 3500 
L 1178 0 
L 603 0 
L 603 3500 
z
M 603 4863 
L 1178 4863 
L 1178 4134 
L 603 4134 
L 603 4863 
z
" transform="scale(0.015625)"/>
       <path id="DejaVuSans-6d" d="M 3328 2828 
Q 3544 3216 3844 3400 
Q 4144 3584 4550 3584 
Q 5097 3584 5394 3201 
Q 5691 2819 5691 2113 
L 5691 0 
L 5113 0 
L 5113 2094 
Q 5113 2597 4934 2840 
Q 4756 3084 4391 3084 
Q 3944 3084 3684 2787 
Q 3425 2491 3425 1978 
L 3425 0 
L 2847 0 
L 2847 2094 
Q 2847 2600 2669 2842 
Q 2491 3084 2119 3084 
Q 1678 3084 1418 2786 
Q 1159 2488 1159 1978 
L 1159 0 
L 581 0 
L 581 3500 
L 1159 3500 
L 1159 2956 
Q 1356 3278 1631 3431 
Q 1906 3584 2284 3584 
Q 2666 3584 2933 3390 
Q 3200 3197 3328 2828 
z
" transform="scale(0.015625)"/>
       <path id="DejaVuSans-61" d="M 2194 1759 
Q 1497 1759 1228 1600 
Q 959 1441 959 1056 
Q 959 750 1161 570 
Q 1363 391 1709 391 
Q 2188 391 2477 730 
Q 2766 1069 2766 1631 
L 2766 1759 
L 2194 1759 
z
M 3341 1997 
L 3341 0 
L 2766 0 
L 2766 531 
Q 2569 213 2275 61 
Q 1981 -91 1556 -91 
Q 1019 -91 701 211 
Q 384 513 384 1019 
Q 384 1609 779 1909 
Q 1175 2209 1959 2209 
L 2766 2209 
L 2766 2266 
Q 2766 2663 2505 2880 
Q 2244 3097 1772 3097 
Q 1472 3097 1187 3025 
Q 903 2953 641 2809 
L 641 3341 
Q 956 3463 1253 3523 
Q 1550 3584 1831 3584 
Q 2591 3584 2966 3190 
Q 3341 2797 3341 1997 
z
" transform="scale(0.015625)"/>
       <path id="DejaVuSans-6e" d="M 3513 2113 
L 3513 0 
L 2938 0 
L 2938 2094 
Q 2938 2591 2744 2837 
Q 2550 3084 2163 3084 
Q 1697 3084 1428 2787 
Q 1159 2491 1159 1978 
L 1159 0 
L 581 0 
L 581 3500 
L 1159 3500 
L 1159 2956 
Q 1366 3272 1645 3428 
Q 1925 3584 2291 3584 
Q 2894 3584 3203 3211 
Q 3513 2838 3513 2113 
z
" transform="scale(0.015625)"/>
       <path id="DejaVuSans-20" transform="scale(0.015625)"/>
       <path id="DejaVuSans-4c" d="M 628 4666 
L 1259 4666 
L 1259 531 
L 3531 531 
L 3531 0 
L 628 0 
L 628 4666 
z
" transform="scale(0.015625)"/>
      </defs>
      <use xlink:href="#DejaVuSans-45"/>
      <use xlink:href="#DejaVuSans-73" transform="translate(63.183594 0)"/>
      <use xlink:href="#DejaVuSans-74" transform="translate(115.283203 0)"/>
      <use xlink:href="#DejaVuSans-69" transform="translate(154.492188 0)"/>
      <use xlink:href="#DejaVuSans-6d" transform="translate(182.275391 0)"/>
      <use xlink:href="#DejaVuSans-61" transform="translate(279.6875 0)"/>
      <use xlink:href="#DejaVuSans-74" transform="translate(340.966797 0)"/>
      <use xlink:href="#DejaVuSans-69" transform="translate(380.175781 0)"/>
      <use xlink:href="#DejaVuSans-6f" transform="translate(407.958984 0)"/>
      <use xlink:href="#DejaVuSans-6e" transform="translate(469.140625 0)"/>
      <use xlink:href="#DejaVuSans-20" transform="translate(532.519531 0)"/>
      <use xlink:href="#DejaVuSans-4c" transform="translate(564.306641 0)"/>
      <use xlink:href="#DejaVuSans-6f" transform="translate(618.269531 0)"/>
      <use xlink:href="#DejaVuSans-73" transform="translate(679.451172 0)"/>
      <use xlink:href="#DejaVuSans-73" transform="translate(731.550781 0)"/>
     </g>
    </g>
   </g>
   <g id="line2d_12">
    <path d="M 115.363636 81.450409 
L 117.060201 247.914384 
L 118.756765 270.426039 
L 120.453329 280.257624 
L 122.149894 285.184916 
L 123.846458 288.026743 
L 125.543022 289.934892 
L 127.239587 291.543399 
L 128.936151 292.791586 
L 130.632715 293.824678 
L 134.025844 295.456559 
L 137.418972 296.739344 
L 140.812101 297.702019 
L 144.20523 298.500368 
L 147.598358 299.175016 
L 157.777744 300.630357 
L 169.653694 301.719106 
L 178.136516 302.267672 
L 183.226209 302.579792 
L 200.191852 303.40704 
L 205.281545 303.465663 
L 206.978109 303.631447 
L 256.178474 304.879542 
L 257.875038 304.821765 
L 259.571602 304.972259 
L 264.661295 304.994556 
L 268.054424 305.128295 
L 273.144117 305.197441 
L 278.23381 305.279202 
L 279.930374 305.392159 
L 285.020067 305.340058 
L 290.10976 305.532239 
L 293.502888 305.516764 
L 296.896017 305.608478 
L 305.378839 305.70843 
L 310.468531 305.800114 
L 312.165096 305.745946 
L 313.86166 305.856003 
L 315.558224 305.818021 
L 318.951353 305.902473 
L 322.344482 305.996841 
L 325.73761 305.958287 
L 330.827303 306.057829 
L 341.006689 306.045423 
L 342.703253 306.232363 
L 356.275768 306.288592 
L 359.668896 306.358913 
L 368.151718 306.420422 
L 371.544846 306.497005 
L 373.241411 306.457566 
L 376.634539 306.55228 
L 378.331104 306.424994 
L 388.51049 306.542102 
L 393.600182 306.611923 
L 395.296747 306.707219 
L 400.38644 306.697866 
L 427.531469 306.852156 
L 429.228033 306.970501 
L 430.924597 306.848393 
L 437.710854 306.951536 
L 452.979933 307.078318 
L 456.373062 307.073331 
L 463.159319 307.13548 
L 473.338705 307.196343 
L 488.607784 307.247801 
L 507.269991 307.373062 
L 510.663119 307.386124 
L 512.359684 307.303451 
L 514.056248 307.430332 
L 515.752812 307.319331 
L 517.449377 307.423688 
L 520.842505 307.440537 
L 527.628763 307.488196 
L 532.718455 307.510607 
L 595.491335 307.686833 
L 597.187899 307.61094 
L 600.581028 307.706623 
L 602.277592 307.757406 
L 605.670721 307.693337 
L 612.456978 307.747016 
L 617.546671 307.720409 
L 619.243235 307.8 
L 622.636364 307.784672 
L 622.636364 307.784672 
" clip-path="url(#p95642d8823)" style="fill: none; stroke: #1f77b4; stroke-width: 1.5; stroke-linecap: square"/>
   </g>
   <g id="line2d_13">
    <path d="M 115.363636 55.8 
L 117.060201 232.659108 
L 118.756765 255.935658 
L 120.453329 265.95 
L 122.149894 271.172161 
L 123.846458 274.212014 
L 125.543022 276.256023 
L 127.239587 277.948631 
L 128.936151 279.362302 
L 130.632715 280.51882 
L 134.025844 282.281129 
L 137.418972 283.672033 
L 140.812101 284.778628 
L 144.20523 285.668674 
L 147.598358 286.443068 
L 152.688051 287.344362 
L 162.867437 288.481322 
L 169.653694 289.106114 
L 171.350258 289.307848 
L 173.046823 289.300958 
L 176.439951 289.577871 
L 179.83308 289.685749 
L 183.226209 289.968588 
L 186.619337 290.079257 
L 191.70903 290.278745 
L 196.798723 290.522537 
L 203.58498 290.637598 
L 205.281545 290.833535 
L 235.819702 291.674862 
L 237.516266 291.632396 
L 242.605959 291.881991 
L 244.302524 291.829334 
L 245.999088 291.964623 
L 251.088781 292.070785 
L 257.875038 292.223863 
L 259.571602 292.359475 
L 262.964731 292.247893 
L 279.930374 292.592468 
L 281.626938 292.551644 
L 283.323503 292.629888 
L 285.020067 292.457399 
L 286.716631 292.750952 
L 291.806324 292.685193 
L 308.771967 292.904275 
L 310.468531 292.76911 
L 312.165096 293.035409 
L 315.558224 292.99003 
L 317.254789 293.014634 
L 318.951353 292.913179 
L 320.647917 293.084312 
L 329.130739 293.153438 
L 330.827303 293.193703 
L 332.523867 293.116108 
L 334.220432 293.233895 
L 335.916996 293.126533 
L 337.61356 293.299476 
L 341.006689 293.084958 
L 342.703253 293.25448 
L 346.096382 293.243335 
L 347.792946 293.225064 
L 349.48951 293.34024 
L 352.882639 293.201371 
L 369.848282 293.506792 
L 374.937975 293.382525 
L 383.420797 293.542455 
L 388.51049 293.512921 
L 395.296747 293.58692 
L 413.958954 293.771447 
L 415.655518 293.760276 
L 417.352083 293.924098 
L 420.745211 293.839582 
L 437.710854 294.013753 
L 439.407419 294.092218 
L 442.800547 293.96957 
L 446.193676 293.986976 
L 451.283369 294.03071 
L 452.979933 294.227871 
L 454.676497 294.038637 
L 461.462755 294.142222 
L 476.731833 294.199517 
L 478.428398 294.332532 
L 481.821526 294.225601 
L 485.214655 294.298404 
L 486.911219 294.357326 
L 492.000912 294.219504 
L 497.090605 294.332471 
L 498.787169 294.311686 
L 502.180298 294.48853 
L 505.573427 294.416358 
L 514.056248 294.543184 
L 515.752812 294.336839 
L 517.449377 294.564169 
L 519.145941 294.471195 
L 520.842505 294.645501 
L 522.53907 294.508439 
L 524.235634 294.607207 
L 525.932198 294.53016 
L 527.628763 294.604718 
L 529.325327 294.54749 
L 531.021891 294.670995 
L 537.808148 294.614073 
L 541.201277 294.670234 
L 547.987534 294.688116 
L 551.380663 294.680581 
L 558.16692 294.77883 
L 559.863484 294.862225 
L 563.256613 294.707043 
L 566.649742 294.843698 
L 568.346306 294.75393 
L 570.04287 294.855174 
L 578.525692 294.848837 
L 580.222256 295.008807 
L 585.311949 294.900044 
L 607.367285 295.099184 
L 609.063849 294.875157 
L 610.760413 295.035416 
L 617.546671 294.98051 
L 619.243235 295.171824 
L 620.939799 294.902012 
L 622.636364 295.079092 
L 622.636364 295.079092 
" clip-path="url(#p95642d8823)" style="fill: none; stroke: #ff7f0e; stroke-width: 1.5; stroke-linecap: square"/>
   </g>
   <g id="line2d_14">
    <path d="M 115.363636 174.245861 
L 117.060201 232.240634 
L 118.756765 254.347437 
L 120.453329 264.378379 
L 122.149894 269.396227 
L 123.846458 271.202262 
L 127.239587 275.868103 
L 128.936151 277.93096 
L 130.632715 279.557488 
L 132.329279 280.776712 
L 134.025844 282.351125 
L 135.722408 283.161865 
L 137.418972 284.259653 
L 139.115537 285.080763 
L 140.812101 285.563642 
L 142.508665 286.298105 
L 144.20523 287.271974 
L 149.294922 287.94605 
L 152.688051 288.82133 
L 154.384615 288.943498 
L 157.777744 289.597236 
L 159.474308 289.72267 
L 161.170873 290.394162 
L 162.867437 290.0404 
L 164.564001 290.477513 
L 166.260566 291.080002 
L 167.95713 290.493169 
L 169.653694 290.478222 
L 171.350258 291.475952 
L 173.046823 291.429329 
L 174.743387 291.270289 
L 176.439951 291.86227 
L 178.136516 291.899034 
L 179.83308 292.613382 
L 181.529644 292.383131 
L 183.226209 292.713939 
L 186.619337 292.938388 
L 188.315901 293.117201 
L 190.012466 293.115372 
L 191.70903 293.697799 
L 195.102159 293.917 
L 196.798723 294.386221 
L 203.58498 294.105946 
L 205.281545 294.455004 
L 206.978109 294.59287 
L 208.674673 294.909841 
L 210.371237 294.853851 
L 212.067802 295.283685 
L 213.764366 295.26581 
L 215.46093 295.504523 
L 217.157495 295.251904 
L 218.854059 296.139252 
L 222.247188 295.687708 
L 223.943752 295.579924 
L 225.640316 295.608127 
L 227.336881 295.954722 
L 229.033445 295.9876 
L 230.730009 295.590925 
L 234.123138 296.172394 
L 235.819702 296.057547 
L 237.516266 296.342563 
L 239.212831 295.684803 
L 240.909395 296.157757 
L 242.605959 295.918114 
L 244.302524 296.455374 
L 247.695652 296.746262 
L 249.392216 296.36313 
L 251.088781 296.583906 
L 252.785345 296.955837 
L 254.481909 297.060816 
L 256.178474 296.532426 
L 257.875038 296.83929 
L 259.571602 297.34858 
L 261.268167 296.073013 
L 264.661295 297.307083 
L 266.35786 297.005309 
L 269.750988 297.291626 
L 271.447552 297.520444 
L 273.144117 297.557814 
L 274.840681 296.952954 
L 276.537245 297.648252 
L 278.23381 297.523782 
L 279.930374 297.807171 
L 283.323503 297.843416 
L 285.020067 297.413303 
L 286.716631 297.719218 
L 290.10976 297.196544 
L 293.502888 298.304362 
L 295.199453 298.115401 
L 296.896017 297.50757 
L 298.592581 297.966149 
L 300.289146 298.110598 
L 301.98571 298.094873 
L 303.682274 298.229872 
L 307.075403 298.037382 
L 308.771967 298.248426 
L 310.468531 298.108202 
L 312.165096 297.762729 
L 313.86166 298.471025 
L 317.254789 298.749665 
L 318.951353 298.235616 
L 320.647917 298.181782 
L 322.344482 298.73722 
L 324.041046 298.933825 
L 325.73761 298.519406 
L 327.434175 298.271141 
L 329.130739 298.315702 
L 330.827303 298.147397 
L 332.523867 298.694956 
L 334.220432 298.083001 
L 335.916996 298.249018 
L 337.61356 298.916125 
L 339.310125 298.938564 
L 341.006689 297.63974 
L 342.703253 298.587175 
L 344.399818 299.014365 
L 346.096382 299.273232 
L 347.792946 299.329005 
L 351.186075 298.979986 
L 352.882639 299.126171 
L 354.579203 299.152797 
L 356.275768 299.324042 
L 357.972332 299.759089 
L 359.668896 299.417054 
L 361.365461 299.194413 
L 363.062025 299.768288 
L 364.758589 299.132758 
L 366.455154 299.376132 
L 369.848282 299.418832 
L 371.544846 300.0295 
L 373.241411 298.675831 
L 374.937975 299.877914 
L 376.634539 299.176568 
L 378.331104 299.761495 
L 380.027668 298.700386 
L 381.724232 299.268064 
L 383.420797 298.939047 
L 385.117361 299.652844 
L 386.813925 299.976343 
L 388.51049 298.102097 
L 390.207054 299.11881 
L 391.903618 299.951041 
L 393.600182 300.265588 
L 395.296747 299.358945 
L 396.993311 300.173304 
L 398.689875 300.213527 
L 400.38644 299.62974 
L 402.083004 299.973549 
L 403.779568 299.293248 
L 405.476133 299.760969 
L 407.172697 300.567767 
L 408.869261 300.29084 
L 412.26239 300.213909 
L 413.958954 299.126641 
L 415.655518 300.111055 
L 417.352083 299.898258 
L 419.048647 300.231011 
L 420.745211 300.179527 
L 422.441776 299.860664 
L 424.13834 300.005386 
L 425.834904 300.423344 
L 427.531469 300.148906 
L 429.228033 300.02818 
L 430.924597 299.622938 
L 432.621161 300.512562 
L 434.317726 299.602316 
L 436.01429 299.459431 
L 437.710854 300.685261 
L 439.407419 299.992473 
L 441.103983 299.65384 
L 442.800547 300.475829 
L 444.497112 299.430267 
L 447.89024 300.918917 
L 449.586804 301.144175 
L 451.283369 300.51138 
L 452.979933 299.463534 
L 454.676497 300.742551 
L 456.373062 299.805423 
L 458.069626 300.021856 
L 459.76619 300.573275 
L 461.462755 299.7741 
L 463.159319 299.822243 
L 464.855883 300.323354 
L 466.552448 300.62747 
L 468.249012 299.970495 
L 469.945576 301.002076 
L 471.64214 300.89522 
L 473.338705 300.49248 
L 475.035269 300.712142 
L 476.731833 300.803296 
L 478.428398 299.81246 
L 480.124962 300.774379 
L 481.821526 300.440453 
L 483.518091 301.440881 
L 485.214655 300.952751 
L 486.911219 300.756736 
L 488.607784 301.032057 
L 490.304348 300.12662 
L 492.000912 301.120274 
L 495.394041 300.858217 
L 497.090605 300.98433 
L 498.787169 301.395404 
L 500.483734 301.054011 
L 508.966555 301.304695 
L 510.663119 301.111163 
L 512.359684 301.152977 
L 514.056248 301.644029 
L 515.752812 301.021653 
L 519.145941 301.38021 
L 520.842505 301.266537 
L 522.53907 301.334565 
L 524.235634 301.163274 
L 525.932198 301.434061 
L 527.628763 301.336214 
L 529.325327 301.453299 
L 531.021891 301.446129 
L 532.718455 301.052528 
L 534.41502 301.308957 
L 536.111584 301.423677 
L 539.504713 301.208835 
L 541.201277 300.422304 
L 542.897841 301.219805 
L 544.594406 301.084636 
L 546.29097 300.719942 
L 547.987534 301.289204 
L 549.684099 298.586527 
L 551.380663 301.459295 
L 553.077227 301.643624 
L 554.773791 301.552308 
L 556.470356 301.133906 
L 558.16692 301.107344 
L 559.863484 301.441065 
L 563.256613 301.34839 
L 564.953177 300.987285 
L 566.649742 300.255825 
L 568.346306 301.183702 
L 570.04287 300.434307 
L 573.435999 300.741764 
L 575.132563 301.212604 
L 578.525692 301.136342 
L 580.222256 300.70197 
L 581.91882 300.905155 
L 583.615385 301.27414 
L 585.311949 301.168438 
L 587.008513 301.238966 
L 588.705078 301.556963 
L 590.401642 301.209998 
L 592.098206 300.525577 
L 593.79477 300.406624 
L 595.491335 300.973829 
L 598.884463 301.004606 
L 600.581028 301.88767 
L 602.277592 301.16736 
L 603.974156 301.151755 
L 605.670721 300.996056 
L 607.367285 302.01125 
L 609.063849 301.395059 
L 612.456978 301.51354 
L 614.153542 301.722765 
L 615.850106 301.42504 
L 617.546671 301.479913 
L 619.243235 301.276433 
L 620.939799 301.647107 
L 622.636364 300.64725 
L 622.636364 300.64725 
" clip-path="url(#p95642d8823)" style="fill: none; stroke: #2ca02c; stroke-width: 1.5; stroke-linecap: square"/>
   </g>
   <g id="line2d_15">
    <path d="M 115.363636 122.965885 
L 117.060201 188.770319 
L 118.756765 215.258287 
L 120.453329 227.74726 
L 122.149894 234.255664 
L 123.846458 237.097307 
L 125.543022 240.207042 
L 127.239587 242.942954 
L 130.632715 247.153167 
L 134.025844 250.385739 
L 135.722408 251.643833 
L 137.418972 252.747431 
L 140.812101 254.364904 
L 144.20523 256.207375 
L 145.901794 256.27848 
L 149.294922 257.037709 
L 150.991487 257.265828 
L 152.688051 258.152464 
L 154.384615 257.699786 
L 156.08118 257.820187 
L 157.777744 258.749178 
L 159.474308 258.61396 
L 161.170873 259.123207 
L 162.867437 258.868313 
L 164.564001 259.520995 
L 166.260566 260.01554 
L 167.95713 259.533249 
L 171.350258 260.012406 
L 173.046823 260.588071 
L 174.743387 260.515948 
L 176.439951 259.603139 
L 178.136516 260.353172 
L 179.83308 261.617466 
L 181.529644 260.931495 
L 183.226209 261.244081 
L 184.922773 260.712932 
L 186.619337 261.508441 
L 188.315901 260.672944 
L 190.012466 261.832706 
L 196.798723 262.424374 
L 200.191852 262.015399 
L 201.888416 262.839781 
L 203.58498 262.078921 
L 205.281545 262.466965 
L 206.978109 262.52984 
L 208.674673 263.13067 
L 210.371237 263.161046 
L 212.067802 262.868473 
L 213.764366 263.151033 
L 215.46093 263.055735 
L 218.854059 264.085334 
L 220.550623 263.869439 
L 222.247188 264.074458 
L 223.943752 263.478068 
L 225.640316 263.685346 
L 227.336881 263.024415 
L 229.033445 263.664913 
L 230.730009 263.042765 
L 234.123138 263.811719 
L 235.819702 263.306543 
L 237.516266 264.126499 
L 239.212831 263.254682 
L 240.909395 263.113174 
L 242.605959 262.274393 
L 244.302524 264.048959 
L 245.999088 264.826939 
L 249.392216 264.147571 
L 251.088781 264.921804 
L 252.785345 264.061724 
L 254.481909 265.1232 
L 256.178474 264.975425 
L 259.571602 265.525896 
L 261.268167 263.540411 
L 262.964731 264.439426 
L 264.661295 264.879915 
L 269.750988 265.291354 
L 271.447552 265.069393 
L 273.144117 266.000734 
L 274.840681 264.702318 
L 276.537245 265.826065 
L 278.23381 266.079526 
L 279.930374 266.887568 
L 281.626938 266.037125 
L 283.323503 266.513748 
L 285.020067 265.745775 
L 288.413196 266.309276 
L 290.10976 264.935846 
L 291.806324 266.12237 
L 293.502888 266.703855 
L 295.199453 266.500327 
L 296.896017 265.772664 
L 298.592581 266.859461 
L 300.289146 266.249364 
L 301.98571 266.879334 
L 303.682274 266.001089 
L 307.075403 265.946128 
L 308.771967 266.553922 
L 310.468531 266.304932 
L 312.165096 265.514971 
L 313.86166 266.030125 
L 315.558224 267.357148 
L 317.254789 267.241941 
L 318.951353 266.578138 
L 320.647917 266.693348 
L 322.344482 266.31731 
L 325.73761 266.091912 
L 327.434175 265.93331 
L 329.130739 266.26744 
L 330.827303 266.189874 
L 332.523867 266.756579 
L 334.220432 266.89841 
L 335.916996 266.089017 
L 337.61356 266.682686 
L 339.310125 266.96084 
L 341.006689 264.149557 
L 342.703253 266.704909 
L 344.399818 267.221175 
L 346.096382 267.208421 
L 347.792946 268.159178 
L 349.48951 267.654628 
L 351.186075 266.982904 
L 354.579203 266.00728 
L 356.275768 267.618712 
L 357.972332 268.380385 
L 359.668896 267.706188 
L 361.365461 266.851525 
L 363.062025 268.393941 
L 364.758589 267.94724 
L 366.455154 267.061565 
L 368.151718 267.800445 
L 369.848282 267.450911 
L 371.544846 269.153177 
L 373.241411 265.772208 
L 374.937975 268.178799 
L 376.634539 267.179096 
L 378.331104 267.891439 
L 380.027668 267.366356 
L 381.724232 267.033699 
L 383.420797 266.223914 
L 385.117361 267.188644 
L 386.813925 267.922846 
L 388.51049 264.820579 
L 390.207054 266.733861 
L 391.903618 269.108756 
L 393.600182 269.169336 
L 395.296747 266.978611 
L 396.993311 268.169536 
L 398.689875 268.852553 
L 400.38644 268.223329 
L 402.083004 268.809656 
L 403.779568 267.735531 
L 405.476133 268.278163 
L 407.172697 269.341932 
L 408.869261 269.201763 
L 410.565825 268.499956 
L 412.26239 268.647722 
L 413.958954 267.070683 
L 415.655518 269.047757 
L 417.352083 268.685855 
L 419.048647 268.903476 
L 420.745211 268.937378 
L 422.441776 267.910861 
L 424.13834 269.423397 
L 425.834904 269.30828 
L 429.228033 268.368616 
L 430.924597 268.19937 
L 432.621161 269.433436 
L 434.317726 267.870191 
L 436.01429 267.672744 
L 437.710854 270.148427 
L 439.407419 268.753338 
L 441.103983 268.306359 
L 442.800547 269.20534 
L 444.497112 268.622995 
L 446.193676 268.731802 
L 447.89024 270.351911 
L 449.586804 270.111494 
L 451.283369 268.818525 
L 452.979933 268.723003 
L 454.676497 268.98527 
L 456.373062 268.061788 
L 459.76619 270.023143 
L 461.462755 268.504641 
L 463.159319 268.245271 
L 466.552448 269.971871 
L 468.249012 268.954509 
L 469.945576 270.090495 
L 471.64214 269.299488 
L 473.338705 269.350277 
L 475.035269 269.136151 
L 476.731833 269.817108 
L 478.428398 268.492162 
L 480.124962 269.463408 
L 481.821526 268.694283 
L 483.518091 270.561151 
L 485.214655 269.324476 
L 486.911219 269.402292 
L 488.607784 270.480211 
L 490.304348 268.106028 
L 492.000912 269.881035 
L 493.697476 269.835458 
L 495.394041 268.669731 
L 497.090605 269.040511 
L 498.787169 269.851418 
L 500.483734 269.295665 
L 502.180298 269.758101 
L 503.876862 269.037041 
L 505.573427 269.87111 
L 507.269991 269.991532 
L 508.966555 269.810014 
L 510.663119 270.282774 
L 512.359684 268.909688 
L 514.056248 270.302129 
L 515.752812 268.869033 
L 517.449377 269.573392 
L 519.145941 270.628362 
L 520.842505 270.422134 
L 522.53907 269.866451 
L 524.235634 270.200274 
L 527.628763 270.130781 
L 531.021891 270.800511 
L 532.718455 269.125689 
L 534.41502 270.393525 
L 537.808148 270.786374 
L 541.201277 268.321678 
L 542.897841 270.424481 
L 544.594406 270.719311 
L 546.29097 269.734989 
L 547.987534 270.202983 
L 549.684099 264.386459 
L 551.380663 270.321911 
L 553.077227 271.24076 
L 554.773791 270.737325 
L 556.470356 270.727549 
L 558.16692 270.075248 
L 559.863484 271.185847 
L 561.560049 271.527709 
L 564.953177 270.379203 
L 566.649742 267.787962 
L 568.346306 269.896975 
L 570.04287 269.62093 
L 571.739434 269.204602 
L 573.435999 269.913188 
L 575.132563 271.254125 
L 576.829127 270.296069 
L 578.525692 270.077672 
L 580.222256 269.244645 
L 581.91882 270.598373 
L 583.615385 270.98846 
L 585.311949 269.97455 
L 587.008513 270.819349 
L 588.705078 271.373448 
L 590.401642 270.034462 
L 592.098206 269.985351 
L 593.79477 268.507439 
L 595.491335 270.218641 
L 597.187899 269.847608 
L 598.884463 271.117448 
L 602.277592 271.474909 
L 603.974156 270.597032 
L 605.670721 270.060087 
L 607.367285 271.685503 
L 609.063849 271.510205 
L 610.760413 271.134444 
L 612.456978 271.630172 
L 614.153542 271.877079 
L 615.850106 270.675791 
L 617.546671 270.773647 
L 619.243235 270.740498 
L 620.939799 271.242375 
L 622.636364 270.12921 
L 622.636364 270.12921 
" clip-path="url(#p95642d8823)" style="fill: none; stroke: #d62728; stroke-width: 1.5; stroke-linecap: square"/>
   </g>
   <g id="patch_3">
    <path d="M 90 320.4 
L 90 43.2 
" style="fill: none; stroke: #000000; stroke-width: 0.8; stroke-linejoin: miter; stroke-linecap: square"/>
   </g>
   <g id="patch_4">
    <path d="M 648 320.4 
L 648 43.2 
" style="fill: none; stroke: #000000; stroke-width: 0.8; stroke-linejoin: miter; stroke-linecap: square"/>
   </g>
   <g id="patch_5">
    <path d="M 90 320.4 
L 648 320.4 
" style="fill: none; stroke: #000000; stroke-width: 0.8; stroke-linejoin: miter; stroke-linecap: square"/>
   </g>
   <g id="patch_6">
    <path d="M 90 43.2 
L 648 43.2 
" style="fill: none; stroke: #000000; stroke-width: 0.8; stroke-linejoin: miter; stroke-linecap: square"/>
   </g>
   <g id="text_14">
    <!-- Training and Validating Estimation Loss -->
    <g transform="translate(251.535937 37.2) scale(0.12 -0.12)">
     <defs>
      <path id="DejaVuSans-54" d="M -19 4666 
L 3928 4666 
L 3928 4134 
L 2272 4134 
L 2272 0 
L 1638 0 
L 1638 4134 
L -19 4134 
L -19 4666 
z
" transform="scale(0.015625)"/>
      <path id="DejaVuSans-72" d="M 2631 2963 
Q 2534 3019 2420 3045 
Q 2306 3072 2169 3072 
Q 1681 3072 1420 2755 
Q 1159 2438 1159 1844 
L 1159 0 
L 581 0 
L 581 3500 
L 1159 3500 
L 1159 2956 
Q 1341 3275 1631 3429 
Q 1922 3584 2338 3584 
Q 2397 3584 2469 3576 
Q 2541 3569 2628 3553 
L 2631 2963 
z
" transform="scale(0.015625)"/>
      <path id="DejaVuSans-67" d="M 2906 1791 
Q 2906 2416 2648 2759 
Q 2391 3103 1925 3103 
Q 1463 3103 1205 2759 
Q 947 2416 947 1791 
Q 947 1169 1205 825 
Q 1463 481 1925 481 
Q 2391 481 2648 825 
Q 2906 1169 2906 1791 
z
M 3481 434 
Q 3481 -459 3084 -895 
Q 2688 -1331 1869 -1331 
Q 1566 -1331 1297 -1286 
Q 1028 -1241 775 -1147 
L 775 -588 
Q 1028 -725 1275 -790 
Q 1522 -856 1778 -856 
Q 2344 -856 2625 -561 
Q 2906 -266 2906 331 
L 2906 616 
Q 2728 306 2450 153 
Q 2172 0 1784 0 
Q 1141 0 747 490 
Q 353 981 353 1791 
Q 353 2603 747 3093 
Q 1141 3584 1784 3584 
Q 2172 3584 2450 3431 
Q 2728 3278 2906 2969 
L 2906 3500 
L 3481 3500 
L 3481 434 
z
" transform="scale(0.015625)"/>
      <path id="DejaVuSans-64" d="M 2906 2969 
L 2906 4863 
L 3481 4863 
L 3481 0 
L 2906 0 
L 2906 525 
Q 2725 213 2448 61 
Q 2172 -91 1784 -91 
Q 1150 -91 751 415 
Q 353 922 353 1747 
Q 353 2572 751 3078 
Q 1150 3584 1784 3584 
Q 2172 3584 2448 3432 
Q 2725 3281 2906 2969 
z
M 947 1747 
Q 947 1113 1208 752 
Q 1469 391 1925 391 
Q 2381 391 2643 752 
Q 2906 1113 2906 1747 
Q 2906 2381 2643 2742 
Q 2381 3103 1925 3103 
Q 1469 3103 1208 2742 
Q 947 2381 947 1747 
z
" transform="scale(0.015625)"/>
      <path id="DejaVuSans-56" d="M 1831 0 
L 50 4666 
L 709 4666 
L 2188 738 
L 3669 4666 
L 4325 4666 
L 2547 0 
L 1831 0 
z
" transform="scale(0.015625)"/>
      <path id="DejaVuSans-6c" d="M 603 4863 
L 1178 4863 
L 1178 0 
L 603 0 
L 603 4863 
z
" transform="scale(0.015625)"/>
     </defs>
     <use xlink:href="#DejaVuSans-54"/>
     <use xlink:href="#DejaVuSans-72" transform="translate(46.333984 0)"/>
     <use xlink:href="#DejaVuSans-61" transform="translate(87.447266 0)"/>
     <use xlink:href="#DejaVuSans-69" transform="translate(148.726562 0)"/>
     <use xlink:href="#DejaVuSans-6e" transform="translate(176.509766 0)"/>
     <use xlink:href="#DejaVuSans-69" transform="translate(239.888672 0)"/>
     <use xlink:href="#DejaVuSans-6e" transform="translate(267.671875 0)"/>
     <use xlink:href="#DejaVuSans-67" transform="translate(331.050781 0)"/>
     <use xlink:href="#DejaVuSans-20" transform="translate(394.527344 0)"/>
     <use xlink:href="#DejaVuSans-61" transform="translate(426.314453 0)"/>
     <use xlink:href="#DejaVuSans-6e" transform="translate(487.59375 0)"/>
     <use xlink:href="#DejaVuSans-64" transform="translate(550.972656 0)"/>
     <use xlink:href="#DejaVuSans-20" transform="translate(614.449219 0)"/>
     <use xlink:href="#DejaVuSans-56" transform="translate(646.236328 0)"/>
     <use xlink:href="#DejaVuSans-61" transform="translate(706.894531 0)"/>
     <use xlink:href="#DejaVuSans-6c" transform="translate(768.173828 0)"/>
     <use xlink:href="#DejaVuSans-69" transform="translate(795.957031 0)"/>
     <use xlink:href="#DejaVuSans-64" transform="translate(823.740234 0)"/>
     <use xlink:href="#DejaVuSans-61" transform="translate(887.216797 0)"/>
     <use xlink:href="#DejaVuSans-74" transform="translate(948.496094 0)"/>
     <use xlink:href="#DejaVuSans-69" transform="translate(987.705078 0)"/>
     <use xlink:href="#DejaVuSans-6e" transform="translate(1015.488281 0)"/>
     <use xlink:href="#DejaVuSans-67" transform="translate(1078.867188 0)"/>
     <use xlink:href="#DejaVuSans-20" transform="translate(1142.34375 0)"/>
     <use xlink:href="#DejaVuSans-45" transform="translate(1174.130859 0)"/>
     <use xlink:href="#DejaVuSans-73" transform="translate(1237.314453 0)"/>
     <use xlink:href="#DejaVuSans-74" transform="translate(1289.414062 0)"/>
     <use xlink:href="#DejaVuSans-69" transform="translate(1328.623047 0)"/>
     <use xlink:href="#DejaVuSans-6d" transform="translate(1356.40625 0)"/>
     <use xlink:href="#DejaVuSans-61" transform="translate(1453.818359 0)"/>
     <use xlink:href="#DejaVuSans-74" transform="translate(1515.097656 0)"/>
     <use xlink:href="#DejaVuSans-69" transform="translate(1554.306641 0)"/>
     <use xlink:href="#DejaVuSans-6f" transform="translate(1582.089844 0)"/>
     <use xlink:href="#DejaVuSans-6e" transform="translate(1643.271484 0)"/>
     <use xlink:href="#DejaVuSans-20" transform="translate(1706.650391 0)"/>
     <use xlink:href="#DejaVuSans-4c" transform="translate(1738.4375 0)"/>
     <use xlink:href="#DejaVuSans-6f" transform="translate(1792.400391 0)"/>
     <use xlink:href="#DejaVuSans-73" transform="translate(1853.582031 0)"/>
     <use xlink:href="#DejaVuSans-73" transform="translate(1905.681641 0)"/>
    </g>
   </g>
   <g id="legend_1">
    <g id="patch_7">
     <path d="M 521.439062 109.9125 
L 641 109.9125 
Q 643 109.9125 643 107.9125 
L 643 50.2 
Q 643 48.2 641 48.2 
L 521.439062 48.2 
Q 519.439062 48.2 519.439062 50.2 
L 519.439062 107.9125 
Q 519.439062 109.9125 521.439062 109.9125 
z
" style="fill: #ffffff; opacity: 0.8; stroke: #cccccc; stroke-linejoin: miter"/>
    </g>
    <g id="line2d_16">
     <path d="M 523.439062 56.298437 
L 533.439062 56.298437 
L 543.439062 56.298437 
" style="fill: none; stroke: #1f77b4; stroke-width: 1.5; stroke-linecap: square"/>
    </g>
    <g id="text_15">
     <!-- Training-Source -->
     <g transform="translate(551.439062 59.798437) scale(0.1 -0.1)">
      <defs>
       <path id="DejaVuSans-2d" d="M 313 2009 
L 1997 2009 
L 1997 1497 
L 313 1497 
L 313 2009 
z
" transform="scale(0.015625)"/>
       <path id="DejaVuSans-53" d="M 3425 4513 
L 3425 3897 
Q 3066 4069 2747 4153 
Q 2428 4238 2131 4238 
Q 1616 4238 1336 4038 
Q 1056 3838 1056 3469 
Q 1056 3159 1242 3001 
Q 1428 2844 1947 2747 
L 2328 2669 
Q 3034 2534 3370 2195 
Q 3706 1856 3706 1288 
Q 3706 609 3251 259 
Q 2797 -91 1919 -91 
Q 1588 -91 1214 -16 
Q 841 59 441 206 
L 441 856 
Q 825 641 1194 531 
Q 1563 422 1919 422 
Q 2459 422 2753 634 
Q 3047 847 3047 1241 
Q 3047 1584 2836 1778 
Q 2625 1972 2144 2069 
L 1759 2144 
Q 1053 2284 737 2584 
Q 422 2884 422 3419 
Q 422 4038 858 4394 
Q 1294 4750 2059 4750 
Q 2388 4750 2728 4690 
Q 3069 4631 3425 4513 
z
" transform="scale(0.015625)"/>
       <path id="DejaVuSans-75" d="M 544 1381 
L 544 3500 
L 1119 3500 
L 1119 1403 
Q 1119 906 1312 657 
Q 1506 409 1894 409 
Q 2359 409 2629 706 
Q 2900 1003 2900 1516 
L 2900 3500 
L 3475 3500 
L 3475 0 
L 2900 0 
L 2900 538 
Q 2691 219 2414 64 
Q 2138 -91 1772 -91 
Q 1169 -91 856 284 
Q 544 659 544 1381 
z
M 1991 3584 
L 1991 3584 
z
" transform="scale(0.015625)"/>
       <path id="DejaVuSans-65" d="M 3597 1894 
L 3597 1613 
L 953 1613 
Q 991 1019 1311 708 
Q 1631 397 2203 397 
Q 2534 397 2845 478 
Q 3156 559 3463 722 
L 3463 178 
Q 3153 47 2828 -22 
Q 2503 -91 2169 -91 
Q 1331 -91 842 396 
Q 353 884 353 1716 
Q 353 2575 817 3079 
Q 1281 3584 2069 3584 
Q 2775 3584 3186 3129 
Q 3597 2675 3597 1894 
z
M 3022 2063 
Q 3016 2534 2758 2815 
Q 2500 3097 2075 3097 
Q 1594 3097 1305 2825 
Q 1016 2553 972 2059 
L 3022 2063 
z
" transform="scale(0.015625)"/>
      </defs>
      <use xlink:href="#DejaVuSans-54"/>
      <use xlink:href="#DejaVuSans-72" transform="translate(46.333984 0)"/>
      <use xlink:href="#DejaVuSans-61" transform="translate(87.447266 0)"/>
      <use xlink:href="#DejaVuSans-69" transform="translate(148.726562 0)"/>
      <use xlink:href="#DejaVuSans-6e" transform="translate(176.509766 0)"/>
      <use xlink:href="#DejaVuSans-69" transform="translate(239.888672 0)"/>
      <use xlink:href="#DejaVuSans-6e" transform="translate(267.671875 0)"/>
      <use xlink:href="#DejaVuSans-67" transform="translate(331.050781 0)"/>
      <use xlink:href="#DejaVuSans-2d" transform="translate(394.527344 0)"/>
      <use xlink:href="#DejaVuSans-53" transform="translate(430.611328 0)"/>
      <use xlink:href="#DejaVuSans-6f" transform="translate(494.087891 0)"/>
      <use xlink:href="#DejaVuSans-75" transform="translate(555.269531 0)"/>
      <use xlink:href="#DejaVuSans-72" transform="translate(618.648438 0)"/>
      <use xlink:href="#DejaVuSans-63" transform="translate(657.511719 0)"/>
      <use xlink:href="#DejaVuSans-65" transform="translate(712.492188 0)"/>
     </g>
    </g>
    <g id="line2d_17">
     <path d="M 523.439062 70.976562 
L 533.439062 70.976562 
L 543.439062 70.976562 
" style="fill: none; stroke: #ff7f0e; stroke-width: 1.5; stroke-linecap: square"/>
    </g>
    <g id="text_16">
     <!-- Training-Target -->
     <g transform="translate(551.439062 74.476562) scale(0.1 -0.1)">
      <use xlink:href="#DejaVuSans-54"/>
      <use xlink:href="#DejaVuSans-72" transform="translate(46.333984 0)"/>
      <use xlink:href="#DejaVuSans-61" transform="translate(87.447266 0)"/>
      <use xlink:href="#DejaVuSans-69" transform="translate(148.726562 0)"/>
      <use xlink:href="#DejaVuSans-6e" transform="translate(176.509766 0)"/>
      <use xlink:href="#DejaVuSans-69" transform="translate(239.888672 0)"/>
      <use xlink:href="#DejaVuSans-6e" transform="translate(267.671875 0)"/>
      <use xlink:href="#DejaVuSans-67" transform="translate(331.050781 0)"/>
      <use xlink:href="#DejaVuSans-2d" transform="translate(394.527344 0)"/>
      <use xlink:href="#DejaVuSans-54" transform="translate(421.486328 0)"/>
      <use xlink:href="#DejaVuSans-61" transform="translate(466.070312 0)"/>
      <use xlink:href="#DejaVuSans-72" transform="translate(527.349609 0)"/>
      <use xlink:href="#DejaVuSans-67" transform="translate(566.712891 0)"/>
      <use xlink:href="#DejaVuSans-65" transform="translate(630.189453 0)"/>
      <use xlink:href="#DejaVuSans-74" transform="translate(691.712891 0)"/>
     </g>
    </g>
    <g id="line2d_18">
     <path d="M 523.439062 85.654687 
L 533.439062 85.654687 
L 543.439062 85.654687 
" style="fill: none; stroke: #2ca02c; stroke-width: 1.5; stroke-linecap: square"/>
    </g>
    <g id="text_17">
     <!-- Validating-Source -->
     <g transform="translate(551.439062 89.154687) scale(0.1 -0.1)">
      <use xlink:href="#DejaVuSans-56"/>
      <use xlink:href="#DejaVuSans-61" transform="translate(60.658203 0)"/>
      <use xlink:href="#DejaVuSans-6c" transform="translate(121.9375 0)"/>
      <use xlink:href="#DejaVuSans-69" transform="translate(149.720703 0)"/>
      <use xlink:href="#DejaVuSans-64" transform="translate(177.503906 0)"/>
      <use xlink:href="#DejaVuSans-61" transform="translate(240.980469 0)"/>
      <use xlink:href="#DejaVuSans-74" transform="translate(302.259766 0)"/>
      <use xlink:href="#DejaVuSans-69" transform="translate(341.46875 0)"/>
      <use xlink:href="#DejaVuSans-6e" transform="translate(369.251953 0)"/>
      <use xlink:href="#DejaVuSans-67" transform="translate(432.630859 0)"/>
      <use xlink:href="#DejaVuSans-2d" transform="translate(496.107422 0)"/>
      <use xlink:href="#DejaVuSans-53" transform="translate(532.191406 0)"/>
      <use xlink:href="#DejaVuSans-6f" transform="translate(595.667969 0)"/>
      <use xlink:href="#DejaVuSans-75" transform="translate(656.849609 0)"/>
      <use xlink:href="#DejaVuSans-72" transform="translate(720.228516 0)"/>
      <use xlink:href="#DejaVuSans-63" transform="translate(759.091797 0)"/>
      <use xlink:href="#DejaVuSans-65" transform="translate(814.072266 0)"/>
     </g>
    </g>
    <g id="line2d_19">
     <path d="M 523.439062 100.332812 
L 533.439062 100.332812 
L 543.439062 100.332812 
" style="fill: none; stroke: #d62728; stroke-width: 1.5; stroke-linecap: square"/>
    </g>
    <g id="text_18">
     <!-- Validating-Target -->
     <g transform="translate(551.439062 103.832812) scale(0.1 -0.1)">
      <use xlink:href="#DejaVuSans-56"/>
      <use xlink:href="#DejaVuSans-61" transform="translate(60.658203 0)"/>
      <use xlink:href="#DejaVuSans-6c" transform="translate(121.9375 0)"/>
      <use xlink:href="#DejaVuSans-69" transform="translate(149.720703 0)"/>
      <use xlink:href="#DejaVuSans-64" transform="translate(177.503906 0)"/>
      <use xlink:href="#DejaVuSans-61" transform="translate(240.980469 0)"/>
      <use xlink:href="#DejaVuSans-74" transform="translate(302.259766 0)"/>
      <use xlink:href="#DejaVuSans-69" transform="translate(341.46875 0)"/>
      <use xlink:href="#DejaVuSans-6e" transform="translate(369.251953 0)"/>
      <use xlink:href="#DejaVuSans-67" transform="translate(432.630859 0)"/>
      <use xlink:href="#DejaVuSans-2d" transform="translate(496.107422 0)"/>
      <use xlink:href="#DejaVuSans-54" transform="translate(523.066406 0)"/>
      <use xlink:href="#DejaVuSans-61" transform="translate(567.650391 0)"/>
      <use xlink:href="#DejaVuSans-72" transform="translate(628.929688 0)"/>
      <use xlink:href="#DejaVuSans-67" transform="translate(668.292969 0)"/>
      <use xlink:href="#DejaVuSans-65" transform="translate(731.769531 0)"/>
      <use xlink:href="#DejaVuSans-74" transform="translate(793.292969 0)"/>
     </g>
    </g>
   </g>
  </g>
 </g>
 <defs>
  <clipPath id="p95642d8823">
   <rect x="90" y="43.2" width="558" height="277.2"/>
  </clipPath>
 </defs>
</svg>
