<?xml version="1.0" encoding="utf-8" standalone="no"?>
<!DOCTYPE svg PUBLIC "-//W3C//DTD SVG 1.1//EN"
  "http://www.w3.org/Graphics/SVG/1.1/DTD/svg11.dtd">
<svg xmlns:xlink="http://www.w3.org/1999/xlink" width="720pt" height="360pt" viewBox="0 0 720 360" xmlns="http://www.w3.org/2000/svg" version="1.1">
 <metadata>
  <rdf:RDF xmlns:dc="http://purl.org/dc/elements/1.1/" xmlns:cc="http://creativecommons.org/ns#" xmlns:rdf="http://www.w3.org/1999/02/22-rdf-syntax-ns#">
   <cc:Work>
    <dc:type rdf:resource="http://purl.org/dc/dcmitype/StillImage"/>
    <dc:date>2025-11-26T00:49:19.034876</dc:date>
    <dc:format>image/svg+xml</dc:format>
    <dc:creator>
     <cc:Agent>
      <dc:title>Matplotlib v3.10.1, https://matplotlib.org/</dc:title>
     </cc:Agent>
    </dc:creator>
   </cc:Work>
  </rdf:RDF>
 </metadata>
 <defs>
  <style type="text/css">*{stroke-linejoin: round; stroke-linecap: butt}</style>
 </defs>
 <g id="figure_1">
  <g id="patch_1">
   <path d="M 0 360 
L 720 360 
L 720 0 
L 0 0 
z
" style="fill: #ffffff"/>
  </g>
  <g id="axes_1">
   <g id="patch_2">
    <path d="M 90 320.4 
L 648 320.4 
L 648 43.2 
L 90 43.2 
z
" style="fill: #ffffff"/>
   </g>
   <g id="matplotlib.axis_1">
    <g id="xtick_1">
     <g id="line2d_1">
      <defs>
       <path id="m9c3fbbb544" d="M 0 0 
L 0 3.5 
" style="stroke: #000000; stroke-width: 0.8"/>
      </defs>
      <g>
       <use xlink:href="#m9c3fbbb544" x="115.363636" y="320.4" style="stroke: #000000; stroke-width: 0.8"/>
      </g>
     </g>
     <g id="text_1">
      <!-- 0 -->
      <g transform="translate(112.182386 334.998438) scale(0.1 -0.1)">
       <defs>
        <path id="DejaVuSans-30" d="M 2034 4250 
Q 1547 4250 1301 3770 
Q 1056 3291 1056 2328 
Q 1056 1369 1301 889 
Q 1547 409 2034 409 
Q 2525 409 2770 889 
Q 3016 1369 3016 2328 
Q 3016 3291 2770 3770 
Q 2525 4250 2034 4250 
z
M 2034 4750 
Q 2819 4750 3233 4129 
Q 3647 3509 3647 2328 
Q 3647 1150 3233 529 
Q 2819 -91 2034 -91 
Q 1250 -91 836 529 
Q 422 1150 422 2328 
Q 422 3509 836 4129 
Q 1250 4750 2034 4750 
z
" transform="scale(0.015625)"/>
       </defs>
       <use xlink:href="#DejaVuSans-30"/>
      </g>
     </g>
    </g>
    <g id="xtick_2">
     <g id="line2d_2">
      <g>
       <use xlink:href="#m9c3fbbb544" x="216.818182" y="320.4" style="stroke: #000000; stroke-width: 0.8"/>
      </g>
     </g>
     <g id="text_2">
      <!-- 44 -->
      <g transform="translate(210.455682 334.998438) scale(0.1 -0.1)">
       <defs>
        <path id="DejaVuSans-34" d="M 2419 4116 
L 825 1625 
L 2419 1625 
L 2419 4116 
z
M 2253 4666 
L 3047 4666 
L 3047 1625 
L 3713 1625 
L 3713 1100 
L 3047 1100 
L 3047 0 
L 2419 0 
L 2419 1100 
L 313 1100 
L 313 1709 
L 2253 4666 
z
" transform="scale(0.015625)"/>
       </defs>
       <use xlink:href="#DejaVuSans-34"/>
       <use xlink:href="#DejaVuSans-34" transform="translate(63.623047 0)"/>
      </g>
     </g>
    </g>
    <g id="xtick_3">
     <g id="line2d_3">
      <g>
       <use xlink:href="#m9c3fbbb544" x="318.272727" y="320.4" style="stroke: #000000; stroke-width: 0.8"/>
      </g>
     </g>
     <g id="text_3">
      <!-- 88 -->
      <g transform="translate(311.910227 334.998438) scale(0.1 -0.1)">
       <defs>
        <path id="DejaVuSans-38" d="M 2034 2216 
Q 1584 2216 1326 1975 
Q 1069 1734 1069 1313 
Q 1069 891 1326 650 
Q 1584 409 2034 409 
Q 2484 409 2743 651 
Q 3003 894 3003 1313 
Q 3003 1734 2745 1975 
Q 2488 2216 2034 2216 
z
M 1403 2484 
Q 997 2584 770 2862 
Q 544 3141 544 3541 
Q 544 4100 942 4425 
Q 1341 4750 2034 4750 
Q 2731 4750 3128 4425 
Q 3525 4100 3525 3541 
Q 3525 3141 3298 2862 
Q 3072 2584 2669 2484 
Q 3125 2378 3379 2068 
Q 3634 1759 3634 1313 
Q 3634 634 3220 271 
Q 2806 -91 2034 -91 
Q 1263 -91 848 271 
Q 434 634 434 1313 
Q 434 1759 690 2068 
Q 947 2378 1403 2484 
z
M 1172 3481 
Q 1172 3119 1398 2916 
Q 1625 2713 2034 2713 
Q 2441 2713 2670 2916 
Q 2900 3119 2900 3481 
Q 2900 3844 2670 4047 
Q 2441 4250 2034 4250 
Q 1625 4250 1398 4047 
Q 1172 3844 1172 3481 
z
" transform="scale(0.015625)"/>
       </defs>
       <use xlink:href="#DejaVuSans-38"/>
       <use xlink:href="#DejaVuSans-38" transform="translate(63.623047 0)"/>
      </g>
     </g>
    </g>
    <g id="xtick_4">
     <g id="line2d_4">
      <g>
       <use xlink:href="#m9c3fbbb544" x="419.727273" y="320.4" style="stroke: #000000; stroke-width: 0.8"/>
      </g>
     </g>
     <g id="text_4">
      <!-- 132 -->
      <g transform="translate(410.183523 334.998438) scale(0.1 -0.1)">
       <defs>
        <path id="DejaVuSans-31" d="M 794 531 
L 1825 531 
L 1825 4091 
L 703 3866 
L 703 4441 
L 1819 4666 
L 2450 4666 
L 2450 531 
L 3481 531 
L 3481 0 
L 794 0 
L 794 531 
z
" transform="scale(0.015625)"/>
        <path id="DejaVuSans-33" d="M 2597 2516 
Q 3050 2419 3304 2112 
Q 3559 1806 3559 1356 
Q 3559 666 3084 287 
Q 2609 -91 1734 -91 
Q 1441 -91 1130 -33 
Q 819 25 488 141 
L 488 750 
Q 750 597 1062 519 
Q 1375 441 1716 441 
Q 2309 441 2620 675 
Q 2931 909 2931 1356 
Q 2931 1769 2642 2001 
Q 2353 2234 1838 2234 
L 1294 2234 
L 1294 2753 
L 1863 2753 
Q 2328 2753 2575 2939 
Q 2822 3125 2822 3475 
Q 2822 3834 2567 4026 
Q 2313 4219 1838 4219 
Q 1578 4219 1281 4162 
Q 984 4106 628 3988 
L 628 4550 
Q 988 4650 1302 4700 
Q 1616 4750 1894 4750 
Q 2613 4750 3031 4423 
Q 3450 4097 3450 3541 
Q 3450 3153 3228 2886 
Q 3006 2619 2597 2516 
z
" transform="scale(0.015625)"/>
        <path id="DejaVuSans-32" d="M 1228 531 
L 3431 531 
L 3431 0 
L 469 0 
L 469 531 
Q 828 903 1448 1529 
Q 2069 2156 2228 2338 
Q 2531 2678 2651 2914 
Q 2772 3150 2772 3378 
Q 2772 3750 2511 3984 
Q 2250 4219 1831 4219 
Q 1534 4219 1204 4116 
Q 875 4013 500 3803 
L 500 4441 
Q 881 4594 1212 4672 
Q 1544 4750 1819 4750 
Q 2544 4750 2975 4387 
Q 3406 4025 3406 3419 
Q 3406 3131 3298 2873 
Q 3191 2616 2906 2266 
Q 2828 2175 2409 1742 
Q 1991 1309 1228 531 
z
" transform="scale(0.015625)"/>
       </defs>
       <use xlink:href="#DejaVuSans-31"/>
       <use xlink:href="#DejaVuSans-33" transform="translate(63.623047 0)"/>
       <use xlink:href="#DejaVuSans-32" transform="translate(127.246094 0)"/>
      </g>
     </g>
    </g>
    <g id="xtick_5">
     <g id="line2d_5">
      <g>
       <use xlink:href="#m9c3fbbb544" x="521.181818" y="320.4" style="stroke: #000000; stroke-width: 0.8"/>
      </g>
     </g>
     <g id="text_5">
      <!-- 176 -->
      <g transform="translate(511.638068 334.998438) scale(0.1 -0.1)">
       <defs>
        <path id="DejaVuSans-37" d="M 525 4666 
L 3525 4666 
L 3525 4397 
L 1831 0 
L 1172 0 
L 2766 4134 
L 525 4134 
L 525 4666 
z
" transform="scale(0.015625)"/>
        <path id="DejaVuSans-36" d="M 2113 2584 
Q 1688 2584 1439 2293 
Q 1191 2003 1191 1497 
Q 1191 994 1439 701 
Q 1688 409 2113 409 
Q 2538 409 2786 701 
Q 3034 994 3034 1497 
Q 3034 2003 2786 2293 
Q 2538 2584 2113 2584 
z
M 3366 4563 
L 3366 3988 
Q 3128 4100 2886 4159 
Q 2644 4219 2406 4219 
Q 1781 4219 1451 3797 
Q 1122 3375 1075 2522 
Q 1259 2794 1537 2939 
Q 1816 3084 2150 3084 
Q 2853 3084 3261 2657 
Q 3669 2231 3669 1497 
Q 3669 778 3244 343 
Q 2819 -91 2113 -91 
Q 1303 -91 875 529 
Q 447 1150 447 2328 
Q 447 3434 972 4092 
Q 1497 4750 2381 4750 
Q 2619 4750 2861 4703 
Q 3103 4656 3366 4563 
z
" transform="scale(0.015625)"/>
       </defs>
       <use xlink:href="#DejaVuSans-31"/>
       <use xlink:href="#DejaVuSans-37" transform="translate(63.623047 0)"/>
       <use xlink:href="#DejaVuSans-36" transform="translate(127.246094 0)"/>
      </g>
     </g>
    </g>
    <g id="xtick_6">
     <g id="line2d_6">
      <g>
       <use xlink:href="#m9c3fbbb544" x="622.636364" y="320.4" style="stroke: #000000; stroke-width: 0.8"/>
      </g>
     </g>
     <g id="text_6">
      <!-- 220 -->
      <g transform="translate(613.092614 334.998438) scale(0.1 -0.1)">
       <use xlink:href="#DejaVuSans-32"/>
       <use xlink:href="#DejaVuSans-32" transform="translate(63.623047 0)"/>
       <use xlink:href="#DejaVuSans-30" transform="translate(127.246094 0)"/>
      </g>
     </g>
    </g>
    <g id="text_7">
     <!-- Epoch -->
     <g transform="translate(353.689062 348.676562) scale(0.1 -0.1)">
      <defs>
       <path id="DejaVuSans-45" d="M 628 4666 
L 3578 4666 
L 3578 4134 
L 1259 4134 
L 1259 2753 
L 3481 2753 
L 3481 2222 
L 1259 2222 
L 1259 531 
L 3634 531 
L 3634 0 
L 628 0 
L 628 4666 
z
" transform="scale(0.015625)"/>
       <path id="DejaVuSans-70" d="M 1159 525 
L 1159 -1331 
L 581 -1331 
L 581 3500 
L 1159 3500 
L 1159 2969 
Q 1341 3281 1617 3432 
Q 1894 3584 2278 3584 
Q 2916 3584 3314 3078 
Q 3713 2572 3713 1747 
Q 3713 922 3314 415 
Q 2916 -91 2278 -91 
Q 1894 -91 1617 61 
Q 1341 213 1159 525 
z
M 3116 1747 
Q 3116 2381 2855 2742 
Q 2594 3103 2138 3103 
Q 1681 3103 1420 2742 
Q 1159 2381 1159 1747 
Q 1159 1113 1420 752 
Q 1681 391 2138 391 
Q 2594 391 2855 752 
Q 3116 1113 3116 1747 
z
" transform="scale(0.015625)"/>
       <path id="DejaVuSans-6f" d="M 1959 3097 
Q 1497 3097 1228 2736 
Q 959 2375 959 1747 
Q 959 1119 1226 758 
Q 1494 397 1959 397 
Q 2419 397 2687 759 
Q 2956 1122 2956 1747 
Q 2956 2369 2687 2733 
Q 2419 3097 1959 3097 
z
M 1959 3584 
Q 2709 3584 3137 3096 
Q 3566 2609 3566 1747 
Q 3566 888 3137 398 
Q 2709 -91 1959 -91 
Q 1206 -91 779 398 
Q 353 888 353 1747 
Q 353 2609 779 3096 
Q 1206 3584 1959 3584 
z
" transform="scale(0.015625)"/>
       <path id="DejaVuSans-63" d="M 3122 3366 
L 3122 2828 
Q 2878 2963 2633 3030 
Q 2388 3097 2138 3097 
Q 1578 3097 1268 2742 
Q 959 2388 959 1747 
Q 959 1106 1268 751 
Q 1578 397 2138 397 
Q 2388 397 2633 464 
Q 2878 531 3122 666 
L 3122 134 
Q 2881 22 2623 -34 
Q 2366 -91 2075 -91 
Q 1284 -91 818 406 
Q 353 903 353 1747 
Q 353 2603 823 3093 
Q 1294 3584 2113 3584 
Q 2378 3584 2631 3529 
Q 2884 3475 3122 3366 
z
" transform="scale(0.015625)"/>
       <path id="DejaVuSans-68" d="M 3513 2113 
L 3513 0 
L 2938 0 
L 2938 2094 
Q 2938 2591 2744 2837 
Q 2550 3084 2163 3084 
Q 1697 3084 1428 2787 
Q 1159 2491 1159 1978 
L 1159 0 
L 581 0 
L 581 4863 
L 1159 4863 
L 1159 2956 
Q 1366 3272 1645 3428 
Q 1925 3584 2291 3584 
Q 2894 3584 3203 3211 
Q 3513 2838 3513 2113 
z
" transform="scale(0.015625)"/>
      </defs>
      <use xlink:href="#DejaVuSans-45"/>
      <use xlink:href="#DejaVuSans-70" transform="translate(63.183594 0)"/>
      <use xlink:href="#DejaVuSans-6f" transform="translate(126.660156 0)"/>
      <use xlink:href="#DejaVuSans-63" transform="translate(187.841797 0)"/>
      <use xlink:href="#DejaVuSans-68" transform="translate(242.822266 0)"/>
     </g>
    </g>
   </g>
   <g id="matplotlib.axis_2">
    <g id="ytick_1">
     <g id="line2d_7">
      <defs>
       <path id="maa53db9099" d="M 0 0 
L -3.5 0 
" style="stroke: #000000; stroke-width: 0.8"/>
      </defs>
      <g>
       <use xlink:href="#maa53db9099" x="90" y="294.219208" style="stroke: #000000; stroke-width: 0.8"/>
      </g>
     </g>
     <g id="text_8">
      <!-- 0.2 -->
      <g transform="translate(67.096875 298.018427) scale(0.1 -0.1)">
       <defs>
        <path id="DejaVuSans-2e" d="M 684 794 
L 1344 794 
L 1344 0 
L 684 0 
L 684 794 
z
" transform="scale(0.015625)"/>
       </defs>
       <use xlink:href="#DejaVuSans-30"/>
       <use xlink:href="#DejaVuSans-2e" transform="translate(63.623047 0)"/>
       <use xlink:href="#DejaVuSans-32" transform="translate(95.410156 0)"/>
      </g>
     </g>
    </g>
    <g id="ytick_2">
     <g id="line2d_8">
      <g>
       <use xlink:href="#maa53db9099" x="90" y="245.666952" style="stroke: #000000; stroke-width: 0.8"/>
      </g>
     </g>
     <g id="text_9">
      <!-- 0.3 -->
      <g transform="translate(67.096875 249.466171) scale(0.1 -0.1)">
       <use xlink:href="#DejaVuSans-30"/>
       <use xlink:href="#DejaVuSans-2e" transform="translate(63.623047 0)"/>
       <use xlink:href="#DejaVuSans-33" transform="translate(95.410156 0)"/>
      </g>
     </g>
    </g>
    <g id="ytick_3">
     <g id="line2d_9">
      <g>
       <use xlink:href="#maa53db9099" x="90" y="197.114696" style="stroke: #000000; stroke-width: 0.8"/>
      </g>
     </g>
     <g id="text_10">
      <!-- 0.4 -->
      <g transform="translate(67.096875 200.913915) scale(0.1 -0.1)">
       <use xlink:href="#DejaVuSans-30"/>
       <use xlink:href="#DejaVuSans-2e" transform="translate(63.623047 0)"/>
       <use xlink:href="#DejaVuSans-34" transform="translate(95.410156 0)"/>
      </g>
     </g>
    </g>
    <g id="ytick_4">
     <g id="line2d_10">
      <g>
       <use xlink:href="#maa53db9099" x="90" y="148.56244" style="stroke: #000000; stroke-width: 0.8"/>
      </g>
     </g>
     <g id="text_11">
      <!-- 0.5 -->
      <g transform="translate(67.096875 152.361659) scale(0.1 -0.1)">
       <defs>
        <path id="DejaVuSans-35" d="M 691 4666 
L 3169 4666 
L 3169 4134 
L 1269 4134 
L 1269 2991 
Q 1406 3038 1543 3061 
Q 1681 3084 1819 3084 
Q 2600 3084 3056 2656 
Q 3513 2228 3513 1497 
Q 3513 744 3044 326 
Q 2575 -91 1722 -91 
Q 1428 -91 1123 -41 
Q 819 9 494 109 
L 494 744 
Q 775 591 1075 516 
Q 1375 441 1709 441 
Q 2250 441 2565 725 
Q 2881 1009 2881 1497 
Q 2881 1984 2565 2268 
Q 2250 2553 1709 2553 
Q 1456 2553 1204 2497 
Q 953 2441 691 2322 
L 691 4666 
z
" transform="scale(0.015625)"/>
       </defs>
       <use xlink:href="#DejaVuSans-30"/>
       <use xlink:href="#DejaVuSans-2e" transform="translate(63.623047 0)"/>
       <use xlink:href="#DejaVuSans-35" transform="translate(95.410156 0)"/>
      </g>
     </g>
    </g>
    <g id="ytick_5">
     <g id="line2d_11">
      <g>
       <use xlink:href="#maa53db9099" x="90" y="100.010185" style="stroke: #000000; stroke-width: 0.8"/>
      </g>
     </g>
     <g id="text_12">
      <!-- 0.6 -->
      <g transform="translate(67.096875 103.809403) scale(0.1 -0.1)">
       <use xlink:href="#DejaVuSans-30"/>
       <use xlink:href="#DejaVuSans-2e" transform="translate(63.623047 0)"/>
       <use xlink:href="#DejaVuSans-36" transform="translate(95.410156 0)"/>
      </g>
     </g>
    </g>
    <g id="ytick_6">
     <g id="line2d_12">
      <g>
       <use xlink:href="#maa53db9099" x="90" y="51.457929" style="stroke: #000000; stroke-width: 0.8"/>
      </g>
     </g>
     <g id="text_13">
      <!-- 0.7 -->
      <g transform="translate(67.096875 55.257148) scale(0.1 -0.1)">
       <use xlink:href="#DejaVuSans-30"/>
       <use xlink:href="#DejaVuSans-2e" transform="translate(63.623047 0)"/>
       <use xlink:href="#DejaVuSans-37" transform="translate(95.410156 0)"/>
      </g>
     </g>
    </g>
    <g id="text_14">
     <!-- Estimation Loss -->
     <g transform="translate(61.017187 220.98125) rotate(-90) scale(0.1 -0.1)">
      <defs>
       <path id="DejaVuSans-73" d="M 2834 3397 
L 2834 2853 
Q 2591 2978 2328 3040 
Q 2066 3103 1784 3103 
Q 1356 3103 1142 2972 
Q 928 2841 928 2578 
Q 928 2378 1081 2264 
Q 1234 2150 1697 2047 
L 1894 2003 
Q 2506 1872 2764 1633 
Q 3022 1394 3022 966 
Q 3022 478 2636 193 
Q 2250 -91 1575 -91 
Q 1294 -91 989 -36 
Q 684 19 347 128 
L 347 722 
Q 666 556 975 473 
Q 1284 391 1588 391 
Q 1994 391 2212 530 
Q 2431 669 2431 922 
Q 2431 1156 2273 1281 
Q 2116 1406 1581 1522 
L 1381 1569 
Q 847 1681 609 1914 
Q 372 2147 372 2553 
Q 372 3047 722 3315 
Q 1072 3584 1716 3584 
Q 2034 3584 2315 3537 
Q 2597 3491 2834 3397 
z
" transform="scale(0.015625)"/>
       <path id="DejaVuSans-74" d="M 1172 4494 
L 1172 3500 
L 2356 3500 
L 2356 3053 
L 1172 3053 
L 1172 1153 
Q 1172 725 1289 603 
Q 1406 481 1766 481 
L 2356 481 
L 2356 0 
L 1766 0 
Q 1100 0 847 248 
Q 594 497 594 1153 
L 594 3053 
L 172 3053 
L 172 3500 
L 594 3500 
L 594 4494 
L 1172 4494 
z
" transform="scale(0.015625)"/>
       <path id="DejaVuSans-69" d="M 603 3500 
L 1178 3500 
L 1178 0 
L 603 0 
L 603 3500 
z
M 603 4863 
L 1178 4863 
L 1178 4134 
L 603 4134 
L 603 4863 
z
" transform="scale(0.015625)"/>
       <path id="DejaVuSans-6d" d="M 3328 2828 
Q 3544 3216 3844 3400 
Q 4144 3584 4550 3584 
Q 5097 3584 5394 3201 
Q 5691 2819 5691 2113 
L 5691 0 
L 5113 0 
L 5113 2094 
Q 5113 2597 4934 2840 
Q 4756 3084 4391 3084 
Q 3944 3084 3684 2787 
Q 3425 2491 3425 1978 
L 3425 0 
L 2847 0 
L 2847 2094 
Q 2847 2600 2669 2842 
Q 2491 3084 2119 3084 
Q 1678 3084 1418 2786 
Q 1159 2488 1159 1978 
L 1159 0 
L 581 0 
L 581 3500 
L 1159 3500 
L 1159 2956 
Q 1356 3278 1631 3431 
Q 1906 3584 2284 3584 
Q 2666 3584 2933 3390 
Q 3200 3197 3328 2828 
z
" transform="scale(0.015625)"/>
       <path id="DejaVuSans-61" d="M 2194 1759 
Q 1497 1759 1228 1600 
Q 959 1441 959 1056 
Q 959 750 1161 570 
Q 1363 391 1709 391 
Q 2188 391 2477 730 
Q 2766 1069 2766 1631 
L 2766 1759 
L 2194 1759 
z
M 3341 1997 
L 3341 0 
L 2766 0 
L 2766 531 
Q 2569 213 2275 61 
Q 1981 -91 1556 -91 
Q 1019 -91 701 211 
Q 384 513 384 1019 
Q 384 1609 779 1909 
Q 1175 2209 1959 2209 
L 2766 2209 
L 2766 2266 
Q 2766 2663 2505 2880 
Q 2244 3097 1772 3097 
Q 1472 3097 1187 3025 
Q 903 2953 641 2809 
L 641 3341 
Q 956 3463 1253 3523 
Q 1550 3584 1831 3584 
Q 2591 3584 2966 3190 
Q 3341 2797 3341 1997 
z
" transform="scale(0.015625)"/>
       <path id="DejaVuSans-6e" d="M 3513 2113 
L 3513 0 
L 2938 0 
L 2938 2094 
Q 2938 2591 2744 2837 
Q 2550 3084 2163 3084 
Q 1697 3084 1428 2787 
Q 1159 2491 1159 1978 
L 1159 0 
L 581 0 
L 581 3500 
L 1159 3500 
L 1159 2956 
Q 1366 3272 1645 3428 
Q 1925 3584 2291 3584 
Q 2894 3584 3203 3211 
Q 3513 2838 3513 2113 
z
" transform="scale(0.015625)"/>
       <path id="DejaVuSans-20" transform="scale(0.015625)"/>
       <path id="DejaVuSans-4c" d="M 628 4666 
L 1259 4666 
L 1259 531 
L 3531 531 
L 3531 0 
L 628 0 
L 628 4666 
z
" transform="scale(0.015625)"/>
      </defs>
      <use xlink:href="#DejaVuSans-45"/>
      <use xlink:href="#DejaVuSans-73" transform="translate(63.183594 0)"/>
      <use xlink:href="#DejaVuSans-74" transform="translate(115.283203 0)"/>
      <use xlink:href="#DejaVuSans-69" transform="translate(154.492188 0)"/>
      <use xlink:href="#DejaVuSans-6d" transform="translate(182.275391 0)"/>
      <use xlink:href="#DejaVuSans-61" transform="translate(279.6875 0)"/>
      <use xlink:href="#DejaVuSans-74" transform="translate(340.966797 0)"/>
      <use xlink:href="#DejaVuSans-69" transform="translate(380.175781 0)"/>
      <use xlink:href="#DejaVuSans-6f" transform="translate(407.958984 0)"/>
      <use xlink:href="#DejaVuSans-6e" transform="translate(469.140625 0)"/>
      <use xlink:href="#DejaVuSans-20" transform="translate(532.519531 0)"/>
      <use xlink:href="#DejaVuSans-4c" transform="translate(564.306641 0)"/>
      <use xlink:href="#DejaVuSans-6f" transform="translate(618.269531 0)"/>
      <use xlink:href="#DejaVuSans-73" transform="translate(679.451172 0)"/>
      <use xlink:href="#DejaVuSans-73" transform="translate(731.550781 0)"/>
     </g>
    </g>
   </g>
   <g id="line2d_13">
    <path d="M 115.363636 211.535164 
L 117.669421 282.496033 
L 119.975207 292.140487 
L 122.280992 296.249782 
L 124.586777 298.75604 
L 126.892562 300.389557 
L 133.809917 302.770107 
L 140.727273 303.590341 
L 143.033058 303.749392 
L 145.338843 304.08963 
L 152.256198 304.654678 
L 170.702479 305.477329 
L 184.53719 305.893791 
L 202.983471 306.253143 
L 209.900826 306.337296 
L 216.818182 306.41298 
L 235.264463 306.605127 
L 244.487603 306.736255 
L 253.710744 306.752659 
L 258.322314 306.792602 
L 267.545455 306.902208 
L 279.07438 306.947571 
L 283.68595 307.004498 
L 288.297521 307.007651 
L 295.214876 307.058207 
L 567.297521 307.757847 
L 594.966942 307.731932 
L 599.578512 307.777581 
L 622.636364 307.792644 
L 622.636364 307.792644 
" clip-path="url(#p0b971d9d47)" style="fill: none; stroke: #1f77b4; stroke-width: 1.5; stroke-linecap: square"/>
   </g>
   <g id="line2d_14">
    <path d="M 115.363636 213.466264 
L 117.669421 278.363924 
L 119.975207 287.774731 
L 122.280992 290.222332 
L 124.586777 292.995107 
L 126.892562 293.197872 
L 129.198347 294.009536 
L 131.504132 295.188054 
L 133.809917 294.550103 
L 138.421488 295.237417 
L 140.727273 295.466431 
L 143.033058 295.213663 
L 145.338843 296.1147 
L 147.644628 296.105362 
L 149.950413 297.031077 
L 152.256198 295.661845 
L 154.561983 295.75744 
L 156.867769 294.091888 
L 159.173554 292.943252 
L 161.479339 292.484344 
L 163.785124 293.012066 
L 166.090909 293.852902 
L 168.396694 293.598332 
L 170.702479 289.60876 
L 173.008264 291.283225 
L 175.31405 287.232994 
L 177.619835 286.62394 
L 179.92562 290.613178 
L 182.231405 289.623541 
L 184.53719 287.996343 
L 186.842975 284.115406 
L 189.14876 281.073118 
L 191.454545 286.431376 
L 193.760331 283.758974 
L 196.066116 279.557216 
L 198.371901 282.105347 
L 200.677686 277.805774 
L 202.983471 275.928639 
L 205.289256 277.372681 
L 207.595041 275.181747 
L 209.900826 281.323947 
L 212.206612 270.239799 
L 214.512397 266.704759 
L 216.818182 278.022398 
L 219.123967 275.048155 
L 221.429752 271.058484 
L 223.735537 271.374406 
L 226.041322 265.360258 
L 228.347107 271.548416 
L 230.652893 258.141473 
L 232.958678 254.421797 
L 235.264463 260.961074 
L 237.570248 258.49592 
L 239.876033 251.285149 
L 242.181818 249.479212 
L 244.487603 248.353601 
L 246.793388 248.0991 
L 249.099174 241.049893 
L 251.404959 252.828947 
L 253.710744 241.893008 
L 256.016529 245.333557 
L 258.322314 245.268746 
L 260.628099 245.63358 
L 262.933884 234.935633 
L 265.239669 234.260368 
L 267.545455 228.925885 
L 269.85124 226.694724 
L 272.157025 225.657845 
L 274.46281 221.776369 
L 276.768595 216.748718 
L 279.07438 215.579283 
L 281.380165 221.715818 
L 283.68595 213.934757 
L 285.991736 212.58503 
L 288.297521 212.61762 
L 290.603306 207.191751 
L 292.909091 206.01826 
L 295.214876 206.372067 
L 297.520661 202.180154 
L 299.826446 204.989963 
L 302.132231 201.713011 
L 304.438017 204.279529 
L 306.743802 197.398585 
L 309.049587 188.107512 
L 311.355372 188.038705 
L 313.661157 189.53069 
L 315.966942 187.129157 
L 318.272727 193.813627 
L 320.578512 201.106462 
L 322.884298 187.347936 
L 325.190083 180.801686 
L 329.801653 176.226664 
L 332.107438 185.849198 
L 334.413223 176.338164 
L 336.719008 185.523648 
L 339.024793 171.535603 
L 341.330579 180.060962 
L 343.636364 175.558701 
L 345.942149 169.093872 
L 348.247934 166.189186 
L 350.553719 175.153235 
L 352.859504 170.397464 
L 355.165289 160.405998 
L 357.471074 160.650565 
L 359.77686 157.723746 
L 362.082645 157.903487 
L 364.38843 160.48489 
L 366.694215 153.610719 
L 369 153.834904 
L 373.61157 150.666178 
L 375.917355 150.921566 
L 378.22314 145.769982 
L 380.528926 146.989106 
L 382.834711 142.771449 
L 385.140496 144.24544 
L 387.446281 142.203061 
L 389.752066 141.085506 
L 392.057851 137.086194 
L 394.363636 138.585889 
L 396.669421 135.40158 
L 398.975207 135.803399 
L 401.280992 135.985939 
L 403.586777 133.660445 
L 405.892562 132.447912 
L 408.198347 133.58072 
L 410.504132 145.642249 
L 412.809917 134.866018 
L 415.115702 127.053253 
L 419.727273 124.698865 
L 422.033058 124.293301 
L 424.338843 139.326428 
L 426.644628 126.851011 
L 428.950413 132.385691 
L 431.256198 123.53102 
L 433.561983 119.197803 
L 435.867769 119.577358 
L 438.173554 119.11339 
L 440.479339 116.79266 
L 442.785124 123.373989 
L 445.090909 114.242091 
L 447.396694 111.417495 
L 449.702479 112.051207 
L 452.008264 111.45499 
L 454.31405 111.799452 
L 456.619835 107.633823 
L 458.92562 109.678983 
L 461.231405 106.609137 
L 463.53719 106.883883 
L 465.842975 126.281662 
L 468.14876 127.334691 
L 470.454545 102.771029 
L 472.760331 101.992723 
L 475.066116 105.998743 
L 477.371901 100.220525 
L 479.677686 101.159258 
L 481.983471 111.738418 
L 484.289256 102.903563 
L 486.595041 98.149835 
L 488.900826 100.530391 
L 491.206612 95.8428 
L 493.512397 98.930637 
L 495.818182 93.450597 
L 498.123967 93.729215 
L 500.429752 93.552924 
L 502.735537 93.75849 
L 505.041322 94.790746 
L 507.347107 91.441774 
L 509.652893 88.957607 
L 511.958678 89.205815 
L 514.264463 88.535124 
L 516.570248 88.065699 
L 518.876033 86.567379 
L 521.181818 86.821537 
L 523.487603 85.700392 
L 525.793388 85.603355 
L 528.099174 85.789468 
L 530.404959 83.970106 
L 532.710744 101.949557 
L 535.016529 82.98846 
L 537.322314 84.089644 
L 539.628099 82.045415 
L 541.933884 82.179268 
L 544.239669 83.127458 
L 546.545455 80.845818 
L 548.85124 98.252015 
L 551.157025 80.676095 
L 553.46281 83.107129 
L 555.768595 77.566128 
L 558.07438 77.871223 
L 560.380165 77.360975 
L 562.68595 77.935746 
L 564.991736 77.359336 
L 567.297521 98.462717 
L 569.603306 77.42368 
L 571.909091 74.560633 
L 574.214876 73.207886 
L 576.520661 73.287577 
L 578.826446 75.117746 
L 581.132231 72.344351 
L 583.438017 71.339764 
L 585.743802 72.712827 
L 588.049587 70.479645 
L 590.355372 70.648351 
L 592.661157 69.936209 
L 594.966942 69.933327 
L 597.272727 72.783882 
L 599.578512 69.140585 
L 601.884298 68.830163 
L 604.190083 68.348659 
L 606.495868 74.799462 
L 608.801653 68.004261 
L 611.107438 67.045746 
L 613.413223 68.287564 
L 615.719008 66.568197 
L 618.024793 65.579287 
L 620.330579 65.619849 
L 622.636364 65.094133 
L 622.636364 65.094133 
" clip-path="url(#p0b971d9d47)" style="fill: none; stroke: #ff7f0e; stroke-width: 1.5; stroke-linecap: square"/>
   </g>
   <g id="line2d_15">
    <path d="M 115.363636 274.764721 
L 117.669421 289.718469 
L 119.975207 295.278654 
L 122.280992 297.277579 
L 124.586777 298.393364 
L 126.892562 299.686786 
L 131.504132 300.48033 
L 133.809917 301.284575 
L 138.421488 301.342222 
L 140.727273 301.122509 
L 143.033058 302.043915 
L 145.338843 302.102366 
L 147.644628 301.896188 
L 149.950413 301.962751 
L 152.256198 302.595006 
L 156.867769 302.857523 
L 159.173554 302.618212 
L 161.479339 303.036331 
L 163.785124 302.509764 
L 166.090909 302.512513 
L 168.396694 302.091531 
L 170.702479 302.750079 
L 173.008264 302.844267 
L 175.31405 303.292174 
L 177.619835 303.119663 
L 179.92562 303.380917 
L 182.231405 303.213165 
L 184.53719 303.453918 
L 186.842975 303.481264 
L 189.14876 303.257897 
L 191.454545 303.481425 
L 193.760331 303.379457 
L 196.066116 303.710306 
L 198.371901 303.374954 
L 200.677686 303.747502 
L 205.289256 303.779294 
L 207.595041 303.645385 
L 209.900826 303.798938 
L 212.206612 303.814779 
L 214.512397 303.961873 
L 216.818182 303.641905 
L 219.123967 304.000963 
L 221.429752 303.986892 
L 223.735537 303.795559 
L 226.041322 303.78909 
L 228.347107 304.037221 
L 230.652893 304.048366 
L 232.958678 303.883374 
L 235.264463 303.891491 
L 239.876033 303.685196 
L 242.181818 304.07334 
L 244.487603 303.812959 
L 246.793388 304.267232 
L 249.099174 304.045862 
L 251.404959 303.99842 
L 253.710744 304.258494 
L 256.016529 304.220793 
L 258.322314 304.298813 
L 260.628099 304.213025 
L 265.239669 304.263085 
L 267.545455 303.915937 
L 269.85124 304.218622 
L 272.157025 304.199492 
L 276.768595 303.974528 
L 279.07438 304.16806 
L 283.68595 304.09914 
L 285.991736 304.258027 
L 288.297521 304.235698 
L 290.603306 304.357376 
L 295.214876 304.314831 
L 297.520661 304.249336 
L 299.826446 304.323634 
L 302.132231 304.153668 
L 304.438017 304.304661 
L 306.743802 304.302613 
L 309.049587 304.513367 
L 313.661157 304.464924 
L 318.272727 304.517193 
L 320.578512 304.383194 
L 325.190083 304.545572 
L 327.495868 304.295686 
L 332.107438 304.377875 
L 334.413223 304.537928 
L 341.330579 304.558985 
L 343.636364 304.617682 
L 345.942149 304.511128 
L 350.553719 304.575512 
L 352.859504 304.493694 
L 357.471074 304.585992 
L 359.77686 304.484054 
L 362.082645 304.584313 
L 371.305785 304.45673 
L 373.61157 304.288731 
L 378.22314 304.466868 
L 380.528926 304.241986 
L 382.834711 304.605299 
L 401.280992 304.645147 
L 403.586777 304.154328 
L 405.892562 304.65394 
L 417.421488 304.693925 
L 428.950413 304.44309 
L 431.256198 304.707619 
L 435.867769 304.683056 
L 438.173554 304.779524 
L 447.396694 304.702099 
L 452.008264 304.616261 
L 454.31405 304.751262 
L 458.92562 304.619654 
L 463.53719 304.834047 
L 468.14876 304.615133 
L 470.454545 304.766714 
L 475.066116 304.654745 
L 477.371901 304.84091 
L 491.206612 304.698422 
L 493.512397 304.827403 
L 500.429752 304.748792 
L 505.041322 304.861805 
L 521.181818 304.79373 
L 528.099174 304.865628 
L 530.404959 304.620269 
L 532.710744 304.840437 
L 537.322314 304.860347 
L 546.545455 304.831666 
L 548.85124 304.651863 
L 553.46281 304.879467 
L 558.07438 304.791675 
L 564.991736 304.907092 
L 567.297521 304.740797 
L 569.603306 304.931255 
L 571.909091 304.934795 
L 574.214876 304.809573 
L 576.520661 304.913235 
L 578.826446 304.448248 
L 581.132231 304.877329 
L 588.049587 304.872924 
L 622.636364 304.960401 
L 622.636364 304.960401 
" clip-path="url(#p0b971d9d47)" style="fill: none; stroke: #2ca02c; stroke-width: 1.5; stroke-linecap: square"/>
   </g>
   <g id="line2d_16">
    <path d="M 115.363636 267.452932 
L 117.669421 286.995648 
L 119.975207 293.373666 
L 124.586777 294.861635 
L 126.892562 294.447985 
L 129.198347 297.295533 
L 131.504132 297.487389 
L 133.809917 295.193044 
L 136.115702 296.022675 
L 138.421488 298.119814 
L 140.727273 296.004702 
L 143.033058 294.266085 
L 145.338843 298.910185 
L 147.644628 300.710722 
L 149.950413 296.378784 
L 152.256198 292.312027 
L 154.561983 292.849458 
L 156.867769 295.025653 
L 159.173554 292.864584 
L 161.479339 287.435245 
L 163.785124 291.265079 
L 166.090909 293.706 
L 168.396694 288.881965 
L 170.702479 289.946912 
L 173.008264 289.229373 
L 175.31405 280.088007 
L 177.619835 297.795832 
L 179.92562 280.839566 
L 182.231405 282.122274 
L 184.53719 280.693462 
L 186.842975 279.004349 
L 189.14876 274.631736 
L 191.454545 283.926012 
L 193.760331 276.346634 
L 196.066116 278.671337 
L 198.371901 279.750994 
L 200.677686 268.997006 
L 202.983471 270.538912 
L 205.289256 278.247322 
L 207.595041 277.414679 
L 209.900826 274.064626 
L 212.206612 264.42619 
L 214.512397 259.483756 
L 216.818182 265.220017 
L 219.123967 276.246649 
L 221.429752 277.727571 
L 223.735537 269.218272 
L 226.041322 263.156248 
L 228.347107 258.910315 
L 230.652893 248.962962 
L 232.958678 248.563597 
L 235.264463 249.273094 
L 237.570248 246.096206 
L 239.876033 243.503028 
L 242.181818 243.74017 
L 244.487603 234.124083 
L 246.793388 236.588716 
L 249.099174 229.724901 
L 251.404959 230.928741 
L 253.710744 246.636599 
L 256.016529 253.368097 
L 258.322314 254.197265 
L 260.628099 234.612825 
L 262.933884 242.874891 
L 265.239669 225.552266 
L 267.545455 218.494081 
L 269.85124 229.014159 
L 272.157025 215.314725 
L 274.46281 207.818843 
L 276.768595 201.324686 
L 279.07438 216.540867 
L 281.380165 205.243723 
L 283.68595 209.250856 
L 285.991736 200.482274 
L 288.297521 221.677214 
L 290.603306 196.020748 
L 292.909091 190.951557 
L 295.214876 186.999413 
L 297.520661 191.167945 
L 299.826446 216.905263 
L 302.132231 181.458366 
L 304.438017 191.023123 
L 306.743802 179.243221 
L 309.049587 177.766992 
L 311.355372 184.990415 
L 313.661157 177.791339 
L 315.966942 174.532256 
L 318.272727 242.922657 
L 320.578512 174.83069 
L 322.884298 175.495307 
L 325.190083 171.380386 
L 327.495868 171.667944 
L 329.801653 168.029693 
L 332.107438 164.88075 
L 334.413223 165.804327 
L 336.719008 168.16411 
L 339.024793 153.127232 
L 341.330579 176.451072 
L 343.636364 194.112064 
L 345.942149 160.127069 
L 348.247934 164.322446 
L 350.553719 162.425905 
L 352.859504 151.638684 
L 355.165289 149.249634 
L 357.471074 151.855189 
L 362.082645 140.691772 
L 364.38843 152.355175 
L 366.694215 152.536246 
L 369 139.686167 
L 371.305785 141.565182 
L 373.61157 144.478466 
L 375.917355 132.927272 
L 378.22314 134.967947 
L 380.528926 137.929589 
L 382.834711 128.598925 
L 387.446281 133.356657 
L 389.752066 129.807838 
L 392.057851 128.602848 
L 394.363636 120.9042 
L 396.669421 125.166233 
L 398.975207 130.429964 
L 401.280992 127.571663 
L 403.586777 122.013488 
L 405.892562 131.110698 
L 408.198347 124.32436 
L 410.504132 121.472969 
L 412.809917 120.104382 
L 415.115702 120.023088 
L 417.421488 118.571523 
L 419.727273 123.181592 
L 422.033058 116.678026 
L 424.338843 118.313067 
L 426.644628 109.465867 
L 428.950413 102.688501 
L 431.256198 110.342917 
L 433.561983 111.415926 
L 435.867769 107.175842 
L 438.173554 116.390018 
L 440.479339 104.72315 
L 442.785124 103.534542 
L 445.090909 108.58023 
L 447.396694 98.730746 
L 449.702479 100.917709 
L 452.008264 99.816945 
L 454.31405 110.250548 
L 456.619835 101.752856 
L 458.92562 96.648397 
L 461.231405 101.358752 
L 463.53719 103.59215 
L 465.842975 121.470019 
L 468.14876 98.113686 
L 470.454545 96.716868 
L 472.760331 94.288867 
L 475.066116 87.396157 
L 477.371901 95.513705 
L 479.677686 88.006126 
L 481.983471 103.269264 
L 484.289256 90.983712 
L 486.595041 92.370834 
L 488.900826 94.525892 
L 491.206612 88.336253 
L 493.512397 89.034501 
L 495.818182 82.642112 
L 498.123967 83.150471 
L 500.429752 83.074324 
L 502.735537 87.602508 
L 505.041322 80.685377 
L 507.347107 85.588755 
L 509.652893 81.407876 
L 511.958678 84.682215 
L 514.264463 78.155659 
L 516.570248 81.758962 
L 518.876033 77.700291 
L 521.181818 74.772833 
L 523.487603 81.305096 
L 525.793388 78.480469 
L 528.099174 78.362906 
L 530.404959 75.803082 
L 532.710744 73.538757 
L 535.016529 73.374875 
L 537.322314 74.411079 
L 539.628099 77.623611 
L 541.933884 71.984114 
L 544.239669 75.900784 
L 546.545455 70.327973 
L 548.85124 77.828402 
L 551.157025 78.819416 
L 553.46281 71.422499 
L 555.768595 68.440607 
L 558.07438 71.760602 
L 560.380165 72.371502 
L 562.68595 69.48702 
L 564.991736 69.228567 
L 567.297521 67.02298 
L 569.603306 62.763202 
L 571.909091 64.57557 
L 574.214876 67.486295 
L 576.520661 68.807316 
L 578.826446 67.782158 
L 581.132231 63.236702 
L 583.438017 65.647049 
L 585.743802 65.543155 
L 588.049587 61.156972 
L 590.355372 77.456348 
L 592.661157 62.371984 
L 594.966942 60.81823 
L 597.272727 65.411683 
L 599.578512 61.864757 
L 601.884298 60.697192 
L 604.190083 62.079458 
L 606.495868 59.028341 
L 608.801653 59.466905 
L 611.107438 60.549089 
L 613.413223 57.653722 
L 615.719008 55.944922 
L 618.024793 57.243513 
L 620.330579 55.8 
L 622.636364 60.308482 
L 622.636364 60.308482 
" clip-path="url(#p0b971d9d47)" style="fill: none; stroke: #d62728; stroke-width: 1.5; stroke-linecap: square"/>
   </g>
   <g id="patch_3">
    <path d="M 90 320.4 
L 90 43.2 
" style="fill: none; stroke: #000000; stroke-width: 0.8; stroke-linejoin: miter; stroke-linecap: square"/>
   </g>
   <g id="patch_4">
    <path d="M 648 320.4 
L 648 43.2 
" style="fill: none; stroke: #000000; stroke-width: 0.8; stroke-linejoin: miter; stroke-linecap: square"/>
   </g>
   <g id="patch_5">
    <path d="M 90 320.4 
L 648 320.4 
" style="fill: none; stroke: #000000; stroke-width: 0.8; stroke-linejoin: miter; stroke-linecap: square"/>
   </g>
   <g id="patch_6">
    <path d="M 90 43.2 
L 648 43.2 
" style="fill: none; stroke: #000000; stroke-width: 0.8; stroke-linejoin: miter; stroke-linecap: square"/>
   </g>
   <g id="text_15">
    <!-- Training and Validating Estimation Loss -->
    <g transform="translate(251.535937 37.2) scale(0.12 -0.12)">
     <defs>
      <path id="DejaVuSans-54" d="M -19 4666 
L 3928 4666 
L 3928 4134 
L 2272 4134 
L 2272 0 
L 1638 0 
L 1638 4134 
L -19 4134 
L -19 4666 
z
" transform="scale(0.015625)"/>
      <path id="DejaVuSans-72" d="M 2631 2963 
Q 2534 3019 2420 3045 
Q 2306 3072 2169 3072 
Q 1681 3072 1420 2755 
Q 1159 2438 1159 1844 
L 1159 0 
L 581 0 
L 581 3500 
L 1159 3500 
L 1159 2956 
Q 1341 3275 1631 3429 
Q 1922 3584 2338 3584 
Q 2397 3584 2469 3576 
Q 2541 3569 2628 3553 
L 2631 2963 
z
" transform="scale(0.015625)"/>
      <path id="DejaVuSans-67" d="M 2906 1791 
Q 2906 2416 2648 2759 
Q 2391 3103 1925 3103 
Q 1463 3103 1205 2759 
Q 947 2416 947 1791 
Q 947 1169 1205 825 
Q 1463 481 1925 481 
Q 2391 481 2648 825 
Q 2906 1169 2906 1791 
z
M 3481 434 
Q 3481 -459 3084 -895 
Q 2688 -1331 1869 -1331 
Q 1566 -1331 1297 -1286 
Q 1028 -1241 775 -1147 
L 775 -588 
Q 1028 -725 1275 -790 
Q 1522 -856 1778 -856 
Q 2344 -856 2625 -561 
Q 2906 -266 2906 331 
L 2906 616 
Q 2728 306 2450 153 
Q 2172 0 1784 0 
Q 1141 0 747 490 
Q 353 981 353 1791 
Q 353 2603 747 3093 
Q 1141 3584 1784 3584 
Q 2172 3584 2450 3431 
Q 2728 3278 2906 2969 
L 2906 3500 
L 3481 3500 
L 3481 434 
z
" transform="scale(0.015625)"/>
      <path id="DejaVuSans-64" d="M 2906 2969 
L 2906 4863 
L 3481 4863 
L 3481 0 
L 2906 0 
L 2906 525 
Q 2725 213 2448 61 
Q 2172 -91 1784 -91 
Q 1150 -91 751 415 
Q 353 922 353 1747 
Q 353 2572 751 3078 
Q 1150 3584 1784 3584 
Q 2172 3584 2448 3432 
Q 2725 3281 2906 2969 
z
M 947 1747 
Q 947 1113 1208 752 
Q 1469 391 1925 391 
Q 2381 391 2643 752 
Q 2906 1113 2906 1747 
Q 2906 2381 2643 2742 
Q 2381 3103 1925 3103 
Q 1469 3103 1208 2742 
Q 947 2381 947 1747 
z
" transform="scale(0.015625)"/>
      <path id="DejaVuSans-56" d="M 1831 0 
L 50 4666 
L 709 4666 
L 2188 738 
L 3669 4666 
L 4325 4666 
L 2547 0 
L 1831 0 
z
" transform="scale(0.015625)"/>
      <path id="DejaVuSans-6c" d="M 603 4863 
L 1178 4863 
L 1178 0 
L 603 0 
L 603 4863 
z
" transform="scale(0.015625)"/>
     </defs>
     <use xlink:href="#DejaVuSans-54"/>
     <use xlink:href="#DejaVuSans-72" transform="translate(46.333984 0)"/>
     <use xlink:href="#DejaVuSans-61" transform="translate(87.447266 0)"/>
     <use xlink:href="#DejaVuSans-69" transform="translate(148.726562 0)"/>
     <use xlink:href="#DejaVuSans-6e" transform="translate(176.509766 0)"/>
     <use xlink:href="#DejaVuSans-69" transform="translate(239.888672 0)"/>
     <use xlink:href="#DejaVuSans-6e" transform="translate(267.671875 0)"/>
     <use xlink:href="#DejaVuSans-67" transform="translate(331.050781 0)"/>
     <use xlink:href="#DejaVuSans-20" transform="translate(394.527344 0)"/>
     <use xlink:href="#DejaVuSans-61" transform="translate(426.314453 0)"/>
     <use xlink:href="#DejaVuSans-6e" transform="translate(487.59375 0)"/>
     <use xlink:href="#DejaVuSans-64" transform="translate(550.972656 0)"/>
     <use xlink:href="#DejaVuSans-20" transform="translate(614.449219 0)"/>
     <use xlink:href="#DejaVuSans-56" transform="translate(646.236328 0)"/>
     <use xlink:href="#DejaVuSans-61" transform="translate(706.894531 0)"/>
     <use xlink:href="#DejaVuSans-6c" transform="translate(768.173828 0)"/>
     <use xlink:href="#DejaVuSans-69" transform="translate(795.957031 0)"/>
     <use xlink:href="#DejaVuSans-64" transform="translate(823.740234 0)"/>
     <use xlink:href="#DejaVuSans-61" transform="translate(887.216797 0)"/>
     <use xlink:href="#DejaVuSans-74" transform="translate(948.496094 0)"/>
     <use xlink:href="#DejaVuSans-69" transform="translate(987.705078 0)"/>
     <use xlink:href="#DejaVuSans-6e" transform="translate(1015.488281 0)"/>
     <use xlink:href="#DejaVuSans-67" transform="translate(1078.867188 0)"/>
     <use xlink:href="#DejaVuSans-20" transform="translate(1142.34375 0)"/>
     <use xlink:href="#DejaVuSans-45" transform="translate(1174.130859 0)"/>
     <use xlink:href="#DejaVuSans-73" transform="translate(1237.314453 0)"/>
     <use xlink:href="#DejaVuSans-74" transform="translate(1289.414062 0)"/>
     <use xlink:href="#DejaVuSans-69" transform="translate(1328.623047 0)"/>
     <use xlink:href="#DejaVuSans-6d" transform="translate(1356.40625 0)"/>
     <use xlink:href="#DejaVuSans-61" transform="translate(1453.818359 0)"/>
     <use xlink:href="#DejaVuSans-74" transform="translate(1515.097656 0)"/>
     <use xlink:href="#DejaVuSans-69" transform="translate(1554.306641 0)"/>
     <use xlink:href="#DejaVuSans-6f" transform="translate(1582.089844 0)"/>
     <use xlink:href="#DejaVuSans-6e" transform="translate(1643.271484 0)"/>
     <use xlink:href="#DejaVuSans-20" transform="translate(1706.650391 0)"/>
     <use xlink:href="#DejaVuSans-4c" transform="translate(1738.4375 0)"/>
     <use xlink:href="#DejaVuSans-6f" transform="translate(1792.400391 0)"/>
     <use xlink:href="#DejaVuSans-73" transform="translate(1853.582031 0)"/>
     <use xlink:href="#DejaVuSans-73" transform="translate(1905.681641 0)"/>
    </g>
   </g>
   <g id="legend_1">
    <g id="patch_7">
     <path d="M 97 109.9125 
L 216.560938 109.9125 
Q 218.560938 109.9125 218.560938 107.9125 
L 218.560938 50.2 
Q 218.560938 48.2 216.560938 48.2 
L 97 48.2 
Q 95 48.2 95 50.2 
L 95 107.9125 
Q 95 109.9125 97 109.9125 
z
" style="fill: #ffffff; opacity: 0.8; stroke: #cccccc; stroke-linejoin: miter"/>
    </g>
    <g id="line2d_17">
     <path d="M 99 56.298437 
L 109 56.298437 
L 119 56.298437 
" style="fill: none; stroke: #1f77b4; stroke-width: 1.5; stroke-linecap: square"/>
    </g>
    <g id="text_16">
     <!-- Training-Source -->
     <g transform="translate(127 59.798437) scale(0.1 -0.1)">
      <defs>
       <path id="DejaVuSans-2d" d="M 313 2009 
L 1997 2009 
L 1997 1497 
L 313 1497 
L 313 2009 
z
" transform="scale(0.015625)"/>
       <path id="DejaVuSans-53" d="M 3425 4513 
L 3425 3897 
Q 3066 4069 2747 4153 
Q 2428 4238 2131 4238 
Q 1616 4238 1336 4038 
Q 1056 3838 1056 3469 
Q 1056 3159 1242 3001 
Q 1428 2844 1947 2747 
L 2328 2669 
Q 3034 2534 3370 2195 
Q 3706 1856 3706 1288 
Q 3706 609 3251 259 
Q 2797 -91 1919 -91 
Q 1588 -91 1214 -16 
Q 841 59 441 206 
L 441 856 
Q 825 641 1194 531 
Q 1563 422 1919 422 
Q 2459 422 2753 634 
Q 3047 847 3047 1241 
Q 3047 1584 2836 1778 
Q 2625 1972 2144 2069 
L 1759 2144 
Q 1053 2284 737 2584 
Q 422 2884 422 3419 
Q 422 4038 858 4394 
Q 1294 4750 2059 4750 
Q 2388 4750 2728 4690 
Q 3069 4631 3425 4513 
z
" transform="scale(0.015625)"/>
       <path id="DejaVuSans-75" d="M 544 1381 
L 544 3500 
L 1119 3500 
L 1119 1403 
Q 1119 906 1312 657 
Q 1506 409 1894 409 
Q 2359 409 2629 706 
Q 2900 1003 2900 1516 
L 2900 3500 
L 3475 3500 
L 3475 0 
L 2900 0 
L 2900 538 
Q 2691 219 2414 64 
Q 2138 -91 1772 -91 
Q 1169 -91 856 284 
Q 544 659 544 1381 
z
M 1991 3584 
L 1991 3584 
z
" transform="scale(0.015625)"/>
       <path id="DejaVuSans-65" d="M 3597 1894 
L 3597 1613 
L 953 1613 
Q 991 1019 1311 708 
Q 1631 397 2203 397 
Q 2534 397 2845 478 
Q 3156 559 3463 722 
L 3463 178 
Q 3153 47 2828 -22 
Q 2503 -91 2169 -91 
Q 1331 -91 842 396 
Q 353 884 353 1716 
Q 353 2575 817 3079 
Q 1281 3584 2069 3584 
Q 2775 3584 3186 3129 
Q 3597 2675 3597 1894 
z
M 3022 2063 
Q 3016 2534 2758 2815 
Q 2500 3097 2075 3097 
Q 1594 3097 1305 2825 
Q 1016 2553 972 2059 
L 3022 2063 
z
" transform="scale(0.015625)"/>
      </defs>
      <use xlink:href="#DejaVuSans-54"/>
      <use xlink:href="#DejaVuSans-72" transform="translate(46.333984 0)"/>
      <use xlink:href="#DejaVuSans-61" transform="translate(87.447266 0)"/>
      <use xlink:href="#DejaVuSans-69" transform="translate(148.726562 0)"/>
      <use xlink:href="#DejaVuSans-6e" transform="translate(176.509766 0)"/>
      <use xlink:href="#DejaVuSans-69" transform="translate(239.888672 0)"/>
      <use xlink:href="#DejaVuSans-6e" transform="translate(267.671875 0)"/>
      <use xlink:href="#DejaVuSans-67" transform="translate(331.050781 0)"/>
      <use xlink:href="#DejaVuSans-2d" transform="translate(394.527344 0)"/>
      <use xlink:href="#DejaVuSans-53" transform="translate(430.611328 0)"/>
      <use xlink:href="#DejaVuSans-6f" transform="translate(494.087891 0)"/>
      <use xlink:href="#DejaVuSans-75" transform="translate(555.269531 0)"/>
      <use xlink:href="#DejaVuSans-72" transform="translate(618.648438 0)"/>
      <use xlink:href="#DejaVuSans-63" transform="translate(657.511719 0)"/>
      <use xlink:href="#DejaVuSans-65" transform="translate(712.492188 0)"/>
     </g>
    </g>
    <g id="line2d_18">
     <path d="M 99 70.976562 
L 109 70.976562 
L 119 70.976562 
" style="fill: none; stroke: #ff7f0e; stroke-width: 1.5; stroke-linecap: square"/>
    </g>
    <g id="text_17">
     <!-- Training-Target -->
     <g transform="translate(127 74.476562) scale(0.1 -0.1)">
      <use xlink:href="#DejaVuSans-54"/>
      <use xlink:href="#DejaVuSans-72" transform="translate(46.333984 0)"/>
      <use xlink:href="#DejaVuSans-61" transform="translate(87.447266 0)"/>
      <use xlink:href="#DejaVuSans-69" transform="translate(148.726562 0)"/>
      <use xlink:href="#DejaVuSans-6e" transform="translate(176.509766 0)"/>
      <use xlink:href="#DejaVuSans-69" transform="translate(239.888672 0)"/>
      <use xlink:href="#DejaVuSans-6e" transform="translate(267.671875 0)"/>
      <use xlink:href="#DejaVuSans-67" transform="translate(331.050781 0)"/>
      <use xlink:href="#DejaVuSans-2d" transform="translate(394.527344 0)"/>
      <use xlink:href="#DejaVuSans-54" transform="translate(421.486328 0)"/>
      <use xlink:href="#DejaVuSans-61" transform="translate(466.070312 0)"/>
      <use xlink:href="#DejaVuSans-72" transform="translate(527.349609 0)"/>
      <use xlink:href="#DejaVuSans-67" transform="translate(566.712891 0)"/>
      <use xlink:href="#DejaVuSans-65" transform="translate(630.189453 0)"/>
      <use xlink:href="#DejaVuSans-74" transform="translate(691.712891 0)"/>
     </g>
    </g>
    <g id="line2d_19">
     <path d="M 99 85.654687 
L 109 85.654687 
L 119 85.654687 
" style="fill: none; stroke: #2ca02c; stroke-width: 1.5; stroke-linecap: square"/>
    </g>
    <g id="text_18">
     <!-- Validating-Source -->
     <g transform="translate(127 89.154687) scale(0.1 -0.1)">
      <use xlink:href="#DejaVuSans-56"/>
      <use xlink:href="#DejaVuSans-61" transform="translate(60.658203 0)"/>
      <use xlink:href="#DejaVuSans-6c" transform="translate(121.9375 0)"/>
      <use xlink:href="#DejaVuSans-69" transform="translate(149.720703 0)"/>
      <use xlink:href="#DejaVuSans-64" transform="translate(177.503906 0)"/>
      <use xlink:href="#DejaVuSans-61" transform="translate(240.980469 0)"/>
      <use xlink:href="#DejaVuSans-74" transform="translate(302.259766 0)"/>
      <use xlink:href="#DejaVuSans-69" transform="translate(341.46875 0)"/>
      <use xlink:href="#DejaVuSans-6e" transform="translate(369.251953 0)"/>
      <use xlink:href="#DejaVuSans-67" transform="translate(432.630859 0)"/>
      <use xlink:href="#DejaVuSans-2d" transform="translate(496.107422 0)"/>
      <use xlink:href="#DejaVuSans-53" transform="translate(532.191406 0)"/>
      <use xlink:href="#DejaVuSans-6f" transform="translate(595.667969 0)"/>
      <use xlink:href="#DejaVuSans-75" transform="translate(656.849609 0)"/>
      <use xlink:href="#DejaVuSans-72" transform="translate(720.228516 0)"/>
      <use xlink:href="#DejaVuSans-63" transform="translate(759.091797 0)"/>
      <use xlink:href="#DejaVuSans-65" transform="translate(814.072266 0)"/>
     </g>
    </g>
    <g id="line2d_20">
     <path d="M 99 100.332812 
L 109 100.332812 
L 119 100.332812 
" style="fill: none; stroke: #d62728; stroke-width: 1.5; stroke-linecap: square"/>
    </g>
    <g id="text_19">
     <!-- Validating-Target -->
     <g transform="translate(127 103.832812) scale(0.1 -0.1)">
      <use xlink:href="#DejaVuSans-56"/>
      <use xlink:href="#DejaVuSans-61" transform="translate(60.658203 0)"/>
      <use xlink:href="#DejaVuSans-6c" transform="translate(121.9375 0)"/>
      <use xlink:href="#DejaVuSans-69" transform="translate(149.720703 0)"/>
      <use xlink:href="#DejaVuSans-64" transform="translate(177.503906 0)"/>
      <use xlink:href="#DejaVuSans-61" transform="translate(240.980469 0)"/>
      <use xlink:href="#DejaVuSans-74" transform="translate(302.259766 0)"/>
      <use xlink:href="#DejaVuSans-69" transform="translate(341.46875 0)"/>
      <use xlink:href="#DejaVuSans-6e" transform="translate(369.251953 0)"/>
      <use xlink:href="#DejaVuSans-67" transform="translate(432.630859 0)"/>
      <use xlink:href="#DejaVuSans-2d" transform="translate(496.107422 0)"/>
      <use xlink:href="#DejaVuSans-54" transform="translate(523.066406 0)"/>
      <use xlink:href="#DejaVuSans-61" transform="translate(567.650391 0)"/>
      <use xlink:href="#DejaVuSans-72" transform="translate(628.929688 0)"/>
      <use xlink:href="#DejaVuSans-67" transform="translate(668.292969 0)"/>
      <use xlink:href="#DejaVuSans-65" transform="translate(731.769531 0)"/>
      <use xlink:href="#DejaVuSans-74" transform="translate(793.292969 0)"/>
     </g>
    </g>
   </g>
  </g>
 </g>
 <defs>
  <clipPath id="p0b971d9d47">
   <rect x="90" y="43.2" width="558" height="277.2"/>
  </clipPath>
 </defs>
</svg>
