<?xml version="1.0" encoding="utf-8" standalone="no"?>
<!DOCTYPE svg PUBLIC "-//W3C//DTD SVG 1.1//EN"
  "http://www.w3.org/Graphics/SVG/1.1/DTD/svg11.dtd">
<svg xmlns:xlink="http://www.w3.org/1999/xlink" width="720pt" height="360pt" viewBox="0 0 720 360" xmlns="http://www.w3.org/2000/svg" version="1.1">
 <metadata>
  <rdf:RDF xmlns:dc="http://purl.org/dc/elements/1.1/" xmlns:cc="http://creativecommons.org/ns#" xmlns:rdf="http://www.w3.org/1999/02/22-rdf-syntax-ns#">
   <cc:Work>
    <dc:type rdf:resource="http://purl.org/dc/dcmitype/StillImage"/>
    <dc:date>2025-11-18T00:53:39.488353</dc:date>
    <dc:format>image/svg+xml</dc:format>
    <dc:creator>
     <cc:Agent>
      <dc:title>Matplotlib v3.10.1, https://matplotlib.org/</dc:title>
     </cc:Agent>
    </dc:creator>
   </cc:Work>
  </rdf:RDF>
 </metadata>
 <defs>
  <style type="text/css">*{stroke-linejoin: round; stroke-linecap: butt}</style>
 </defs>
 <g id="figure_1">
  <g id="patch_1">
   <path d="M 0 360 
L 720 360 
L 720 0 
L 0 0 
z
" style="fill: #ffffff"/>
  </g>
  <g id="axes_1">
   <g id="patch_2">
    <path d="M 90 320.4 
L 648 320.4 
L 648 43.2 
L 90 43.2 
z
" style="fill: #ffffff"/>
   </g>
   <g id="matplotlib.axis_1">
    <g id="xtick_1">
     <g id="line2d_1">
      <defs>
       <path id="m937356e30d" d="M 0 0 
L 0 3.5 
" style="stroke: #000000; stroke-width: 0.8"/>
      </defs>
      <g>
       <use xlink:href="#m937356e30d" x="115.363636" y="320.4" style="stroke: #000000; stroke-width: 0.8"/>
      </g>
     </g>
     <g id="text_1">
      <!-- 0 -->
      <g transform="translate(112.182386 334.998438) scale(0.1 -0.1)">
       <defs>
        <path id="DejaVuSans-30" d="M 2034 4250 
Q 1547 4250 1301 3770 
Q 1056 3291 1056 2328 
Q 1056 1369 1301 889 
Q 1547 409 2034 409 
Q 2525 409 2770 889 
Q 3016 1369 3016 2328 
Q 3016 3291 2770 3770 
Q 2525 4250 2034 4250 
z
M 2034 4750 
Q 2819 4750 3233 4129 
Q 3647 3509 3647 2328 
Q 3647 1150 3233 529 
Q 2819 -91 2034 -91 
Q 1250 -91 836 529 
Q 422 1150 422 2328 
Q 422 3509 836 4129 
Q 1250 4750 2034 4750 
z
" transform="scale(0.015625)"/>
       </defs>
       <use xlink:href="#DejaVuSans-30"/>
      </g>
     </g>
    </g>
    <g id="xtick_2">
     <g id="line2d_2">
      <g>
       <use xlink:href="#m937356e30d" x="217.157495" y="320.4" style="stroke: #000000; stroke-width: 0.8"/>
      </g>
     </g>
     <g id="text_2">
      <!-- 60 -->
      <g transform="translate(210.794995 334.998438) scale(0.1 -0.1)">
       <defs>
        <path id="DejaVuSans-36" d="M 2113 2584 
Q 1688 2584 1439 2293 
Q 1191 2003 1191 1497 
Q 1191 994 1439 701 
Q 1688 409 2113 409 
Q 2538 409 2786 701 
Q 3034 994 3034 1497 
Q 3034 2003 2786 2293 
Q 2538 2584 2113 2584 
z
M 3366 4563 
L 3366 3988 
Q 3128 4100 2886 4159 
Q 2644 4219 2406 4219 
Q 1781 4219 1451 3797 
Q 1122 3375 1075 2522 
Q 1259 2794 1537 2939 
Q 1816 3084 2150 3084 
Q 2853 3084 3261 2657 
Q 3669 2231 3669 1497 
Q 3669 778 3244 343 
Q 2819 -91 2113 -91 
Q 1303 -91 875 529 
Q 447 1150 447 2328 
Q 447 3434 972 4092 
Q 1497 4750 2381 4750 
Q 2619 4750 2861 4703 
Q 3103 4656 3366 4563 
z
" transform="scale(0.015625)"/>
       </defs>
       <use xlink:href="#DejaVuSans-36"/>
       <use xlink:href="#DejaVuSans-30" transform="translate(63.623047 0)"/>
      </g>
     </g>
    </g>
    <g id="xtick_3">
     <g id="line2d_3">
      <g>
       <use xlink:href="#m937356e30d" x="318.951353" y="320.4" style="stroke: #000000; stroke-width: 0.8"/>
      </g>
     </g>
     <g id="text_3">
      <!-- 120 -->
      <g transform="translate(309.407603 334.998438) scale(0.1 -0.1)">
       <defs>
        <path id="DejaVuSans-31" d="M 794 531 
L 1825 531 
L 1825 4091 
L 703 3866 
L 703 4441 
L 1819 4666 
L 2450 4666 
L 2450 531 
L 3481 531 
L 3481 0 
L 794 0 
L 794 531 
z
" transform="scale(0.015625)"/>
        <path id="DejaVuSans-32" d="M 1228 531 
L 3431 531 
L 3431 0 
L 469 0 
L 469 531 
Q 828 903 1448 1529 
Q 2069 2156 2228 2338 
Q 2531 2678 2651 2914 
Q 2772 3150 2772 3378 
Q 2772 3750 2511 3984 
Q 2250 4219 1831 4219 
Q 1534 4219 1204 4116 
Q 875 4013 500 3803 
L 500 4441 
Q 881 4594 1212 4672 
Q 1544 4750 1819 4750 
Q 2544 4750 2975 4387 
Q 3406 4025 3406 3419 
Q 3406 3131 3298 2873 
Q 3191 2616 2906 2266 
Q 2828 2175 2409 1742 
Q 1991 1309 1228 531 
z
" transform="scale(0.015625)"/>
       </defs>
       <use xlink:href="#DejaVuSans-31"/>
       <use xlink:href="#DejaVuSans-32" transform="translate(63.623047 0)"/>
       <use xlink:href="#DejaVuSans-30" transform="translate(127.246094 0)"/>
      </g>
     </g>
    </g>
    <g id="xtick_4">
     <g id="line2d_4">
      <g>
       <use xlink:href="#m937356e30d" x="420.745211" y="320.4" style="stroke: #000000; stroke-width: 0.8"/>
      </g>
     </g>
     <g id="text_4">
      <!-- 180 -->
      <g transform="translate(411.201461 334.998438) scale(0.1 -0.1)">
       <defs>
        <path id="DejaVuSans-38" d="M 2034 2216 
Q 1584 2216 1326 1975 
Q 1069 1734 1069 1313 
Q 1069 891 1326 650 
Q 1584 409 2034 409 
Q 2484 409 2743 651 
Q 3003 894 3003 1313 
Q 3003 1734 2745 1975 
Q 2488 2216 2034 2216 
z
M 1403 2484 
Q 997 2584 770 2862 
Q 544 3141 544 3541 
Q 544 4100 942 4425 
Q 1341 4750 2034 4750 
Q 2731 4750 3128 4425 
Q 3525 4100 3525 3541 
Q 3525 3141 3298 2862 
Q 3072 2584 2669 2484 
Q 3125 2378 3379 2068 
Q 3634 1759 3634 1313 
Q 3634 634 3220 271 
Q 2806 -91 2034 -91 
Q 1263 -91 848 271 
Q 434 634 434 1313 
Q 434 1759 690 2068 
Q 947 2378 1403 2484 
z
M 1172 3481 
Q 1172 3119 1398 2916 
Q 1625 2713 2034 2713 
Q 2441 2713 2670 2916 
Q 2900 3119 2900 3481 
Q 2900 3844 2670 4047 
Q 2441 4250 2034 4250 
Q 1625 4250 1398 4047 
Q 1172 3844 1172 3481 
z
" transform="scale(0.015625)"/>
       </defs>
       <use xlink:href="#DejaVuSans-31"/>
       <use xlink:href="#DejaVuSans-38" transform="translate(63.623047 0)"/>
       <use xlink:href="#DejaVuSans-30" transform="translate(127.246094 0)"/>
      </g>
     </g>
    </g>
    <g id="xtick_5">
     <g id="line2d_5">
      <g>
       <use xlink:href="#m937356e30d" x="522.53907" y="320.4" style="stroke: #000000; stroke-width: 0.8"/>
      </g>
     </g>
     <g id="text_5">
      <!-- 240 -->
      <g transform="translate(512.99532 334.998438) scale(0.1 -0.1)">
       <defs>
        <path id="DejaVuSans-34" d="M 2419 4116 
L 825 1625 
L 2419 1625 
L 2419 4116 
z
M 2253 4666 
L 3047 4666 
L 3047 1625 
L 3713 1625 
L 3713 1100 
L 3047 1100 
L 3047 0 
L 2419 0 
L 2419 1100 
L 313 1100 
L 313 1709 
L 2253 4666 
z
" transform="scale(0.015625)"/>
       </defs>
       <use xlink:href="#DejaVuSans-32"/>
       <use xlink:href="#DejaVuSans-34" transform="translate(63.623047 0)"/>
       <use xlink:href="#DejaVuSans-30" transform="translate(127.246094 0)"/>
      </g>
     </g>
    </g>
    <g id="text_6">
     <!-- Epoch -->
     <g transform="translate(353.689062 348.676562) scale(0.1 -0.1)">
      <defs>
       <path id="DejaVuSans-45" d="M 628 4666 
L 3578 4666 
L 3578 4134 
L 1259 4134 
L 1259 2753 
L 3481 2753 
L 3481 2222 
L 1259 2222 
L 1259 531 
L 3634 531 
L 3634 0 
L 628 0 
L 628 4666 
z
" transform="scale(0.015625)"/>
       <path id="DejaVuSans-70" d="M 1159 525 
L 1159 -1331 
L 581 -1331 
L 581 3500 
L 1159 3500 
L 1159 2969 
Q 1341 3281 1617 3432 
Q 1894 3584 2278 3584 
Q 2916 3584 3314 3078 
Q 3713 2572 3713 1747 
Q 3713 922 3314 415 
Q 2916 -91 2278 -91 
Q 1894 -91 1617 61 
Q 1341 213 1159 525 
z
M 3116 1747 
Q 3116 2381 2855 2742 
Q 2594 3103 2138 3103 
Q 1681 3103 1420 2742 
Q 1159 2381 1159 1747 
Q 1159 1113 1420 752 
Q 1681 391 2138 391 
Q 2594 391 2855 752 
Q 3116 1113 3116 1747 
z
" transform="scale(0.015625)"/>
       <path id="DejaVuSans-6f" d="M 1959 3097 
Q 1497 3097 1228 2736 
Q 959 2375 959 1747 
Q 959 1119 1226 758 
Q 1494 397 1959 397 
Q 2419 397 2687 759 
Q 2956 1122 2956 1747 
Q 2956 2369 2687 2733 
Q 2419 3097 1959 3097 
z
M 1959 3584 
Q 2709 3584 3137 3096 
Q 3566 2609 3566 1747 
Q 3566 888 3137 398 
Q 2709 -91 1959 -91 
Q 1206 -91 779 398 
Q 353 888 353 1747 
Q 353 2609 779 3096 
Q 1206 3584 1959 3584 
z
" transform="scale(0.015625)"/>
       <path id="DejaVuSans-63" d="M 3122 3366 
L 3122 2828 
Q 2878 2963 2633 3030 
Q 2388 3097 2138 3097 
Q 1578 3097 1268 2742 
Q 959 2388 959 1747 
Q 959 1106 1268 751 
Q 1578 397 2138 397 
Q 2388 397 2633 464 
Q 2878 531 3122 666 
L 3122 134 
Q 2881 22 2623 -34 
Q 2366 -91 2075 -91 
Q 1284 -91 818 406 
Q 353 903 353 1747 
Q 353 2603 823 3093 
Q 1294 3584 2113 3584 
Q 2378 3584 2631 3529 
Q 2884 3475 3122 3366 
z
" transform="scale(0.015625)"/>
       <path id="DejaVuSans-68" d="M 3513 2113 
L 3513 0 
L 2938 0 
L 2938 2094 
Q 2938 2591 2744 2837 
Q 2550 3084 2163 3084 
Q 1697 3084 1428 2787 
Q 1159 2491 1159 1978 
L 1159 0 
L 581 0 
L 581 4863 
L 1159 4863 
L 1159 2956 
Q 1366 3272 1645 3428 
Q 1925 3584 2291 3584 
Q 2894 3584 3203 3211 
Q 3513 2838 3513 2113 
z
" transform="scale(0.015625)"/>
      </defs>
      <use xlink:href="#DejaVuSans-45"/>
      <use xlink:href="#DejaVuSans-70" transform="translate(63.183594 0)"/>
      <use xlink:href="#DejaVuSans-6f" transform="translate(126.660156 0)"/>
      <use xlink:href="#DejaVuSans-63" transform="translate(187.841797 0)"/>
      <use xlink:href="#DejaVuSans-68" transform="translate(242.822266 0)"/>
     </g>
    </g>
   </g>
   <g id="matplotlib.axis_2">
    <g id="ytick_1">
     <g id="line2d_6">
      <defs>
       <path id="m2a24bccc18" d="M 0 0 
L -3.5 0 
" style="stroke: #000000; stroke-width: 0.8"/>
      </defs>
      <g>
       <use xlink:href="#m2a24bccc18" x="90" y="309.279078" style="stroke: #000000; stroke-width: 0.8"/>
      </g>
     </g>
     <g id="text_7">
      <!-- 0.00 -->
      <g transform="translate(60.734375 313.078296) scale(0.1 -0.1)">
       <defs>
        <path id="DejaVuSans-2e" d="M 684 794 
L 1344 794 
L 1344 0 
L 684 0 
L 684 794 
z
" transform="scale(0.015625)"/>
       </defs>
       <use xlink:href="#DejaVuSans-30"/>
       <use xlink:href="#DejaVuSans-2e" transform="translate(63.623047 0)"/>
       <use xlink:href="#DejaVuSans-30" transform="translate(95.410156 0)"/>
       <use xlink:href="#DejaVuSans-30" transform="translate(159.033203 0)"/>
      </g>
     </g>
    </g>
    <g id="ytick_2">
     <g id="line2d_7">
      <g>
       <use xlink:href="#m2a24bccc18" x="90" y="263.107002" style="stroke: #000000; stroke-width: 0.8"/>
      </g>
     </g>
     <g id="text_8">
      <!-- 0.05 -->
      <g transform="translate(60.734375 266.906221) scale(0.1 -0.1)">
       <defs>
        <path id="DejaVuSans-35" d="M 691 4666 
L 3169 4666 
L 3169 4134 
L 1269 4134 
L 1269 2991 
Q 1406 3038 1543 3061 
Q 1681 3084 1819 3084 
Q 2600 3084 3056 2656 
Q 3513 2228 3513 1497 
Q 3513 744 3044 326 
Q 2575 -91 1722 -91 
Q 1428 -91 1123 -41 
Q 819 9 494 109 
L 494 744 
Q 775 591 1075 516 
Q 1375 441 1709 441 
Q 2250 441 2565 725 
Q 2881 1009 2881 1497 
Q 2881 1984 2565 2268 
Q 2250 2553 1709 2553 
Q 1456 2553 1204 2497 
Q 953 2441 691 2322 
L 691 4666 
z
" transform="scale(0.015625)"/>
       </defs>
       <use xlink:href="#DejaVuSans-30"/>
       <use xlink:href="#DejaVuSans-2e" transform="translate(63.623047 0)"/>
       <use xlink:href="#DejaVuSans-30" transform="translate(95.410156 0)"/>
       <use xlink:href="#DejaVuSans-35" transform="translate(159.033203 0)"/>
      </g>
     </g>
    </g>
    <g id="ytick_3">
     <g id="line2d_8">
      <g>
       <use xlink:href="#m2a24bccc18" x="90" y="216.934927" style="stroke: #000000; stroke-width: 0.8"/>
      </g>
     </g>
     <g id="text_9">
      <!-- 0.10 -->
      <g transform="translate(60.734375 220.734146) scale(0.1 -0.1)">
       <use xlink:href="#DejaVuSans-30"/>
       <use xlink:href="#DejaVuSans-2e" transform="translate(63.623047 0)"/>
       <use xlink:href="#DejaVuSans-31" transform="translate(95.410156 0)"/>
       <use xlink:href="#DejaVuSans-30" transform="translate(159.033203 0)"/>
      </g>
     </g>
    </g>
    <g id="ytick_4">
     <g id="line2d_9">
      <g>
       <use xlink:href="#m2a24bccc18" x="90" y="170.762852" style="stroke: #000000; stroke-width: 0.8"/>
      </g>
     </g>
     <g id="text_10">
      <!-- 0.15 -->
      <g transform="translate(60.734375 174.562071) scale(0.1 -0.1)">
       <use xlink:href="#DejaVuSans-30"/>
       <use xlink:href="#DejaVuSans-2e" transform="translate(63.623047 0)"/>
       <use xlink:href="#DejaVuSans-31" transform="translate(95.410156 0)"/>
       <use xlink:href="#DejaVuSans-35" transform="translate(159.033203 0)"/>
      </g>
     </g>
    </g>
    <g id="ytick_5">
     <g id="line2d_10">
      <g>
       <use xlink:href="#m2a24bccc18" x="90" y="124.590777" style="stroke: #000000; stroke-width: 0.8"/>
      </g>
     </g>
     <g id="text_11">
      <!-- 0.20 -->
      <g transform="translate(60.734375 128.389995) scale(0.1 -0.1)">
       <use xlink:href="#DejaVuSans-30"/>
       <use xlink:href="#DejaVuSans-2e" transform="translate(63.623047 0)"/>
       <use xlink:href="#DejaVuSans-32" transform="translate(95.410156 0)"/>
       <use xlink:href="#DejaVuSans-30" transform="translate(159.033203 0)"/>
      </g>
     </g>
    </g>
    <g id="ytick_6">
     <g id="line2d_11">
      <g>
       <use xlink:href="#m2a24bccc18" x="90" y="78.418701" style="stroke: #000000; stroke-width: 0.8"/>
      </g>
     </g>
     <g id="text_12">
      <!-- 0.25 -->
      <g transform="translate(60.734375 82.21792) scale(0.1 -0.1)">
       <use xlink:href="#DejaVuSans-30"/>
       <use xlink:href="#DejaVuSans-2e" transform="translate(63.623047 0)"/>
       <use xlink:href="#DejaVuSans-32" transform="translate(95.410156 0)"/>
       <use xlink:href="#DejaVuSans-35" transform="translate(159.033203 0)"/>
      </g>
     </g>
    </g>
    <g id="text_13">
     <!-- Estimation Loss -->
     <g transform="translate(54.654687 220.98125) rotate(-90) scale(0.1 -0.1)">
      <defs>
       <path id="DejaVuSans-73" d="M 2834 3397 
L 2834 2853 
Q 2591 2978 2328 3040 
Q 2066 3103 1784 3103 
Q 1356 3103 1142 2972 
Q 928 2841 928 2578 
Q 928 2378 1081 2264 
Q 1234 2150 1697 2047 
L 1894 2003 
Q 2506 1872 2764 1633 
Q 3022 1394 3022 966 
Q 3022 478 2636 193 
Q 2250 -91 1575 -91 
Q 1294 -91 989 -36 
Q 684 19 347 128 
L 347 722 
Q 666 556 975 473 
Q 1284 391 1588 391 
Q 1994 391 2212 530 
Q 2431 669 2431 922 
Q 2431 1156 2273 1281 
Q 2116 1406 1581 1522 
L 1381 1569 
Q 847 1681 609 1914 
Q 372 2147 372 2553 
Q 372 3047 722 3315 
Q 1072 3584 1716 3584 
Q 2034 3584 2315 3537 
Q 2597 3491 2834 3397 
z
" transform="scale(0.015625)"/>
       <path id="DejaVuSans-74" d="M 1172 4494 
L 1172 3500 
L 2356 3500 
L 2356 3053 
L 1172 3053 
L 1172 1153 
Q 1172 725 1289 603 
Q 1406 481 1766 481 
L 2356 481 
L 2356 0 
L 1766 0 
Q 1100 0 847 248 
Q 594 497 594 1153 
L 594 3053 
L 172 3053 
L 172 3500 
L 594 3500 
L 594 4494 
L 1172 4494 
z
" transform="scale(0.015625)"/>
       <path id="DejaVuSans-69" d="M 603 3500 
L 1178 3500 
L 1178 0 
L 603 0 
L 603 3500 
z
M 603 4863 
L 1178 4863 
L 1178 4134 
L 603 4134 
L 603 4863 
z
" transform="scale(0.015625)"/>
       <path id="DejaVuSans-6d" d="M 3328 2828 
Q 3544 3216 3844 3400 
Q 4144 3584 4550 3584 
Q 5097 3584 5394 3201 
Q 5691 2819 5691 2113 
L 5691 0 
L 5113 0 
L 5113 2094 
Q 5113 2597 4934 2840 
Q 4756 3084 4391 3084 
Q 3944 3084 3684 2787 
Q 3425 2491 3425 1978 
L 3425 0 
L 2847 0 
L 2847 2094 
Q 2847 2600 2669 2842 
Q 2491 3084 2119 3084 
Q 1678 3084 1418 2786 
Q 1159 2488 1159 1978 
L 1159 0 
L 581 0 
L 581 3500 
L 1159 3500 
L 1159 2956 
Q 1356 3278 1631 3431 
Q 1906 3584 2284 3584 
Q 2666 3584 2933 3390 
Q 3200 3197 3328 2828 
z
" transform="scale(0.015625)"/>
       <path id="DejaVuSans-61" d="M 2194 1759 
Q 1497 1759 1228 1600 
Q 959 1441 959 1056 
Q 959 750 1161 570 
Q 1363 391 1709 391 
Q 2188 391 2477 730 
Q 2766 1069 2766 1631 
L 2766 1759 
L 2194 1759 
z
M 3341 1997 
L 3341 0 
L 2766 0 
L 2766 531 
Q 2569 213 2275 61 
Q 1981 -91 1556 -91 
Q 1019 -91 701 211 
Q 384 513 384 1019 
Q 384 1609 779 1909 
Q 1175 2209 1959 2209 
L 2766 2209 
L 2766 2266 
Q 2766 2663 2505 2880 
Q 2244 3097 1772 3097 
Q 1472 3097 1187 3025 
Q 903 2953 641 2809 
L 641 3341 
Q 956 3463 1253 3523 
Q 1550 3584 1831 3584 
Q 2591 3584 2966 3190 
Q 3341 2797 3341 1997 
z
" transform="scale(0.015625)"/>
       <path id="DejaVuSans-6e" d="M 3513 2113 
L 3513 0 
L 2938 0 
L 2938 2094 
Q 2938 2591 2744 2837 
Q 2550 3084 2163 3084 
Q 1697 3084 1428 2787 
Q 1159 2491 1159 1978 
L 1159 0 
L 581 0 
L 581 3500 
L 1159 3500 
L 1159 2956 
Q 1366 3272 1645 3428 
Q 1925 3584 2291 3584 
Q 2894 3584 3203 3211 
Q 3513 2838 3513 2113 
z
" transform="scale(0.015625)"/>
       <path id="DejaVuSans-20" transform="scale(0.015625)"/>
       <path id="DejaVuSans-4c" d="M 628 4666 
L 1259 4666 
L 1259 531 
L 3531 531 
L 3531 0 
L 628 0 
L 628 4666 
z
" transform="scale(0.015625)"/>
      </defs>
      <use xlink:href="#DejaVuSans-45"/>
      <use xlink:href="#DejaVuSans-73" transform="translate(63.183594 0)"/>
      <use xlink:href="#DejaVuSans-74" transform="translate(115.283203 0)"/>
      <use xlink:href="#DejaVuSans-69" transform="translate(154.492188 0)"/>
      <use xlink:href="#DejaVuSans-6d" transform="translate(182.275391 0)"/>
      <use xlink:href="#DejaVuSans-61" transform="translate(279.6875 0)"/>
      <use xlink:href="#DejaVuSans-74" transform="translate(340.966797 0)"/>
      <use xlink:href="#DejaVuSans-69" transform="translate(380.175781 0)"/>
      <use xlink:href="#DejaVuSans-6f" transform="translate(407.958984 0)"/>
      <use xlink:href="#DejaVuSans-6e" transform="translate(469.140625 0)"/>
      <use xlink:href="#DejaVuSans-20" transform="translate(532.519531 0)"/>
      <use xlink:href="#DejaVuSans-4c" transform="translate(564.306641 0)"/>
      <use xlink:href="#DejaVuSans-6f" transform="translate(618.269531 0)"/>
      <use xlink:href="#DejaVuSans-73" transform="translate(679.451172 0)"/>
      <use xlink:href="#DejaVuSans-73" transform="translate(731.550781 0)"/>
     </g>
    </g>
   </g>
   <g id="line2d_12">
    <path d="M 115.363636 199.674641 
L 117.060201 199.23616 
L 118.756765 196.21619 
L 120.453329 195.132427 
L 122.149894 192.823259 
L 123.846458 191.054938 
L 125.543022 191.165695 
L 127.239587 191.71891 
L 128.936151 191.637174 
L 130.632715 191.429393 
L 132.329279 190.561515 
L 134.025844 189.531271 
L 139.115537 187.270424 
L 140.812101 186.635337 
L 144.20523 185.964196 
L 147.598358 185.489577 
L 149.294922 185.177637 
L 150.991487 185.068002 
L 152.688051 185.429742 
L 154.384615 185.648481 
L 159.474308 185.765234 
L 162.867437 186.17747 
L 164.564001 186.492362 
L 169.653694 186.961803 
L 174.743387 187.907964 
L 176.439951 188.165278 
L 181.529644 189.548307 
L 184.922773 190.076842 
L 188.315901 190.63414 
L 191.70903 190.963377 
L 196.798723 191.825586 
L 200.191852 192.008108 
L 201.888416 192.00732 
L 203.58498 192.143088 
L 208.674673 192.987223 
L 213.764366 193.544867 
L 225.640316 196.0123 
L 227.336881 196.254467 
L 229.033445 196.61257 
L 230.730009 196.832807 
L 237.516266 197.259748 
L 239.212831 197.517396 
L 249.392216 200.208305 
L 252.785345 201.14132 
L 259.571602 203.094779 
L 262.964731 203.83931 
L 266.35786 204.506222 
L 276.537245 205.626376 
L 283.323503 206.72231 
L 286.716631 207.049046 
L 300.289146 208.212099 
L 303.682274 208.770634 
L 307.075403 208.949522 
L 310.468531 209.079553 
L 320.647917 209.984485 
L 325.73761 210.531763 
L 329.130739 210.745982 
L 332.523867 211.039442 
L 337.61356 212.077346 
L 339.310125 212.628092 
L 341.006689 213.729099 
L 342.703253 216.434908 
L 344.399818 292.03528 
L 346.096382 288.961863 
L 347.792946 289.942519 
L 349.48951 296.413572 
L 351.186075 296.585691 
L 352.882639 297.985341 
L 354.579203 299.881793 
L 356.275768 301.180841 
L 357.972332 301.800547 
L 363.062025 303.092945 
L 368.151718 303.882502 
L 371.544846 304.104481 
L 376.634539 304.360109 
L 385.117361 305.090457 
L 396.993311 305.719154 
L 412.26239 306.209295 
L 427.531469 306.542698 
L 458.069626 306.979402 
L 483.518091 307.192553 
L 542.897841 307.529011 
L 566.649742 307.608755 
L 585.311949 307.687027 
L 607.367285 307.748957 
L 622.636364 307.8 
L 622.636364 307.8 
" clip-path="url(#pfb0dc2bd56)" style="fill: none; stroke: #1f77b4; stroke-width: 1.5; stroke-linecap: square"/>
   </g>
   <g id="line2d_13">
    <path d="M 115.363636 226.355454 
L 117.060201 235.677717 
L 118.756765 239.308034 
L 120.453329 242.210522 
L 122.149894 242.849151 
L 123.846458 243.058139 
L 127.239587 245.393828 
L 130.632715 246.101397 
L 132.329279 246.133843 
L 135.722408 245.934742 
L 139.115537 245.944263 
L 142.508665 246.265271 
L 145.901794 246.693899 
L 149.294922 246.704233 
L 150.991487 246.874752 
L 152.688051 247.352611 
L 154.384615 247.55588 
L 161.170873 247.869289 
L 162.867437 248.056991 
L 166.260566 248.635708 
L 171.350258 249.104049 
L 179.83308 250.779214 
L 181.529644 251.139971 
L 190.012466 252.119569 
L 193.405594 252.422787 
L 195.102159 252.67268 
L 203.58498 253.394217 
L 206.978109 253.877656 
L 218.854059 254.680681 
L 222.247188 255.191555 
L 225.640316 255.60746 
L 230.730009 256.101559 
L 239.212831 256.25241 
L 244.302524 256.979407 
L 247.695652 257.403467 
L 252.785345 257.991055 
L 259.571602 258.809105 
L 261.268167 258.932538 
L 269.750988 259.080351 
L 273.144117 259.174139 
L 276.537245 259.199484 
L 281.626938 259.470187 
L 291.806324 259.356158 
L 300.289146 259.569463 
L 303.682274 259.789676 
L 305.378839 259.831308 
L 308.771967 259.746102 
L 317.254789 260.003703 
L 325.73761 260.27805 
L 334.220432 260.40005 
L 335.916996 260.465306 
L 339.310125 260.83705 
L 341.006689 261.371166 
L 342.703253 262.59394 
L 344.399818 287.236702 
L 347.792946 285.171857 
L 349.48951 285.734343 
L 351.186075 286.158986 
L 354.579203 286.264011 
L 361.365461 286.412036 
L 366.455154 286.245038 
L 368.151718 286.208565 
L 373.241411 286.658694 
L 378.331104 287.01983 
L 383.420797 287.116201 
L 393.600182 287.594194 
L 408.869261 287.995581 
L 410.565825 287.977575 
L 413.958954 288.059425 
L 452.979933 288.621046 
L 454.676497 288.695241 
L 458.069626 288.681076 
L 464.855883 288.757826 
L 468.249012 288.77628 
L 471.64214 288.808365 
L 478.428398 288.905827 
L 481.821526 288.920602 
L 486.911219 288.934559 
L 488.607784 289.019196 
L 492.000912 289.014105 
L 495.394041 289.079466 
L 500.483734 289.080725 
L 505.573427 289.118542 
L 517.449377 289.253248 
L 524.235634 289.314651 
L 527.628763 289.292357 
L 542.897841 289.406864 
L 546.29097 289.428385 
L 561.560049 289.495412 
L 573.435999 289.598314 
L 580.222256 289.604777 
L 581.91882 289.726992 
L 585.311949 289.702905 
L 595.491335 289.771715 
L 597.187899 289.702486 
L 598.884463 289.776038 
L 600.581028 289.726506 
L 603.974156 289.793 
L 615.850106 289.858428 
L 617.546671 289.918113 
L 619.243235 289.858122 
L 622.636364 289.932721 
L 622.636364 289.932721 
" clip-path="url(#pfb0dc2bd56)" style="fill: none; stroke: #ff7f0e; stroke-width: 1.5; stroke-linecap: square"/>
   </g>
   <g id="line2d_14">
    <path d="M 115.363636 94.309849 
L 117.060201 75.941591 
L 118.756765 75.512721 
L 120.453329 73.792882 
L 122.149894 73.777846 
L 123.846458 69.680462 
L 125.543022 71.422209 
L 127.239587 73.551864 
L 128.936151 77.161089 
L 130.632715 72.253957 
L 132.329279 69.642185 
L 134.025844 68.050234 
L 135.722408 62.77055 
L 137.418972 62.764655 
L 139.115537 61.265431 
L 140.812101 61.018215 
L 142.508665 55.8 
L 144.20523 60.180318 
L 145.901794 59.584826 
L 147.598358 59.772926 
L 149.294922 58.382882 
L 152.688051 60.542595 
L 154.384615 59.756961 
L 156.08118 60.045491 
L 157.777744 59.556632 
L 159.474308 57.114291 
L 161.170873 60.026489 
L 162.867437 62.307706 
L 164.564001 61.920501 
L 166.260566 64.271901 
L 167.95713 63.253233 
L 169.653694 65.78671 
L 171.350258 62.685252 
L 173.046823 66.643682 
L 174.743387 66.389998 
L 176.439951 66.394328 
L 178.136516 66.949247 
L 179.83308 66.962817 
L 181.529644 73.624264 
L 183.226209 66.549725 
L 184.922773 71.149036 
L 186.619337 70.381938 
L 188.315901 73.757661 
L 190.012466 74.626347 
L 191.70903 70.995796 
L 193.405594 73.217702 
L 195.102159 72.297517 
L 196.798723 72.112497 
L 198.495287 75.305929 
L 200.191852 74.17115 
L 201.888416 74.320692 
L 203.58498 75.324442 
L 205.281545 77.867086 
L 206.978109 76.523103 
L 208.674673 77.528458 
L 210.371237 79.989708 
L 212.067802 76.439895 
L 213.764366 79.651149 
L 215.46093 78.360911 
L 217.157495 78.827067 
L 218.854059 77.770633 
L 220.550623 81.554077 
L 222.247188 80.895519 
L 223.943752 83.81099 
L 225.640316 85.667628 
L 227.336881 83.509291 
L 229.033445 87.625294 
L 230.730009 85.877533 
L 232.426573 87.676297 
L 234.123138 85.546587 
L 235.819702 86.963333 
L 237.516266 85.146974 
L 239.212831 86.950287 
L 240.909395 87.092642 
L 242.605959 88.796261 
L 244.302524 90.213862 
L 245.999088 91.832815 
L 247.695652 90.106637 
L 249.392216 93.241087 
L 251.088781 93.875228 
L 252.785345 93.762455 
L 254.481909 94.654938 
L 256.178474 97.205972 
L 257.875038 98.289459 
L 259.571602 94.908023 
L 261.268167 98.738902 
L 262.964731 99.537935 
L 264.661295 98.518307 
L 266.35786 101.476652 
L 268.054424 99.962103 
L 269.750988 101.331267 
L 271.447552 103.171896 
L 273.144117 104.433007 
L 274.840681 100.025952 
L 276.537245 105.67833 
L 278.23381 100.428062 
L 279.930374 106.008721 
L 281.626938 102.421927 
L 283.323503 105.845114 
L 285.020067 108.456922 
L 286.716631 108.372206 
L 288.413196 106.31895 
L 290.10976 109.821868 
L 291.806324 105.419138 
L 293.502888 105.04952 
L 295.199453 108.615636 
L 296.896017 107.297133 
L 298.592581 106.348833 
L 300.289146 107.839002 
L 301.98571 110.283449 
L 303.682274 110.252431 
L 305.378839 109.762432 
L 307.075403 109.138992 
L 308.771967 108.236214 
L 310.468531 108.550398 
L 312.165096 110.708693 
L 313.86166 111.122054 
L 315.558224 109.867232 
L 317.254789 109.502024 
L 318.951353 108.77817 
L 320.647917 111.248488 
L 322.344482 111.758606 
L 324.041046 114.380132 
L 325.73761 112.454038 
L 327.434175 111.761877 
L 329.130739 111.645892 
L 330.827303 111.752505 
L 332.523867 113.509188 
L 334.220432 111.718174 
L 335.916996 112.432763 
L 337.61356 112.714197 
L 339.310125 117.808532 
L 341.006689 117.613887 
L 342.703253 136.044395 
L 344.399818 285.238625 
L 346.096382 260.253632 
L 347.792946 282.776462 
L 349.48951 285.61669 
L 351.186075 286.366261 
L 352.882639 290.000211 
L 354.579203 293.330637 
L 356.275768 295.343121 
L 359.668896 296.938771 
L 361.365461 297.954382 
L 364.758589 299.007408 
L 368.151718 299.737685 
L 369.848282 299.836599 
L 371.544846 300.069898 
L 373.241411 300.050427 
L 378.331104 300.938952 
L 380.027668 301.391083 
L 383.420797 301.798166 
L 385.117361 301.930946 
L 386.813925 302.257165 
L 388.51049 302.229636 
L 390.207054 302.569058 
L 391.903618 302.583125 
L 393.600182 302.775801 
L 395.296747 303.119668 
L 396.993311 303.027456 
L 398.689875 303.395774 
L 400.38644 303.35984 
L 402.083004 303.588327 
L 403.779568 303.697736 
L 407.172697 303.62298 
L 410.565825 303.938329 
L 412.26239 304.069862 
L 413.958954 304.03935 
L 417.352083 304.16799 
L 420.745211 304.254376 
L 436.01429 304.938156 
L 441.103983 305.023539 
L 442.800547 305.035363 
L 444.497112 304.873859 
L 446.193676 305.10633 
L 449.586804 305.060438 
L 451.283369 305.318091 
L 456.373062 305.229891 
L 458.069626 305.359984 
L 459.76619 305.348232 
L 461.462755 305.617865 
L 463.159319 305.339719 
L 466.552448 305.581472 
L 468.249012 305.533892 
L 469.945576 305.655831 
L 475.035269 305.604569 
L 486.911219 305.847693 
L 488.607784 305.759465 
L 490.304348 305.91679 
L 492.000912 305.856421 
L 497.090605 305.934724 
L 500.483734 305.936459 
L 502.180298 306.063134 
L 510.663119 305.979227 
L 512.359684 306.137414 
L 517.449377 306.161959 
L 529.325327 306.197991 
L 531.021891 306.337134 
L 536.111584 306.305498 
L 539.504713 306.319473 
L 541.201277 306.194403 
L 542.897841 306.386441 
L 556.470356 306.47343 
L 561.560049 306.495357 
L 568.346306 306.438379 
L 578.525692 306.601082 
L 583.615385 306.569153 
L 588.705078 306.674263 
L 590.401642 306.545463 
L 597.187899 306.706739 
L 602.277592 306.620637 
L 607.367285 306.722829 
L 610.760413 306.78397 
L 617.546671 306.739837 
L 619.243235 306.612512 
L 620.939799 306.794654 
L 622.636364 306.750619 
L 622.636364 306.750619 
" clip-path="url(#pfb0dc2bd56)" style="fill: none; stroke: #2ca02c; stroke-width: 1.5; stroke-linecap: square"/>
   </g>
   <g id="line2d_15">
    <path d="M 115.363636 161.065436 
L 117.060201 162.956693 
L 118.756765 171.707537 
L 120.453329 175.812538 
L 122.149894 178.897387 
L 123.846458 178.533907 
L 125.543022 181.289936 
L 127.239587 183.369775 
L 128.936151 185.90415 
L 130.632715 184.011567 
L 132.329279 183.227177 
L 134.025844 183.040313 
L 135.722408 180.31539 
L 137.418972 181.628341 
L 139.115537 181.751057 
L 140.812101 182.619023 
L 142.508665 180.126638 
L 144.20523 183.55071 
L 145.901794 183.808218 
L 147.598358 184.219371 
L 149.294922 183.71335 
L 150.991487 184.87065 
L 152.688051 185.696475 
L 154.384615 185.084515 
L 156.08118 184.991053 
L 157.777744 184.54309 
L 159.474308 182.851875 
L 162.867437 186.146759 
L 164.564001 186.067717 
L 166.260566 187.878606 
L 167.95713 186.988758 
L 169.653694 188.398675 
L 171.350258 186.659294 
L 173.046823 189.429478 
L 174.743387 189.509823 
L 176.439951 189.705557 
L 178.136516 190.297281 
L 179.83308 190.709048 
L 181.529644 195.098359 
L 183.226209 190.858615 
L 184.922773 193.679793 
L 186.619337 193.439157 
L 188.315901 195.63965 
L 190.012466 195.998926 
L 191.70903 193.825065 
L 193.405594 195.318128 
L 195.102159 194.833738 
L 196.798723 194.701243 
L 198.495287 196.940835 
L 200.191852 196.57788 
L 201.888416 196.959369 
L 203.58498 197.969839 
L 205.281545 199.66947 
L 206.978109 198.747867 
L 208.674673 199.328215 
L 210.371237 200.722545 
L 212.067802 198.364383 
L 213.764366 200.149023 
L 215.46093 199.328777 
L 217.157495 199.359731 
L 218.854059 198.726625 
L 220.550623 201.01258 
L 222.247188 200.79063 
L 223.943752 202.539775 
L 225.640316 203.752954 
L 227.336881 202.453725 
L 229.033445 204.949595 
L 230.730009 203.809156 
L 232.426573 204.8108 
L 234.123138 203.342038 
L 235.819702 204.034432 
L 237.516266 202.769939 
L 239.212831 203.919518 
L 240.909395 203.925237 
L 245.999088 206.700633 
L 247.695652 205.32144 
L 249.392216 207.096036 
L 251.088781 207.565111 
L 252.785345 207.428051 
L 254.481909 207.873446 
L 256.178474 209.158118 
L 257.875038 209.773805 
L 259.571602 207.380643 
L 261.268167 209.305411 
L 262.964731 209.496587 
L 264.661295 208.549042 
L 266.35786 210.095753 
L 268.054424 208.947197 
L 269.750988 209.418275 
L 271.447552 210.442252 
L 273.144117 211.091742 
L 274.840681 208.065483 
L 276.537245 211.418006 
L 278.23381 208.11695 
L 279.930374 211.293456 
L 281.626938 208.811357 
L 283.323503 210.66177 
L 285.020067 212.006094 
L 286.716631 211.766056 
L 288.413196 210.173296 
L 290.10976 212.106565 
L 291.806324 209.282784 
L 293.502888 208.854431 
L 295.199453 211.053262 
L 296.896017 210.053034 
L 298.592581 209.397595 
L 300.289146 210.296836 
L 301.98571 211.669167 
L 303.682274 211.424334 
L 308.771967 209.872142 
L 310.468531 209.909121 
L 312.165096 211.255931 
L 313.86166 211.513848 
L 315.558224 210.687952 
L 317.254789 210.335901 
L 318.951353 209.822722 
L 320.647917 211.461362 
L 322.344482 211.577661 
L 324.041046 213.125241 
L 325.73761 211.817281 
L 327.434175 211.270242 
L 329.130739 210.844533 
L 330.827303 210.644344 
L 332.523867 211.569969 
L 334.220432 210.327299 
L 335.916996 210.398337 
L 337.61356 210.584402 
L 339.310125 213.479956 
L 341.006689 212.841176 
L 342.703253 222.411134 
L 344.399818 267.576655 
L 346.096382 261.258429 
L 347.792946 263.177553 
L 349.48951 265.374838 
L 351.186075 265.869795 
L 352.882639 265.600721 
L 354.579203 265.96234 
L 356.275768 265.613987 
L 357.972332 265.663887 
L 359.668896 265.825759 
L 361.365461 265.586221 
L 363.062025 264.962686 
L 364.758589 264.861762 
L 366.455154 265.354453 
L 368.151718 265.105223 
L 369.848282 265.668955 
L 371.544846 265.89693 
L 373.241411 266.290836 
L 374.937975 266.537112 
L 376.634539 266.380673 
L 378.331104 266.929348 
L 380.027668 266.849548 
L 381.724232 266.527897 
L 385.117361 267.072694 
L 386.813925 267.155213 
L 388.51049 267.423694 
L 390.207054 267.387151 
L 393.600182 267.794407 
L 396.993311 267.959746 
L 398.689875 267.734572 
L 400.38644 268.886659 
L 402.083004 268.14142 
L 403.779568 268.197126 
L 405.476133 268.82102 
L 408.869261 268.571517 
L 410.565825 268.376274 
L 412.26239 268.724317 
L 413.958954 268.524834 
L 415.655518 268.723718 
L 417.352083 268.669878 
L 419.048647 268.945313 
L 420.745211 269.511016 
L 422.441776 268.872809 
L 424.13834 268.860502 
L 425.834904 268.4426 
L 427.531469 268.865976 
L 429.228033 269.47424 
L 432.621161 269.309438 
L 434.317726 268.872314 
L 436.01429 269.325213 
L 437.710854 268.945808 
L 439.407419 269.026495 
L 442.800547 269.570387 
L 444.497112 268.567505 
L 446.193676 268.919886 
L 447.89024 269.900492 
L 449.586804 268.933539 
L 451.283369 269.509761 
L 452.979933 269.730068 
L 454.676497 268.749148 
L 456.373062 268.647226 
L 458.069626 269.767176 
L 459.76619 269.502116 
L 461.462755 269.522919 
L 463.159319 270.284637 
L 464.855883 269.435764 
L 468.249012 270.192643 
L 469.945576 269.111538 
L 471.64214 269.27773 
L 473.338705 269.664952 
L 475.035269 269.581104 
L 476.731833 269.289766 
L 478.428398 270.017789 
L 480.124962 269.08109 
L 481.821526 269.353721 
L 483.518091 269.804294 
L 485.214655 270.007916 
L 486.911219 269.748921 
L 488.607784 269.901982 
L 490.304348 270.583639 
L 492.000912 269.615883 
L 493.697476 270.255815 
L 495.394041 269.807224 
L 497.090605 270.297429 
L 500.483734 270.630676 
L 505.573427 270.463408 
L 507.269991 269.969736 
L 508.966555 270.017269 
L 510.663119 270.387142 
L 512.359684 270.01501 
L 514.056248 270.976088 
L 515.752812 269.996049 
L 517.449377 270.614945 
L 519.145941 270.420433 
L 520.842505 270.392901 
L 522.53907 270.669594 
L 524.235634 270.11061 
L 525.932198 270.176932 
L 527.628763 270.368999 
L 529.325327 270.377641 
L 531.021891 270.813797 
L 532.718455 270.7871 
L 534.41502 270.55139 
L 536.111584 271.359582 
L 537.808148 270.804655 
L 539.504713 270.52949 
L 541.201277 270.646006 
L 542.897841 270.572807 
L 544.594406 271.208395 
L 546.29097 270.992197 
L 553.077227 270.573585 
L 554.773791 271.30366 
L 556.470356 271.35076 
L 558.16692 270.746881 
L 559.863484 271.145704 
L 561.560049 271.734726 
L 563.256613 271.178761 
L 566.649742 271.305262 
L 568.346306 271.176936 
L 570.04287 271.789169 
L 571.739434 271.361083 
L 573.435999 271.267695 
L 575.132563 271.750066 
L 576.829127 271.890053 
L 578.525692 270.94903 
L 580.222256 271.620731 
L 581.91882 271.013006 
L 583.615385 271.24601 
L 585.311949 271.764779 
L 588.705078 271.274057 
L 590.401642 270.901781 
L 592.098206 270.90589 
L 593.79477 272.071903 
L 595.491335 271.918187 
L 597.187899 271.461972 
L 598.884463 271.424313 
L 602.277592 271.179248 
L 603.974156 271.672209 
L 605.670721 271.203263 
L 607.367285 271.795464 
L 609.063849 271.512306 
L 610.760413 271.350263 
L 612.456978 271.638931 
L 614.153542 271.321261 
L 615.850106 271.676676 
L 617.546671 271.457054 
L 619.243235 270.900407 
L 620.939799 271.420797 
L 622.636364 270.944919 
L 622.636364 270.944919 
" clip-path="url(#pfb0dc2bd56)" style="fill: none; stroke: #d62728; stroke-width: 1.5; stroke-linecap: square"/>
   </g>
   <g id="patch_3">
    <path d="M 90 320.4 
L 90 43.2 
" style="fill: none; stroke: #000000; stroke-width: 0.8; stroke-linejoin: miter; stroke-linecap: square"/>
   </g>
   <g id="patch_4">
    <path d="M 648 320.4 
L 648 43.2 
" style="fill: none; stroke: #000000; stroke-width: 0.8; stroke-linejoin: miter; stroke-linecap: square"/>
   </g>
   <g id="patch_5">
    <path d="M 90 320.4 
L 648 320.4 
" style="fill: none; stroke: #000000; stroke-width: 0.8; stroke-linejoin: miter; stroke-linecap: square"/>
   </g>
   <g id="patch_6">
    <path d="M 90 43.2 
L 648 43.2 
" style="fill: none; stroke: #000000; stroke-width: 0.8; stroke-linejoin: miter; stroke-linecap: square"/>
   </g>
   <g id="text_14">
    <!-- Training and Validating Estimation Loss -->
    <g transform="translate(251.535937 37.2) scale(0.12 -0.12)">
     <defs>
      <path id="DejaVuSans-54" d="M -19 4666 
L 3928 4666 
L 3928 4134 
L 2272 4134 
L 2272 0 
L 1638 0 
L 1638 4134 
L -19 4134 
L -19 4666 
z
" transform="scale(0.015625)"/>
      <path id="DejaVuSans-72" d="M 2631 2963 
Q 2534 3019 2420 3045 
Q 2306 3072 2169 3072 
Q 1681 3072 1420 2755 
Q 1159 2438 1159 1844 
L 1159 0 
L 581 0 
L 581 3500 
L 1159 3500 
L 1159 2956 
Q 1341 3275 1631 3429 
Q 1922 3584 2338 3584 
Q 2397 3584 2469 3576 
Q 2541 3569 2628 3553 
L 2631 2963 
z
" transform="scale(0.015625)"/>
      <path id="DejaVuSans-67" d="M 2906 1791 
Q 2906 2416 2648 2759 
Q 2391 3103 1925 3103 
Q 1463 3103 1205 2759 
Q 947 2416 947 1791 
Q 947 1169 1205 825 
Q 1463 481 1925 481 
Q 2391 481 2648 825 
Q 2906 1169 2906 1791 
z
M 3481 434 
Q 3481 -459 3084 -895 
Q 2688 -1331 1869 -1331 
Q 1566 -1331 1297 -1286 
Q 1028 -1241 775 -1147 
L 775 -588 
Q 1028 -725 1275 -790 
Q 1522 -856 1778 -856 
Q 2344 -856 2625 -561 
Q 2906 -266 2906 331 
L 2906 616 
Q 2728 306 2450 153 
Q 2172 0 1784 0 
Q 1141 0 747 490 
Q 353 981 353 1791 
Q 353 2603 747 3093 
Q 1141 3584 1784 3584 
Q 2172 3584 2450 3431 
Q 2728 3278 2906 2969 
L 2906 3500 
L 3481 3500 
L 3481 434 
z
" transform="scale(0.015625)"/>
      <path id="DejaVuSans-64" d="M 2906 2969 
L 2906 4863 
L 3481 4863 
L 3481 0 
L 2906 0 
L 2906 525 
Q 2725 213 2448 61 
Q 2172 -91 1784 -91 
Q 1150 -91 751 415 
Q 353 922 353 1747 
Q 353 2572 751 3078 
Q 1150 3584 1784 3584 
Q 2172 3584 2448 3432 
Q 2725 3281 2906 2969 
z
M 947 1747 
Q 947 1113 1208 752 
Q 1469 391 1925 391 
Q 2381 391 2643 752 
Q 2906 1113 2906 1747 
Q 2906 2381 2643 2742 
Q 2381 3103 1925 3103 
Q 1469 3103 1208 2742 
Q 947 2381 947 1747 
z
" transform="scale(0.015625)"/>
      <path id="DejaVuSans-56" d="M 1831 0 
L 50 4666 
L 709 4666 
L 2188 738 
L 3669 4666 
L 4325 4666 
L 2547 0 
L 1831 0 
z
" transform="scale(0.015625)"/>
      <path id="DejaVuSans-6c" d="M 603 4863 
L 1178 4863 
L 1178 0 
L 603 0 
L 603 4863 
z
" transform="scale(0.015625)"/>
     </defs>
     <use xlink:href="#DejaVuSans-54"/>
     <use xlink:href="#DejaVuSans-72" transform="translate(46.333984 0)"/>
     <use xlink:href="#DejaVuSans-61" transform="translate(87.447266 0)"/>
     <use xlink:href="#DejaVuSans-69" transform="translate(148.726562 0)"/>
     <use xlink:href="#DejaVuSans-6e" transform="translate(176.509766 0)"/>
     <use xlink:href="#DejaVuSans-69" transform="translate(239.888672 0)"/>
     <use xlink:href="#DejaVuSans-6e" transform="translate(267.671875 0)"/>
     <use xlink:href="#DejaVuSans-67" transform="translate(331.050781 0)"/>
     <use xlink:href="#DejaVuSans-20" transform="translate(394.527344 0)"/>
     <use xlink:href="#DejaVuSans-61" transform="translate(426.314453 0)"/>
     <use xlink:href="#DejaVuSans-6e" transform="translate(487.59375 0)"/>
     <use xlink:href="#DejaVuSans-64" transform="translate(550.972656 0)"/>
     <use xlink:href="#DejaVuSans-20" transform="translate(614.449219 0)"/>
     <use xlink:href="#DejaVuSans-56" transform="translate(646.236328 0)"/>
     <use xlink:href="#DejaVuSans-61" transform="translate(706.894531 0)"/>
     <use xlink:href="#DejaVuSans-6c" transform="translate(768.173828 0)"/>
     <use xlink:href="#DejaVuSans-69" transform="translate(795.957031 0)"/>
     <use xlink:href="#DejaVuSans-64" transform="translate(823.740234 0)"/>
     <use xlink:href="#DejaVuSans-61" transform="translate(887.216797 0)"/>
     <use xlink:href="#DejaVuSans-74" transform="translate(948.496094 0)"/>
     <use xlink:href="#DejaVuSans-69" transform="translate(987.705078 0)"/>
     <use xlink:href="#DejaVuSans-6e" transform="translate(1015.488281 0)"/>
     <use xlink:href="#DejaVuSans-67" transform="translate(1078.867188 0)"/>
     <use xlink:href="#DejaVuSans-20" transform="translate(1142.34375 0)"/>
     <use xlink:href="#DejaVuSans-45" transform="translate(1174.130859 0)"/>
     <use xlink:href="#DejaVuSans-73" transform="translate(1237.314453 0)"/>
     <use xlink:href="#DejaVuSans-74" transform="translate(1289.414062 0)"/>
     <use xlink:href="#DejaVuSans-69" transform="translate(1328.623047 0)"/>
     <use xlink:href="#DejaVuSans-6d" transform="translate(1356.40625 0)"/>
     <use xlink:href="#DejaVuSans-61" transform="translate(1453.818359 0)"/>
     <use xlink:href="#DejaVuSans-74" transform="translate(1515.097656 0)"/>
     <use xlink:href="#DejaVuSans-69" transform="translate(1554.306641 0)"/>
     <use xlink:href="#DejaVuSans-6f" transform="translate(1582.089844 0)"/>
     <use xlink:href="#DejaVuSans-6e" transform="translate(1643.271484 0)"/>
     <use xlink:href="#DejaVuSans-20" transform="translate(1706.650391 0)"/>
     <use xlink:href="#DejaVuSans-4c" transform="translate(1738.4375 0)"/>
     <use xlink:href="#DejaVuSans-6f" transform="translate(1792.400391 0)"/>
     <use xlink:href="#DejaVuSans-73" transform="translate(1853.582031 0)"/>
     <use xlink:href="#DejaVuSans-73" transform="translate(1905.681641 0)"/>
    </g>
   </g>
   <g id="legend_1">
    <g id="patch_7">
     <path d="M 521.439062 109.9125 
L 641 109.9125 
Q 643 109.9125 643 107.9125 
L 643 50.2 
Q 643 48.2 641 48.2 
L 521.439062 48.2 
Q 519.439062 48.2 519.439062 50.2 
L 519.439062 107.9125 
Q 519.439062 109.9125 521.439062 109.9125 
z
" style="fill: #ffffff; opacity: 0.8; stroke: #cccccc; stroke-linejoin: miter"/>
    </g>
    <g id="line2d_16">
     <path d="M 523.439062 56.298437 
L 533.439062 56.298437 
L 543.439062 56.298437 
" style="fill: none; stroke: #1f77b4; stroke-width: 1.5; stroke-linecap: square"/>
    </g>
    <g id="text_15">
     <!-- Training-Source -->
     <g transform="translate(551.439062 59.798437) scale(0.1 -0.1)">
      <defs>
       <path id="DejaVuSans-2d" d="M 313 2009 
L 1997 2009 
L 1997 1497 
L 313 1497 
L 313 2009 
z
" transform="scale(0.015625)"/>
       <path id="DejaVuSans-53" d="M 3425 4513 
L 3425 3897 
Q 3066 4069 2747 4153 
Q 2428 4238 2131 4238 
Q 1616 4238 1336 4038 
Q 1056 3838 1056 3469 
Q 1056 3159 1242 3001 
Q 1428 2844 1947 2747 
L 2328 2669 
Q 3034 2534 3370 2195 
Q 3706 1856 3706 1288 
Q 3706 609 3251 259 
Q 2797 -91 1919 -91 
Q 1588 -91 1214 -16 
Q 841 59 441 206 
L 441 856 
Q 825 641 1194 531 
Q 1563 422 1919 422 
Q 2459 422 2753 634 
Q 3047 847 3047 1241 
Q 3047 1584 2836 1778 
Q 2625 1972 2144 2069 
L 1759 2144 
Q 1053 2284 737 2584 
Q 422 2884 422 3419 
Q 422 4038 858 4394 
Q 1294 4750 2059 4750 
Q 2388 4750 2728 4690 
Q 3069 4631 3425 4513 
z
" transform="scale(0.015625)"/>
       <path id="DejaVuSans-75" d="M 544 1381 
L 544 3500 
L 1119 3500 
L 1119 1403 
Q 1119 906 1312 657 
Q 1506 409 1894 409 
Q 2359 409 2629 706 
Q 2900 1003 2900 1516 
L 2900 3500 
L 3475 3500 
L 3475 0 
L 2900 0 
L 2900 538 
Q 2691 219 2414 64 
Q 2138 -91 1772 -91 
Q 1169 -91 856 284 
Q 544 659 544 1381 
z
M 1991 3584 
L 1991 3584 
z
" transform="scale(0.015625)"/>
       <path id="DejaVuSans-65" d="M 3597 1894 
L 3597 1613 
L 953 1613 
Q 991 1019 1311 708 
Q 1631 397 2203 397 
Q 2534 397 2845 478 
Q 3156 559 3463 722 
L 3463 178 
Q 3153 47 2828 -22 
Q 2503 -91 2169 -91 
Q 1331 -91 842 396 
Q 353 884 353 1716 
Q 353 2575 817 3079 
Q 1281 3584 2069 3584 
Q 2775 3584 3186 3129 
Q 3597 2675 3597 1894 
z
M 3022 2063 
Q 3016 2534 2758 2815 
Q 2500 3097 2075 3097 
Q 1594 3097 1305 2825 
Q 1016 2553 972 2059 
L 3022 2063 
z
" transform="scale(0.015625)"/>
      </defs>
      <use xlink:href="#DejaVuSans-54"/>
      <use xlink:href="#DejaVuSans-72" transform="translate(46.333984 0)"/>
      <use xlink:href="#DejaVuSans-61" transform="translate(87.447266 0)"/>
      <use xlink:href="#DejaVuSans-69" transform="translate(148.726562 0)"/>
      <use xlink:href="#DejaVuSans-6e" transform="translate(176.509766 0)"/>
      <use xlink:href="#DejaVuSans-69" transform="translate(239.888672 0)"/>
      <use xlink:href="#DejaVuSans-6e" transform="translate(267.671875 0)"/>
      <use xlink:href="#DejaVuSans-67" transform="translate(331.050781 0)"/>
      <use xlink:href="#DejaVuSans-2d" transform="translate(394.527344 0)"/>
      <use xlink:href="#DejaVuSans-53" transform="translate(430.611328 0)"/>
      <use xlink:href="#DejaVuSans-6f" transform="translate(494.087891 0)"/>
      <use xlink:href="#DejaVuSans-75" transform="translate(555.269531 0)"/>
      <use xlink:href="#DejaVuSans-72" transform="translate(618.648438 0)"/>
      <use xlink:href="#DejaVuSans-63" transform="translate(657.511719 0)"/>
      <use xlink:href="#DejaVuSans-65" transform="translate(712.492188 0)"/>
     </g>
    </g>
    <g id="line2d_17">
     <path d="M 523.439062 70.976562 
L 533.439062 70.976562 
L 543.439062 70.976562 
" style="fill: none; stroke: #ff7f0e; stroke-width: 1.5; stroke-linecap: square"/>
    </g>
    <g id="text_16">
     <!-- Training-Target -->
     <g transform="translate(551.439062 74.476562) scale(0.1 -0.1)">
      <use xlink:href="#DejaVuSans-54"/>
      <use xlink:href="#DejaVuSans-72" transform="translate(46.333984 0)"/>
      <use xlink:href="#DejaVuSans-61" transform="translate(87.447266 0)"/>
      <use xlink:href="#DejaVuSans-69" transform="translate(148.726562 0)"/>
      <use xlink:href="#DejaVuSans-6e" transform="translate(176.509766 0)"/>
      <use xlink:href="#DejaVuSans-69" transform="translate(239.888672 0)"/>
      <use xlink:href="#DejaVuSans-6e" transform="translate(267.671875 0)"/>
      <use xlink:href="#DejaVuSans-67" transform="translate(331.050781 0)"/>
      <use xlink:href="#DejaVuSans-2d" transform="translate(394.527344 0)"/>
      <use xlink:href="#DejaVuSans-54" transform="translate(421.486328 0)"/>
      <use xlink:href="#DejaVuSans-61" transform="translate(466.070312 0)"/>
      <use xlink:href="#DejaVuSans-72" transform="translate(527.349609 0)"/>
      <use xlink:href="#DejaVuSans-67" transform="translate(566.712891 0)"/>
      <use xlink:href="#DejaVuSans-65" transform="translate(630.189453 0)"/>
      <use xlink:href="#DejaVuSans-74" transform="translate(691.712891 0)"/>
     </g>
    </g>
    <g id="line2d_18">
     <path d="M 523.439062 85.654687 
L 533.439062 85.654687 
L 543.439062 85.654687 
" style="fill: none; stroke: #2ca02c; stroke-width: 1.5; stroke-linecap: square"/>
    </g>
    <g id="text_17">
     <!-- Validating-Source -->
     <g transform="translate(551.439062 89.154687) scale(0.1 -0.1)">
      <use xlink:href="#DejaVuSans-56"/>
      <use xlink:href="#DejaVuSans-61" transform="translate(60.658203 0)"/>
      <use xlink:href="#DejaVuSans-6c" transform="translate(121.9375 0)"/>
      <use xlink:href="#DejaVuSans-69" transform="translate(149.720703 0)"/>
      <use xlink:href="#DejaVuSans-64" transform="translate(177.503906 0)"/>
      <use xlink:href="#DejaVuSans-61" transform="translate(240.980469 0)"/>
      <use xlink:href="#DejaVuSans-74" transform="translate(302.259766 0)"/>
      <use xlink:href="#DejaVuSans-69" transform="translate(341.46875 0)"/>
      <use xlink:href="#DejaVuSans-6e" transform="translate(369.251953 0)"/>
      <use xlink:href="#DejaVuSans-67" transform="translate(432.630859 0)"/>
      <use xlink:href="#DejaVuSans-2d" transform="translate(496.107422 0)"/>
      <use xlink:href="#DejaVuSans-53" transform="translate(532.191406 0)"/>
      <use xlink:href="#DejaVuSans-6f" transform="translate(595.667969 0)"/>
      <use xlink:href="#DejaVuSans-75" transform="translate(656.849609 0)"/>
      <use xlink:href="#DejaVuSans-72" transform="translate(720.228516 0)"/>
      <use xlink:href="#DejaVuSans-63" transform="translate(759.091797 0)"/>
      <use xlink:href="#DejaVuSans-65" transform="translate(814.072266 0)"/>
     </g>
    </g>
    <g id="line2d_19">
     <path d="M 523.439062 100.332812 
L 533.439062 100.332812 
L 543.439062 100.332812 
" style="fill: none; stroke: #d62728; stroke-width: 1.5; stroke-linecap: square"/>
    </g>
    <g id="text_18">
     <!-- Validating-Target -->
     <g transform="translate(551.439062 103.832812) scale(0.1 -0.1)">
      <use xlink:href="#DejaVuSans-56"/>
      <use xlink:href="#DejaVuSans-61" transform="translate(60.658203 0)"/>
      <use xlink:href="#DejaVuSans-6c" transform="translate(121.9375 0)"/>
      <use xlink:href="#DejaVuSans-69" transform="translate(149.720703 0)"/>
      <use xlink:href="#DejaVuSans-64" transform="translate(177.503906 0)"/>
      <use xlink:href="#DejaVuSans-61" transform="translate(240.980469 0)"/>
      <use xlink:href="#DejaVuSans-74" transform="translate(302.259766 0)"/>
      <use xlink:href="#DejaVuSans-69" transform="translate(341.46875 0)"/>
      <use xlink:href="#DejaVuSans-6e" transform="translate(369.251953 0)"/>
      <use xlink:href="#DejaVuSans-67" transform="translate(432.630859 0)"/>
      <use xlink:href="#DejaVuSans-2d" transform="translate(496.107422 0)"/>
      <use xlink:href="#DejaVuSans-54" transform="translate(523.066406 0)"/>
      <use xlink:href="#DejaVuSans-61" transform="translate(567.650391 0)"/>
      <use xlink:href="#DejaVuSans-72" transform="translate(628.929688 0)"/>
      <use xlink:href="#DejaVuSans-67" transform="translate(668.292969 0)"/>
      <use xlink:href="#DejaVuSans-65" transform="translate(731.769531 0)"/>
      <use xlink:href="#DejaVuSans-74" transform="translate(793.292969 0)"/>
     </g>
    </g>
   </g>
  </g>
 </g>
 <defs>
  <clipPath id="pfb0dc2bd56">
   <rect x="90" y="43.2" width="558" height="277.2"/>
  </clipPath>
 </defs>
</svg>
