<?xml version="1.0" encoding="utf-8" standalone="no"?>
<!DOCTYPE svg PUBLIC "-//W3C//DTD SVG 1.1//EN"
  "http://www.w3.org/Graphics/SVG/1.1/DTD/svg11.dtd">
<svg xmlns:xlink="http://www.w3.org/1999/xlink" width="720pt" height="360pt" viewBox="0 0 720 360" xmlns="http://www.w3.org/2000/svg" version="1.1">
 <metadata>
  <rdf:RDF xmlns:dc="http://purl.org/dc/elements/1.1/" xmlns:cc="http://creativecommons.org/ns#" xmlns:rdf="http://www.w3.org/1999/02/22-rdf-syntax-ns#">
   <cc:Work>
    <dc:type rdf:resource="http://purl.org/dc/dcmitype/StillImage"/>
    <dc:date>2025-11-18T09:13:04.554166</dc:date>
    <dc:format>image/svg+xml</dc:format>
    <dc:creator>
     <cc:Agent>
      <dc:title>Matplotlib v3.10.1, https://matplotlib.org/</dc:title>
     </cc:Agent>
    </dc:creator>
   </cc:Work>
  </rdf:RDF>
 </metadata>
 <defs>
  <style type="text/css">*{stroke-linejoin: round; stroke-linecap: butt}</style>
 </defs>
 <g id="figure_1">
  <g id="patch_1">
   <path d="M 0 360 
L 720 360 
L 720 0 
L 0 0 
z
" style="fill: #ffffff"/>
  </g>
  <g id="axes_1">
   <g id="patch_2">
    <path d="M 90 320.4 
L 648 320.4 
L 648 43.2 
L 90 43.2 
z
" style="fill: #ffffff"/>
   </g>
   <g id="matplotlib.axis_1">
    <g id="xtick_1">
     <g id="line2d_1">
      <defs>
       <path id="m2200d9ebee" d="M 0 0 
L 0 3.5 
" style="stroke: #000000; stroke-width: 0.8"/>
      </defs>
      <g>
       <use xlink:href="#m2200d9ebee" x="115.363636" y="320.4" style="stroke: #000000; stroke-width: 0.8"/>
      </g>
     </g>
     <g id="text_1">
      <!-- 0 -->
      <g transform="translate(112.182386 334.998438) scale(0.1 -0.1)">
       <defs>
        <path id="DejaVuSans-30" d="M 2034 4250 
Q 1547 4250 1301 3770 
Q 1056 3291 1056 2328 
Q 1056 1369 1301 889 
Q 1547 409 2034 409 
Q 2525 409 2770 889 
Q 3016 1369 3016 2328 
Q 3016 3291 2770 3770 
Q 2525 4250 2034 4250 
z
M 2034 4750 
Q 2819 4750 3233 4129 
Q 3647 3509 3647 2328 
Q 3647 1150 3233 529 
Q 2819 -91 2034 -91 
Q 1250 -91 836 529 
Q 422 1150 422 2328 
Q 422 3509 836 4129 
Q 1250 4750 2034 4750 
z
" transform="scale(0.015625)"/>
       </defs>
       <use xlink:href="#DejaVuSans-30"/>
      </g>
     </g>
    </g>
    <g id="xtick_2">
     <g id="line2d_2">
      <g>
       <use xlink:href="#m2200d9ebee" x="217.157495" y="320.4" style="stroke: #000000; stroke-width: 0.8"/>
      </g>
     </g>
     <g id="text_2">
      <!-- 60 -->
      <g transform="translate(210.794995 334.998438) scale(0.1 -0.1)">
       <defs>
        <path id="DejaVuSans-36" d="M 2113 2584 
Q 1688 2584 1439 2293 
Q 1191 2003 1191 1497 
Q 1191 994 1439 701 
Q 1688 409 2113 409 
Q 2538 409 2786 701 
Q 3034 994 3034 1497 
Q 3034 2003 2786 2293 
Q 2538 2584 2113 2584 
z
M 3366 4563 
L 3366 3988 
Q 3128 4100 2886 4159 
Q 2644 4219 2406 4219 
Q 1781 4219 1451 3797 
Q 1122 3375 1075 2522 
Q 1259 2794 1537 2939 
Q 1816 3084 2150 3084 
Q 2853 3084 3261 2657 
Q 3669 2231 3669 1497 
Q 3669 778 3244 343 
Q 2819 -91 2113 -91 
Q 1303 -91 875 529 
Q 447 1150 447 2328 
Q 447 3434 972 4092 
Q 1497 4750 2381 4750 
Q 2619 4750 2861 4703 
Q 3103 4656 3366 4563 
z
" transform="scale(0.015625)"/>
       </defs>
       <use xlink:href="#DejaVuSans-36"/>
       <use xlink:href="#DejaVuSans-30" transform="translate(63.623047 0)"/>
      </g>
     </g>
    </g>
    <g id="xtick_3">
     <g id="line2d_3">
      <g>
       <use xlink:href="#m2200d9ebee" x="318.951353" y="320.4" style="stroke: #000000; stroke-width: 0.8"/>
      </g>
     </g>
     <g id="text_3">
      <!-- 120 -->
      <g transform="translate(309.407603 334.998438) scale(0.1 -0.1)">
       <defs>
        <path id="DejaVuSans-31" d="M 794 531 
L 1825 531 
L 1825 4091 
L 703 3866 
L 703 4441 
L 1819 4666 
L 2450 4666 
L 2450 531 
L 3481 531 
L 3481 0 
L 794 0 
L 794 531 
z
" transform="scale(0.015625)"/>
        <path id="DejaVuSans-32" d="M 1228 531 
L 3431 531 
L 3431 0 
L 469 0 
L 469 531 
Q 828 903 1448 1529 
Q 2069 2156 2228 2338 
Q 2531 2678 2651 2914 
Q 2772 3150 2772 3378 
Q 2772 3750 2511 3984 
Q 2250 4219 1831 4219 
Q 1534 4219 1204 4116 
Q 875 4013 500 3803 
L 500 4441 
Q 881 4594 1212 4672 
Q 1544 4750 1819 4750 
Q 2544 4750 2975 4387 
Q 3406 4025 3406 3419 
Q 3406 3131 3298 2873 
Q 3191 2616 2906 2266 
Q 2828 2175 2409 1742 
Q 1991 1309 1228 531 
z
" transform="scale(0.015625)"/>
       </defs>
       <use xlink:href="#DejaVuSans-31"/>
       <use xlink:href="#DejaVuSans-32" transform="translate(63.623047 0)"/>
       <use xlink:href="#DejaVuSans-30" transform="translate(127.246094 0)"/>
      </g>
     </g>
    </g>
    <g id="xtick_4">
     <g id="line2d_4">
      <g>
       <use xlink:href="#m2200d9ebee" x="420.745211" y="320.4" style="stroke: #000000; stroke-width: 0.8"/>
      </g>
     </g>
     <g id="text_4">
      <!-- 180 -->
      <g transform="translate(411.201461 334.998438) scale(0.1 -0.1)">
       <defs>
        <path id="DejaVuSans-38" d="M 2034 2216 
Q 1584 2216 1326 1975 
Q 1069 1734 1069 1313 
Q 1069 891 1326 650 
Q 1584 409 2034 409 
Q 2484 409 2743 651 
Q 3003 894 3003 1313 
Q 3003 1734 2745 1975 
Q 2488 2216 2034 2216 
z
M 1403 2484 
Q 997 2584 770 2862 
Q 544 3141 544 3541 
Q 544 4100 942 4425 
Q 1341 4750 2034 4750 
Q 2731 4750 3128 4425 
Q 3525 4100 3525 3541 
Q 3525 3141 3298 2862 
Q 3072 2584 2669 2484 
Q 3125 2378 3379 2068 
Q 3634 1759 3634 1313 
Q 3634 634 3220 271 
Q 2806 -91 2034 -91 
Q 1263 -91 848 271 
Q 434 634 434 1313 
Q 434 1759 690 2068 
Q 947 2378 1403 2484 
z
M 1172 3481 
Q 1172 3119 1398 2916 
Q 1625 2713 2034 2713 
Q 2441 2713 2670 2916 
Q 2900 3119 2900 3481 
Q 2900 3844 2670 4047 
Q 2441 4250 2034 4250 
Q 1625 4250 1398 4047 
Q 1172 3844 1172 3481 
z
" transform="scale(0.015625)"/>
       </defs>
       <use xlink:href="#DejaVuSans-31"/>
       <use xlink:href="#DejaVuSans-38" transform="translate(63.623047 0)"/>
       <use xlink:href="#DejaVuSans-30" transform="translate(127.246094 0)"/>
      </g>
     </g>
    </g>
    <g id="xtick_5">
     <g id="line2d_5">
      <g>
       <use xlink:href="#m2200d9ebee" x="522.53907" y="320.4" style="stroke: #000000; stroke-width: 0.8"/>
      </g>
     </g>
     <g id="text_5">
      <!-- 240 -->
      <g transform="translate(512.99532 334.998438) scale(0.1 -0.1)">
       <defs>
        <path id="DejaVuSans-34" d="M 2419 4116 
L 825 1625 
L 2419 1625 
L 2419 4116 
z
M 2253 4666 
L 3047 4666 
L 3047 1625 
L 3713 1625 
L 3713 1100 
L 3047 1100 
L 3047 0 
L 2419 0 
L 2419 1100 
L 313 1100 
L 313 1709 
L 2253 4666 
z
" transform="scale(0.015625)"/>
       </defs>
       <use xlink:href="#DejaVuSans-32"/>
       <use xlink:href="#DejaVuSans-34" transform="translate(63.623047 0)"/>
       <use xlink:href="#DejaVuSans-30" transform="translate(127.246094 0)"/>
      </g>
     </g>
    </g>
    <g id="text_6">
     <!-- Epoch -->
     <g transform="translate(353.689062 348.676562) scale(0.1 -0.1)">
      <defs>
       <path id="DejaVuSans-45" d="M 628 4666 
L 3578 4666 
L 3578 4134 
L 1259 4134 
L 1259 2753 
L 3481 2753 
L 3481 2222 
L 1259 2222 
L 1259 531 
L 3634 531 
L 3634 0 
L 628 0 
L 628 4666 
z
" transform="scale(0.015625)"/>
       <path id="DejaVuSans-70" d="M 1159 525 
L 1159 -1331 
L 581 -1331 
L 581 3500 
L 1159 3500 
L 1159 2969 
Q 1341 3281 1617 3432 
Q 1894 3584 2278 3584 
Q 2916 3584 3314 3078 
Q 3713 2572 3713 1747 
Q 3713 922 3314 415 
Q 2916 -91 2278 -91 
Q 1894 -91 1617 61 
Q 1341 213 1159 525 
z
M 3116 1747 
Q 3116 2381 2855 2742 
Q 2594 3103 2138 3103 
Q 1681 3103 1420 2742 
Q 1159 2381 1159 1747 
Q 1159 1113 1420 752 
Q 1681 391 2138 391 
Q 2594 391 2855 752 
Q 3116 1113 3116 1747 
z
" transform="scale(0.015625)"/>
       <path id="DejaVuSans-6f" d="M 1959 3097 
Q 1497 3097 1228 2736 
Q 959 2375 959 1747 
Q 959 1119 1226 758 
Q 1494 397 1959 397 
Q 2419 397 2687 759 
Q 2956 1122 2956 1747 
Q 2956 2369 2687 2733 
Q 2419 3097 1959 3097 
z
M 1959 3584 
Q 2709 3584 3137 3096 
Q 3566 2609 3566 1747 
Q 3566 888 3137 398 
Q 2709 -91 1959 -91 
Q 1206 -91 779 398 
Q 353 888 353 1747 
Q 353 2609 779 3096 
Q 1206 3584 1959 3584 
z
" transform="scale(0.015625)"/>
       <path id="DejaVuSans-63" d="M 3122 3366 
L 3122 2828 
Q 2878 2963 2633 3030 
Q 2388 3097 2138 3097 
Q 1578 3097 1268 2742 
Q 959 2388 959 1747 
Q 959 1106 1268 751 
Q 1578 397 2138 397 
Q 2388 397 2633 464 
Q 2878 531 3122 666 
L 3122 134 
Q 2881 22 2623 -34 
Q 2366 -91 2075 -91 
Q 1284 -91 818 406 
Q 353 903 353 1747 
Q 353 2603 823 3093 
Q 1294 3584 2113 3584 
Q 2378 3584 2631 3529 
Q 2884 3475 3122 3366 
z
" transform="scale(0.015625)"/>
       <path id="DejaVuSans-68" d="M 3513 2113 
L 3513 0 
L 2938 0 
L 2938 2094 
Q 2938 2591 2744 2837 
Q 2550 3084 2163 3084 
Q 1697 3084 1428 2787 
Q 1159 2491 1159 1978 
L 1159 0 
L 581 0 
L 581 4863 
L 1159 4863 
L 1159 2956 
Q 1366 3272 1645 3428 
Q 1925 3584 2291 3584 
Q 2894 3584 3203 3211 
Q 3513 2838 3513 2113 
z
" transform="scale(0.015625)"/>
      </defs>
      <use xlink:href="#DejaVuSans-45"/>
      <use xlink:href="#DejaVuSans-70" transform="translate(63.183594 0)"/>
      <use xlink:href="#DejaVuSans-6f" transform="translate(126.660156 0)"/>
      <use xlink:href="#DejaVuSans-63" transform="translate(187.841797 0)"/>
      <use xlink:href="#DejaVuSans-68" transform="translate(242.822266 0)"/>
     </g>
    </g>
   </g>
   <g id="matplotlib.axis_2">
    <g id="ytick_1">
     <g id="line2d_6">
      <defs>
       <path id="mf4aeab9c06" d="M 0 0 
L -3.5 0 
" style="stroke: #000000; stroke-width: 0.8"/>
      </defs>
      <g>
       <use xlink:href="#mf4aeab9c06" x="90" y="309.328093" style="stroke: #000000; stroke-width: 0.8"/>
      </g>
     </g>
     <g id="text_7">
      <!-- 0.00 -->
      <g transform="translate(60.734375 313.127312) scale(0.1 -0.1)">
       <defs>
        <path id="DejaVuSans-2e" d="M 684 794 
L 1344 794 
L 1344 0 
L 684 0 
L 684 794 
z
" transform="scale(0.015625)"/>
       </defs>
       <use xlink:href="#DejaVuSans-30"/>
       <use xlink:href="#DejaVuSans-2e" transform="translate(63.623047 0)"/>
       <use xlink:href="#DejaVuSans-30" transform="translate(95.410156 0)"/>
       <use xlink:href="#DejaVuSans-30" transform="translate(159.033203 0)"/>
      </g>
     </g>
    </g>
    <g id="ytick_2">
     <g id="line2d_7">
      <g>
       <use xlink:href="#mf4aeab9c06" x="90" y="261.561913" style="stroke: #000000; stroke-width: 0.8"/>
      </g>
     </g>
     <g id="text_8">
      <!-- 0.05 -->
      <g transform="translate(60.734375 265.361132) scale(0.1 -0.1)">
       <defs>
        <path id="DejaVuSans-35" d="M 691 4666 
L 3169 4666 
L 3169 4134 
L 1269 4134 
L 1269 2991 
Q 1406 3038 1543 3061 
Q 1681 3084 1819 3084 
Q 2600 3084 3056 2656 
Q 3513 2228 3513 1497 
Q 3513 744 3044 326 
Q 2575 -91 1722 -91 
Q 1428 -91 1123 -41 
Q 819 9 494 109 
L 494 744 
Q 775 591 1075 516 
Q 1375 441 1709 441 
Q 2250 441 2565 725 
Q 2881 1009 2881 1497 
Q 2881 1984 2565 2268 
Q 2250 2553 1709 2553 
Q 1456 2553 1204 2497 
Q 953 2441 691 2322 
L 691 4666 
z
" transform="scale(0.015625)"/>
       </defs>
       <use xlink:href="#DejaVuSans-30"/>
       <use xlink:href="#DejaVuSans-2e" transform="translate(63.623047 0)"/>
       <use xlink:href="#DejaVuSans-30" transform="translate(95.410156 0)"/>
       <use xlink:href="#DejaVuSans-35" transform="translate(159.033203 0)"/>
      </g>
     </g>
    </g>
    <g id="ytick_3">
     <g id="line2d_8">
      <g>
       <use xlink:href="#mf4aeab9c06" x="90" y="213.795733" style="stroke: #000000; stroke-width: 0.8"/>
      </g>
     </g>
     <g id="text_9">
      <!-- 0.10 -->
      <g transform="translate(60.734375 217.594952) scale(0.1 -0.1)">
       <use xlink:href="#DejaVuSans-30"/>
       <use xlink:href="#DejaVuSans-2e" transform="translate(63.623047 0)"/>
       <use xlink:href="#DejaVuSans-31" transform="translate(95.410156 0)"/>
       <use xlink:href="#DejaVuSans-30" transform="translate(159.033203 0)"/>
      </g>
     </g>
    </g>
    <g id="ytick_4">
     <g id="line2d_9">
      <g>
       <use xlink:href="#mf4aeab9c06" x="90" y="166.029554" style="stroke: #000000; stroke-width: 0.8"/>
      </g>
     </g>
     <g id="text_10">
      <!-- 0.15 -->
      <g transform="translate(60.734375 169.828772) scale(0.1 -0.1)">
       <use xlink:href="#DejaVuSans-30"/>
       <use xlink:href="#DejaVuSans-2e" transform="translate(63.623047 0)"/>
       <use xlink:href="#DejaVuSans-31" transform="translate(95.410156 0)"/>
       <use xlink:href="#DejaVuSans-35" transform="translate(159.033203 0)"/>
      </g>
     </g>
    </g>
    <g id="ytick_5">
     <g id="line2d_10">
      <g>
       <use xlink:href="#mf4aeab9c06" x="90" y="118.263374" style="stroke: #000000; stroke-width: 0.8"/>
      </g>
     </g>
     <g id="text_11">
      <!-- 0.20 -->
      <g transform="translate(60.734375 122.062593) scale(0.1 -0.1)">
       <use xlink:href="#DejaVuSans-30"/>
       <use xlink:href="#DejaVuSans-2e" transform="translate(63.623047 0)"/>
       <use xlink:href="#DejaVuSans-32" transform="translate(95.410156 0)"/>
       <use xlink:href="#DejaVuSans-30" transform="translate(159.033203 0)"/>
      </g>
     </g>
    </g>
    <g id="ytick_6">
     <g id="line2d_11">
      <g>
       <use xlink:href="#mf4aeab9c06" x="90" y="70.497194" style="stroke: #000000; stroke-width: 0.8"/>
      </g>
     </g>
     <g id="text_12">
      <!-- 0.25 -->
      <g transform="translate(60.734375 74.296413) scale(0.1 -0.1)">
       <use xlink:href="#DejaVuSans-30"/>
       <use xlink:href="#DejaVuSans-2e" transform="translate(63.623047 0)"/>
       <use xlink:href="#DejaVuSans-32" transform="translate(95.410156 0)"/>
       <use xlink:href="#DejaVuSans-35" transform="translate(159.033203 0)"/>
      </g>
     </g>
    </g>
    <g id="text_13">
     <!-- Estimation Loss -->
     <g transform="translate(54.654687 220.98125) rotate(-90) scale(0.1 -0.1)">
      <defs>
       <path id="DejaVuSans-73" d="M 2834 3397 
L 2834 2853 
Q 2591 2978 2328 3040 
Q 2066 3103 1784 3103 
Q 1356 3103 1142 2972 
Q 928 2841 928 2578 
Q 928 2378 1081 2264 
Q 1234 2150 1697 2047 
L 1894 2003 
Q 2506 1872 2764 1633 
Q 3022 1394 3022 966 
Q 3022 478 2636 193 
Q 2250 -91 1575 -91 
Q 1294 -91 989 -36 
Q 684 19 347 128 
L 347 722 
Q 666 556 975 473 
Q 1284 391 1588 391 
Q 1994 391 2212 530 
Q 2431 669 2431 922 
Q 2431 1156 2273 1281 
Q 2116 1406 1581 1522 
L 1381 1569 
Q 847 1681 609 1914 
Q 372 2147 372 2553 
Q 372 3047 722 3315 
Q 1072 3584 1716 3584 
Q 2034 3584 2315 3537 
Q 2597 3491 2834 3397 
z
" transform="scale(0.015625)"/>
       <path id="DejaVuSans-74" d="M 1172 4494 
L 1172 3500 
L 2356 3500 
L 2356 3053 
L 1172 3053 
L 1172 1153 
Q 1172 725 1289 603 
Q 1406 481 1766 481 
L 2356 481 
L 2356 0 
L 1766 0 
Q 1100 0 847 248 
Q 594 497 594 1153 
L 594 3053 
L 172 3053 
L 172 3500 
L 594 3500 
L 594 4494 
L 1172 4494 
z
" transform="scale(0.015625)"/>
       <path id="DejaVuSans-69" d="M 603 3500 
L 1178 3500 
L 1178 0 
L 603 0 
L 603 3500 
z
M 603 4863 
L 1178 4863 
L 1178 4134 
L 603 4134 
L 603 4863 
z
" transform="scale(0.015625)"/>
       <path id="DejaVuSans-6d" d="M 3328 2828 
Q 3544 3216 3844 3400 
Q 4144 3584 4550 3584 
Q 5097 3584 5394 3201 
Q 5691 2819 5691 2113 
L 5691 0 
L 5113 0 
L 5113 2094 
Q 5113 2597 4934 2840 
Q 4756 3084 4391 3084 
Q 3944 3084 3684 2787 
Q 3425 2491 3425 1978 
L 3425 0 
L 2847 0 
L 2847 2094 
Q 2847 2600 2669 2842 
Q 2491 3084 2119 3084 
Q 1678 3084 1418 2786 
Q 1159 2488 1159 1978 
L 1159 0 
L 581 0 
L 581 3500 
L 1159 3500 
L 1159 2956 
Q 1356 3278 1631 3431 
Q 1906 3584 2284 3584 
Q 2666 3584 2933 3390 
Q 3200 3197 3328 2828 
z
" transform="scale(0.015625)"/>
       <path id="DejaVuSans-61" d="M 2194 1759 
Q 1497 1759 1228 1600 
Q 959 1441 959 1056 
Q 959 750 1161 570 
Q 1363 391 1709 391 
Q 2188 391 2477 730 
Q 2766 1069 2766 1631 
L 2766 1759 
L 2194 1759 
z
M 3341 1997 
L 3341 0 
L 2766 0 
L 2766 531 
Q 2569 213 2275 61 
Q 1981 -91 1556 -91 
Q 1019 -91 701 211 
Q 384 513 384 1019 
Q 384 1609 779 1909 
Q 1175 2209 1959 2209 
L 2766 2209 
L 2766 2266 
Q 2766 2663 2505 2880 
Q 2244 3097 1772 3097 
Q 1472 3097 1187 3025 
Q 903 2953 641 2809 
L 641 3341 
Q 956 3463 1253 3523 
Q 1550 3584 1831 3584 
Q 2591 3584 2966 3190 
Q 3341 2797 3341 1997 
z
" transform="scale(0.015625)"/>
       <path id="DejaVuSans-6e" d="M 3513 2113 
L 3513 0 
L 2938 0 
L 2938 2094 
Q 2938 2591 2744 2837 
Q 2550 3084 2163 3084 
Q 1697 3084 1428 2787 
Q 1159 2491 1159 1978 
L 1159 0 
L 581 0 
L 581 3500 
L 1159 3500 
L 1159 2956 
Q 1366 3272 1645 3428 
Q 1925 3584 2291 3584 
Q 2894 3584 3203 3211 
Q 3513 2838 3513 2113 
z
" transform="scale(0.015625)"/>
       <path id="DejaVuSans-20" transform="scale(0.015625)"/>
       <path id="DejaVuSans-4c" d="M 628 4666 
L 1259 4666 
L 1259 531 
L 3531 531 
L 3531 0 
L 628 0 
L 628 4666 
z
" transform="scale(0.015625)"/>
      </defs>
      <use xlink:href="#DejaVuSans-45"/>
      <use xlink:href="#DejaVuSans-73" transform="translate(63.183594 0)"/>
      <use xlink:href="#DejaVuSans-74" transform="translate(115.283203 0)"/>
      <use xlink:href="#DejaVuSans-69" transform="translate(154.492188 0)"/>
      <use xlink:href="#DejaVuSans-6d" transform="translate(182.275391 0)"/>
      <use xlink:href="#DejaVuSans-61" transform="translate(279.6875 0)"/>
      <use xlink:href="#DejaVuSans-74" transform="translate(340.966797 0)"/>
      <use xlink:href="#DejaVuSans-69" transform="translate(380.175781 0)"/>
      <use xlink:href="#DejaVuSans-6f" transform="translate(407.958984 0)"/>
      <use xlink:href="#DejaVuSans-6e" transform="translate(469.140625 0)"/>
      <use xlink:href="#DejaVuSans-20" transform="translate(532.519531 0)"/>
      <use xlink:href="#DejaVuSans-4c" transform="translate(564.306641 0)"/>
      <use xlink:href="#DejaVuSans-6f" transform="translate(618.269531 0)"/>
      <use xlink:href="#DejaVuSans-73" transform="translate(679.451172 0)"/>
      <use xlink:href="#DejaVuSans-73" transform="translate(731.550781 0)"/>
     </g>
    </g>
   </g>
   <g id="line2d_12">
    <path d="M 115.363636 183.627993 
L 117.060201 186.969491 
L 118.756765 187.929327 
L 120.453329 190.173629 
L 122.149894 190.532912 
L 123.846458 189.115347 
L 125.543022 189.058637 
L 127.239587 190.281029 
L 128.936151 190.875539 
L 130.632715 191.091575 
L 132.329279 191.008071 
L 134.025844 190.756504 
L 135.722408 190.00902 
L 137.418972 189.471615 
L 140.812101 189.519997 
L 142.508665 189.352714 
L 144.20523 188.824892 
L 145.901794 188.144559 
L 147.598358 187.651729 
L 149.294922 187.542087 
L 150.991487 187.25767 
L 154.384615 185.845199 
L 156.08118 185.532852 
L 157.777744 185.435824 
L 161.170873 185.733085 
L 164.564001 185.495824 
L 167.95713 185.525697 
L 173.046823 186.120885 
L 176.439951 186.69677 
L 179.83308 186.681411 
L 184.922773 185.958313 
L 188.315901 185.688821 
L 193.405594 186.275945 
L 195.102159 186.531017 
L 196.798723 186.968584 
L 200.191852 188.219344 
L 201.888416 188.472281 
L 203.58498 188.482977 
L 205.281545 188.676038 
L 206.978109 189.062638 
L 208.674673 189.659071 
L 212.067802 190.621964 
L 215.46093 191.617499 
L 220.550623 192.854086 
L 223.943752 193.670328 
L 225.640316 194.202122 
L 227.336881 194.886216 
L 230.730009 195.898859 
L 237.516266 197.478247 
L 239.212831 197.724972 
L 249.392216 198.359385 
L 256.178474 199.25364 
L 261.268167 200.370755 
L 269.750988 201.291498 
L 279.930374 202.863975 
L 283.323503 203.63413 
L 291.806324 206.241369 
L 295.199453 207.61044 
L 296.896017 208.026338 
L 303.682274 209.063913 
L 305.378839 209.746356 
L 307.075403 210.307035 
L 308.771967 210.591635 
L 310.468531 211.081569 
L 312.165096 212.271481 
L 313.86166 215.051778 
L 315.558224 257.361533 
L 317.254789 295.154495 
L 318.951353 287.51269 
L 320.647917 294.123738 
L 322.344482 295.535578 
L 324.041046 297.757781 
L 325.73761 299.184048 
L 327.434175 300.21893 
L 329.130739 300.871567 
L 330.827303 301.659868 
L 334.220432 302.669636 
L 337.61356 303.259661 
L 349.48951 304.696218 
L 361.365461 305.42006 
L 368.151718 305.713918 
L 383.420797 306.185733 
L 424.13834 306.862298 
L 522.53907 307.483083 
L 622.636364 307.798641 
L 622.636364 307.798641 
" clip-path="url(#p1236f99092)" style="fill: none; stroke: #1f77b4; stroke-width: 1.5; stroke-linecap: square"/>
   </g>
   <g id="line2d_13">
    <path d="M 115.363636 221.686115 
L 117.060201 230.239939 
L 118.756765 236.464081 
L 120.453329 241.537772 
L 122.149894 243.783987 
L 123.846458 243.972098 
L 125.543022 244.428699 
L 127.239587 245.780499 
L 128.936151 246.728433 
L 130.632715 247.173557 
L 132.329279 247.369866 
L 134.025844 247.420471 
L 137.418972 247.159369 
L 140.812101 247.767063 
L 142.508665 248.063244 
L 144.20523 248.056413 
L 145.901794 247.929083 
L 147.598358 247.996356 
L 149.294922 248.240704 
L 150.991487 248.345804 
L 154.384615 248.137376 
L 157.777744 248.447784 
L 161.170873 249.036085 
L 166.260566 249.095477 
L 167.95713 249.20348 
L 178.136516 250.492479 
L 179.83308 250.552609 
L 188.315901 250.088458 
L 195.102159 250.417658 
L 196.798723 250.688636 
L 200.191852 251.593525 
L 201.888416 251.784234 
L 203.58498 251.791624 
L 206.978109 252.181887 
L 213.764366 253.354373 
L 217.157495 253.885503 
L 225.640316 254.735739 
L 229.033445 255.360913 
L 237.516266 256.311103 
L 239.212831 256.391079 
L 245.999088 256.318731 
L 256.178474 256.7574 
L 264.661295 257.357566 
L 271.447552 257.544697 
L 276.537245 257.665457 
L 285.020067 258.222787 
L 296.896017 259.443695 
L 303.682274 259.705353 
L 305.378839 260.024017 
L 307.075403 260.194369 
L 308.771967 260.202621 
L 310.468531 260.393385 
L 312.165096 260.962293 
L 313.86166 262.189266 
L 315.558224 276.61831 
L 317.254789 286.066256 
L 318.951353 284.946952 
L 320.647917 285.518639 
L 324.041046 285.96005 
L 329.130739 285.761577 
L 347.792946 286.184531 
L 356.275768 286.752111 
L 359.668896 286.895183 
L 364.758589 287.08372 
L 369.848282 287.259591 
L 378.331104 287.330221 
L 383.420797 287.436518 
L 395.296747 287.419155 
L 439.407419 287.855543 
L 451.283369 287.940921 
L 456.373062 287.931363 
L 464.855883 288.011551 
L 468.249012 288.028795 
L 485.214655 288.180533 
L 488.607784 288.092599 
L 493.697476 288.172109 
L 517.449377 288.314441 
L 539.504713 288.429225 
L 542.897841 288.441751 
L 544.594406 288.506204 
L 546.29097 288.452505 
L 549.684099 288.523817 
L 573.435999 288.639518 
L 580.222256 288.707331 
L 587.008513 288.711878 
L 590.401642 288.763594 
L 597.187899 288.753283 
L 622.636364 288.935166 
L 622.636364 288.935166 
" clip-path="url(#p1236f99092)" style="fill: none; stroke: #ff7f0e; stroke-width: 1.5; stroke-linecap: square"/>
   </g>
   <g id="line2d_14">
    <path d="M 115.363636 63.139106 
L 117.060201 55.8 
L 118.756765 66.847861 
L 120.453329 70.859951 
L 122.149894 71.70301 
L 123.846458 67.341043 
L 125.543022 71.713717 
L 127.239587 72.184967 
L 128.936151 73.087375 
L 130.632715 74.619756 
L 132.329279 74.421278 
L 134.025844 69.708837 
L 135.722408 68.115929 
L 137.418972 71.080255 
L 139.115537 72.488873 
L 140.812101 72.72561 
L 142.508665 71.801972 
L 144.20523 68.515223 
L 145.901794 63.421179 
L 147.598358 66.146925 
L 149.294922 66.166925 
L 150.991487 65.446549 
L 152.688051 62.613384 
L 154.384615 63.632111 
L 156.08118 59.999873 
L 157.777744 61.151611 
L 159.474308 65.329502 
L 161.170873 61.985677 
L 162.867437 61.294974 
L 164.564001 62.817403 
L 166.260566 61.269293 
L 167.95713 62.672212 
L 171.350258 61.116499 
L 173.046823 62.736173 
L 174.743387 62.443356 
L 176.439951 65.597253 
L 178.136516 63.287061 
L 179.83308 61.907747 
L 181.529644 63.399112 
L 183.226209 63.079689 
L 184.922773 63.615602 
L 186.619337 64.970029 
L 188.315901 64.241684 
L 190.012466 61.872769 
L 191.70903 63.876825 
L 193.405594 64.371994 
L 195.102159 65.061283 
L 196.798723 64.422648 
L 198.495287 66.056414 
L 200.191852 68.038626 
L 201.888416 68.424939 
L 203.58498 68.690198 
L 205.281545 67.661603 
L 206.978109 71.189261 
L 208.674673 71.404182 
L 210.371237 71.796043 
L 212.067802 74.249257 
L 213.764366 73.416888 
L 215.46093 77.033016 
L 218.854059 75.552828 
L 220.550623 79.417013 
L 222.247188 79.754503 
L 223.943752 78.027626 
L 225.640316 80.568943 
L 227.336881 84.584446 
L 229.033445 79.89496 
L 230.730009 85.009999 
L 232.426573 86.974824 
L 234.123138 85.326248 
L 235.819702 86.481879 
L 237.516266 88.428153 
L 239.212831 83.16014 
L 240.909395 88.639432 
L 242.605959 88.342733 
L 244.302524 84.575698 
L 245.999088 88.393051 
L 247.695652 86.67155 
L 249.392216 87.225562 
L 251.088781 90.781855 
L 252.785345 89.227414 
L 254.481909 89.412438 
L 256.178474 90.692468 
L 257.875038 92.386448 
L 259.571602 93.163159 
L 261.268167 94.411113 
L 262.964731 92.077422 
L 264.661295 94.519699 
L 266.35786 95.535156 
L 268.054424 93.772925 
L 269.750988 95.83035 
L 271.447552 93.221068 
L 273.144117 98.024749 
L 274.840681 97.985011 
L 276.537245 93.277563 
L 278.23381 97.631034 
L 279.930374 99.00829 
L 281.626938 96.248408 
L 283.323503 100.660836 
L 285.020067 99.544029 
L 286.716631 100.82496 
L 288.413196 102.306047 
L 290.10976 104.135323 
L 291.806324 104.492516 
L 293.502888 106.468687 
L 295.199453 104.701124 
L 296.896017 107.527425 
L 298.592581 107.711777 
L 301.98571 109.511275 
L 303.682274 109.853405 
L 307.075403 113.455501 
L 308.771967 112.739718 
L 312.165096 118.606475 
L 313.86166 128.46315 
L 315.558224 295.344125 
L 317.254789 261.145452 
L 318.951353 276.854307 
L 320.647917 281.888603 
L 322.344482 286.279301 
L 324.041046 290.14059 
L 325.73761 292.473455 
L 327.434175 293.701103 
L 329.130739 295.21775 
L 330.827303 296.497346 
L 332.523867 297.534006 
L 335.916996 298.743263 
L 337.61356 299.238329 
L 339.310125 299.432545 
L 341.006689 299.99079 
L 342.703253 300.422763 
L 351.186075 301.678535 
L 352.882639 301.799414 
L 354.579203 302.08044 
L 357.972332 302.391894 
L 366.455154 303.144736 
L 368.151718 303.115464 
L 371.544846 303.49972 
L 374.937975 303.710503 
L 383.420797 304.130638 
L 391.903618 304.450562 
L 395.296747 304.630227 
L 402.083004 304.760583 
L 405.476133 304.830008 
L 412.26239 304.923477 
L 415.655518 305.094824 
L 447.89024 305.566045 
L 451.283369 305.563146 
L 452.979933 305.646857 
L 456.373062 305.657762 
L 466.552448 305.701473 
L 469.945576 305.794625 
L 492.000912 305.970613 
L 495.394041 306.010933 
L 502.180298 306.048056 
L 505.573427 306.167862 
L 514.056248 306.14308 
L 517.449377 306.200642 
L 520.842505 306.221741 
L 527.628763 306.306619 
L 532.718455 306.250794 
L 536.111584 306.325751 
L 544.594406 306.33469 
L 546.29097 306.324087 
L 547.987534 306.435465 
L 554.773791 306.368428 
L 556.470356 306.473676 
L 563.256613 306.469741 
L 570.04287 306.487959 
L 571.739434 306.582217 
L 580.222256 306.523343 
L 583.615385 306.593068 
L 598.884463 306.619516 
L 610.760413 306.694292 
L 612.456978 306.647341 
L 614.153542 306.746867 
L 617.546671 306.654528 
L 620.939799 306.699851 
L 622.636364 306.719239 
L 622.636364 306.719239 
" clip-path="url(#p1236f99092)" style="fill: none; stroke: #2ca02c; stroke-width: 1.5; stroke-linecap: square"/>
   </g>
   <g id="line2d_15">
    <path d="M 115.363636 144.74094 
L 117.060201 152.32355 
L 118.756765 168.121083 
L 120.453329 176.551541 
L 122.149894 179.423999 
L 123.846458 178.018918 
L 125.543022 181.29585 
L 127.239587 183.099628 
L 128.936151 184.512154 
L 130.632715 185.554861 
L 132.329279 185.889049 
L 134.025844 183.450351 
L 135.722408 183.076449 
L 137.418972 185.440856 
L 140.812101 188.102664 
L 142.508665 188.090334 
L 144.20523 186.779228 
L 145.901794 184.536922 
L 147.598358 186.947804 
L 149.294922 187.820583 
L 150.991487 187.912781 
L 152.688051 186.820492 
L 154.384615 188.001845 
L 156.08118 186.272959 
L 157.777744 187.508438 
L 159.474308 190.530017 
L 161.170873 188.789759 
L 162.867437 188.334917 
L 164.564001 189.233508 
L 166.260566 188.332145 
L 167.95713 189.379551 
L 169.653694 189.264472 
L 171.350258 189.280587 
L 173.046823 190.37191 
L 174.743387 190.208094 
L 176.439951 192.371065 
L 178.136516 191.20833 
L 179.83308 190.520697 
L 181.529644 191.566508 
L 183.226209 191.422703 
L 184.922773 191.554113 
L 186.619337 192.231968 
L 188.315901 191.78851 
L 190.012466 189.938865 
L 191.70903 190.816429 
L 195.102159 191.582641 
L 196.798723 191.237584 
L 200.191852 194.202802 
L 203.58498 194.611704 
L 205.281545 194.030508 
L 206.978109 196.144553 
L 210.371237 196.112973 
L 212.067802 197.872023 
L 213.764366 197.385753 
L 215.46093 199.614818 
L 217.157495 199.176111 
L 218.854059 198.390994 
L 220.550623 200.632502 
L 222.247188 200.488714 
L 223.943752 199.242335 
L 225.640316 200.751851 
L 227.336881 203.040853 
L 229.033445 200.040363 
L 230.730009 203.199429 
L 232.426573 204.363405 
L 234.123138 203.281879 
L 235.819702 203.869172 
L 237.516266 205.003056 
L 239.212831 201.376026 
L 240.909395 204.730877 
L 242.605959 204.296801 
L 244.302524 201.605328 
L 245.999088 204.221491 
L 247.695652 202.903726 
L 249.392216 203.446506 
L 251.088781 205.437605 
L 252.785345 204.441589 
L 254.481909 204.318737 
L 257.875038 205.930153 
L 259.571602 206.303961 
L 261.268167 207.09406 
L 262.964731 205.397871 
L 264.661295 206.846061 
L 266.35786 207.24963 
L 268.054424 206.026697 
L 269.750988 207.096988 
L 271.447552 205.237128 
L 273.144117 208.150252 
L 274.840681 207.784681 
L 276.537245 204.575215 
L 278.23381 207.20029 
L 279.930374 207.65132 
L 281.626938 205.680728 
L 283.323503 208.139286 
L 285.020067 207.128074 
L 288.413196 208.247138 
L 290.10976 209.212849 
L 291.806324 209.160026 
L 293.502888 209.954426 
L 295.199453 208.434512 
L 296.896017 209.875032 
L 298.592581 209.837868 
L 303.682274 210.637866 
L 305.378839 211.387236 
L 307.075403 212.337066 
L 308.771967 211.45955 
L 312.165096 214.378942 
L 313.86166 219.105057 
L 315.558224 263.418954 
L 317.254789 262.206062 
L 318.951353 262.92184 
L 320.647917 264.165148 
L 322.344482 264.502331 
L 324.041046 263.999313 
L 325.73761 263.874468 
L 327.434175 264.27574 
L 330.827303 264.364868 
L 332.523867 264.130076 
L 334.220432 264.565262 
L 335.916996 264.633934 
L 337.61356 264.359049 
L 339.310125 264.995473 
L 341.006689 264.148304 
L 342.703253 263.943766 
L 344.399818 264.97645 
L 346.096382 265.227987 
L 347.792946 265.212019 
L 349.48951 265.991406 
L 351.186075 265.961722 
L 352.882639 266.369124 
L 354.579203 266.291334 
L 356.275768 266.509032 
L 357.972332 266.429722 
L 359.668896 266.807085 
L 361.365461 267.343406 
L 363.062025 266.750214 
L 368.151718 266.989048 
L 369.848282 266.923207 
L 371.544846 266.559717 
L 373.241411 266.418037 
L 374.937975 266.70129 
L 376.634539 266.522425 
L 378.331104 267.112251 
L 380.027668 265.936373 
L 381.724232 266.835702 
L 383.420797 267.09925 
L 385.117361 266.343043 
L 386.813925 267.283679 
L 388.51049 266.935992 
L 390.207054 266.46333 
L 391.903618 267.276432 
L 393.600182 266.674654 
L 395.296747 266.989915 
L 396.993311 266.801064 
L 398.689875 266.990434 
L 400.38644 266.244684 
L 402.083004 266.969091 
L 403.779568 266.707233 
L 405.476133 267.39293 
L 407.172697 267.067044 
L 408.869261 267.480863 
L 410.565825 267.386453 
L 412.26239 267.008086 
L 413.958954 267.560052 
L 415.655518 266.836787 
L 417.352083 266.90827 
L 419.048647 268.046453 
L 420.745211 267.491067 
L 422.441776 267.150362 
L 424.13834 267.143643 
L 425.834904 267.317733 
L 427.531469 267.023535 
L 429.228033 267.558048 
L 430.924597 267.468071 
L 432.621161 267.619503 
L 434.317726 266.857186 
L 436.01429 267.600717 
L 437.710854 267.797399 
L 439.407419 266.946621 
L 441.103983 267.243535 
L 442.800547 266.960859 
L 446.193676 267.487935 
L 447.89024 267.318011 
L 449.586804 267.381594 
L 451.283369 267.887044 
L 452.979933 267.499441 
L 456.373062 267.683816 
L 458.069626 267.417582 
L 459.76619 268.148538 
L 461.462755 268.333055 
L 463.159319 267.692404 
L 468.249012 268.262071 
L 469.945576 267.998964 
L 471.64214 268.055414 
L 473.338705 267.874312 
L 475.035269 267.921649 
L 476.731833 267.794864 
L 478.428398 268.269592 
L 480.124962 268.098602 
L 483.518091 268.474937 
L 485.214655 268.352586 
L 486.911219 268.086938 
L 488.607784 268.288098 
L 490.304348 267.89953 
L 492.000912 268.00296 
L 493.697476 267.558462 
L 495.394041 267.859224 
L 497.090605 268.036377 
L 498.787169 267.87697 
L 500.483734 268.359001 
L 502.180298 268.39077 
L 503.876862 267.851435 
L 505.573427 267.715183 
L 508.966555 268.411375 
L 510.663119 267.748208 
L 512.359684 268.26006 
L 519.145941 268.038732 
L 520.842505 268.519108 
L 522.53907 268.136806 
L 524.235634 268.892202 
L 525.932198 268.667206 
L 527.628763 268.174052 
L 529.325327 268.788996 
L 531.021891 268.66746 
L 532.718455 269.064897 
L 534.41502 268.166012 
L 536.111584 268.718013 
L 537.808148 269.075673 
L 539.504713 268.784787 
L 542.897841 268.661888 
L 544.594406 268.463044 
L 546.29097 269.107788 
L 547.987534 268.868945 
L 549.684099 268.856632 
L 551.380663 269.003477 
L 553.077227 268.999433 
L 554.773791 268.793164 
L 556.470356 268.219855 
L 558.16692 268.774736 
L 559.863484 268.98624 
L 561.560049 269.080185 
L 563.256613 268.589909 
L 564.953177 268.995877 
L 566.649742 268.429772 
L 568.346306 268.618991 
L 570.04287 268.656622 
L 573.435999 269.233697 
L 575.132563 268.777299 
L 576.829127 268.730623 
L 578.525692 269.121504 
L 580.222256 268.566518 
L 581.91882 268.77057 
L 583.615385 268.40689 
L 585.311949 269.063346 
L 587.008513 269.442659 
L 588.705078 268.788728 
L 592.098206 269.596108 
L 593.79477 269.128177 
L 595.491335 269.456845 
L 597.187899 269.603438 
L 598.884463 269.636744 
L 600.581028 269.241385 
L 603.974156 269.494304 
L 605.670721 269.089104 
L 607.367285 269.471468 
L 609.063849 269.345673 
L 610.760413 269.777368 
L 612.456978 269.416157 
L 614.153542 269.749542 
L 615.850106 269.635186 
L 617.546671 269.382146 
L 619.243235 269.853888 
L 620.939799 270.06863 
L 622.636364 269.68999 
L 622.636364 269.68999 
" clip-path="url(#p1236f99092)" style="fill: none; stroke: #d62728; stroke-width: 1.5; stroke-linecap: square"/>
   </g>
   <g id="patch_3">
    <path d="M 90 320.4 
L 90 43.2 
" style="fill: none; stroke: #000000; stroke-width: 0.8; stroke-linejoin: miter; stroke-linecap: square"/>
   </g>
   <g id="patch_4">
    <path d="M 648 320.4 
L 648 43.2 
" style="fill: none; stroke: #000000; stroke-width: 0.8; stroke-linejoin: miter; stroke-linecap: square"/>
   </g>
   <g id="patch_5">
    <path d="M 90 320.4 
L 648 320.4 
" style="fill: none; stroke: #000000; stroke-width: 0.8; stroke-linejoin: miter; stroke-linecap: square"/>
   </g>
   <g id="patch_6">
    <path d="M 90 43.2 
L 648 43.2 
" style="fill: none; stroke: #000000; stroke-width: 0.8; stroke-linejoin: miter; stroke-linecap: square"/>
   </g>
   <g id="text_14">
    <!-- Training and Validating Estimation Loss -->
    <g transform="translate(251.535937 37.2) scale(0.12 -0.12)">
     <defs>
      <path id="DejaVuSans-54" d="M -19 4666 
L 3928 4666 
L 3928 4134 
L 2272 4134 
L 2272 0 
L 1638 0 
L 1638 4134 
L -19 4134 
L -19 4666 
z
" transform="scale(0.015625)"/>
      <path id="DejaVuSans-72" d="M 2631 2963 
Q 2534 3019 2420 3045 
Q 2306 3072 2169 3072 
Q 1681 3072 1420 2755 
Q 1159 2438 1159 1844 
L 1159 0 
L 581 0 
L 581 3500 
L 1159 3500 
L 1159 2956 
Q 1341 3275 1631 3429 
Q 1922 3584 2338 3584 
Q 2397 3584 2469 3576 
Q 2541 3569 2628 3553 
L 2631 2963 
z
" transform="scale(0.015625)"/>
      <path id="DejaVuSans-67" d="M 2906 1791 
Q 2906 2416 2648 2759 
Q 2391 3103 1925 3103 
Q 1463 3103 1205 2759 
Q 947 2416 947 1791 
Q 947 1169 1205 825 
Q 1463 481 1925 481 
Q 2391 481 2648 825 
Q 2906 1169 2906 1791 
z
M 3481 434 
Q 3481 -459 3084 -895 
Q 2688 -1331 1869 -1331 
Q 1566 -1331 1297 -1286 
Q 1028 -1241 775 -1147 
L 775 -588 
Q 1028 -725 1275 -790 
Q 1522 -856 1778 -856 
Q 2344 -856 2625 -561 
Q 2906 -266 2906 331 
L 2906 616 
Q 2728 306 2450 153 
Q 2172 0 1784 0 
Q 1141 0 747 490 
Q 353 981 353 1791 
Q 353 2603 747 3093 
Q 1141 3584 1784 3584 
Q 2172 3584 2450 3431 
Q 2728 3278 2906 2969 
L 2906 3500 
L 3481 3500 
L 3481 434 
z
" transform="scale(0.015625)"/>
      <path id="DejaVuSans-64" d="M 2906 2969 
L 2906 4863 
L 3481 4863 
L 3481 0 
L 2906 0 
L 2906 525 
Q 2725 213 2448 61 
Q 2172 -91 1784 -91 
Q 1150 -91 751 415 
Q 353 922 353 1747 
Q 353 2572 751 3078 
Q 1150 3584 1784 3584 
Q 2172 3584 2448 3432 
Q 2725 3281 2906 2969 
z
M 947 1747 
Q 947 1113 1208 752 
Q 1469 391 1925 391 
Q 2381 391 2643 752 
Q 2906 1113 2906 1747 
Q 2906 2381 2643 2742 
Q 2381 3103 1925 3103 
Q 1469 3103 1208 2742 
Q 947 2381 947 1747 
z
" transform="scale(0.015625)"/>
      <path id="DejaVuSans-56" d="M 1831 0 
L 50 4666 
L 709 4666 
L 2188 738 
L 3669 4666 
L 4325 4666 
L 2547 0 
L 1831 0 
z
" transform="scale(0.015625)"/>
      <path id="DejaVuSans-6c" d="M 603 4863 
L 1178 4863 
L 1178 0 
L 603 0 
L 603 4863 
z
" transform="scale(0.015625)"/>
     </defs>
     <use xlink:href="#DejaVuSans-54"/>
     <use xlink:href="#DejaVuSans-72" transform="translate(46.333984 0)"/>
     <use xlink:href="#DejaVuSans-61" transform="translate(87.447266 0)"/>
     <use xlink:href="#DejaVuSans-69" transform="translate(148.726562 0)"/>
     <use xlink:href="#DejaVuSans-6e" transform="translate(176.509766 0)"/>
     <use xlink:href="#DejaVuSans-69" transform="translate(239.888672 0)"/>
     <use xlink:href="#DejaVuSans-6e" transform="translate(267.671875 0)"/>
     <use xlink:href="#DejaVuSans-67" transform="translate(331.050781 0)"/>
     <use xlink:href="#DejaVuSans-20" transform="translate(394.527344 0)"/>
     <use xlink:href="#DejaVuSans-61" transform="translate(426.314453 0)"/>
     <use xlink:href="#DejaVuSans-6e" transform="translate(487.59375 0)"/>
     <use xlink:href="#DejaVuSans-64" transform="translate(550.972656 0)"/>
     <use xlink:href="#DejaVuSans-20" transform="translate(614.449219 0)"/>
     <use xlink:href="#DejaVuSans-56" transform="translate(646.236328 0)"/>
     <use xlink:href="#DejaVuSans-61" transform="translate(706.894531 0)"/>
     <use xlink:href="#DejaVuSans-6c" transform="translate(768.173828 0)"/>
     <use xlink:href="#DejaVuSans-69" transform="translate(795.957031 0)"/>
     <use xlink:href="#DejaVuSans-64" transform="translate(823.740234 0)"/>
     <use xlink:href="#DejaVuSans-61" transform="translate(887.216797 0)"/>
     <use xlink:href="#DejaVuSans-74" transform="translate(948.496094 0)"/>
     <use xlink:href="#DejaVuSans-69" transform="translate(987.705078 0)"/>
     <use xlink:href="#DejaVuSans-6e" transform="translate(1015.488281 0)"/>
     <use xlink:href="#DejaVuSans-67" transform="translate(1078.867188 0)"/>
     <use xlink:href="#DejaVuSans-20" transform="translate(1142.34375 0)"/>
     <use xlink:href="#DejaVuSans-45" transform="translate(1174.130859 0)"/>
     <use xlink:href="#DejaVuSans-73" transform="translate(1237.314453 0)"/>
     <use xlink:href="#DejaVuSans-74" transform="translate(1289.414062 0)"/>
     <use xlink:href="#DejaVuSans-69" transform="translate(1328.623047 0)"/>
     <use xlink:href="#DejaVuSans-6d" transform="translate(1356.40625 0)"/>
     <use xlink:href="#DejaVuSans-61" transform="translate(1453.818359 0)"/>
     <use xlink:href="#DejaVuSans-74" transform="translate(1515.097656 0)"/>
     <use xlink:href="#DejaVuSans-69" transform="translate(1554.306641 0)"/>
     <use xlink:href="#DejaVuSans-6f" transform="translate(1582.089844 0)"/>
     <use xlink:href="#DejaVuSans-6e" transform="translate(1643.271484 0)"/>
     <use xlink:href="#DejaVuSans-20" transform="translate(1706.650391 0)"/>
     <use xlink:href="#DejaVuSans-4c" transform="translate(1738.4375 0)"/>
     <use xlink:href="#DejaVuSans-6f" transform="translate(1792.400391 0)"/>
     <use xlink:href="#DejaVuSans-73" transform="translate(1853.582031 0)"/>
     <use xlink:href="#DejaVuSans-73" transform="translate(1905.681641 0)"/>
    </g>
   </g>
   <g id="legend_1">
    <g id="patch_7">
     <path d="M 521.439062 109.9125 
L 641 109.9125 
Q 643 109.9125 643 107.9125 
L 643 50.2 
Q 643 48.2 641 48.2 
L 521.439062 48.2 
Q 519.439062 48.2 519.439062 50.2 
L 519.439062 107.9125 
Q 519.439062 109.9125 521.439062 109.9125 
z
" style="fill: #ffffff; opacity: 0.8; stroke: #cccccc; stroke-linejoin: miter"/>
    </g>
    <g id="line2d_16">
     <path d="M 523.439062 56.298437 
L 533.439062 56.298437 
L 543.439062 56.298437 
" style="fill: none; stroke: #1f77b4; stroke-width: 1.5; stroke-linecap: square"/>
    </g>
    <g id="text_15">
     <!-- Training-Source -->
     <g transform="translate(551.439062 59.798437) scale(0.1 -0.1)">
      <defs>
       <path id="DejaVuSans-2d" d="M 313 2009 
L 1997 2009 
L 1997 1497 
L 313 1497 
L 313 2009 
z
" transform="scale(0.015625)"/>
       <path id="DejaVuSans-53" d="M 3425 4513 
L 3425 3897 
Q 3066 4069 2747 4153 
Q 2428 4238 2131 4238 
Q 1616 4238 1336 4038 
Q 1056 3838 1056 3469 
Q 1056 3159 1242 3001 
Q 1428 2844 1947 2747 
L 2328 2669 
Q 3034 2534 3370 2195 
Q 3706 1856 3706 1288 
Q 3706 609 3251 259 
Q 2797 -91 1919 -91 
Q 1588 -91 1214 -16 
Q 841 59 441 206 
L 441 856 
Q 825 641 1194 531 
Q 1563 422 1919 422 
Q 2459 422 2753 634 
Q 3047 847 3047 1241 
Q 3047 1584 2836 1778 
Q 2625 1972 2144 2069 
L 1759 2144 
Q 1053 2284 737 2584 
Q 422 2884 422 3419 
Q 422 4038 858 4394 
Q 1294 4750 2059 4750 
Q 2388 4750 2728 4690 
Q 3069 4631 3425 4513 
z
" transform="scale(0.015625)"/>
       <path id="DejaVuSans-75" d="M 544 1381 
L 544 3500 
L 1119 3500 
L 1119 1403 
Q 1119 906 1312 657 
Q 1506 409 1894 409 
Q 2359 409 2629 706 
Q 2900 1003 2900 1516 
L 2900 3500 
L 3475 3500 
L 3475 0 
L 2900 0 
L 2900 538 
Q 2691 219 2414 64 
Q 2138 -91 1772 -91 
Q 1169 -91 856 284 
Q 544 659 544 1381 
z
M 1991 3584 
L 1991 3584 
z
" transform="scale(0.015625)"/>
       <path id="DejaVuSans-65" d="M 3597 1894 
L 3597 1613 
L 953 1613 
Q 991 1019 1311 708 
Q 1631 397 2203 397 
Q 2534 397 2845 478 
Q 3156 559 3463 722 
L 3463 178 
Q 3153 47 2828 -22 
Q 2503 -91 2169 -91 
Q 1331 -91 842 396 
Q 353 884 353 1716 
Q 353 2575 817 3079 
Q 1281 3584 2069 3584 
Q 2775 3584 3186 3129 
Q 3597 2675 3597 1894 
z
M 3022 2063 
Q 3016 2534 2758 2815 
Q 2500 3097 2075 3097 
Q 1594 3097 1305 2825 
Q 1016 2553 972 2059 
L 3022 2063 
z
" transform="scale(0.015625)"/>
      </defs>
      <use xlink:href="#DejaVuSans-54"/>
      <use xlink:href="#DejaVuSans-72" transform="translate(46.333984 0)"/>
      <use xlink:href="#DejaVuSans-61" transform="translate(87.447266 0)"/>
      <use xlink:href="#DejaVuSans-69" transform="translate(148.726562 0)"/>
      <use xlink:href="#DejaVuSans-6e" transform="translate(176.509766 0)"/>
      <use xlink:href="#DejaVuSans-69" transform="translate(239.888672 0)"/>
      <use xlink:href="#DejaVuSans-6e" transform="translate(267.671875 0)"/>
      <use xlink:href="#DejaVuSans-67" transform="translate(331.050781 0)"/>
      <use xlink:href="#DejaVuSans-2d" transform="translate(394.527344 0)"/>
      <use xlink:href="#DejaVuSans-53" transform="translate(430.611328 0)"/>
      <use xlink:href="#DejaVuSans-6f" transform="translate(494.087891 0)"/>
      <use xlink:href="#DejaVuSans-75" transform="translate(555.269531 0)"/>
      <use xlink:href="#DejaVuSans-72" transform="translate(618.648438 0)"/>
      <use xlink:href="#DejaVuSans-63" transform="translate(657.511719 0)"/>
      <use xlink:href="#DejaVuSans-65" transform="translate(712.492188 0)"/>
     </g>
    </g>
    <g id="line2d_17">
     <path d="M 523.439062 70.976562 
L 533.439062 70.976562 
L 543.439062 70.976562 
" style="fill: none; stroke: #ff7f0e; stroke-width: 1.5; stroke-linecap: square"/>
    </g>
    <g id="text_16">
     <!-- Training-Target -->
     <g transform="translate(551.439062 74.476562) scale(0.1 -0.1)">
      <use xlink:href="#DejaVuSans-54"/>
      <use xlink:href="#DejaVuSans-72" transform="translate(46.333984 0)"/>
      <use xlink:href="#DejaVuSans-61" transform="translate(87.447266 0)"/>
      <use xlink:href="#DejaVuSans-69" transform="translate(148.726562 0)"/>
      <use xlink:href="#DejaVuSans-6e" transform="translate(176.509766 0)"/>
      <use xlink:href="#DejaVuSans-69" transform="translate(239.888672 0)"/>
      <use xlink:href="#DejaVuSans-6e" transform="translate(267.671875 0)"/>
      <use xlink:href="#DejaVuSans-67" transform="translate(331.050781 0)"/>
      <use xlink:href="#DejaVuSans-2d" transform="translate(394.527344 0)"/>
      <use xlink:href="#DejaVuSans-54" transform="translate(421.486328 0)"/>
      <use xlink:href="#DejaVuSans-61" transform="translate(466.070312 0)"/>
      <use xlink:href="#DejaVuSans-72" transform="translate(527.349609 0)"/>
      <use xlink:href="#DejaVuSans-67" transform="translate(566.712891 0)"/>
      <use xlink:href="#DejaVuSans-65" transform="translate(630.189453 0)"/>
      <use xlink:href="#DejaVuSans-74" transform="translate(691.712891 0)"/>
     </g>
    </g>
    <g id="line2d_18">
     <path d="M 523.439062 85.654687 
L 533.439062 85.654687 
L 543.439062 85.654687 
" style="fill: none; stroke: #2ca02c; stroke-width: 1.5; stroke-linecap: square"/>
    </g>
    <g id="text_17">
     <!-- Validating-Source -->
     <g transform="translate(551.439062 89.154687) scale(0.1 -0.1)">
      <use xlink:href="#DejaVuSans-56"/>
      <use xlink:href="#DejaVuSans-61" transform="translate(60.658203 0)"/>
      <use xlink:href="#DejaVuSans-6c" transform="translate(121.9375 0)"/>
      <use xlink:href="#DejaVuSans-69" transform="translate(149.720703 0)"/>
      <use xlink:href="#DejaVuSans-64" transform="translate(177.503906 0)"/>
      <use xlink:href="#DejaVuSans-61" transform="translate(240.980469 0)"/>
      <use xlink:href="#DejaVuSans-74" transform="translate(302.259766 0)"/>
      <use xlink:href="#DejaVuSans-69" transform="translate(341.46875 0)"/>
      <use xlink:href="#DejaVuSans-6e" transform="translate(369.251953 0)"/>
      <use xlink:href="#DejaVuSans-67" transform="translate(432.630859 0)"/>
      <use xlink:href="#DejaVuSans-2d" transform="translate(496.107422 0)"/>
      <use xlink:href="#DejaVuSans-53" transform="translate(532.191406 0)"/>
      <use xlink:href="#DejaVuSans-6f" transform="translate(595.667969 0)"/>
      <use xlink:href="#DejaVuSans-75" transform="translate(656.849609 0)"/>
      <use xlink:href="#DejaVuSans-72" transform="translate(720.228516 0)"/>
      <use xlink:href="#DejaVuSans-63" transform="translate(759.091797 0)"/>
      <use xlink:href="#DejaVuSans-65" transform="translate(814.072266 0)"/>
     </g>
    </g>
    <g id="line2d_19">
     <path d="M 523.439062 100.332812 
L 533.439062 100.332812 
L 543.439062 100.332812 
" style="fill: none; stroke: #d62728; stroke-width: 1.5; stroke-linecap: square"/>
    </g>
    <g id="text_18">
     <!-- Validating-Target -->
     <g transform="translate(551.439062 103.832812) scale(0.1 -0.1)">
      <use xlink:href="#DejaVuSans-56"/>
      <use xlink:href="#DejaVuSans-61" transform="translate(60.658203 0)"/>
      <use xlink:href="#DejaVuSans-6c" transform="translate(121.9375 0)"/>
      <use xlink:href="#DejaVuSans-69" transform="translate(149.720703 0)"/>
      <use xlink:href="#DejaVuSans-64" transform="translate(177.503906 0)"/>
      <use xlink:href="#DejaVuSans-61" transform="translate(240.980469 0)"/>
      <use xlink:href="#DejaVuSans-74" transform="translate(302.259766 0)"/>
      <use xlink:href="#DejaVuSans-69" transform="translate(341.46875 0)"/>
      <use xlink:href="#DejaVuSans-6e" transform="translate(369.251953 0)"/>
      <use xlink:href="#DejaVuSans-67" transform="translate(432.630859 0)"/>
      <use xlink:href="#DejaVuSans-2d" transform="translate(496.107422 0)"/>
      <use xlink:href="#DejaVuSans-54" transform="translate(523.066406 0)"/>
      <use xlink:href="#DejaVuSans-61" transform="translate(567.650391 0)"/>
      <use xlink:href="#DejaVuSans-72" transform="translate(628.929688 0)"/>
      <use xlink:href="#DejaVuSans-67" transform="translate(668.292969 0)"/>
      <use xlink:href="#DejaVuSans-65" transform="translate(731.769531 0)"/>
      <use xlink:href="#DejaVuSans-74" transform="translate(793.292969 0)"/>
     </g>
    </g>
   </g>
  </g>
 </g>
 <defs>
  <clipPath id="p1236f99092">
   <rect x="90" y="43.2" width="558" height="277.2"/>
  </clipPath>
 </defs>
</svg>
