<?xml version="1.0" encoding="utf-8" standalone="no"?>
<!DOCTYPE svg PUBLIC "-//W3C//DTD SVG 1.1//EN"
  "http://www.w3.org/Graphics/SVG/1.1/DTD/svg11.dtd">
<svg xmlns:xlink="http://www.w3.org/1999/xlink" width="720pt" height="360pt" viewBox="0 0 720 360" xmlns="http://www.w3.org/2000/svg" version="1.1">
 <metadata>
  <rdf:RDF xmlns:dc="http://purl.org/dc/elements/1.1/" xmlns:cc="http://creativecommons.org/ns#" xmlns:rdf="http://www.w3.org/1999/02/22-rdf-syntax-ns#">
   <cc:Work>
    <dc:type rdf:resource="http://purl.org/dc/dcmitype/StillImage"/>
    <dc:date>2025-10-19T07:53:49.113280</dc:date>
    <dc:format>image/svg+xml</dc:format>
    <dc:creator>
     <cc:Agent>
      <dc:title>Matplotlib v3.10.1, https://matplotlib.org/</dc:title>
     </cc:Agent>
    </dc:creator>
   </cc:Work>
  </rdf:RDF>
 </metadata>
 <defs>
  <style type="text/css">*{stroke-linejoin: round; stroke-linecap: butt}</style>
 </defs>
 <g id="figure_1">
  <g id="patch_1">
   <path d="M 0 360 
L 720 360 
L 720 0 
L 0 0 
z
" style="fill: #ffffff"/>
  </g>
  <g id="axes_1">
   <g id="patch_2">
    <path d="M 90 320.4 
L 648 320.4 
L 648 43.2 
L 90 43.2 
z
" style="fill: #ffffff"/>
   </g>
   <g id="matplotlib.axis_1">
    <g id="xtick_1">
     <g id="line2d_1">
      <defs>
       <path id="mb6b4acdaa3" d="M 0 0 
L 0 3.5 
" style="stroke: #000000; stroke-width: 0.8"/>
      </defs>
      <g>
       <use xlink:href="#mb6b4acdaa3" x="115.363636" y="320.4" style="stroke: #000000; stroke-width: 0.8"/>
      </g>
     </g>
     <g id="text_1">
      <!-- 0 -->
      <g transform="translate(112.182386 334.998438) scale(0.1 -0.1)">
       <defs>
        <path id="DejaVuSans-30" d="M 2034 4250 
Q 1547 4250 1301 3770 
Q 1056 3291 1056 2328 
Q 1056 1369 1301 889 
Q 1547 409 2034 409 
Q 2525 409 2770 889 
Q 3016 1369 3016 2328 
Q 3016 3291 2770 3770 
Q 2525 4250 2034 4250 
z
M 2034 4750 
Q 2819 4750 3233 4129 
Q 3647 3509 3647 2328 
Q 3647 1150 3233 529 
Q 2819 -91 2034 -91 
Q 1250 -91 836 529 
Q 422 1150 422 2328 
Q 422 3509 836 4129 
Q 1250 4750 2034 4750 
z
" transform="scale(0.015625)"/>
       </defs>
       <use xlink:href="#DejaVuSans-30"/>
      </g>
     </g>
    </g>
    <g id="xtick_2">
     <g id="line2d_2">
      <g>
       <use xlink:href="#mb6b4acdaa3" x="217.157495" y="320.4" style="stroke: #000000; stroke-width: 0.8"/>
      </g>
     </g>
     <g id="text_2">
      <!-- 60 -->
      <g transform="translate(210.794995 334.998438) scale(0.1 -0.1)">
       <defs>
        <path id="DejaVuSans-36" d="M 2113 2584 
Q 1688 2584 1439 2293 
Q 1191 2003 1191 1497 
Q 1191 994 1439 701 
Q 1688 409 2113 409 
Q 2538 409 2786 701 
Q 3034 994 3034 1497 
Q 3034 2003 2786 2293 
Q 2538 2584 2113 2584 
z
M 3366 4563 
L 3366 3988 
Q 3128 4100 2886 4159 
Q 2644 4219 2406 4219 
Q 1781 4219 1451 3797 
Q 1122 3375 1075 2522 
Q 1259 2794 1537 2939 
Q 1816 3084 2150 3084 
Q 2853 3084 3261 2657 
Q 3669 2231 3669 1497 
Q 3669 778 3244 343 
Q 2819 -91 2113 -91 
Q 1303 -91 875 529 
Q 447 1150 447 2328 
Q 447 3434 972 4092 
Q 1497 4750 2381 4750 
Q 2619 4750 2861 4703 
Q 3103 4656 3366 4563 
z
" transform="scale(0.015625)"/>
       </defs>
       <use xlink:href="#DejaVuSans-36"/>
       <use xlink:href="#DejaVuSans-30" transform="translate(63.623047 0)"/>
      </g>
     </g>
    </g>
    <g id="xtick_3">
     <g id="line2d_3">
      <g>
       <use xlink:href="#mb6b4acdaa3" x="318.951353" y="320.4" style="stroke: #000000; stroke-width: 0.8"/>
      </g>
     </g>
     <g id="text_3">
      <!-- 120 -->
      <g transform="translate(309.407603 334.998438) scale(0.1 -0.1)">
       <defs>
        <path id="DejaVuSans-31" d="M 794 531 
L 1825 531 
L 1825 4091 
L 703 3866 
L 703 4441 
L 1819 4666 
L 2450 4666 
L 2450 531 
L 3481 531 
L 3481 0 
L 794 0 
L 794 531 
z
" transform="scale(0.015625)"/>
        <path id="DejaVuSans-32" d="M 1228 531 
L 3431 531 
L 3431 0 
L 469 0 
L 469 531 
Q 828 903 1448 1529 
Q 2069 2156 2228 2338 
Q 2531 2678 2651 2914 
Q 2772 3150 2772 3378 
Q 2772 3750 2511 3984 
Q 2250 4219 1831 4219 
Q 1534 4219 1204 4116 
Q 875 4013 500 3803 
L 500 4441 
Q 881 4594 1212 4672 
Q 1544 4750 1819 4750 
Q 2544 4750 2975 4387 
Q 3406 4025 3406 3419 
Q 3406 3131 3298 2873 
Q 3191 2616 2906 2266 
Q 2828 2175 2409 1742 
Q 1991 1309 1228 531 
z
" transform="scale(0.015625)"/>
       </defs>
       <use xlink:href="#DejaVuSans-31"/>
       <use xlink:href="#DejaVuSans-32" transform="translate(63.623047 0)"/>
       <use xlink:href="#DejaVuSans-30" transform="translate(127.246094 0)"/>
      </g>
     </g>
    </g>
    <g id="xtick_4">
     <g id="line2d_4">
      <g>
       <use xlink:href="#mb6b4acdaa3" x="420.745211" y="320.4" style="stroke: #000000; stroke-width: 0.8"/>
      </g>
     </g>
     <g id="text_4">
      <!-- 180 -->
      <g transform="translate(411.201461 334.998438) scale(0.1 -0.1)">
       <defs>
        <path id="DejaVuSans-38" d="M 2034 2216 
Q 1584 2216 1326 1975 
Q 1069 1734 1069 1313 
Q 1069 891 1326 650 
Q 1584 409 2034 409 
Q 2484 409 2743 651 
Q 3003 894 3003 1313 
Q 3003 1734 2745 1975 
Q 2488 2216 2034 2216 
z
M 1403 2484 
Q 997 2584 770 2862 
Q 544 3141 544 3541 
Q 544 4100 942 4425 
Q 1341 4750 2034 4750 
Q 2731 4750 3128 4425 
Q 3525 4100 3525 3541 
Q 3525 3141 3298 2862 
Q 3072 2584 2669 2484 
Q 3125 2378 3379 2068 
Q 3634 1759 3634 1313 
Q 3634 634 3220 271 
Q 2806 -91 2034 -91 
Q 1263 -91 848 271 
Q 434 634 434 1313 
Q 434 1759 690 2068 
Q 947 2378 1403 2484 
z
M 1172 3481 
Q 1172 3119 1398 2916 
Q 1625 2713 2034 2713 
Q 2441 2713 2670 2916 
Q 2900 3119 2900 3481 
Q 2900 3844 2670 4047 
Q 2441 4250 2034 4250 
Q 1625 4250 1398 4047 
Q 1172 3844 1172 3481 
z
" transform="scale(0.015625)"/>
       </defs>
       <use xlink:href="#DejaVuSans-31"/>
       <use xlink:href="#DejaVuSans-38" transform="translate(63.623047 0)"/>
       <use xlink:href="#DejaVuSans-30" transform="translate(127.246094 0)"/>
      </g>
     </g>
    </g>
    <g id="xtick_5">
     <g id="line2d_5">
      <g>
       <use xlink:href="#mb6b4acdaa3" x="522.53907" y="320.4" style="stroke: #000000; stroke-width: 0.8"/>
      </g>
     </g>
     <g id="text_5">
      <!-- 240 -->
      <g transform="translate(512.99532 334.998438) scale(0.1 -0.1)">
       <defs>
        <path id="DejaVuSans-34" d="M 2419 4116 
L 825 1625 
L 2419 1625 
L 2419 4116 
z
M 2253 4666 
L 3047 4666 
L 3047 1625 
L 3713 1625 
L 3713 1100 
L 3047 1100 
L 3047 0 
L 2419 0 
L 2419 1100 
L 313 1100 
L 313 1709 
L 2253 4666 
z
" transform="scale(0.015625)"/>
       </defs>
       <use xlink:href="#DejaVuSans-32"/>
       <use xlink:href="#DejaVuSans-34" transform="translate(63.623047 0)"/>
       <use xlink:href="#DejaVuSans-30" transform="translate(127.246094 0)"/>
      </g>
     </g>
    </g>
    <g id="text_6">
     <!-- Epoch -->
     <g transform="translate(353.689062 348.676562) scale(0.1 -0.1)">
      <defs>
       <path id="DejaVuSans-45" d="M 628 4666 
L 3578 4666 
L 3578 4134 
L 1259 4134 
L 1259 2753 
L 3481 2753 
L 3481 2222 
L 1259 2222 
L 1259 531 
L 3634 531 
L 3634 0 
L 628 0 
L 628 4666 
z
" transform="scale(0.015625)"/>
       <path id="DejaVuSans-70" d="M 1159 525 
L 1159 -1331 
L 581 -1331 
L 581 3500 
L 1159 3500 
L 1159 2969 
Q 1341 3281 1617 3432 
Q 1894 3584 2278 3584 
Q 2916 3584 3314 3078 
Q 3713 2572 3713 1747 
Q 3713 922 3314 415 
Q 2916 -91 2278 -91 
Q 1894 -91 1617 61 
Q 1341 213 1159 525 
z
M 3116 1747 
Q 3116 2381 2855 2742 
Q 2594 3103 2138 3103 
Q 1681 3103 1420 2742 
Q 1159 2381 1159 1747 
Q 1159 1113 1420 752 
Q 1681 391 2138 391 
Q 2594 391 2855 752 
Q 3116 1113 3116 1747 
z
" transform="scale(0.015625)"/>
       <path id="DejaVuSans-6f" d="M 1959 3097 
Q 1497 3097 1228 2736 
Q 959 2375 959 1747 
Q 959 1119 1226 758 
Q 1494 397 1959 397 
Q 2419 397 2687 759 
Q 2956 1122 2956 1747 
Q 2956 2369 2687 2733 
Q 2419 3097 1959 3097 
z
M 1959 3584 
Q 2709 3584 3137 3096 
Q 3566 2609 3566 1747 
Q 3566 888 3137 398 
Q 2709 -91 1959 -91 
Q 1206 -91 779 398 
Q 353 888 353 1747 
Q 353 2609 779 3096 
Q 1206 3584 1959 3584 
z
" transform="scale(0.015625)"/>
       <path id="DejaVuSans-63" d="M 3122 3366 
L 3122 2828 
Q 2878 2963 2633 3030 
Q 2388 3097 2138 3097 
Q 1578 3097 1268 2742 
Q 959 2388 959 1747 
Q 959 1106 1268 751 
Q 1578 397 2138 397 
Q 2388 397 2633 464 
Q 2878 531 3122 666 
L 3122 134 
Q 2881 22 2623 -34 
Q 2366 -91 2075 -91 
Q 1284 -91 818 406 
Q 353 903 353 1747 
Q 353 2603 823 3093 
Q 1294 3584 2113 3584 
Q 2378 3584 2631 3529 
Q 2884 3475 3122 3366 
z
" transform="scale(0.015625)"/>
       <path id="DejaVuSans-68" d="M 3513 2113 
L 3513 0 
L 2938 0 
L 2938 2094 
Q 2938 2591 2744 2837 
Q 2550 3084 2163 3084 
Q 1697 3084 1428 2787 
Q 1159 2491 1159 1978 
L 1159 0 
L 581 0 
L 581 4863 
L 1159 4863 
L 1159 2956 
Q 1366 3272 1645 3428 
Q 1925 3584 2291 3584 
Q 2894 3584 3203 3211 
Q 3513 2838 3513 2113 
z
" transform="scale(0.015625)"/>
      </defs>
      <use xlink:href="#DejaVuSans-45"/>
      <use xlink:href="#DejaVuSans-70" transform="translate(63.183594 0)"/>
      <use xlink:href="#DejaVuSans-6f" transform="translate(126.660156 0)"/>
      <use xlink:href="#DejaVuSans-63" transform="translate(187.841797 0)"/>
      <use xlink:href="#DejaVuSans-68" transform="translate(242.822266 0)"/>
     </g>
    </g>
   </g>
   <g id="matplotlib.axis_2">
    <g id="ytick_1">
     <g id="line2d_6">
      <defs>
       <path id="mbe2be52758" d="M 0 0 
L -3.5 0 
" style="stroke: #000000; stroke-width: 0.8"/>
      </defs>
      <g>
       <use xlink:href="#mbe2be52758" x="90" y="296.958248" style="stroke: #000000; stroke-width: 0.8"/>
      </g>
     </g>
     <g id="text_7">
      <!-- 0.5 -->
      <g transform="translate(67.096875 300.757467) scale(0.1 -0.1)">
       <defs>
        <path id="DejaVuSans-2e" d="M 684 794 
L 1344 794 
L 1344 0 
L 684 0 
L 684 794 
z
" transform="scale(0.015625)"/>
        <path id="DejaVuSans-35" d="M 691 4666 
L 3169 4666 
L 3169 4134 
L 1269 4134 
L 1269 2991 
Q 1406 3038 1543 3061 
Q 1681 3084 1819 3084 
Q 2600 3084 3056 2656 
Q 3513 2228 3513 1497 
Q 3513 744 3044 326 
Q 2575 -91 1722 -91 
Q 1428 -91 1123 -41 
Q 819 9 494 109 
L 494 744 
Q 775 591 1075 516 
Q 1375 441 1709 441 
Q 2250 441 2565 725 
Q 2881 1009 2881 1497 
Q 2881 1984 2565 2268 
Q 2250 2553 1709 2553 
Q 1456 2553 1204 2497 
Q 953 2441 691 2322 
L 691 4666 
z
" transform="scale(0.015625)"/>
       </defs>
       <use xlink:href="#DejaVuSans-30"/>
       <use xlink:href="#DejaVuSans-2e" transform="translate(63.623047 0)"/>
       <use xlink:href="#DejaVuSans-35" transform="translate(95.410156 0)"/>
      </g>
     </g>
    </g>
    <g id="ytick_2">
     <g id="line2d_7">
      <g>
       <use xlink:href="#mbe2be52758" x="90" y="236.021047" style="stroke: #000000; stroke-width: 0.8"/>
      </g>
     </g>
     <g id="text_8">
      <!-- 1.0 -->
      <g transform="translate(67.096875 239.820266) scale(0.1 -0.1)">
       <use xlink:href="#DejaVuSans-31"/>
       <use xlink:href="#DejaVuSans-2e" transform="translate(63.623047 0)"/>
       <use xlink:href="#DejaVuSans-30" transform="translate(95.410156 0)"/>
      </g>
     </g>
    </g>
    <g id="ytick_3">
     <g id="line2d_8">
      <g>
       <use xlink:href="#mbe2be52758" x="90" y="175.083847" style="stroke: #000000; stroke-width: 0.8"/>
      </g>
     </g>
     <g id="text_9">
      <!-- 1.5 -->
      <g transform="translate(67.096875 178.883066) scale(0.1 -0.1)">
       <use xlink:href="#DejaVuSans-31"/>
       <use xlink:href="#DejaVuSans-2e" transform="translate(63.623047 0)"/>
       <use xlink:href="#DejaVuSans-35" transform="translate(95.410156 0)"/>
      </g>
     </g>
    </g>
    <g id="ytick_4">
     <g id="line2d_9">
      <g>
       <use xlink:href="#mbe2be52758" x="90" y="114.146646" style="stroke: #000000; stroke-width: 0.8"/>
      </g>
     </g>
     <g id="text_10">
      <!-- 2.0 -->
      <g transform="translate(67.096875 117.945865) scale(0.1 -0.1)">
       <use xlink:href="#DejaVuSans-32"/>
       <use xlink:href="#DejaVuSans-2e" transform="translate(63.623047 0)"/>
       <use xlink:href="#DejaVuSans-30" transform="translate(95.410156 0)"/>
      </g>
     </g>
    </g>
    <g id="ytick_5">
     <g id="line2d_10">
      <g>
       <use xlink:href="#mbe2be52758" x="90" y="53.209446" style="stroke: #000000; stroke-width: 0.8"/>
      </g>
     </g>
     <g id="text_11">
      <!-- 2.5 -->
      <g transform="translate(67.096875 57.008665) scale(0.1 -0.1)">
       <use xlink:href="#DejaVuSans-32"/>
       <use xlink:href="#DejaVuSans-2e" transform="translate(63.623047 0)"/>
       <use xlink:href="#DejaVuSans-35" transform="translate(95.410156 0)"/>
      </g>
     </g>
    </g>
    <g id="text_12">
     <!-- Estimation Loss -->
     <g transform="translate(61.017187 220.98125) rotate(-90) scale(0.1 -0.1)">
      <defs>
       <path id="DejaVuSans-73" d="M 2834 3397 
L 2834 2853 
Q 2591 2978 2328 3040 
Q 2066 3103 1784 3103 
Q 1356 3103 1142 2972 
Q 928 2841 928 2578 
Q 928 2378 1081 2264 
Q 1234 2150 1697 2047 
L 1894 2003 
Q 2506 1872 2764 1633 
Q 3022 1394 3022 966 
Q 3022 478 2636 193 
Q 2250 -91 1575 -91 
Q 1294 -91 989 -36 
Q 684 19 347 128 
L 347 722 
Q 666 556 975 473 
Q 1284 391 1588 391 
Q 1994 391 2212 530 
Q 2431 669 2431 922 
Q 2431 1156 2273 1281 
Q 2116 1406 1581 1522 
L 1381 1569 
Q 847 1681 609 1914 
Q 372 2147 372 2553 
Q 372 3047 722 3315 
Q 1072 3584 1716 3584 
Q 2034 3584 2315 3537 
Q 2597 3491 2834 3397 
z
" transform="scale(0.015625)"/>
       <path id="DejaVuSans-74" d="M 1172 4494 
L 1172 3500 
L 2356 3500 
L 2356 3053 
L 1172 3053 
L 1172 1153 
Q 1172 725 1289 603 
Q 1406 481 1766 481 
L 2356 481 
L 2356 0 
L 1766 0 
Q 1100 0 847 248 
Q 594 497 594 1153 
L 594 3053 
L 172 3053 
L 172 3500 
L 594 3500 
L 594 4494 
L 1172 4494 
z
" transform="scale(0.015625)"/>
       <path id="DejaVuSans-69" d="M 603 3500 
L 1178 3500 
L 1178 0 
L 603 0 
L 603 3500 
z
M 603 4863 
L 1178 4863 
L 1178 4134 
L 603 4134 
L 603 4863 
z
" transform="scale(0.015625)"/>
       <path id="DejaVuSans-6d" d="M 3328 2828 
Q 3544 3216 3844 3400 
Q 4144 3584 4550 3584 
Q 5097 3584 5394 3201 
Q 5691 2819 5691 2113 
L 5691 0 
L 5113 0 
L 5113 2094 
Q 5113 2597 4934 2840 
Q 4756 3084 4391 3084 
Q 3944 3084 3684 2787 
Q 3425 2491 3425 1978 
L 3425 0 
L 2847 0 
L 2847 2094 
Q 2847 2600 2669 2842 
Q 2491 3084 2119 3084 
Q 1678 3084 1418 2786 
Q 1159 2488 1159 1978 
L 1159 0 
L 581 0 
L 581 3500 
L 1159 3500 
L 1159 2956 
Q 1356 3278 1631 3431 
Q 1906 3584 2284 3584 
Q 2666 3584 2933 3390 
Q 3200 3197 3328 2828 
z
" transform="scale(0.015625)"/>
       <path id="DejaVuSans-61" d="M 2194 1759 
Q 1497 1759 1228 1600 
Q 959 1441 959 1056 
Q 959 750 1161 570 
Q 1363 391 1709 391 
Q 2188 391 2477 730 
Q 2766 1069 2766 1631 
L 2766 1759 
L 2194 1759 
z
M 3341 1997 
L 3341 0 
L 2766 0 
L 2766 531 
Q 2569 213 2275 61 
Q 1981 -91 1556 -91 
Q 1019 -91 701 211 
Q 384 513 384 1019 
Q 384 1609 779 1909 
Q 1175 2209 1959 2209 
L 2766 2209 
L 2766 2266 
Q 2766 2663 2505 2880 
Q 2244 3097 1772 3097 
Q 1472 3097 1187 3025 
Q 903 2953 641 2809 
L 641 3341 
Q 956 3463 1253 3523 
Q 1550 3584 1831 3584 
Q 2591 3584 2966 3190 
Q 3341 2797 3341 1997 
z
" transform="scale(0.015625)"/>
       <path id="DejaVuSans-6e" d="M 3513 2113 
L 3513 0 
L 2938 0 
L 2938 2094 
Q 2938 2591 2744 2837 
Q 2550 3084 2163 3084 
Q 1697 3084 1428 2787 
Q 1159 2491 1159 1978 
L 1159 0 
L 581 0 
L 581 3500 
L 1159 3500 
L 1159 2956 
Q 1366 3272 1645 3428 
Q 1925 3584 2291 3584 
Q 2894 3584 3203 3211 
Q 3513 2838 3513 2113 
z
" transform="scale(0.015625)"/>
       <path id="DejaVuSans-20" transform="scale(0.015625)"/>
       <path id="DejaVuSans-4c" d="M 628 4666 
L 1259 4666 
L 1259 531 
L 3531 531 
L 3531 0 
L 628 0 
L 628 4666 
z
" transform="scale(0.015625)"/>
      </defs>
      <use xlink:href="#DejaVuSans-45"/>
      <use xlink:href="#DejaVuSans-73" transform="translate(63.183594 0)"/>
      <use xlink:href="#DejaVuSans-74" transform="translate(115.283203 0)"/>
      <use xlink:href="#DejaVuSans-69" transform="translate(154.492188 0)"/>
      <use xlink:href="#DejaVuSans-6d" transform="translate(182.275391 0)"/>
      <use xlink:href="#DejaVuSans-61" transform="translate(279.6875 0)"/>
      <use xlink:href="#DejaVuSans-74" transform="translate(340.966797 0)"/>
      <use xlink:href="#DejaVuSans-69" transform="translate(380.175781 0)"/>
      <use xlink:href="#DejaVuSans-6f" transform="translate(407.958984 0)"/>
      <use xlink:href="#DejaVuSans-6e" transform="translate(469.140625 0)"/>
      <use xlink:href="#DejaVuSans-20" transform="translate(532.519531 0)"/>
      <use xlink:href="#DejaVuSans-4c" transform="translate(564.306641 0)"/>
      <use xlink:href="#DejaVuSans-6f" transform="translate(618.269531 0)"/>
      <use xlink:href="#DejaVuSans-73" transform="translate(679.451172 0)"/>
      <use xlink:href="#DejaVuSans-73" transform="translate(731.550781 0)"/>
     </g>
    </g>
   </g>
   <g id="line2d_11">
    <path d="M 115.363636 262.832859 
L 117.060201 272.120726 
L 118.756765 274.581361 
L 120.453329 276.345774 
L 122.149894 277.81668 
L 123.846458 279.050149 
L 128.936151 281.60584 
L 137.418972 284.595967 
L 144.20523 286.004139 
L 149.294922 286.763207 
L 156.08118 287.669563 
L 159.474308 288.222782 
L 166.260566 288.46809 
L 169.653694 289.01502 
L 171.350258 289.054501 
L 174.743387 289.430258 
L 179.83308 289.905495 
L 183.226209 290.182211 
L 186.619337 290.513186 
L 191.70903 290.605128 
L 195.102159 290.842121 
L 198.495287 291.076655 
L 201.888416 291.000916 
L 203.58498 291.175629 
L 205.281545 291.229412 
L 206.978109 291.061537 
L 208.674673 291.293982 
L 210.371237 291.18558 
L 218.854059 291.877362 
L 227.336881 292.204249 
L 229.033445 292.097695 
L 232.426573 292.253345 
L 234.123138 292.51063 
L 237.516266 292.641621 
L 245.999088 292.622571 
L 249.392216 293.052146 
L 251.088781 293.260948 
L 256.178474 293.108855 
L 259.571602 293.443182 
L 261.268167 293.421564 
L 262.964731 293.679857 
L 266.35786 293.813436 
L 268.054424 293.979557 
L 269.750988 293.958777 
L 271.447552 294.100025 
L 274.840681 294.182408 
L 278.23381 294.362252 
L 279.930374 294.216761 
L 281.626938 294.20748 
L 283.323503 294.456389 
L 285.020067 294.825714 
L 286.716631 294.709262 
L 288.413196 294.787727 
L 291.806324 295.06987 
L 293.502888 294.691566 
L 298.592581 295.143022 
L 300.289146 294.925906 
L 312.165096 295.885942 
L 313.86166 295.809876 
L 318.951353 296.417453 
L 320.647917 296.653072 
L 322.344482 296.563237 
L 324.041046 296.650408 
L 325.73761 296.421571 
L 327.434175 296.631657 
L 329.130739 296.433539 
L 330.827303 296.870703 
L 332.523867 297.119505 
L 334.220432 297.007359 
L 335.916996 296.758254 
L 339.310125 297.064561 
L 342.703253 297.699494 
L 346.096382 297.531908 
L 347.792946 296.978841 
L 349.48951 297.440476 
L 351.186075 297.506315 
L 352.882639 297.723045 
L 356.275768 297.413995 
L 357.972332 297.544238 
L 359.668896 297.857011 
L 363.062025 297.929939 
L 366.455154 298.179399 
L 368.151718 297.779148 
L 369.848282 298.248166 
L 371.544846 298.307666 
L 373.241411 298.533478 
L 374.937975 298.367652 
L 376.634539 298.344218 
L 378.331104 298.797936 
L 380.027668 298.797776 
L 381.724232 298.32822 
L 383.420797 298.820253 
L 385.117361 298.9912 
L 386.813925 298.776512 
L 390.207054 298.945352 
L 391.903618 299.280545 
L 393.600182 299.196312 
L 398.689875 299.572698 
L 400.38644 299.531767 
L 402.083004 300.103759 
L 403.779568 300.087072 
L 405.476133 300.231129 
L 410.565825 299.82263 
L 412.26239 299.665433 
L 415.655518 300.54993 
L 417.352083 300.507797 
L 419.048647 300.629371 
L 427.531469 300.596143 
L 429.228033 301.138664 
L 430.924597 301.117145 
L 432.621161 301.342714 
L 434.317726 301.430095 
L 436.01429 301.289049 
L 437.710854 300.976931 
L 439.407419 301.563643 
L 441.103983 301.29733 
L 442.800547 301.577376 
L 444.497112 301.154821 
L 446.193676 301.013212 
L 449.586804 301.966672 
L 452.979933 301.938886 
L 454.676497 301.676484 
L 456.373062 301.925984 
L 458.069626 301.639549 
L 459.76619 302.009996 
L 461.462755 301.991911 
L 463.159319 302.482489 
L 464.855883 302.828441 
L 466.552448 302.977749 
L 468.249012 302.882406 
L 471.64214 303.125823 
L 473.338705 303.136973 
L 476.731833 302.786559 
L 478.428398 302.827717 
L 480.124962 302.597036 
L 481.821526 302.902262 
L 483.518091 303.038964 
L 485.214655 302.902771 
L 486.911219 303.239453 
L 490.304348 303.140786 
L 492.000912 303.049715 
L 493.697476 303.731088 
L 495.394041 303.173822 
L 497.090605 303.536682 
L 498.787169 303.61233 
L 502.180298 304.332529 
L 503.876862 303.937354 
L 505.573427 304.43369 
L 507.269991 304.13322 
L 508.966555 304.498398 
L 510.663119 304.246009 
L 514.056248 304.479799 
L 515.752812 304.811642 
L 517.449377 304.568013 
L 519.145941 304.844655 
L 520.842505 305.005663 
L 524.235634 304.538731 
L 527.628763 305.077002 
L 531.021891 304.516677 
L 532.718455 305.108097 
L 534.41502 304.714476 
L 536.111584 305.034771 
L 537.808148 305.201767 
L 539.504713 305.620144 
L 542.897841 305.349923 
L 544.594406 305.562371 
L 546.29097 304.933901 
L 547.987534 304.914016 
L 549.684099 305.282314 
L 551.380663 305.386996 
L 553.077227 304.966078 
L 554.773791 305.655942 
L 556.470356 305.841086 
L 558.16692 304.942439 
L 559.863484 305.461016 
L 563.256613 305.663643 
L 564.953177 305.411645 
L 566.649742 305.462962 
L 568.346306 305.75154 
L 570.04287 306.329043 
L 571.739434 306.651641 
L 573.435999 306.181259 
L 575.132563 306.331136 
L 576.829127 306.11016 
L 578.525692 306.199267 
L 580.222256 306.041149 
L 581.91882 306.111439 
L 583.615385 306.049663 
L 585.311949 305.783232 
L 587.008513 306.271678 
L 588.705078 306.091568 
L 590.401642 306.939892 
L 593.79477 306.911365 
L 595.491335 307.709662 
L 597.187899 306.528582 
L 598.884463 305.525828 
L 600.581028 306.087609 
L 602.277592 307.33804 
L 603.974156 306.66866 
L 607.367285 307.474327 
L 610.760413 306.869965 
L 612.456978 307.202676 
L 614.153542 307.24562 
L 615.850106 307.8 
L 617.546671 307.244685 
L 619.243235 306.980609 
L 620.939799 306.029451 
L 622.636364 305.623596 
L 622.636364 305.623596 
" clip-path="url(#p89d7f0fb71)" style="fill: none; stroke: #1f77b4; stroke-width: 1.5; stroke-linecap: square"/>
   </g>
   <g id="line2d_12">
    <path d="M 115.363636 222.738562 
L 117.060201 222.724839 
L 118.756765 220.75325 
L 120.453329 219.989008 
L 122.149894 218.459923 
L 123.846458 217.589736 
L 125.543022 216.179429 
L 127.239587 216.112257 
L 128.936151 215.272143 
L 130.632715 214.137436 
L 132.329279 214.68907 
L 134.025844 216.040228 
L 135.722408 215.671397 
L 137.418972 213.952434 
L 139.115537 213.958384 
L 140.812101 213.539117 
L 142.508665 214.139623 
L 144.20523 214.556281 
L 147.598358 213.639298 
L 149.294922 213.831195 
L 150.991487 213.202523 
L 152.688051 211.954491 
L 154.384615 212.453029 
L 156.08118 212.508073 
L 157.777744 211.278393 
L 161.170873 211.654115 
L 162.867437 212.609509 
L 164.564001 211.542709 
L 167.95713 209.925845 
L 169.653694 211.183549 
L 171.350258 210.247847 
L 173.046823 209.90816 
L 174.743387 209.927367 
L 176.439951 209.409306 
L 178.136516 209.554105 
L 179.83308 209.865115 
L 181.529644 210.418536 
L 183.226209 209.638011 
L 184.922773 209.70933 
L 186.619337 208.88441 
L 188.315901 210.285316 
L 190.012466 209.822722 
L 191.70903 210.610354 
L 193.405594 210.923713 
L 195.102159 210.453564 
L 196.798723 209.64161 
L 200.191852 208.92256 
L 201.888416 210.550278 
L 203.58498 210.906317 
L 205.281545 209.434707 
L 208.674673 210.381579 
L 210.371237 209.451706 
L 212.067802 207.546826 
L 213.764366 207.705963 
L 215.46093 208.659087 
L 217.157495 209.26175 
L 220.550623 208.186378 
L 222.247188 209.088836 
L 223.943752 209.006832 
L 225.640316 208.260822 
L 227.336881 208.763742 
L 229.033445 209.459286 
L 230.730009 211.007945 
L 232.426573 209.984489 
L 234.123138 208.7612 
L 235.819702 208.341927 
L 237.516266 209.442376 
L 239.212831 208.52424 
L 240.909395 208.307447 
L 242.605959 208.721353 
L 244.302524 210.699951 
L 245.999088 208.104207 
L 247.695652 210.258389 
L 249.392216 210.438672 
L 251.088781 208.134256 
L 252.785345 209.36804 
L 254.481909 209.907408 
L 256.178474 208.153501 
L 257.875038 211.001897 
L 259.571602 210.258068 
L 261.268167 209.680489 
L 262.964731 210.937377 
L 264.661295 208.298165 
L 266.35786 207.675884 
L 268.054424 207.841981 
L 269.750988 207.863283 
L 271.447552 209.840371 
L 273.144117 209.100428 
L 274.840681 210.402307 
L 278.23381 209.602603 
L 279.930374 208.170523 
L 281.626938 209.560555 
L 283.323503 210.651135 
L 285.020067 209.961207 
L 286.716631 208.579344 
L 288.413196 211.252841 
L 290.10976 211.997753 
L 291.806324 209.339619 
L 293.502888 210.515467 
L 295.199453 209.683163 
L 296.896017 208.721642 
L 298.592581 207.203096 
L 300.289146 207.18246 
L 301.98571 208.681792 
L 303.682274 208.629356 
L 305.378839 209.698994 
L 307.075403 208.528026 
L 308.771967 209.269984 
L 310.468531 210.535103 
L 312.165096 208.876335 
L 313.86166 208.907661 
L 315.558224 208.028738 
L 317.254789 209.7577 
L 318.951353 209.271821 
L 320.647917 209.903089 
L 322.344482 208.407123 
L 324.041046 209.006847 
L 325.73761 209.46043 
L 327.434175 208.546912 
L 329.130739 207.33776 
L 330.827303 206.84839 
L 332.523867 207.431159 
L 334.220432 208.309534 
L 335.916996 209.014835 
L 337.61356 210.554019 
L 339.310125 209.295037 
L 341.006689 208.755014 
L 342.703253 208.764963 
L 344.399818 207.262302 
L 347.792946 210.689317 
L 349.48951 209.879976 
L 351.186075 209.400092 
L 352.882639 207.857152 
L 354.579203 206.774966 
L 356.275768 207.536261 
L 357.972332 210.424467 
L 359.668896 208.969886 
L 361.365461 209.218725 
L 363.062025 208.770893 
L 364.758589 210.257259 
L 366.455154 211.282434 
L 368.151718 210.492738 
L 369.848282 212.629255 
L 371.544846 209.14624 
L 373.241411 209.915155 
L 374.937975 208.263209 
L 376.634539 210.640515 
L 378.331104 210.13342 
L 380.027668 208.5701 
L 381.724232 210.186172 
L 383.420797 209.145952 
L 385.117361 209.387034 
L 386.813925 208.048404 
L 388.51049 208.321815 
L 390.207054 210.29694 
L 391.903618 208.378644 
L 393.600182 208.334179 
L 395.296747 208.52316 
L 398.689875 208.291354 
L 400.38644 209.630921 
L 402.083004 208.627324 
L 403.779568 208.494887 
L 405.476133 208.998262 
L 407.172697 208.795963 
L 408.869261 209.012212 
L 410.565825 208.764692 
L 412.26239 207.839918 
L 413.958954 208.410329 
L 415.655518 208.724573 
L 417.352083 207.85151 
L 420.745211 206.577949 
L 422.441776 208.339996 
L 424.13834 209.329677 
L 425.834904 206.692857 
L 427.531469 207.468606 
L 429.228033 204.50804 
L 432.621161 207.631782 
L 434.317726 209.480901 
L 436.01429 210.80568 
L 437.710854 209.425858 
L 439.407419 208.936055 
L 441.103983 209.699607 
L 442.800547 208.479821 
L 444.497112 209.18215 
L 446.193676 209.538222 
L 447.89024 210.808777 
L 449.586804 208.52092 
L 451.283369 209.363079 
L 452.979933 207.1061 
L 454.676497 206.890359 
L 456.373062 208.812889 
L 458.069626 210.936705 
L 459.76619 210.895696 
L 461.462755 213.762648 
L 463.159319 211.622837 
L 464.855883 208.947739 
L 466.552448 208.97246 
L 468.249012 209.897871 
L 471.64214 208.720943 
L 473.338705 207.348631 
L 475.035269 207.97359 
L 476.731833 207.485744 
L 478.428398 208.81834 
L 480.124962 209.689902 
L 481.821526 208.441906 
L 483.518091 208.651864 
L 485.214655 208.594526 
L 486.911219 209.966973 
L 488.607784 209.781166 
L 490.304348 210.536584 
L 492.000912 211.658595 
L 493.697476 209.114292 
L 497.090605 211.814679 
L 498.787169 210.380685 
L 500.483734 208.231947 
L 502.180298 210.130832 
L 503.876862 209.945618 
L 505.573427 212.53394 
L 507.269991 214.578339 
L 508.966555 211.188273 
L 510.663119 209.912536 
L 512.359684 210.396762 
L 514.056248 208.118503 
L 515.752812 208.245488 
L 517.449377 207.390126 
L 519.145941 207.725306 
L 520.842505 208.927118 
L 522.53907 208.746507 
L 524.235634 210.459966 
L 525.932198 207.641032 
L 527.628763 212.880886 
L 529.325327 210.693336 
L 531.021891 211.083639 
L 532.718455 210.354323 
L 534.41502 210.602803 
L 536.111584 211.524427 
L 537.808148 211.402447 
L 539.504713 212.024466 
L 541.201277 213.041368 
L 544.594406 206.974087 
L 546.29097 209.319539 
L 547.987534 209.126967 
L 549.684099 210.393294 
L 551.380663 206.582225 
L 553.077227 208.687008 
L 554.773791 207.799875 
L 558.16692 209.333976 
L 559.863484 212.237699 
L 561.560049 214.029055 
L 563.256613 213.852382 
L 564.953177 212.215432 
L 566.649742 213.765555 
L 568.346306 209.605073 
L 570.04287 212.204108 
L 571.739434 212.159814 
L 573.435999 212.764665 
L 575.132563 211.509696 
L 576.829127 213.432523 
L 578.525692 213.224332 
L 580.222256 210.060252 
L 581.91882 211.217056 
L 583.615385 213.300243 
L 585.311949 214.044797 
L 587.008513 212.426413 
L 588.705078 213.95765 
L 590.401642 211.479037 
L 592.098206 209.676165 
L 593.79477 212.088268 
L 595.491335 213.98611 
L 597.187899 213.199411 
L 600.581028 209.685207 
L 603.974156 210.969611 
L 605.670721 209.379449 
L 607.367285 208.97959 
L 609.063849 213.069538 
L 610.760413 208.652089 
L 612.456978 209.441426 
L 614.153542 209.258587 
L 615.850106 212.93467 
L 617.546671 210.150443 
L 620.939799 212.819953 
L 622.636364 210.439682 
L 622.636364 210.439682 
" clip-path="url(#p89d7f0fb71)" style="fill: none; stroke: #ff7f0e; stroke-width: 1.5; stroke-linecap: square"/>
   </g>
   <g id="line2d_13">
    <path d="M 115.363636 183.6304 
L 117.060201 188.437742 
L 118.756765 191.054362 
L 120.453329 193.340547 
L 123.846458 196.837421 
L 125.543022 198.166096 
L 127.239587 198.998366 
L 128.936151 200.029671 
L 130.632715 201.386756 
L 135.722408 204.373582 
L 137.418972 204.785603 
L 139.115537 205.71822 
L 144.20523 207.413103 
L 147.598358 207.926359 
L 149.294922 208.79819 
L 150.991487 208.295647 
L 152.688051 208.963511 
L 154.384615 209.362837 
L 157.777744 209.873979 
L 159.474308 210.454107 
L 161.170873 210.239956 
L 166.260566 210.481245 
L 167.95713 211.699908 
L 169.653694 211.341475 
L 171.350258 211.496066 
L 173.046823 211.913123 
L 174.743387 212.064753 
L 176.439951 212.065067 
L 178.136516 211.718805 
L 179.83308 212.185807 
L 181.529644 212.778047 
L 183.226209 212.340825 
L 184.922773 212.74204 
L 188.315901 212.893038 
L 190.012466 212.432198 
L 191.70903 212.752675 
L 193.405594 212.804784 
L 195.102159 213.210745 
L 196.798723 212.937099 
L 198.495287 213.430184 
L 200.191852 213.197551 
L 201.888416 213.523145 
L 203.58498 212.972285 
L 205.281545 212.818835 
L 206.978109 213.340522 
L 208.674673 212.496079 
L 210.371237 213.354541 
L 212.067802 213.707743 
L 213.764366 213.459797 
L 215.46093 213.602594 
L 217.157495 213.498439 
L 220.550623 213.78787 
L 222.247188 213.211385 
L 225.640316 213.489072 
L 227.336881 213.392616 
L 230.730009 214.416882 
L 234.123138 213.524514 
L 235.819702 214.106084 
L 237.516266 214.279217 
L 239.212831 214.011649 
L 240.909395 214.047028 
L 242.605959 213.728614 
L 245.999088 214.50429 
L 247.695652 213.635872 
L 249.392216 214.323058 
L 251.088781 213.783148 
L 252.785345 214.061416 
L 254.481909 213.544134 
L 256.178474 213.996257 
L 257.875038 213.884099 
L 259.571602 213.342836 
L 261.268167 213.733241 
L 262.964731 213.76336 
L 264.661295 213.525249 
L 266.35786 214.043794 
L 268.054424 213.491205 
L 269.750988 214.491515 
L 271.447552 214.624389 
L 273.144117 214.108894 
L 274.840681 214.479824 
L 276.537245 214.564585 
L 279.930374 213.911398 
L 281.626938 214.616963 
L 283.323503 214.062567 
L 285.020067 214.802703 
L 286.716631 214.011514 
L 288.413196 213.907266 
L 290.10976 214.406305 
L 291.806324 214.3059 
L 293.502888 214.413484 
L 295.199453 214.052915 
L 296.896017 214.532318 
L 300.289146 214.164015 
L 301.98571 213.63506 
L 303.682274 214.646309 
L 305.378839 214.024059 
L 307.075403 214.500919 
L 308.771967 213.821849 
L 310.468531 214.066791 
L 312.165096 214.511485 
L 313.86166 213.903531 
L 315.558224 214.245695 
L 317.254789 214.449102 
L 320.647917 214.097612 
L 322.344482 213.301639 
L 324.041046 212.798854 
L 325.73761 213.635086 
L 327.434175 212.845235 
L 329.130739 213.136323 
L 330.827303 212.827671 
L 332.523867 214.082037 
L 334.220432 212.13883 
L 335.916996 214.122083 
L 337.61356 213.384433 
L 339.310125 212.785221 
L 342.703253 212.149974 
L 344.399818 212.451536 
L 346.096382 212.999459 
L 347.792946 212.208726 
L 349.48951 212.721855 
L 352.882639 211.781362 
L 354.579203 210.61262 
L 356.275768 212.542146 
L 357.972332 212.384216 
L 359.668896 213.036891 
L 361.365461 211.233497 
L 363.062025 210.81027 
L 364.758589 212.332052 
L 366.455154 211.383834 
L 368.151718 212.130714 
L 369.848282 212.083125 
L 371.544846 212.572549 
L 373.241411 212.224706 
L 374.937975 212.249857 
L 376.634539 212.399811 
L 378.331104 212.048249 
L 380.027668 210.66607 
L 381.724232 210.262701 
L 383.420797 211.068902 
L 385.117361 211.011886 
L 386.813925 211.884947 
L 388.51049 211.569696 
L 390.207054 210.798387 
L 391.903618 211.000795 
L 393.600182 211.689697 
L 395.296747 211.8993 
L 396.993311 211.370729 
L 398.689875 209.08509 
L 400.38644 210.287206 
L 402.083004 210.232366 
L 403.779568 209.146552 
L 405.476133 207.924004 
L 407.172697 208.868415 
L 408.869261 208.8839 
L 410.565825 209.473582 
L 412.26239 210.723433 
L 413.958954 208.80241 
L 417.352083 208.904343 
L 419.048647 208.734866 
L 420.745211 209.313563 
L 422.441776 208.253372 
L 424.13834 208.12177 
L 425.834904 206.836198 
L 427.531469 207.524795 
L 429.228033 206.373307 
L 430.924597 207.482268 
L 432.621161 208.250073 
L 434.317726 206.372534 
L 436.01429 208.673961 
L 437.710854 208.076857 
L 439.407419 207.677924 
L 441.103983 206.403013 
L 442.800547 207.731881 
L 444.497112 207.243338 
L 446.193676 207.937633 
L 447.89024 211.090147 
L 449.586804 207.332588 
L 451.283369 208.674854 
L 452.979933 206.032618 
L 454.676497 208.413428 
L 456.373062 207.30368 
L 458.069626 209.491268 
L 459.76619 208.058827 
L 461.462755 205.795108 
L 463.159319 206.26587 
L 464.855883 206.038201 
L 466.552448 207.046022 
L 468.249012 208.458434 
L 469.945576 205.905828 
L 471.64214 208.708016 
L 473.338705 207.061363 
L 475.035269 208.253411 
L 476.731833 206.414145 
L 478.428398 204.784047 
L 480.124962 207.347658 
L 481.821526 208.516306 
L 483.518091 207.413137 
L 485.214655 207.73646 
L 486.911219 207.642228 
L 488.607784 206.729852 
L 490.304348 207.499358 
L 492.000912 207.895943 
L 493.697476 207.98957 
L 495.394041 207.499291 
L 497.090605 208.37805 
L 498.787169 205.18829 
L 500.483734 206.834198 
L 502.180298 210.009459 
L 503.876862 205.244198 
L 505.573427 204.17718 
L 507.269991 205.190676 
L 508.966555 204.82401 
L 512.359684 203.183513 
L 514.056248 205.438059 
L 515.752812 207.170348 
L 517.449377 207.406973 
L 519.145941 204.224417 
L 520.842505 205.19563 
L 522.53907 205.380233 
L 524.235634 205.037968 
L 525.932198 205.742631 
L 527.628763 204.013084 
L 529.325327 205.394302 
L 531.021891 205.010294 
L 532.718455 203.378024 
L 534.41502 206.186595 
L 536.111584 206.194092 
L 537.808148 207.767527 
L 539.504713 208.271933 
L 541.201277 206.580417 
L 542.897841 205.992393 
L 544.594406 207.440948 
L 546.29097 202.845849 
L 547.987534 207.767965 
L 549.684099 207.007003 
L 551.380663 205.34245 
L 553.077227 204.370526 
L 554.773791 206.441552 
L 556.470356 208.81026 
L 558.16692 206.199073 
L 559.863484 208.998621 
L 563.256613 203.632588 
L 564.953177 207.570121 
L 566.649742 206.498455 
L 568.346306 207.149687 
L 570.04287 205.529535 
L 571.739434 204.508284 
L 573.435999 203.878823 
L 575.132563 202.920162 
L 576.829127 205.723084 
L 578.525692 200.074979 
L 580.222256 205.998056 
L 581.91882 201.045008 
L 583.615385 206.040097 
L 585.311949 203.37529 
L 588.705078 206.341313 
L 590.401642 201.350955 
L 592.098206 207.204209 
L 593.79477 202.368312 
L 595.491335 204.522558 
L 597.187899 206.351648 
L 598.884463 203.646708 
L 600.581028 201.663407 
L 602.277592 200.918193 
L 603.974156 201.596973 
L 605.670721 201.115217 
L 607.367285 201.116871 
L 609.063849 200.05056 
L 610.760413 201.350472 
L 612.456978 203.545174 
L 614.153542 196.149984 
L 615.850106 203.970429 
L 617.546671 202.613862 
L 619.243235 201.946798 
L 620.939799 204.030549 
L 622.636364 204.220642 
L 622.636364 204.220642 
" clip-path="url(#p89d7f0fb71)" style="fill: none; stroke: #2ca02c; stroke-width: 1.5; stroke-linecap: square"/>
   </g>
   <g id="line2d_14">
    <path d="M 115.363636 88.95114 
L 117.060201 83.441331 
L 118.756765 81.437816 
L 120.453329 80.832373 
L 122.149894 77.12902 
L 123.846458 77.610944 
L 125.543022 73.500099 
L 127.239587 73.369634 
L 128.936151 68.656538 
L 130.632715 74.791605 
L 132.329279 74.680555 
L 134.025844 72.579102 
L 135.722408 74.835269 
L 137.418972 73.369123 
L 139.115537 74.222644 
L 140.812101 71.60677 
L 142.508665 72.750092 
L 144.20523 70.806957 
L 145.901794 72.753313 
L 147.598358 68.122117 
L 149.294922 71.793762 
L 150.991487 70.007361 
L 152.688051 64.808658 
L 154.384615 68.767605 
L 156.08118 68.923414 
L 157.777744 67.075871 
L 159.474308 68.211942 
L 161.170873 70.154399 
L 162.867437 66.251033 
L 164.564001 69.257611 
L 166.260566 65.265588 
L 167.95713 66.18639 
L 169.653694 66.940824 
L 171.350258 61.950525 
L 173.046823 66.508986 
L 174.743387 63.774606 
L 176.439951 62.591628 
L 178.136516 65.007084 
L 179.83308 65.195938 
L 181.529644 65.691518 
L 183.226209 65.409744 
L 184.922773 62.74167 
L 186.619337 64.251789 
L 188.315901 64.78821 
L 190.012466 60.489019 
L 191.70903 69.601435 
L 193.405594 74.054182 
L 195.102159 65.680094 
L 196.798723 71.746309 
L 198.495287 68.992949 
L 200.191852 69.944448 
L 201.888416 65.771054 
L 206.978109 67.797569 
L 208.674673 69.913031 
L 210.371237 64.407495 
L 212.067802 64.861687 
L 213.764366 61.564324 
L 215.46093 70.695672 
L 217.157495 68.039385 
L 218.854059 66.968659 
L 220.550623 66.7432 
L 222.247188 71.030308 
L 223.943752 63.107931 
L 225.640316 62.591631 
L 227.336881 57.186074 
L 229.033445 67.126535 
L 230.730009 71.73242 
L 232.426573 68.042134 
L 234.123138 61.717838 
L 235.819702 69.256153 
L 237.516266 62.511064 
L 239.212831 63.407027 
L 240.909395 63.394798 
L 242.605959 65.846267 
L 244.302524 64.19283 
L 245.999088 65.054257 
L 247.695652 69.411163 
L 249.392216 67.052082 
L 251.088781 63.097935 
L 252.785345 66.431055 
L 254.481909 61.052897 
L 256.178474 64.427191 
L 257.875038 71.290334 
L 259.571602 67.175099 
L 261.268167 69.583261 
L 262.964731 62.869198 
L 264.661295 64.202535 
L 266.35786 64.885397 
L 268.054424 69.029914 
L 269.750988 67.670805 
L 271.447552 59.157591 
L 273.144117 65.237934 
L 274.840681 58.226046 
L 276.537245 64.504211 
L 278.23381 60.009045 
L 279.930374 63.225458 
L 281.626938 75.219405 
L 283.323503 73.026975 
L 285.020067 62.340859 
L 286.716631 60.520569 
L 288.413196 71.518086 
L 290.10976 70.15379 
L 291.806324 66.277859 
L 293.502888 67.889822 
L 295.199453 68.290159 
L 296.896017 63.511588 
L 298.592581 64.29328 
L 300.289146 65.409807 
L 301.98571 66.200731 
L 303.682274 61.158848 
L 305.378839 66.122328 
L 307.075403 67.14418 
L 308.771967 72.796626 
L 310.468531 71.332736 
L 312.165096 63.794222 
L 313.86166 68.946225 
L 315.558224 64.355013 
L 317.254789 70.953226 
L 318.951353 69.565589 
L 320.647917 64.270969 
L 322.344482 69.053309 
L 324.041046 61.130692 
L 325.73761 64.809809 
L 327.434175 61.175019 
L 329.130739 61.768726 
L 330.827303 60.688405 
L 332.523867 66.896097 
L 334.220432 68.617196 
L 335.916996 66.476168 
L 337.61356 70.954965 
L 339.310125 66.17554 
L 342.703253 69.427711 
L 344.399818 60.212325 
L 346.096382 66.958366 
L 347.792946 67.170818 
L 349.48951 66.963563 
L 351.186075 65.808909 
L 352.882639 67.691748 
L 354.579203 58.997325 
L 356.275768 69.593308 
L 357.972332 64.667071 
L 359.668896 70.519345 
L 361.365461 65.307061 
L 363.062025 69.059062 
L 364.758589 74.911298 
L 366.455154 71.434086 
L 368.151718 75.113386 
L 369.848282 72.704237 
L 371.544846 69.801301 
L 373.241411 62.513237 
L 374.937975 70.948081 
L 376.634539 65.431414 
L 378.331104 70.675287 
L 380.027668 70.451515 
L 381.724232 72.053206 
L 383.420797 71.352979 
L 385.117361 66.484737 
L 386.813925 62.501895 
L 388.51049 59.890083 
L 390.207054 64.844059 
L 391.903618 67.301884 
L 393.600182 66.750693 
L 395.296747 71.405498 
L 396.993311 61.220575 
L 400.38644 75.068372 
L 402.083004 68.0543 
L 403.779568 68.280986 
L 405.476133 67.352562 
L 407.172697 68.450602 
L 408.869261 72.852362 
L 410.565825 60.765688 
L 412.26239 70.549699 
L 413.958954 62.170264 
L 415.655518 63.629627 
L 417.352083 62.408877 
L 419.048647 63.457919 
L 420.745211 66.295117 
L 422.441776 75.721221 
L 424.13834 66.997868 
L 425.834904 64.227491 
L 427.531469 60.978209 
L 429.228033 63.532011 
L 430.924597 68.870005 
L 432.621161 63.871132 
L 434.317726 77.273832 
L 437.710854 66.833256 
L 439.407419 71.434602 
L 441.103983 66.07755 
L 442.800547 62.413272 
L 444.497112 61.670722 
L 446.193676 64.110682 
L 447.89024 67.704972 
L 449.586804 67.17532 
L 451.283369 58.150138 
L 452.979933 64.572936 
L 454.676497 57.435599 
L 456.373062 72.257625 
L 458.069626 68.204054 
L 459.76619 68.658925 
L 461.462755 72.597171 
L 463.159319 68.119418 
L 464.855883 71.66294 
L 466.552448 67.978718 
L 468.249012 67.823213 
L 469.945576 66.277866 
L 471.64214 72.013195 
L 473.338705 62.525049 
L 475.035269 67.325955 
L 476.731833 67.924214 
L 478.428398 70.127132 
L 480.124962 55.8 
L 481.821526 64.153283 
L 483.518091 70.006098 
L 485.214655 72.206165 
L 486.911219 76.573575 
L 488.607784 78.91889 
L 490.304348 73.327128 
L 492.000912 74.272645 
L 493.697476 74.267578 
L 495.394041 78.800501 
L 497.090605 69.932336 
L 498.787169 68.071223 
L 500.483734 63.22137 
L 502.180298 65.656744 
L 503.876862 68.829564 
L 505.573427 82.451113 
L 507.269991 79.929622 
L 508.966555 70.051624 
L 510.663119 71.471796 
L 512.359684 68.08811 
L 514.056248 63.442462 
L 515.752812 65.28219 
L 517.449377 69.62657 
L 519.145941 69.625752 
L 520.842505 67.190984 
L 522.53907 58.137538 
L 524.235634 66.942865 
L 525.932198 61.120638 
L 527.628763 75.292458 
L 529.325327 68.381009 
L 531.021891 72.997969 
L 532.718455 72.274815 
L 534.41502 74.190846 
L 536.111584 73.405272 
L 537.808148 81.752411 
L 539.504713 81.638332 
L 541.201277 79.069435 
L 542.897841 74.770222 
L 544.594406 78.882858 
L 546.29097 76.679603 
L 547.987534 72.897796 
L 549.684099 72.220206 
L 551.380663 79.524897 
L 553.077227 71.445449 
L 554.773791 73.195924 
L 556.470356 73.463743 
L 558.16692 67.41041 
L 559.863484 75.323918 
L 561.560049 68.55692 
L 563.256613 76.964288 
L 564.953177 75.199422 
L 566.649742 60.842802 
L 568.346306 76.600804 
L 570.04287 78.65329 
L 571.739434 69.392519 
L 573.435999 76.252773 
L 575.132563 70.581009 
L 576.829127 82.629988 
L 578.525692 70.605591 
L 580.222256 78.203139 
L 581.91882 81.357122 
L 583.615385 76.168618 
L 585.311949 71.442973 
L 587.008513 77.630441 
L 588.705078 75.113848 
L 590.401642 76.914357 
L 592.098206 83.650179 
L 593.79477 74.766733 
L 595.491335 82.753422 
L 597.187899 82.979644 
L 598.884463 76.691753 
L 600.581028 77.511206 
L 602.277592 79.799742 
L 603.974156 78.193683 
L 605.670721 73.611413 
L 607.367285 83.183347 
L 609.063849 74.856044 
L 610.760413 73.116851 
L 612.456978 66.078293 
L 614.153542 73.4871 
L 615.850106 73.038931 
L 617.546671 67.610833 
L 619.243235 81.218629 
L 620.939799 69.445772 
L 622.636364 77.060414 
L 622.636364 77.060414 
" clip-path="url(#p89d7f0fb71)" style="fill: none; stroke: #d62728; stroke-width: 1.5; stroke-linecap: square"/>
   </g>
   <g id="patch_3">
    <path d="M 90 320.4 
L 90 43.2 
" style="fill: none; stroke: #000000; stroke-width: 0.8; stroke-linejoin: miter; stroke-linecap: square"/>
   </g>
   <g id="patch_4">
    <path d="M 648 320.4 
L 648 43.2 
" style="fill: none; stroke: #000000; stroke-width: 0.8; stroke-linejoin: miter; stroke-linecap: square"/>
   </g>
   <g id="patch_5">
    <path d="M 90 320.4 
L 648 320.4 
" style="fill: none; stroke: #000000; stroke-width: 0.8; stroke-linejoin: miter; stroke-linecap: square"/>
   </g>
   <g id="patch_6">
    <path d="M 90 43.2 
L 648 43.2 
" style="fill: none; stroke: #000000; stroke-width: 0.8; stroke-linejoin: miter; stroke-linecap: square"/>
   </g>
   <g id="text_13">
    <!-- Training and Validating Estimation Loss -->
    <g transform="translate(251.535937 37.2) scale(0.12 -0.12)">
     <defs>
      <path id="DejaVuSans-54" d="M -19 4666 
L 3928 4666 
L 3928 4134 
L 2272 4134 
L 2272 0 
L 1638 0 
L 1638 4134 
L -19 4134 
L -19 4666 
z
" transform="scale(0.015625)"/>
      <path id="DejaVuSans-72" d="M 2631 2963 
Q 2534 3019 2420 3045 
Q 2306 3072 2169 3072 
Q 1681 3072 1420 2755 
Q 1159 2438 1159 1844 
L 1159 0 
L 581 0 
L 581 3500 
L 1159 3500 
L 1159 2956 
Q 1341 3275 1631 3429 
Q 1922 3584 2338 3584 
Q 2397 3584 2469 3576 
Q 2541 3569 2628 3553 
L 2631 2963 
z
" transform="scale(0.015625)"/>
      <path id="DejaVuSans-67" d="M 2906 1791 
Q 2906 2416 2648 2759 
Q 2391 3103 1925 3103 
Q 1463 3103 1205 2759 
Q 947 2416 947 1791 
Q 947 1169 1205 825 
Q 1463 481 1925 481 
Q 2391 481 2648 825 
Q 2906 1169 2906 1791 
z
M 3481 434 
Q 3481 -459 3084 -895 
Q 2688 -1331 1869 -1331 
Q 1566 -1331 1297 -1286 
Q 1028 -1241 775 -1147 
L 775 -588 
Q 1028 -725 1275 -790 
Q 1522 -856 1778 -856 
Q 2344 -856 2625 -561 
Q 2906 -266 2906 331 
L 2906 616 
Q 2728 306 2450 153 
Q 2172 0 1784 0 
Q 1141 0 747 490 
Q 353 981 353 1791 
Q 353 2603 747 3093 
Q 1141 3584 1784 3584 
Q 2172 3584 2450 3431 
Q 2728 3278 2906 2969 
L 2906 3500 
L 3481 3500 
L 3481 434 
z
" transform="scale(0.015625)"/>
      <path id="DejaVuSans-64" d="M 2906 2969 
L 2906 4863 
L 3481 4863 
L 3481 0 
L 2906 0 
L 2906 525 
Q 2725 213 2448 61 
Q 2172 -91 1784 -91 
Q 1150 -91 751 415 
Q 353 922 353 1747 
Q 353 2572 751 3078 
Q 1150 3584 1784 3584 
Q 2172 3584 2448 3432 
Q 2725 3281 2906 2969 
z
M 947 1747 
Q 947 1113 1208 752 
Q 1469 391 1925 391 
Q 2381 391 2643 752 
Q 2906 1113 2906 1747 
Q 2906 2381 2643 2742 
Q 2381 3103 1925 3103 
Q 1469 3103 1208 2742 
Q 947 2381 947 1747 
z
" transform="scale(0.015625)"/>
      <path id="DejaVuSans-56" d="M 1831 0 
L 50 4666 
L 709 4666 
L 2188 738 
L 3669 4666 
L 4325 4666 
L 2547 0 
L 1831 0 
z
" transform="scale(0.015625)"/>
      <path id="DejaVuSans-6c" d="M 603 4863 
L 1178 4863 
L 1178 0 
L 603 0 
L 603 4863 
z
" transform="scale(0.015625)"/>
     </defs>
     <use xlink:href="#DejaVuSans-54"/>
     <use xlink:href="#DejaVuSans-72" transform="translate(46.333984 0)"/>
     <use xlink:href="#DejaVuSans-61" transform="translate(87.447266 0)"/>
     <use xlink:href="#DejaVuSans-69" transform="translate(148.726562 0)"/>
     <use xlink:href="#DejaVuSans-6e" transform="translate(176.509766 0)"/>
     <use xlink:href="#DejaVuSans-69" transform="translate(239.888672 0)"/>
     <use xlink:href="#DejaVuSans-6e" transform="translate(267.671875 0)"/>
     <use xlink:href="#DejaVuSans-67" transform="translate(331.050781 0)"/>
     <use xlink:href="#DejaVuSans-20" transform="translate(394.527344 0)"/>
     <use xlink:href="#DejaVuSans-61" transform="translate(426.314453 0)"/>
     <use xlink:href="#DejaVuSans-6e" transform="translate(487.59375 0)"/>
     <use xlink:href="#DejaVuSans-64" transform="translate(550.972656 0)"/>
     <use xlink:href="#DejaVuSans-20" transform="translate(614.449219 0)"/>
     <use xlink:href="#DejaVuSans-56" transform="translate(646.236328 0)"/>
     <use xlink:href="#DejaVuSans-61" transform="translate(706.894531 0)"/>
     <use xlink:href="#DejaVuSans-6c" transform="translate(768.173828 0)"/>
     <use xlink:href="#DejaVuSans-69" transform="translate(795.957031 0)"/>
     <use xlink:href="#DejaVuSans-64" transform="translate(823.740234 0)"/>
     <use xlink:href="#DejaVuSans-61" transform="translate(887.216797 0)"/>
     <use xlink:href="#DejaVuSans-74" transform="translate(948.496094 0)"/>
     <use xlink:href="#DejaVuSans-69" transform="translate(987.705078 0)"/>
     <use xlink:href="#DejaVuSans-6e" transform="translate(1015.488281 0)"/>
     <use xlink:href="#DejaVuSans-67" transform="translate(1078.867188 0)"/>
     <use xlink:href="#DejaVuSans-20" transform="translate(1142.34375 0)"/>
     <use xlink:href="#DejaVuSans-45" transform="translate(1174.130859 0)"/>
     <use xlink:href="#DejaVuSans-73" transform="translate(1237.314453 0)"/>
     <use xlink:href="#DejaVuSans-74" transform="translate(1289.414062 0)"/>
     <use xlink:href="#DejaVuSans-69" transform="translate(1328.623047 0)"/>
     <use xlink:href="#DejaVuSans-6d" transform="translate(1356.40625 0)"/>
     <use xlink:href="#DejaVuSans-61" transform="translate(1453.818359 0)"/>
     <use xlink:href="#DejaVuSans-74" transform="translate(1515.097656 0)"/>
     <use xlink:href="#DejaVuSans-69" transform="translate(1554.306641 0)"/>
     <use xlink:href="#DejaVuSans-6f" transform="translate(1582.089844 0)"/>
     <use xlink:href="#DejaVuSans-6e" transform="translate(1643.271484 0)"/>
     <use xlink:href="#DejaVuSans-20" transform="translate(1706.650391 0)"/>
     <use xlink:href="#DejaVuSans-4c" transform="translate(1738.4375 0)"/>
     <use xlink:href="#DejaVuSans-6f" transform="translate(1792.400391 0)"/>
     <use xlink:href="#DejaVuSans-73" transform="translate(1853.582031 0)"/>
     <use xlink:href="#DejaVuSans-73" transform="translate(1905.681641 0)"/>
    </g>
   </g>
   <g id="legend_1">
    <g id="patch_7">
     <path d="M 521.439062 109.9125 
L 641 109.9125 
Q 643 109.9125 643 107.9125 
L 643 50.2 
Q 643 48.2 641 48.2 
L 521.439062 48.2 
Q 519.439062 48.2 519.439062 50.2 
L 519.439062 107.9125 
Q 519.439062 109.9125 521.439062 109.9125 
z
" style="fill: #ffffff; opacity: 0.8; stroke: #cccccc; stroke-linejoin: miter"/>
    </g>
    <g id="line2d_15">
     <path d="M 523.439062 56.298437 
L 533.439062 56.298437 
L 543.439062 56.298437 
" style="fill: none; stroke: #1f77b4; stroke-width: 1.5; stroke-linecap: square"/>
    </g>
    <g id="text_14">
     <!-- Training-Source -->
     <g transform="translate(551.439062 59.798437) scale(0.1 -0.1)">
      <defs>
       <path id="DejaVuSans-2d" d="M 313 2009 
L 1997 2009 
L 1997 1497 
L 313 1497 
L 313 2009 
z
" transform="scale(0.015625)"/>
       <path id="DejaVuSans-53" d="M 3425 4513 
L 3425 3897 
Q 3066 4069 2747 4153 
Q 2428 4238 2131 4238 
Q 1616 4238 1336 4038 
Q 1056 3838 1056 3469 
Q 1056 3159 1242 3001 
Q 1428 2844 1947 2747 
L 2328 2669 
Q 3034 2534 3370 2195 
Q 3706 1856 3706 1288 
Q 3706 609 3251 259 
Q 2797 -91 1919 -91 
Q 1588 -91 1214 -16 
Q 841 59 441 206 
L 441 856 
Q 825 641 1194 531 
Q 1563 422 1919 422 
Q 2459 422 2753 634 
Q 3047 847 3047 1241 
Q 3047 1584 2836 1778 
Q 2625 1972 2144 2069 
L 1759 2144 
Q 1053 2284 737 2584 
Q 422 2884 422 3419 
Q 422 4038 858 4394 
Q 1294 4750 2059 4750 
Q 2388 4750 2728 4690 
Q 3069 4631 3425 4513 
z
" transform="scale(0.015625)"/>
       <path id="DejaVuSans-75" d="M 544 1381 
L 544 3500 
L 1119 3500 
L 1119 1403 
Q 1119 906 1312 657 
Q 1506 409 1894 409 
Q 2359 409 2629 706 
Q 2900 1003 2900 1516 
L 2900 3500 
L 3475 3500 
L 3475 0 
L 2900 0 
L 2900 538 
Q 2691 219 2414 64 
Q 2138 -91 1772 -91 
Q 1169 -91 856 284 
Q 544 659 544 1381 
z
M 1991 3584 
L 1991 3584 
z
" transform="scale(0.015625)"/>
       <path id="DejaVuSans-65" d="M 3597 1894 
L 3597 1613 
L 953 1613 
Q 991 1019 1311 708 
Q 1631 397 2203 397 
Q 2534 397 2845 478 
Q 3156 559 3463 722 
L 3463 178 
Q 3153 47 2828 -22 
Q 2503 -91 2169 -91 
Q 1331 -91 842 396 
Q 353 884 353 1716 
Q 353 2575 817 3079 
Q 1281 3584 2069 3584 
Q 2775 3584 3186 3129 
Q 3597 2675 3597 1894 
z
M 3022 2063 
Q 3016 2534 2758 2815 
Q 2500 3097 2075 3097 
Q 1594 3097 1305 2825 
Q 1016 2553 972 2059 
L 3022 2063 
z
" transform="scale(0.015625)"/>
      </defs>
      <use xlink:href="#DejaVuSans-54"/>
      <use xlink:href="#DejaVuSans-72" transform="translate(46.333984 0)"/>
      <use xlink:href="#DejaVuSans-61" transform="translate(87.447266 0)"/>
      <use xlink:href="#DejaVuSans-69" transform="translate(148.726562 0)"/>
      <use xlink:href="#DejaVuSans-6e" transform="translate(176.509766 0)"/>
      <use xlink:href="#DejaVuSans-69" transform="translate(239.888672 0)"/>
      <use xlink:href="#DejaVuSans-6e" transform="translate(267.671875 0)"/>
      <use xlink:href="#DejaVuSans-67" transform="translate(331.050781 0)"/>
      <use xlink:href="#DejaVuSans-2d" transform="translate(394.527344 0)"/>
      <use xlink:href="#DejaVuSans-53" transform="translate(430.611328 0)"/>
      <use xlink:href="#DejaVuSans-6f" transform="translate(494.087891 0)"/>
      <use xlink:href="#DejaVuSans-75" transform="translate(555.269531 0)"/>
      <use xlink:href="#DejaVuSans-72" transform="translate(618.648438 0)"/>
      <use xlink:href="#DejaVuSans-63" transform="translate(657.511719 0)"/>
      <use xlink:href="#DejaVuSans-65" transform="translate(712.492188 0)"/>
     </g>
    </g>
    <g id="line2d_16">
     <path d="M 523.439062 70.976562 
L 533.439062 70.976562 
L 543.439062 70.976562 
" style="fill: none; stroke: #ff7f0e; stroke-width: 1.5; stroke-linecap: square"/>
    </g>
    <g id="text_15">
     <!-- Training-Target -->
     <g transform="translate(551.439062 74.476562) scale(0.1 -0.1)">
      <use xlink:href="#DejaVuSans-54"/>
      <use xlink:href="#DejaVuSans-72" transform="translate(46.333984 0)"/>
      <use xlink:href="#DejaVuSans-61" transform="translate(87.447266 0)"/>
      <use xlink:href="#DejaVuSans-69" transform="translate(148.726562 0)"/>
      <use xlink:href="#DejaVuSans-6e" transform="translate(176.509766 0)"/>
      <use xlink:href="#DejaVuSans-69" transform="translate(239.888672 0)"/>
      <use xlink:href="#DejaVuSans-6e" transform="translate(267.671875 0)"/>
      <use xlink:href="#DejaVuSans-67" transform="translate(331.050781 0)"/>
      <use xlink:href="#DejaVuSans-2d" transform="translate(394.527344 0)"/>
      <use xlink:href="#DejaVuSans-54" transform="translate(421.486328 0)"/>
      <use xlink:href="#DejaVuSans-61" transform="translate(466.070312 0)"/>
      <use xlink:href="#DejaVuSans-72" transform="translate(527.349609 0)"/>
      <use xlink:href="#DejaVuSans-67" transform="translate(566.712891 0)"/>
      <use xlink:href="#DejaVuSans-65" transform="translate(630.189453 0)"/>
      <use xlink:href="#DejaVuSans-74" transform="translate(691.712891 0)"/>
     </g>
    </g>
    <g id="line2d_17">
     <path d="M 523.439062 85.654687 
L 533.439062 85.654687 
L 543.439062 85.654687 
" style="fill: none; stroke: #2ca02c; stroke-width: 1.5; stroke-linecap: square"/>
    </g>
    <g id="text_16">
     <!-- Validating-Source -->
     <g transform="translate(551.439062 89.154687) scale(0.1 -0.1)">
      <use xlink:href="#DejaVuSans-56"/>
      <use xlink:href="#DejaVuSans-61" transform="translate(60.658203 0)"/>
      <use xlink:href="#DejaVuSans-6c" transform="translate(121.9375 0)"/>
      <use xlink:href="#DejaVuSans-69" transform="translate(149.720703 0)"/>
      <use xlink:href="#DejaVuSans-64" transform="translate(177.503906 0)"/>
      <use xlink:href="#DejaVuSans-61" transform="translate(240.980469 0)"/>
      <use xlink:href="#DejaVuSans-74" transform="translate(302.259766 0)"/>
      <use xlink:href="#DejaVuSans-69" transform="translate(341.46875 0)"/>
      <use xlink:href="#DejaVuSans-6e" transform="translate(369.251953 0)"/>
      <use xlink:href="#DejaVuSans-67" transform="translate(432.630859 0)"/>
      <use xlink:href="#DejaVuSans-2d" transform="translate(496.107422 0)"/>
      <use xlink:href="#DejaVuSans-53" transform="translate(532.191406 0)"/>
      <use xlink:href="#DejaVuSans-6f" transform="translate(595.667969 0)"/>
      <use xlink:href="#DejaVuSans-75" transform="translate(656.849609 0)"/>
      <use xlink:href="#DejaVuSans-72" transform="translate(720.228516 0)"/>
      <use xlink:href="#DejaVuSans-63" transform="translate(759.091797 0)"/>
      <use xlink:href="#DejaVuSans-65" transform="translate(814.072266 0)"/>
     </g>
    </g>
    <g id="line2d_18">
     <path d="M 523.439062 100.332812 
L 533.439062 100.332812 
L 543.439062 100.332812 
" style="fill: none; stroke: #d62728; stroke-width: 1.5; stroke-linecap: square"/>
    </g>
    <g id="text_17">
     <!-- Validating-Target -->
     <g transform="translate(551.439062 103.832812) scale(0.1 -0.1)">
      <use xlink:href="#DejaVuSans-56"/>
      <use xlink:href="#DejaVuSans-61" transform="translate(60.658203 0)"/>
      <use xlink:href="#DejaVuSans-6c" transform="translate(121.9375 0)"/>
      <use xlink:href="#DejaVuSans-69" transform="translate(149.720703 0)"/>
      <use xlink:href="#DejaVuSans-64" transform="translate(177.503906 0)"/>
      <use xlink:href="#DejaVuSans-61" transform="translate(240.980469 0)"/>
      <use xlink:href="#DejaVuSans-74" transform="translate(302.259766 0)"/>
      <use xlink:href="#DejaVuSans-69" transform="translate(341.46875 0)"/>
      <use xlink:href="#DejaVuSans-6e" transform="translate(369.251953 0)"/>
      <use xlink:href="#DejaVuSans-67" transform="translate(432.630859 0)"/>
      <use xlink:href="#DejaVuSans-2d" transform="translate(496.107422 0)"/>
      <use xlink:href="#DejaVuSans-54" transform="translate(523.066406 0)"/>
      <use xlink:href="#DejaVuSans-61" transform="translate(567.650391 0)"/>
      <use xlink:href="#DejaVuSans-72" transform="translate(628.929688 0)"/>
      <use xlink:href="#DejaVuSans-67" transform="translate(668.292969 0)"/>
      <use xlink:href="#DejaVuSans-65" transform="translate(731.769531 0)"/>
      <use xlink:href="#DejaVuSans-74" transform="translate(793.292969 0)"/>
     </g>
    </g>
   </g>
  </g>
 </g>
 <defs>
  <clipPath id="p89d7f0fb71">
   <rect x="90" y="43.2" width="558" height="277.2"/>
  </clipPath>
 </defs>
</svg>
