<?xml version="1.0" encoding="utf-8" standalone="no"?>
<!DOCTYPE svg PUBLIC "-//W3C//DTD SVG 1.1//EN"
  "http://www.w3.org/Graphics/SVG/1.1/DTD/svg11.dtd">
<svg xmlns:xlink="http://www.w3.org/1999/xlink" width="720pt" height="360pt" viewBox="0 0 720 360" xmlns="http://www.w3.org/2000/svg" version="1.1">
 <metadata>
  <rdf:RDF xmlns:dc="http://purl.org/dc/elements/1.1/" xmlns:cc="http://creativecommons.org/ns#" xmlns:rdf="http://www.w3.org/1999/02/22-rdf-syntax-ns#">
   <cc:Work>
    <dc:type rdf:resource="http://purl.org/dc/dcmitype/StillImage"/>
    <dc:date>2026-02-17T19:17:07.005790</dc:date>
    <dc:format>image/svg+xml</dc:format>
    <dc:creator>
     <cc:Agent>
      <dc:title>Matplotlib v3.10.1, https://matplotlib.org/</dc:title>
     </cc:Agent>
    </dc:creator>
   </cc:Work>
  </rdf:RDF>
 </metadata>
 <defs>
  <style type="text/css">*{stroke-linejoin: round; stroke-linecap: butt}</style>
 </defs>
 <g id="figure_1">
  <g id="patch_1">
   <path d="M 0 360 
L 720 360 
L 720 0 
L 0 0 
z
" style="fill: #ffffff"/>
  </g>
  <g id="axes_1">
   <g id="patch_2">
    <path d="M 90 320.4 
L 648 320.4 
L 648 43.2 
L 90 43.2 
z
" style="fill: #ffffff"/>
   </g>
   <g id="matplotlib.axis_1">
    <g id="xtick_1">
     <g id="line2d_1">
      <defs>
       <path id="m6b48bea8f9" d="M 0 0 
L 0 3.5 
" style="stroke: #000000; stroke-width: 0.8"/>
      </defs>
      <g>
       <use xlink:href="#m6b48bea8f9" x="115.363636" y="320.4" style="stroke: #000000; stroke-width: 0.8"/>
      </g>
     </g>
     <g id="text_1">
      <!-- 0 -->
      <g transform="translate(112.182386 334.998438) scale(0.1 -0.1)">
       <defs>
        <path id="DejaVuSans-30" d="M 2034 4250 
Q 1547 4250 1301 3770 
Q 1056 3291 1056 2328 
Q 1056 1369 1301 889 
Q 1547 409 2034 409 
Q 2525 409 2770 889 
Q 3016 1369 3016 2328 
Q 3016 3291 2770 3770 
Q 2525 4250 2034 4250 
z
M 2034 4750 
Q 2819 4750 3233 4129 
Q 3647 3509 3647 2328 
Q 3647 1150 3233 529 
Q 2819 -91 2034 -91 
Q 1250 -91 836 529 
Q 422 1150 422 2328 
Q 422 3509 836 4129 
Q 1250 4750 2034 4750 
z
" transform="scale(0.015625)"/>
       </defs>
       <use xlink:href="#DejaVuSans-30"/>
      </g>
     </g>
    </g>
    <g id="xtick_2">
     <g id="line2d_2">
      <g>
       <use xlink:href="#m6b48bea8f9" x="217.157495" y="320.4" style="stroke: #000000; stroke-width: 0.8"/>
      </g>
     </g>
     <g id="text_2">
      <!-- 60 -->
      <g transform="translate(210.794995 334.998438) scale(0.1 -0.1)">
       <defs>
        <path id="DejaVuSans-36" d="M 2113 2584 
Q 1688 2584 1439 2293 
Q 1191 2003 1191 1497 
Q 1191 994 1439 701 
Q 1688 409 2113 409 
Q 2538 409 2786 701 
Q 3034 994 3034 1497 
Q 3034 2003 2786 2293 
Q 2538 2584 2113 2584 
z
M 3366 4563 
L 3366 3988 
Q 3128 4100 2886 4159 
Q 2644 4219 2406 4219 
Q 1781 4219 1451 3797 
Q 1122 3375 1075 2522 
Q 1259 2794 1537 2939 
Q 1816 3084 2150 3084 
Q 2853 3084 3261 2657 
Q 3669 2231 3669 1497 
Q 3669 778 3244 343 
Q 2819 -91 2113 -91 
Q 1303 -91 875 529 
Q 447 1150 447 2328 
Q 447 3434 972 4092 
Q 1497 4750 2381 4750 
Q 2619 4750 2861 4703 
Q 3103 4656 3366 4563 
z
" transform="scale(0.015625)"/>
       </defs>
       <use xlink:href="#DejaVuSans-36"/>
       <use xlink:href="#DejaVuSans-30" transform="translate(63.623047 0)"/>
      </g>
     </g>
    </g>
    <g id="xtick_3">
     <g id="line2d_3">
      <g>
       <use xlink:href="#m6b48bea8f9" x="318.951353" y="320.4" style="stroke: #000000; stroke-width: 0.8"/>
      </g>
     </g>
     <g id="text_3">
      <!-- 120 -->
      <g transform="translate(309.407603 334.998438) scale(0.1 -0.1)">
       <defs>
        <path id="DejaVuSans-31" d="M 794 531 
L 1825 531 
L 1825 4091 
L 703 3866 
L 703 4441 
L 1819 4666 
L 2450 4666 
L 2450 531 
L 3481 531 
L 3481 0 
L 794 0 
L 794 531 
z
" transform="scale(0.015625)"/>
        <path id="DejaVuSans-32" d="M 1228 531 
L 3431 531 
L 3431 0 
L 469 0 
L 469 531 
Q 828 903 1448 1529 
Q 2069 2156 2228 2338 
Q 2531 2678 2651 2914 
Q 2772 3150 2772 3378 
Q 2772 3750 2511 3984 
Q 2250 4219 1831 4219 
Q 1534 4219 1204 4116 
Q 875 4013 500 3803 
L 500 4441 
Q 881 4594 1212 4672 
Q 1544 4750 1819 4750 
Q 2544 4750 2975 4387 
Q 3406 4025 3406 3419 
Q 3406 3131 3298 2873 
Q 3191 2616 2906 2266 
Q 2828 2175 2409 1742 
Q 1991 1309 1228 531 
z
" transform="scale(0.015625)"/>
       </defs>
       <use xlink:href="#DejaVuSans-31"/>
       <use xlink:href="#DejaVuSans-32" transform="translate(63.623047 0)"/>
       <use xlink:href="#DejaVuSans-30" transform="translate(127.246094 0)"/>
      </g>
     </g>
    </g>
    <g id="xtick_4">
     <g id="line2d_4">
      <g>
       <use xlink:href="#m6b48bea8f9" x="420.745211" y="320.4" style="stroke: #000000; stroke-width: 0.8"/>
      </g>
     </g>
     <g id="text_4">
      <!-- 180 -->
      <g transform="translate(411.201461 334.998438) scale(0.1 -0.1)">
       <defs>
        <path id="DejaVuSans-38" d="M 2034 2216 
Q 1584 2216 1326 1975 
Q 1069 1734 1069 1313 
Q 1069 891 1326 650 
Q 1584 409 2034 409 
Q 2484 409 2743 651 
Q 3003 894 3003 1313 
Q 3003 1734 2745 1975 
Q 2488 2216 2034 2216 
z
M 1403 2484 
Q 997 2584 770 2862 
Q 544 3141 544 3541 
Q 544 4100 942 4425 
Q 1341 4750 2034 4750 
Q 2731 4750 3128 4425 
Q 3525 4100 3525 3541 
Q 3525 3141 3298 2862 
Q 3072 2584 2669 2484 
Q 3125 2378 3379 2068 
Q 3634 1759 3634 1313 
Q 3634 634 3220 271 
Q 2806 -91 2034 -91 
Q 1263 -91 848 271 
Q 434 634 434 1313 
Q 434 1759 690 2068 
Q 947 2378 1403 2484 
z
M 1172 3481 
Q 1172 3119 1398 2916 
Q 1625 2713 2034 2713 
Q 2441 2713 2670 2916 
Q 2900 3119 2900 3481 
Q 2900 3844 2670 4047 
Q 2441 4250 2034 4250 
Q 1625 4250 1398 4047 
Q 1172 3844 1172 3481 
z
" transform="scale(0.015625)"/>
       </defs>
       <use xlink:href="#DejaVuSans-31"/>
       <use xlink:href="#DejaVuSans-38" transform="translate(63.623047 0)"/>
       <use xlink:href="#DejaVuSans-30" transform="translate(127.246094 0)"/>
      </g>
     </g>
    </g>
    <g id="xtick_5">
     <g id="line2d_5">
      <g>
       <use xlink:href="#m6b48bea8f9" x="522.53907" y="320.4" style="stroke: #000000; stroke-width: 0.8"/>
      </g>
     </g>
     <g id="text_5">
      <!-- 240 -->
      <g transform="translate(512.99532 334.998438) scale(0.1 -0.1)">
       <defs>
        <path id="DejaVuSans-34" d="M 2419 4116 
L 825 1625 
L 2419 1625 
L 2419 4116 
z
M 2253 4666 
L 3047 4666 
L 3047 1625 
L 3713 1625 
L 3713 1100 
L 3047 1100 
L 3047 0 
L 2419 0 
L 2419 1100 
L 313 1100 
L 313 1709 
L 2253 4666 
z
" transform="scale(0.015625)"/>
       </defs>
       <use xlink:href="#DejaVuSans-32"/>
       <use xlink:href="#DejaVuSans-34" transform="translate(63.623047 0)"/>
       <use xlink:href="#DejaVuSans-30" transform="translate(127.246094 0)"/>
      </g>
     </g>
    </g>
    <g id="text_6">
     <!-- Epoch -->
     <g transform="translate(353.689062 348.676562) scale(0.1 -0.1)">
      <defs>
       <path id="DejaVuSans-45" d="M 628 4666 
L 3578 4666 
L 3578 4134 
L 1259 4134 
L 1259 2753 
L 3481 2753 
L 3481 2222 
L 1259 2222 
L 1259 531 
L 3634 531 
L 3634 0 
L 628 0 
L 628 4666 
z
" transform="scale(0.015625)"/>
       <path id="DejaVuSans-70" d="M 1159 525 
L 1159 -1331 
L 581 -1331 
L 581 3500 
L 1159 3500 
L 1159 2969 
Q 1341 3281 1617 3432 
Q 1894 3584 2278 3584 
Q 2916 3584 3314 3078 
Q 3713 2572 3713 1747 
Q 3713 922 3314 415 
Q 2916 -91 2278 -91 
Q 1894 -91 1617 61 
Q 1341 213 1159 525 
z
M 3116 1747 
Q 3116 2381 2855 2742 
Q 2594 3103 2138 3103 
Q 1681 3103 1420 2742 
Q 1159 2381 1159 1747 
Q 1159 1113 1420 752 
Q 1681 391 2138 391 
Q 2594 391 2855 752 
Q 3116 1113 3116 1747 
z
" transform="scale(0.015625)"/>
       <path id="DejaVuSans-6f" d="M 1959 3097 
Q 1497 3097 1228 2736 
Q 959 2375 959 1747 
Q 959 1119 1226 758 
Q 1494 397 1959 397 
Q 2419 397 2687 759 
Q 2956 1122 2956 1747 
Q 2956 2369 2687 2733 
Q 2419 3097 1959 3097 
z
M 1959 3584 
Q 2709 3584 3137 3096 
Q 3566 2609 3566 1747 
Q 3566 888 3137 398 
Q 2709 -91 1959 -91 
Q 1206 -91 779 398 
Q 353 888 353 1747 
Q 353 2609 779 3096 
Q 1206 3584 1959 3584 
z
" transform="scale(0.015625)"/>
       <path id="DejaVuSans-63" d="M 3122 3366 
L 3122 2828 
Q 2878 2963 2633 3030 
Q 2388 3097 2138 3097 
Q 1578 3097 1268 2742 
Q 959 2388 959 1747 
Q 959 1106 1268 751 
Q 1578 397 2138 397 
Q 2388 397 2633 464 
Q 2878 531 3122 666 
L 3122 134 
Q 2881 22 2623 -34 
Q 2366 -91 2075 -91 
Q 1284 -91 818 406 
Q 353 903 353 1747 
Q 353 2603 823 3093 
Q 1294 3584 2113 3584 
Q 2378 3584 2631 3529 
Q 2884 3475 3122 3366 
z
" transform="scale(0.015625)"/>
       <path id="DejaVuSans-68" d="M 3513 2113 
L 3513 0 
L 2938 0 
L 2938 2094 
Q 2938 2591 2744 2837 
Q 2550 3084 2163 3084 
Q 1697 3084 1428 2787 
Q 1159 2491 1159 1978 
L 1159 0 
L 581 0 
L 581 4863 
L 1159 4863 
L 1159 2956 
Q 1366 3272 1645 3428 
Q 1925 3584 2291 3584 
Q 2894 3584 3203 3211 
Q 3513 2838 3513 2113 
z
" transform="scale(0.015625)"/>
      </defs>
      <use xlink:href="#DejaVuSans-45"/>
      <use xlink:href="#DejaVuSans-70" transform="translate(63.183594 0)"/>
      <use xlink:href="#DejaVuSans-6f" transform="translate(126.660156 0)"/>
      <use xlink:href="#DejaVuSans-63" transform="translate(187.841797 0)"/>
      <use xlink:href="#DejaVuSans-68" transform="translate(242.822266 0)"/>
     </g>
    </g>
   </g>
   <g id="matplotlib.axis_2">
    <g id="ytick_1">
     <g id="line2d_6">
      <defs>
       <path id="m4f4707102f" d="M 0 0 
L -3.5 0 
" style="stroke: #000000; stroke-width: 0.8"/>
      </defs>
      <g>
       <use xlink:href="#m4f4707102f" x="90" y="310.48205" style="stroke: #000000; stroke-width: 0.8"/>
      </g>
     </g>
     <g id="text_7">
      <!-- 0.00 -->
      <g transform="translate(60.734375 314.281269) scale(0.1 -0.1)">
       <defs>
        <path id="DejaVuSans-2e" d="M 684 794 
L 1344 794 
L 1344 0 
L 684 0 
L 684 794 
z
" transform="scale(0.015625)"/>
       </defs>
       <use xlink:href="#DejaVuSans-30"/>
       <use xlink:href="#DejaVuSans-2e" transform="translate(63.623047 0)"/>
       <use xlink:href="#DejaVuSans-30" transform="translate(95.410156 0)"/>
       <use xlink:href="#DejaVuSans-30" transform="translate(159.033203 0)"/>
      </g>
     </g>
    </g>
    <g id="ytick_2">
     <g id="line2d_7">
      <g>
       <use xlink:href="#m4f4707102f" x="90" y="277.645619" style="stroke: #000000; stroke-width: 0.8"/>
      </g>
     </g>
     <g id="text_8">
      <!-- 0.01 -->
      <g transform="translate(60.734375 281.444837) scale(0.1 -0.1)">
       <use xlink:href="#DejaVuSans-30"/>
       <use xlink:href="#DejaVuSans-2e" transform="translate(63.623047 0)"/>
       <use xlink:href="#DejaVuSans-30" transform="translate(95.410156 0)"/>
       <use xlink:href="#DejaVuSans-31" transform="translate(159.033203 0)"/>
      </g>
     </g>
    </g>
    <g id="ytick_3">
     <g id="line2d_8">
      <g>
       <use xlink:href="#m4f4707102f" x="90" y="244.809187" style="stroke: #000000; stroke-width: 0.8"/>
      </g>
     </g>
     <g id="text_9">
      <!-- 0.02 -->
      <g transform="translate(60.734375 248.608406) scale(0.1 -0.1)">
       <use xlink:href="#DejaVuSans-30"/>
       <use xlink:href="#DejaVuSans-2e" transform="translate(63.623047 0)"/>
       <use xlink:href="#DejaVuSans-30" transform="translate(95.410156 0)"/>
       <use xlink:href="#DejaVuSans-32" transform="translate(159.033203 0)"/>
      </g>
     </g>
    </g>
    <g id="ytick_4">
     <g id="line2d_9">
      <g>
       <use xlink:href="#m4f4707102f" x="90" y="211.972756" style="stroke: #000000; stroke-width: 0.8"/>
      </g>
     </g>
     <g id="text_10">
      <!-- 0.03 -->
      <g transform="translate(60.734375 215.771974) scale(0.1 -0.1)">
       <defs>
        <path id="DejaVuSans-33" d="M 2597 2516 
Q 3050 2419 3304 2112 
Q 3559 1806 3559 1356 
Q 3559 666 3084 287 
Q 2609 -91 1734 -91 
Q 1441 -91 1130 -33 
Q 819 25 488 141 
L 488 750 
Q 750 597 1062 519 
Q 1375 441 1716 441 
Q 2309 441 2620 675 
Q 2931 909 2931 1356 
Q 2931 1769 2642 2001 
Q 2353 2234 1838 2234 
L 1294 2234 
L 1294 2753 
L 1863 2753 
Q 2328 2753 2575 2939 
Q 2822 3125 2822 3475 
Q 2822 3834 2567 4026 
Q 2313 4219 1838 4219 
Q 1578 4219 1281 4162 
Q 984 4106 628 3988 
L 628 4550 
Q 988 4650 1302 4700 
Q 1616 4750 1894 4750 
Q 2613 4750 3031 4423 
Q 3450 4097 3450 3541 
Q 3450 3153 3228 2886 
Q 3006 2619 2597 2516 
z
" transform="scale(0.015625)"/>
       </defs>
       <use xlink:href="#DejaVuSans-30"/>
       <use xlink:href="#DejaVuSans-2e" transform="translate(63.623047 0)"/>
       <use xlink:href="#DejaVuSans-30" transform="translate(95.410156 0)"/>
       <use xlink:href="#DejaVuSans-33" transform="translate(159.033203 0)"/>
      </g>
     </g>
    </g>
    <g id="ytick_5">
     <g id="line2d_10">
      <g>
       <use xlink:href="#m4f4707102f" x="90" y="179.136324" style="stroke: #000000; stroke-width: 0.8"/>
      </g>
     </g>
     <g id="text_11">
      <!-- 0.04 -->
      <g transform="translate(60.734375 182.935543) scale(0.1 -0.1)">
       <use xlink:href="#DejaVuSans-30"/>
       <use xlink:href="#DejaVuSans-2e" transform="translate(63.623047 0)"/>
       <use xlink:href="#DejaVuSans-30" transform="translate(95.410156 0)"/>
       <use xlink:href="#DejaVuSans-34" transform="translate(159.033203 0)"/>
      </g>
     </g>
    </g>
    <g id="ytick_6">
     <g id="line2d_11">
      <g>
       <use xlink:href="#m4f4707102f" x="90" y="146.299893" style="stroke: #000000; stroke-width: 0.8"/>
      </g>
     </g>
     <g id="text_12">
      <!-- 0.05 -->
      <g transform="translate(60.734375 150.099111) scale(0.1 -0.1)">
       <defs>
        <path id="DejaVuSans-35" d="M 691 4666 
L 3169 4666 
L 3169 4134 
L 1269 4134 
L 1269 2991 
Q 1406 3038 1543 3061 
Q 1681 3084 1819 3084 
Q 2600 3084 3056 2656 
Q 3513 2228 3513 1497 
Q 3513 744 3044 326 
Q 2575 -91 1722 -91 
Q 1428 -91 1123 -41 
Q 819 9 494 109 
L 494 744 
Q 775 591 1075 516 
Q 1375 441 1709 441 
Q 2250 441 2565 725 
Q 2881 1009 2881 1497 
Q 2881 1984 2565 2268 
Q 2250 2553 1709 2553 
Q 1456 2553 1204 2497 
Q 953 2441 691 2322 
L 691 4666 
z
" transform="scale(0.015625)"/>
       </defs>
       <use xlink:href="#DejaVuSans-30"/>
       <use xlink:href="#DejaVuSans-2e" transform="translate(63.623047 0)"/>
       <use xlink:href="#DejaVuSans-30" transform="translate(95.410156 0)"/>
       <use xlink:href="#DejaVuSans-35" transform="translate(159.033203 0)"/>
      </g>
     </g>
    </g>
    <g id="ytick_7">
     <g id="line2d_12">
      <g>
       <use xlink:href="#m4f4707102f" x="90" y="113.463461" style="stroke: #000000; stroke-width: 0.8"/>
      </g>
     </g>
     <g id="text_13">
      <!-- 0.06 -->
      <g transform="translate(60.734375 117.26268) scale(0.1 -0.1)">
       <use xlink:href="#DejaVuSans-30"/>
       <use xlink:href="#DejaVuSans-2e" transform="translate(63.623047 0)"/>
       <use xlink:href="#DejaVuSans-30" transform="translate(95.410156 0)"/>
       <use xlink:href="#DejaVuSans-36" transform="translate(159.033203 0)"/>
      </g>
     </g>
    </g>
    <g id="ytick_8">
     <g id="line2d_13">
      <g>
       <use xlink:href="#m4f4707102f" x="90" y="80.62703" style="stroke: #000000; stroke-width: 0.8"/>
      </g>
     </g>
     <g id="text_14">
      <!-- 0.07 -->
      <g transform="translate(60.734375 84.426248) scale(0.1 -0.1)">
       <defs>
        <path id="DejaVuSans-37" d="M 525 4666 
L 3525 4666 
L 3525 4397 
L 1831 0 
L 1172 0 
L 2766 4134 
L 525 4134 
L 525 4666 
z
" transform="scale(0.015625)"/>
       </defs>
       <use xlink:href="#DejaVuSans-30"/>
       <use xlink:href="#DejaVuSans-2e" transform="translate(63.623047 0)"/>
       <use xlink:href="#DejaVuSans-30" transform="translate(95.410156 0)"/>
       <use xlink:href="#DejaVuSans-37" transform="translate(159.033203 0)"/>
      </g>
     </g>
    </g>
    <g id="ytick_9">
     <g id="line2d_14">
      <g>
       <use xlink:href="#m4f4707102f" x="90" y="47.790598" style="stroke: #000000; stroke-width: 0.8"/>
      </g>
     </g>
     <g id="text_15">
      <!-- 0.08 -->
      <g transform="translate(60.734375 51.589817) scale(0.1 -0.1)">
       <use xlink:href="#DejaVuSans-30"/>
       <use xlink:href="#DejaVuSans-2e" transform="translate(63.623047 0)"/>
       <use xlink:href="#DejaVuSans-30" transform="translate(95.410156 0)"/>
       <use xlink:href="#DejaVuSans-38" transform="translate(159.033203 0)"/>
      </g>
     </g>
    </g>
    <g id="text_16">
     <!-- Estimation Loss -->
     <g transform="translate(54.654687 220.98125) rotate(-90) scale(0.1 -0.1)">
      <defs>
       <path id="DejaVuSans-73" d="M 2834 3397 
L 2834 2853 
Q 2591 2978 2328 3040 
Q 2066 3103 1784 3103 
Q 1356 3103 1142 2972 
Q 928 2841 928 2578 
Q 928 2378 1081 2264 
Q 1234 2150 1697 2047 
L 1894 2003 
Q 2506 1872 2764 1633 
Q 3022 1394 3022 966 
Q 3022 478 2636 193 
Q 2250 -91 1575 -91 
Q 1294 -91 989 -36 
Q 684 19 347 128 
L 347 722 
Q 666 556 975 473 
Q 1284 391 1588 391 
Q 1994 391 2212 530 
Q 2431 669 2431 922 
Q 2431 1156 2273 1281 
Q 2116 1406 1581 1522 
L 1381 1569 
Q 847 1681 609 1914 
Q 372 2147 372 2553 
Q 372 3047 722 3315 
Q 1072 3584 1716 3584 
Q 2034 3584 2315 3537 
Q 2597 3491 2834 3397 
z
" transform="scale(0.015625)"/>
       <path id="DejaVuSans-74" d="M 1172 4494 
L 1172 3500 
L 2356 3500 
L 2356 3053 
L 1172 3053 
L 1172 1153 
Q 1172 725 1289 603 
Q 1406 481 1766 481 
L 2356 481 
L 2356 0 
L 1766 0 
Q 1100 0 847 248 
Q 594 497 594 1153 
L 594 3053 
L 172 3053 
L 172 3500 
L 594 3500 
L 594 4494 
L 1172 4494 
z
" transform="scale(0.015625)"/>
       <path id="DejaVuSans-69" d="M 603 3500 
L 1178 3500 
L 1178 0 
L 603 0 
L 603 3500 
z
M 603 4863 
L 1178 4863 
L 1178 4134 
L 603 4134 
L 603 4863 
z
" transform="scale(0.015625)"/>
       <path id="DejaVuSans-6d" d="M 3328 2828 
Q 3544 3216 3844 3400 
Q 4144 3584 4550 3584 
Q 5097 3584 5394 3201 
Q 5691 2819 5691 2113 
L 5691 0 
L 5113 0 
L 5113 2094 
Q 5113 2597 4934 2840 
Q 4756 3084 4391 3084 
Q 3944 3084 3684 2787 
Q 3425 2491 3425 1978 
L 3425 0 
L 2847 0 
L 2847 2094 
Q 2847 2600 2669 2842 
Q 2491 3084 2119 3084 
Q 1678 3084 1418 2786 
Q 1159 2488 1159 1978 
L 1159 0 
L 581 0 
L 581 3500 
L 1159 3500 
L 1159 2956 
Q 1356 3278 1631 3431 
Q 1906 3584 2284 3584 
Q 2666 3584 2933 3390 
Q 3200 3197 3328 2828 
z
" transform="scale(0.015625)"/>
       <path id="DejaVuSans-61" d="M 2194 1759 
Q 1497 1759 1228 1600 
Q 959 1441 959 1056 
Q 959 750 1161 570 
Q 1363 391 1709 391 
Q 2188 391 2477 730 
Q 2766 1069 2766 1631 
L 2766 1759 
L 2194 1759 
z
M 3341 1997 
L 3341 0 
L 2766 0 
L 2766 531 
Q 2569 213 2275 61 
Q 1981 -91 1556 -91 
Q 1019 -91 701 211 
Q 384 513 384 1019 
Q 384 1609 779 1909 
Q 1175 2209 1959 2209 
L 2766 2209 
L 2766 2266 
Q 2766 2663 2505 2880 
Q 2244 3097 1772 3097 
Q 1472 3097 1187 3025 
Q 903 2953 641 2809 
L 641 3341 
Q 956 3463 1253 3523 
Q 1550 3584 1831 3584 
Q 2591 3584 2966 3190 
Q 3341 2797 3341 1997 
z
" transform="scale(0.015625)"/>
       <path id="DejaVuSans-6e" d="M 3513 2113 
L 3513 0 
L 2938 0 
L 2938 2094 
Q 2938 2591 2744 2837 
Q 2550 3084 2163 3084 
Q 1697 3084 1428 2787 
Q 1159 2491 1159 1978 
L 1159 0 
L 581 0 
L 581 3500 
L 1159 3500 
L 1159 2956 
Q 1366 3272 1645 3428 
Q 1925 3584 2291 3584 
Q 2894 3584 3203 3211 
Q 3513 2838 3513 2113 
z
" transform="scale(0.015625)"/>
       <path id="DejaVuSans-20" transform="scale(0.015625)"/>
       <path id="DejaVuSans-4c" d="M 628 4666 
L 1259 4666 
L 1259 531 
L 3531 531 
L 3531 0 
L 628 0 
L 628 4666 
z
" transform="scale(0.015625)"/>
      </defs>
      <use xlink:href="#DejaVuSans-45"/>
      <use xlink:href="#DejaVuSans-73" transform="translate(63.183594 0)"/>
      <use xlink:href="#DejaVuSans-74" transform="translate(115.283203 0)"/>
      <use xlink:href="#DejaVuSans-69" transform="translate(154.492188 0)"/>
      <use xlink:href="#DejaVuSans-6d" transform="translate(182.275391 0)"/>
      <use xlink:href="#DejaVuSans-61" transform="translate(279.6875 0)"/>
      <use xlink:href="#DejaVuSans-74" transform="translate(340.966797 0)"/>
      <use xlink:href="#DejaVuSans-69" transform="translate(380.175781 0)"/>
      <use xlink:href="#DejaVuSans-6f" transform="translate(407.958984 0)"/>
      <use xlink:href="#DejaVuSans-6e" transform="translate(469.140625 0)"/>
      <use xlink:href="#DejaVuSans-20" transform="translate(532.519531 0)"/>
      <use xlink:href="#DejaVuSans-4c" transform="translate(564.306641 0)"/>
      <use xlink:href="#DejaVuSans-6f" transform="translate(618.269531 0)"/>
      <use xlink:href="#DejaVuSans-73" transform="translate(679.451172 0)"/>
      <use xlink:href="#DejaVuSans-73" transform="translate(731.550781 0)"/>
     </g>
    </g>
   </g>
   <g id="line2d_15">
    <path d="M 115.363636 89.771927 
L 117.060201 275.373289 
L 118.756765 289.040149 
L 120.453329 294.090604 
L 122.149894 297.179075 
L 123.846458 299.041645 
L 125.543022 300.276212 
L 127.239587 301.266852 
L 130.632715 302.622041 
L 134.025844 303.611412 
L 139.115537 304.500412 
L 144.20523 305.212955 
L 152.688051 306.007808 
L 159.474308 306.390065 
L 173.046823 306.79541 
L 183.226209 306.818704 
L 190.012466 306.883422 
L 217.157495 307.16208 
L 218.854059 307.126962 
L 220.550623 307.210226 
L 225.640316 307.058983 
L 229.033445 306.639821 
L 230.730009 306.596603 
L 234.123138 306.761837 
L 242.605959 306.834979 
L 244.302524 306.565113 
L 254.481909 306.832776 
L 256.178474 306.715725 
L 259.571602 306.828678 
L 269.750988 306.768099 
L 271.447552 306.539335 
L 273.144117 306.642205 
L 295.199453 306.448252 
L 296.896017 306.317929 
L 300.289146 306.43401 
L 301.98571 306.34683 
L 303.682274 306.537816 
L 305.378839 306.300974 
L 307.075403 306.380405 
L 310.468531 306.37372 
L 313.86166 306.415238 
L 320.647917 306.13104 
L 322.344482 306.277057 
L 327.434175 306.016027 
L 329.130739 306.210128 
L 330.827303 306.145576 
L 334.220432 306.276725 
L 342.703253 306.024208 
L 344.399818 305.676212 
L 346.096382 305.92146 
L 347.792946 305.737463 
L 349.48951 305.978269 
L 351.186075 305.934129 
L 352.882639 305.753466 
L 354.579203 306.087872 
L 356.275768 305.735012 
L 357.972332 305.656028 
L 359.668896 305.911979 
L 364.758589 305.777631 
L 366.455154 305.604206 
L 368.151718 305.876477 
L 369.848282 305.691335 
L 373.241411 305.74651 
L 374.937975 305.539633 
L 378.331104 305.702697 
L 380.027668 305.407157 
L 381.724232 305.693755 
L 383.420797 305.602629 
L 385.117361 305.694161 
L 388.51049 305.375384 
L 391.903618 305.668378 
L 396.993311 305.356562 
L 402.083004 305.615074 
L 405.476133 305.609399 
L 408.869261 305.374277 
L 410.565825 305.49155 
L 412.26239 305.300026 
L 415.655518 305.319214 
L 417.352083 305.411 
L 422.441776 305.269331 
L 425.834904 305.02477 
L 427.531469 305.052016 
L 429.228033 305.191286 
L 432.621161 305.176545 
L 434.317726 305.000071 
L 437.710854 305.20146 
L 439.407419 305.043638 
L 441.103983 305.179482 
L 446.193676 304.995121 
L 449.586804 304.961446 
L 451.283369 304.922531 
L 452.979933 305.007049 
L 458.069626 304.948203 
L 459.76619 304.993778 
L 461.462755 304.751071 
L 463.159319 304.214109 
L 466.552448 304.80802 
L 469.945576 304.803332 
L 473.338705 304.578623 
L 475.035269 304.769338 
L 478.428398 304.802555 
L 480.124962 304.65518 
L 490.304348 304.757468 
L 492.000912 304.53522 
L 493.697476 304.705898 
L 497.090605 304.709479 
L 500.483734 304.776609 
L 507.269991 304.790352 
L 514.056248 304.829176 
L 515.752812 304.666667 
L 517.449377 304.871434 
L 519.145941 304.673035 
L 520.842505 304.611423 
L 522.53907 304.790869 
L 524.235634 304.611869 
L 527.628763 304.997347 
L 534.41502 304.920156 
L 536.111584 304.609157 
L 537.808148 304.737197 
L 539.504713 304.72753 
L 542.897841 304.315772 
L 544.594406 304.634398 
L 553.077227 304.622402 
L 554.773791 304.895393 
L 556.470356 304.943686 
L 559.863484 304.610526 
L 561.560049 304.775687 
L 563.256613 304.72488 
L 564.953177 304.443235 
L 566.649742 304.532659 
L 568.346306 304.914497 
L 570.04287 304.8938 
L 571.739434 304.617215 
L 575.132563 304.945741 
L 576.829127 304.813225 
L 578.525692 305.067609 
L 580.222256 305.123853 
L 581.91882 305.027071 
L 585.311949 305.203429 
L 587.008513 305.004836 
L 588.705078 305.174237 
L 592.098206 305.308077 
L 593.79477 305.165737 
L 598.884463 305.222292 
L 600.581028 305.134335 
L 602.277592 305.461478 
L 605.670721 305.293155 
L 609.063849 305.487752 
L 612.456978 305.197131 
L 620.939799 305.545834 
L 622.636364 305.366688 
L 622.636364 305.366688 
" clip-path="url(#pfbcb839c80)" style="fill: none; stroke: #1f77b4; stroke-width: 1.5; stroke-linecap: square"/>
   </g>
   <g id="line2d_16">
    <path d="M 115.363636 55.8 
L 117.060201 256.544411 
L 118.756765 275.045133 
L 120.453329 282.811898 
L 122.149894 287.368535 
L 123.846458 290.053404 
L 125.543022 292.053522 
L 127.239587 293.537975 
L 128.936151 294.642416 
L 130.632715 295.374582 
L 132.329279 295.968462 
L 134.025844 296.406203 
L 137.418972 296.789526 
L 144.20523 298.079984 
L 147.598358 298.884353 
L 150.991487 299.52951 
L 156.08118 300.182185 
L 164.564001 300.682443 
L 173.046823 300.879343 
L 178.136516 300.863802 
L 190.012466 300.609052 
L 196.798723 300.639045 
L 198.495287 300.785555 
L 218.854059 300.989138 
L 223.943752 301.158957 
L 229.033445 301.117063 
L 230.730009 301.172927 
L 234.123138 301.475646 
L 235.819702 301.486042 
L 237.516266 301.626612 
L 239.212831 301.560368 
L 240.909395 301.718035 
L 242.605959 301.557723 
L 244.302524 301.551494 
L 247.695652 301.749456 
L 251.088781 301.806948 
L 252.785345 301.8239 
L 254.481909 302.017921 
L 257.875038 301.917088 
L 262.964731 301.712161 
L 273.144117 301.659255 
L 276.537245 301.488726 
L 278.23381 301.578465 
L 279.930374 301.487411 
L 283.323503 301.634073 
L 285.020067 301.499138 
L 286.716631 301.541158 
L 290.10976 301.330717 
L 291.806324 301.281526 
L 293.502888 301.372975 
L 296.896017 301.089953 
L 298.592581 301.167517 
L 305.378839 300.941466 
L 307.075403 301.037974 
L 308.771967 300.900562 
L 310.468531 301.061296 
L 327.434175 300.786538 
L 330.827303 300.957905 
L 335.916996 300.77536 
L 337.61356 300.809476 
L 339.310125 300.621412 
L 342.703253 300.607678 
L 344.399818 300.207517 
L 346.096382 300.718459 
L 347.792946 300.514963 
L 349.48951 300.567592 
L 352.882639 300.365811 
L 354.579203 300.683621 
L 356.275768 300.32939 
L 357.972332 300.30328 
L 359.668896 300.588128 
L 361.365461 300.500472 
L 363.062025 300.751266 
L 366.455154 300.169804 
L 368.151718 300.580581 
L 369.848282 300.317823 
L 373.241411 300.346229 
L 374.937975 300.220306 
L 378.331104 300.261518 
L 380.027668 299.965615 
L 381.724232 300.214492 
L 385.117361 300.286169 
L 388.51049 299.950159 
L 390.207054 300.200486 
L 393.600182 300.275964 
L 395.296747 300.072787 
L 398.689875 300.148197 
L 400.38644 300.070994 
L 403.779568 300.181112 
L 408.869261 299.904635 
L 410.565825 300.02831 
L 412.26239 299.765924 
L 415.655518 299.739918 
L 417.352083 299.974759 
L 422.441776 299.765614 
L 424.13834 299.535428 
L 425.834904 299.621562 
L 427.531469 299.575173 
L 429.228033 299.724381 
L 442.800547 299.771172 
L 444.497112 299.566394 
L 449.586804 299.691839 
L 451.283369 299.76112 
L 452.979933 299.639467 
L 459.76619 299.720608 
L 461.462755 299.66127 
L 463.159319 299.05936 
L 464.855883 299.39075 
L 468.249012 299.798614 
L 476.731833 299.665946 
L 478.428398 299.757969 
L 480.124962 299.625753 
L 481.821526 299.777917 
L 483.518091 299.540666 
L 485.214655 299.46852 
L 488.607784 299.695673 
L 492.000912 299.635632 
L 493.697476 299.682173 
L 495.394041 299.51335 
L 502.180298 299.608421 
L 503.876862 299.830797 
L 505.573427 299.660841 
L 514.056248 299.58268 
L 515.752812 299.488153 
L 517.449377 299.73824 
L 524.235634 299.602806 
L 525.932198 299.85714 
L 529.325327 299.884885 
L 536.111584 299.706235 
L 539.504713 299.950063 
L 541.201277 299.601102 
L 542.897841 299.425736 
L 544.594406 299.673839 
L 546.29097 299.760504 
L 551.380663 299.665396 
L 556.470356 299.958099 
L 558.16692 299.93163 
L 559.863484 299.779737 
L 561.560049 299.948775 
L 564.953177 299.739955 
L 566.649742 299.994077 
L 568.346306 300.046715 
L 570.04287 299.917129 
L 571.739434 299.903518 
L 573.435999 300.137331 
L 575.132563 300.22543 
L 576.829127 300.013925 
L 578.525692 300.245283 
L 581.91882 300.239544 
L 583.615385 300.089617 
L 585.311949 300.343499 
L 587.008513 300.147684 
L 595.491335 300.403059 
L 600.581028 300.159889 
L 602.277592 300.644126 
L 605.670721 300.52292 
L 607.367285 300.681103 
L 614.153542 300.430323 
L 619.243235 300.588456 
L 620.939799 300.756444 
L 622.636364 300.446691 
L 622.636364 300.446691 
" clip-path="url(#pfbcb839c80)" style="fill: none; stroke: #ff7f0e; stroke-width: 1.5; stroke-linecap: square"/>
   </g>
   <g id="line2d_17">
    <path d="M 115.363636 266.974908 
L 117.060201 287.713595 
L 118.756765 295.792583 
L 122.149894 301.538054 
L 123.846458 302.347329 
L 125.543022 300.859031 
L 127.239587 303.589784 
L 128.936151 302.448925 
L 130.632715 303.791778 
L 132.329279 303.614652 
L 134.025844 302.807707 
L 135.722408 303.463002 
L 137.418972 305.15756 
L 139.115537 304.772794 
L 140.812101 305.368496 
L 142.508665 305.194466 
L 144.20523 305.165859 
L 145.901794 304.82902 
L 147.598358 305.805762 
L 149.294922 305.492379 
L 150.991487 306.221004 
L 152.688051 306.674454 
L 154.384615 306.43465 
L 156.08118 307.034511 
L 161.170873 307.347585 
L 162.867437 307.106803 
L 164.564001 307.25615 
L 166.260566 307.124329 
L 167.95713 307.160352 
L 169.653694 307.040969 
L 173.046823 307.058162 
L 174.743387 307.226062 
L 178.136516 307.114381 
L 181.529644 307.334577 
L 183.226209 307.275479 
L 184.922773 307.092693 
L 193.405594 307.129057 
L 195.102159 307.103375 
L 201.888416 307.59728 
L 212.067802 307.781584 
L 213.764366 307.657591 
L 215.46093 307.704657 
L 218.854059 307.637373 
L 220.550623 307.8 
L 222.247188 307.790802 
L 223.943752 307.400258 
L 225.640316 307.393916 
L 227.336881 306.873812 
L 229.033445 307.31671 
L 230.730009 307.116834 
L 234.123138 307.482942 
L 235.819702 307.120756 
L 237.516266 306.911929 
L 239.212831 307.048804 
L 240.909395 307.320717 
L 242.605959 306.931666 
L 244.302524 306.830608 
L 245.999088 305.928717 
L 247.695652 306.042977 
L 249.392216 306.476762 
L 251.088781 306.710075 
L 252.785345 306.63646 
L 254.481909 306.94241 
L 256.178474 307.526502 
L 257.875038 306.817031 
L 259.571602 306.916094 
L 261.268167 306.780868 
L 262.964731 306.126271 
L 264.661295 306.469237 
L 266.35786 307.017769 
L 268.054424 306.751775 
L 274.840681 306.697201 
L 276.537245 307.163454 
L 278.23381 307.072323 
L 279.930374 306.673743 
L 281.626938 306.93076 
L 283.323503 306.850093 
L 285.020067 307.357009 
L 286.716631 306.761616 
L 288.413196 307.197487 
L 290.10976 306.854421 
L 295.199453 306.799672 
L 296.896017 307.007969 
L 298.592581 306.737267 
L 300.289146 307.02832 
L 301.98571 306.787635 
L 303.682274 305.597649 
L 305.378839 306.659559 
L 307.075403 306.499387 
L 308.771967 306.889981 
L 310.468531 306.830467 
L 312.165096 306.929055 
L 313.86166 306.201809 
L 315.558224 306.998944 
L 317.254789 306.850044 
L 318.951353 306.984128 
L 320.647917 306.240398 
L 322.344482 306.699679 
L 324.041046 306.584682 
L 325.73761 305.461487 
L 327.434175 307.126336 
L 329.130739 306.855606 
L 330.827303 306.891426 
L 332.523867 306.587815 
L 334.220432 306.741638 
L 335.916996 306.662456 
L 337.61356 306.910088 
L 339.310125 306.877771 
L 341.006689 306.281008 
L 342.703253 306.950629 
L 344.399818 306.375337 
L 346.096382 306.9793 
L 347.792946 306.8986 
L 349.48951 306.223875 
L 351.186075 307.070244 
L 352.882639 306.117152 
L 354.579203 307.39129 
L 356.275768 306.571625 
L 357.972332 306.188125 
L 359.668896 306.947508 
L 361.365461 307.211593 
L 363.062025 306.834628 
L 364.758589 305.960241 
L 366.455154 306.673997 
L 368.151718 306.521172 
L 371.544846 307.233147 
L 373.241411 306.557442 
L 376.634539 306.439724 
L 378.331104 306.178671 
L 380.027668 306.196939 
L 381.724232 306.498328 
L 383.420797 305.659886 
L 385.117361 305.198735 
L 386.813925 305.49277 
L 388.51049 306.615132 
L 390.207054 306.807829 
L 391.903618 306.094262 
L 393.600182 306.850551 
L 395.296747 306.157183 
L 396.993311 306.009227 
L 398.689875 306.338593 
L 402.083004 306.67301 
L 403.779568 306.771317 
L 408.869261 305.923199 
L 410.565825 306.311962 
L 412.26239 306.506096 
L 413.958954 306.233635 
L 415.655518 306.600862 
L 419.048647 306.544969 
L 420.745211 306.746349 
L 425.834904 306.371937 
L 430.924597 305.439125 
L 434.317726 306.16304 
L 437.710854 306.06539 
L 439.407419 305.543258 
L 441.103983 305.31237 
L 442.800547 304.954124 
L 444.497112 306.100416 
L 446.193676 306.017787 
L 447.89024 305.013356 
L 449.586804 305.459925 
L 451.283369 305.012449 
L 452.979933 306.032454 
L 454.676497 305.530501 
L 456.373062 306.165278 
L 458.069626 305.178946 
L 459.76619 304.601127 
L 461.462755 304.679628 
L 463.159319 305.145436 
L 466.552448 305.247043 
L 468.249012 304.597144 
L 469.945576 305.755073 
L 471.64214 305.48007 
L 473.338705 304.733512 
L 475.035269 305.891409 
L 476.731833 305.445453 
L 478.428398 305.238239 
L 480.124962 305.53737 
L 481.821526 306.007222 
L 483.518091 305.14675 
L 485.214655 305.650455 
L 486.911219 305.366031 
L 488.607784 304.795337 
L 490.304348 305.214878 
L 492.000912 304.446695 
L 493.697476 304.299875 
L 495.394041 305.175289 
L 497.090605 304.650878 
L 500.483734 305.662673 
L 502.180298 304.958749 
L 503.876862 305.932324 
L 505.573427 305.708379 
L 507.269991 305.651204 
L 508.966555 305.457698 
L 510.663119 306.101305 
L 512.359684 305.18648 
L 514.056248 305.321428 
L 515.752812 305.574153 
L 517.449377 305.469339 
L 519.145941 306.033647 
L 520.842505 305.475481 
L 522.53907 304.68371 
L 524.235634 305.20883 
L 525.932198 304.969556 
L 527.628763 305.217086 
L 529.325327 306.083301 
L 531.021891 305.550307 
L 532.718455 305.774518 
L 534.41502 305.726583 
L 536.111584 305.365579 
L 537.808148 305.878168 
L 539.504713 305.048753 
L 541.201277 305.340155 
L 542.897841 305.479463 
L 544.594406 305.399891 
L 547.987534 305.835285 
L 549.684099 305.381222 
L 551.380663 305.530698 
L 553.077227 305.983786 
L 554.773791 306.240616 
L 559.863484 305.703158 
L 561.560049 306.229495 
L 564.953177 305.692402 
L 566.649742 304.740332 
L 568.346306 305.844982 
L 570.04287 304.72167 
L 571.739434 305.119698 
L 573.435999 306.177017 
L 575.132563 306.500961 
L 576.829127 304.778129 
L 578.525692 306.030743 
L 580.222256 305.867588 
L 583.615385 306.338447 
L 585.311949 305.594679 
L 587.008513 305.209877 
L 590.401642 306.265396 
L 592.098206 305.79326 
L 593.79477 306.020817 
L 595.491335 305.8689 
L 597.187899 305.853977 
L 598.884463 305.390281 
L 602.277592 306.256165 
L 603.974156 305.169525 
L 605.670721 306.114592 
L 607.367285 305.989914 
L 609.063849 306.164 
L 610.760413 305.674164 
L 612.456978 305.694593 
L 614.153542 302.5549 
L 615.850106 304.721718 
L 617.546671 306.272342 
L 619.243235 305.102357 
L 620.939799 305.727073 
L 622.636364 306.122439 
L 622.636364 306.122439 
" clip-path="url(#pfbcb839c80)" style="fill: none; stroke: #2ca02c; stroke-width: 1.5; stroke-linecap: square"/>
   </g>
   <g id="line2d_18">
    <path d="M 115.363636 237.657645 
L 117.060201 271.202362 
L 118.756765 282.196395 
L 120.453329 286.540461 
L 122.149894 290.47103 
L 123.846458 293.161833 
L 125.543022 291.983204 
L 127.239587 295.174122 
L 128.936151 294.420776 
L 130.632715 295.990641 
L 132.329279 296.010981 
L 134.025844 295.320672 
L 135.722408 295.473047 
L 137.418972 297.344896 
L 139.115537 296.464766 
L 140.812101 297.274534 
L 142.508665 296.852682 
L 144.20523 297.141444 
L 145.901794 296.756014 
L 147.598358 298.39326 
L 149.294922 297.686332 
L 150.991487 299.181224 
L 152.688051 299.781168 
L 154.384615 299.591868 
L 156.08118 300.341424 
L 157.777744 300.572456 
L 161.170873 300.667651 
L 162.867437 300.281449 
L 164.564001 300.434429 
L 166.260566 300.29878 
L 167.95713 300.325222 
L 169.653694 300.019719 
L 171.350258 300.049635 
L 173.046823 299.917143 
L 174.743387 300.051232 
L 178.136516 300.056346 
L 184.922773 300.549575 
L 186.619337 300.467772 
L 193.405594 300.809336 
L 195.102159 300.906462 
L 196.798723 301.261467 
L 203.58498 301.518423 
L 206.978109 301.632795 
L 213.764366 301.562834 
L 217.157495 301.827852 
L 218.854059 301.676366 
L 222.247188 302.016467 
L 223.943752 301.355823 
L 225.640316 301.351034 
L 227.336881 300.708036 
L 229.033445 301.32293 
L 232.426573 302.12339 
L 234.123138 302.39463 
L 235.819702 301.740474 
L 237.516266 302.266337 
L 239.212831 301.583933 
L 240.909395 302.396148 
L 242.605959 301.660405 
L 244.302524 301.935187 
L 247.695652 301.968605 
L 249.392216 301.232538 
L 251.088781 301.350246 
L 252.785345 301.938669 
L 254.481909 302.322551 
L 259.571602 302.058638 
L 261.268167 302.325263 
L 262.964731 302.101663 
L 264.661295 302.211705 
L 266.35786 302.515976 
L 273.144117 302.236773 
L 278.23381 302.420175 
L 279.930374 302.244131 
L 281.626938 302.524033 
L 285.020067 302.402629 
L 286.716631 301.69124 
L 288.413196 302.420637 
L 290.10976 302.03925 
L 291.806324 301.956607 
L 293.502888 302.325644 
L 295.199453 301.881716 
L 296.896017 302.015828 
L 298.592581 301.947224 
L 301.98571 302.052105 
L 303.682274 300.569571 
L 305.378839 301.777031 
L 307.075403 301.419802 
L 308.771967 301.729018 
L 310.468531 301.444102 
L 312.165096 301.47795 
L 313.86166 301.215921 
L 315.558224 301.220493 
L 317.254789 301.769927 
L 318.951353 301.791886 
L 320.647917 301.489187 
L 322.344482 301.797883 
L 325.73761 301.040695 
L 327.434175 301.308768 
L 329.130739 301.338023 
L 330.827303 301.513602 
L 332.523867 301.110689 
L 334.220432 300.571502 
L 335.916996 301.682597 
L 337.61356 301.011828 
L 339.310125 301.746615 
L 342.703253 301.425054 
L 344.399818 300.933565 
L 346.096382 301.603203 
L 349.48951 300.925943 
L 351.186075 301.482387 
L 352.882639 300.752587 
L 354.579203 301.331973 
L 356.275768 300.715877 
L 357.972332 301.472994 
L 359.668896 300.866533 
L 361.365461 301.62535 
L 363.062025 301.545785 
L 364.758589 300.689286 
L 366.455154 300.72194 
L 369.848282 301.667042 
L 371.544846 301.753892 
L 374.937975 301.021472 
L 376.634539 301.117982 
L 378.331104 300.424184 
L 380.027668 301.475988 
L 381.724232 300.855409 
L 383.420797 300.945827 
L 385.117361 300.186766 
L 386.813925 300.119276 
L 388.51049 301.316369 
L 390.207054 301.592767 
L 391.903618 301.252005 
L 393.600182 301.121721 
L 395.296747 300.255806 
L 396.993311 300.584257 
L 398.689875 300.623094 
L 400.38644 301.21093 
L 402.083004 301.216622 
L 403.779568 301.388851 
L 407.172697 300.626721 
L 408.869261 300.81011 
L 413.958954 300.831012 
L 415.655518 300.720841 
L 419.048647 300.900695 
L 420.745211 300.684578 
L 422.441776 300.905447 
L 424.13834 300.586953 
L 427.531469 300.851436 
L 429.228033 300.369257 
L 430.924597 300.648526 
L 434.317726 300.641706 
L 436.01429 300.834772 
L 437.710854 300.581369 
L 439.407419 300.737116 
L 441.103983 300.497031 
L 444.497112 300.304542 
L 446.193676 300.540425 
L 447.89024 299.269046 
L 449.586804 300.233949 
L 451.283369 300.04902 
L 452.979933 300.469436 
L 454.676497 300.420856 
L 456.373062 300.156105 
L 458.069626 300.010268 
L 459.76619 299.347527 
L 461.462755 300.145665 
L 463.159319 299.34833 
L 464.855883 299.490454 
L 466.552448 300.27275 
L 468.249012 299.647463 
L 469.945576 300.262302 
L 471.64214 300.40813 
L 473.338705 299.849242 
L 475.035269 300.770124 
L 476.731833 299.944703 
L 478.428398 300.355782 
L 480.124962 300.32067 
L 481.821526 300.923804 
L 483.518091 300.082292 
L 485.214655 300.072551 
L 486.911219 300.395546 
L 488.607784 300.083751 
L 490.304348 300.64699 
L 492.000912 299.737115 
L 493.697476 299.397177 
L 495.394041 299.975262 
L 497.090605 299.979332 
L 498.787169 299.858372 
L 500.483734 300.353539 
L 502.180298 300.012359 
L 503.876862 299.976269 
L 505.573427 299.719505 
L 510.663119 300.274992 
L 512.359684 300.106694 
L 514.056248 299.448524 
L 515.752812 300.1673 
L 517.449377 299.725893 
L 519.145941 300.316873 
L 520.842505 300.100808 
L 522.53907 299.325329 
L 524.235634 299.534215 
L 525.932198 300.050603 
L 527.628763 299.934827 
L 529.325327 300.217486 
L 531.021891 299.633097 
L 532.718455 300.175678 
L 537.808148 299.914625 
L 539.504713 299.505565 
L 541.201277 299.313441 
L 542.897841 299.733544 
L 544.594406 299.543681 
L 546.29097 299.583214 
L 547.987534 299.933625 
L 549.684099 300.0804 
L 551.380663 299.458097 
L 553.077227 299.699181 
L 554.773791 300.612818 
L 556.470356 299.875788 
L 558.16692 300.318431 
L 559.863484 299.83035 
L 561.560049 300.206863 
L 563.256613 300.043413 
L 564.953177 300.365407 
L 566.649742 299.319986 
L 568.346306 300.561323 
L 570.04287 299.456652 
L 571.739434 299.862494 
L 573.435999 300.555821 
L 575.132563 300.915897 
L 576.829127 299.28551 
L 578.525692 300.64092 
L 581.91882 300.35103 
L 583.615385 300.514676 
L 585.311949 299.89908 
L 588.705078 299.7909 
L 590.401642 300.236289 
L 592.098206 300.082501 
L 593.79477 300.446443 
L 595.491335 300.020691 
L 597.187899 300.301175 
L 598.884463 300.159811 
L 600.581028 300.558785 
L 602.277592 299.916201 
L 603.974156 299.975672 
L 605.670721 300.858391 
L 607.367285 300.688794 
L 609.063849 300.805844 
L 610.760413 300.107056 
L 612.456978 299.68697 
L 614.153542 297.110656 
L 615.850106 299.351402 
L 617.546671 300.621795 
L 619.243235 299.653511 
L 620.939799 300.468139 
L 622.636364 300.753174 
L 622.636364 300.753174 
" clip-path="url(#pfbcb839c80)" style="fill: none; stroke: #d62728; stroke-width: 1.5; stroke-linecap: square"/>
   </g>
   <g id="patch_3">
    <path d="M 90 320.4 
L 90 43.2 
" style="fill: none; stroke: #000000; stroke-width: 0.8; stroke-linejoin: miter; stroke-linecap: square"/>
   </g>
   <g id="patch_4">
    <path d="M 648 320.4 
L 648 43.2 
" style="fill: none; stroke: #000000; stroke-width: 0.8; stroke-linejoin: miter; stroke-linecap: square"/>
   </g>
   <g id="patch_5">
    <path d="M 90 320.4 
L 648 320.4 
" style="fill: none; stroke: #000000; stroke-width: 0.8; stroke-linejoin: miter; stroke-linecap: square"/>
   </g>
   <g id="patch_6">
    <path d="M 90 43.2 
L 648 43.2 
" style="fill: none; stroke: #000000; stroke-width: 0.8; stroke-linejoin: miter; stroke-linecap: square"/>
   </g>
   <g id="text_17">
    <!-- Training and Validating Estimation Loss -->
    <g transform="translate(251.535937 37.2) scale(0.12 -0.12)">
     <defs>
      <path id="DejaVuSans-54" d="M -19 4666 
L 3928 4666 
L 3928 4134 
L 2272 4134 
L 2272 0 
L 1638 0 
L 1638 4134 
L -19 4134 
L -19 4666 
z
" transform="scale(0.015625)"/>
      <path id="DejaVuSans-72" d="M 2631 2963 
Q 2534 3019 2420 3045 
Q 2306 3072 2169 3072 
Q 1681 3072 1420 2755 
Q 1159 2438 1159 1844 
L 1159 0 
L 581 0 
L 581 3500 
L 1159 3500 
L 1159 2956 
Q 1341 3275 1631 3429 
Q 1922 3584 2338 3584 
Q 2397 3584 2469 3576 
Q 2541 3569 2628 3553 
L 2631 2963 
z
" transform="scale(0.015625)"/>
      <path id="DejaVuSans-67" d="M 2906 1791 
Q 2906 2416 2648 2759 
Q 2391 3103 1925 3103 
Q 1463 3103 1205 2759 
Q 947 2416 947 1791 
Q 947 1169 1205 825 
Q 1463 481 1925 481 
Q 2391 481 2648 825 
Q 2906 1169 2906 1791 
z
M 3481 434 
Q 3481 -459 3084 -895 
Q 2688 -1331 1869 -1331 
Q 1566 -1331 1297 -1286 
Q 1028 -1241 775 -1147 
L 775 -588 
Q 1028 -725 1275 -790 
Q 1522 -856 1778 -856 
Q 2344 -856 2625 -561 
Q 2906 -266 2906 331 
L 2906 616 
Q 2728 306 2450 153 
Q 2172 0 1784 0 
Q 1141 0 747 490 
Q 353 981 353 1791 
Q 353 2603 747 3093 
Q 1141 3584 1784 3584 
Q 2172 3584 2450 3431 
Q 2728 3278 2906 2969 
L 2906 3500 
L 3481 3500 
L 3481 434 
z
" transform="scale(0.015625)"/>
      <path id="DejaVuSans-64" d="M 2906 2969 
L 2906 4863 
L 3481 4863 
L 3481 0 
L 2906 0 
L 2906 525 
Q 2725 213 2448 61 
Q 2172 -91 1784 -91 
Q 1150 -91 751 415 
Q 353 922 353 1747 
Q 353 2572 751 3078 
Q 1150 3584 1784 3584 
Q 2172 3584 2448 3432 
Q 2725 3281 2906 2969 
z
M 947 1747 
Q 947 1113 1208 752 
Q 1469 391 1925 391 
Q 2381 391 2643 752 
Q 2906 1113 2906 1747 
Q 2906 2381 2643 2742 
Q 2381 3103 1925 3103 
Q 1469 3103 1208 2742 
Q 947 2381 947 1747 
z
" transform="scale(0.015625)"/>
      <path id="DejaVuSans-56" d="M 1831 0 
L 50 4666 
L 709 4666 
L 2188 738 
L 3669 4666 
L 4325 4666 
L 2547 0 
L 1831 0 
z
" transform="scale(0.015625)"/>
      <path id="DejaVuSans-6c" d="M 603 4863 
L 1178 4863 
L 1178 0 
L 603 0 
L 603 4863 
z
" transform="scale(0.015625)"/>
     </defs>
     <use xlink:href="#DejaVuSans-54"/>
     <use xlink:href="#DejaVuSans-72" transform="translate(46.333984 0)"/>
     <use xlink:href="#DejaVuSans-61" transform="translate(87.447266 0)"/>
     <use xlink:href="#DejaVuSans-69" transform="translate(148.726562 0)"/>
     <use xlink:href="#DejaVuSans-6e" transform="translate(176.509766 0)"/>
     <use xlink:href="#DejaVuSans-69" transform="translate(239.888672 0)"/>
     <use xlink:href="#DejaVuSans-6e" transform="translate(267.671875 0)"/>
     <use xlink:href="#DejaVuSans-67" transform="translate(331.050781 0)"/>
     <use xlink:href="#DejaVuSans-20" transform="translate(394.527344 0)"/>
     <use xlink:href="#DejaVuSans-61" transform="translate(426.314453 0)"/>
     <use xlink:href="#DejaVuSans-6e" transform="translate(487.59375 0)"/>
     <use xlink:href="#DejaVuSans-64" transform="translate(550.972656 0)"/>
     <use xlink:href="#DejaVuSans-20" transform="translate(614.449219 0)"/>
     <use xlink:href="#DejaVuSans-56" transform="translate(646.236328 0)"/>
     <use xlink:href="#DejaVuSans-61" transform="translate(706.894531 0)"/>
     <use xlink:href="#DejaVuSans-6c" transform="translate(768.173828 0)"/>
     <use xlink:href="#DejaVuSans-69" transform="translate(795.957031 0)"/>
     <use xlink:href="#DejaVuSans-64" transform="translate(823.740234 0)"/>
     <use xlink:href="#DejaVuSans-61" transform="translate(887.216797 0)"/>
     <use xlink:href="#DejaVuSans-74" transform="translate(948.496094 0)"/>
     <use xlink:href="#DejaVuSans-69" transform="translate(987.705078 0)"/>
     <use xlink:href="#DejaVuSans-6e" transform="translate(1015.488281 0)"/>
     <use xlink:href="#DejaVuSans-67" transform="translate(1078.867188 0)"/>
     <use xlink:href="#DejaVuSans-20" transform="translate(1142.34375 0)"/>
     <use xlink:href="#DejaVuSans-45" transform="translate(1174.130859 0)"/>
     <use xlink:href="#DejaVuSans-73" transform="translate(1237.314453 0)"/>
     <use xlink:href="#DejaVuSans-74" transform="translate(1289.414062 0)"/>
     <use xlink:href="#DejaVuSans-69" transform="translate(1328.623047 0)"/>
     <use xlink:href="#DejaVuSans-6d" transform="translate(1356.40625 0)"/>
     <use xlink:href="#DejaVuSans-61" transform="translate(1453.818359 0)"/>
     <use xlink:href="#DejaVuSans-74" transform="translate(1515.097656 0)"/>
     <use xlink:href="#DejaVuSans-69" transform="translate(1554.306641 0)"/>
     <use xlink:href="#DejaVuSans-6f" transform="translate(1582.089844 0)"/>
     <use xlink:href="#DejaVuSans-6e" transform="translate(1643.271484 0)"/>
     <use xlink:href="#DejaVuSans-20" transform="translate(1706.650391 0)"/>
     <use xlink:href="#DejaVuSans-4c" transform="translate(1738.4375 0)"/>
     <use xlink:href="#DejaVuSans-6f" transform="translate(1792.400391 0)"/>
     <use xlink:href="#DejaVuSans-73" transform="translate(1853.582031 0)"/>
     <use xlink:href="#DejaVuSans-73" transform="translate(1905.681641 0)"/>
    </g>
   </g>
   <g id="legend_1">
    <g id="patch_7">
     <path d="M 521.439062 109.9125 
L 641 109.9125 
Q 643 109.9125 643 107.9125 
L 643 50.2 
Q 643 48.2 641 48.2 
L 521.439062 48.2 
Q 519.439062 48.2 519.439062 50.2 
L 519.439062 107.9125 
Q 519.439062 109.9125 521.439062 109.9125 
z
" style="fill: #ffffff; opacity: 0.8; stroke: #cccccc; stroke-linejoin: miter"/>
    </g>
    <g id="line2d_19">
     <path d="M 523.439062 56.298437 
L 533.439062 56.298437 
L 543.439062 56.298437 
" style="fill: none; stroke: #1f77b4; stroke-width: 1.5; stroke-linecap: square"/>
    </g>
    <g id="text_18">
     <!-- Training-Source -->
     <g transform="translate(551.439062 59.798437) scale(0.1 -0.1)">
      <defs>
       <path id="DejaVuSans-2d" d="M 313 2009 
L 1997 2009 
L 1997 1497 
L 313 1497 
L 313 2009 
z
" transform="scale(0.015625)"/>
       <path id="DejaVuSans-53" d="M 3425 4513 
L 3425 3897 
Q 3066 4069 2747 4153 
Q 2428 4238 2131 4238 
Q 1616 4238 1336 4038 
Q 1056 3838 1056 3469 
Q 1056 3159 1242 3001 
Q 1428 2844 1947 2747 
L 2328 2669 
Q 3034 2534 3370 2195 
Q 3706 1856 3706 1288 
Q 3706 609 3251 259 
Q 2797 -91 1919 -91 
Q 1588 -91 1214 -16 
Q 841 59 441 206 
L 441 856 
Q 825 641 1194 531 
Q 1563 422 1919 422 
Q 2459 422 2753 634 
Q 3047 847 3047 1241 
Q 3047 1584 2836 1778 
Q 2625 1972 2144 2069 
L 1759 2144 
Q 1053 2284 737 2584 
Q 422 2884 422 3419 
Q 422 4038 858 4394 
Q 1294 4750 2059 4750 
Q 2388 4750 2728 4690 
Q 3069 4631 3425 4513 
z
" transform="scale(0.015625)"/>
       <path id="DejaVuSans-75" d="M 544 1381 
L 544 3500 
L 1119 3500 
L 1119 1403 
Q 1119 906 1312 657 
Q 1506 409 1894 409 
Q 2359 409 2629 706 
Q 2900 1003 2900 1516 
L 2900 3500 
L 3475 3500 
L 3475 0 
L 2900 0 
L 2900 538 
Q 2691 219 2414 64 
Q 2138 -91 1772 -91 
Q 1169 -91 856 284 
Q 544 659 544 1381 
z
M 1991 3584 
L 1991 3584 
z
" transform="scale(0.015625)"/>
       <path id="DejaVuSans-65" d="M 3597 1894 
L 3597 1613 
L 953 1613 
Q 991 1019 1311 708 
Q 1631 397 2203 397 
Q 2534 397 2845 478 
Q 3156 559 3463 722 
L 3463 178 
Q 3153 47 2828 -22 
Q 2503 -91 2169 -91 
Q 1331 -91 842 396 
Q 353 884 353 1716 
Q 353 2575 817 3079 
Q 1281 3584 2069 3584 
Q 2775 3584 3186 3129 
Q 3597 2675 3597 1894 
z
M 3022 2063 
Q 3016 2534 2758 2815 
Q 2500 3097 2075 3097 
Q 1594 3097 1305 2825 
Q 1016 2553 972 2059 
L 3022 2063 
z
" transform="scale(0.015625)"/>
      </defs>
      <use xlink:href="#DejaVuSans-54"/>
      <use xlink:href="#DejaVuSans-72" transform="translate(46.333984 0)"/>
      <use xlink:href="#DejaVuSans-61" transform="translate(87.447266 0)"/>
      <use xlink:href="#DejaVuSans-69" transform="translate(148.726562 0)"/>
      <use xlink:href="#DejaVuSans-6e" transform="translate(176.509766 0)"/>
      <use xlink:href="#DejaVuSans-69" transform="translate(239.888672 0)"/>
      <use xlink:href="#DejaVuSans-6e" transform="translate(267.671875 0)"/>
      <use xlink:href="#DejaVuSans-67" transform="translate(331.050781 0)"/>
      <use xlink:href="#DejaVuSans-2d" transform="translate(394.527344 0)"/>
      <use xlink:href="#DejaVuSans-53" transform="translate(430.611328 0)"/>
      <use xlink:href="#DejaVuSans-6f" transform="translate(494.087891 0)"/>
      <use xlink:href="#DejaVuSans-75" transform="translate(555.269531 0)"/>
      <use xlink:href="#DejaVuSans-72" transform="translate(618.648438 0)"/>
      <use xlink:href="#DejaVuSans-63" transform="translate(657.511719 0)"/>
      <use xlink:href="#DejaVuSans-65" transform="translate(712.492188 0)"/>
     </g>
    </g>
    <g id="line2d_20">
     <path d="M 523.439062 70.976562 
L 533.439062 70.976562 
L 543.439062 70.976562 
" style="fill: none; stroke: #ff7f0e; stroke-width: 1.5; stroke-linecap: square"/>
    </g>
    <g id="text_19">
     <!-- Training-Target -->
     <g transform="translate(551.439062 74.476562) scale(0.1 -0.1)">
      <use xlink:href="#DejaVuSans-54"/>
      <use xlink:href="#DejaVuSans-72" transform="translate(46.333984 0)"/>
      <use xlink:href="#DejaVuSans-61" transform="translate(87.447266 0)"/>
      <use xlink:href="#DejaVuSans-69" transform="translate(148.726562 0)"/>
      <use xlink:href="#DejaVuSans-6e" transform="translate(176.509766 0)"/>
      <use xlink:href="#DejaVuSans-69" transform="translate(239.888672 0)"/>
      <use xlink:href="#DejaVuSans-6e" transform="translate(267.671875 0)"/>
      <use xlink:href="#DejaVuSans-67" transform="translate(331.050781 0)"/>
      <use xlink:href="#DejaVuSans-2d" transform="translate(394.527344 0)"/>
      <use xlink:href="#DejaVuSans-54" transform="translate(421.486328 0)"/>
      <use xlink:href="#DejaVuSans-61" transform="translate(466.070312 0)"/>
      <use xlink:href="#DejaVuSans-72" transform="translate(527.349609 0)"/>
      <use xlink:href="#DejaVuSans-67" transform="translate(566.712891 0)"/>
      <use xlink:href="#DejaVuSans-65" transform="translate(630.189453 0)"/>
      <use xlink:href="#DejaVuSans-74" transform="translate(691.712891 0)"/>
     </g>
    </g>
    <g id="line2d_21">
     <path d="M 523.439062 85.654687 
L 533.439062 85.654687 
L 543.439062 85.654687 
" style="fill: none; stroke: #2ca02c; stroke-width: 1.5; stroke-linecap: square"/>
    </g>
    <g id="text_20">
     <!-- Validating-Source -->
     <g transform="translate(551.439062 89.154687) scale(0.1 -0.1)">
      <use xlink:href="#DejaVuSans-56"/>
      <use xlink:href="#DejaVuSans-61" transform="translate(60.658203 0)"/>
      <use xlink:href="#DejaVuSans-6c" transform="translate(121.9375 0)"/>
      <use xlink:href="#DejaVuSans-69" transform="translate(149.720703 0)"/>
      <use xlink:href="#DejaVuSans-64" transform="translate(177.503906 0)"/>
      <use xlink:href="#DejaVuSans-61" transform="translate(240.980469 0)"/>
      <use xlink:href="#DejaVuSans-74" transform="translate(302.259766 0)"/>
      <use xlink:href="#DejaVuSans-69" transform="translate(341.46875 0)"/>
      <use xlink:href="#DejaVuSans-6e" transform="translate(369.251953 0)"/>
      <use xlink:href="#DejaVuSans-67" transform="translate(432.630859 0)"/>
      <use xlink:href="#DejaVuSans-2d" transform="translate(496.107422 0)"/>
      <use xlink:href="#DejaVuSans-53" transform="translate(532.191406 0)"/>
      <use xlink:href="#DejaVuSans-6f" transform="translate(595.667969 0)"/>
      <use xlink:href="#DejaVuSans-75" transform="translate(656.849609 0)"/>
      <use xlink:href="#DejaVuSans-72" transform="translate(720.228516 0)"/>
      <use xlink:href="#DejaVuSans-63" transform="translate(759.091797 0)"/>
      <use xlink:href="#DejaVuSans-65" transform="translate(814.072266 0)"/>
     </g>
    </g>
    <g id="line2d_22">
     <path d="M 523.439062 100.332812 
L 533.439062 100.332812 
L 543.439062 100.332812 
" style="fill: none; stroke: #d62728; stroke-width: 1.5; stroke-linecap: square"/>
    </g>
    <g id="text_21">
     <!-- Validating-Target -->
     <g transform="translate(551.439062 103.832812) scale(0.1 -0.1)">
      <use xlink:href="#DejaVuSans-56"/>
      <use xlink:href="#DejaVuSans-61" transform="translate(60.658203 0)"/>
      <use xlink:href="#DejaVuSans-6c" transform="translate(121.9375 0)"/>
      <use xlink:href="#DejaVuSans-69" transform="translate(149.720703 0)"/>
      <use xlink:href="#DejaVuSans-64" transform="translate(177.503906 0)"/>
      <use xlink:href="#DejaVuSans-61" transform="translate(240.980469 0)"/>
      <use xlink:href="#DejaVuSans-74" transform="translate(302.259766 0)"/>
      <use xlink:href="#DejaVuSans-69" transform="translate(341.46875 0)"/>
      <use xlink:href="#DejaVuSans-6e" transform="translate(369.251953 0)"/>
      <use xlink:href="#DejaVuSans-67" transform="translate(432.630859 0)"/>
      <use xlink:href="#DejaVuSans-2d" transform="translate(496.107422 0)"/>
      <use xlink:href="#DejaVuSans-54" transform="translate(523.066406 0)"/>
      <use xlink:href="#DejaVuSans-61" transform="translate(567.650391 0)"/>
      <use xlink:href="#DejaVuSans-72" transform="translate(628.929688 0)"/>
      <use xlink:href="#DejaVuSans-67" transform="translate(668.292969 0)"/>
      <use xlink:href="#DejaVuSans-65" transform="translate(731.769531 0)"/>
      <use xlink:href="#DejaVuSans-74" transform="translate(793.292969 0)"/>
     </g>
    </g>
   </g>
  </g>
 </g>
 <defs>
  <clipPath id="pfbcb839c80">
   <rect x="90" y="43.2" width="558" height="277.2"/>
  </clipPath>
 </defs>
</svg>
