<?xml version="1.0" encoding="utf-8" standalone="no"?>
<!DOCTYPE svg PUBLIC "-//W3C//DTD SVG 1.1//EN"
  "http://www.w3.org/Graphics/SVG/1.1/DTD/svg11.dtd">
<svg xmlns:xlink="http://www.w3.org/1999/xlink" width="720pt" height="360pt" viewBox="0 0 720 360" xmlns="http://www.w3.org/2000/svg" version="1.1">
 <metadata>
  <rdf:RDF xmlns:dc="http://purl.org/dc/elements/1.1/" xmlns:cc="http://creativecommons.org/ns#" xmlns:rdf="http://www.w3.org/1999/02/22-rdf-syntax-ns#">
   <cc:Work>
    <dc:type rdf:resource="http://purl.org/dc/dcmitype/StillImage"/>
    <dc:date>2026-02-17T19:17:07.170540</dc:date>
    <dc:format>image/svg+xml</dc:format>
    <dc:creator>
     <cc:Agent>
      <dc:title>Matplotlib v3.10.1, https://matplotlib.org/</dc:title>
     </cc:Agent>
    </dc:creator>
   </cc:Work>
  </rdf:RDF>
 </metadata>
 <defs>
  <style type="text/css">*{stroke-linejoin: round; stroke-linecap: butt}</style>
 </defs>
 <g id="figure_1">
  <g id="patch_1">
   <path d="M 0 360 
L 720 360 
L 720 0 
L 0 0 
z
" style="fill: #ffffff"/>
  </g>
  <g id="axes_1">
   <g id="patch_2">
    <path d="M 90 320.4 
L 648 320.4 
L 648 43.2 
L 90 43.2 
z
" style="fill: #ffffff"/>
   </g>
   <g id="matplotlib.axis_1">
    <g id="xtick_1">
     <g id="line2d_1">
      <defs>
       <path id="m53dce7e2d4" d="M 0 0 
L 0 3.5 
" style="stroke: #000000; stroke-width: 0.8"/>
      </defs>
      <g>
       <use xlink:href="#m53dce7e2d4" x="115.363636" y="320.4" style="stroke: #000000; stroke-width: 0.8"/>
      </g>
     </g>
     <g id="text_1">
      <!-- 0 -->
      <g transform="translate(112.182386 334.998438) scale(0.1 -0.1)">
       <defs>
        <path id="DejaVuSans-30" d="M 2034 4250 
Q 1547 4250 1301 3770 
Q 1056 3291 1056 2328 
Q 1056 1369 1301 889 
Q 1547 409 2034 409 
Q 2525 409 2770 889 
Q 3016 1369 3016 2328 
Q 3016 3291 2770 3770 
Q 2525 4250 2034 4250 
z
M 2034 4750 
Q 2819 4750 3233 4129 
Q 3647 3509 3647 2328 
Q 3647 1150 3233 529 
Q 2819 -91 2034 -91 
Q 1250 -91 836 529 
Q 422 1150 422 2328 
Q 422 3509 836 4129 
Q 1250 4750 2034 4750 
z
" transform="scale(0.015625)"/>
       </defs>
       <use xlink:href="#DejaVuSans-30"/>
      </g>
     </g>
    </g>
    <g id="xtick_2">
     <g id="line2d_2">
      <g>
       <use xlink:href="#m53dce7e2d4" x="217.157495" y="320.4" style="stroke: #000000; stroke-width: 0.8"/>
      </g>
     </g>
     <g id="text_2">
      <!-- 60 -->
      <g transform="translate(210.794995 334.998438) scale(0.1 -0.1)">
       <defs>
        <path id="DejaVuSans-36" d="M 2113 2584 
Q 1688 2584 1439 2293 
Q 1191 2003 1191 1497 
Q 1191 994 1439 701 
Q 1688 409 2113 409 
Q 2538 409 2786 701 
Q 3034 994 3034 1497 
Q 3034 2003 2786 2293 
Q 2538 2584 2113 2584 
z
M 3366 4563 
L 3366 3988 
Q 3128 4100 2886 4159 
Q 2644 4219 2406 4219 
Q 1781 4219 1451 3797 
Q 1122 3375 1075 2522 
Q 1259 2794 1537 2939 
Q 1816 3084 2150 3084 
Q 2853 3084 3261 2657 
Q 3669 2231 3669 1497 
Q 3669 778 3244 343 
Q 2819 -91 2113 -91 
Q 1303 -91 875 529 
Q 447 1150 447 2328 
Q 447 3434 972 4092 
Q 1497 4750 2381 4750 
Q 2619 4750 2861 4703 
Q 3103 4656 3366 4563 
z
" transform="scale(0.015625)"/>
       </defs>
       <use xlink:href="#DejaVuSans-36"/>
       <use xlink:href="#DejaVuSans-30" transform="translate(63.623047 0)"/>
      </g>
     </g>
    </g>
    <g id="xtick_3">
     <g id="line2d_3">
      <g>
       <use xlink:href="#m53dce7e2d4" x="318.951353" y="320.4" style="stroke: #000000; stroke-width: 0.8"/>
      </g>
     </g>
     <g id="text_3">
      <!-- 120 -->
      <g transform="translate(309.407603 334.998438) scale(0.1 -0.1)">
       <defs>
        <path id="DejaVuSans-31" d="M 794 531 
L 1825 531 
L 1825 4091 
L 703 3866 
L 703 4441 
L 1819 4666 
L 2450 4666 
L 2450 531 
L 3481 531 
L 3481 0 
L 794 0 
L 794 531 
z
" transform="scale(0.015625)"/>
        <path id="DejaVuSans-32" d="M 1228 531 
L 3431 531 
L 3431 0 
L 469 0 
L 469 531 
Q 828 903 1448 1529 
Q 2069 2156 2228 2338 
Q 2531 2678 2651 2914 
Q 2772 3150 2772 3378 
Q 2772 3750 2511 3984 
Q 2250 4219 1831 4219 
Q 1534 4219 1204 4116 
Q 875 4013 500 3803 
L 500 4441 
Q 881 4594 1212 4672 
Q 1544 4750 1819 4750 
Q 2544 4750 2975 4387 
Q 3406 4025 3406 3419 
Q 3406 3131 3298 2873 
Q 3191 2616 2906 2266 
Q 2828 2175 2409 1742 
Q 1991 1309 1228 531 
z
" transform="scale(0.015625)"/>
       </defs>
       <use xlink:href="#DejaVuSans-31"/>
       <use xlink:href="#DejaVuSans-32" transform="translate(63.623047 0)"/>
       <use xlink:href="#DejaVuSans-30" transform="translate(127.246094 0)"/>
      </g>
     </g>
    </g>
    <g id="xtick_4">
     <g id="line2d_4">
      <g>
       <use xlink:href="#m53dce7e2d4" x="420.745211" y="320.4" style="stroke: #000000; stroke-width: 0.8"/>
      </g>
     </g>
     <g id="text_4">
      <!-- 180 -->
      <g transform="translate(411.201461 334.998438) scale(0.1 -0.1)">
       <defs>
        <path id="DejaVuSans-38" d="M 2034 2216 
Q 1584 2216 1326 1975 
Q 1069 1734 1069 1313 
Q 1069 891 1326 650 
Q 1584 409 2034 409 
Q 2484 409 2743 651 
Q 3003 894 3003 1313 
Q 3003 1734 2745 1975 
Q 2488 2216 2034 2216 
z
M 1403 2484 
Q 997 2584 770 2862 
Q 544 3141 544 3541 
Q 544 4100 942 4425 
Q 1341 4750 2034 4750 
Q 2731 4750 3128 4425 
Q 3525 4100 3525 3541 
Q 3525 3141 3298 2862 
Q 3072 2584 2669 2484 
Q 3125 2378 3379 2068 
Q 3634 1759 3634 1313 
Q 3634 634 3220 271 
Q 2806 -91 2034 -91 
Q 1263 -91 848 271 
Q 434 634 434 1313 
Q 434 1759 690 2068 
Q 947 2378 1403 2484 
z
M 1172 3481 
Q 1172 3119 1398 2916 
Q 1625 2713 2034 2713 
Q 2441 2713 2670 2916 
Q 2900 3119 2900 3481 
Q 2900 3844 2670 4047 
Q 2441 4250 2034 4250 
Q 1625 4250 1398 4047 
Q 1172 3844 1172 3481 
z
" transform="scale(0.015625)"/>
       </defs>
       <use xlink:href="#DejaVuSans-31"/>
       <use xlink:href="#DejaVuSans-38" transform="translate(63.623047 0)"/>
       <use xlink:href="#DejaVuSans-30" transform="translate(127.246094 0)"/>
      </g>
     </g>
    </g>
    <g id="xtick_5">
     <g id="line2d_5">
      <g>
       <use xlink:href="#m53dce7e2d4" x="522.53907" y="320.4" style="stroke: #000000; stroke-width: 0.8"/>
      </g>
     </g>
     <g id="text_5">
      <!-- 240 -->
      <g transform="translate(512.99532 334.998438) scale(0.1 -0.1)">
       <defs>
        <path id="DejaVuSans-34" d="M 2419 4116 
L 825 1625 
L 2419 1625 
L 2419 4116 
z
M 2253 4666 
L 3047 4666 
L 3047 1625 
L 3713 1625 
L 3713 1100 
L 3047 1100 
L 3047 0 
L 2419 0 
L 2419 1100 
L 313 1100 
L 313 1709 
L 2253 4666 
z
" transform="scale(0.015625)"/>
       </defs>
       <use xlink:href="#DejaVuSans-32"/>
       <use xlink:href="#DejaVuSans-34" transform="translate(63.623047 0)"/>
       <use xlink:href="#DejaVuSans-30" transform="translate(127.246094 0)"/>
      </g>
     </g>
    </g>
    <g id="text_6">
     <!-- Epoch -->
     <g transform="translate(353.689062 348.676562) scale(0.1 -0.1)">
      <defs>
       <path id="DejaVuSans-45" d="M 628 4666 
L 3578 4666 
L 3578 4134 
L 1259 4134 
L 1259 2753 
L 3481 2753 
L 3481 2222 
L 1259 2222 
L 1259 531 
L 3634 531 
L 3634 0 
L 628 0 
L 628 4666 
z
" transform="scale(0.015625)"/>
       <path id="DejaVuSans-70" d="M 1159 525 
L 1159 -1331 
L 581 -1331 
L 581 3500 
L 1159 3500 
L 1159 2969 
Q 1341 3281 1617 3432 
Q 1894 3584 2278 3584 
Q 2916 3584 3314 3078 
Q 3713 2572 3713 1747 
Q 3713 922 3314 415 
Q 2916 -91 2278 -91 
Q 1894 -91 1617 61 
Q 1341 213 1159 525 
z
M 3116 1747 
Q 3116 2381 2855 2742 
Q 2594 3103 2138 3103 
Q 1681 3103 1420 2742 
Q 1159 2381 1159 1747 
Q 1159 1113 1420 752 
Q 1681 391 2138 391 
Q 2594 391 2855 752 
Q 3116 1113 3116 1747 
z
" transform="scale(0.015625)"/>
       <path id="DejaVuSans-6f" d="M 1959 3097 
Q 1497 3097 1228 2736 
Q 959 2375 959 1747 
Q 959 1119 1226 758 
Q 1494 397 1959 397 
Q 2419 397 2687 759 
Q 2956 1122 2956 1747 
Q 2956 2369 2687 2733 
Q 2419 3097 1959 3097 
z
M 1959 3584 
Q 2709 3584 3137 3096 
Q 3566 2609 3566 1747 
Q 3566 888 3137 398 
Q 2709 -91 1959 -91 
Q 1206 -91 779 398 
Q 353 888 353 1747 
Q 353 2609 779 3096 
Q 1206 3584 1959 3584 
z
" transform="scale(0.015625)"/>
       <path id="DejaVuSans-63" d="M 3122 3366 
L 3122 2828 
Q 2878 2963 2633 3030 
Q 2388 3097 2138 3097 
Q 1578 3097 1268 2742 
Q 959 2388 959 1747 
Q 959 1106 1268 751 
Q 1578 397 2138 397 
Q 2388 397 2633 464 
Q 2878 531 3122 666 
L 3122 134 
Q 2881 22 2623 -34 
Q 2366 -91 2075 -91 
Q 1284 -91 818 406 
Q 353 903 353 1747 
Q 353 2603 823 3093 
Q 1294 3584 2113 3584 
Q 2378 3584 2631 3529 
Q 2884 3475 3122 3366 
z
" transform="scale(0.015625)"/>
       <path id="DejaVuSans-68" d="M 3513 2113 
L 3513 0 
L 2938 0 
L 2938 2094 
Q 2938 2591 2744 2837 
Q 2550 3084 2163 3084 
Q 1697 3084 1428 2787 
Q 1159 2491 1159 1978 
L 1159 0 
L 581 0 
L 581 4863 
L 1159 4863 
L 1159 2956 
Q 1366 3272 1645 3428 
Q 1925 3584 2291 3584 
Q 2894 3584 3203 3211 
Q 3513 2838 3513 2113 
z
" transform="scale(0.015625)"/>
      </defs>
      <use xlink:href="#DejaVuSans-45"/>
      <use xlink:href="#DejaVuSans-70" transform="translate(63.183594 0)"/>
      <use xlink:href="#DejaVuSans-6f" transform="translate(126.660156 0)"/>
      <use xlink:href="#DejaVuSans-63" transform="translate(187.841797 0)"/>
      <use xlink:href="#DejaVuSans-68" transform="translate(242.822266 0)"/>
     </g>
    </g>
   </g>
   <g id="matplotlib.axis_2">
    <g id="ytick_1">
     <g id="line2d_6">
      <defs>
       <path id="mc782cc1518" d="M 0 0 
L -3.5 0 
" style="stroke: #000000; stroke-width: 0.8"/>
      </defs>
      <g>
       <use xlink:href="#mc782cc1518" x="90" y="289.803024" style="stroke: #000000; stroke-width: 0.8"/>
      </g>
     </g>
     <g id="text_7">
      <!-- 0.3 -->
      <g transform="translate(67.096875 293.602243) scale(0.1 -0.1)">
       <defs>
        <path id="DejaVuSans-2e" d="M 684 794 
L 1344 794 
L 1344 0 
L 684 0 
L 684 794 
z
" transform="scale(0.015625)"/>
        <path id="DejaVuSans-33" d="M 2597 2516 
Q 3050 2419 3304 2112 
Q 3559 1806 3559 1356 
Q 3559 666 3084 287 
Q 2609 -91 1734 -91 
Q 1441 -91 1130 -33 
Q 819 25 488 141 
L 488 750 
Q 750 597 1062 519 
Q 1375 441 1716 441 
Q 2309 441 2620 675 
Q 2931 909 2931 1356 
Q 2931 1769 2642 2001 
Q 2353 2234 1838 2234 
L 1294 2234 
L 1294 2753 
L 1863 2753 
Q 2328 2753 2575 2939 
Q 2822 3125 2822 3475 
Q 2822 3834 2567 4026 
Q 2313 4219 1838 4219 
Q 1578 4219 1281 4162 
Q 984 4106 628 3988 
L 628 4550 
Q 988 4650 1302 4700 
Q 1616 4750 1894 4750 
Q 2613 4750 3031 4423 
Q 3450 4097 3450 3541 
Q 3450 3153 3228 2886 
Q 3006 2619 2597 2516 
z
" transform="scale(0.015625)"/>
       </defs>
       <use xlink:href="#DejaVuSans-30"/>
       <use xlink:href="#DejaVuSans-2e" transform="translate(63.623047 0)"/>
       <use xlink:href="#DejaVuSans-33" transform="translate(95.410156 0)"/>
      </g>
     </g>
    </g>
    <g id="ytick_2">
     <g id="line2d_7">
      <g>
       <use xlink:href="#mc782cc1518" x="90" y="250.607796" style="stroke: #000000; stroke-width: 0.8"/>
      </g>
     </g>
     <g id="text_8">
      <!-- 0.4 -->
      <g transform="translate(67.096875 254.407015) scale(0.1 -0.1)">
       <use xlink:href="#DejaVuSans-30"/>
       <use xlink:href="#DejaVuSans-2e" transform="translate(63.623047 0)"/>
       <use xlink:href="#DejaVuSans-34" transform="translate(95.410156 0)"/>
      </g>
     </g>
    </g>
    <g id="ytick_3">
     <g id="line2d_8">
      <g>
       <use xlink:href="#mc782cc1518" x="90" y="211.412567" style="stroke: #000000; stroke-width: 0.8"/>
      </g>
     </g>
     <g id="text_9">
      <!-- 0.5 -->
      <g transform="translate(67.096875 215.211786) scale(0.1 -0.1)">
       <defs>
        <path id="DejaVuSans-35" d="M 691 4666 
L 3169 4666 
L 3169 4134 
L 1269 4134 
L 1269 2991 
Q 1406 3038 1543 3061 
Q 1681 3084 1819 3084 
Q 2600 3084 3056 2656 
Q 3513 2228 3513 1497 
Q 3513 744 3044 326 
Q 2575 -91 1722 -91 
Q 1428 -91 1123 -41 
Q 819 9 494 109 
L 494 744 
Q 775 591 1075 516 
Q 1375 441 1709 441 
Q 2250 441 2565 725 
Q 2881 1009 2881 1497 
Q 2881 1984 2565 2268 
Q 2250 2553 1709 2553 
Q 1456 2553 1204 2497 
Q 953 2441 691 2322 
L 691 4666 
z
" transform="scale(0.015625)"/>
       </defs>
       <use xlink:href="#DejaVuSans-30"/>
       <use xlink:href="#DejaVuSans-2e" transform="translate(63.623047 0)"/>
       <use xlink:href="#DejaVuSans-35" transform="translate(95.410156 0)"/>
      </g>
     </g>
    </g>
    <g id="ytick_4">
     <g id="line2d_9">
      <g>
       <use xlink:href="#mc782cc1518" x="90" y="172.217339" style="stroke: #000000; stroke-width: 0.8"/>
      </g>
     </g>
     <g id="text_10">
      <!-- 0.6 -->
      <g transform="translate(67.096875 176.016558) scale(0.1 -0.1)">
       <use xlink:href="#DejaVuSans-30"/>
       <use xlink:href="#DejaVuSans-2e" transform="translate(63.623047 0)"/>
       <use xlink:href="#DejaVuSans-36" transform="translate(95.410156 0)"/>
      </g>
     </g>
    </g>
    <g id="ytick_5">
     <g id="line2d_10">
      <g>
       <use xlink:href="#mc782cc1518" x="90" y="133.022111" style="stroke: #000000; stroke-width: 0.8"/>
      </g>
     </g>
     <g id="text_11">
      <!-- 0.7 -->
      <g transform="translate(67.096875 136.821329) scale(0.1 -0.1)">
       <defs>
        <path id="DejaVuSans-37" d="M 525 4666 
L 3525 4666 
L 3525 4397 
L 1831 0 
L 1172 0 
L 2766 4134 
L 525 4134 
L 525 4666 
z
" transform="scale(0.015625)"/>
       </defs>
       <use xlink:href="#DejaVuSans-30"/>
       <use xlink:href="#DejaVuSans-2e" transform="translate(63.623047 0)"/>
       <use xlink:href="#DejaVuSans-37" transform="translate(95.410156 0)"/>
      </g>
     </g>
    </g>
    <g id="ytick_6">
     <g id="line2d_11">
      <g>
       <use xlink:href="#mc782cc1518" x="90" y="93.826882" style="stroke: #000000; stroke-width: 0.8"/>
      </g>
     </g>
     <g id="text_12">
      <!-- 0.8 -->
      <g transform="translate(67.096875 97.626101) scale(0.1 -0.1)">
       <use xlink:href="#DejaVuSans-30"/>
       <use xlink:href="#DejaVuSans-2e" transform="translate(63.623047 0)"/>
       <use xlink:href="#DejaVuSans-38" transform="translate(95.410156 0)"/>
      </g>
     </g>
    </g>
    <g id="ytick_7">
     <g id="line2d_12">
      <g>
       <use xlink:href="#mc782cc1518" x="90" y="54.631654" style="stroke: #000000; stroke-width: 0.8"/>
      </g>
     </g>
     <g id="text_13">
      <!-- 0.9 -->
      <g transform="translate(67.096875 58.430872) scale(0.1 -0.1)">
       <defs>
        <path id="DejaVuSans-39" d="M 703 97 
L 703 672 
Q 941 559 1184 500 
Q 1428 441 1663 441 
Q 2288 441 2617 861 
Q 2947 1281 2994 2138 
Q 2813 1869 2534 1725 
Q 2256 1581 1919 1581 
Q 1219 1581 811 2004 
Q 403 2428 403 3163 
Q 403 3881 828 4315 
Q 1253 4750 1959 4750 
Q 2769 4750 3195 4129 
Q 3622 3509 3622 2328 
Q 3622 1225 3098 567 
Q 2575 -91 1691 -91 
Q 1453 -91 1209 -44 
Q 966 3 703 97 
z
M 1959 2075 
Q 2384 2075 2632 2365 
Q 2881 2656 2881 3163 
Q 2881 3666 2632 3958 
Q 2384 4250 1959 4250 
Q 1534 4250 1286 3958 
Q 1038 3666 1038 3163 
Q 1038 2656 1286 2365 
Q 1534 2075 1959 2075 
z
" transform="scale(0.015625)"/>
       </defs>
       <use xlink:href="#DejaVuSans-30"/>
       <use xlink:href="#DejaVuSans-2e" transform="translate(63.623047 0)"/>
       <use xlink:href="#DejaVuSans-39" transform="translate(95.410156 0)"/>
      </g>
     </g>
    </g>
    <g id="text_14">
     <!-- Domain Loss -->
     <g transform="translate(61.017187 213.757812) rotate(-90) scale(0.1 -0.1)">
      <defs>
       <path id="DejaVuSans-44" d="M 1259 4147 
L 1259 519 
L 2022 519 
Q 2988 519 3436 956 
Q 3884 1394 3884 2338 
Q 3884 3275 3436 3711 
Q 2988 4147 2022 4147 
L 1259 4147 
z
M 628 4666 
L 1925 4666 
Q 3281 4666 3915 4102 
Q 4550 3538 4550 2338 
Q 4550 1131 3912 565 
Q 3275 0 1925 0 
L 628 0 
L 628 4666 
z
" transform="scale(0.015625)"/>
       <path id="DejaVuSans-6d" d="M 3328 2828 
Q 3544 3216 3844 3400 
Q 4144 3584 4550 3584 
Q 5097 3584 5394 3201 
Q 5691 2819 5691 2113 
L 5691 0 
L 5113 0 
L 5113 2094 
Q 5113 2597 4934 2840 
Q 4756 3084 4391 3084 
Q 3944 3084 3684 2787 
Q 3425 2491 3425 1978 
L 3425 0 
L 2847 0 
L 2847 2094 
Q 2847 2600 2669 2842 
Q 2491 3084 2119 3084 
Q 1678 3084 1418 2786 
Q 1159 2488 1159 1978 
L 1159 0 
L 581 0 
L 581 3500 
L 1159 3500 
L 1159 2956 
Q 1356 3278 1631 3431 
Q 1906 3584 2284 3584 
Q 2666 3584 2933 3390 
Q 3200 3197 3328 2828 
z
" transform="scale(0.015625)"/>
       <path id="DejaVuSans-61" d="M 2194 1759 
Q 1497 1759 1228 1600 
Q 959 1441 959 1056 
Q 959 750 1161 570 
Q 1363 391 1709 391 
Q 2188 391 2477 730 
Q 2766 1069 2766 1631 
L 2766 1759 
L 2194 1759 
z
M 3341 1997 
L 3341 0 
L 2766 0 
L 2766 531 
Q 2569 213 2275 61 
Q 1981 -91 1556 -91 
Q 1019 -91 701 211 
Q 384 513 384 1019 
Q 384 1609 779 1909 
Q 1175 2209 1959 2209 
L 2766 2209 
L 2766 2266 
Q 2766 2663 2505 2880 
Q 2244 3097 1772 3097 
Q 1472 3097 1187 3025 
Q 903 2953 641 2809 
L 641 3341 
Q 956 3463 1253 3523 
Q 1550 3584 1831 3584 
Q 2591 3584 2966 3190 
Q 3341 2797 3341 1997 
z
" transform="scale(0.015625)"/>
       <path id="DejaVuSans-69" d="M 603 3500 
L 1178 3500 
L 1178 0 
L 603 0 
L 603 3500 
z
M 603 4863 
L 1178 4863 
L 1178 4134 
L 603 4134 
L 603 4863 
z
" transform="scale(0.015625)"/>
       <path id="DejaVuSans-6e" d="M 3513 2113 
L 3513 0 
L 2938 0 
L 2938 2094 
Q 2938 2591 2744 2837 
Q 2550 3084 2163 3084 
Q 1697 3084 1428 2787 
Q 1159 2491 1159 1978 
L 1159 0 
L 581 0 
L 581 3500 
L 1159 3500 
L 1159 2956 
Q 1366 3272 1645 3428 
Q 1925 3584 2291 3584 
Q 2894 3584 3203 3211 
Q 3513 2838 3513 2113 
z
" transform="scale(0.015625)"/>
       <path id="DejaVuSans-20" transform="scale(0.015625)"/>
       <path id="DejaVuSans-4c" d="M 628 4666 
L 1259 4666 
L 1259 531 
L 3531 531 
L 3531 0 
L 628 0 
L 628 4666 
z
" transform="scale(0.015625)"/>
       <path id="DejaVuSans-73" d="M 2834 3397 
L 2834 2853 
Q 2591 2978 2328 3040 
Q 2066 3103 1784 3103 
Q 1356 3103 1142 2972 
Q 928 2841 928 2578 
Q 928 2378 1081 2264 
Q 1234 2150 1697 2047 
L 1894 2003 
Q 2506 1872 2764 1633 
Q 3022 1394 3022 966 
Q 3022 478 2636 193 
Q 2250 -91 1575 -91 
Q 1294 -91 989 -36 
Q 684 19 347 128 
L 347 722 
Q 666 556 975 473 
Q 1284 391 1588 391 
Q 1994 391 2212 530 
Q 2431 669 2431 922 
Q 2431 1156 2273 1281 
Q 2116 1406 1581 1522 
L 1381 1569 
Q 847 1681 609 1914 
Q 372 2147 372 2553 
Q 372 3047 722 3315 
Q 1072 3584 1716 3584 
Q 2034 3584 2315 3537 
Q 2597 3491 2834 3397 
z
" transform="scale(0.015625)"/>
      </defs>
      <use xlink:href="#DejaVuSans-44"/>
      <use xlink:href="#DejaVuSans-6f" transform="translate(77.001953 0)"/>
      <use xlink:href="#DejaVuSans-6d" transform="translate(138.183594 0)"/>
      <use xlink:href="#DejaVuSans-61" transform="translate(235.595703 0)"/>
      <use xlink:href="#DejaVuSans-69" transform="translate(296.875 0)"/>
      <use xlink:href="#DejaVuSans-6e" transform="translate(324.658203 0)"/>
      <use xlink:href="#DejaVuSans-20" transform="translate(388.037109 0)"/>
      <use xlink:href="#DejaVuSans-4c" transform="translate(419.824219 0)"/>
      <use xlink:href="#DejaVuSans-6f" transform="translate(473.787109 0)"/>
      <use xlink:href="#DejaVuSans-73" transform="translate(534.96875 0)"/>
      <use xlink:href="#DejaVuSans-73" transform="translate(587.068359 0)"/>
     </g>
    </g>
   </g>
   <g id="line2d_13">
    <path d="M 115.363636 81.128173 
L 117.060201 79.303035 
L 118.756765 79.492206 
L 120.453329 80.130973 
L 122.149894 81.214077 
L 123.846458 82.528053 
L 125.543022 83.996209 
L 127.239587 85.818671 
L 128.936151 88.075191 
L 130.632715 90.849072 
L 132.329279 94.23111 
L 134.025844 97.871745 
L 142.508665 117.282085 
L 145.901794 124.248437 
L 150.991487 133.900007 
L 156.08118 143.037552 
L 159.474308 148.93983 
L 162.867437 154.35096 
L 166.260566 159.205552 
L 171.350258 166.281846 
L 174.743387 171.183071 
L 179.83308 179.138854 
L 181.529644 181.477756 
L 183.226209 183.38973 
L 188.315901 191.554124 
L 195.102159 200.755463 
L 198.495287 203.940339 
L 200.191852 206.513999 
L 203.58498 209.569623 
L 205.281545 210.652743 
L 206.978109 211.11324 
L 208.674673 211.419716 
L 210.371237 213.749353 
L 212.067802 216.991143 
L 215.46093 219.610133 
L 217.157495 219.826806 
L 218.854059 216.149352 
L 220.550623 220.913324 
L 222.247188 218.187845 
L 223.943752 219.501506 
L 225.640316 218.04539 
L 227.336881 218.202957 
L 229.033445 226.098923 
L 230.730009 235.740556 
L 232.426573 239.419223 
L 234.123138 242.008687 
L 235.819702 239.343541 
L 237.516266 243.665871 
L 239.212831 242.45081 
L 240.909395 244.923091 
L 242.605959 252.311314 
L 244.302524 251.113335 
L 245.999088 253.282757 
L 247.695652 253.391281 
L 249.392216 256.149933 
L 251.088781 258.40057 
L 252.785345 258.739823 
L 254.481909 249.921978 
L 256.178474 248.2414 
L 257.875038 260.108926 
L 261.268167 261.93534 
L 262.964731 261.829485 
L 264.661295 262.772648 
L 266.35786 263.264675 
L 268.054424 264.242668 
L 269.750988 264.37451 
L 271.447552 260.676433 
L 273.144117 264.299432 
L 274.840681 266.26222 
L 276.537245 266.975891 
L 278.23381 266.235725 
L 279.930374 268.861838 
L 281.626938 269.189168 
L 283.323503 264.239231 
L 285.020067 271.922344 
L 286.716631 268.205425 
L 290.10976 273.278255 
L 291.806324 274.34901 
L 293.502888 273.665362 
L 295.199453 272.399228 
L 296.896017 267.440511 
L 298.592581 272.579443 
L 300.289146 274.054502 
L 301.98571 269.474323 
L 303.682274 274.646211 
L 305.378839 268.902348 
L 307.075403 268.794699 
L 308.771967 263.403587 
L 310.468531 267.144375 
L 313.86166 269.005916 
L 315.558224 266.481497 
L 317.254789 270.914847 
L 318.951353 269.935918 
L 320.647917 275.95788 
L 322.344482 271.181973 
L 325.73761 271.320494 
L 327.434175 265.226339 
L 329.130739 272.948482 
L 330.827303 277.371545 
L 332.523867 278.492293 
L 334.220432 275.227491 
L 335.916996 269.838574 
L 337.61356 275.756618 
L 339.310125 273.255984 
L 341.006689 272.632821 
L 342.703253 275.722964 
L 344.399818 268.161872 
L 346.096382 264.404121 
L 347.792946 278.686593 
L 349.48951 272.21027 
L 351.186075 268.714208 
L 352.882639 275.697626 
L 354.579203 276.944392 
L 356.275768 267.830915 
L 357.972332 272.387362 
L 359.668896 271.280271 
L 361.365461 271.348597 
L 363.062025 276.466082 
L 364.758589 272.555788 
L 366.455154 273.493049 
L 368.151718 275.936536 
L 369.848282 272.710336 
L 371.544846 275.7519 
L 373.241411 278.099245 
L 374.937975 274.762031 
L 376.634539 277.858591 
L 378.331104 278.881817 
L 380.027668 272.943541 
L 381.724232 277.887516 
L 383.420797 275.684846 
L 385.117361 279.0965 
L 388.51049 275.422546 
L 390.207054 279.214644 
L 391.903618 278.387636 
L 393.600182 280.805071 
L 395.296747 281.063765 
L 396.993311 277.62422 
L 398.689875 278.019628 
L 400.38644 278.545644 
L 402.083004 283.347137 
L 403.779568 283.202358 
L 405.476133 281.256627 
L 407.172697 280.455634 
L 408.869261 280.26887 
L 410.565825 283.645583 
L 412.26239 282.456919 
L 413.958954 284.442398 
L 415.655518 284.926087 
L 417.352083 284.543042 
L 419.048647 283.386595 
L 420.745211 285.183905 
L 422.441776 285.112922 
L 424.13834 285.835999 
L 425.834904 278.49914 
L 427.531469 285.775248 
L 429.228033 288.158244 
L 430.924597 283.897745 
L 432.621161 288.433858 
L 434.317726 280.075849 
L 436.01429 289.008889 
L 437.710854 289.913467 
L 439.407419 289.731208 
L 441.103983 289.33706 
L 442.800547 290.521057 
L 444.497112 285.665467 
L 446.193676 287.243256 
L 447.89024 288.999614 
L 449.586804 284.063532 
L 451.283369 284.333834 
L 452.979933 289.876821 
L 454.676497 289.698653 
L 456.373062 292.303848 
L 458.069626 293.513878 
L 459.76619 294.31999 
L 461.462755 281.364457 
L 463.159319 283.35466 
L 464.855883 283.622229 
L 466.552448 282.991011 
L 468.249012 289.446977 
L 469.945576 289.655867 
L 471.64214 288.294674 
L 473.338705 290.43608 
L 475.035269 292.04239 
L 476.731833 288.124892 
L 478.428398 293.169606 
L 480.124962 291.904576 
L 481.821526 293.222335 
L 483.518091 292.738417 
L 485.214655 291.916133 
L 486.911219 296.916613 
L 488.607784 294.913328 
L 490.304348 300.745571 
L 492.000912 285.763295 
L 493.697476 293.807303 
L 495.394041 292.222339 
L 497.090605 296.881323 
L 498.787169 296.155821 
L 500.483734 296.76828 
L 502.180298 294.125655 
L 505.573427 297.303448 
L 507.269991 296.388736 
L 508.966555 296.822076 
L 510.663119 294.705708 
L 512.359684 295.869254 
L 514.056248 293.885205 
L 515.752812 285.059718 
L 517.449377 297.809232 
L 519.145941 288.414948 
L 520.842505 281.276448 
L 522.53907 296.734584 
L 524.235634 289.601826 
L 525.932198 287.580887 
L 527.628763 298.388211 
L 529.325327 303.565935 
L 531.021891 286.103043 
L 532.718455 300.0744 
L 534.41502 301.893024 
L 536.111584 288.228581 
L 537.808148 296.272504 
L 539.504713 295.047429 
L 542.897841 275.890606 
L 544.594406 296.210055 
L 546.29097 293.459948 
L 547.987534 290.971142 
L 549.684099 293.602658 
L 551.380663 299.150529 
L 553.077227 287.883524 
L 554.773791 299.116876 
L 556.470356 298.672829 
L 558.16692 297.99654 
L 559.863484 291.267422 
L 561.560049 303.520585 
L 563.256613 289.678712 
L 564.953177 292.614629 
L 566.649742 286.591131 
L 568.346306 301.407924 
L 570.04287 301.845521 
L 571.739434 287.470746 
L 573.435999 293.606963 
L 575.132563 295.773081 
L 576.829127 290.596558 
L 578.525692 299.086444 
L 580.222256 299.448768 
L 581.91882 302.338409 
L 583.615385 297.929875 
L 585.311949 301.024173 
L 587.008513 297.296414 
L 588.705078 299.75888 
L 590.401642 302.644106 
L 592.098206 295.7935 
L 593.79477 300.499711 
L 595.491335 300.876799 
L 597.187899 296.690239 
L 598.884463 302.14123 
L 600.581028 295.94845 
L 602.277592 307.8 
L 603.974156 305.307039 
L 605.670721 301.136041 
L 607.367285 305.110587 
L 609.063849 298.554845 
L 610.760413 296.507279 
L 612.456978 290.706542 
L 614.153542 294.331398 
L 615.850106 296.693211 
L 617.546671 302.723942 
L 619.243235 304.249532 
L 620.939799 301.462605 
L 622.636364 295.141858 
L 622.636364 295.141858 
" clip-path="url(#pd1ddb2d093)" style="fill: none; stroke: #1f77b4; stroke-width: 1.5; stroke-linecap: square"/>
   </g>
   <g id="line2d_14">
    <path d="M 115.363636 55.8 
L 118.756765 56.034705 
L 122.149894 57.609888 
L 125.543022 60.177715 
L 127.239587 61.715331 
L 128.936151 63.69022 
L 130.632715 65.943433 
L 134.025844 71.657623 
L 137.418972 77.979432 
L 142.508665 88.203422 
L 144.20523 91.341406 
L 145.901794 94.792408 
L 154.384615 109.706645 
L 159.474308 118.397213 
L 166.260566 130.877166 
L 167.95713 134.574979 
L 169.653694 138.583758 
L 171.350258 143.282657 
L 174.743387 153.63859 
L 176.439951 159.311007 
L 178.136516 164.253977 
L 179.83308 168.692054 
L 183.226209 176.715056 
L 184.922773 179.32676 
L 186.619337 181.618775 
L 190.012466 184.297816 
L 191.70903 185.377018 
L 193.405594 187.441987 
L 195.102159 188.848053 
L 196.798723 193.268812 
L 198.495287 195.923124 
L 200.191852 196.563941 
L 203.58498 198.398289 
L 206.978109 199.930583 
L 210.371237 201.176507 
L 212.067802 202.301435 
L 213.764366 201.802027 
L 215.46093 201.466315 
L 217.157495 206.627557 
L 218.854059 201.497885 
L 220.550623 206.562617 
L 222.247188 229.577497 
L 223.943752 205.046956 
L 225.640316 203.725993 
L 227.336881 211.986576 
L 229.033445 206.305855 
L 230.730009 188.623986 
L 232.426573 187.499335 
L 234.123138 190.672125 
L 235.819702 190.435287 
L 237.516266 189.713901 
L 239.212831 207.130663 
L 240.909395 204.759248 
L 242.605959 208.058416 
L 244.302524 213.434171 
L 245.999088 217.378879 
L 247.695652 198.556311 
L 249.392216 217.259287 
L 251.088781 215.866712 
L 252.785345 228.810853 
L 254.481909 233.062325 
L 256.178474 213.527226 
L 257.875038 234.253093 
L 259.571602 234.373891 
L 261.268167 233.808303 
L 262.964731 233.379023 
L 264.661295 235.308223 
L 266.35786 238.176639 
L 268.054424 240.342797 
L 269.750988 240.953409 
L 271.447552 235.73877 
L 273.144117 235.524695 
L 274.840681 238.160313 
L 276.537245 233.525562 
L 278.23381 241.086768 
L 279.930374 237.887258 
L 281.626938 243.521325 
L 283.323503 244.510099 
L 285.020067 240.059323 
L 286.716631 196.746569 
L 288.413196 239.601507 
L 290.10976 243.668077 
L 291.806324 245.287441 
L 293.502888 245.530108 
L 295.199453 238.205693 
L 296.896017 241.380671 
L 298.592581 239.430894 
L 300.289146 243.202228 
L 301.98571 242.941621 
L 303.682274 194.169675 
L 305.378839 242.345712 
L 307.075403 245.987385 
L 308.771967 252.125198 
L 310.468531 241.635143 
L 312.165096 202.729974 
L 313.86166 195.184279 
L 315.558224 197.962413 
L 317.254789 250.698751 
L 318.951353 248.438212 
L 320.647917 188.363909 
L 322.344482 252.328572 
L 324.041046 250.856309 
L 325.73761 250.839486 
L 327.434175 195.401046 
L 329.130739 251.047765 
L 330.827303 205.796143 
L 332.523867 200.15282 
L 334.220432 200.091645 
L 335.916996 251.930816 
L 337.61356 203.534676 
L 339.310125 252.390967 
L 341.006689 254.20447 
L 344.399818 251.096621 
L 346.096382 249.893948 
L 347.792946 248.850645 
L 349.48951 192.920937 
L 351.186075 248.865692 
L 352.882639 184.427187 
L 354.579203 205.550475 
L 356.275768 259.144426 
L 357.972332 246.419134 
L 359.668896 261.033555 
L 361.365461 255.270326 
L 363.062025 251.428751 
L 364.758589 260.868497 
L 366.455154 200.984129 
L 368.151718 256.075166 
L 369.848282 248.805782 
L 371.544846 249.805946 
L 373.241411 248.050863 
L 374.937975 259.412175 
L 376.634539 258.58984 
L 378.331104 258.4876 
L 380.027668 254.184546 
L 381.724232 263.924535 
L 383.420797 208.579559 
L 385.117361 259.001067 
L 386.813925 265.054331 
L 388.51049 256.197556 
L 390.207054 250.156556 
L 391.903618 249.807723 
L 393.600182 256.493065 
L 395.296747 254.957688 
L 396.993311 197.491588 
L 398.689875 257.138016 
L 400.38644 246.384239 
L 402.083004 255.106171 
L 403.779568 251.295296 
L 405.476133 256.863495 
L 407.172697 256.888946 
L 408.869261 255.934727 
L 410.565825 251.83393 
L 412.26239 255.809907 
L 413.958954 256.360524 
L 415.655518 251.753652 
L 417.352083 253.166129 
L 419.048647 251.300565 
L 420.745211 250.86112 
L 422.441776 255.547484 
L 424.13834 252.696827 
L 425.834904 252.056679 
L 427.531469 252.702716 
L 429.228033 255.542444 
L 430.924597 246.656476 
L 432.621161 255.132305 
L 434.317726 254.199171 
L 436.01429 256.477649 
L 437.710854 255.740989 
L 439.407419 239.863453 
L 441.103983 254.763903 
L 442.800547 253.592912 
L 444.497112 252.686917 
L 446.193676 253.847136 
L 447.89024 255.474572 
L 449.586804 255.722717 
L 451.283369 256.115718 
L 452.979933 254.131577 
L 454.676497 253.979804 
L 456.373062 255.217355 
L 458.069626 256.309249 
L 459.76619 257.259608 
L 461.462755 251.920186 
L 463.159319 252.920941 
L 464.855883 256.601669 
L 466.552448 261.689296 
L 468.249012 258.840717 
L 469.945576 256.899349 
L 471.64214 252.931677 
L 473.338705 256.206705 
L 475.035269 254.914808 
L 476.731833 256.765035 
L 478.428398 256.471845 
L 480.124962 259.274204 
L 481.821526 252.9581 
L 483.518091 255.388706 
L 485.214655 246.451576 
L 486.911219 219.542488 
L 488.607784 253.440415 
L 490.304348 255.014292 
L 492.000912 231.946728 
L 493.697476 238.623872 
L 495.394041 226.87318 
L 497.090605 255.078523 
L 498.787169 220.402435 
L 500.483734 247.426213 
L 502.180298 252.229783 
L 503.876862 228.549641 
L 505.573427 218.490203 
L 507.269991 227.493701 
L 508.966555 227.423884 
L 510.663119 229.951811 
L 512.359684 236.017863 
L 514.056248 227.251194 
L 515.752812 235.24272 
L 517.449377 227.559957 
L 519.145941 229.288526 
L 522.53907 226.636104 
L 524.235634 229.022326 
L 525.932198 219.920595 
L 527.628763 226.135349 
L 529.325327 223.024526 
L 531.021891 221.20906 
L 532.718455 222.343335 
L 534.41502 219.989576 
L 536.111584 214.358804 
L 537.808148 217.629209 
L 539.504713 216.423081 
L 541.201277 213.016946 
L 542.897841 234.15624 
L 544.594406 221.865429 
L 546.29097 200.0412 
L 549.684099 234.743523 
L 551.380663 221.765264 
L 553.077227 221.603762 
L 554.773791 220.327354 
L 556.470356 217.928612 
L 558.16692 223.681141 
L 561.560049 213.948052 
L 563.256613 242.189235 
L 564.953177 227.141474 
L 566.649742 224.126589 
L 568.346306 217.851839 
L 570.04287 206.83862 
L 571.739434 257.080065 
L 573.435999 228.249143 
L 575.132563 219.110778 
L 576.829127 226.666707 
L 578.525692 213.770441 
L 580.222256 217.987773 
L 581.91882 215.514263 
L 583.615385 216.396026 
L 585.311949 210.35713 
L 587.008513 226.36133 
L 588.705078 227.566573 
L 590.401642 228.246285 
L 592.098206 215.035276 
L 593.79477 225.316107 
L 595.491335 231.368159 
L 597.187899 230.320562 
L 598.884463 232.887341 
L 600.581028 224.563143 
L 603.974156 230.092533 
L 605.670721 215.400375 
L 607.367285 231.880171 
L 609.063849 234.832585 
L 610.760413 226.703366 
L 612.456978 228.981749 
L 614.153542 224.763768 
L 615.850106 233.413126 
L 617.546671 225.908372 
L 619.243235 233.079972 
L 620.939799 231.708594 
L 622.636364 229.720534 
L 622.636364 229.720534 
" clip-path="url(#pd1ddb2d093)" style="fill: none; stroke: #ff7f0e; stroke-width: 1.5; stroke-linecap: square"/>
   </g>
   <g id="patch_3">
    <path d="M 90 320.4 
L 90 43.2 
" style="fill: none; stroke: #000000; stroke-width: 0.8; stroke-linejoin: miter; stroke-linecap: square"/>
   </g>
   <g id="patch_4">
    <path d="M 648 320.4 
L 648 43.2 
" style="fill: none; stroke: #000000; stroke-width: 0.8; stroke-linejoin: miter; stroke-linecap: square"/>
   </g>
   <g id="patch_5">
    <path d="M 90 320.4 
L 648 320.4 
" style="fill: none; stroke: #000000; stroke-width: 0.8; stroke-linejoin: miter; stroke-linecap: square"/>
   </g>
   <g id="patch_6">
    <path d="M 90 43.2 
L 648 43.2 
" style="fill: none; stroke: #000000; stroke-width: 0.8; stroke-linejoin: miter; stroke-linecap: square"/>
   </g>
   <g id="text_15">
    <!-- Training and Validating Domain Loss -->
    <g transform="translate(260.204063 37.2) scale(0.12 -0.12)">
     <defs>
      <path id="DejaVuSans-54" d="M -19 4666 
L 3928 4666 
L 3928 4134 
L 2272 4134 
L 2272 0 
L 1638 0 
L 1638 4134 
L -19 4134 
L -19 4666 
z
" transform="scale(0.015625)"/>
      <path id="DejaVuSans-72" d="M 2631 2963 
Q 2534 3019 2420 3045 
Q 2306 3072 2169 3072 
Q 1681 3072 1420 2755 
Q 1159 2438 1159 1844 
L 1159 0 
L 581 0 
L 581 3500 
L 1159 3500 
L 1159 2956 
Q 1341 3275 1631 3429 
Q 1922 3584 2338 3584 
Q 2397 3584 2469 3576 
Q 2541 3569 2628 3553 
L 2631 2963 
z
" transform="scale(0.015625)"/>
      <path id="DejaVuSans-67" d="M 2906 1791 
Q 2906 2416 2648 2759 
Q 2391 3103 1925 3103 
Q 1463 3103 1205 2759 
Q 947 2416 947 1791 
Q 947 1169 1205 825 
Q 1463 481 1925 481 
Q 2391 481 2648 825 
Q 2906 1169 2906 1791 
z
M 3481 434 
Q 3481 -459 3084 -895 
Q 2688 -1331 1869 -1331 
Q 1566 -1331 1297 -1286 
Q 1028 -1241 775 -1147 
L 775 -588 
Q 1028 -725 1275 -790 
Q 1522 -856 1778 -856 
Q 2344 -856 2625 -561 
Q 2906 -266 2906 331 
L 2906 616 
Q 2728 306 2450 153 
Q 2172 0 1784 0 
Q 1141 0 747 490 
Q 353 981 353 1791 
Q 353 2603 747 3093 
Q 1141 3584 1784 3584 
Q 2172 3584 2450 3431 
Q 2728 3278 2906 2969 
L 2906 3500 
L 3481 3500 
L 3481 434 
z
" transform="scale(0.015625)"/>
      <path id="DejaVuSans-64" d="M 2906 2969 
L 2906 4863 
L 3481 4863 
L 3481 0 
L 2906 0 
L 2906 525 
Q 2725 213 2448 61 
Q 2172 -91 1784 -91 
Q 1150 -91 751 415 
Q 353 922 353 1747 
Q 353 2572 751 3078 
Q 1150 3584 1784 3584 
Q 2172 3584 2448 3432 
Q 2725 3281 2906 2969 
z
M 947 1747 
Q 947 1113 1208 752 
Q 1469 391 1925 391 
Q 2381 391 2643 752 
Q 2906 1113 2906 1747 
Q 2906 2381 2643 2742 
Q 2381 3103 1925 3103 
Q 1469 3103 1208 2742 
Q 947 2381 947 1747 
z
" transform="scale(0.015625)"/>
      <path id="DejaVuSans-56" d="M 1831 0 
L 50 4666 
L 709 4666 
L 2188 738 
L 3669 4666 
L 4325 4666 
L 2547 0 
L 1831 0 
z
" transform="scale(0.015625)"/>
      <path id="DejaVuSans-6c" d="M 603 4863 
L 1178 4863 
L 1178 0 
L 603 0 
L 603 4863 
z
" transform="scale(0.015625)"/>
      <path id="DejaVuSans-74" d="M 1172 4494 
L 1172 3500 
L 2356 3500 
L 2356 3053 
L 1172 3053 
L 1172 1153 
Q 1172 725 1289 603 
Q 1406 481 1766 481 
L 2356 481 
L 2356 0 
L 1766 0 
Q 1100 0 847 248 
Q 594 497 594 1153 
L 594 3053 
L 172 3053 
L 172 3500 
L 594 3500 
L 594 4494 
L 1172 4494 
z
" transform="scale(0.015625)"/>
     </defs>
     <use xlink:href="#DejaVuSans-54"/>
     <use xlink:href="#DejaVuSans-72" transform="translate(46.333984 0)"/>
     <use xlink:href="#DejaVuSans-61" transform="translate(87.447266 0)"/>
     <use xlink:href="#DejaVuSans-69" transform="translate(148.726562 0)"/>
     <use xlink:href="#DejaVuSans-6e" transform="translate(176.509766 0)"/>
     <use xlink:href="#DejaVuSans-69" transform="translate(239.888672 0)"/>
     <use xlink:href="#DejaVuSans-6e" transform="translate(267.671875 0)"/>
     <use xlink:href="#DejaVuSans-67" transform="translate(331.050781 0)"/>
     <use xlink:href="#DejaVuSans-20" transform="translate(394.527344 0)"/>
     <use xlink:href="#DejaVuSans-61" transform="translate(426.314453 0)"/>
     <use xlink:href="#DejaVuSans-6e" transform="translate(487.59375 0)"/>
     <use xlink:href="#DejaVuSans-64" transform="translate(550.972656 0)"/>
     <use xlink:href="#DejaVuSans-20" transform="translate(614.449219 0)"/>
     <use xlink:href="#DejaVuSans-56" transform="translate(646.236328 0)"/>
     <use xlink:href="#DejaVuSans-61" transform="translate(706.894531 0)"/>
     <use xlink:href="#DejaVuSans-6c" transform="translate(768.173828 0)"/>
     <use xlink:href="#DejaVuSans-69" transform="translate(795.957031 0)"/>
     <use xlink:href="#DejaVuSans-64" transform="translate(823.740234 0)"/>
     <use xlink:href="#DejaVuSans-61" transform="translate(887.216797 0)"/>
     <use xlink:href="#DejaVuSans-74" transform="translate(948.496094 0)"/>
     <use xlink:href="#DejaVuSans-69" transform="translate(987.705078 0)"/>
     <use xlink:href="#DejaVuSans-6e" transform="translate(1015.488281 0)"/>
     <use xlink:href="#DejaVuSans-67" transform="translate(1078.867188 0)"/>
     <use xlink:href="#DejaVuSans-20" transform="translate(1142.34375 0)"/>
     <use xlink:href="#DejaVuSans-44" transform="translate(1174.130859 0)"/>
     <use xlink:href="#DejaVuSans-6f" transform="translate(1251.132812 0)"/>
     <use xlink:href="#DejaVuSans-6d" transform="translate(1312.314453 0)"/>
     <use xlink:href="#DejaVuSans-61" transform="translate(1409.726562 0)"/>
     <use xlink:href="#DejaVuSans-69" transform="translate(1471.005859 0)"/>
     <use xlink:href="#DejaVuSans-6e" transform="translate(1498.789062 0)"/>
     <use xlink:href="#DejaVuSans-20" transform="translate(1562.167969 0)"/>
     <use xlink:href="#DejaVuSans-4c" transform="translate(1593.955078 0)"/>
     <use xlink:href="#DejaVuSans-6f" transform="translate(1647.917969 0)"/>
     <use xlink:href="#DejaVuSans-73" transform="translate(1709.099609 0)"/>
     <use xlink:href="#DejaVuSans-73" transform="translate(1761.199219 0)"/>
    </g>
   </g>
   <g id="legend_1">
    <g id="patch_7">
     <path d="M 559.389063 80.55625 
L 641 80.55625 
Q 643 80.55625 643 78.55625 
L 643 50.2 
Q 643 48.2 641 48.2 
L 559.389063 48.2 
Q 557.389063 48.2 557.389063 50.2 
L 557.389063 78.55625 
Q 557.389063 80.55625 559.389063 80.55625 
z
" style="fill: #ffffff; opacity: 0.8; stroke: #cccccc; stroke-linejoin: miter"/>
    </g>
    <g id="line2d_15">
     <path d="M 561.389063 56.298437 
L 571.389063 56.298437 
L 581.389063 56.298437 
" style="fill: none; stroke: #1f77b4; stroke-width: 1.5; stroke-linecap: square"/>
    </g>
    <g id="text_16">
     <!-- Training -->
     <g transform="translate(589.389063 59.798437) scale(0.1 -0.1)">
      <use xlink:href="#DejaVuSans-54"/>
      <use xlink:href="#DejaVuSans-72" transform="translate(46.333984 0)"/>
      <use xlink:href="#DejaVuSans-61" transform="translate(87.447266 0)"/>
      <use xlink:href="#DejaVuSans-69" transform="translate(148.726562 0)"/>
      <use xlink:href="#DejaVuSans-6e" transform="translate(176.509766 0)"/>
      <use xlink:href="#DejaVuSans-69" transform="translate(239.888672 0)"/>
      <use xlink:href="#DejaVuSans-6e" transform="translate(267.671875 0)"/>
      <use xlink:href="#DejaVuSans-67" transform="translate(331.050781 0)"/>
     </g>
    </g>
    <g id="line2d_16">
     <path d="M 561.389063 70.976562 
L 571.389063 70.976562 
L 581.389063 70.976562 
" style="fill: none; stroke: #ff7f0e; stroke-width: 1.5; stroke-linecap: square"/>
    </g>
    <g id="text_17">
     <!-- Validating -->
     <g transform="translate(589.389063 74.476562) scale(0.1 -0.1)">
      <use xlink:href="#DejaVuSans-56"/>
      <use xlink:href="#DejaVuSans-61" transform="translate(60.658203 0)"/>
      <use xlink:href="#DejaVuSans-6c" transform="translate(121.9375 0)"/>
      <use xlink:href="#DejaVuSans-69" transform="translate(149.720703 0)"/>
      <use xlink:href="#DejaVuSans-64" transform="translate(177.503906 0)"/>
      <use xlink:href="#DejaVuSans-61" transform="translate(240.980469 0)"/>
      <use xlink:href="#DejaVuSans-74" transform="translate(302.259766 0)"/>
      <use xlink:href="#DejaVuSans-69" transform="translate(341.46875 0)"/>
      <use xlink:href="#DejaVuSans-6e" transform="translate(369.251953 0)"/>
      <use xlink:href="#DejaVuSans-67" transform="translate(432.630859 0)"/>
     </g>
    </g>
   </g>
  </g>
 </g>
 <defs>
  <clipPath id="pd1ddb2d093">
   <rect x="90" y="43.2" width="558" height="277.2"/>
  </clipPath>
 </defs>
</svg>
