<?xml version="1.0" encoding="utf-8" standalone="no"?>
<!DOCTYPE svg PUBLIC "-//W3C//DTD SVG 1.1//EN"
  "http://www.w3.org/Graphics/SVG/1.1/DTD/svg11.dtd">
<svg xmlns:xlink="http://www.w3.org/1999/xlink" width="720pt" height="360pt" viewBox="0 0 720 360" xmlns="http://www.w3.org/2000/svg" version="1.1">
 <metadata>
  <rdf:RDF xmlns:dc="http://purl.org/dc/elements/1.1/" xmlns:cc="http://creativecommons.org/ns#" xmlns:rdf="http://www.w3.org/1999/02/22-rdf-syntax-ns#">
   <cc:Work>
    <dc:type rdf:resource="http://purl.org/dc/dcmitype/StillImage"/>
    <dc:date>2025-10-31T04:09:54.131785</dc:date>
    <dc:format>image/svg+xml</dc:format>
    <dc:creator>
     <cc:Agent>
      <dc:title>Matplotlib v3.10.1, https://matplotlib.org/</dc:title>
     </cc:Agent>
    </dc:creator>
   </cc:Work>
  </rdf:RDF>
 </metadata>
 <defs>
  <style type="text/css">*{stroke-linejoin: round; stroke-linecap: butt}</style>
 </defs>
 <g id="figure_1">
  <g id="patch_1">
   <path d="M 0 360 
L 720 360 
L 720 0 
L 0 0 
z
" style="fill: #ffffff"/>
  </g>
  <g id="axes_1">
   <g id="patch_2">
    <path d="M 90 320.4 
L 648 320.4 
L 648 43.2 
L 90 43.2 
z
" style="fill: #ffffff"/>
   </g>
   <g id="matplotlib.axis_1">
    <g id="xtick_1">
     <g id="line2d_1">
      <defs>
       <path id="m0375f05611" d="M 0 0 
L 0 3.5 
" style="stroke: #000000; stroke-width: 0.8"/>
      </defs>
      <g>
       <use xlink:href="#m0375f05611" x="115.363636" y="320.4" style="stroke: #000000; stroke-width: 0.8"/>
      </g>
     </g>
     <g id="text_1">
      <!-- 0 -->
      <g transform="translate(112.182386 334.998438) scale(0.1 -0.1)">
       <defs>
        <path id="DejaVuSans-30" d="M 2034 4250 
Q 1547 4250 1301 3770 
Q 1056 3291 1056 2328 
Q 1056 1369 1301 889 
Q 1547 409 2034 409 
Q 2525 409 2770 889 
Q 3016 1369 3016 2328 
Q 3016 3291 2770 3770 
Q 2525 4250 2034 4250 
z
M 2034 4750 
Q 2819 4750 3233 4129 
Q 3647 3509 3647 2328 
Q 3647 1150 3233 529 
Q 2819 -91 2034 -91 
Q 1250 -91 836 529 
Q 422 1150 422 2328 
Q 422 3509 836 4129 
Q 1250 4750 2034 4750 
z
" transform="scale(0.015625)"/>
       </defs>
       <use xlink:href="#DejaVuSans-30"/>
      </g>
     </g>
    </g>
    <g id="xtick_2">
     <g id="line2d_2">
      <g>
       <use xlink:href="#m0375f05611" x="217.157495" y="320.4" style="stroke: #000000; stroke-width: 0.8"/>
      </g>
     </g>
     <g id="text_2">
      <!-- 60 -->
      <g transform="translate(210.794995 334.998438) scale(0.1 -0.1)">
       <defs>
        <path id="DejaVuSans-36" d="M 2113 2584 
Q 1688 2584 1439 2293 
Q 1191 2003 1191 1497 
Q 1191 994 1439 701 
Q 1688 409 2113 409 
Q 2538 409 2786 701 
Q 3034 994 3034 1497 
Q 3034 2003 2786 2293 
Q 2538 2584 2113 2584 
z
M 3366 4563 
L 3366 3988 
Q 3128 4100 2886 4159 
Q 2644 4219 2406 4219 
Q 1781 4219 1451 3797 
Q 1122 3375 1075 2522 
Q 1259 2794 1537 2939 
Q 1816 3084 2150 3084 
Q 2853 3084 3261 2657 
Q 3669 2231 3669 1497 
Q 3669 778 3244 343 
Q 2819 -91 2113 -91 
Q 1303 -91 875 529 
Q 447 1150 447 2328 
Q 447 3434 972 4092 
Q 1497 4750 2381 4750 
Q 2619 4750 2861 4703 
Q 3103 4656 3366 4563 
z
" transform="scale(0.015625)"/>
       </defs>
       <use xlink:href="#DejaVuSans-36"/>
       <use xlink:href="#DejaVuSans-30" transform="translate(63.623047 0)"/>
      </g>
     </g>
    </g>
    <g id="xtick_3">
     <g id="line2d_3">
      <g>
       <use xlink:href="#m0375f05611" x="318.951353" y="320.4" style="stroke: #000000; stroke-width: 0.8"/>
      </g>
     </g>
     <g id="text_3">
      <!-- 120 -->
      <g transform="translate(309.407603 334.998438) scale(0.1 -0.1)">
       <defs>
        <path id="DejaVuSans-31" d="M 794 531 
L 1825 531 
L 1825 4091 
L 703 3866 
L 703 4441 
L 1819 4666 
L 2450 4666 
L 2450 531 
L 3481 531 
L 3481 0 
L 794 0 
L 794 531 
z
" transform="scale(0.015625)"/>
        <path id="DejaVuSans-32" d="M 1228 531 
L 3431 531 
L 3431 0 
L 469 0 
L 469 531 
Q 828 903 1448 1529 
Q 2069 2156 2228 2338 
Q 2531 2678 2651 2914 
Q 2772 3150 2772 3378 
Q 2772 3750 2511 3984 
Q 2250 4219 1831 4219 
Q 1534 4219 1204 4116 
Q 875 4013 500 3803 
L 500 4441 
Q 881 4594 1212 4672 
Q 1544 4750 1819 4750 
Q 2544 4750 2975 4387 
Q 3406 4025 3406 3419 
Q 3406 3131 3298 2873 
Q 3191 2616 2906 2266 
Q 2828 2175 2409 1742 
Q 1991 1309 1228 531 
z
" transform="scale(0.015625)"/>
       </defs>
       <use xlink:href="#DejaVuSans-31"/>
       <use xlink:href="#DejaVuSans-32" transform="translate(63.623047 0)"/>
       <use xlink:href="#DejaVuSans-30" transform="translate(127.246094 0)"/>
      </g>
     </g>
    </g>
    <g id="xtick_4">
     <g id="line2d_4">
      <g>
       <use xlink:href="#m0375f05611" x="420.745211" y="320.4" style="stroke: #000000; stroke-width: 0.8"/>
      </g>
     </g>
     <g id="text_4">
      <!-- 180 -->
      <g transform="translate(411.201461 334.998438) scale(0.1 -0.1)">
       <defs>
        <path id="DejaVuSans-38" d="M 2034 2216 
Q 1584 2216 1326 1975 
Q 1069 1734 1069 1313 
Q 1069 891 1326 650 
Q 1584 409 2034 409 
Q 2484 409 2743 651 
Q 3003 894 3003 1313 
Q 3003 1734 2745 1975 
Q 2488 2216 2034 2216 
z
M 1403 2484 
Q 997 2584 770 2862 
Q 544 3141 544 3541 
Q 544 4100 942 4425 
Q 1341 4750 2034 4750 
Q 2731 4750 3128 4425 
Q 3525 4100 3525 3541 
Q 3525 3141 3298 2862 
Q 3072 2584 2669 2484 
Q 3125 2378 3379 2068 
Q 3634 1759 3634 1313 
Q 3634 634 3220 271 
Q 2806 -91 2034 -91 
Q 1263 -91 848 271 
Q 434 634 434 1313 
Q 434 1759 690 2068 
Q 947 2378 1403 2484 
z
M 1172 3481 
Q 1172 3119 1398 2916 
Q 1625 2713 2034 2713 
Q 2441 2713 2670 2916 
Q 2900 3119 2900 3481 
Q 2900 3844 2670 4047 
Q 2441 4250 2034 4250 
Q 1625 4250 1398 4047 
Q 1172 3844 1172 3481 
z
" transform="scale(0.015625)"/>
       </defs>
       <use xlink:href="#DejaVuSans-31"/>
       <use xlink:href="#DejaVuSans-38" transform="translate(63.623047 0)"/>
       <use xlink:href="#DejaVuSans-30" transform="translate(127.246094 0)"/>
      </g>
     </g>
    </g>
    <g id="xtick_5">
     <g id="line2d_5">
      <g>
       <use xlink:href="#m0375f05611" x="522.53907" y="320.4" style="stroke: #000000; stroke-width: 0.8"/>
      </g>
     </g>
     <g id="text_5">
      <!-- 240 -->
      <g transform="translate(512.99532 334.998438) scale(0.1 -0.1)">
       <defs>
        <path id="DejaVuSans-34" d="M 2419 4116 
L 825 1625 
L 2419 1625 
L 2419 4116 
z
M 2253 4666 
L 3047 4666 
L 3047 1625 
L 3713 1625 
L 3713 1100 
L 3047 1100 
L 3047 0 
L 2419 0 
L 2419 1100 
L 313 1100 
L 313 1709 
L 2253 4666 
z
" transform="scale(0.015625)"/>
       </defs>
       <use xlink:href="#DejaVuSans-32"/>
       <use xlink:href="#DejaVuSans-34" transform="translate(63.623047 0)"/>
       <use xlink:href="#DejaVuSans-30" transform="translate(127.246094 0)"/>
      </g>
     </g>
    </g>
    <g id="text_6">
     <!-- Epoch -->
     <g transform="translate(353.689062 348.676562) scale(0.1 -0.1)">
      <defs>
       <path id="DejaVuSans-45" d="M 628 4666 
L 3578 4666 
L 3578 4134 
L 1259 4134 
L 1259 2753 
L 3481 2753 
L 3481 2222 
L 1259 2222 
L 1259 531 
L 3634 531 
L 3634 0 
L 628 0 
L 628 4666 
z
" transform="scale(0.015625)"/>
       <path id="DejaVuSans-70" d="M 1159 525 
L 1159 -1331 
L 581 -1331 
L 581 3500 
L 1159 3500 
L 1159 2969 
Q 1341 3281 1617 3432 
Q 1894 3584 2278 3584 
Q 2916 3584 3314 3078 
Q 3713 2572 3713 1747 
Q 3713 922 3314 415 
Q 2916 -91 2278 -91 
Q 1894 -91 1617 61 
Q 1341 213 1159 525 
z
M 3116 1747 
Q 3116 2381 2855 2742 
Q 2594 3103 2138 3103 
Q 1681 3103 1420 2742 
Q 1159 2381 1159 1747 
Q 1159 1113 1420 752 
Q 1681 391 2138 391 
Q 2594 391 2855 752 
Q 3116 1113 3116 1747 
z
" transform="scale(0.015625)"/>
       <path id="DejaVuSans-6f" d="M 1959 3097 
Q 1497 3097 1228 2736 
Q 959 2375 959 1747 
Q 959 1119 1226 758 
Q 1494 397 1959 397 
Q 2419 397 2687 759 
Q 2956 1122 2956 1747 
Q 2956 2369 2687 2733 
Q 2419 3097 1959 3097 
z
M 1959 3584 
Q 2709 3584 3137 3096 
Q 3566 2609 3566 1747 
Q 3566 888 3137 398 
Q 2709 -91 1959 -91 
Q 1206 -91 779 398 
Q 353 888 353 1747 
Q 353 2609 779 3096 
Q 1206 3584 1959 3584 
z
" transform="scale(0.015625)"/>
       <path id="DejaVuSans-63" d="M 3122 3366 
L 3122 2828 
Q 2878 2963 2633 3030 
Q 2388 3097 2138 3097 
Q 1578 3097 1268 2742 
Q 959 2388 959 1747 
Q 959 1106 1268 751 
Q 1578 397 2138 397 
Q 2388 397 2633 464 
Q 2878 531 3122 666 
L 3122 134 
Q 2881 22 2623 -34 
Q 2366 -91 2075 -91 
Q 1284 -91 818 406 
Q 353 903 353 1747 
Q 353 2603 823 3093 
Q 1294 3584 2113 3584 
Q 2378 3584 2631 3529 
Q 2884 3475 3122 3366 
z
" transform="scale(0.015625)"/>
       <path id="DejaVuSans-68" d="M 3513 2113 
L 3513 0 
L 2938 0 
L 2938 2094 
Q 2938 2591 2744 2837 
Q 2550 3084 2163 3084 
Q 1697 3084 1428 2787 
Q 1159 2491 1159 1978 
L 1159 0 
L 581 0 
L 581 4863 
L 1159 4863 
L 1159 2956 
Q 1366 3272 1645 3428 
Q 1925 3584 2291 3584 
Q 2894 3584 3203 3211 
Q 3513 2838 3513 2113 
z
" transform="scale(0.015625)"/>
      </defs>
      <use xlink:href="#DejaVuSans-45"/>
      <use xlink:href="#DejaVuSans-70" transform="translate(63.183594 0)"/>
      <use xlink:href="#DejaVuSans-6f" transform="translate(126.660156 0)"/>
      <use xlink:href="#DejaVuSans-63" transform="translate(187.841797 0)"/>
      <use xlink:href="#DejaVuSans-68" transform="translate(242.822266 0)"/>
     </g>
    </g>
   </g>
   <g id="matplotlib.axis_2">
    <g id="ytick_1">
     <g id="line2d_6">
      <defs>
       <path id="m48a2cfc081" d="M 0 0 
L -3.5 0 
" style="stroke: #000000; stroke-width: 0.8"/>
      </defs>
      <g>
       <use xlink:href="#m48a2cfc081" x="90" y="319.318525" style="stroke: #000000; stroke-width: 0.8"/>
      </g>
     </g>
     <g id="text_7">
      <!-- 0.6 -->
      <g transform="translate(67.096875 323.117744) scale(0.1 -0.1)">
       <defs>
        <path id="DejaVuSans-2e" d="M 684 794 
L 1344 794 
L 1344 0 
L 684 0 
L 684 794 
z
" transform="scale(0.015625)"/>
       </defs>
       <use xlink:href="#DejaVuSans-30"/>
       <use xlink:href="#DejaVuSans-2e" transform="translate(63.623047 0)"/>
       <use xlink:href="#DejaVuSans-36" transform="translate(95.410156 0)"/>
      </g>
     </g>
    </g>
    <g id="ytick_2">
     <g id="line2d_7">
      <g>
       <use xlink:href="#m48a2cfc081" x="90" y="281.214638" style="stroke: #000000; stroke-width: 0.8"/>
      </g>
     </g>
     <g id="text_8">
      <!-- 0.8 -->
      <g transform="translate(67.096875 285.013857) scale(0.1 -0.1)">
       <use xlink:href="#DejaVuSans-30"/>
       <use xlink:href="#DejaVuSans-2e" transform="translate(63.623047 0)"/>
       <use xlink:href="#DejaVuSans-38" transform="translate(95.410156 0)"/>
      </g>
     </g>
    </g>
    <g id="ytick_3">
     <g id="line2d_8">
      <g>
       <use xlink:href="#m48a2cfc081" x="90" y="243.110751" style="stroke: #000000; stroke-width: 0.8"/>
      </g>
     </g>
     <g id="text_9">
      <!-- 1.0 -->
      <g transform="translate(67.096875 246.90997) scale(0.1 -0.1)">
       <use xlink:href="#DejaVuSans-31"/>
       <use xlink:href="#DejaVuSans-2e" transform="translate(63.623047 0)"/>
       <use xlink:href="#DejaVuSans-30" transform="translate(95.410156 0)"/>
      </g>
     </g>
    </g>
    <g id="ytick_4">
     <g id="line2d_9">
      <g>
       <use xlink:href="#m48a2cfc081" x="90" y="205.006864" style="stroke: #000000; stroke-width: 0.8"/>
      </g>
     </g>
     <g id="text_10">
      <!-- 1.2 -->
      <g transform="translate(67.096875 208.806083) scale(0.1 -0.1)">
       <use xlink:href="#DejaVuSans-31"/>
       <use xlink:href="#DejaVuSans-2e" transform="translate(63.623047 0)"/>
       <use xlink:href="#DejaVuSans-32" transform="translate(95.410156 0)"/>
      </g>
     </g>
    </g>
    <g id="ytick_5">
     <g id="line2d_10">
      <g>
       <use xlink:href="#m48a2cfc081" x="90" y="166.902977" style="stroke: #000000; stroke-width: 0.8"/>
      </g>
     </g>
     <g id="text_11">
      <!-- 1.4 -->
      <g transform="translate(67.096875 170.702196) scale(0.1 -0.1)">
       <use xlink:href="#DejaVuSans-31"/>
       <use xlink:href="#DejaVuSans-2e" transform="translate(63.623047 0)"/>
       <use xlink:href="#DejaVuSans-34" transform="translate(95.410156 0)"/>
      </g>
     </g>
    </g>
    <g id="ytick_6">
     <g id="line2d_11">
      <g>
       <use xlink:href="#m48a2cfc081" x="90" y="128.79909" style="stroke: #000000; stroke-width: 0.8"/>
      </g>
     </g>
     <g id="text_12">
      <!-- 1.6 -->
      <g transform="translate(67.096875 132.598309) scale(0.1 -0.1)">
       <use xlink:href="#DejaVuSans-31"/>
       <use xlink:href="#DejaVuSans-2e" transform="translate(63.623047 0)"/>
       <use xlink:href="#DejaVuSans-36" transform="translate(95.410156 0)"/>
      </g>
     </g>
    </g>
    <g id="ytick_7">
     <g id="line2d_12">
      <g>
       <use xlink:href="#m48a2cfc081" x="90" y="90.695203" style="stroke: #000000; stroke-width: 0.8"/>
      </g>
     </g>
     <g id="text_13">
      <!-- 1.8 -->
      <g transform="translate(67.096875 94.494422) scale(0.1 -0.1)">
       <use xlink:href="#DejaVuSans-31"/>
       <use xlink:href="#DejaVuSans-2e" transform="translate(63.623047 0)"/>
       <use xlink:href="#DejaVuSans-38" transform="translate(95.410156 0)"/>
      </g>
     </g>
    </g>
    <g id="ytick_8">
     <g id="line2d_13">
      <g>
       <use xlink:href="#m48a2cfc081" x="90" y="52.591316" style="stroke: #000000; stroke-width: 0.8"/>
      </g>
     </g>
     <g id="text_14">
      <!-- 2.0 -->
      <g transform="translate(67.096875 56.390535) scale(0.1 -0.1)">
       <use xlink:href="#DejaVuSans-32"/>
       <use xlink:href="#DejaVuSans-2e" transform="translate(63.623047 0)"/>
       <use xlink:href="#DejaVuSans-30" transform="translate(95.410156 0)"/>
      </g>
     </g>
    </g>
    <g id="text_15">
     <!-- Estimation Loss -->
     <g transform="translate(61.017187 220.98125) rotate(-90) scale(0.1 -0.1)">
      <defs>
       <path id="DejaVuSans-73" d="M 2834 3397 
L 2834 2853 
Q 2591 2978 2328 3040 
Q 2066 3103 1784 3103 
Q 1356 3103 1142 2972 
Q 928 2841 928 2578 
Q 928 2378 1081 2264 
Q 1234 2150 1697 2047 
L 1894 2003 
Q 2506 1872 2764 1633 
Q 3022 1394 3022 966 
Q 3022 478 2636 193 
Q 2250 -91 1575 -91 
Q 1294 -91 989 -36 
Q 684 19 347 128 
L 347 722 
Q 666 556 975 473 
Q 1284 391 1588 391 
Q 1994 391 2212 530 
Q 2431 669 2431 922 
Q 2431 1156 2273 1281 
Q 2116 1406 1581 1522 
L 1381 1569 
Q 847 1681 609 1914 
Q 372 2147 372 2553 
Q 372 3047 722 3315 
Q 1072 3584 1716 3584 
Q 2034 3584 2315 3537 
Q 2597 3491 2834 3397 
z
" transform="scale(0.015625)"/>
       <path id="DejaVuSans-74" d="M 1172 4494 
L 1172 3500 
L 2356 3500 
L 2356 3053 
L 1172 3053 
L 1172 1153 
Q 1172 725 1289 603 
Q 1406 481 1766 481 
L 2356 481 
L 2356 0 
L 1766 0 
Q 1100 0 847 248 
Q 594 497 594 1153 
L 594 3053 
L 172 3053 
L 172 3500 
L 594 3500 
L 594 4494 
L 1172 4494 
z
" transform="scale(0.015625)"/>
       <path id="DejaVuSans-69" d="M 603 3500 
L 1178 3500 
L 1178 0 
L 603 0 
L 603 3500 
z
M 603 4863 
L 1178 4863 
L 1178 4134 
L 603 4134 
L 603 4863 
z
" transform="scale(0.015625)"/>
       <path id="DejaVuSans-6d" d="M 3328 2828 
Q 3544 3216 3844 3400 
Q 4144 3584 4550 3584 
Q 5097 3584 5394 3201 
Q 5691 2819 5691 2113 
L 5691 0 
L 5113 0 
L 5113 2094 
Q 5113 2597 4934 2840 
Q 4756 3084 4391 3084 
Q 3944 3084 3684 2787 
Q 3425 2491 3425 1978 
L 3425 0 
L 2847 0 
L 2847 2094 
Q 2847 2600 2669 2842 
Q 2491 3084 2119 3084 
Q 1678 3084 1418 2786 
Q 1159 2488 1159 1978 
L 1159 0 
L 581 0 
L 581 3500 
L 1159 3500 
L 1159 2956 
Q 1356 3278 1631 3431 
Q 1906 3584 2284 3584 
Q 2666 3584 2933 3390 
Q 3200 3197 3328 2828 
z
" transform="scale(0.015625)"/>
       <path id="DejaVuSans-61" d="M 2194 1759 
Q 1497 1759 1228 1600 
Q 959 1441 959 1056 
Q 959 750 1161 570 
Q 1363 391 1709 391 
Q 2188 391 2477 730 
Q 2766 1069 2766 1631 
L 2766 1759 
L 2194 1759 
z
M 3341 1997 
L 3341 0 
L 2766 0 
L 2766 531 
Q 2569 213 2275 61 
Q 1981 -91 1556 -91 
Q 1019 -91 701 211 
Q 384 513 384 1019 
Q 384 1609 779 1909 
Q 1175 2209 1959 2209 
L 2766 2209 
L 2766 2266 
Q 2766 2663 2505 2880 
Q 2244 3097 1772 3097 
Q 1472 3097 1187 3025 
Q 903 2953 641 2809 
L 641 3341 
Q 956 3463 1253 3523 
Q 1550 3584 1831 3584 
Q 2591 3584 2966 3190 
Q 3341 2797 3341 1997 
z
" transform="scale(0.015625)"/>
       <path id="DejaVuSans-6e" d="M 3513 2113 
L 3513 0 
L 2938 0 
L 2938 2094 
Q 2938 2591 2744 2837 
Q 2550 3084 2163 3084 
Q 1697 3084 1428 2787 
Q 1159 2491 1159 1978 
L 1159 0 
L 581 0 
L 581 3500 
L 1159 3500 
L 1159 2956 
Q 1366 3272 1645 3428 
Q 1925 3584 2291 3584 
Q 2894 3584 3203 3211 
Q 3513 2838 3513 2113 
z
" transform="scale(0.015625)"/>
       <path id="DejaVuSans-20" transform="scale(0.015625)"/>
       <path id="DejaVuSans-4c" d="M 628 4666 
L 1259 4666 
L 1259 531 
L 3531 531 
L 3531 0 
L 628 0 
L 628 4666 
z
" transform="scale(0.015625)"/>
      </defs>
      <use xlink:href="#DejaVuSans-45"/>
      <use xlink:href="#DejaVuSans-73" transform="translate(63.183594 0)"/>
      <use xlink:href="#DejaVuSans-74" transform="translate(115.283203 0)"/>
      <use xlink:href="#DejaVuSans-69" transform="translate(154.492188 0)"/>
      <use xlink:href="#DejaVuSans-6d" transform="translate(182.275391 0)"/>
      <use xlink:href="#DejaVuSans-61" transform="translate(279.6875 0)"/>
      <use xlink:href="#DejaVuSans-74" transform="translate(340.966797 0)"/>
      <use xlink:href="#DejaVuSans-69" transform="translate(380.175781 0)"/>
      <use xlink:href="#DejaVuSans-6f" transform="translate(407.958984 0)"/>
      <use xlink:href="#DejaVuSans-6e" transform="translate(469.140625 0)"/>
      <use xlink:href="#DejaVuSans-20" transform="translate(532.519531 0)"/>
      <use xlink:href="#DejaVuSans-4c" transform="translate(564.306641 0)"/>
      <use xlink:href="#DejaVuSans-6f" transform="translate(618.269531 0)"/>
      <use xlink:href="#DejaVuSans-73" transform="translate(679.451172 0)"/>
      <use xlink:href="#DejaVuSans-73" transform="translate(731.550781 0)"/>
     </g>
    </g>
   </g>
   <g id="line2d_14">
    <path d="M 115.363636 55.8 
L 117.060201 190.384212 
L 118.756765 206.613049 
L 120.453329 211.520413 
L 122.149894 213.879562 
L 123.846458 215.444979 
L 125.543022 216.660424 
L 127.239587 217.65258 
L 128.936151 218.499658 
L 132.329279 219.823284 
L 135.722408 220.885887 
L 140.812101 222.03024 
L 145.901794 222.953206 
L 149.294922 223.492743 
L 162.867437 225.097103 
L 176.439951 226.253515 
L 184.922773 226.788663 
L 198.495287 227.378518 
L 230.730009 228.214711 
L 252.785345 228.539275 
L 274.840681 228.785904 
L 395.296747 229.525313 
L 407.172697 229.554127 
L 425.834904 229.632473 
L 437.710854 229.652834 
L 480.124962 229.766196 
L 498.787169 229.819469 
L 517.449377 229.854923 
L 542.897841 229.898405 
L 570.04287 229.941551 
L 581.91882 229.948929 
L 607.367285 229.999035 
L 622.636364 229.993023 
L 622.636364 229.993023 
" clip-path="url(#p4892eba724)" style="fill: none; stroke: #1f77b4; stroke-width: 1.5; stroke-linecap: square"/>
   </g>
   <g id="line2d_15">
    <path d="M 115.363636 260.504498 
L 117.060201 297.720426 
L 118.756765 300.566035 
L 120.453329 302.79024 
L 122.149894 304.666904 
L 123.846458 306.105 
L 125.543022 307.16252 
L 127.239587 307.640396 
L 128.936151 307.8 
L 130.632715 307.615906 
L 132.329279 307.227733 
L 134.025844 306.707233 
L 139.115537 304.254788 
L 142.508665 302.252965 
L 144.20523 301.12983 
L 145.901794 300.361671 
L 147.598358 298.984831 
L 149.294922 298.032117 
L 154.384615 294.42748 
L 156.08118 293.605552 
L 157.777744 292.395241 
L 159.474308 290.799578 
L 161.170873 289.47879 
L 162.867437 288.829308 
L 167.95713 285.043935 
L 169.653694 283.900788 
L 171.350258 283.058907 
L 173.046823 281.984316 
L 174.743387 281.30112 
L 176.439951 280.017686 
L 178.136516 279.362835 
L 179.83308 278.567094 
L 181.529644 277.590805 
L 183.226209 277.236589 
L 184.922773 276.064912 
L 186.619337 275.250769 
L 188.315901 274.817615 
L 190.012466 274.799171 
L 191.70903 275.122135 
L 193.405594 274.140414 
L 195.102159 273.584855 
L 196.798723 273.199988 
L 198.495287 272.988463 
L 200.191852 272.410191 
L 201.888416 271.704396 
L 203.58498 271.294011 
L 205.281545 270.328159 
L 208.674673 269.308796 
L 210.371237 269.239982 
L 215.46093 268.167903 
L 217.157495 268.004961 
L 218.854059 267.67549 
L 220.550623 267.979619 
L 222.247188 267.404872 
L 223.943752 267.390234 
L 225.640316 267.54065 
L 227.336881 267.030622 
L 230.730009 266.893486 
L 232.426573 266.700749 
L 234.123138 266.869287 
L 235.819702 265.573434 
L 237.516266 265.995224 
L 239.212831 265.820722 
L 240.909395 265.495616 
L 242.605959 265.394039 
L 244.302524 265.134401 
L 245.999088 265.136045 
L 249.392216 264.521851 
L 251.088781 264.819085 
L 252.785345 264.447104 
L 256.178474 264.135371 
L 257.875038 264.382276 
L 259.571602 262.994497 
L 261.268167 263.257654 
L 262.964731 262.715977 
L 266.35786 262.295173 
L 268.054424 262.586743 
L 269.750988 263.248914 
L 271.447552 261.846593 
L 273.144117 261.33684 
L 274.840681 261.740307 
L 276.537245 262.739718 
L 278.23381 261.751238 
L 279.930374 261.66258 
L 281.626938 261.728042 
L 285.020067 261.518004 
L 286.716631 260.638105 
L 288.413196 261.169113 
L 290.10976 260.511664 
L 291.806324 260.617636 
L 295.199453 259.582672 
L 296.896017 260.393767 
L 298.592581 259.502169 
L 300.289146 260.687025 
L 301.98571 259.354354 
L 303.682274 258.712988 
L 305.378839 259.098302 
L 307.075403 259.030131 
L 308.771967 259.129294 
L 310.468531 258.58792 
L 312.165096 258.386598 
L 313.86166 257.680152 
L 315.558224 257.927627 
L 317.254789 257.140578 
L 318.951353 257.941446 
L 320.647917 258.542996 
L 322.344482 257.983451 
L 324.041046 257.997376 
L 325.73761 256.722607 
L 327.434175 256.814513 
L 329.130739 256.421171 
L 330.827303 256.700242 
L 332.523867 256.010657 
L 334.220432 256.358491 
L 335.916996 256.139285 
L 337.61356 255.223147 
L 339.310125 255.367978 
L 341.006689 255.654184 
L 342.703253 256.187158 
L 344.399818 255.455101 
L 346.096382 255.072754 
L 347.792946 255.245969 
L 349.48951 255.033319 
L 351.186075 255.163649 
L 352.882639 256.294967 
L 354.579203 255.805519 
L 356.275768 254.956993 
L 357.972332 254.777548 
L 359.668896 254.318943 
L 361.365461 255.012275 
L 363.062025 254.634405 
L 364.758589 254.8293 
L 366.455154 253.972606 
L 369.848282 254.403977 
L 371.544846 254.865227 
L 373.241411 254.84674 
L 376.634539 253.406233 
L 378.331104 254.014628 
L 380.027668 253.771935 
L 381.724232 253.920644 
L 383.420797 253.335371 
L 385.117361 253.016627 
L 386.813925 253.407268 
L 388.51049 253.385926 
L 390.207054 252.745036 
L 393.600182 252.600758 
L 396.993311 251.975369 
L 398.689875 252.209351 
L 400.38644 253.474956 
L 402.083004 252.760928 
L 403.779568 252.672428 
L 405.476133 253.161453 
L 407.172697 252.281134 
L 408.869261 253.393755 
L 410.565825 252.571607 
L 412.26239 252.667005 
L 413.958954 252.312955 
L 415.655518 253.232657 
L 417.352083 252.86914 
L 419.048647 252.986659 
L 420.745211 252.607081 
L 422.441776 251.600048 
L 424.13834 252.538801 
L 425.834904 252.776338 
L 427.531469 253.323218 
L 429.228033 252.000272 
L 430.924597 251.96159 
L 434.317726 252.447238 
L 436.01429 251.706096 
L 437.710854 252.152259 
L 439.407419 252.09835 
L 441.103983 252.360061 
L 442.800547 252.147092 
L 444.497112 251.756185 
L 446.193676 252.050074 
L 447.89024 251.411506 
L 449.586804 251.770144 
L 451.283369 250.809881 
L 452.979933 252.849597 
L 454.676497 251.605984 
L 456.373062 251.401119 
L 458.069626 252.172148 
L 459.76619 251.295521 
L 461.462755 251.011634 
L 463.159319 251.747284 
L 464.855883 250.769633 
L 466.552448 250.784873 
L 468.249012 250.950376 
L 469.945576 251.662461 
L 471.64214 251.639546 
L 473.338705 251.072849 
L 475.035269 250.342953 
L 476.731833 250.178325 
L 478.428398 250.431992 
L 480.124962 250.555215 
L 481.821526 250.422971 
L 483.518091 251.145385 
L 485.214655 251.085089 
L 486.911219 250.409178 
L 488.607784 250.98616 
L 490.304348 250.02738 
L 492.000912 250.687361 
L 493.697476 251.146828 
L 495.394041 250.871172 
L 497.090605 251.043476 
L 498.787169 250.206504 
L 500.483734 250.671606 
L 502.180298 250.585301 
L 503.876862 250.361131 
L 505.573427 250.524371 
L 507.269991 251.217617 
L 508.966555 250.135137 
L 510.663119 250.436831 
L 512.359684 250.990627 
L 514.056248 249.595017 
L 515.752812 249.550701 
L 517.449377 250.27777 
L 520.842505 248.541723 
L 522.53907 248.94102 
L 524.235634 249.159959 
L 525.932198 250.302553 
L 527.628763 250.24806 
L 529.325327 249.056985 
L 531.021891 249.308934 
L 532.718455 249.976819 
L 534.41502 249.843211 
L 536.111584 249.330928 
L 537.808148 249.562188 
L 539.504713 249.532002 
L 541.201277 249.264967 
L 542.897841 249.538981 
L 544.594406 250.298618 
L 546.29097 250.057199 
L 547.987534 249.648521 
L 549.684099 250.268112 
L 551.380663 249.368152 
L 553.077227 248.967572 
L 554.773791 249.226474 
L 556.470356 249.941001 
L 558.16692 249.156241 
L 559.863484 249.667221 
L 561.560049 249.058229 
L 563.256613 248.74031 
L 564.953177 248.983254 
L 566.649742 248.587857 
L 568.346306 249.169709 
L 570.04287 250.402871 
L 571.739434 249.668094 
L 578.525692 249.423144 
L 580.222256 249.849976 
L 583.615385 250.255057 
L 585.311949 249.621727 
L 587.008513 249.485806 
L 588.705078 249.823141 
L 590.401642 250.411269 
L 592.098206 250.136803 
L 593.79477 251.20298 
L 595.491335 250.819726 
L 597.187899 250.075049 
L 598.884463 249.712341 
L 600.581028 250.299745 
L 602.277592 250.680689 
L 603.974156 251.393461 
L 607.367285 250.257145 
L 609.063849 250.734446 
L 610.760413 249.780107 
L 612.456978 249.487087 
L 615.850106 250.953663 
L 617.546671 249.337707 
L 620.939799 249.409685 
L 622.636364 249.573477 
L 622.636364 249.573477 
" clip-path="url(#p4892eba724)" style="fill: none; stroke: #ff7f0e; stroke-width: 1.5; stroke-linecap: square"/>
   </g>
   <g id="line2d_16">
    <path d="M 115.363636 181.311297 
L 117.060201 208.137228 
L 118.756765 214.797804 
L 120.453329 217.502641 
L 122.149894 219.042483 
L 123.846458 220.260869 
L 127.239587 222.085632 
L 128.936151 222.720095 
L 132.329279 223.67893 
L 135.722408 224.491082 
L 140.812101 225.357158 
L 144.20523 225.762968 
L 145.901794 226.086038 
L 149.294922 226.305774 
L 150.991487 226.580191 
L 162.867437 227.641618 
L 166.260566 228.094289 
L 171.350258 228.481624 
L 173.046823 228.427078 
L 174.743387 228.766843 
L 178.136516 228.887887 
L 179.83308 228.954935 
L 181.529644 229.203662 
L 183.226209 229.144395 
L 188.315901 229.522755 
L 190.012466 229.533632 
L 191.70903 229.670666 
L 193.405594 229.563495 
L 196.798723 229.835706 
L 218.854059 230.383356 
L 220.550623 230.316442 
L 223.943752 230.54222 
L 229.033445 230.466633 
L 235.819702 230.704099 
L 312.165096 231.265028 
L 313.86166 231.162044 
L 318.951353 231.264171 
L 320.647917 231.181591 
L 324.041046 231.379894 
L 325.73761 231.264648 
L 329.130739 231.328798 
L 335.916996 231.405159 
L 337.61356 231.33928 
L 339.310125 231.086963 
L 341.006689 231.315108 
L 342.703253 231.362159 
L 344.399818 231.275412 
L 347.792946 231.402678 
L 352.882639 231.454967 
L 354.579203 231.283784 
L 356.275768 231.456146 
L 359.668896 231.523399 
L 366.455154 231.323367 
L 368.151718 231.304647 
L 369.848282 231.576481 
L 371.544846 231.422574 
L 376.634539 231.585724 
L 380.027668 231.464467 
L 386.813925 231.560358 
L 390.207054 231.563021 
L 391.903618 231.676787 
L 395.296747 231.548025 
L 396.993311 231.634365 
L 398.689875 231.571248 
L 403.779568 231.67035 
L 405.476133 231.538466 
L 408.869261 231.680592 
L 410.565825 231.509951 
L 419.048647 231.738622 
L 420.745211 231.516456 
L 422.441776 231.601179 
L 424.13834 231.551265 
L 427.531469 231.680344 
L 432.621161 231.71728 
L 434.317726 231.482582 
L 436.01429 231.68912 
L 442.800547 231.650472 
L 444.497112 231.771843 
L 446.193676 231.62026 
L 447.89024 231.586719 
L 449.586804 231.746003 
L 451.283369 231.748978 
L 452.979933 231.585698 
L 456.373062 231.777097 
L 458.069626 231.636089 
L 459.76619 231.790852 
L 461.462755 231.676749 
L 463.159319 231.799053 
L 466.552448 231.701071 
L 469.945576 231.754786 
L 480.124962 231.693418 
L 483.518091 231.857372 
L 488.607784 231.773256 
L 492.000912 231.78225 
L 493.697476 231.695341 
L 495.394041 231.86891 
L 497.090605 231.857339 
L 498.787169 231.710424 
L 500.483734 231.881177 
L 502.180298 231.749264 
L 503.876862 231.873905 
L 507.269991 231.808412 
L 508.966555 231.90914 
L 514.056248 231.767546 
L 515.752812 231.848319 
L 517.449377 231.758122 
L 519.145941 231.908134 
L 522.53907 231.873906 
L 527.628763 231.894579 
L 529.325327 231.908716 
L 531.021891 231.652147 
L 534.41502 231.874784 
L 537.808148 231.950373 
L 539.504713 231.778663 
L 541.201277 231.759689 
L 544.594406 231.942632 
L 547.987534 231.94561 
L 549.684099 231.866783 
L 551.380663 232.004965 
L 554.773791 231.875464 
L 561.560049 231.993998 
L 563.256613 231.83927 
L 568.346306 231.985866 
L 570.04287 231.796618 
L 571.739434 231.972777 
L 575.132563 231.935666 
L 578.525692 231.974818 
L 581.91882 231.983476 
L 583.615385 231.957562 
L 585.311949 231.766264 
L 587.008513 231.973102 
L 603.974156 231.99493 
L 607.367285 232.0136 
L 612.456978 231.914302 
L 614.153542 232.024035 
L 615.850106 231.897159 
L 617.546671 232.032265 
L 619.243235 231.979484 
L 622.636364 232.06515 
L 622.636364 232.06515 
" clip-path="url(#p4892eba724)" style="fill: none; stroke: #2ca02c; stroke-width: 1.5; stroke-linecap: square"/>
   </g>
   <g id="line2d_17">
    <path d="M 115.363636 293.959216 
L 117.060201 297.708269 
L 118.756765 300.28391 
L 120.453329 302.551555 
L 122.149894 304.169476 
L 125.543022 306.456646 
L 128.936151 306.860345 
L 130.632715 306.60461 
L 134.025844 305.70293 
L 135.722408 304.661705 
L 139.115537 303.439492 
L 142.508665 300.772023 
L 144.20523 300.081148 
L 147.598358 298.122591 
L 149.294922 296.209407 
L 150.991487 295.386354 
L 152.688051 293.936728 
L 154.384615 292.662323 
L 156.08118 291.662294 
L 157.777744 289.607669 
L 159.474308 287.774941 
L 161.170873 286.756309 
L 162.867437 286.259192 
L 164.564001 285.187791 
L 166.260566 282.536724 
L 167.95713 282.312908 
L 169.653694 280.260699 
L 171.350258 280.332477 
L 173.046823 277.9903 
L 174.743387 277.010487 
L 176.439951 276.5711 
L 178.136516 274.732413 
L 179.83308 274.617527 
L 181.529644 274.272748 
L 183.226209 273.130848 
L 184.922773 272.294678 
L 186.619337 271.180842 
L 188.315901 270.813586 
L 190.012466 271.785109 
L 191.70903 268.910538 
L 193.405594 270.451472 
L 195.102159 268.056963 
L 196.798723 269.186983 
L 198.495287 268.355991 
L 200.191852 268.004136 
L 201.888416 267.331615 
L 203.58498 265.788856 
L 205.281545 265.673753 
L 208.674673 263.845363 
L 210.371237 264.541718 
L 212.067802 264.183926 
L 213.764366 263.570715 
L 217.157495 264.102587 
L 218.854059 262.553524 
L 220.550623 263.566701 
L 222.247188 263.716871 
L 223.943752 262.782034 
L 225.640316 262.209388 
L 227.336881 263.650592 
L 229.033445 262.340158 
L 230.730009 262.224609 
L 232.426573 261.540688 
L 234.123138 261.960101 
L 235.819702 261.561563 
L 237.516266 261.557592 
L 240.909395 262.874492 
L 244.302524 260.005596 
L 245.999088 260.236055 
L 247.695652 260.578902 
L 249.392216 258.64842 
L 251.088781 259.613804 
L 252.785345 260.229635 
L 254.481909 259.743062 
L 256.178474 259.078787 
L 257.875038 259.429071 
L 259.571602 257.631026 
L 261.268167 259.495795 
L 262.964731 258.154774 
L 264.661295 257.030558 
L 266.35786 258.380946 
L 268.054424 256.800837 
L 269.750988 258.706232 
L 271.447552 256.840011 
L 273.144117 255.628008 
L 274.840681 258.082166 
L 276.537245 257.630703 
L 278.23381 254.792126 
L 279.930374 256.594461 
L 281.626938 256.931399 
L 283.323503 255.94591 
L 285.020067 255.838768 
L 286.716631 254.579538 
L 288.413196 256.349471 
L 290.10976 255.36716 
L 291.806324 255.078361 
L 293.502888 255.241303 
L 295.199453 253.883761 
L 296.896017 253.922639 
L 298.592581 254.269852 
L 300.289146 254.973851 
L 301.98571 254.577376 
L 303.682274 252.851132 
L 305.378839 254.790374 
L 307.075403 253.069942 
L 308.771967 254.085591 
L 310.468531 251.510661 
L 312.165096 251.855929 
L 313.86166 253.279406 
L 315.558224 251.258454 
L 317.254789 251.18875 
L 318.951353 254.230441 
L 320.647917 252.216435 
L 322.344482 251.303758 
L 324.041046 252.926395 
L 325.73761 249.139128 
L 327.434175 250.948589 
L 329.130739 250.419608 
L 330.827303 251.415456 
L 332.523867 250.838177 
L 334.220432 250.930967 
L 335.916996 250.868646 
L 337.61356 249.462876 
L 339.310125 249.58902 
L 341.006689 248.783415 
L 342.703253 248.49362 
L 344.399818 248.591903 
L 346.096382 248.428387 
L 347.792946 248.493594 
L 349.48951 250.065713 
L 351.186075 249.272338 
L 352.882639 252.487688 
L 354.579203 247.292932 
L 357.972332 249.053868 
L 359.668896 247.566611 
L 361.365461 250.051747 
L 363.062025 249.549665 
L 364.758589 247.422119 
L 366.455154 246.335654 
L 368.151718 245.895903 
L 369.848282 248.417964 
L 371.544846 247.384851 
L 373.241411 246.714102 
L 374.937975 246.980975 
L 376.634539 246.569427 
L 378.331104 246.872984 
L 380.027668 246.208374 
L 381.724232 246.285489 
L 383.420797 246.69466 
L 385.117361 246.696047 
L 386.813925 248.28018 
L 388.51049 245.390964 
L 390.207054 247.22816 
L 393.600182 245.326563 
L 395.296747 244.050417 
L 396.993311 246.219261 
L 398.689875 245.160111 
L 400.38644 248.921697 
L 402.083004 245.774733 
L 403.779568 247.042913 
L 405.476133 244.411798 
L 407.172697 246.978072 
L 408.869261 245.674812 
L 412.26239 246.700495 
L 413.958954 246.474759 
L 415.655518 245.193205 
L 417.352083 248.540479 
L 419.048647 245.587174 
L 420.745211 245.416385 
L 422.441776 247.513367 
L 424.13834 244.480322 
L 425.834904 246.383229 
L 427.531469 246.128784 
L 429.228033 245.601326 
L 430.924597 245.2778 
L 434.317726 246.416875 
L 436.01429 246.424798 
L 437.710854 245.355789 
L 439.407419 247.325304 
L 441.103983 246.215551 
L 442.800547 245.563258 
L 444.497112 246.987679 
L 446.193676 246.076839 
L 447.89024 244.329476 
L 449.586804 245.151844 
L 451.283369 246.688356 
L 452.979933 244.930016 
L 454.676497 246.564774 
L 456.373062 245.926796 
L 458.069626 245.44021 
L 459.76619 245.760638 
L 461.462755 243.717218 
L 463.159319 246.162558 
L 464.855883 244.566312 
L 466.552448 246.077496 
L 468.249012 245.812265 
L 469.945576 246.396681 
L 471.64214 246.633729 
L 473.338705 245.081819 
L 475.035269 244.166236 
L 476.731833 246.487278 
L 478.428398 244.786671 
L 480.124962 243.797288 
L 481.821526 246.504639 
L 483.518091 246.10484 
L 485.214655 246.188337 
L 486.911219 245.902844 
L 488.607784 246.867869 
L 490.304348 245.312275 
L 492.000912 245.899886 
L 493.697476 244.992203 
L 495.394041 246.876069 
L 497.090605 245.0473 
L 498.787169 245.042783 
L 500.483734 247.077431 
L 502.180298 243.982924 
L 503.876862 244.767154 
L 505.573427 245.75937 
L 507.269991 245.512794 
L 508.966555 246.20675 
L 510.663119 246.016771 
L 512.359684 244.836416 
L 514.056248 244.755604 
L 515.752812 245.348726 
L 517.449377 249.623089 
L 519.145941 242.783583 
L 520.842505 243.92351 
L 522.53907 243.85234 
L 524.235634 244.426643 
L 525.932198 244.796107 
L 527.628763 244.850922 
L 529.325327 246.005534 
L 531.021891 243.195575 
L 532.718455 248.322278 
L 534.41502 245.439944 
L 536.111584 247.101311 
L 537.808148 244.277983 
L 539.504713 245.219797 
L 541.201277 243.170939 
L 542.897841 243.805147 
L 544.594406 246.413678 
L 546.29097 245.6028 
L 547.987534 247.145454 
L 549.684099 244.55218 
L 551.380663 245.55255 
L 553.077227 243.928748 
L 554.773791 243.377519 
L 556.470356 245.571463 
L 558.16692 243.410339 
L 559.863484 245.063569 
L 561.560049 244.017166 
L 563.256613 244.043786 
L 564.953177 244.977431 
L 566.649742 242.349973 
L 568.346306 244.921326 
L 570.04287 243.88937 
L 571.739434 246.506368 
L 573.435999 245.104521 
L 575.132563 243.223819 
L 576.829127 245.449765 
L 578.525692 243.850029 
L 580.222256 246.169895 
L 581.91882 245.66209 
L 583.615385 250.373563 
L 585.311949 242.012113 
L 588.705078 246.342178 
L 590.401642 248.091358 
L 592.098206 245.335145 
L 593.79477 244.5738 
L 595.491335 244.85234 
L 597.187899 244.201439 
L 598.884463 244.163174 
L 600.581028 246.081586 
L 602.277592 244.945748 
L 603.974156 247.405731 
L 605.670721 245.2149 
L 607.367285 246.634707 
L 609.063849 247.424518 
L 610.760413 243.814977 
L 612.456978 244.50133 
L 614.153542 245.55448 
L 615.850106 244.391313 
L 617.546671 245.772239 
L 619.243235 244.728348 
L 620.939799 246.291982 
L 622.636364 245.242338 
L 622.636364 245.242338 
" clip-path="url(#p4892eba724)" style="fill: none; stroke: #d62728; stroke-width: 1.5; stroke-linecap: square"/>
   </g>
   <g id="patch_3">
    <path d="M 90 320.4 
L 90 43.2 
" style="fill: none; stroke: #000000; stroke-width: 0.8; stroke-linejoin: miter; stroke-linecap: square"/>
   </g>
   <g id="patch_4">
    <path d="M 648 320.4 
L 648 43.2 
" style="fill: none; stroke: #000000; stroke-width: 0.8; stroke-linejoin: miter; stroke-linecap: square"/>
   </g>
   <g id="patch_5">
    <path d="M 90 320.4 
L 648 320.4 
" style="fill: none; stroke: #000000; stroke-width: 0.8; stroke-linejoin: miter; stroke-linecap: square"/>
   </g>
   <g id="patch_6">
    <path d="M 90 43.2 
L 648 43.2 
" style="fill: none; stroke: #000000; stroke-width: 0.8; stroke-linejoin: miter; stroke-linecap: square"/>
   </g>
   <g id="text_16">
    <!-- Training and Validating Estimation Loss -->
    <g transform="translate(251.535937 37.2) scale(0.12 -0.12)">
     <defs>
      <path id="DejaVuSans-54" d="M -19 4666 
L 3928 4666 
L 3928 4134 
L 2272 4134 
L 2272 0 
L 1638 0 
L 1638 4134 
L -19 4134 
L -19 4666 
z
" transform="scale(0.015625)"/>
      <path id="DejaVuSans-72" d="M 2631 2963 
Q 2534 3019 2420 3045 
Q 2306 3072 2169 3072 
Q 1681 3072 1420 2755 
Q 1159 2438 1159 1844 
L 1159 0 
L 581 0 
L 581 3500 
L 1159 3500 
L 1159 2956 
Q 1341 3275 1631 3429 
Q 1922 3584 2338 3584 
Q 2397 3584 2469 3576 
Q 2541 3569 2628 3553 
L 2631 2963 
z
" transform="scale(0.015625)"/>
      <path id="DejaVuSans-67" d="M 2906 1791 
Q 2906 2416 2648 2759 
Q 2391 3103 1925 3103 
Q 1463 3103 1205 2759 
Q 947 2416 947 1791 
Q 947 1169 1205 825 
Q 1463 481 1925 481 
Q 2391 481 2648 825 
Q 2906 1169 2906 1791 
z
M 3481 434 
Q 3481 -459 3084 -895 
Q 2688 -1331 1869 -1331 
Q 1566 -1331 1297 -1286 
Q 1028 -1241 775 -1147 
L 775 -588 
Q 1028 -725 1275 -790 
Q 1522 -856 1778 -856 
Q 2344 -856 2625 -561 
Q 2906 -266 2906 331 
L 2906 616 
Q 2728 306 2450 153 
Q 2172 0 1784 0 
Q 1141 0 747 490 
Q 353 981 353 1791 
Q 353 2603 747 3093 
Q 1141 3584 1784 3584 
Q 2172 3584 2450 3431 
Q 2728 3278 2906 2969 
L 2906 3500 
L 3481 3500 
L 3481 434 
z
" transform="scale(0.015625)"/>
      <path id="DejaVuSans-64" d="M 2906 2969 
L 2906 4863 
L 3481 4863 
L 3481 0 
L 2906 0 
L 2906 525 
Q 2725 213 2448 61 
Q 2172 -91 1784 -91 
Q 1150 -91 751 415 
Q 353 922 353 1747 
Q 353 2572 751 3078 
Q 1150 3584 1784 3584 
Q 2172 3584 2448 3432 
Q 2725 3281 2906 2969 
z
M 947 1747 
Q 947 1113 1208 752 
Q 1469 391 1925 391 
Q 2381 391 2643 752 
Q 2906 1113 2906 1747 
Q 2906 2381 2643 2742 
Q 2381 3103 1925 3103 
Q 1469 3103 1208 2742 
Q 947 2381 947 1747 
z
" transform="scale(0.015625)"/>
      <path id="DejaVuSans-56" d="M 1831 0 
L 50 4666 
L 709 4666 
L 2188 738 
L 3669 4666 
L 4325 4666 
L 2547 0 
L 1831 0 
z
" transform="scale(0.015625)"/>
      <path id="DejaVuSans-6c" d="M 603 4863 
L 1178 4863 
L 1178 0 
L 603 0 
L 603 4863 
z
" transform="scale(0.015625)"/>
     </defs>
     <use xlink:href="#DejaVuSans-54"/>
     <use xlink:href="#DejaVuSans-72" transform="translate(46.333984 0)"/>
     <use xlink:href="#DejaVuSans-61" transform="translate(87.447266 0)"/>
     <use xlink:href="#DejaVuSans-69" transform="translate(148.726562 0)"/>
     <use xlink:href="#DejaVuSans-6e" transform="translate(176.509766 0)"/>
     <use xlink:href="#DejaVuSans-69" transform="translate(239.888672 0)"/>
     <use xlink:href="#DejaVuSans-6e" transform="translate(267.671875 0)"/>
     <use xlink:href="#DejaVuSans-67" transform="translate(331.050781 0)"/>
     <use xlink:href="#DejaVuSans-20" transform="translate(394.527344 0)"/>
     <use xlink:href="#DejaVuSans-61" transform="translate(426.314453 0)"/>
     <use xlink:href="#DejaVuSans-6e" transform="translate(487.59375 0)"/>
     <use xlink:href="#DejaVuSans-64" transform="translate(550.972656 0)"/>
     <use xlink:href="#DejaVuSans-20" transform="translate(614.449219 0)"/>
     <use xlink:href="#DejaVuSans-56" transform="translate(646.236328 0)"/>
     <use xlink:href="#DejaVuSans-61" transform="translate(706.894531 0)"/>
     <use xlink:href="#DejaVuSans-6c" transform="translate(768.173828 0)"/>
     <use xlink:href="#DejaVuSans-69" transform="translate(795.957031 0)"/>
     <use xlink:href="#DejaVuSans-64" transform="translate(823.740234 0)"/>
     <use xlink:href="#DejaVuSans-61" transform="translate(887.216797 0)"/>
     <use xlink:href="#DejaVuSans-74" transform="translate(948.496094 0)"/>
     <use xlink:href="#DejaVuSans-69" transform="translate(987.705078 0)"/>
     <use xlink:href="#DejaVuSans-6e" transform="translate(1015.488281 0)"/>
     <use xlink:href="#DejaVuSans-67" transform="translate(1078.867188 0)"/>
     <use xlink:href="#DejaVuSans-20" transform="translate(1142.34375 0)"/>
     <use xlink:href="#DejaVuSans-45" transform="translate(1174.130859 0)"/>
     <use xlink:href="#DejaVuSans-73" transform="translate(1237.314453 0)"/>
     <use xlink:href="#DejaVuSans-74" transform="translate(1289.414062 0)"/>
     <use xlink:href="#DejaVuSans-69" transform="translate(1328.623047 0)"/>
     <use xlink:href="#DejaVuSans-6d" transform="translate(1356.40625 0)"/>
     <use xlink:href="#DejaVuSans-61" transform="translate(1453.818359 0)"/>
     <use xlink:href="#DejaVuSans-74" transform="translate(1515.097656 0)"/>
     <use xlink:href="#DejaVuSans-69" transform="translate(1554.306641 0)"/>
     <use xlink:href="#DejaVuSans-6f" transform="translate(1582.089844 0)"/>
     <use xlink:href="#DejaVuSans-6e" transform="translate(1643.271484 0)"/>
     <use xlink:href="#DejaVuSans-20" transform="translate(1706.650391 0)"/>
     <use xlink:href="#DejaVuSans-4c" transform="translate(1738.4375 0)"/>
     <use xlink:href="#DejaVuSans-6f" transform="translate(1792.400391 0)"/>
     <use xlink:href="#DejaVuSans-73" transform="translate(1853.582031 0)"/>
     <use xlink:href="#DejaVuSans-73" transform="translate(1905.681641 0)"/>
    </g>
   </g>
   <g id="legend_1">
    <g id="patch_7">
     <path d="M 521.439062 109.9125 
L 641 109.9125 
Q 643 109.9125 643 107.9125 
L 643 50.2 
Q 643 48.2 641 48.2 
L 521.439062 48.2 
Q 519.439062 48.2 519.439062 50.2 
L 519.439062 107.9125 
Q 519.439062 109.9125 521.439062 109.9125 
z
" style="fill: #ffffff; opacity: 0.8; stroke: #cccccc; stroke-linejoin: miter"/>
    </g>
    <g id="line2d_18">
     <path d="M 523.439062 56.298437 
L 533.439062 56.298437 
L 543.439062 56.298437 
" style="fill: none; stroke: #1f77b4; stroke-width: 1.5; stroke-linecap: square"/>
    </g>
    <g id="text_17">
     <!-- Training-Source -->
     <g transform="translate(551.439062 59.798437) scale(0.1 -0.1)">
      <defs>
       <path id="DejaVuSans-2d" d="M 313 2009 
L 1997 2009 
L 1997 1497 
L 313 1497 
L 313 2009 
z
" transform="scale(0.015625)"/>
       <path id="DejaVuSans-53" d="M 3425 4513 
L 3425 3897 
Q 3066 4069 2747 4153 
Q 2428 4238 2131 4238 
Q 1616 4238 1336 4038 
Q 1056 3838 1056 3469 
Q 1056 3159 1242 3001 
Q 1428 2844 1947 2747 
L 2328 2669 
Q 3034 2534 3370 2195 
Q 3706 1856 3706 1288 
Q 3706 609 3251 259 
Q 2797 -91 1919 -91 
Q 1588 -91 1214 -16 
Q 841 59 441 206 
L 441 856 
Q 825 641 1194 531 
Q 1563 422 1919 422 
Q 2459 422 2753 634 
Q 3047 847 3047 1241 
Q 3047 1584 2836 1778 
Q 2625 1972 2144 2069 
L 1759 2144 
Q 1053 2284 737 2584 
Q 422 2884 422 3419 
Q 422 4038 858 4394 
Q 1294 4750 2059 4750 
Q 2388 4750 2728 4690 
Q 3069 4631 3425 4513 
z
" transform="scale(0.015625)"/>
       <path id="DejaVuSans-75" d="M 544 1381 
L 544 3500 
L 1119 3500 
L 1119 1403 
Q 1119 906 1312 657 
Q 1506 409 1894 409 
Q 2359 409 2629 706 
Q 2900 1003 2900 1516 
L 2900 3500 
L 3475 3500 
L 3475 0 
L 2900 0 
L 2900 538 
Q 2691 219 2414 64 
Q 2138 -91 1772 -91 
Q 1169 -91 856 284 
Q 544 659 544 1381 
z
M 1991 3584 
L 1991 3584 
z
" transform="scale(0.015625)"/>
       <path id="DejaVuSans-65" d="M 3597 1894 
L 3597 1613 
L 953 1613 
Q 991 1019 1311 708 
Q 1631 397 2203 397 
Q 2534 397 2845 478 
Q 3156 559 3463 722 
L 3463 178 
Q 3153 47 2828 -22 
Q 2503 -91 2169 -91 
Q 1331 -91 842 396 
Q 353 884 353 1716 
Q 353 2575 817 3079 
Q 1281 3584 2069 3584 
Q 2775 3584 3186 3129 
Q 3597 2675 3597 1894 
z
M 3022 2063 
Q 3016 2534 2758 2815 
Q 2500 3097 2075 3097 
Q 1594 3097 1305 2825 
Q 1016 2553 972 2059 
L 3022 2063 
z
" transform="scale(0.015625)"/>
      </defs>
      <use xlink:href="#DejaVuSans-54"/>
      <use xlink:href="#DejaVuSans-72" transform="translate(46.333984 0)"/>
      <use xlink:href="#DejaVuSans-61" transform="translate(87.447266 0)"/>
      <use xlink:href="#DejaVuSans-69" transform="translate(148.726562 0)"/>
      <use xlink:href="#DejaVuSans-6e" transform="translate(176.509766 0)"/>
      <use xlink:href="#DejaVuSans-69" transform="translate(239.888672 0)"/>
      <use xlink:href="#DejaVuSans-6e" transform="translate(267.671875 0)"/>
      <use xlink:href="#DejaVuSans-67" transform="translate(331.050781 0)"/>
      <use xlink:href="#DejaVuSans-2d" transform="translate(394.527344 0)"/>
      <use xlink:href="#DejaVuSans-53" transform="translate(430.611328 0)"/>
      <use xlink:href="#DejaVuSans-6f" transform="translate(494.087891 0)"/>
      <use xlink:href="#DejaVuSans-75" transform="translate(555.269531 0)"/>
      <use xlink:href="#DejaVuSans-72" transform="translate(618.648438 0)"/>
      <use xlink:href="#DejaVuSans-63" transform="translate(657.511719 0)"/>
      <use xlink:href="#DejaVuSans-65" transform="translate(712.492188 0)"/>
     </g>
    </g>
    <g id="line2d_19">
     <path d="M 523.439062 70.976562 
L 533.439062 70.976562 
L 543.439062 70.976562 
" style="fill: none; stroke: #ff7f0e; stroke-width: 1.5; stroke-linecap: square"/>
    </g>
    <g id="text_18">
     <!-- Training-Target -->
     <g transform="translate(551.439062 74.476562) scale(0.1 -0.1)">
      <use xlink:href="#DejaVuSans-54"/>
      <use xlink:href="#DejaVuSans-72" transform="translate(46.333984 0)"/>
      <use xlink:href="#DejaVuSans-61" transform="translate(87.447266 0)"/>
      <use xlink:href="#DejaVuSans-69" transform="translate(148.726562 0)"/>
      <use xlink:href="#DejaVuSans-6e" transform="translate(176.509766 0)"/>
      <use xlink:href="#DejaVuSans-69" transform="translate(239.888672 0)"/>
      <use xlink:href="#DejaVuSans-6e" transform="translate(267.671875 0)"/>
      <use xlink:href="#DejaVuSans-67" transform="translate(331.050781 0)"/>
      <use xlink:href="#DejaVuSans-2d" transform="translate(394.527344 0)"/>
      <use xlink:href="#DejaVuSans-54" transform="translate(421.486328 0)"/>
      <use xlink:href="#DejaVuSans-61" transform="translate(466.070312 0)"/>
      <use xlink:href="#DejaVuSans-72" transform="translate(527.349609 0)"/>
      <use xlink:href="#DejaVuSans-67" transform="translate(566.712891 0)"/>
      <use xlink:href="#DejaVuSans-65" transform="translate(630.189453 0)"/>
      <use xlink:href="#DejaVuSans-74" transform="translate(691.712891 0)"/>
     </g>
    </g>
    <g id="line2d_20">
     <path d="M 523.439062 85.654687 
L 533.439062 85.654687 
L 543.439062 85.654687 
" style="fill: none; stroke: #2ca02c; stroke-width: 1.5; stroke-linecap: square"/>
    </g>
    <g id="text_19">
     <!-- Validating-Source -->
     <g transform="translate(551.439062 89.154687) scale(0.1 -0.1)">
      <use xlink:href="#DejaVuSans-56"/>
      <use xlink:href="#DejaVuSans-61" transform="translate(60.658203 0)"/>
      <use xlink:href="#DejaVuSans-6c" transform="translate(121.9375 0)"/>
      <use xlink:href="#DejaVuSans-69" transform="translate(149.720703 0)"/>
      <use xlink:href="#DejaVuSans-64" transform="translate(177.503906 0)"/>
      <use xlink:href="#DejaVuSans-61" transform="translate(240.980469 0)"/>
      <use xlink:href="#DejaVuSans-74" transform="translate(302.259766 0)"/>
      <use xlink:href="#DejaVuSans-69" transform="translate(341.46875 0)"/>
      <use xlink:href="#DejaVuSans-6e" transform="translate(369.251953 0)"/>
      <use xlink:href="#DejaVuSans-67" transform="translate(432.630859 0)"/>
      <use xlink:href="#DejaVuSans-2d" transform="translate(496.107422 0)"/>
      <use xlink:href="#DejaVuSans-53" transform="translate(532.191406 0)"/>
      <use xlink:href="#DejaVuSans-6f" transform="translate(595.667969 0)"/>
      <use xlink:href="#DejaVuSans-75" transform="translate(656.849609 0)"/>
      <use xlink:href="#DejaVuSans-72" transform="translate(720.228516 0)"/>
      <use xlink:href="#DejaVuSans-63" transform="translate(759.091797 0)"/>
      <use xlink:href="#DejaVuSans-65" transform="translate(814.072266 0)"/>
     </g>
    </g>
    <g id="line2d_21">
     <path d="M 523.439062 100.332812 
L 533.439062 100.332812 
L 543.439062 100.332812 
" style="fill: none; stroke: #d62728; stroke-width: 1.5; stroke-linecap: square"/>
    </g>
    <g id="text_20">
     <!-- Validating-Target -->
     <g transform="translate(551.439062 103.832812) scale(0.1 -0.1)">
      <use xlink:href="#DejaVuSans-56"/>
      <use xlink:href="#DejaVuSans-61" transform="translate(60.658203 0)"/>
      <use xlink:href="#DejaVuSans-6c" transform="translate(121.9375 0)"/>
      <use xlink:href="#DejaVuSans-69" transform="translate(149.720703 0)"/>
      <use xlink:href="#DejaVuSans-64" transform="translate(177.503906 0)"/>
      <use xlink:href="#DejaVuSans-61" transform="translate(240.980469 0)"/>
      <use xlink:href="#DejaVuSans-74" transform="translate(302.259766 0)"/>
      <use xlink:href="#DejaVuSans-69" transform="translate(341.46875 0)"/>
      <use xlink:href="#DejaVuSans-6e" transform="translate(369.251953 0)"/>
      <use xlink:href="#DejaVuSans-67" transform="translate(432.630859 0)"/>
      <use xlink:href="#DejaVuSans-2d" transform="translate(496.107422 0)"/>
      <use xlink:href="#DejaVuSans-54" transform="translate(523.066406 0)"/>
      <use xlink:href="#DejaVuSans-61" transform="translate(567.650391 0)"/>
      <use xlink:href="#DejaVuSans-72" transform="translate(628.929688 0)"/>
      <use xlink:href="#DejaVuSans-67" transform="translate(668.292969 0)"/>
      <use xlink:href="#DejaVuSans-65" transform="translate(731.769531 0)"/>
      <use xlink:href="#DejaVuSans-74" transform="translate(793.292969 0)"/>
     </g>
    </g>
   </g>
  </g>
 </g>
 <defs>
  <clipPath id="p4892eba724">
   <rect x="90" y="43.2" width="558" height="277.2"/>
  </clipPath>
 </defs>
</svg>
