<?xml version="1.0" encoding="utf-8" standalone="no"?>
<!DOCTYPE svg PUBLIC "-//W3C//DTD SVG 1.1//EN"
  "http://www.w3.org/Graphics/SVG/1.1/DTD/svg11.dtd">
<svg xmlns:xlink="http://www.w3.org/1999/xlink" width="720pt" height="360pt" viewBox="0 0 720 360" xmlns="http://www.w3.org/2000/svg" version="1.1">
 <metadata>
  <rdf:RDF xmlns:dc="http://purl.org/dc/elements/1.1/" xmlns:cc="http://creativecommons.org/ns#" xmlns:rdf="http://www.w3.org/1999/02/22-rdf-syntax-ns#">
   <cc:Work>
    <dc:type rdf:resource="http://purl.org/dc/dcmitype/StillImage"/>
    <dc:date>2025-11-14T05:53:58.380183</dc:date>
    <dc:format>image/svg+xml</dc:format>
    <dc:creator>
     <cc:Agent>
      <dc:title>Matplotlib v3.10.1, https://matplotlib.org/</dc:title>
     </cc:Agent>
    </dc:creator>
   </cc:Work>
  </rdf:RDF>
 </metadata>
 <defs>
  <style type="text/css">*{stroke-linejoin: round; stroke-linecap: butt}</style>
 </defs>
 <g id="figure_1">
  <g id="patch_1">
   <path d="M 0 360 
L 720 360 
L 720 0 
L 0 0 
z
" style="fill: #ffffff"/>
  </g>
  <g id="axes_1">
   <g id="patch_2">
    <path d="M 90 320.4 
L 648 320.4 
L 648 43.2 
L 90 43.2 
z
" style="fill: #ffffff"/>
   </g>
   <g id="matplotlib.axis_1">
    <g id="xtick_1">
     <g id="line2d_1">
      <defs>
       <path id="m410e008488" d="M 0 0 
L 0 3.5 
" style="stroke: #000000; stroke-width: 0.8"/>
      </defs>
      <g>
       <use xlink:href="#m410e008488" x="115.363636" y="320.4" style="stroke: #000000; stroke-width: 0.8"/>
      </g>
     </g>
     <g id="text_1">
      <!-- 0 -->
      <g transform="translate(112.182386 334.998438) scale(0.1 -0.1)">
       <defs>
        <path id="DejaVuSans-30" d="M 2034 4250 
Q 1547 4250 1301 3770 
Q 1056 3291 1056 2328 
Q 1056 1369 1301 889 
Q 1547 409 2034 409 
Q 2525 409 2770 889 
Q 3016 1369 3016 2328 
Q 3016 3291 2770 3770 
Q 2525 4250 2034 4250 
z
M 2034 4750 
Q 2819 4750 3233 4129 
Q 3647 3509 3647 2328 
Q 3647 1150 3233 529 
Q 2819 -91 2034 -91 
Q 1250 -91 836 529 
Q 422 1150 422 2328 
Q 422 3509 836 4129 
Q 1250 4750 2034 4750 
z
" transform="scale(0.015625)"/>
       </defs>
       <use xlink:href="#DejaVuSans-30"/>
      </g>
     </g>
    </g>
    <g id="xtick_2">
     <g id="line2d_2">
      <g>
       <use xlink:href="#m410e008488" x="217.157495" y="320.4" style="stroke: #000000; stroke-width: 0.8"/>
      </g>
     </g>
     <g id="text_2">
      <!-- 60 -->
      <g transform="translate(210.794995 334.998438) scale(0.1 -0.1)">
       <defs>
        <path id="DejaVuSans-36" d="M 2113 2584 
Q 1688 2584 1439 2293 
Q 1191 2003 1191 1497 
Q 1191 994 1439 701 
Q 1688 409 2113 409 
Q 2538 409 2786 701 
Q 3034 994 3034 1497 
Q 3034 2003 2786 2293 
Q 2538 2584 2113 2584 
z
M 3366 4563 
L 3366 3988 
Q 3128 4100 2886 4159 
Q 2644 4219 2406 4219 
Q 1781 4219 1451 3797 
Q 1122 3375 1075 2522 
Q 1259 2794 1537 2939 
Q 1816 3084 2150 3084 
Q 2853 3084 3261 2657 
Q 3669 2231 3669 1497 
Q 3669 778 3244 343 
Q 2819 -91 2113 -91 
Q 1303 -91 875 529 
Q 447 1150 447 2328 
Q 447 3434 972 4092 
Q 1497 4750 2381 4750 
Q 2619 4750 2861 4703 
Q 3103 4656 3366 4563 
z
" transform="scale(0.015625)"/>
       </defs>
       <use xlink:href="#DejaVuSans-36"/>
       <use xlink:href="#DejaVuSans-30" transform="translate(63.623047 0)"/>
      </g>
     </g>
    </g>
    <g id="xtick_3">
     <g id="line2d_3">
      <g>
       <use xlink:href="#m410e008488" x="318.951353" y="320.4" style="stroke: #000000; stroke-width: 0.8"/>
      </g>
     </g>
     <g id="text_3">
      <!-- 120 -->
      <g transform="translate(309.407603 334.998438) scale(0.1 -0.1)">
       <defs>
        <path id="DejaVuSans-31" d="M 794 531 
L 1825 531 
L 1825 4091 
L 703 3866 
L 703 4441 
L 1819 4666 
L 2450 4666 
L 2450 531 
L 3481 531 
L 3481 0 
L 794 0 
L 794 531 
z
" transform="scale(0.015625)"/>
        <path id="DejaVuSans-32" d="M 1228 531 
L 3431 531 
L 3431 0 
L 469 0 
L 469 531 
Q 828 903 1448 1529 
Q 2069 2156 2228 2338 
Q 2531 2678 2651 2914 
Q 2772 3150 2772 3378 
Q 2772 3750 2511 3984 
Q 2250 4219 1831 4219 
Q 1534 4219 1204 4116 
Q 875 4013 500 3803 
L 500 4441 
Q 881 4594 1212 4672 
Q 1544 4750 1819 4750 
Q 2544 4750 2975 4387 
Q 3406 4025 3406 3419 
Q 3406 3131 3298 2873 
Q 3191 2616 2906 2266 
Q 2828 2175 2409 1742 
Q 1991 1309 1228 531 
z
" transform="scale(0.015625)"/>
       </defs>
       <use xlink:href="#DejaVuSans-31"/>
       <use xlink:href="#DejaVuSans-32" transform="translate(63.623047 0)"/>
       <use xlink:href="#DejaVuSans-30" transform="translate(127.246094 0)"/>
      </g>
     </g>
    </g>
    <g id="xtick_4">
     <g id="line2d_4">
      <g>
       <use xlink:href="#m410e008488" x="420.745211" y="320.4" style="stroke: #000000; stroke-width: 0.8"/>
      </g>
     </g>
     <g id="text_4">
      <!-- 180 -->
      <g transform="translate(411.201461 334.998438) scale(0.1 -0.1)">
       <defs>
        <path id="DejaVuSans-38" d="M 2034 2216 
Q 1584 2216 1326 1975 
Q 1069 1734 1069 1313 
Q 1069 891 1326 650 
Q 1584 409 2034 409 
Q 2484 409 2743 651 
Q 3003 894 3003 1313 
Q 3003 1734 2745 1975 
Q 2488 2216 2034 2216 
z
M 1403 2484 
Q 997 2584 770 2862 
Q 544 3141 544 3541 
Q 544 4100 942 4425 
Q 1341 4750 2034 4750 
Q 2731 4750 3128 4425 
Q 3525 4100 3525 3541 
Q 3525 3141 3298 2862 
Q 3072 2584 2669 2484 
Q 3125 2378 3379 2068 
Q 3634 1759 3634 1313 
Q 3634 634 3220 271 
Q 2806 -91 2034 -91 
Q 1263 -91 848 271 
Q 434 634 434 1313 
Q 434 1759 690 2068 
Q 947 2378 1403 2484 
z
M 1172 3481 
Q 1172 3119 1398 2916 
Q 1625 2713 2034 2713 
Q 2441 2713 2670 2916 
Q 2900 3119 2900 3481 
Q 2900 3844 2670 4047 
Q 2441 4250 2034 4250 
Q 1625 4250 1398 4047 
Q 1172 3844 1172 3481 
z
" transform="scale(0.015625)"/>
       </defs>
       <use xlink:href="#DejaVuSans-31"/>
       <use xlink:href="#DejaVuSans-38" transform="translate(63.623047 0)"/>
       <use xlink:href="#DejaVuSans-30" transform="translate(127.246094 0)"/>
      </g>
     </g>
    </g>
    <g id="xtick_5">
     <g id="line2d_5">
      <g>
       <use xlink:href="#m410e008488" x="522.53907" y="320.4" style="stroke: #000000; stroke-width: 0.8"/>
      </g>
     </g>
     <g id="text_5">
      <!-- 240 -->
      <g transform="translate(512.99532 334.998438) scale(0.1 -0.1)">
       <defs>
        <path id="DejaVuSans-34" d="M 2419 4116 
L 825 1625 
L 2419 1625 
L 2419 4116 
z
M 2253 4666 
L 3047 4666 
L 3047 1625 
L 3713 1625 
L 3713 1100 
L 3047 1100 
L 3047 0 
L 2419 0 
L 2419 1100 
L 313 1100 
L 313 1709 
L 2253 4666 
z
" transform="scale(0.015625)"/>
       </defs>
       <use xlink:href="#DejaVuSans-32"/>
       <use xlink:href="#DejaVuSans-34" transform="translate(63.623047 0)"/>
       <use xlink:href="#DejaVuSans-30" transform="translate(127.246094 0)"/>
      </g>
     </g>
    </g>
    <g id="text_6">
     <!-- Epoch -->
     <g transform="translate(353.689062 348.676562) scale(0.1 -0.1)">
      <defs>
       <path id="DejaVuSans-45" d="M 628 4666 
L 3578 4666 
L 3578 4134 
L 1259 4134 
L 1259 2753 
L 3481 2753 
L 3481 2222 
L 1259 2222 
L 1259 531 
L 3634 531 
L 3634 0 
L 628 0 
L 628 4666 
z
" transform="scale(0.015625)"/>
       <path id="DejaVuSans-70" d="M 1159 525 
L 1159 -1331 
L 581 -1331 
L 581 3500 
L 1159 3500 
L 1159 2969 
Q 1341 3281 1617 3432 
Q 1894 3584 2278 3584 
Q 2916 3584 3314 3078 
Q 3713 2572 3713 1747 
Q 3713 922 3314 415 
Q 2916 -91 2278 -91 
Q 1894 -91 1617 61 
Q 1341 213 1159 525 
z
M 3116 1747 
Q 3116 2381 2855 2742 
Q 2594 3103 2138 3103 
Q 1681 3103 1420 2742 
Q 1159 2381 1159 1747 
Q 1159 1113 1420 752 
Q 1681 391 2138 391 
Q 2594 391 2855 752 
Q 3116 1113 3116 1747 
z
" transform="scale(0.015625)"/>
       <path id="DejaVuSans-6f" d="M 1959 3097 
Q 1497 3097 1228 2736 
Q 959 2375 959 1747 
Q 959 1119 1226 758 
Q 1494 397 1959 397 
Q 2419 397 2687 759 
Q 2956 1122 2956 1747 
Q 2956 2369 2687 2733 
Q 2419 3097 1959 3097 
z
M 1959 3584 
Q 2709 3584 3137 3096 
Q 3566 2609 3566 1747 
Q 3566 888 3137 398 
Q 2709 -91 1959 -91 
Q 1206 -91 779 398 
Q 353 888 353 1747 
Q 353 2609 779 3096 
Q 1206 3584 1959 3584 
z
" transform="scale(0.015625)"/>
       <path id="DejaVuSans-63" d="M 3122 3366 
L 3122 2828 
Q 2878 2963 2633 3030 
Q 2388 3097 2138 3097 
Q 1578 3097 1268 2742 
Q 959 2388 959 1747 
Q 959 1106 1268 751 
Q 1578 397 2138 397 
Q 2388 397 2633 464 
Q 2878 531 3122 666 
L 3122 134 
Q 2881 22 2623 -34 
Q 2366 -91 2075 -91 
Q 1284 -91 818 406 
Q 353 903 353 1747 
Q 353 2603 823 3093 
Q 1294 3584 2113 3584 
Q 2378 3584 2631 3529 
Q 2884 3475 3122 3366 
z
" transform="scale(0.015625)"/>
       <path id="DejaVuSans-68" d="M 3513 2113 
L 3513 0 
L 2938 0 
L 2938 2094 
Q 2938 2591 2744 2837 
Q 2550 3084 2163 3084 
Q 1697 3084 1428 2787 
Q 1159 2491 1159 1978 
L 1159 0 
L 581 0 
L 581 4863 
L 1159 4863 
L 1159 2956 
Q 1366 3272 1645 3428 
Q 1925 3584 2291 3584 
Q 2894 3584 3203 3211 
Q 3513 2838 3513 2113 
z
" transform="scale(0.015625)"/>
      </defs>
      <use xlink:href="#DejaVuSans-45"/>
      <use xlink:href="#DejaVuSans-70" transform="translate(63.183594 0)"/>
      <use xlink:href="#DejaVuSans-6f" transform="translate(126.660156 0)"/>
      <use xlink:href="#DejaVuSans-63" transform="translate(187.841797 0)"/>
      <use xlink:href="#DejaVuSans-68" transform="translate(242.822266 0)"/>
     </g>
    </g>
   </g>
   <g id="matplotlib.axis_2">
    <g id="ytick_1">
     <g id="line2d_6">
      <defs>
       <path id="m5c013e8a6f" d="M 0 0 
L -3.5 0 
" style="stroke: #000000; stroke-width: 0.8"/>
      </defs>
      <g>
       <use xlink:href="#m5c013e8a6f" x="90" y="310.830624" style="stroke: #000000; stroke-width: 0.8"/>
      </g>
     </g>
     <g id="text_7">
      <!-- 0.00 -->
      <g transform="translate(60.734375 314.629843) scale(0.1 -0.1)">
       <defs>
        <path id="DejaVuSans-2e" d="M 684 794 
L 1344 794 
L 1344 0 
L 684 0 
L 684 794 
z
" transform="scale(0.015625)"/>
       </defs>
       <use xlink:href="#DejaVuSans-30"/>
       <use xlink:href="#DejaVuSans-2e" transform="translate(63.623047 0)"/>
       <use xlink:href="#DejaVuSans-30" transform="translate(95.410156 0)"/>
       <use xlink:href="#DejaVuSans-30" transform="translate(159.033203 0)"/>
      </g>
     </g>
    </g>
    <g id="ytick_2">
     <g id="line2d_7">
      <g>
       <use xlink:href="#m5c013e8a6f" x="90" y="256.333583" style="stroke: #000000; stroke-width: 0.8"/>
      </g>
     </g>
     <g id="text_8">
      <!-- 0.01 -->
      <g transform="translate(60.734375 260.132802) scale(0.1 -0.1)">
       <use xlink:href="#DejaVuSans-30"/>
       <use xlink:href="#DejaVuSans-2e" transform="translate(63.623047 0)"/>
       <use xlink:href="#DejaVuSans-30" transform="translate(95.410156 0)"/>
       <use xlink:href="#DejaVuSans-31" transform="translate(159.033203 0)"/>
      </g>
     </g>
    </g>
    <g id="ytick_3">
     <g id="line2d_8">
      <g>
       <use xlink:href="#m5c013e8a6f" x="90" y="201.836542" style="stroke: #000000; stroke-width: 0.8"/>
      </g>
     </g>
     <g id="text_9">
      <!-- 0.02 -->
      <g transform="translate(60.734375 205.635761) scale(0.1 -0.1)">
       <use xlink:href="#DejaVuSans-30"/>
       <use xlink:href="#DejaVuSans-2e" transform="translate(63.623047 0)"/>
       <use xlink:href="#DejaVuSans-30" transform="translate(95.410156 0)"/>
       <use xlink:href="#DejaVuSans-32" transform="translate(159.033203 0)"/>
      </g>
     </g>
    </g>
    <g id="ytick_4">
     <g id="line2d_9">
      <g>
       <use xlink:href="#m5c013e8a6f" x="90" y="147.339501" style="stroke: #000000; stroke-width: 0.8"/>
      </g>
     </g>
     <g id="text_10">
      <!-- 0.03 -->
      <g transform="translate(60.734375 151.13872) scale(0.1 -0.1)">
       <defs>
        <path id="DejaVuSans-33" d="M 2597 2516 
Q 3050 2419 3304 2112 
Q 3559 1806 3559 1356 
Q 3559 666 3084 287 
Q 2609 -91 1734 -91 
Q 1441 -91 1130 -33 
Q 819 25 488 141 
L 488 750 
Q 750 597 1062 519 
Q 1375 441 1716 441 
Q 2309 441 2620 675 
Q 2931 909 2931 1356 
Q 2931 1769 2642 2001 
Q 2353 2234 1838 2234 
L 1294 2234 
L 1294 2753 
L 1863 2753 
Q 2328 2753 2575 2939 
Q 2822 3125 2822 3475 
Q 2822 3834 2567 4026 
Q 2313 4219 1838 4219 
Q 1578 4219 1281 4162 
Q 984 4106 628 3988 
L 628 4550 
Q 988 4650 1302 4700 
Q 1616 4750 1894 4750 
Q 2613 4750 3031 4423 
Q 3450 4097 3450 3541 
Q 3450 3153 3228 2886 
Q 3006 2619 2597 2516 
z
" transform="scale(0.015625)"/>
       </defs>
       <use xlink:href="#DejaVuSans-30"/>
       <use xlink:href="#DejaVuSans-2e" transform="translate(63.623047 0)"/>
       <use xlink:href="#DejaVuSans-30" transform="translate(95.410156 0)"/>
       <use xlink:href="#DejaVuSans-33" transform="translate(159.033203 0)"/>
      </g>
     </g>
    </g>
    <g id="ytick_5">
     <g id="line2d_10">
      <g>
       <use xlink:href="#m5c013e8a6f" x="90" y="92.84246" style="stroke: #000000; stroke-width: 0.8"/>
      </g>
     </g>
     <g id="text_11">
      <!-- 0.04 -->
      <g transform="translate(60.734375 96.641678) scale(0.1 -0.1)">
       <use xlink:href="#DejaVuSans-30"/>
       <use xlink:href="#DejaVuSans-2e" transform="translate(63.623047 0)"/>
       <use xlink:href="#DejaVuSans-30" transform="translate(95.410156 0)"/>
       <use xlink:href="#DejaVuSans-34" transform="translate(159.033203 0)"/>
      </g>
     </g>
    </g>
    <g id="text_12">
     <!-- Estimation Loss -->
     <g transform="translate(54.654687 220.98125) rotate(-90) scale(0.1 -0.1)">
      <defs>
       <path id="DejaVuSans-73" d="M 2834 3397 
L 2834 2853 
Q 2591 2978 2328 3040 
Q 2066 3103 1784 3103 
Q 1356 3103 1142 2972 
Q 928 2841 928 2578 
Q 928 2378 1081 2264 
Q 1234 2150 1697 2047 
L 1894 2003 
Q 2506 1872 2764 1633 
Q 3022 1394 3022 966 
Q 3022 478 2636 193 
Q 2250 -91 1575 -91 
Q 1294 -91 989 -36 
Q 684 19 347 128 
L 347 722 
Q 666 556 975 473 
Q 1284 391 1588 391 
Q 1994 391 2212 530 
Q 2431 669 2431 922 
Q 2431 1156 2273 1281 
Q 2116 1406 1581 1522 
L 1381 1569 
Q 847 1681 609 1914 
Q 372 2147 372 2553 
Q 372 3047 722 3315 
Q 1072 3584 1716 3584 
Q 2034 3584 2315 3537 
Q 2597 3491 2834 3397 
z
" transform="scale(0.015625)"/>
       <path id="DejaVuSans-74" d="M 1172 4494 
L 1172 3500 
L 2356 3500 
L 2356 3053 
L 1172 3053 
L 1172 1153 
Q 1172 725 1289 603 
Q 1406 481 1766 481 
L 2356 481 
L 2356 0 
L 1766 0 
Q 1100 0 847 248 
Q 594 497 594 1153 
L 594 3053 
L 172 3053 
L 172 3500 
L 594 3500 
L 594 4494 
L 1172 4494 
z
" transform="scale(0.015625)"/>
       <path id="DejaVuSans-69" d="M 603 3500 
L 1178 3500 
L 1178 0 
L 603 0 
L 603 3500 
z
M 603 4863 
L 1178 4863 
L 1178 4134 
L 603 4134 
L 603 4863 
z
" transform="scale(0.015625)"/>
       <path id="DejaVuSans-6d" d="M 3328 2828 
Q 3544 3216 3844 3400 
Q 4144 3584 4550 3584 
Q 5097 3584 5394 3201 
Q 5691 2819 5691 2113 
L 5691 0 
L 5113 0 
L 5113 2094 
Q 5113 2597 4934 2840 
Q 4756 3084 4391 3084 
Q 3944 3084 3684 2787 
Q 3425 2491 3425 1978 
L 3425 0 
L 2847 0 
L 2847 2094 
Q 2847 2600 2669 2842 
Q 2491 3084 2119 3084 
Q 1678 3084 1418 2786 
Q 1159 2488 1159 1978 
L 1159 0 
L 581 0 
L 581 3500 
L 1159 3500 
L 1159 2956 
Q 1356 3278 1631 3431 
Q 1906 3584 2284 3584 
Q 2666 3584 2933 3390 
Q 3200 3197 3328 2828 
z
" transform="scale(0.015625)"/>
       <path id="DejaVuSans-61" d="M 2194 1759 
Q 1497 1759 1228 1600 
Q 959 1441 959 1056 
Q 959 750 1161 570 
Q 1363 391 1709 391 
Q 2188 391 2477 730 
Q 2766 1069 2766 1631 
L 2766 1759 
L 2194 1759 
z
M 3341 1997 
L 3341 0 
L 2766 0 
L 2766 531 
Q 2569 213 2275 61 
Q 1981 -91 1556 -91 
Q 1019 -91 701 211 
Q 384 513 384 1019 
Q 384 1609 779 1909 
Q 1175 2209 1959 2209 
L 2766 2209 
L 2766 2266 
Q 2766 2663 2505 2880 
Q 2244 3097 1772 3097 
Q 1472 3097 1187 3025 
Q 903 2953 641 2809 
L 641 3341 
Q 956 3463 1253 3523 
Q 1550 3584 1831 3584 
Q 2591 3584 2966 3190 
Q 3341 2797 3341 1997 
z
" transform="scale(0.015625)"/>
       <path id="DejaVuSans-6e" d="M 3513 2113 
L 3513 0 
L 2938 0 
L 2938 2094 
Q 2938 2591 2744 2837 
Q 2550 3084 2163 3084 
Q 1697 3084 1428 2787 
Q 1159 2491 1159 1978 
L 1159 0 
L 581 0 
L 581 3500 
L 1159 3500 
L 1159 2956 
Q 1366 3272 1645 3428 
Q 1925 3584 2291 3584 
Q 2894 3584 3203 3211 
Q 3513 2838 3513 2113 
z
" transform="scale(0.015625)"/>
       <path id="DejaVuSans-20" transform="scale(0.015625)"/>
       <path id="DejaVuSans-4c" d="M 628 4666 
L 1259 4666 
L 1259 531 
L 3531 531 
L 3531 0 
L 628 0 
L 628 4666 
z
" transform="scale(0.015625)"/>
      </defs>
      <use xlink:href="#DejaVuSans-45"/>
      <use xlink:href="#DejaVuSans-73" transform="translate(63.183594 0)"/>
      <use xlink:href="#DejaVuSans-74" transform="translate(115.283203 0)"/>
      <use xlink:href="#DejaVuSans-69" transform="translate(154.492188 0)"/>
      <use xlink:href="#DejaVuSans-6d" transform="translate(182.275391 0)"/>
      <use xlink:href="#DejaVuSans-61" transform="translate(279.6875 0)"/>
      <use xlink:href="#DejaVuSans-74" transform="translate(340.966797 0)"/>
      <use xlink:href="#DejaVuSans-69" transform="translate(380.175781 0)"/>
      <use xlink:href="#DejaVuSans-6f" transform="translate(407.958984 0)"/>
      <use xlink:href="#DejaVuSans-6e" transform="translate(469.140625 0)"/>
      <use xlink:href="#DejaVuSans-20" transform="translate(532.519531 0)"/>
      <use xlink:href="#DejaVuSans-4c" transform="translate(564.306641 0)"/>
      <use xlink:href="#DejaVuSans-6f" transform="translate(618.269531 0)"/>
      <use xlink:href="#DejaVuSans-73" transform="translate(679.451172 0)"/>
      <use xlink:href="#DejaVuSans-73" transform="translate(731.550781 0)"/>
     </g>
    </g>
   </g>
   <g id="line2d_11">
    <path d="M 115.363636 60.475289 
L 117.060201 228.48264 
L 118.756765 261.06159 
L 120.453329 274.71511 
L 122.149894 281.496672 
L 123.846458 285.559332 
L 125.543022 288.279237 
L 127.239587 290.245724 
L 128.936151 291.749145 
L 130.632715 292.951404 
L 132.329279 293.947167 
L 134.025844 294.730228 
L 137.418972 296.025347 
L 142.508665 297.324171 
L 145.901794 298.038276 
L 149.294922 298.588075 
L 164.564001 300.401097 
L 169.653694 300.832178 
L 193.405594 302.606557 
L 217.157495 303.77492 
L 230.730009 304.285625 
L 237.516266 304.459131 
L 254.481909 304.955568 
L 257.875038 304.99572 
L 293.502888 305.645278 
L 298.592581 305.716265 
L 303.682274 305.800616 
L 307.075403 305.837376 
L 339.310125 306.28291 
L 342.703253 306.296504 
L 347.792946 306.365153 
L 368.151718 306.527077 
L 369.848282 306.607085 
L 371.544846 306.523671 
L 374.937975 306.631962 
L 376.634539 306.566796 
L 381.724232 306.685495 
L 390.207054 306.687963 
L 395.296747 306.756287 
L 405.476133 306.900572 
L 408.869261 306.839147 
L 424.13834 306.961593 
L 425.834904 307.018528 
L 429.228033 306.997202 
L 446.193676 307.117216 
L 449.586804 307.124072 
L 464.855883 307.206092 
L 473.338705 307.284295 
L 476.731833 307.24706 
L 539.504713 307.533408 
L 541.201277 307.48988 
L 544.594406 307.521891 
L 549.684099 307.543459 
L 558.16692 307.59387 
L 622.636364 307.735659 
L 622.636364 307.735659 
" clip-path="url(#pe08eaa7a84)" style="fill: none; stroke: #1f77b4; stroke-width: 1.5; stroke-linecap: square"/>
   </g>
   <g id="line2d_12">
    <path d="M 115.363636 59.461991 
L 117.060201 208.255989 
L 118.756765 236.245984 
L 120.453329 246.681698 
L 122.149894 251.388789 
L 123.846458 254.217921 
L 125.543022 256.19686 
L 127.239587 257.772464 
L 128.936151 258.967938 
L 132.329279 260.986658 
L 134.025844 261.826083 
L 135.722408 262.492888 
L 137.418972 263.309484 
L 139.115537 263.902971 
L 140.812101 264.651675 
L 147.598358 266.650555 
L 161.170873 269.361234 
L 166.260566 269.945465 
L 167.95713 270.322304 
L 169.653694 270.460312 
L 173.046823 271.069668 
L 176.439951 271.47293 
L 178.136516 271.819159 
L 186.619337 272.708734 
L 188.315901 273.026497 
L 193.405594 273.452466 
L 195.102159 273.739484 
L 198.495287 274.026919 
L 200.191852 274.30458 
L 201.888416 274.316444 
L 205.281545 274.721991 
L 225.640316 276.45786 
L 235.819702 277.144245 
L 237.516266 277.101063 
L 239.212831 277.297401 
L 240.909395 277.258765 
L 242.605959 277.372636 
L 244.302524 277.359061 
L 247.695652 277.701843 
L 249.392216 277.622334 
L 251.088781 277.840895 
L 252.785345 277.932206 
L 256.178474 277.859313 
L 259.571602 278.139816 
L 262.964731 278.221405 
L 264.661295 278.365645 
L 266.35786 278.30312 
L 271.447552 278.498647 
L 273.144117 278.372057 
L 274.840681 278.679082 
L 276.537245 278.590166 
L 278.23381 278.660541 
L 279.930374 278.536026 
L 281.626938 278.754976 
L 285.020067 278.895102 
L 288.413196 278.863304 
L 291.806324 279.069509 
L 293.502888 278.917013 
L 295.199453 279.062763 
L 296.896017 279.032961 
L 298.592581 279.260693 
L 300.289146 279.043221 
L 303.682274 279.111022 
L 308.771967 279.257505 
L 312.165096 279.352399 
L 320.647917 279.403405 
L 322.344482 279.324136 
L 324.041046 279.590454 
L 325.73761 279.437765 
L 330.827303 279.724245 
L 332.523867 279.508942 
L 335.916996 279.659081 
L 344.399818 279.558715 
L 354.579203 279.854353 
L 356.275768 279.714912 
L 361.365461 279.608586 
L 363.062025 279.827499 
L 366.455154 279.82502 
L 368.151718 279.6471 
L 369.848282 279.882894 
L 373.241411 279.832263 
L 378.331104 279.729251 
L 381.724232 279.980339 
L 385.117361 279.986483 
L 393.600182 279.97041 
L 395.296747 280.239955 
L 396.993311 279.997245 
L 400.38644 280.073 
L 402.083004 280.252798 
L 408.869261 280.241501 
L 410.565825 280.231013 
L 412.26239 280.430507 
L 413.958954 280.289681 
L 415.655518 280.418271 
L 419.048647 280.412808 
L 420.745211 280.531195 
L 422.441776 280.365004 
L 425.834904 280.715092 
L 430.924597 280.47179 
L 434.317726 280.868737 
L 436.01429 280.66008 
L 442.800547 280.977532 
L 444.497112 280.864993 
L 447.89024 280.954297 
L 449.586804 280.835769 
L 451.283369 281.06136 
L 452.979933 281.037383 
L 454.676497 281.269097 
L 456.373062 280.944757 
L 458.069626 280.984329 
L 459.76619 281.139106 
L 461.462755 281.117346 
L 463.159319 281.326165 
L 464.855883 281.097753 
L 466.552448 281.3513 
L 468.249012 281.143771 
L 469.945576 281.274534 
L 471.64214 281.275399 
L 473.338705 281.521762 
L 475.035269 281.359993 
L 476.731833 281.410083 
L 478.428398 281.195294 
L 480.124962 281.196715 
L 481.821526 281.393258 
L 488.607784 281.534959 
L 490.304348 281.359204 
L 492.000912 281.369853 
L 495.394041 281.658116 
L 497.090605 281.548878 
L 498.787169 281.631782 
L 502.180298 281.57202 
L 503.876862 281.677764 
L 515.752812 281.651521 
L 519.145941 281.88705 
L 520.842505 281.696022 
L 529.325327 281.671703 
L 532.718455 281.567803 
L 534.41502 281.504461 
L 536.111584 281.629203 
L 537.808148 281.426619 
L 539.504713 281.554493 
L 541.201277 281.528189 
L 542.897841 281.793662 
L 544.594406 281.687015 
L 546.29097 281.75024 
L 547.987534 281.677472 
L 549.684099 281.775462 
L 554.773791 281.648435 
L 556.470356 281.755538 
L 558.16692 281.625533 
L 559.863484 281.837375 
L 561.560049 281.739236 
L 563.256613 281.460214 
L 564.953177 281.614554 
L 566.649742 281.571939 
L 568.346306 281.691745 
L 570.04287 281.577621 
L 575.132563 281.64963 
L 578.525692 281.561497 
L 580.222256 281.716675 
L 581.91882 281.556265 
L 583.615385 281.640551 
L 585.311949 281.884433 
L 587.008513 281.66826 
L 588.705078 281.815675 
L 590.401642 281.71278 
L 592.098206 281.479007 
L 595.491335 281.535498 
L 597.187899 281.813274 
L 598.884463 281.452985 
L 607.367285 281.608311 
L 609.063849 281.724933 
L 610.760413 281.64296 
L 612.456978 281.387474 
L 614.153542 281.609185 
L 617.546671 281.51328 
L 620.939799 281.577096 
L 622.636364 281.746584 
L 622.636364 281.746584 
" clip-path="url(#pe08eaa7a84)" style="fill: none; stroke: #ff7f0e; stroke-width: 1.5; stroke-linecap: square"/>
   </g>
   <g id="line2d_13">
    <path d="M 115.363636 129.308547 
L 117.060201 217.612724 
L 118.756765 249.77488 
L 120.453329 263.582956 
L 122.149894 270.8253 
L 123.846458 275.429778 
L 127.239587 281.399303 
L 128.936151 283.146807 
L 130.632715 284.305758 
L 132.329279 285.658955 
L 134.025844 286.808247 
L 137.418972 287.283681 
L 142.508665 289.781357 
L 144.20523 289.960332 
L 145.901794 290.557839 
L 147.598358 290.90525 
L 149.294922 291.091346 
L 150.991487 290.945194 
L 152.688051 292.304049 
L 154.384615 291.758363 
L 156.08118 292.643143 
L 157.777744 292.323266 
L 159.474308 292.71906 
L 161.170873 293.477404 
L 162.867437 293.509918 
L 164.564001 294.093649 
L 166.260566 294.033506 
L 167.95713 294.641249 
L 169.653694 294.31495 
L 171.350258 294.757757 
L 173.046823 294.612661 
L 174.743387 294.895874 
L 176.439951 294.977205 
L 178.136516 295.361146 
L 179.83308 295.482898 
L 181.529644 295.839034 
L 183.226209 295.803093 
L 184.922773 296.299591 
L 186.619337 296.434976 
L 188.315901 296.011869 
L 190.012466 296.909036 
L 191.70903 295.93405 
L 193.405594 297.215536 
L 195.102159 296.647293 
L 196.798723 297.071301 
L 198.495287 297.071419 
L 200.191852 297.547743 
L 203.58498 297.611955 
L 205.281545 297.410327 
L 208.674673 298.105571 
L 210.371237 297.115867 
L 212.067802 297.372845 
L 213.764366 296.395451 
L 215.46093 297.117461 
L 217.157495 297.376799 
L 218.854059 295.145882 
L 220.550623 298.208685 
L 222.247188 298.170066 
L 223.943752 295.283559 
L 225.640316 298.097988 
L 227.336881 298.103314 
L 229.033445 297.017317 
L 230.730009 297.424864 
L 232.426573 298.066995 
L 234.123138 297.931272 
L 235.819702 298.601724 
L 237.516266 297.312133 
L 239.212831 298.264922 
L 240.909395 299.024966 
L 242.605959 298.465225 
L 244.302524 298.492172 
L 245.999088 297.788507 
L 247.695652 295.151102 
L 251.088781 297.890982 
L 252.785345 298.159016 
L 254.481909 296.365044 
L 256.178474 298.451413 
L 257.875038 299.011852 
L 259.571602 297.735272 
L 261.268167 298.11951 
L 262.964731 297.779337 
L 264.661295 299.178899 
L 266.35786 299.357125 
L 268.054424 297.767889 
L 269.750988 297.809513 
L 271.447552 298.299369 
L 273.144117 299.807843 
L 274.840681 298.391742 
L 276.537245 299.143075 
L 278.23381 299.416526 
L 279.930374 300.112695 
L 281.626938 300.165222 
L 283.323503 298.716079 
L 285.020067 300.31131 
L 286.716631 299.472159 
L 288.413196 297.492175 
L 290.10976 299.335754 
L 291.806324 297.947143 
L 293.502888 298.081556 
L 295.199453 297.971537 
L 296.896017 297.535239 
L 298.592581 299.384939 
L 300.289146 300.416235 
L 301.98571 299.387738 
L 303.682274 299.429035 
L 305.378839 298.178727 
L 307.075403 299.525793 
L 308.771967 299.109468 
L 310.468531 298.087781 
L 312.165096 297.279213 
L 313.86166 299.952785 
L 315.558224 299.156483 
L 317.254789 300.401288 
L 318.951353 299.796221 
L 320.647917 299.647127 
L 322.344482 300.61328 
L 324.041046 300.510253 
L 325.73761 300.771119 
L 327.434175 299.64169 
L 329.130739 299.427485 
L 330.827303 300.3639 
L 332.523867 299.810765 
L 334.220432 299.657539 
L 335.916996 300.361339 
L 337.61356 299.903434 
L 342.703253 301.045919 
L 344.399818 300.238877 
L 347.792946 301.216141 
L 349.48951 301.993146 
L 351.186075 299.899103 
L 352.882639 300.392509 
L 354.579203 301.090496 
L 356.275768 300.512803 
L 357.972332 300.590054 
L 359.668896 300.179198 
L 361.365461 300.006452 
L 363.062025 301.131209 
L 364.758589 301.867176 
L 366.455154 300.900881 
L 369.848282 300.082411 
L 371.544846 300.59131 
L 373.241411 299.139419 
L 374.937975 299.193977 
L 376.634539 300.804903 
L 378.331104 301.736635 
L 380.027668 301.412305 
L 381.724232 300.350268 
L 383.420797 300.773288 
L 385.117361 301.753454 
L 388.51049 301.763611 
L 390.207054 300.809881 
L 391.903618 300.470213 
L 393.600182 302.135873 
L 395.296747 302.663646 
L 396.993311 301.164885 
L 398.689875 302.119324 
L 400.38644 301.173001 
L 403.779568 302.247819 
L 405.476133 301.38994 
L 407.172697 301.129823 
L 408.869261 302.32893 
L 410.565825 301.341495 
L 412.26239 302.131205 
L 413.958954 301.983297 
L 415.655518 302.095645 
L 417.352083 301.04896 
L 419.048647 300.894744 
L 420.745211 301.779397 
L 422.441776 301.733012 
L 424.13834 301.962556 
L 425.834904 302.309683 
L 427.531469 301.400263 
L 429.228033 302.226207 
L 430.924597 302.334851 
L 432.621161 301.560172 
L 434.317726 302.890954 
L 436.01429 302.980983 
L 437.710854 302.796003 
L 439.407419 301.993745 
L 441.103983 301.945795 
L 442.800547 301.012744 
L 444.497112 300.967051 
L 446.193676 303.201148 
L 447.89024 302.501656 
L 449.586804 303.452017 
L 451.283369 301.877368 
L 452.979933 303.326415 
L 454.676497 301.920553 
L 456.373062 302.116278 
L 458.069626 302.627864 
L 459.76619 302.084586 
L 461.462755 302.974606 
L 463.159319 302.51091 
L 464.855883 302.677454 
L 466.552448 302.397004 
L 468.249012 303.12439 
L 469.945576 302.341941 
L 471.64214 302.939218 
L 473.338705 301.22515 
L 475.035269 302.344763 
L 480.124962 303.082921 
L 481.821526 301.840914 
L 483.518091 302.550142 
L 486.911219 303.735958 
L 488.607784 300.915276 
L 490.304348 302.452136 
L 492.000912 301.760485 
L 493.697476 302.979786 
L 495.394041 302.236565 
L 497.090605 302.15302 
L 498.787169 302.724627 
L 500.483734 302.340037 
L 502.180298 301.459661 
L 503.876862 302.14309 
L 505.573427 302.089269 
L 507.269991 303.243685 
L 508.966555 302.415802 
L 512.359684 303.05913 
L 514.056248 302.369619 
L 515.752812 303.29217 
L 517.449377 302.17976 
L 519.145941 302.759302 
L 520.842505 302.092766 
L 522.53907 303.185736 
L 524.235634 302.897742 
L 525.932198 301.279931 
L 527.628763 302.815242 
L 529.325327 302.494567 
L 531.021891 301.981496 
L 532.718455 302.601606 
L 536.111584 302.650503 
L 537.808148 302.478496 
L 539.504713 301.492028 
L 541.201277 301.292553 
L 542.897841 302.268332 
L 544.594406 303.109319 
L 546.29097 302.840652 
L 547.987534 302.126458 
L 549.684099 302.495635 
L 551.380663 302.4778 
L 553.077227 302.299916 
L 554.773791 303.345786 
L 556.470356 301.593703 
L 558.16692 301.509222 
L 559.863484 302.709518 
L 561.560049 303.134266 
L 563.256613 302.926043 
L 564.953177 301.253089 
L 566.649742 303.758235 
L 568.346306 302.712592 
L 570.04287 301.807275 
L 571.739434 302.834816 
L 573.435999 302.609476 
L 575.132563 303.075326 
L 576.829127 301.973939 
L 578.525692 303.590646 
L 580.222256 302.619677 
L 581.91882 302.918601 
L 583.615385 303.587234 
L 585.311949 302.669813 
L 588.705078 303.493142 
L 590.401642 303.498235 
L 592.098206 303.808224 
L 593.79477 303.07762 
L 595.491335 303.653349 
L 598.884463 303.443953 
L 600.581028 302.660799 
L 602.277592 303.179693 
L 603.974156 303.924668 
L 605.670721 303.344031 
L 607.367285 303.715842 
L 609.063849 303.913632 
L 610.760413 302.348033 
L 612.456978 304.217757 
L 614.153542 303.59547 
L 617.546671 302.756918 
L 619.243235 304.355714 
L 620.939799 303.464159 
L 622.636364 303.708838 
L 622.636364 303.708838 
" clip-path="url(#pe08eaa7a84)" style="fill: none; stroke: #2ca02c; stroke-width: 1.5; stroke-linecap: square"/>
   </g>
   <g id="line2d_14">
    <path d="M 115.363636 55.8 
L 117.060201 146.738834 
L 118.756765 175.285044 
L 120.453329 187.730961 
L 122.149894 193.371379 
L 125.543022 200.636689 
L 127.239587 203.296373 
L 128.936151 204.582692 
L 130.632715 205.678456 
L 132.329279 206.131771 
L 134.025844 207.236454 
L 135.722408 208.173232 
L 137.418972 208.08086 
L 139.115537 209.320646 
L 140.812101 211.057044 
L 142.508665 212.018182 
L 144.20523 212.294246 
L 145.901794 212.770039 
L 147.598358 214.042959 
L 149.294922 214.040114 
L 150.991487 214.856321 
L 152.688051 216.992236 
L 154.384615 216.746784 
L 156.08118 217.73233 
L 157.777744 217.754236 
L 159.474308 218.000504 
L 161.170873 219.144689 
L 164.564001 222.678329 
L 166.260566 221.82534 
L 167.95713 224.120595 
L 169.653694 223.019149 
L 171.350258 223.754312 
L 173.046823 222.991589 
L 174.743387 224.576882 
L 178.136516 225.556305 
L 179.83308 226.114386 
L 181.529644 226.550178 
L 184.922773 226.455583 
L 186.619337 227.600194 
L 188.315901 226.578019 
L 190.012466 227.439176 
L 191.70903 227.771665 
L 193.405594 228.636997 
L 195.102159 227.418643 
L 196.798723 228.112869 
L 198.495287 229.86374 
L 200.191852 229.475612 
L 201.888416 229.980861 
L 203.58498 229.703664 
L 205.281545 229.969323 
L 206.978109 230.7519 
L 208.674673 231.408073 
L 212.067802 230.799049 
L 213.764366 229.867936 
L 215.46093 231.747824 
L 217.157495 231.922987 
L 218.854059 229.767833 
L 220.550623 232.434643 
L 222.247188 232.05035 
L 223.943752 230.217075 
L 225.640316 232.269963 
L 227.336881 234.750931 
L 229.033445 231.59613 
L 230.730009 232.949691 
L 232.426573 233.609821 
L 235.819702 235.233045 
L 237.516266 235.201002 
L 239.212831 233.536159 
L 240.909395 235.499455 
L 242.605959 234.993887 
L 244.302524 234.181032 
L 245.999088 234.294903 
L 247.695652 231.773839 
L 249.392216 231.597026 
L 251.088781 235.695203 
L 252.785345 233.953776 
L 254.481909 232.046143 
L 256.178474 234.974435 
L 257.875038 236.930844 
L 259.571602 234.220945 
L 261.268167 236.081414 
L 262.964731 235.496165 
L 264.661295 236.981144 
L 266.35786 236.550423 
L 268.054424 233.659246 
L 269.750988 234.980689 
L 271.447552 234.95361 
L 273.144117 236.804676 
L 274.840681 236.688808 
L 276.537245 237.813083 
L 278.23381 236.641441 
L 279.930374 237.664313 
L 281.626938 237.28925 
L 283.323503 236.312227 
L 285.020067 236.841628 
L 286.716631 237.060161 
L 288.413196 234.670665 
L 290.10976 238.049033 
L 291.806324 233.780281 
L 293.502888 236.893727 
L 295.199453 235.585587 
L 296.896017 235.268707 
L 298.592581 238.024966 
L 300.289146 237.878666 
L 301.98571 236.188269 
L 303.682274 236.915502 
L 305.378839 239.305335 
L 307.075403 237.122312 
L 308.771967 238.9498 
L 310.468531 236.526863 
L 312.165096 236.83555 
L 313.86166 238.949743 
L 315.558224 237.768559 
L 317.254789 238.918453 
L 318.951353 237.06801 
L 320.647917 238.87241 
L 322.344482 239.938789 
L 324.041046 237.816563 
L 325.73761 240.232628 
L 327.434175 239.835208 
L 329.130739 237.688819 
L 330.827303 239.249468 
L 332.523867 237.105937 
L 334.220432 238.405014 
L 335.916996 239.422212 
L 339.310125 238.311232 
L 341.006689 238.59163 
L 342.703253 238.430255 
L 344.399818 238.679842 
L 347.792946 239.909205 
L 349.48951 239.524077 
L 351.186075 238.258118 
L 352.882639 239.160476 
L 354.579203 240.554616 
L 356.275768 238.813218 
L 357.972332 238.412324 
L 359.668896 239.483255 
L 361.365461 239.350445 
L 363.062025 239.650725 
L 364.758589 239.805229 
L 366.455154 239.159998 
L 368.151718 239.543358 
L 369.848282 238.308239 
L 371.544846 239.75763 
L 373.241411 239.537511 
L 374.937975 237.789751 
L 376.634539 240.399769 
L 378.331104 241.219807 
L 380.027668 236.893902 
L 381.724232 238.065565 
L 383.420797 238.958526 
L 385.117361 239.405694 
L 386.813925 238.874026 
L 388.51049 241.43979 
L 390.207054 239.630964 
L 391.903618 236.222017 
L 395.296747 242.336159 
L 396.993311 238.297082 
L 398.689875 238.213717 
L 400.38644 238.374269 
L 402.083004 239.949402 
L 403.779568 240.331745 
L 405.476133 237.215007 
L 407.172697 239.617545 
L 408.869261 238.857721 
L 410.565825 238.969032 
L 412.26239 239.877551 
L 413.958954 238.362119 
L 415.655518 240.286901 
L 417.352083 238.790742 
L 419.048647 238.773126 
L 420.745211 238.514564 
L 422.441776 240.140498 
L 424.13834 237.522848 
L 425.834904 239.634687 
L 427.531469 237.342664 
L 429.228033 243.637863 
L 430.924597 238.608348 
L 432.621161 238.739147 
L 434.317726 240.78641 
L 436.01429 239.774802 
L 437.710854 242.530831 
L 439.407419 237.724804 
L 441.103983 240.70282 
L 442.800547 238.761888 
L 444.497112 239.153953 
L 446.193676 240.770407 
L 447.89024 238.617753 
L 449.586804 243.424483 
L 451.283369 236.434937 
L 452.979933 242.907315 
L 454.676497 237.61392 
L 456.373062 237.284926 
L 459.76619 240.003832 
L 461.462755 241.05974 
L 463.159319 238.977975 
L 464.855883 242.098377 
L 466.552448 240.408281 
L 468.249012 241.626697 
L 469.945576 240.094971 
L 473.338705 239.856303 
L 475.035269 241.715766 
L 476.731833 240.131333 
L 478.428398 240.145403 
L 480.124962 241.890986 
L 481.821526 240.508179 
L 483.518091 239.738888 
L 486.911219 242.893215 
L 488.607784 238.935526 
L 490.304348 239.788198 
L 492.000912 238.191844 
L 493.697476 241.759515 
L 495.394041 238.684541 
L 497.090605 240.915927 
L 500.483734 242.236919 
L 502.180298 241.243748 
L 503.876862 238.577071 
L 505.573427 239.477954 
L 507.269991 242.363284 
L 508.966555 240.514204 
L 510.663119 239.758803 
L 512.359684 243.394483 
L 514.056248 240.87536 
L 515.752812 241.666858 
L 517.449377 241.773911 
L 519.145941 242.851134 
L 520.842505 238.076767 
L 522.53907 241.600894 
L 524.235634 241.949366 
L 525.932198 237.696792 
L 527.628763 240.363507 
L 529.325327 239.627285 
L 531.021891 237.127022 
L 532.718455 242.303757 
L 534.41502 239.798804 
L 536.111584 241.287214 
L 537.808148 241.207296 
L 539.504713 240.474091 
L 541.201277 239.377007 
L 542.897841 241.431691 
L 544.594406 240.595389 
L 546.29097 241.082616 
L 547.987534 239.518149 
L 549.684099 239.32666 
L 551.380663 240.867524 
L 553.077227 238.087905 
L 554.773791 241.777259 
L 556.470356 238.179735 
L 558.16692 239.542563 
L 559.863484 240.256584 
L 561.560049 240.477821 
L 563.256613 241.720213 
L 564.953177 236.28683 
L 566.649742 243.062852 
L 568.346306 239.681279 
L 570.04287 240.273726 
L 571.739434 239.944122 
L 575.132563 243.869526 
L 576.829127 238.052009 
L 578.525692 245.041402 
L 580.222256 238.934573 
L 581.91882 241.112612 
L 583.615385 242.805053 
L 585.311949 241.771614 
L 587.008513 241.67519 
L 588.705078 242.293714 
L 590.401642 243.036907 
L 592.098206 244.627368 
L 593.79477 240.562787 
L 595.491335 242.543162 
L 597.187899 242.111589 
L 598.884463 240.977274 
L 600.581028 240.409976 
L 602.277592 242.123635 
L 603.974156 243.090834 
L 605.670721 242.330682 
L 607.367285 242.450899 
L 609.063849 243.63057 
L 610.760413 237.812211 
L 612.456978 244.287627 
L 614.153542 244.109876 
L 615.850106 239.754979 
L 617.546671 238.442646 
L 619.243235 242.019047 
L 620.939799 241.114122 
L 622.636364 244.022256 
L 622.636364 244.022256 
" clip-path="url(#pe08eaa7a84)" style="fill: none; stroke: #d62728; stroke-width: 1.5; stroke-linecap: square"/>
   </g>
   <g id="patch_3">
    <path d="M 90 320.4 
L 90 43.2 
" style="fill: none; stroke: #000000; stroke-width: 0.8; stroke-linejoin: miter; stroke-linecap: square"/>
   </g>
   <g id="patch_4">
    <path d="M 648 320.4 
L 648 43.2 
" style="fill: none; stroke: #000000; stroke-width: 0.8; stroke-linejoin: miter; stroke-linecap: square"/>
   </g>
   <g id="patch_5">
    <path d="M 90 320.4 
L 648 320.4 
" style="fill: none; stroke: #000000; stroke-width: 0.8; stroke-linejoin: miter; stroke-linecap: square"/>
   </g>
   <g id="patch_6">
    <path d="M 90 43.2 
L 648 43.2 
" style="fill: none; stroke: #000000; stroke-width: 0.8; stroke-linejoin: miter; stroke-linecap: square"/>
   </g>
   <g id="text_13">
    <!-- Training and Validating Estimation Loss -->
    <g transform="translate(251.535937 37.2) scale(0.12 -0.12)">
     <defs>
      <path id="DejaVuSans-54" d="M -19 4666 
L 3928 4666 
L 3928 4134 
L 2272 4134 
L 2272 0 
L 1638 0 
L 1638 4134 
L -19 4134 
L -19 4666 
z
" transform="scale(0.015625)"/>
      <path id="DejaVuSans-72" d="M 2631 2963 
Q 2534 3019 2420 3045 
Q 2306 3072 2169 3072 
Q 1681 3072 1420 2755 
Q 1159 2438 1159 1844 
L 1159 0 
L 581 0 
L 581 3500 
L 1159 3500 
L 1159 2956 
Q 1341 3275 1631 3429 
Q 1922 3584 2338 3584 
Q 2397 3584 2469 3576 
Q 2541 3569 2628 3553 
L 2631 2963 
z
" transform="scale(0.015625)"/>
      <path id="DejaVuSans-67" d="M 2906 1791 
Q 2906 2416 2648 2759 
Q 2391 3103 1925 3103 
Q 1463 3103 1205 2759 
Q 947 2416 947 1791 
Q 947 1169 1205 825 
Q 1463 481 1925 481 
Q 2391 481 2648 825 
Q 2906 1169 2906 1791 
z
M 3481 434 
Q 3481 -459 3084 -895 
Q 2688 -1331 1869 -1331 
Q 1566 -1331 1297 -1286 
Q 1028 -1241 775 -1147 
L 775 -588 
Q 1028 -725 1275 -790 
Q 1522 -856 1778 -856 
Q 2344 -856 2625 -561 
Q 2906 -266 2906 331 
L 2906 616 
Q 2728 306 2450 153 
Q 2172 0 1784 0 
Q 1141 0 747 490 
Q 353 981 353 1791 
Q 353 2603 747 3093 
Q 1141 3584 1784 3584 
Q 2172 3584 2450 3431 
Q 2728 3278 2906 2969 
L 2906 3500 
L 3481 3500 
L 3481 434 
z
" transform="scale(0.015625)"/>
      <path id="DejaVuSans-64" d="M 2906 2969 
L 2906 4863 
L 3481 4863 
L 3481 0 
L 2906 0 
L 2906 525 
Q 2725 213 2448 61 
Q 2172 -91 1784 -91 
Q 1150 -91 751 415 
Q 353 922 353 1747 
Q 353 2572 751 3078 
Q 1150 3584 1784 3584 
Q 2172 3584 2448 3432 
Q 2725 3281 2906 2969 
z
M 947 1747 
Q 947 1113 1208 752 
Q 1469 391 1925 391 
Q 2381 391 2643 752 
Q 2906 1113 2906 1747 
Q 2906 2381 2643 2742 
Q 2381 3103 1925 3103 
Q 1469 3103 1208 2742 
Q 947 2381 947 1747 
z
" transform="scale(0.015625)"/>
      <path id="DejaVuSans-56" d="M 1831 0 
L 50 4666 
L 709 4666 
L 2188 738 
L 3669 4666 
L 4325 4666 
L 2547 0 
L 1831 0 
z
" transform="scale(0.015625)"/>
      <path id="DejaVuSans-6c" d="M 603 4863 
L 1178 4863 
L 1178 0 
L 603 0 
L 603 4863 
z
" transform="scale(0.015625)"/>
     </defs>
     <use xlink:href="#DejaVuSans-54"/>
     <use xlink:href="#DejaVuSans-72" transform="translate(46.333984 0)"/>
     <use xlink:href="#DejaVuSans-61" transform="translate(87.447266 0)"/>
     <use xlink:href="#DejaVuSans-69" transform="translate(148.726562 0)"/>
     <use xlink:href="#DejaVuSans-6e" transform="translate(176.509766 0)"/>
     <use xlink:href="#DejaVuSans-69" transform="translate(239.888672 0)"/>
     <use xlink:href="#DejaVuSans-6e" transform="translate(267.671875 0)"/>
     <use xlink:href="#DejaVuSans-67" transform="translate(331.050781 0)"/>
     <use xlink:href="#DejaVuSans-20" transform="translate(394.527344 0)"/>
     <use xlink:href="#DejaVuSans-61" transform="translate(426.314453 0)"/>
     <use xlink:href="#DejaVuSans-6e" transform="translate(487.59375 0)"/>
     <use xlink:href="#DejaVuSans-64" transform="translate(550.972656 0)"/>
     <use xlink:href="#DejaVuSans-20" transform="translate(614.449219 0)"/>
     <use xlink:href="#DejaVuSans-56" transform="translate(646.236328 0)"/>
     <use xlink:href="#DejaVuSans-61" transform="translate(706.894531 0)"/>
     <use xlink:href="#DejaVuSans-6c" transform="translate(768.173828 0)"/>
     <use xlink:href="#DejaVuSans-69" transform="translate(795.957031 0)"/>
     <use xlink:href="#DejaVuSans-64" transform="translate(823.740234 0)"/>
     <use xlink:href="#DejaVuSans-61" transform="translate(887.216797 0)"/>
     <use xlink:href="#DejaVuSans-74" transform="translate(948.496094 0)"/>
     <use xlink:href="#DejaVuSans-69" transform="translate(987.705078 0)"/>
     <use xlink:href="#DejaVuSans-6e" transform="translate(1015.488281 0)"/>
     <use xlink:href="#DejaVuSans-67" transform="translate(1078.867188 0)"/>
     <use xlink:href="#DejaVuSans-20" transform="translate(1142.34375 0)"/>
     <use xlink:href="#DejaVuSans-45" transform="translate(1174.130859 0)"/>
     <use xlink:href="#DejaVuSans-73" transform="translate(1237.314453 0)"/>
     <use xlink:href="#DejaVuSans-74" transform="translate(1289.414062 0)"/>
     <use xlink:href="#DejaVuSans-69" transform="translate(1328.623047 0)"/>
     <use xlink:href="#DejaVuSans-6d" transform="translate(1356.40625 0)"/>
     <use xlink:href="#DejaVuSans-61" transform="translate(1453.818359 0)"/>
     <use xlink:href="#DejaVuSans-74" transform="translate(1515.097656 0)"/>
     <use xlink:href="#DejaVuSans-69" transform="translate(1554.306641 0)"/>
     <use xlink:href="#DejaVuSans-6f" transform="translate(1582.089844 0)"/>
     <use xlink:href="#DejaVuSans-6e" transform="translate(1643.271484 0)"/>
     <use xlink:href="#DejaVuSans-20" transform="translate(1706.650391 0)"/>
     <use xlink:href="#DejaVuSans-4c" transform="translate(1738.4375 0)"/>
     <use xlink:href="#DejaVuSans-6f" transform="translate(1792.400391 0)"/>
     <use xlink:href="#DejaVuSans-73" transform="translate(1853.582031 0)"/>
     <use xlink:href="#DejaVuSans-73" transform="translate(1905.681641 0)"/>
    </g>
   </g>
   <g id="legend_1">
    <g id="patch_7">
     <path d="M 521.439062 109.9125 
L 641 109.9125 
Q 643 109.9125 643 107.9125 
L 643 50.2 
Q 643 48.2 641 48.2 
L 521.439062 48.2 
Q 519.439062 48.2 519.439062 50.2 
L 519.439062 107.9125 
Q 519.439062 109.9125 521.439062 109.9125 
z
" style="fill: #ffffff; opacity: 0.8; stroke: #cccccc; stroke-linejoin: miter"/>
    </g>
    <g id="line2d_15">
     <path d="M 523.439062 56.298437 
L 533.439062 56.298437 
L 543.439062 56.298437 
" style="fill: none; stroke: #1f77b4; stroke-width: 1.5; stroke-linecap: square"/>
    </g>
    <g id="text_14">
     <!-- Training-Source -->
     <g transform="translate(551.439062 59.798437) scale(0.1 -0.1)">
      <defs>
       <path id="DejaVuSans-2d" d="M 313 2009 
L 1997 2009 
L 1997 1497 
L 313 1497 
L 313 2009 
z
" transform="scale(0.015625)"/>
       <path id="DejaVuSans-53" d="M 3425 4513 
L 3425 3897 
Q 3066 4069 2747 4153 
Q 2428 4238 2131 4238 
Q 1616 4238 1336 4038 
Q 1056 3838 1056 3469 
Q 1056 3159 1242 3001 
Q 1428 2844 1947 2747 
L 2328 2669 
Q 3034 2534 3370 2195 
Q 3706 1856 3706 1288 
Q 3706 609 3251 259 
Q 2797 -91 1919 -91 
Q 1588 -91 1214 -16 
Q 841 59 441 206 
L 441 856 
Q 825 641 1194 531 
Q 1563 422 1919 422 
Q 2459 422 2753 634 
Q 3047 847 3047 1241 
Q 3047 1584 2836 1778 
Q 2625 1972 2144 2069 
L 1759 2144 
Q 1053 2284 737 2584 
Q 422 2884 422 3419 
Q 422 4038 858 4394 
Q 1294 4750 2059 4750 
Q 2388 4750 2728 4690 
Q 3069 4631 3425 4513 
z
" transform="scale(0.015625)"/>
       <path id="DejaVuSans-75" d="M 544 1381 
L 544 3500 
L 1119 3500 
L 1119 1403 
Q 1119 906 1312 657 
Q 1506 409 1894 409 
Q 2359 409 2629 706 
Q 2900 1003 2900 1516 
L 2900 3500 
L 3475 3500 
L 3475 0 
L 2900 0 
L 2900 538 
Q 2691 219 2414 64 
Q 2138 -91 1772 -91 
Q 1169 -91 856 284 
Q 544 659 544 1381 
z
M 1991 3584 
L 1991 3584 
z
" transform="scale(0.015625)"/>
       <path id="DejaVuSans-65" d="M 3597 1894 
L 3597 1613 
L 953 1613 
Q 991 1019 1311 708 
Q 1631 397 2203 397 
Q 2534 397 2845 478 
Q 3156 559 3463 722 
L 3463 178 
Q 3153 47 2828 -22 
Q 2503 -91 2169 -91 
Q 1331 -91 842 396 
Q 353 884 353 1716 
Q 353 2575 817 3079 
Q 1281 3584 2069 3584 
Q 2775 3584 3186 3129 
Q 3597 2675 3597 1894 
z
M 3022 2063 
Q 3016 2534 2758 2815 
Q 2500 3097 2075 3097 
Q 1594 3097 1305 2825 
Q 1016 2553 972 2059 
L 3022 2063 
z
" transform="scale(0.015625)"/>
      </defs>
      <use xlink:href="#DejaVuSans-54"/>
      <use xlink:href="#DejaVuSans-72" transform="translate(46.333984 0)"/>
      <use xlink:href="#DejaVuSans-61" transform="translate(87.447266 0)"/>
      <use xlink:href="#DejaVuSans-69" transform="translate(148.726562 0)"/>
      <use xlink:href="#DejaVuSans-6e" transform="translate(176.509766 0)"/>
      <use xlink:href="#DejaVuSans-69" transform="translate(239.888672 0)"/>
      <use xlink:href="#DejaVuSans-6e" transform="translate(267.671875 0)"/>
      <use xlink:href="#DejaVuSans-67" transform="translate(331.050781 0)"/>
      <use xlink:href="#DejaVuSans-2d" transform="translate(394.527344 0)"/>
      <use xlink:href="#DejaVuSans-53" transform="translate(430.611328 0)"/>
      <use xlink:href="#DejaVuSans-6f" transform="translate(494.087891 0)"/>
      <use xlink:href="#DejaVuSans-75" transform="translate(555.269531 0)"/>
      <use xlink:href="#DejaVuSans-72" transform="translate(618.648438 0)"/>
      <use xlink:href="#DejaVuSans-63" transform="translate(657.511719 0)"/>
      <use xlink:href="#DejaVuSans-65" transform="translate(712.492188 0)"/>
     </g>
    </g>
    <g id="line2d_16">
     <path d="M 523.439062 70.976562 
L 533.439062 70.976562 
L 543.439062 70.976562 
" style="fill: none; stroke: #ff7f0e; stroke-width: 1.5; stroke-linecap: square"/>
    </g>
    <g id="text_15">
     <!-- Training-Target -->
     <g transform="translate(551.439062 74.476562) scale(0.1 -0.1)">
      <use xlink:href="#DejaVuSans-54"/>
      <use xlink:href="#DejaVuSans-72" transform="translate(46.333984 0)"/>
      <use xlink:href="#DejaVuSans-61" transform="translate(87.447266 0)"/>
      <use xlink:href="#DejaVuSans-69" transform="translate(148.726562 0)"/>
      <use xlink:href="#DejaVuSans-6e" transform="translate(176.509766 0)"/>
      <use xlink:href="#DejaVuSans-69" transform="translate(239.888672 0)"/>
      <use xlink:href="#DejaVuSans-6e" transform="translate(267.671875 0)"/>
      <use xlink:href="#DejaVuSans-67" transform="translate(331.050781 0)"/>
      <use xlink:href="#DejaVuSans-2d" transform="translate(394.527344 0)"/>
      <use xlink:href="#DejaVuSans-54" transform="translate(421.486328 0)"/>
      <use xlink:href="#DejaVuSans-61" transform="translate(466.070312 0)"/>
      <use xlink:href="#DejaVuSans-72" transform="translate(527.349609 0)"/>
      <use xlink:href="#DejaVuSans-67" transform="translate(566.712891 0)"/>
      <use xlink:href="#DejaVuSans-65" transform="translate(630.189453 0)"/>
      <use xlink:href="#DejaVuSans-74" transform="translate(691.712891 0)"/>
     </g>
    </g>
    <g id="line2d_17">
     <path d="M 523.439062 85.654687 
L 533.439062 85.654687 
L 543.439062 85.654687 
" style="fill: none; stroke: #2ca02c; stroke-width: 1.5; stroke-linecap: square"/>
    </g>
    <g id="text_16">
     <!-- Validating-Source -->
     <g transform="translate(551.439062 89.154687) scale(0.1 -0.1)">
      <use xlink:href="#DejaVuSans-56"/>
      <use xlink:href="#DejaVuSans-61" transform="translate(60.658203 0)"/>
      <use xlink:href="#DejaVuSans-6c" transform="translate(121.9375 0)"/>
      <use xlink:href="#DejaVuSans-69" transform="translate(149.720703 0)"/>
      <use xlink:href="#DejaVuSans-64" transform="translate(177.503906 0)"/>
      <use xlink:href="#DejaVuSans-61" transform="translate(240.980469 0)"/>
      <use xlink:href="#DejaVuSans-74" transform="translate(302.259766 0)"/>
      <use xlink:href="#DejaVuSans-69" transform="translate(341.46875 0)"/>
      <use xlink:href="#DejaVuSans-6e" transform="translate(369.251953 0)"/>
      <use xlink:href="#DejaVuSans-67" transform="translate(432.630859 0)"/>
      <use xlink:href="#DejaVuSans-2d" transform="translate(496.107422 0)"/>
      <use xlink:href="#DejaVuSans-53" transform="translate(532.191406 0)"/>
      <use xlink:href="#DejaVuSans-6f" transform="translate(595.667969 0)"/>
      <use xlink:href="#DejaVuSans-75" transform="translate(656.849609 0)"/>
      <use xlink:href="#DejaVuSans-72" transform="translate(720.228516 0)"/>
      <use xlink:href="#DejaVuSans-63" transform="translate(759.091797 0)"/>
      <use xlink:href="#DejaVuSans-65" transform="translate(814.072266 0)"/>
     </g>
    </g>
    <g id="line2d_18">
     <path d="M 523.439062 100.332812 
L 533.439062 100.332812 
L 543.439062 100.332812 
" style="fill: none; stroke: #d62728; stroke-width: 1.5; stroke-linecap: square"/>
    </g>
    <g id="text_17">
     <!-- Validating-Target -->
     <g transform="translate(551.439062 103.832812) scale(0.1 -0.1)">
      <use xlink:href="#DejaVuSans-56"/>
      <use xlink:href="#DejaVuSans-61" transform="translate(60.658203 0)"/>
      <use xlink:href="#DejaVuSans-6c" transform="translate(121.9375 0)"/>
      <use xlink:href="#DejaVuSans-69" transform="translate(149.720703 0)"/>
      <use xlink:href="#DejaVuSans-64" transform="translate(177.503906 0)"/>
      <use xlink:href="#DejaVuSans-61" transform="translate(240.980469 0)"/>
      <use xlink:href="#DejaVuSans-74" transform="translate(302.259766 0)"/>
      <use xlink:href="#DejaVuSans-69" transform="translate(341.46875 0)"/>
      <use xlink:href="#DejaVuSans-6e" transform="translate(369.251953 0)"/>
      <use xlink:href="#DejaVuSans-67" transform="translate(432.630859 0)"/>
      <use xlink:href="#DejaVuSans-2d" transform="translate(496.107422 0)"/>
      <use xlink:href="#DejaVuSans-54" transform="translate(523.066406 0)"/>
      <use xlink:href="#DejaVuSans-61" transform="translate(567.650391 0)"/>
      <use xlink:href="#DejaVuSans-72" transform="translate(628.929688 0)"/>
      <use xlink:href="#DejaVuSans-67" transform="translate(668.292969 0)"/>
      <use xlink:href="#DejaVuSans-65" transform="translate(731.769531 0)"/>
      <use xlink:href="#DejaVuSans-74" transform="translate(793.292969 0)"/>
     </g>
    </g>
   </g>
  </g>
 </g>
 <defs>
  <clipPath id="pe08eaa7a84">
   <rect x="90" y="43.2" width="558" height="277.2"/>
  </clipPath>
 </defs>
</svg>
