<?xml version="1.0" encoding="utf-8" standalone="no"?>
<!DOCTYPE svg PUBLIC "-//W3C//DTD SVG 1.1//EN"
  "http://www.w3.org/Graphics/SVG/1.1/DTD/svg11.dtd">
<svg xmlns:xlink="http://www.w3.org/1999/xlink" width="720pt" height="360pt" viewBox="0 0 720 360" xmlns="http://www.w3.org/2000/svg" version="1.1">
 <metadata>
  <rdf:RDF xmlns:dc="http://purl.org/dc/elements/1.1/" xmlns:cc="http://creativecommons.org/ns#" xmlns:rdf="http://www.w3.org/1999/02/22-rdf-syntax-ns#">
   <cc:Work>
    <dc:type rdf:resource="http://purl.org/dc/dcmitype/StillImage"/>
    <dc:date>2026-02-16T20:15:40.604329</dc:date>
    <dc:format>image/svg+xml</dc:format>
    <dc:creator>
     <cc:Agent>
      <dc:title>Matplotlib v3.10.1, https://matplotlib.org/</dc:title>
     </cc:Agent>
    </dc:creator>
   </cc:Work>
  </rdf:RDF>
 </metadata>
 <defs>
  <style type="text/css">*{stroke-linejoin: round; stroke-linecap: butt}</style>
 </defs>
 <g id="figure_1">
  <g id="patch_1">
   <path d="M 0 360 
L 720 360 
L 720 0 
L 0 0 
z
" style="fill: #ffffff"/>
  </g>
  <g id="axes_1">
   <g id="patch_2">
    <path d="M 90 320.4 
L 648 320.4 
L 648 43.2 
L 90 43.2 
z
" style="fill: #ffffff"/>
   </g>
   <g id="matplotlib.axis_1">
    <g id="xtick_1">
     <g id="line2d_1">
      <defs>
       <path id="m211d70420a" d="M 0 0 
L 0 3.5 
" style="stroke: #000000; stroke-width: 0.8"/>
      </defs>
      <g>
       <use xlink:href="#m211d70420a" x="115.363636" y="320.4" style="stroke: #000000; stroke-width: 0.8"/>
      </g>
     </g>
     <g id="text_1">
      <!-- 0 -->
      <g transform="translate(112.182386 334.998438) scale(0.1 -0.1)">
       <defs>
        <path id="DejaVuSans-30" d="M 2034 4250 
Q 1547 4250 1301 3770 
Q 1056 3291 1056 2328 
Q 1056 1369 1301 889 
Q 1547 409 2034 409 
Q 2525 409 2770 889 
Q 3016 1369 3016 2328 
Q 3016 3291 2770 3770 
Q 2525 4250 2034 4250 
z
M 2034 4750 
Q 2819 4750 3233 4129 
Q 3647 3509 3647 2328 
Q 3647 1150 3233 529 
Q 2819 -91 2034 -91 
Q 1250 -91 836 529 
Q 422 1150 422 2328 
Q 422 3509 836 4129 
Q 1250 4750 2034 4750 
z
" transform="scale(0.015625)"/>
       </defs>
       <use xlink:href="#DejaVuSans-30"/>
      </g>
     </g>
    </g>
    <g id="xtick_2">
     <g id="line2d_2">
      <g>
       <use xlink:href="#m211d70420a" x="217.195336" y="320.4" style="stroke: #000000; stroke-width: 0.8"/>
      </g>
     </g>
     <g id="text_2">
      <!-- 54 -->
      <g transform="translate(210.832836 334.998438) scale(0.1 -0.1)">
       <defs>
        <path id="DejaVuSans-35" d="M 691 4666 
L 3169 4666 
L 3169 4134 
L 1269 4134 
L 1269 2991 
Q 1406 3038 1543 3061 
Q 1681 3084 1819 3084 
Q 2600 3084 3056 2656 
Q 3513 2228 3513 1497 
Q 3513 744 3044 326 
Q 2575 -91 1722 -91 
Q 1428 -91 1123 -41 
Q 819 9 494 109 
L 494 744 
Q 775 591 1075 516 
Q 1375 441 1709 441 
Q 2250 441 2565 725 
Q 2881 1009 2881 1497 
Q 2881 1984 2565 2268 
Q 2250 2553 1709 2553 
Q 1456 2553 1204 2497 
Q 953 2441 691 2322 
L 691 4666 
z
" transform="scale(0.015625)"/>
        <path id="DejaVuSans-34" d="M 2419 4116 
L 825 1625 
L 2419 1625 
L 2419 4116 
z
M 2253 4666 
L 3047 4666 
L 3047 1625 
L 3713 1625 
L 3713 1100 
L 3047 1100 
L 3047 0 
L 2419 0 
L 2419 1100 
L 313 1100 
L 313 1709 
L 2253 4666 
z
" transform="scale(0.015625)"/>
       </defs>
       <use xlink:href="#DejaVuSans-35"/>
       <use xlink:href="#DejaVuSans-34" transform="translate(63.623047 0)"/>
      </g>
     </g>
    </g>
    <g id="xtick_3">
     <g id="line2d_3">
      <g>
       <use xlink:href="#m211d70420a" x="319.027036" y="320.4" style="stroke: #000000; stroke-width: 0.8"/>
      </g>
     </g>
     <g id="text_3">
      <!-- 108 -->
      <g transform="translate(309.483286 334.998438) scale(0.1 -0.1)">
       <defs>
        <path id="DejaVuSans-31" d="M 794 531 
L 1825 531 
L 1825 4091 
L 703 3866 
L 703 4441 
L 1819 4666 
L 2450 4666 
L 2450 531 
L 3481 531 
L 3481 0 
L 794 0 
L 794 531 
z
" transform="scale(0.015625)"/>
        <path id="DejaVuSans-38" d="M 2034 2216 
Q 1584 2216 1326 1975 
Q 1069 1734 1069 1313 
Q 1069 891 1326 650 
Q 1584 409 2034 409 
Q 2484 409 2743 651 
Q 3003 894 3003 1313 
Q 3003 1734 2745 1975 
Q 2488 2216 2034 2216 
z
M 1403 2484 
Q 997 2584 770 2862 
Q 544 3141 544 3541 
Q 544 4100 942 4425 
Q 1341 4750 2034 4750 
Q 2731 4750 3128 4425 
Q 3525 4100 3525 3541 
Q 3525 3141 3298 2862 
Q 3072 2584 2669 2484 
Q 3125 2378 3379 2068 
Q 3634 1759 3634 1313 
Q 3634 634 3220 271 
Q 2806 -91 2034 -91 
Q 1263 -91 848 271 
Q 434 634 434 1313 
Q 434 1759 690 2068 
Q 947 2378 1403 2484 
z
M 1172 3481 
Q 1172 3119 1398 2916 
Q 1625 2713 2034 2713 
Q 2441 2713 2670 2916 
Q 2900 3119 2900 3481 
Q 2900 3844 2670 4047 
Q 2441 4250 2034 4250 
Q 1625 4250 1398 4047 
Q 1172 3844 1172 3481 
z
" transform="scale(0.015625)"/>
       </defs>
       <use xlink:href="#DejaVuSans-31"/>
       <use xlink:href="#DejaVuSans-30" transform="translate(63.623047 0)"/>
       <use xlink:href="#DejaVuSans-38" transform="translate(127.246094 0)"/>
      </g>
     </g>
    </g>
    <g id="xtick_4">
     <g id="line2d_4">
      <g>
       <use xlink:href="#m211d70420a" x="420.858736" y="320.4" style="stroke: #000000; stroke-width: 0.8"/>
      </g>
     </g>
     <g id="text_4">
      <!-- 162 -->
      <g transform="translate(411.314986 334.998438) scale(0.1 -0.1)">
       <defs>
        <path id="DejaVuSans-36" d="M 2113 2584 
Q 1688 2584 1439 2293 
Q 1191 2003 1191 1497 
Q 1191 994 1439 701 
Q 1688 409 2113 409 
Q 2538 409 2786 701 
Q 3034 994 3034 1497 
Q 3034 2003 2786 2293 
Q 2538 2584 2113 2584 
z
M 3366 4563 
L 3366 3988 
Q 3128 4100 2886 4159 
Q 2644 4219 2406 4219 
Q 1781 4219 1451 3797 
Q 1122 3375 1075 2522 
Q 1259 2794 1537 2939 
Q 1816 3084 2150 3084 
Q 2853 3084 3261 2657 
Q 3669 2231 3669 1497 
Q 3669 778 3244 343 
Q 2819 -91 2113 -91 
Q 1303 -91 875 529 
Q 447 1150 447 2328 
Q 447 3434 972 4092 
Q 1497 4750 2381 4750 
Q 2619 4750 2861 4703 
Q 3103 4656 3366 4563 
z
" transform="scale(0.015625)"/>
        <path id="DejaVuSans-32" d="M 1228 531 
L 3431 531 
L 3431 0 
L 469 0 
L 469 531 
Q 828 903 1448 1529 
Q 2069 2156 2228 2338 
Q 2531 2678 2651 2914 
Q 2772 3150 2772 3378 
Q 2772 3750 2511 3984 
Q 2250 4219 1831 4219 
Q 1534 4219 1204 4116 
Q 875 4013 500 3803 
L 500 4441 
Q 881 4594 1212 4672 
Q 1544 4750 1819 4750 
Q 2544 4750 2975 4387 
Q 3406 4025 3406 3419 
Q 3406 3131 3298 2873 
Q 3191 2616 2906 2266 
Q 2828 2175 2409 1742 
Q 1991 1309 1228 531 
z
" transform="scale(0.015625)"/>
       </defs>
       <use xlink:href="#DejaVuSans-31"/>
       <use xlink:href="#DejaVuSans-36" transform="translate(63.623047 0)"/>
       <use xlink:href="#DejaVuSans-32" transform="translate(127.246094 0)"/>
      </g>
     </g>
    </g>
    <g id="xtick_5">
     <g id="line2d_5">
      <g>
       <use xlink:href="#m211d70420a" x="522.690436" y="320.4" style="stroke: #000000; stroke-width: 0.8"/>
      </g>
     </g>
     <g id="text_5">
      <!-- 216 -->
      <g transform="translate(513.146686 334.998438) scale(0.1 -0.1)">
       <use xlink:href="#DejaVuSans-32"/>
       <use xlink:href="#DejaVuSans-31" transform="translate(63.623047 0)"/>
       <use xlink:href="#DejaVuSans-36" transform="translate(127.246094 0)"/>
      </g>
     </g>
    </g>
    <g id="text_6">
     <!-- Epoch -->
     <g transform="translate(353.689062 348.676562) scale(0.1 -0.1)">
      <defs>
       <path id="DejaVuSans-45" d="M 628 4666 
L 3578 4666 
L 3578 4134 
L 1259 4134 
L 1259 2753 
L 3481 2753 
L 3481 2222 
L 1259 2222 
L 1259 531 
L 3634 531 
L 3634 0 
L 628 0 
L 628 4666 
z
" transform="scale(0.015625)"/>
       <path id="DejaVuSans-70" d="M 1159 525 
L 1159 -1331 
L 581 -1331 
L 581 3500 
L 1159 3500 
L 1159 2969 
Q 1341 3281 1617 3432 
Q 1894 3584 2278 3584 
Q 2916 3584 3314 3078 
Q 3713 2572 3713 1747 
Q 3713 922 3314 415 
Q 2916 -91 2278 -91 
Q 1894 -91 1617 61 
Q 1341 213 1159 525 
z
M 3116 1747 
Q 3116 2381 2855 2742 
Q 2594 3103 2138 3103 
Q 1681 3103 1420 2742 
Q 1159 2381 1159 1747 
Q 1159 1113 1420 752 
Q 1681 391 2138 391 
Q 2594 391 2855 752 
Q 3116 1113 3116 1747 
z
" transform="scale(0.015625)"/>
       <path id="DejaVuSans-6f" d="M 1959 3097 
Q 1497 3097 1228 2736 
Q 959 2375 959 1747 
Q 959 1119 1226 758 
Q 1494 397 1959 397 
Q 2419 397 2687 759 
Q 2956 1122 2956 1747 
Q 2956 2369 2687 2733 
Q 2419 3097 1959 3097 
z
M 1959 3584 
Q 2709 3584 3137 3096 
Q 3566 2609 3566 1747 
Q 3566 888 3137 398 
Q 2709 -91 1959 -91 
Q 1206 -91 779 398 
Q 353 888 353 1747 
Q 353 2609 779 3096 
Q 1206 3584 1959 3584 
z
" transform="scale(0.015625)"/>
       <path id="DejaVuSans-63" d="M 3122 3366 
L 3122 2828 
Q 2878 2963 2633 3030 
Q 2388 3097 2138 3097 
Q 1578 3097 1268 2742 
Q 959 2388 959 1747 
Q 959 1106 1268 751 
Q 1578 397 2138 397 
Q 2388 397 2633 464 
Q 2878 531 3122 666 
L 3122 134 
Q 2881 22 2623 -34 
Q 2366 -91 2075 -91 
Q 1284 -91 818 406 
Q 353 903 353 1747 
Q 353 2603 823 3093 
Q 1294 3584 2113 3584 
Q 2378 3584 2631 3529 
Q 2884 3475 3122 3366 
z
" transform="scale(0.015625)"/>
       <path id="DejaVuSans-68" d="M 3513 2113 
L 3513 0 
L 2938 0 
L 2938 2094 
Q 2938 2591 2744 2837 
Q 2550 3084 2163 3084 
Q 1697 3084 1428 2787 
Q 1159 2491 1159 1978 
L 1159 0 
L 581 0 
L 581 4863 
L 1159 4863 
L 1159 2956 
Q 1366 3272 1645 3428 
Q 1925 3584 2291 3584 
Q 2894 3584 3203 3211 
Q 3513 2838 3513 2113 
z
" transform="scale(0.015625)"/>
      </defs>
      <use xlink:href="#DejaVuSans-45"/>
      <use xlink:href="#DejaVuSans-70" transform="translate(63.183594 0)"/>
      <use xlink:href="#DejaVuSans-6f" transform="translate(126.660156 0)"/>
      <use xlink:href="#DejaVuSans-63" transform="translate(187.841797 0)"/>
      <use xlink:href="#DejaVuSans-68" transform="translate(242.822266 0)"/>
     </g>
    </g>
   </g>
   <g id="matplotlib.axis_2">
    <g id="ytick_1">
     <g id="line2d_6">
      <defs>
       <path id="mf3c474c574" d="M 0 0 
L -3.5 0 
" style="stroke: #000000; stroke-width: 0.8"/>
      </defs>
      <g>
       <use xlink:href="#mf3c474c574" x="90" y="289.385932" style="stroke: #000000; stroke-width: 0.8"/>
      </g>
     </g>
     <g id="text_7">
      <!-- 0.02 -->
      <g transform="translate(60.734375 293.185151) scale(0.1 -0.1)">
       <defs>
        <path id="DejaVuSans-2e" d="M 684 794 
L 1344 794 
L 1344 0 
L 684 0 
L 684 794 
z
" transform="scale(0.015625)"/>
       </defs>
       <use xlink:href="#DejaVuSans-30"/>
       <use xlink:href="#DejaVuSans-2e" transform="translate(63.623047 0)"/>
       <use xlink:href="#DejaVuSans-30" transform="translate(95.410156 0)"/>
       <use xlink:href="#DejaVuSans-32" transform="translate(159.033203 0)"/>
      </g>
     </g>
    </g>
    <g id="ytick_2">
     <g id="line2d_7">
      <g>
       <use xlink:href="#mf3c474c574" x="90" y="236.37695" style="stroke: #000000; stroke-width: 0.8"/>
      </g>
     </g>
     <g id="text_8">
      <!-- 0.04 -->
      <g transform="translate(60.734375 240.176169) scale(0.1 -0.1)">
       <use xlink:href="#DejaVuSans-30"/>
       <use xlink:href="#DejaVuSans-2e" transform="translate(63.623047 0)"/>
       <use xlink:href="#DejaVuSans-30" transform="translate(95.410156 0)"/>
       <use xlink:href="#DejaVuSans-34" transform="translate(159.033203 0)"/>
      </g>
     </g>
    </g>
    <g id="ytick_3">
     <g id="line2d_8">
      <g>
       <use xlink:href="#mf3c474c574" x="90" y="183.367968" style="stroke: #000000; stroke-width: 0.8"/>
      </g>
     </g>
     <g id="text_9">
      <!-- 0.06 -->
      <g transform="translate(60.734375 187.167186) scale(0.1 -0.1)">
       <use xlink:href="#DejaVuSans-30"/>
       <use xlink:href="#DejaVuSans-2e" transform="translate(63.623047 0)"/>
       <use xlink:href="#DejaVuSans-30" transform="translate(95.410156 0)"/>
       <use xlink:href="#DejaVuSans-36" transform="translate(159.033203 0)"/>
      </g>
     </g>
    </g>
    <g id="ytick_4">
     <g id="line2d_9">
      <g>
       <use xlink:href="#mf3c474c574" x="90" y="130.358986" style="stroke: #000000; stroke-width: 0.8"/>
      </g>
     </g>
     <g id="text_10">
      <!-- 0.08 -->
      <g transform="translate(60.734375 134.158204) scale(0.1 -0.1)">
       <use xlink:href="#DejaVuSans-30"/>
       <use xlink:href="#DejaVuSans-2e" transform="translate(63.623047 0)"/>
       <use xlink:href="#DejaVuSans-30" transform="translate(95.410156 0)"/>
       <use xlink:href="#DejaVuSans-38" transform="translate(159.033203 0)"/>
      </g>
     </g>
    </g>
    <g id="ytick_5">
     <g id="line2d_10">
      <g>
       <use xlink:href="#mf3c474c574" x="90" y="77.350003" style="stroke: #000000; stroke-width: 0.8"/>
      </g>
     </g>
     <g id="text_11">
      <!-- 0.10 -->
      <g transform="translate(60.734375 81.149222) scale(0.1 -0.1)">
       <use xlink:href="#DejaVuSans-30"/>
       <use xlink:href="#DejaVuSans-2e" transform="translate(63.623047 0)"/>
       <use xlink:href="#DejaVuSans-31" transform="translate(95.410156 0)"/>
       <use xlink:href="#DejaVuSans-30" transform="translate(159.033203 0)"/>
      </g>
     </g>
    </g>
    <g id="text_12">
     <!-- Total Loss -->
     <g transform="translate(54.654687 206.032812) rotate(-90) scale(0.1 -0.1)">
      <defs>
       <path id="DejaVuSans-54" d="M -19 4666 
L 3928 4666 
L 3928 4134 
L 2272 4134 
L 2272 0 
L 1638 0 
L 1638 4134 
L -19 4134 
L -19 4666 
z
" transform="scale(0.015625)"/>
       <path id="DejaVuSans-74" d="M 1172 4494 
L 1172 3500 
L 2356 3500 
L 2356 3053 
L 1172 3053 
L 1172 1153 
Q 1172 725 1289 603 
Q 1406 481 1766 481 
L 2356 481 
L 2356 0 
L 1766 0 
Q 1100 0 847 248 
Q 594 497 594 1153 
L 594 3053 
L 172 3053 
L 172 3500 
L 594 3500 
L 594 4494 
L 1172 4494 
z
" transform="scale(0.015625)"/>
       <path id="DejaVuSans-61" d="M 2194 1759 
Q 1497 1759 1228 1600 
Q 959 1441 959 1056 
Q 959 750 1161 570 
Q 1363 391 1709 391 
Q 2188 391 2477 730 
Q 2766 1069 2766 1631 
L 2766 1759 
L 2194 1759 
z
M 3341 1997 
L 3341 0 
L 2766 0 
L 2766 531 
Q 2569 213 2275 61 
Q 1981 -91 1556 -91 
Q 1019 -91 701 211 
Q 384 513 384 1019 
Q 384 1609 779 1909 
Q 1175 2209 1959 2209 
L 2766 2209 
L 2766 2266 
Q 2766 2663 2505 2880 
Q 2244 3097 1772 3097 
Q 1472 3097 1187 3025 
Q 903 2953 641 2809 
L 641 3341 
Q 956 3463 1253 3523 
Q 1550 3584 1831 3584 
Q 2591 3584 2966 3190 
Q 3341 2797 3341 1997 
z
" transform="scale(0.015625)"/>
       <path id="DejaVuSans-6c" d="M 603 4863 
L 1178 4863 
L 1178 0 
L 603 0 
L 603 4863 
z
" transform="scale(0.015625)"/>
       <path id="DejaVuSans-20" transform="scale(0.015625)"/>
       <path id="DejaVuSans-4c" d="M 628 4666 
L 1259 4666 
L 1259 531 
L 3531 531 
L 3531 0 
L 628 0 
L 628 4666 
z
" transform="scale(0.015625)"/>
       <path id="DejaVuSans-73" d="M 2834 3397 
L 2834 2853 
Q 2591 2978 2328 3040 
Q 2066 3103 1784 3103 
Q 1356 3103 1142 2972 
Q 928 2841 928 2578 
Q 928 2378 1081 2264 
Q 1234 2150 1697 2047 
L 1894 2003 
Q 2506 1872 2764 1633 
Q 3022 1394 3022 966 
Q 3022 478 2636 193 
Q 2250 -91 1575 -91 
Q 1294 -91 989 -36 
Q 684 19 347 128 
L 347 722 
Q 666 556 975 473 
Q 1284 391 1588 391 
Q 1994 391 2212 530 
Q 2431 669 2431 922 
Q 2431 1156 2273 1281 
Q 2116 1406 1581 1522 
L 1381 1569 
Q 847 1681 609 1914 
Q 372 2147 372 2553 
Q 372 3047 722 3315 
Q 1072 3584 1716 3584 
Q 2034 3584 2315 3537 
Q 2597 3491 2834 3397 
z
" transform="scale(0.015625)"/>
      </defs>
      <use xlink:href="#DejaVuSans-54"/>
      <use xlink:href="#DejaVuSans-6f" transform="translate(44.083984 0)"/>
      <use xlink:href="#DejaVuSans-74" transform="translate(105.265625 0)"/>
      <use xlink:href="#DejaVuSans-61" transform="translate(144.474609 0)"/>
      <use xlink:href="#DejaVuSans-6c" transform="translate(205.753906 0)"/>
      <use xlink:href="#DejaVuSans-20" transform="translate(233.537109 0)"/>
      <use xlink:href="#DejaVuSans-4c" transform="translate(265.324219 0)"/>
      <use xlink:href="#DejaVuSans-6f" transform="translate(319.287109 0)"/>
      <use xlink:href="#DejaVuSans-73" transform="translate(380.46875 0)"/>
      <use xlink:href="#DejaVuSans-73" transform="translate(432.568359 0)"/>
     </g>
    </g>
   </g>
   <g id="line2d_11">
    <path d="M 115.363636 273.880159 
L 117.249409 269.880708 
L 119.135181 264.27438 
L 121.020953 269.523787 
L 122.906725 266.260838 
L 124.792497 265.319871 
L 126.67827 264.831955 
L 128.564042 260.989687 
L 130.449814 266.250723 
L 132.335586 265.40008 
L 134.221359 263.685857 
L 136.107131 263.036677 
L 137.992903 268.306293 
L 139.878675 262.858138 
L 141.764447 263.615269 
L 143.65022 264.911847 
L 145.535992 255.089709 
L 147.421764 256.97812 
L 149.307536 259.624417 
L 151.193309 257.468388 
L 153.079081 257.916217 
L 154.964853 257.350994 
L 156.850625 253.690769 
L 158.736397 252.33601 
L 160.62217 248.457912 
L 162.507942 247.941655 
L 164.393714 237.114205 
L 166.279486 252.44517 
L 168.165259 257.258443 
L 170.051031 244.068333 
L 171.936803 236.509457 
L 173.822575 243.6985 
L 175.708347 242.202891 
L 177.59412 252.837563 
L 179.479892 236.310542 
L 181.365664 247.594747 
L 183.251436 246.165189 
L 185.137209 238.945213 
L 187.022981 239.824764 
L 190.794525 194.737519 
L 192.680297 224.570392 
L 194.56607 241.782066 
L 196.451842 244.724642 
L 198.337614 245.495601 
L 200.223386 241.645997 
L 202.109158 230.619259 
L 203.994931 235.988864 
L 205.880703 235.207223 
L 207.766475 228.066658 
L 209.652247 238.433032 
L 211.53802 243.551066 
L 213.423792 229.372121 
L 215.309564 245.345707 
L 217.195336 243.12383 
L 219.081108 240.054212 
L 220.966881 247.967138 
L 222.852653 244.770333 
L 224.738425 246.325905 
L 226.624197 240.634199 
L 228.50997 242.625711 
L 230.395742 234.726948 
L 232.281514 235.127502 
L 234.167286 235.899958 
L 236.053058 233.72853 
L 237.938831 215.228135 
L 239.824603 229.871271 
L 241.710375 232.80066 
L 243.596147 249.93534 
L 245.48192 244.969654 
L 247.367692 242.566418 
L 249.253464 250.094785 
L 251.139236 223.984126 
L 253.025008 233.19667 
L 254.910781 232.62644 
L 256.796553 240.436917 
L 258.682325 221.398006 
L 260.568097 224.834932 
L 262.45387 245.305788 
L 264.339642 240.913106 
L 266.225414 250.77112 
L 268.111186 251.991675 
L 269.996958 252.898282 
L 271.882731 249.692094 
L 273.768503 251.836111 
L 275.654275 259.176196 
L 277.540047 261.23828 
L 279.42582 260.542668 
L 281.311592 264.806229 
L 283.197364 265.261778 
L 285.083136 266.661515 
L 288.854681 259.260689 
L 290.740453 260.339755 
L 292.626225 266.558564 
L 294.511997 266.965986 
L 296.39777 267.743885 
L 298.283542 264.526625 
L 300.169314 264.84432 
L 302.055086 262.774918 
L 303.940858 261.935953 
L 305.826631 259.983859 
L 307.712403 254.179446 
L 309.598175 258.773003 
L 311.483947 255.817266 
L 313.369719 262.484454 
L 317.141264 264.479066 
L 319.027036 261.013862 
L 320.912808 266.003081 
L 322.798581 265.777793 
L 324.684353 266.915895 
L 326.570125 262.613992 
L 328.455897 266.729848 
L 330.341669 264.181552 
L 332.227442 268.055612 
L 334.113214 269.884401 
L 335.998986 271.296152 
L 337.884758 271.671423 
L 339.770531 264.917651 
L 341.656303 267.725453 
L 343.542075 271.908184 
L 347.313619 275.188863 
L 349.199392 274.49469 
L 351.085164 272.096125 
L 352.970936 260.784822 
L 354.856708 262.324621 
L 356.742481 266.026077 
L 358.628253 268.347129 
L 360.514025 265.656428 
L 362.399797 268.652226 
L 364.285569 269.55824 
L 366.171342 270.021874 
L 368.057114 272.827092 
L 369.942886 272.290082 
L 371.828658 274.683598 
L 373.714431 271.594969 
L 375.600203 272.452386 
L 377.485975 270.910309 
L 379.371747 273.14614 
L 381.257519 278.098625 
L 383.143292 270.383792 
L 385.029064 277.127689 
L 386.914836 274.090769 
L 388.800608 272.428045 
L 390.686381 276.823309 
L 392.572153 276.004366 
L 394.457925 273.460787 
L 396.343697 271.511261 
L 398.229469 271.279794 
L 400.115242 275.456048 
L 402.001014 266.496089 
L 403.886786 274.624895 
L 405.772558 271.652359 
L 407.658331 272.726685 
L 409.544103 273.213616 
L 411.429875 270.317804 
L 413.315647 272.264061 
L 415.201419 272.784922 
L 417.087192 278.697087 
L 418.972964 276.460668 
L 420.858736 277.411644 
L 422.744508 277.733823 
L 424.630281 277.663798 
L 426.516053 270.139389 
L 428.401825 275.948635 
L 430.287597 278.541447 
L 432.173369 271.394461 
L 434.059142 276.716133 
L 435.944914 269.476559 
L 439.716458 265.407441 
L 441.60223 273.832727 
L 443.488003 268.948136 
L 445.373775 275.64281 
L 447.259547 268.690753 
L 449.145319 266.335272 
L 451.031092 269.278395 
L 452.916864 265.939707 
L 454.802636 276.678653 
L 456.688408 273.539193 
L 458.57418 269.235031 
L 460.459953 272.794392 
L 462.345725 269.975733 
L 464.231497 272.967906 
L 466.117269 271.863999 
L 468.003042 272.681767 
L 469.888814 279.971896 
L 471.774586 269.693694 
L 473.660358 277.132792 
L 475.54613 271.678052 
L 477.431903 268.278274 
L 479.317675 273.18154 
L 481.203447 271.185682 
L 483.089219 274.993245 
L 484.974992 276.830382 
L 486.860764 278.93189 
L 488.746536 275.908638 
L 490.632308 279.542231 
L 492.51808 276.205371 
L 494.403853 277.47069 
L 496.289625 272.840959 
L 498.175397 275.886139 
L 500.061169 286.347457 
L 501.946942 279.081592 
L 503.832714 277.846251 
L 505.718486 273.141691 
L 507.604258 276.839531 
L 509.49003 275.694323 
L 511.375803 279.215012 
L 513.261575 274.305097 
L 515.147347 283.367575 
L 517.033119 278.684568 
L 518.918892 280.978961 
L 520.804664 281.290963 
L 522.690436 281.268873 
L 524.576208 280.623093 
L 526.46198 276.652453 
L 528.347753 278.784825 
L 530.233525 277.517137 
L 532.119297 277.469356 
L 534.005069 280.1983 
L 535.890842 281.368177 
L 539.662386 275.094992 
L 541.548158 278.494361 
L 543.43393 279.747178 
L 545.319703 273.972062 
L 547.205475 286.174723 
L 549.091247 284.746656 
L 550.977019 285.506911 
L 552.862791 280.80473 
L 554.748564 286.69626 
L 556.634336 282.617348 
L 558.520108 278.934255 
L 560.40588 277.395479 
L 562.291653 284.299997 
L 564.177425 281.791452 
L 566.063197 279.614279 
L 567.948969 278.240854 
L 569.834741 278.287777 
L 571.720514 284.860386 
L 573.606286 276.404345 
L 575.492058 278.631531 
L 577.37783 287.045949 
L 579.263603 278.835826 
L 581.149375 278.599361 
L 583.035147 283.352432 
L 584.920919 282.306098 
L 586.806691 281.093171 
L 588.692464 284.861306 
L 590.578236 280.533888 
L 592.464008 282.914441 
L 594.34978 284.916025 
L 596.235553 279.110987 
L 598.121325 285.371067 
L 600.007097 282.800006 
L 601.892869 284.575569 
L 603.778641 287.362367 
L 605.664414 284.33067 
L 607.550186 279.671028 
L 609.435958 284.825142 
L 611.32173 284.682076 
L 613.207503 283.505453 
L 615.093275 281.250458 
L 616.979047 280.030783 
L 618.864819 290.130962 
L 620.750591 281.817004 
L 622.636364 286.630469 
L 622.636364 286.630469 
" clip-path="url(#pbb027e5301)" style="fill: none; stroke: #1f77b4; stroke-width: 1.5; stroke-linecap: square"/>
   </g>
   <g id="line2d_12">
    <path d="M 115.363636 255.138781 
L 117.249409 267.135299 
L 119.135181 254.37086 
L 121.020953 247.140753 
L 122.906725 232.989871 
L 124.792497 262.590664 
L 126.67827 258.140395 
L 128.564042 258.847205 
L 130.449814 270.937641 
L 132.335586 257.674768 
L 134.221359 261.820786 
L 136.107131 285.163525 
L 137.992903 247.694394 
L 139.878675 259.664756 
L 141.764447 276.409805 
L 143.65022 268.171556 
L 145.535992 265.146909 
L 147.421764 223.736454 
L 149.307536 265.563942 
L 151.193309 263.421743 
L 153.079081 235.751894 
L 154.964853 268.882474 
L 156.850625 239.268942 
L 158.736397 249.955808 
L 160.62217 220.678798 
L 162.507942 254.727044 
L 164.393714 267.335189 
L 166.279486 166.873462 
L 168.165259 168.264359 
L 170.051031 209.18818 
L 171.936803 229.142087 
L 173.822575 235.183535 
L 175.708347 268.413945 
L 177.59412 245.065182 
L 179.479892 216.471974 
L 181.365664 229.638357 
L 183.251436 233.866093 
L 185.137209 235.63443 
L 187.022981 195.11237 
L 188.908753 133.698852 
L 190.794525 55.8 
L 192.680297 117.203966 
L 194.56607 163.875676 
L 196.451842 216.093044 
L 198.337614 230.128495 
L 200.223386 220.237953 
L 202.109158 270.265618 
L 203.994931 198.69941 
L 205.880703 184.246312 
L 207.766475 217.590064 
L 209.652247 246.523558 
L 211.53802 289.930252 
L 213.423792 273.716339 
L 215.309564 256.208685 
L 217.195336 261.260596 
L 219.081108 277.332922 
L 220.966881 166.065908 
L 222.852653 260.815692 
L 224.738425 243.960305 
L 226.624197 236.625894 
L 228.50997 251.462687 
L 230.395742 278.351694 
L 232.281514 194.564682 
L 234.167286 202.713106 
L 236.053058 243.690171 
L 237.938831 259.500402 
L 239.824603 267.127975 
L 241.710375 277.660084 
L 243.596147 255.743614 
L 245.48192 247.034684 
L 247.367692 269.089708 
L 251.139236 176.435535 
L 253.025008 208.266322 
L 254.910781 270.881411 
L 256.796553 195.383773 
L 258.682325 266.412314 
L 260.568097 225.292013 
L 262.45387 246.420153 
L 264.339642 269.938325 
L 266.225414 251.55598 
L 268.111186 262.674755 
L 269.996958 280.903875 
L 271.882731 255.784366 
L 273.768503 264.368116 
L 275.654275 271.249152 
L 277.540047 290.946627 
L 279.42582 283.260175 
L 281.311592 281.8968 
L 283.197364 291.158681 
L 285.083136 260.537134 
L 286.968908 285.265924 
L 288.854681 290.670151 
L 290.740453 277.378125 
L 292.626225 293.750427 
L 294.511997 291.168072 
L 296.39777 277.284868 
L 298.283542 286.474812 
L 300.169314 275.815667 
L 302.055086 270.627891 
L 303.940858 285.21764 
L 305.826631 274.44164 
L 307.712403 245.577969 
L 309.598175 270.802503 
L 311.483947 275.464206 
L 313.369719 266.844396 
L 315.255492 264.589018 
L 317.141264 273.829215 
L 319.027036 262.433656 
L 320.912808 279.035353 
L 322.798581 290.085046 
L 324.684353 282.769024 
L 326.570125 257.515615 
L 328.455897 262.493905 
L 330.341669 287.662622 
L 332.227442 268.565313 
L 334.113214 290.824221 
L 335.998986 273.675139 
L 337.884758 279.083996 
L 339.770531 277.308285 
L 341.656303 281.863672 
L 343.542075 277.084339 
L 345.427847 295.616963 
L 347.313619 290.805283 
L 349.199392 281.217471 
L 351.085164 282.57771 
L 352.970936 247.638721 
L 354.856708 279.653205 
L 356.742481 285.79828 
L 358.628253 287.582158 
L 360.514025 275.285333 
L 362.399797 290.725722 
L 364.285569 285.683271 
L 366.171342 275.892642 
L 368.057114 283.116191 
L 369.942886 267.040738 
L 371.828658 281.771506 
L 373.714431 277.583571 
L 375.600203 285.533982 
L 377.485975 285.115557 
L 379.371747 280.692052 
L 381.257519 289.526665 
L 383.143292 262.050144 
L 385.029064 297.889067 
L 386.914836 284.893869 
L 388.800608 289.488128 
L 390.686381 295.734419 
L 392.572153 293.305316 
L 394.457925 287.703939 
L 396.343697 289.771181 
L 398.229469 294.601665 
L 400.115242 290.499447 
L 402.001014 296.140709 
L 403.886786 290.089523 
L 405.772558 299.318371 
L 407.658331 282.038994 
L 409.544103 301.15336 
L 411.429875 274.099915 
L 413.315647 286.229635 
L 415.201419 286.31236 
L 417.087192 294.278755 
L 418.972964 297.522254 
L 420.858736 266.145893 
L 422.744508 296.518797 
L 424.630281 305.126062 
L 426.516053 295.272935 
L 428.401825 299.228951 
L 430.287597 299.142463 
L 432.173369 295.60681 
L 434.059142 294.192571 
L 435.944914 301.82184 
L 437.830686 269.587019 
L 439.716458 302.139247 
L 441.60223 305.82278 
L 443.488003 303.159793 
L 445.373775 295.142635 
L 447.259547 300.713363 
L 449.145319 284.98987 
L 451.031092 281.637107 
L 452.916864 294.521884 
L 454.802636 292.353717 
L 456.688408 281.462801 
L 458.57418 305.094743 
L 460.459953 290.818058 
L 462.345725 294.190323 
L 464.231497 299.605517 
L 466.117269 276.652127 
L 468.003042 296.971632 
L 469.888814 284.714479 
L 471.774586 287.502206 
L 473.660358 290.793116 
L 475.54613 277.688195 
L 477.431903 304.578421 
L 479.317675 277.096073 
L 481.203447 296.46481 
L 483.089219 286.070866 
L 484.974992 292.948687 
L 486.860764 287.638002 
L 488.746536 285.266469 
L 490.632308 297.934449 
L 492.51808 302.522345 
L 494.403853 290.618676 
L 496.289625 286.853766 
L 498.175397 294.022978 
L 500.061169 294.543395 
L 501.946942 300.33661 
L 503.832714 302.370263 
L 505.718486 295.854425 
L 507.604258 294.524074 
L 509.49003 300.815318 
L 511.375803 292.567218 
L 513.261575 307.8 
L 515.147347 300.024799 
L 517.033119 305.324374 
L 518.918892 288.256121 
L 520.804664 292.602394 
L 522.690436 298.853007 
L 524.576208 295.745106 
L 526.46198 292.891443 
L 528.347753 286.604599 
L 530.233525 294.644576 
L 532.119297 296.575135 
L 534.005069 291.370917 
L 535.890842 301.935715 
L 537.776614 291.790389 
L 539.662386 297.86963 
L 541.548158 256.838359 
L 543.43393 296.52572 
L 545.319703 301.698857 
L 547.205475 296.943206 
L 549.091247 293.446295 
L 550.977019 298.537751 
L 552.862791 296.171735 
L 556.634336 296.001593 
L 558.520108 293.246431 
L 560.40588 297.735002 
L 562.291653 291.429531 
L 564.177425 291.142564 
L 566.063197 306.560924 
L 567.948969 295.756714 
L 569.834741 298.577999 
L 571.720514 292.870371 
L 573.606286 294.333134 
L 575.492058 294.601269 
L 577.37783 297.665931 
L 579.263603 289.862833 
L 581.149375 294.528156 
L 583.035147 292.688895 
L 584.920919 294.377259 
L 586.806691 300.001715 
L 588.692464 289.11817 
L 590.578236 293.006344 
L 592.464008 291.208536 
L 594.34978 298.618469 
L 596.235553 287.121167 
L 600.007097 289.923994 
L 601.892869 289.752084 
L 603.778641 284.705614 
L 605.664414 278.790701 
L 607.550186 292.743776 
L 609.435958 287.03474 
L 611.32173 295.068995 
L 613.207503 287.144611 
L 615.093275 296.381413 
L 616.979047 288.171977 
L 618.864819 296.876209 
L 620.750591 288.545153 
L 622.636364 297.906615 
L 622.636364 297.906615 
" clip-path="url(#pbb027e5301)" style="fill: none; stroke: #ff7f0e; stroke-width: 1.5; stroke-linecap: square"/>
   </g>
   <g id="patch_3">
    <path d="M 90 320.4 
L 90 43.2 
" style="fill: none; stroke: #000000; stroke-width: 0.8; stroke-linejoin: miter; stroke-linecap: square"/>
   </g>
   <g id="patch_4">
    <path d="M 648 320.4 
L 648 43.2 
" style="fill: none; stroke: #000000; stroke-width: 0.8; stroke-linejoin: miter; stroke-linecap: square"/>
   </g>
   <g id="patch_5">
    <path d="M 90 320.4 
L 648 320.4 
" style="fill: none; stroke: #000000; stroke-width: 0.8; stroke-linejoin: miter; stroke-linecap: square"/>
   </g>
   <g id="patch_6">
    <path d="M 90 43.2 
L 648 43.2 
" style="fill: none; stroke: #000000; stroke-width: 0.8; stroke-linejoin: miter; stroke-linecap: square"/>
   </g>
   <g id="text_13">
    <!-- Training and Validating Total Loss -->
    <g transform="translate(269.474063 37.2) scale(0.12 -0.12)">
     <defs>
      <path id="DejaVuSans-72" d="M 2631 2963 
Q 2534 3019 2420 3045 
Q 2306 3072 2169 3072 
Q 1681 3072 1420 2755 
Q 1159 2438 1159 1844 
L 1159 0 
L 581 0 
L 581 3500 
L 1159 3500 
L 1159 2956 
Q 1341 3275 1631 3429 
Q 1922 3584 2338 3584 
Q 2397 3584 2469 3576 
Q 2541 3569 2628 3553 
L 2631 2963 
z
" transform="scale(0.015625)"/>
      <path id="DejaVuSans-69" d="M 603 3500 
L 1178 3500 
L 1178 0 
L 603 0 
L 603 3500 
z
M 603 4863 
L 1178 4863 
L 1178 4134 
L 603 4134 
L 603 4863 
z
" transform="scale(0.015625)"/>
      <path id="DejaVuSans-6e" d="M 3513 2113 
L 3513 0 
L 2938 0 
L 2938 2094 
Q 2938 2591 2744 2837 
Q 2550 3084 2163 3084 
Q 1697 3084 1428 2787 
Q 1159 2491 1159 1978 
L 1159 0 
L 581 0 
L 581 3500 
L 1159 3500 
L 1159 2956 
Q 1366 3272 1645 3428 
Q 1925 3584 2291 3584 
Q 2894 3584 3203 3211 
Q 3513 2838 3513 2113 
z
" transform="scale(0.015625)"/>
      <path id="DejaVuSans-67" d="M 2906 1791 
Q 2906 2416 2648 2759 
Q 2391 3103 1925 3103 
Q 1463 3103 1205 2759 
Q 947 2416 947 1791 
Q 947 1169 1205 825 
Q 1463 481 1925 481 
Q 2391 481 2648 825 
Q 2906 1169 2906 1791 
z
M 3481 434 
Q 3481 -459 3084 -895 
Q 2688 -1331 1869 -1331 
Q 1566 -1331 1297 -1286 
Q 1028 -1241 775 -1147 
L 775 -588 
Q 1028 -725 1275 -790 
Q 1522 -856 1778 -856 
Q 2344 -856 2625 -561 
Q 2906 -266 2906 331 
L 2906 616 
Q 2728 306 2450 153 
Q 2172 0 1784 0 
Q 1141 0 747 490 
Q 353 981 353 1791 
Q 353 2603 747 3093 
Q 1141 3584 1784 3584 
Q 2172 3584 2450 3431 
Q 2728 3278 2906 2969 
L 2906 3500 
L 3481 3500 
L 3481 434 
z
" transform="scale(0.015625)"/>
      <path id="DejaVuSans-64" d="M 2906 2969 
L 2906 4863 
L 3481 4863 
L 3481 0 
L 2906 0 
L 2906 525 
Q 2725 213 2448 61 
Q 2172 -91 1784 -91 
Q 1150 -91 751 415 
Q 353 922 353 1747 
Q 353 2572 751 3078 
Q 1150 3584 1784 3584 
Q 2172 3584 2448 3432 
Q 2725 3281 2906 2969 
z
M 947 1747 
Q 947 1113 1208 752 
Q 1469 391 1925 391 
Q 2381 391 2643 752 
Q 2906 1113 2906 1747 
Q 2906 2381 2643 2742 
Q 2381 3103 1925 3103 
Q 1469 3103 1208 2742 
Q 947 2381 947 1747 
z
" transform="scale(0.015625)"/>
      <path id="DejaVuSans-56" d="M 1831 0 
L 50 4666 
L 709 4666 
L 2188 738 
L 3669 4666 
L 4325 4666 
L 2547 0 
L 1831 0 
z
" transform="scale(0.015625)"/>
     </defs>
     <use xlink:href="#DejaVuSans-54"/>
     <use xlink:href="#DejaVuSans-72" transform="translate(46.333984 0)"/>
     <use xlink:href="#DejaVuSans-61" transform="translate(87.447266 0)"/>
     <use xlink:href="#DejaVuSans-69" transform="translate(148.726562 0)"/>
     <use xlink:href="#DejaVuSans-6e" transform="translate(176.509766 0)"/>
     <use xlink:href="#DejaVuSans-69" transform="translate(239.888672 0)"/>
     <use xlink:href="#DejaVuSans-6e" transform="translate(267.671875 0)"/>
     <use xlink:href="#DejaVuSans-67" transform="translate(331.050781 0)"/>
     <use xlink:href="#DejaVuSans-20" transform="translate(394.527344 0)"/>
     <use xlink:href="#DejaVuSans-61" transform="translate(426.314453 0)"/>
     <use xlink:href="#DejaVuSans-6e" transform="translate(487.59375 0)"/>
     <use xlink:href="#DejaVuSans-64" transform="translate(550.972656 0)"/>
     <use xlink:href="#DejaVuSans-20" transform="translate(614.449219 0)"/>
     <use xlink:href="#DejaVuSans-56" transform="translate(646.236328 0)"/>
     <use xlink:href="#DejaVuSans-61" transform="translate(706.894531 0)"/>
     <use xlink:href="#DejaVuSans-6c" transform="translate(768.173828 0)"/>
     <use xlink:href="#DejaVuSans-69" transform="translate(795.957031 0)"/>
     <use xlink:href="#DejaVuSans-64" transform="translate(823.740234 0)"/>
     <use xlink:href="#DejaVuSans-61" transform="translate(887.216797 0)"/>
     <use xlink:href="#DejaVuSans-74" transform="translate(948.496094 0)"/>
     <use xlink:href="#DejaVuSans-69" transform="translate(987.705078 0)"/>
     <use xlink:href="#DejaVuSans-6e" transform="translate(1015.488281 0)"/>
     <use xlink:href="#DejaVuSans-67" transform="translate(1078.867188 0)"/>
     <use xlink:href="#DejaVuSans-20" transform="translate(1142.34375 0)"/>
     <use xlink:href="#DejaVuSans-54" transform="translate(1174.130859 0)"/>
     <use xlink:href="#DejaVuSans-6f" transform="translate(1218.214844 0)"/>
     <use xlink:href="#DejaVuSans-74" transform="translate(1279.396484 0)"/>
     <use xlink:href="#DejaVuSans-61" transform="translate(1318.605469 0)"/>
     <use xlink:href="#DejaVuSans-6c" transform="translate(1379.884766 0)"/>
     <use xlink:href="#DejaVuSans-20" transform="translate(1407.667969 0)"/>
     <use xlink:href="#DejaVuSans-4c" transform="translate(1439.455078 0)"/>
     <use xlink:href="#DejaVuSans-6f" transform="translate(1493.417969 0)"/>
     <use xlink:href="#DejaVuSans-73" transform="translate(1554.599609 0)"/>
     <use xlink:href="#DejaVuSans-73" transform="translate(1606.699219 0)"/>
    </g>
   </g>
   <g id="legend_1">
    <g id="patch_7">
     <path d="M 559.389063 80.55625 
L 641 80.55625 
Q 643 80.55625 643 78.55625 
L 643 50.2 
Q 643 48.2 641 48.2 
L 559.389063 48.2 
Q 557.389063 48.2 557.389063 50.2 
L 557.389063 78.55625 
Q 557.389063 80.55625 559.389063 80.55625 
z
" style="fill: #ffffff; opacity: 0.8; stroke: #cccccc; stroke-linejoin: miter"/>
    </g>
    <g id="line2d_13">
     <path d="M 561.389063 56.298437 
L 571.389063 56.298437 
L 581.389063 56.298437 
" style="fill: none; stroke: #1f77b4; stroke-width: 1.5; stroke-linecap: square"/>
    </g>
    <g id="text_14">
     <!-- Training -->
     <g transform="translate(589.389063 59.798437) scale(0.1 -0.1)">
      <use xlink:href="#DejaVuSans-54"/>
      <use xlink:href="#DejaVuSans-72" transform="translate(46.333984 0)"/>
      <use xlink:href="#DejaVuSans-61" transform="translate(87.447266 0)"/>
      <use xlink:href="#DejaVuSans-69" transform="translate(148.726562 0)"/>
      <use xlink:href="#DejaVuSans-6e" transform="translate(176.509766 0)"/>
      <use xlink:href="#DejaVuSans-69" transform="translate(239.888672 0)"/>
      <use xlink:href="#DejaVuSans-6e" transform="translate(267.671875 0)"/>
      <use xlink:href="#DejaVuSans-67" transform="translate(331.050781 0)"/>
     </g>
    </g>
    <g id="line2d_14">
     <path d="M 561.389063 70.976562 
L 571.389063 70.976562 
L 581.389063 70.976562 
" style="fill: none; stroke: #ff7f0e; stroke-width: 1.5; stroke-linecap: square"/>
    </g>
    <g id="text_15">
     <!-- Validating -->
     <g transform="translate(589.389063 74.476562) scale(0.1 -0.1)">
      <use xlink:href="#DejaVuSans-56"/>
      <use xlink:href="#DejaVuSans-61" transform="translate(60.658203 0)"/>
      <use xlink:href="#DejaVuSans-6c" transform="translate(121.9375 0)"/>
      <use xlink:href="#DejaVuSans-69" transform="translate(149.720703 0)"/>
      <use xlink:href="#DejaVuSans-64" transform="translate(177.503906 0)"/>
      <use xlink:href="#DejaVuSans-61" transform="translate(240.980469 0)"/>
      <use xlink:href="#DejaVuSans-74" transform="translate(302.259766 0)"/>
      <use xlink:href="#DejaVuSans-69" transform="translate(341.46875 0)"/>
      <use xlink:href="#DejaVuSans-6e" transform="translate(369.251953 0)"/>
      <use xlink:href="#DejaVuSans-67" transform="translate(432.630859 0)"/>
     </g>
    </g>
   </g>
  </g>
 </g>
 <defs>
  <clipPath id="pbb027e5301">
   <rect x="90" y="43.2" width="558" height="277.2"/>
  </clipPath>
 </defs>
</svg>
