<?xml version="1.0" encoding="utf-8" standalone="no"?>
<!DOCTYPE svg PUBLIC "-//W3C//DTD SVG 1.1//EN"
  "http://www.w3.org/Graphics/SVG/1.1/DTD/svg11.dtd">
<svg xmlns:xlink="http://www.w3.org/1999/xlink" width="720pt" height="360pt" viewBox="0 0 720 360" xmlns="http://www.w3.org/2000/svg" version="1.1">
 <metadata>
  <rdf:RDF xmlns:dc="http://purl.org/dc/elements/1.1/" xmlns:cc="http://creativecommons.org/ns#" xmlns:rdf="http://www.w3.org/1999/02/22-rdf-syntax-ns#">
   <cc:Work>
    <dc:type rdf:resource="http://purl.org/dc/dcmitype/StillImage"/>
    <dc:date>2026-02-16T20:15:40.951366</dc:date>
    <dc:format>image/svg+xml</dc:format>
    <dc:creator>
     <cc:Agent>
      <dc:title>Matplotlib v3.10.1, https://matplotlib.org/</dc:title>
     </cc:Agent>
    </dc:creator>
   </cc:Work>
  </rdf:RDF>
 </metadata>
 <defs>
  <style type="text/css">*{stroke-linejoin: round; stroke-linecap: butt}</style>
 </defs>
 <g id="figure_1">
  <g id="patch_1">
   <path d="M 0 360 
L 720 360 
L 720 0 
L 0 0 
z
" style="fill: #ffffff"/>
  </g>
  <g id="axes_1">
   <g id="patch_2">
    <path d="M 90 320.4 
L 648 320.4 
L 648 43.2 
L 90 43.2 
z
" style="fill: #ffffff"/>
   </g>
   <g id="matplotlib.axis_1">
    <g id="xtick_1">
     <g id="line2d_1">
      <defs>
       <path id="mc83af18414" d="M 0 0 
L 0 3.5 
" style="stroke: #000000; stroke-width: 0.8"/>
      </defs>
      <g>
       <use xlink:href="#mc83af18414" x="115.363636" y="320.4" style="stroke: #000000; stroke-width: 0.8"/>
      </g>
     </g>
     <g id="text_1">
      <!-- 0 -->
      <g transform="translate(112.182386 334.998438) scale(0.1 -0.1)">
       <defs>
        <path id="DejaVuSans-30" d="M 2034 4250 
Q 1547 4250 1301 3770 
Q 1056 3291 1056 2328 
Q 1056 1369 1301 889 
Q 1547 409 2034 409 
Q 2525 409 2770 889 
Q 3016 1369 3016 2328 
Q 3016 3291 2770 3770 
Q 2525 4250 2034 4250 
z
M 2034 4750 
Q 2819 4750 3233 4129 
Q 3647 3509 3647 2328 
Q 3647 1150 3233 529 
Q 2819 -91 2034 -91 
Q 1250 -91 836 529 
Q 422 1150 422 2328 
Q 422 3509 836 4129 
Q 1250 4750 2034 4750 
z
" transform="scale(0.015625)"/>
       </defs>
       <use xlink:href="#DejaVuSans-30"/>
      </g>
     </g>
    </g>
    <g id="xtick_2">
     <g id="line2d_2">
      <g>
       <use xlink:href="#mc83af18414" x="217.157495" y="320.4" style="stroke: #000000; stroke-width: 0.8"/>
      </g>
     </g>
     <g id="text_2">
      <!-- 60 -->
      <g transform="translate(210.794995 334.998438) scale(0.1 -0.1)">
       <defs>
        <path id="DejaVuSans-36" d="M 2113 2584 
Q 1688 2584 1439 2293 
Q 1191 2003 1191 1497 
Q 1191 994 1439 701 
Q 1688 409 2113 409 
Q 2538 409 2786 701 
Q 3034 994 3034 1497 
Q 3034 2003 2786 2293 
Q 2538 2584 2113 2584 
z
M 3366 4563 
L 3366 3988 
Q 3128 4100 2886 4159 
Q 2644 4219 2406 4219 
Q 1781 4219 1451 3797 
Q 1122 3375 1075 2522 
Q 1259 2794 1537 2939 
Q 1816 3084 2150 3084 
Q 2853 3084 3261 2657 
Q 3669 2231 3669 1497 
Q 3669 778 3244 343 
Q 2819 -91 2113 -91 
Q 1303 -91 875 529 
Q 447 1150 447 2328 
Q 447 3434 972 4092 
Q 1497 4750 2381 4750 
Q 2619 4750 2861 4703 
Q 3103 4656 3366 4563 
z
" transform="scale(0.015625)"/>
       </defs>
       <use xlink:href="#DejaVuSans-36"/>
       <use xlink:href="#DejaVuSans-30" transform="translate(63.623047 0)"/>
      </g>
     </g>
    </g>
    <g id="xtick_3">
     <g id="line2d_3">
      <g>
       <use xlink:href="#mc83af18414" x="318.951353" y="320.4" style="stroke: #000000; stroke-width: 0.8"/>
      </g>
     </g>
     <g id="text_3">
      <!-- 120 -->
      <g transform="translate(309.407603 334.998438) scale(0.1 -0.1)">
       <defs>
        <path id="DejaVuSans-31" d="M 794 531 
L 1825 531 
L 1825 4091 
L 703 3866 
L 703 4441 
L 1819 4666 
L 2450 4666 
L 2450 531 
L 3481 531 
L 3481 0 
L 794 0 
L 794 531 
z
" transform="scale(0.015625)"/>
        <path id="DejaVuSans-32" d="M 1228 531 
L 3431 531 
L 3431 0 
L 469 0 
L 469 531 
Q 828 903 1448 1529 
Q 2069 2156 2228 2338 
Q 2531 2678 2651 2914 
Q 2772 3150 2772 3378 
Q 2772 3750 2511 3984 
Q 2250 4219 1831 4219 
Q 1534 4219 1204 4116 
Q 875 4013 500 3803 
L 500 4441 
Q 881 4594 1212 4672 
Q 1544 4750 1819 4750 
Q 2544 4750 2975 4387 
Q 3406 4025 3406 3419 
Q 3406 3131 3298 2873 
Q 3191 2616 2906 2266 
Q 2828 2175 2409 1742 
Q 1991 1309 1228 531 
z
" transform="scale(0.015625)"/>
       </defs>
       <use xlink:href="#DejaVuSans-31"/>
       <use xlink:href="#DejaVuSans-32" transform="translate(63.623047 0)"/>
       <use xlink:href="#DejaVuSans-30" transform="translate(127.246094 0)"/>
      </g>
     </g>
    </g>
    <g id="xtick_4">
     <g id="line2d_4">
      <g>
       <use xlink:href="#mc83af18414" x="420.745211" y="320.4" style="stroke: #000000; stroke-width: 0.8"/>
      </g>
     </g>
     <g id="text_4">
      <!-- 180 -->
      <g transform="translate(411.201461 334.998438) scale(0.1 -0.1)">
       <defs>
        <path id="DejaVuSans-38" d="M 2034 2216 
Q 1584 2216 1326 1975 
Q 1069 1734 1069 1313 
Q 1069 891 1326 650 
Q 1584 409 2034 409 
Q 2484 409 2743 651 
Q 3003 894 3003 1313 
Q 3003 1734 2745 1975 
Q 2488 2216 2034 2216 
z
M 1403 2484 
Q 997 2584 770 2862 
Q 544 3141 544 3541 
Q 544 4100 942 4425 
Q 1341 4750 2034 4750 
Q 2731 4750 3128 4425 
Q 3525 4100 3525 3541 
Q 3525 3141 3298 2862 
Q 3072 2584 2669 2484 
Q 3125 2378 3379 2068 
Q 3634 1759 3634 1313 
Q 3634 634 3220 271 
Q 2806 -91 2034 -91 
Q 1263 -91 848 271 
Q 434 634 434 1313 
Q 434 1759 690 2068 
Q 947 2378 1403 2484 
z
M 1172 3481 
Q 1172 3119 1398 2916 
Q 1625 2713 2034 2713 
Q 2441 2713 2670 2916 
Q 2900 3119 2900 3481 
Q 2900 3844 2670 4047 
Q 2441 4250 2034 4250 
Q 1625 4250 1398 4047 
Q 1172 3844 1172 3481 
z
" transform="scale(0.015625)"/>
       </defs>
       <use xlink:href="#DejaVuSans-31"/>
       <use xlink:href="#DejaVuSans-38" transform="translate(63.623047 0)"/>
       <use xlink:href="#DejaVuSans-30" transform="translate(127.246094 0)"/>
      </g>
     </g>
    </g>
    <g id="xtick_5">
     <g id="line2d_5">
      <g>
       <use xlink:href="#mc83af18414" x="522.53907" y="320.4" style="stroke: #000000; stroke-width: 0.8"/>
      </g>
     </g>
     <g id="text_5">
      <!-- 240 -->
      <g transform="translate(512.99532 334.998438) scale(0.1 -0.1)">
       <defs>
        <path id="DejaVuSans-34" d="M 2419 4116 
L 825 1625 
L 2419 1625 
L 2419 4116 
z
M 2253 4666 
L 3047 4666 
L 3047 1625 
L 3713 1625 
L 3713 1100 
L 3047 1100 
L 3047 0 
L 2419 0 
L 2419 1100 
L 313 1100 
L 313 1709 
L 2253 4666 
z
" transform="scale(0.015625)"/>
       </defs>
       <use xlink:href="#DejaVuSans-32"/>
       <use xlink:href="#DejaVuSans-34" transform="translate(63.623047 0)"/>
       <use xlink:href="#DejaVuSans-30" transform="translate(127.246094 0)"/>
      </g>
     </g>
    </g>
    <g id="text_6">
     <!-- Epoch -->
     <g transform="translate(353.689062 348.676562) scale(0.1 -0.1)">
      <defs>
       <path id="DejaVuSans-45" d="M 628 4666 
L 3578 4666 
L 3578 4134 
L 1259 4134 
L 1259 2753 
L 3481 2753 
L 3481 2222 
L 1259 2222 
L 1259 531 
L 3634 531 
L 3634 0 
L 628 0 
L 628 4666 
z
" transform="scale(0.015625)"/>
       <path id="DejaVuSans-70" d="M 1159 525 
L 1159 -1331 
L 581 -1331 
L 581 3500 
L 1159 3500 
L 1159 2969 
Q 1341 3281 1617 3432 
Q 1894 3584 2278 3584 
Q 2916 3584 3314 3078 
Q 3713 2572 3713 1747 
Q 3713 922 3314 415 
Q 2916 -91 2278 -91 
Q 1894 -91 1617 61 
Q 1341 213 1159 525 
z
M 3116 1747 
Q 3116 2381 2855 2742 
Q 2594 3103 2138 3103 
Q 1681 3103 1420 2742 
Q 1159 2381 1159 1747 
Q 1159 1113 1420 752 
Q 1681 391 2138 391 
Q 2594 391 2855 752 
Q 3116 1113 3116 1747 
z
" transform="scale(0.015625)"/>
       <path id="DejaVuSans-6f" d="M 1959 3097 
Q 1497 3097 1228 2736 
Q 959 2375 959 1747 
Q 959 1119 1226 758 
Q 1494 397 1959 397 
Q 2419 397 2687 759 
Q 2956 1122 2956 1747 
Q 2956 2369 2687 2733 
Q 2419 3097 1959 3097 
z
M 1959 3584 
Q 2709 3584 3137 3096 
Q 3566 2609 3566 1747 
Q 3566 888 3137 398 
Q 2709 -91 1959 -91 
Q 1206 -91 779 398 
Q 353 888 353 1747 
Q 353 2609 779 3096 
Q 1206 3584 1959 3584 
z
" transform="scale(0.015625)"/>
       <path id="DejaVuSans-63" d="M 3122 3366 
L 3122 2828 
Q 2878 2963 2633 3030 
Q 2388 3097 2138 3097 
Q 1578 3097 1268 2742 
Q 959 2388 959 1747 
Q 959 1106 1268 751 
Q 1578 397 2138 397 
Q 2388 397 2633 464 
Q 2878 531 3122 666 
L 3122 134 
Q 2881 22 2623 -34 
Q 2366 -91 2075 -91 
Q 1284 -91 818 406 
Q 353 903 353 1747 
Q 353 2603 823 3093 
Q 1294 3584 2113 3584 
Q 2378 3584 2631 3529 
Q 2884 3475 3122 3366 
z
" transform="scale(0.015625)"/>
       <path id="DejaVuSans-68" d="M 3513 2113 
L 3513 0 
L 2938 0 
L 2938 2094 
Q 2938 2591 2744 2837 
Q 2550 3084 2163 3084 
Q 1697 3084 1428 2787 
Q 1159 2491 1159 1978 
L 1159 0 
L 581 0 
L 581 4863 
L 1159 4863 
L 1159 2956 
Q 1366 3272 1645 3428 
Q 1925 3584 2291 3584 
Q 2894 3584 3203 3211 
Q 3513 2838 3513 2113 
z
" transform="scale(0.015625)"/>
      </defs>
      <use xlink:href="#DejaVuSans-45"/>
      <use xlink:href="#DejaVuSans-70" transform="translate(63.183594 0)"/>
      <use xlink:href="#DejaVuSans-6f" transform="translate(126.660156 0)"/>
      <use xlink:href="#DejaVuSans-63" transform="translate(187.841797 0)"/>
      <use xlink:href="#DejaVuSans-68" transform="translate(242.822266 0)"/>
     </g>
    </g>
   </g>
   <g id="matplotlib.axis_2">
    <g id="ytick_1">
     <g id="line2d_6">
      <defs>
       <path id="m4adaf99a91" d="M 0 0 
L -3.5 0 
" style="stroke: #000000; stroke-width: 0.8"/>
      </defs>
      <g>
       <use xlink:href="#m4adaf99a91" x="90" y="308.028659" style="stroke: #000000; stroke-width: 0.8"/>
      </g>
     </g>
     <g id="text_7">
      <!-- 0 -->
      <g transform="translate(76.6375 311.827877) scale(0.1 -0.1)">
       <use xlink:href="#DejaVuSans-30"/>
      </g>
     </g>
    </g>
    <g id="ytick_2">
     <g id="line2d_7">
      <g>
       <use xlink:href="#m4adaf99a91" x="90" y="261.411941" style="stroke: #000000; stroke-width: 0.8"/>
      </g>
     </g>
     <g id="text_8">
      <!-- 2 -->
      <g transform="translate(76.6375 265.21116) scale(0.1 -0.1)">
       <use xlink:href="#DejaVuSans-32"/>
      </g>
     </g>
    </g>
    <g id="ytick_3">
     <g id="line2d_8">
      <g>
       <use xlink:href="#m4adaf99a91" x="90" y="214.795224" style="stroke: #000000; stroke-width: 0.8"/>
      </g>
     </g>
     <g id="text_9">
      <!-- 4 -->
      <g transform="translate(76.6375 218.594442) scale(0.1 -0.1)">
       <use xlink:href="#DejaVuSans-34"/>
      </g>
     </g>
    </g>
    <g id="ytick_4">
     <g id="line2d_9">
      <g>
       <use xlink:href="#m4adaf99a91" x="90" y="168.178506" style="stroke: #000000; stroke-width: 0.8"/>
      </g>
     </g>
     <g id="text_10">
      <!-- 6 -->
      <g transform="translate(76.6375 171.977725) scale(0.1 -0.1)">
       <use xlink:href="#DejaVuSans-36"/>
      </g>
     </g>
    </g>
    <g id="ytick_5">
     <g id="line2d_10">
      <g>
       <use xlink:href="#m4adaf99a91" x="90" y="121.561789" style="stroke: #000000; stroke-width: 0.8"/>
      </g>
     </g>
     <g id="text_11">
      <!-- 8 -->
      <g transform="translate(76.6375 125.361007) scale(0.1 -0.1)">
       <use xlink:href="#DejaVuSans-38"/>
      </g>
     </g>
    </g>
    <g id="ytick_6">
     <g id="line2d_11">
      <g>
       <use xlink:href="#m4adaf99a91" x="90" y="74.945071" style="stroke: #000000; stroke-width: 0.8"/>
      </g>
     </g>
     <g id="text_12">
      <!-- 10 -->
      <g transform="translate(70.275 78.74429) scale(0.1 -0.1)">
       <use xlink:href="#DejaVuSans-31"/>
       <use xlink:href="#DejaVuSans-30" transform="translate(63.623047 0)"/>
      </g>
     </g>
    </g>
    <g id="text_13">
     <!-- Domain Loss -->
     <g transform="translate(64.195312 213.757812) rotate(-90) scale(0.1 -0.1)">
      <defs>
       <path id="DejaVuSans-44" d="M 1259 4147 
L 1259 519 
L 2022 519 
Q 2988 519 3436 956 
Q 3884 1394 3884 2338 
Q 3884 3275 3436 3711 
Q 2988 4147 2022 4147 
L 1259 4147 
z
M 628 4666 
L 1925 4666 
Q 3281 4666 3915 4102 
Q 4550 3538 4550 2338 
Q 4550 1131 3912 565 
Q 3275 0 1925 0 
L 628 0 
L 628 4666 
z
" transform="scale(0.015625)"/>
       <path id="DejaVuSans-6d" d="M 3328 2828 
Q 3544 3216 3844 3400 
Q 4144 3584 4550 3584 
Q 5097 3584 5394 3201 
Q 5691 2819 5691 2113 
L 5691 0 
L 5113 0 
L 5113 2094 
Q 5113 2597 4934 2840 
Q 4756 3084 4391 3084 
Q 3944 3084 3684 2787 
Q 3425 2491 3425 1978 
L 3425 0 
L 2847 0 
L 2847 2094 
Q 2847 2600 2669 2842 
Q 2491 3084 2119 3084 
Q 1678 3084 1418 2786 
Q 1159 2488 1159 1978 
L 1159 0 
L 581 0 
L 581 3500 
L 1159 3500 
L 1159 2956 
Q 1356 3278 1631 3431 
Q 1906 3584 2284 3584 
Q 2666 3584 2933 3390 
Q 3200 3197 3328 2828 
z
" transform="scale(0.015625)"/>
       <path id="DejaVuSans-61" d="M 2194 1759 
Q 1497 1759 1228 1600 
Q 959 1441 959 1056 
Q 959 750 1161 570 
Q 1363 391 1709 391 
Q 2188 391 2477 730 
Q 2766 1069 2766 1631 
L 2766 1759 
L 2194 1759 
z
M 3341 1997 
L 3341 0 
L 2766 0 
L 2766 531 
Q 2569 213 2275 61 
Q 1981 -91 1556 -91 
Q 1019 -91 701 211 
Q 384 513 384 1019 
Q 384 1609 779 1909 
Q 1175 2209 1959 2209 
L 2766 2209 
L 2766 2266 
Q 2766 2663 2505 2880 
Q 2244 3097 1772 3097 
Q 1472 3097 1187 3025 
Q 903 2953 641 2809 
L 641 3341 
Q 956 3463 1253 3523 
Q 1550 3584 1831 3584 
Q 2591 3584 2966 3190 
Q 3341 2797 3341 1997 
z
" transform="scale(0.015625)"/>
       <path id="DejaVuSans-69" d="M 603 3500 
L 1178 3500 
L 1178 0 
L 603 0 
L 603 3500 
z
M 603 4863 
L 1178 4863 
L 1178 4134 
L 603 4134 
L 603 4863 
z
" transform="scale(0.015625)"/>
       <path id="DejaVuSans-6e" d="M 3513 2113 
L 3513 0 
L 2938 0 
L 2938 2094 
Q 2938 2591 2744 2837 
Q 2550 3084 2163 3084 
Q 1697 3084 1428 2787 
Q 1159 2491 1159 1978 
L 1159 0 
L 581 0 
L 581 3500 
L 1159 3500 
L 1159 2956 
Q 1366 3272 1645 3428 
Q 1925 3584 2291 3584 
Q 2894 3584 3203 3211 
Q 3513 2838 3513 2113 
z
" transform="scale(0.015625)"/>
       <path id="DejaVuSans-20" transform="scale(0.015625)"/>
       <path id="DejaVuSans-4c" d="M 628 4666 
L 1259 4666 
L 1259 531 
L 3531 531 
L 3531 0 
L 628 0 
L 628 4666 
z
" transform="scale(0.015625)"/>
       <path id="DejaVuSans-73" d="M 2834 3397 
L 2834 2853 
Q 2591 2978 2328 3040 
Q 2066 3103 1784 3103 
Q 1356 3103 1142 2972 
Q 928 2841 928 2578 
Q 928 2378 1081 2264 
Q 1234 2150 1697 2047 
L 1894 2003 
Q 2506 1872 2764 1633 
Q 3022 1394 3022 966 
Q 3022 478 2636 193 
Q 2250 -91 1575 -91 
Q 1294 -91 989 -36 
Q 684 19 347 128 
L 347 722 
Q 666 556 975 473 
Q 1284 391 1588 391 
Q 1994 391 2212 530 
Q 2431 669 2431 922 
Q 2431 1156 2273 1281 
Q 2116 1406 1581 1522 
L 1381 1569 
Q 847 1681 609 1914 
Q 372 2147 372 2553 
Q 372 3047 722 3315 
Q 1072 3584 1716 3584 
Q 2034 3584 2315 3537 
Q 2597 3491 2834 3397 
z
" transform="scale(0.015625)"/>
      </defs>
      <use xlink:href="#DejaVuSans-44"/>
      <use xlink:href="#DejaVuSans-6f" transform="translate(77.001953 0)"/>
      <use xlink:href="#DejaVuSans-6d" transform="translate(138.183594 0)"/>
      <use xlink:href="#DejaVuSans-61" transform="translate(235.595703 0)"/>
      <use xlink:href="#DejaVuSans-69" transform="translate(296.875 0)"/>
      <use xlink:href="#DejaVuSans-6e" transform="translate(324.658203 0)"/>
      <use xlink:href="#DejaVuSans-20" transform="translate(388.037109 0)"/>
      <use xlink:href="#DejaVuSans-4c" transform="translate(419.824219 0)"/>
      <use xlink:href="#DejaVuSans-6f" transform="translate(473.787109 0)"/>
      <use xlink:href="#DejaVuSans-73" transform="translate(534.96875 0)"/>
      <use xlink:href="#DejaVuSans-73" transform="translate(587.068359 0)"/>
     </g>
    </g>
   </g>
   <g id="line2d_12">
    <path d="M 115.363636 225.05294 
L 117.060201 203.47447 
L 118.756765 188.526082 
L 120.453329 183.051672 
L 122.149894 183.511137 
L 123.846458 171.315712 
L 125.543022 183.123954 
L 127.239587 183.382947 
L 128.936151 189.99436 
L 130.632715 199.702783 
L 132.329279 202.226164 
L 134.025844 209.589989 
L 135.722408 208.63931 
L 137.418972 204.765995 
L 139.115537 204.814109 
L 140.812101 206.261054 
L 142.508665 198.70207 
L 144.20523 202.35508 
L 145.901794 203.176203 
L 147.598358 201.648964 
L 150.991487 185.101379 
L 152.688051 188.143788 
L 154.384615 190.753807 
L 156.08118 191.07303 
L 157.777744 185.291381 
L 159.474308 189.31116 
L 161.170873 191.899726 
L 162.867437 189.626576 
L 164.564001 189.68721 
L 166.260566 196.160612 
L 167.95713 188.963686 
L 169.653694 179.190027 
L 171.350258 188.297997 
L 173.046823 182.540444 
L 174.743387 180.746554 
L 176.439951 179.910897 
L 178.136516 173.068369 
L 179.83308 182.136266 
L 181.529644 180.553332 
L 183.226209 177.539303 
L 184.922773 176.079611 
L 186.619337 185.483806 
L 188.315901 175.657717 
L 190.012466 176.907258 
L 191.70903 179.098197 
L 193.405594 161.850333 
L 195.102159 164.832997 
L 196.798723 169.436708 
L 198.495287 165.501562 
L 200.191852 166.223335 
L 201.888416 165.310425 
L 203.58498 158.892697 
L 205.281545 156.281163 
L 206.978109 149.629766 
L 208.674673 148.57649 
L 210.371237 129.641373 
L 212.067802 156.396599 
L 213.764366 164.908167 
L 215.46093 141.500971 
L 217.157495 128.341221 
L 218.854059 140.96311 
L 220.550623 138.266647 
L 222.247188 157.092974 
L 223.943752 127.913632 
L 225.640316 147.693152 
L 227.336881 145.040245 
L 229.033445 132.285726 
L 230.730009 133.792447 
L 234.123138 55.8 
L 235.819702 107.796332 
L 237.516266 137.813762 
L 239.212831 142.651517 
L 240.909395 143.845088 
L 242.605959 136.935941 
L 244.302524 117.507157 
L 245.999088 127.012617 
L 247.695652 125.396514 
L 249.392216 112.871028 
L 251.088781 131.09022 
L 252.785345 140.063075 
L 254.481909 114.97199 
L 256.178474 142.962339 
L 257.875038 139.048588 
L 259.571602 133.667517 
L 261.268167 147.570207 
L 262.964731 141.952863 
L 264.661295 144.653896 
L 266.35786 134.645745 
L 268.054424 138.081259 
L 269.750988 124.177884 
L 271.447552 124.779157 
L 273.144117 126.228236 
L 274.840681 122.3395 
L 276.537245 89.878649 
L 278.23381 115.719483 
L 279.930374 120.859083 
L 281.626938 151.154463 
L 283.323503 142.366497 
L 285.020067 138.112189 
L 286.716631 151.404689 
L 288.413196 105.707601 
L 290.10976 121.817404 
L 291.806324 121.266106 
L 293.502888 135.277275 
L 295.199453 102.141704 
L 296.896017 108.133863 
L 298.592581 143.897494 
L 300.289146 136.338065 
L 301.98571 153.683936 
L 303.682274 155.750387 
L 305.378839 157.248173 
L 307.075403 151.72311 
L 308.771967 155.350646 
L 310.468531 168.22402 
L 312.165096 171.530457 
L 313.86166 170.089934 
L 315.558224 177.41017 
L 317.254789 178.145354 
L 318.951353 180.498322 
L 322.344482 167.492436 
L 324.041046 169.442557 
L 325.73761 180.285064 
L 327.434175 181.009496 
L 329.130739 182.337302 
L 330.827303 176.56928 
L 332.523867 177.064399 
L 334.220432 173.488315 
L 335.916996 172.009885 
L 337.61356 168.527251 
L 339.310125 158.281967 
L 341.006689 166.27317 
L 342.703253 161.180034 
L 344.399818 172.899006 
L 347.792946 176.441842 
L 349.48951 170.352222 
L 351.186075 179.097531 
L 352.882639 178.592219 
L 354.579203 180.452864 
L 356.275768 172.849809 
L 357.972332 180.110971 
L 359.668896 175.624021 
L 361.365461 182.365279 
L 363.062025 185.48297 
L 364.758589 187.886519 
L 366.455154 188.444553 
L 368.151718 176.508048 
L 369.848282 181.415524 
L 371.544846 188.780434 
L 374.937975 194.470817 
L 376.634539 193.213699 
L 378.331104 188.95018 
L 380.027668 169.199 
L 381.724232 171.981993 
L 383.420797 178.562361 
L 385.117361 182.623569 
L 386.813925 177.754597 
L 388.51049 182.937761 
L 390.207054 184.491163 
L 391.903618 185.31822 
L 393.600182 190.218485 
L 395.296747 189.164234 
L 396.993311 193.326704 
L 398.689875 187.799515 
L 400.38644 189.305268 
L 402.083004 186.580171 
L 403.779568 190.496468 
L 405.476133 199.11655 
L 407.172697 185.550455 
L 408.869261 197.394788 
L 410.565825 192.139814 
L 412.26239 189.208696 
L 413.958954 196.948411 
L 415.655518 195.447061 
L 417.352083 190.966852 
L 419.048647 187.56823 
L 420.745211 187.149813 
L 422.441776 194.507861 
L 424.13834 178.770147 
L 425.834904 193.009231 
L 427.531469 187.752481 
L 429.228033 189.567506 
L 430.924597 190.496392 
L 432.621161 185.395508 
L 434.317726 188.759123 
L 436.01429 189.623922 
L 437.710854 199.993279 
L 439.407419 196.053868 
L 441.103983 197.667285 
L 442.800547 198.226416 
L 444.497112 198.117198 
L 446.193676 184.947982 
L 447.89024 195.113624 
L 449.586804 199.626908 
L 451.283369 187.047029 
L 452.979933 196.40002 
L 454.676497 183.685122 
L 458.069626 176.654802 
L 459.76619 191.430059 
L 461.462755 182.897506 
L 463.159319 194.715866 
L 464.855883 182.488602 
L 466.552448 178.333242 
L 468.249012 183.492946 
L 469.945576 177.635115 
L 471.64214 196.506929 
L 473.338705 190.97849 
L 475.035269 183.452297 
L 476.731833 189.64442 
L 478.428398 184.664694 
L 480.124962 189.880976 
L 481.821526 187.906641 
L 483.518091 189.338521 
L 485.214655 202.169631 
L 486.911219 184.077142 
L 488.607784 197.155163 
L 490.304348 187.574625 
L 492.000912 181.618566 
L 493.697476 190.294349 
L 495.394041 186.800713 
L 497.090605 193.494862 
L 498.787169 196.705068 
L 500.483734 200.359649 
L 502.180298 194.970643 
L 503.876862 201.397552 
L 505.573427 195.520033 
L 507.269991 197.700594 
L 508.966555 189.61536 
L 510.663119 194.901299 
L 512.359684 213.236013 
L 514.056248 200.475839 
L 515.752812 198.258022 
L 517.449377 189.99052 
L 519.145941 196.454391 
L 520.842505 194.467169 
L 522.53907 200.651311 
L 524.235634 192.036444 
L 525.932198 207.959324 
L 527.628763 199.714001 
L 529.325327 203.729464 
L 531.021891 204.273137 
L 532.718455 204.234767 
L 534.41502 203.105339 
L 536.111584 196.16885 
L 537.808148 199.903796 
L 539.504713 197.695962 
L 541.201277 197.62972 
L 542.897841 202.389799 
L 544.594406 204.448089 
L 547.987534 193.392809 
L 549.684099 199.378565 
L 551.380663 201.562494 
L 553.077227 191.38627 
L 554.773791 212.823836 
L 556.470356 210.317312 
L 558.16692 211.626672 
L 559.863484 203.343976 
L 561.560049 213.714573 
L 563.256613 206.539935 
L 564.953177 200.104554 
L 566.649742 197.414431 
L 568.346306 209.530753 
L 570.04287 205.084732 
L 571.739434 201.204009 
L 573.435999 198.866322 
L 575.132563 198.992662 
L 576.829127 210.511225 
L 578.525692 195.638468 
L 580.222256 199.532742 
L 581.91882 214.311038 
L 583.615385 199.888131 
L 585.311949 199.505143 
L 587.008513 207.900949 
L 588.705078 206.072513 
L 590.401642 203.929882 
L 592.098206 210.513773 
L 593.79477 202.994352 
L 595.491335 207.081953 
L 597.187899 210.555098 
L 598.884463 200.317629 
L 600.581028 211.323568 
L 602.277592 206.791138 
L 603.974156 209.893224 
L 605.670721 214.800075 
L 607.367285 209.49421 
L 609.063849 201.310653 
L 610.760413 210.313923 
L 612.456978 210.070008 
L 614.153542 208.007568 
L 615.850106 204.035382 
L 617.546671 201.887686 
L 619.243235 219.632247 
L 620.939799 204.990624 
L 622.636364 213.481139 
L 622.636364 213.481139 
" clip-path="url(#pbe2904c127)" style="fill: none; stroke: #1f77b4; stroke-width: 1.5; stroke-linecap: square"/>
   </g>
   <g id="line2d_13">
    <path d="M 115.363636 307.212348 
L 117.060201 303.288987 
L 118.756765 307.672669 
L 120.453329 307.667033 
L 122.149894 307.149712 
L 123.846458 307.331069 
L 125.543022 307.29599 
L 127.239587 307.472806 
L 128.936151 306.226515 
L 130.632715 307.387194 
L 132.329279 306.117281 
L 134.025844 306.130697 
L 135.722408 306.815686 
L 137.418972 304.353735 
L 139.115537 304.831629 
L 140.812101 305.609919 
L 142.508665 304.995744 
L 144.20523 304.606789 
L 145.901794 305.233887 
L 147.598358 306.879452 
L 149.294922 306.426781 
L 152.688051 306.615756 
L 154.384615 306.195123 
L 156.08118 299.680983 
L 157.777744 305.176179 
L 159.474308 305.765342 
L 161.170873 302.144665 
L 162.867437 303.805307 
L 164.564001 303.80641 
L 166.260566 307.224051 
L 167.95713 305.805635 
L 169.653694 306.486064 
L 171.350258 307.410489 
L 173.046823 307.134397 
L 174.743387 307.048201 
L 176.439951 303.115794 
L 178.136516 305.312524 
L 179.83308 305.948567 
L 181.529644 306.389678 
L 183.226209 306.578146 
L 184.922773 305.086504 
L 186.619337 307.067928 
L 188.315901 306.379603 
L 190.012466 305.297748 
L 191.70903 306.550763 
L 193.405594 305.294245 
L 195.102159 307.416637 
L 196.798723 306.462541 
L 198.495287 307.190394 
L 200.191852 306.616381 
L 203.58498 305.86965 
L 205.281545 306.959551 
L 206.978109 306.224641 
L 208.674673 305.764781 
L 210.371237 304.112894 
L 212.067802 307.663012 
L 213.764366 307.730843 
L 215.46093 307.04401 
L 217.157495 307.633656 
L 218.854059 306.978 
L 220.550623 307.084143 
L 222.247188 292.003698 
L 223.943752 306.312895 
L 225.640316 303.122281 
L 227.336881 307.28019 
L 229.033445 307.033791 
L 230.730009 307.8 
L 232.426573 306.804628 
L 234.123138 304.541747 
L 235.819702 303.606896 
L 237.516266 307.495017 
L 239.212831 306.639002 
L 240.909395 307.737509 
L 242.605959 306.91791 
L 244.302524 306.817698 
L 245.999088 307.535418 
L 247.695652 307.654005 
L 249.392216 306.088192 
L 251.088781 307.58463 
L 252.785345 296.133763 
L 254.481909 307.367648 
L 256.178474 305.953117 
L 257.875038 307.386131 
L 259.571602 306.511336 
L 261.268167 307.701452 
L 262.964731 305.645635 
L 264.661295 307.096326 
L 266.35786 307.146868 
L 268.054424 304.766294 
L 269.750988 296.34661 
L 271.447552 307.382728 
L 273.144117 304.197731 
L 274.840681 307.038328 
L 276.537245 305.800082 
L 278.23381 306.19444 
L 279.930374 303.584996 
L 281.626938 303.382035 
L 283.323503 307.314585 
L 285.020067 303.845406 
L 286.716631 306.005681 
L 288.413196 307.248792 
L 290.10976 306.809107 
L 291.806324 304.783834 
L 293.502888 306.398655 
L 295.199453 306.370773 
L 296.896017 306.727685 
L 298.592581 301.495371 
L 300.289146 305.23762 
L 301.98571 306.455727 
L 303.682274 306.511266 
L 305.378839 300.331557 
L 307.075403 306.413263 
L 308.771967 302.877859 
L 310.468531 304.683247 
L 312.165096 304.666561 
L 313.86166 305.144248 
L 315.558224 300.03788 
L 317.254789 300.787913 
L 318.951353 305.01516 
L 320.647917 302.422539 
L 322.344482 303.852783 
L 324.041046 299.380368 
L 325.73761 301.441757 
L 327.434175 305.421195 
L 329.130739 299.866915 
L 330.827303 304.329253 
L 332.523867 306.325328 
L 334.220432 303.22386 
L 335.916996 304.14379 
L 337.61356 305.415123 
L 339.310125 304.727594 
L 341.006689 284.330152 
L 342.703253 302.932331 
L 344.399818 306.777614 
L 346.096382 307.245701 
L 347.792946 303.677975 
L 349.48951 305.671583 
L 351.186075 304.109563 
L 352.882639 303.307622 
L 354.579203 304.585633 
L 356.275768 306.655564 
L 357.972332 306.495023 
L 359.668896 297.962492 
L 361.365461 306.399577 
L 363.062025 303.766271 
L 364.758589 305.863055 
L 368.151718 307.018014 
L 369.848282 306.050905 
L 371.544846 306.023166 
L 373.241411 305.87482 
L 374.937975 304.923593 
L 376.634539 306.932647 
L 378.331104 305.556693 
L 380.027668 305.846941 
L 381.724232 299.961892 
L 383.420797 299.467003 
L 385.117361 297.425927 
L 386.813925 305.670802 
L 388.51049 300.190856 
L 390.207054 306.058177 
L 391.903618 303.339488 
L 393.600182 306.744333 
L 395.296747 304.790797 
L 396.993311 306.853633 
L 398.689875 305.756525 
L 400.38644 306.398527 
L 403.779568 306.836982 
L 405.476133 306.32656 
L 407.172697 305.636906 
L 408.869261 305.881145 
L 410.565825 306.366821 
L 412.26239 305.382778 
L 413.958954 306.332348 
L 415.655518 306.45666 
L 417.352083 306.459309 
L 419.048647 306.592333 
L 420.745211 306.119023 
L 422.441776 306.499709 
L 424.13834 306.054392 
L 425.834904 306.030799 
L 427.531469 305.756441 
L 429.228033 306.517614 
L 430.924597 303.444836 
L 432.621161 306.215499 
L 434.317726 306.612645 
L 436.01429 306.64803 
L 437.710854 302.682785 
L 439.407419 301.594238 
L 441.103983 306.060881 
L 442.800547 305.713902 
L 444.497112 298.552482 
L 446.193676 305.60194 
L 447.89024 305.652784 
L 449.586804 300.81784 
L 451.283369 306.207487 
L 452.979933 306.142594 
L 454.676497 301.910515 
L 458.069626 305.221689 
L 461.462755 303.832995 
L 463.159319 300.674544 
L 464.855883 298.380365 
L 466.552448 297.444185 
L 468.249012 305.426102 
L 469.945576 304.530222 
L 471.64214 299.375903 
L 473.338705 279.270821 
L 475.035269 287.192252 
L 476.731833 305.727246 
L 478.428398 306.010296 
L 480.124962 305.069474 
L 481.821526 305.380204 
L 483.518091 302.06827 
L 485.214655 297.242235 
L 486.911219 303.742484 
L 488.607784 305.216785 
L 490.304348 304.26663 
L 492.000912 297.308657 
L 493.697476 305.610513 
L 495.394041 305.425873 
L 497.090605 305.513779 
L 498.787169 301.571782 
L 500.483734 300.186304 
L 502.180298 305.182987 
L 503.876862 302.682941 
L 505.573427 303.363166 
L 507.269991 304.890521 
L 508.966555 298.724928 
L 510.663119 298.549792 
L 512.359684 305.307717 
L 514.056248 305.688838 
L 515.752812 303.393855 
L 517.449377 303.712746 
L 519.145941 306.077583 
L 520.842505 300.532606 
L 522.53907 305.542424 
L 524.235634 300.95989 
L 525.932198 302.171529 
L 529.325327 286.438027 
L 531.021891 303.550745 
L 532.718455 305.868146 
L 534.41502 305.788572 
L 536.111584 305.236934 
L 537.808148 306.266459 
L 539.504713 303.070476 
L 541.201277 306.208805 
L 542.897841 306.178103 
L 544.594406 305.517683 
L 546.29097 305.979653 
L 549.684099 304.764772 
L 551.380663 300.136702 
L 553.077227 304.642498 
L 554.773791 304.386526 
L 556.470356 304.443629 
L 558.16692 304.739307 
L 559.863484 305.92788 
L 561.560049 299.028072 
L 563.256613 306.085308 
L 564.953177 306.235773 
L 566.649742 304.900001 
L 568.346306 305.079308 
L 570.04287 306.211237 
L 571.739434 303.582617 
L 573.435999 305.992067 
L 575.132563 305.665636 
L 576.829127 305.556687 
L 578.525692 304.258228 
L 580.222256 305.752995 
L 581.91882 305.912206 
L 583.615385 305.92686 
L 585.311949 306.244419 
L 587.008513 302.309797 
L 588.705078 305.963194 
L 590.401642 304.729532 
L 592.098206 305.260965 
L 593.79477 305.098293 
L 595.491335 305.840466 
L 597.187899 305.906544 
L 598.884463 306.417886 
L 600.581028 306.397941 
L 602.277592 305.81585 
L 603.974156 306.34512 
L 605.670721 306.250036 
L 607.367285 305.769701 
L 609.063849 306.145195 
L 610.760413 306.207283 
L 612.456978 306.087181 
L 614.153542 297.190351 
L 615.850106 305.89605 
L 619.243235 305.381988 
L 620.939799 306.321681 
L 622.636364 304.534279 
L 622.636364 304.534279 
" clip-path="url(#pbe2904c127)" style="fill: none; stroke: #ff7f0e; stroke-width: 1.5; stroke-linecap: square"/>
   </g>
   <g id="patch_3">
    <path d="M 90 320.4 
L 90 43.2 
" style="fill: none; stroke: #000000; stroke-width: 0.8; stroke-linejoin: miter; stroke-linecap: square"/>
   </g>
   <g id="patch_4">
    <path d="M 648 320.4 
L 648 43.2 
" style="fill: none; stroke: #000000; stroke-width: 0.8; stroke-linejoin: miter; stroke-linecap: square"/>
   </g>
   <g id="patch_5">
    <path d="M 90 320.4 
L 648 320.4 
" style="fill: none; stroke: #000000; stroke-width: 0.8; stroke-linejoin: miter; stroke-linecap: square"/>
   </g>
   <g id="patch_6">
    <path d="M 90 43.2 
L 648 43.2 
" style="fill: none; stroke: #000000; stroke-width: 0.8; stroke-linejoin: miter; stroke-linecap: square"/>
   </g>
   <g id="text_14">
    <!-- Training and Validating Domain Loss -->
    <g transform="translate(260.204063 37.2) scale(0.12 -0.12)">
     <defs>
      <path id="DejaVuSans-54" d="M -19 4666 
L 3928 4666 
L 3928 4134 
L 2272 4134 
L 2272 0 
L 1638 0 
L 1638 4134 
L -19 4134 
L -19 4666 
z
" transform="scale(0.015625)"/>
      <path id="DejaVuSans-72" d="M 2631 2963 
Q 2534 3019 2420 3045 
Q 2306 3072 2169 3072 
Q 1681 3072 1420 2755 
Q 1159 2438 1159 1844 
L 1159 0 
L 581 0 
L 581 3500 
L 1159 3500 
L 1159 2956 
Q 1341 3275 1631 3429 
Q 1922 3584 2338 3584 
Q 2397 3584 2469 3576 
Q 2541 3569 2628 3553 
L 2631 2963 
z
" transform="scale(0.015625)"/>
      <path id="DejaVuSans-67" d="M 2906 1791 
Q 2906 2416 2648 2759 
Q 2391 3103 1925 3103 
Q 1463 3103 1205 2759 
Q 947 2416 947 1791 
Q 947 1169 1205 825 
Q 1463 481 1925 481 
Q 2391 481 2648 825 
Q 2906 1169 2906 1791 
z
M 3481 434 
Q 3481 -459 3084 -895 
Q 2688 -1331 1869 -1331 
Q 1566 -1331 1297 -1286 
Q 1028 -1241 775 -1147 
L 775 -588 
Q 1028 -725 1275 -790 
Q 1522 -856 1778 -856 
Q 2344 -856 2625 -561 
Q 2906 -266 2906 331 
L 2906 616 
Q 2728 306 2450 153 
Q 2172 0 1784 0 
Q 1141 0 747 490 
Q 353 981 353 1791 
Q 353 2603 747 3093 
Q 1141 3584 1784 3584 
Q 2172 3584 2450 3431 
Q 2728 3278 2906 2969 
L 2906 3500 
L 3481 3500 
L 3481 434 
z
" transform="scale(0.015625)"/>
      <path id="DejaVuSans-64" d="M 2906 2969 
L 2906 4863 
L 3481 4863 
L 3481 0 
L 2906 0 
L 2906 525 
Q 2725 213 2448 61 
Q 2172 -91 1784 -91 
Q 1150 -91 751 415 
Q 353 922 353 1747 
Q 353 2572 751 3078 
Q 1150 3584 1784 3584 
Q 2172 3584 2448 3432 
Q 2725 3281 2906 2969 
z
M 947 1747 
Q 947 1113 1208 752 
Q 1469 391 1925 391 
Q 2381 391 2643 752 
Q 2906 1113 2906 1747 
Q 2906 2381 2643 2742 
Q 2381 3103 1925 3103 
Q 1469 3103 1208 2742 
Q 947 2381 947 1747 
z
" transform="scale(0.015625)"/>
      <path id="DejaVuSans-56" d="M 1831 0 
L 50 4666 
L 709 4666 
L 2188 738 
L 3669 4666 
L 4325 4666 
L 2547 0 
L 1831 0 
z
" transform="scale(0.015625)"/>
      <path id="DejaVuSans-6c" d="M 603 4863 
L 1178 4863 
L 1178 0 
L 603 0 
L 603 4863 
z
" transform="scale(0.015625)"/>
      <path id="DejaVuSans-74" d="M 1172 4494 
L 1172 3500 
L 2356 3500 
L 2356 3053 
L 1172 3053 
L 1172 1153 
Q 1172 725 1289 603 
Q 1406 481 1766 481 
L 2356 481 
L 2356 0 
L 1766 0 
Q 1100 0 847 248 
Q 594 497 594 1153 
L 594 3053 
L 172 3053 
L 172 3500 
L 594 3500 
L 594 4494 
L 1172 4494 
z
" transform="scale(0.015625)"/>
     </defs>
     <use xlink:href="#DejaVuSans-54"/>
     <use xlink:href="#DejaVuSans-72" transform="translate(46.333984 0)"/>
     <use xlink:href="#DejaVuSans-61" transform="translate(87.447266 0)"/>
     <use xlink:href="#DejaVuSans-69" transform="translate(148.726562 0)"/>
     <use xlink:href="#DejaVuSans-6e" transform="translate(176.509766 0)"/>
     <use xlink:href="#DejaVuSans-69" transform="translate(239.888672 0)"/>
     <use xlink:href="#DejaVuSans-6e" transform="translate(267.671875 0)"/>
     <use xlink:href="#DejaVuSans-67" transform="translate(331.050781 0)"/>
     <use xlink:href="#DejaVuSans-20" transform="translate(394.527344 0)"/>
     <use xlink:href="#DejaVuSans-61" transform="translate(426.314453 0)"/>
     <use xlink:href="#DejaVuSans-6e" transform="translate(487.59375 0)"/>
     <use xlink:href="#DejaVuSans-64" transform="translate(550.972656 0)"/>
     <use xlink:href="#DejaVuSans-20" transform="translate(614.449219 0)"/>
     <use xlink:href="#DejaVuSans-56" transform="translate(646.236328 0)"/>
     <use xlink:href="#DejaVuSans-61" transform="translate(706.894531 0)"/>
     <use xlink:href="#DejaVuSans-6c" transform="translate(768.173828 0)"/>
     <use xlink:href="#DejaVuSans-69" transform="translate(795.957031 0)"/>
     <use xlink:href="#DejaVuSans-64" transform="translate(823.740234 0)"/>
     <use xlink:href="#DejaVuSans-61" transform="translate(887.216797 0)"/>
     <use xlink:href="#DejaVuSans-74" transform="translate(948.496094 0)"/>
     <use xlink:href="#DejaVuSans-69" transform="translate(987.705078 0)"/>
     <use xlink:href="#DejaVuSans-6e" transform="translate(1015.488281 0)"/>
     <use xlink:href="#DejaVuSans-67" transform="translate(1078.867188 0)"/>
     <use xlink:href="#DejaVuSans-20" transform="translate(1142.34375 0)"/>
     <use xlink:href="#DejaVuSans-44" transform="translate(1174.130859 0)"/>
     <use xlink:href="#DejaVuSans-6f" transform="translate(1251.132812 0)"/>
     <use xlink:href="#DejaVuSans-6d" transform="translate(1312.314453 0)"/>
     <use xlink:href="#DejaVuSans-61" transform="translate(1409.726562 0)"/>
     <use xlink:href="#DejaVuSans-69" transform="translate(1471.005859 0)"/>
     <use xlink:href="#DejaVuSans-6e" transform="translate(1498.789062 0)"/>
     <use xlink:href="#DejaVuSans-20" transform="translate(1562.167969 0)"/>
     <use xlink:href="#DejaVuSans-4c" transform="translate(1593.955078 0)"/>
     <use xlink:href="#DejaVuSans-6f" transform="translate(1647.917969 0)"/>
     <use xlink:href="#DejaVuSans-73" transform="translate(1709.099609 0)"/>
     <use xlink:href="#DejaVuSans-73" transform="translate(1761.199219 0)"/>
    </g>
   </g>
   <g id="legend_1">
    <g id="patch_7">
     <path d="M 559.389063 80.55625 
L 641 80.55625 
Q 643 80.55625 643 78.55625 
L 643 50.2 
Q 643 48.2 641 48.2 
L 559.389063 48.2 
Q 557.389063 48.2 557.389063 50.2 
L 557.389063 78.55625 
Q 557.389063 80.55625 559.389063 80.55625 
z
" style="fill: #ffffff; opacity: 0.8; stroke: #cccccc; stroke-linejoin: miter"/>
    </g>
    <g id="line2d_14">
     <path d="M 561.389063 56.298437 
L 571.389063 56.298437 
L 581.389063 56.298437 
" style="fill: none; stroke: #1f77b4; stroke-width: 1.5; stroke-linecap: square"/>
    </g>
    <g id="text_15">
     <!-- Training -->
     <g transform="translate(589.389063 59.798437) scale(0.1 -0.1)">
      <use xlink:href="#DejaVuSans-54"/>
      <use xlink:href="#DejaVuSans-72" transform="translate(46.333984 0)"/>
      <use xlink:href="#DejaVuSans-61" transform="translate(87.447266 0)"/>
      <use xlink:href="#DejaVuSans-69" transform="translate(148.726562 0)"/>
      <use xlink:href="#DejaVuSans-6e" transform="translate(176.509766 0)"/>
      <use xlink:href="#DejaVuSans-69" transform="translate(239.888672 0)"/>
      <use xlink:href="#DejaVuSans-6e" transform="translate(267.671875 0)"/>
      <use xlink:href="#DejaVuSans-67" transform="translate(331.050781 0)"/>
     </g>
    </g>
    <g id="line2d_15">
     <path d="M 561.389063 70.976562 
L 571.389063 70.976562 
L 581.389063 70.976562 
" style="fill: none; stroke: #ff7f0e; stroke-width: 1.5; stroke-linecap: square"/>
    </g>
    <g id="text_16">
     <!-- Validating -->
     <g transform="translate(589.389063 74.476562) scale(0.1 -0.1)">
      <use xlink:href="#DejaVuSans-56"/>
      <use xlink:href="#DejaVuSans-61" transform="translate(60.658203 0)"/>
      <use xlink:href="#DejaVuSans-6c" transform="translate(121.9375 0)"/>
      <use xlink:href="#DejaVuSans-69" transform="translate(149.720703 0)"/>
      <use xlink:href="#DejaVuSans-64" transform="translate(177.503906 0)"/>
      <use xlink:href="#DejaVuSans-61" transform="translate(240.980469 0)"/>
      <use xlink:href="#DejaVuSans-74" transform="translate(302.259766 0)"/>
      <use xlink:href="#DejaVuSans-69" transform="translate(341.46875 0)"/>
      <use xlink:href="#DejaVuSans-6e" transform="translate(369.251953 0)"/>
      <use xlink:href="#DejaVuSans-67" transform="translate(432.630859 0)"/>
     </g>
    </g>
   </g>
  </g>
 </g>
 <defs>
  <clipPath id="pbe2904c127">
   <rect x="90" y="43.2" width="558" height="277.2"/>
  </clipPath>
 </defs>
</svg>
