<?xml version="1.0" encoding="utf-8" standalone="no"?>
<!DOCTYPE svg PUBLIC "-//W3C//DTD SVG 1.1//EN"
  "http://www.w3.org/Graphics/SVG/1.1/DTD/svg11.dtd">
<svg xmlns:xlink="http://www.w3.org/1999/xlink" width="720pt" height="360pt" viewBox="0 0 720 360" xmlns="http://www.w3.org/2000/svg" version="1.1">
 <metadata>
  <rdf:RDF xmlns:dc="http://purl.org/dc/elements/1.1/" xmlns:cc="http://creativecommons.org/ns#" xmlns:rdf="http://www.w3.org/1999/02/22-rdf-syntax-ns#">
   <cc:Work>
    <dc:type rdf:resource="http://purl.org/dc/dcmitype/StillImage"/>
    <dc:date>2025-11-25T04:47:38.911996</dc:date>
    <dc:format>image/svg+xml</dc:format>
    <dc:creator>
     <cc:Agent>
      <dc:title>Matplotlib v3.10.1, https://matplotlib.org/</dc:title>
     </cc:Agent>
    </dc:creator>
   </cc:Work>
  </rdf:RDF>
 </metadata>
 <defs>
  <style type="text/css">*{stroke-linejoin: round; stroke-linecap: butt}</style>
 </defs>
 <g id="figure_1">
  <g id="patch_1">
   <path d="M 0 360 
L 720 360 
L 720 0 
L 0 0 
z
" style="fill: #ffffff"/>
  </g>
  <g id="axes_1">
   <g id="patch_2">
    <path d="M 90 320.4 
L 648 320.4 
L 648 43.2 
L 90 43.2 
z
" style="fill: #ffffff"/>
   </g>
   <g id="matplotlib.axis_1">
    <g id="xtick_1">
     <g id="line2d_1">
      <defs>
       <path id="m0b444c591e" d="M 0 0 
L 0 3.5 
" style="stroke: #000000; stroke-width: 0.8"/>
      </defs>
      <g>
       <use xlink:href="#m0b444c591e" x="115.363636" y="320.4" style="stroke: #000000; stroke-width: 0.8"/>
      </g>
     </g>
     <g id="text_1">
      <!-- 0 -->
      <g transform="translate(112.182386 334.998438) scale(0.1 -0.1)">
       <defs>
        <path id="DejaVuSans-30" d="M 2034 4250 
Q 1547 4250 1301 3770 
Q 1056 3291 1056 2328 
Q 1056 1369 1301 889 
Q 1547 409 2034 409 
Q 2525 409 2770 889 
Q 3016 1369 3016 2328 
Q 3016 3291 2770 3770 
Q 2525 4250 2034 4250 
z
M 2034 4750 
Q 2819 4750 3233 4129 
Q 3647 3509 3647 2328 
Q 3647 1150 3233 529 
Q 2819 -91 2034 -91 
Q 1250 -91 836 529 
Q 422 1150 422 2328 
Q 422 3509 836 4129 
Q 1250 4750 2034 4750 
z
" transform="scale(0.015625)"/>
       </defs>
       <use xlink:href="#DejaVuSans-30"/>
      </g>
     </g>
    </g>
    <g id="xtick_2">
     <g id="line2d_2">
      <g>
       <use xlink:href="#m0b444c591e" x="217.157495" y="320.4" style="stroke: #000000; stroke-width: 0.8"/>
      </g>
     </g>
     <g id="text_2">
      <!-- 60 -->
      <g transform="translate(210.794995 334.998438) scale(0.1 -0.1)">
       <defs>
        <path id="DejaVuSans-36" d="M 2113 2584 
Q 1688 2584 1439 2293 
Q 1191 2003 1191 1497 
Q 1191 994 1439 701 
Q 1688 409 2113 409 
Q 2538 409 2786 701 
Q 3034 994 3034 1497 
Q 3034 2003 2786 2293 
Q 2538 2584 2113 2584 
z
M 3366 4563 
L 3366 3988 
Q 3128 4100 2886 4159 
Q 2644 4219 2406 4219 
Q 1781 4219 1451 3797 
Q 1122 3375 1075 2522 
Q 1259 2794 1537 2939 
Q 1816 3084 2150 3084 
Q 2853 3084 3261 2657 
Q 3669 2231 3669 1497 
Q 3669 778 3244 343 
Q 2819 -91 2113 -91 
Q 1303 -91 875 529 
Q 447 1150 447 2328 
Q 447 3434 972 4092 
Q 1497 4750 2381 4750 
Q 2619 4750 2861 4703 
Q 3103 4656 3366 4563 
z
" transform="scale(0.015625)"/>
       </defs>
       <use xlink:href="#DejaVuSans-36"/>
       <use xlink:href="#DejaVuSans-30" transform="translate(63.623047 0)"/>
      </g>
     </g>
    </g>
    <g id="xtick_3">
     <g id="line2d_3">
      <g>
       <use xlink:href="#m0b444c591e" x="318.951353" y="320.4" style="stroke: #000000; stroke-width: 0.8"/>
      </g>
     </g>
     <g id="text_3">
      <!-- 120 -->
      <g transform="translate(309.407603 334.998438) scale(0.1 -0.1)">
       <defs>
        <path id="DejaVuSans-31" d="M 794 531 
L 1825 531 
L 1825 4091 
L 703 3866 
L 703 4441 
L 1819 4666 
L 2450 4666 
L 2450 531 
L 3481 531 
L 3481 0 
L 794 0 
L 794 531 
z
" transform="scale(0.015625)"/>
        <path id="DejaVuSans-32" d="M 1228 531 
L 3431 531 
L 3431 0 
L 469 0 
L 469 531 
Q 828 903 1448 1529 
Q 2069 2156 2228 2338 
Q 2531 2678 2651 2914 
Q 2772 3150 2772 3378 
Q 2772 3750 2511 3984 
Q 2250 4219 1831 4219 
Q 1534 4219 1204 4116 
Q 875 4013 500 3803 
L 500 4441 
Q 881 4594 1212 4672 
Q 1544 4750 1819 4750 
Q 2544 4750 2975 4387 
Q 3406 4025 3406 3419 
Q 3406 3131 3298 2873 
Q 3191 2616 2906 2266 
Q 2828 2175 2409 1742 
Q 1991 1309 1228 531 
z
" transform="scale(0.015625)"/>
       </defs>
       <use xlink:href="#DejaVuSans-31"/>
       <use xlink:href="#DejaVuSans-32" transform="translate(63.623047 0)"/>
       <use xlink:href="#DejaVuSans-30" transform="translate(127.246094 0)"/>
      </g>
     </g>
    </g>
    <g id="xtick_4">
     <g id="line2d_4">
      <g>
       <use xlink:href="#m0b444c591e" x="420.745211" y="320.4" style="stroke: #000000; stroke-width: 0.8"/>
      </g>
     </g>
     <g id="text_4">
      <!-- 180 -->
      <g transform="translate(411.201461 334.998438) scale(0.1 -0.1)">
       <defs>
        <path id="DejaVuSans-38" d="M 2034 2216 
Q 1584 2216 1326 1975 
Q 1069 1734 1069 1313 
Q 1069 891 1326 650 
Q 1584 409 2034 409 
Q 2484 409 2743 651 
Q 3003 894 3003 1313 
Q 3003 1734 2745 1975 
Q 2488 2216 2034 2216 
z
M 1403 2484 
Q 997 2584 770 2862 
Q 544 3141 544 3541 
Q 544 4100 942 4425 
Q 1341 4750 2034 4750 
Q 2731 4750 3128 4425 
Q 3525 4100 3525 3541 
Q 3525 3141 3298 2862 
Q 3072 2584 2669 2484 
Q 3125 2378 3379 2068 
Q 3634 1759 3634 1313 
Q 3634 634 3220 271 
Q 2806 -91 2034 -91 
Q 1263 -91 848 271 
Q 434 634 434 1313 
Q 434 1759 690 2068 
Q 947 2378 1403 2484 
z
M 1172 3481 
Q 1172 3119 1398 2916 
Q 1625 2713 2034 2713 
Q 2441 2713 2670 2916 
Q 2900 3119 2900 3481 
Q 2900 3844 2670 4047 
Q 2441 4250 2034 4250 
Q 1625 4250 1398 4047 
Q 1172 3844 1172 3481 
z
" transform="scale(0.015625)"/>
       </defs>
       <use xlink:href="#DejaVuSans-31"/>
       <use xlink:href="#DejaVuSans-38" transform="translate(63.623047 0)"/>
       <use xlink:href="#DejaVuSans-30" transform="translate(127.246094 0)"/>
      </g>
     </g>
    </g>
    <g id="xtick_5">
     <g id="line2d_5">
      <g>
       <use xlink:href="#m0b444c591e" x="522.53907" y="320.4" style="stroke: #000000; stroke-width: 0.8"/>
      </g>
     </g>
     <g id="text_5">
      <!-- 240 -->
      <g transform="translate(512.99532 334.998438) scale(0.1 -0.1)">
       <defs>
        <path id="DejaVuSans-34" d="M 2419 4116 
L 825 1625 
L 2419 1625 
L 2419 4116 
z
M 2253 4666 
L 3047 4666 
L 3047 1625 
L 3713 1625 
L 3713 1100 
L 3047 1100 
L 3047 0 
L 2419 0 
L 2419 1100 
L 313 1100 
L 313 1709 
L 2253 4666 
z
" transform="scale(0.015625)"/>
       </defs>
       <use xlink:href="#DejaVuSans-32"/>
       <use xlink:href="#DejaVuSans-34" transform="translate(63.623047 0)"/>
       <use xlink:href="#DejaVuSans-30" transform="translate(127.246094 0)"/>
      </g>
     </g>
    </g>
    <g id="text_6">
     <!-- Epoch -->
     <g transform="translate(353.689062 348.676562) scale(0.1 -0.1)">
      <defs>
       <path id="DejaVuSans-45" d="M 628 4666 
L 3578 4666 
L 3578 4134 
L 1259 4134 
L 1259 2753 
L 3481 2753 
L 3481 2222 
L 1259 2222 
L 1259 531 
L 3634 531 
L 3634 0 
L 628 0 
L 628 4666 
z
" transform="scale(0.015625)"/>
       <path id="DejaVuSans-70" d="M 1159 525 
L 1159 -1331 
L 581 -1331 
L 581 3500 
L 1159 3500 
L 1159 2969 
Q 1341 3281 1617 3432 
Q 1894 3584 2278 3584 
Q 2916 3584 3314 3078 
Q 3713 2572 3713 1747 
Q 3713 922 3314 415 
Q 2916 -91 2278 -91 
Q 1894 -91 1617 61 
Q 1341 213 1159 525 
z
M 3116 1747 
Q 3116 2381 2855 2742 
Q 2594 3103 2138 3103 
Q 1681 3103 1420 2742 
Q 1159 2381 1159 1747 
Q 1159 1113 1420 752 
Q 1681 391 2138 391 
Q 2594 391 2855 752 
Q 3116 1113 3116 1747 
z
" transform="scale(0.015625)"/>
       <path id="DejaVuSans-6f" d="M 1959 3097 
Q 1497 3097 1228 2736 
Q 959 2375 959 1747 
Q 959 1119 1226 758 
Q 1494 397 1959 397 
Q 2419 397 2687 759 
Q 2956 1122 2956 1747 
Q 2956 2369 2687 2733 
Q 2419 3097 1959 3097 
z
M 1959 3584 
Q 2709 3584 3137 3096 
Q 3566 2609 3566 1747 
Q 3566 888 3137 398 
Q 2709 -91 1959 -91 
Q 1206 -91 779 398 
Q 353 888 353 1747 
Q 353 2609 779 3096 
Q 1206 3584 1959 3584 
z
" transform="scale(0.015625)"/>
       <path id="DejaVuSans-63" d="M 3122 3366 
L 3122 2828 
Q 2878 2963 2633 3030 
Q 2388 3097 2138 3097 
Q 1578 3097 1268 2742 
Q 959 2388 959 1747 
Q 959 1106 1268 751 
Q 1578 397 2138 397 
Q 2388 397 2633 464 
Q 2878 531 3122 666 
L 3122 134 
Q 2881 22 2623 -34 
Q 2366 -91 2075 -91 
Q 1284 -91 818 406 
Q 353 903 353 1747 
Q 353 2603 823 3093 
Q 1294 3584 2113 3584 
Q 2378 3584 2631 3529 
Q 2884 3475 3122 3366 
z
" transform="scale(0.015625)"/>
       <path id="DejaVuSans-68" d="M 3513 2113 
L 3513 0 
L 2938 0 
L 2938 2094 
Q 2938 2591 2744 2837 
Q 2550 3084 2163 3084 
Q 1697 3084 1428 2787 
Q 1159 2491 1159 1978 
L 1159 0 
L 581 0 
L 581 4863 
L 1159 4863 
L 1159 2956 
Q 1366 3272 1645 3428 
Q 1925 3584 2291 3584 
Q 2894 3584 3203 3211 
Q 3513 2838 3513 2113 
z
" transform="scale(0.015625)"/>
      </defs>
      <use xlink:href="#DejaVuSans-45"/>
      <use xlink:href="#DejaVuSans-70" transform="translate(63.183594 0)"/>
      <use xlink:href="#DejaVuSans-6f" transform="translate(126.660156 0)"/>
      <use xlink:href="#DejaVuSans-63" transform="translate(187.841797 0)"/>
      <use xlink:href="#DejaVuSans-68" transform="translate(242.822266 0)"/>
     </g>
    </g>
   </g>
   <g id="matplotlib.axis_2">
    <g id="ytick_1">
     <g id="line2d_6">
      <defs>
       <path id="m3dab1b4ba7" d="M 0 0 
L -3.5 0 
" style="stroke: #000000; stroke-width: 0.8"/>
      </defs>
      <g>
       <use xlink:href="#m3dab1b4ba7" x="90" y="296.981703" style="stroke: #000000; stroke-width: 0.8"/>
      </g>
     </g>
     <g id="text_7">
      <!-- 0.2 -->
      <g transform="translate(67.096875 300.780922) scale(0.1 -0.1)">
       <defs>
        <path id="DejaVuSans-2e" d="M 684 794 
L 1344 794 
L 1344 0 
L 684 0 
L 684 794 
z
" transform="scale(0.015625)"/>
       </defs>
       <use xlink:href="#DejaVuSans-30"/>
       <use xlink:href="#DejaVuSans-2e" transform="translate(63.623047 0)"/>
       <use xlink:href="#DejaVuSans-32" transform="translate(95.410156 0)"/>
      </g>
     </g>
    </g>
    <g id="ytick_2">
     <g id="line2d_7">
      <g>
       <use xlink:href="#m3dab1b4ba7" x="90" y="241.569618" style="stroke: #000000; stroke-width: 0.8"/>
      </g>
     </g>
     <g id="text_8">
      <!-- 0.3 -->
      <g transform="translate(67.096875 245.368837) scale(0.1 -0.1)">
       <defs>
        <path id="DejaVuSans-33" d="M 2597 2516 
Q 3050 2419 3304 2112 
Q 3559 1806 3559 1356 
Q 3559 666 3084 287 
Q 2609 -91 1734 -91 
Q 1441 -91 1130 -33 
Q 819 25 488 141 
L 488 750 
Q 750 597 1062 519 
Q 1375 441 1716 441 
Q 2309 441 2620 675 
Q 2931 909 2931 1356 
Q 2931 1769 2642 2001 
Q 2353 2234 1838 2234 
L 1294 2234 
L 1294 2753 
L 1863 2753 
Q 2328 2753 2575 2939 
Q 2822 3125 2822 3475 
Q 2822 3834 2567 4026 
Q 2313 4219 1838 4219 
Q 1578 4219 1281 4162 
Q 984 4106 628 3988 
L 628 4550 
Q 988 4650 1302 4700 
Q 1616 4750 1894 4750 
Q 2613 4750 3031 4423 
Q 3450 4097 3450 3541 
Q 3450 3153 3228 2886 
Q 3006 2619 2597 2516 
z
" transform="scale(0.015625)"/>
       </defs>
       <use xlink:href="#DejaVuSans-30"/>
       <use xlink:href="#DejaVuSans-2e" transform="translate(63.623047 0)"/>
       <use xlink:href="#DejaVuSans-33" transform="translate(95.410156 0)"/>
      </g>
     </g>
    </g>
    <g id="ytick_3">
     <g id="line2d_8">
      <g>
       <use xlink:href="#m3dab1b4ba7" x="90" y="186.157533" style="stroke: #000000; stroke-width: 0.8"/>
      </g>
     </g>
     <g id="text_9">
      <!-- 0.4 -->
      <g transform="translate(67.096875 189.956751) scale(0.1 -0.1)">
       <use xlink:href="#DejaVuSans-30"/>
       <use xlink:href="#DejaVuSans-2e" transform="translate(63.623047 0)"/>
       <use xlink:href="#DejaVuSans-34" transform="translate(95.410156 0)"/>
      </g>
     </g>
    </g>
    <g id="ytick_4">
     <g id="line2d_9">
      <g>
       <use xlink:href="#m3dab1b4ba7" x="90" y="130.745447" style="stroke: #000000; stroke-width: 0.8"/>
      </g>
     </g>
     <g id="text_10">
      <!-- 0.5 -->
      <g transform="translate(67.096875 134.544666) scale(0.1 -0.1)">
       <defs>
        <path id="DejaVuSans-35" d="M 691 4666 
L 3169 4666 
L 3169 4134 
L 1269 4134 
L 1269 2991 
Q 1406 3038 1543 3061 
Q 1681 3084 1819 3084 
Q 2600 3084 3056 2656 
Q 3513 2228 3513 1497 
Q 3513 744 3044 326 
Q 2575 -91 1722 -91 
Q 1428 -91 1123 -41 
Q 819 9 494 109 
L 494 744 
Q 775 591 1075 516 
Q 1375 441 1709 441 
Q 2250 441 2565 725 
Q 2881 1009 2881 1497 
Q 2881 1984 2565 2268 
Q 2250 2553 1709 2553 
Q 1456 2553 1204 2497 
Q 953 2441 691 2322 
L 691 4666 
z
" transform="scale(0.015625)"/>
       </defs>
       <use xlink:href="#DejaVuSans-30"/>
       <use xlink:href="#DejaVuSans-2e" transform="translate(63.623047 0)"/>
       <use xlink:href="#DejaVuSans-35" transform="translate(95.410156 0)"/>
      </g>
     </g>
    </g>
    <g id="ytick_5">
     <g id="line2d_10">
      <g>
       <use xlink:href="#m3dab1b4ba7" x="90" y="75.333362" style="stroke: #000000; stroke-width: 0.8"/>
      </g>
     </g>
     <g id="text_11">
      <!-- 0.6 -->
      <g transform="translate(67.096875 79.132581) scale(0.1 -0.1)">
       <use xlink:href="#DejaVuSans-30"/>
       <use xlink:href="#DejaVuSans-2e" transform="translate(63.623047 0)"/>
       <use xlink:href="#DejaVuSans-36" transform="translate(95.410156 0)"/>
      </g>
     </g>
    </g>
    <g id="text_12">
     <!-- Estimation Loss -->
     <g transform="translate(61.017187 220.98125) rotate(-90) scale(0.1 -0.1)">
      <defs>
       <path id="DejaVuSans-73" d="M 2834 3397 
L 2834 2853 
Q 2591 2978 2328 3040 
Q 2066 3103 1784 3103 
Q 1356 3103 1142 2972 
Q 928 2841 928 2578 
Q 928 2378 1081 2264 
Q 1234 2150 1697 2047 
L 1894 2003 
Q 2506 1872 2764 1633 
Q 3022 1394 3022 966 
Q 3022 478 2636 193 
Q 2250 -91 1575 -91 
Q 1294 -91 989 -36 
Q 684 19 347 128 
L 347 722 
Q 666 556 975 473 
Q 1284 391 1588 391 
Q 1994 391 2212 530 
Q 2431 669 2431 922 
Q 2431 1156 2273 1281 
Q 2116 1406 1581 1522 
L 1381 1569 
Q 847 1681 609 1914 
Q 372 2147 372 2553 
Q 372 3047 722 3315 
Q 1072 3584 1716 3584 
Q 2034 3584 2315 3537 
Q 2597 3491 2834 3397 
z
" transform="scale(0.015625)"/>
       <path id="DejaVuSans-74" d="M 1172 4494 
L 1172 3500 
L 2356 3500 
L 2356 3053 
L 1172 3053 
L 1172 1153 
Q 1172 725 1289 603 
Q 1406 481 1766 481 
L 2356 481 
L 2356 0 
L 1766 0 
Q 1100 0 847 248 
Q 594 497 594 1153 
L 594 3053 
L 172 3053 
L 172 3500 
L 594 3500 
L 594 4494 
L 1172 4494 
z
" transform="scale(0.015625)"/>
       <path id="DejaVuSans-69" d="M 603 3500 
L 1178 3500 
L 1178 0 
L 603 0 
L 603 3500 
z
M 603 4863 
L 1178 4863 
L 1178 4134 
L 603 4134 
L 603 4863 
z
" transform="scale(0.015625)"/>
       <path id="DejaVuSans-6d" d="M 3328 2828 
Q 3544 3216 3844 3400 
Q 4144 3584 4550 3584 
Q 5097 3584 5394 3201 
Q 5691 2819 5691 2113 
L 5691 0 
L 5113 0 
L 5113 2094 
Q 5113 2597 4934 2840 
Q 4756 3084 4391 3084 
Q 3944 3084 3684 2787 
Q 3425 2491 3425 1978 
L 3425 0 
L 2847 0 
L 2847 2094 
Q 2847 2600 2669 2842 
Q 2491 3084 2119 3084 
Q 1678 3084 1418 2786 
Q 1159 2488 1159 1978 
L 1159 0 
L 581 0 
L 581 3500 
L 1159 3500 
L 1159 2956 
Q 1356 3278 1631 3431 
Q 1906 3584 2284 3584 
Q 2666 3584 2933 3390 
Q 3200 3197 3328 2828 
z
" transform="scale(0.015625)"/>
       <path id="DejaVuSans-61" d="M 2194 1759 
Q 1497 1759 1228 1600 
Q 959 1441 959 1056 
Q 959 750 1161 570 
Q 1363 391 1709 391 
Q 2188 391 2477 730 
Q 2766 1069 2766 1631 
L 2766 1759 
L 2194 1759 
z
M 3341 1997 
L 3341 0 
L 2766 0 
L 2766 531 
Q 2569 213 2275 61 
Q 1981 -91 1556 -91 
Q 1019 -91 701 211 
Q 384 513 384 1019 
Q 384 1609 779 1909 
Q 1175 2209 1959 2209 
L 2766 2209 
L 2766 2266 
Q 2766 2663 2505 2880 
Q 2244 3097 1772 3097 
Q 1472 3097 1187 3025 
Q 903 2953 641 2809 
L 641 3341 
Q 956 3463 1253 3523 
Q 1550 3584 1831 3584 
Q 2591 3584 2966 3190 
Q 3341 2797 3341 1997 
z
" transform="scale(0.015625)"/>
       <path id="DejaVuSans-6e" d="M 3513 2113 
L 3513 0 
L 2938 0 
L 2938 2094 
Q 2938 2591 2744 2837 
Q 2550 3084 2163 3084 
Q 1697 3084 1428 2787 
Q 1159 2491 1159 1978 
L 1159 0 
L 581 0 
L 581 3500 
L 1159 3500 
L 1159 2956 
Q 1366 3272 1645 3428 
Q 1925 3584 2291 3584 
Q 2894 3584 3203 3211 
Q 3513 2838 3513 2113 
z
" transform="scale(0.015625)"/>
       <path id="DejaVuSans-20" transform="scale(0.015625)"/>
       <path id="DejaVuSans-4c" d="M 628 4666 
L 1259 4666 
L 1259 531 
L 3531 531 
L 3531 0 
L 628 0 
L 628 4666 
z
" transform="scale(0.015625)"/>
      </defs>
      <use xlink:href="#DejaVuSans-45"/>
      <use xlink:href="#DejaVuSans-73" transform="translate(63.183594 0)"/>
      <use xlink:href="#DejaVuSans-74" transform="translate(115.283203 0)"/>
      <use xlink:href="#DejaVuSans-69" transform="translate(154.492188 0)"/>
      <use xlink:href="#DejaVuSans-6d" transform="translate(182.275391 0)"/>
      <use xlink:href="#DejaVuSans-61" transform="translate(279.6875 0)"/>
      <use xlink:href="#DejaVuSans-74" transform="translate(340.966797 0)"/>
      <use xlink:href="#DejaVuSans-69" transform="translate(380.175781 0)"/>
      <use xlink:href="#DejaVuSans-6f" transform="translate(407.958984 0)"/>
      <use xlink:href="#DejaVuSans-6e" transform="translate(469.140625 0)"/>
      <use xlink:href="#DejaVuSans-20" transform="translate(532.519531 0)"/>
      <use xlink:href="#DejaVuSans-4c" transform="translate(564.306641 0)"/>
      <use xlink:href="#DejaVuSans-6f" transform="translate(618.269531 0)"/>
      <use xlink:href="#DejaVuSans-73" transform="translate(679.451172 0)"/>
      <use xlink:href="#DejaVuSans-73" transform="translate(731.550781 0)"/>
     </g>
    </g>
   </g>
   <g id="line2d_11">
    <path d="M 115.363636 55.8 
L 117.060201 206.716054 
L 118.756765 237.772308 
L 120.453329 253.865172 
L 122.149894 263.519907 
L 123.846458 269.825207 
L 125.543022 273.987425 
L 127.239587 277.721973 
L 130.632715 282.277252 
L 132.329279 284.74757 
L 134.025844 286.02931 
L 135.722408 287.617255 
L 137.418972 288.592746 
L 140.812101 290.725248 
L 144.20523 292.114402 
L 145.901794 292.519487 
L 147.598358 293.451768 
L 154.384615 295.37152 
L 157.777744 295.909665 
L 159.474308 296.25439 
L 161.170873 296.374472 
L 162.867437 296.776063 
L 166.260566 297.194943 
L 167.95713 297.320273 
L 169.653694 297.574339 
L 171.350258 297.513162 
L 173.046823 297.819346 
L 174.743387 297.949589 
L 176.439951 297.93647 
L 179.83308 298.359685 
L 184.922773 298.773515 
L 191.70903 299.37685 
L 193.405594 299.319832 
L 206.978109 300.139907 
L 210.371237 300.197281 
L 212.067802 300.483103 
L 213.764366 300.359509 
L 217.157495 300.691956 
L 218.854059 300.646543 
L 223.943752 300.904166 
L 225.640316 300.831755 
L 230.730009 301.187347 
L 234.123138 301.155559 
L 235.819702 301.356273 
L 242.605959 301.537222 
L 245.999088 301.784816 
L 251.088781 301.877928 
L 257.875038 302.21839 
L 259.571602 302.140091 
L 262.964731 302.354469 
L 264.661295 302.320035 
L 266.35786 302.530071 
L 273.144117 302.648836 
L 278.23381 302.856231 
L 279.930374 302.868185 
L 281.626938 303.066655 
L 283.323503 303.006587 
L 291.806324 303.484714 
L 295.199453 303.6261 
L 300.289146 303.750989 
L 301.98571 303.974671 
L 308.771967 304.138054 
L 310.468531 304.371572 
L 313.86166 304.529943 
L 315.558224 304.410594 
L 320.647917 304.801518 
L 322.344482 304.800316 
L 324.041046 304.981563 
L 325.73761 304.870438 
L 329.130739 305.181728 
L 335.916996 305.29285 
L 337.61356 305.427318 
L 341.006689 305.410944 
L 342.703253 305.566838 
L 344.399818 305.481055 
L 354.579203 305.820202 
L 356.275768 305.764874 
L 366.455154 306.099006 
L 368.151718 306.040463 
L 369.848282 306.150103 
L 376.634539 306.138812 
L 380.027668 306.193241 
L 381.724232 306.183562 
L 383.420797 306.330299 
L 388.51049 306.335105 
L 390.207054 306.246063 
L 391.903618 306.412224 
L 396.993311 306.396107 
L 420.745211 306.685776 
L 422.441776 306.62505 
L 424.13834 306.755742 
L 429.228033 306.770528 
L 587.008513 307.645106 
L 588.705078 307.551868 
L 590.401642 307.647902 
L 593.79477 307.700857 
L 605.670721 307.622286 
L 607.367285 307.772955 
L 612.456978 307.67357 
L 622.636364 307.734034 
L 622.636364 307.734034 
" clip-path="url(#p7a10f74f02)" style="fill: none; stroke: #1f77b4; stroke-width: 1.5; stroke-linecap: square"/>
   </g>
   <g id="line2d_12">
    <path d="M 115.363636 115.989447 
L 117.060201 223.968404 
L 118.756765 241.5019 
L 120.453329 249.274546 
L 123.846458 259.788083 
L 125.543022 264.57803 
L 127.239587 268.413945 
L 128.936151 271.32727 
L 130.632715 273.799046 
L 132.329279 276.531127 
L 134.025844 278.12677 
L 135.722408 280.054863 
L 140.812101 283.554485 
L 142.508665 284.424693 
L 144.20523 285.655028 
L 145.901794 285.467484 
L 147.598358 287.179851 
L 152.688051 289.300211 
L 154.384615 289.744758 
L 156.08118 290.641792 
L 157.777744 290.819085 
L 159.474308 291.530919 
L 161.170873 291.352346 
L 162.867437 291.894936 
L 164.564001 292.75379 
L 166.260566 293.124723 
L 169.653694 293.317868 
L 173.046823 294.135137 
L 174.743387 294.334371 
L 176.439951 294.097686 
L 178.136516 295.065509 
L 179.83308 294.878307 
L 181.529644 295.441776 
L 183.226209 295.372914 
L 186.619337 296.110267 
L 188.315901 295.995949 
L 190.012466 296.363012 
L 191.70903 296.276578 
L 193.405594 296.403245 
L 195.102159 296.193099 
L 196.798723 296.485298 
L 198.495287 296.449169 
L 200.191852 296.733363 
L 201.888416 296.809193 
L 203.58498 297.136531 
L 205.281545 297.018025 
L 210.371237 297.207874 
L 213.764366 297.500138 
L 215.46093 297.26354 
L 217.157495 297.564614 
L 218.854059 297.409686 
L 220.550623 297.659414 
L 222.247188 297.555048 
L 223.943752 297.937043 
L 225.640316 298.06593 
L 227.336881 297.60543 
L 229.033445 298.08229 
L 230.730009 297.94815 
L 232.426573 298.144354 
L 234.123138 297.945714 
L 235.819702 298.226621 
L 239.212831 298.076217 
L 240.909395 298.236711 
L 242.605959 298.044504 
L 245.999088 298.488115 
L 247.695652 298.308478 
L 249.392216 298.269409 
L 251.088781 298.55862 
L 254.481909 298.603146 
L 256.178474 298.288417 
L 257.875038 298.798247 
L 259.571602 298.536903 
L 261.268167 298.55817 
L 266.35786 299.097174 
L 268.054424 298.809338 
L 273.144117 298.886875 
L 274.840681 299.084969 
L 278.23381 299.106143 
L 279.930374 298.930354 
L 283.323503 298.989289 
L 286.716631 299.526959 
L 288.413196 299.286559 
L 290.10976 299.261027 
L 291.806324 299.693958 
L 293.502888 299.212105 
L 295.199453 299.643336 
L 296.896017 299.932931 
L 298.592581 299.611515 
L 303.682274 299.556417 
L 305.378839 299.309924 
L 307.075403 299.869875 
L 308.771967 299.378605 
L 310.468531 299.747998 
L 313.86166 300.011743 
L 315.558224 299.66033 
L 317.254789 299.991596 
L 318.951353 299.674767 
L 320.647917 299.896861 
L 322.344482 299.731541 
L 324.041046 300.180909 
L 325.73761 299.590665 
L 327.434175 300.116738 
L 330.827303 299.787082 
L 335.916996 299.678078 
L 337.61356 299.797469 
L 341.006689 299.616402 
L 342.703253 299.8432 
L 344.399818 299.603095 
L 346.096382 299.869088 
L 349.48951 299.70597 
L 351.186075 299.559449 
L 352.882639 299.285756 
L 354.579203 299.65251 
L 356.275768 299.809494 
L 359.668896 299.687272 
L 361.365461 299.781645 
L 363.062025 299.735793 
L 364.758589 299.326472 
L 366.455154 299.608496 
L 368.151718 299.686606 
L 369.848282 299.424146 
L 371.544846 299.628745 
L 373.241411 299.610472 
L 374.937975 299.706875 
L 376.634539 299.683141 
L 378.331104 299.517119 
L 380.027668 299.813781 
L 381.724232 299.778294 
L 385.117361 300.026388 
L 386.813925 299.893021 
L 388.51049 299.99994 
L 390.207054 299.792027 
L 391.903618 300.024888 
L 393.600182 299.935337 
L 395.296747 299.977598 
L 396.993311 299.829784 
L 400.38644 300.143233 
L 408.869261 300.014173 
L 412.26239 300.082539 
L 413.958954 300.275871 
L 415.655518 299.684942 
L 417.352083 300.123739 
L 419.048647 300.070186 
L 420.745211 299.833562 
L 422.441776 300.182428 
L 424.13834 300.133967 
L 425.834904 299.924738 
L 427.531469 300.239655 
L 429.228033 300.159684 
L 430.924597 300.387479 
L 432.621161 300.357267 
L 434.317726 300.178534 
L 436.01429 300.528852 
L 441.103983 300.338404 
L 442.800547 300.545099 
L 446.193676 300.476579 
L 447.89024 300.422784 
L 449.586804 300.615321 
L 451.283369 300.359101 
L 454.676497 300.86588 
L 456.373062 300.549208 
L 458.069626 300.696604 
L 461.462755 300.585279 
L 463.159319 300.816357 
L 464.855883 300.806694 
L 466.552448 301.023781 
L 468.249012 300.867083 
L 473.338705 300.842044 
L 481.821526 301.106944 
L 483.518091 300.718979 
L 485.214655 300.947245 
L 486.911219 300.911815 
L 488.607784 301.062769 
L 490.304348 301.099892 
L 492.000912 301.012463 
L 495.394041 301.233731 
L 497.090605 301.117564 
L 498.787169 301.178337 
L 500.483734 300.998296 
L 502.180298 300.636591 
L 503.876862 301.296112 
L 505.573427 301.026862 
L 507.269991 301.022828 
L 508.966555 301.363886 
L 510.663119 301.032552 
L 514.056248 301.342078 
L 515.752812 301.201595 
L 517.449377 301.560461 
L 519.145941 301.287102 
L 520.842505 301.55138 
L 522.53907 301.320647 
L 524.235634 301.460473 
L 525.932198 301.337874 
L 529.325327 301.503082 
L 531.021891 301.263961 
L 532.718455 301.415961 
L 534.41502 301.729573 
L 536.111584 301.496072 
L 539.504713 301.89065 
L 544.594406 301.345981 
L 547.987534 301.635992 
L 549.684099 301.588023 
L 551.380663 301.753763 
L 554.773791 301.507854 
L 556.470356 301.685576 
L 558.16692 301.442368 
L 559.863484 301.53772 
L 563.256613 301.304192 
L 564.953177 301.549215 
L 566.649742 301.207836 
L 570.04287 301.314015 
L 571.739434 301.280571 
L 573.435999 301.40384 
L 575.132563 301.332592 
L 576.829127 301.575064 
L 585.311949 301.39986 
L 587.008513 301.647872 
L 590.401642 301.598072 
L 598.884463 301.384618 
L 600.581028 301.117084 
L 602.277592 301.641172 
L 603.974156 301.327712 
L 607.367285 301.289471 
L 609.063849 301.727794 
L 610.760413 301.221866 
L 614.153542 301.548319 
L 619.243235 301.350026 
L 620.939799 301.516549 
L 622.636364 301.418575 
L 622.636364 301.418575 
" clip-path="url(#p7a10f74f02)" style="fill: none; stroke: #ff7f0e; stroke-width: 1.5; stroke-linecap: square"/>
   </g>
   <g id="line2d_13">
    <path d="M 115.363636 191.092659 
L 117.060201 234.720141 
L 118.756765 255.206347 
L 120.453329 265.334893 
L 122.149894 271.981571 
L 125.543022 281.578613 
L 127.239587 282.028414 
L 128.936151 283.482121 
L 130.632715 285.369357 
L 132.329279 288.351519 
L 134.025844 289.474706 
L 135.722408 289.512992 
L 139.115537 292.272574 
L 140.812101 294.190519 
L 142.508665 292.861052 
L 144.20523 294.108267 
L 145.901794 294.460038 
L 147.598358 295.613714 
L 149.294922 296.144036 
L 150.991487 296.852091 
L 152.688051 294.837751 
L 154.384615 295.74952 
L 156.08118 293.726428 
L 157.777744 293.619537 
L 159.474308 296.568324 
L 161.170873 295.696537 
L 162.867437 296.924468 
L 164.564001 296.200891 
L 166.260566 297.189142 
L 167.95713 295.902041 
L 169.653694 296.662967 
L 173.046823 297.379383 
L 174.743387 297.443117 
L 176.439951 298.250839 
L 178.136516 297.52022 
L 179.83308 298.220372 
L 181.529644 297.223763 
L 183.226209 298.597398 
L 184.922773 298.676758 
L 186.619337 299.077354 
L 188.315901 298.261116 
L 193.405594 299.057383 
L 195.102159 299.615918 
L 196.798723 299.707898 
L 198.495287 299.638619 
L 201.888416 299.928746 
L 205.281545 299.57223 
L 206.978109 299.217226 
L 208.674673 300.221603 
L 210.371237 300.015853 
L 212.067802 300.262036 
L 215.46093 300.394799 
L 218.854059 300.367444 
L 222.247188 300.449478 
L 223.943752 300.714749 
L 225.640316 300.269535 
L 227.336881 300.896237 
L 229.033445 301.05568 
L 230.730009 300.534889 
L 232.426573 300.4626 
L 234.123138 301.138391 
L 235.819702 299.473314 
L 237.516266 300.988249 
L 239.212831 300.780767 
L 240.909395 301.391885 
L 242.605959 299.710586 
L 244.302524 300.671532 
L 245.999088 300.491267 
L 247.695652 301.448794 
L 249.392216 301.641469 
L 251.088781 300.953287 
L 252.785345 301.735469 
L 254.481909 300.775426 
L 256.178474 300.600625 
L 257.875038 300.9526 
L 259.571602 301.662972 
L 261.268167 301.685191 
L 262.964731 301.052495 
L 264.661295 301.568663 
L 266.35786 300.622482 
L 268.054424 300.956314 
L 271.447552 300.696082 
L 273.144117 301.615081 
L 274.840681 301.581764 
L 276.537245 301.381976 
L 278.23381 301.483794 
L 279.930374 302.078546 
L 281.626938 301.370194 
L 283.323503 301.764038 
L 285.020067 301.797384 
L 286.716631 301.606351 
L 288.413196 302.008879 
L 290.10976 301.567835 
L 291.806324 301.891437 
L 293.502888 301.739261 
L 295.199453 302.116737 
L 296.896017 302.364179 
L 298.592581 301.678081 
L 300.289146 302.522143 
L 301.98571 302.605912 
L 303.682274 301.838988 
L 305.378839 301.939376 
L 307.075403 301.928341 
L 308.771967 302.318256 
L 312.165096 302.453157 
L 313.86166 303.13535 
L 315.558224 302.915528 
L 318.951353 301.686302 
L 322.344482 302.893821 
L 324.041046 302.680036 
L 325.73761 303.093267 
L 327.434175 303.161119 
L 329.130739 303.088578 
L 330.827303 303.499619 
L 332.523867 303.222057 
L 334.220432 303.72997 
L 335.916996 303.717881 
L 337.61356 302.885247 
L 339.310125 303.223943 
L 341.006689 303.796235 
L 344.399818 303.399515 
L 347.792946 303.736807 
L 349.48951 302.942732 
L 351.186075 304.163203 
L 352.882639 303.155025 
L 354.579203 304.029044 
L 356.275768 304.2092 
L 357.972332 303.719479 
L 359.668896 303.758455 
L 361.365461 303.568893 
L 363.062025 304.436854 
L 364.758589 303.706135 
L 366.455154 304.514537 
L 368.151718 303.384887 
L 369.848282 303.813885 
L 371.544846 304.625061 
L 373.241411 304.161387 
L 376.634539 304.577282 
L 378.331104 304.132348 
L 380.027668 304.552771 
L 381.724232 304.352098 
L 383.420797 304.458542 
L 385.117361 304.437301 
L 386.813925 304.71364 
L 388.51049 304.790387 
L 390.207054 304.656192 
L 391.903618 304.18386 
L 393.600182 304.803412 
L 395.296747 304.548009 
L 396.993311 304.412157 
L 400.38644 304.624917 
L 402.083004 304.583906 
L 403.779568 304.363097 
L 405.476133 304.461265 
L 407.172697 304.699505 
L 408.869261 304.757679 
L 410.565825 304.236053 
L 412.26239 305.036649 
L 413.958954 304.729976 
L 415.655518 304.865347 
L 419.048647 304.616879 
L 420.745211 304.629788 
L 422.441776 304.781487 
L 424.13834 304.684937 
L 425.834904 305.045422 
L 430.924597 305.205683 
L 432.621161 305.082026 
L 434.317726 304.645251 
L 436.01429 305.11522 
L 437.710854 304.996824 
L 444.497112 305.005431 
L 446.193676 305.19275 
L 447.89024 305.17434 
L 449.586804 304.964996 
L 451.283369 305.19346 
L 458.069626 305.060394 
L 459.76619 304.832265 
L 461.462755 304.927097 
L 463.159319 305.221616 
L 464.855883 305.108965 
L 468.249012 305.531941 
L 469.945576 305.108957 
L 471.64214 305.439162 
L 475.035269 305.351026 
L 476.731833 305.380799 
L 478.428398 305.215653 
L 480.124962 305.414103 
L 481.821526 305.36247 
L 483.518091 305.543456 
L 485.214655 305.124764 
L 486.911219 305.574418 
L 488.607784 305.352238 
L 492.000912 305.550434 
L 493.697476 305.549253 
L 495.394041 305.342975 
L 498.787169 305.461674 
L 500.483734 304.978718 
L 502.180298 305.469282 
L 505.573427 305.147398 
L 507.269991 305.348869 
L 508.966555 305.298337 
L 510.663119 305.637204 
L 512.359684 305.494707 
L 514.056248 305.716958 
L 515.752812 305.314211 
L 517.449377 305.711917 
L 527.628763 305.699394 
L 529.325327 305.188102 
L 531.021891 305.194161 
L 534.41502 305.757215 
L 536.111584 305.708071 
L 537.808148 305.88544 
L 542.897841 305.778216 
L 544.594406 305.795763 
L 546.29097 305.962196 
L 547.987534 305.884067 
L 549.684099 305.612313 
L 553.077227 305.832577 
L 559.863484 305.818715 
L 561.560049 305.756359 
L 566.649742 305.946289 
L 568.346306 305.77846 
L 570.04287 306.106284 
L 571.739434 305.699775 
L 573.435999 306.011922 
L 575.132563 306.07897 
L 576.829127 305.84121 
L 585.311949 305.988821 
L 587.008513 305.986137 
L 588.705078 305.812358 
L 590.401642 306.070285 
L 592.098206 305.963755 
L 593.79477 306.066032 
L 595.491335 305.692365 
L 597.187899 306.095672 
L 598.884463 306.205921 
L 603.974156 305.867575 
L 607.367285 306.075541 
L 609.063849 306.094558 
L 610.760413 305.972297 
L 612.456978 306.186897 
L 615.850106 306.019967 
L 617.546671 305.94978 
L 619.243235 306.110728 
L 620.939799 306.045519 
L 622.636364 306.113196 
L 622.636364 306.113196 
" clip-path="url(#p7a10f74f02)" style="fill: none; stroke: #2ca02c; stroke-width: 1.5; stroke-linecap: square"/>
   </g>
   <g id="line2d_14">
    <path d="M 115.363636 211.81446 
L 117.060201 239.898377 
L 118.756765 252.192048 
L 120.453329 256.155138 
L 122.149894 259.658283 
L 123.846458 265.474918 
L 125.543022 269.274884 
L 127.239587 270.207072 
L 128.936151 273.161145 
L 130.632715 274.45775 
L 132.329279 278.589567 
L 134.025844 280.61486 
L 135.722408 281.562094 
L 137.418972 283.517827 
L 139.115537 284.926153 
L 140.812101 287.556082 
L 142.508665 287.149492 
L 144.20523 288.453582 
L 145.901794 289.079639 
L 147.598358 290.869921 
L 149.294922 292.27271 
L 150.991487 291.444258 
L 152.688051 291.174093 
L 154.384615 291.567472 
L 156.08118 289.634851 
L 157.777744 289.096933 
L 159.474308 294.404057 
L 161.170873 292.517726 
L 162.867437 295.637545 
L 164.564001 293.365155 
L 166.260566 296.105311 
L 167.95713 293.337431 
L 169.653694 296.640985 
L 171.350258 296.154568 
L 173.046823 296.978232 
L 174.743387 297.379812 
L 176.439951 298.459185 
L 178.136516 297.887416 
L 179.83308 298.149895 
L 181.529644 296.84596 
L 183.226209 297.970614 
L 184.922773 298.688964 
L 186.619337 299.057335 
L 188.315901 296.913654 
L 190.012466 296.312251 
L 191.70903 297.589011 
L 193.405594 299.108983 
L 195.102159 297.873107 
L 196.798723 298.300482 
L 198.495287 298.546966 
L 200.191852 298.971673 
L 201.888416 299.051956 
L 203.58498 298.276516 
L 205.281545 298.605333 
L 206.978109 297.779168 
L 208.674673 298.830013 
L 210.371237 297.751715 
L 212.067802 298.26146 
L 213.764366 297.473761 
L 215.46093 299.301127 
L 217.157495 298.915947 
L 218.854059 297.421261 
L 220.550623 298.296212 
L 222.247188 299.42441 
L 223.943752 298.86651 
L 225.640316 298.845822 
L 227.336881 299.533173 
L 229.033445 298.759341 
L 230.730009 299.893719 
L 232.426573 298.736466 
L 234.123138 298.828871 
L 235.819702 295.777998 
L 237.516266 298.697146 
L 239.212831 298.407754 
L 240.909395 298.698122 
L 242.605959 296.455183 
L 244.302524 296.309565 
L 245.999088 297.350334 
L 247.695652 299.293048 
L 249.392216 300.125539 
L 251.088781 298.723954 
L 252.785345 299.238329 
L 254.481909 297.969988 
L 257.875038 298.616736 
L 259.571602 299.200234 
L 261.268167 298.765344 
L 262.964731 297.902775 
L 264.661295 299.76254 
L 266.35786 296.918342 
L 269.750988 299.888324 
L 271.447552 298.131375 
L 273.144117 300.42807 
L 274.840681 299.542927 
L 276.537245 299.37815 
L 278.23381 299.905469 
L 279.930374 300.591809 
L 281.626938 299.178794 
L 283.323503 299.381242 
L 285.020067 299.710851 
L 286.716631 297.6621 
L 288.413196 298.130209 
L 290.10976 299.091144 
L 291.806324 297.917066 
L 293.502888 298.404437 
L 295.199453 299.33458 
L 296.896017 298.913739 
L 298.592581 299.46714 
L 300.289146 298.855472 
L 301.98571 298.444324 
L 303.682274 295.809019 
L 305.378839 297.671363 
L 307.075403 297.974532 
L 308.771967 296.637717 
L 310.468531 298.396316 
L 312.165096 298.338141 
L 313.86166 298.571979 
L 317.254789 298.709553 
L 318.951353 296.833133 
L 320.647917 297.499875 
L 324.041046 298.220793 
L 325.73761 297.834387 
L 327.434175 298.39824 
L 329.130739 299.351355 
L 330.827303 298.384123 
L 332.523867 298.036964 
L 334.220432 298.456131 
L 335.916996 299.002708 
L 337.61356 296.424887 
L 339.310125 296.666111 
L 341.006689 298.523311 
L 342.703253 297.02725 
L 344.399818 297.78538 
L 346.096382 298.032845 
L 347.792946 297.461027 
L 349.48951 295.637693 
L 351.186075 297.355049 
L 352.882639 296.054383 
L 354.579203 297.57596 
L 356.275768 297.345264 
L 357.972332 296.799829 
L 359.668896 299.060169 
L 361.365461 296.206326 
L 363.062025 299.089923 
L 364.758589 298.396809 
L 366.455154 297.975581 
L 368.151718 297.063155 
L 369.848282 296.556205 
L 371.544846 299.300168 
L 373.241411 297.837188 
L 374.937975 297.870325 
L 376.634539 298.537858 
L 378.331104 297.183219 
L 380.027668 298.184748 
L 381.724232 297.684208 
L 383.420797 299.197666 
L 385.117361 297.926046 
L 386.813925 299.294052 
L 388.51049 299.705099 
L 390.207054 298.934503 
L 393.600182 299.138378 
L 396.993311 298.243778 
L 398.689875 298.546964 
L 400.38644 299.790124 
L 402.083004 297.905371 
L 403.779568 298.757468 
L 405.476133 299.174642 
L 407.172697 298.563663 
L 408.869261 300.19439 
L 410.565825 299.409197 
L 412.26239 301.261394 
L 413.958954 299.40306 
L 415.655518 300.698714 
L 417.352083 298.722759 
L 419.048647 299.001322 
L 420.745211 300.091493 
L 422.441776 299.317894 
L 424.13834 297.766476 
L 425.834904 299.431914 
L 427.531469 300.160057 
L 429.228033 301.213731 
L 430.924597 300.936198 
L 432.621161 300.358162 
L 434.317726 299.951974 
L 436.01429 300.238596 
L 437.710854 300.773406 
L 439.407419 299.946735 
L 441.103983 300.646773 
L 442.800547 299.97723 
L 444.497112 300.551792 
L 446.193676 299.655997 
L 447.89024 300.475428 
L 449.586804 299.763604 
L 451.283369 300.545256 
L 452.979933 300.983169 
L 454.676497 300.413737 
L 458.069626 301.693108 
L 459.76619 300.126905 
L 461.462755 301.288301 
L 463.159319 300.886703 
L 464.855883 300.765905 
L 468.249012 302.056749 
L 469.945576 300.297024 
L 471.64214 301.067163 
L 473.338705 301.608219 
L 475.035269 300.838409 
L 476.731833 301.723847 
L 478.428398 300.709561 
L 480.124962 300.85142 
L 481.821526 302.215691 
L 483.518091 301.457058 
L 485.214655 302.124347 
L 486.911219 301.854906 
L 488.607784 302.170492 
L 490.304348 302.136968 
L 492.000912 302.862521 
L 493.697476 302.055383 
L 495.394041 301.570158 
L 498.787169 301.935391 
L 500.483734 301.337432 
L 502.180298 302.199594 
L 503.876862 303.306219 
L 505.573427 301.632734 
L 507.269991 301.930934 
L 508.966555 301.458257 
L 510.663119 303.285626 
L 512.359684 302.618677 
L 514.056248 302.912958 
L 515.752812 302.165022 
L 517.449377 303.332096 
L 519.145941 303.153541 
L 520.842505 301.834071 
L 522.53907 303.436289 
L 524.235634 302.381498 
L 525.932198 302.707206 
L 527.628763 304.048223 
L 529.325327 301.844696 
L 531.021891 300.793174 
L 532.718455 302.462139 
L 534.41502 303.621168 
L 537.808148 303.399337 
L 539.504713 303.054618 
L 541.201277 302.539694 
L 542.897841 303.643093 
L 544.594406 303.627992 
L 546.29097 303.333404 
L 547.987534 303.786774 
L 549.684099 302.921214 
L 551.380663 303.203976 
L 553.077227 304.16305 
L 554.773791 303.300727 
L 556.470356 303.854631 
L 558.16692 302.704789 
L 559.863484 304.055568 
L 561.560049 303.469283 
L 563.256613 303.864183 
L 564.953177 304.03417 
L 566.649742 303.994901 
L 568.346306 303.713008 
L 570.04287 304.299231 
L 571.739434 302.871968 
L 573.435999 303.84232 
L 575.132563 303.960825 
L 576.829127 302.989254 
L 578.525692 302.782091 
L 580.222256 304.237534 
L 581.91882 304.550464 
L 583.615385 304.016959 
L 585.311949 303.962335 
L 587.008513 304.257023 
L 588.705078 304.412603 
L 590.401642 304.44808 
L 592.098206 303.329827 
L 593.79477 304.57136 
L 595.491335 302.534312 
L 597.187899 304.029611 
L 598.884463 304.552682 
L 600.581028 303.990682 
L 602.277592 304.121477 
L 603.974156 303.907037 
L 605.670721 303.39441 
L 607.367285 303.977709 
L 609.063849 304.412373 
L 610.760413 303.326481 
L 612.456978 304.369714 
L 614.153542 303.804562 
L 615.850106 304.32413 
L 617.546671 303.813364 
L 619.243235 304.100964 
L 620.939799 304.850204 
L 622.636364 304.487659 
L 622.636364 304.487659 
" clip-path="url(#p7a10f74f02)" style="fill: none; stroke: #d62728; stroke-width: 1.5; stroke-linecap: square"/>
   </g>
   <g id="patch_3">
    <path d="M 90 320.4 
L 90 43.2 
" style="fill: none; stroke: #000000; stroke-width: 0.8; stroke-linejoin: miter; stroke-linecap: square"/>
   </g>
   <g id="patch_4">
    <path d="M 648 320.4 
L 648 43.2 
" style="fill: none; stroke: #000000; stroke-width: 0.8; stroke-linejoin: miter; stroke-linecap: square"/>
   </g>
   <g id="patch_5">
    <path d="M 90 320.4 
L 648 320.4 
" style="fill: none; stroke: #000000; stroke-width: 0.8; stroke-linejoin: miter; stroke-linecap: square"/>
   </g>
   <g id="patch_6">
    <path d="M 90 43.2 
L 648 43.2 
" style="fill: none; stroke: #000000; stroke-width: 0.8; stroke-linejoin: miter; stroke-linecap: square"/>
   </g>
   <g id="text_13">
    <!-- Training and Validating Estimation Loss -->
    <g transform="translate(251.535937 37.2) scale(0.12 -0.12)">
     <defs>
      <path id="DejaVuSans-54" d="M -19 4666 
L 3928 4666 
L 3928 4134 
L 2272 4134 
L 2272 0 
L 1638 0 
L 1638 4134 
L -19 4134 
L -19 4666 
z
" transform="scale(0.015625)"/>
      <path id="DejaVuSans-72" d="M 2631 2963 
Q 2534 3019 2420 3045 
Q 2306 3072 2169 3072 
Q 1681 3072 1420 2755 
Q 1159 2438 1159 1844 
L 1159 0 
L 581 0 
L 581 3500 
L 1159 3500 
L 1159 2956 
Q 1341 3275 1631 3429 
Q 1922 3584 2338 3584 
Q 2397 3584 2469 3576 
Q 2541 3569 2628 3553 
L 2631 2963 
z
" transform="scale(0.015625)"/>
      <path id="DejaVuSans-67" d="M 2906 1791 
Q 2906 2416 2648 2759 
Q 2391 3103 1925 3103 
Q 1463 3103 1205 2759 
Q 947 2416 947 1791 
Q 947 1169 1205 825 
Q 1463 481 1925 481 
Q 2391 481 2648 825 
Q 2906 1169 2906 1791 
z
M 3481 434 
Q 3481 -459 3084 -895 
Q 2688 -1331 1869 -1331 
Q 1566 -1331 1297 -1286 
Q 1028 -1241 775 -1147 
L 775 -588 
Q 1028 -725 1275 -790 
Q 1522 -856 1778 -856 
Q 2344 -856 2625 -561 
Q 2906 -266 2906 331 
L 2906 616 
Q 2728 306 2450 153 
Q 2172 0 1784 0 
Q 1141 0 747 490 
Q 353 981 353 1791 
Q 353 2603 747 3093 
Q 1141 3584 1784 3584 
Q 2172 3584 2450 3431 
Q 2728 3278 2906 2969 
L 2906 3500 
L 3481 3500 
L 3481 434 
z
" transform="scale(0.015625)"/>
      <path id="DejaVuSans-64" d="M 2906 2969 
L 2906 4863 
L 3481 4863 
L 3481 0 
L 2906 0 
L 2906 525 
Q 2725 213 2448 61 
Q 2172 -91 1784 -91 
Q 1150 -91 751 415 
Q 353 922 353 1747 
Q 353 2572 751 3078 
Q 1150 3584 1784 3584 
Q 2172 3584 2448 3432 
Q 2725 3281 2906 2969 
z
M 947 1747 
Q 947 1113 1208 752 
Q 1469 391 1925 391 
Q 2381 391 2643 752 
Q 2906 1113 2906 1747 
Q 2906 2381 2643 2742 
Q 2381 3103 1925 3103 
Q 1469 3103 1208 2742 
Q 947 2381 947 1747 
z
" transform="scale(0.015625)"/>
      <path id="DejaVuSans-56" d="M 1831 0 
L 50 4666 
L 709 4666 
L 2188 738 
L 3669 4666 
L 4325 4666 
L 2547 0 
L 1831 0 
z
" transform="scale(0.015625)"/>
      <path id="DejaVuSans-6c" d="M 603 4863 
L 1178 4863 
L 1178 0 
L 603 0 
L 603 4863 
z
" transform="scale(0.015625)"/>
     </defs>
     <use xlink:href="#DejaVuSans-54"/>
     <use xlink:href="#DejaVuSans-72" transform="translate(46.333984 0)"/>
     <use xlink:href="#DejaVuSans-61" transform="translate(87.447266 0)"/>
     <use xlink:href="#DejaVuSans-69" transform="translate(148.726562 0)"/>
     <use xlink:href="#DejaVuSans-6e" transform="translate(176.509766 0)"/>
     <use xlink:href="#DejaVuSans-69" transform="translate(239.888672 0)"/>
     <use xlink:href="#DejaVuSans-6e" transform="translate(267.671875 0)"/>
     <use xlink:href="#DejaVuSans-67" transform="translate(331.050781 0)"/>
     <use xlink:href="#DejaVuSans-20" transform="translate(394.527344 0)"/>
     <use xlink:href="#DejaVuSans-61" transform="translate(426.314453 0)"/>
     <use xlink:href="#DejaVuSans-6e" transform="translate(487.59375 0)"/>
     <use xlink:href="#DejaVuSans-64" transform="translate(550.972656 0)"/>
     <use xlink:href="#DejaVuSans-20" transform="translate(614.449219 0)"/>
     <use xlink:href="#DejaVuSans-56" transform="translate(646.236328 0)"/>
     <use xlink:href="#DejaVuSans-61" transform="translate(706.894531 0)"/>
     <use xlink:href="#DejaVuSans-6c" transform="translate(768.173828 0)"/>
     <use xlink:href="#DejaVuSans-69" transform="translate(795.957031 0)"/>
     <use xlink:href="#DejaVuSans-64" transform="translate(823.740234 0)"/>
     <use xlink:href="#DejaVuSans-61" transform="translate(887.216797 0)"/>
     <use xlink:href="#DejaVuSans-74" transform="translate(948.496094 0)"/>
     <use xlink:href="#DejaVuSans-69" transform="translate(987.705078 0)"/>
     <use xlink:href="#DejaVuSans-6e" transform="translate(1015.488281 0)"/>
     <use xlink:href="#DejaVuSans-67" transform="translate(1078.867188 0)"/>
     <use xlink:href="#DejaVuSans-20" transform="translate(1142.34375 0)"/>
     <use xlink:href="#DejaVuSans-45" transform="translate(1174.130859 0)"/>
     <use xlink:href="#DejaVuSans-73" transform="translate(1237.314453 0)"/>
     <use xlink:href="#DejaVuSans-74" transform="translate(1289.414062 0)"/>
     <use xlink:href="#DejaVuSans-69" transform="translate(1328.623047 0)"/>
     <use xlink:href="#DejaVuSans-6d" transform="translate(1356.40625 0)"/>
     <use xlink:href="#DejaVuSans-61" transform="translate(1453.818359 0)"/>
     <use xlink:href="#DejaVuSans-74" transform="translate(1515.097656 0)"/>
     <use xlink:href="#DejaVuSans-69" transform="translate(1554.306641 0)"/>
     <use xlink:href="#DejaVuSans-6f" transform="translate(1582.089844 0)"/>
     <use xlink:href="#DejaVuSans-6e" transform="translate(1643.271484 0)"/>
     <use xlink:href="#DejaVuSans-20" transform="translate(1706.650391 0)"/>
     <use xlink:href="#DejaVuSans-4c" transform="translate(1738.4375 0)"/>
     <use xlink:href="#DejaVuSans-6f" transform="translate(1792.400391 0)"/>
     <use xlink:href="#DejaVuSans-73" transform="translate(1853.582031 0)"/>
     <use xlink:href="#DejaVuSans-73" transform="translate(1905.681641 0)"/>
    </g>
   </g>
   <g id="legend_1">
    <g id="patch_7">
     <path d="M 521.439062 109.9125 
L 641 109.9125 
Q 643 109.9125 643 107.9125 
L 643 50.2 
Q 643 48.2 641 48.2 
L 521.439062 48.2 
Q 519.439062 48.2 519.439062 50.2 
L 519.439062 107.9125 
Q 519.439062 109.9125 521.439062 109.9125 
z
" style="fill: #ffffff; opacity: 0.8; stroke: #cccccc; stroke-linejoin: miter"/>
    </g>
    <g id="line2d_15">
     <path d="M 523.439062 56.298437 
L 533.439062 56.298437 
L 543.439062 56.298437 
" style="fill: none; stroke: #1f77b4; stroke-width: 1.5; stroke-linecap: square"/>
    </g>
    <g id="text_14">
     <!-- Training-Source -->
     <g transform="translate(551.439062 59.798437) scale(0.1 -0.1)">
      <defs>
       <path id="DejaVuSans-2d" d="M 313 2009 
L 1997 2009 
L 1997 1497 
L 313 1497 
L 313 2009 
z
" transform="scale(0.015625)"/>
       <path id="DejaVuSans-53" d="M 3425 4513 
L 3425 3897 
Q 3066 4069 2747 4153 
Q 2428 4238 2131 4238 
Q 1616 4238 1336 4038 
Q 1056 3838 1056 3469 
Q 1056 3159 1242 3001 
Q 1428 2844 1947 2747 
L 2328 2669 
Q 3034 2534 3370 2195 
Q 3706 1856 3706 1288 
Q 3706 609 3251 259 
Q 2797 -91 1919 -91 
Q 1588 -91 1214 -16 
Q 841 59 441 206 
L 441 856 
Q 825 641 1194 531 
Q 1563 422 1919 422 
Q 2459 422 2753 634 
Q 3047 847 3047 1241 
Q 3047 1584 2836 1778 
Q 2625 1972 2144 2069 
L 1759 2144 
Q 1053 2284 737 2584 
Q 422 2884 422 3419 
Q 422 4038 858 4394 
Q 1294 4750 2059 4750 
Q 2388 4750 2728 4690 
Q 3069 4631 3425 4513 
z
" transform="scale(0.015625)"/>
       <path id="DejaVuSans-75" d="M 544 1381 
L 544 3500 
L 1119 3500 
L 1119 1403 
Q 1119 906 1312 657 
Q 1506 409 1894 409 
Q 2359 409 2629 706 
Q 2900 1003 2900 1516 
L 2900 3500 
L 3475 3500 
L 3475 0 
L 2900 0 
L 2900 538 
Q 2691 219 2414 64 
Q 2138 -91 1772 -91 
Q 1169 -91 856 284 
Q 544 659 544 1381 
z
M 1991 3584 
L 1991 3584 
z
" transform="scale(0.015625)"/>
       <path id="DejaVuSans-65" d="M 3597 1894 
L 3597 1613 
L 953 1613 
Q 991 1019 1311 708 
Q 1631 397 2203 397 
Q 2534 397 2845 478 
Q 3156 559 3463 722 
L 3463 178 
Q 3153 47 2828 -22 
Q 2503 -91 2169 -91 
Q 1331 -91 842 396 
Q 353 884 353 1716 
Q 353 2575 817 3079 
Q 1281 3584 2069 3584 
Q 2775 3584 3186 3129 
Q 3597 2675 3597 1894 
z
M 3022 2063 
Q 3016 2534 2758 2815 
Q 2500 3097 2075 3097 
Q 1594 3097 1305 2825 
Q 1016 2553 972 2059 
L 3022 2063 
z
" transform="scale(0.015625)"/>
      </defs>
      <use xlink:href="#DejaVuSans-54"/>
      <use xlink:href="#DejaVuSans-72" transform="translate(46.333984 0)"/>
      <use xlink:href="#DejaVuSans-61" transform="translate(87.447266 0)"/>
      <use xlink:href="#DejaVuSans-69" transform="translate(148.726562 0)"/>
      <use xlink:href="#DejaVuSans-6e" transform="translate(176.509766 0)"/>
      <use xlink:href="#DejaVuSans-69" transform="translate(239.888672 0)"/>
      <use xlink:href="#DejaVuSans-6e" transform="translate(267.671875 0)"/>
      <use xlink:href="#DejaVuSans-67" transform="translate(331.050781 0)"/>
      <use xlink:href="#DejaVuSans-2d" transform="translate(394.527344 0)"/>
      <use xlink:href="#DejaVuSans-53" transform="translate(430.611328 0)"/>
      <use xlink:href="#DejaVuSans-6f" transform="translate(494.087891 0)"/>
      <use xlink:href="#DejaVuSans-75" transform="translate(555.269531 0)"/>
      <use xlink:href="#DejaVuSans-72" transform="translate(618.648438 0)"/>
      <use xlink:href="#DejaVuSans-63" transform="translate(657.511719 0)"/>
      <use xlink:href="#DejaVuSans-65" transform="translate(712.492188 0)"/>
     </g>
    </g>
    <g id="line2d_16">
     <path d="M 523.439062 70.976562 
L 533.439062 70.976562 
L 543.439062 70.976562 
" style="fill: none; stroke: #ff7f0e; stroke-width: 1.5; stroke-linecap: square"/>
    </g>
    <g id="text_15">
     <!-- Training-Target -->
     <g transform="translate(551.439062 74.476562) scale(0.1 -0.1)">
      <use xlink:href="#DejaVuSans-54"/>
      <use xlink:href="#DejaVuSans-72" transform="translate(46.333984 0)"/>
      <use xlink:href="#DejaVuSans-61" transform="translate(87.447266 0)"/>
      <use xlink:href="#DejaVuSans-69" transform="translate(148.726562 0)"/>
      <use xlink:href="#DejaVuSans-6e" transform="translate(176.509766 0)"/>
      <use xlink:href="#DejaVuSans-69" transform="translate(239.888672 0)"/>
      <use xlink:href="#DejaVuSans-6e" transform="translate(267.671875 0)"/>
      <use xlink:href="#DejaVuSans-67" transform="translate(331.050781 0)"/>
      <use xlink:href="#DejaVuSans-2d" transform="translate(394.527344 0)"/>
      <use xlink:href="#DejaVuSans-54" transform="translate(421.486328 0)"/>
      <use xlink:href="#DejaVuSans-61" transform="translate(466.070312 0)"/>
      <use xlink:href="#DejaVuSans-72" transform="translate(527.349609 0)"/>
      <use xlink:href="#DejaVuSans-67" transform="translate(566.712891 0)"/>
      <use xlink:href="#DejaVuSans-65" transform="translate(630.189453 0)"/>
      <use xlink:href="#DejaVuSans-74" transform="translate(691.712891 0)"/>
     </g>
    </g>
    <g id="line2d_17">
     <path d="M 523.439062 85.654687 
L 533.439062 85.654687 
L 543.439062 85.654687 
" style="fill: none; stroke: #2ca02c; stroke-width: 1.5; stroke-linecap: square"/>
    </g>
    <g id="text_16">
     <!-- Validating-Source -->
     <g transform="translate(551.439062 89.154687) scale(0.1 -0.1)">
      <use xlink:href="#DejaVuSans-56"/>
      <use xlink:href="#DejaVuSans-61" transform="translate(60.658203 0)"/>
      <use xlink:href="#DejaVuSans-6c" transform="translate(121.9375 0)"/>
      <use xlink:href="#DejaVuSans-69" transform="translate(149.720703 0)"/>
      <use xlink:href="#DejaVuSans-64" transform="translate(177.503906 0)"/>
      <use xlink:href="#DejaVuSans-61" transform="translate(240.980469 0)"/>
      <use xlink:href="#DejaVuSans-74" transform="translate(302.259766 0)"/>
      <use xlink:href="#DejaVuSans-69" transform="translate(341.46875 0)"/>
      <use xlink:href="#DejaVuSans-6e" transform="translate(369.251953 0)"/>
      <use xlink:href="#DejaVuSans-67" transform="translate(432.630859 0)"/>
      <use xlink:href="#DejaVuSans-2d" transform="translate(496.107422 0)"/>
      <use xlink:href="#DejaVuSans-53" transform="translate(532.191406 0)"/>
      <use xlink:href="#DejaVuSans-6f" transform="translate(595.667969 0)"/>
      <use xlink:href="#DejaVuSans-75" transform="translate(656.849609 0)"/>
      <use xlink:href="#DejaVuSans-72" transform="translate(720.228516 0)"/>
      <use xlink:href="#DejaVuSans-63" transform="translate(759.091797 0)"/>
      <use xlink:href="#DejaVuSans-65" transform="translate(814.072266 0)"/>
     </g>
    </g>
    <g id="line2d_18">
     <path d="M 523.439062 100.332812 
L 533.439062 100.332812 
L 543.439062 100.332812 
" style="fill: none; stroke: #d62728; stroke-width: 1.5; stroke-linecap: square"/>
    </g>
    <g id="text_17">
     <!-- Validating-Target -->
     <g transform="translate(551.439062 103.832812) scale(0.1 -0.1)">
      <use xlink:href="#DejaVuSans-56"/>
      <use xlink:href="#DejaVuSans-61" transform="translate(60.658203 0)"/>
      <use xlink:href="#DejaVuSans-6c" transform="translate(121.9375 0)"/>
      <use xlink:href="#DejaVuSans-69" transform="translate(149.720703 0)"/>
      <use xlink:href="#DejaVuSans-64" transform="translate(177.503906 0)"/>
      <use xlink:href="#DejaVuSans-61" transform="translate(240.980469 0)"/>
      <use xlink:href="#DejaVuSans-74" transform="translate(302.259766 0)"/>
      <use xlink:href="#DejaVuSans-69" transform="translate(341.46875 0)"/>
      <use xlink:href="#DejaVuSans-6e" transform="translate(369.251953 0)"/>
      <use xlink:href="#DejaVuSans-67" transform="translate(432.630859 0)"/>
      <use xlink:href="#DejaVuSans-2d" transform="translate(496.107422 0)"/>
      <use xlink:href="#DejaVuSans-54" transform="translate(523.066406 0)"/>
      <use xlink:href="#DejaVuSans-61" transform="translate(567.650391 0)"/>
      <use xlink:href="#DejaVuSans-72" transform="translate(628.929688 0)"/>
      <use xlink:href="#DejaVuSans-67" transform="translate(668.292969 0)"/>
      <use xlink:href="#DejaVuSans-65" transform="translate(731.769531 0)"/>
      <use xlink:href="#DejaVuSans-74" transform="translate(793.292969 0)"/>
     </g>
    </g>
   </g>
  </g>
 </g>
 <defs>
  <clipPath id="p7a10f74f02">
   <rect x="90" y="43.2" width="558" height="277.2"/>
  </clipPath>
 </defs>
</svg>
