<?xml version="1.0" encoding="utf-8" standalone="no"?>
<!DOCTYPE svg PUBLIC "-//W3C//DTD SVG 1.1//EN"
  "http://www.w3.org/Graphics/SVG/1.1/DTD/svg11.dtd">
<svg xmlns:xlink="http://www.w3.org/1999/xlink" width="720pt" height="360pt" viewBox="0 0 720 360" xmlns="http://www.w3.org/2000/svg" version="1.1">
 <metadata>
  <rdf:RDF xmlns:dc="http://purl.org/dc/elements/1.1/" xmlns:cc="http://creativecommons.org/ns#" xmlns:rdf="http://www.w3.org/1999/02/22-rdf-syntax-ns#">
   <cc:Work>
    <dc:type rdf:resource="http://purl.org/dc/dcmitype/StillImage"/>
    <dc:date>2025-12-03T21:08:30.937600</dc:date>
    <dc:format>image/svg+xml</dc:format>
    <dc:creator>
     <cc:Agent>
      <dc:title>Matplotlib v3.10.1, https://matplotlib.org/</dc:title>
     </cc:Agent>
    </dc:creator>
   </cc:Work>
  </rdf:RDF>
 </metadata>
 <defs>
  <style type="text/css">*{stroke-linejoin: round; stroke-linecap: butt}</style>
 </defs>
 <g id="figure_1">
  <g id="patch_1">
   <path d="M 0 360 
L 720 360 
L 720 0 
L 0 0 
z
" style="fill: #ffffff"/>
  </g>
  <g id="axes_1">
   <g id="patch_2">
    <path d="M 90 320.4 
L 648 320.4 
L 648 43.2 
L 90 43.2 
z
" style="fill: #ffffff"/>
   </g>
   <g id="matplotlib.axis_1">
    <g id="xtick_1">
     <g id="line2d_1">
      <defs>
       <path id="m9fbac08e25" d="M 0 0 
L 0 3.5 
" style="stroke: #000000; stroke-width: 0.8"/>
      </defs>
      <g>
       <use xlink:href="#m9fbac08e25" x="115.363636" y="320.4" style="stroke: #000000; stroke-width: 0.8"/>
      </g>
     </g>
     <g id="text_1">
      <!-- 0 -->
      <g transform="translate(112.182386 334.998438) scale(0.1 -0.1)">
       <defs>
        <path id="DejaVuSans-30" d="M 2034 4250 
Q 1547 4250 1301 3770 
Q 1056 3291 1056 2328 
Q 1056 1369 1301 889 
Q 1547 409 2034 409 
Q 2525 409 2770 889 
Q 3016 1369 3016 2328 
Q 3016 3291 2770 3770 
Q 2525 4250 2034 4250 
z
M 2034 4750 
Q 2819 4750 3233 4129 
Q 3647 3509 3647 2328 
Q 3647 1150 3233 529 
Q 2819 -91 2034 -91 
Q 1250 -91 836 529 
Q 422 1150 422 2328 
Q 422 3509 836 4129 
Q 1250 4750 2034 4750 
z
" transform="scale(0.015625)"/>
       </defs>
       <use xlink:href="#DejaVuSans-30"/>
      </g>
     </g>
    </g>
    <g id="xtick_2">
     <g id="line2d_2">
      <g>
       <use xlink:href="#m9fbac08e25" x="217.499085" y="320.4" style="stroke: #000000; stroke-width: 0.8"/>
      </g>
     </g>
     <g id="text_2">
      <!-- 30 -->
      <g transform="translate(211.136585 334.998438) scale(0.1 -0.1)">
       <defs>
        <path id="DejaVuSans-33" d="M 2597 2516 
Q 3050 2419 3304 2112 
Q 3559 1806 3559 1356 
Q 3559 666 3084 287 
Q 2609 -91 1734 -91 
Q 1441 -91 1130 -33 
Q 819 25 488 141 
L 488 750 
Q 750 597 1062 519 
Q 1375 441 1716 441 
Q 2309 441 2620 675 
Q 2931 909 2931 1356 
Q 2931 1769 2642 2001 
Q 2353 2234 1838 2234 
L 1294 2234 
L 1294 2753 
L 1863 2753 
Q 2328 2753 2575 2939 
Q 2822 3125 2822 3475 
Q 2822 3834 2567 4026 
Q 2313 4219 1838 4219 
Q 1578 4219 1281 4162 
Q 984 4106 628 3988 
L 628 4550 
Q 988 4650 1302 4700 
Q 1616 4750 1894 4750 
Q 2613 4750 3031 4423 
Q 3450 4097 3450 3541 
Q 3450 3153 3228 2886 
Q 3006 2619 2597 2516 
z
" transform="scale(0.015625)"/>
       </defs>
       <use xlink:href="#DejaVuSans-33"/>
       <use xlink:href="#DejaVuSans-30" transform="translate(63.623047 0)"/>
      </g>
     </g>
    </g>
    <g id="xtick_3">
     <g id="line2d_3">
      <g>
       <use xlink:href="#m9fbac08e25" x="319.634533" y="320.4" style="stroke: #000000; stroke-width: 0.8"/>
      </g>
     </g>
     <g id="text_3">
      <!-- 60 -->
      <g transform="translate(313.272033 334.998438) scale(0.1 -0.1)">
       <defs>
        <path id="DejaVuSans-36" d="M 2113 2584 
Q 1688 2584 1439 2293 
Q 1191 2003 1191 1497 
Q 1191 994 1439 701 
Q 1688 409 2113 409 
Q 2538 409 2786 701 
Q 3034 994 3034 1497 
Q 3034 2003 2786 2293 
Q 2538 2584 2113 2584 
z
M 3366 4563 
L 3366 3988 
Q 3128 4100 2886 4159 
Q 2644 4219 2406 4219 
Q 1781 4219 1451 3797 
Q 1122 3375 1075 2522 
Q 1259 2794 1537 2939 
Q 1816 3084 2150 3084 
Q 2853 3084 3261 2657 
Q 3669 2231 3669 1497 
Q 3669 778 3244 343 
Q 2819 -91 2113 -91 
Q 1303 -91 875 529 
Q 447 1150 447 2328 
Q 447 3434 972 4092 
Q 1497 4750 2381 4750 
Q 2619 4750 2861 4703 
Q 3103 4656 3366 4563 
z
" transform="scale(0.015625)"/>
       </defs>
       <use xlink:href="#DejaVuSans-36"/>
       <use xlink:href="#DejaVuSans-30" transform="translate(63.623047 0)"/>
      </g>
     </g>
    </g>
    <g id="xtick_4">
     <g id="line2d_4">
      <g>
       <use xlink:href="#m9fbac08e25" x="421.769982" y="320.4" style="stroke: #000000; stroke-width: 0.8"/>
      </g>
     </g>
     <g id="text_4">
      <!-- 90 -->
      <g transform="translate(415.407482 334.998438) scale(0.1 -0.1)">
       <defs>
        <path id="DejaVuSans-39" d="M 703 97 
L 703 672 
Q 941 559 1184 500 
Q 1428 441 1663 441 
Q 2288 441 2617 861 
Q 2947 1281 2994 2138 
Q 2813 1869 2534 1725 
Q 2256 1581 1919 1581 
Q 1219 1581 811 2004 
Q 403 2428 403 3163 
Q 403 3881 828 4315 
Q 1253 4750 1959 4750 
Q 2769 4750 3195 4129 
Q 3622 3509 3622 2328 
Q 3622 1225 3098 567 
Q 2575 -91 1691 -91 
Q 1453 -91 1209 -44 
Q 966 3 703 97 
z
M 1959 2075 
Q 2384 2075 2632 2365 
Q 2881 2656 2881 3163 
Q 2881 3666 2632 3958 
Q 2384 4250 1959 4250 
Q 1534 4250 1286 3958 
Q 1038 3666 1038 3163 
Q 1038 2656 1286 2365 
Q 1534 2075 1959 2075 
z
" transform="scale(0.015625)"/>
       </defs>
       <use xlink:href="#DejaVuSans-39"/>
       <use xlink:href="#DejaVuSans-30" transform="translate(63.623047 0)"/>
      </g>
     </g>
    </g>
    <g id="xtick_5">
     <g id="line2d_5">
      <g>
       <use xlink:href="#m9fbac08e25" x="523.90543" y="320.4" style="stroke: #000000; stroke-width: 0.8"/>
      </g>
     </g>
     <g id="text_5">
      <!-- 120 -->
      <g transform="translate(514.36168 334.998438) scale(0.1 -0.1)">
       <defs>
        <path id="DejaVuSans-31" d="M 794 531 
L 1825 531 
L 1825 4091 
L 703 3866 
L 703 4441 
L 1819 4666 
L 2450 4666 
L 2450 531 
L 3481 531 
L 3481 0 
L 794 0 
L 794 531 
z
" transform="scale(0.015625)"/>
        <path id="DejaVuSans-32" d="M 1228 531 
L 3431 531 
L 3431 0 
L 469 0 
L 469 531 
Q 828 903 1448 1529 
Q 2069 2156 2228 2338 
Q 2531 2678 2651 2914 
Q 2772 3150 2772 3378 
Q 2772 3750 2511 3984 
Q 2250 4219 1831 4219 
Q 1534 4219 1204 4116 
Q 875 4013 500 3803 
L 500 4441 
Q 881 4594 1212 4672 
Q 1544 4750 1819 4750 
Q 2544 4750 2975 4387 
Q 3406 4025 3406 3419 
Q 3406 3131 3298 2873 
Q 3191 2616 2906 2266 
Q 2828 2175 2409 1742 
Q 1991 1309 1228 531 
z
" transform="scale(0.015625)"/>
       </defs>
       <use xlink:href="#DejaVuSans-31"/>
       <use xlink:href="#DejaVuSans-32" transform="translate(63.623047 0)"/>
       <use xlink:href="#DejaVuSans-30" transform="translate(127.246094 0)"/>
      </g>
     </g>
    </g>
    <g id="text_6">
     <!-- Epoch -->
     <g transform="translate(353.689062 348.676562) scale(0.1 -0.1)">
      <defs>
       <path id="DejaVuSans-45" d="M 628 4666 
L 3578 4666 
L 3578 4134 
L 1259 4134 
L 1259 2753 
L 3481 2753 
L 3481 2222 
L 1259 2222 
L 1259 531 
L 3634 531 
L 3634 0 
L 628 0 
L 628 4666 
z
" transform="scale(0.015625)"/>
       <path id="DejaVuSans-70" d="M 1159 525 
L 1159 -1331 
L 581 -1331 
L 581 3500 
L 1159 3500 
L 1159 2969 
Q 1341 3281 1617 3432 
Q 1894 3584 2278 3584 
Q 2916 3584 3314 3078 
Q 3713 2572 3713 1747 
Q 3713 922 3314 415 
Q 2916 -91 2278 -91 
Q 1894 -91 1617 61 
Q 1341 213 1159 525 
z
M 3116 1747 
Q 3116 2381 2855 2742 
Q 2594 3103 2138 3103 
Q 1681 3103 1420 2742 
Q 1159 2381 1159 1747 
Q 1159 1113 1420 752 
Q 1681 391 2138 391 
Q 2594 391 2855 752 
Q 3116 1113 3116 1747 
z
" transform="scale(0.015625)"/>
       <path id="DejaVuSans-6f" d="M 1959 3097 
Q 1497 3097 1228 2736 
Q 959 2375 959 1747 
Q 959 1119 1226 758 
Q 1494 397 1959 397 
Q 2419 397 2687 759 
Q 2956 1122 2956 1747 
Q 2956 2369 2687 2733 
Q 2419 3097 1959 3097 
z
M 1959 3584 
Q 2709 3584 3137 3096 
Q 3566 2609 3566 1747 
Q 3566 888 3137 398 
Q 2709 -91 1959 -91 
Q 1206 -91 779 398 
Q 353 888 353 1747 
Q 353 2609 779 3096 
Q 1206 3584 1959 3584 
z
" transform="scale(0.015625)"/>
       <path id="DejaVuSans-63" d="M 3122 3366 
L 3122 2828 
Q 2878 2963 2633 3030 
Q 2388 3097 2138 3097 
Q 1578 3097 1268 2742 
Q 959 2388 959 1747 
Q 959 1106 1268 751 
Q 1578 397 2138 397 
Q 2388 397 2633 464 
Q 2878 531 3122 666 
L 3122 134 
Q 2881 22 2623 -34 
Q 2366 -91 2075 -91 
Q 1284 -91 818 406 
Q 353 903 353 1747 
Q 353 2603 823 3093 
Q 1294 3584 2113 3584 
Q 2378 3584 2631 3529 
Q 2884 3475 3122 3366 
z
" transform="scale(0.015625)"/>
       <path id="DejaVuSans-68" d="M 3513 2113 
L 3513 0 
L 2938 0 
L 2938 2094 
Q 2938 2591 2744 2837 
Q 2550 3084 2163 3084 
Q 1697 3084 1428 2787 
Q 1159 2491 1159 1978 
L 1159 0 
L 581 0 
L 581 4863 
L 1159 4863 
L 1159 2956 
Q 1366 3272 1645 3428 
Q 1925 3584 2291 3584 
Q 2894 3584 3203 3211 
Q 3513 2838 3513 2113 
z
" transform="scale(0.015625)"/>
      </defs>
      <use xlink:href="#DejaVuSans-45"/>
      <use xlink:href="#DejaVuSans-70" transform="translate(63.183594 0)"/>
      <use xlink:href="#DejaVuSans-6f" transform="translate(126.660156 0)"/>
      <use xlink:href="#DejaVuSans-63" transform="translate(187.841797 0)"/>
      <use xlink:href="#DejaVuSans-68" transform="translate(242.822266 0)"/>
     </g>
    </g>
   </g>
   <g id="matplotlib.axis_2">
    <g id="ytick_1">
     <g id="line2d_6">
      <defs>
       <path id="mf834db9adf" d="M 0 0 
L -3.5 0 
" style="stroke: #000000; stroke-width: 0.8"/>
      </defs>
      <g>
       <use xlink:href="#mf834db9adf" x="90" y="309.356016" style="stroke: #000000; stroke-width: 0.8"/>
      </g>
     </g>
     <g id="text_7">
      <!-- 0.00 -->
      <g transform="translate(60.734375 313.155235) scale(0.1 -0.1)">
       <defs>
        <path id="DejaVuSans-2e" d="M 684 794 
L 1344 794 
L 1344 0 
L 684 0 
L 684 794 
z
" transform="scale(0.015625)"/>
       </defs>
       <use xlink:href="#DejaVuSans-30"/>
       <use xlink:href="#DejaVuSans-2e" transform="translate(63.623047 0)"/>
       <use xlink:href="#DejaVuSans-30" transform="translate(95.410156 0)"/>
       <use xlink:href="#DejaVuSans-30" transform="translate(159.033203 0)"/>
      </g>
     </g>
    </g>
    <g id="ytick_2">
     <g id="line2d_7">
      <g>
       <use xlink:href="#mf834db9adf" x="90" y="259.404718" style="stroke: #000000; stroke-width: 0.8"/>
      </g>
     </g>
     <g id="text_8">
      <!-- 0.02 -->
      <g transform="translate(60.734375 263.203937) scale(0.1 -0.1)">
       <use xlink:href="#DejaVuSans-30"/>
       <use xlink:href="#DejaVuSans-2e" transform="translate(63.623047 0)"/>
       <use xlink:href="#DejaVuSans-30" transform="translate(95.410156 0)"/>
       <use xlink:href="#DejaVuSans-32" transform="translate(159.033203 0)"/>
      </g>
     </g>
    </g>
    <g id="ytick_3">
     <g id="line2d_8">
      <g>
       <use xlink:href="#mf834db9adf" x="90" y="209.45342" style="stroke: #000000; stroke-width: 0.8"/>
      </g>
     </g>
     <g id="text_9">
      <!-- 0.04 -->
      <g transform="translate(60.734375 213.252639) scale(0.1 -0.1)">
       <defs>
        <path id="DejaVuSans-34" d="M 2419 4116 
L 825 1625 
L 2419 1625 
L 2419 4116 
z
M 2253 4666 
L 3047 4666 
L 3047 1625 
L 3713 1625 
L 3713 1100 
L 3047 1100 
L 3047 0 
L 2419 0 
L 2419 1100 
L 313 1100 
L 313 1709 
L 2253 4666 
z
" transform="scale(0.015625)"/>
       </defs>
       <use xlink:href="#DejaVuSans-30"/>
       <use xlink:href="#DejaVuSans-2e" transform="translate(63.623047 0)"/>
       <use xlink:href="#DejaVuSans-30" transform="translate(95.410156 0)"/>
       <use xlink:href="#DejaVuSans-34" transform="translate(159.033203 0)"/>
      </g>
     </g>
    </g>
    <g id="ytick_4">
     <g id="line2d_9">
      <g>
       <use xlink:href="#mf834db9adf" x="90" y="159.502122" style="stroke: #000000; stroke-width: 0.8"/>
      </g>
     </g>
     <g id="text_10">
      <!-- 0.06 -->
      <g transform="translate(60.734375 163.30134) scale(0.1 -0.1)">
       <use xlink:href="#DejaVuSans-30"/>
       <use xlink:href="#DejaVuSans-2e" transform="translate(63.623047 0)"/>
       <use xlink:href="#DejaVuSans-30" transform="translate(95.410156 0)"/>
       <use xlink:href="#DejaVuSans-36" transform="translate(159.033203 0)"/>
      </g>
     </g>
    </g>
    <g id="ytick_5">
     <g id="line2d_10">
      <g>
       <use xlink:href="#mf834db9adf" x="90" y="109.550823" style="stroke: #000000; stroke-width: 0.8"/>
      </g>
     </g>
     <g id="text_11">
      <!-- 0.08 -->
      <g transform="translate(60.734375 113.350042) scale(0.1 -0.1)">
       <defs>
        <path id="DejaVuSans-38" d="M 2034 2216 
Q 1584 2216 1326 1975 
Q 1069 1734 1069 1313 
Q 1069 891 1326 650 
Q 1584 409 2034 409 
Q 2484 409 2743 651 
Q 3003 894 3003 1313 
Q 3003 1734 2745 1975 
Q 2488 2216 2034 2216 
z
M 1403 2484 
Q 997 2584 770 2862 
Q 544 3141 544 3541 
Q 544 4100 942 4425 
Q 1341 4750 2034 4750 
Q 2731 4750 3128 4425 
Q 3525 4100 3525 3541 
Q 3525 3141 3298 2862 
Q 3072 2584 2669 2484 
Q 3125 2378 3379 2068 
Q 3634 1759 3634 1313 
Q 3634 634 3220 271 
Q 2806 -91 2034 -91 
Q 1263 -91 848 271 
Q 434 634 434 1313 
Q 434 1759 690 2068 
Q 947 2378 1403 2484 
z
M 1172 3481 
Q 1172 3119 1398 2916 
Q 1625 2713 2034 2713 
Q 2441 2713 2670 2916 
Q 2900 3119 2900 3481 
Q 2900 3844 2670 4047 
Q 2441 4250 2034 4250 
Q 1625 4250 1398 4047 
Q 1172 3844 1172 3481 
z
" transform="scale(0.015625)"/>
       </defs>
       <use xlink:href="#DejaVuSans-30"/>
       <use xlink:href="#DejaVuSans-2e" transform="translate(63.623047 0)"/>
       <use xlink:href="#DejaVuSans-30" transform="translate(95.410156 0)"/>
       <use xlink:href="#DejaVuSans-38" transform="translate(159.033203 0)"/>
      </g>
     </g>
    </g>
    <g id="ytick_6">
     <g id="line2d_11">
      <g>
       <use xlink:href="#mf834db9adf" x="90" y="59.599525" style="stroke: #000000; stroke-width: 0.8"/>
      </g>
     </g>
     <g id="text_12">
      <!-- 0.10 -->
      <g transform="translate(60.734375 63.398744) scale(0.1 -0.1)">
       <use xlink:href="#DejaVuSans-30"/>
       <use xlink:href="#DejaVuSans-2e" transform="translate(63.623047 0)"/>
       <use xlink:href="#DejaVuSans-31" transform="translate(95.410156 0)"/>
       <use xlink:href="#DejaVuSans-30" transform="translate(159.033203 0)"/>
      </g>
     </g>
    </g>
    <g id="text_13">
     <!-- Estimation Loss -->
     <g transform="translate(54.654687 220.98125) rotate(-90) scale(0.1 -0.1)">
      <defs>
       <path id="DejaVuSans-73" d="M 2834 3397 
L 2834 2853 
Q 2591 2978 2328 3040 
Q 2066 3103 1784 3103 
Q 1356 3103 1142 2972 
Q 928 2841 928 2578 
Q 928 2378 1081 2264 
Q 1234 2150 1697 2047 
L 1894 2003 
Q 2506 1872 2764 1633 
Q 3022 1394 3022 966 
Q 3022 478 2636 193 
Q 2250 -91 1575 -91 
Q 1294 -91 989 -36 
Q 684 19 347 128 
L 347 722 
Q 666 556 975 473 
Q 1284 391 1588 391 
Q 1994 391 2212 530 
Q 2431 669 2431 922 
Q 2431 1156 2273 1281 
Q 2116 1406 1581 1522 
L 1381 1569 
Q 847 1681 609 1914 
Q 372 2147 372 2553 
Q 372 3047 722 3315 
Q 1072 3584 1716 3584 
Q 2034 3584 2315 3537 
Q 2597 3491 2834 3397 
z
" transform="scale(0.015625)"/>
       <path id="DejaVuSans-74" d="M 1172 4494 
L 1172 3500 
L 2356 3500 
L 2356 3053 
L 1172 3053 
L 1172 1153 
Q 1172 725 1289 603 
Q 1406 481 1766 481 
L 2356 481 
L 2356 0 
L 1766 0 
Q 1100 0 847 248 
Q 594 497 594 1153 
L 594 3053 
L 172 3053 
L 172 3500 
L 594 3500 
L 594 4494 
L 1172 4494 
z
" transform="scale(0.015625)"/>
       <path id="DejaVuSans-69" d="M 603 3500 
L 1178 3500 
L 1178 0 
L 603 0 
L 603 3500 
z
M 603 4863 
L 1178 4863 
L 1178 4134 
L 603 4134 
L 603 4863 
z
" transform="scale(0.015625)"/>
       <path id="DejaVuSans-6d" d="M 3328 2828 
Q 3544 3216 3844 3400 
Q 4144 3584 4550 3584 
Q 5097 3584 5394 3201 
Q 5691 2819 5691 2113 
L 5691 0 
L 5113 0 
L 5113 2094 
Q 5113 2597 4934 2840 
Q 4756 3084 4391 3084 
Q 3944 3084 3684 2787 
Q 3425 2491 3425 1978 
L 3425 0 
L 2847 0 
L 2847 2094 
Q 2847 2600 2669 2842 
Q 2491 3084 2119 3084 
Q 1678 3084 1418 2786 
Q 1159 2488 1159 1978 
L 1159 0 
L 581 0 
L 581 3500 
L 1159 3500 
L 1159 2956 
Q 1356 3278 1631 3431 
Q 1906 3584 2284 3584 
Q 2666 3584 2933 3390 
Q 3200 3197 3328 2828 
z
" transform="scale(0.015625)"/>
       <path id="DejaVuSans-61" d="M 2194 1759 
Q 1497 1759 1228 1600 
Q 959 1441 959 1056 
Q 959 750 1161 570 
Q 1363 391 1709 391 
Q 2188 391 2477 730 
Q 2766 1069 2766 1631 
L 2766 1759 
L 2194 1759 
z
M 3341 1997 
L 3341 0 
L 2766 0 
L 2766 531 
Q 2569 213 2275 61 
Q 1981 -91 1556 -91 
Q 1019 -91 701 211 
Q 384 513 384 1019 
Q 384 1609 779 1909 
Q 1175 2209 1959 2209 
L 2766 2209 
L 2766 2266 
Q 2766 2663 2505 2880 
Q 2244 3097 1772 3097 
Q 1472 3097 1187 3025 
Q 903 2953 641 2809 
L 641 3341 
Q 956 3463 1253 3523 
Q 1550 3584 1831 3584 
Q 2591 3584 2966 3190 
Q 3341 2797 3341 1997 
z
" transform="scale(0.015625)"/>
       <path id="DejaVuSans-6e" d="M 3513 2113 
L 3513 0 
L 2938 0 
L 2938 2094 
Q 2938 2591 2744 2837 
Q 2550 3084 2163 3084 
Q 1697 3084 1428 2787 
Q 1159 2491 1159 1978 
L 1159 0 
L 581 0 
L 581 3500 
L 1159 3500 
L 1159 2956 
Q 1366 3272 1645 3428 
Q 1925 3584 2291 3584 
Q 2894 3584 3203 3211 
Q 3513 2838 3513 2113 
z
" transform="scale(0.015625)"/>
       <path id="DejaVuSans-20" transform="scale(0.015625)"/>
       <path id="DejaVuSans-4c" d="M 628 4666 
L 1259 4666 
L 1259 531 
L 3531 531 
L 3531 0 
L 628 0 
L 628 4666 
z
" transform="scale(0.015625)"/>
      </defs>
      <use xlink:href="#DejaVuSans-45"/>
      <use xlink:href="#DejaVuSans-73" transform="translate(63.183594 0)"/>
      <use xlink:href="#DejaVuSans-74" transform="translate(115.283203 0)"/>
      <use xlink:href="#DejaVuSans-69" transform="translate(154.492188 0)"/>
      <use xlink:href="#DejaVuSans-6d" transform="translate(182.275391 0)"/>
      <use xlink:href="#DejaVuSans-61" transform="translate(279.6875 0)"/>
      <use xlink:href="#DejaVuSans-74" transform="translate(340.966797 0)"/>
      <use xlink:href="#DejaVuSans-69" transform="translate(380.175781 0)"/>
      <use xlink:href="#DejaVuSans-6f" transform="translate(407.958984 0)"/>
      <use xlink:href="#DejaVuSans-6e" transform="translate(469.140625 0)"/>
      <use xlink:href="#DejaVuSans-20" transform="translate(532.519531 0)"/>
      <use xlink:href="#DejaVuSans-4c" transform="translate(564.306641 0)"/>
      <use xlink:href="#DejaVuSans-6f" transform="translate(618.269531 0)"/>
      <use xlink:href="#DejaVuSans-73" transform="translate(679.451172 0)"/>
      <use xlink:href="#DejaVuSans-73" transform="translate(731.550781 0)"/>
     </g>
    </g>
   </g>
   <g id="line2d_12">
    <path d="M 115.363636 150.483394 
L 118.768151 281.610178 
L 122.172666 293.279148 
L 125.577181 297.934623 
L 128.981696 300.186065 
L 132.386211 301.722758 
L 135.790726 302.5436 
L 139.195241 303.243455 
L 146.004271 304.156917 
L 149.408786 304.472836 
L 156.217816 304.904362 
L 163.026846 305.302444 
L 186.85845 306.013449 
L 197.071995 306.124487 
L 292.398414 306.868923 
L 302.611959 306.898044 
L 309.420988 306.921322 
L 326.443563 306.975703 
L 346.870653 307.068442 
L 357.084198 307.122952 
L 367.297743 307.122477 
L 394.533862 307.246844 
L 404.747407 307.246341 
L 408.151922 307.319067 
L 414.960952 307.306175 
L 438.792556 307.36052 
L 496.669311 307.499693 
L 506.882855 307.506668 
L 527.309945 307.578254 
L 547.737035 307.59914 
L 557.95058 307.665175 
L 564.75961 307.663019 
L 595.400244 307.702519 
L 612.422819 307.713747 
L 622.636364 307.8 
L 622.636364 307.8 
" clip-path="url(#p3c542f3099)" style="fill: none; stroke: #1f77b4; stroke-width: 1.5; stroke-linecap: square"/>
   </g>
   <g id="line2d_13">
    <path d="M 115.363636 55.8 
L 118.768151 185.284971 
L 122.172666 199.81631 
L 125.577181 206.146459 
L 128.981696 209.697432 
L 132.386211 211.842005 
L 135.790726 213.744732 
L 142.599756 215.403673 
L 149.408786 216.77377 
L 152.813301 216.641844 
L 156.217816 216.991505 
L 159.622331 216.766881 
L 163.026846 217.350629 
L 166.431361 217.411361 
L 169.835876 217.966408 
L 173.24039 217.796846 
L 176.644905 218.091681 
L 180.04942 217.849762 
L 183.453935 218.058952 
L 186.85845 217.92608 
L 190.262965 218.268769 
L 193.66748 218.371371 
L 197.071995 218.760529 
L 200.47651 218.701094 
L 203.881025 219.008357 
L 207.28554 219.006179 
L 210.690055 219.184246 
L 214.09457 219.196643 
L 220.9036 219.426194 
L 224.308115 219.249547 
L 227.71263 219.846542 
L 231.117145 219.547903 
L 234.52166 219.624676 
L 237.926174 219.27827 
L 241.330689 219.262029 
L 244.735204 219.465171 
L 248.139719 219.801072 
L 254.948749 219.98781 
L 258.353264 219.856227 
L 261.757779 220.408785 
L 265.162294 220.357495 
L 268.566809 220.138708 
L 271.971324 220.319605 
L 275.375839 220.003744 
L 278.780354 220.105532 
L 288.993899 220.075722 
L 292.398414 220.211519 
L 295.802929 220.081843 
L 299.207444 220.176126 
L 302.611959 219.906691 
L 306.016473 219.884827 
L 309.420988 220.268234 
L 312.825503 219.957311 
L 316.230018 219.928851 
L 319.634533 220.075953 
L 323.039048 219.869086 
L 326.443563 220.203043 
L 329.848078 220.289822 
L 333.252593 219.872413 
L 340.061623 220.177199 
L 343.466138 219.734615 
L 346.870653 219.493184 
L 353.679683 219.500154 
L 357.084198 219.177627 
L 360.488713 220.056031 
L 363.893228 219.455326 
L 367.297743 219.493743 
L 370.702257 219.169997 
L 374.106772 219.248467 
L 377.511287 218.69663 
L 380.915802 218.936846 
L 384.320317 218.625184 
L 387.724832 218.815794 
L 391.129347 218.37069 
L 394.533862 218.160876 
L 397.938377 217.586684 
L 401.342892 217.259944 
L 404.747407 216.619104 
L 414.960952 215.966601 
L 418.365467 215.410811 
L 421.769982 214.691549 
L 425.174497 214.759613 
L 428.579012 214.122433 
L 431.983527 213.843179 
L 442.197071 211.79379 
L 445.601586 211.402802 
L 449.006101 210.364711 
L 452.410616 210.42438 
L 455.815131 209.118372 
L 459.219646 208.74853 
L 462.624161 207.713195 
L 469.433191 206.219537 
L 472.837706 205.17451 
L 476.242221 204.258728 
L 486.455766 200.7709 
L 489.860281 199.454171 
L 493.264796 199.066239 
L 500.073826 195.964643 
L 503.47834 195.743485 
L 506.882855 192.909974 
L 510.28737 192.780061 
L 513.691885 190.260421 
L 517.0964 189.602564 
L 520.500915 187.876727 
L 527.309945 184.02389 
L 530.71446 182.578551 
L 534.118975 181.309149 
L 540.928005 174.906226 
L 544.33252 173.769531 
L 547.737035 170.588663 
L 551.14155 167.093403 
L 554.546065 165.559981 
L 557.95058 164.385654 
L 561.355095 160.081726 
L 564.75961 159.362294 
L 568.164124 154.959445 
L 571.568639 153.901477 
L 574.973154 150.857341 
L 578.377669 147.570295 
L 581.782184 145.250234 
L 585.186699 142.036085 
L 588.591214 141.527253 
L 591.995729 139.225416 
L 595.400244 135.108787 
L 598.804759 131.900346 
L 602.209274 128.380353 
L 605.613789 125.958495 
L 609.018304 120.130103 
L 612.422819 121.402343 
L 615.827334 117.350959 
L 619.231849 112.96973 
L 622.636364 110.170088 
L 622.636364 110.170088 
" clip-path="url(#p3c542f3099)" style="fill: none; stroke: #ff7f0e; stroke-width: 1.5; stroke-linecap: square"/>
   </g>
   <g id="line2d_14">
    <path d="M 115.363636 279.553718 
L 118.768151 293.740218 
L 122.172666 297.507961 
L 125.577181 302.184541 
L 128.981696 303.05886 
L 132.386211 303.444994 
L 135.790726 304.370752 
L 139.195241 304.928053 
L 142.599756 304.494929 
L 146.004271 304.769452 
L 149.408786 304.567456 
L 152.813301 304.852665 
L 156.217816 304.801927 
L 159.622331 305.948661 
L 163.026846 305.450797 
L 166.431361 305.870992 
L 169.835876 306.113313 
L 173.24039 305.254788 
L 176.644905 305.917074 
L 180.04942 305.550183 
L 183.453935 306.111086 
L 186.85845 305.975761 
L 190.262965 306.166886 
L 193.66748 306.520846 
L 197.071995 306.391055 
L 203.881025 306.672234 
L 207.28554 306.275819 
L 210.690055 306.614487 
L 214.09457 306.25777 
L 220.9036 306.700312 
L 227.71263 306.12028 
L 231.117145 306.58397 
L 234.52166 306.153116 
L 237.926174 306.18608 
L 241.330689 306.006546 
L 244.735204 306.220287 
L 248.139719 306.64297 
L 251.544234 306.538766 
L 254.948749 306.003099 
L 258.353264 306.354823 
L 265.162294 306.818505 
L 268.566809 306.394773 
L 271.971324 306.765961 
L 275.375839 306.735955 
L 278.780354 306.470474 
L 282.184869 306.956153 
L 285.589384 307.249272 
L 288.993899 306.615899 
L 292.398414 306.812825 
L 295.802929 306.793478 
L 299.207444 306.963982 
L 306.016473 306.557622 
L 309.420988 307.079114 
L 312.825503 307.018096 
L 316.230018 307.104855 
L 319.634533 306.944099 
L 323.039048 307.095131 
L 326.443563 306.52054 
L 329.848078 306.730744 
L 333.252593 307.122317 
L 336.657108 307.270032 
L 340.061623 306.866085 
L 343.466138 306.628088 
L 346.870653 307.110027 
L 350.275168 307.276295 
L 353.679683 306.998841 
L 357.084198 306.945412 
L 360.488713 307.23513 
L 363.893228 306.867586 
L 367.297743 307.369825 
L 370.702257 307.072299 
L 377.511287 306.954503 
L 384.320317 307.377045 
L 387.724832 306.85738 
L 391.129347 307.186164 
L 397.938377 307.031121 
L 401.342892 307.284581 
L 404.747407 307.009051 
L 408.151922 306.952368 
L 411.556437 307.357048 
L 421.769982 307.282725 
L 438.792556 307.379298 
L 442.197071 306.837586 
L 445.601586 307.15487 
L 459.219646 307.381259 
L 462.624161 307.244023 
L 466.028676 307.366821 
L 469.433191 306.933018 
L 472.837706 307.45199 
L 476.242221 307.681364 
L 479.646736 307.225892 
L 483.051251 307.432884 
L 486.455766 307.339551 
L 489.860281 307.401016 
L 493.264796 307.338584 
L 496.669311 307.495102 
L 500.073826 306.913415 
L 503.47834 307.319219 
L 506.882855 307.234667 
L 510.28737 307.309979 
L 513.691885 307.542496 
L 523.90543 307.589483 
L 527.309945 307.253102 
L 534.118975 307.612096 
L 540.928005 307.367774 
L 544.33252 307.574634 
L 547.737035 307.537616 
L 551.14155 307.203048 
L 554.546065 307.557321 
L 564.75961 307.494771 
L 568.164124 307.353436 
L 571.568639 306.655956 
L 574.973154 307.67824 
L 578.377669 307.285303 
L 581.782184 307.438234 
L 585.186699 307.42584 
L 588.591214 307.696824 
L 591.995729 307.228906 
L 595.400244 307.699594 
L 598.804759 307.659036 
L 602.209274 307.465384 
L 605.613789 307.156974 
L 609.018304 307.37088 
L 612.422819 307.743727 
L 615.827334 307.476371 
L 619.231849 307.690976 
L 622.636364 307.668946 
L 622.636364 307.668946 
" clip-path="url(#p3c542f3099)" style="fill: none; stroke: #2ca02c; stroke-width: 1.5; stroke-linecap: square"/>
   </g>
   <g id="line2d_15">
    <path d="M 115.363636 159.650652 
L 118.768151 178.487099 
L 122.172666 185.855435 
L 125.577181 192.447089 
L 128.981696 194.408476 
L 132.386211 196.800967 
L 135.790726 198.047029 
L 142.599756 198.551428 
L 146.004271 198.127427 
L 149.408786 199.063157 
L 152.813301 197.114323 
L 156.217816 199.276765 
L 163.026846 199.443714 
L 166.431361 200.245791 
L 169.835876 200.927819 
L 173.24039 199.694857 
L 176.644905 201.319965 
L 180.04942 200.087636 
L 183.453935 200.261518 
L 186.85845 199.689603 
L 193.66748 201.184872 
L 197.071995 200.905296 
L 200.47651 201.643285 
L 203.881025 201.639998 
L 207.28554 201.271169 
L 210.690055 202.074082 
L 214.09457 201.184611 
L 217.499085 201.831333 
L 220.9036 201.695625 
L 224.308115 200.828678 
L 227.71263 200.949118 
L 231.117145 202.133065 
L 234.52166 201.701336 
L 237.926174 200.577118 
L 241.330689 201.859657 
L 244.735204 200.350662 
L 248.139719 201.534325 
L 251.544234 201.684675 
L 254.948749 201.016251 
L 258.353264 200.009019 
L 261.757779 199.885038 
L 265.162294 201.80055 
L 271.971324 200.651852 
L 275.375839 200.928981 
L 278.780354 199.424689 
L 282.184869 201.847518 
L 285.589384 200.646092 
L 288.993899 199.742032 
L 292.398414 199.414614 
L 295.802929 201.032929 
L 299.207444 199.853464 
L 302.611959 199.985487 
L 306.016473 199.429399 
L 312.825503 200.583219 
L 316.230018 200.819526 
L 319.634533 200.804978 
L 323.039048 200.031094 
L 326.443563 201.020412 
L 329.848078 199.19789 
L 333.252593 200.318701 
L 336.657108 200.494872 
L 340.061623 199.200963 
L 343.466138 200.776351 
L 346.870653 200.032702 
L 350.275168 200.229494 
L 353.679683 199.229285 
L 357.084198 198.940332 
L 360.488713 199.774217 
L 363.893228 199.724368 
L 367.297743 199.124438 
L 370.702257 199.139464 
L 374.106772 199.329961 
L 377.511287 197.601073 
L 380.915802 198.393349 
L 384.320317 199.5544 
L 387.724832 199.706453 
L 391.129347 198.330688 
L 394.533862 196.285534 
L 397.938377 195.160394 
L 401.342892 196.184125 
L 404.747407 195.787006 
L 408.151922 193.361844 
L 411.556437 196.636185 
L 414.960952 193.045765 
L 418.365467 193.240683 
L 421.769982 192.664262 
L 425.174497 193.039858 
L 431.983527 193.257871 
L 435.388041 191.459548 
L 438.792556 190.373908 
L 442.197071 186.595562 
L 445.601586 187.243489 
L 449.006101 190.917619 
L 452.410616 186.992441 
L 455.815131 184.302875 
L 459.219646 185.905788 
L 462.624161 181.904679 
L 466.028676 183.758423 
L 469.433191 182.604639 
L 472.837706 178.030562 
L 476.242221 180.814778 
L 479.646736 174.836441 
L 483.051251 177.791237 
L 486.455766 173.97585 
L 489.860281 174.902911 
L 493.264796 172.071361 
L 496.669311 168.964839 
L 500.073826 169.864358 
L 503.47834 167.009113 
L 506.882855 163.396371 
L 510.28737 161.30358 
L 517.0964 162.677266 
L 520.500915 159.963283 
L 523.90543 155.853984 
L 527.309945 149.293664 
L 530.71446 156.917779 
L 534.118975 151.745113 
L 540.928005 139.501948 
L 544.33252 140.75336 
L 547.737035 137.556795 
L 551.14155 132.877781 
L 554.546065 134.564441 
L 557.95058 131.38953 
L 561.355095 124.579594 
L 564.75961 118.670136 
L 568.164124 123.940286 
L 571.568639 105.793166 
L 574.973154 113.578811 
L 578.377669 103.5247 
L 581.782184 108.767865 
L 585.186699 116.673282 
L 588.591214 96.823989 
L 591.995729 97.971329 
L 595.400244 104.773171 
L 598.804759 93.613618 
L 602.209274 85.47099 
L 605.613789 71.27382 
L 609.018304 72.527498 
L 612.422819 70.566147 
L 615.827334 69.665381 
L 619.231849 69.195053 
L 622.636364 76.773344 
L 622.636364 76.773344 
" clip-path="url(#p3c542f3099)" style="fill: none; stroke: #d62728; stroke-width: 1.5; stroke-linecap: square"/>
   </g>
   <g id="patch_3">
    <path d="M 90 320.4 
L 90 43.2 
" style="fill: none; stroke: #000000; stroke-width: 0.8; stroke-linejoin: miter; stroke-linecap: square"/>
   </g>
   <g id="patch_4">
    <path d="M 648 320.4 
L 648 43.2 
" style="fill: none; stroke: #000000; stroke-width: 0.8; stroke-linejoin: miter; stroke-linecap: square"/>
   </g>
   <g id="patch_5">
    <path d="M 90 320.4 
L 648 320.4 
" style="fill: none; stroke: #000000; stroke-width: 0.8; stroke-linejoin: miter; stroke-linecap: square"/>
   </g>
   <g id="patch_6">
    <path d="M 90 43.2 
L 648 43.2 
" style="fill: none; stroke: #000000; stroke-width: 0.8; stroke-linejoin: miter; stroke-linecap: square"/>
   </g>
   <g id="text_14">
    <!-- Training and Validating Estimation Loss -->
    <g transform="translate(251.535937 37.2) scale(0.12 -0.12)">
     <defs>
      <path id="DejaVuSans-54" d="M -19 4666 
L 3928 4666 
L 3928 4134 
L 2272 4134 
L 2272 0 
L 1638 0 
L 1638 4134 
L -19 4134 
L -19 4666 
z
" transform="scale(0.015625)"/>
      <path id="DejaVuSans-72" d="M 2631 2963 
Q 2534 3019 2420 3045 
Q 2306 3072 2169 3072 
Q 1681 3072 1420 2755 
Q 1159 2438 1159 1844 
L 1159 0 
L 581 0 
L 581 3500 
L 1159 3500 
L 1159 2956 
Q 1341 3275 1631 3429 
Q 1922 3584 2338 3584 
Q 2397 3584 2469 3576 
Q 2541 3569 2628 3553 
L 2631 2963 
z
" transform="scale(0.015625)"/>
      <path id="DejaVuSans-67" d="M 2906 1791 
Q 2906 2416 2648 2759 
Q 2391 3103 1925 3103 
Q 1463 3103 1205 2759 
Q 947 2416 947 1791 
Q 947 1169 1205 825 
Q 1463 481 1925 481 
Q 2391 481 2648 825 
Q 2906 1169 2906 1791 
z
M 3481 434 
Q 3481 -459 3084 -895 
Q 2688 -1331 1869 -1331 
Q 1566 -1331 1297 -1286 
Q 1028 -1241 775 -1147 
L 775 -588 
Q 1028 -725 1275 -790 
Q 1522 -856 1778 -856 
Q 2344 -856 2625 -561 
Q 2906 -266 2906 331 
L 2906 616 
Q 2728 306 2450 153 
Q 2172 0 1784 0 
Q 1141 0 747 490 
Q 353 981 353 1791 
Q 353 2603 747 3093 
Q 1141 3584 1784 3584 
Q 2172 3584 2450 3431 
Q 2728 3278 2906 2969 
L 2906 3500 
L 3481 3500 
L 3481 434 
z
" transform="scale(0.015625)"/>
      <path id="DejaVuSans-64" d="M 2906 2969 
L 2906 4863 
L 3481 4863 
L 3481 0 
L 2906 0 
L 2906 525 
Q 2725 213 2448 61 
Q 2172 -91 1784 -91 
Q 1150 -91 751 415 
Q 353 922 353 1747 
Q 353 2572 751 3078 
Q 1150 3584 1784 3584 
Q 2172 3584 2448 3432 
Q 2725 3281 2906 2969 
z
M 947 1747 
Q 947 1113 1208 752 
Q 1469 391 1925 391 
Q 2381 391 2643 752 
Q 2906 1113 2906 1747 
Q 2906 2381 2643 2742 
Q 2381 3103 1925 3103 
Q 1469 3103 1208 2742 
Q 947 2381 947 1747 
z
" transform="scale(0.015625)"/>
      <path id="DejaVuSans-56" d="M 1831 0 
L 50 4666 
L 709 4666 
L 2188 738 
L 3669 4666 
L 4325 4666 
L 2547 0 
L 1831 0 
z
" transform="scale(0.015625)"/>
      <path id="DejaVuSans-6c" d="M 603 4863 
L 1178 4863 
L 1178 0 
L 603 0 
L 603 4863 
z
" transform="scale(0.015625)"/>
     </defs>
     <use xlink:href="#DejaVuSans-54"/>
     <use xlink:href="#DejaVuSans-72" transform="translate(46.333984 0)"/>
     <use xlink:href="#DejaVuSans-61" transform="translate(87.447266 0)"/>
     <use xlink:href="#DejaVuSans-69" transform="translate(148.726562 0)"/>
     <use xlink:href="#DejaVuSans-6e" transform="translate(176.509766 0)"/>
     <use xlink:href="#DejaVuSans-69" transform="translate(239.888672 0)"/>
     <use xlink:href="#DejaVuSans-6e" transform="translate(267.671875 0)"/>
     <use xlink:href="#DejaVuSans-67" transform="translate(331.050781 0)"/>
     <use xlink:href="#DejaVuSans-20" transform="translate(394.527344 0)"/>
     <use xlink:href="#DejaVuSans-61" transform="translate(426.314453 0)"/>
     <use xlink:href="#DejaVuSans-6e" transform="translate(487.59375 0)"/>
     <use xlink:href="#DejaVuSans-64" transform="translate(550.972656 0)"/>
     <use xlink:href="#DejaVuSans-20" transform="translate(614.449219 0)"/>
     <use xlink:href="#DejaVuSans-56" transform="translate(646.236328 0)"/>
     <use xlink:href="#DejaVuSans-61" transform="translate(706.894531 0)"/>
     <use xlink:href="#DejaVuSans-6c" transform="translate(768.173828 0)"/>
     <use xlink:href="#DejaVuSans-69" transform="translate(795.957031 0)"/>
     <use xlink:href="#DejaVuSans-64" transform="translate(823.740234 0)"/>
     <use xlink:href="#DejaVuSans-61" transform="translate(887.216797 0)"/>
     <use xlink:href="#DejaVuSans-74" transform="translate(948.496094 0)"/>
     <use xlink:href="#DejaVuSans-69" transform="translate(987.705078 0)"/>
     <use xlink:href="#DejaVuSans-6e" transform="translate(1015.488281 0)"/>
     <use xlink:href="#DejaVuSans-67" transform="translate(1078.867188 0)"/>
     <use xlink:href="#DejaVuSans-20" transform="translate(1142.34375 0)"/>
     <use xlink:href="#DejaVuSans-45" transform="translate(1174.130859 0)"/>
     <use xlink:href="#DejaVuSans-73" transform="translate(1237.314453 0)"/>
     <use xlink:href="#DejaVuSans-74" transform="translate(1289.414062 0)"/>
     <use xlink:href="#DejaVuSans-69" transform="translate(1328.623047 0)"/>
     <use xlink:href="#DejaVuSans-6d" transform="translate(1356.40625 0)"/>
     <use xlink:href="#DejaVuSans-61" transform="translate(1453.818359 0)"/>
     <use xlink:href="#DejaVuSans-74" transform="translate(1515.097656 0)"/>
     <use xlink:href="#DejaVuSans-69" transform="translate(1554.306641 0)"/>
     <use xlink:href="#DejaVuSans-6f" transform="translate(1582.089844 0)"/>
     <use xlink:href="#DejaVuSans-6e" transform="translate(1643.271484 0)"/>
     <use xlink:href="#DejaVuSans-20" transform="translate(1706.650391 0)"/>
     <use xlink:href="#DejaVuSans-4c" transform="translate(1738.4375 0)"/>
     <use xlink:href="#DejaVuSans-6f" transform="translate(1792.400391 0)"/>
     <use xlink:href="#DejaVuSans-73" transform="translate(1853.582031 0)"/>
     <use xlink:href="#DejaVuSans-73" transform="translate(1905.681641 0)"/>
    </g>
   </g>
   <g id="legend_1">
    <g id="patch_7">
     <path d="M 309.219531 109.9125 
L 428.780469 109.9125 
Q 430.780469 109.9125 430.780469 107.9125 
L 430.780469 50.2 
Q 430.780469 48.2 428.780469 48.2 
L 309.219531 48.2 
Q 307.219531 48.2 307.219531 50.2 
L 307.219531 107.9125 
Q 307.219531 109.9125 309.219531 109.9125 
z
" style="fill: #ffffff; opacity: 0.8; stroke: #cccccc; stroke-linejoin: miter"/>
    </g>
    <g id="line2d_16">
     <path d="M 311.219531 56.298437 
L 321.219531 56.298437 
L 331.219531 56.298437 
" style="fill: none; stroke: #1f77b4; stroke-width: 1.5; stroke-linecap: square"/>
    </g>
    <g id="text_15">
     <!-- Training-Source -->
     <g transform="translate(339.219531 59.798437) scale(0.1 -0.1)">
      <defs>
       <path id="DejaVuSans-2d" d="M 313 2009 
L 1997 2009 
L 1997 1497 
L 313 1497 
L 313 2009 
z
" transform="scale(0.015625)"/>
       <path id="DejaVuSans-53" d="M 3425 4513 
L 3425 3897 
Q 3066 4069 2747 4153 
Q 2428 4238 2131 4238 
Q 1616 4238 1336 4038 
Q 1056 3838 1056 3469 
Q 1056 3159 1242 3001 
Q 1428 2844 1947 2747 
L 2328 2669 
Q 3034 2534 3370 2195 
Q 3706 1856 3706 1288 
Q 3706 609 3251 259 
Q 2797 -91 1919 -91 
Q 1588 -91 1214 -16 
Q 841 59 441 206 
L 441 856 
Q 825 641 1194 531 
Q 1563 422 1919 422 
Q 2459 422 2753 634 
Q 3047 847 3047 1241 
Q 3047 1584 2836 1778 
Q 2625 1972 2144 2069 
L 1759 2144 
Q 1053 2284 737 2584 
Q 422 2884 422 3419 
Q 422 4038 858 4394 
Q 1294 4750 2059 4750 
Q 2388 4750 2728 4690 
Q 3069 4631 3425 4513 
z
" transform="scale(0.015625)"/>
       <path id="DejaVuSans-75" d="M 544 1381 
L 544 3500 
L 1119 3500 
L 1119 1403 
Q 1119 906 1312 657 
Q 1506 409 1894 409 
Q 2359 409 2629 706 
Q 2900 1003 2900 1516 
L 2900 3500 
L 3475 3500 
L 3475 0 
L 2900 0 
L 2900 538 
Q 2691 219 2414 64 
Q 2138 -91 1772 -91 
Q 1169 -91 856 284 
Q 544 659 544 1381 
z
M 1991 3584 
L 1991 3584 
z
" transform="scale(0.015625)"/>
       <path id="DejaVuSans-65" d="M 3597 1894 
L 3597 1613 
L 953 1613 
Q 991 1019 1311 708 
Q 1631 397 2203 397 
Q 2534 397 2845 478 
Q 3156 559 3463 722 
L 3463 178 
Q 3153 47 2828 -22 
Q 2503 -91 2169 -91 
Q 1331 -91 842 396 
Q 353 884 353 1716 
Q 353 2575 817 3079 
Q 1281 3584 2069 3584 
Q 2775 3584 3186 3129 
Q 3597 2675 3597 1894 
z
M 3022 2063 
Q 3016 2534 2758 2815 
Q 2500 3097 2075 3097 
Q 1594 3097 1305 2825 
Q 1016 2553 972 2059 
L 3022 2063 
z
" transform="scale(0.015625)"/>
      </defs>
      <use xlink:href="#DejaVuSans-54"/>
      <use xlink:href="#DejaVuSans-72" transform="translate(46.333984 0)"/>
      <use xlink:href="#DejaVuSans-61" transform="translate(87.447266 0)"/>
      <use xlink:href="#DejaVuSans-69" transform="translate(148.726562 0)"/>
      <use xlink:href="#DejaVuSans-6e" transform="translate(176.509766 0)"/>
      <use xlink:href="#DejaVuSans-69" transform="translate(239.888672 0)"/>
      <use xlink:href="#DejaVuSans-6e" transform="translate(267.671875 0)"/>
      <use xlink:href="#DejaVuSans-67" transform="translate(331.050781 0)"/>
      <use xlink:href="#DejaVuSans-2d" transform="translate(394.527344 0)"/>
      <use xlink:href="#DejaVuSans-53" transform="translate(430.611328 0)"/>
      <use xlink:href="#DejaVuSans-6f" transform="translate(494.087891 0)"/>
      <use xlink:href="#DejaVuSans-75" transform="translate(555.269531 0)"/>
      <use xlink:href="#DejaVuSans-72" transform="translate(618.648438 0)"/>
      <use xlink:href="#DejaVuSans-63" transform="translate(657.511719 0)"/>
      <use xlink:href="#DejaVuSans-65" transform="translate(712.492188 0)"/>
     </g>
    </g>
    <g id="line2d_17">
     <path d="M 311.219531 70.976562 
L 321.219531 70.976562 
L 331.219531 70.976562 
" style="fill: none; stroke: #ff7f0e; stroke-width: 1.5; stroke-linecap: square"/>
    </g>
    <g id="text_16">
     <!-- Training-Target -->
     <g transform="translate(339.219531 74.476562) scale(0.1 -0.1)">
      <use xlink:href="#DejaVuSans-54"/>
      <use xlink:href="#DejaVuSans-72" transform="translate(46.333984 0)"/>
      <use xlink:href="#DejaVuSans-61" transform="translate(87.447266 0)"/>
      <use xlink:href="#DejaVuSans-69" transform="translate(148.726562 0)"/>
      <use xlink:href="#DejaVuSans-6e" transform="translate(176.509766 0)"/>
      <use xlink:href="#DejaVuSans-69" transform="translate(239.888672 0)"/>
      <use xlink:href="#DejaVuSans-6e" transform="translate(267.671875 0)"/>
      <use xlink:href="#DejaVuSans-67" transform="translate(331.050781 0)"/>
      <use xlink:href="#DejaVuSans-2d" transform="translate(394.527344 0)"/>
      <use xlink:href="#DejaVuSans-54" transform="translate(421.486328 0)"/>
      <use xlink:href="#DejaVuSans-61" transform="translate(466.070312 0)"/>
      <use xlink:href="#DejaVuSans-72" transform="translate(527.349609 0)"/>
      <use xlink:href="#DejaVuSans-67" transform="translate(566.712891 0)"/>
      <use xlink:href="#DejaVuSans-65" transform="translate(630.189453 0)"/>
      <use xlink:href="#DejaVuSans-74" transform="translate(691.712891 0)"/>
     </g>
    </g>
    <g id="line2d_18">
     <path d="M 311.219531 85.654687 
L 321.219531 85.654687 
L 331.219531 85.654687 
" style="fill: none; stroke: #2ca02c; stroke-width: 1.5; stroke-linecap: square"/>
    </g>
    <g id="text_17">
     <!-- Validating-Source -->
     <g transform="translate(339.219531 89.154687) scale(0.1 -0.1)">
      <use xlink:href="#DejaVuSans-56"/>
      <use xlink:href="#DejaVuSans-61" transform="translate(60.658203 0)"/>
      <use xlink:href="#DejaVuSans-6c" transform="translate(121.9375 0)"/>
      <use xlink:href="#DejaVuSans-69" transform="translate(149.720703 0)"/>
      <use xlink:href="#DejaVuSans-64" transform="translate(177.503906 0)"/>
      <use xlink:href="#DejaVuSans-61" transform="translate(240.980469 0)"/>
      <use xlink:href="#DejaVuSans-74" transform="translate(302.259766 0)"/>
      <use xlink:href="#DejaVuSans-69" transform="translate(341.46875 0)"/>
      <use xlink:href="#DejaVuSans-6e" transform="translate(369.251953 0)"/>
      <use xlink:href="#DejaVuSans-67" transform="translate(432.630859 0)"/>
      <use xlink:href="#DejaVuSans-2d" transform="translate(496.107422 0)"/>
      <use xlink:href="#DejaVuSans-53" transform="translate(532.191406 0)"/>
      <use xlink:href="#DejaVuSans-6f" transform="translate(595.667969 0)"/>
      <use xlink:href="#DejaVuSans-75" transform="translate(656.849609 0)"/>
      <use xlink:href="#DejaVuSans-72" transform="translate(720.228516 0)"/>
      <use xlink:href="#DejaVuSans-63" transform="translate(759.091797 0)"/>
      <use xlink:href="#DejaVuSans-65" transform="translate(814.072266 0)"/>
     </g>
    </g>
    <g id="line2d_19">
     <path d="M 311.219531 100.332812 
L 321.219531 100.332812 
L 331.219531 100.332812 
" style="fill: none; stroke: #d62728; stroke-width: 1.5; stroke-linecap: square"/>
    </g>
    <g id="text_18">
     <!-- Validating-Target -->
     <g transform="translate(339.219531 103.832812) scale(0.1 -0.1)">
      <use xlink:href="#DejaVuSans-56"/>
      <use xlink:href="#DejaVuSans-61" transform="translate(60.658203 0)"/>
      <use xlink:href="#DejaVuSans-6c" transform="translate(121.9375 0)"/>
      <use xlink:href="#DejaVuSans-69" transform="translate(149.720703 0)"/>
      <use xlink:href="#DejaVuSans-64" transform="translate(177.503906 0)"/>
      <use xlink:href="#DejaVuSans-61" transform="translate(240.980469 0)"/>
      <use xlink:href="#DejaVuSans-74" transform="translate(302.259766 0)"/>
      <use xlink:href="#DejaVuSans-69" transform="translate(341.46875 0)"/>
      <use xlink:href="#DejaVuSans-6e" transform="translate(369.251953 0)"/>
      <use xlink:href="#DejaVuSans-67" transform="translate(432.630859 0)"/>
      <use xlink:href="#DejaVuSans-2d" transform="translate(496.107422 0)"/>
      <use xlink:href="#DejaVuSans-54" transform="translate(523.066406 0)"/>
      <use xlink:href="#DejaVuSans-61" transform="translate(567.650391 0)"/>
      <use xlink:href="#DejaVuSans-72" transform="translate(628.929688 0)"/>
      <use xlink:href="#DejaVuSans-67" transform="translate(668.292969 0)"/>
      <use xlink:href="#DejaVuSans-65" transform="translate(731.769531 0)"/>
      <use xlink:href="#DejaVuSans-74" transform="translate(793.292969 0)"/>
     </g>
    </g>
   </g>
  </g>
 </g>
 <defs>
  <clipPath id="p3c542f3099">
   <rect x="90" y="43.2" width="558" height="277.2"/>
  </clipPath>
 </defs>
</svg>
