<?xml version="1.0" encoding="utf-8" standalone="no"?>
<!DOCTYPE svg PUBLIC "-//W3C//DTD SVG 1.1//EN"
  "http://www.w3.org/Graphics/SVG/1.1/DTD/svg11.dtd">
<svg xmlns:xlink="http://www.w3.org/1999/xlink" width="720pt" height="360pt" viewBox="0 0 720 360" xmlns="http://www.w3.org/2000/svg" version="1.1">
 <metadata>
  <rdf:RDF xmlns:dc="http://purl.org/dc/elements/1.1/" xmlns:cc="http://creativecommons.org/ns#" xmlns:rdf="http://www.w3.org/1999/02/22-rdf-syntax-ns#">
   <cc:Work>
    <dc:type rdf:resource="http://purl.org/dc/dcmitype/StillImage"/>
    <dc:date>2026-01-30T23:04:26.776742</dc:date>
    <dc:format>image/svg+xml</dc:format>
    <dc:creator>
     <cc:Agent>
      <dc:title>Matplotlib v3.10.1, https://matplotlib.org/</dc:title>
     </cc:Agent>
    </dc:creator>
   </cc:Work>
  </rdf:RDF>
 </metadata>
 <defs>
  <style type="text/css">*{stroke-linejoin: round; stroke-linecap: butt}</style>
 </defs>
 <g id="figure_1">
  <g id="patch_1">
   <path d="M 0 360 
L 720 360 
L 720 0 
L 0 0 
z
" style="fill: #ffffff"/>
  </g>
  <g id="axes_1">
   <g id="patch_2">
    <path d="M 90 320.4 
L 648 320.4 
L 648 43.2 
L 90 43.2 
z
" style="fill: #ffffff"/>
   </g>
   <g id="matplotlib.axis_1">
    <g id="xtick_1">
     <g id="line2d_1">
      <defs>
       <path id="m76ef4506dd" d="M 0 0 
L 0 3.5 
" style="stroke: #000000; stroke-width: 0.8"/>
      </defs>
      <g>
       <use xlink:href="#m76ef4506dd" x="115.363636" y="320.4" style="stroke: #000000; stroke-width: 0.8"/>
      </g>
     </g>
     <g id="text_1">
      <!-- 0 -->
      <g transform="translate(112.182386 334.998438) scale(0.1 -0.1)">
       <defs>
        <path id="DejaVuSans-30" d="M 2034 4250 
Q 1547 4250 1301 3770 
Q 1056 3291 1056 2328 
Q 1056 1369 1301 889 
Q 1547 409 2034 409 
Q 2525 409 2770 889 
Q 3016 1369 3016 2328 
Q 3016 3291 2770 3770 
Q 2525 4250 2034 4250 
z
M 2034 4750 
Q 2819 4750 3233 4129 
Q 3647 3509 3647 2328 
Q 3647 1150 3233 529 
Q 2819 -91 2034 -91 
Q 1250 -91 836 529 
Q 422 1150 422 2328 
Q 422 3509 836 4129 
Q 1250 4750 2034 4750 
z
" transform="scale(0.015625)"/>
       </defs>
       <use xlink:href="#DejaVuSans-30"/>
      </g>
     </g>
    </g>
    <g id="xtick_2">
     <g id="line2d_2">
      <g>
       <use xlink:href="#m76ef4506dd" x="217.157495" y="320.4" style="stroke: #000000; stroke-width: 0.8"/>
      </g>
     </g>
     <g id="text_2">
      <!-- 60 -->
      <g transform="translate(210.794995 334.998438) scale(0.1 -0.1)">
       <defs>
        <path id="DejaVuSans-36" d="M 2113 2584 
Q 1688 2584 1439 2293 
Q 1191 2003 1191 1497 
Q 1191 994 1439 701 
Q 1688 409 2113 409 
Q 2538 409 2786 701 
Q 3034 994 3034 1497 
Q 3034 2003 2786 2293 
Q 2538 2584 2113 2584 
z
M 3366 4563 
L 3366 3988 
Q 3128 4100 2886 4159 
Q 2644 4219 2406 4219 
Q 1781 4219 1451 3797 
Q 1122 3375 1075 2522 
Q 1259 2794 1537 2939 
Q 1816 3084 2150 3084 
Q 2853 3084 3261 2657 
Q 3669 2231 3669 1497 
Q 3669 778 3244 343 
Q 2819 -91 2113 -91 
Q 1303 -91 875 529 
Q 447 1150 447 2328 
Q 447 3434 972 4092 
Q 1497 4750 2381 4750 
Q 2619 4750 2861 4703 
Q 3103 4656 3366 4563 
z
" transform="scale(0.015625)"/>
       </defs>
       <use xlink:href="#DejaVuSans-36"/>
       <use xlink:href="#DejaVuSans-30" transform="translate(63.623047 0)"/>
      </g>
     </g>
    </g>
    <g id="xtick_3">
     <g id="line2d_3">
      <g>
       <use xlink:href="#m76ef4506dd" x="318.951353" y="320.4" style="stroke: #000000; stroke-width: 0.8"/>
      </g>
     </g>
     <g id="text_3">
      <!-- 120 -->
      <g transform="translate(309.407603 334.998438) scale(0.1 -0.1)">
       <defs>
        <path id="DejaVuSans-31" d="M 794 531 
L 1825 531 
L 1825 4091 
L 703 3866 
L 703 4441 
L 1819 4666 
L 2450 4666 
L 2450 531 
L 3481 531 
L 3481 0 
L 794 0 
L 794 531 
z
" transform="scale(0.015625)"/>
        <path id="DejaVuSans-32" d="M 1228 531 
L 3431 531 
L 3431 0 
L 469 0 
L 469 531 
Q 828 903 1448 1529 
Q 2069 2156 2228 2338 
Q 2531 2678 2651 2914 
Q 2772 3150 2772 3378 
Q 2772 3750 2511 3984 
Q 2250 4219 1831 4219 
Q 1534 4219 1204 4116 
Q 875 4013 500 3803 
L 500 4441 
Q 881 4594 1212 4672 
Q 1544 4750 1819 4750 
Q 2544 4750 2975 4387 
Q 3406 4025 3406 3419 
Q 3406 3131 3298 2873 
Q 3191 2616 2906 2266 
Q 2828 2175 2409 1742 
Q 1991 1309 1228 531 
z
" transform="scale(0.015625)"/>
       </defs>
       <use xlink:href="#DejaVuSans-31"/>
       <use xlink:href="#DejaVuSans-32" transform="translate(63.623047 0)"/>
       <use xlink:href="#DejaVuSans-30" transform="translate(127.246094 0)"/>
      </g>
     </g>
    </g>
    <g id="xtick_4">
     <g id="line2d_4">
      <g>
       <use xlink:href="#m76ef4506dd" x="420.745211" y="320.4" style="stroke: #000000; stroke-width: 0.8"/>
      </g>
     </g>
     <g id="text_4">
      <!-- 180 -->
      <g transform="translate(411.201461 334.998438) scale(0.1 -0.1)">
       <defs>
        <path id="DejaVuSans-38" d="M 2034 2216 
Q 1584 2216 1326 1975 
Q 1069 1734 1069 1313 
Q 1069 891 1326 650 
Q 1584 409 2034 409 
Q 2484 409 2743 651 
Q 3003 894 3003 1313 
Q 3003 1734 2745 1975 
Q 2488 2216 2034 2216 
z
M 1403 2484 
Q 997 2584 770 2862 
Q 544 3141 544 3541 
Q 544 4100 942 4425 
Q 1341 4750 2034 4750 
Q 2731 4750 3128 4425 
Q 3525 4100 3525 3541 
Q 3525 3141 3298 2862 
Q 3072 2584 2669 2484 
Q 3125 2378 3379 2068 
Q 3634 1759 3634 1313 
Q 3634 634 3220 271 
Q 2806 -91 2034 -91 
Q 1263 -91 848 271 
Q 434 634 434 1313 
Q 434 1759 690 2068 
Q 947 2378 1403 2484 
z
M 1172 3481 
Q 1172 3119 1398 2916 
Q 1625 2713 2034 2713 
Q 2441 2713 2670 2916 
Q 2900 3119 2900 3481 
Q 2900 3844 2670 4047 
Q 2441 4250 2034 4250 
Q 1625 4250 1398 4047 
Q 1172 3844 1172 3481 
z
" transform="scale(0.015625)"/>
       </defs>
       <use xlink:href="#DejaVuSans-31"/>
       <use xlink:href="#DejaVuSans-38" transform="translate(63.623047 0)"/>
       <use xlink:href="#DejaVuSans-30" transform="translate(127.246094 0)"/>
      </g>
     </g>
    </g>
    <g id="xtick_5">
     <g id="line2d_5">
      <g>
       <use xlink:href="#m76ef4506dd" x="522.53907" y="320.4" style="stroke: #000000; stroke-width: 0.8"/>
      </g>
     </g>
     <g id="text_5">
      <!-- 240 -->
      <g transform="translate(512.99532 334.998438) scale(0.1 -0.1)">
       <defs>
        <path id="DejaVuSans-34" d="M 2419 4116 
L 825 1625 
L 2419 1625 
L 2419 4116 
z
M 2253 4666 
L 3047 4666 
L 3047 1625 
L 3713 1625 
L 3713 1100 
L 3047 1100 
L 3047 0 
L 2419 0 
L 2419 1100 
L 313 1100 
L 313 1709 
L 2253 4666 
z
" transform="scale(0.015625)"/>
       </defs>
       <use xlink:href="#DejaVuSans-32"/>
       <use xlink:href="#DejaVuSans-34" transform="translate(63.623047 0)"/>
       <use xlink:href="#DejaVuSans-30" transform="translate(127.246094 0)"/>
      </g>
     </g>
    </g>
    <g id="text_6">
     <!-- Epoch -->
     <g transform="translate(353.689062 348.676562) scale(0.1 -0.1)">
      <defs>
       <path id="DejaVuSans-45" d="M 628 4666 
L 3578 4666 
L 3578 4134 
L 1259 4134 
L 1259 2753 
L 3481 2753 
L 3481 2222 
L 1259 2222 
L 1259 531 
L 3634 531 
L 3634 0 
L 628 0 
L 628 4666 
z
" transform="scale(0.015625)"/>
       <path id="DejaVuSans-70" d="M 1159 525 
L 1159 -1331 
L 581 -1331 
L 581 3500 
L 1159 3500 
L 1159 2969 
Q 1341 3281 1617 3432 
Q 1894 3584 2278 3584 
Q 2916 3584 3314 3078 
Q 3713 2572 3713 1747 
Q 3713 922 3314 415 
Q 2916 -91 2278 -91 
Q 1894 -91 1617 61 
Q 1341 213 1159 525 
z
M 3116 1747 
Q 3116 2381 2855 2742 
Q 2594 3103 2138 3103 
Q 1681 3103 1420 2742 
Q 1159 2381 1159 1747 
Q 1159 1113 1420 752 
Q 1681 391 2138 391 
Q 2594 391 2855 752 
Q 3116 1113 3116 1747 
z
" transform="scale(0.015625)"/>
       <path id="DejaVuSans-6f" d="M 1959 3097 
Q 1497 3097 1228 2736 
Q 959 2375 959 1747 
Q 959 1119 1226 758 
Q 1494 397 1959 397 
Q 2419 397 2687 759 
Q 2956 1122 2956 1747 
Q 2956 2369 2687 2733 
Q 2419 3097 1959 3097 
z
M 1959 3584 
Q 2709 3584 3137 3096 
Q 3566 2609 3566 1747 
Q 3566 888 3137 398 
Q 2709 -91 1959 -91 
Q 1206 -91 779 398 
Q 353 888 353 1747 
Q 353 2609 779 3096 
Q 1206 3584 1959 3584 
z
" transform="scale(0.015625)"/>
       <path id="DejaVuSans-63" d="M 3122 3366 
L 3122 2828 
Q 2878 2963 2633 3030 
Q 2388 3097 2138 3097 
Q 1578 3097 1268 2742 
Q 959 2388 959 1747 
Q 959 1106 1268 751 
Q 1578 397 2138 397 
Q 2388 397 2633 464 
Q 2878 531 3122 666 
L 3122 134 
Q 2881 22 2623 -34 
Q 2366 -91 2075 -91 
Q 1284 -91 818 406 
Q 353 903 353 1747 
Q 353 2603 823 3093 
Q 1294 3584 2113 3584 
Q 2378 3584 2631 3529 
Q 2884 3475 3122 3366 
z
" transform="scale(0.015625)"/>
       <path id="DejaVuSans-68" d="M 3513 2113 
L 3513 0 
L 2938 0 
L 2938 2094 
Q 2938 2591 2744 2837 
Q 2550 3084 2163 3084 
Q 1697 3084 1428 2787 
Q 1159 2491 1159 1978 
L 1159 0 
L 581 0 
L 581 4863 
L 1159 4863 
L 1159 2956 
Q 1366 3272 1645 3428 
Q 1925 3584 2291 3584 
Q 2894 3584 3203 3211 
Q 3513 2838 3513 2113 
z
" transform="scale(0.015625)"/>
      </defs>
      <use xlink:href="#DejaVuSans-45"/>
      <use xlink:href="#DejaVuSans-70" transform="translate(63.183594 0)"/>
      <use xlink:href="#DejaVuSans-6f" transform="translate(126.660156 0)"/>
      <use xlink:href="#DejaVuSans-63" transform="translate(187.841797 0)"/>
      <use xlink:href="#DejaVuSans-68" transform="translate(242.822266 0)"/>
     </g>
    </g>
   </g>
   <g id="matplotlib.axis_2">
    <g id="ytick_1">
     <g id="line2d_6">
      <defs>
       <path id="m25cff33432" d="M 0 0 
L -3.5 0 
" style="stroke: #000000; stroke-width: 0.8"/>
      </defs>
      <g>
       <use xlink:href="#m25cff33432" x="90" y="307.841859" style="stroke: #000000; stroke-width: 0.8"/>
      </g>
     </g>
     <g id="text_7">
      <!-- 0.0 -->
      <g transform="translate(67.096875 311.641078) scale(0.1 -0.1)">
       <defs>
        <path id="DejaVuSans-2e" d="M 684 794 
L 1344 794 
L 1344 0 
L 684 0 
L 684 794 
z
" transform="scale(0.015625)"/>
       </defs>
       <use xlink:href="#DejaVuSans-30"/>
       <use xlink:href="#DejaVuSans-2e" transform="translate(63.623047 0)"/>
       <use xlink:href="#DejaVuSans-30" transform="translate(95.410156 0)"/>
      </g>
     </g>
    </g>
    <g id="ytick_2">
     <g id="line2d_7">
      <g>
       <use xlink:href="#m25cff33432" x="90" y="259.290189" style="stroke: #000000; stroke-width: 0.8"/>
      </g>
     </g>
     <g id="text_8">
      <!-- 0.1 -->
      <g transform="translate(67.096875 263.089407) scale(0.1 -0.1)">
       <use xlink:href="#DejaVuSans-30"/>
       <use xlink:href="#DejaVuSans-2e" transform="translate(63.623047 0)"/>
       <use xlink:href="#DejaVuSans-31" transform="translate(95.410156 0)"/>
      </g>
     </g>
    </g>
    <g id="ytick_3">
     <g id="line2d_8">
      <g>
       <use xlink:href="#m25cff33432" x="90" y="210.738518" style="stroke: #000000; stroke-width: 0.8"/>
      </g>
     </g>
     <g id="text_9">
      <!-- 0.2 -->
      <g transform="translate(67.096875 214.537737) scale(0.1 -0.1)">
       <use xlink:href="#DejaVuSans-30"/>
       <use xlink:href="#DejaVuSans-2e" transform="translate(63.623047 0)"/>
       <use xlink:href="#DejaVuSans-32" transform="translate(95.410156 0)"/>
      </g>
     </g>
    </g>
    <g id="ytick_4">
     <g id="line2d_9">
      <g>
       <use xlink:href="#m25cff33432" x="90" y="162.186848" style="stroke: #000000; stroke-width: 0.8"/>
      </g>
     </g>
     <g id="text_10">
      <!-- 0.3 -->
      <g transform="translate(67.096875 165.986066) scale(0.1 -0.1)">
       <defs>
        <path id="DejaVuSans-33" d="M 2597 2516 
Q 3050 2419 3304 2112 
Q 3559 1806 3559 1356 
Q 3559 666 3084 287 
Q 2609 -91 1734 -91 
Q 1441 -91 1130 -33 
Q 819 25 488 141 
L 488 750 
Q 750 597 1062 519 
Q 1375 441 1716 441 
Q 2309 441 2620 675 
Q 2931 909 2931 1356 
Q 2931 1769 2642 2001 
Q 2353 2234 1838 2234 
L 1294 2234 
L 1294 2753 
L 1863 2753 
Q 2328 2753 2575 2939 
Q 2822 3125 2822 3475 
Q 2822 3834 2567 4026 
Q 2313 4219 1838 4219 
Q 1578 4219 1281 4162 
Q 984 4106 628 3988 
L 628 4550 
Q 988 4650 1302 4700 
Q 1616 4750 1894 4750 
Q 2613 4750 3031 4423 
Q 3450 4097 3450 3541 
Q 3450 3153 3228 2886 
Q 3006 2619 2597 2516 
z
" transform="scale(0.015625)"/>
       </defs>
       <use xlink:href="#DejaVuSans-30"/>
       <use xlink:href="#DejaVuSans-2e" transform="translate(63.623047 0)"/>
       <use xlink:href="#DejaVuSans-33" transform="translate(95.410156 0)"/>
      </g>
     </g>
    </g>
    <g id="ytick_5">
     <g id="line2d_10">
      <g>
       <use xlink:href="#m25cff33432" x="90" y="113.635177" style="stroke: #000000; stroke-width: 0.8"/>
      </g>
     </g>
     <g id="text_11">
      <!-- 0.4 -->
      <g transform="translate(67.096875 117.434396) scale(0.1 -0.1)">
       <use xlink:href="#DejaVuSans-30"/>
       <use xlink:href="#DejaVuSans-2e" transform="translate(63.623047 0)"/>
       <use xlink:href="#DejaVuSans-34" transform="translate(95.410156 0)"/>
      </g>
     </g>
    </g>
    <g id="ytick_6">
     <g id="line2d_11">
      <g>
       <use xlink:href="#m25cff33432" x="90" y="65.083507" style="stroke: #000000; stroke-width: 0.8"/>
      </g>
     </g>
     <g id="text_12">
      <!-- 0.5 -->
      <g transform="translate(67.096875 68.882725) scale(0.1 -0.1)">
       <defs>
        <path id="DejaVuSans-35" d="M 691 4666 
L 3169 4666 
L 3169 4134 
L 1269 4134 
L 1269 2991 
Q 1406 3038 1543 3061 
Q 1681 3084 1819 3084 
Q 2600 3084 3056 2656 
Q 3513 2228 3513 1497 
Q 3513 744 3044 326 
Q 2575 -91 1722 -91 
Q 1428 -91 1123 -41 
Q 819 9 494 109 
L 494 744 
Q 775 591 1075 516 
Q 1375 441 1709 441 
Q 2250 441 2565 725 
Q 2881 1009 2881 1497 
Q 2881 1984 2565 2268 
Q 2250 2553 1709 2553 
Q 1456 2553 1204 2497 
Q 953 2441 691 2322 
L 691 4666 
z
" transform="scale(0.015625)"/>
       </defs>
       <use xlink:href="#DejaVuSans-30"/>
       <use xlink:href="#DejaVuSans-2e" transform="translate(63.623047 0)"/>
       <use xlink:href="#DejaVuSans-35" transform="translate(95.410156 0)"/>
      </g>
     </g>
    </g>
    <g id="text_13">
     <!-- Estimation Loss -->
     <g transform="translate(61.017187 220.98125) rotate(-90) scale(0.1 -0.1)">
      <defs>
       <path id="DejaVuSans-73" d="M 2834 3397 
L 2834 2853 
Q 2591 2978 2328 3040 
Q 2066 3103 1784 3103 
Q 1356 3103 1142 2972 
Q 928 2841 928 2578 
Q 928 2378 1081 2264 
Q 1234 2150 1697 2047 
L 1894 2003 
Q 2506 1872 2764 1633 
Q 3022 1394 3022 966 
Q 3022 478 2636 193 
Q 2250 -91 1575 -91 
Q 1294 -91 989 -36 
Q 684 19 347 128 
L 347 722 
Q 666 556 975 473 
Q 1284 391 1588 391 
Q 1994 391 2212 530 
Q 2431 669 2431 922 
Q 2431 1156 2273 1281 
Q 2116 1406 1581 1522 
L 1381 1569 
Q 847 1681 609 1914 
Q 372 2147 372 2553 
Q 372 3047 722 3315 
Q 1072 3584 1716 3584 
Q 2034 3584 2315 3537 
Q 2597 3491 2834 3397 
z
" transform="scale(0.015625)"/>
       <path id="DejaVuSans-74" d="M 1172 4494 
L 1172 3500 
L 2356 3500 
L 2356 3053 
L 1172 3053 
L 1172 1153 
Q 1172 725 1289 603 
Q 1406 481 1766 481 
L 2356 481 
L 2356 0 
L 1766 0 
Q 1100 0 847 248 
Q 594 497 594 1153 
L 594 3053 
L 172 3053 
L 172 3500 
L 594 3500 
L 594 4494 
L 1172 4494 
z
" transform="scale(0.015625)"/>
       <path id="DejaVuSans-69" d="M 603 3500 
L 1178 3500 
L 1178 0 
L 603 0 
L 603 3500 
z
M 603 4863 
L 1178 4863 
L 1178 4134 
L 603 4134 
L 603 4863 
z
" transform="scale(0.015625)"/>
       <path id="DejaVuSans-6d" d="M 3328 2828 
Q 3544 3216 3844 3400 
Q 4144 3584 4550 3584 
Q 5097 3584 5394 3201 
Q 5691 2819 5691 2113 
L 5691 0 
L 5113 0 
L 5113 2094 
Q 5113 2597 4934 2840 
Q 4756 3084 4391 3084 
Q 3944 3084 3684 2787 
Q 3425 2491 3425 1978 
L 3425 0 
L 2847 0 
L 2847 2094 
Q 2847 2600 2669 2842 
Q 2491 3084 2119 3084 
Q 1678 3084 1418 2786 
Q 1159 2488 1159 1978 
L 1159 0 
L 581 0 
L 581 3500 
L 1159 3500 
L 1159 2956 
Q 1356 3278 1631 3431 
Q 1906 3584 2284 3584 
Q 2666 3584 2933 3390 
Q 3200 3197 3328 2828 
z
" transform="scale(0.015625)"/>
       <path id="DejaVuSans-61" d="M 2194 1759 
Q 1497 1759 1228 1600 
Q 959 1441 959 1056 
Q 959 750 1161 570 
Q 1363 391 1709 391 
Q 2188 391 2477 730 
Q 2766 1069 2766 1631 
L 2766 1759 
L 2194 1759 
z
M 3341 1997 
L 3341 0 
L 2766 0 
L 2766 531 
Q 2569 213 2275 61 
Q 1981 -91 1556 -91 
Q 1019 -91 701 211 
Q 384 513 384 1019 
Q 384 1609 779 1909 
Q 1175 2209 1959 2209 
L 2766 2209 
L 2766 2266 
Q 2766 2663 2505 2880 
Q 2244 3097 1772 3097 
Q 1472 3097 1187 3025 
Q 903 2953 641 2809 
L 641 3341 
Q 956 3463 1253 3523 
Q 1550 3584 1831 3584 
Q 2591 3584 2966 3190 
Q 3341 2797 3341 1997 
z
" transform="scale(0.015625)"/>
       <path id="DejaVuSans-6e" d="M 3513 2113 
L 3513 0 
L 2938 0 
L 2938 2094 
Q 2938 2591 2744 2837 
Q 2550 3084 2163 3084 
Q 1697 3084 1428 2787 
Q 1159 2491 1159 1978 
L 1159 0 
L 581 0 
L 581 3500 
L 1159 3500 
L 1159 2956 
Q 1366 3272 1645 3428 
Q 1925 3584 2291 3584 
Q 2894 3584 3203 3211 
Q 3513 2838 3513 2113 
z
" transform="scale(0.015625)"/>
       <path id="DejaVuSans-20" transform="scale(0.015625)"/>
       <path id="DejaVuSans-4c" d="M 628 4666 
L 1259 4666 
L 1259 531 
L 3531 531 
L 3531 0 
L 628 0 
L 628 4666 
z
" transform="scale(0.015625)"/>
      </defs>
      <use xlink:href="#DejaVuSans-45"/>
      <use xlink:href="#DejaVuSans-73" transform="translate(63.183594 0)"/>
      <use xlink:href="#DejaVuSans-74" transform="translate(115.283203 0)"/>
      <use xlink:href="#DejaVuSans-69" transform="translate(154.492188 0)"/>
      <use xlink:href="#DejaVuSans-6d" transform="translate(182.275391 0)"/>
      <use xlink:href="#DejaVuSans-61" transform="translate(279.6875 0)"/>
      <use xlink:href="#DejaVuSans-74" transform="translate(340.966797 0)"/>
      <use xlink:href="#DejaVuSans-69" transform="translate(380.175781 0)"/>
      <use xlink:href="#DejaVuSans-6f" transform="translate(407.958984 0)"/>
      <use xlink:href="#DejaVuSans-6e" transform="translate(469.140625 0)"/>
      <use xlink:href="#DejaVuSans-20" transform="translate(532.519531 0)"/>
      <use xlink:href="#DejaVuSans-4c" transform="translate(564.306641 0)"/>
      <use xlink:href="#DejaVuSans-6f" transform="translate(618.269531 0)"/>
      <use xlink:href="#DejaVuSans-73" transform="translate(679.451172 0)"/>
      <use xlink:href="#DejaVuSans-73" transform="translate(731.550781 0)"/>
     </g>
    </g>
   </g>
   <g id="line2d_12">
    <path d="M 115.363636 272.408196 
L 117.060201 301.36644 
L 118.756765 304.032432 
L 120.453329 304.983867 
L 122.149894 305.552309 
L 123.846458 305.911817 
L 127.239587 306.34373 
L 134.025844 306.775698 
L 142.508665 307.045935 
L 157.777744 307.304563 
L 186.619337 307.520557 
L 227.336881 307.646348 
L 344.399818 307.752583 
L 622.636364 307.8 
L 622.636364 307.8 
" clip-path="url(#pd8dfbf93ee)" style="fill: none; stroke: #1f77b4; stroke-width: 1.5; stroke-linecap: square"/>
   </g>
   <g id="line2d_13">
    <path d="M 115.363636 236.988699 
L 117.060201 281.912586 
L 118.756765 288.062444 
L 120.453329 290.614513 
L 122.149894 292.246116 
L 123.846458 292.986557 
L 127.239587 293.770905 
L 128.936151 293.866955 
L 130.632715 294.266788 
L 132.329279 294.401783 
L 134.025844 294.706592 
L 135.722408 294.787239 
L 139.115537 295.251743 
L 142.508665 295.470069 
L 144.20523 295.691971 
L 149.294922 295.926455 
L 150.991487 296.103783 
L 152.688051 296.093894 
L 173.046823 297.235097 
L 186.619337 297.82596 
L 190.012466 297.825881 
L 193.405594 297.985749 
L 210.371237 298.491416 
L 225.640316 298.777361 
L 251.088781 299.236086 
L 259.571602 299.346562 
L 307.075403 299.849301 
L 342.703253 300.093906 
L 380.027668 300.299891 
L 386.813925 300.302766 
L 413.958954 300.472731 
L 427.531469 300.535554 
L 454.676497 300.716193 
L 486.911219 300.868302 
L 493.697476 300.910023 
L 512.359684 300.95405 
L 519.145941 300.971501 
L 622.636364 301.103329 
L 622.636364 301.103329 
" clip-path="url(#pd8dfbf93ee)" style="fill: none; stroke: #ff7f0e; stroke-width: 1.5; stroke-linecap: square"/>
   </g>
   <g id="line2d_14">
    <path d="M 115.363636 300.868732 
L 117.060201 304.384967 
L 118.756765 304.746976 
L 120.453329 305.722546 
L 122.149894 306.227119 
L 123.846458 306.469299 
L 125.543022 306.381246 
L 127.239587 306.668745 
L 128.936151 306.557441 
L 130.632715 306.957581 
L 132.329279 306.717148 
L 134.025844 306.976009 
L 135.722408 306.838124 
L 137.418972 307.169294 
L 140.812101 307.087275 
L 142.508665 307.293028 
L 144.20523 307.119728 
L 145.901794 307.195201 
L 147.598358 307.098245 
L 149.294922 307.304294 
L 156.08118 307.279859 
L 157.777744 307.404114 
L 159.474308 307.344616 
L 161.170873 307.453622 
L 164.564001 307.319534 
L 166.260566 307.519588 
L 167.95713 307.305877 
L 169.653694 307.47431 
L 173.046823 307.552413 
L 176.439951 307.521069 
L 179.83308 307.522787 
L 181.529644 307.566244 
L 183.226209 307.463122 
L 186.619337 307.596715 
L 190.012466 307.563061 
L 193.405594 307.555041 
L 419.048647 307.745273 
L 429.228033 307.749235 
L 439.407419 307.757693 
L 447.89024 307.751736 
L 456.373062 307.747776 
L 476.731833 307.760619 
L 488.607784 307.750791 
L 622.636364 307.789279 
L 622.636364 307.789279 
" clip-path="url(#pd8dfbf93ee)" style="fill: none; stroke: #2ca02c; stroke-width: 1.5; stroke-linecap: square"/>
   </g>
   <g id="line2d_15">
    <path d="M 115.363636 55.8 
L 117.060201 68.969529 
L 118.756765 71.984512 
L 120.453329 73.13047 
L 122.149894 72.953252 
L 123.846458 75.05689 
L 125.543022 75.540804 
L 127.239587 75.096646 
L 128.936151 76.247124 
L 130.632715 77.603881 
L 132.329279 76.070838 
L 134.025844 77.525983 
L 135.722408 76.430661 
L 137.418972 76.830707 
L 139.115537 77.41009 
L 140.812101 77.144466 
L 142.508665 77.389937 
L 144.20523 77.74866 
L 145.901794 77.388647 
L 147.598358 77.649016 
L 150.991487 77.584734 
L 154.384615 77.780635 
L 156.08118 78.145979 
L 157.777744 78.663175 
L 159.474308 78.776796 
L 161.170873 78.271426 
L 162.867437 78.148168 
L 164.564001 78.866919 
L 166.260566 77.605092 
L 167.95713 79.063581 
L 169.653694 78.797033 
L 171.350258 78.872966 
L 173.046823 78.366987 
L 178.136516 79.030545 
L 179.83308 79.056833 
L 181.529644 78.857211 
L 183.226209 78.990894 
L 184.922773 78.897134 
L 186.619337 78.578266 
L 188.315901 79.25907 
L 190.012466 79.274449 
L 193.405594 78.861196 
L 195.102159 79.077918 
L 196.798723 79.170425 
L 198.495287 79.431477 
L 200.191852 78.821244 
L 201.888416 79.139902 
L 203.58498 79.306965 
L 205.281545 79.156801 
L 206.978109 79.444911 
L 208.674673 78.99474 
L 210.371237 79.525061 
L 212.067802 79.384041 
L 213.764366 78.840706 
L 215.46093 79.30347 
L 217.157495 79.057375 
L 222.247188 79.345757 
L 225.640316 79.55341 
L 227.336881 79.793633 
L 229.033445 79.52549 
L 230.730009 79.717741 
L 232.426573 80.171422 
L 234.123138 79.761649 
L 235.819702 80.043098 
L 237.516266 79.951788 
L 239.212831 80.149713 
L 242.605959 80.330396 
L 244.302524 80.176475 
L 245.999088 80.276941 
L 247.695652 79.966458 
L 251.088781 80.556727 
L 252.785345 80.237481 
L 256.178474 80.520191 
L 257.875038 80.367615 
L 259.571602 80.609925 
L 261.268167 80.403495 
L 262.964731 80.501955 
L 264.661295 80.813956 
L 266.35786 80.512478 
L 268.054424 80.448604 
L 273.144117 80.588944 
L 274.840681 80.625729 
L 276.537245 80.078439 
L 278.23381 80.530072 
L 279.930374 80.603312 
L 281.626938 80.345696 
L 283.323503 80.58048 
L 288.413196 80.930035 
L 290.10976 80.628153 
L 291.806324 80.974209 
L 293.502888 80.549387 
L 295.199453 80.532413 
L 296.896017 80.383734 
L 298.592581 80.62082 
L 301.98571 80.545368 
L 303.682274 80.623902 
L 308.771967 80.558814 
L 310.468531 80.752075 
L 315.558224 80.316353 
L 317.254789 80.543171 
L 318.951353 80.602418 
L 320.647917 80.461545 
L 322.344482 80.600386 
L 324.041046 80.529509 
L 325.73761 80.757714 
L 327.434175 80.571721 
L 329.130739 80.165965 
L 330.827303 80.401936 
L 334.220432 80.392056 
L 335.916996 80.626253 
L 337.61356 80.396853 
L 341.006689 80.613404 
L 342.703253 80.146554 
L 344.399818 80.266808 
L 346.096382 80.562227 
L 347.792946 80.327296 
L 349.48951 80.423339 
L 351.186075 80.353235 
L 352.882639 80.060813 
L 357.972332 80.529934 
L 359.668896 80.158646 
L 361.365461 80.362916 
L 364.758589 80.309926 
L 366.455154 80.090483 
L 368.151718 80.254683 
L 369.848282 80.16828 
L 373.241411 80.250399 
L 376.634539 79.945727 
L 378.331104 80.205063 
L 381.724232 80.293469 
L 385.117361 80.236772 
L 388.51049 80.372553 
L 391.903618 79.878597 
L 393.600182 80.220215 
L 395.296747 80.176161 
L 396.993311 79.90756 
L 402.083004 80.080738 
L 403.779568 80.343852 
L 405.476133 80.027487 
L 407.172697 80.292326 
L 408.869261 80.147225 
L 410.565825 80.374164 
L 412.26239 80.122665 
L 415.655518 79.988512 
L 417.352083 80.480102 
L 419.048647 80.13572 
L 420.745211 80.323104 
L 422.441776 80.192429 
L 424.13834 80.353784 
L 425.834904 80.167809 
L 429.228033 79.960423 
L 430.924597 80.322833 
L 432.621161 80.216415 
L 434.317726 80.474824 
L 437.710854 80.196367 
L 439.407419 80.392295 
L 441.103983 80.000236 
L 444.497112 80.508475 
L 446.193676 80.045751 
L 447.89024 80.32117 
L 449.586804 80.398613 
L 451.283369 80.225408 
L 452.979933 80.296673 
L 454.676497 80.193081 
L 458.069626 80.466447 
L 459.76619 80.24662 
L 461.462755 80.425398 
L 463.159319 80.148968 
L 464.855883 80.455898 
L 475.035269 80.547096 
L 476.731833 80.647835 
L 478.428398 80.192041 
L 481.821526 80.688783 
L 485.214655 80.401055 
L 486.911219 80.585763 
L 495.394041 80.38852 
L 502.180298 80.587016 
L 503.876862 80.409114 
L 505.573427 80.613722 
L 508.966555 80.574037 
L 510.663119 80.437796 
L 514.056248 80.664902 
L 517.449377 80.408981 
L 519.145941 80.516306 
L 525.932198 80.395844 
L 527.628763 80.468585 
L 529.325327 80.363342 
L 531.021891 80.595855 
L 532.718455 80.424667 
L 534.41502 80.613192 
L 536.111584 80.37559 
L 537.808148 80.578378 
L 542.897841 80.379791 
L 551.380663 80.685603 
L 553.077227 80.447063 
L 558.16692 80.473804 
L 570.04287 80.451064 
L 571.739434 80.284445 
L 573.435999 80.323816 
L 575.132563 80.601077 
L 576.829127 80.358341 
L 578.525692 80.573327 
L 581.91882 80.469543 
L 587.008513 80.434449 
L 590.401642 80.427626 
L 592.098206 80.591267 
L 597.187899 80.333469 
L 600.581028 80.347909 
L 602.277592 80.445469 
L 603.974156 80.392714 
L 605.670721 80.566707 
L 609.063849 80.271875 
L 610.760413 80.562896 
L 612.456978 80.28613 
L 614.153542 80.545234 
L 615.850106 80.352118 
L 617.546671 80.596949 
L 619.243235 80.378346 
L 622.636364 80.464604 
L 622.636364 80.464604 
" clip-path="url(#pd8dfbf93ee)" style="fill: none; stroke: #d62728; stroke-width: 1.5; stroke-linecap: square"/>
   </g>
   <g id="patch_3">
    <path d="M 90 320.4 
L 90 43.2 
" style="fill: none; stroke: #000000; stroke-width: 0.8; stroke-linejoin: miter; stroke-linecap: square"/>
   </g>
   <g id="patch_4">
    <path d="M 648 320.4 
L 648 43.2 
" style="fill: none; stroke: #000000; stroke-width: 0.8; stroke-linejoin: miter; stroke-linecap: square"/>
   </g>
   <g id="patch_5">
    <path d="M 90 320.4 
L 648 320.4 
" style="fill: none; stroke: #000000; stroke-width: 0.8; stroke-linejoin: miter; stroke-linecap: square"/>
   </g>
   <g id="patch_6">
    <path d="M 90 43.2 
L 648 43.2 
" style="fill: none; stroke: #000000; stroke-width: 0.8; stroke-linejoin: miter; stroke-linecap: square"/>
   </g>
   <g id="text_14">
    <!-- Training and Validating Estimation Loss -->
    <g transform="translate(251.535937 37.2) scale(0.12 -0.12)">
     <defs>
      <path id="DejaVuSans-54" d="M -19 4666 
L 3928 4666 
L 3928 4134 
L 2272 4134 
L 2272 0 
L 1638 0 
L 1638 4134 
L -19 4134 
L -19 4666 
z
" transform="scale(0.015625)"/>
      <path id="DejaVuSans-72" d="M 2631 2963 
Q 2534 3019 2420 3045 
Q 2306 3072 2169 3072 
Q 1681 3072 1420 2755 
Q 1159 2438 1159 1844 
L 1159 0 
L 581 0 
L 581 3500 
L 1159 3500 
L 1159 2956 
Q 1341 3275 1631 3429 
Q 1922 3584 2338 3584 
Q 2397 3584 2469 3576 
Q 2541 3569 2628 3553 
L 2631 2963 
z
" transform="scale(0.015625)"/>
      <path id="DejaVuSans-67" d="M 2906 1791 
Q 2906 2416 2648 2759 
Q 2391 3103 1925 3103 
Q 1463 3103 1205 2759 
Q 947 2416 947 1791 
Q 947 1169 1205 825 
Q 1463 481 1925 481 
Q 2391 481 2648 825 
Q 2906 1169 2906 1791 
z
M 3481 434 
Q 3481 -459 3084 -895 
Q 2688 -1331 1869 -1331 
Q 1566 -1331 1297 -1286 
Q 1028 -1241 775 -1147 
L 775 -588 
Q 1028 -725 1275 -790 
Q 1522 -856 1778 -856 
Q 2344 -856 2625 -561 
Q 2906 -266 2906 331 
L 2906 616 
Q 2728 306 2450 153 
Q 2172 0 1784 0 
Q 1141 0 747 490 
Q 353 981 353 1791 
Q 353 2603 747 3093 
Q 1141 3584 1784 3584 
Q 2172 3584 2450 3431 
Q 2728 3278 2906 2969 
L 2906 3500 
L 3481 3500 
L 3481 434 
z
" transform="scale(0.015625)"/>
      <path id="DejaVuSans-64" d="M 2906 2969 
L 2906 4863 
L 3481 4863 
L 3481 0 
L 2906 0 
L 2906 525 
Q 2725 213 2448 61 
Q 2172 -91 1784 -91 
Q 1150 -91 751 415 
Q 353 922 353 1747 
Q 353 2572 751 3078 
Q 1150 3584 1784 3584 
Q 2172 3584 2448 3432 
Q 2725 3281 2906 2969 
z
M 947 1747 
Q 947 1113 1208 752 
Q 1469 391 1925 391 
Q 2381 391 2643 752 
Q 2906 1113 2906 1747 
Q 2906 2381 2643 2742 
Q 2381 3103 1925 3103 
Q 1469 3103 1208 2742 
Q 947 2381 947 1747 
z
" transform="scale(0.015625)"/>
      <path id="DejaVuSans-56" d="M 1831 0 
L 50 4666 
L 709 4666 
L 2188 738 
L 3669 4666 
L 4325 4666 
L 2547 0 
L 1831 0 
z
" transform="scale(0.015625)"/>
      <path id="DejaVuSans-6c" d="M 603 4863 
L 1178 4863 
L 1178 0 
L 603 0 
L 603 4863 
z
" transform="scale(0.015625)"/>
     </defs>
     <use xlink:href="#DejaVuSans-54"/>
     <use xlink:href="#DejaVuSans-72" transform="translate(46.333984 0)"/>
     <use xlink:href="#DejaVuSans-61" transform="translate(87.447266 0)"/>
     <use xlink:href="#DejaVuSans-69" transform="translate(148.726562 0)"/>
     <use xlink:href="#DejaVuSans-6e" transform="translate(176.509766 0)"/>
     <use xlink:href="#DejaVuSans-69" transform="translate(239.888672 0)"/>
     <use xlink:href="#DejaVuSans-6e" transform="translate(267.671875 0)"/>
     <use xlink:href="#DejaVuSans-67" transform="translate(331.050781 0)"/>
     <use xlink:href="#DejaVuSans-20" transform="translate(394.527344 0)"/>
     <use xlink:href="#DejaVuSans-61" transform="translate(426.314453 0)"/>
     <use xlink:href="#DejaVuSans-6e" transform="translate(487.59375 0)"/>
     <use xlink:href="#DejaVuSans-64" transform="translate(550.972656 0)"/>
     <use xlink:href="#DejaVuSans-20" transform="translate(614.449219 0)"/>
     <use xlink:href="#DejaVuSans-56" transform="translate(646.236328 0)"/>
     <use xlink:href="#DejaVuSans-61" transform="translate(706.894531 0)"/>
     <use xlink:href="#DejaVuSans-6c" transform="translate(768.173828 0)"/>
     <use xlink:href="#DejaVuSans-69" transform="translate(795.957031 0)"/>
     <use xlink:href="#DejaVuSans-64" transform="translate(823.740234 0)"/>
     <use xlink:href="#DejaVuSans-61" transform="translate(887.216797 0)"/>
     <use xlink:href="#DejaVuSans-74" transform="translate(948.496094 0)"/>
     <use xlink:href="#DejaVuSans-69" transform="translate(987.705078 0)"/>
     <use xlink:href="#DejaVuSans-6e" transform="translate(1015.488281 0)"/>
     <use xlink:href="#DejaVuSans-67" transform="translate(1078.867188 0)"/>
     <use xlink:href="#DejaVuSans-20" transform="translate(1142.34375 0)"/>
     <use xlink:href="#DejaVuSans-45" transform="translate(1174.130859 0)"/>
     <use xlink:href="#DejaVuSans-73" transform="translate(1237.314453 0)"/>
     <use xlink:href="#DejaVuSans-74" transform="translate(1289.414062 0)"/>
     <use xlink:href="#DejaVuSans-69" transform="translate(1328.623047 0)"/>
     <use xlink:href="#DejaVuSans-6d" transform="translate(1356.40625 0)"/>
     <use xlink:href="#DejaVuSans-61" transform="translate(1453.818359 0)"/>
     <use xlink:href="#DejaVuSans-74" transform="translate(1515.097656 0)"/>
     <use xlink:href="#DejaVuSans-69" transform="translate(1554.306641 0)"/>
     <use xlink:href="#DejaVuSans-6f" transform="translate(1582.089844 0)"/>
     <use xlink:href="#DejaVuSans-6e" transform="translate(1643.271484 0)"/>
     <use xlink:href="#DejaVuSans-20" transform="translate(1706.650391 0)"/>
     <use xlink:href="#DejaVuSans-4c" transform="translate(1738.4375 0)"/>
     <use xlink:href="#DejaVuSans-6f" transform="translate(1792.400391 0)"/>
     <use xlink:href="#DejaVuSans-73" transform="translate(1853.582031 0)"/>
     <use xlink:href="#DejaVuSans-73" transform="translate(1905.681641 0)"/>
    </g>
   </g>
   <g id="legend_1">
    <g id="patch_7">
     <path d="M 521.439062 212.65625 
L 641 212.65625 
Q 643 212.65625 643 210.65625 
L 643 152.94375 
Q 643 150.94375 641 150.94375 
L 521.439062 150.94375 
Q 519.439062 150.94375 519.439062 152.94375 
L 519.439062 210.65625 
Q 519.439062 212.65625 521.439062 212.65625 
z
" style="fill: #ffffff; opacity: 0.8; stroke: #cccccc; stroke-linejoin: miter"/>
    </g>
    <g id="line2d_16">
     <path d="M 523.439062 159.042188 
L 533.439062 159.042188 
L 543.439062 159.042188 
" style="fill: none; stroke: #1f77b4; stroke-width: 1.5; stroke-linecap: square"/>
    </g>
    <g id="text_15">
     <!-- Training-Source -->
     <g transform="translate(551.439062 162.542188) scale(0.1 -0.1)">
      <defs>
       <path id="DejaVuSans-2d" d="M 313 2009 
L 1997 2009 
L 1997 1497 
L 313 1497 
L 313 2009 
z
" transform="scale(0.015625)"/>
       <path id="DejaVuSans-53" d="M 3425 4513 
L 3425 3897 
Q 3066 4069 2747 4153 
Q 2428 4238 2131 4238 
Q 1616 4238 1336 4038 
Q 1056 3838 1056 3469 
Q 1056 3159 1242 3001 
Q 1428 2844 1947 2747 
L 2328 2669 
Q 3034 2534 3370 2195 
Q 3706 1856 3706 1288 
Q 3706 609 3251 259 
Q 2797 -91 1919 -91 
Q 1588 -91 1214 -16 
Q 841 59 441 206 
L 441 856 
Q 825 641 1194 531 
Q 1563 422 1919 422 
Q 2459 422 2753 634 
Q 3047 847 3047 1241 
Q 3047 1584 2836 1778 
Q 2625 1972 2144 2069 
L 1759 2144 
Q 1053 2284 737 2584 
Q 422 2884 422 3419 
Q 422 4038 858 4394 
Q 1294 4750 2059 4750 
Q 2388 4750 2728 4690 
Q 3069 4631 3425 4513 
z
" transform="scale(0.015625)"/>
       <path id="DejaVuSans-75" d="M 544 1381 
L 544 3500 
L 1119 3500 
L 1119 1403 
Q 1119 906 1312 657 
Q 1506 409 1894 409 
Q 2359 409 2629 706 
Q 2900 1003 2900 1516 
L 2900 3500 
L 3475 3500 
L 3475 0 
L 2900 0 
L 2900 538 
Q 2691 219 2414 64 
Q 2138 -91 1772 -91 
Q 1169 -91 856 284 
Q 544 659 544 1381 
z
M 1991 3584 
L 1991 3584 
z
" transform="scale(0.015625)"/>
       <path id="DejaVuSans-65" d="M 3597 1894 
L 3597 1613 
L 953 1613 
Q 991 1019 1311 708 
Q 1631 397 2203 397 
Q 2534 397 2845 478 
Q 3156 559 3463 722 
L 3463 178 
Q 3153 47 2828 -22 
Q 2503 -91 2169 -91 
Q 1331 -91 842 396 
Q 353 884 353 1716 
Q 353 2575 817 3079 
Q 1281 3584 2069 3584 
Q 2775 3584 3186 3129 
Q 3597 2675 3597 1894 
z
M 3022 2063 
Q 3016 2534 2758 2815 
Q 2500 3097 2075 3097 
Q 1594 3097 1305 2825 
Q 1016 2553 972 2059 
L 3022 2063 
z
" transform="scale(0.015625)"/>
      </defs>
      <use xlink:href="#DejaVuSans-54"/>
      <use xlink:href="#DejaVuSans-72" transform="translate(46.333984 0)"/>
      <use xlink:href="#DejaVuSans-61" transform="translate(87.447266 0)"/>
      <use xlink:href="#DejaVuSans-69" transform="translate(148.726562 0)"/>
      <use xlink:href="#DejaVuSans-6e" transform="translate(176.509766 0)"/>
      <use xlink:href="#DejaVuSans-69" transform="translate(239.888672 0)"/>
      <use xlink:href="#DejaVuSans-6e" transform="translate(267.671875 0)"/>
      <use xlink:href="#DejaVuSans-67" transform="translate(331.050781 0)"/>
      <use xlink:href="#DejaVuSans-2d" transform="translate(394.527344 0)"/>
      <use xlink:href="#DejaVuSans-53" transform="translate(430.611328 0)"/>
      <use xlink:href="#DejaVuSans-6f" transform="translate(494.087891 0)"/>
      <use xlink:href="#DejaVuSans-75" transform="translate(555.269531 0)"/>
      <use xlink:href="#DejaVuSans-72" transform="translate(618.648438 0)"/>
      <use xlink:href="#DejaVuSans-63" transform="translate(657.511719 0)"/>
      <use xlink:href="#DejaVuSans-65" transform="translate(712.492188 0)"/>
     </g>
    </g>
    <g id="line2d_17">
     <path d="M 523.439062 173.720313 
L 533.439062 173.720313 
L 543.439062 173.720313 
" style="fill: none; stroke: #ff7f0e; stroke-width: 1.5; stroke-linecap: square"/>
    </g>
    <g id="text_16">
     <!-- Training-Target -->
     <g transform="translate(551.439062 177.220313) scale(0.1 -0.1)">
      <use xlink:href="#DejaVuSans-54"/>
      <use xlink:href="#DejaVuSans-72" transform="translate(46.333984 0)"/>
      <use xlink:href="#DejaVuSans-61" transform="translate(87.447266 0)"/>
      <use xlink:href="#DejaVuSans-69" transform="translate(148.726562 0)"/>
      <use xlink:href="#DejaVuSans-6e" transform="translate(176.509766 0)"/>
      <use xlink:href="#DejaVuSans-69" transform="translate(239.888672 0)"/>
      <use xlink:href="#DejaVuSans-6e" transform="translate(267.671875 0)"/>
      <use xlink:href="#DejaVuSans-67" transform="translate(331.050781 0)"/>
      <use xlink:href="#DejaVuSans-2d" transform="translate(394.527344 0)"/>
      <use xlink:href="#DejaVuSans-54" transform="translate(421.486328 0)"/>
      <use xlink:href="#DejaVuSans-61" transform="translate(466.070312 0)"/>
      <use xlink:href="#DejaVuSans-72" transform="translate(527.349609 0)"/>
      <use xlink:href="#DejaVuSans-67" transform="translate(566.712891 0)"/>
      <use xlink:href="#DejaVuSans-65" transform="translate(630.189453 0)"/>
      <use xlink:href="#DejaVuSans-74" transform="translate(691.712891 0)"/>
     </g>
    </g>
    <g id="line2d_18">
     <path d="M 523.439062 188.398438 
L 533.439062 188.398438 
L 543.439062 188.398438 
" style="fill: none; stroke: #2ca02c; stroke-width: 1.5; stroke-linecap: square"/>
    </g>
    <g id="text_17">
     <!-- Validating-Source -->
     <g transform="translate(551.439062 191.898438) scale(0.1 -0.1)">
      <use xlink:href="#DejaVuSans-56"/>
      <use xlink:href="#DejaVuSans-61" transform="translate(60.658203 0)"/>
      <use xlink:href="#DejaVuSans-6c" transform="translate(121.9375 0)"/>
      <use xlink:href="#DejaVuSans-69" transform="translate(149.720703 0)"/>
      <use xlink:href="#DejaVuSans-64" transform="translate(177.503906 0)"/>
      <use xlink:href="#DejaVuSans-61" transform="translate(240.980469 0)"/>
      <use xlink:href="#DejaVuSans-74" transform="translate(302.259766 0)"/>
      <use xlink:href="#DejaVuSans-69" transform="translate(341.46875 0)"/>
      <use xlink:href="#DejaVuSans-6e" transform="translate(369.251953 0)"/>
      <use xlink:href="#DejaVuSans-67" transform="translate(432.630859 0)"/>
      <use xlink:href="#DejaVuSans-2d" transform="translate(496.107422 0)"/>
      <use xlink:href="#DejaVuSans-53" transform="translate(532.191406 0)"/>
      <use xlink:href="#DejaVuSans-6f" transform="translate(595.667969 0)"/>
      <use xlink:href="#DejaVuSans-75" transform="translate(656.849609 0)"/>
      <use xlink:href="#DejaVuSans-72" transform="translate(720.228516 0)"/>
      <use xlink:href="#DejaVuSans-63" transform="translate(759.091797 0)"/>
      <use xlink:href="#DejaVuSans-65" transform="translate(814.072266 0)"/>
     </g>
    </g>
    <g id="line2d_19">
     <path d="M 523.439062 203.076563 
L 533.439062 203.076563 
L 543.439062 203.076563 
" style="fill: none; stroke: #d62728; stroke-width: 1.5; stroke-linecap: square"/>
    </g>
    <g id="text_18">
     <!-- Validating-Target -->
     <g transform="translate(551.439062 206.576563) scale(0.1 -0.1)">
      <use xlink:href="#DejaVuSans-56"/>
      <use xlink:href="#DejaVuSans-61" transform="translate(60.658203 0)"/>
      <use xlink:href="#DejaVuSans-6c" transform="translate(121.9375 0)"/>
      <use xlink:href="#DejaVuSans-69" transform="translate(149.720703 0)"/>
      <use xlink:href="#DejaVuSans-64" transform="translate(177.503906 0)"/>
      <use xlink:href="#DejaVuSans-61" transform="translate(240.980469 0)"/>
      <use xlink:href="#DejaVuSans-74" transform="translate(302.259766 0)"/>
      <use xlink:href="#DejaVuSans-69" transform="translate(341.46875 0)"/>
      <use xlink:href="#DejaVuSans-6e" transform="translate(369.251953 0)"/>
      <use xlink:href="#DejaVuSans-67" transform="translate(432.630859 0)"/>
      <use xlink:href="#DejaVuSans-2d" transform="translate(496.107422 0)"/>
      <use xlink:href="#DejaVuSans-54" transform="translate(523.066406 0)"/>
      <use xlink:href="#DejaVuSans-61" transform="translate(567.650391 0)"/>
      <use xlink:href="#DejaVuSans-72" transform="translate(628.929688 0)"/>
      <use xlink:href="#DejaVuSans-67" transform="translate(668.292969 0)"/>
      <use xlink:href="#DejaVuSans-65" transform="translate(731.769531 0)"/>
      <use xlink:href="#DejaVuSans-74" transform="translate(793.292969 0)"/>
     </g>
    </g>
   </g>
  </g>
 </g>
 <defs>
  <clipPath id="pd8dfbf93ee">
   <rect x="90" y="43.2" width="558" height="277.2"/>
  </clipPath>
 </defs>
</svg>
