<?xml version="1.0" encoding="utf-8" standalone="no"?>
<!DOCTYPE svg PUBLIC "-//W3C//DTD SVG 1.1//EN"
  "http://www.w3.org/Graphics/SVG/1.1/DTD/svg11.dtd">
<svg xmlns:xlink="http://www.w3.org/1999/xlink" width="720pt" height="360pt" viewBox="0 0 720 360" xmlns="http://www.w3.org/2000/svg" version="1.1">
 <metadata>
  <rdf:RDF xmlns:dc="http://purl.org/dc/elements/1.1/" xmlns:cc="http://creativecommons.org/ns#" xmlns:rdf="http://www.w3.org/1999/02/22-rdf-syntax-ns#">
   <cc:Work>
    <dc:type rdf:resource="http://purl.org/dc/dcmitype/StillImage"/>
    <dc:date>2025-10-31T22:00:28.353296</dc:date>
    <dc:format>image/svg+xml</dc:format>
    <dc:creator>
     <cc:Agent>
      <dc:title>Matplotlib v3.10.1, https://matplotlib.org/</dc:title>
     </cc:Agent>
    </dc:creator>
   </cc:Work>
  </rdf:RDF>
 </metadata>
 <defs>
  <style type="text/css">*{stroke-linejoin: round; stroke-linecap: butt}</style>
 </defs>
 <g id="figure_1">
  <g id="patch_1">
   <path d="M 0 360 
L 720 360 
L 720 0 
L 0 0 
z
" style="fill: #ffffff"/>
  </g>
  <g id="axes_1">
   <g id="patch_2">
    <path d="M 90 320.4 
L 648 320.4 
L 648 43.2 
L 90 43.2 
z
" style="fill: #ffffff"/>
   </g>
   <g id="matplotlib.axis_1">
    <g id="xtick_1">
     <g id="line2d_1">
      <defs>
       <path id="m1e24177b78" d="M 0 0 
L 0 3.5 
" style="stroke: #000000; stroke-width: 0.8"/>
      </defs>
      <g>
       <use xlink:href="#m1e24177b78" x="115.363636" y="320.4" style="stroke: #000000; stroke-width: 0.8"/>
      </g>
     </g>
     <g id="text_1">
      <!-- 0 -->
      <g transform="translate(112.182386 334.998438) scale(0.1 -0.1)">
       <defs>
        <path id="DejaVuSans-30" d="M 2034 4250 
Q 1547 4250 1301 3770 
Q 1056 3291 1056 2328 
Q 1056 1369 1301 889 
Q 1547 409 2034 409 
Q 2525 409 2770 889 
Q 3016 1369 3016 2328 
Q 3016 3291 2770 3770 
Q 2525 4250 2034 4250 
z
M 2034 4750 
Q 2819 4750 3233 4129 
Q 3647 3509 3647 2328 
Q 3647 1150 3233 529 
Q 2819 -91 2034 -91 
Q 1250 -91 836 529 
Q 422 1150 422 2328 
Q 422 3509 836 4129 
Q 1250 4750 2034 4750 
z
" transform="scale(0.015625)"/>
       </defs>
       <use xlink:href="#DejaVuSans-30"/>
      </g>
     </g>
    </g>
    <g id="xtick_2">
     <g id="line2d_2">
      <g>
       <use xlink:href="#m1e24177b78" x="217.157495" y="320.4" style="stroke: #000000; stroke-width: 0.8"/>
      </g>
     </g>
     <g id="text_2">
      <!-- 60 -->
      <g transform="translate(210.794995 334.998438) scale(0.1 -0.1)">
       <defs>
        <path id="DejaVuSans-36" d="M 2113 2584 
Q 1688 2584 1439 2293 
Q 1191 2003 1191 1497 
Q 1191 994 1439 701 
Q 1688 409 2113 409 
Q 2538 409 2786 701 
Q 3034 994 3034 1497 
Q 3034 2003 2786 2293 
Q 2538 2584 2113 2584 
z
M 3366 4563 
L 3366 3988 
Q 3128 4100 2886 4159 
Q 2644 4219 2406 4219 
Q 1781 4219 1451 3797 
Q 1122 3375 1075 2522 
Q 1259 2794 1537 2939 
Q 1816 3084 2150 3084 
Q 2853 3084 3261 2657 
Q 3669 2231 3669 1497 
Q 3669 778 3244 343 
Q 2819 -91 2113 -91 
Q 1303 -91 875 529 
Q 447 1150 447 2328 
Q 447 3434 972 4092 
Q 1497 4750 2381 4750 
Q 2619 4750 2861 4703 
Q 3103 4656 3366 4563 
z
" transform="scale(0.015625)"/>
       </defs>
       <use xlink:href="#DejaVuSans-36"/>
       <use xlink:href="#DejaVuSans-30" transform="translate(63.623047 0)"/>
      </g>
     </g>
    </g>
    <g id="xtick_3">
     <g id="line2d_3">
      <g>
       <use xlink:href="#m1e24177b78" x="318.951353" y="320.4" style="stroke: #000000; stroke-width: 0.8"/>
      </g>
     </g>
     <g id="text_3">
      <!-- 120 -->
      <g transform="translate(309.407603 334.998438) scale(0.1 -0.1)">
       <defs>
        <path id="DejaVuSans-31" d="M 794 531 
L 1825 531 
L 1825 4091 
L 703 3866 
L 703 4441 
L 1819 4666 
L 2450 4666 
L 2450 531 
L 3481 531 
L 3481 0 
L 794 0 
L 794 531 
z
" transform="scale(0.015625)"/>
        <path id="DejaVuSans-32" d="M 1228 531 
L 3431 531 
L 3431 0 
L 469 0 
L 469 531 
Q 828 903 1448 1529 
Q 2069 2156 2228 2338 
Q 2531 2678 2651 2914 
Q 2772 3150 2772 3378 
Q 2772 3750 2511 3984 
Q 2250 4219 1831 4219 
Q 1534 4219 1204 4116 
Q 875 4013 500 3803 
L 500 4441 
Q 881 4594 1212 4672 
Q 1544 4750 1819 4750 
Q 2544 4750 2975 4387 
Q 3406 4025 3406 3419 
Q 3406 3131 3298 2873 
Q 3191 2616 2906 2266 
Q 2828 2175 2409 1742 
Q 1991 1309 1228 531 
z
" transform="scale(0.015625)"/>
       </defs>
       <use xlink:href="#DejaVuSans-31"/>
       <use xlink:href="#DejaVuSans-32" transform="translate(63.623047 0)"/>
       <use xlink:href="#DejaVuSans-30" transform="translate(127.246094 0)"/>
      </g>
     </g>
    </g>
    <g id="xtick_4">
     <g id="line2d_4">
      <g>
       <use xlink:href="#m1e24177b78" x="420.745211" y="320.4" style="stroke: #000000; stroke-width: 0.8"/>
      </g>
     </g>
     <g id="text_4">
      <!-- 180 -->
      <g transform="translate(411.201461 334.998438) scale(0.1 -0.1)">
       <defs>
        <path id="DejaVuSans-38" d="M 2034 2216 
Q 1584 2216 1326 1975 
Q 1069 1734 1069 1313 
Q 1069 891 1326 650 
Q 1584 409 2034 409 
Q 2484 409 2743 651 
Q 3003 894 3003 1313 
Q 3003 1734 2745 1975 
Q 2488 2216 2034 2216 
z
M 1403 2484 
Q 997 2584 770 2862 
Q 544 3141 544 3541 
Q 544 4100 942 4425 
Q 1341 4750 2034 4750 
Q 2731 4750 3128 4425 
Q 3525 4100 3525 3541 
Q 3525 3141 3298 2862 
Q 3072 2584 2669 2484 
Q 3125 2378 3379 2068 
Q 3634 1759 3634 1313 
Q 3634 634 3220 271 
Q 2806 -91 2034 -91 
Q 1263 -91 848 271 
Q 434 634 434 1313 
Q 434 1759 690 2068 
Q 947 2378 1403 2484 
z
M 1172 3481 
Q 1172 3119 1398 2916 
Q 1625 2713 2034 2713 
Q 2441 2713 2670 2916 
Q 2900 3119 2900 3481 
Q 2900 3844 2670 4047 
Q 2441 4250 2034 4250 
Q 1625 4250 1398 4047 
Q 1172 3844 1172 3481 
z
" transform="scale(0.015625)"/>
       </defs>
       <use xlink:href="#DejaVuSans-31"/>
       <use xlink:href="#DejaVuSans-38" transform="translate(63.623047 0)"/>
       <use xlink:href="#DejaVuSans-30" transform="translate(127.246094 0)"/>
      </g>
     </g>
    </g>
    <g id="xtick_5">
     <g id="line2d_5">
      <g>
       <use xlink:href="#m1e24177b78" x="522.53907" y="320.4" style="stroke: #000000; stroke-width: 0.8"/>
      </g>
     </g>
     <g id="text_5">
      <!-- 240 -->
      <g transform="translate(512.99532 334.998438) scale(0.1 -0.1)">
       <defs>
        <path id="DejaVuSans-34" d="M 2419 4116 
L 825 1625 
L 2419 1625 
L 2419 4116 
z
M 2253 4666 
L 3047 4666 
L 3047 1625 
L 3713 1625 
L 3713 1100 
L 3047 1100 
L 3047 0 
L 2419 0 
L 2419 1100 
L 313 1100 
L 313 1709 
L 2253 4666 
z
" transform="scale(0.015625)"/>
       </defs>
       <use xlink:href="#DejaVuSans-32"/>
       <use xlink:href="#DejaVuSans-34" transform="translate(63.623047 0)"/>
       <use xlink:href="#DejaVuSans-30" transform="translate(127.246094 0)"/>
      </g>
     </g>
    </g>
    <g id="text_6">
     <!-- Epoch -->
     <g transform="translate(353.689062 348.676562) scale(0.1 -0.1)">
      <defs>
       <path id="DejaVuSans-45" d="M 628 4666 
L 3578 4666 
L 3578 4134 
L 1259 4134 
L 1259 2753 
L 3481 2753 
L 3481 2222 
L 1259 2222 
L 1259 531 
L 3634 531 
L 3634 0 
L 628 0 
L 628 4666 
z
" transform="scale(0.015625)"/>
       <path id="DejaVuSans-70" d="M 1159 525 
L 1159 -1331 
L 581 -1331 
L 581 3500 
L 1159 3500 
L 1159 2969 
Q 1341 3281 1617 3432 
Q 1894 3584 2278 3584 
Q 2916 3584 3314 3078 
Q 3713 2572 3713 1747 
Q 3713 922 3314 415 
Q 2916 -91 2278 -91 
Q 1894 -91 1617 61 
Q 1341 213 1159 525 
z
M 3116 1747 
Q 3116 2381 2855 2742 
Q 2594 3103 2138 3103 
Q 1681 3103 1420 2742 
Q 1159 2381 1159 1747 
Q 1159 1113 1420 752 
Q 1681 391 2138 391 
Q 2594 391 2855 752 
Q 3116 1113 3116 1747 
z
" transform="scale(0.015625)"/>
       <path id="DejaVuSans-6f" d="M 1959 3097 
Q 1497 3097 1228 2736 
Q 959 2375 959 1747 
Q 959 1119 1226 758 
Q 1494 397 1959 397 
Q 2419 397 2687 759 
Q 2956 1122 2956 1747 
Q 2956 2369 2687 2733 
Q 2419 3097 1959 3097 
z
M 1959 3584 
Q 2709 3584 3137 3096 
Q 3566 2609 3566 1747 
Q 3566 888 3137 398 
Q 2709 -91 1959 -91 
Q 1206 -91 779 398 
Q 353 888 353 1747 
Q 353 2609 779 3096 
Q 1206 3584 1959 3584 
z
" transform="scale(0.015625)"/>
       <path id="DejaVuSans-63" d="M 3122 3366 
L 3122 2828 
Q 2878 2963 2633 3030 
Q 2388 3097 2138 3097 
Q 1578 3097 1268 2742 
Q 959 2388 959 1747 
Q 959 1106 1268 751 
Q 1578 397 2138 397 
Q 2388 397 2633 464 
Q 2878 531 3122 666 
L 3122 134 
Q 2881 22 2623 -34 
Q 2366 -91 2075 -91 
Q 1284 -91 818 406 
Q 353 903 353 1747 
Q 353 2603 823 3093 
Q 1294 3584 2113 3584 
Q 2378 3584 2631 3529 
Q 2884 3475 3122 3366 
z
" transform="scale(0.015625)"/>
       <path id="DejaVuSans-68" d="M 3513 2113 
L 3513 0 
L 2938 0 
L 2938 2094 
Q 2938 2591 2744 2837 
Q 2550 3084 2163 3084 
Q 1697 3084 1428 2787 
Q 1159 2491 1159 1978 
L 1159 0 
L 581 0 
L 581 4863 
L 1159 4863 
L 1159 2956 
Q 1366 3272 1645 3428 
Q 1925 3584 2291 3584 
Q 2894 3584 3203 3211 
Q 3513 2838 3513 2113 
z
" transform="scale(0.015625)"/>
      </defs>
      <use xlink:href="#DejaVuSans-45"/>
      <use xlink:href="#DejaVuSans-70" transform="translate(63.183594 0)"/>
      <use xlink:href="#DejaVuSans-6f" transform="translate(126.660156 0)"/>
      <use xlink:href="#DejaVuSans-63" transform="translate(187.841797 0)"/>
      <use xlink:href="#DejaVuSans-68" transform="translate(242.822266 0)"/>
     </g>
    </g>
   </g>
   <g id="matplotlib.axis_2">
    <g id="ytick_1">
     <g id="line2d_6">
      <defs>
       <path id="ma9332684a3" d="M 0 0 
L -3.5 0 
" style="stroke: #000000; stroke-width: 0.8"/>
      </defs>
      <g>
       <use xlink:href="#ma9332684a3" x="90" y="299.114535" style="stroke: #000000; stroke-width: 0.8"/>
      </g>
     </g>
     <g id="text_7">
      <!-- 0.2 -->
      <g transform="translate(67.096875 302.913754) scale(0.1 -0.1)">
       <defs>
        <path id="DejaVuSans-2e" d="M 684 794 
L 1344 794 
L 1344 0 
L 684 0 
L 684 794 
z
" transform="scale(0.015625)"/>
       </defs>
       <use xlink:href="#DejaVuSans-30"/>
       <use xlink:href="#DejaVuSans-2e" transform="translate(63.623047 0)"/>
       <use xlink:href="#DejaVuSans-32" transform="translate(95.410156 0)"/>
      </g>
     </g>
    </g>
    <g id="ytick_2">
     <g id="line2d_7">
      <g>
       <use xlink:href="#ma9332684a3" x="90" y="250.029876" style="stroke: #000000; stroke-width: 0.8"/>
      </g>
     </g>
     <g id="text_8">
      <!-- 0.3 -->
      <g transform="translate(67.096875 253.829095) scale(0.1 -0.1)">
       <defs>
        <path id="DejaVuSans-33" d="M 2597 2516 
Q 3050 2419 3304 2112 
Q 3559 1806 3559 1356 
Q 3559 666 3084 287 
Q 2609 -91 1734 -91 
Q 1441 -91 1130 -33 
Q 819 25 488 141 
L 488 750 
Q 750 597 1062 519 
Q 1375 441 1716 441 
Q 2309 441 2620 675 
Q 2931 909 2931 1356 
Q 2931 1769 2642 2001 
Q 2353 2234 1838 2234 
L 1294 2234 
L 1294 2753 
L 1863 2753 
Q 2328 2753 2575 2939 
Q 2822 3125 2822 3475 
Q 2822 3834 2567 4026 
Q 2313 4219 1838 4219 
Q 1578 4219 1281 4162 
Q 984 4106 628 3988 
L 628 4550 
Q 988 4650 1302 4700 
Q 1616 4750 1894 4750 
Q 2613 4750 3031 4423 
Q 3450 4097 3450 3541 
Q 3450 3153 3228 2886 
Q 3006 2619 2597 2516 
z
" transform="scale(0.015625)"/>
       </defs>
       <use xlink:href="#DejaVuSans-30"/>
       <use xlink:href="#DejaVuSans-2e" transform="translate(63.623047 0)"/>
       <use xlink:href="#DejaVuSans-33" transform="translate(95.410156 0)"/>
      </g>
     </g>
    </g>
    <g id="ytick_3">
     <g id="line2d_8">
      <g>
       <use xlink:href="#ma9332684a3" x="90" y="200.945217" style="stroke: #000000; stroke-width: 0.8"/>
      </g>
     </g>
     <g id="text_9">
      <!-- 0.4 -->
      <g transform="translate(67.096875 204.744436) scale(0.1 -0.1)">
       <use xlink:href="#DejaVuSans-30"/>
       <use xlink:href="#DejaVuSans-2e" transform="translate(63.623047 0)"/>
       <use xlink:href="#DejaVuSans-34" transform="translate(95.410156 0)"/>
      </g>
     </g>
    </g>
    <g id="ytick_4">
     <g id="line2d_9">
      <g>
       <use xlink:href="#ma9332684a3" x="90" y="151.860558" style="stroke: #000000; stroke-width: 0.8"/>
      </g>
     </g>
     <g id="text_10">
      <!-- 0.5 -->
      <g transform="translate(67.096875 155.659777) scale(0.1 -0.1)">
       <defs>
        <path id="DejaVuSans-35" d="M 691 4666 
L 3169 4666 
L 3169 4134 
L 1269 4134 
L 1269 2991 
Q 1406 3038 1543 3061 
Q 1681 3084 1819 3084 
Q 2600 3084 3056 2656 
Q 3513 2228 3513 1497 
Q 3513 744 3044 326 
Q 2575 -91 1722 -91 
Q 1428 -91 1123 -41 
Q 819 9 494 109 
L 494 744 
Q 775 591 1075 516 
Q 1375 441 1709 441 
Q 2250 441 2565 725 
Q 2881 1009 2881 1497 
Q 2881 1984 2565 2268 
Q 2250 2553 1709 2553 
Q 1456 2553 1204 2497 
Q 953 2441 691 2322 
L 691 4666 
z
" transform="scale(0.015625)"/>
       </defs>
       <use xlink:href="#DejaVuSans-30"/>
       <use xlink:href="#DejaVuSans-2e" transform="translate(63.623047 0)"/>
       <use xlink:href="#DejaVuSans-35" transform="translate(95.410156 0)"/>
      </g>
     </g>
    </g>
    <g id="ytick_5">
     <g id="line2d_10">
      <g>
       <use xlink:href="#ma9332684a3" x="90" y="102.775899" style="stroke: #000000; stroke-width: 0.8"/>
      </g>
     </g>
     <g id="text_11">
      <!-- 0.6 -->
      <g transform="translate(67.096875 106.575118) scale(0.1 -0.1)">
       <use xlink:href="#DejaVuSans-30"/>
       <use xlink:href="#DejaVuSans-2e" transform="translate(63.623047 0)"/>
       <use xlink:href="#DejaVuSans-36" transform="translate(95.410156 0)"/>
      </g>
     </g>
    </g>
    <g id="ytick_6">
     <g id="line2d_11">
      <g>
       <use xlink:href="#ma9332684a3" x="90" y="53.691241" style="stroke: #000000; stroke-width: 0.8"/>
      </g>
     </g>
     <g id="text_12">
      <!-- 0.7 -->
      <g transform="translate(67.096875 57.490459) scale(0.1 -0.1)">
       <defs>
        <path id="DejaVuSans-37" d="M 525 4666 
L 3525 4666 
L 3525 4397 
L 1831 0 
L 1172 0 
L 2766 4134 
L 525 4134 
L 525 4666 
z
" transform="scale(0.015625)"/>
       </defs>
       <use xlink:href="#DejaVuSans-30"/>
       <use xlink:href="#DejaVuSans-2e" transform="translate(63.623047 0)"/>
       <use xlink:href="#DejaVuSans-37" transform="translate(95.410156 0)"/>
      </g>
     </g>
    </g>
    <g id="text_13">
     <!-- Estimation Loss -->
     <g transform="translate(61.017187 220.98125) rotate(-90) scale(0.1 -0.1)">
      <defs>
       <path id="DejaVuSans-73" d="M 2834 3397 
L 2834 2853 
Q 2591 2978 2328 3040 
Q 2066 3103 1784 3103 
Q 1356 3103 1142 2972 
Q 928 2841 928 2578 
Q 928 2378 1081 2264 
Q 1234 2150 1697 2047 
L 1894 2003 
Q 2506 1872 2764 1633 
Q 3022 1394 3022 966 
Q 3022 478 2636 193 
Q 2250 -91 1575 -91 
Q 1294 -91 989 -36 
Q 684 19 347 128 
L 347 722 
Q 666 556 975 473 
Q 1284 391 1588 391 
Q 1994 391 2212 530 
Q 2431 669 2431 922 
Q 2431 1156 2273 1281 
Q 2116 1406 1581 1522 
L 1381 1569 
Q 847 1681 609 1914 
Q 372 2147 372 2553 
Q 372 3047 722 3315 
Q 1072 3584 1716 3584 
Q 2034 3584 2315 3537 
Q 2597 3491 2834 3397 
z
" transform="scale(0.015625)"/>
       <path id="DejaVuSans-74" d="M 1172 4494 
L 1172 3500 
L 2356 3500 
L 2356 3053 
L 1172 3053 
L 1172 1153 
Q 1172 725 1289 603 
Q 1406 481 1766 481 
L 2356 481 
L 2356 0 
L 1766 0 
Q 1100 0 847 248 
Q 594 497 594 1153 
L 594 3053 
L 172 3053 
L 172 3500 
L 594 3500 
L 594 4494 
L 1172 4494 
z
" transform="scale(0.015625)"/>
       <path id="DejaVuSans-69" d="M 603 3500 
L 1178 3500 
L 1178 0 
L 603 0 
L 603 3500 
z
M 603 4863 
L 1178 4863 
L 1178 4134 
L 603 4134 
L 603 4863 
z
" transform="scale(0.015625)"/>
       <path id="DejaVuSans-6d" d="M 3328 2828 
Q 3544 3216 3844 3400 
Q 4144 3584 4550 3584 
Q 5097 3584 5394 3201 
Q 5691 2819 5691 2113 
L 5691 0 
L 5113 0 
L 5113 2094 
Q 5113 2597 4934 2840 
Q 4756 3084 4391 3084 
Q 3944 3084 3684 2787 
Q 3425 2491 3425 1978 
L 3425 0 
L 2847 0 
L 2847 2094 
Q 2847 2600 2669 2842 
Q 2491 3084 2119 3084 
Q 1678 3084 1418 2786 
Q 1159 2488 1159 1978 
L 1159 0 
L 581 0 
L 581 3500 
L 1159 3500 
L 1159 2956 
Q 1356 3278 1631 3431 
Q 1906 3584 2284 3584 
Q 2666 3584 2933 3390 
Q 3200 3197 3328 2828 
z
" transform="scale(0.015625)"/>
       <path id="DejaVuSans-61" d="M 2194 1759 
Q 1497 1759 1228 1600 
Q 959 1441 959 1056 
Q 959 750 1161 570 
Q 1363 391 1709 391 
Q 2188 391 2477 730 
Q 2766 1069 2766 1631 
L 2766 1759 
L 2194 1759 
z
M 3341 1997 
L 3341 0 
L 2766 0 
L 2766 531 
Q 2569 213 2275 61 
Q 1981 -91 1556 -91 
Q 1019 -91 701 211 
Q 384 513 384 1019 
Q 384 1609 779 1909 
Q 1175 2209 1959 2209 
L 2766 2209 
L 2766 2266 
Q 2766 2663 2505 2880 
Q 2244 3097 1772 3097 
Q 1472 3097 1187 3025 
Q 903 2953 641 2809 
L 641 3341 
Q 956 3463 1253 3523 
Q 1550 3584 1831 3584 
Q 2591 3584 2966 3190 
Q 3341 2797 3341 1997 
z
" transform="scale(0.015625)"/>
       <path id="DejaVuSans-6e" d="M 3513 2113 
L 3513 0 
L 2938 0 
L 2938 2094 
Q 2938 2591 2744 2837 
Q 2550 3084 2163 3084 
Q 1697 3084 1428 2787 
Q 1159 2491 1159 1978 
L 1159 0 
L 581 0 
L 581 3500 
L 1159 3500 
L 1159 2956 
Q 1366 3272 1645 3428 
Q 1925 3584 2291 3584 
Q 2894 3584 3203 3211 
Q 3513 2838 3513 2113 
z
" transform="scale(0.015625)"/>
       <path id="DejaVuSans-20" transform="scale(0.015625)"/>
       <path id="DejaVuSans-4c" d="M 628 4666 
L 1259 4666 
L 1259 531 
L 3531 531 
L 3531 0 
L 628 0 
L 628 4666 
z
" transform="scale(0.015625)"/>
      </defs>
      <use xlink:href="#DejaVuSans-45"/>
      <use xlink:href="#DejaVuSans-73" transform="translate(63.183594 0)"/>
      <use xlink:href="#DejaVuSans-74" transform="translate(115.283203 0)"/>
      <use xlink:href="#DejaVuSans-69" transform="translate(154.492188 0)"/>
      <use xlink:href="#DejaVuSans-6d" transform="translate(182.275391 0)"/>
      <use xlink:href="#DejaVuSans-61" transform="translate(279.6875 0)"/>
      <use xlink:href="#DejaVuSans-74" transform="translate(340.966797 0)"/>
      <use xlink:href="#DejaVuSans-69" transform="translate(380.175781 0)"/>
      <use xlink:href="#DejaVuSans-6f" transform="translate(407.958984 0)"/>
      <use xlink:href="#DejaVuSans-6e" transform="translate(469.140625 0)"/>
      <use xlink:href="#DejaVuSans-20" transform="translate(532.519531 0)"/>
      <use xlink:href="#DejaVuSans-4c" transform="translate(564.306641 0)"/>
      <use xlink:href="#DejaVuSans-6f" transform="translate(618.269531 0)"/>
      <use xlink:href="#DejaVuSans-73" transform="translate(679.451172 0)"/>
      <use xlink:href="#DejaVuSans-73" transform="translate(731.550781 0)"/>
     </g>
    </g>
   </g>
   <g id="line2d_12">
    <path d="M 115.363636 100.82323 
L 117.060201 231.929945 
L 118.756765 250.534194 
L 120.453329 257.632012 
L 122.149894 262.993987 
L 123.846458 267.429397 
L 125.543022 270.680514 
L 127.239587 273.392092 
L 128.936151 275.583883 
L 130.632715 277.085186 
L 134.025844 279.20055 
L 135.722408 280.006243 
L 137.418972 280.646138 
L 139.115537 281.407747 
L 140.812101 281.84849 
L 142.508665 282.550997 
L 149.294922 284.138543 
L 150.991487 284.360375 
L 154.384615 285.293284 
L 156.08118 285.324521 
L 157.777744 285.702898 
L 161.170873 286.159075 
L 162.867437 286.18829 
L 164.564001 286.568275 
L 167.95713 286.911686 
L 169.653694 287.175809 
L 174.743387 287.563026 
L 176.439951 287.987071 
L 178.136516 287.942298 
L 179.83308 288.092763 
L 181.529644 288.131039 
L 183.226209 288.567992 
L 184.922773 288.5418 
L 191.70903 289.2602 
L 196.798723 289.452994 
L 201.888416 289.830712 
L 213.764366 290.315855 
L 215.46093 290.430677 
L 217.157495 290.398861 
L 222.247188 290.671797 
L 227.336881 290.75354 
L 230.730009 290.897089 
L 234.123138 290.982452 
L 237.516266 291.150596 
L 239.212831 290.945219 
L 242.605959 291.280277 
L 245.999088 291.477179 
L 247.695652 291.19103 
L 249.392216 291.471646 
L 252.785345 291.42252 
L 259.571602 291.497206 
L 261.268167 291.699728 
L 262.964731 291.556055 
L 264.661295 291.710129 
L 271.447552 291.728743 
L 276.537245 291.927535 
L 278.23381 291.801029 
L 279.930374 291.99237 
L 281.626938 291.966577 
L 283.323503 292.063847 
L 288.413196 291.955576 
L 291.806324 292.257108 
L 296.896017 292.228779 
L 300.289146 292.329439 
L 301.98571 292.239215 
L 315.558224 292.561893 
L 317.254789 292.448354 
L 320.647917 292.607205 
L 324.041046 292.664824 
L 325.73761 292.461085 
L 327.434175 292.733155 
L 329.130739 292.716491 
L 330.827303 292.845362 
L 332.523867 292.638691 
L 334.220432 292.827361 
L 339.310125 292.78733 
L 347.792946 293.007471 
L 351.186075 292.972022 
L 352.882639 293.048849 
L 357.972332 292.990354 
L 368.151718 293.193618 
L 369.848282 293.09318 
L 373.241411 293.244561 
L 386.813925 293.347926 
L 388.51049 293.467703 
L 390.207054 293.334971 
L 393.600182 293.508047 
L 396.993311 293.413962 
L 398.689875 293.609727 
L 400.38644 293.470177 
L 402.083004 293.572094 
L 405.476133 293.582618 
L 415.655518 293.717496 
L 419.048647 293.674888 
L 436.01429 293.848185 
L 437.710854 294.049842 
L 439.407419 293.938249 
L 446.193676 294.042748 
L 447.89024 293.999472 
L 449.586804 294.159412 
L 454.676497 294.094118 
L 456.373062 294.226065 
L 458.069626 294.112909 
L 459.76619 294.233943 
L 463.159319 294.11095 
L 466.552448 294.254971 
L 469.945576 294.147683 
L 473.338705 294.266404 
L 480.124962 294.25747 
L 481.821526 294.098324 
L 483.518091 294.424149 
L 486.911219 294.314719 
L 488.607784 294.422483 
L 492.000912 294.398502 
L 502.180298 294.507074 
L 505.573427 294.457783 
L 537.808148 294.636345 
L 539.504713 294.591703 
L 541.201277 294.756709 
L 542.897841 294.640751 
L 544.594406 294.732955 
L 546.29097 294.663038 
L 547.987534 294.73177 
L 549.684099 294.619052 
L 551.380663 294.788738 
L 554.773791 294.72399 
L 556.470356 294.797023 
L 558.16692 294.715501 
L 561.560049 294.822225 
L 563.256613 294.794729 
L 564.953177 294.907636 
L 570.04287 294.774403 
L 571.739434 294.915406 
L 573.435999 294.796191 
L 576.829127 294.895216 
L 580.222256 294.907946 
L 581.91882 294.755644 
L 583.615385 294.985088 
L 588.705078 294.848629 
L 622.636364 295.083891 
L 622.636364 295.083891 
" clip-path="url(#p33bcf8e0c8)" style="fill: none; stroke: #1f77b4; stroke-width: 1.5; stroke-linecap: square"/>
   </g>
   <g id="line2d_13">
    <path d="M 115.363636 163.205213 
L 117.060201 243.525341 
L 118.756765 254.66188 
L 122.149894 274.102845 
L 123.846458 281.000764 
L 125.543022 285.639288 
L 128.936151 293.554564 
L 130.632715 295.091218 
L 132.329279 297.61453 
L 134.025844 298.765762 
L 135.722408 300.103191 
L 137.418972 300.015392 
L 139.115537 301.631872 
L 140.812101 301.776624 
L 142.508665 303.049498 
L 144.20523 303.925509 
L 145.901794 304.119213 
L 150.991487 305.522573 
L 152.688051 306.366097 
L 156.08118 306.402771 
L 159.474308 306.835631 
L 161.170873 306.326591 
L 162.867437 307.047332 
L 164.564001 307.350408 
L 166.260566 306.4818 
L 167.95713 307.8 
L 169.653694 307.076734 
L 173.046823 307.226019 
L 174.743387 306.178185 
L 176.439951 306.699788 
L 178.136516 306.301244 
L 179.83308 306.534428 
L 181.529644 306.340368 
L 183.226209 306.451931 
L 184.922773 306.34431 
L 186.619337 305.813783 
L 188.315901 306.190817 
L 190.012466 305.358525 
L 191.70903 303.620629 
L 193.405594 305.374965 
L 195.102159 305.056086 
L 196.798723 304.50871 
L 198.495287 304.175618 
L 200.191852 303.099811 
L 201.888416 303.676868 
L 203.58498 304.05039 
L 206.978109 302.705314 
L 208.674673 303.312493 
L 210.371237 303.05217 
L 212.067802 301.632312 
L 213.764366 300.818855 
L 215.46093 301.492164 
L 217.157495 299.894083 
L 218.854059 300.465464 
L 220.550623 299.638877 
L 222.247188 300.876032 
L 223.943752 299.420781 
L 225.640316 299.951485 
L 227.336881 301.415839 
L 229.033445 301.101689 
L 230.730009 299.95507 
L 232.426573 300.964878 
L 234.123138 301.143686 
L 235.819702 299.130657 
L 239.212831 299.524754 
L 240.909395 300.630247 
L 242.605959 300.4472 
L 244.302524 299.436519 
L 245.999088 301.122857 
L 247.695652 298.841496 
L 249.392216 298.174673 
L 251.088781 298.054187 
L 252.785345 298.787713 
L 254.481909 299.010154 
L 256.178474 299.359775 
L 257.875038 299.386746 
L 259.571602 299.879545 
L 261.268167 300.910674 
L 262.964731 298.940666 
L 264.661295 299.067542 
L 266.35786 298.267186 
L 271.447552 298.041571 
L 273.144117 298.216565 
L 274.840681 297.396731 
L 276.537245 299.671165 
L 278.23381 296.961385 
L 279.930374 298.49161 
L 281.626938 297.309276 
L 283.323503 296.405368 
L 285.020067 296.192701 
L 286.716631 297.558493 
L 288.413196 296.792546 
L 290.10976 297.911119 
L 291.806324 296.535232 
L 293.502888 297.806024 
L 295.199453 296.834277 
L 296.896017 295.671508 
L 298.592581 296.780188 
L 300.289146 295.816274 
L 301.98571 294.253925 
L 303.682274 296.004366 
L 305.378839 295.027325 
L 307.075403 295.587356 
L 308.771967 293.567278 
L 310.468531 294.952008 
L 312.165096 295.279891 
L 313.86166 295.049154 
L 315.558224 293.519421 
L 317.254789 293.984457 
L 318.951353 294.013886 
L 320.647917 295.236216 
L 322.344482 293.355659 
L 324.041046 293.677598 
L 325.73761 292.319366 
L 327.434175 293.396432 
L 329.130739 293.563339 
L 330.827303 292.380702 
L 332.523867 292.635602 
L 334.220432 291.328044 
L 335.916996 293.211328 
L 337.61356 291.689804 
L 339.310125 293.971799 
L 341.006689 294.728338 
L 342.703253 291.748513 
L 344.399818 293.224831 
L 346.096382 293.36544 
L 347.792946 293.040391 
L 349.48951 291.902566 
L 352.882639 291.274441 
L 354.579203 293.240228 
L 356.275768 293.476675 
L 357.972332 293.190555 
L 361.365461 291.562351 
L 363.062025 290.982894 
L 364.758589 289.246562 
L 366.455154 289.876411 
L 368.151718 290.766946 
L 369.848282 292.070922 
L 373.241411 289.828387 
L 374.937975 292.44691 
L 376.634539 290.011215 
L 378.331104 290.606792 
L 380.027668 288.013396 
L 381.724232 289.212144 
L 383.420797 289.549304 
L 385.117361 289.359844 
L 386.813925 288.331574 
L 388.51049 290.173071 
L 390.207054 289.547069 
L 391.903618 288.552328 
L 393.600182 289.46375 
L 395.296747 289.358763 
L 396.993311 286.98124 
L 398.689875 290.33784 
L 400.38644 288.135432 
L 402.083004 287.805277 
L 403.779568 287.273163 
L 405.476133 289.328171 
L 407.172697 287.038078 
L 408.869261 287.6739 
L 410.565825 289.106593 
L 412.26239 284.983945 
L 413.958954 287.546944 
L 415.655518 289.323614 
L 417.352083 286.48802 
L 419.048647 288.44462 
L 420.745211 287.79567 
L 422.441776 287.606076 
L 424.13834 288.785852 
L 427.531469 284.364999 
L 429.228033 286.163836 
L 430.924597 286.706761 
L 432.621161 285.921732 
L 434.317726 285.344338 
L 436.01429 285.62229 
L 437.710854 286.067524 
L 439.407419 286.636324 
L 441.103983 284.659921 
L 442.800547 284.713139 
L 444.497112 286.219541 
L 446.193676 285.65228 
L 447.89024 283.648419 
L 449.586804 286.125843 
L 451.283369 285.333968 
L 452.979933 287.17519 
L 454.676497 285.565614 
L 456.373062 285.083841 
L 458.069626 286.22423 
L 459.76619 285.495685 
L 461.462755 282.828603 
L 463.159319 285.195648 
L 464.855883 283.523497 
L 466.552448 284.979684 
L 468.249012 284.94914 
L 469.945576 283.793158 
L 471.64214 282.787007 
L 473.338705 284.360247 
L 475.035269 283.96249 
L 476.731833 284.428568 
L 478.428398 283.991795 
L 480.124962 281.958348 
L 481.821526 285.400565 
L 483.518091 285.340269 
L 485.214655 281.123763 
L 488.607784 286.132934 
L 490.304348 282.341538 
L 492.000912 283.132044 
L 493.697476 282.193237 
L 495.394041 280.825178 
L 497.090605 280.970076 
L 498.787169 279.47327 
L 500.483734 281.089528 
L 502.180298 281.614575 
L 505.573427 282.100874 
L 507.269991 280.441238 
L 508.966555 282.043297 
L 512.359684 277.661698 
L 514.056248 280.514021 
L 515.752812 282.286923 
L 517.449377 280.113708 
L 519.145941 280.859323 
L 520.842505 280.84332 
L 522.53907 281.753779 
L 525.932198 279.936381 
L 527.628763 280.006324 
L 529.325327 281.265073 
L 531.021891 280.251108 
L 532.718455 281.442377 
L 534.41502 281.176914 
L 536.111584 280.134416 
L 537.808148 279.97294 
L 539.504713 277.648615 
L 541.201277 279.78829 
L 542.897841 280.569377 
L 544.594406 276.852994 
L 546.29097 279.797645 
L 547.987534 279.194568 
L 549.684099 278.336262 
L 551.380663 279.897891 
L 553.077227 280.128743 
L 554.773791 279.306192 
L 556.470356 279.813061 
L 558.16692 278.902339 
L 559.863484 279.63974 
L 561.560049 277.480829 
L 563.256613 278.262549 
L 564.953177 275.765954 
L 566.649742 277.362668 
L 568.346306 277.616277 
L 570.04287 278.632874 
L 571.739434 277.136895 
L 573.435999 275.993701 
L 575.132563 278.512236 
L 576.829127 277.911456 
L 578.525692 277.144838 
L 580.222256 273.468626 
L 581.91882 276.69479 
L 583.615385 274.615274 
L 585.311949 274.29132 
L 587.008513 276.252497 
L 588.705078 274.868902 
L 590.401642 276.587406 
L 592.098206 275.506235 
L 593.79477 277.519014 
L 595.491335 275.840558 
L 597.187899 275.578691 
L 598.884463 276.359192 
L 600.581028 274.932639 
L 602.277592 276.232651 
L 603.974156 273.418977 
L 605.670721 275.627525 
L 607.367285 273.889141 
L 609.063849 273.436006 
L 610.760413 274.896012 
L 612.456978 274.934518 
L 614.153542 275.894111 
L 615.850106 275.887474 
L 617.546671 275.669319 
L 619.243235 276.4185 
L 620.939799 273.536652 
L 622.636364 276.050816 
L 622.636364 276.050816 
" clip-path="url(#p33bcf8e0c8)" style="fill: none; stroke: #ff7f0e; stroke-width: 1.5; stroke-linecap: square"/>
   </g>
   <g id="line2d_14">
    <path d="M 115.363636 55.8 
L 117.060201 114.087445 
L 118.756765 132.052119 
L 120.453329 143.621832 
L 122.149894 151.749683 
L 123.846458 158.799299 
L 125.543022 163.709636 
L 127.239587 169.447917 
L 128.936151 172.214865 
L 130.632715 173.382017 
L 132.329279 172.876486 
L 134.025844 177.335338 
L 135.722408 178.837402 
L 137.418972 178.868662 
L 139.115537 180.996627 
L 140.812101 180.68937 
L 142.508665 180.759874 
L 144.20523 183.31775 
L 145.901794 184.347335 
L 147.598358 185.011117 
L 149.294922 184.875803 
L 150.991487 186.706688 
L 152.688051 187.68259 
L 154.384615 187.489538 
L 156.08118 188.57502 
L 157.777744 187.612607 
L 159.474308 187.868989 
L 161.170873 189.581897 
L 162.867437 190.116924 
L 164.564001 189.516099 
L 166.260566 190.359482 
L 167.95713 190.38049 
L 169.653694 190.906711 
L 171.350258 191.049471 
L 173.046823 191.064009 
L 174.743387 188.924471 
L 176.439951 192.743056 
L 178.136516 191.521661 
L 179.83308 193.373118 
L 183.226209 193.794817 
L 184.922773 192.20736 
L 186.619337 194.181882 
L 188.315901 193.771163 
L 190.012466 194.631712 
L 191.70903 193.587861 
L 193.405594 195.098854 
L 195.102159 194.844936 
L 196.798723 195.106407 
L 198.495287 193.343241 
L 200.191852 193.891567 
L 201.888416 193.724828 
L 203.58498 195.314709 
L 205.281545 194.044889 
L 206.978109 194.184757 
L 208.674673 196.258798 
L 210.371237 196.418723 
L 212.067802 194.525771 
L 213.764366 195.817958 
L 215.46093 194.61121 
L 217.157495 195.371625 
L 218.854059 195.743349 
L 220.550623 195.593631 
L 222.247188 196.172584 
L 223.943752 196.060542 
L 225.640316 196.686724 
L 227.336881 195.760457 
L 230.730009 196.284589 
L 232.426573 196.184045 
L 234.123138 196.395234 
L 235.819702 195.727076 
L 237.516266 196.522711 
L 239.212831 196.434799 
L 240.909395 196.645567 
L 242.605959 196.372988 
L 244.302524 197.004774 
L 245.999088 196.453362 
L 247.695652 197.212357 
L 249.392216 195.573578 
L 251.088781 197.102938 
L 252.785345 197.127297 
L 256.178474 196.496551 
L 257.875038 197.365271 
L 259.571602 198.034853 
L 261.268167 196.360506 
L 262.964731 196.665378 
L 264.661295 198.084 
L 266.35786 197.332106 
L 268.054424 197.223715 
L 269.750988 197.815464 
L 271.447552 197.664242 
L 273.144117 198.210288 
L 274.840681 198.034402 
L 276.537245 197.144904 
L 278.23381 197.805226 
L 279.930374 198.657581 
L 281.626938 197.1736 
L 283.323503 197.357215 
L 285.020067 197.955496 
L 286.716631 196.957682 
L 288.413196 198.531518 
L 291.806324 197.889419 
L 293.502888 198.123431 
L 295.199453 196.926181 
L 298.592581 198.936335 
L 301.98571 197.896285 
L 303.682274 198.706188 
L 305.378839 197.833473 
L 307.075403 197.565501 
L 308.771967 199.194019 
L 310.468531 198.734548 
L 312.165096 199.064506 
L 313.86166 197.158854 
L 315.558224 197.47988 
L 317.254789 198.467255 
L 318.951353 199.019592 
L 320.647917 197.518093 
L 322.344482 198.957341 
L 324.041046 199.359055 
L 325.73761 199.153668 
L 329.130739 199.280687 
L 330.827303 198.836442 
L 332.523867 199.547019 
L 334.220432 198.773307 
L 335.916996 199.03231 
L 337.61356 198.396651 
L 339.310125 199.07545 
L 342.703253 199.476056 
L 344.399818 198.881144 
L 346.096382 196.698072 
L 349.48951 199.527766 
L 351.186075 200.023107 
L 354.579203 199.022894 
L 356.275768 198.677364 
L 357.972332 199.808723 
L 359.668896 199.009235 
L 363.062025 199.642244 
L 364.758589 198.965446 
L 366.455154 199.26398 
L 368.151718 198.901844 
L 369.848282 199.850659 
L 371.544846 199.10064 
L 374.937975 200.329673 
L 376.634539 198.827467 
L 378.331104 200.037081 
L 380.027668 200.005195 
L 381.724232 198.229785 
L 383.420797 200.207053 
L 385.117361 199.971516 
L 386.813925 200.161975 
L 388.51049 199.449476 
L 390.207054 200.061509 
L 391.903618 199.596455 
L 393.600182 199.844466 
L 395.296747 199.70078 
L 396.993311 200.31028 
L 398.689875 199.720015 
L 403.779568 199.667793 
L 405.476133 198.604414 
L 407.172697 200.246774 
L 408.869261 199.545085 
L 410.565825 199.955093 
L 412.26239 199.894582 
L 413.958954 198.821987 
L 415.655518 200.413734 
L 417.352083 200.718714 
L 419.048647 200.859357 
L 420.745211 200.235935 
L 422.441776 199.389529 
L 424.13834 200.247773 
L 425.834904 200.552326 
L 427.531469 200.051248 
L 429.228033 200.318593 
L 430.924597 200.377506 
L 432.621161 200.828051 
L 434.317726 200.650089 
L 436.01429 201.156836 
L 437.710854 200.944167 
L 439.407419 201.017238 
L 441.103983 201.250975 
L 442.800547 201.371689 
L 444.497112 200.150762 
L 446.193676 200.896853 
L 447.89024 201.072456 
L 449.586804 200.675049 
L 451.283369 201.000268 
L 452.979933 200.745803 
L 454.676497 201.504371 
L 456.373062 200.471764 
L 458.069626 201.353899 
L 461.462755 201.191961 
L 463.159319 201.575739 
L 464.855883 201.416169 
L 466.552448 200.92728 
L 468.249012 201.4215 
L 469.945576 200.904612 
L 471.64214 201.418306 
L 473.338705 201.338446 
L 475.035269 201.654123 
L 476.731833 199.942517 
L 478.428398 201.969748 
L 480.124962 201.516015 
L 481.821526 201.458508 
L 483.518091 199.981356 
L 485.214655 201.553027 
L 486.911219 201.339631 
L 488.607784 201.772717 
L 490.304348 201.65252 
L 492.000912 201.119103 
L 493.697476 201.243918 
L 495.394041 201.888361 
L 497.090605 201.336197 
L 498.787169 201.793841 
L 502.180298 201.799301 
L 503.876862 201.419494 
L 505.573427 201.677352 
L 507.269991 201.5476 
L 508.966555 201.773324 
L 512.359684 201.433229 
L 514.056248 201.033028 
L 515.752812 201.519442 
L 517.449377 201.579094 
L 519.145941 200.521448 
L 520.842505 201.849305 
L 522.53907 199.77377 
L 524.235634 201.947639 
L 525.932198 201.965495 
L 527.628763 201.714028 
L 529.325327 201.177772 
L 531.021891 201.01072 
L 532.718455 201.138518 
L 534.41502 201.691758 
L 536.111584 200.821395 
L 537.808148 201.087464 
L 539.504713 201.180436 
L 541.201277 202.064143 
L 542.897841 201.767681 
L 544.594406 202.195676 
L 546.29097 201.566538 
L 547.987534 201.691789 
L 549.684099 201.626489 
L 551.380663 200.312591 
L 553.077227 201.768287 
L 554.773791 202.067364 
L 556.470356 200.746819 
L 558.16692 202.05806 
L 559.863484 201.859635 
L 561.560049 202.117715 
L 563.256613 202.052886 
L 564.953177 201.564781 
L 566.649742 201.366987 
L 568.346306 200.986589 
L 570.04287 202.124428 
L 571.739434 201.877979 
L 573.435999 201.433318 
L 575.132563 201.49584 
L 576.829127 202.288804 
L 578.525692 200.632722 
L 580.222256 202.063594 
L 583.615385 201.468884 
L 585.311949 202.010634 
L 587.008513 201.473331 
L 588.705078 201.540884 
L 590.401642 201.744131 
L 592.098206 200.796636 
L 593.79477 201.4177 
L 595.491335 200.722104 
L 597.187899 199.743917 
L 598.884463 202.343528 
L 600.581028 200.527169 
L 602.277592 201.510125 
L 603.974156 200.750137 
L 605.670721 202.726991 
L 607.367285 202.17715 
L 609.063849 202.100487 
L 610.760413 201.083816 
L 612.456978 201.933597 
L 614.153542 200.877548 
L 615.850106 202.354195 
L 617.546671 202.308495 
L 619.243235 201.458232 
L 620.939799 202.215708 
L 622.636364 202.402661 
L 622.636364 202.402661 
" clip-path="url(#p33bcf8e0c8)" style="fill: none; stroke: #2ca02c; stroke-width: 1.5; stroke-linecap: square"/>
   </g>
   <g id="line2d_15">
    <path d="M 115.363636 79.816166 
L 117.060201 108.152018 
L 122.149894 170.401942 
L 123.846458 198.693374 
L 125.543022 203.346081 
L 127.239587 204.721731 
L 128.936151 221.105695 
L 130.632715 223.727061 
L 132.329279 212.461543 
L 134.025844 223.017081 
L 135.722408 207.880494 
L 137.418972 227.616021 
L 139.115537 228.066619 
L 140.812101 228.875582 
L 142.508665 228.108672 
L 144.20523 237.211397 
L 145.901794 236.363272 
L 147.598358 234.342891 
L 149.294922 223.159313 
L 150.991487 230.4968 
L 152.688051 229.835335 
L 154.384615 236.823599 
L 156.08118 238.249031 
L 157.777744 243.643446 
L 159.474308 230.479158 
L 161.170873 234.02705 
L 162.867437 231.487024 
L 164.564001 236.355286 
L 166.260566 237.963456 
L 167.95713 242.199319 
L 169.653694 244.546855 
L 171.350258 238.842357 
L 173.046823 235.746512 
L 174.743387 230.835681 
L 176.439951 232.376853 
L 178.136516 241.537239 
L 179.83308 224.119534 
L 181.529644 232.157595 
L 183.226209 227.915692 
L 184.922773 218.034908 
L 186.619337 221.605678 
L 188.315901 237.050924 
L 190.012466 227.26484 
L 191.70903 242.695365 
L 193.405594 234.062099 
L 195.102159 222.636773 
L 196.798723 221.176769 
L 198.495287 237.796034 
L 200.191852 234.178526 
L 201.888416 237.668285 
L 203.58498 227.395016 
L 205.281545 235.172607 
L 206.978109 228.313926 
L 208.674673 230.558298 
L 210.371237 222.274194 
L 212.067802 229.881707 
L 213.764366 222.811041 
L 215.46093 235.761652 
L 217.157495 229.90558 
L 218.854059 232.292286 
L 220.550623 205.072799 
L 222.247188 221.729092 
L 223.943752 233.640085 
L 225.640316 228.51824 
L 227.336881 234.28783 
L 229.033445 213.898795 
L 230.730009 233.541885 
L 232.426573 232.807263 
L 234.123138 226.592928 
L 235.819702 204.136861 
L 237.516266 215.689878 
L 239.212831 228.268885 
L 240.909395 213.313397 
L 242.605959 208.357199 
L 244.302524 220.914371 
L 245.999088 208.865218 
L 247.695652 215.134919 
L 249.392216 229.491071 
L 251.088781 226.548121 
L 254.481909 233.257 
L 256.178474 223.24249 
L 257.875038 229.063835 
L 259.571602 226.018077 
L 261.268167 218.386852 
L 262.964731 227.737173 
L 264.661295 230.48991 
L 266.35786 227.338053 
L 268.054424 222.299575 
L 269.750988 232.051386 
L 271.447552 229.526998 
L 273.144117 223.311009 
L 274.840681 232.306344 
L 276.537245 224.25628 
L 278.23381 213.633554 
L 279.930374 237.029552 
L 281.626938 207.720255 
L 283.323503 221.13975 
L 285.020067 197.410499 
L 286.716631 221.635227 
L 288.413196 206.812302 
L 290.10976 248.808694 
L 291.806324 244.642754 
L 293.502888 232.732893 
L 295.199453 205.847371 
L 296.896017 243.665257 
L 298.592581 207.782704 
L 300.289146 232.18092 
L 301.98571 205.881586 
L 303.682274 206.540126 
L 305.378839 215.100589 
L 307.075403 225.145869 
L 308.771967 217.845792 
L 310.468531 236.632406 
L 312.165096 222.927922 
L 313.86166 222.952992 
L 315.558224 184.525337 
L 317.254789 221.896695 
L 318.951353 216.112375 
L 320.647917 200.731172 
L 322.344482 203.939919 
L 324.041046 217.869958 
L 325.73761 208.603107 
L 327.434175 204.987969 
L 329.130739 212.516776 
L 330.827303 200.608264 
L 332.523867 200.452107 
L 334.220432 216.84173 
L 335.916996 222.344792 
L 337.61356 200.799618 
L 339.310125 212.619705 
L 341.006689 219.345156 
L 342.703253 197.801797 
L 344.399818 199.333508 
L 346.096382 187.753293 
L 347.792946 172.303367 
L 349.48951 205.782201 
L 351.186075 222.111937 
L 352.882639 232.101051 
L 354.579203 232.807863 
L 356.275768 216.391323 
L 357.972332 209.298247 
L 359.668896 218.358122 
L 361.365461 214.957494 
L 363.062025 211.145488 
L 364.758589 205.27782 
L 366.455154 184.131104 
L 368.151718 201.28784 
L 371.544846 210.72659 
L 373.241411 227.927532 
L 374.937975 205.633241 
L 376.634539 191.116838 
L 378.331104 216.280398 
L 380.027668 219.052662 
L 381.724232 174.600591 
L 383.420797 192.822813 
L 385.117361 215.367747 
L 386.813925 208.663064 
L 388.51049 182.506844 
L 390.207054 183.221966 
L 391.903618 190.359732 
L 393.600182 183.980667 
L 395.296747 193.183183 
L 396.993311 191.144032 
L 398.689875 215.446272 
L 400.38644 217.502421 
L 402.083004 211.377056 
L 403.779568 184.146245 
L 405.476133 202.457729 
L 407.172697 222.63196 
L 408.869261 192.745502 
L 410.565825 196.397298 
L 412.26239 199.171472 
L 413.958954 172.418313 
L 415.655518 200.425615 
L 417.352083 209.138739 
L 419.048647 190.440378 
L 420.745211 208.981484 
L 422.441776 195.679089 
L 424.13834 202.6559 
L 425.834904 162.993171 
L 427.531469 182.620769 
L 429.228033 209.837858 
L 430.924597 220.428504 
L 432.621161 211.340177 
L 434.317726 199.351805 
L 436.01429 207.922609 
L 437.710854 157.652646 
L 439.407419 197.014937 
L 441.103983 177.997357 
L 442.800547 209.260213 
L 444.497112 215.591722 
L 446.193676 201.340094 
L 447.89024 204.828797 
L 449.586804 175.065919 
L 451.283369 216.481551 
L 452.979933 164.410294 
L 454.676497 200.879474 
L 456.373062 182.034347 
L 458.069626 200.410928 
L 459.76619 203.8043 
L 461.462755 182.530337 
L 463.159319 184.121055 
L 464.855883 210.029592 
L 466.552448 181.805213 
L 468.249012 224.875777 
L 469.945576 188.049942 
L 471.64214 198.319832 
L 473.338705 216.842418 
L 475.035269 200.924705 
L 476.731833 187.145689 
L 478.428398 196.900895 
L 480.124962 188.932457 
L 481.821526 203.992523 
L 483.518091 167.043825 
L 485.214655 186.191905 
L 486.911219 203.995492 
L 488.607784 180.444744 
L 490.304348 171.913272 
L 492.000912 192.939634 
L 493.697476 166.165464 
L 495.394041 187.783267 
L 497.090605 172.335095 
L 498.787169 182.890971 
L 500.483734 179.358 
L 502.180298 208.053504 
L 503.876862 194.631245 
L 505.573427 178.217996 
L 507.269991 200.232988 
L 508.966555 201.552083 
L 510.663119 193.208197 
L 512.359684 164.346178 
L 514.056248 169.975243 
L 515.752812 205.802184 
L 517.449377 192.404295 
L 519.145941 125.951992 
L 520.842505 200.674663 
L 522.53907 183.027643 
L 524.235634 191.888179 
L 525.932198 184.24623 
L 527.628763 192.195139 
L 529.325327 203.210973 
L 531.021891 157.355003 
L 532.718455 187.474987 
L 534.41502 176.233351 
L 536.111584 173.851294 
L 537.808148 166.731041 
L 539.504713 188.587154 
L 541.201277 157.033047 
L 542.897841 189.606708 
L 544.594406 161.960788 
L 546.29097 145.404222 
L 547.987534 161.622522 
L 549.684099 200.216205 
L 551.380663 204.171909 
L 553.077227 194.416617 
L 554.773791 188.617596 
L 556.470356 166.592498 
L 558.16692 197.676564 
L 559.863484 170.710191 
L 561.560049 150.215569 
L 563.256613 188.309435 
L 564.953177 138.006794 
L 566.649742 167.869815 
L 568.346306 121.030716 
L 570.04287 177.562631 
L 571.739434 175.744646 
L 573.435999 178.083474 
L 575.132563 183.601806 
L 576.829127 189.566962 
L 578.525692 191.228429 
L 580.222256 167.853358 
L 581.91882 171.574479 
L 583.615385 186.656876 
L 585.311949 130.405862 
L 587.008513 200.464073 
L 588.705078 191.10297 
L 590.401642 176.676605 
L 592.098206 127.203829 
L 593.79477 190.640246 
L 595.491335 183.914926 
L 597.187899 60.506047 
L 598.884463 166.313677 
L 600.581028 160.875917 
L 602.277592 166.901037 
L 603.974156 161.345973 
L 605.670721 166.753671 
L 607.367285 175.771138 
L 609.063849 125.443802 
L 610.760413 153.960636 
L 612.456978 162.950778 
L 614.153542 164.408714 
L 615.850106 178.602313 
L 617.546671 190.285042 
L 619.243235 129.619313 
L 620.939799 174.129397 
L 622.636364 178.230365 
L 622.636364 178.230365 
" clip-path="url(#p33bcf8e0c8)" style="fill: none; stroke: #d62728; stroke-width: 1.5; stroke-linecap: square"/>
   </g>
   <g id="patch_3">
    <path d="M 90 320.4 
L 90 43.2 
" style="fill: none; stroke: #000000; stroke-width: 0.8; stroke-linejoin: miter; stroke-linecap: square"/>
   </g>
   <g id="patch_4">
    <path d="M 648 320.4 
L 648 43.2 
" style="fill: none; stroke: #000000; stroke-width: 0.8; stroke-linejoin: miter; stroke-linecap: square"/>
   </g>
   <g id="patch_5">
    <path d="M 90 320.4 
L 648 320.4 
" style="fill: none; stroke: #000000; stroke-width: 0.8; stroke-linejoin: miter; stroke-linecap: square"/>
   </g>
   <g id="patch_6">
    <path d="M 90 43.2 
L 648 43.2 
" style="fill: none; stroke: #000000; stroke-width: 0.8; stroke-linejoin: miter; stroke-linecap: square"/>
   </g>
   <g id="text_14">
    <!-- Training and Validating Estimation Loss -->
    <g transform="translate(251.535937 37.2) scale(0.12 -0.12)">
     <defs>
      <path id="DejaVuSans-54" d="M -19 4666 
L 3928 4666 
L 3928 4134 
L 2272 4134 
L 2272 0 
L 1638 0 
L 1638 4134 
L -19 4134 
L -19 4666 
z
" transform="scale(0.015625)"/>
      <path id="DejaVuSans-72" d="M 2631 2963 
Q 2534 3019 2420 3045 
Q 2306 3072 2169 3072 
Q 1681 3072 1420 2755 
Q 1159 2438 1159 1844 
L 1159 0 
L 581 0 
L 581 3500 
L 1159 3500 
L 1159 2956 
Q 1341 3275 1631 3429 
Q 1922 3584 2338 3584 
Q 2397 3584 2469 3576 
Q 2541 3569 2628 3553 
L 2631 2963 
z
" transform="scale(0.015625)"/>
      <path id="DejaVuSans-67" d="M 2906 1791 
Q 2906 2416 2648 2759 
Q 2391 3103 1925 3103 
Q 1463 3103 1205 2759 
Q 947 2416 947 1791 
Q 947 1169 1205 825 
Q 1463 481 1925 481 
Q 2391 481 2648 825 
Q 2906 1169 2906 1791 
z
M 3481 434 
Q 3481 -459 3084 -895 
Q 2688 -1331 1869 -1331 
Q 1566 -1331 1297 -1286 
Q 1028 -1241 775 -1147 
L 775 -588 
Q 1028 -725 1275 -790 
Q 1522 -856 1778 -856 
Q 2344 -856 2625 -561 
Q 2906 -266 2906 331 
L 2906 616 
Q 2728 306 2450 153 
Q 2172 0 1784 0 
Q 1141 0 747 490 
Q 353 981 353 1791 
Q 353 2603 747 3093 
Q 1141 3584 1784 3584 
Q 2172 3584 2450 3431 
Q 2728 3278 2906 2969 
L 2906 3500 
L 3481 3500 
L 3481 434 
z
" transform="scale(0.015625)"/>
      <path id="DejaVuSans-64" d="M 2906 2969 
L 2906 4863 
L 3481 4863 
L 3481 0 
L 2906 0 
L 2906 525 
Q 2725 213 2448 61 
Q 2172 -91 1784 -91 
Q 1150 -91 751 415 
Q 353 922 353 1747 
Q 353 2572 751 3078 
Q 1150 3584 1784 3584 
Q 2172 3584 2448 3432 
Q 2725 3281 2906 2969 
z
M 947 1747 
Q 947 1113 1208 752 
Q 1469 391 1925 391 
Q 2381 391 2643 752 
Q 2906 1113 2906 1747 
Q 2906 2381 2643 2742 
Q 2381 3103 1925 3103 
Q 1469 3103 1208 2742 
Q 947 2381 947 1747 
z
" transform="scale(0.015625)"/>
      <path id="DejaVuSans-56" d="M 1831 0 
L 50 4666 
L 709 4666 
L 2188 738 
L 3669 4666 
L 4325 4666 
L 2547 0 
L 1831 0 
z
" transform="scale(0.015625)"/>
      <path id="DejaVuSans-6c" d="M 603 4863 
L 1178 4863 
L 1178 0 
L 603 0 
L 603 4863 
z
" transform="scale(0.015625)"/>
     </defs>
     <use xlink:href="#DejaVuSans-54"/>
     <use xlink:href="#DejaVuSans-72" transform="translate(46.333984 0)"/>
     <use xlink:href="#DejaVuSans-61" transform="translate(87.447266 0)"/>
     <use xlink:href="#DejaVuSans-69" transform="translate(148.726562 0)"/>
     <use xlink:href="#DejaVuSans-6e" transform="translate(176.509766 0)"/>
     <use xlink:href="#DejaVuSans-69" transform="translate(239.888672 0)"/>
     <use xlink:href="#DejaVuSans-6e" transform="translate(267.671875 0)"/>
     <use xlink:href="#DejaVuSans-67" transform="translate(331.050781 0)"/>
     <use xlink:href="#DejaVuSans-20" transform="translate(394.527344 0)"/>
     <use xlink:href="#DejaVuSans-61" transform="translate(426.314453 0)"/>
     <use xlink:href="#DejaVuSans-6e" transform="translate(487.59375 0)"/>
     <use xlink:href="#DejaVuSans-64" transform="translate(550.972656 0)"/>
     <use xlink:href="#DejaVuSans-20" transform="translate(614.449219 0)"/>
     <use xlink:href="#DejaVuSans-56" transform="translate(646.236328 0)"/>
     <use xlink:href="#DejaVuSans-61" transform="translate(706.894531 0)"/>
     <use xlink:href="#DejaVuSans-6c" transform="translate(768.173828 0)"/>
     <use xlink:href="#DejaVuSans-69" transform="translate(795.957031 0)"/>
     <use xlink:href="#DejaVuSans-64" transform="translate(823.740234 0)"/>
     <use xlink:href="#DejaVuSans-61" transform="translate(887.216797 0)"/>
     <use xlink:href="#DejaVuSans-74" transform="translate(948.496094 0)"/>
     <use xlink:href="#DejaVuSans-69" transform="translate(987.705078 0)"/>
     <use xlink:href="#DejaVuSans-6e" transform="translate(1015.488281 0)"/>
     <use xlink:href="#DejaVuSans-67" transform="translate(1078.867188 0)"/>
     <use xlink:href="#DejaVuSans-20" transform="translate(1142.34375 0)"/>
     <use xlink:href="#DejaVuSans-45" transform="translate(1174.130859 0)"/>
     <use xlink:href="#DejaVuSans-73" transform="translate(1237.314453 0)"/>
     <use xlink:href="#DejaVuSans-74" transform="translate(1289.414062 0)"/>
     <use xlink:href="#DejaVuSans-69" transform="translate(1328.623047 0)"/>
     <use xlink:href="#DejaVuSans-6d" transform="translate(1356.40625 0)"/>
     <use xlink:href="#DejaVuSans-61" transform="translate(1453.818359 0)"/>
     <use xlink:href="#DejaVuSans-74" transform="translate(1515.097656 0)"/>
     <use xlink:href="#DejaVuSans-69" transform="translate(1554.306641 0)"/>
     <use xlink:href="#DejaVuSans-6f" transform="translate(1582.089844 0)"/>
     <use xlink:href="#DejaVuSans-6e" transform="translate(1643.271484 0)"/>
     <use xlink:href="#DejaVuSans-20" transform="translate(1706.650391 0)"/>
     <use xlink:href="#DejaVuSans-4c" transform="translate(1738.4375 0)"/>
     <use xlink:href="#DejaVuSans-6f" transform="translate(1792.400391 0)"/>
     <use xlink:href="#DejaVuSans-73" transform="translate(1853.582031 0)"/>
     <use xlink:href="#DejaVuSans-73" transform="translate(1905.681641 0)"/>
    </g>
   </g>
   <g id="legend_1">
    <g id="patch_7">
     <path d="M 309.219531 109.9125 
L 428.780469 109.9125 
Q 430.780469 109.9125 430.780469 107.9125 
L 430.780469 50.2 
Q 430.780469 48.2 428.780469 48.2 
L 309.219531 48.2 
Q 307.219531 48.2 307.219531 50.2 
L 307.219531 107.9125 
Q 307.219531 109.9125 309.219531 109.9125 
z
" style="fill: #ffffff; opacity: 0.8; stroke: #cccccc; stroke-linejoin: miter"/>
    </g>
    <g id="line2d_16">
     <path d="M 311.219531 56.298437 
L 321.219531 56.298437 
L 331.219531 56.298437 
" style="fill: none; stroke: #1f77b4; stroke-width: 1.5; stroke-linecap: square"/>
    </g>
    <g id="text_15">
     <!-- Training-Source -->
     <g transform="translate(339.219531 59.798437) scale(0.1 -0.1)">
      <defs>
       <path id="DejaVuSans-2d" d="M 313 2009 
L 1997 2009 
L 1997 1497 
L 313 1497 
L 313 2009 
z
" transform="scale(0.015625)"/>
       <path id="DejaVuSans-53" d="M 3425 4513 
L 3425 3897 
Q 3066 4069 2747 4153 
Q 2428 4238 2131 4238 
Q 1616 4238 1336 4038 
Q 1056 3838 1056 3469 
Q 1056 3159 1242 3001 
Q 1428 2844 1947 2747 
L 2328 2669 
Q 3034 2534 3370 2195 
Q 3706 1856 3706 1288 
Q 3706 609 3251 259 
Q 2797 -91 1919 -91 
Q 1588 -91 1214 -16 
Q 841 59 441 206 
L 441 856 
Q 825 641 1194 531 
Q 1563 422 1919 422 
Q 2459 422 2753 634 
Q 3047 847 3047 1241 
Q 3047 1584 2836 1778 
Q 2625 1972 2144 2069 
L 1759 2144 
Q 1053 2284 737 2584 
Q 422 2884 422 3419 
Q 422 4038 858 4394 
Q 1294 4750 2059 4750 
Q 2388 4750 2728 4690 
Q 3069 4631 3425 4513 
z
" transform="scale(0.015625)"/>
       <path id="DejaVuSans-75" d="M 544 1381 
L 544 3500 
L 1119 3500 
L 1119 1403 
Q 1119 906 1312 657 
Q 1506 409 1894 409 
Q 2359 409 2629 706 
Q 2900 1003 2900 1516 
L 2900 3500 
L 3475 3500 
L 3475 0 
L 2900 0 
L 2900 538 
Q 2691 219 2414 64 
Q 2138 -91 1772 -91 
Q 1169 -91 856 284 
Q 544 659 544 1381 
z
M 1991 3584 
L 1991 3584 
z
" transform="scale(0.015625)"/>
       <path id="DejaVuSans-65" d="M 3597 1894 
L 3597 1613 
L 953 1613 
Q 991 1019 1311 708 
Q 1631 397 2203 397 
Q 2534 397 2845 478 
Q 3156 559 3463 722 
L 3463 178 
Q 3153 47 2828 -22 
Q 2503 -91 2169 -91 
Q 1331 -91 842 396 
Q 353 884 353 1716 
Q 353 2575 817 3079 
Q 1281 3584 2069 3584 
Q 2775 3584 3186 3129 
Q 3597 2675 3597 1894 
z
M 3022 2063 
Q 3016 2534 2758 2815 
Q 2500 3097 2075 3097 
Q 1594 3097 1305 2825 
Q 1016 2553 972 2059 
L 3022 2063 
z
" transform="scale(0.015625)"/>
      </defs>
      <use xlink:href="#DejaVuSans-54"/>
      <use xlink:href="#DejaVuSans-72" transform="translate(46.333984 0)"/>
      <use xlink:href="#DejaVuSans-61" transform="translate(87.447266 0)"/>
      <use xlink:href="#DejaVuSans-69" transform="translate(148.726562 0)"/>
      <use xlink:href="#DejaVuSans-6e" transform="translate(176.509766 0)"/>
      <use xlink:href="#DejaVuSans-69" transform="translate(239.888672 0)"/>
      <use xlink:href="#DejaVuSans-6e" transform="translate(267.671875 0)"/>
      <use xlink:href="#DejaVuSans-67" transform="translate(331.050781 0)"/>
      <use xlink:href="#DejaVuSans-2d" transform="translate(394.527344 0)"/>
      <use xlink:href="#DejaVuSans-53" transform="translate(430.611328 0)"/>
      <use xlink:href="#DejaVuSans-6f" transform="translate(494.087891 0)"/>
      <use xlink:href="#DejaVuSans-75" transform="translate(555.269531 0)"/>
      <use xlink:href="#DejaVuSans-72" transform="translate(618.648438 0)"/>
      <use xlink:href="#DejaVuSans-63" transform="translate(657.511719 0)"/>
      <use xlink:href="#DejaVuSans-65" transform="translate(712.492188 0)"/>
     </g>
    </g>
    <g id="line2d_17">
     <path d="M 311.219531 70.976562 
L 321.219531 70.976562 
L 331.219531 70.976562 
" style="fill: none; stroke: #ff7f0e; stroke-width: 1.5; stroke-linecap: square"/>
    </g>
    <g id="text_16">
     <!-- Training-Target -->
     <g transform="translate(339.219531 74.476562) scale(0.1 -0.1)">
      <use xlink:href="#DejaVuSans-54"/>
      <use xlink:href="#DejaVuSans-72" transform="translate(46.333984 0)"/>
      <use xlink:href="#DejaVuSans-61" transform="translate(87.447266 0)"/>
      <use xlink:href="#DejaVuSans-69" transform="translate(148.726562 0)"/>
      <use xlink:href="#DejaVuSans-6e" transform="translate(176.509766 0)"/>
      <use xlink:href="#DejaVuSans-69" transform="translate(239.888672 0)"/>
      <use xlink:href="#DejaVuSans-6e" transform="translate(267.671875 0)"/>
      <use xlink:href="#DejaVuSans-67" transform="translate(331.050781 0)"/>
      <use xlink:href="#DejaVuSans-2d" transform="translate(394.527344 0)"/>
      <use xlink:href="#DejaVuSans-54" transform="translate(421.486328 0)"/>
      <use xlink:href="#DejaVuSans-61" transform="translate(466.070312 0)"/>
      <use xlink:href="#DejaVuSans-72" transform="translate(527.349609 0)"/>
      <use xlink:href="#DejaVuSans-67" transform="translate(566.712891 0)"/>
      <use xlink:href="#DejaVuSans-65" transform="translate(630.189453 0)"/>
      <use xlink:href="#DejaVuSans-74" transform="translate(691.712891 0)"/>
     </g>
    </g>
    <g id="line2d_18">
     <path d="M 311.219531 85.654687 
L 321.219531 85.654687 
L 331.219531 85.654687 
" style="fill: none; stroke: #2ca02c; stroke-width: 1.5; stroke-linecap: square"/>
    </g>
    <g id="text_17">
     <!-- Validating-Source -->
     <g transform="translate(339.219531 89.154687) scale(0.1 -0.1)">
      <use xlink:href="#DejaVuSans-56"/>
      <use xlink:href="#DejaVuSans-61" transform="translate(60.658203 0)"/>
      <use xlink:href="#DejaVuSans-6c" transform="translate(121.9375 0)"/>
      <use xlink:href="#DejaVuSans-69" transform="translate(149.720703 0)"/>
      <use xlink:href="#DejaVuSans-64" transform="translate(177.503906 0)"/>
      <use xlink:href="#DejaVuSans-61" transform="translate(240.980469 0)"/>
      <use xlink:href="#DejaVuSans-74" transform="translate(302.259766 0)"/>
      <use xlink:href="#DejaVuSans-69" transform="translate(341.46875 0)"/>
      <use xlink:href="#DejaVuSans-6e" transform="translate(369.251953 0)"/>
      <use xlink:href="#DejaVuSans-67" transform="translate(432.630859 0)"/>
      <use xlink:href="#DejaVuSans-2d" transform="translate(496.107422 0)"/>
      <use xlink:href="#DejaVuSans-53" transform="translate(532.191406 0)"/>
      <use xlink:href="#DejaVuSans-6f" transform="translate(595.667969 0)"/>
      <use xlink:href="#DejaVuSans-75" transform="translate(656.849609 0)"/>
      <use xlink:href="#DejaVuSans-72" transform="translate(720.228516 0)"/>
      <use xlink:href="#DejaVuSans-63" transform="translate(759.091797 0)"/>
      <use xlink:href="#DejaVuSans-65" transform="translate(814.072266 0)"/>
     </g>
    </g>
    <g id="line2d_19">
     <path d="M 311.219531 100.332812 
L 321.219531 100.332812 
L 331.219531 100.332812 
" style="fill: none; stroke: #d62728; stroke-width: 1.5; stroke-linecap: square"/>
    </g>
    <g id="text_18">
     <!-- Validating-Target -->
     <g transform="translate(339.219531 103.832812) scale(0.1 -0.1)">
      <use xlink:href="#DejaVuSans-56"/>
      <use xlink:href="#DejaVuSans-61" transform="translate(60.658203 0)"/>
      <use xlink:href="#DejaVuSans-6c" transform="translate(121.9375 0)"/>
      <use xlink:href="#DejaVuSans-69" transform="translate(149.720703 0)"/>
      <use xlink:href="#DejaVuSans-64" transform="translate(177.503906 0)"/>
      <use xlink:href="#DejaVuSans-61" transform="translate(240.980469 0)"/>
      <use xlink:href="#DejaVuSans-74" transform="translate(302.259766 0)"/>
      <use xlink:href="#DejaVuSans-69" transform="translate(341.46875 0)"/>
      <use xlink:href="#DejaVuSans-6e" transform="translate(369.251953 0)"/>
      <use xlink:href="#DejaVuSans-67" transform="translate(432.630859 0)"/>
      <use xlink:href="#DejaVuSans-2d" transform="translate(496.107422 0)"/>
      <use xlink:href="#DejaVuSans-54" transform="translate(523.066406 0)"/>
      <use xlink:href="#DejaVuSans-61" transform="translate(567.650391 0)"/>
      <use xlink:href="#DejaVuSans-72" transform="translate(628.929688 0)"/>
      <use xlink:href="#DejaVuSans-67" transform="translate(668.292969 0)"/>
      <use xlink:href="#DejaVuSans-65" transform="translate(731.769531 0)"/>
      <use xlink:href="#DejaVuSans-74" transform="translate(793.292969 0)"/>
     </g>
    </g>
   </g>
  </g>
 </g>
 <defs>
  <clipPath id="p33bcf8e0c8">
   <rect x="90" y="43.2" width="558" height="277.2"/>
  </clipPath>
 </defs>
</svg>
