<?xml version="1.0" encoding="utf-8" standalone="no"?>
<!DOCTYPE svg PUBLIC "-//W3C//DTD SVG 1.1//EN"
  "http://www.w3.org/Graphics/SVG/1.1/DTD/svg11.dtd">
<svg xmlns:xlink="http://www.w3.org/1999/xlink" width="720pt" height="360pt" viewBox="0 0 720 360" xmlns="http://www.w3.org/2000/svg" version="1.1">
 <metadata>
  <rdf:RDF xmlns:dc="http://purl.org/dc/elements/1.1/" xmlns:cc="http://creativecommons.org/ns#" xmlns:rdf="http://www.w3.org/1999/02/22-rdf-syntax-ns#">
   <cc:Work>
    <dc:type rdf:resource="http://purl.org/dc/dcmitype/StillImage"/>
    <dc:date>2025-10-18T06:25:28.518996</dc:date>
    <dc:format>image/svg+xml</dc:format>
    <dc:creator>
     <cc:Agent>
      <dc:title>Matplotlib v3.10.1, https://matplotlib.org/</dc:title>
     </cc:Agent>
    </dc:creator>
   </cc:Work>
  </rdf:RDF>
 </metadata>
 <defs>
  <style type="text/css">*{stroke-linejoin: round; stroke-linecap: butt}</style>
 </defs>
 <g id="figure_1">
  <g id="patch_1">
   <path d="M 0 360 
L 720 360 
L 720 0 
L 0 0 
z
" style="fill: #ffffff"/>
  </g>
  <g id="axes_1">
   <g id="patch_2">
    <path d="M 90 320.4 
L 648 320.4 
L 648 43.2 
L 90 43.2 
z
" style="fill: #ffffff"/>
   </g>
   <g id="matplotlib.axis_1">
    <g id="xtick_1">
     <g id="line2d_1">
      <defs>
       <path id="m20ada54ade" d="M 0 0 
L 0 3.5 
" style="stroke: #000000; stroke-width: 0.8"/>
      </defs>
      <g>
       <use xlink:href="#m20ada54ade" x="115.363636" y="320.4" style="stroke: #000000; stroke-width: 0.8"/>
      </g>
     </g>
     <g id="text_1">
      <!-- 0 -->
      <g transform="translate(112.182386 334.998438) scale(0.1 -0.1)">
       <defs>
        <path id="DejaVuSans-30" d="M 2034 4250 
Q 1547 4250 1301 3770 
Q 1056 3291 1056 2328 
Q 1056 1369 1301 889 
Q 1547 409 2034 409 
Q 2525 409 2770 889 
Q 3016 1369 3016 2328 
Q 3016 3291 2770 3770 
Q 2525 4250 2034 4250 
z
M 2034 4750 
Q 2819 4750 3233 4129 
Q 3647 3509 3647 2328 
Q 3647 1150 3233 529 
Q 2819 -91 2034 -91 
Q 1250 -91 836 529 
Q 422 1150 422 2328 
Q 422 3509 836 4129 
Q 1250 4750 2034 4750 
z
" transform="scale(0.015625)"/>
       </defs>
       <use xlink:href="#DejaVuSans-30"/>
      </g>
     </g>
    </g>
    <g id="xtick_2">
     <g id="line2d_2">
      <g>
       <use xlink:href="#m20ada54ade" x="217.157495" y="320.4" style="stroke: #000000; stroke-width: 0.8"/>
      </g>
     </g>
     <g id="text_2">
      <!-- 60 -->
      <g transform="translate(210.794995 334.998438) scale(0.1 -0.1)">
       <defs>
        <path id="DejaVuSans-36" d="M 2113 2584 
Q 1688 2584 1439 2293 
Q 1191 2003 1191 1497 
Q 1191 994 1439 701 
Q 1688 409 2113 409 
Q 2538 409 2786 701 
Q 3034 994 3034 1497 
Q 3034 2003 2786 2293 
Q 2538 2584 2113 2584 
z
M 3366 4563 
L 3366 3988 
Q 3128 4100 2886 4159 
Q 2644 4219 2406 4219 
Q 1781 4219 1451 3797 
Q 1122 3375 1075 2522 
Q 1259 2794 1537 2939 
Q 1816 3084 2150 3084 
Q 2853 3084 3261 2657 
Q 3669 2231 3669 1497 
Q 3669 778 3244 343 
Q 2819 -91 2113 -91 
Q 1303 -91 875 529 
Q 447 1150 447 2328 
Q 447 3434 972 4092 
Q 1497 4750 2381 4750 
Q 2619 4750 2861 4703 
Q 3103 4656 3366 4563 
z
" transform="scale(0.015625)"/>
       </defs>
       <use xlink:href="#DejaVuSans-36"/>
       <use xlink:href="#DejaVuSans-30" transform="translate(63.623047 0)"/>
      </g>
     </g>
    </g>
    <g id="xtick_3">
     <g id="line2d_3">
      <g>
       <use xlink:href="#m20ada54ade" x="318.951353" y="320.4" style="stroke: #000000; stroke-width: 0.8"/>
      </g>
     </g>
     <g id="text_3">
      <!-- 120 -->
      <g transform="translate(309.407603 334.998438) scale(0.1 -0.1)">
       <defs>
        <path id="DejaVuSans-31" d="M 794 531 
L 1825 531 
L 1825 4091 
L 703 3866 
L 703 4441 
L 1819 4666 
L 2450 4666 
L 2450 531 
L 3481 531 
L 3481 0 
L 794 0 
L 794 531 
z
" transform="scale(0.015625)"/>
        <path id="DejaVuSans-32" d="M 1228 531 
L 3431 531 
L 3431 0 
L 469 0 
L 469 531 
Q 828 903 1448 1529 
Q 2069 2156 2228 2338 
Q 2531 2678 2651 2914 
Q 2772 3150 2772 3378 
Q 2772 3750 2511 3984 
Q 2250 4219 1831 4219 
Q 1534 4219 1204 4116 
Q 875 4013 500 3803 
L 500 4441 
Q 881 4594 1212 4672 
Q 1544 4750 1819 4750 
Q 2544 4750 2975 4387 
Q 3406 4025 3406 3419 
Q 3406 3131 3298 2873 
Q 3191 2616 2906 2266 
Q 2828 2175 2409 1742 
Q 1991 1309 1228 531 
z
" transform="scale(0.015625)"/>
       </defs>
       <use xlink:href="#DejaVuSans-31"/>
       <use xlink:href="#DejaVuSans-32" transform="translate(63.623047 0)"/>
       <use xlink:href="#DejaVuSans-30" transform="translate(127.246094 0)"/>
      </g>
     </g>
    </g>
    <g id="xtick_4">
     <g id="line2d_4">
      <g>
       <use xlink:href="#m20ada54ade" x="420.745211" y="320.4" style="stroke: #000000; stroke-width: 0.8"/>
      </g>
     </g>
     <g id="text_4">
      <!-- 180 -->
      <g transform="translate(411.201461 334.998438) scale(0.1 -0.1)">
       <defs>
        <path id="DejaVuSans-38" d="M 2034 2216 
Q 1584 2216 1326 1975 
Q 1069 1734 1069 1313 
Q 1069 891 1326 650 
Q 1584 409 2034 409 
Q 2484 409 2743 651 
Q 3003 894 3003 1313 
Q 3003 1734 2745 1975 
Q 2488 2216 2034 2216 
z
M 1403 2484 
Q 997 2584 770 2862 
Q 544 3141 544 3541 
Q 544 4100 942 4425 
Q 1341 4750 2034 4750 
Q 2731 4750 3128 4425 
Q 3525 4100 3525 3541 
Q 3525 3141 3298 2862 
Q 3072 2584 2669 2484 
Q 3125 2378 3379 2068 
Q 3634 1759 3634 1313 
Q 3634 634 3220 271 
Q 2806 -91 2034 -91 
Q 1263 -91 848 271 
Q 434 634 434 1313 
Q 434 1759 690 2068 
Q 947 2378 1403 2484 
z
M 1172 3481 
Q 1172 3119 1398 2916 
Q 1625 2713 2034 2713 
Q 2441 2713 2670 2916 
Q 2900 3119 2900 3481 
Q 2900 3844 2670 4047 
Q 2441 4250 2034 4250 
Q 1625 4250 1398 4047 
Q 1172 3844 1172 3481 
z
" transform="scale(0.015625)"/>
       </defs>
       <use xlink:href="#DejaVuSans-31"/>
       <use xlink:href="#DejaVuSans-38" transform="translate(63.623047 0)"/>
       <use xlink:href="#DejaVuSans-30" transform="translate(127.246094 0)"/>
      </g>
     </g>
    </g>
    <g id="xtick_5">
     <g id="line2d_5">
      <g>
       <use xlink:href="#m20ada54ade" x="522.53907" y="320.4" style="stroke: #000000; stroke-width: 0.8"/>
      </g>
     </g>
     <g id="text_5">
      <!-- 240 -->
      <g transform="translate(512.99532 334.998438) scale(0.1 -0.1)">
       <defs>
        <path id="DejaVuSans-34" d="M 2419 4116 
L 825 1625 
L 2419 1625 
L 2419 4116 
z
M 2253 4666 
L 3047 4666 
L 3047 1625 
L 3713 1625 
L 3713 1100 
L 3047 1100 
L 3047 0 
L 2419 0 
L 2419 1100 
L 313 1100 
L 313 1709 
L 2253 4666 
z
" transform="scale(0.015625)"/>
       </defs>
       <use xlink:href="#DejaVuSans-32"/>
       <use xlink:href="#DejaVuSans-34" transform="translate(63.623047 0)"/>
       <use xlink:href="#DejaVuSans-30" transform="translate(127.246094 0)"/>
      </g>
     </g>
    </g>
    <g id="text_6">
     <!-- Epoch -->
     <g transform="translate(353.689062 348.676562) scale(0.1 -0.1)">
      <defs>
       <path id="DejaVuSans-45" d="M 628 4666 
L 3578 4666 
L 3578 4134 
L 1259 4134 
L 1259 2753 
L 3481 2753 
L 3481 2222 
L 1259 2222 
L 1259 531 
L 3634 531 
L 3634 0 
L 628 0 
L 628 4666 
z
" transform="scale(0.015625)"/>
       <path id="DejaVuSans-70" d="M 1159 525 
L 1159 -1331 
L 581 -1331 
L 581 3500 
L 1159 3500 
L 1159 2969 
Q 1341 3281 1617 3432 
Q 1894 3584 2278 3584 
Q 2916 3584 3314 3078 
Q 3713 2572 3713 1747 
Q 3713 922 3314 415 
Q 2916 -91 2278 -91 
Q 1894 -91 1617 61 
Q 1341 213 1159 525 
z
M 3116 1747 
Q 3116 2381 2855 2742 
Q 2594 3103 2138 3103 
Q 1681 3103 1420 2742 
Q 1159 2381 1159 1747 
Q 1159 1113 1420 752 
Q 1681 391 2138 391 
Q 2594 391 2855 752 
Q 3116 1113 3116 1747 
z
" transform="scale(0.015625)"/>
       <path id="DejaVuSans-6f" d="M 1959 3097 
Q 1497 3097 1228 2736 
Q 959 2375 959 1747 
Q 959 1119 1226 758 
Q 1494 397 1959 397 
Q 2419 397 2687 759 
Q 2956 1122 2956 1747 
Q 2956 2369 2687 2733 
Q 2419 3097 1959 3097 
z
M 1959 3584 
Q 2709 3584 3137 3096 
Q 3566 2609 3566 1747 
Q 3566 888 3137 398 
Q 2709 -91 1959 -91 
Q 1206 -91 779 398 
Q 353 888 353 1747 
Q 353 2609 779 3096 
Q 1206 3584 1959 3584 
z
" transform="scale(0.015625)"/>
       <path id="DejaVuSans-63" d="M 3122 3366 
L 3122 2828 
Q 2878 2963 2633 3030 
Q 2388 3097 2138 3097 
Q 1578 3097 1268 2742 
Q 959 2388 959 1747 
Q 959 1106 1268 751 
Q 1578 397 2138 397 
Q 2388 397 2633 464 
Q 2878 531 3122 666 
L 3122 134 
Q 2881 22 2623 -34 
Q 2366 -91 2075 -91 
Q 1284 -91 818 406 
Q 353 903 353 1747 
Q 353 2603 823 3093 
Q 1294 3584 2113 3584 
Q 2378 3584 2631 3529 
Q 2884 3475 3122 3366 
z
" transform="scale(0.015625)"/>
       <path id="DejaVuSans-68" d="M 3513 2113 
L 3513 0 
L 2938 0 
L 2938 2094 
Q 2938 2591 2744 2837 
Q 2550 3084 2163 3084 
Q 1697 3084 1428 2787 
Q 1159 2491 1159 1978 
L 1159 0 
L 581 0 
L 581 4863 
L 1159 4863 
L 1159 2956 
Q 1366 3272 1645 3428 
Q 1925 3584 2291 3584 
Q 2894 3584 3203 3211 
Q 3513 2838 3513 2113 
z
" transform="scale(0.015625)"/>
      </defs>
      <use xlink:href="#DejaVuSans-45"/>
      <use xlink:href="#DejaVuSans-70" transform="translate(63.183594 0)"/>
      <use xlink:href="#DejaVuSans-6f" transform="translate(126.660156 0)"/>
      <use xlink:href="#DejaVuSans-63" transform="translate(187.841797 0)"/>
      <use xlink:href="#DejaVuSans-68" transform="translate(242.822266 0)"/>
     </g>
    </g>
   </g>
   <g id="matplotlib.axis_2">
    <g id="ytick_1">
     <g id="line2d_6">
      <defs>
       <path id="mb4cce4e4cc" d="M 0 0 
L -3.5 0 
" style="stroke: #000000; stroke-width: 0.8"/>
      </defs>
      <g>
       <use xlink:href="#mb4cce4e4cc" x="90" y="318.018844" style="stroke: #000000; stroke-width: 0.8"/>
      </g>
     </g>
     <g id="text_7">
      <!-- 0.4 -->
      <g transform="translate(67.096875 321.818063) scale(0.1 -0.1)">
       <defs>
        <path id="DejaVuSans-2e" d="M 684 794 
L 1344 794 
L 1344 0 
L 684 0 
L 684 794 
z
" transform="scale(0.015625)"/>
       </defs>
       <use xlink:href="#DejaVuSans-30"/>
       <use xlink:href="#DejaVuSans-2e" transform="translate(63.623047 0)"/>
       <use xlink:href="#DejaVuSans-34" transform="translate(95.410156 0)"/>
      </g>
     </g>
    </g>
    <g id="ytick_2">
     <g id="line2d_7">
      <g>
       <use xlink:href="#mb4cce4e4cc" x="90" y="270.054939" style="stroke: #000000; stroke-width: 0.8"/>
      </g>
     </g>
     <g id="text_8">
      <!-- 0.6 -->
      <g transform="translate(67.096875 273.854158) scale(0.1 -0.1)">
       <use xlink:href="#DejaVuSans-30"/>
       <use xlink:href="#DejaVuSans-2e" transform="translate(63.623047 0)"/>
       <use xlink:href="#DejaVuSans-36" transform="translate(95.410156 0)"/>
      </g>
     </g>
    </g>
    <g id="ytick_3">
     <g id="line2d_8">
      <g>
       <use xlink:href="#mb4cce4e4cc" x="90" y="222.091034" style="stroke: #000000; stroke-width: 0.8"/>
      </g>
     </g>
     <g id="text_9">
      <!-- 0.8 -->
      <g transform="translate(67.096875 225.890253) scale(0.1 -0.1)">
       <use xlink:href="#DejaVuSans-30"/>
       <use xlink:href="#DejaVuSans-2e" transform="translate(63.623047 0)"/>
       <use xlink:href="#DejaVuSans-38" transform="translate(95.410156 0)"/>
      </g>
     </g>
    </g>
    <g id="ytick_4">
     <g id="line2d_9">
      <g>
       <use xlink:href="#mb4cce4e4cc" x="90" y="174.127129" style="stroke: #000000; stroke-width: 0.8"/>
      </g>
     </g>
     <g id="text_10">
      <!-- 1.0 -->
      <g transform="translate(67.096875 177.926348) scale(0.1 -0.1)">
       <use xlink:href="#DejaVuSans-31"/>
       <use xlink:href="#DejaVuSans-2e" transform="translate(63.623047 0)"/>
       <use xlink:href="#DejaVuSans-30" transform="translate(95.410156 0)"/>
      </g>
     </g>
    </g>
    <g id="ytick_5">
     <g id="line2d_10">
      <g>
       <use xlink:href="#mb4cce4e4cc" x="90" y="126.163224" style="stroke: #000000; stroke-width: 0.8"/>
      </g>
     </g>
     <g id="text_11">
      <!-- 1.2 -->
      <g transform="translate(67.096875 129.962443) scale(0.1 -0.1)">
       <use xlink:href="#DejaVuSans-31"/>
       <use xlink:href="#DejaVuSans-2e" transform="translate(63.623047 0)"/>
       <use xlink:href="#DejaVuSans-32" transform="translate(95.410156 0)"/>
      </g>
     </g>
    </g>
    <g id="ytick_6">
     <g id="line2d_11">
      <g>
       <use xlink:href="#mb4cce4e4cc" x="90" y="78.199319" style="stroke: #000000; stroke-width: 0.8"/>
      </g>
     </g>
     <g id="text_12">
      <!-- 1.4 -->
      <g transform="translate(67.096875 81.998537) scale(0.1 -0.1)">
       <use xlink:href="#DejaVuSans-31"/>
       <use xlink:href="#DejaVuSans-2e" transform="translate(63.623047 0)"/>
       <use xlink:href="#DejaVuSans-34" transform="translate(95.410156 0)"/>
      </g>
     </g>
    </g>
    <g id="text_13">
     <!-- Estimation Loss -->
     <g transform="translate(61.017187 220.98125) rotate(-90) scale(0.1 -0.1)">
      <defs>
       <path id="DejaVuSans-73" d="M 2834 3397 
L 2834 2853 
Q 2591 2978 2328 3040 
Q 2066 3103 1784 3103 
Q 1356 3103 1142 2972 
Q 928 2841 928 2578 
Q 928 2378 1081 2264 
Q 1234 2150 1697 2047 
L 1894 2003 
Q 2506 1872 2764 1633 
Q 3022 1394 3022 966 
Q 3022 478 2636 193 
Q 2250 -91 1575 -91 
Q 1294 -91 989 -36 
Q 684 19 347 128 
L 347 722 
Q 666 556 975 473 
Q 1284 391 1588 391 
Q 1994 391 2212 530 
Q 2431 669 2431 922 
Q 2431 1156 2273 1281 
Q 2116 1406 1581 1522 
L 1381 1569 
Q 847 1681 609 1914 
Q 372 2147 372 2553 
Q 372 3047 722 3315 
Q 1072 3584 1716 3584 
Q 2034 3584 2315 3537 
Q 2597 3491 2834 3397 
z
" transform="scale(0.015625)"/>
       <path id="DejaVuSans-74" d="M 1172 4494 
L 1172 3500 
L 2356 3500 
L 2356 3053 
L 1172 3053 
L 1172 1153 
Q 1172 725 1289 603 
Q 1406 481 1766 481 
L 2356 481 
L 2356 0 
L 1766 0 
Q 1100 0 847 248 
Q 594 497 594 1153 
L 594 3053 
L 172 3053 
L 172 3500 
L 594 3500 
L 594 4494 
L 1172 4494 
z
" transform="scale(0.015625)"/>
       <path id="DejaVuSans-69" d="M 603 3500 
L 1178 3500 
L 1178 0 
L 603 0 
L 603 3500 
z
M 603 4863 
L 1178 4863 
L 1178 4134 
L 603 4134 
L 603 4863 
z
" transform="scale(0.015625)"/>
       <path id="DejaVuSans-6d" d="M 3328 2828 
Q 3544 3216 3844 3400 
Q 4144 3584 4550 3584 
Q 5097 3584 5394 3201 
Q 5691 2819 5691 2113 
L 5691 0 
L 5113 0 
L 5113 2094 
Q 5113 2597 4934 2840 
Q 4756 3084 4391 3084 
Q 3944 3084 3684 2787 
Q 3425 2491 3425 1978 
L 3425 0 
L 2847 0 
L 2847 2094 
Q 2847 2600 2669 2842 
Q 2491 3084 2119 3084 
Q 1678 3084 1418 2786 
Q 1159 2488 1159 1978 
L 1159 0 
L 581 0 
L 581 3500 
L 1159 3500 
L 1159 2956 
Q 1356 3278 1631 3431 
Q 1906 3584 2284 3584 
Q 2666 3584 2933 3390 
Q 3200 3197 3328 2828 
z
" transform="scale(0.015625)"/>
       <path id="DejaVuSans-61" d="M 2194 1759 
Q 1497 1759 1228 1600 
Q 959 1441 959 1056 
Q 959 750 1161 570 
Q 1363 391 1709 391 
Q 2188 391 2477 730 
Q 2766 1069 2766 1631 
L 2766 1759 
L 2194 1759 
z
M 3341 1997 
L 3341 0 
L 2766 0 
L 2766 531 
Q 2569 213 2275 61 
Q 1981 -91 1556 -91 
Q 1019 -91 701 211 
Q 384 513 384 1019 
Q 384 1609 779 1909 
Q 1175 2209 1959 2209 
L 2766 2209 
L 2766 2266 
Q 2766 2663 2505 2880 
Q 2244 3097 1772 3097 
Q 1472 3097 1187 3025 
Q 903 2953 641 2809 
L 641 3341 
Q 956 3463 1253 3523 
Q 1550 3584 1831 3584 
Q 2591 3584 2966 3190 
Q 3341 2797 3341 1997 
z
" transform="scale(0.015625)"/>
       <path id="DejaVuSans-6e" d="M 3513 2113 
L 3513 0 
L 2938 0 
L 2938 2094 
Q 2938 2591 2744 2837 
Q 2550 3084 2163 3084 
Q 1697 3084 1428 2787 
Q 1159 2491 1159 1978 
L 1159 0 
L 581 0 
L 581 3500 
L 1159 3500 
L 1159 2956 
Q 1366 3272 1645 3428 
Q 1925 3584 2291 3584 
Q 2894 3584 3203 3211 
Q 3513 2838 3513 2113 
z
" transform="scale(0.015625)"/>
       <path id="DejaVuSans-20" transform="scale(0.015625)"/>
       <path id="DejaVuSans-4c" d="M 628 4666 
L 1259 4666 
L 1259 531 
L 3531 531 
L 3531 0 
L 628 0 
L 628 4666 
z
" transform="scale(0.015625)"/>
      </defs>
      <use xlink:href="#DejaVuSans-45"/>
      <use xlink:href="#DejaVuSans-73" transform="translate(63.183594 0)"/>
      <use xlink:href="#DejaVuSans-74" transform="translate(115.283203 0)"/>
      <use xlink:href="#DejaVuSans-69" transform="translate(154.492188 0)"/>
      <use xlink:href="#DejaVuSans-6d" transform="translate(182.275391 0)"/>
      <use xlink:href="#DejaVuSans-61" transform="translate(279.6875 0)"/>
      <use xlink:href="#DejaVuSans-74" transform="translate(340.966797 0)"/>
      <use xlink:href="#DejaVuSans-69" transform="translate(380.175781 0)"/>
      <use xlink:href="#DejaVuSans-6f" transform="translate(407.958984 0)"/>
      <use xlink:href="#DejaVuSans-6e" transform="translate(469.140625 0)"/>
      <use xlink:href="#DejaVuSans-20" transform="translate(532.519531 0)"/>
      <use xlink:href="#DejaVuSans-4c" transform="translate(564.306641 0)"/>
      <use xlink:href="#DejaVuSans-6f" transform="translate(618.269531 0)"/>
      <use xlink:href="#DejaVuSans-73" transform="translate(679.451172 0)"/>
      <use xlink:href="#DejaVuSans-73" transform="translate(731.550781 0)"/>
     </g>
    </g>
   </g>
   <g id="line2d_12">
    <path d="M 115.363636 200.634415 
L 117.060201 274.059104 
L 118.756765 284.512477 
L 120.453329 287.522615 
L 122.149894 288.711875 
L 128.936151 292.481922 
L 132.329279 293.838817 
L 134.025844 294.316548 
L 137.418972 294.914184 
L 140.812101 295.152591 
L 142.508665 295.045447 
L 144.20523 295.05483 
L 145.901794 295.323514 
L 156.08118 297.865454 
L 161.170873 298.778035 
L 164.564001 299.024058 
L 166.260566 298.982199 
L 167.95713 298.819759 
L 169.653694 298.484292 
L 171.350258 298.409894 
L 173.046823 298.483986 
L 174.743387 298.710422 
L 176.439951 299.085236 
L 179.83308 300.026868 
L 184.922773 300.882692 
L 191.70903 301.560323 
L 195.102159 301.650903 
L 196.798723 301.569117 
L 198.495287 301.354625 
L 200.191852 300.955721 
L 201.888416 300.394552 
L 203.58498 300.422096 
L 210.371237 302.189851 
L 215.46093 302.927309 
L 220.550623 303.4736 
L 227.336881 303.865902 
L 230.730009 303.558915 
L 232.426573 303.132021 
L 234.123138 302.248133 
L 235.819702 301.747649 
L 240.909395 303.407469 
L 244.302524 304.016511 
L 251.088781 304.715045 
L 266.35786 305.516383 
L 269.750988 305.411397 
L 271.447552 305.249581 
L 273.144117 304.556339 
L 274.840681 303.399966 
L 276.537245 303.855906 
L 278.23381 304.561087 
L 279.930374 305.009006 
L 283.323503 305.386078 
L 290.10976 305.80663 
L 305.378839 306.213253 
L 308.771967 306.123804 
L 312.165096 306.033484 
L 313.86166 305.750095 
L 315.558224 304.486134 
L 317.254789 304.348356 
L 318.951353 305.246519 
L 320.647917 305.690904 
L 324.041046 306.008693 
L 335.916996 306.533811 
L 341.006689 306.601555 
L 349.48951 306.738346 
L 354.579203 306.775417 
L 359.668896 306.73491 
L 361.365461 306.586145 
L 363.062025 306.228256 
L 364.758589 304.879449 
L 366.455154 304.88658 
L 368.151718 305.636792 
L 369.848282 306.085478 
L 373.241411 306.451596 
L 376.634539 306.656146 
L 405.476133 307.185355 
L 419.048647 307.095632 
L 420.745211 306.839117 
L 422.441776 306.303226 
L 424.13834 305.150353 
L 425.834904 305.538372 
L 427.531469 306.197487 
L 430.924597 306.574609 
L 444.497112 307.1439 
L 454.676497 307.306466 
L 459.76619 307.383523 
L 476.731833 307.389277 
L 481.821526 307.21758 
L 483.518091 307.091065 
L 485.214655 306.818138 
L 486.911219 306.289937 
L 488.607784 306.297211 
L 490.304348 306.674871 
L 493.697476 307.084666 
L 498.787169 307.346819 
L 512.359684 307.524616 
L 531.021891 307.558715 
L 532.718455 307.334532 
L 534.41502 306.228339 
L 536.111584 306.155064 
L 537.808148 306.661769 
L 541.201277 307.054621 
L 542.897841 307.218614 
L 549.684099 307.375953 
L 553.077227 307.534078 
L 585.311949 307.735253 
L 595.491335 307.604127 
L 597.187899 307.511219 
L 598.884463 307.204648 
L 600.581028 306.561788 
L 602.277592 306.442592 
L 603.974156 306.925981 
L 607.367285 307.272621 
L 610.760413 307.495052 
L 614.153542 307.624179 
L 622.636364 307.8 
L 622.636364 307.8 
" clip-path="url(#p0e360414f7)" style="fill: none; stroke: #1f77b4; stroke-width: 1.5; stroke-linecap: square"/>
   </g>
   <g id="line2d_13">
    <path d="M 115.363636 282.590943 
L 117.060201 259.133197 
L 118.756765 249.80762 
L 122.149894 242.340778 
L 123.846458 243.059201 
L 125.543022 247.265979 
L 127.239587 248.111068 
L 128.936151 247.955751 
L 130.632715 247.976716 
L 132.329279 248.862029 
L 134.025844 249.464556 
L 135.722408 250.684147 
L 137.418972 250.199944 
L 139.115537 250.182386 
L 140.812101 247.598534 
L 142.508665 249.518549 
L 144.20523 249.976773 
L 145.901794 250.102309 
L 147.598358 250.634577 
L 149.294922 253.197379 
L 150.991487 253.987416 
L 152.688051 252.307176 
L 154.384615 252.62358 
L 156.08118 253.073152 
L 157.777744 252.000708 
L 159.474308 252.462391 
L 161.170873 253.276633 
L 162.867437 252.726683 
L 164.564001 252.932329 
L 166.260566 252.886824 
L 167.95713 252.504701 
L 169.653694 252.298323 
L 171.350258 254.819499 
L 173.046823 253.792116 
L 174.743387 256.262424 
L 178.136516 254.859068 
L 179.83308 255.621422 
L 181.529644 255.672956 
L 183.226209 255.333196 
L 186.619337 255.89734 
L 190.012466 257.455503 
L 191.70903 258.048252 
L 193.405594 257.954434 
L 195.102159 257.729758 
L 196.798723 257.913929 
L 198.495287 257.563707 
L 200.191852 255.370508 
L 201.888416 256.81383 
L 203.58498 261.16707 
L 205.281545 263.472534 
L 206.978109 262.503561 
L 208.674673 262.946554 
L 210.371237 263.072344 
L 212.067802 263.314247 
L 213.764366 264.529861 
L 215.46093 266.037675 
L 217.157495 267.259877 
L 218.854059 268.03847 
L 222.247188 268.810284 
L 223.943752 270.135687 
L 225.640316 270.542684 
L 227.336881 269.63899 
L 229.033445 267.991588 
L 230.730009 265.137605 
L 232.426573 265.545594 
L 234.123138 263.65584 
L 235.819702 264.786632 
L 237.516266 267.691202 
L 239.212831 267.065801 
L 240.909395 267.964169 
L 242.605959 268.415272 
L 245.999088 270.423939 
L 247.695652 271.650371 
L 249.392216 271.87301 
L 251.088781 273.016849 
L 252.785345 273.911289 
L 254.481909 274.533309 
L 259.571602 276.05999 
L 261.268167 276.773686 
L 262.964731 277.018627 
L 266.35786 276.216487 
L 268.054424 276.354648 
L 269.750988 275.733257 
L 271.447552 273.963467 
L 273.144117 271.893205 
L 274.840681 271.841733 
L 276.537245 269.331317 
L 278.23381 270.090465 
L 279.930374 272.290144 
L 281.626938 273.319242 
L 283.323503 274.508864 
L 285.020067 274.198044 
L 286.716631 274.489603 
L 288.413196 275.984805 
L 290.10976 277.721294 
L 291.806324 277.437889 
L 293.502888 278.525562 
L 295.199453 277.844303 
L 296.896017 278.22833 
L 298.592581 278.829528 
L 301.98571 279.597049 
L 303.682274 279.720686 
L 305.378839 278.774696 
L 307.075403 275.765694 
L 308.771967 274.110646 
L 310.468531 273.781453 
L 312.165096 272.828314 
L 313.86166 271.046131 
L 315.558224 267.843991 
L 317.254789 270.267795 
L 318.951353 273.873655 
L 320.647917 276.019177 
L 322.344482 277.038605 
L 324.041046 277.270492 
L 325.73761 278.608234 
L 327.434175 280.693227 
L 329.130739 280.88293 
L 330.827303 281.651747 
L 332.523867 280.377479 
L 335.916996 281.96277 
L 337.61356 282.329616 
L 339.310125 281.238907 
L 341.006689 281.965253 
L 342.703253 283.252521 
L 344.399818 283.312195 
L 346.096382 284.148499 
L 347.792946 283.163163 
L 349.48951 283.534658 
L 351.186075 282.40249 
L 354.579203 282.481254 
L 356.275768 281.306638 
L 359.668896 277.722032 
L 361.365461 277.045016 
L 363.062025 275.262246 
L 364.758589 271.583999 
L 366.455154 277.028297 
L 368.151718 278.010984 
L 369.848282 277.155606 
L 371.544846 277.521605 
L 373.241411 278.413087 
L 374.937975 278.922829 
L 376.634539 279.268774 
L 378.331104 279.750573 
L 380.027668 279.913545 
L 381.724232 281.074598 
L 383.420797 281.796573 
L 385.117361 281.884731 
L 386.813925 282.721692 
L 390.207054 283.346531 
L 391.903618 282.888892 
L 393.600182 282.574013 
L 395.296747 283.249059 
L 396.993311 282.622962 
L 398.689875 282.158481 
L 400.38644 282.93941 
L 402.083004 283.574666 
L 403.779568 283.027114 
L 405.476133 283.278006 
L 407.172697 282.774935 
L 408.869261 282.491625 
L 412.26239 280.477271 
L 413.958954 277.695659 
L 415.655518 278.246552 
L 417.352083 278.405481 
L 419.048647 277.628442 
L 420.745211 277.065982 
L 422.441776 272.57097 
L 424.13834 273.132459 
L 425.834904 272.421665 
L 427.531469 274.399091 
L 429.228033 276.555421 
L 430.924597 278.081637 
L 432.621161 278.368604 
L 434.317726 279.691319 
L 436.01429 280.683712 
L 439.407419 282.086736 
L 441.103983 282.006976 
L 444.497112 283.097527 
L 446.193676 282.469322 
L 447.89024 283.750582 
L 449.586804 283.74954 
L 451.283369 284.125478 
L 452.979933 283.713188 
L 454.676497 283.838262 
L 456.373062 284.615135 
L 458.069626 283.526713 
L 459.76619 284.317408 
L 461.462755 284.806493 
L 463.159319 283.713066 
L 464.855883 284.170277 
L 466.552448 284.245598 
L 468.249012 284.016001 
L 469.945576 283.458023 
L 471.64214 282.331618 
L 473.338705 282.291813 
L 475.035269 280.713618 
L 476.731833 278.120461 
L 478.428398 277.019875 
L 480.124962 277.270076 
L 481.821526 279.319236 
L 483.518091 277.989549 
L 485.214655 277.558404 
L 486.911219 276.625247 
L 488.607784 277.752844 
L 490.304348 277.934504 
L 492.000912 277.764872 
L 493.697476 278.674697 
L 495.394041 280.162949 
L 497.090605 280.89564 
L 498.787169 281.375006 
L 500.483734 282.692386 
L 502.180298 283.231218 
L 503.876862 281.482398 
L 505.573427 281.853673 
L 507.269991 282.7992 
L 508.966555 283.123329 
L 510.663119 282.891626 
L 512.359684 282.364276 
L 514.056248 282.562074 
L 515.752812 282.445233 
L 517.449377 283.098555 
L 519.145941 281.778331 
L 520.842505 281.729061 
L 522.53907 281.189484 
L 524.235634 281.083537 
L 525.932198 281.263563 
L 527.628763 280.451779 
L 529.325327 277.871724 
L 531.021891 276.236813 
L 532.718455 275.784221 
L 534.41502 276.561977 
L 536.111584 279.146414 
L 537.808148 278.794614 
L 539.504713 279.178278 
L 541.201277 277.617976 
L 542.897841 278.78378 
L 544.594406 278.530216 
L 546.29097 279.351144 
L 547.987534 280.601415 
L 549.684099 281.239464 
L 553.077227 281.446411 
L 554.773791 281.589189 
L 556.470356 282.112169 
L 558.16692 282.156926 
L 559.863484 281.975627 
L 561.560049 282.459893 
L 563.256613 282.051465 
L 564.953177 282.185511 
L 566.649742 281.663265 
L 568.346306 281.939912 
L 570.04287 281.805951 
L 573.435999 280.385982 
L 575.132563 280.590356 
L 576.829127 280.671952 
L 578.525692 280.976705 
L 580.222256 279.83492 
L 581.91882 279.668063 
L 583.615385 278.491236 
L 585.311949 279.640113 
L 587.008513 280.591608 
L 588.705078 279.792381 
L 590.401642 279.179913 
L 592.098206 279.179497 
L 593.79477 278.081489 
L 595.491335 276.208555 
L 597.187899 277.397905 
L 598.884463 275.021913 
L 600.581028 274.148434 
L 603.974156 278.850073 
L 605.670721 278.706828 
L 607.367285 280.782006 
L 609.063849 280.907753 
L 612.456978 280.580335 
L 614.153542 281.468554 
L 615.850106 280.888306 
L 619.243235 281.291062 
L 622.636364 282.539832 
L 622.636364 282.539832 
" clip-path="url(#p0e360414f7)" style="fill: none; stroke: #ff7f0e; stroke-width: 1.5; stroke-linecap: square"/>
   </g>
   <g id="line2d_14">
    <path d="M 115.363636 135.876601 
L 117.060201 168.842975 
L 118.756765 177.654389 
L 120.453329 180.568616 
L 122.149894 182.032217 
L 123.846458 183.874316 
L 130.632715 189.786193 
L 132.329279 190.875967 
L 134.025844 191.591499 
L 135.722408 191.913913 
L 137.418972 192.447577 
L 139.115537 192.467338 
L 140.812101 192.904796 
L 142.508665 192.184868 
L 144.20523 193.157552 
L 147.598358 194.000854 
L 149.294922 195.146043 
L 150.991487 195.407781 
L 154.384615 196.981304 
L 161.170873 198.940023 
L 162.867437 198.876936 
L 164.564001 199.263859 
L 166.260566 199.092305 
L 167.95713 199.206017 
L 169.653694 198.573451 
L 171.350258 198.317174 
L 173.046823 199.319229 
L 174.743387 198.833793 
L 176.439951 200.331361 
L 178.136516 200.245346 
L 179.83308 200.697811 
L 181.529644 201.292625 
L 186.619337 202.333992 
L 188.315901 202.738604 
L 190.012466 202.563298 
L 191.70903 202.911572 
L 193.405594 202.967834 
L 195.102159 203.136591 
L 196.798723 203.090496 
L 198.495287 202.649014 
L 201.888416 201.33321 
L 203.58498 201.576298 
L 205.281545 202.874317 
L 208.674673 204.612333 
L 210.371237 204.678653 
L 212.067802 205.202753 
L 213.764366 205.321623 
L 215.46093 206.137169 
L 217.157495 205.936809 
L 222.247188 206.575825 
L 223.943752 206.98321 
L 225.640316 206.970545 
L 227.336881 206.814345 
L 229.033445 207.134569 
L 230.730009 206.520619 
L 232.426573 205.707177 
L 234.123138 204.351798 
L 235.819702 204.001495 
L 237.516266 205.514244 
L 239.212831 206.109517 
L 240.909395 206.973925 
L 247.695652 207.964082 
L 249.392216 207.964573 
L 251.088781 208.344109 
L 252.785345 208.402357 
L 254.481909 208.788658 
L 257.875038 208.750458 
L 261.268167 209.315343 
L 262.964731 209.073049 
L 264.661295 209.464221 
L 266.35786 209.465645 
L 268.054424 209.592348 
L 269.750988 209.340386 
L 271.447552 208.911765 
L 273.144117 206.952607 
L 274.840681 207.642313 
L 276.537245 208.657804 
L 278.23381 209.322372 
L 279.930374 209.547084 
L 283.323503 209.650052 
L 285.020067 210.127498 
L 286.716631 209.9882 
L 288.413196 210.010567 
L 290.10976 210.171338 
L 291.806324 210.064925 
L 293.502888 210.206316 
L 295.199453 210.524954 
L 296.896017 210.287482 
L 298.592581 210.421447 
L 300.289146 210.429887 
L 301.98571 210.669269 
L 303.682274 210.761244 
L 305.378839 210.700135 
L 307.075403 210.939721 
L 310.468531 210.981468 
L 312.165096 210.620424 
L 313.86166 209.654401 
L 315.558224 207.657123 
L 317.254789 209.105791 
L 318.951353 210.006482 
L 320.647917 210.420861 
L 325.73761 210.991681 
L 327.434175 210.793937 
L 329.130739 211.251663 
L 330.827303 211.115226 
L 332.523867 211.156602 
L 334.220432 211.334409 
L 335.916996 210.91493 
L 337.61356 211.380069 
L 339.310125 211.729696 
L 341.006689 211.53421 
L 344.399818 211.496662 
L 346.096382 211.587749 
L 347.792946 211.870625 
L 349.48951 211.689957 
L 352.882639 211.75946 
L 354.579203 211.129997 
L 356.275768 211.881281 
L 357.972332 211.857375 
L 359.668896 211.401857 
L 361.365461 211.661612 
L 363.062025 210.526493 
L 364.758589 209.1298 
L 366.455154 210.185958 
L 369.848282 211.418852 
L 371.544846 211.208277 
L 373.241411 211.378547 
L 374.937975 211.291442 
L 376.634539 211.601237 
L 378.331104 211.672107 
L 380.027668 211.558771 
L 383.420797 211.809486 
L 388.51049 211.881081 
L 390.207054 212.114635 
L 391.903618 212.128366 
L 393.600182 211.861793 
L 395.296747 212.094788 
L 396.993311 212.091594 
L 398.689875 212.296368 
L 400.38644 212.034473 
L 403.779568 212.27427 
L 405.476133 211.825973 
L 407.172697 212.373369 
L 408.869261 212.332795 
L 410.565825 212.171026 
L 412.26239 212.298791 
L 417.352083 212.268123 
L 420.745211 211.82082 
L 422.441776 210.35753 
L 424.13834 209.73771 
L 427.531469 211.440139 
L 429.228033 211.360093 
L 430.924597 212.056603 
L 434.317726 212.102289 
L 436.01429 211.862006 
L 437.710854 212.337855 
L 439.407419 212.121062 
L 441.103983 212.426497 
L 442.800547 212.148287 
L 444.497112 212.522576 
L 446.193676 212.303555 
L 449.586804 212.46792 
L 452.979933 212.442002 
L 454.676497 212.464838 
L 456.373062 212.694067 
L 458.069626 212.477157 
L 459.76619 212.723594 
L 461.462755 212.217907 
L 463.159319 212.626013 
L 464.855883 212.435428 
L 466.552448 212.492312 
L 468.249012 212.079617 
L 469.945576 212.488961 
L 478.428398 212.570119 
L 480.124962 212.264616 
L 485.214655 211.799292 
L 486.911219 211.050338 
L 488.607784 211.695938 
L 493.697476 212.44254 
L 495.394041 212.235313 
L 497.090605 212.506863 
L 498.787169 212.347843 
L 500.483734 212.564505 
L 502.180298 212.446923 
L 503.876862 212.716253 
L 507.269991 212.626078 
L 508.966555 212.471975 
L 512.359684 212.924286 
L 514.056248 212.834782 
L 515.752812 212.872658 
L 517.449377 212.344051 
L 519.145941 212.689898 
L 520.842505 212.836311 
L 522.53907 213.114028 
L 524.235634 212.620102 
L 525.932198 212.850559 
L 531.021891 212.716544 
L 532.718455 212.382218 
L 534.41502 210.852715 
L 536.111584 211.69273 
L 537.808148 211.874326 
L 539.504713 212.345453 
L 541.201277 212.477767 
L 542.897841 212.260744 
L 544.594406 212.443206 
L 546.29097 212.316636 
L 547.987534 212.797813 
L 549.684099 212.712363 
L 551.380663 212.986324 
L 553.077227 212.684465 
L 556.470356 212.89714 
L 558.16692 213.03802 
L 559.863484 212.847512 
L 561.560049 213.080538 
L 563.256613 212.860878 
L 564.953177 213.078818 
L 570.04287 212.910283 
L 571.739434 213.010484 
L 573.435999 212.913936 
L 576.829127 213.127323 
L 578.525692 212.86734 
L 580.222256 213.15919 
L 581.91882 212.878064 
L 585.311949 213.159145 
L 587.008513 213.010049 
L 588.705078 212.996081 
L 590.401642 212.845676 
L 592.098206 213.1477 
L 593.79477 213.164289 
L 595.491335 212.816982 
L 597.187899 212.652159 
L 600.581028 211.810536 
L 603.974156 212.502868 
L 605.670721 212.505922 
L 607.367285 212.743347 
L 609.063849 212.604063 
L 610.760413 212.753978 
L 612.456978 213.11684 
L 614.153542 212.934514 
L 615.850106 212.919316 
L 617.546671 213.236664 
L 619.243235 212.948755 
L 620.939799 213.206969 
L 622.636364 213.160145 
L 622.636364 213.160145 
" clip-path="url(#p0e360414f7)" style="fill: none; stroke: #2ca02c; stroke-width: 1.5; stroke-linecap: square"/>
   </g>
   <g id="line2d_15">
    <path d="M 115.363636 109.072529 
L 117.060201 78.143812 
L 118.756765 65.861559 
L 120.453329 57.53508 
L 122.149894 55.8 
L 123.846458 59.920258 
L 125.543022 64.697851 
L 127.239587 65.869874 
L 128.936151 64.12457 
L 130.632715 66.248667 
L 132.329279 70.216223 
L 134.025844 69.397409 
L 135.722408 71.166074 
L 137.418972 70.37542 
L 139.115537 66.684386 
L 140.812101 68.007322 
L 142.508665 64.201702 
L 144.20523 73.091497 
L 145.901794 66.477637 
L 147.598358 71.62189 
L 149.294922 74.88642 
L 150.991487 70.238656 
L 152.688051 70.144696 
L 154.384615 73.005241 
L 156.08118 72.684348 
L 157.777744 71.845898 
L 159.474308 71.860988 
L 161.170873 75.101071 
L 162.867437 72.935322 
L 164.564001 73.876794 
L 166.260566 76.397857 
L 167.95713 74.675679 
L 169.653694 77.57273 
L 171.350258 77.898646 
L 173.046823 76.78188 
L 174.743387 82.57417 
L 176.439951 78.729825 
L 178.136516 80.060258 
L 179.83308 79.217054 
L 181.529644 80.722272 
L 183.226209 81.076506 
L 184.922773 82.884485 
L 186.619337 87.132027 
L 188.315901 87.233943 
L 190.012466 87.177415 
L 191.70903 88.505743 
L 193.405594 87.737371 
L 195.102159 89.118527 
L 196.798723 89.934 
L 198.495287 85.997207 
L 200.191852 87.146697 
L 203.58498 98.401593 
L 205.281545 98.796381 
L 208.674673 103.252053 
L 210.371237 103.35377 
L 212.067802 106.410851 
L 213.764366 108.332011 
L 215.46093 113.133784 
L 217.157495 112.961445 
L 218.854059 115.323387 
L 220.550623 116.00485 
L 222.247188 117.538793 
L 223.943752 121.004939 
L 225.640316 117.156432 
L 227.336881 117.96155 
L 229.033445 114.966708 
L 230.730009 110.85725 
L 232.426573 105.463463 
L 234.123138 104.770928 
L 235.819702 111.612315 
L 237.516266 110.17427 
L 239.212831 111.601469 
L 240.909395 115.130919 
L 242.605959 115.381315 
L 245.999088 119.888348 
L 247.695652 119.615504 
L 249.392216 122.650312 
L 251.088781 126.211325 
L 252.785345 125.761792 
L 254.481909 129.411528 
L 256.178474 130.45121 
L 257.875038 125.481732 
L 259.571602 129.769976 
L 261.268167 131.286818 
L 262.964731 129.41842 
L 264.661295 130.240319 
L 266.35786 127.252539 
L 268.054424 132.44834 
L 269.750988 126.938303 
L 271.447552 122.569444 
L 273.144117 115.106663 
L 274.840681 115.060945 
L 276.537245 112.276385 
L 278.23381 120.427423 
L 279.930374 121.397271 
L 281.626938 122.829352 
L 283.323503 121.399824 
L 285.020067 126.12171 
L 286.716631 125.762198 
L 288.413196 129.120517 
L 290.10976 130.937543 
L 291.806324 130.632827 
L 293.502888 131.399134 
L 295.199453 131.531491 
L 296.896017 130.776679 
L 298.592581 133.938976 
L 300.289146 134.294063 
L 301.98571 136.694563 
L 303.682274 137.053292 
L 305.378839 135.880134 
L 307.075403 124.480874 
L 308.771967 119.554777 
L 310.468531 124.391387 
L 312.165096 117.375272 
L 313.86166 114.14557 
L 315.558224 111.470453 
L 317.254789 122.484839 
L 318.951353 129.527077 
L 320.647917 133.783495 
L 322.344482 132.983266 
L 324.041046 136.058053 
L 325.73761 138.328179 
L 327.434175 138.880509 
L 329.130739 140.324778 
L 330.827303 142.268619 
L 332.523867 142.221676 
L 334.220432 139.007689 
L 335.916996 140.882587 
L 337.61356 145.199552 
L 341.006689 144.215309 
L 342.703253 150.685578 
L 344.399818 146.387661 
L 346.096382 150.364003 
L 347.792946 148.391313 
L 349.48951 147.903429 
L 351.186075 144.800792 
L 352.882639 144.8215 
L 354.579203 142.09339 
L 356.275768 139.788371 
L 357.972332 135.391839 
L 359.668896 130.023505 
L 361.365461 132.421869 
L 363.062025 131.10373 
L 364.758589 123.528767 
L 366.455154 136.769298 
L 368.151718 131.262222 
L 369.848282 136.114499 
L 371.544846 134.744298 
L 373.241411 137.619267 
L 374.937975 136.844697 
L 376.634539 138.747543 
L 378.331104 140.31246 
L 380.027668 144.697139 
L 381.724232 143.021486 
L 383.420797 144.771769 
L 385.117361 145.312575 
L 386.813925 144.900205 
L 388.51049 143.533085 
L 390.207054 146.283674 
L 391.903618 146.188193 
L 393.600182 142.920696 
L 395.296747 147.817692 
L 396.993311 144.059666 
L 398.689875 146.678364 
L 400.38644 145.115704 
L 402.083004 145.506604 
L 403.779568 146.195642 
L 405.476133 143.467765 
L 407.172697 144.06839 
L 408.869261 145.098376 
L 410.565825 139.44443 
L 412.26239 136.408372 
L 413.958954 135.320255 
L 415.655518 136.151184 
L 417.352083 135.300175 
L 419.048647 135.079884 
L 420.745211 131.07488 
L 422.441776 122.622731 
L 424.13834 128.948835 
L 425.834904 124.084307 
L 427.531469 132.899393 
L 429.228033 131.33662 
L 430.924597 137.807481 
L 432.621161 136.123266 
L 434.317726 138.600967 
L 436.01429 141.55023 
L 437.710854 140.819296 
L 439.407419 141.891024 
L 441.103983 144.778698 
L 442.800547 144.289786 
L 444.497112 147.127284 
L 446.193676 141.037131 
L 447.89024 147.588886 
L 449.586804 145.660796 
L 451.283369 145.176699 
L 452.979933 144.336324 
L 454.676497 148.560023 
L 456.373062 148.041172 
L 458.069626 146.225411 
L 459.76619 149.339034 
L 461.462755 146.064885 
L 463.159319 145.545795 
L 464.855883 146.580318 
L 466.552448 145.342435 
L 468.249012 143.43168 
L 469.945576 145.390455 
L 471.64214 141.37685 
L 473.338705 143.817746 
L 475.035269 136.794248 
L 476.731833 133.705086 
L 478.428398 134.715324 
L 480.124962 137.430167 
L 481.821526 141.070845 
L 483.518091 128.415352 
L 485.214655 137.508091 
L 486.911219 129.542876 
L 488.607784 134.11007 
L 490.304348 136.949161 
L 492.000912 138.812779 
L 493.697476 138.389903 
L 495.394041 142.354085 
L 497.090605 142.718461 
L 498.787169 146.536445 
L 500.483734 148.940428 
L 502.180298 142.252783 
L 503.876862 144.644482 
L 505.573427 145.379596 
L 508.966555 146.278315 
L 512.359684 144.863462 
L 514.056248 145.957474 
L 515.752812 149.79435 
L 517.449377 143.251687 
L 519.145941 141.725963 
L 520.842505 145.201995 
L 522.53907 142.81464 
L 524.235634 144.140848 
L 525.932198 143.458659 
L 529.325327 130.645549 
L 531.021891 129.565287 
L 532.718455 132.853648 
L 534.41502 131.638303 
L 536.111584 143.871449 
L 537.808148 136.715432 
L 539.504713 141.202587 
L 541.201277 137.257213 
L 542.897841 142.201266 
L 544.594406 138.313516 
L 546.29097 139.76652 
L 547.987534 144.12612 
L 549.684099 146.654172 
L 551.380663 148.009797 
L 553.077227 146.676305 
L 554.773791 143.178038 
L 558.16692 150.363447 
L 559.863484 146.442814 
L 561.560049 144.574079 
L 563.256613 147.370718 
L 564.953177 148.517418 
L 566.649742 147.355583 
L 568.346306 146.45655 
L 570.04287 144.281525 
L 571.739434 144.337332 
L 573.435999 140.817381 
L 575.132563 148.101771 
L 576.829127 139.932827 
L 578.525692 143.396487 
L 580.222256 137.948819 
L 581.91882 136.310363 
L 583.615385 136.429986 
L 585.311949 138.544169 
L 587.008513 138.739421 
L 588.705078 136.883723 
L 590.401642 133.961389 
L 592.098206 135.414967 
L 593.79477 134.507546 
L 595.491335 135.126102 
L 597.187899 137.208331 
L 598.884463 131.049857 
L 600.581028 129.379172 
L 602.277592 134.41867 
L 603.974156 140.034482 
L 605.670721 144.762151 
L 609.063849 137.857778 
L 610.760413 140.600365 
L 612.456978 141.401359 
L 614.153542 141.761109 
L 615.850106 138.232662 
L 617.546671 136.763449 
L 619.243235 139.090163 
L 620.939799 148.140495 
L 622.636364 143.550381 
L 622.636364 143.550381 
" clip-path="url(#p0e360414f7)" style="fill: none; stroke: #d62728; stroke-width: 1.5; stroke-linecap: square"/>
   </g>
   <g id="patch_3">
    <path d="M 90 320.4 
L 90 43.2 
" style="fill: none; stroke: #000000; stroke-width: 0.8; stroke-linejoin: miter; stroke-linecap: square"/>
   </g>
   <g id="patch_4">
    <path d="M 648 320.4 
L 648 43.2 
" style="fill: none; stroke: #000000; stroke-width: 0.8; stroke-linejoin: miter; stroke-linecap: square"/>
   </g>
   <g id="patch_5">
    <path d="M 90 320.4 
L 648 320.4 
" style="fill: none; stroke: #000000; stroke-width: 0.8; stroke-linejoin: miter; stroke-linecap: square"/>
   </g>
   <g id="patch_6">
    <path d="M 90 43.2 
L 648 43.2 
" style="fill: none; stroke: #000000; stroke-width: 0.8; stroke-linejoin: miter; stroke-linecap: square"/>
   </g>
   <g id="text_14">
    <!-- Training and Validating Estimation Loss -->
    <g transform="translate(251.535937 37.2) scale(0.12 -0.12)">
     <defs>
      <path id="DejaVuSans-54" d="M -19 4666 
L 3928 4666 
L 3928 4134 
L 2272 4134 
L 2272 0 
L 1638 0 
L 1638 4134 
L -19 4134 
L -19 4666 
z
" transform="scale(0.015625)"/>
      <path id="DejaVuSans-72" d="M 2631 2963 
Q 2534 3019 2420 3045 
Q 2306 3072 2169 3072 
Q 1681 3072 1420 2755 
Q 1159 2438 1159 1844 
L 1159 0 
L 581 0 
L 581 3500 
L 1159 3500 
L 1159 2956 
Q 1341 3275 1631 3429 
Q 1922 3584 2338 3584 
Q 2397 3584 2469 3576 
Q 2541 3569 2628 3553 
L 2631 2963 
z
" transform="scale(0.015625)"/>
      <path id="DejaVuSans-67" d="M 2906 1791 
Q 2906 2416 2648 2759 
Q 2391 3103 1925 3103 
Q 1463 3103 1205 2759 
Q 947 2416 947 1791 
Q 947 1169 1205 825 
Q 1463 481 1925 481 
Q 2391 481 2648 825 
Q 2906 1169 2906 1791 
z
M 3481 434 
Q 3481 -459 3084 -895 
Q 2688 -1331 1869 -1331 
Q 1566 -1331 1297 -1286 
Q 1028 -1241 775 -1147 
L 775 -588 
Q 1028 -725 1275 -790 
Q 1522 -856 1778 -856 
Q 2344 -856 2625 -561 
Q 2906 -266 2906 331 
L 2906 616 
Q 2728 306 2450 153 
Q 2172 0 1784 0 
Q 1141 0 747 490 
Q 353 981 353 1791 
Q 353 2603 747 3093 
Q 1141 3584 1784 3584 
Q 2172 3584 2450 3431 
Q 2728 3278 2906 2969 
L 2906 3500 
L 3481 3500 
L 3481 434 
z
" transform="scale(0.015625)"/>
      <path id="DejaVuSans-64" d="M 2906 2969 
L 2906 4863 
L 3481 4863 
L 3481 0 
L 2906 0 
L 2906 525 
Q 2725 213 2448 61 
Q 2172 -91 1784 -91 
Q 1150 -91 751 415 
Q 353 922 353 1747 
Q 353 2572 751 3078 
Q 1150 3584 1784 3584 
Q 2172 3584 2448 3432 
Q 2725 3281 2906 2969 
z
M 947 1747 
Q 947 1113 1208 752 
Q 1469 391 1925 391 
Q 2381 391 2643 752 
Q 2906 1113 2906 1747 
Q 2906 2381 2643 2742 
Q 2381 3103 1925 3103 
Q 1469 3103 1208 2742 
Q 947 2381 947 1747 
z
" transform="scale(0.015625)"/>
      <path id="DejaVuSans-56" d="M 1831 0 
L 50 4666 
L 709 4666 
L 2188 738 
L 3669 4666 
L 4325 4666 
L 2547 0 
L 1831 0 
z
" transform="scale(0.015625)"/>
      <path id="DejaVuSans-6c" d="M 603 4863 
L 1178 4863 
L 1178 0 
L 603 0 
L 603 4863 
z
" transform="scale(0.015625)"/>
     </defs>
     <use xlink:href="#DejaVuSans-54"/>
     <use xlink:href="#DejaVuSans-72" transform="translate(46.333984 0)"/>
     <use xlink:href="#DejaVuSans-61" transform="translate(87.447266 0)"/>
     <use xlink:href="#DejaVuSans-69" transform="translate(148.726562 0)"/>
     <use xlink:href="#DejaVuSans-6e" transform="translate(176.509766 0)"/>
     <use xlink:href="#DejaVuSans-69" transform="translate(239.888672 0)"/>
     <use xlink:href="#DejaVuSans-6e" transform="translate(267.671875 0)"/>
     <use xlink:href="#DejaVuSans-67" transform="translate(331.050781 0)"/>
     <use xlink:href="#DejaVuSans-20" transform="translate(394.527344 0)"/>
     <use xlink:href="#DejaVuSans-61" transform="translate(426.314453 0)"/>
     <use xlink:href="#DejaVuSans-6e" transform="translate(487.59375 0)"/>
     <use xlink:href="#DejaVuSans-64" transform="translate(550.972656 0)"/>
     <use xlink:href="#DejaVuSans-20" transform="translate(614.449219 0)"/>
     <use xlink:href="#DejaVuSans-56" transform="translate(646.236328 0)"/>
     <use xlink:href="#DejaVuSans-61" transform="translate(706.894531 0)"/>
     <use xlink:href="#DejaVuSans-6c" transform="translate(768.173828 0)"/>
     <use xlink:href="#DejaVuSans-69" transform="translate(795.957031 0)"/>
     <use xlink:href="#DejaVuSans-64" transform="translate(823.740234 0)"/>
     <use xlink:href="#DejaVuSans-61" transform="translate(887.216797 0)"/>
     <use xlink:href="#DejaVuSans-74" transform="translate(948.496094 0)"/>
     <use xlink:href="#DejaVuSans-69" transform="translate(987.705078 0)"/>
     <use xlink:href="#DejaVuSans-6e" transform="translate(1015.488281 0)"/>
     <use xlink:href="#DejaVuSans-67" transform="translate(1078.867188 0)"/>
     <use xlink:href="#DejaVuSans-20" transform="translate(1142.34375 0)"/>
     <use xlink:href="#DejaVuSans-45" transform="translate(1174.130859 0)"/>
     <use xlink:href="#DejaVuSans-73" transform="translate(1237.314453 0)"/>
     <use xlink:href="#DejaVuSans-74" transform="translate(1289.414062 0)"/>
     <use xlink:href="#DejaVuSans-69" transform="translate(1328.623047 0)"/>
     <use xlink:href="#DejaVuSans-6d" transform="translate(1356.40625 0)"/>
     <use xlink:href="#DejaVuSans-61" transform="translate(1453.818359 0)"/>
     <use xlink:href="#DejaVuSans-74" transform="translate(1515.097656 0)"/>
     <use xlink:href="#DejaVuSans-69" transform="translate(1554.306641 0)"/>
     <use xlink:href="#DejaVuSans-6f" transform="translate(1582.089844 0)"/>
     <use xlink:href="#DejaVuSans-6e" transform="translate(1643.271484 0)"/>
     <use xlink:href="#DejaVuSans-20" transform="translate(1706.650391 0)"/>
     <use xlink:href="#DejaVuSans-4c" transform="translate(1738.4375 0)"/>
     <use xlink:href="#DejaVuSans-6f" transform="translate(1792.400391 0)"/>
     <use xlink:href="#DejaVuSans-73" transform="translate(1853.582031 0)"/>
     <use xlink:href="#DejaVuSans-73" transform="translate(1905.681641 0)"/>
    </g>
   </g>
   <g id="legend_1">
    <g id="patch_7">
     <path d="M 521.439062 109.9125 
L 641 109.9125 
Q 643 109.9125 643 107.9125 
L 643 50.2 
Q 643 48.2 641 48.2 
L 521.439062 48.2 
Q 519.439062 48.2 519.439062 50.2 
L 519.439062 107.9125 
Q 519.439062 109.9125 521.439062 109.9125 
z
" style="fill: #ffffff; opacity: 0.8; stroke: #cccccc; stroke-linejoin: miter"/>
    </g>
    <g id="line2d_16">
     <path d="M 523.439062 56.298437 
L 533.439062 56.298437 
L 543.439062 56.298437 
" style="fill: none; stroke: #1f77b4; stroke-width: 1.5; stroke-linecap: square"/>
    </g>
    <g id="text_15">
     <!-- Training-Source -->
     <g transform="translate(551.439062 59.798437) scale(0.1 -0.1)">
      <defs>
       <path id="DejaVuSans-2d" d="M 313 2009 
L 1997 2009 
L 1997 1497 
L 313 1497 
L 313 2009 
z
" transform="scale(0.015625)"/>
       <path id="DejaVuSans-53" d="M 3425 4513 
L 3425 3897 
Q 3066 4069 2747 4153 
Q 2428 4238 2131 4238 
Q 1616 4238 1336 4038 
Q 1056 3838 1056 3469 
Q 1056 3159 1242 3001 
Q 1428 2844 1947 2747 
L 2328 2669 
Q 3034 2534 3370 2195 
Q 3706 1856 3706 1288 
Q 3706 609 3251 259 
Q 2797 -91 1919 -91 
Q 1588 -91 1214 -16 
Q 841 59 441 206 
L 441 856 
Q 825 641 1194 531 
Q 1563 422 1919 422 
Q 2459 422 2753 634 
Q 3047 847 3047 1241 
Q 3047 1584 2836 1778 
Q 2625 1972 2144 2069 
L 1759 2144 
Q 1053 2284 737 2584 
Q 422 2884 422 3419 
Q 422 4038 858 4394 
Q 1294 4750 2059 4750 
Q 2388 4750 2728 4690 
Q 3069 4631 3425 4513 
z
" transform="scale(0.015625)"/>
       <path id="DejaVuSans-75" d="M 544 1381 
L 544 3500 
L 1119 3500 
L 1119 1403 
Q 1119 906 1312 657 
Q 1506 409 1894 409 
Q 2359 409 2629 706 
Q 2900 1003 2900 1516 
L 2900 3500 
L 3475 3500 
L 3475 0 
L 2900 0 
L 2900 538 
Q 2691 219 2414 64 
Q 2138 -91 1772 -91 
Q 1169 -91 856 284 
Q 544 659 544 1381 
z
M 1991 3584 
L 1991 3584 
z
" transform="scale(0.015625)"/>
       <path id="DejaVuSans-65" d="M 3597 1894 
L 3597 1613 
L 953 1613 
Q 991 1019 1311 708 
Q 1631 397 2203 397 
Q 2534 397 2845 478 
Q 3156 559 3463 722 
L 3463 178 
Q 3153 47 2828 -22 
Q 2503 -91 2169 -91 
Q 1331 -91 842 396 
Q 353 884 353 1716 
Q 353 2575 817 3079 
Q 1281 3584 2069 3584 
Q 2775 3584 3186 3129 
Q 3597 2675 3597 1894 
z
M 3022 2063 
Q 3016 2534 2758 2815 
Q 2500 3097 2075 3097 
Q 1594 3097 1305 2825 
Q 1016 2553 972 2059 
L 3022 2063 
z
" transform="scale(0.015625)"/>
      </defs>
      <use xlink:href="#DejaVuSans-54"/>
      <use xlink:href="#DejaVuSans-72" transform="translate(46.333984 0)"/>
      <use xlink:href="#DejaVuSans-61" transform="translate(87.447266 0)"/>
      <use xlink:href="#DejaVuSans-69" transform="translate(148.726562 0)"/>
      <use xlink:href="#DejaVuSans-6e" transform="translate(176.509766 0)"/>
      <use xlink:href="#DejaVuSans-69" transform="translate(239.888672 0)"/>
      <use xlink:href="#DejaVuSans-6e" transform="translate(267.671875 0)"/>
      <use xlink:href="#DejaVuSans-67" transform="translate(331.050781 0)"/>
      <use xlink:href="#DejaVuSans-2d" transform="translate(394.527344 0)"/>
      <use xlink:href="#DejaVuSans-53" transform="translate(430.611328 0)"/>
      <use xlink:href="#DejaVuSans-6f" transform="translate(494.087891 0)"/>
      <use xlink:href="#DejaVuSans-75" transform="translate(555.269531 0)"/>
      <use xlink:href="#DejaVuSans-72" transform="translate(618.648438 0)"/>
      <use xlink:href="#DejaVuSans-63" transform="translate(657.511719 0)"/>
      <use xlink:href="#DejaVuSans-65" transform="translate(712.492188 0)"/>
     </g>
    </g>
    <g id="line2d_17">
     <path d="M 523.439062 70.976562 
L 533.439062 70.976562 
L 543.439062 70.976562 
" style="fill: none; stroke: #ff7f0e; stroke-width: 1.5; stroke-linecap: square"/>
    </g>
    <g id="text_16">
     <!-- Training-Target -->
     <g transform="translate(551.439062 74.476562) scale(0.1 -0.1)">
      <use xlink:href="#DejaVuSans-54"/>
      <use xlink:href="#DejaVuSans-72" transform="translate(46.333984 0)"/>
      <use xlink:href="#DejaVuSans-61" transform="translate(87.447266 0)"/>
      <use xlink:href="#DejaVuSans-69" transform="translate(148.726562 0)"/>
      <use xlink:href="#DejaVuSans-6e" transform="translate(176.509766 0)"/>
      <use xlink:href="#DejaVuSans-69" transform="translate(239.888672 0)"/>
      <use xlink:href="#DejaVuSans-6e" transform="translate(267.671875 0)"/>
      <use xlink:href="#DejaVuSans-67" transform="translate(331.050781 0)"/>
      <use xlink:href="#DejaVuSans-2d" transform="translate(394.527344 0)"/>
      <use xlink:href="#DejaVuSans-54" transform="translate(421.486328 0)"/>
      <use xlink:href="#DejaVuSans-61" transform="translate(466.070312 0)"/>
      <use xlink:href="#DejaVuSans-72" transform="translate(527.349609 0)"/>
      <use xlink:href="#DejaVuSans-67" transform="translate(566.712891 0)"/>
      <use xlink:href="#DejaVuSans-65" transform="translate(630.189453 0)"/>
      <use xlink:href="#DejaVuSans-74" transform="translate(691.712891 0)"/>
     </g>
    </g>
    <g id="line2d_18">
     <path d="M 523.439062 85.654687 
L 533.439062 85.654687 
L 543.439062 85.654687 
" style="fill: none; stroke: #2ca02c; stroke-width: 1.5; stroke-linecap: square"/>
    </g>
    <g id="text_17">
     <!-- Validating-Source -->
     <g transform="translate(551.439062 89.154687) scale(0.1 -0.1)">
      <use xlink:href="#DejaVuSans-56"/>
      <use xlink:href="#DejaVuSans-61" transform="translate(60.658203 0)"/>
      <use xlink:href="#DejaVuSans-6c" transform="translate(121.9375 0)"/>
      <use xlink:href="#DejaVuSans-69" transform="translate(149.720703 0)"/>
      <use xlink:href="#DejaVuSans-64" transform="translate(177.503906 0)"/>
      <use xlink:href="#DejaVuSans-61" transform="translate(240.980469 0)"/>
      <use xlink:href="#DejaVuSans-74" transform="translate(302.259766 0)"/>
      <use xlink:href="#DejaVuSans-69" transform="translate(341.46875 0)"/>
      <use xlink:href="#DejaVuSans-6e" transform="translate(369.251953 0)"/>
      <use xlink:href="#DejaVuSans-67" transform="translate(432.630859 0)"/>
      <use xlink:href="#DejaVuSans-2d" transform="translate(496.107422 0)"/>
      <use xlink:href="#DejaVuSans-53" transform="translate(532.191406 0)"/>
      <use xlink:href="#DejaVuSans-6f" transform="translate(595.667969 0)"/>
      <use xlink:href="#DejaVuSans-75" transform="translate(656.849609 0)"/>
      <use xlink:href="#DejaVuSans-72" transform="translate(720.228516 0)"/>
      <use xlink:href="#DejaVuSans-63" transform="translate(759.091797 0)"/>
      <use xlink:href="#DejaVuSans-65" transform="translate(814.072266 0)"/>
     </g>
    </g>
    <g id="line2d_19">
     <path d="M 523.439062 100.332812 
L 533.439062 100.332812 
L 543.439062 100.332812 
" style="fill: none; stroke: #d62728; stroke-width: 1.5; stroke-linecap: square"/>
    </g>
    <g id="text_18">
     <!-- Validating-Target -->
     <g transform="translate(551.439062 103.832812) scale(0.1 -0.1)">
      <use xlink:href="#DejaVuSans-56"/>
      <use xlink:href="#DejaVuSans-61" transform="translate(60.658203 0)"/>
      <use xlink:href="#DejaVuSans-6c" transform="translate(121.9375 0)"/>
      <use xlink:href="#DejaVuSans-69" transform="translate(149.720703 0)"/>
      <use xlink:href="#DejaVuSans-64" transform="translate(177.503906 0)"/>
      <use xlink:href="#DejaVuSans-61" transform="translate(240.980469 0)"/>
      <use xlink:href="#DejaVuSans-74" transform="translate(302.259766 0)"/>
      <use xlink:href="#DejaVuSans-69" transform="translate(341.46875 0)"/>
      <use xlink:href="#DejaVuSans-6e" transform="translate(369.251953 0)"/>
      <use xlink:href="#DejaVuSans-67" transform="translate(432.630859 0)"/>
      <use xlink:href="#DejaVuSans-2d" transform="translate(496.107422 0)"/>
      <use xlink:href="#DejaVuSans-54" transform="translate(523.066406 0)"/>
      <use xlink:href="#DejaVuSans-61" transform="translate(567.650391 0)"/>
      <use xlink:href="#DejaVuSans-72" transform="translate(628.929688 0)"/>
      <use xlink:href="#DejaVuSans-67" transform="translate(668.292969 0)"/>
      <use xlink:href="#DejaVuSans-65" transform="translate(731.769531 0)"/>
      <use xlink:href="#DejaVuSans-74" transform="translate(793.292969 0)"/>
     </g>
    </g>
   </g>
  </g>
 </g>
 <defs>
  <clipPath id="p0e360414f7">
   <rect x="90" y="43.2" width="558" height="277.2"/>
  </clipPath>
 </defs>
</svg>
