<?xml version="1.0" encoding="utf-8" standalone="no"?>
<!DOCTYPE svg PUBLIC "-//W3C//DTD SVG 1.1//EN"
  "http://www.w3.org/Graphics/SVG/1.1/DTD/svg11.dtd">
<svg xmlns:xlink="http://www.w3.org/1999/xlink" width="720pt" height="360pt" viewBox="0 0 720 360" xmlns="http://www.w3.org/2000/svg" version="1.1">
 <metadata>
  <rdf:RDF xmlns:dc="http://purl.org/dc/elements/1.1/" xmlns:cc="http://creativecommons.org/ns#" xmlns:rdf="http://www.w3.org/1999/02/22-rdf-syntax-ns#">
   <cc:Work>
    <dc:type rdf:resource="http://purl.org/dc/dcmitype/StillImage"/>
    <dc:date>2026-01-30T15:25:04.832582</dc:date>
    <dc:format>image/svg+xml</dc:format>
    <dc:creator>
     <cc:Agent>
      <dc:title>Matplotlib v3.10.1, https://matplotlib.org/</dc:title>
     </cc:Agent>
    </dc:creator>
   </cc:Work>
  </rdf:RDF>
 </metadata>
 <defs>
  <style type="text/css">*{stroke-linejoin: round; stroke-linecap: butt}</style>
 </defs>
 <g id="figure_1">
  <g id="patch_1">
   <path d="M 0 360 
L 720 360 
L 720 0 
L 0 0 
z
" style="fill: #ffffff"/>
  </g>
  <g id="axes_1">
   <g id="patch_2">
    <path d="M 90 320.4 
L 648 320.4 
L 648 43.2 
L 90 43.2 
z
" style="fill: #ffffff"/>
   </g>
   <g id="matplotlib.axis_1">
    <g id="xtick_1">
     <g id="line2d_1">
      <defs>
       <path id="m16e9d0d34d" d="M 0 0 
L 0 3.5 
" style="stroke: #000000; stroke-width: 0.8"/>
      </defs>
      <g>
       <use xlink:href="#m16e9d0d34d" x="115.363636" y="320.4" style="stroke: #000000; stroke-width: 0.8"/>
      </g>
     </g>
     <g id="text_1">
      <!-- 0 -->
      <g transform="translate(112.182386 334.998438) scale(0.1 -0.1)">
       <defs>
        <path id="DejaVuSans-30" d="M 2034 4250 
Q 1547 4250 1301 3770 
Q 1056 3291 1056 2328 
Q 1056 1369 1301 889 
Q 1547 409 2034 409 
Q 2525 409 2770 889 
Q 3016 1369 3016 2328 
Q 3016 3291 2770 3770 
Q 2525 4250 2034 4250 
z
M 2034 4750 
Q 2819 4750 3233 4129 
Q 3647 3509 3647 2328 
Q 3647 1150 3233 529 
Q 2819 -91 2034 -91 
Q 1250 -91 836 529 
Q 422 1150 422 2328 
Q 422 3509 836 4129 
Q 1250 4750 2034 4750 
z
" transform="scale(0.015625)"/>
       </defs>
       <use xlink:href="#DejaVuSans-30"/>
      </g>
     </g>
    </g>
    <g id="xtick_2">
     <g id="line2d_2">
      <g>
       <use xlink:href="#m16e9d0d34d" x="217.195336" y="320.4" style="stroke: #000000; stroke-width: 0.8"/>
      </g>
     </g>
     <g id="text_2">
      <!-- 54 -->
      <g transform="translate(210.832836 334.998438) scale(0.1 -0.1)">
       <defs>
        <path id="DejaVuSans-35" d="M 691 4666 
L 3169 4666 
L 3169 4134 
L 1269 4134 
L 1269 2991 
Q 1406 3038 1543 3061 
Q 1681 3084 1819 3084 
Q 2600 3084 3056 2656 
Q 3513 2228 3513 1497 
Q 3513 744 3044 326 
Q 2575 -91 1722 -91 
Q 1428 -91 1123 -41 
Q 819 9 494 109 
L 494 744 
Q 775 591 1075 516 
Q 1375 441 1709 441 
Q 2250 441 2565 725 
Q 2881 1009 2881 1497 
Q 2881 1984 2565 2268 
Q 2250 2553 1709 2553 
Q 1456 2553 1204 2497 
Q 953 2441 691 2322 
L 691 4666 
z
" transform="scale(0.015625)"/>
        <path id="DejaVuSans-34" d="M 2419 4116 
L 825 1625 
L 2419 1625 
L 2419 4116 
z
M 2253 4666 
L 3047 4666 
L 3047 1625 
L 3713 1625 
L 3713 1100 
L 3047 1100 
L 3047 0 
L 2419 0 
L 2419 1100 
L 313 1100 
L 313 1709 
L 2253 4666 
z
" transform="scale(0.015625)"/>
       </defs>
       <use xlink:href="#DejaVuSans-35"/>
       <use xlink:href="#DejaVuSans-34" transform="translate(63.623047 0)"/>
      </g>
     </g>
    </g>
    <g id="xtick_3">
     <g id="line2d_3">
      <g>
       <use xlink:href="#m16e9d0d34d" x="319.027036" y="320.4" style="stroke: #000000; stroke-width: 0.8"/>
      </g>
     </g>
     <g id="text_3">
      <!-- 108 -->
      <g transform="translate(309.483286 334.998438) scale(0.1 -0.1)">
       <defs>
        <path id="DejaVuSans-31" d="M 794 531 
L 1825 531 
L 1825 4091 
L 703 3866 
L 703 4441 
L 1819 4666 
L 2450 4666 
L 2450 531 
L 3481 531 
L 3481 0 
L 794 0 
L 794 531 
z
" transform="scale(0.015625)"/>
        <path id="DejaVuSans-38" d="M 2034 2216 
Q 1584 2216 1326 1975 
Q 1069 1734 1069 1313 
Q 1069 891 1326 650 
Q 1584 409 2034 409 
Q 2484 409 2743 651 
Q 3003 894 3003 1313 
Q 3003 1734 2745 1975 
Q 2488 2216 2034 2216 
z
M 1403 2484 
Q 997 2584 770 2862 
Q 544 3141 544 3541 
Q 544 4100 942 4425 
Q 1341 4750 2034 4750 
Q 2731 4750 3128 4425 
Q 3525 4100 3525 3541 
Q 3525 3141 3298 2862 
Q 3072 2584 2669 2484 
Q 3125 2378 3379 2068 
Q 3634 1759 3634 1313 
Q 3634 634 3220 271 
Q 2806 -91 2034 -91 
Q 1263 -91 848 271 
Q 434 634 434 1313 
Q 434 1759 690 2068 
Q 947 2378 1403 2484 
z
M 1172 3481 
Q 1172 3119 1398 2916 
Q 1625 2713 2034 2713 
Q 2441 2713 2670 2916 
Q 2900 3119 2900 3481 
Q 2900 3844 2670 4047 
Q 2441 4250 2034 4250 
Q 1625 4250 1398 4047 
Q 1172 3844 1172 3481 
z
" transform="scale(0.015625)"/>
       </defs>
       <use xlink:href="#DejaVuSans-31"/>
       <use xlink:href="#DejaVuSans-30" transform="translate(63.623047 0)"/>
       <use xlink:href="#DejaVuSans-38" transform="translate(127.246094 0)"/>
      </g>
     </g>
    </g>
    <g id="xtick_4">
     <g id="line2d_4">
      <g>
       <use xlink:href="#m16e9d0d34d" x="420.858736" y="320.4" style="stroke: #000000; stroke-width: 0.8"/>
      </g>
     </g>
     <g id="text_4">
      <!-- 162 -->
      <g transform="translate(411.314986 334.998438) scale(0.1 -0.1)">
       <defs>
        <path id="DejaVuSans-36" d="M 2113 2584 
Q 1688 2584 1439 2293 
Q 1191 2003 1191 1497 
Q 1191 994 1439 701 
Q 1688 409 2113 409 
Q 2538 409 2786 701 
Q 3034 994 3034 1497 
Q 3034 2003 2786 2293 
Q 2538 2584 2113 2584 
z
M 3366 4563 
L 3366 3988 
Q 3128 4100 2886 4159 
Q 2644 4219 2406 4219 
Q 1781 4219 1451 3797 
Q 1122 3375 1075 2522 
Q 1259 2794 1537 2939 
Q 1816 3084 2150 3084 
Q 2853 3084 3261 2657 
Q 3669 2231 3669 1497 
Q 3669 778 3244 343 
Q 2819 -91 2113 -91 
Q 1303 -91 875 529 
Q 447 1150 447 2328 
Q 447 3434 972 4092 
Q 1497 4750 2381 4750 
Q 2619 4750 2861 4703 
Q 3103 4656 3366 4563 
z
" transform="scale(0.015625)"/>
        <path id="DejaVuSans-32" d="M 1228 531 
L 3431 531 
L 3431 0 
L 469 0 
L 469 531 
Q 828 903 1448 1529 
Q 2069 2156 2228 2338 
Q 2531 2678 2651 2914 
Q 2772 3150 2772 3378 
Q 2772 3750 2511 3984 
Q 2250 4219 1831 4219 
Q 1534 4219 1204 4116 
Q 875 4013 500 3803 
L 500 4441 
Q 881 4594 1212 4672 
Q 1544 4750 1819 4750 
Q 2544 4750 2975 4387 
Q 3406 4025 3406 3419 
Q 3406 3131 3298 2873 
Q 3191 2616 2906 2266 
Q 2828 2175 2409 1742 
Q 1991 1309 1228 531 
z
" transform="scale(0.015625)"/>
       </defs>
       <use xlink:href="#DejaVuSans-31"/>
       <use xlink:href="#DejaVuSans-36" transform="translate(63.623047 0)"/>
       <use xlink:href="#DejaVuSans-32" transform="translate(127.246094 0)"/>
      </g>
     </g>
    </g>
    <g id="xtick_5">
     <g id="line2d_5">
      <g>
       <use xlink:href="#m16e9d0d34d" x="522.690436" y="320.4" style="stroke: #000000; stroke-width: 0.8"/>
      </g>
     </g>
     <g id="text_5">
      <!-- 216 -->
      <g transform="translate(513.146686 334.998438) scale(0.1 -0.1)">
       <use xlink:href="#DejaVuSans-32"/>
       <use xlink:href="#DejaVuSans-31" transform="translate(63.623047 0)"/>
       <use xlink:href="#DejaVuSans-36" transform="translate(127.246094 0)"/>
      </g>
     </g>
    </g>
    <g id="text_6">
     <!-- Epoch -->
     <g transform="translate(353.689062 348.676562) scale(0.1 -0.1)">
      <defs>
       <path id="DejaVuSans-45" d="M 628 4666 
L 3578 4666 
L 3578 4134 
L 1259 4134 
L 1259 2753 
L 3481 2753 
L 3481 2222 
L 1259 2222 
L 1259 531 
L 3634 531 
L 3634 0 
L 628 0 
L 628 4666 
z
" transform="scale(0.015625)"/>
       <path id="DejaVuSans-70" d="M 1159 525 
L 1159 -1331 
L 581 -1331 
L 581 3500 
L 1159 3500 
L 1159 2969 
Q 1341 3281 1617 3432 
Q 1894 3584 2278 3584 
Q 2916 3584 3314 3078 
Q 3713 2572 3713 1747 
Q 3713 922 3314 415 
Q 2916 -91 2278 -91 
Q 1894 -91 1617 61 
Q 1341 213 1159 525 
z
M 3116 1747 
Q 3116 2381 2855 2742 
Q 2594 3103 2138 3103 
Q 1681 3103 1420 2742 
Q 1159 2381 1159 1747 
Q 1159 1113 1420 752 
Q 1681 391 2138 391 
Q 2594 391 2855 752 
Q 3116 1113 3116 1747 
z
" transform="scale(0.015625)"/>
       <path id="DejaVuSans-6f" d="M 1959 3097 
Q 1497 3097 1228 2736 
Q 959 2375 959 1747 
Q 959 1119 1226 758 
Q 1494 397 1959 397 
Q 2419 397 2687 759 
Q 2956 1122 2956 1747 
Q 2956 2369 2687 2733 
Q 2419 3097 1959 3097 
z
M 1959 3584 
Q 2709 3584 3137 3096 
Q 3566 2609 3566 1747 
Q 3566 888 3137 398 
Q 2709 -91 1959 -91 
Q 1206 -91 779 398 
Q 353 888 353 1747 
Q 353 2609 779 3096 
Q 1206 3584 1959 3584 
z
" transform="scale(0.015625)"/>
       <path id="DejaVuSans-63" d="M 3122 3366 
L 3122 2828 
Q 2878 2963 2633 3030 
Q 2388 3097 2138 3097 
Q 1578 3097 1268 2742 
Q 959 2388 959 1747 
Q 959 1106 1268 751 
Q 1578 397 2138 397 
Q 2388 397 2633 464 
Q 2878 531 3122 666 
L 3122 134 
Q 2881 22 2623 -34 
Q 2366 -91 2075 -91 
Q 1284 -91 818 406 
Q 353 903 353 1747 
Q 353 2603 823 3093 
Q 1294 3584 2113 3584 
Q 2378 3584 2631 3529 
Q 2884 3475 3122 3366 
z
" transform="scale(0.015625)"/>
       <path id="DejaVuSans-68" d="M 3513 2113 
L 3513 0 
L 2938 0 
L 2938 2094 
Q 2938 2591 2744 2837 
Q 2550 3084 2163 3084 
Q 1697 3084 1428 2787 
Q 1159 2491 1159 1978 
L 1159 0 
L 581 0 
L 581 4863 
L 1159 4863 
L 1159 2956 
Q 1366 3272 1645 3428 
Q 1925 3584 2291 3584 
Q 2894 3584 3203 3211 
Q 3513 2838 3513 2113 
z
" transform="scale(0.015625)"/>
      </defs>
      <use xlink:href="#DejaVuSans-45"/>
      <use xlink:href="#DejaVuSans-70" transform="translate(63.183594 0)"/>
      <use xlink:href="#DejaVuSans-6f" transform="translate(126.660156 0)"/>
      <use xlink:href="#DejaVuSans-63" transform="translate(187.841797 0)"/>
      <use xlink:href="#DejaVuSans-68" transform="translate(242.822266 0)"/>
     </g>
    </g>
   </g>
   <g id="matplotlib.axis_2">
    <g id="ytick_1">
     <g id="line2d_6">
      <defs>
       <path id="m14623fe012" d="M 0 0 
L -3.5 0 
" style="stroke: #000000; stroke-width: 0.8"/>
      </defs>
      <g>
       <use xlink:href="#m14623fe012" x="90" y="308.38094" style="stroke: #000000; stroke-width: 0.8"/>
      </g>
     </g>
     <g id="text_7">
      <!-- 0.0 -->
      <g transform="translate(67.096875 312.180159) scale(0.1 -0.1)">
       <defs>
        <path id="DejaVuSans-2e" d="M 684 794 
L 1344 794 
L 1344 0 
L 684 0 
L 684 794 
z
" transform="scale(0.015625)"/>
       </defs>
       <use xlink:href="#DejaVuSans-30"/>
       <use xlink:href="#DejaVuSans-2e" transform="translate(63.623047 0)"/>
       <use xlink:href="#DejaVuSans-30" transform="translate(95.410156 0)"/>
      </g>
     </g>
    </g>
    <g id="ytick_2">
     <g id="line2d_7">
      <g>
       <use xlink:href="#m14623fe012" x="90" y="269.115704" style="stroke: #000000; stroke-width: 0.8"/>
      </g>
     </g>
     <g id="text_8">
      <!-- 0.5 -->
      <g transform="translate(67.096875 272.914923) scale(0.1 -0.1)">
       <use xlink:href="#DejaVuSans-30"/>
       <use xlink:href="#DejaVuSans-2e" transform="translate(63.623047 0)"/>
       <use xlink:href="#DejaVuSans-35" transform="translate(95.410156 0)"/>
      </g>
     </g>
    </g>
    <g id="ytick_3">
     <g id="line2d_8">
      <g>
       <use xlink:href="#m14623fe012" x="90" y="229.850468" style="stroke: #000000; stroke-width: 0.8"/>
      </g>
     </g>
     <g id="text_9">
      <!-- 1.0 -->
      <g transform="translate(67.096875 233.649687) scale(0.1 -0.1)">
       <use xlink:href="#DejaVuSans-31"/>
       <use xlink:href="#DejaVuSans-2e" transform="translate(63.623047 0)"/>
       <use xlink:href="#DejaVuSans-30" transform="translate(95.410156 0)"/>
      </g>
     </g>
    </g>
    <g id="ytick_4">
     <g id="line2d_9">
      <g>
       <use xlink:href="#m14623fe012" x="90" y="190.585232" style="stroke: #000000; stroke-width: 0.8"/>
      </g>
     </g>
     <g id="text_10">
      <!-- 1.5 -->
      <g transform="translate(67.096875 194.38445) scale(0.1 -0.1)">
       <use xlink:href="#DejaVuSans-31"/>
       <use xlink:href="#DejaVuSans-2e" transform="translate(63.623047 0)"/>
       <use xlink:href="#DejaVuSans-35" transform="translate(95.410156 0)"/>
      </g>
     </g>
    </g>
    <g id="ytick_5">
     <g id="line2d_10">
      <g>
       <use xlink:href="#m14623fe012" x="90" y="151.319996" style="stroke: #000000; stroke-width: 0.8"/>
      </g>
     </g>
     <g id="text_11">
      <!-- 2.0 -->
      <g transform="translate(67.096875 155.119214) scale(0.1 -0.1)">
       <use xlink:href="#DejaVuSans-32"/>
       <use xlink:href="#DejaVuSans-2e" transform="translate(63.623047 0)"/>
       <use xlink:href="#DejaVuSans-30" transform="translate(95.410156 0)"/>
      </g>
     </g>
    </g>
    <g id="ytick_6">
     <g id="line2d_11">
      <g>
       <use xlink:href="#m14623fe012" x="90" y="112.054759" style="stroke: #000000; stroke-width: 0.8"/>
      </g>
     </g>
     <g id="text_12">
      <!-- 2.5 -->
      <g transform="translate(67.096875 115.853978) scale(0.1 -0.1)">
       <use xlink:href="#DejaVuSans-32"/>
       <use xlink:href="#DejaVuSans-2e" transform="translate(63.623047 0)"/>
       <use xlink:href="#DejaVuSans-35" transform="translate(95.410156 0)"/>
      </g>
     </g>
    </g>
    <g id="ytick_7">
     <g id="line2d_12">
      <g>
       <use xlink:href="#m14623fe012" x="90" y="72.789523" style="stroke: #000000; stroke-width: 0.8"/>
      </g>
     </g>
     <g id="text_13">
      <!-- 3.0 -->
      <g transform="translate(67.096875 76.588742) scale(0.1 -0.1)">
       <defs>
        <path id="DejaVuSans-33" d="M 2597 2516 
Q 3050 2419 3304 2112 
Q 3559 1806 3559 1356 
Q 3559 666 3084 287 
Q 2609 -91 1734 -91 
Q 1441 -91 1130 -33 
Q 819 25 488 141 
L 488 750 
Q 750 597 1062 519 
Q 1375 441 1716 441 
Q 2309 441 2620 675 
Q 2931 909 2931 1356 
Q 2931 1769 2642 2001 
Q 2353 2234 1838 2234 
L 1294 2234 
L 1294 2753 
L 1863 2753 
Q 2328 2753 2575 2939 
Q 2822 3125 2822 3475 
Q 2822 3834 2567 4026 
Q 2313 4219 1838 4219 
Q 1578 4219 1281 4162 
Q 984 4106 628 3988 
L 628 4550 
Q 988 4650 1302 4700 
Q 1616 4750 1894 4750 
Q 2613 4750 3031 4423 
Q 3450 4097 3450 3541 
Q 3450 3153 3228 2886 
Q 3006 2619 2597 2516 
z
" transform="scale(0.015625)"/>
       </defs>
       <use xlink:href="#DejaVuSans-33"/>
       <use xlink:href="#DejaVuSans-2e" transform="translate(63.623047 0)"/>
       <use xlink:href="#DejaVuSans-30" transform="translate(95.410156 0)"/>
      </g>
     </g>
    </g>
    <g id="text_14">
     <!-- Total Loss -->
     <g transform="translate(61.017187 206.032812) rotate(-90) scale(0.1 -0.1)">
      <defs>
       <path id="DejaVuSans-54" d="M -19 4666 
L 3928 4666 
L 3928 4134 
L 2272 4134 
L 2272 0 
L 1638 0 
L 1638 4134 
L -19 4134 
L -19 4666 
z
" transform="scale(0.015625)"/>
       <path id="DejaVuSans-74" d="M 1172 4494 
L 1172 3500 
L 2356 3500 
L 2356 3053 
L 1172 3053 
L 1172 1153 
Q 1172 725 1289 603 
Q 1406 481 1766 481 
L 2356 481 
L 2356 0 
L 1766 0 
Q 1100 0 847 248 
Q 594 497 594 1153 
L 594 3053 
L 172 3053 
L 172 3500 
L 594 3500 
L 594 4494 
L 1172 4494 
z
" transform="scale(0.015625)"/>
       <path id="DejaVuSans-61" d="M 2194 1759 
Q 1497 1759 1228 1600 
Q 959 1441 959 1056 
Q 959 750 1161 570 
Q 1363 391 1709 391 
Q 2188 391 2477 730 
Q 2766 1069 2766 1631 
L 2766 1759 
L 2194 1759 
z
M 3341 1997 
L 3341 0 
L 2766 0 
L 2766 531 
Q 2569 213 2275 61 
Q 1981 -91 1556 -91 
Q 1019 -91 701 211 
Q 384 513 384 1019 
Q 384 1609 779 1909 
Q 1175 2209 1959 2209 
L 2766 2209 
L 2766 2266 
Q 2766 2663 2505 2880 
Q 2244 3097 1772 3097 
Q 1472 3097 1187 3025 
Q 903 2953 641 2809 
L 641 3341 
Q 956 3463 1253 3523 
Q 1550 3584 1831 3584 
Q 2591 3584 2966 3190 
Q 3341 2797 3341 1997 
z
" transform="scale(0.015625)"/>
       <path id="DejaVuSans-6c" d="M 603 4863 
L 1178 4863 
L 1178 0 
L 603 0 
L 603 4863 
z
" transform="scale(0.015625)"/>
       <path id="DejaVuSans-20" transform="scale(0.015625)"/>
       <path id="DejaVuSans-4c" d="M 628 4666 
L 1259 4666 
L 1259 531 
L 3531 531 
L 3531 0 
L 628 0 
L 628 4666 
z
" transform="scale(0.015625)"/>
       <path id="DejaVuSans-73" d="M 2834 3397 
L 2834 2853 
Q 2591 2978 2328 3040 
Q 2066 3103 1784 3103 
Q 1356 3103 1142 2972 
Q 928 2841 928 2578 
Q 928 2378 1081 2264 
Q 1234 2150 1697 2047 
L 1894 2003 
Q 2506 1872 2764 1633 
Q 3022 1394 3022 966 
Q 3022 478 2636 193 
Q 2250 -91 1575 -91 
Q 1294 -91 989 -36 
Q 684 19 347 128 
L 347 722 
Q 666 556 975 473 
Q 1284 391 1588 391 
Q 1994 391 2212 530 
Q 2431 669 2431 922 
Q 2431 1156 2273 1281 
Q 2116 1406 1581 1522 
L 1381 1569 
Q 847 1681 609 1914 
Q 372 2147 372 2553 
Q 372 3047 722 3315 
Q 1072 3584 1716 3584 
Q 2034 3584 2315 3537 
Q 2597 3491 2834 3397 
z
" transform="scale(0.015625)"/>
      </defs>
      <use xlink:href="#DejaVuSans-54"/>
      <use xlink:href="#DejaVuSans-6f" transform="translate(44.083984 0)"/>
      <use xlink:href="#DejaVuSans-74" transform="translate(105.265625 0)"/>
      <use xlink:href="#DejaVuSans-61" transform="translate(144.474609 0)"/>
      <use xlink:href="#DejaVuSans-6c" transform="translate(205.753906 0)"/>
      <use xlink:href="#DejaVuSans-20" transform="translate(233.537109 0)"/>
      <use xlink:href="#DejaVuSans-4c" transform="translate(265.324219 0)"/>
      <use xlink:href="#DejaVuSans-6f" transform="translate(319.287109 0)"/>
      <use xlink:href="#DejaVuSans-73" transform="translate(380.46875 0)"/>
      <use xlink:href="#DejaVuSans-73" transform="translate(432.568359 0)"/>
     </g>
    </g>
   </g>
   <g id="line2d_13">
    <path d="M 115.363636 307.799858 
L 134.221359 307.701957 
L 160.62217 307.413268 
L 170.051031 307.224286 
L 179.479892 306.951298 
L 190.794525 306.738292 
L 194.56607 306.649757 
L 200.223386 306.482377 
L 203.994931 306.383693 
L 211.53802 305.956488 
L 213.423792 306.035901 
L 219.081108 305.608123 
L 222.852653 305.489243 
L 224.738425 305.230708 
L 226.624197 305.416457 
L 232.281514 305.064646 
L 239.824603 304.7449 
L 241.710375 304.374411 
L 243.596147 304.184165 
L 245.48192 304.170116 
L 247.367692 304.343262 
L 249.253464 303.916951 
L 253.025008 303.534533 
L 256.796553 303.593085 
L 258.682325 303.086146 
L 260.568097 303.23335 
L 264.339642 303.219776 
L 266.225414 302.941252 
L 268.111186 302.497611 
L 269.996958 302.649138 
L 273.768503 302.637576 
L 275.654275 302.287308 
L 277.540047 302.254861 
L 279.42582 302.040837 
L 281.311592 302.162055 
L 285.083136 301.657229 
L 286.968908 301.632473 
L 288.854681 300.932821 
L 290.740453 301.522188 
L 292.626225 301.072027 
L 294.511997 301.112581 
L 302.055086 300.537064 
L 305.826631 300.358841 
L 307.712403 300.505749 
L 311.483947 300.049497 
L 313.369719 300.156386 
L 315.255492 299.966276 
L 317.141264 299.631748 
L 319.027036 298.90377 
L 320.912808 298.994512 
L 322.798581 299.480171 
L 324.684353 299.690652 
L 328.455897 299.30166 
L 332.227442 299.326481 
L 334.113214 298.712473 
L 335.998986 298.503858 
L 337.884758 298.580219 
L 339.770531 298.460175 
L 341.656303 299.095583 
L 345.427847 298.319831 
L 347.313619 298.845418 
L 349.199392 298.355508 
L 351.085164 297.678229 
L 352.970936 299.397544 
L 354.856708 299.149556 
L 356.742481 298.424686 
L 358.628253 298.896832 
L 360.514025 298.981522 
L 362.399797 297.859571 
L 364.285569 297.820357 
L 366.171342 291.648001 
L 368.057114 297.615552 
L 369.942886 298.668085 
L 371.828658 298.597359 
L 373.714431 297.403365 
L 375.600203 291.28843 
L 377.485975 297.617092 
L 379.371747 297.915322 
L 381.257519 298.482233 
L 383.143292 298.016088 
L 385.029064 297.962385 
L 386.914836 297.253339 
L 388.800608 298.436754 
L 390.686381 298.309143 
L 392.572153 298.061278 
L 394.457925 297.311977 
L 396.343697 298.626948 
L 398.229469 298.497671 
L 400.115242 298.003492 
L 403.886786 298.59483 
L 405.772558 297.651976 
L 407.658331 297.976442 
L 409.544103 297.935535 
L 411.429875 298.724974 
L 415.201419 297.004332 
L 417.087192 297.419155 
L 418.972964 298.792615 
L 420.858736 298.21536 
L 422.744508 298.092036 
L 424.630281 298.904599 
L 426.516053 298.804914 
L 428.401825 298.011796 
L 430.287597 298.625696 
L 432.173369 298.728691 
L 434.059142 298.143387 
L 435.944914 298.48482 
L 437.830686 298.56073 
L 439.716458 298.48268 
L 441.60223 298.782547 
L 443.488003 298.941561 
L 445.373775 298.573076 
L 447.259547 298.941572 
L 449.145319 298.111442 
L 451.031092 298.632916 
L 452.916864 298.302633 
L 454.802636 298.565793 
L 456.688408 298.635408 
L 458.57418 299.17974 
L 460.459953 298.91261 
L 462.345725 298.399585 
L 464.231497 299.276948 
L 466.117269 298.384882 
L 468.003042 299.193934 
L 469.888814 299.376 
L 471.774586 298.690537 
L 473.660358 298.951314 
L 475.54613 298.905454 
L 477.431903 299.740311 
L 479.317675 299.035791 
L 483.089219 298.93003 
L 484.974992 299.458703 
L 486.860764 299.080967 
L 488.746536 299.643417 
L 492.51808 299.315218 
L 494.403853 299.036059 
L 496.289625 299.542171 
L 498.175397 299.225531 
L 500.061169 299.851623 
L 501.946942 299.490561 
L 503.832714 300.112478 
L 505.718486 299.978888 
L 507.604258 299.606208 
L 509.49003 299.465826 
L 511.375803 300.174456 
L 513.261575 299.603424 
L 515.147347 294.327573 
L 517.033119 299.580416 
L 518.918892 299.201429 
L 520.804664 300.306447 
L 522.690436 299.631084 
L 524.576208 300.041705 
L 526.46198 299.898303 
L 528.347753 299.535961 
L 530.233525 300.222942 
L 532.119297 300.024532 
L 534.005069 300.25355 
L 535.890842 300.985803 
L 537.776614 300.312477 
L 539.662386 299.938856 
L 541.548158 300.167514 
L 543.43393 300.57308 
L 545.319703 300.398329 
L 547.205475 299.782142 
L 550.977019 300.481572 
L 552.862791 300.509581 
L 554.748564 300.329652 
L 556.634336 300.802296 
L 558.520108 300.052501 
L 560.40588 300.406147 
L 564.177425 300.58442 
L 566.063197 300.460927 
L 567.948969 300.705832 
L 573.606286 300.74937 
L 575.492058 301.146383 
L 577.37783 300.637504 
L 579.263603 300.462309 
L 581.149375 300.44039 
L 583.035147 300.816063 
L 584.920919 300.450066 
L 586.806691 300.517922 
L 588.692464 301.062942 
L 590.578236 297.88861 
L 592.464008 300.57483 
L 594.34978 300.083395 
L 596.235553 300.360437 
L 598.121325 300.367787 
L 600.007097 300.88431 
L 601.892869 300.671978 
L 603.778641 301.136032 
L 605.664414 300.782567 
L 607.550186 301.248442 
L 611.32173 300.937985 
L 613.207503 300.925629 
L 615.093275 301.19652 
L 616.979047 300.827279 
L 618.864819 300.644385 
L 620.750591 301.084932 
L 622.636364 300.656325 
L 622.636364 300.656325 
" clip-path="url(#p2b737ca65d)" style="fill: none; stroke: #1f77b4; stroke-width: 1.5; stroke-linecap: square"/>
   </g>
   <g id="line2d_14">
    <path d="M 115.363636 299.390551 
L 119.135181 299.03973 
L 121.020953 298.329656 
L 122.906725 298.171177 
L 124.792497 298.610129 
L 126.67827 297.646781 
L 128.564042 298.512779 
L 130.449814 296.98842 
L 132.335586 296.800086 
L 134.221359 298.054477 
L 136.107131 297.772897 
L 137.992903 297.099965 
L 139.878675 295.659456 
L 141.764447 296.483765 
L 143.65022 296.225061 
L 145.535992 296.246279 
L 147.421764 295.4627 
L 149.307536 293.682797 
L 151.193309 295.224244 
L 153.079081 295.056219 
L 154.964853 294.277144 
L 156.850625 293.263156 
L 160.62217 292.758588 
L 162.507942 291.508455 
L 164.393714 290.74332 
L 166.279486 289.672856 
L 170.051031 289.102405 
L 171.936803 287.626349 
L 173.822575 285.726643 
L 175.708347 286.141629 
L 177.59412 284.930644 
L 179.479892 283.922994 
L 181.365664 282.618946 
L 183.251436 282.797255 
L 185.137209 282.67729 
L 187.022981 283.477069 
L 188.908753 278.714613 
L 190.794525 280.78349 
L 192.680297 278.281885 
L 194.56607 274.56747 
L 196.451842 277.231425 
L 198.337614 276.357108 
L 200.223386 273.856288 
L 202.109158 274.268637 
L 203.994931 271.88211 
L 205.880703 272.584115 
L 207.766475 272.389081 
L 209.652247 272.384075 
L 211.53802 268.411061 
L 213.423792 266.226106 
L 215.309564 264.368175 
L 217.195336 260.079312 
L 219.081108 263.887329 
L 220.966881 260.876569 
L 222.852653 259.593838 
L 224.738425 255.010709 
L 226.624197 253.327091 
L 228.50997 251.111658 
L 230.395742 250.486607 
L 232.281514 247.379947 
L 234.167286 245.503199 
L 236.053058 245.607792 
L 237.938831 247.229262 
L 239.824603 243.730324 
L 241.710375 244.955003 
L 243.596147 241.2888 
L 245.48192 234.870929 
L 247.367692 242.713943 
L 249.253464 233.454968 
L 251.139236 231.648365 
L 253.025008 238.241995 
L 254.910781 234.894181 
L 256.796553 230.631047 
L 258.682325 235.700724 
L 260.568097 232.371051 
L 262.45387 228.655644 
L 264.339642 227.964991 
L 266.225414 229.543869 
L 268.111186 231.892974 
L 269.996958 223.234984 
L 271.882731 218.197303 
L 273.768503 219.552689 
L 275.654275 210.720427 
L 277.540047 209.041649 
L 279.42582 196.020395 
L 281.311592 207.643458 
L 283.197364 196.006364 
L 285.083136 198.538471 
L 286.968908 192.556206 
L 288.854681 186.030514 
L 290.740453 196.237868 
L 292.626225 195.427446 
L 294.511997 201.563573 
L 296.39777 182.079278 
L 298.283542 197.336106 
L 300.169314 180.32987 
L 302.055086 186.646473 
L 303.940858 189.259952 
L 305.826631 172.863039 
L 307.712403 190.77276 
L 309.598175 181.468556 
L 311.483947 176.517018 
L 313.369719 168.994532 
L 315.255492 168.773957 
L 317.141264 171.335099 
L 319.027036 185.706241 
L 320.912808 182.302145 
L 322.798581 162.966994 
L 324.684353 132.786892 
L 326.570125 162.09459 
L 328.455897 142.23243 
L 330.341669 182.111209 
L 332.227442 169.07746 
L 334.113214 155.09189 
L 335.998986 129.107513 
L 337.884758 153.174568 
L 339.770531 159.055628 
L 341.656303 137.290818 
L 343.542075 153.695414 
L 345.427847 159.955693 
L 347.313619 152.956434 
L 349.199392 101.959735 
L 351.085164 132.388286 
L 352.970936 113.860796 
L 354.856708 144.851695 
L 356.742481 141.317249 
L 358.628253 119.539247 
L 360.514025 156.773399 
L 362.399797 154.681836 
L 364.285569 117.442846 
L 366.171342 147.271784 
L 368.057114 169.455333 
L 369.942886 158.040646 
L 371.828658 135.803559 
L 373.714431 137.018265 
L 375.600203 131.16936 
L 377.485975 107.829519 
L 379.371747 136.439495 
L 381.257519 154.65473 
L 383.143292 155.197676 
L 385.029064 130.568785 
L 386.914836 77.192078 
L 388.800608 109.662909 
L 392.572153 146.434049 
L 394.457925 133.867255 
L 396.343697 138.969091 
L 398.229469 98.527236 
L 400.115242 122.961863 
L 402.001014 114.069043 
L 403.886786 108.512742 
L 405.772558 127.388571 
L 407.658331 127.122561 
L 409.544103 148.000853 
L 411.429875 132.541545 
L 413.315647 122.430615 
L 415.201419 164.115857 
L 417.087192 119.792608 
L 418.972964 146.337758 
L 420.858736 87.681325 
L 422.744508 134.57208 
L 424.630281 150.787635 
L 426.516053 142.052816 
L 428.401825 114.425821 
L 430.287597 135.606548 
L 432.173369 113.636845 
L 434.059142 129.375246 
L 435.944914 132.030706 
L 437.830686 150.811638 
L 439.716458 139.571534 
L 441.60223 136.383962 
L 443.488003 135.658953 
L 445.373775 106.246819 
L 447.259547 96.76782 
L 449.145319 132.96114 
L 451.031092 117.546294 
L 452.916864 124.994752 
L 454.802636 99.27647 
L 456.688408 118.388063 
L 458.57418 106.631232 
L 460.459953 142.469253 
L 462.345725 55.8 
L 464.231497 136.153823 
L 466.117269 139.215079 
L 468.003042 95.860133 
L 469.888814 122.781075 
L 471.774586 107.654333 
L 473.660358 150.832556 
L 475.54613 151.456706 
L 477.431903 151.145969 
L 479.317675 139.301565 
L 481.203447 125.167058 
L 483.089219 71.38954 
L 484.974992 159.367393 
L 486.860764 83.774583 
L 488.746536 148.351317 
L 490.632308 150.123426 
L 492.51808 131.576096 
L 494.403853 159.241754 
L 496.289625 157.423621 
L 498.175397 115.066688 
L 500.061169 127.710408 
L 501.946942 156.135557 
L 503.832714 164.671831 
L 505.718486 105.359954 
L 507.604258 131.530096 
L 509.49003 134.173678 
L 511.375803 90.108066 
L 513.261575 90.855949 
L 515.147347 125.081822 
L 517.033119 126.585931 
L 518.918892 149.936529 
L 522.690436 80.483421 
L 524.576208 115.040502 
L 526.46198 136.898651 
L 528.347753 166.129308 
L 530.233525 122.486769 
L 532.119297 115.075398 
L 534.005069 83.981599 
L 535.890842 107.924032 
L 537.776614 135.863244 
L 539.662386 121.277199 
L 541.548158 145.966568 
L 543.43393 118.918526 
L 545.319703 130.412676 
L 547.205475 57.545127 
L 549.091247 106.482072 
L 550.977019 117.223908 
L 552.862791 143.72515 
L 554.748564 165.169405 
L 556.634336 106.450958 
L 558.520108 116.171105 
L 560.40588 67.468301 
L 562.291653 85.848458 
L 564.177425 99.789984 
L 566.063197 105.281142 
L 567.948969 74.516536 
L 569.834741 138.368562 
L 571.720514 114.113379 
L 573.606286 92.499939 
L 575.492058 145.083368 
L 577.37783 127.48068 
L 579.263603 96.016391 
L 581.149375 130.841519 
L 583.035147 119.044067 
L 584.920919 142.088286 
L 586.806691 101.704944 
L 588.692464 119.233337 
L 590.578236 138.269553 
L 592.464008 91.949519 
L 594.34978 137.089495 
L 596.235553 134.381479 
L 598.121325 142.826627 
L 600.007097 135.021962 
L 601.892869 118.16062 
L 603.778641 97.817083 
L 605.664414 144.383716 
L 607.550186 145.911595 
L 609.435958 150.894335 
L 611.32173 113.945433 
L 613.207503 134.429093 
L 615.093275 131.763216 
L 616.979047 127.319962 
L 618.864819 105.421295 
L 620.750591 150.370878 
L 622.636364 78.393412 
L 622.636364 78.393412 
" clip-path="url(#p2b737ca65d)" style="fill: none; stroke: #ff7f0e; stroke-width: 1.5; stroke-linecap: square"/>
   </g>
   <g id="patch_3">
    <path d="M 90 320.4 
L 90 43.2 
" style="fill: none; stroke: #000000; stroke-width: 0.8; stroke-linejoin: miter; stroke-linecap: square"/>
   </g>
   <g id="patch_4">
    <path d="M 648 320.4 
L 648 43.2 
" style="fill: none; stroke: #000000; stroke-width: 0.8; stroke-linejoin: miter; stroke-linecap: square"/>
   </g>
   <g id="patch_5">
    <path d="M 90 320.4 
L 648 320.4 
" style="fill: none; stroke: #000000; stroke-width: 0.8; stroke-linejoin: miter; stroke-linecap: square"/>
   </g>
   <g id="patch_6">
    <path d="M 90 43.2 
L 648 43.2 
" style="fill: none; stroke: #000000; stroke-width: 0.8; stroke-linejoin: miter; stroke-linecap: square"/>
   </g>
   <g id="text_15">
    <!-- Training and Validating Total Loss -->
    <g transform="translate(269.474063 37.2) scale(0.12 -0.12)">
     <defs>
      <path id="DejaVuSans-72" d="M 2631 2963 
Q 2534 3019 2420 3045 
Q 2306 3072 2169 3072 
Q 1681 3072 1420 2755 
Q 1159 2438 1159 1844 
L 1159 0 
L 581 0 
L 581 3500 
L 1159 3500 
L 1159 2956 
Q 1341 3275 1631 3429 
Q 1922 3584 2338 3584 
Q 2397 3584 2469 3576 
Q 2541 3569 2628 3553 
L 2631 2963 
z
" transform="scale(0.015625)"/>
      <path id="DejaVuSans-69" d="M 603 3500 
L 1178 3500 
L 1178 0 
L 603 0 
L 603 3500 
z
M 603 4863 
L 1178 4863 
L 1178 4134 
L 603 4134 
L 603 4863 
z
" transform="scale(0.015625)"/>
      <path id="DejaVuSans-6e" d="M 3513 2113 
L 3513 0 
L 2938 0 
L 2938 2094 
Q 2938 2591 2744 2837 
Q 2550 3084 2163 3084 
Q 1697 3084 1428 2787 
Q 1159 2491 1159 1978 
L 1159 0 
L 581 0 
L 581 3500 
L 1159 3500 
L 1159 2956 
Q 1366 3272 1645 3428 
Q 1925 3584 2291 3584 
Q 2894 3584 3203 3211 
Q 3513 2838 3513 2113 
z
" transform="scale(0.015625)"/>
      <path id="DejaVuSans-67" d="M 2906 1791 
Q 2906 2416 2648 2759 
Q 2391 3103 1925 3103 
Q 1463 3103 1205 2759 
Q 947 2416 947 1791 
Q 947 1169 1205 825 
Q 1463 481 1925 481 
Q 2391 481 2648 825 
Q 2906 1169 2906 1791 
z
M 3481 434 
Q 3481 -459 3084 -895 
Q 2688 -1331 1869 -1331 
Q 1566 -1331 1297 -1286 
Q 1028 -1241 775 -1147 
L 775 -588 
Q 1028 -725 1275 -790 
Q 1522 -856 1778 -856 
Q 2344 -856 2625 -561 
Q 2906 -266 2906 331 
L 2906 616 
Q 2728 306 2450 153 
Q 2172 0 1784 0 
Q 1141 0 747 490 
Q 353 981 353 1791 
Q 353 2603 747 3093 
Q 1141 3584 1784 3584 
Q 2172 3584 2450 3431 
Q 2728 3278 2906 2969 
L 2906 3500 
L 3481 3500 
L 3481 434 
z
" transform="scale(0.015625)"/>
      <path id="DejaVuSans-64" d="M 2906 2969 
L 2906 4863 
L 3481 4863 
L 3481 0 
L 2906 0 
L 2906 525 
Q 2725 213 2448 61 
Q 2172 -91 1784 -91 
Q 1150 -91 751 415 
Q 353 922 353 1747 
Q 353 2572 751 3078 
Q 1150 3584 1784 3584 
Q 2172 3584 2448 3432 
Q 2725 3281 2906 2969 
z
M 947 1747 
Q 947 1113 1208 752 
Q 1469 391 1925 391 
Q 2381 391 2643 752 
Q 2906 1113 2906 1747 
Q 2906 2381 2643 2742 
Q 2381 3103 1925 3103 
Q 1469 3103 1208 2742 
Q 947 2381 947 1747 
z
" transform="scale(0.015625)"/>
      <path id="DejaVuSans-56" d="M 1831 0 
L 50 4666 
L 709 4666 
L 2188 738 
L 3669 4666 
L 4325 4666 
L 2547 0 
L 1831 0 
z
" transform="scale(0.015625)"/>
     </defs>
     <use xlink:href="#DejaVuSans-54"/>
     <use xlink:href="#DejaVuSans-72" transform="translate(46.333984 0)"/>
     <use xlink:href="#DejaVuSans-61" transform="translate(87.447266 0)"/>
     <use xlink:href="#DejaVuSans-69" transform="translate(148.726562 0)"/>
     <use xlink:href="#DejaVuSans-6e" transform="translate(176.509766 0)"/>
     <use xlink:href="#DejaVuSans-69" transform="translate(239.888672 0)"/>
     <use xlink:href="#DejaVuSans-6e" transform="translate(267.671875 0)"/>
     <use xlink:href="#DejaVuSans-67" transform="translate(331.050781 0)"/>
     <use xlink:href="#DejaVuSans-20" transform="translate(394.527344 0)"/>
     <use xlink:href="#DejaVuSans-61" transform="translate(426.314453 0)"/>
     <use xlink:href="#DejaVuSans-6e" transform="translate(487.59375 0)"/>
     <use xlink:href="#DejaVuSans-64" transform="translate(550.972656 0)"/>
     <use xlink:href="#DejaVuSans-20" transform="translate(614.449219 0)"/>
     <use xlink:href="#DejaVuSans-56" transform="translate(646.236328 0)"/>
     <use xlink:href="#DejaVuSans-61" transform="translate(706.894531 0)"/>
     <use xlink:href="#DejaVuSans-6c" transform="translate(768.173828 0)"/>
     <use xlink:href="#DejaVuSans-69" transform="translate(795.957031 0)"/>
     <use xlink:href="#DejaVuSans-64" transform="translate(823.740234 0)"/>
     <use xlink:href="#DejaVuSans-61" transform="translate(887.216797 0)"/>
     <use xlink:href="#DejaVuSans-74" transform="translate(948.496094 0)"/>
     <use xlink:href="#DejaVuSans-69" transform="translate(987.705078 0)"/>
     <use xlink:href="#DejaVuSans-6e" transform="translate(1015.488281 0)"/>
     <use xlink:href="#DejaVuSans-67" transform="translate(1078.867188 0)"/>
     <use xlink:href="#DejaVuSans-20" transform="translate(1142.34375 0)"/>
     <use xlink:href="#DejaVuSans-54" transform="translate(1174.130859 0)"/>
     <use xlink:href="#DejaVuSans-6f" transform="translate(1218.214844 0)"/>
     <use xlink:href="#DejaVuSans-74" transform="translate(1279.396484 0)"/>
     <use xlink:href="#DejaVuSans-61" transform="translate(1318.605469 0)"/>
     <use xlink:href="#DejaVuSans-6c" transform="translate(1379.884766 0)"/>
     <use xlink:href="#DejaVuSans-20" transform="translate(1407.667969 0)"/>
     <use xlink:href="#DejaVuSans-4c" transform="translate(1439.455078 0)"/>
     <use xlink:href="#DejaVuSans-6f" transform="translate(1493.417969 0)"/>
     <use xlink:href="#DejaVuSans-73" transform="translate(1554.599609 0)"/>
     <use xlink:href="#DejaVuSans-73" transform="translate(1606.699219 0)"/>
    </g>
   </g>
   <g id="legend_1">
    <g id="patch_7">
     <path d="M 97 80.55625 
L 178.610938 80.55625 
Q 180.610938 80.55625 180.610938 78.55625 
L 180.610938 50.2 
Q 180.610938 48.2 178.610938 48.2 
L 97 48.2 
Q 95 48.2 95 50.2 
L 95 78.55625 
Q 95 80.55625 97 80.55625 
z
" style="fill: #ffffff; opacity: 0.8; stroke: #cccccc; stroke-linejoin: miter"/>
    </g>
    <g id="line2d_15">
     <path d="M 99 56.298437 
L 109 56.298437 
L 119 56.298437 
" style="fill: none; stroke: #1f77b4; stroke-width: 1.5; stroke-linecap: square"/>
    </g>
    <g id="text_16">
     <!-- Training -->
     <g transform="translate(127 59.798437) scale(0.1 -0.1)">
      <use xlink:href="#DejaVuSans-54"/>
      <use xlink:href="#DejaVuSans-72" transform="translate(46.333984 0)"/>
      <use xlink:href="#DejaVuSans-61" transform="translate(87.447266 0)"/>
      <use xlink:href="#DejaVuSans-69" transform="translate(148.726562 0)"/>
      <use xlink:href="#DejaVuSans-6e" transform="translate(176.509766 0)"/>
      <use xlink:href="#DejaVuSans-69" transform="translate(239.888672 0)"/>
      <use xlink:href="#DejaVuSans-6e" transform="translate(267.671875 0)"/>
      <use xlink:href="#DejaVuSans-67" transform="translate(331.050781 0)"/>
     </g>
    </g>
    <g id="line2d_16">
     <path d="M 99 70.976562 
L 109 70.976562 
L 119 70.976562 
" style="fill: none; stroke: #ff7f0e; stroke-width: 1.5; stroke-linecap: square"/>
    </g>
    <g id="text_17">
     <!-- Validating -->
     <g transform="translate(127 74.476562) scale(0.1 -0.1)">
      <use xlink:href="#DejaVuSans-56"/>
      <use xlink:href="#DejaVuSans-61" transform="translate(60.658203 0)"/>
      <use xlink:href="#DejaVuSans-6c" transform="translate(121.9375 0)"/>
      <use xlink:href="#DejaVuSans-69" transform="translate(149.720703 0)"/>
      <use xlink:href="#DejaVuSans-64" transform="translate(177.503906 0)"/>
      <use xlink:href="#DejaVuSans-61" transform="translate(240.980469 0)"/>
      <use xlink:href="#DejaVuSans-74" transform="translate(302.259766 0)"/>
      <use xlink:href="#DejaVuSans-69" transform="translate(341.46875 0)"/>
      <use xlink:href="#DejaVuSans-6e" transform="translate(369.251953 0)"/>
      <use xlink:href="#DejaVuSans-67" transform="translate(432.630859 0)"/>
     </g>
    </g>
   </g>
  </g>
 </g>
 <defs>
  <clipPath id="p2b737ca65d">
   <rect x="90" y="43.2" width="558" height="277.2"/>
  </clipPath>
 </defs>
</svg>
