<?xml version="1.0" encoding="utf-8" standalone="no"?>
<!DOCTYPE svg PUBLIC "-//W3C//DTD SVG 1.1//EN"
  "http://www.w3.org/Graphics/SVG/1.1/DTD/svg11.dtd">
<svg xmlns:xlink="http://www.w3.org/1999/xlink" width="720pt" height="360pt" viewBox="0 0 720 360" xmlns="http://www.w3.org/2000/svg" version="1.1">
 <metadata>
  <rdf:RDF xmlns:dc="http://purl.org/dc/elements/1.1/" xmlns:cc="http://creativecommons.org/ns#" xmlns:rdf="http://www.w3.org/1999/02/22-rdf-syntax-ns#">
   <cc:Work>
    <dc:type rdf:resource="http://purl.org/dc/dcmitype/StillImage"/>
    <dc:date>2025-12-02T04:58:48.511386</dc:date>
    <dc:format>image/svg+xml</dc:format>
    <dc:creator>
     <cc:Agent>
      <dc:title>Matplotlib v3.10.1, https://matplotlib.org/</dc:title>
     </cc:Agent>
    </dc:creator>
   </cc:Work>
  </rdf:RDF>
 </metadata>
 <defs>
  <style type="text/css">*{stroke-linejoin: round; stroke-linecap: butt}</style>
 </defs>
 <g id="figure_1">
  <g id="patch_1">
   <path d="M 0 360 
L 720 360 
L 720 0 
L 0 0 
z
" style="fill: #ffffff"/>
  </g>
  <g id="axes_1">
   <g id="patch_2">
    <path d="M 90 320.4 
L 648 320.4 
L 648 43.2 
L 90 43.2 
z
" style="fill: #ffffff"/>
   </g>
   <g id="matplotlib.axis_1">
    <g id="xtick_1">
     <g id="line2d_1">
      <defs>
       <path id="mef971be0b2" d="M 0 0 
L 0 3.5 
" style="stroke: #000000; stroke-width: 0.8"/>
      </defs>
      <g>
       <use xlink:href="#mef971be0b2" x="115.363636" y="320.4" style="stroke: #000000; stroke-width: 0.8"/>
      </g>
     </g>
     <g id="text_1">
      <!-- 0 -->
      <g transform="translate(112.182386 334.998438) scale(0.1 -0.1)">
       <defs>
        <path id="DejaVuSans-30" d="M 2034 4250 
Q 1547 4250 1301 3770 
Q 1056 3291 1056 2328 
Q 1056 1369 1301 889 
Q 1547 409 2034 409 
Q 2525 409 2770 889 
Q 3016 1369 3016 2328 
Q 3016 3291 2770 3770 
Q 2525 4250 2034 4250 
z
M 2034 4750 
Q 2819 4750 3233 4129 
Q 3647 3509 3647 2328 
Q 3647 1150 3233 529 
Q 2819 -91 2034 -91 
Q 1250 -91 836 529 
Q 422 1150 422 2328 
Q 422 3509 836 4129 
Q 1250 4750 2034 4750 
z
" transform="scale(0.015625)"/>
       </defs>
       <use xlink:href="#DejaVuSans-30"/>
      </g>
     </g>
    </g>
    <g id="xtick_2">
     <g id="line2d_2">
      <g>
       <use xlink:href="#mef971be0b2" x="217.157495" y="320.4" style="stroke: #000000; stroke-width: 0.8"/>
      </g>
     </g>
     <g id="text_2">
      <!-- 60 -->
      <g transform="translate(210.794995 334.998438) scale(0.1 -0.1)">
       <defs>
        <path id="DejaVuSans-36" d="M 2113 2584 
Q 1688 2584 1439 2293 
Q 1191 2003 1191 1497 
Q 1191 994 1439 701 
Q 1688 409 2113 409 
Q 2538 409 2786 701 
Q 3034 994 3034 1497 
Q 3034 2003 2786 2293 
Q 2538 2584 2113 2584 
z
M 3366 4563 
L 3366 3988 
Q 3128 4100 2886 4159 
Q 2644 4219 2406 4219 
Q 1781 4219 1451 3797 
Q 1122 3375 1075 2522 
Q 1259 2794 1537 2939 
Q 1816 3084 2150 3084 
Q 2853 3084 3261 2657 
Q 3669 2231 3669 1497 
Q 3669 778 3244 343 
Q 2819 -91 2113 -91 
Q 1303 -91 875 529 
Q 447 1150 447 2328 
Q 447 3434 972 4092 
Q 1497 4750 2381 4750 
Q 2619 4750 2861 4703 
Q 3103 4656 3366 4563 
z
" transform="scale(0.015625)"/>
       </defs>
       <use xlink:href="#DejaVuSans-36"/>
       <use xlink:href="#DejaVuSans-30" transform="translate(63.623047 0)"/>
      </g>
     </g>
    </g>
    <g id="xtick_3">
     <g id="line2d_3">
      <g>
       <use xlink:href="#mef971be0b2" x="318.951353" y="320.4" style="stroke: #000000; stroke-width: 0.8"/>
      </g>
     </g>
     <g id="text_3">
      <!-- 120 -->
      <g transform="translate(309.407603 334.998438) scale(0.1 -0.1)">
       <defs>
        <path id="DejaVuSans-31" d="M 794 531 
L 1825 531 
L 1825 4091 
L 703 3866 
L 703 4441 
L 1819 4666 
L 2450 4666 
L 2450 531 
L 3481 531 
L 3481 0 
L 794 0 
L 794 531 
z
" transform="scale(0.015625)"/>
        <path id="DejaVuSans-32" d="M 1228 531 
L 3431 531 
L 3431 0 
L 469 0 
L 469 531 
Q 828 903 1448 1529 
Q 2069 2156 2228 2338 
Q 2531 2678 2651 2914 
Q 2772 3150 2772 3378 
Q 2772 3750 2511 3984 
Q 2250 4219 1831 4219 
Q 1534 4219 1204 4116 
Q 875 4013 500 3803 
L 500 4441 
Q 881 4594 1212 4672 
Q 1544 4750 1819 4750 
Q 2544 4750 2975 4387 
Q 3406 4025 3406 3419 
Q 3406 3131 3298 2873 
Q 3191 2616 2906 2266 
Q 2828 2175 2409 1742 
Q 1991 1309 1228 531 
z
" transform="scale(0.015625)"/>
       </defs>
       <use xlink:href="#DejaVuSans-31"/>
       <use xlink:href="#DejaVuSans-32" transform="translate(63.623047 0)"/>
       <use xlink:href="#DejaVuSans-30" transform="translate(127.246094 0)"/>
      </g>
     </g>
    </g>
    <g id="xtick_4">
     <g id="line2d_4">
      <g>
       <use xlink:href="#mef971be0b2" x="420.745211" y="320.4" style="stroke: #000000; stroke-width: 0.8"/>
      </g>
     </g>
     <g id="text_4">
      <!-- 180 -->
      <g transform="translate(411.201461 334.998438) scale(0.1 -0.1)">
       <defs>
        <path id="DejaVuSans-38" d="M 2034 2216 
Q 1584 2216 1326 1975 
Q 1069 1734 1069 1313 
Q 1069 891 1326 650 
Q 1584 409 2034 409 
Q 2484 409 2743 651 
Q 3003 894 3003 1313 
Q 3003 1734 2745 1975 
Q 2488 2216 2034 2216 
z
M 1403 2484 
Q 997 2584 770 2862 
Q 544 3141 544 3541 
Q 544 4100 942 4425 
Q 1341 4750 2034 4750 
Q 2731 4750 3128 4425 
Q 3525 4100 3525 3541 
Q 3525 3141 3298 2862 
Q 3072 2584 2669 2484 
Q 3125 2378 3379 2068 
Q 3634 1759 3634 1313 
Q 3634 634 3220 271 
Q 2806 -91 2034 -91 
Q 1263 -91 848 271 
Q 434 634 434 1313 
Q 434 1759 690 2068 
Q 947 2378 1403 2484 
z
M 1172 3481 
Q 1172 3119 1398 2916 
Q 1625 2713 2034 2713 
Q 2441 2713 2670 2916 
Q 2900 3119 2900 3481 
Q 2900 3844 2670 4047 
Q 2441 4250 2034 4250 
Q 1625 4250 1398 4047 
Q 1172 3844 1172 3481 
z
" transform="scale(0.015625)"/>
       </defs>
       <use xlink:href="#DejaVuSans-31"/>
       <use xlink:href="#DejaVuSans-38" transform="translate(63.623047 0)"/>
       <use xlink:href="#DejaVuSans-30" transform="translate(127.246094 0)"/>
      </g>
     </g>
    </g>
    <g id="xtick_5">
     <g id="line2d_5">
      <g>
       <use xlink:href="#mef971be0b2" x="522.53907" y="320.4" style="stroke: #000000; stroke-width: 0.8"/>
      </g>
     </g>
     <g id="text_5">
      <!-- 240 -->
      <g transform="translate(512.99532 334.998438) scale(0.1 -0.1)">
       <defs>
        <path id="DejaVuSans-34" d="M 2419 4116 
L 825 1625 
L 2419 1625 
L 2419 4116 
z
M 2253 4666 
L 3047 4666 
L 3047 1625 
L 3713 1625 
L 3713 1100 
L 3047 1100 
L 3047 0 
L 2419 0 
L 2419 1100 
L 313 1100 
L 313 1709 
L 2253 4666 
z
" transform="scale(0.015625)"/>
       </defs>
       <use xlink:href="#DejaVuSans-32"/>
       <use xlink:href="#DejaVuSans-34" transform="translate(63.623047 0)"/>
       <use xlink:href="#DejaVuSans-30" transform="translate(127.246094 0)"/>
      </g>
     </g>
    </g>
    <g id="text_6">
     <!-- Epoch -->
     <g transform="translate(353.689062 348.676562) scale(0.1 -0.1)">
      <defs>
       <path id="DejaVuSans-45" d="M 628 4666 
L 3578 4666 
L 3578 4134 
L 1259 4134 
L 1259 2753 
L 3481 2753 
L 3481 2222 
L 1259 2222 
L 1259 531 
L 3634 531 
L 3634 0 
L 628 0 
L 628 4666 
z
" transform="scale(0.015625)"/>
       <path id="DejaVuSans-70" d="M 1159 525 
L 1159 -1331 
L 581 -1331 
L 581 3500 
L 1159 3500 
L 1159 2969 
Q 1341 3281 1617 3432 
Q 1894 3584 2278 3584 
Q 2916 3584 3314 3078 
Q 3713 2572 3713 1747 
Q 3713 922 3314 415 
Q 2916 -91 2278 -91 
Q 1894 -91 1617 61 
Q 1341 213 1159 525 
z
M 3116 1747 
Q 3116 2381 2855 2742 
Q 2594 3103 2138 3103 
Q 1681 3103 1420 2742 
Q 1159 2381 1159 1747 
Q 1159 1113 1420 752 
Q 1681 391 2138 391 
Q 2594 391 2855 752 
Q 3116 1113 3116 1747 
z
" transform="scale(0.015625)"/>
       <path id="DejaVuSans-6f" d="M 1959 3097 
Q 1497 3097 1228 2736 
Q 959 2375 959 1747 
Q 959 1119 1226 758 
Q 1494 397 1959 397 
Q 2419 397 2687 759 
Q 2956 1122 2956 1747 
Q 2956 2369 2687 2733 
Q 2419 3097 1959 3097 
z
M 1959 3584 
Q 2709 3584 3137 3096 
Q 3566 2609 3566 1747 
Q 3566 888 3137 398 
Q 2709 -91 1959 -91 
Q 1206 -91 779 398 
Q 353 888 353 1747 
Q 353 2609 779 3096 
Q 1206 3584 1959 3584 
z
" transform="scale(0.015625)"/>
       <path id="DejaVuSans-63" d="M 3122 3366 
L 3122 2828 
Q 2878 2963 2633 3030 
Q 2388 3097 2138 3097 
Q 1578 3097 1268 2742 
Q 959 2388 959 1747 
Q 959 1106 1268 751 
Q 1578 397 2138 397 
Q 2388 397 2633 464 
Q 2878 531 3122 666 
L 3122 134 
Q 2881 22 2623 -34 
Q 2366 -91 2075 -91 
Q 1284 -91 818 406 
Q 353 903 353 1747 
Q 353 2603 823 3093 
Q 1294 3584 2113 3584 
Q 2378 3584 2631 3529 
Q 2884 3475 3122 3366 
z
" transform="scale(0.015625)"/>
       <path id="DejaVuSans-68" d="M 3513 2113 
L 3513 0 
L 2938 0 
L 2938 2094 
Q 2938 2591 2744 2837 
Q 2550 3084 2163 3084 
Q 1697 3084 1428 2787 
Q 1159 2491 1159 1978 
L 1159 0 
L 581 0 
L 581 4863 
L 1159 4863 
L 1159 2956 
Q 1366 3272 1645 3428 
Q 1925 3584 2291 3584 
Q 2894 3584 3203 3211 
Q 3513 2838 3513 2113 
z
" transform="scale(0.015625)"/>
      </defs>
      <use xlink:href="#DejaVuSans-45"/>
      <use xlink:href="#DejaVuSans-70" transform="translate(63.183594 0)"/>
      <use xlink:href="#DejaVuSans-6f" transform="translate(126.660156 0)"/>
      <use xlink:href="#DejaVuSans-63" transform="translate(187.841797 0)"/>
      <use xlink:href="#DejaVuSans-68" transform="translate(242.822266 0)"/>
     </g>
    </g>
   </g>
   <g id="matplotlib.axis_2">
    <g id="ytick_1">
     <g id="line2d_6">
      <defs>
       <path id="m72a4255429" d="M 0 0 
L -3.5 0 
" style="stroke: #000000; stroke-width: 0.8"/>
      </defs>
      <g>
       <use xlink:href="#m72a4255429" x="90" y="320.370936" style="stroke: #000000; stroke-width: 0.8"/>
      </g>
     </g>
     <g id="text_7">
      <!-- 0.15 -->
      <g transform="translate(60.734375 324.170155) scale(0.1 -0.1)">
       <defs>
        <path id="DejaVuSans-2e" d="M 684 794 
L 1344 794 
L 1344 0 
L 684 0 
L 684 794 
z
" transform="scale(0.015625)"/>
        <path id="DejaVuSans-35" d="M 691 4666 
L 3169 4666 
L 3169 4134 
L 1269 4134 
L 1269 2991 
Q 1406 3038 1543 3061 
Q 1681 3084 1819 3084 
Q 2600 3084 3056 2656 
Q 3513 2228 3513 1497 
Q 3513 744 3044 326 
Q 2575 -91 1722 -91 
Q 1428 -91 1123 -41 
Q 819 9 494 109 
L 494 744 
Q 775 591 1075 516 
Q 1375 441 1709 441 
Q 2250 441 2565 725 
Q 2881 1009 2881 1497 
Q 2881 1984 2565 2268 
Q 2250 2553 1709 2553 
Q 1456 2553 1204 2497 
Q 953 2441 691 2322 
L 691 4666 
z
" transform="scale(0.015625)"/>
       </defs>
       <use xlink:href="#DejaVuSans-30"/>
       <use xlink:href="#DejaVuSans-2e" transform="translate(63.623047 0)"/>
       <use xlink:href="#DejaVuSans-31" transform="translate(95.410156 0)"/>
       <use xlink:href="#DejaVuSans-35" transform="translate(159.033203 0)"/>
      </g>
     </g>
    </g>
    <g id="ytick_2">
     <g id="line2d_7">
      <g>
       <use xlink:href="#m72a4255429" x="90" y="283.999011" style="stroke: #000000; stroke-width: 0.8"/>
      </g>
     </g>
     <g id="text_8">
      <!-- 0.20 -->
      <g transform="translate(60.734375 287.79823) scale(0.1 -0.1)">
       <use xlink:href="#DejaVuSans-30"/>
       <use xlink:href="#DejaVuSans-2e" transform="translate(63.623047 0)"/>
       <use xlink:href="#DejaVuSans-32" transform="translate(95.410156 0)"/>
       <use xlink:href="#DejaVuSans-30" transform="translate(159.033203 0)"/>
      </g>
     </g>
    </g>
    <g id="ytick_3">
     <g id="line2d_8">
      <g>
       <use xlink:href="#m72a4255429" x="90" y="247.627087" style="stroke: #000000; stroke-width: 0.8"/>
      </g>
     </g>
     <g id="text_9">
      <!-- 0.25 -->
      <g transform="translate(60.734375 251.426305) scale(0.1 -0.1)">
       <use xlink:href="#DejaVuSans-30"/>
       <use xlink:href="#DejaVuSans-2e" transform="translate(63.623047 0)"/>
       <use xlink:href="#DejaVuSans-32" transform="translate(95.410156 0)"/>
       <use xlink:href="#DejaVuSans-35" transform="translate(159.033203 0)"/>
      </g>
     </g>
    </g>
    <g id="ytick_4">
     <g id="line2d_9">
      <g>
       <use xlink:href="#m72a4255429" x="90" y="211.255162" style="stroke: #000000; stroke-width: 0.8"/>
      </g>
     </g>
     <g id="text_10">
      <!-- 0.30 -->
      <g transform="translate(60.734375 215.054381) scale(0.1 -0.1)">
       <defs>
        <path id="DejaVuSans-33" d="M 2597 2516 
Q 3050 2419 3304 2112 
Q 3559 1806 3559 1356 
Q 3559 666 3084 287 
Q 2609 -91 1734 -91 
Q 1441 -91 1130 -33 
Q 819 25 488 141 
L 488 750 
Q 750 597 1062 519 
Q 1375 441 1716 441 
Q 2309 441 2620 675 
Q 2931 909 2931 1356 
Q 2931 1769 2642 2001 
Q 2353 2234 1838 2234 
L 1294 2234 
L 1294 2753 
L 1863 2753 
Q 2328 2753 2575 2939 
Q 2822 3125 2822 3475 
Q 2822 3834 2567 4026 
Q 2313 4219 1838 4219 
Q 1578 4219 1281 4162 
Q 984 4106 628 3988 
L 628 4550 
Q 988 4650 1302 4700 
Q 1616 4750 1894 4750 
Q 2613 4750 3031 4423 
Q 3450 4097 3450 3541 
Q 3450 3153 3228 2886 
Q 3006 2619 2597 2516 
z
" transform="scale(0.015625)"/>
       </defs>
       <use xlink:href="#DejaVuSans-30"/>
       <use xlink:href="#DejaVuSans-2e" transform="translate(63.623047 0)"/>
       <use xlink:href="#DejaVuSans-33" transform="translate(95.410156 0)"/>
       <use xlink:href="#DejaVuSans-30" transform="translate(159.033203 0)"/>
      </g>
     </g>
    </g>
    <g id="ytick_5">
     <g id="line2d_10">
      <g>
       <use xlink:href="#m72a4255429" x="90" y="174.883237" style="stroke: #000000; stroke-width: 0.8"/>
      </g>
     </g>
     <g id="text_11">
      <!-- 0.35 -->
      <g transform="translate(60.734375 178.682456) scale(0.1 -0.1)">
       <use xlink:href="#DejaVuSans-30"/>
       <use xlink:href="#DejaVuSans-2e" transform="translate(63.623047 0)"/>
       <use xlink:href="#DejaVuSans-33" transform="translate(95.410156 0)"/>
       <use xlink:href="#DejaVuSans-35" transform="translate(159.033203 0)"/>
      </g>
     </g>
    </g>
    <g id="ytick_6">
     <g id="line2d_11">
      <g>
       <use xlink:href="#m72a4255429" x="90" y="138.511313" style="stroke: #000000; stroke-width: 0.8"/>
      </g>
     </g>
     <g id="text_12">
      <!-- 0.40 -->
      <g transform="translate(60.734375 142.310531) scale(0.1 -0.1)">
       <use xlink:href="#DejaVuSans-30"/>
       <use xlink:href="#DejaVuSans-2e" transform="translate(63.623047 0)"/>
       <use xlink:href="#DejaVuSans-34" transform="translate(95.410156 0)"/>
       <use xlink:href="#DejaVuSans-30" transform="translate(159.033203 0)"/>
      </g>
     </g>
    </g>
    <g id="ytick_7">
     <g id="line2d_12">
      <g>
       <use xlink:href="#m72a4255429" x="90" y="102.139388" style="stroke: #000000; stroke-width: 0.8"/>
      </g>
     </g>
     <g id="text_13">
      <!-- 0.45 -->
      <g transform="translate(60.734375 105.938607) scale(0.1 -0.1)">
       <use xlink:href="#DejaVuSans-30"/>
       <use xlink:href="#DejaVuSans-2e" transform="translate(63.623047 0)"/>
       <use xlink:href="#DejaVuSans-34" transform="translate(95.410156 0)"/>
       <use xlink:href="#DejaVuSans-35" transform="translate(159.033203 0)"/>
      </g>
     </g>
    </g>
    <g id="ytick_8">
     <g id="line2d_13">
      <g>
       <use xlink:href="#m72a4255429" x="90" y="65.767463" style="stroke: #000000; stroke-width: 0.8"/>
      </g>
     </g>
     <g id="text_14">
      <!-- 0.50 -->
      <g transform="translate(60.734375 69.566682) scale(0.1 -0.1)">
       <use xlink:href="#DejaVuSans-30"/>
       <use xlink:href="#DejaVuSans-2e" transform="translate(63.623047 0)"/>
       <use xlink:href="#DejaVuSans-35" transform="translate(95.410156 0)"/>
       <use xlink:href="#DejaVuSans-30" transform="translate(159.033203 0)"/>
      </g>
     </g>
    </g>
    <g id="text_15">
     <!-- Estimation Loss -->
     <g transform="translate(54.654687 220.98125) rotate(-90) scale(0.1 -0.1)">
      <defs>
       <path id="DejaVuSans-73" d="M 2834 3397 
L 2834 2853 
Q 2591 2978 2328 3040 
Q 2066 3103 1784 3103 
Q 1356 3103 1142 2972 
Q 928 2841 928 2578 
Q 928 2378 1081 2264 
Q 1234 2150 1697 2047 
L 1894 2003 
Q 2506 1872 2764 1633 
Q 3022 1394 3022 966 
Q 3022 478 2636 193 
Q 2250 -91 1575 -91 
Q 1294 -91 989 -36 
Q 684 19 347 128 
L 347 722 
Q 666 556 975 473 
Q 1284 391 1588 391 
Q 1994 391 2212 530 
Q 2431 669 2431 922 
Q 2431 1156 2273 1281 
Q 2116 1406 1581 1522 
L 1381 1569 
Q 847 1681 609 1914 
Q 372 2147 372 2553 
Q 372 3047 722 3315 
Q 1072 3584 1716 3584 
Q 2034 3584 2315 3537 
Q 2597 3491 2834 3397 
z
" transform="scale(0.015625)"/>
       <path id="DejaVuSans-74" d="M 1172 4494 
L 1172 3500 
L 2356 3500 
L 2356 3053 
L 1172 3053 
L 1172 1153 
Q 1172 725 1289 603 
Q 1406 481 1766 481 
L 2356 481 
L 2356 0 
L 1766 0 
Q 1100 0 847 248 
Q 594 497 594 1153 
L 594 3053 
L 172 3053 
L 172 3500 
L 594 3500 
L 594 4494 
L 1172 4494 
z
" transform="scale(0.015625)"/>
       <path id="DejaVuSans-69" d="M 603 3500 
L 1178 3500 
L 1178 0 
L 603 0 
L 603 3500 
z
M 603 4863 
L 1178 4863 
L 1178 4134 
L 603 4134 
L 603 4863 
z
" transform="scale(0.015625)"/>
       <path id="DejaVuSans-6d" d="M 3328 2828 
Q 3544 3216 3844 3400 
Q 4144 3584 4550 3584 
Q 5097 3584 5394 3201 
Q 5691 2819 5691 2113 
L 5691 0 
L 5113 0 
L 5113 2094 
Q 5113 2597 4934 2840 
Q 4756 3084 4391 3084 
Q 3944 3084 3684 2787 
Q 3425 2491 3425 1978 
L 3425 0 
L 2847 0 
L 2847 2094 
Q 2847 2600 2669 2842 
Q 2491 3084 2119 3084 
Q 1678 3084 1418 2786 
Q 1159 2488 1159 1978 
L 1159 0 
L 581 0 
L 581 3500 
L 1159 3500 
L 1159 2956 
Q 1356 3278 1631 3431 
Q 1906 3584 2284 3584 
Q 2666 3584 2933 3390 
Q 3200 3197 3328 2828 
z
" transform="scale(0.015625)"/>
       <path id="DejaVuSans-61" d="M 2194 1759 
Q 1497 1759 1228 1600 
Q 959 1441 959 1056 
Q 959 750 1161 570 
Q 1363 391 1709 391 
Q 2188 391 2477 730 
Q 2766 1069 2766 1631 
L 2766 1759 
L 2194 1759 
z
M 3341 1997 
L 3341 0 
L 2766 0 
L 2766 531 
Q 2569 213 2275 61 
Q 1981 -91 1556 -91 
Q 1019 -91 701 211 
Q 384 513 384 1019 
Q 384 1609 779 1909 
Q 1175 2209 1959 2209 
L 2766 2209 
L 2766 2266 
Q 2766 2663 2505 2880 
Q 2244 3097 1772 3097 
Q 1472 3097 1187 3025 
Q 903 2953 641 2809 
L 641 3341 
Q 956 3463 1253 3523 
Q 1550 3584 1831 3584 
Q 2591 3584 2966 3190 
Q 3341 2797 3341 1997 
z
" transform="scale(0.015625)"/>
       <path id="DejaVuSans-6e" d="M 3513 2113 
L 3513 0 
L 2938 0 
L 2938 2094 
Q 2938 2591 2744 2837 
Q 2550 3084 2163 3084 
Q 1697 3084 1428 2787 
Q 1159 2491 1159 1978 
L 1159 0 
L 581 0 
L 581 3500 
L 1159 3500 
L 1159 2956 
Q 1366 3272 1645 3428 
Q 1925 3584 2291 3584 
Q 2894 3584 3203 3211 
Q 3513 2838 3513 2113 
z
" transform="scale(0.015625)"/>
       <path id="DejaVuSans-20" transform="scale(0.015625)"/>
       <path id="DejaVuSans-4c" d="M 628 4666 
L 1259 4666 
L 1259 531 
L 3531 531 
L 3531 0 
L 628 0 
L 628 4666 
z
" transform="scale(0.015625)"/>
      </defs>
      <use xlink:href="#DejaVuSans-45"/>
      <use xlink:href="#DejaVuSans-73" transform="translate(63.183594 0)"/>
      <use xlink:href="#DejaVuSans-74" transform="translate(115.283203 0)"/>
      <use xlink:href="#DejaVuSans-69" transform="translate(154.492188 0)"/>
      <use xlink:href="#DejaVuSans-6d" transform="translate(182.275391 0)"/>
      <use xlink:href="#DejaVuSans-61" transform="translate(279.6875 0)"/>
      <use xlink:href="#DejaVuSans-74" transform="translate(340.966797 0)"/>
      <use xlink:href="#DejaVuSans-69" transform="translate(380.175781 0)"/>
      <use xlink:href="#DejaVuSans-6f" transform="translate(407.958984 0)"/>
      <use xlink:href="#DejaVuSans-6e" transform="translate(469.140625 0)"/>
      <use xlink:href="#DejaVuSans-20" transform="translate(532.519531 0)"/>
      <use xlink:href="#DejaVuSans-4c" transform="translate(564.306641 0)"/>
      <use xlink:href="#DejaVuSans-6f" transform="translate(618.269531 0)"/>
      <use xlink:href="#DejaVuSans-73" transform="translate(679.451172 0)"/>
      <use xlink:href="#DejaVuSans-73" transform="translate(731.550781 0)"/>
     </g>
    </g>
   </g>
   <g id="line2d_14">
    <path d="M 115.363636 55.8 
L 117.060201 235.465615 
L 118.756765 259.898265 
L 120.453329 270.901214 
L 122.149894 277.45098 
L 123.846458 281.679558 
L 125.543022 284.731665 
L 127.239587 286.970643 
L 128.936151 288.786176 
L 130.632715 290.23088 
L 134.025844 292.400001 
L 137.418972 293.948829 
L 139.115537 294.602486 
L 144.20523 296.026278 
L 149.294922 297.134368 
L 152.688051 297.673311 
L 156.08118 298.176263 
L 159.474308 298.518274 
L 164.564001 299.07161 
L 171.350258 299.615709 
L 183.226209 300.319877 
L 195.102159 300.836864 
L 200.191852 300.984243 
L 206.978109 301.198915 
L 220.550623 301.496956 
L 229.033445 301.630079 
L 251.088781 301.773338 
L 264.661295 301.770018 
L 268.054424 301.711619 
L 288.413196 301.530243 
L 295.199453 301.453444 
L 344.399818 301.318022 
L 357.972332 301.291327 
L 363.062025 301.220124 
L 368.151718 301.184633 
L 437.710854 301.000294 
L 444.497112 301.120192 
L 447.89024 301.073102 
L 464.855883 301.136411 
L 503.876862 301.252137 
L 510.663119 301.301745 
L 517.449377 301.300435 
L 522.53907 301.359202 
L 525.932198 301.339841 
L 536.111584 301.427427 
L 539.504713 301.368759 
L 542.897841 301.411781 
L 559.863484 301.467715 
L 563.256613 301.44574 
L 564.953177 301.579024 
L 566.649742 301.463784 
L 571.739434 301.530311 
L 590.401642 301.586607 
L 602.277592 301.614285 
L 603.974156 301.622469 
L 605.670721 301.503974 
L 607.367285 301.685854 
L 609.063849 301.409365 
L 610.760413 301.642654 
L 619.243235 301.516491 
L 620.939799 301.713585 
L 622.636364 301.676652 
L 622.636364 301.676652 
" clip-path="url(#p5b65578893)" style="fill: none; stroke: #1f77b4; stroke-width: 1.5; stroke-linecap: square"/>
   </g>
   <g id="line2d_15">
    <path d="M 115.363636 118.043219 
L 117.060201 245.184507 
L 118.756765 263.233557 
L 120.453329 273.272531 
L 122.149894 279.400115 
L 123.846458 283.425052 
L 125.543022 286.719119 
L 128.936151 290.467858 
L 130.632715 291.497138 
L 132.329279 292.766927 
L 134.025844 293.464131 
L 135.722408 293.833328 
L 137.418972 294.690436 
L 139.115537 295.295779 
L 140.812101 295.764085 
L 144.20523 296.111612 
L 145.901794 296.519573 
L 147.598358 296.48015 
L 152.688051 297.272321 
L 154.384615 297.714533 
L 156.08118 296.950919 
L 157.777744 297.842354 
L 159.474308 298.065962 
L 161.170873 297.396573 
L 162.867437 297.47529 
L 164.564001 297.327886 
L 167.95713 296.844469 
L 169.653694 297.794825 
L 171.350258 297.612391 
L 173.046823 297.541839 
L 174.743387 296.744852 
L 176.439951 296.99737 
L 178.136516 297.548808 
L 179.83308 297.481702 
L 181.529644 297.113523 
L 183.226209 296.877538 
L 184.922773 297.300016 
L 186.619337 296.604152 
L 188.315901 296.638031 
L 190.012466 296.216177 
L 191.70903 297.500334 
L 193.405594 297.091667 
L 196.798723 297.09852 
L 198.495287 296.564206 
L 200.191852 297.023316 
L 201.888416 296.52509 
L 203.58498 296.864049 
L 205.281545 296.535293 
L 208.674673 297.02105 
L 210.371237 297.44455 
L 212.067802 296.289393 
L 213.764366 296.320498 
L 215.46093 296.725011 
L 217.157495 296.267165 
L 218.854059 296.631873 
L 220.550623 296.439386 
L 222.247188 296.092664 
L 223.943752 296.603596 
L 225.640316 296.792792 
L 229.033445 296.960893 
L 230.730009 297.387769 
L 232.426573 296.968311 
L 234.123138 295.978827 
L 235.819702 296.987425 
L 237.516266 297.258639 
L 239.212831 296.9075 
L 240.909395 298.01751 
L 242.605959 296.998693 
L 245.999088 297.341344 
L 247.695652 297.704411 
L 249.392216 297.486075 
L 252.785345 297.97623 
L 254.481909 298.278459 
L 257.875038 297.698501 
L 259.571602 297.863731 
L 261.268167 298.173265 
L 262.964731 297.873412 
L 264.661295 298.411814 
L 268.054424 299.005865 
L 269.750988 298.650299 
L 271.447552 299.069623 
L 273.144117 299.000557 
L 274.840681 297.797289 
L 276.537245 298.250606 
L 278.23381 298.427554 
L 279.930374 298.830433 
L 281.626938 298.268179 
L 283.323503 298.993301 
L 285.020067 297.868448 
L 286.716631 298.169891 
L 288.413196 298.173803 
L 291.806324 298.603725 
L 293.502888 298.278251 
L 295.199453 298.284015 
L 296.896017 298.442276 
L 298.592581 298.076916 
L 300.289146 297.865932 
L 301.98571 297.154037 
L 303.682274 297.972731 
L 305.378839 297.483096 
L 307.075403 297.240548 
L 310.468531 297.046226 
L 312.165096 297.602524 
L 313.86166 297.881561 
L 315.558224 297.338679 
L 317.254789 297.538632 
L 320.647917 297.350166 
L 322.344482 296.880673 
L 324.041046 296.661495 
L 325.73761 297.493336 
L 327.434175 296.914089 
L 329.130739 297.378385 
L 330.827303 296.889869 
L 332.523867 297.658381 
L 334.220432 296.825733 
L 335.916996 297.26303 
L 339.310125 296.94826 
L 341.006689 296.075337 
L 342.703253 296.92738 
L 344.399818 296.352218 
L 346.096382 295.906782 
L 349.48951 296.174531 
L 351.186075 295.865475 
L 352.882639 296.098973 
L 354.579203 295.712513 
L 356.275768 295.658609 
L 357.972332 295.857506 
L 359.668896 295.342271 
L 361.365461 295.332288 
L 363.062025 295.501954 
L 366.455154 295.480005 
L 368.151718 295.019268 
L 369.848282 295.559512 
L 371.544846 295.339538 
L 373.241411 295.279952 
L 374.937975 294.894697 
L 378.331104 295.348567 
L 380.027668 294.831717 
L 381.724232 294.71052 
L 383.420797 295.165316 
L 385.117361 294.869828 
L 386.813925 294.025863 
L 388.51049 294.996402 
L 390.207054 294.933309 
L 391.903618 295.039053 
L 393.600182 294.650124 
L 395.296747 294.723325 
L 396.993311 294.64843 
L 398.689875 294.837436 
L 400.38644 295.622838 
L 402.083004 294.623782 
L 403.779568 294.363887 
L 405.476133 294.575796 
L 407.172697 295.789678 
L 408.869261 295.769558 
L 410.565825 294.935156 
L 412.26239 295.137778 
L 413.958954 295.699143 
L 415.655518 294.413965 
L 417.352083 295.774959 
L 419.048647 295.071364 
L 420.745211 294.633633 
L 422.441776 295.549082 
L 424.13834 294.485355 
L 425.834904 295.297064 
L 427.531469 294.830685 
L 429.228033 295.281652 
L 430.924597 295.493956 
L 432.621161 294.772747 
L 434.317726 295.138174 
L 436.01429 294.049784 
L 437.710854 294.958178 
L 439.407419 294.602334 
L 441.103983 294.51082 
L 442.800547 294.819912 
L 444.497112 293.649394 
L 446.193676 294.477647 
L 447.89024 294.320866 
L 449.586804 293.847282 
L 451.283369 294.117762 
L 452.979933 293.508632 
L 454.676497 294.54767 
L 456.373062 293.247242 
L 458.069626 293.550835 
L 459.76619 293.72015 
L 461.462755 293.29722 
L 464.855883 294.639309 
L 466.552448 294.597001 
L 468.249012 294.432062 
L 469.945576 293.620968 
L 471.64214 294.319757 
L 473.338705 293.791053 
L 476.731833 294.254803 
L 478.428398 293.755422 
L 483.518091 294.115155 
L 485.214655 293.840458 
L 486.911219 294.19586 
L 488.607784 293.569461 
L 492.000912 294.147883 
L 495.394041 294.096728 
L 497.090605 294.65021 
L 498.787169 293.106859 
L 500.483734 293.976835 
L 502.180298 294.292185 
L 503.876862 294.769405 
L 505.573427 293.213496 
L 507.269991 294.366579 
L 508.966555 293.629888 
L 510.663119 293.368937 
L 512.359684 293.351032 
L 514.056248 294.137955 
L 515.752812 294.098061 
L 517.449377 293.793826 
L 519.145941 292.568121 
L 520.842505 293.345195 
L 522.53907 293.131832 
L 524.235634 292.566856 
L 525.932198 292.592151 
L 527.628763 293.060387 
L 529.325327 293.175605 
L 531.021891 293.518429 
L 532.718455 293.411485 
L 534.41502 293.533432 
L 536.111584 292.528646 
L 537.808148 293.138363 
L 539.504713 293.550628 
L 541.201277 292.379103 
L 542.897841 292.765778 
L 544.594406 292.986553 
L 546.29097 292.856057 
L 547.987534 291.63401 
L 549.684099 292.942042 
L 551.380663 292.155755 
L 553.077227 292.023699 
L 554.773791 293.029205 
L 556.470356 292.770637 
L 558.16692 292.933306 
L 559.863484 292.127984 
L 561.560049 292.67519 
L 564.953177 292.60291 
L 566.649742 292.549584 
L 568.346306 292.988094 
L 570.04287 291.835463 
L 571.739434 291.766239 
L 573.435999 292.109923 
L 576.829127 292.622258 
L 578.525692 292.191112 
L 580.222256 292.325197 
L 581.91882 291.976174 
L 583.615385 292.032081 
L 585.311949 290.870161 
L 587.008513 292.089122 
L 588.705078 291.473115 
L 590.401642 291.166129 
L 592.098206 291.552073 
L 593.79477 292.11352 
L 595.491335 292.322657 
L 597.187899 291.263107 
L 598.884463 291.309626 
L 600.581028 291.026356 
L 602.277592 290.086305 
L 605.670721 291.9358 
L 607.367285 291.128546 
L 609.063849 291.54021 
L 610.760413 293.297072 
L 612.456978 291.108354 
L 614.153542 291.453534 
L 615.850106 291.082418 
L 617.546671 291.337575 
L 619.243235 290.35767 
L 620.939799 291.239329 
L 622.636364 290.288482 
L 622.636364 290.288482 
" clip-path="url(#p5b65578893)" style="fill: none; stroke: #ff7f0e; stroke-width: 1.5; stroke-linecap: square"/>
   </g>
   <g id="line2d_16">
    <path d="M 115.363636 222.173829 
L 117.060201 257.08521 
L 118.756765 270.586068 
L 120.453329 277.497135 
L 122.149894 281.448467 
L 123.846458 284.754626 
L 125.543022 286.993121 
L 127.239587 288.274618 
L 128.936151 289.856438 
L 130.632715 290.629154 
L 132.329279 291.712126 
L 139.115537 293.773069 
L 140.812101 293.940332 
L 142.508665 294.585683 
L 144.20523 294.708801 
L 145.901794 295.177172 
L 147.598358 295.227642 
L 149.294922 295.473199 
L 150.991487 295.168648 
L 152.688051 295.693131 
L 154.384615 296.027361 
L 161.170873 296.626817 
L 169.653694 296.909045 
L 171.350258 296.933353 
L 173.046823 297.200537 
L 178.136516 297.322594 
L 179.83308 297.497029 
L 181.529644 297.327429 
L 183.226209 297.593404 
L 186.619337 297.748438 
L 188.315901 297.564791 
L 191.70903 297.862276 
L 195.102159 297.723729 
L 196.798723 297.925622 
L 200.191852 297.956418 
L 208.674673 298.166112 
L 213.764366 298.192707 
L 215.46093 298.271722 
L 217.157495 298.214379 
L 218.854059 298.278408 
L 220.550623 298.071371 
L 222.247188 298.277942 
L 229.033445 298.389628 
L 230.730009 298.4345 
L 232.426573 298.288081 
L 234.123138 298.43224 
L 264.661295 298.513993 
L 266.35786 298.410443 
L 268.054424 298.518686 
L 271.447552 298.478913 
L 274.840681 298.458945 
L 281.626938 298.376482 
L 291.806324 298.261256 
L 293.502888 298.403038 
L 295.199453 298.257488 
L 308.771967 298.264069 
L 310.468531 298.117244 
L 317.254789 298.216342 
L 320.647917 298.082223 
L 322.344482 298.245215 
L 324.041046 298.09611 
L 327.434175 298.283472 
L 329.130739 298.141705 
L 330.827303 298.256824 
L 334.220432 298.129202 
L 337.61356 298.152675 
L 339.310125 298.24823 
L 354.579203 298.159512 
L 356.275768 298.220778 
L 357.972332 298.06454 
L 363.062025 298.161204 
L 366.455154 298.261219 
L 368.151718 298.145191 
L 371.544846 298.126405 
L 374.937975 298.122497 
L 376.634539 298.154703 
L 378.331104 297.993386 
L 380.027668 298.238514 
L 381.724232 297.92663 
L 383.420797 297.987766 
L 385.117361 298.196991 
L 386.813925 298.189274 
L 388.51049 297.977091 
L 390.207054 298.122227 
L 391.903618 298.146247 
L 393.600182 298.036685 
L 405.476133 298.218474 
L 407.172697 298.023462 
L 408.869261 298.15521 
L 412.26239 298.012155 
L 413.958954 298.128478 
L 419.048647 298.135025 
L 420.745211 298.207824 
L 422.441776 297.951281 
L 429.228033 298.141054 
L 432.621161 297.903133 
L 436.01429 298.092516 
L 437.710854 297.824827 
L 439.407419 298.070317 
L 446.193676 297.962356 
L 447.89024 298.113853 
L 456.373062 298.020165 
L 458.069626 298.17324 
L 463.159319 298.06063 
L 464.855883 298.205332 
L 466.552448 298.214576 
L 469.945576 298.060183 
L 473.338705 298.13317 
L 475.035269 298.049428 
L 478.428398 298.303071 
L 480.124962 297.952324 
L 481.821526 298.224059 
L 485.214655 298.171573 
L 486.911219 298.278502 
L 488.607784 298.173657 
L 492.000912 298.196585 
L 493.697476 298.344696 
L 497.090605 298.247673 
L 500.483734 298.258541 
L 502.180298 298.19405 
L 503.876862 298.281068 
L 508.966555 298.210984 
L 510.663119 298.3202 
L 512.359684 298.280093 
L 514.056248 298.392498 
L 517.449377 298.077711 
L 520.842505 298.337437 
L 524.235634 298.245557 
L 525.932198 298.406676 
L 527.628763 298.254884 
L 529.325327 298.400524 
L 532.718455 298.363122 
L 536.111584 298.32309 
L 537.808148 298.162866 
L 539.504713 298.396361 
L 542.897841 298.293924 
L 544.594406 298.250391 
L 546.29097 298.367113 
L 551.380663 298.27336 
L 554.773791 298.105583 
L 556.470356 298.306471 
L 558.16692 298.198105 
L 559.863484 298.363475 
L 563.256613 298.27541 
L 564.953177 298.454992 
L 566.649742 298.315259 
L 568.346306 298.447842 
L 571.739434 298.367763 
L 573.435999 298.471563 
L 575.132563 298.364162 
L 600.581028 298.461019 
L 602.277592 298.294866 
L 605.670721 298.43562 
L 607.367285 298.501487 
L 609.063849 298.219435 
L 610.760413 298.526589 
L 612.456978 298.394334 
L 614.153542 298.477073 
L 615.850106 298.444015 
L 617.546671 298.543465 
L 619.243235 298.331886 
L 620.939799 298.547731 
L 622.636364 298.293339 
L 622.636364 298.293339 
" clip-path="url(#p5b65578893)" style="fill: none; stroke: #2ca02c; stroke-width: 1.5; stroke-linecap: square"/>
   </g>
   <g id="line2d_17">
    <path d="M 115.363636 234.678205 
L 117.060201 258.736179 
L 118.756765 272.697198 
L 120.453329 279.934272 
L 122.149894 284.547022 
L 123.846458 288.155709 
L 125.543022 289.942408 
L 127.239587 292.267515 
L 128.936151 293.391801 
L 130.632715 295.010948 
L 132.329279 294.957663 
L 134.025844 296.172286 
L 135.722408 296.66774 
L 137.418972 297.564315 
L 139.115537 296.812866 
L 140.812101 296.684619 
L 142.508665 297.904333 
L 144.20523 297.761633 
L 145.901794 298.67422 
L 147.598358 299.15305 
L 149.294922 298.032958 
L 150.991487 298.502156 
L 152.688051 298.788881 
L 154.384615 300.007472 
L 156.08118 300.382942 
L 157.777744 297.182459 
L 159.474308 297.834625 
L 161.170873 299.363513 
L 162.867437 300.039142 
L 164.564001 298.733962 
L 166.260566 296.955458 
L 167.95713 298.921912 
L 169.653694 298.130419 
L 171.350258 299.903493 
L 173.046823 298.110557 
L 174.743387 299.734378 
L 176.439951 298.109206 
L 178.136516 299.161294 
L 179.83308 296.782114 
L 181.529644 298.866613 
L 183.226209 297.431857 
L 186.619337 296.459523 
L 188.315901 296.902405 
L 190.012466 297.801999 
L 191.70903 298.198025 
L 193.405594 297.039293 
L 195.102159 298.763948 
L 196.798723 298.382223 
L 198.495287 298.327649 
L 200.191852 299.520048 
L 201.888416 298.135423 
L 203.58498 298.574251 
L 205.281545 297.825279 
L 206.978109 297.893337 
L 208.674673 298.859358 
L 210.371237 297.143669 
L 212.067802 296.215233 
L 213.764366 296.613707 
L 215.46093 296.415209 
L 217.157495 297.215181 
L 218.854059 297.414906 
L 220.550623 299.392017 
L 222.247188 294.679096 
L 223.943752 298.156559 
L 225.640316 297.821939 
L 227.336881 296.906477 
L 229.033445 297.18666 
L 230.730009 300.13741 
L 232.426573 296.013661 
L 234.123138 298.298996 
L 235.819702 297.690245 
L 237.516266 295.634888 
L 239.212831 297.992272 
L 240.909395 298.72618 
L 242.605959 297.86237 
L 244.302524 296.709557 
L 245.999088 299.215173 
L 247.695652 299.717429 
L 249.392216 298.780907 
L 251.088781 301.126392 
L 252.785345 297.290588 
L 254.481909 300.54473 
L 256.178474 299.706292 
L 257.875038 296.857189 
L 259.571602 299.051076 
L 261.268167 300.791972 
L 262.964731 298.708723 
L 266.35786 301.849365 
L 268.054424 300.728813 
L 269.750988 299.346576 
L 271.447552 301.079424 
L 273.144117 300.65099 
L 274.840681 301.085787 
L 276.537245 300.773761 
L 278.23381 301.993724 
L 279.930374 301.845269 
L 281.626938 300.213634 
L 283.323503 301.524445 
L 285.020067 299.660471 
L 286.716631 301.580546 
L 288.413196 300.451916 
L 290.10976 301.180001 
L 291.806324 298.97457 
L 293.502888 300.610636 
L 295.199453 302.457174 
L 296.896017 300.203707 
L 298.592581 301.78539 
L 300.289146 299.527641 
L 301.98571 300.645858 
L 303.682274 298.764002 
L 305.378839 298.56106 
L 307.075403 301.053644 
L 308.771967 298.791877 
L 310.468531 298.572333 
L 312.165096 299.151778 
L 313.86166 299.988289 
L 315.558224 302.435618 
L 317.254789 299.469626 
L 318.951353 298.989522 
L 320.647917 296.096755 
L 322.344482 297.737125 
L 325.73761 299.617949 
L 327.434175 298.239385 
L 329.130739 299.332002 
L 330.827303 299.003328 
L 332.523867 299.681244 
L 334.220432 297.749108 
L 335.916996 301.163846 
L 337.61356 297.219516 
L 339.310125 301.617535 
L 341.006689 297.531991 
L 342.703253 299.240574 
L 344.399818 299.056811 
L 346.096382 297.329146 
L 349.48951 297.358647 
L 351.186075 296.700491 
L 352.882639 298.948761 
L 354.579203 299.689639 
L 356.275768 297.493561 
L 357.972332 300.024032 
L 359.668896 298.415831 
L 361.365461 295.738396 
L 363.062025 298.817335 
L 364.758589 297.881495 
L 366.455154 297.793143 
L 368.151718 299.357438 
L 369.848282 298.913694 
L 371.544846 298.656389 
L 373.241411 297.684938 
L 374.937975 297.649539 
L 376.634539 298.531147 
L 378.331104 297.637713 
L 380.027668 299.213825 
L 381.724232 299.786634 
L 383.420797 299.024145 
L 385.117361 298.928045 
L 386.813925 296.876692 
L 388.51049 300.285812 
L 390.207054 299.985012 
L 391.903618 299.181868 
L 393.600182 297.698076 
L 395.296747 299.317044 
L 396.993311 300.386791 
L 398.689875 299.351483 
L 400.38644 298.743144 
L 402.083004 300.001835 
L 403.779568 298.625435 
L 405.476133 302.524973 
L 407.172697 300.764732 
L 408.869261 300.630432 
L 410.565825 299.181717 
L 412.26239 300.504425 
L 413.958954 301.60583 
L 415.655518 298.982102 
L 419.048647 301.015833 
L 420.745211 298.711257 
L 422.441776 300.91864 
L 424.13834 299.800712 
L 425.834904 299.142651 
L 427.531469 300.094254 
L 429.228033 300.356173 
L 430.924597 297.853972 
L 434.317726 300.969071 
L 436.01429 299.133253 
L 437.710854 299.578421 
L 439.407419 299.162452 
L 441.103983 296.908673 
L 442.800547 297.880267 
L 444.497112 297.350855 
L 446.193676 298.305874 
L 447.89024 299.469781 
L 449.586804 298.705827 
L 451.283369 298.173699 
L 452.979933 298.678895 
L 454.676497 299.795669 
L 456.373062 298.176691 
L 458.069626 299.940688 
L 459.76619 299.240144 
L 461.462755 299.040089 
L 463.159319 299.450335 
L 464.855883 299.588659 
L 466.552448 297.875408 
L 469.945576 299.870456 
L 471.64214 301.825469 
L 473.338705 299.027006 
L 475.035269 300.043234 
L 476.731833 299.746628 
L 478.428398 299.283337 
L 480.124962 301.537443 
L 481.821526 301.009973 
L 483.518091 300.878925 
L 485.214655 299.911321 
L 486.911219 297.618837 
L 488.607784 298.24088 
L 490.304348 297.849917 
L 492.000912 299.619352 
L 493.697476 299.163374 
L 495.394041 297.750274 
L 497.090605 297.989645 
L 498.787169 299.799059 
L 500.483734 298.498534 
L 502.180298 299.026818 
L 503.876862 300.262318 
L 505.573427 300.072949 
L 507.269991 299.63949 
L 508.966555 300.284407 
L 510.663119 297.116928 
L 512.359684 300.88433 
L 514.056248 299.366408 
L 515.752812 299.720811 
L 517.449377 299.744276 
L 519.145941 297.844508 
L 520.842505 296.990652 
L 522.53907 297.967305 
L 524.235634 301.708485 
L 525.932198 301.508666 
L 527.628763 299.865847 
L 529.325327 299.604372 
L 531.021891 298.728153 
L 532.718455 299.778019 
L 534.41502 299.823832 
L 536.111584 295.9986 
L 537.808148 296.264818 
L 539.504713 301.531003 
L 541.201277 297.390386 
L 542.897841 301.245409 
L 544.594406 300.182919 
L 546.29097 299.816594 
L 547.987534 300.762907 
L 549.684099 298.196263 
L 551.380663 299.268921 
L 553.077227 298.371108 
L 554.773791 300.938017 
L 556.470356 302.623723 
L 558.16692 299.766493 
L 559.863484 299.676346 
L 561.560049 298.831289 
L 563.256613 303.700706 
L 564.953177 298.282361 
L 566.649742 302.70146 
L 568.346306 299.02814 
L 570.04287 294.79083 
L 571.739434 298.523731 
L 573.435999 300.131985 
L 575.132563 297.617485 
L 576.829127 299.063597 
L 578.525692 298.215469 
L 580.222256 301.514454 
L 581.91882 296.048896 
L 583.615385 296.181525 
L 585.311949 301.973754 
L 587.008513 298.070742 
L 588.705078 296.551517 
L 590.401642 298.482572 
L 592.098206 301.504622 
L 593.79477 299.390244 
L 595.491335 301.039352 
L 597.187899 297.742601 
L 600.581028 296.688413 
L 603.974156 296.137769 
L 605.670721 297.720546 
L 607.367285 294.941907 
L 609.063849 307.8 
L 610.760413 299.989672 
L 612.456978 297.314676 
L 614.153542 294.118448 
L 615.850106 299.032833 
L 617.546671 293.471049 
L 619.243235 304.174033 
L 620.939799 299.488469 
L 622.636364 293.878145 
L 622.636364 293.878145 
" clip-path="url(#p5b65578893)" style="fill: none; stroke: #d62728; stroke-width: 1.5; stroke-linecap: square"/>
   </g>
   <g id="patch_3">
    <path d="M 90 320.4 
L 90 43.2 
" style="fill: none; stroke: #000000; stroke-width: 0.8; stroke-linejoin: miter; stroke-linecap: square"/>
   </g>
   <g id="patch_4">
    <path d="M 648 320.4 
L 648 43.2 
" style="fill: none; stroke: #000000; stroke-width: 0.8; stroke-linejoin: miter; stroke-linecap: square"/>
   </g>
   <g id="patch_5">
    <path d="M 90 320.4 
L 648 320.4 
" style="fill: none; stroke: #000000; stroke-width: 0.8; stroke-linejoin: miter; stroke-linecap: square"/>
   </g>
   <g id="patch_6">
    <path d="M 90 43.2 
L 648 43.2 
" style="fill: none; stroke: #000000; stroke-width: 0.8; stroke-linejoin: miter; stroke-linecap: square"/>
   </g>
   <g id="text_16">
    <!-- Training and Validating Estimation Loss -->
    <g transform="translate(251.535937 37.2) scale(0.12 -0.12)">
     <defs>
      <path id="DejaVuSans-54" d="M -19 4666 
L 3928 4666 
L 3928 4134 
L 2272 4134 
L 2272 0 
L 1638 0 
L 1638 4134 
L -19 4134 
L -19 4666 
z
" transform="scale(0.015625)"/>
      <path id="DejaVuSans-72" d="M 2631 2963 
Q 2534 3019 2420 3045 
Q 2306 3072 2169 3072 
Q 1681 3072 1420 2755 
Q 1159 2438 1159 1844 
L 1159 0 
L 581 0 
L 581 3500 
L 1159 3500 
L 1159 2956 
Q 1341 3275 1631 3429 
Q 1922 3584 2338 3584 
Q 2397 3584 2469 3576 
Q 2541 3569 2628 3553 
L 2631 2963 
z
" transform="scale(0.015625)"/>
      <path id="DejaVuSans-67" d="M 2906 1791 
Q 2906 2416 2648 2759 
Q 2391 3103 1925 3103 
Q 1463 3103 1205 2759 
Q 947 2416 947 1791 
Q 947 1169 1205 825 
Q 1463 481 1925 481 
Q 2391 481 2648 825 
Q 2906 1169 2906 1791 
z
M 3481 434 
Q 3481 -459 3084 -895 
Q 2688 -1331 1869 -1331 
Q 1566 -1331 1297 -1286 
Q 1028 -1241 775 -1147 
L 775 -588 
Q 1028 -725 1275 -790 
Q 1522 -856 1778 -856 
Q 2344 -856 2625 -561 
Q 2906 -266 2906 331 
L 2906 616 
Q 2728 306 2450 153 
Q 2172 0 1784 0 
Q 1141 0 747 490 
Q 353 981 353 1791 
Q 353 2603 747 3093 
Q 1141 3584 1784 3584 
Q 2172 3584 2450 3431 
Q 2728 3278 2906 2969 
L 2906 3500 
L 3481 3500 
L 3481 434 
z
" transform="scale(0.015625)"/>
      <path id="DejaVuSans-64" d="M 2906 2969 
L 2906 4863 
L 3481 4863 
L 3481 0 
L 2906 0 
L 2906 525 
Q 2725 213 2448 61 
Q 2172 -91 1784 -91 
Q 1150 -91 751 415 
Q 353 922 353 1747 
Q 353 2572 751 3078 
Q 1150 3584 1784 3584 
Q 2172 3584 2448 3432 
Q 2725 3281 2906 2969 
z
M 947 1747 
Q 947 1113 1208 752 
Q 1469 391 1925 391 
Q 2381 391 2643 752 
Q 2906 1113 2906 1747 
Q 2906 2381 2643 2742 
Q 2381 3103 1925 3103 
Q 1469 3103 1208 2742 
Q 947 2381 947 1747 
z
" transform="scale(0.015625)"/>
      <path id="DejaVuSans-56" d="M 1831 0 
L 50 4666 
L 709 4666 
L 2188 738 
L 3669 4666 
L 4325 4666 
L 2547 0 
L 1831 0 
z
" transform="scale(0.015625)"/>
      <path id="DejaVuSans-6c" d="M 603 4863 
L 1178 4863 
L 1178 0 
L 603 0 
L 603 4863 
z
" transform="scale(0.015625)"/>
     </defs>
     <use xlink:href="#DejaVuSans-54"/>
     <use xlink:href="#DejaVuSans-72" transform="translate(46.333984 0)"/>
     <use xlink:href="#DejaVuSans-61" transform="translate(87.447266 0)"/>
     <use xlink:href="#DejaVuSans-69" transform="translate(148.726562 0)"/>
     <use xlink:href="#DejaVuSans-6e" transform="translate(176.509766 0)"/>
     <use xlink:href="#DejaVuSans-69" transform="translate(239.888672 0)"/>
     <use xlink:href="#DejaVuSans-6e" transform="translate(267.671875 0)"/>
     <use xlink:href="#DejaVuSans-67" transform="translate(331.050781 0)"/>
     <use xlink:href="#DejaVuSans-20" transform="translate(394.527344 0)"/>
     <use xlink:href="#DejaVuSans-61" transform="translate(426.314453 0)"/>
     <use xlink:href="#DejaVuSans-6e" transform="translate(487.59375 0)"/>
     <use xlink:href="#DejaVuSans-64" transform="translate(550.972656 0)"/>
     <use xlink:href="#DejaVuSans-20" transform="translate(614.449219 0)"/>
     <use xlink:href="#DejaVuSans-56" transform="translate(646.236328 0)"/>
     <use xlink:href="#DejaVuSans-61" transform="translate(706.894531 0)"/>
     <use xlink:href="#DejaVuSans-6c" transform="translate(768.173828 0)"/>
     <use xlink:href="#DejaVuSans-69" transform="translate(795.957031 0)"/>
     <use xlink:href="#DejaVuSans-64" transform="translate(823.740234 0)"/>
     <use xlink:href="#DejaVuSans-61" transform="translate(887.216797 0)"/>
     <use xlink:href="#DejaVuSans-74" transform="translate(948.496094 0)"/>
     <use xlink:href="#DejaVuSans-69" transform="translate(987.705078 0)"/>
     <use xlink:href="#DejaVuSans-6e" transform="translate(1015.488281 0)"/>
     <use xlink:href="#DejaVuSans-67" transform="translate(1078.867188 0)"/>
     <use xlink:href="#DejaVuSans-20" transform="translate(1142.34375 0)"/>
     <use xlink:href="#DejaVuSans-45" transform="translate(1174.130859 0)"/>
     <use xlink:href="#DejaVuSans-73" transform="translate(1237.314453 0)"/>
     <use xlink:href="#DejaVuSans-74" transform="translate(1289.414062 0)"/>
     <use xlink:href="#DejaVuSans-69" transform="translate(1328.623047 0)"/>
     <use xlink:href="#DejaVuSans-6d" transform="translate(1356.40625 0)"/>
     <use xlink:href="#DejaVuSans-61" transform="translate(1453.818359 0)"/>
     <use xlink:href="#DejaVuSans-74" transform="translate(1515.097656 0)"/>
     <use xlink:href="#DejaVuSans-69" transform="translate(1554.306641 0)"/>
     <use xlink:href="#DejaVuSans-6f" transform="translate(1582.089844 0)"/>
     <use xlink:href="#DejaVuSans-6e" transform="translate(1643.271484 0)"/>
     <use xlink:href="#DejaVuSans-20" transform="translate(1706.650391 0)"/>
     <use xlink:href="#DejaVuSans-4c" transform="translate(1738.4375 0)"/>
     <use xlink:href="#DejaVuSans-6f" transform="translate(1792.400391 0)"/>
     <use xlink:href="#DejaVuSans-73" transform="translate(1853.582031 0)"/>
     <use xlink:href="#DejaVuSans-73" transform="translate(1905.681641 0)"/>
    </g>
   </g>
   <g id="legend_1">
    <g id="patch_7">
     <path d="M 521.439062 109.9125 
L 641 109.9125 
Q 643 109.9125 643 107.9125 
L 643 50.2 
Q 643 48.2 641 48.2 
L 521.439062 48.2 
Q 519.439062 48.2 519.439062 50.2 
L 519.439062 107.9125 
Q 519.439062 109.9125 521.439062 109.9125 
z
" style="fill: #ffffff; opacity: 0.8; stroke: #cccccc; stroke-linejoin: miter"/>
    </g>
    <g id="line2d_18">
     <path d="M 523.439062 56.298437 
L 533.439062 56.298437 
L 543.439062 56.298437 
" style="fill: none; stroke: #1f77b4; stroke-width: 1.5; stroke-linecap: square"/>
    </g>
    <g id="text_17">
     <!-- Training-Source -->
     <g transform="translate(551.439062 59.798437) scale(0.1 -0.1)">
      <defs>
       <path id="DejaVuSans-2d" d="M 313 2009 
L 1997 2009 
L 1997 1497 
L 313 1497 
L 313 2009 
z
" transform="scale(0.015625)"/>
       <path id="DejaVuSans-53" d="M 3425 4513 
L 3425 3897 
Q 3066 4069 2747 4153 
Q 2428 4238 2131 4238 
Q 1616 4238 1336 4038 
Q 1056 3838 1056 3469 
Q 1056 3159 1242 3001 
Q 1428 2844 1947 2747 
L 2328 2669 
Q 3034 2534 3370 2195 
Q 3706 1856 3706 1288 
Q 3706 609 3251 259 
Q 2797 -91 1919 -91 
Q 1588 -91 1214 -16 
Q 841 59 441 206 
L 441 856 
Q 825 641 1194 531 
Q 1563 422 1919 422 
Q 2459 422 2753 634 
Q 3047 847 3047 1241 
Q 3047 1584 2836 1778 
Q 2625 1972 2144 2069 
L 1759 2144 
Q 1053 2284 737 2584 
Q 422 2884 422 3419 
Q 422 4038 858 4394 
Q 1294 4750 2059 4750 
Q 2388 4750 2728 4690 
Q 3069 4631 3425 4513 
z
" transform="scale(0.015625)"/>
       <path id="DejaVuSans-75" d="M 544 1381 
L 544 3500 
L 1119 3500 
L 1119 1403 
Q 1119 906 1312 657 
Q 1506 409 1894 409 
Q 2359 409 2629 706 
Q 2900 1003 2900 1516 
L 2900 3500 
L 3475 3500 
L 3475 0 
L 2900 0 
L 2900 538 
Q 2691 219 2414 64 
Q 2138 -91 1772 -91 
Q 1169 -91 856 284 
Q 544 659 544 1381 
z
M 1991 3584 
L 1991 3584 
z
" transform="scale(0.015625)"/>
       <path id="DejaVuSans-65" d="M 3597 1894 
L 3597 1613 
L 953 1613 
Q 991 1019 1311 708 
Q 1631 397 2203 397 
Q 2534 397 2845 478 
Q 3156 559 3463 722 
L 3463 178 
Q 3153 47 2828 -22 
Q 2503 -91 2169 -91 
Q 1331 -91 842 396 
Q 353 884 353 1716 
Q 353 2575 817 3079 
Q 1281 3584 2069 3584 
Q 2775 3584 3186 3129 
Q 3597 2675 3597 1894 
z
M 3022 2063 
Q 3016 2534 2758 2815 
Q 2500 3097 2075 3097 
Q 1594 3097 1305 2825 
Q 1016 2553 972 2059 
L 3022 2063 
z
" transform="scale(0.015625)"/>
      </defs>
      <use xlink:href="#DejaVuSans-54"/>
      <use xlink:href="#DejaVuSans-72" transform="translate(46.333984 0)"/>
      <use xlink:href="#DejaVuSans-61" transform="translate(87.447266 0)"/>
      <use xlink:href="#DejaVuSans-69" transform="translate(148.726562 0)"/>
      <use xlink:href="#DejaVuSans-6e" transform="translate(176.509766 0)"/>
      <use xlink:href="#DejaVuSans-69" transform="translate(239.888672 0)"/>
      <use xlink:href="#DejaVuSans-6e" transform="translate(267.671875 0)"/>
      <use xlink:href="#DejaVuSans-67" transform="translate(331.050781 0)"/>
      <use xlink:href="#DejaVuSans-2d" transform="translate(394.527344 0)"/>
      <use xlink:href="#DejaVuSans-53" transform="translate(430.611328 0)"/>
      <use xlink:href="#DejaVuSans-6f" transform="translate(494.087891 0)"/>
      <use xlink:href="#DejaVuSans-75" transform="translate(555.269531 0)"/>
      <use xlink:href="#DejaVuSans-72" transform="translate(618.648438 0)"/>
      <use xlink:href="#DejaVuSans-63" transform="translate(657.511719 0)"/>
      <use xlink:href="#DejaVuSans-65" transform="translate(712.492188 0)"/>
     </g>
    </g>
    <g id="line2d_19">
     <path d="M 523.439062 70.976562 
L 533.439062 70.976562 
L 543.439062 70.976562 
" style="fill: none; stroke: #ff7f0e; stroke-width: 1.5; stroke-linecap: square"/>
    </g>
    <g id="text_18">
     <!-- Training-Target -->
     <g transform="translate(551.439062 74.476562) scale(0.1 -0.1)">
      <use xlink:href="#DejaVuSans-54"/>
      <use xlink:href="#DejaVuSans-72" transform="translate(46.333984 0)"/>
      <use xlink:href="#DejaVuSans-61" transform="translate(87.447266 0)"/>
      <use xlink:href="#DejaVuSans-69" transform="translate(148.726562 0)"/>
      <use xlink:href="#DejaVuSans-6e" transform="translate(176.509766 0)"/>
      <use xlink:href="#DejaVuSans-69" transform="translate(239.888672 0)"/>
      <use xlink:href="#DejaVuSans-6e" transform="translate(267.671875 0)"/>
      <use xlink:href="#DejaVuSans-67" transform="translate(331.050781 0)"/>
      <use xlink:href="#DejaVuSans-2d" transform="translate(394.527344 0)"/>
      <use xlink:href="#DejaVuSans-54" transform="translate(421.486328 0)"/>
      <use xlink:href="#DejaVuSans-61" transform="translate(466.070312 0)"/>
      <use xlink:href="#DejaVuSans-72" transform="translate(527.349609 0)"/>
      <use xlink:href="#DejaVuSans-67" transform="translate(566.712891 0)"/>
      <use xlink:href="#DejaVuSans-65" transform="translate(630.189453 0)"/>
      <use xlink:href="#DejaVuSans-74" transform="translate(691.712891 0)"/>
     </g>
    </g>
    <g id="line2d_20">
     <path d="M 523.439062 85.654687 
L 533.439062 85.654687 
L 543.439062 85.654687 
" style="fill: none; stroke: #2ca02c; stroke-width: 1.5; stroke-linecap: square"/>
    </g>
    <g id="text_19">
     <!-- Validating-Source -->
     <g transform="translate(551.439062 89.154687) scale(0.1 -0.1)">
      <use xlink:href="#DejaVuSans-56"/>
      <use xlink:href="#DejaVuSans-61" transform="translate(60.658203 0)"/>
      <use xlink:href="#DejaVuSans-6c" transform="translate(121.9375 0)"/>
      <use xlink:href="#DejaVuSans-69" transform="translate(149.720703 0)"/>
      <use xlink:href="#DejaVuSans-64" transform="translate(177.503906 0)"/>
      <use xlink:href="#DejaVuSans-61" transform="translate(240.980469 0)"/>
      <use xlink:href="#DejaVuSans-74" transform="translate(302.259766 0)"/>
      <use xlink:href="#DejaVuSans-69" transform="translate(341.46875 0)"/>
      <use xlink:href="#DejaVuSans-6e" transform="translate(369.251953 0)"/>
      <use xlink:href="#DejaVuSans-67" transform="translate(432.630859 0)"/>
      <use xlink:href="#DejaVuSans-2d" transform="translate(496.107422 0)"/>
      <use xlink:href="#DejaVuSans-53" transform="translate(532.191406 0)"/>
      <use xlink:href="#DejaVuSans-6f" transform="translate(595.667969 0)"/>
      <use xlink:href="#DejaVuSans-75" transform="translate(656.849609 0)"/>
      <use xlink:href="#DejaVuSans-72" transform="translate(720.228516 0)"/>
      <use xlink:href="#DejaVuSans-63" transform="translate(759.091797 0)"/>
      <use xlink:href="#DejaVuSans-65" transform="translate(814.072266 0)"/>
     </g>
    </g>
    <g id="line2d_21">
     <path d="M 523.439062 100.332812 
L 533.439062 100.332812 
L 543.439062 100.332812 
" style="fill: none; stroke: #d62728; stroke-width: 1.5; stroke-linecap: square"/>
    </g>
    <g id="text_20">
     <!-- Validating-Target -->
     <g transform="translate(551.439062 103.832812) scale(0.1 -0.1)">
      <use xlink:href="#DejaVuSans-56"/>
      <use xlink:href="#DejaVuSans-61" transform="translate(60.658203 0)"/>
      <use xlink:href="#DejaVuSans-6c" transform="translate(121.9375 0)"/>
      <use xlink:href="#DejaVuSans-69" transform="translate(149.720703 0)"/>
      <use xlink:href="#DejaVuSans-64" transform="translate(177.503906 0)"/>
      <use xlink:href="#DejaVuSans-61" transform="translate(240.980469 0)"/>
      <use xlink:href="#DejaVuSans-74" transform="translate(302.259766 0)"/>
      <use xlink:href="#DejaVuSans-69" transform="translate(341.46875 0)"/>
      <use xlink:href="#DejaVuSans-6e" transform="translate(369.251953 0)"/>
      <use xlink:href="#DejaVuSans-67" transform="translate(432.630859 0)"/>
      <use xlink:href="#DejaVuSans-2d" transform="translate(496.107422 0)"/>
      <use xlink:href="#DejaVuSans-54" transform="translate(523.066406 0)"/>
      <use xlink:href="#DejaVuSans-61" transform="translate(567.650391 0)"/>
      <use xlink:href="#DejaVuSans-72" transform="translate(628.929688 0)"/>
      <use xlink:href="#DejaVuSans-67" transform="translate(668.292969 0)"/>
      <use xlink:href="#DejaVuSans-65" transform="translate(731.769531 0)"/>
      <use xlink:href="#DejaVuSans-74" transform="translate(793.292969 0)"/>
     </g>
    </g>
   </g>
  </g>
 </g>
 <defs>
  <clipPath id="p5b65578893">
   <rect x="90" y="43.2" width="558" height="277.2"/>
  </clipPath>
 </defs>
</svg>
