<?xml version="1.0" encoding="utf-8" standalone="no"?>
<!DOCTYPE svg PUBLIC "-//W3C//DTD SVG 1.1//EN"
  "http://www.w3.org/Graphics/SVG/1.1/DTD/svg11.dtd">
<svg xmlns:xlink="http://www.w3.org/1999/xlink" width="720pt" height="360pt" viewBox="0 0 720 360" xmlns="http://www.w3.org/2000/svg" version="1.1">
 <metadata>
  <rdf:RDF xmlns:dc="http://purl.org/dc/elements/1.1/" xmlns:cc="http://creativecommons.org/ns#" xmlns:rdf="http://www.w3.org/1999/02/22-rdf-syntax-ns#">
   <cc:Work>
    <dc:type rdf:resource="http://purl.org/dc/dcmitype/StillImage"/>
    <dc:date>2025-11-17T06:52:23.937894</dc:date>
    <dc:format>image/svg+xml</dc:format>
    <dc:creator>
     <cc:Agent>
      <dc:title>Matplotlib v3.10.1, https://matplotlib.org/</dc:title>
     </cc:Agent>
    </dc:creator>
   </cc:Work>
  </rdf:RDF>
 </metadata>
 <defs>
  <style type="text/css">*{stroke-linejoin: round; stroke-linecap: butt}</style>
 </defs>
 <g id="figure_1">
  <g id="patch_1">
   <path d="M 0 360 
L 720 360 
L 720 0 
L 0 0 
z
" style="fill: #ffffff"/>
  </g>
  <g id="axes_1">
   <g id="patch_2">
    <path d="M 90 320.4 
L 648 320.4 
L 648 43.2 
L 90 43.2 
z
" style="fill: #ffffff"/>
   </g>
   <g id="matplotlib.axis_1">
    <g id="xtick_1">
     <g id="line2d_1">
      <defs>
       <path id="m98c7a447c8" d="M 0 0 
L 0 3.5 
" style="stroke: #000000; stroke-width: 0.8"/>
      </defs>
      <g>
       <use xlink:href="#m98c7a447c8" x="115.363636" y="320.4" style="stroke: #000000; stroke-width: 0.8"/>
      </g>
     </g>
     <g id="text_1">
      <!-- 0 -->
      <g transform="translate(112.182386 334.998438) scale(0.1 -0.1)">
       <defs>
        <path id="DejaVuSans-30" d="M 2034 4250 
Q 1547 4250 1301 3770 
Q 1056 3291 1056 2328 
Q 1056 1369 1301 889 
Q 1547 409 2034 409 
Q 2525 409 2770 889 
Q 3016 1369 3016 2328 
Q 3016 3291 2770 3770 
Q 2525 4250 2034 4250 
z
M 2034 4750 
Q 2819 4750 3233 4129 
Q 3647 3509 3647 2328 
Q 3647 1150 3233 529 
Q 2819 -91 2034 -91 
Q 1250 -91 836 529 
Q 422 1150 422 2328 
Q 422 3509 836 4129 
Q 1250 4750 2034 4750 
z
" transform="scale(0.015625)"/>
       </defs>
       <use xlink:href="#DejaVuSans-30"/>
      </g>
     </g>
    </g>
    <g id="xtick_2">
     <g id="line2d_2">
      <g>
       <use xlink:href="#m98c7a447c8" x="217.157495" y="320.4" style="stroke: #000000; stroke-width: 0.8"/>
      </g>
     </g>
     <g id="text_2">
      <!-- 60 -->
      <g transform="translate(210.794995 334.998438) scale(0.1 -0.1)">
       <defs>
        <path id="DejaVuSans-36" d="M 2113 2584 
Q 1688 2584 1439 2293 
Q 1191 2003 1191 1497 
Q 1191 994 1439 701 
Q 1688 409 2113 409 
Q 2538 409 2786 701 
Q 3034 994 3034 1497 
Q 3034 2003 2786 2293 
Q 2538 2584 2113 2584 
z
M 3366 4563 
L 3366 3988 
Q 3128 4100 2886 4159 
Q 2644 4219 2406 4219 
Q 1781 4219 1451 3797 
Q 1122 3375 1075 2522 
Q 1259 2794 1537 2939 
Q 1816 3084 2150 3084 
Q 2853 3084 3261 2657 
Q 3669 2231 3669 1497 
Q 3669 778 3244 343 
Q 2819 -91 2113 -91 
Q 1303 -91 875 529 
Q 447 1150 447 2328 
Q 447 3434 972 4092 
Q 1497 4750 2381 4750 
Q 2619 4750 2861 4703 
Q 3103 4656 3366 4563 
z
" transform="scale(0.015625)"/>
       </defs>
       <use xlink:href="#DejaVuSans-36"/>
       <use xlink:href="#DejaVuSans-30" transform="translate(63.623047 0)"/>
      </g>
     </g>
    </g>
    <g id="xtick_3">
     <g id="line2d_3">
      <g>
       <use xlink:href="#m98c7a447c8" x="318.951353" y="320.4" style="stroke: #000000; stroke-width: 0.8"/>
      </g>
     </g>
     <g id="text_3">
      <!-- 120 -->
      <g transform="translate(309.407603 334.998438) scale(0.1 -0.1)">
       <defs>
        <path id="DejaVuSans-31" d="M 794 531 
L 1825 531 
L 1825 4091 
L 703 3866 
L 703 4441 
L 1819 4666 
L 2450 4666 
L 2450 531 
L 3481 531 
L 3481 0 
L 794 0 
L 794 531 
z
" transform="scale(0.015625)"/>
        <path id="DejaVuSans-32" d="M 1228 531 
L 3431 531 
L 3431 0 
L 469 0 
L 469 531 
Q 828 903 1448 1529 
Q 2069 2156 2228 2338 
Q 2531 2678 2651 2914 
Q 2772 3150 2772 3378 
Q 2772 3750 2511 3984 
Q 2250 4219 1831 4219 
Q 1534 4219 1204 4116 
Q 875 4013 500 3803 
L 500 4441 
Q 881 4594 1212 4672 
Q 1544 4750 1819 4750 
Q 2544 4750 2975 4387 
Q 3406 4025 3406 3419 
Q 3406 3131 3298 2873 
Q 3191 2616 2906 2266 
Q 2828 2175 2409 1742 
Q 1991 1309 1228 531 
z
" transform="scale(0.015625)"/>
       </defs>
       <use xlink:href="#DejaVuSans-31"/>
       <use xlink:href="#DejaVuSans-32" transform="translate(63.623047 0)"/>
       <use xlink:href="#DejaVuSans-30" transform="translate(127.246094 0)"/>
      </g>
     </g>
    </g>
    <g id="xtick_4">
     <g id="line2d_4">
      <g>
       <use xlink:href="#m98c7a447c8" x="420.745211" y="320.4" style="stroke: #000000; stroke-width: 0.8"/>
      </g>
     </g>
     <g id="text_4">
      <!-- 180 -->
      <g transform="translate(411.201461 334.998438) scale(0.1 -0.1)">
       <defs>
        <path id="DejaVuSans-38" d="M 2034 2216 
Q 1584 2216 1326 1975 
Q 1069 1734 1069 1313 
Q 1069 891 1326 650 
Q 1584 409 2034 409 
Q 2484 409 2743 651 
Q 3003 894 3003 1313 
Q 3003 1734 2745 1975 
Q 2488 2216 2034 2216 
z
M 1403 2484 
Q 997 2584 770 2862 
Q 544 3141 544 3541 
Q 544 4100 942 4425 
Q 1341 4750 2034 4750 
Q 2731 4750 3128 4425 
Q 3525 4100 3525 3541 
Q 3525 3141 3298 2862 
Q 3072 2584 2669 2484 
Q 3125 2378 3379 2068 
Q 3634 1759 3634 1313 
Q 3634 634 3220 271 
Q 2806 -91 2034 -91 
Q 1263 -91 848 271 
Q 434 634 434 1313 
Q 434 1759 690 2068 
Q 947 2378 1403 2484 
z
M 1172 3481 
Q 1172 3119 1398 2916 
Q 1625 2713 2034 2713 
Q 2441 2713 2670 2916 
Q 2900 3119 2900 3481 
Q 2900 3844 2670 4047 
Q 2441 4250 2034 4250 
Q 1625 4250 1398 4047 
Q 1172 3844 1172 3481 
z
" transform="scale(0.015625)"/>
       </defs>
       <use xlink:href="#DejaVuSans-31"/>
       <use xlink:href="#DejaVuSans-38" transform="translate(63.623047 0)"/>
       <use xlink:href="#DejaVuSans-30" transform="translate(127.246094 0)"/>
      </g>
     </g>
    </g>
    <g id="xtick_5">
     <g id="line2d_5">
      <g>
       <use xlink:href="#m98c7a447c8" x="522.53907" y="320.4" style="stroke: #000000; stroke-width: 0.8"/>
      </g>
     </g>
     <g id="text_5">
      <!-- 240 -->
      <g transform="translate(512.99532 334.998438) scale(0.1 -0.1)">
       <defs>
        <path id="DejaVuSans-34" d="M 2419 4116 
L 825 1625 
L 2419 1625 
L 2419 4116 
z
M 2253 4666 
L 3047 4666 
L 3047 1625 
L 3713 1625 
L 3713 1100 
L 3047 1100 
L 3047 0 
L 2419 0 
L 2419 1100 
L 313 1100 
L 313 1709 
L 2253 4666 
z
" transform="scale(0.015625)"/>
       </defs>
       <use xlink:href="#DejaVuSans-32"/>
       <use xlink:href="#DejaVuSans-34" transform="translate(63.623047 0)"/>
       <use xlink:href="#DejaVuSans-30" transform="translate(127.246094 0)"/>
      </g>
     </g>
    </g>
    <g id="text_6">
     <!-- Epoch -->
     <g transform="translate(353.689062 348.676562) scale(0.1 -0.1)">
      <defs>
       <path id="DejaVuSans-45" d="M 628 4666 
L 3578 4666 
L 3578 4134 
L 1259 4134 
L 1259 2753 
L 3481 2753 
L 3481 2222 
L 1259 2222 
L 1259 531 
L 3634 531 
L 3634 0 
L 628 0 
L 628 4666 
z
" transform="scale(0.015625)"/>
       <path id="DejaVuSans-70" d="M 1159 525 
L 1159 -1331 
L 581 -1331 
L 581 3500 
L 1159 3500 
L 1159 2969 
Q 1341 3281 1617 3432 
Q 1894 3584 2278 3584 
Q 2916 3584 3314 3078 
Q 3713 2572 3713 1747 
Q 3713 922 3314 415 
Q 2916 -91 2278 -91 
Q 1894 -91 1617 61 
Q 1341 213 1159 525 
z
M 3116 1747 
Q 3116 2381 2855 2742 
Q 2594 3103 2138 3103 
Q 1681 3103 1420 2742 
Q 1159 2381 1159 1747 
Q 1159 1113 1420 752 
Q 1681 391 2138 391 
Q 2594 391 2855 752 
Q 3116 1113 3116 1747 
z
" transform="scale(0.015625)"/>
       <path id="DejaVuSans-6f" d="M 1959 3097 
Q 1497 3097 1228 2736 
Q 959 2375 959 1747 
Q 959 1119 1226 758 
Q 1494 397 1959 397 
Q 2419 397 2687 759 
Q 2956 1122 2956 1747 
Q 2956 2369 2687 2733 
Q 2419 3097 1959 3097 
z
M 1959 3584 
Q 2709 3584 3137 3096 
Q 3566 2609 3566 1747 
Q 3566 888 3137 398 
Q 2709 -91 1959 -91 
Q 1206 -91 779 398 
Q 353 888 353 1747 
Q 353 2609 779 3096 
Q 1206 3584 1959 3584 
z
" transform="scale(0.015625)"/>
       <path id="DejaVuSans-63" d="M 3122 3366 
L 3122 2828 
Q 2878 2963 2633 3030 
Q 2388 3097 2138 3097 
Q 1578 3097 1268 2742 
Q 959 2388 959 1747 
Q 959 1106 1268 751 
Q 1578 397 2138 397 
Q 2388 397 2633 464 
Q 2878 531 3122 666 
L 3122 134 
Q 2881 22 2623 -34 
Q 2366 -91 2075 -91 
Q 1284 -91 818 406 
Q 353 903 353 1747 
Q 353 2603 823 3093 
Q 1294 3584 2113 3584 
Q 2378 3584 2631 3529 
Q 2884 3475 3122 3366 
z
" transform="scale(0.015625)"/>
       <path id="DejaVuSans-68" d="M 3513 2113 
L 3513 0 
L 2938 0 
L 2938 2094 
Q 2938 2591 2744 2837 
Q 2550 3084 2163 3084 
Q 1697 3084 1428 2787 
Q 1159 2491 1159 1978 
L 1159 0 
L 581 0 
L 581 4863 
L 1159 4863 
L 1159 2956 
Q 1366 3272 1645 3428 
Q 1925 3584 2291 3584 
Q 2894 3584 3203 3211 
Q 3513 2838 3513 2113 
z
" transform="scale(0.015625)"/>
      </defs>
      <use xlink:href="#DejaVuSans-45"/>
      <use xlink:href="#DejaVuSans-70" transform="translate(63.183594 0)"/>
      <use xlink:href="#DejaVuSans-6f" transform="translate(126.660156 0)"/>
      <use xlink:href="#DejaVuSans-63" transform="translate(187.841797 0)"/>
      <use xlink:href="#DejaVuSans-68" transform="translate(242.822266 0)"/>
     </g>
    </g>
   </g>
   <g id="matplotlib.axis_2">
    <g id="ytick_1">
     <g id="line2d_6">
      <defs>
       <path id="ma8c45e572f" d="M 0 0 
L -3.5 0 
" style="stroke: #000000; stroke-width: 0.8"/>
      </defs>
      <g>
       <use xlink:href="#ma8c45e572f" x="90" y="308.176102" style="stroke: #000000; stroke-width: 0.8"/>
      </g>
     </g>
     <g id="text_7">
      <!-- 0.00 -->
      <g transform="translate(60.734375 311.975321) scale(0.1 -0.1)">
       <defs>
        <path id="DejaVuSans-2e" d="M 684 794 
L 1344 794 
L 1344 0 
L 684 0 
L 684 794 
z
" transform="scale(0.015625)"/>
       </defs>
       <use xlink:href="#DejaVuSans-30"/>
       <use xlink:href="#DejaVuSans-2e" transform="translate(63.623047 0)"/>
       <use xlink:href="#DejaVuSans-30" transform="translate(95.410156 0)"/>
       <use xlink:href="#DejaVuSans-30" transform="translate(159.033203 0)"/>
      </g>
     </g>
    </g>
    <g id="ytick_2">
     <g id="line2d_7">
      <g>
       <use xlink:href="#ma8c45e572f" x="90" y="270.455367" style="stroke: #000000; stroke-width: 0.8"/>
      </g>
     </g>
     <g id="text_8">
      <!-- 0.02 -->
      <g transform="translate(60.734375 274.254586) scale(0.1 -0.1)">
       <use xlink:href="#DejaVuSans-30"/>
       <use xlink:href="#DejaVuSans-2e" transform="translate(63.623047 0)"/>
       <use xlink:href="#DejaVuSans-30" transform="translate(95.410156 0)"/>
       <use xlink:href="#DejaVuSans-32" transform="translate(159.033203 0)"/>
      </g>
     </g>
    </g>
    <g id="ytick_3">
     <g id="line2d_8">
      <g>
       <use xlink:href="#ma8c45e572f" x="90" y="232.734632" style="stroke: #000000; stroke-width: 0.8"/>
      </g>
     </g>
     <g id="text_9">
      <!-- 0.04 -->
      <g transform="translate(60.734375 236.533851) scale(0.1 -0.1)">
       <use xlink:href="#DejaVuSans-30"/>
       <use xlink:href="#DejaVuSans-2e" transform="translate(63.623047 0)"/>
       <use xlink:href="#DejaVuSans-30" transform="translate(95.410156 0)"/>
       <use xlink:href="#DejaVuSans-34" transform="translate(159.033203 0)"/>
      </g>
     </g>
    </g>
    <g id="ytick_4">
     <g id="line2d_9">
      <g>
       <use xlink:href="#ma8c45e572f" x="90" y="195.013897" style="stroke: #000000; stroke-width: 0.8"/>
      </g>
     </g>
     <g id="text_10">
      <!-- 0.06 -->
      <g transform="translate(60.734375 198.813115) scale(0.1 -0.1)">
       <use xlink:href="#DejaVuSans-30"/>
       <use xlink:href="#DejaVuSans-2e" transform="translate(63.623047 0)"/>
       <use xlink:href="#DejaVuSans-30" transform="translate(95.410156 0)"/>
       <use xlink:href="#DejaVuSans-36" transform="translate(159.033203 0)"/>
      </g>
     </g>
    </g>
    <g id="ytick_5">
     <g id="line2d_10">
      <g>
       <use xlink:href="#ma8c45e572f" x="90" y="157.293161" style="stroke: #000000; stroke-width: 0.8"/>
      </g>
     </g>
     <g id="text_11">
      <!-- 0.08 -->
      <g transform="translate(60.734375 161.09238) scale(0.1 -0.1)">
       <use xlink:href="#DejaVuSans-30"/>
       <use xlink:href="#DejaVuSans-2e" transform="translate(63.623047 0)"/>
       <use xlink:href="#DejaVuSans-30" transform="translate(95.410156 0)"/>
       <use xlink:href="#DejaVuSans-38" transform="translate(159.033203 0)"/>
      </g>
     </g>
    </g>
    <g id="ytick_6">
     <g id="line2d_11">
      <g>
       <use xlink:href="#ma8c45e572f" x="90" y="119.572426" style="stroke: #000000; stroke-width: 0.8"/>
      </g>
     </g>
     <g id="text_12">
      <!-- 0.10 -->
      <g transform="translate(60.734375 123.371645) scale(0.1 -0.1)">
       <use xlink:href="#DejaVuSans-30"/>
       <use xlink:href="#DejaVuSans-2e" transform="translate(63.623047 0)"/>
       <use xlink:href="#DejaVuSans-31" transform="translate(95.410156 0)"/>
       <use xlink:href="#DejaVuSans-30" transform="translate(159.033203 0)"/>
      </g>
     </g>
    </g>
    <g id="ytick_7">
     <g id="line2d_12">
      <g>
       <use xlink:href="#ma8c45e572f" x="90" y="81.851691" style="stroke: #000000; stroke-width: 0.8"/>
      </g>
     </g>
     <g id="text_13">
      <!-- 0.12 -->
      <g transform="translate(60.734375 85.65091) scale(0.1 -0.1)">
       <use xlink:href="#DejaVuSans-30"/>
       <use xlink:href="#DejaVuSans-2e" transform="translate(63.623047 0)"/>
       <use xlink:href="#DejaVuSans-31" transform="translate(95.410156 0)"/>
       <use xlink:href="#DejaVuSans-32" transform="translate(159.033203 0)"/>
      </g>
     </g>
    </g>
    <g id="ytick_8">
     <g id="line2d_13">
      <g>
       <use xlink:href="#ma8c45e572f" x="90" y="44.130956" style="stroke: #000000; stroke-width: 0.8"/>
      </g>
     </g>
     <g id="text_14">
      <!-- 0.14 -->
      <g transform="translate(60.734375 47.930174) scale(0.1 -0.1)">
       <use xlink:href="#DejaVuSans-30"/>
       <use xlink:href="#DejaVuSans-2e" transform="translate(63.623047 0)"/>
       <use xlink:href="#DejaVuSans-31" transform="translate(95.410156 0)"/>
       <use xlink:href="#DejaVuSans-34" transform="translate(159.033203 0)"/>
      </g>
     </g>
    </g>
    <g id="text_15">
     <!-- Estimation Loss -->
     <g transform="translate(54.654687 220.98125) rotate(-90) scale(0.1 -0.1)">
      <defs>
       <path id="DejaVuSans-73" d="M 2834 3397 
L 2834 2853 
Q 2591 2978 2328 3040 
Q 2066 3103 1784 3103 
Q 1356 3103 1142 2972 
Q 928 2841 928 2578 
Q 928 2378 1081 2264 
Q 1234 2150 1697 2047 
L 1894 2003 
Q 2506 1872 2764 1633 
Q 3022 1394 3022 966 
Q 3022 478 2636 193 
Q 2250 -91 1575 -91 
Q 1294 -91 989 -36 
Q 684 19 347 128 
L 347 722 
Q 666 556 975 473 
Q 1284 391 1588 391 
Q 1994 391 2212 530 
Q 2431 669 2431 922 
Q 2431 1156 2273 1281 
Q 2116 1406 1581 1522 
L 1381 1569 
Q 847 1681 609 1914 
Q 372 2147 372 2553 
Q 372 3047 722 3315 
Q 1072 3584 1716 3584 
Q 2034 3584 2315 3537 
Q 2597 3491 2834 3397 
z
" transform="scale(0.015625)"/>
       <path id="DejaVuSans-74" d="M 1172 4494 
L 1172 3500 
L 2356 3500 
L 2356 3053 
L 1172 3053 
L 1172 1153 
Q 1172 725 1289 603 
Q 1406 481 1766 481 
L 2356 481 
L 2356 0 
L 1766 0 
Q 1100 0 847 248 
Q 594 497 594 1153 
L 594 3053 
L 172 3053 
L 172 3500 
L 594 3500 
L 594 4494 
L 1172 4494 
z
" transform="scale(0.015625)"/>
       <path id="DejaVuSans-69" d="M 603 3500 
L 1178 3500 
L 1178 0 
L 603 0 
L 603 3500 
z
M 603 4863 
L 1178 4863 
L 1178 4134 
L 603 4134 
L 603 4863 
z
" transform="scale(0.015625)"/>
       <path id="DejaVuSans-6d" d="M 3328 2828 
Q 3544 3216 3844 3400 
Q 4144 3584 4550 3584 
Q 5097 3584 5394 3201 
Q 5691 2819 5691 2113 
L 5691 0 
L 5113 0 
L 5113 2094 
Q 5113 2597 4934 2840 
Q 4756 3084 4391 3084 
Q 3944 3084 3684 2787 
Q 3425 2491 3425 1978 
L 3425 0 
L 2847 0 
L 2847 2094 
Q 2847 2600 2669 2842 
Q 2491 3084 2119 3084 
Q 1678 3084 1418 2786 
Q 1159 2488 1159 1978 
L 1159 0 
L 581 0 
L 581 3500 
L 1159 3500 
L 1159 2956 
Q 1356 3278 1631 3431 
Q 1906 3584 2284 3584 
Q 2666 3584 2933 3390 
Q 3200 3197 3328 2828 
z
" transform="scale(0.015625)"/>
       <path id="DejaVuSans-61" d="M 2194 1759 
Q 1497 1759 1228 1600 
Q 959 1441 959 1056 
Q 959 750 1161 570 
Q 1363 391 1709 391 
Q 2188 391 2477 730 
Q 2766 1069 2766 1631 
L 2766 1759 
L 2194 1759 
z
M 3341 1997 
L 3341 0 
L 2766 0 
L 2766 531 
Q 2569 213 2275 61 
Q 1981 -91 1556 -91 
Q 1019 -91 701 211 
Q 384 513 384 1019 
Q 384 1609 779 1909 
Q 1175 2209 1959 2209 
L 2766 2209 
L 2766 2266 
Q 2766 2663 2505 2880 
Q 2244 3097 1772 3097 
Q 1472 3097 1187 3025 
Q 903 2953 641 2809 
L 641 3341 
Q 956 3463 1253 3523 
Q 1550 3584 1831 3584 
Q 2591 3584 2966 3190 
Q 3341 2797 3341 1997 
z
" transform="scale(0.015625)"/>
       <path id="DejaVuSans-6e" d="M 3513 2113 
L 3513 0 
L 2938 0 
L 2938 2094 
Q 2938 2591 2744 2837 
Q 2550 3084 2163 3084 
Q 1697 3084 1428 2787 
Q 1159 2491 1159 1978 
L 1159 0 
L 581 0 
L 581 3500 
L 1159 3500 
L 1159 2956 
Q 1366 3272 1645 3428 
Q 1925 3584 2291 3584 
Q 2894 3584 3203 3211 
Q 3513 2838 3513 2113 
z
" transform="scale(0.015625)"/>
       <path id="DejaVuSans-20" transform="scale(0.015625)"/>
       <path id="DejaVuSans-4c" d="M 628 4666 
L 1259 4666 
L 1259 531 
L 3531 531 
L 3531 0 
L 628 0 
L 628 4666 
z
" transform="scale(0.015625)"/>
      </defs>
      <use xlink:href="#DejaVuSans-45"/>
      <use xlink:href="#DejaVuSans-73" transform="translate(63.183594 0)"/>
      <use xlink:href="#DejaVuSans-74" transform="translate(115.283203 0)"/>
      <use xlink:href="#DejaVuSans-69" transform="translate(154.492188 0)"/>
      <use xlink:href="#DejaVuSans-6d" transform="translate(182.275391 0)"/>
      <use xlink:href="#DejaVuSans-61" transform="translate(279.6875 0)"/>
      <use xlink:href="#DejaVuSans-74" transform="translate(340.966797 0)"/>
      <use xlink:href="#DejaVuSans-69" transform="translate(380.175781 0)"/>
      <use xlink:href="#DejaVuSans-6f" transform="translate(407.958984 0)"/>
      <use xlink:href="#DejaVuSans-6e" transform="translate(469.140625 0)"/>
      <use xlink:href="#DejaVuSans-20" transform="translate(532.519531 0)"/>
      <use xlink:href="#DejaVuSans-4c" transform="translate(564.306641 0)"/>
      <use xlink:href="#DejaVuSans-6f" transform="translate(618.269531 0)"/>
      <use xlink:href="#DejaVuSans-73" transform="translate(679.451172 0)"/>
      <use xlink:href="#DejaVuSans-73" transform="translate(731.550781 0)"/>
     </g>
    </g>
   </g>
   <g id="line2d_14">
    <path d="M 115.363636 190.84274 
L 117.060201 275.335791 
L 118.756765 289.899429 
L 120.453329 296.266079 
L 122.149894 299.347917 
L 123.846458 301.13048 
L 125.543022 302.252824 
L 127.239587 303.035271 
L 128.936151 303.609204 
L 132.329279 304.387226 
L 137.418972 305.149709 
L 142.508665 305.66363 
L 149.294922 306.079142 
L 156.08118 306.285199 
L 164.564001 306.45027 
L 169.653694 306.534952 
L 173.046823 306.448735 
L 174.743387 306.321612 
L 176.439951 306.02115 
L 178.136516 304.564038 
L 179.83308 303.339606 
L 181.529644 303.940947 
L 183.226209 304.695337 
L 184.922773 305.266047 
L 186.619337 305.546967 
L 195.102159 306.062625 
L 196.798723 305.980991 
L 198.495287 306.033283 
L 200.191852 306.25232 
L 208.674673 306.513098 
L 210.371237 306.408196 
L 212.067802 306.56746 
L 217.157495 306.709138 
L 225.640316 306.910601 
L 249.392216 307.226236 
L 271.447552 307.36499 
L 293.502888 307.333675 
L 295.199453 307.278562 
L 296.896017 307.029378 
L 298.592581 305.554605 
L 300.289146 304.974203 
L 301.98571 304.924905 
L 303.682274 305.580787 
L 305.378839 306.013979 
L 308.771967 306.530451 
L 317.254789 307.040284 
L 318.951353 306.972905 
L 320.647917 307.073549 
L 324.041046 307.107905 
L 327.434175 307.192347 
L 332.523867 307.243123 
L 337.61356 307.282043 
L 347.792946 307.381127 
L 354.579203 307.407615 
L 373.241411 307.501852 
L 378.331104 307.50201 
L 400.38644 307.605685 
L 403.779568 307.605035 
L 405.476133 307.469733 
L 407.172697 307.203203 
L 408.869261 305.922374 
L 410.565825 305.510734 
L 413.958954 306.164092 
L 420.745211 306.854597 
L 424.13834 307.019643 
L 427.531469 307.115882 
L 430.924597 307.209431 
L 441.103983 307.383766 
L 452.979933 307.518319 
L 456.373062 307.527786 
L 503.876862 307.680394 
L 542.897841 307.670916 
L 544.594406 307.416155 
L 546.29097 306.450821 
L 547.987534 306.537941 
L 551.380663 307.257557 
L 556.470356 307.457333 
L 561.560049 307.596585 
L 609.063849 307.78586 
L 622.636364 307.795669 
L 622.636364 307.795669 
" clip-path="url(#p3bded079ea)" style="fill: none; stroke: #1f77b4; stroke-width: 1.5; stroke-linecap: square"/>
   </g>
   <g id="line2d_15">
    <path d="M 115.363636 152.105292 
L 117.060201 200.403339 
L 118.756765 215.263142 
L 120.453329 221.381258 
L 122.149894 223.619125 
L 123.846458 225.376779 
L 127.239587 228.296154 
L 128.936151 229.466478 
L 130.632715 230.825024 
L 137.418972 234.32879 
L 140.812101 235.578677 
L 144.20523 236.514211 
L 150.991487 238.074398 
L 152.688051 238.241355 
L 154.384615 238.287465 
L 157.777744 237.975993 
L 159.474308 238.077794 
L 161.170873 238.45844 
L 169.653694 237.850316 
L 171.350258 238.052728 
L 173.046823 237.839973 
L 174.743387 237.882819 
L 176.439951 236.19548 
L 178.136516 231.819472 
L 179.83308 228.126804 
L 181.529644 228.890191 
L 183.226209 231.7016 
L 186.619337 235.8102 
L 188.315901 237.80362 
L 191.70903 239.857496 
L 195.102159 240.774279 
L 196.798723 241.510992 
L 198.495287 241.380925 
L 200.191852 241.101241 
L 201.888416 242.599462 
L 203.58498 243.619969 
L 205.281545 241.350393 
L 206.978109 242.945471 
L 208.674673 243.844374 
L 210.371237 244.065139 
L 212.067802 244.136769 
L 213.764366 244.783491 
L 218.854059 245.61566 
L 220.550623 245.484732 
L 222.247188 245.516044 
L 223.943752 245.848314 
L 225.640316 245.686913 
L 229.033445 246.111733 
L 230.730009 246.548885 
L 232.426573 246.229408 
L 234.123138 246.411596 
L 237.516266 246.325766 
L 239.212831 246.278373 
L 242.605959 246.767238 
L 244.302524 246.576129 
L 245.999088 246.548935 
L 247.695652 246.63893 
L 254.481909 246.484766 
L 257.875038 246.477637 
L 259.571602 246.367577 
L 261.268167 246.431244 
L 262.964731 246.233506 
L 264.661295 246.3578 
L 266.35786 246.196585 
L 271.447552 246.031877 
L 274.840681 246.208614 
L 278.23381 245.888599 
L 281.626938 245.939518 
L 283.323503 245.544027 
L 285.020067 245.36661 
L 286.716631 244.753209 
L 288.413196 244.354976 
L 290.10976 244.304288 
L 291.806324 244.455689 
L 293.502888 244.806221 
L 295.199453 244.369339 
L 296.896017 243.136995 
L 298.592581 237.631139 
L 300.289146 236.612114 
L 301.98571 234.56285 
L 303.682274 232.908358 
L 305.378839 237.054154 
L 307.075403 239.46355 
L 308.771967 240.891955 
L 310.468531 241.775654 
L 312.165096 242.494639 
L 313.86166 242.594294 
L 317.254789 245.166716 
L 318.951353 245.04647 
L 320.647917 245.825174 
L 322.344482 245.967281 
L 324.041046 245.904549 
L 325.73761 246.565547 
L 329.130739 246.422704 
L 330.827303 246.483064 
L 332.523867 247.110145 
L 334.220432 246.921315 
L 335.916996 247.25023 
L 337.61356 247.140865 
L 341.006689 247.732109 
L 342.703253 246.953728 
L 344.399818 247.065785 
L 347.792946 247.935409 
L 349.48951 247.873499 
L 354.579203 248.238948 
L 357.972332 248.56258 
L 359.668896 248.441144 
L 361.365461 247.913408 
L 363.062025 248.472178 
L 364.758589 248.674236 
L 366.455154 249.061422 
L 369.848282 248.594434 
L 371.544846 248.52946 
L 373.241411 248.653427 
L 374.937975 248.50505 
L 376.634539 248.804667 
L 378.331104 248.987729 
L 380.027668 248.833415 
L 385.117361 248.709166 
L 386.813925 248.522527 
L 388.51049 248.502807 
L 390.207054 248.7359 
L 391.903618 248.810462 
L 398.689875 248.623719 
L 400.38644 248.708371 
L 402.083004 248.561033 
L 403.779568 248.536348 
L 405.476133 247.090059 
L 407.172697 244.962656 
L 408.869261 238.876114 
L 410.565825 234.783738 
L 412.26239 235.971715 
L 413.958954 236.356589 
L 415.655518 238.614703 
L 417.352083 240.577392 
L 422.441776 243.623858 
L 424.13834 243.485439 
L 425.834904 242.876814 
L 427.531469 243.140308 
L 430.924597 245.416403 
L 432.621161 246.116358 
L 434.317726 246.016624 
L 436.01429 246.633581 
L 437.710854 247.710607 
L 441.103983 248.279877 
L 442.800547 248.094814 
L 444.497112 248.285932 
L 446.193676 248.121809 
L 447.89024 248.385292 
L 456.373062 248.360908 
L 458.069626 248.668196 
L 459.76619 248.43716 
L 461.462755 248.376543 
L 463.159319 249.205964 
L 464.855883 248.51506 
L 468.249012 248.483872 
L 469.945576 248.682661 
L 478.428398 248.557601 
L 480.124962 248.061448 
L 481.821526 248.178831 
L 483.518091 248.106164 
L 485.214655 248.325591 
L 486.911219 248.665035 
L 488.607784 248.799964 
L 490.304348 248.518191 
L 492.000912 248.552805 
L 493.697476 248.425309 
L 495.394041 248.579572 
L 497.090605 248.320825 
L 498.787169 248.239444 
L 500.483734 248.472094 
L 502.180298 248.216151 
L 503.876862 248.562989 
L 505.573427 248.700072 
L 507.269991 248.290052 
L 508.966555 248.535011 
L 512.359684 248.620344 
L 514.056248 248.41608 
L 515.752812 248.434193 
L 517.449377 248.664932 
L 520.842505 248.694539 
L 522.53907 248.508064 
L 524.235634 248.574819 
L 525.932198 248.371463 
L 527.628763 248.549499 
L 529.325327 248.562242 
L 531.021891 247.862458 
L 534.41502 247.418359 
L 536.111584 246.850015 
L 537.808148 247.386321 
L 539.504713 247.653173 
L 541.201277 248.127899 
L 542.897841 248.227104 
L 544.594406 246.572444 
L 546.29097 240.825217 
L 547.987534 240.504655 
L 549.684099 243.994386 
L 551.380663 245.957776 
L 553.077227 246.446789 
L 554.773791 246.337131 
L 556.470356 247.460202 
L 558.16692 247.572322 
L 559.863484 248.004872 
L 561.560049 248.222578 
L 563.256613 248.554471 
L 564.953177 247.491007 
L 566.649742 247.980179 
L 570.04287 248.499908 
L 571.739434 247.828286 
L 573.435999 248.395589 
L 576.829127 248.246608 
L 578.525692 248.57388 
L 580.222256 248.375313 
L 581.91882 248.665309 
L 587.008513 248.667485 
L 588.705078 248.840869 
L 590.401642 248.684506 
L 592.098206 248.719667 
L 593.79477 248.874795 
L 595.491335 248.572659 
L 597.187899 248.551247 
L 598.884463 248.765554 
L 600.581028 248.514808 
L 603.974156 248.768908 
L 605.670721 248.631484 
L 607.367285 248.651456 
L 609.063849 248.811834 
L 610.760413 248.698462 
L 612.456978 248.757242 
L 614.153542 248.540097 
L 615.850106 248.770093 
L 617.546671 248.786017 
L 619.243235 248.60046 
L 620.939799 248.613206 
L 622.636364 248.821749 
L 622.636364 248.821749 
" clip-path="url(#p3bded079ea)" style="fill: none; stroke: #ff7f0e; stroke-width: 1.5; stroke-linecap: square"/>
   </g>
   <g id="line2d_16">
    <path d="M 115.363636 233.074139 
L 117.060201 271.407792 
L 118.756765 286.997314 
L 120.453329 293.669651 
L 122.149894 297.173391 
L 123.846458 299.082653 
L 125.543022 300.47518 
L 127.239587 301.172034 
L 128.936151 302.046384 
L 130.632715 302.505058 
L 139.115537 303.824971 
L 152.688051 304.778861 
L 154.384615 304.975779 
L 156.08118 304.816854 
L 161.170873 304.753227 
L 164.564001 305.16867 
L 166.260566 305.018882 
L 169.653694 305.306921 
L 171.350258 305.011235 
L 173.046823 305.005271 
L 174.743387 304.624833 
L 176.439951 303.792562 
L 178.136516 300.276303 
L 179.83308 300.502908 
L 181.529644 302.171829 
L 183.226209 302.627473 
L 184.922773 303.649853 
L 186.619337 303.399322 
L 188.315901 304.028106 
L 190.012466 303.679553 
L 191.70903 304.451323 
L 195.102159 304.338007 
L 196.798723 304.554064 
L 198.495287 304.46599 
L 200.191852 304.699853 
L 201.888416 304.361075 
L 203.58498 305.020275 
L 206.978109 304.449927 
L 208.674673 304.813573 
L 210.371237 305.021465 
L 212.067802 305.373271 
L 213.764366 305.262517 
L 220.550623 305.693602 
L 223.943752 305.395078 
L 225.640316 305.721924 
L 230.730009 305.758142 
L 234.123138 306.070535 
L 239.212831 305.908712 
L 242.605959 306.203178 
L 245.999088 305.610304 
L 247.695652 306.041576 
L 249.392216 306.159822 
L 251.088781 305.898795 
L 252.785345 306.157257 
L 254.481909 306.190927 
L 256.178474 306.050244 
L 259.571602 306.137196 
L 261.268167 306.43653 
L 262.964731 306.041654 
L 264.661295 306.395432 
L 269.750988 306.279918 
L 271.447552 306.370124 
L 276.537245 306.231745 
L 279.930374 306.530182 
L 283.323503 306.401638 
L 285.020067 306.414743 
L 286.716631 306.096826 
L 288.413196 306.323227 
L 290.10976 306.083818 
L 291.806324 306.293202 
L 293.502888 306.307865 
L 295.199453 306.021981 
L 296.896017 305.133025 
L 298.592581 303.540556 
L 300.289146 302.446839 
L 301.98571 302.696327 
L 303.682274 303.63626 
L 307.075403 304.400754 
L 308.771967 304.492901 
L 310.468531 304.713836 
L 312.165096 305.163284 
L 313.86166 305.317599 
L 315.558224 305.661803 
L 317.254789 305.694171 
L 320.647917 305.398582 
L 324.041046 305.948649 
L 325.73761 305.623871 
L 327.434175 305.782202 
L 329.130739 305.751023 
L 330.827303 306.015152 
L 332.523867 306.035818 
L 334.220432 305.57867 
L 335.916996 306.100094 
L 337.61356 306.182974 
L 339.310125 306.03523 
L 341.006689 306.349318 
L 342.703253 306.113029 
L 344.399818 306.431111 
L 346.096382 306.575486 
L 347.792946 306.061659 
L 349.48951 306.172153 
L 351.186075 306.414559 
L 352.882639 306.499206 
L 354.579203 306.261477 
L 356.275768 306.424936 
L 357.972332 306.299711 
L 359.668896 306.539839 
L 361.365461 306.511774 
L 363.062025 306.077864 
L 364.758589 306.441061 
L 366.455154 306.198607 
L 369.848282 306.682511 
L 371.544846 306.706488 
L 373.241411 306.410832 
L 376.634539 306.68068 
L 378.331104 306.449032 
L 380.027668 306.731668 
L 381.724232 306.719217 
L 383.420797 306.536073 
L 385.117361 306.854225 
L 386.813925 306.885701 
L 388.51049 306.606361 
L 390.207054 306.702735 
L 391.903618 306.55403 
L 393.600182 306.692695 
L 395.296747 306.652822 
L 396.993311 306.939823 
L 400.38644 306.648004 
L 402.083004 306.775275 
L 403.779568 306.785071 
L 405.476133 306.389249 
L 407.172697 305.683913 
L 408.869261 303.753661 
L 410.565825 303.989443 
L 412.26239 304.493347 
L 413.958954 303.92224 
L 415.655518 304.565855 
L 417.352083 304.90321 
L 419.048647 304.519107 
L 420.745211 305.351506 
L 422.441776 305.478635 
L 424.13834 305.73844 
L 425.834904 305.474998 
L 427.531469 305.877151 
L 429.228033 305.725091 
L 430.924597 306.324552 
L 432.621161 305.757635 
L 434.317726 306.132815 
L 436.01429 305.964166 
L 437.710854 306.365748 
L 442.800547 306.446367 
L 444.497112 306.632091 
L 447.89024 306.308483 
L 449.586804 306.612177 
L 451.283369 306.353176 
L 452.979933 306.619491 
L 458.069626 306.551566 
L 464.855883 306.794748 
L 466.552448 306.608929 
L 468.249012 306.903206 
L 473.338705 306.728158 
L 476.731833 307.045199 
L 478.428398 306.853176 
L 480.124962 307.099342 
L 481.821526 306.822866 
L 488.607784 307.066747 
L 490.304348 307.230829 
L 492.000912 307.18336 
L 493.697476 306.920685 
L 497.090605 307.101566 
L 498.787169 306.878488 
L 500.483734 307.099841 
L 502.180298 306.809363 
L 503.876862 306.868654 
L 505.573427 306.704881 
L 507.269991 307.117181 
L 508.966555 307.092072 
L 510.663119 306.936713 
L 514.056248 307.079763 
L 515.752812 307.241358 
L 517.449377 307.157065 
L 520.842505 307.262118 
L 524.235634 306.981853 
L 527.628763 307.330765 
L 529.325327 307.0029 
L 531.021891 306.927184 
L 537.808148 307.191614 
L 539.504713 306.994158 
L 541.201277 307.089933 
L 542.897841 306.979485 
L 544.594406 306.193871 
L 546.29097 304.833858 
L 547.987534 305.383953 
L 549.684099 305.798753 
L 551.380663 305.785047 
L 553.077227 306.444859 
L 554.773791 305.907895 
L 556.470356 306.559744 
L 561.560049 306.690552 
L 563.256613 306.622822 
L 564.953177 306.782974 
L 566.649742 307.086898 
L 568.346306 306.821306 
L 570.04287 307.083477 
L 571.739434 306.646257 
L 573.435999 306.995453 
L 575.132563 307.167258 
L 576.829127 306.912792 
L 578.525692 307.25738 
L 580.222256 306.984965 
L 581.91882 307.366264 
L 583.615385 307.124275 
L 585.311949 307.026512 
L 588.705078 307.171921 
L 590.401642 307.378113 
L 592.098206 307.288794 
L 595.491335 307.317477 
L 597.187899 307.017167 
L 598.884463 307.370447 
L 603.974156 307.423724 
L 605.670721 307.126415 
L 607.367285 307.253792 
L 610.760413 307.031894 
L 612.456978 307.410716 
L 614.153542 307.276307 
L 620.939799 307.392252 
L 622.636364 307.157832 
L 622.636364 307.157832 
" clip-path="url(#p3bded079ea)" style="fill: none; stroke: #2ca02c; stroke-width: 1.5; stroke-linecap: square"/>
   </g>
   <g id="line2d_17">
    <path d="M 115.363636 55.8 
L 117.060201 103.601077 
L 118.756765 122.479268 
L 120.453329 128.629645 
L 123.846458 133.8863 
L 125.543022 137.60042 
L 127.239587 139.222179 
L 128.936151 142.431876 
L 130.632715 144.37767 
L 132.329279 146.085389 
L 134.025844 146.9199 
L 135.722408 148.641534 
L 137.418972 150.171422 
L 139.115537 151.01363 
L 140.812101 154.141308 
L 142.508665 154.734827 
L 144.20523 156.13315 
L 145.901794 155.448886 
L 147.598358 158.066179 
L 149.294922 156.446543 
L 150.991487 157.411048 
L 152.688051 158.763707 
L 154.384615 160.282499 
L 156.08118 157.436406 
L 157.777744 160.142844 
L 159.474308 156.821558 
L 161.170873 156.792777 
L 162.867437 157.524383 
L 164.564001 158.62074 
L 166.260566 158.148701 
L 167.95713 158.555472 
L 169.653694 158.394393 
L 171.350258 159.644207 
L 173.046823 157.506588 
L 174.743387 159.993538 
L 176.439951 151.78406 
L 178.136516 140.428993 
L 179.83308 138.613121 
L 181.529644 144.301001 
L 183.226209 145.902572 
L 184.922773 153.448025 
L 186.619337 158.622689 
L 188.315901 159.87933 
L 190.012466 158.745832 
L 191.70903 158.935259 
L 193.405594 165.629488 
L 195.102159 165.738357 
L 196.798723 163.982172 
L 198.495287 164.633375 
L 200.191852 164.270677 
L 201.888416 170.350724 
L 203.58498 166.890523 
L 206.978109 170.429594 
L 208.674673 166.78108 
L 210.371237 173.080742 
L 212.067802 168.154885 
L 213.764366 173.415785 
L 215.46093 171.257846 
L 217.157495 171.583425 
L 218.854059 174.534385 
L 220.550623 174.298525 
L 222.247188 175.13274 
L 223.943752 173.053405 
L 225.640316 175.752543 
L 227.336881 175.984557 
L 229.033445 174.808646 
L 230.730009 173.481235 
L 232.426573 174.157797 
L 234.123138 175.351116 
L 235.819702 173.957039 
L 237.516266 175.801786 
L 239.212831 174.014095 
L 240.909395 175.769665 
L 242.605959 176.242407 
L 244.302524 175.843843 
L 245.999088 175.737263 
L 247.695652 174.239424 
L 249.392216 173.799325 
L 251.088781 177.385751 
L 252.785345 175.061983 
L 254.481909 176.966343 
L 256.178474 175.350621 
L 257.875038 177.037758 
L 259.571602 176.029478 
L 261.268167 177.703716 
L 262.964731 175.681873 
L 264.661295 175.949886 
L 266.35786 175.207935 
L 268.054424 175.537902 
L 269.750988 176.770915 
L 271.447552 177.293602 
L 273.144117 177.23539 
L 274.840681 177.295358 
L 276.537245 175.630224 
L 278.23381 177.238973 
L 279.930374 179.606906 
L 281.626938 177.003868 
L 283.323503 176.823813 
L 285.020067 177.241012 
L 286.716631 173.023548 
L 288.413196 174.990619 
L 290.10976 174.035771 
L 291.806324 176.515139 
L 293.502888 175.10419 
L 295.199453 173.964673 
L 296.896017 168.267783 
L 298.592581 160.408996 
L 300.289146 156.753694 
L 301.98571 144.128306 
L 303.682274 157.435895 
L 305.378839 161.730539 
L 307.075403 165.396326 
L 308.771967 166.542696 
L 310.468531 169.12025 
L 312.165096 170.683123 
L 313.86166 172.599449 
L 315.558224 174.942103 
L 317.254789 175.254304 
L 318.951353 174.577164 
L 322.344482 178.088659 
L 324.041046 175.197795 
L 325.73761 178.248496 
L 327.434175 176.026131 
L 329.130739 175.011856 
L 330.827303 178.318864 
L 332.523867 179.479034 
L 334.220432 175.674913 
L 335.916996 178.238989 
L 337.61356 179.626992 
L 339.310125 179.104482 
L 341.006689 181.264157 
L 342.703253 177.966467 
L 344.399818 179.622292 
L 346.096382 181.936536 
L 347.792946 179.409542 
L 349.48951 179.199372 
L 351.186075 179.7136 
L 352.882639 180.940428 
L 356.275768 181.094023 
L 357.972332 178.655109 
L 359.668896 178.987442 
L 361.365461 178.229054 
L 363.062025 178.563465 
L 364.758589 180.62992 
L 366.455154 180.991504 
L 368.151718 182.152234 
L 369.848282 184.862883 
L 371.544846 180.201502 
L 373.241411 179.300282 
L 374.937975 182.941542 
L 376.634539 183.831495 
L 378.331104 179.735721 
L 380.027668 183.63794 
L 381.724232 185.113254 
L 383.420797 181.064666 
L 385.117361 181.747615 
L 386.813925 180.936175 
L 388.51049 181.491432 
L 390.207054 183.002778 
L 391.903618 182.404819 
L 393.600182 181.484857 
L 395.296747 179.998687 
L 396.993311 180.377854 
L 398.689875 181.109182 
L 400.38644 182.378842 
L 402.083004 180.400681 
L 403.779568 180.987197 
L 405.476133 180.559586 
L 408.869261 160.383966 
L 410.565825 155.920375 
L 412.26239 159.07246 
L 413.958954 156.086184 
L 415.655518 167.665636 
L 417.352083 170.00573 
L 419.048647 170.867956 
L 420.745211 170.325921 
L 422.441776 169.089997 
L 424.13834 171.661494 
L 425.834904 167.511465 
L 427.531469 170.136484 
L 429.228033 169.362355 
L 430.924597 176.956815 
L 432.621161 175.024933 
L 434.317726 176.675181 
L 436.01429 180.606549 
L 437.710854 180.596502 
L 439.407419 180.111113 
L 441.103983 180.664001 
L 442.800547 180.836063 
L 444.497112 180.885239 
L 446.193676 180.171062 
L 447.89024 179.00187 
L 449.586804 180.755287 
L 451.283369 180.335623 
L 452.979933 180.617926 
L 454.676497 179.23876 
L 456.373062 179.789837 
L 458.069626 181.09711 
L 459.76619 183.369719 
L 461.462755 180.916425 
L 463.159319 181.331051 
L 464.855883 183.382568 
L 466.552448 180.915587 
L 468.249012 180.943439 
L 469.945576 180.596433 
L 471.64214 178.04496 
L 473.338705 180.73112 
L 475.035269 179.508483 
L 476.731833 181.466376 
L 478.428398 178.157459 
L 480.124962 181.42557 
L 481.821526 179.521115 
L 483.518091 181.216336 
L 485.214655 177.166356 
L 486.911219 180.099015 
L 488.607784 179.990637 
L 490.304348 181.246295 
L 492.000912 180.096273 
L 493.697476 178.601397 
L 495.394041 181.627899 
L 497.090605 180.814096 
L 498.787169 181.622922 
L 500.483734 180.213109 
L 502.180298 182.244078 
L 503.876862 179.690409 
L 505.573427 182.447752 
L 507.269991 181.023437 
L 508.966555 180.798675 
L 510.663119 181.388362 
L 512.359684 178.580294 
L 514.056248 182.321935 
L 515.752812 182.404951 
L 517.449377 180.927672 
L 519.145941 181.755204 
L 520.842505 182.888777 
L 522.53907 182.104634 
L 524.235634 181.186604 
L 525.932198 180.820522 
L 527.628763 183.912649 
L 529.325327 179.835044 
L 531.021891 180.02147 
L 532.718455 179.304626 
L 534.41502 180.164438 
L 536.111584 179.726246 
L 537.808148 179.166937 
L 539.504713 182.670121 
L 541.201277 180.480685 
L 542.897841 182.427971 
L 544.594406 171.286041 
L 546.29097 164.315162 
L 547.987534 173.497032 
L 549.684099 174.061779 
L 551.380663 176.69234 
L 553.077227 180.142962 
L 554.773791 176.646818 
L 556.470356 176.225545 
L 558.16692 178.963112 
L 559.863484 179.073512 
L 561.560049 179.69037 
L 563.256613 178.36644 
L 564.953177 182.469853 
L 566.649742 182.836605 
L 568.346306 180.770433 
L 570.04287 180.038666 
L 571.739434 177.540105 
L 575.132563 180.449839 
L 576.829127 178.563716 
L 578.525692 181.237706 
L 580.222256 181.20156 
L 581.91882 181.983022 
L 583.615385 180.761367 
L 585.311949 181.597786 
L 587.008513 181.520623 
L 588.705078 182.205565 
L 590.401642 182.342584 
L 592.098206 181.715871 
L 593.79477 183.361922 
L 595.491335 180.384621 
L 597.187899 180.212204 
L 598.884463 181.396134 
L 600.581028 181.065871 
L 602.277592 181.286969 
L 603.974156 182.144439 
L 605.670721 180.520288 
L 607.367285 180.745851 
L 609.063849 180.708603 
L 610.760413 180.913556 
L 612.456978 183.309201 
L 614.153542 181.550255 
L 615.850106 180.98992 
L 617.546671 182.171532 
L 619.243235 180.597899 
L 620.939799 181.793678 
L 622.636364 180.807454 
L 622.636364 180.807454 
" clip-path="url(#p3bded079ea)" style="fill: none; stroke: #d62728; stroke-width: 1.5; stroke-linecap: square"/>
   </g>
   <g id="patch_3">
    <path d="M 90 320.4 
L 90 43.2 
" style="fill: none; stroke: #000000; stroke-width: 0.8; stroke-linejoin: miter; stroke-linecap: square"/>
   </g>
   <g id="patch_4">
    <path d="M 648 320.4 
L 648 43.2 
" style="fill: none; stroke: #000000; stroke-width: 0.8; stroke-linejoin: miter; stroke-linecap: square"/>
   </g>
   <g id="patch_5">
    <path d="M 90 320.4 
L 648 320.4 
" style="fill: none; stroke: #000000; stroke-width: 0.8; stroke-linejoin: miter; stroke-linecap: square"/>
   </g>
   <g id="patch_6">
    <path d="M 90 43.2 
L 648 43.2 
" style="fill: none; stroke: #000000; stroke-width: 0.8; stroke-linejoin: miter; stroke-linecap: square"/>
   </g>
   <g id="text_16">
    <!-- Training and Validating Estimation Loss -->
    <g transform="translate(251.535937 37.2) scale(0.12 -0.12)">
     <defs>
      <path id="DejaVuSans-54" d="M -19 4666 
L 3928 4666 
L 3928 4134 
L 2272 4134 
L 2272 0 
L 1638 0 
L 1638 4134 
L -19 4134 
L -19 4666 
z
" transform="scale(0.015625)"/>
      <path id="DejaVuSans-72" d="M 2631 2963 
Q 2534 3019 2420 3045 
Q 2306 3072 2169 3072 
Q 1681 3072 1420 2755 
Q 1159 2438 1159 1844 
L 1159 0 
L 581 0 
L 581 3500 
L 1159 3500 
L 1159 2956 
Q 1341 3275 1631 3429 
Q 1922 3584 2338 3584 
Q 2397 3584 2469 3576 
Q 2541 3569 2628 3553 
L 2631 2963 
z
" transform="scale(0.015625)"/>
      <path id="DejaVuSans-67" d="M 2906 1791 
Q 2906 2416 2648 2759 
Q 2391 3103 1925 3103 
Q 1463 3103 1205 2759 
Q 947 2416 947 1791 
Q 947 1169 1205 825 
Q 1463 481 1925 481 
Q 2391 481 2648 825 
Q 2906 1169 2906 1791 
z
M 3481 434 
Q 3481 -459 3084 -895 
Q 2688 -1331 1869 -1331 
Q 1566 -1331 1297 -1286 
Q 1028 -1241 775 -1147 
L 775 -588 
Q 1028 -725 1275 -790 
Q 1522 -856 1778 -856 
Q 2344 -856 2625 -561 
Q 2906 -266 2906 331 
L 2906 616 
Q 2728 306 2450 153 
Q 2172 0 1784 0 
Q 1141 0 747 490 
Q 353 981 353 1791 
Q 353 2603 747 3093 
Q 1141 3584 1784 3584 
Q 2172 3584 2450 3431 
Q 2728 3278 2906 2969 
L 2906 3500 
L 3481 3500 
L 3481 434 
z
" transform="scale(0.015625)"/>
      <path id="DejaVuSans-64" d="M 2906 2969 
L 2906 4863 
L 3481 4863 
L 3481 0 
L 2906 0 
L 2906 525 
Q 2725 213 2448 61 
Q 2172 -91 1784 -91 
Q 1150 -91 751 415 
Q 353 922 353 1747 
Q 353 2572 751 3078 
Q 1150 3584 1784 3584 
Q 2172 3584 2448 3432 
Q 2725 3281 2906 2969 
z
M 947 1747 
Q 947 1113 1208 752 
Q 1469 391 1925 391 
Q 2381 391 2643 752 
Q 2906 1113 2906 1747 
Q 2906 2381 2643 2742 
Q 2381 3103 1925 3103 
Q 1469 3103 1208 2742 
Q 947 2381 947 1747 
z
" transform="scale(0.015625)"/>
      <path id="DejaVuSans-56" d="M 1831 0 
L 50 4666 
L 709 4666 
L 2188 738 
L 3669 4666 
L 4325 4666 
L 2547 0 
L 1831 0 
z
" transform="scale(0.015625)"/>
      <path id="DejaVuSans-6c" d="M 603 4863 
L 1178 4863 
L 1178 0 
L 603 0 
L 603 4863 
z
" transform="scale(0.015625)"/>
     </defs>
     <use xlink:href="#DejaVuSans-54"/>
     <use xlink:href="#DejaVuSans-72" transform="translate(46.333984 0)"/>
     <use xlink:href="#DejaVuSans-61" transform="translate(87.447266 0)"/>
     <use xlink:href="#DejaVuSans-69" transform="translate(148.726562 0)"/>
     <use xlink:href="#DejaVuSans-6e" transform="translate(176.509766 0)"/>
     <use xlink:href="#DejaVuSans-69" transform="translate(239.888672 0)"/>
     <use xlink:href="#DejaVuSans-6e" transform="translate(267.671875 0)"/>
     <use xlink:href="#DejaVuSans-67" transform="translate(331.050781 0)"/>
     <use xlink:href="#DejaVuSans-20" transform="translate(394.527344 0)"/>
     <use xlink:href="#DejaVuSans-61" transform="translate(426.314453 0)"/>
     <use xlink:href="#DejaVuSans-6e" transform="translate(487.59375 0)"/>
     <use xlink:href="#DejaVuSans-64" transform="translate(550.972656 0)"/>
     <use xlink:href="#DejaVuSans-20" transform="translate(614.449219 0)"/>
     <use xlink:href="#DejaVuSans-56" transform="translate(646.236328 0)"/>
     <use xlink:href="#DejaVuSans-61" transform="translate(706.894531 0)"/>
     <use xlink:href="#DejaVuSans-6c" transform="translate(768.173828 0)"/>
     <use xlink:href="#DejaVuSans-69" transform="translate(795.957031 0)"/>
     <use xlink:href="#DejaVuSans-64" transform="translate(823.740234 0)"/>
     <use xlink:href="#DejaVuSans-61" transform="translate(887.216797 0)"/>
     <use xlink:href="#DejaVuSans-74" transform="translate(948.496094 0)"/>
     <use xlink:href="#DejaVuSans-69" transform="translate(987.705078 0)"/>
     <use xlink:href="#DejaVuSans-6e" transform="translate(1015.488281 0)"/>
     <use xlink:href="#DejaVuSans-67" transform="translate(1078.867188 0)"/>
     <use xlink:href="#DejaVuSans-20" transform="translate(1142.34375 0)"/>
     <use xlink:href="#DejaVuSans-45" transform="translate(1174.130859 0)"/>
     <use xlink:href="#DejaVuSans-73" transform="translate(1237.314453 0)"/>
     <use xlink:href="#DejaVuSans-74" transform="translate(1289.414062 0)"/>
     <use xlink:href="#DejaVuSans-69" transform="translate(1328.623047 0)"/>
     <use xlink:href="#DejaVuSans-6d" transform="translate(1356.40625 0)"/>
     <use xlink:href="#DejaVuSans-61" transform="translate(1453.818359 0)"/>
     <use xlink:href="#DejaVuSans-74" transform="translate(1515.097656 0)"/>
     <use xlink:href="#DejaVuSans-69" transform="translate(1554.306641 0)"/>
     <use xlink:href="#DejaVuSans-6f" transform="translate(1582.089844 0)"/>
     <use xlink:href="#DejaVuSans-6e" transform="translate(1643.271484 0)"/>
     <use xlink:href="#DejaVuSans-20" transform="translate(1706.650391 0)"/>
     <use xlink:href="#DejaVuSans-4c" transform="translate(1738.4375 0)"/>
     <use xlink:href="#DejaVuSans-6f" transform="translate(1792.400391 0)"/>
     <use xlink:href="#DejaVuSans-73" transform="translate(1853.582031 0)"/>
     <use xlink:href="#DejaVuSans-73" transform="translate(1905.681641 0)"/>
    </g>
   </g>
   <g id="legend_1">
    <g id="patch_7">
     <path d="M 521.439062 109.9125 
L 641 109.9125 
Q 643 109.9125 643 107.9125 
L 643 50.2 
Q 643 48.2 641 48.2 
L 521.439062 48.2 
Q 519.439062 48.2 519.439062 50.2 
L 519.439062 107.9125 
Q 519.439062 109.9125 521.439062 109.9125 
z
" style="fill: #ffffff; opacity: 0.8; stroke: #cccccc; stroke-linejoin: miter"/>
    </g>
    <g id="line2d_18">
     <path d="M 523.439062 56.298437 
L 533.439062 56.298437 
L 543.439062 56.298437 
" style="fill: none; stroke: #1f77b4; stroke-width: 1.5; stroke-linecap: square"/>
    </g>
    <g id="text_17">
     <!-- Training-Source -->
     <g transform="translate(551.439062 59.798437) scale(0.1 -0.1)">
      <defs>
       <path id="DejaVuSans-2d" d="M 313 2009 
L 1997 2009 
L 1997 1497 
L 313 1497 
L 313 2009 
z
" transform="scale(0.015625)"/>
       <path id="DejaVuSans-53" d="M 3425 4513 
L 3425 3897 
Q 3066 4069 2747 4153 
Q 2428 4238 2131 4238 
Q 1616 4238 1336 4038 
Q 1056 3838 1056 3469 
Q 1056 3159 1242 3001 
Q 1428 2844 1947 2747 
L 2328 2669 
Q 3034 2534 3370 2195 
Q 3706 1856 3706 1288 
Q 3706 609 3251 259 
Q 2797 -91 1919 -91 
Q 1588 -91 1214 -16 
Q 841 59 441 206 
L 441 856 
Q 825 641 1194 531 
Q 1563 422 1919 422 
Q 2459 422 2753 634 
Q 3047 847 3047 1241 
Q 3047 1584 2836 1778 
Q 2625 1972 2144 2069 
L 1759 2144 
Q 1053 2284 737 2584 
Q 422 2884 422 3419 
Q 422 4038 858 4394 
Q 1294 4750 2059 4750 
Q 2388 4750 2728 4690 
Q 3069 4631 3425 4513 
z
" transform="scale(0.015625)"/>
       <path id="DejaVuSans-75" d="M 544 1381 
L 544 3500 
L 1119 3500 
L 1119 1403 
Q 1119 906 1312 657 
Q 1506 409 1894 409 
Q 2359 409 2629 706 
Q 2900 1003 2900 1516 
L 2900 3500 
L 3475 3500 
L 3475 0 
L 2900 0 
L 2900 538 
Q 2691 219 2414 64 
Q 2138 -91 1772 -91 
Q 1169 -91 856 284 
Q 544 659 544 1381 
z
M 1991 3584 
L 1991 3584 
z
" transform="scale(0.015625)"/>
       <path id="DejaVuSans-65" d="M 3597 1894 
L 3597 1613 
L 953 1613 
Q 991 1019 1311 708 
Q 1631 397 2203 397 
Q 2534 397 2845 478 
Q 3156 559 3463 722 
L 3463 178 
Q 3153 47 2828 -22 
Q 2503 -91 2169 -91 
Q 1331 -91 842 396 
Q 353 884 353 1716 
Q 353 2575 817 3079 
Q 1281 3584 2069 3584 
Q 2775 3584 3186 3129 
Q 3597 2675 3597 1894 
z
M 3022 2063 
Q 3016 2534 2758 2815 
Q 2500 3097 2075 3097 
Q 1594 3097 1305 2825 
Q 1016 2553 972 2059 
L 3022 2063 
z
" transform="scale(0.015625)"/>
      </defs>
      <use xlink:href="#DejaVuSans-54"/>
      <use xlink:href="#DejaVuSans-72" transform="translate(46.333984 0)"/>
      <use xlink:href="#DejaVuSans-61" transform="translate(87.447266 0)"/>
      <use xlink:href="#DejaVuSans-69" transform="translate(148.726562 0)"/>
      <use xlink:href="#DejaVuSans-6e" transform="translate(176.509766 0)"/>
      <use xlink:href="#DejaVuSans-69" transform="translate(239.888672 0)"/>
      <use xlink:href="#DejaVuSans-6e" transform="translate(267.671875 0)"/>
      <use xlink:href="#DejaVuSans-67" transform="translate(331.050781 0)"/>
      <use xlink:href="#DejaVuSans-2d" transform="translate(394.527344 0)"/>
      <use xlink:href="#DejaVuSans-53" transform="translate(430.611328 0)"/>
      <use xlink:href="#DejaVuSans-6f" transform="translate(494.087891 0)"/>
      <use xlink:href="#DejaVuSans-75" transform="translate(555.269531 0)"/>
      <use xlink:href="#DejaVuSans-72" transform="translate(618.648438 0)"/>
      <use xlink:href="#DejaVuSans-63" transform="translate(657.511719 0)"/>
      <use xlink:href="#DejaVuSans-65" transform="translate(712.492188 0)"/>
     </g>
    </g>
    <g id="line2d_19">
     <path d="M 523.439062 70.976562 
L 533.439062 70.976562 
L 543.439062 70.976562 
" style="fill: none; stroke: #ff7f0e; stroke-width: 1.5; stroke-linecap: square"/>
    </g>
    <g id="text_18">
     <!-- Training-Target -->
     <g transform="translate(551.439062 74.476562) scale(0.1 -0.1)">
      <use xlink:href="#DejaVuSans-54"/>
      <use xlink:href="#DejaVuSans-72" transform="translate(46.333984 0)"/>
      <use xlink:href="#DejaVuSans-61" transform="translate(87.447266 0)"/>
      <use xlink:href="#DejaVuSans-69" transform="translate(148.726562 0)"/>
      <use xlink:href="#DejaVuSans-6e" transform="translate(176.509766 0)"/>
      <use xlink:href="#DejaVuSans-69" transform="translate(239.888672 0)"/>
      <use xlink:href="#DejaVuSans-6e" transform="translate(267.671875 0)"/>
      <use xlink:href="#DejaVuSans-67" transform="translate(331.050781 0)"/>
      <use xlink:href="#DejaVuSans-2d" transform="translate(394.527344 0)"/>
      <use xlink:href="#DejaVuSans-54" transform="translate(421.486328 0)"/>
      <use xlink:href="#DejaVuSans-61" transform="translate(466.070312 0)"/>
      <use xlink:href="#DejaVuSans-72" transform="translate(527.349609 0)"/>
      <use xlink:href="#DejaVuSans-67" transform="translate(566.712891 0)"/>
      <use xlink:href="#DejaVuSans-65" transform="translate(630.189453 0)"/>
      <use xlink:href="#DejaVuSans-74" transform="translate(691.712891 0)"/>
     </g>
    </g>
    <g id="line2d_20">
     <path d="M 523.439062 85.654687 
L 533.439062 85.654687 
L 543.439062 85.654687 
" style="fill: none; stroke: #2ca02c; stroke-width: 1.5; stroke-linecap: square"/>
    </g>
    <g id="text_19">
     <!-- Validating-Source -->
     <g transform="translate(551.439062 89.154687) scale(0.1 -0.1)">
      <use xlink:href="#DejaVuSans-56"/>
      <use xlink:href="#DejaVuSans-61" transform="translate(60.658203 0)"/>
      <use xlink:href="#DejaVuSans-6c" transform="translate(121.9375 0)"/>
      <use xlink:href="#DejaVuSans-69" transform="translate(149.720703 0)"/>
      <use xlink:href="#DejaVuSans-64" transform="translate(177.503906 0)"/>
      <use xlink:href="#DejaVuSans-61" transform="translate(240.980469 0)"/>
      <use xlink:href="#DejaVuSans-74" transform="translate(302.259766 0)"/>
      <use xlink:href="#DejaVuSans-69" transform="translate(341.46875 0)"/>
      <use xlink:href="#DejaVuSans-6e" transform="translate(369.251953 0)"/>
      <use xlink:href="#DejaVuSans-67" transform="translate(432.630859 0)"/>
      <use xlink:href="#DejaVuSans-2d" transform="translate(496.107422 0)"/>
      <use xlink:href="#DejaVuSans-53" transform="translate(532.191406 0)"/>
      <use xlink:href="#DejaVuSans-6f" transform="translate(595.667969 0)"/>
      <use xlink:href="#DejaVuSans-75" transform="translate(656.849609 0)"/>
      <use xlink:href="#DejaVuSans-72" transform="translate(720.228516 0)"/>
      <use xlink:href="#DejaVuSans-63" transform="translate(759.091797 0)"/>
      <use xlink:href="#DejaVuSans-65" transform="translate(814.072266 0)"/>
     </g>
    </g>
    <g id="line2d_21">
     <path d="M 523.439062 100.332812 
L 533.439062 100.332812 
L 543.439062 100.332812 
" style="fill: none; stroke: #d62728; stroke-width: 1.5; stroke-linecap: square"/>
    </g>
    <g id="text_20">
     <!-- Validating-Target -->
     <g transform="translate(551.439062 103.832812) scale(0.1 -0.1)">
      <use xlink:href="#DejaVuSans-56"/>
      <use xlink:href="#DejaVuSans-61" transform="translate(60.658203 0)"/>
      <use xlink:href="#DejaVuSans-6c" transform="translate(121.9375 0)"/>
      <use xlink:href="#DejaVuSans-69" transform="translate(149.720703 0)"/>
      <use xlink:href="#DejaVuSans-64" transform="translate(177.503906 0)"/>
      <use xlink:href="#DejaVuSans-61" transform="translate(240.980469 0)"/>
      <use xlink:href="#DejaVuSans-74" transform="translate(302.259766 0)"/>
      <use xlink:href="#DejaVuSans-69" transform="translate(341.46875 0)"/>
      <use xlink:href="#DejaVuSans-6e" transform="translate(369.251953 0)"/>
      <use xlink:href="#DejaVuSans-67" transform="translate(432.630859 0)"/>
      <use xlink:href="#DejaVuSans-2d" transform="translate(496.107422 0)"/>
      <use xlink:href="#DejaVuSans-54" transform="translate(523.066406 0)"/>
      <use xlink:href="#DejaVuSans-61" transform="translate(567.650391 0)"/>
      <use xlink:href="#DejaVuSans-72" transform="translate(628.929688 0)"/>
      <use xlink:href="#DejaVuSans-67" transform="translate(668.292969 0)"/>
      <use xlink:href="#DejaVuSans-65" transform="translate(731.769531 0)"/>
      <use xlink:href="#DejaVuSans-74" transform="translate(793.292969 0)"/>
     </g>
    </g>
   </g>
  </g>
 </g>
 <defs>
  <clipPath id="p3bded079ea">
   <rect x="90" y="43.2" width="558" height="277.2"/>
  </clipPath>
 </defs>
</svg>
