<?xml version="1.0" encoding="utf-8" standalone="no"?>
<!DOCTYPE svg PUBLIC "-//W3C//DTD SVG 1.1//EN"
  "http://www.w3.org/Graphics/SVG/1.1/DTD/svg11.dtd">
<svg xmlns:xlink="http://www.w3.org/1999/xlink" width="720pt" height="360pt" viewBox="0 0 720 360" xmlns="http://www.w3.org/2000/svg" version="1.1">
 <metadata>
  <rdf:RDF xmlns:dc="http://purl.org/dc/elements/1.1/" xmlns:cc="http://creativecommons.org/ns#" xmlns:rdf="http://www.w3.org/1999/02/22-rdf-syntax-ns#">
   <cc:Work>
    <dc:type rdf:resource="http://purl.org/dc/dcmitype/StillImage"/>
    <dc:date>2026-02-18T12:14:00.793836</dc:date>
    <dc:format>image/svg+xml</dc:format>
    <dc:creator>
     <cc:Agent>
      <dc:title>Matplotlib v3.10.1, https://matplotlib.org/</dc:title>
     </cc:Agent>
    </dc:creator>
   </cc:Work>
  </rdf:RDF>
 </metadata>
 <defs>
  <style type="text/css">*{stroke-linejoin: round; stroke-linecap: butt}</style>
 </defs>
 <g id="figure_1">
  <g id="patch_1">
   <path d="M 0 360 
L 720 360 
L 720 0 
L 0 0 
z
" style="fill: #ffffff"/>
  </g>
  <g id="axes_1">
   <g id="patch_2">
    <path d="M 90 320.4 
L 648 320.4 
L 648 43.2 
L 90 43.2 
z
" style="fill: #ffffff"/>
   </g>
   <g id="matplotlib.axis_1">
    <g id="xtick_1">
     <g id="line2d_1">
      <defs>
       <path id="mcdf8b19a79" d="M 0 0 
L 0 3.5 
" style="stroke: #000000; stroke-width: 0.8"/>
      </defs>
      <g>
       <use xlink:href="#mcdf8b19a79" x="115.363636" y="320.4" style="stroke: #000000; stroke-width: 0.8"/>
      </g>
     </g>
     <g id="text_1">
      <!-- 0 -->
      <g transform="translate(112.182386 334.998438) scale(0.1 -0.1)">
       <defs>
        <path id="DejaVuSans-30" d="M 2034 4250 
Q 1547 4250 1301 3770 
Q 1056 3291 1056 2328 
Q 1056 1369 1301 889 
Q 1547 409 2034 409 
Q 2525 409 2770 889 
Q 3016 1369 3016 2328 
Q 3016 3291 2770 3770 
Q 2525 4250 2034 4250 
z
M 2034 4750 
Q 2819 4750 3233 4129 
Q 3647 3509 3647 2328 
Q 3647 1150 3233 529 
Q 2819 -91 2034 -91 
Q 1250 -91 836 529 
Q 422 1150 422 2328 
Q 422 3509 836 4129 
Q 1250 4750 2034 4750 
z
" transform="scale(0.015625)"/>
       </defs>
       <use xlink:href="#DejaVuSans-30"/>
      </g>
     </g>
    </g>
    <g id="xtick_2">
     <g id="line2d_2">
      <g>
       <use xlink:href="#mcdf8b19a79" x="217.157495" y="320.4" style="stroke: #000000; stroke-width: 0.8"/>
      </g>
     </g>
     <g id="text_2">
      <!-- 60 -->
      <g transform="translate(210.794995 334.998438) scale(0.1 -0.1)">
       <defs>
        <path id="DejaVuSans-36" d="M 2113 2584 
Q 1688 2584 1439 2293 
Q 1191 2003 1191 1497 
Q 1191 994 1439 701 
Q 1688 409 2113 409 
Q 2538 409 2786 701 
Q 3034 994 3034 1497 
Q 3034 2003 2786 2293 
Q 2538 2584 2113 2584 
z
M 3366 4563 
L 3366 3988 
Q 3128 4100 2886 4159 
Q 2644 4219 2406 4219 
Q 1781 4219 1451 3797 
Q 1122 3375 1075 2522 
Q 1259 2794 1537 2939 
Q 1816 3084 2150 3084 
Q 2853 3084 3261 2657 
Q 3669 2231 3669 1497 
Q 3669 778 3244 343 
Q 2819 -91 2113 -91 
Q 1303 -91 875 529 
Q 447 1150 447 2328 
Q 447 3434 972 4092 
Q 1497 4750 2381 4750 
Q 2619 4750 2861 4703 
Q 3103 4656 3366 4563 
z
" transform="scale(0.015625)"/>
       </defs>
       <use xlink:href="#DejaVuSans-36"/>
       <use xlink:href="#DejaVuSans-30" transform="translate(63.623047 0)"/>
      </g>
     </g>
    </g>
    <g id="xtick_3">
     <g id="line2d_3">
      <g>
       <use xlink:href="#mcdf8b19a79" x="318.951353" y="320.4" style="stroke: #000000; stroke-width: 0.8"/>
      </g>
     </g>
     <g id="text_3">
      <!-- 120 -->
      <g transform="translate(309.407603 334.998438) scale(0.1 -0.1)">
       <defs>
        <path id="DejaVuSans-31" d="M 794 531 
L 1825 531 
L 1825 4091 
L 703 3866 
L 703 4441 
L 1819 4666 
L 2450 4666 
L 2450 531 
L 3481 531 
L 3481 0 
L 794 0 
L 794 531 
z
" transform="scale(0.015625)"/>
        <path id="DejaVuSans-32" d="M 1228 531 
L 3431 531 
L 3431 0 
L 469 0 
L 469 531 
Q 828 903 1448 1529 
Q 2069 2156 2228 2338 
Q 2531 2678 2651 2914 
Q 2772 3150 2772 3378 
Q 2772 3750 2511 3984 
Q 2250 4219 1831 4219 
Q 1534 4219 1204 4116 
Q 875 4013 500 3803 
L 500 4441 
Q 881 4594 1212 4672 
Q 1544 4750 1819 4750 
Q 2544 4750 2975 4387 
Q 3406 4025 3406 3419 
Q 3406 3131 3298 2873 
Q 3191 2616 2906 2266 
Q 2828 2175 2409 1742 
Q 1991 1309 1228 531 
z
" transform="scale(0.015625)"/>
       </defs>
       <use xlink:href="#DejaVuSans-31"/>
       <use xlink:href="#DejaVuSans-32" transform="translate(63.623047 0)"/>
       <use xlink:href="#DejaVuSans-30" transform="translate(127.246094 0)"/>
      </g>
     </g>
    </g>
    <g id="xtick_4">
     <g id="line2d_4">
      <g>
       <use xlink:href="#mcdf8b19a79" x="420.745211" y="320.4" style="stroke: #000000; stroke-width: 0.8"/>
      </g>
     </g>
     <g id="text_4">
      <!-- 180 -->
      <g transform="translate(411.201461 334.998438) scale(0.1 -0.1)">
       <defs>
        <path id="DejaVuSans-38" d="M 2034 2216 
Q 1584 2216 1326 1975 
Q 1069 1734 1069 1313 
Q 1069 891 1326 650 
Q 1584 409 2034 409 
Q 2484 409 2743 651 
Q 3003 894 3003 1313 
Q 3003 1734 2745 1975 
Q 2488 2216 2034 2216 
z
M 1403 2484 
Q 997 2584 770 2862 
Q 544 3141 544 3541 
Q 544 4100 942 4425 
Q 1341 4750 2034 4750 
Q 2731 4750 3128 4425 
Q 3525 4100 3525 3541 
Q 3525 3141 3298 2862 
Q 3072 2584 2669 2484 
Q 3125 2378 3379 2068 
Q 3634 1759 3634 1313 
Q 3634 634 3220 271 
Q 2806 -91 2034 -91 
Q 1263 -91 848 271 
Q 434 634 434 1313 
Q 434 1759 690 2068 
Q 947 2378 1403 2484 
z
M 1172 3481 
Q 1172 3119 1398 2916 
Q 1625 2713 2034 2713 
Q 2441 2713 2670 2916 
Q 2900 3119 2900 3481 
Q 2900 3844 2670 4047 
Q 2441 4250 2034 4250 
Q 1625 4250 1398 4047 
Q 1172 3844 1172 3481 
z
" transform="scale(0.015625)"/>
       </defs>
       <use xlink:href="#DejaVuSans-31"/>
       <use xlink:href="#DejaVuSans-38" transform="translate(63.623047 0)"/>
       <use xlink:href="#DejaVuSans-30" transform="translate(127.246094 0)"/>
      </g>
     </g>
    </g>
    <g id="xtick_5">
     <g id="line2d_5">
      <g>
       <use xlink:href="#mcdf8b19a79" x="522.53907" y="320.4" style="stroke: #000000; stroke-width: 0.8"/>
      </g>
     </g>
     <g id="text_5">
      <!-- 240 -->
      <g transform="translate(512.99532 334.998438) scale(0.1 -0.1)">
       <defs>
        <path id="DejaVuSans-34" d="M 2419 4116 
L 825 1625 
L 2419 1625 
L 2419 4116 
z
M 2253 4666 
L 3047 4666 
L 3047 1625 
L 3713 1625 
L 3713 1100 
L 3047 1100 
L 3047 0 
L 2419 0 
L 2419 1100 
L 313 1100 
L 313 1709 
L 2253 4666 
z
" transform="scale(0.015625)"/>
       </defs>
       <use xlink:href="#DejaVuSans-32"/>
       <use xlink:href="#DejaVuSans-34" transform="translate(63.623047 0)"/>
       <use xlink:href="#DejaVuSans-30" transform="translate(127.246094 0)"/>
      </g>
     </g>
    </g>
    <g id="text_6">
     <!-- Epoch -->
     <g transform="translate(353.689062 348.676562) scale(0.1 -0.1)">
      <defs>
       <path id="DejaVuSans-45" d="M 628 4666 
L 3578 4666 
L 3578 4134 
L 1259 4134 
L 1259 2753 
L 3481 2753 
L 3481 2222 
L 1259 2222 
L 1259 531 
L 3634 531 
L 3634 0 
L 628 0 
L 628 4666 
z
" transform="scale(0.015625)"/>
       <path id="DejaVuSans-70" d="M 1159 525 
L 1159 -1331 
L 581 -1331 
L 581 3500 
L 1159 3500 
L 1159 2969 
Q 1341 3281 1617 3432 
Q 1894 3584 2278 3584 
Q 2916 3584 3314 3078 
Q 3713 2572 3713 1747 
Q 3713 922 3314 415 
Q 2916 -91 2278 -91 
Q 1894 -91 1617 61 
Q 1341 213 1159 525 
z
M 3116 1747 
Q 3116 2381 2855 2742 
Q 2594 3103 2138 3103 
Q 1681 3103 1420 2742 
Q 1159 2381 1159 1747 
Q 1159 1113 1420 752 
Q 1681 391 2138 391 
Q 2594 391 2855 752 
Q 3116 1113 3116 1747 
z
" transform="scale(0.015625)"/>
       <path id="DejaVuSans-6f" d="M 1959 3097 
Q 1497 3097 1228 2736 
Q 959 2375 959 1747 
Q 959 1119 1226 758 
Q 1494 397 1959 397 
Q 2419 397 2687 759 
Q 2956 1122 2956 1747 
Q 2956 2369 2687 2733 
Q 2419 3097 1959 3097 
z
M 1959 3584 
Q 2709 3584 3137 3096 
Q 3566 2609 3566 1747 
Q 3566 888 3137 398 
Q 2709 -91 1959 -91 
Q 1206 -91 779 398 
Q 353 888 353 1747 
Q 353 2609 779 3096 
Q 1206 3584 1959 3584 
z
" transform="scale(0.015625)"/>
       <path id="DejaVuSans-63" d="M 3122 3366 
L 3122 2828 
Q 2878 2963 2633 3030 
Q 2388 3097 2138 3097 
Q 1578 3097 1268 2742 
Q 959 2388 959 1747 
Q 959 1106 1268 751 
Q 1578 397 2138 397 
Q 2388 397 2633 464 
Q 2878 531 3122 666 
L 3122 134 
Q 2881 22 2623 -34 
Q 2366 -91 2075 -91 
Q 1284 -91 818 406 
Q 353 903 353 1747 
Q 353 2603 823 3093 
Q 1294 3584 2113 3584 
Q 2378 3584 2631 3529 
Q 2884 3475 3122 3366 
z
" transform="scale(0.015625)"/>
       <path id="DejaVuSans-68" d="M 3513 2113 
L 3513 0 
L 2938 0 
L 2938 2094 
Q 2938 2591 2744 2837 
Q 2550 3084 2163 3084 
Q 1697 3084 1428 2787 
Q 1159 2491 1159 1978 
L 1159 0 
L 581 0 
L 581 4863 
L 1159 4863 
L 1159 2956 
Q 1366 3272 1645 3428 
Q 1925 3584 2291 3584 
Q 2894 3584 3203 3211 
Q 3513 2838 3513 2113 
z
" transform="scale(0.015625)"/>
      </defs>
      <use xlink:href="#DejaVuSans-45"/>
      <use xlink:href="#DejaVuSans-70" transform="translate(63.183594 0)"/>
      <use xlink:href="#DejaVuSans-6f" transform="translate(126.660156 0)"/>
      <use xlink:href="#DejaVuSans-63" transform="translate(187.841797 0)"/>
      <use xlink:href="#DejaVuSans-68" transform="translate(242.822266 0)"/>
     </g>
    </g>
   </g>
   <g id="matplotlib.axis_2">
    <g id="ytick_1">
     <g id="line2d_6">
      <defs>
       <path id="m8efbe8b77b" d="M 0 0 
L -3.5 0 
" style="stroke: #000000; stroke-width: 0.8"/>
      </defs>
      <g>
       <use xlink:href="#m8efbe8b77b" x="90" y="296.340614" style="stroke: #000000; stroke-width: 0.8"/>
      </g>
     </g>
     <g id="text_7">
      <!-- 0.2 -->
      <g transform="translate(67.096875 300.139832) scale(0.1 -0.1)">
       <defs>
        <path id="DejaVuSans-2e" d="M 684 794 
L 1344 794 
L 1344 0 
L 684 0 
L 684 794 
z
" transform="scale(0.015625)"/>
       </defs>
       <use xlink:href="#DejaVuSans-30"/>
       <use xlink:href="#DejaVuSans-2e" transform="translate(63.623047 0)"/>
       <use xlink:href="#DejaVuSans-32" transform="translate(95.410156 0)"/>
      </g>
     </g>
    </g>
    <g id="ytick_2">
     <g id="line2d_7">
      <g>
       <use xlink:href="#m8efbe8b77b" x="90" y="259.986798" style="stroke: #000000; stroke-width: 0.8"/>
      </g>
     </g>
     <g id="text_8">
      <!-- 0.4 -->
      <g transform="translate(67.096875 263.786017) scale(0.1 -0.1)">
       <use xlink:href="#DejaVuSans-30"/>
       <use xlink:href="#DejaVuSans-2e" transform="translate(63.623047 0)"/>
       <use xlink:href="#DejaVuSans-34" transform="translate(95.410156 0)"/>
      </g>
     </g>
    </g>
    <g id="ytick_3">
     <g id="line2d_8">
      <g>
       <use xlink:href="#m8efbe8b77b" x="90" y="223.632983" style="stroke: #000000; stroke-width: 0.8"/>
      </g>
     </g>
     <g id="text_9">
      <!-- 0.6 -->
      <g transform="translate(67.096875 227.432202) scale(0.1 -0.1)">
       <use xlink:href="#DejaVuSans-30"/>
       <use xlink:href="#DejaVuSans-2e" transform="translate(63.623047 0)"/>
       <use xlink:href="#DejaVuSans-36" transform="translate(95.410156 0)"/>
      </g>
     </g>
    </g>
    <g id="ytick_4">
     <g id="line2d_9">
      <g>
       <use xlink:href="#m8efbe8b77b" x="90" y="187.279168" style="stroke: #000000; stroke-width: 0.8"/>
      </g>
     </g>
     <g id="text_10">
      <!-- 0.8 -->
      <g transform="translate(67.096875 191.078387) scale(0.1 -0.1)">
       <use xlink:href="#DejaVuSans-30"/>
       <use xlink:href="#DejaVuSans-2e" transform="translate(63.623047 0)"/>
       <use xlink:href="#DejaVuSans-38" transform="translate(95.410156 0)"/>
      </g>
     </g>
    </g>
    <g id="ytick_5">
     <g id="line2d_10">
      <g>
       <use xlink:href="#m8efbe8b77b" x="90" y="150.925353" style="stroke: #000000; stroke-width: 0.8"/>
      </g>
     </g>
     <g id="text_11">
      <!-- 1.0 -->
      <g transform="translate(67.096875 154.724572) scale(0.1 -0.1)">
       <use xlink:href="#DejaVuSans-31"/>
       <use xlink:href="#DejaVuSans-2e" transform="translate(63.623047 0)"/>
       <use xlink:href="#DejaVuSans-30" transform="translate(95.410156 0)"/>
      </g>
     </g>
    </g>
    <g id="ytick_6">
     <g id="line2d_11">
      <g>
       <use xlink:href="#m8efbe8b77b" x="90" y="114.571538" style="stroke: #000000; stroke-width: 0.8"/>
      </g>
     </g>
     <g id="text_12">
      <!-- 1.2 -->
      <g transform="translate(67.096875 118.370757) scale(0.1 -0.1)">
       <use xlink:href="#DejaVuSans-31"/>
       <use xlink:href="#DejaVuSans-2e" transform="translate(63.623047 0)"/>
       <use xlink:href="#DejaVuSans-32" transform="translate(95.410156 0)"/>
      </g>
     </g>
    </g>
    <g id="ytick_7">
     <g id="line2d_12">
      <g>
       <use xlink:href="#m8efbe8b77b" x="90" y="78.217723" style="stroke: #000000; stroke-width: 0.8"/>
      </g>
     </g>
     <g id="text_13">
      <!-- 1.4 -->
      <g transform="translate(67.096875 82.016942) scale(0.1 -0.1)">
       <use xlink:href="#DejaVuSans-31"/>
       <use xlink:href="#DejaVuSans-2e" transform="translate(63.623047 0)"/>
       <use xlink:href="#DejaVuSans-34" transform="translate(95.410156 0)"/>
      </g>
     </g>
    </g>
    <g id="text_14">
     <!-- Domain Loss -->
     <g transform="translate(61.017187 213.757812) rotate(-90) scale(0.1 -0.1)">
      <defs>
       <path id="DejaVuSans-44" d="M 1259 4147 
L 1259 519 
L 2022 519 
Q 2988 519 3436 956 
Q 3884 1394 3884 2338 
Q 3884 3275 3436 3711 
Q 2988 4147 2022 4147 
L 1259 4147 
z
M 628 4666 
L 1925 4666 
Q 3281 4666 3915 4102 
Q 4550 3538 4550 2338 
Q 4550 1131 3912 565 
Q 3275 0 1925 0 
L 628 0 
L 628 4666 
z
" transform="scale(0.015625)"/>
       <path id="DejaVuSans-6d" d="M 3328 2828 
Q 3544 3216 3844 3400 
Q 4144 3584 4550 3584 
Q 5097 3584 5394 3201 
Q 5691 2819 5691 2113 
L 5691 0 
L 5113 0 
L 5113 2094 
Q 5113 2597 4934 2840 
Q 4756 3084 4391 3084 
Q 3944 3084 3684 2787 
Q 3425 2491 3425 1978 
L 3425 0 
L 2847 0 
L 2847 2094 
Q 2847 2600 2669 2842 
Q 2491 3084 2119 3084 
Q 1678 3084 1418 2786 
Q 1159 2488 1159 1978 
L 1159 0 
L 581 0 
L 581 3500 
L 1159 3500 
L 1159 2956 
Q 1356 3278 1631 3431 
Q 1906 3584 2284 3584 
Q 2666 3584 2933 3390 
Q 3200 3197 3328 2828 
z
" transform="scale(0.015625)"/>
       <path id="DejaVuSans-61" d="M 2194 1759 
Q 1497 1759 1228 1600 
Q 959 1441 959 1056 
Q 959 750 1161 570 
Q 1363 391 1709 391 
Q 2188 391 2477 730 
Q 2766 1069 2766 1631 
L 2766 1759 
L 2194 1759 
z
M 3341 1997 
L 3341 0 
L 2766 0 
L 2766 531 
Q 2569 213 2275 61 
Q 1981 -91 1556 -91 
Q 1019 -91 701 211 
Q 384 513 384 1019 
Q 384 1609 779 1909 
Q 1175 2209 1959 2209 
L 2766 2209 
L 2766 2266 
Q 2766 2663 2505 2880 
Q 2244 3097 1772 3097 
Q 1472 3097 1187 3025 
Q 903 2953 641 2809 
L 641 3341 
Q 956 3463 1253 3523 
Q 1550 3584 1831 3584 
Q 2591 3584 2966 3190 
Q 3341 2797 3341 1997 
z
" transform="scale(0.015625)"/>
       <path id="DejaVuSans-69" d="M 603 3500 
L 1178 3500 
L 1178 0 
L 603 0 
L 603 3500 
z
M 603 4863 
L 1178 4863 
L 1178 4134 
L 603 4134 
L 603 4863 
z
" transform="scale(0.015625)"/>
       <path id="DejaVuSans-6e" d="M 3513 2113 
L 3513 0 
L 2938 0 
L 2938 2094 
Q 2938 2591 2744 2837 
Q 2550 3084 2163 3084 
Q 1697 3084 1428 2787 
Q 1159 2491 1159 1978 
L 1159 0 
L 581 0 
L 581 3500 
L 1159 3500 
L 1159 2956 
Q 1366 3272 1645 3428 
Q 1925 3584 2291 3584 
Q 2894 3584 3203 3211 
Q 3513 2838 3513 2113 
z
" transform="scale(0.015625)"/>
       <path id="DejaVuSans-20" transform="scale(0.015625)"/>
       <path id="DejaVuSans-4c" d="M 628 4666 
L 1259 4666 
L 1259 531 
L 3531 531 
L 3531 0 
L 628 0 
L 628 4666 
z
" transform="scale(0.015625)"/>
       <path id="DejaVuSans-73" d="M 2834 3397 
L 2834 2853 
Q 2591 2978 2328 3040 
Q 2066 3103 1784 3103 
Q 1356 3103 1142 2972 
Q 928 2841 928 2578 
Q 928 2378 1081 2264 
Q 1234 2150 1697 2047 
L 1894 2003 
Q 2506 1872 2764 1633 
Q 3022 1394 3022 966 
Q 3022 478 2636 193 
Q 2250 -91 1575 -91 
Q 1294 -91 989 -36 
Q 684 19 347 128 
L 347 722 
Q 666 556 975 473 
Q 1284 391 1588 391 
Q 1994 391 2212 530 
Q 2431 669 2431 922 
Q 2431 1156 2273 1281 
Q 2116 1406 1581 1522 
L 1381 1569 
Q 847 1681 609 1914 
Q 372 2147 372 2553 
Q 372 3047 722 3315 
Q 1072 3584 1716 3584 
Q 2034 3584 2315 3537 
Q 2597 3491 2834 3397 
z
" transform="scale(0.015625)"/>
      </defs>
      <use xlink:href="#DejaVuSans-44"/>
      <use xlink:href="#DejaVuSans-6f" transform="translate(77.001953 0)"/>
      <use xlink:href="#DejaVuSans-6d" transform="translate(138.183594 0)"/>
      <use xlink:href="#DejaVuSans-61" transform="translate(235.595703 0)"/>
      <use xlink:href="#DejaVuSans-69" transform="translate(296.875 0)"/>
      <use xlink:href="#DejaVuSans-6e" transform="translate(324.658203 0)"/>
      <use xlink:href="#DejaVuSans-20" transform="translate(388.037109 0)"/>
      <use xlink:href="#DejaVuSans-4c" transform="translate(419.824219 0)"/>
      <use xlink:href="#DejaVuSans-6f" transform="translate(473.787109 0)"/>
      <use xlink:href="#DejaVuSans-73" transform="translate(534.96875 0)"/>
      <use xlink:href="#DejaVuSans-73" transform="translate(587.068359 0)"/>
     </g>
    </g>
    <g id="text_15">
     <!-- 1e−6 -->
     <g transform="translate(90 40.2) scale(0.1 -0.1)">
      <defs>
       <path id="DejaVuSans-65" d="M 3597 1894 
L 3597 1613 
L 953 1613 
Q 991 1019 1311 708 
Q 1631 397 2203 397 
Q 2534 397 2845 478 
Q 3156 559 3463 722 
L 3463 178 
Q 3153 47 2828 -22 
Q 2503 -91 2169 -91 
Q 1331 -91 842 396 
Q 353 884 353 1716 
Q 353 2575 817 3079 
Q 1281 3584 2069 3584 
Q 2775 3584 3186 3129 
Q 3597 2675 3597 1894 
z
M 3022 2063 
Q 3016 2534 2758 2815 
Q 2500 3097 2075 3097 
Q 1594 3097 1305 2825 
Q 1016 2553 972 2059 
L 3022 2063 
z
" transform="scale(0.015625)"/>
       <path id="DejaVuSans-2212" d="M 678 2272 
L 4684 2272 
L 4684 1741 
L 678 1741 
L 678 2272 
z
" transform="scale(0.015625)"/>
      </defs>
      <use xlink:href="#DejaVuSans-31"/>
      <use xlink:href="#DejaVuSans-65" transform="translate(63.623047 0)"/>
      <use xlink:href="#DejaVuSans-2212" transform="translate(125.146484 0)"/>
      <use xlink:href="#DejaVuSans-36" transform="translate(208.935547 0)"/>
     </g>
    </g>
   </g>
   <g id="line2d_13">
    <path d="M 115.363636 55.8 
L 117.060201 154.735022 
L 118.756765 187.107515 
L 120.453329 205.113782 
L 122.149894 216.022772 
L 123.846458 222.918714 
L 125.543022 227.63496 
L 127.239587 231.168488 
L 128.936151 234.280339 
L 130.632715 237.144574 
L 135.722408 243.272115 
L 137.418972 245.023527 
L 140.812101 248.041139 
L 142.508665 249.599703 
L 144.20523 250.842812 
L 145.901794 252.660156 
L 150.991487 256.916141 
L 152.688051 258.176069 
L 154.384615 259.29431 
L 157.777744 261.200757 
L 161.170873 262.758255 
L 164.564001 264.140492 
L 166.260566 264.881589 
L 167.95713 265.268989 
L 169.653694 265.93636 
L 171.350258 266.979871 
L 178.136516 269.008023 
L 179.83308 269.566688 
L 181.529644 270.269644 
L 184.922773 271.285491 
L 186.619337 271.861877 
L 190.012466 272.48077 
L 193.405594 273.338572 
L 198.495287 274.265983 
L 200.191852 274.42664 
L 201.888416 274.800318 
L 208.674673 275.588213 
L 212.067802 276.066106 
L 213.764366 276.211083 
L 215.46093 276.56362 
L 220.550623 277.125607 
L 227.336881 278.162268 
L 232.426573 278.737895 
L 234.123138 279.096656 
L 237.516266 279.267146 
L 242.605959 279.979631 
L 245.999088 280.194342 
L 247.695652 280.554234 
L 254.481909 281.337281 
L 276.537245 283.299032 
L 278.23381 283.490491 
L 279.930374 283.547738 
L 281.626938 283.796112 
L 291.806324 284.470519 
L 293.502888 284.703925 
L 295.199453 284.722042 
L 296.896017 285.041511 
L 308.771967 286.124065 
L 310.468531 286.335549 
L 312.165096 286.351036 
L 315.558224 286.703468 
L 320.647917 287.082518 
L 324.041046 287.438033 
L 325.73761 287.52558 
L 327.434175 287.862317 
L 329.130739 287.895263 
L 344.399818 289.372791 
L 346.096382 289.630414 
L 347.792946 289.728936 
L 352.882639 290.281727 
L 354.579203 290.321891 
L 359.668896 291.09975 
L 361.365461 291.10682 
L 364.758589 291.526236 
L 366.455154 291.712921 
L 368.151718 291.780822 
L 371.544846 292.279026 
L 378.331104 292.746008 
L 383.420797 293.354758 
L 388.51049 293.816227 
L 390.207054 294.070138 
L 398.689875 294.732663 
L 400.38644 294.877153 
L 402.083004 294.886739 
L 403.779568 295.156593 
L 407.172697 295.386359 
L 408.869261 295.41076 
L 412.26239 295.878207 
L 413.958954 295.898783 
L 415.655518 296.180105 
L 417.352083 296.20999 
L 420.745211 296.672116 
L 424.13834 296.737198 
L 429.228033 297.251686 
L 430.924597 297.398118 
L 432.621161 297.71683 
L 437.710854 297.925552 
L 442.800547 298.365805 
L 444.497112 298.600693 
L 447.89024 298.801631 
L 454.676497 299.380326 
L 481.821526 301.246285 
L 486.911219 301.518614 
L 488.607784 301.716943 
L 490.304348 301.738661 
L 492.000912 301.955026 
L 500.483734 302.337736 
L 503.876862 302.562478 
L 514.056248 303.04354 
L 515.752812 303.211766 
L 519.145941 303.305233 
L 532.718455 304.053918 
L 537.808148 304.248014 
L 539.504713 304.387201 
L 541.201277 304.411762 
L 544.594406 304.614664 
L 549.684099 304.826645 
L 554.773791 305.038765 
L 556.470356 305.187418 
L 559.863484 305.301477 
L 561.560049 305.410843 
L 564.953177 305.468523 
L 573.435999 305.891644 
L 575.132563 305.823998 
L 581.91882 306.140342 
L 622.636364 307.8 
L 622.636364 307.8 
" clip-path="url(#p13156a6ee5)" style="fill: none; stroke: #1f77b4; stroke-width: 1.5; stroke-linecap: square"/>
   </g>
   <g id="line2d_14">
    <path d="M 115.363636 143.912116 
L 117.060201 183.109528 
L 118.756765 201.102527 
L 120.453329 215.976806 
L 122.149894 223.766137 
L 123.846458 229.046345 
L 127.239587 234.825371 
L 128.936151 238.625626 
L 132.329279 241.636805 
L 134.025844 242.787365 
L 137.418972 246.677372 
L 139.115537 247.342987 
L 140.812101 248.676206 
L 142.508665 250.194064 
L 144.20523 250.348362 
L 145.901794 253.035784 
L 147.598358 253.875078 
L 149.294922 255.680232 
L 150.991487 256.295845 
L 152.688051 258.451403 
L 154.384615 258.177487 
L 156.08118 259.280244 
L 157.777744 260.762326 
L 159.474308 260.772434 
L 161.170873 261.374106 
L 162.867437 262.35463 
L 164.564001 263.204757 
L 166.260566 263.813587 
L 167.95713 263.623764 
L 169.653694 264.77263 
L 171.350258 265.493757 
L 173.046823 265.617482 
L 174.743387 266.160365 
L 176.439951 266.153694 
L 178.136516 266.97258 
L 179.83308 267.978253 
L 181.529644 268.614161 
L 183.226209 268.415345 
L 186.619337 268.978844 
L 188.315901 269.707569 
L 191.70903 270.441302 
L 193.405594 270.199137 
L 195.102159 271.179497 
L 196.798723 271.236396 
L 198.495287 271.134091 
L 200.191852 271.770454 
L 201.888416 271.066375 
L 203.58498 271.655874 
L 205.281545 271.533318 
L 206.978109 271.255571 
L 208.674673 271.625896 
L 210.371237 271.399708 
L 212.067802 271.65363 
L 213.764366 271.558888 
L 215.46093 271.71398 
L 217.157495 271.720846 
L 218.854059 272.093378 
L 220.550623 272.20369 
L 222.247188 272.528042 
L 223.943752 273.33554 
L 225.640316 273.71016 
L 227.336881 273.469312 
L 229.033445 274.327455 
L 230.730009 273.636244 
L 232.426573 274.667886 
L 234.123138 273.925036 
L 235.819702 274.177076 
L 237.516266 274.113324 
L 239.212831 274.166942 
L 240.909395 274.781892 
L 242.605959 274.976318 
L 244.302524 275.385186 
L 249.392216 276.163293 
L 251.088781 276.509201 
L 254.481909 276.276203 
L 257.875038 277.074085 
L 261.268167 276.843463 
L 262.964731 277.701396 
L 264.661295 277.658934 
L 268.054424 277.944819 
L 269.750988 277.85906 
L 271.447552 278.183003 
L 273.144117 278.295653 
L 274.840681 279.280867 
L 276.537245 277.577141 
L 278.23381 278.729156 
L 279.930374 278.752843 
L 281.626938 279.408639 
L 283.323503 279.563057 
L 286.716631 278.818342 
L 290.10976 279.352155 
L 291.806324 279.460762 
L 293.502888 279.723089 
L 295.199453 280.421541 
L 296.896017 280.062195 
L 298.592581 280.262831 
L 300.289146 280.328336 
L 301.98571 280.01167 
L 303.682274 280.156968 
L 305.378839 280.982166 
L 307.075403 281.182648 
L 308.771967 281.213473 
L 310.468531 281.109162 
L 312.165096 282.149405 
L 313.86166 281.261713 
L 315.558224 281.912229 
L 317.254789 281.573323 
L 318.951353 282.029261 
L 320.647917 282.179519 
L 322.344482 282.165335 
L 324.041046 282.950763 
L 325.73761 282.637543 
L 327.434175 283.127072 
L 329.130739 283.453096 
L 332.523867 283.279775 
L 334.220432 283.870035 
L 335.916996 283.716177 
L 337.61356 284.222037 
L 339.310125 283.505372 
L 341.006689 284.319145 
L 342.703253 284.344287 
L 344.399818 284.670005 
L 346.096382 285.346671 
L 347.792946 285.62121 
L 349.48951 285.084706 
L 351.186075 285.045758 
L 352.882639 285.495538 
L 354.579203 286.146573 
L 356.275768 285.705343 
L 357.972332 286.188514 
L 359.668896 286.338351 
L 361.365461 285.963672 
L 363.062025 286.281569 
L 364.758589 287.505573 
L 366.455154 286.794573 
L 368.151718 287.476581 
L 369.848282 287.391286 
L 371.544846 287.675264 
L 373.241411 287.672296 
L 374.937975 288.543372 
L 376.634539 287.822056 
L 378.331104 288.44639 
L 380.027668 288.587453 
L 381.724232 288.369115 
L 383.420797 289.471165 
L 385.117361 289.033053 
L 386.813925 289.264732 
L 388.51049 289.615256 
L 390.207054 289.698333 
L 391.903618 289.669908 
L 393.600182 289.466594 
L 395.296747 289.490001 
L 396.993311 290.264439 
L 398.689875 290.370783 
L 400.38644 290.732512 
L 402.083004 290.53005 
L 403.779568 290.792995 
L 405.476133 290.612031 
L 407.172697 291.681668 
L 408.869261 291.676128 
L 412.26239 291.076394 
L 413.958954 291.797711 
L 415.655518 291.784153 
L 417.352083 292.149989 
L 419.048647 292.326848 
L 420.745211 292.195485 
L 422.441776 292.693381 
L 424.13834 292.911326 
L 425.834904 292.804933 
L 427.531469 293.745223 
L 429.228033 293.210699 
L 430.924597 293.58111 
L 432.621161 293.481986 
L 434.317726 293.661186 
L 436.01429 293.597952 
L 437.710854 293.982665 
L 439.407419 294.836215 
L 441.103983 294.078722 
L 442.800547 294.183779 
L 444.497112 295.138809 
L 446.193676 294.971046 
L 449.586804 294.915747 
L 451.283369 295.744198 
L 452.979933 295.738083 
L 456.373062 295.602803 
L 458.069626 295.597449 
L 459.76619 296.503932 
L 461.462755 296.189739 
L 464.855883 297.181633 
L 466.552448 296.663929 
L 468.249012 297.239978 
L 469.945576 297.397687 
L 471.64214 297.0499 
L 473.338705 297.335354 
L 475.035269 297.850292 
L 476.731833 296.993721 
L 478.428398 297.979968 
L 480.124962 298.006184 
L 481.821526 297.631217 
L 485.214655 298.796457 
L 486.911219 298.408299 
L 488.607784 298.850708 
L 490.304348 298.272262 
L 492.000912 298.390488 
L 493.697476 299.513323 
L 495.394041 298.749989 
L 497.090605 298.533951 
L 498.787169 298.824054 
L 500.483734 299.766032 
L 502.180298 299.11313 
L 503.876862 299.861622 
L 505.573427 299.420543 
L 507.269991 300.477074 
L 508.966555 300.927569 
L 510.663119 299.956326 
L 512.359684 300.295618 
L 514.056248 300.188235 
L 515.752812 299.888863 
L 517.449377 301.07295 
L 519.145941 300.555084 
L 520.842505 300.171238 
L 522.53907 300.38149 
L 524.235634 301.062932 
L 525.932198 301.346597 
L 527.628763 301.249807 
L 529.325327 300.741971 
L 531.021891 301.782921 
L 532.718455 300.977864 
L 534.41502 301.597955 
L 536.111584 301.849404 
L 537.808148 301.424605 
L 539.504713 302.015609 
L 541.201277 301.980334 
L 542.897841 301.184573 
L 544.594406 302.390327 
L 546.29097 302.08432 
L 547.987534 302.163803 
L 549.684099 302.716166 
L 551.380663 302.296101 
L 553.077227 302.924055 
L 554.773791 302.773605 
L 556.470356 302.350129 
L 559.863484 302.522618 
L 561.560049 302.444579 
L 563.256613 302.5736 
L 564.953177 303.108402 
L 566.649742 302.558459 
L 568.346306 303.334109 
L 571.739434 303.624669 
L 573.435999 303.22599 
L 575.132563 303.702778 
L 576.829127 303.457644 
L 578.525692 303.869863 
L 580.222256 303.557902 
L 581.91882 304.493773 
L 583.615385 304.518872 
L 585.311949 304.312957 
L 587.008513 303.597237 
L 588.705078 304.375949 
L 590.401642 304.583884 
L 592.098206 304.122219 
L 593.79477 304.143193 
L 595.491335 305.0976 
L 597.187899 304.56878 
L 598.884463 304.787774 
L 600.581028 304.829489 
L 603.974156 305.231669 
L 607.367285 305.202375 
L 610.760413 305.57372 
L 612.456978 304.994006 
L 615.850106 305.297639 
L 617.546671 305.952378 
L 619.243235 306.183973 
L 620.939799 305.693815 
L 622.636364 306.390111 
L 622.636364 306.390111 
" clip-path="url(#p13156a6ee5)" style="fill: none; stroke: #ff7f0e; stroke-width: 1.5; stroke-linecap: square"/>
   </g>
   <g id="patch_3">
    <path d="M 90 320.4 
L 90 43.2 
" style="fill: none; stroke: #000000; stroke-width: 0.8; stroke-linejoin: miter; stroke-linecap: square"/>
   </g>
   <g id="patch_4">
    <path d="M 648 320.4 
L 648 43.2 
" style="fill: none; stroke: #000000; stroke-width: 0.8; stroke-linejoin: miter; stroke-linecap: square"/>
   </g>
   <g id="patch_5">
    <path d="M 90 320.4 
L 648 320.4 
" style="fill: none; stroke: #000000; stroke-width: 0.8; stroke-linejoin: miter; stroke-linecap: square"/>
   </g>
   <g id="patch_6">
    <path d="M 90 43.2 
L 648 43.2 
" style="fill: none; stroke: #000000; stroke-width: 0.8; stroke-linejoin: miter; stroke-linecap: square"/>
   </g>
   <g id="text_16">
    <!-- Training and Validating Domain Loss -->
    <g transform="translate(260.204063 37.2) scale(0.12 -0.12)">
     <defs>
      <path id="DejaVuSans-54" d="M -19 4666 
L 3928 4666 
L 3928 4134 
L 2272 4134 
L 2272 0 
L 1638 0 
L 1638 4134 
L -19 4134 
L -19 4666 
z
" transform="scale(0.015625)"/>
      <path id="DejaVuSans-72" d="M 2631 2963 
Q 2534 3019 2420 3045 
Q 2306 3072 2169 3072 
Q 1681 3072 1420 2755 
Q 1159 2438 1159 1844 
L 1159 0 
L 581 0 
L 581 3500 
L 1159 3500 
L 1159 2956 
Q 1341 3275 1631 3429 
Q 1922 3584 2338 3584 
Q 2397 3584 2469 3576 
Q 2541 3569 2628 3553 
L 2631 2963 
z
" transform="scale(0.015625)"/>
      <path id="DejaVuSans-67" d="M 2906 1791 
Q 2906 2416 2648 2759 
Q 2391 3103 1925 3103 
Q 1463 3103 1205 2759 
Q 947 2416 947 1791 
Q 947 1169 1205 825 
Q 1463 481 1925 481 
Q 2391 481 2648 825 
Q 2906 1169 2906 1791 
z
M 3481 434 
Q 3481 -459 3084 -895 
Q 2688 -1331 1869 -1331 
Q 1566 -1331 1297 -1286 
Q 1028 -1241 775 -1147 
L 775 -588 
Q 1028 -725 1275 -790 
Q 1522 -856 1778 -856 
Q 2344 -856 2625 -561 
Q 2906 -266 2906 331 
L 2906 616 
Q 2728 306 2450 153 
Q 2172 0 1784 0 
Q 1141 0 747 490 
Q 353 981 353 1791 
Q 353 2603 747 3093 
Q 1141 3584 1784 3584 
Q 2172 3584 2450 3431 
Q 2728 3278 2906 2969 
L 2906 3500 
L 3481 3500 
L 3481 434 
z
" transform="scale(0.015625)"/>
      <path id="DejaVuSans-64" d="M 2906 2969 
L 2906 4863 
L 3481 4863 
L 3481 0 
L 2906 0 
L 2906 525 
Q 2725 213 2448 61 
Q 2172 -91 1784 -91 
Q 1150 -91 751 415 
Q 353 922 353 1747 
Q 353 2572 751 3078 
Q 1150 3584 1784 3584 
Q 2172 3584 2448 3432 
Q 2725 3281 2906 2969 
z
M 947 1747 
Q 947 1113 1208 752 
Q 1469 391 1925 391 
Q 2381 391 2643 752 
Q 2906 1113 2906 1747 
Q 2906 2381 2643 2742 
Q 2381 3103 1925 3103 
Q 1469 3103 1208 2742 
Q 947 2381 947 1747 
z
" transform="scale(0.015625)"/>
      <path id="DejaVuSans-56" d="M 1831 0 
L 50 4666 
L 709 4666 
L 2188 738 
L 3669 4666 
L 4325 4666 
L 2547 0 
L 1831 0 
z
" transform="scale(0.015625)"/>
      <path id="DejaVuSans-6c" d="M 603 4863 
L 1178 4863 
L 1178 0 
L 603 0 
L 603 4863 
z
" transform="scale(0.015625)"/>
      <path id="DejaVuSans-74" d="M 1172 4494 
L 1172 3500 
L 2356 3500 
L 2356 3053 
L 1172 3053 
L 1172 1153 
Q 1172 725 1289 603 
Q 1406 481 1766 481 
L 2356 481 
L 2356 0 
L 1766 0 
Q 1100 0 847 248 
Q 594 497 594 1153 
L 594 3053 
L 172 3053 
L 172 3500 
L 594 3500 
L 594 4494 
L 1172 4494 
z
" transform="scale(0.015625)"/>
     </defs>
     <use xlink:href="#DejaVuSans-54"/>
     <use xlink:href="#DejaVuSans-72" transform="translate(46.333984 0)"/>
     <use xlink:href="#DejaVuSans-61" transform="translate(87.447266 0)"/>
     <use xlink:href="#DejaVuSans-69" transform="translate(148.726562 0)"/>
     <use xlink:href="#DejaVuSans-6e" transform="translate(176.509766 0)"/>
     <use xlink:href="#DejaVuSans-69" transform="translate(239.888672 0)"/>
     <use xlink:href="#DejaVuSans-6e" transform="translate(267.671875 0)"/>
     <use xlink:href="#DejaVuSans-67" transform="translate(331.050781 0)"/>
     <use xlink:href="#DejaVuSans-20" transform="translate(394.527344 0)"/>
     <use xlink:href="#DejaVuSans-61" transform="translate(426.314453 0)"/>
     <use xlink:href="#DejaVuSans-6e" transform="translate(487.59375 0)"/>
     <use xlink:href="#DejaVuSans-64" transform="translate(550.972656 0)"/>
     <use xlink:href="#DejaVuSans-20" transform="translate(614.449219 0)"/>
     <use xlink:href="#DejaVuSans-56" transform="translate(646.236328 0)"/>
     <use xlink:href="#DejaVuSans-61" transform="translate(706.894531 0)"/>
     <use xlink:href="#DejaVuSans-6c" transform="translate(768.173828 0)"/>
     <use xlink:href="#DejaVuSans-69" transform="translate(795.957031 0)"/>
     <use xlink:href="#DejaVuSans-64" transform="translate(823.740234 0)"/>
     <use xlink:href="#DejaVuSans-61" transform="translate(887.216797 0)"/>
     <use xlink:href="#DejaVuSans-74" transform="translate(948.496094 0)"/>
     <use xlink:href="#DejaVuSans-69" transform="translate(987.705078 0)"/>
     <use xlink:href="#DejaVuSans-6e" transform="translate(1015.488281 0)"/>
     <use xlink:href="#DejaVuSans-67" transform="translate(1078.867188 0)"/>
     <use xlink:href="#DejaVuSans-20" transform="translate(1142.34375 0)"/>
     <use xlink:href="#DejaVuSans-44" transform="translate(1174.130859 0)"/>
     <use xlink:href="#DejaVuSans-6f" transform="translate(1251.132812 0)"/>
     <use xlink:href="#DejaVuSans-6d" transform="translate(1312.314453 0)"/>
     <use xlink:href="#DejaVuSans-61" transform="translate(1409.726562 0)"/>
     <use xlink:href="#DejaVuSans-69" transform="translate(1471.005859 0)"/>
     <use xlink:href="#DejaVuSans-6e" transform="translate(1498.789062 0)"/>
     <use xlink:href="#DejaVuSans-20" transform="translate(1562.167969 0)"/>
     <use xlink:href="#DejaVuSans-4c" transform="translate(1593.955078 0)"/>
     <use xlink:href="#DejaVuSans-6f" transform="translate(1647.917969 0)"/>
     <use xlink:href="#DejaVuSans-73" transform="translate(1709.099609 0)"/>
     <use xlink:href="#DejaVuSans-73" transform="translate(1761.199219 0)"/>
    </g>
   </g>
   <g id="legend_1">
    <g id="patch_7">
     <path d="M 559.389063 80.55625 
L 641 80.55625 
Q 643 80.55625 643 78.55625 
L 643 50.2 
Q 643 48.2 641 48.2 
L 559.389063 48.2 
Q 557.389063 48.2 557.389063 50.2 
L 557.389063 78.55625 
Q 557.389063 80.55625 559.389063 80.55625 
z
" style="fill: #ffffff; opacity: 0.8; stroke: #cccccc; stroke-linejoin: miter"/>
    </g>
    <g id="line2d_15">
     <path d="M 561.389063 56.298437 
L 571.389063 56.298437 
L 581.389063 56.298437 
" style="fill: none; stroke: #1f77b4; stroke-width: 1.5; stroke-linecap: square"/>
    </g>
    <g id="text_17">
     <!-- Training -->
     <g transform="translate(589.389063 59.798437) scale(0.1 -0.1)">
      <use xlink:href="#DejaVuSans-54"/>
      <use xlink:href="#DejaVuSans-72" transform="translate(46.333984 0)"/>
      <use xlink:href="#DejaVuSans-61" transform="translate(87.447266 0)"/>
      <use xlink:href="#DejaVuSans-69" transform="translate(148.726562 0)"/>
      <use xlink:href="#DejaVuSans-6e" transform="translate(176.509766 0)"/>
      <use xlink:href="#DejaVuSans-69" transform="translate(239.888672 0)"/>
      <use xlink:href="#DejaVuSans-6e" transform="translate(267.671875 0)"/>
      <use xlink:href="#DejaVuSans-67" transform="translate(331.050781 0)"/>
     </g>
    </g>
    <g id="line2d_16">
     <path d="M 561.389063 70.976562 
L 571.389063 70.976562 
L 581.389063 70.976562 
" style="fill: none; stroke: #ff7f0e; stroke-width: 1.5; stroke-linecap: square"/>
    </g>
    <g id="text_18">
     <!-- Validating -->
     <g transform="translate(589.389063 74.476562) scale(0.1 -0.1)">
      <use xlink:href="#DejaVuSans-56"/>
      <use xlink:href="#DejaVuSans-61" transform="translate(60.658203 0)"/>
      <use xlink:href="#DejaVuSans-6c" transform="translate(121.9375 0)"/>
      <use xlink:href="#DejaVuSans-69" transform="translate(149.720703 0)"/>
      <use xlink:href="#DejaVuSans-64" transform="translate(177.503906 0)"/>
      <use xlink:href="#DejaVuSans-61" transform="translate(240.980469 0)"/>
      <use xlink:href="#DejaVuSans-74" transform="translate(302.259766 0)"/>
      <use xlink:href="#DejaVuSans-69" transform="translate(341.46875 0)"/>
      <use xlink:href="#DejaVuSans-6e" transform="translate(369.251953 0)"/>
      <use xlink:href="#DejaVuSans-67" transform="translate(432.630859 0)"/>
     </g>
    </g>
   </g>
  </g>
 </g>
 <defs>
  <clipPath id="p13156a6ee5">
   <rect x="90" y="43.2" width="558" height="277.2"/>
  </clipPath>
 </defs>
</svg>
