<?xml version="1.0" encoding="utf-8" standalone="no"?>
<!DOCTYPE svg PUBLIC "-//W3C//DTD SVG 1.1//EN"
  "http://www.w3.org/Graphics/SVG/1.1/DTD/svg11.dtd">
<svg xmlns:xlink="http://www.w3.org/1999/xlink" width="720pt" height="360pt" viewBox="0 0 720 360" xmlns="http://www.w3.org/2000/svg" version="1.1">
 <metadata>
  <rdf:RDF xmlns:dc="http://purl.org/dc/elements/1.1/" xmlns:cc="http://creativecommons.org/ns#" xmlns:rdf="http://www.w3.org/1999/02/22-rdf-syntax-ns#">
   <cc:Work>
    <dc:type rdf:resource="http://purl.org/dc/dcmitype/StillImage"/>
    <dc:date>2026-03-13T15:50:25.119738</dc:date>
    <dc:format>image/svg+xml</dc:format>
    <dc:creator>
     <cc:Agent>
      <dc:title>Matplotlib v3.10.1, https://matplotlib.org/</dc:title>
     </cc:Agent>
    </dc:creator>
   </cc:Work>
  </rdf:RDF>
 </metadata>
 <defs>
  <style type="text/css">*{stroke-linejoin: round; stroke-linecap: butt}</style>
 </defs>
 <g id="figure_1">
  <g id="patch_1">
   <path d="M 0 360 
L 720 360 
L 720 0 
L 0 0 
z
" style="fill: #ffffff"/>
  </g>
  <g id="axes_1">
   <g id="patch_2">
    <path d="M 90 320.4 
L 648 320.4 
L 648 43.2 
L 90 43.2 
z
" style="fill: #ffffff"/>
   </g>
   <g id="matplotlib.axis_1">
    <g id="xtick_1">
     <g id="line2d_1">
      <defs>
       <path id="m7591a78e09" d="M 0 0 
L 0 3.5 
" style="stroke: #000000; stroke-width: 0.8"/>
      </defs>
      <g>
       <use xlink:href="#m7591a78e09" x="115.363636" y="320.4" style="stroke: #000000; stroke-width: 0.8"/>
      </g>
     </g>
     <g id="text_1">
      <!-- 0 -->
      <g transform="translate(112.182386 334.998438) scale(0.1 -0.1)">
       <defs>
        <path id="DejaVuSans-30" d="M 2034 4250 
Q 1547 4250 1301 3770 
Q 1056 3291 1056 2328 
Q 1056 1369 1301 889 
Q 1547 409 2034 409 
Q 2525 409 2770 889 
Q 3016 1369 3016 2328 
Q 3016 3291 2770 3770 
Q 2525 4250 2034 4250 
z
M 2034 4750 
Q 2819 4750 3233 4129 
Q 3647 3509 3647 2328 
Q 3647 1150 3233 529 
Q 2819 -91 2034 -91 
Q 1250 -91 836 529 
Q 422 1150 422 2328 
Q 422 3509 836 4129 
Q 1250 4750 2034 4750 
z
" transform="scale(0.015625)"/>
       </defs>
       <use xlink:href="#DejaVuSans-30"/>
      </g>
     </g>
    </g>
    <g id="xtick_2">
     <g id="line2d_2">
      <g>
       <use xlink:href="#m7591a78e09" x="217.384967" y="320.4" style="stroke: #000000; stroke-width: 0.8"/>
      </g>
     </g>
     <g id="text_2">
      <!-- 36 -->
      <g transform="translate(211.022467 334.998438) scale(0.1 -0.1)">
       <defs>
        <path id="DejaVuSans-33" d="M 2597 2516 
Q 3050 2419 3304 2112 
Q 3559 1806 3559 1356 
Q 3559 666 3084 287 
Q 2609 -91 1734 -91 
Q 1441 -91 1130 -33 
Q 819 25 488 141 
L 488 750 
Q 750 597 1062 519 
Q 1375 441 1716 441 
Q 2309 441 2620 675 
Q 2931 909 2931 1356 
Q 2931 1769 2642 2001 
Q 2353 2234 1838 2234 
L 1294 2234 
L 1294 2753 
L 1863 2753 
Q 2328 2753 2575 2939 
Q 2822 3125 2822 3475 
Q 2822 3834 2567 4026 
Q 2313 4219 1838 4219 
Q 1578 4219 1281 4162 
Q 984 4106 628 3988 
L 628 4550 
Q 988 4650 1302 4700 
Q 1616 4750 1894 4750 
Q 2613 4750 3031 4423 
Q 3450 4097 3450 3541 
Q 3450 3153 3228 2886 
Q 3006 2619 2597 2516 
z
" transform="scale(0.015625)"/>
        <path id="DejaVuSans-36" d="M 2113 2584 
Q 1688 2584 1439 2293 
Q 1191 2003 1191 1497 
Q 1191 994 1439 701 
Q 1688 409 2113 409 
Q 2538 409 2786 701 
Q 3034 994 3034 1497 
Q 3034 2003 2786 2293 
Q 2538 2584 2113 2584 
z
M 3366 4563 
L 3366 3988 
Q 3128 4100 2886 4159 
Q 2644 4219 2406 4219 
Q 1781 4219 1451 3797 
Q 1122 3375 1075 2522 
Q 1259 2794 1537 2939 
Q 1816 3084 2150 3084 
Q 2853 3084 3261 2657 
Q 3669 2231 3669 1497 
Q 3669 778 3244 343 
Q 2819 -91 2113 -91 
Q 1303 -91 875 529 
Q 447 1150 447 2328 
Q 447 3434 972 4092 
Q 1497 4750 2381 4750 
Q 2619 4750 2861 4703 
Q 3103 4656 3366 4563 
z
" transform="scale(0.015625)"/>
       </defs>
       <use xlink:href="#DejaVuSans-33"/>
       <use xlink:href="#DejaVuSans-36" transform="translate(63.623047 0)"/>
      </g>
     </g>
    </g>
    <g id="xtick_3">
     <g id="line2d_3">
      <g>
       <use xlink:href="#m7591a78e09" x="319.406298" y="320.4" style="stroke: #000000; stroke-width: 0.8"/>
      </g>
     </g>
     <g id="text_3">
      <!-- 72 -->
      <g transform="translate(313.043798 334.998438) scale(0.1 -0.1)">
       <defs>
        <path id="DejaVuSans-37" d="M 525 4666 
L 3525 4666 
L 3525 4397 
L 1831 0 
L 1172 0 
L 2766 4134 
L 525 4134 
L 525 4666 
z
" transform="scale(0.015625)"/>
        <path id="DejaVuSans-32" d="M 1228 531 
L 3431 531 
L 3431 0 
L 469 0 
L 469 531 
Q 828 903 1448 1529 
Q 2069 2156 2228 2338 
Q 2531 2678 2651 2914 
Q 2772 3150 2772 3378 
Q 2772 3750 2511 3984 
Q 2250 4219 1831 4219 
Q 1534 4219 1204 4116 
Q 875 4013 500 3803 
L 500 4441 
Q 881 4594 1212 4672 
Q 1544 4750 1819 4750 
Q 2544 4750 2975 4387 
Q 3406 4025 3406 3419 
Q 3406 3131 3298 2873 
Q 3191 2616 2906 2266 
Q 2828 2175 2409 1742 
Q 1991 1309 1228 531 
z
" transform="scale(0.015625)"/>
       </defs>
       <use xlink:href="#DejaVuSans-37"/>
       <use xlink:href="#DejaVuSans-32" transform="translate(63.623047 0)"/>
      </g>
     </g>
    </g>
    <g id="xtick_4">
     <g id="line2d_4">
      <g>
       <use xlink:href="#m7591a78e09" x="421.427628" y="320.4" style="stroke: #000000; stroke-width: 0.8"/>
      </g>
     </g>
     <g id="text_4">
      <!-- 108 -->
      <g transform="translate(411.883878 334.998438) scale(0.1 -0.1)">
       <defs>
        <path id="DejaVuSans-31" d="M 794 531 
L 1825 531 
L 1825 4091 
L 703 3866 
L 703 4441 
L 1819 4666 
L 2450 4666 
L 2450 531 
L 3481 531 
L 3481 0 
L 794 0 
L 794 531 
z
" transform="scale(0.015625)"/>
        <path id="DejaVuSans-38" d="M 2034 2216 
Q 1584 2216 1326 1975 
Q 1069 1734 1069 1313 
Q 1069 891 1326 650 
Q 1584 409 2034 409 
Q 2484 409 2743 651 
Q 3003 894 3003 1313 
Q 3003 1734 2745 1975 
Q 2488 2216 2034 2216 
z
M 1403 2484 
Q 997 2584 770 2862 
Q 544 3141 544 3541 
Q 544 4100 942 4425 
Q 1341 4750 2034 4750 
Q 2731 4750 3128 4425 
Q 3525 4100 3525 3541 
Q 3525 3141 3298 2862 
Q 3072 2584 2669 2484 
Q 3125 2378 3379 2068 
Q 3634 1759 3634 1313 
Q 3634 634 3220 271 
Q 2806 -91 2034 -91 
Q 1263 -91 848 271 
Q 434 634 434 1313 
Q 434 1759 690 2068 
Q 947 2378 1403 2484 
z
M 1172 3481 
Q 1172 3119 1398 2916 
Q 1625 2713 2034 2713 
Q 2441 2713 2670 2916 
Q 2900 3119 2900 3481 
Q 2900 3844 2670 4047 
Q 2441 4250 2034 4250 
Q 1625 4250 1398 4047 
Q 1172 3844 1172 3481 
z
" transform="scale(0.015625)"/>
       </defs>
       <use xlink:href="#DejaVuSans-31"/>
       <use xlink:href="#DejaVuSans-30" transform="translate(63.623047 0)"/>
       <use xlink:href="#DejaVuSans-38" transform="translate(127.246094 0)"/>
      </g>
     </g>
    </g>
    <g id="xtick_5">
     <g id="line2d_5">
      <g>
       <use xlink:href="#m7591a78e09" x="523.448959" y="320.4" style="stroke: #000000; stroke-width: 0.8"/>
      </g>
     </g>
     <g id="text_5">
      <!-- 144 -->
      <g transform="translate(513.905209 334.998438) scale(0.1 -0.1)">
       <defs>
        <path id="DejaVuSans-34" d="M 2419 4116 
L 825 1625 
L 2419 1625 
L 2419 4116 
z
M 2253 4666 
L 3047 4666 
L 3047 1625 
L 3713 1625 
L 3713 1100 
L 3047 1100 
L 3047 0 
L 2419 0 
L 2419 1100 
L 313 1100 
L 313 1709 
L 2253 4666 
z
" transform="scale(0.015625)"/>
       </defs>
       <use xlink:href="#DejaVuSans-31"/>
       <use xlink:href="#DejaVuSans-34" transform="translate(63.623047 0)"/>
       <use xlink:href="#DejaVuSans-34" transform="translate(127.246094 0)"/>
      </g>
     </g>
    </g>
    <g id="text_6">
     <!-- Epoch -->
     <g transform="translate(353.689062 348.676562) scale(0.1 -0.1)">
      <defs>
       <path id="DejaVuSans-45" d="M 628 4666 
L 3578 4666 
L 3578 4134 
L 1259 4134 
L 1259 2753 
L 3481 2753 
L 3481 2222 
L 1259 2222 
L 1259 531 
L 3634 531 
L 3634 0 
L 628 0 
L 628 4666 
z
" transform="scale(0.015625)"/>
       <path id="DejaVuSans-70" d="M 1159 525 
L 1159 -1331 
L 581 -1331 
L 581 3500 
L 1159 3500 
L 1159 2969 
Q 1341 3281 1617 3432 
Q 1894 3584 2278 3584 
Q 2916 3584 3314 3078 
Q 3713 2572 3713 1747 
Q 3713 922 3314 415 
Q 2916 -91 2278 -91 
Q 1894 -91 1617 61 
Q 1341 213 1159 525 
z
M 3116 1747 
Q 3116 2381 2855 2742 
Q 2594 3103 2138 3103 
Q 1681 3103 1420 2742 
Q 1159 2381 1159 1747 
Q 1159 1113 1420 752 
Q 1681 391 2138 391 
Q 2594 391 2855 752 
Q 3116 1113 3116 1747 
z
" transform="scale(0.015625)"/>
       <path id="DejaVuSans-6f" d="M 1959 3097 
Q 1497 3097 1228 2736 
Q 959 2375 959 1747 
Q 959 1119 1226 758 
Q 1494 397 1959 397 
Q 2419 397 2687 759 
Q 2956 1122 2956 1747 
Q 2956 2369 2687 2733 
Q 2419 3097 1959 3097 
z
M 1959 3584 
Q 2709 3584 3137 3096 
Q 3566 2609 3566 1747 
Q 3566 888 3137 398 
Q 2709 -91 1959 -91 
Q 1206 -91 779 398 
Q 353 888 353 1747 
Q 353 2609 779 3096 
Q 1206 3584 1959 3584 
z
" transform="scale(0.015625)"/>
       <path id="DejaVuSans-63" d="M 3122 3366 
L 3122 2828 
Q 2878 2963 2633 3030 
Q 2388 3097 2138 3097 
Q 1578 3097 1268 2742 
Q 959 2388 959 1747 
Q 959 1106 1268 751 
Q 1578 397 2138 397 
Q 2388 397 2633 464 
Q 2878 531 3122 666 
L 3122 134 
Q 2881 22 2623 -34 
Q 2366 -91 2075 -91 
Q 1284 -91 818 406 
Q 353 903 353 1747 
Q 353 2603 823 3093 
Q 1294 3584 2113 3584 
Q 2378 3584 2631 3529 
Q 2884 3475 3122 3366 
z
" transform="scale(0.015625)"/>
       <path id="DejaVuSans-68" d="M 3513 2113 
L 3513 0 
L 2938 0 
L 2938 2094 
Q 2938 2591 2744 2837 
Q 2550 3084 2163 3084 
Q 1697 3084 1428 2787 
Q 1159 2491 1159 1978 
L 1159 0 
L 581 0 
L 581 4863 
L 1159 4863 
L 1159 2956 
Q 1366 3272 1645 3428 
Q 1925 3584 2291 3584 
Q 2894 3584 3203 3211 
Q 3513 2838 3513 2113 
z
" transform="scale(0.015625)"/>
      </defs>
      <use xlink:href="#DejaVuSans-45"/>
      <use xlink:href="#DejaVuSans-70" transform="translate(63.183594 0)"/>
      <use xlink:href="#DejaVuSans-6f" transform="translate(126.660156 0)"/>
      <use xlink:href="#DejaVuSans-63" transform="translate(187.841797 0)"/>
      <use xlink:href="#DejaVuSans-68" transform="translate(242.822266 0)"/>
     </g>
    </g>
   </g>
   <g id="matplotlib.axis_2">
    <g id="ytick_1">
     <g id="line2d_6">
      <defs>
       <path id="mb455ea4458" d="M 0 0 
L -3.5 0 
" style="stroke: #000000; stroke-width: 0.8"/>
      </defs>
      <g>
       <use xlink:href="#mb455ea4458" x="90" y="312.025561" style="stroke: #000000; stroke-width: 0.8"/>
      </g>
     </g>
     <g id="text_7">
      <!-- 0.00 -->
      <g transform="translate(60.734375 315.824779) scale(0.1 -0.1)">
       <defs>
        <path id="DejaVuSans-2e" d="M 684 794 
L 1344 794 
L 1344 0 
L 684 0 
L 684 794 
z
" transform="scale(0.015625)"/>
       </defs>
       <use xlink:href="#DejaVuSans-30"/>
       <use xlink:href="#DejaVuSans-2e" transform="translate(63.623047 0)"/>
       <use xlink:href="#DejaVuSans-30" transform="translate(95.410156 0)"/>
       <use xlink:href="#DejaVuSans-30" transform="translate(159.033203 0)"/>
      </g>
     </g>
    </g>
    <g id="ytick_2">
     <g id="line2d_7">
      <g>
       <use xlink:href="#mb455ea4458" x="90" y="260.557942" style="stroke: #000000; stroke-width: 0.8"/>
      </g>
     </g>
     <g id="text_8">
      <!-- 0.01 -->
      <g transform="translate(60.734375 264.357161) scale(0.1 -0.1)">
       <use xlink:href="#DejaVuSans-30"/>
       <use xlink:href="#DejaVuSans-2e" transform="translate(63.623047 0)"/>
       <use xlink:href="#DejaVuSans-30" transform="translate(95.410156 0)"/>
       <use xlink:href="#DejaVuSans-31" transform="translate(159.033203 0)"/>
      </g>
     </g>
    </g>
    <g id="ytick_3">
     <g id="line2d_8">
      <g>
       <use xlink:href="#mb455ea4458" x="90" y="209.090323" style="stroke: #000000; stroke-width: 0.8"/>
      </g>
     </g>
     <g id="text_9">
      <!-- 0.02 -->
      <g transform="translate(60.734375 212.889542) scale(0.1 -0.1)">
       <use xlink:href="#DejaVuSans-30"/>
       <use xlink:href="#DejaVuSans-2e" transform="translate(63.623047 0)"/>
       <use xlink:href="#DejaVuSans-30" transform="translate(95.410156 0)"/>
       <use xlink:href="#DejaVuSans-32" transform="translate(159.033203 0)"/>
      </g>
     </g>
    </g>
    <g id="ytick_4">
     <g id="line2d_9">
      <g>
       <use xlink:href="#mb455ea4458" x="90" y="157.622705" style="stroke: #000000; stroke-width: 0.8"/>
      </g>
     </g>
     <g id="text_10">
      <!-- 0.03 -->
      <g transform="translate(60.734375 161.421924) scale(0.1 -0.1)">
       <use xlink:href="#DejaVuSans-30"/>
       <use xlink:href="#DejaVuSans-2e" transform="translate(63.623047 0)"/>
       <use xlink:href="#DejaVuSans-30" transform="translate(95.410156 0)"/>
       <use xlink:href="#DejaVuSans-33" transform="translate(159.033203 0)"/>
      </g>
     </g>
    </g>
    <g id="ytick_5">
     <g id="line2d_10">
      <g>
       <use xlink:href="#mb455ea4458" x="90" y="106.155086" style="stroke: #000000; stroke-width: 0.8"/>
      </g>
     </g>
     <g id="text_11">
      <!-- 0.04 -->
      <g transform="translate(60.734375 109.954305) scale(0.1 -0.1)">
       <use xlink:href="#DejaVuSans-30"/>
       <use xlink:href="#DejaVuSans-2e" transform="translate(63.623047 0)"/>
       <use xlink:href="#DejaVuSans-30" transform="translate(95.410156 0)"/>
       <use xlink:href="#DejaVuSans-34" transform="translate(159.033203 0)"/>
      </g>
     </g>
    </g>
    <g id="ytick_6">
     <g id="line2d_11">
      <g>
       <use xlink:href="#mb455ea4458" x="90" y="54.687468" style="stroke: #000000; stroke-width: 0.8"/>
      </g>
     </g>
     <g id="text_12">
      <!-- 0.05 -->
      <g transform="translate(60.734375 58.486686) scale(0.1 -0.1)">
       <defs>
        <path id="DejaVuSans-35" d="M 691 4666 
L 3169 4666 
L 3169 4134 
L 1269 4134 
L 1269 2991 
Q 1406 3038 1543 3061 
Q 1681 3084 1819 3084 
Q 2600 3084 3056 2656 
Q 3513 2228 3513 1497 
Q 3513 744 3044 326 
Q 2575 -91 1722 -91 
Q 1428 -91 1123 -41 
Q 819 9 494 109 
L 494 744 
Q 775 591 1075 516 
Q 1375 441 1709 441 
Q 2250 441 2565 725 
Q 2881 1009 2881 1497 
Q 2881 1984 2565 2268 
Q 2250 2553 1709 2553 
Q 1456 2553 1204 2497 
Q 953 2441 691 2322 
L 691 4666 
z
" transform="scale(0.015625)"/>
       </defs>
       <use xlink:href="#DejaVuSans-30"/>
       <use xlink:href="#DejaVuSans-2e" transform="translate(63.623047 0)"/>
       <use xlink:href="#DejaVuSans-30" transform="translate(95.410156 0)"/>
       <use xlink:href="#DejaVuSans-35" transform="translate(159.033203 0)"/>
      </g>
     </g>
    </g>
    <g id="text_13">
     <!-- Loss -->
     <g transform="translate(54.654688 192.767187) rotate(-90) scale(0.1 -0.1)">
      <defs>
       <path id="DejaVuSans-4c" d="M 628 4666 
L 1259 4666 
L 1259 531 
L 3531 531 
L 3531 0 
L 628 0 
L 628 4666 
z
" transform="scale(0.015625)"/>
       <path id="DejaVuSans-73" d="M 2834 3397 
L 2834 2853 
Q 2591 2978 2328 3040 
Q 2066 3103 1784 3103 
Q 1356 3103 1142 2972 
Q 928 2841 928 2578 
Q 928 2378 1081 2264 
Q 1234 2150 1697 2047 
L 1894 2003 
Q 2506 1872 2764 1633 
Q 3022 1394 3022 966 
Q 3022 478 2636 193 
Q 2250 -91 1575 -91 
Q 1294 -91 989 -36 
Q 684 19 347 128 
L 347 722 
Q 666 556 975 473 
Q 1284 391 1588 391 
Q 1994 391 2212 530 
Q 2431 669 2431 922 
Q 2431 1156 2273 1281 
Q 2116 1406 1581 1522 
L 1381 1569 
Q 847 1681 609 1914 
Q 372 2147 372 2553 
Q 372 3047 722 3315 
Q 1072 3584 1716 3584 
Q 2034 3584 2315 3537 
Q 2597 3491 2834 3397 
z
" transform="scale(0.015625)"/>
      </defs>
      <use xlink:href="#DejaVuSans-4c"/>
      <use xlink:href="#DejaVuSans-6f" transform="translate(53.962891 0)"/>
      <use xlink:href="#DejaVuSans-73" transform="translate(115.144531 0)"/>
      <use xlink:href="#DejaVuSans-73" transform="translate(167.244141 0)"/>
     </g>
    </g>
   </g>
   <g id="line2d_12">
    <path d="M 115.363636 55.8 
L 118.197562 251.568187 
L 121.031488 272.078915 
L 123.865414 283.905316 
L 126.69934 290.609539 
L 129.533266 294.149789 
L 132.367191 296.095939 
L 140.868969 298.285998 
L 143.702895 298.49527 
L 146.536821 299.79483 
L 149.370747 300.401603 
L 152.204672 300.837174 
L 155.038598 301.43573 
L 160.70645 301.388314 
L 169.208228 300.797534 
L 172.042153 300.186664 
L 174.876079 300.22631 
L 177.710005 300.59367 
L 180.543931 300.530077 
L 183.377857 300.673964 
L 186.211783 300.512751 
L 194.71356 300.509429 
L 197.547486 299.886475 
L 200.381412 299.758852 
L 203.215338 299.830523 
L 206.049264 300.41575 
L 208.883189 300.353252 
L 211.717115 300.593671 
L 217.384967 300.806295 
L 223.052819 301.632839 
L 225.886745 301.547597 
L 228.72067 301.709512 
L 234.388522 301.513768 
L 240.056374 301.765605 
L 242.8903 302.137104 
L 245.724225 302.386386 
L 248.558151 302.504579 
L 251.392077 302.83735 
L 257.059929 303.288113 
L 259.893855 303.233021 
L 262.727781 303.059045 
L 276.89741 303.31315 
L 288.233113 303.295856 
L 293.900965 303.559424 
L 299.568817 304.112421 
L 305.236668 303.945684 
L 308.070594 304.124504 
L 325.074149 304.315737 
L 327.908075 304.093405 
L 333.575927 304.189883 
L 336.409853 304.623835 
L 339.243779 304.830442 
L 347.745556 305.08645 
L 353.413408 305.24777 
L 356.247334 304.9306 
L 359.08126 304.883521 
L 361.915185 305.162199 
L 364.749111 305.286699 
L 370.416963 305.24844 
L 373.250889 305.355744 
L 376.084815 305.291022 
L 378.91874 305.040257 
L 390.254444 305.557068 
L 404.424073 305.259286 
L 407.257999 305.370515 
L 410.091925 305.640009 
L 412.925851 305.569687 
L 421.427628 306.015904 
L 424.261554 306.177603 
L 427.09548 306.123521 
L 432.763332 306.364871 
L 438.431183 306.229705 
L 444.099035 306.132992 
L 446.932961 306.331279 
L 452.600813 306.438311 
L 455.434738 306.526397 
L 461.10259 306.414224 
L 466.770442 306.497322 
L 469.604368 306.556614 
L 480.940071 306.241038 
L 483.773997 306.278736 
L 489.441849 306.568318 
L 495.1097 306.57691 
L 503.611478 306.598751 
L 517.781107 306.866082 
L 523.448959 306.849383 
L 526.282885 306.870505 
L 529.116811 306.775885 
L 548.954292 307.03421 
L 557.456069 307.100363 
L 563.123921 307.167702 
L 565.957847 307.137077 
L 568.791772 307.226168 
L 574.459624 307.11551 
L 577.29355 307.297635 
L 582.961402 307.242521 
L 585.795328 307.301017 
L 588.629253 307.152168 
L 597.131031 307.275372 
L 608.466734 307.538235 
L 622.636364 307.46628 
L 622.636364 307.46628 
" clip-path="url(#p01e02ff9b1)" style="fill: none; stroke: #1f77b4; stroke-width: 1.5; stroke-linecap: square"/>
   </g>
   <g id="line2d_13">
    <path d="M 115.363636 248.4266 
L 118.197562 268.551002 
L 123.865414 283.695024 
L 126.69934 294.826663 
L 129.533266 297.194337 
L 132.367191 296.111478 
L 135.201117 297.809309 
L 138.035043 299.066718 
L 140.868969 300.167111 
L 143.702895 300.479505 
L 146.536821 301.173214 
L 149.370747 301.299857 
L 152.204672 301.841132 
L 155.038598 303.012819 
L 157.872524 303.020285 
L 160.70645 299.490646 
L 163.540376 301.308445 
L 166.374302 300.644841 
L 169.208228 302.16146 
L 172.042153 300.983767 
L 177.710005 301.483662 
L 180.543931 299.155611 
L 183.377857 299.685623 
L 186.211783 302.005639 
L 189.045708 301.892441 
L 191.879634 302.042312 
L 197.547486 299.503858 
L 200.381412 300.400332 
L 203.215338 300.45885 
L 206.049264 300.041553 
L 208.883189 301.07114 
L 211.717115 300.521519 
L 214.551041 300.88598 
L 217.384967 300.211508 
L 220.218893 303.021196 
L 223.052819 302.330511 
L 225.886745 302.383274 
L 228.72067 302.102866 
L 231.554596 302.465277 
L 234.388522 302.595903 
L 237.222448 301.890203 
L 240.056374 302.564525 
L 242.8903 302.885121 
L 245.724225 302.634175 
L 248.558151 303.174428 
L 251.392077 303.435814 
L 254.226003 303.890042 
L 257.059929 303.52039 
L 259.893855 304.099782 
L 262.727781 302.217392 
L 265.561706 303.625364 
L 271.229558 303.439108 
L 274.063484 303.669134 
L 276.89741 303.68374 
L 279.731336 303.309713 
L 282.565262 303.211255 
L 285.399187 302.357908 
L 288.233113 303.300943 
L 291.067039 303.778687 
L 293.900965 302.884416 
L 296.734891 304.321441 
L 299.568817 304.152571 
L 302.402743 304.572171 
L 305.236668 303.443989 
L 308.070594 304.749492 
L 310.90452 304.89072 
L 313.738446 304.428558 
L 316.572372 304.745928 
L 319.406298 304.677632 
L 322.240223 304.845364 
L 325.074149 304.280896 
L 327.908075 304.387683 
L 330.742001 303.955664 
L 333.575927 304.958905 
L 339.243779 305.361045 
L 342.077704 304.361842 
L 344.91163 305.083524 
L 347.745556 305.428371 
L 350.579482 305.071057 
L 353.413408 305.691834 
L 356.247334 305.071658 
L 359.08126 305.116548 
L 364.749111 305.564718 
L 367.583037 304.683054 
L 370.416963 305.411663 
L 373.250889 305.618311 
L 376.084815 305.585154 
L 378.91874 305.363969 
L 381.752666 305.519774 
L 384.586592 305.826338 
L 387.420518 305.57395 
L 390.254444 306.142008 
L 395.922296 305.736501 
L 398.756221 305.218982 
L 407.257999 305.667328 
L 410.091925 305.855029 
L 412.925851 305.751313 
L 415.759777 306.026773 
L 418.593702 306.148758 
L 421.427628 306.478109 
L 424.261554 306.311989 
L 429.929406 306.550271 
L 432.763332 306.860077 
L 435.597257 305.67335 
L 438.431183 306.508894 
L 441.265109 306.631735 
L 444.099035 306.435152 
L 446.932961 306.82765 
L 449.766887 306.502179 
L 452.600813 306.830494 
L 455.434738 306.855867 
L 458.268664 306.369638 
L 461.10259 306.717697 
L 463.936516 306.501006 
L 466.770442 306.941545 
L 472.438294 306.561559 
L 475.272219 306.096972 
L 478.106145 306.522205 
L 480.940071 306.190642 
L 483.773997 306.630834 
L 486.607923 306.616012 
L 489.441849 306.799661 
L 495.1097 306.702078 
L 497.943626 306.349901 
L 500.777552 306.791372 
L 503.611478 306.954202 
L 506.445404 306.867908 
L 512.113255 307.034297 
L 514.947181 306.695421 
L 520.615033 306.68234 
L 523.448959 307.157978 
L 529.116811 307.024659 
L 534.784662 307.218276 
L 543.28644 307.033214 
L 546.120366 306.851578 
L 548.954292 306.953879 
L 551.788217 306.907441 
L 554.622143 307.22173 
L 557.456069 307.002912 
L 560.289995 307.478648 
L 563.123921 307.453134 
L 565.957847 307.123063 
L 571.625698 307.379524 
L 574.459624 307.363047 
L 577.29355 307.203631 
L 585.795328 307.594531 
L 588.629253 307.407004 
L 591.463179 307.699448 
L 594.297105 307.254133 
L 597.131031 307.49193 
L 599.964957 307.257029 
L 602.798883 307.767692 
L 608.466734 307.8 
L 611.30066 307.449745 
L 614.134586 307.771961 
L 619.802438 307.559943 
L 622.636364 307.645651 
L 622.636364 307.645651 
" clip-path="url(#p01e02ff9b1)" style="fill: none; stroke: #ff7f0e; stroke-width: 1.5; stroke-linecap: square"/>
   </g>
   <g id="line2d_14">
    <path d="M 115.363636 224.302712 
L 118.197562 239.788962 
L 121.031488 243.076343 
L 123.865414 257.358953 
L 126.69934 274.28183 
L 129.533266 278.823593 
L 132.367191 276.901379 
L 135.201117 280.124868 
L 138.035043 280.808833 
L 140.868969 281.310716 
L 143.702895 281.1177 
L 146.536821 281.670966 
L 149.370747 280.685922 
L 155.038598 284.660804 
L 157.872524 285.021108 
L 160.70645 281.194511 
L 163.540376 284.64606 
L 166.374302 283.010118 
L 169.208228 284.089751 
L 172.042153 282.695614 
L 174.876079 283.581898 
L 177.710005 284.187684 
L 180.543931 281.891329 
L 183.377857 284.01107 
L 186.211783 284.208093 
L 189.045708 285.509661 
L 191.879634 285.44884 
L 194.71356 286.006511 
L 197.547486 285.419784 
L 200.381412 284.325913 
L 203.215338 284.239198 
L 206.049264 284.853322 
L 208.883189 286.719633 
L 211.717115 285.842509 
L 214.551041 288.38797 
L 217.384967 286.110243 
L 220.218893 289.69325 
L 223.052819 288.23625 
L 225.886745 287.673732 
L 228.72067 286.743239 
L 231.554596 287.591127 
L 234.388522 288.016377 
L 237.222448 287.709345 
L 240.056374 287.899204 
L 242.8903 287.939685 
L 245.724225 286.183763 
L 248.558151 287.870028 
L 254.226003 289.731004 
L 257.059929 288.637069 
L 259.893855 288.937883 
L 262.727781 286.303756 
L 265.561706 287.410148 
L 268.395632 287.167069 
L 271.229558 289.244331 
L 274.063484 290.259712 
L 276.89741 289.041587 
L 279.731336 288.810788 
L 282.565262 288.831153 
L 288.233113 287.346453 
L 291.067039 287.76229 
L 293.900965 286.89971 
L 296.734891 288.683833 
L 299.568817 288.568814 
L 302.402743 289.219535 
L 305.236668 288.690827 
L 308.070594 289.876732 
L 310.90452 290.667022 
L 313.738446 290.015979 
L 316.572372 291.01922 
L 319.406298 291.320879 
L 322.240223 292.112979 
L 325.074149 289.96677 
L 327.908075 290.716233 
L 330.742001 288.778084 
L 333.575927 290.806841 
L 336.409853 290.895251 
L 339.243779 290.573889 
L 342.077704 289.145545 
L 344.91163 291.46382 
L 347.745556 291.280421 
L 350.579482 290.514302 
L 353.413408 291.108885 
L 356.247334 290.361191 
L 359.08126 290.950669 
L 361.915185 291.801634 
L 364.749111 292.490021 
L 367.583037 291.98031 
L 370.416963 293.599805 
L 373.250889 293.276362 
L 378.91874 291.070816 
L 381.752666 291.630561 
L 384.586592 291.395992 
L 387.420518 291.494011 
L 390.254444 292.667857 
L 393.08837 292.272869 
L 395.922296 291.991269 
L 398.756221 292.206532 
L 401.590147 291.102974 
L 404.424073 292.267842 
L 407.257999 292.493157 
L 410.091925 292.847426 
L 412.925851 291.823013 
L 415.759777 292.395157 
L 418.593702 291.864656 
L 421.427628 291.995469 
L 424.261554 291.949599 
L 429.929406 292.300268 
L 432.763332 292.257919 
L 435.597257 291.292042 
L 438.431183 291.765026 
L 444.099035 292.095361 
L 446.932961 292.791826 
L 449.766887 292.214959 
L 452.600813 293.388288 
L 455.434738 293.166899 
L 458.268664 292.172344 
L 463.936516 292.313758 
L 466.770442 292.807363 
L 472.438294 292.03257 
L 475.272219 291.169494 
L 478.106145 291.77708 
L 480.940071 291.228375 
L 483.773997 291.855313 
L 486.607923 292.666291 
L 489.441849 293.313828 
L 492.275775 293.525264 
L 495.1097 293.017338 
L 497.943626 292.312338 
L 500.777552 291.770606 
L 503.611478 292.517098 
L 506.445404 292.562777 
L 509.27933 293.040072 
L 514.947181 292.270417 
L 517.781107 292.662223 
L 523.448959 292.582716 
L 526.282885 292.267416 
L 529.116811 292.30004 
L 531.950736 291.859685 
L 534.784662 292.599715 
L 537.618588 292.454588 
L 540.452514 291.839947 
L 543.28644 292.232726 
L 546.120366 291.618328 
L 551.788217 291.79763 
L 554.622143 291.544132 
L 557.456069 291.61915 
L 560.289995 292.483436 
L 563.123921 292.687215 
L 565.957847 292.706242 
L 568.791772 292.563897 
L 574.459624 292.62301 
L 577.29355 291.764688 
L 580.127476 291.939082 
L 582.961402 292.490229 
L 585.795328 291.863653 
L 588.629253 291.480276 
L 591.463179 291.445803 
L 594.297105 290.51593 
L 599.964957 291.028475 
L 602.798883 291.577776 
L 605.632809 291.725358 
L 608.466734 292.244712 
L 611.30066 290.92464 
L 614.134586 291.289523 
L 616.968512 291.507947 
L 622.636364 291.66599 
L 622.636364 291.66599 
" clip-path="url(#p01e02ff9b1)" style="fill: none; stroke: #2ca02c; stroke-width: 1.5; stroke-linecap: square"/>
   </g>
   <g id="patch_3">
    <path d="M 90 320.4 
L 90 43.2 
" style="fill: none; stroke: #000000; stroke-width: 0.8; stroke-linejoin: miter; stroke-linecap: square"/>
   </g>
   <g id="patch_4">
    <path d="M 648 320.4 
L 648 43.2 
" style="fill: none; stroke: #000000; stroke-width: 0.8; stroke-linejoin: miter; stroke-linecap: square"/>
   </g>
   <g id="patch_5">
    <path d="M 90 320.4 
L 648 320.4 
" style="fill: none; stroke: #000000; stroke-width: 0.8; stroke-linejoin: miter; stroke-linecap: square"/>
   </g>
   <g id="patch_6">
    <path d="M 90 43.2 
L 648 43.2 
" style="fill: none; stroke: #000000; stroke-width: 0.8; stroke-linejoin: miter; stroke-linecap: square"/>
   </g>
   <g id="text_14">
    <!-- Estimation Losses -->
    <g transform="translate(315.165 37.2) scale(0.12 -0.12)">
     <defs>
      <path id="DejaVuSans-74" d="M 1172 4494 
L 1172 3500 
L 2356 3500 
L 2356 3053 
L 1172 3053 
L 1172 1153 
Q 1172 725 1289 603 
Q 1406 481 1766 481 
L 2356 481 
L 2356 0 
L 1766 0 
Q 1100 0 847 248 
Q 594 497 594 1153 
L 594 3053 
L 172 3053 
L 172 3500 
L 594 3500 
L 594 4494 
L 1172 4494 
z
" transform="scale(0.015625)"/>
      <path id="DejaVuSans-69" d="M 603 3500 
L 1178 3500 
L 1178 0 
L 603 0 
L 603 3500 
z
M 603 4863 
L 1178 4863 
L 1178 4134 
L 603 4134 
L 603 4863 
z
" transform="scale(0.015625)"/>
      <path id="DejaVuSans-6d" d="M 3328 2828 
Q 3544 3216 3844 3400 
Q 4144 3584 4550 3584 
Q 5097 3584 5394 3201 
Q 5691 2819 5691 2113 
L 5691 0 
L 5113 0 
L 5113 2094 
Q 5113 2597 4934 2840 
Q 4756 3084 4391 3084 
Q 3944 3084 3684 2787 
Q 3425 2491 3425 1978 
L 3425 0 
L 2847 0 
L 2847 2094 
Q 2847 2600 2669 2842 
Q 2491 3084 2119 3084 
Q 1678 3084 1418 2786 
Q 1159 2488 1159 1978 
L 1159 0 
L 581 0 
L 581 3500 
L 1159 3500 
L 1159 2956 
Q 1356 3278 1631 3431 
Q 1906 3584 2284 3584 
Q 2666 3584 2933 3390 
Q 3200 3197 3328 2828 
z
" transform="scale(0.015625)"/>
      <path id="DejaVuSans-61" d="M 2194 1759 
Q 1497 1759 1228 1600 
Q 959 1441 959 1056 
Q 959 750 1161 570 
Q 1363 391 1709 391 
Q 2188 391 2477 730 
Q 2766 1069 2766 1631 
L 2766 1759 
L 2194 1759 
z
M 3341 1997 
L 3341 0 
L 2766 0 
L 2766 531 
Q 2569 213 2275 61 
Q 1981 -91 1556 -91 
Q 1019 -91 701 211 
Q 384 513 384 1019 
Q 384 1609 779 1909 
Q 1175 2209 1959 2209 
L 2766 2209 
L 2766 2266 
Q 2766 2663 2505 2880 
Q 2244 3097 1772 3097 
Q 1472 3097 1187 3025 
Q 903 2953 641 2809 
L 641 3341 
Q 956 3463 1253 3523 
Q 1550 3584 1831 3584 
Q 2591 3584 2966 3190 
Q 3341 2797 3341 1997 
z
" transform="scale(0.015625)"/>
      <path id="DejaVuSans-6e" d="M 3513 2113 
L 3513 0 
L 2938 0 
L 2938 2094 
Q 2938 2591 2744 2837 
Q 2550 3084 2163 3084 
Q 1697 3084 1428 2787 
Q 1159 2491 1159 1978 
L 1159 0 
L 581 0 
L 581 3500 
L 1159 3500 
L 1159 2956 
Q 1366 3272 1645 3428 
Q 1925 3584 2291 3584 
Q 2894 3584 3203 3211 
Q 3513 2838 3513 2113 
z
" transform="scale(0.015625)"/>
      <path id="DejaVuSans-20" transform="scale(0.015625)"/>
      <path id="DejaVuSans-65" d="M 3597 1894 
L 3597 1613 
L 953 1613 
Q 991 1019 1311 708 
Q 1631 397 2203 397 
Q 2534 397 2845 478 
Q 3156 559 3463 722 
L 3463 178 
Q 3153 47 2828 -22 
Q 2503 -91 2169 -91 
Q 1331 -91 842 396 
Q 353 884 353 1716 
Q 353 2575 817 3079 
Q 1281 3584 2069 3584 
Q 2775 3584 3186 3129 
Q 3597 2675 3597 1894 
z
M 3022 2063 
Q 3016 2534 2758 2815 
Q 2500 3097 2075 3097 
Q 1594 3097 1305 2825 
Q 1016 2553 972 2059 
L 3022 2063 
z
" transform="scale(0.015625)"/>
     </defs>
     <use xlink:href="#DejaVuSans-45"/>
     <use xlink:href="#DejaVuSans-73" transform="translate(63.183594 0)"/>
     <use xlink:href="#DejaVuSans-74" transform="translate(115.283203 0)"/>
     <use xlink:href="#DejaVuSans-69" transform="translate(154.492188 0)"/>
     <use xlink:href="#DejaVuSans-6d" transform="translate(182.275391 0)"/>
     <use xlink:href="#DejaVuSans-61" transform="translate(279.6875 0)"/>
     <use xlink:href="#DejaVuSans-74" transform="translate(340.966797 0)"/>
     <use xlink:href="#DejaVuSans-69" transform="translate(380.175781 0)"/>
     <use xlink:href="#DejaVuSans-6f" transform="translate(407.958984 0)"/>
     <use xlink:href="#DejaVuSans-6e" transform="translate(469.140625 0)"/>
     <use xlink:href="#DejaVuSans-20" transform="translate(532.519531 0)"/>
     <use xlink:href="#DejaVuSans-4c" transform="translate(564.306641 0)"/>
     <use xlink:href="#DejaVuSans-6f" transform="translate(618.269531 0)"/>
     <use xlink:href="#DejaVuSans-73" transform="translate(679.451172 0)"/>
     <use xlink:href="#DejaVuSans-73" transform="translate(731.550781 0)"/>
     <use xlink:href="#DejaVuSans-65" transform="translate(783.650391 0)"/>
     <use xlink:href="#DejaVuSans-73" transform="translate(845.173828 0)"/>
    </g>
   </g>
   <g id="legend_1">
    <g id="patch_7">
     <path d="M 515.59375 95.234375 
L 641 95.234375 
Q 643 95.234375 643 93.234375 
L 643 50.2 
Q 643 48.2 641 48.2 
L 515.59375 48.2 
Q 513.59375 48.2 513.59375 50.2 
L 513.59375 93.234375 
Q 513.59375 95.234375 515.59375 95.234375 
z
" style="fill: #ffffff; opacity: 0.8; stroke: #cccccc; stroke-linejoin: miter"/>
    </g>
    <g id="line2d_15">
     <path d="M 517.59375 56.298437 
L 527.59375 56.298437 
L 537.59375 56.298437 
" style="fill: none; stroke: #1f77b4; stroke-width: 1.5; stroke-linecap: square"/>
    </g>
    <g id="text_15">
     <!-- Train Loss - Source -->
     <g transform="translate(545.59375 59.798437) scale(0.1 -0.1)">
      <defs>
       <path id="DejaVuSans-54" d="M -19 4666 
L 3928 4666 
L 3928 4134 
L 2272 4134 
L 2272 0 
L 1638 0 
L 1638 4134 
L -19 4134 
L -19 4666 
z
" transform="scale(0.015625)"/>
       <path id="DejaVuSans-72" d="M 2631 2963 
Q 2534 3019 2420 3045 
Q 2306 3072 2169 3072 
Q 1681 3072 1420 2755 
Q 1159 2438 1159 1844 
L 1159 0 
L 581 0 
L 581 3500 
L 1159 3500 
L 1159 2956 
Q 1341 3275 1631 3429 
Q 1922 3584 2338 3584 
Q 2397 3584 2469 3576 
Q 2541 3569 2628 3553 
L 2631 2963 
z
" transform="scale(0.015625)"/>
       <path id="DejaVuSans-2d" d="M 313 2009 
L 1997 2009 
L 1997 1497 
L 313 1497 
L 313 2009 
z
" transform="scale(0.015625)"/>
       <path id="DejaVuSans-53" d="M 3425 4513 
L 3425 3897 
Q 3066 4069 2747 4153 
Q 2428 4238 2131 4238 
Q 1616 4238 1336 4038 
Q 1056 3838 1056 3469 
Q 1056 3159 1242 3001 
Q 1428 2844 1947 2747 
L 2328 2669 
Q 3034 2534 3370 2195 
Q 3706 1856 3706 1288 
Q 3706 609 3251 259 
Q 2797 -91 1919 -91 
Q 1588 -91 1214 -16 
Q 841 59 441 206 
L 441 856 
Q 825 641 1194 531 
Q 1563 422 1919 422 
Q 2459 422 2753 634 
Q 3047 847 3047 1241 
Q 3047 1584 2836 1778 
Q 2625 1972 2144 2069 
L 1759 2144 
Q 1053 2284 737 2584 
Q 422 2884 422 3419 
Q 422 4038 858 4394 
Q 1294 4750 2059 4750 
Q 2388 4750 2728 4690 
Q 3069 4631 3425 4513 
z
" transform="scale(0.015625)"/>
       <path id="DejaVuSans-75" d="M 544 1381 
L 544 3500 
L 1119 3500 
L 1119 1403 
Q 1119 906 1312 657 
Q 1506 409 1894 409 
Q 2359 409 2629 706 
Q 2900 1003 2900 1516 
L 2900 3500 
L 3475 3500 
L 3475 0 
L 2900 0 
L 2900 538 
Q 2691 219 2414 64 
Q 2138 -91 1772 -91 
Q 1169 -91 856 284 
Q 544 659 544 1381 
z
M 1991 3584 
L 1991 3584 
z
" transform="scale(0.015625)"/>
      </defs>
      <use xlink:href="#DejaVuSans-54"/>
      <use xlink:href="#DejaVuSans-72" transform="translate(46.333984 0)"/>
      <use xlink:href="#DejaVuSans-61" transform="translate(87.447266 0)"/>
      <use xlink:href="#DejaVuSans-69" transform="translate(148.726562 0)"/>
      <use xlink:href="#DejaVuSans-6e" transform="translate(176.509766 0)"/>
      <use xlink:href="#DejaVuSans-20" transform="translate(239.888672 0)"/>
      <use xlink:href="#DejaVuSans-4c" transform="translate(271.675781 0)"/>
      <use xlink:href="#DejaVuSans-6f" transform="translate(325.638672 0)"/>
      <use xlink:href="#DejaVuSans-73" transform="translate(386.820312 0)"/>
      <use xlink:href="#DejaVuSans-73" transform="translate(438.919922 0)"/>
      <use xlink:href="#DejaVuSans-20" transform="translate(491.019531 0)"/>
      <use xlink:href="#DejaVuSans-2d" transform="translate(522.806641 0)"/>
      <use xlink:href="#DejaVuSans-20" transform="translate(558.890625 0)"/>
      <use xlink:href="#DejaVuSans-53" transform="translate(590.677734 0)"/>
      <use xlink:href="#DejaVuSans-6f" transform="translate(654.154297 0)"/>
      <use xlink:href="#DejaVuSans-75" transform="translate(715.335938 0)"/>
      <use xlink:href="#DejaVuSans-72" transform="translate(778.714844 0)"/>
      <use xlink:href="#DejaVuSans-63" transform="translate(817.578125 0)"/>
      <use xlink:href="#DejaVuSans-65" transform="translate(872.558594 0)"/>
     </g>
    </g>
    <g id="line2d_16">
     <path d="M 517.59375 70.976562 
L 527.59375 70.976562 
L 537.59375 70.976562 
" style="fill: none; stroke: #ff7f0e; stroke-width: 1.5; stroke-linecap: square"/>
    </g>
    <g id="text_16">
     <!-- Val Loss - Source -->
     <g transform="translate(545.59375 74.476562) scale(0.1 -0.1)">
      <defs>
       <path id="DejaVuSans-56" d="M 1831 0 
L 50 4666 
L 709 4666 
L 2188 738 
L 3669 4666 
L 4325 4666 
L 2547 0 
L 1831 0 
z
" transform="scale(0.015625)"/>
       <path id="DejaVuSans-6c" d="M 603 4863 
L 1178 4863 
L 1178 0 
L 603 0 
L 603 4863 
z
" transform="scale(0.015625)"/>
      </defs>
      <use xlink:href="#DejaVuSans-56"/>
      <use xlink:href="#DejaVuSans-61" transform="translate(60.658203 0)"/>
      <use xlink:href="#DejaVuSans-6c" transform="translate(121.9375 0)"/>
      <use xlink:href="#DejaVuSans-20" transform="translate(149.720703 0)"/>
      <use xlink:href="#DejaVuSans-4c" transform="translate(181.507812 0)"/>
      <use xlink:href="#DejaVuSans-6f" transform="translate(235.470703 0)"/>
      <use xlink:href="#DejaVuSans-73" transform="translate(296.652344 0)"/>
      <use xlink:href="#DejaVuSans-73" transform="translate(348.751953 0)"/>
      <use xlink:href="#DejaVuSans-20" transform="translate(400.851562 0)"/>
      <use xlink:href="#DejaVuSans-2d" transform="translate(432.638672 0)"/>
      <use xlink:href="#DejaVuSans-20" transform="translate(468.722656 0)"/>
      <use xlink:href="#DejaVuSans-53" transform="translate(500.509766 0)"/>
      <use xlink:href="#DejaVuSans-6f" transform="translate(563.986328 0)"/>
      <use xlink:href="#DejaVuSans-75" transform="translate(625.167969 0)"/>
      <use xlink:href="#DejaVuSans-72" transform="translate(688.546875 0)"/>
      <use xlink:href="#DejaVuSans-63" transform="translate(727.410156 0)"/>
      <use xlink:href="#DejaVuSans-65" transform="translate(782.390625 0)"/>
     </g>
    </g>
    <g id="line2d_17">
     <path d="M 517.59375 85.654687 
L 527.59375 85.654687 
L 537.59375 85.654687 
" style="fill: none; stroke: #2ca02c; stroke-width: 1.5; stroke-linecap: square"/>
    </g>
    <g id="text_17">
     <!-- Val Loss - Target -->
     <g transform="translate(545.59375 89.154687) scale(0.1 -0.1)">
      <defs>
       <path id="DejaVuSans-67" d="M 2906 1791 
Q 2906 2416 2648 2759 
Q 2391 3103 1925 3103 
Q 1463 3103 1205 2759 
Q 947 2416 947 1791 
Q 947 1169 1205 825 
Q 1463 481 1925 481 
Q 2391 481 2648 825 
Q 2906 1169 2906 1791 
z
M 3481 434 
Q 3481 -459 3084 -895 
Q 2688 -1331 1869 -1331 
Q 1566 -1331 1297 -1286 
Q 1028 -1241 775 -1147 
L 775 -588 
Q 1028 -725 1275 -790 
Q 1522 -856 1778 -856 
Q 2344 -856 2625 -561 
Q 2906 -266 2906 331 
L 2906 616 
Q 2728 306 2450 153 
Q 2172 0 1784 0 
Q 1141 0 747 490 
Q 353 981 353 1791 
Q 353 2603 747 3093 
Q 1141 3584 1784 3584 
Q 2172 3584 2450 3431 
Q 2728 3278 2906 2969 
L 2906 3500 
L 3481 3500 
L 3481 434 
z
" transform="scale(0.015625)"/>
      </defs>
      <use xlink:href="#DejaVuSans-56"/>
      <use xlink:href="#DejaVuSans-61" transform="translate(60.658203 0)"/>
      <use xlink:href="#DejaVuSans-6c" transform="translate(121.9375 0)"/>
      <use xlink:href="#DejaVuSans-20" transform="translate(149.720703 0)"/>
      <use xlink:href="#DejaVuSans-4c" transform="translate(181.507812 0)"/>
      <use xlink:href="#DejaVuSans-6f" transform="translate(235.470703 0)"/>
      <use xlink:href="#DejaVuSans-73" transform="translate(296.652344 0)"/>
      <use xlink:href="#DejaVuSans-73" transform="translate(348.751953 0)"/>
      <use xlink:href="#DejaVuSans-20" transform="translate(400.851562 0)"/>
      <use xlink:href="#DejaVuSans-2d" transform="translate(432.638672 0)"/>
      <use xlink:href="#DejaVuSans-20" transform="translate(468.722656 0)"/>
      <use xlink:href="#DejaVuSans-54" transform="translate(500.509766 0)"/>
      <use xlink:href="#DejaVuSans-61" transform="translate(545.09375 0)"/>
      <use xlink:href="#DejaVuSans-72" transform="translate(606.373047 0)"/>
      <use xlink:href="#DejaVuSans-67" transform="translate(645.736328 0)"/>
      <use xlink:href="#DejaVuSans-65" transform="translate(709.212891 0)"/>
      <use xlink:href="#DejaVuSans-74" transform="translate(770.736328 0)"/>
     </g>
    </g>
   </g>
  </g>
 </g>
 <defs>
  <clipPath id="p01e02ff9b1">
   <rect x="90" y="43.2" width="558" height="277.2"/>
  </clipPath>
 </defs>
</svg>
