<?xml version="1.0" encoding="utf-8" standalone="no"?>
<!DOCTYPE svg PUBLIC "-//W3C//DTD SVG 1.1//EN"
  "http://www.w3.org/Graphics/SVG/1.1/DTD/svg11.dtd">
<svg xmlns:xlink="http://www.w3.org/1999/xlink" width="720pt" height="360pt" viewBox="0 0 720 360" xmlns="http://www.w3.org/2000/svg" version="1.1">
 <metadata>
  <rdf:RDF xmlns:dc="http://purl.org/dc/elements/1.1/" xmlns:cc="http://creativecommons.org/ns#" xmlns:rdf="http://www.w3.org/1999/02/22-rdf-syntax-ns#">
   <cc:Work>
    <dc:type rdf:resource="http://purl.org/dc/dcmitype/StillImage"/>
    <dc:date>2025-11-16T05:21:22.511982</dc:date>
    <dc:format>image/svg+xml</dc:format>
    <dc:creator>
     <cc:Agent>
      <dc:title>Matplotlib v3.10.1, https://matplotlib.org/</dc:title>
     </cc:Agent>
    </dc:creator>
   </cc:Work>
  </rdf:RDF>
 </metadata>
 <defs>
  <style type="text/css">*{stroke-linejoin: round; stroke-linecap: butt}</style>
 </defs>
 <g id="figure_1">
  <g id="patch_1">
   <path d="M 0 360 
L 720 360 
L 720 0 
L 0 0 
z
" style="fill: #ffffff"/>
  </g>
  <g id="axes_1">
   <g id="patch_2">
    <path d="M 90 320.4 
L 648 320.4 
L 648 43.2 
L 90 43.2 
z
" style="fill: #ffffff"/>
   </g>
   <g id="matplotlib.axis_1">
    <g id="xtick_1">
     <g id="line2d_1">
      <defs>
       <path id="m602d825eac" d="M 0 0 
L 0 3.5 
" style="stroke: #000000; stroke-width: 0.8"/>
      </defs>
      <g>
       <use xlink:href="#m602d825eac" x="115.363636" y="320.4" style="stroke: #000000; stroke-width: 0.8"/>
      </g>
     </g>
     <g id="text_1">
      <!-- 0 -->
      <g transform="translate(112.182386 334.998438) scale(0.1 -0.1)">
       <defs>
        <path id="DejaVuSans-30" d="M 2034 4250 
Q 1547 4250 1301 3770 
Q 1056 3291 1056 2328 
Q 1056 1369 1301 889 
Q 1547 409 2034 409 
Q 2525 409 2770 889 
Q 3016 1369 3016 2328 
Q 3016 3291 2770 3770 
Q 2525 4250 2034 4250 
z
M 2034 4750 
Q 2819 4750 3233 4129 
Q 3647 3509 3647 2328 
Q 3647 1150 3233 529 
Q 2819 -91 2034 -91 
Q 1250 -91 836 529 
Q 422 1150 422 2328 
Q 422 3509 836 4129 
Q 1250 4750 2034 4750 
z
" transform="scale(0.015625)"/>
       </defs>
       <use xlink:href="#DejaVuSans-30"/>
      </g>
     </g>
    </g>
    <g id="xtick_2">
     <g id="line2d_2">
      <g>
       <use xlink:href="#m602d825eac" x="217.157495" y="320.4" style="stroke: #000000; stroke-width: 0.8"/>
      </g>
     </g>
     <g id="text_2">
      <!-- 60 -->
      <g transform="translate(210.794995 334.998438) scale(0.1 -0.1)">
       <defs>
        <path id="DejaVuSans-36" d="M 2113 2584 
Q 1688 2584 1439 2293 
Q 1191 2003 1191 1497 
Q 1191 994 1439 701 
Q 1688 409 2113 409 
Q 2538 409 2786 701 
Q 3034 994 3034 1497 
Q 3034 2003 2786 2293 
Q 2538 2584 2113 2584 
z
M 3366 4563 
L 3366 3988 
Q 3128 4100 2886 4159 
Q 2644 4219 2406 4219 
Q 1781 4219 1451 3797 
Q 1122 3375 1075 2522 
Q 1259 2794 1537 2939 
Q 1816 3084 2150 3084 
Q 2853 3084 3261 2657 
Q 3669 2231 3669 1497 
Q 3669 778 3244 343 
Q 2819 -91 2113 -91 
Q 1303 -91 875 529 
Q 447 1150 447 2328 
Q 447 3434 972 4092 
Q 1497 4750 2381 4750 
Q 2619 4750 2861 4703 
Q 3103 4656 3366 4563 
z
" transform="scale(0.015625)"/>
       </defs>
       <use xlink:href="#DejaVuSans-36"/>
       <use xlink:href="#DejaVuSans-30" transform="translate(63.623047 0)"/>
      </g>
     </g>
    </g>
    <g id="xtick_3">
     <g id="line2d_3">
      <g>
       <use xlink:href="#m602d825eac" x="318.951353" y="320.4" style="stroke: #000000; stroke-width: 0.8"/>
      </g>
     </g>
     <g id="text_3">
      <!-- 120 -->
      <g transform="translate(309.407603 334.998438) scale(0.1 -0.1)">
       <defs>
        <path id="DejaVuSans-31" d="M 794 531 
L 1825 531 
L 1825 4091 
L 703 3866 
L 703 4441 
L 1819 4666 
L 2450 4666 
L 2450 531 
L 3481 531 
L 3481 0 
L 794 0 
L 794 531 
z
" transform="scale(0.015625)"/>
        <path id="DejaVuSans-32" d="M 1228 531 
L 3431 531 
L 3431 0 
L 469 0 
L 469 531 
Q 828 903 1448 1529 
Q 2069 2156 2228 2338 
Q 2531 2678 2651 2914 
Q 2772 3150 2772 3378 
Q 2772 3750 2511 3984 
Q 2250 4219 1831 4219 
Q 1534 4219 1204 4116 
Q 875 4013 500 3803 
L 500 4441 
Q 881 4594 1212 4672 
Q 1544 4750 1819 4750 
Q 2544 4750 2975 4387 
Q 3406 4025 3406 3419 
Q 3406 3131 3298 2873 
Q 3191 2616 2906 2266 
Q 2828 2175 2409 1742 
Q 1991 1309 1228 531 
z
" transform="scale(0.015625)"/>
       </defs>
       <use xlink:href="#DejaVuSans-31"/>
       <use xlink:href="#DejaVuSans-32" transform="translate(63.623047 0)"/>
       <use xlink:href="#DejaVuSans-30" transform="translate(127.246094 0)"/>
      </g>
     </g>
    </g>
    <g id="xtick_4">
     <g id="line2d_4">
      <g>
       <use xlink:href="#m602d825eac" x="420.745211" y="320.4" style="stroke: #000000; stroke-width: 0.8"/>
      </g>
     </g>
     <g id="text_4">
      <!-- 180 -->
      <g transform="translate(411.201461 334.998438) scale(0.1 -0.1)">
       <defs>
        <path id="DejaVuSans-38" d="M 2034 2216 
Q 1584 2216 1326 1975 
Q 1069 1734 1069 1313 
Q 1069 891 1326 650 
Q 1584 409 2034 409 
Q 2484 409 2743 651 
Q 3003 894 3003 1313 
Q 3003 1734 2745 1975 
Q 2488 2216 2034 2216 
z
M 1403 2484 
Q 997 2584 770 2862 
Q 544 3141 544 3541 
Q 544 4100 942 4425 
Q 1341 4750 2034 4750 
Q 2731 4750 3128 4425 
Q 3525 4100 3525 3541 
Q 3525 3141 3298 2862 
Q 3072 2584 2669 2484 
Q 3125 2378 3379 2068 
Q 3634 1759 3634 1313 
Q 3634 634 3220 271 
Q 2806 -91 2034 -91 
Q 1263 -91 848 271 
Q 434 634 434 1313 
Q 434 1759 690 2068 
Q 947 2378 1403 2484 
z
M 1172 3481 
Q 1172 3119 1398 2916 
Q 1625 2713 2034 2713 
Q 2441 2713 2670 2916 
Q 2900 3119 2900 3481 
Q 2900 3844 2670 4047 
Q 2441 4250 2034 4250 
Q 1625 4250 1398 4047 
Q 1172 3844 1172 3481 
z
" transform="scale(0.015625)"/>
       </defs>
       <use xlink:href="#DejaVuSans-31"/>
       <use xlink:href="#DejaVuSans-38" transform="translate(63.623047 0)"/>
       <use xlink:href="#DejaVuSans-30" transform="translate(127.246094 0)"/>
      </g>
     </g>
    </g>
    <g id="xtick_5">
     <g id="line2d_5">
      <g>
       <use xlink:href="#m602d825eac" x="522.53907" y="320.4" style="stroke: #000000; stroke-width: 0.8"/>
      </g>
     </g>
     <g id="text_5">
      <!-- 240 -->
      <g transform="translate(512.99532 334.998438) scale(0.1 -0.1)">
       <defs>
        <path id="DejaVuSans-34" d="M 2419 4116 
L 825 1625 
L 2419 1625 
L 2419 4116 
z
M 2253 4666 
L 3047 4666 
L 3047 1625 
L 3713 1625 
L 3713 1100 
L 3047 1100 
L 3047 0 
L 2419 0 
L 2419 1100 
L 313 1100 
L 313 1709 
L 2253 4666 
z
" transform="scale(0.015625)"/>
       </defs>
       <use xlink:href="#DejaVuSans-32"/>
       <use xlink:href="#DejaVuSans-34" transform="translate(63.623047 0)"/>
       <use xlink:href="#DejaVuSans-30" transform="translate(127.246094 0)"/>
      </g>
     </g>
    </g>
    <g id="text_6">
     <!-- Epoch -->
     <g transform="translate(353.689062 348.676562) scale(0.1 -0.1)">
      <defs>
       <path id="DejaVuSans-45" d="M 628 4666 
L 3578 4666 
L 3578 4134 
L 1259 4134 
L 1259 2753 
L 3481 2753 
L 3481 2222 
L 1259 2222 
L 1259 531 
L 3634 531 
L 3634 0 
L 628 0 
L 628 4666 
z
" transform="scale(0.015625)"/>
       <path id="DejaVuSans-70" d="M 1159 525 
L 1159 -1331 
L 581 -1331 
L 581 3500 
L 1159 3500 
L 1159 2969 
Q 1341 3281 1617 3432 
Q 1894 3584 2278 3584 
Q 2916 3584 3314 3078 
Q 3713 2572 3713 1747 
Q 3713 922 3314 415 
Q 2916 -91 2278 -91 
Q 1894 -91 1617 61 
Q 1341 213 1159 525 
z
M 3116 1747 
Q 3116 2381 2855 2742 
Q 2594 3103 2138 3103 
Q 1681 3103 1420 2742 
Q 1159 2381 1159 1747 
Q 1159 1113 1420 752 
Q 1681 391 2138 391 
Q 2594 391 2855 752 
Q 3116 1113 3116 1747 
z
" transform="scale(0.015625)"/>
       <path id="DejaVuSans-6f" d="M 1959 3097 
Q 1497 3097 1228 2736 
Q 959 2375 959 1747 
Q 959 1119 1226 758 
Q 1494 397 1959 397 
Q 2419 397 2687 759 
Q 2956 1122 2956 1747 
Q 2956 2369 2687 2733 
Q 2419 3097 1959 3097 
z
M 1959 3584 
Q 2709 3584 3137 3096 
Q 3566 2609 3566 1747 
Q 3566 888 3137 398 
Q 2709 -91 1959 -91 
Q 1206 -91 779 398 
Q 353 888 353 1747 
Q 353 2609 779 3096 
Q 1206 3584 1959 3584 
z
" transform="scale(0.015625)"/>
       <path id="DejaVuSans-63" d="M 3122 3366 
L 3122 2828 
Q 2878 2963 2633 3030 
Q 2388 3097 2138 3097 
Q 1578 3097 1268 2742 
Q 959 2388 959 1747 
Q 959 1106 1268 751 
Q 1578 397 2138 397 
Q 2388 397 2633 464 
Q 2878 531 3122 666 
L 3122 134 
Q 2881 22 2623 -34 
Q 2366 -91 2075 -91 
Q 1284 -91 818 406 
Q 353 903 353 1747 
Q 353 2603 823 3093 
Q 1294 3584 2113 3584 
Q 2378 3584 2631 3529 
Q 2884 3475 3122 3366 
z
" transform="scale(0.015625)"/>
       <path id="DejaVuSans-68" d="M 3513 2113 
L 3513 0 
L 2938 0 
L 2938 2094 
Q 2938 2591 2744 2837 
Q 2550 3084 2163 3084 
Q 1697 3084 1428 2787 
Q 1159 2491 1159 1978 
L 1159 0 
L 581 0 
L 581 4863 
L 1159 4863 
L 1159 2956 
Q 1366 3272 1645 3428 
Q 1925 3584 2291 3584 
Q 2894 3584 3203 3211 
Q 3513 2838 3513 2113 
z
" transform="scale(0.015625)"/>
      </defs>
      <use xlink:href="#DejaVuSans-45"/>
      <use xlink:href="#DejaVuSans-70" transform="translate(63.183594 0)"/>
      <use xlink:href="#DejaVuSans-6f" transform="translate(126.660156 0)"/>
      <use xlink:href="#DejaVuSans-63" transform="translate(187.841797 0)"/>
      <use xlink:href="#DejaVuSans-68" transform="translate(242.822266 0)"/>
     </g>
    </g>
   </g>
   <g id="matplotlib.axis_2">
    <g id="ytick_1">
     <g id="line2d_6">
      <defs>
       <path id="m44b1d1fcf9" d="M 0 0 
L -3.5 0 
" style="stroke: #000000; stroke-width: 0.8"/>
      </defs>
      <g>
       <use xlink:href="#m44b1d1fcf9" x="90" y="308.803628" style="stroke: #000000; stroke-width: 0.8"/>
      </g>
     </g>
     <g id="text_7">
      <!-- 0.00 -->
      <g transform="translate(60.734375 312.602847) scale(0.1 -0.1)">
       <defs>
        <path id="DejaVuSans-2e" d="M 684 794 
L 1344 794 
L 1344 0 
L 684 0 
L 684 794 
z
" transform="scale(0.015625)"/>
       </defs>
       <use xlink:href="#DejaVuSans-30"/>
       <use xlink:href="#DejaVuSans-2e" transform="translate(63.623047 0)"/>
       <use xlink:href="#DejaVuSans-30" transform="translate(95.410156 0)"/>
       <use xlink:href="#DejaVuSans-30" transform="translate(159.033203 0)"/>
      </g>
     </g>
    </g>
    <g id="ytick_2">
     <g id="line2d_7">
      <g>
       <use xlink:href="#m44b1d1fcf9" x="90" y="255.123471" style="stroke: #000000; stroke-width: 0.8"/>
      </g>
     </g>
     <g id="text_8">
      <!-- 0.02 -->
      <g transform="translate(60.734375 258.92269) scale(0.1 -0.1)">
       <use xlink:href="#DejaVuSans-30"/>
       <use xlink:href="#DejaVuSans-2e" transform="translate(63.623047 0)"/>
       <use xlink:href="#DejaVuSans-30" transform="translate(95.410156 0)"/>
       <use xlink:href="#DejaVuSans-32" transform="translate(159.033203 0)"/>
      </g>
     </g>
    </g>
    <g id="ytick_3">
     <g id="line2d_8">
      <g>
       <use xlink:href="#m44b1d1fcf9" x="90" y="201.443313" style="stroke: #000000; stroke-width: 0.8"/>
      </g>
     </g>
     <g id="text_9">
      <!-- 0.04 -->
      <g transform="translate(60.734375 205.242532) scale(0.1 -0.1)">
       <use xlink:href="#DejaVuSans-30"/>
       <use xlink:href="#DejaVuSans-2e" transform="translate(63.623047 0)"/>
       <use xlink:href="#DejaVuSans-30" transform="translate(95.410156 0)"/>
       <use xlink:href="#DejaVuSans-34" transform="translate(159.033203 0)"/>
      </g>
     </g>
    </g>
    <g id="ytick_4">
     <g id="line2d_9">
      <g>
       <use xlink:href="#m44b1d1fcf9" x="90" y="147.763156" style="stroke: #000000; stroke-width: 0.8"/>
      </g>
     </g>
     <g id="text_10">
      <!-- 0.06 -->
      <g transform="translate(60.734375 151.562375) scale(0.1 -0.1)">
       <use xlink:href="#DejaVuSans-30"/>
       <use xlink:href="#DejaVuSans-2e" transform="translate(63.623047 0)"/>
       <use xlink:href="#DejaVuSans-30" transform="translate(95.410156 0)"/>
       <use xlink:href="#DejaVuSans-36" transform="translate(159.033203 0)"/>
      </g>
     </g>
    </g>
    <g id="ytick_5">
     <g id="line2d_10">
      <g>
       <use xlink:href="#m44b1d1fcf9" x="90" y="94.082999" style="stroke: #000000; stroke-width: 0.8"/>
      </g>
     </g>
     <g id="text_11">
      <!-- 0.08 -->
      <g transform="translate(60.734375 97.882217) scale(0.1 -0.1)">
       <use xlink:href="#DejaVuSans-30"/>
       <use xlink:href="#DejaVuSans-2e" transform="translate(63.623047 0)"/>
       <use xlink:href="#DejaVuSans-30" transform="translate(95.410156 0)"/>
       <use xlink:href="#DejaVuSans-38" transform="translate(159.033203 0)"/>
      </g>
     </g>
    </g>
    <g id="text_12">
     <!-- Estimation Loss -->
     <g transform="translate(54.654687 220.98125) rotate(-90) scale(0.1 -0.1)">
      <defs>
       <path id="DejaVuSans-73" d="M 2834 3397 
L 2834 2853 
Q 2591 2978 2328 3040 
Q 2066 3103 1784 3103 
Q 1356 3103 1142 2972 
Q 928 2841 928 2578 
Q 928 2378 1081 2264 
Q 1234 2150 1697 2047 
L 1894 2003 
Q 2506 1872 2764 1633 
Q 3022 1394 3022 966 
Q 3022 478 2636 193 
Q 2250 -91 1575 -91 
Q 1294 -91 989 -36 
Q 684 19 347 128 
L 347 722 
Q 666 556 975 473 
Q 1284 391 1588 391 
Q 1994 391 2212 530 
Q 2431 669 2431 922 
Q 2431 1156 2273 1281 
Q 2116 1406 1581 1522 
L 1381 1569 
Q 847 1681 609 1914 
Q 372 2147 372 2553 
Q 372 3047 722 3315 
Q 1072 3584 1716 3584 
Q 2034 3584 2315 3537 
Q 2597 3491 2834 3397 
z
" transform="scale(0.015625)"/>
       <path id="DejaVuSans-74" d="M 1172 4494 
L 1172 3500 
L 2356 3500 
L 2356 3053 
L 1172 3053 
L 1172 1153 
Q 1172 725 1289 603 
Q 1406 481 1766 481 
L 2356 481 
L 2356 0 
L 1766 0 
Q 1100 0 847 248 
Q 594 497 594 1153 
L 594 3053 
L 172 3053 
L 172 3500 
L 594 3500 
L 594 4494 
L 1172 4494 
z
" transform="scale(0.015625)"/>
       <path id="DejaVuSans-69" d="M 603 3500 
L 1178 3500 
L 1178 0 
L 603 0 
L 603 3500 
z
M 603 4863 
L 1178 4863 
L 1178 4134 
L 603 4134 
L 603 4863 
z
" transform="scale(0.015625)"/>
       <path id="DejaVuSans-6d" d="M 3328 2828 
Q 3544 3216 3844 3400 
Q 4144 3584 4550 3584 
Q 5097 3584 5394 3201 
Q 5691 2819 5691 2113 
L 5691 0 
L 5113 0 
L 5113 2094 
Q 5113 2597 4934 2840 
Q 4756 3084 4391 3084 
Q 3944 3084 3684 2787 
Q 3425 2491 3425 1978 
L 3425 0 
L 2847 0 
L 2847 2094 
Q 2847 2600 2669 2842 
Q 2491 3084 2119 3084 
Q 1678 3084 1418 2786 
Q 1159 2488 1159 1978 
L 1159 0 
L 581 0 
L 581 3500 
L 1159 3500 
L 1159 2956 
Q 1356 3278 1631 3431 
Q 1906 3584 2284 3584 
Q 2666 3584 2933 3390 
Q 3200 3197 3328 2828 
z
" transform="scale(0.015625)"/>
       <path id="DejaVuSans-61" d="M 2194 1759 
Q 1497 1759 1228 1600 
Q 959 1441 959 1056 
Q 959 750 1161 570 
Q 1363 391 1709 391 
Q 2188 391 2477 730 
Q 2766 1069 2766 1631 
L 2766 1759 
L 2194 1759 
z
M 3341 1997 
L 3341 0 
L 2766 0 
L 2766 531 
Q 2569 213 2275 61 
Q 1981 -91 1556 -91 
Q 1019 -91 701 211 
Q 384 513 384 1019 
Q 384 1609 779 1909 
Q 1175 2209 1959 2209 
L 2766 2209 
L 2766 2266 
Q 2766 2663 2505 2880 
Q 2244 3097 1772 3097 
Q 1472 3097 1187 3025 
Q 903 2953 641 2809 
L 641 3341 
Q 956 3463 1253 3523 
Q 1550 3584 1831 3584 
Q 2591 3584 2966 3190 
Q 3341 2797 3341 1997 
z
" transform="scale(0.015625)"/>
       <path id="DejaVuSans-6e" d="M 3513 2113 
L 3513 0 
L 2938 0 
L 2938 2094 
Q 2938 2591 2744 2837 
Q 2550 3084 2163 3084 
Q 1697 3084 1428 2787 
Q 1159 2491 1159 1978 
L 1159 0 
L 581 0 
L 581 3500 
L 1159 3500 
L 1159 2956 
Q 1366 3272 1645 3428 
Q 1925 3584 2291 3584 
Q 2894 3584 3203 3211 
Q 3513 2838 3513 2113 
z
" transform="scale(0.015625)"/>
       <path id="DejaVuSans-20" transform="scale(0.015625)"/>
       <path id="DejaVuSans-4c" d="M 628 4666 
L 1259 4666 
L 1259 531 
L 3531 531 
L 3531 0 
L 628 0 
L 628 4666 
z
" transform="scale(0.015625)"/>
      </defs>
      <use xlink:href="#DejaVuSans-45"/>
      <use xlink:href="#DejaVuSans-73" transform="translate(63.183594 0)"/>
      <use xlink:href="#DejaVuSans-74" transform="translate(115.283203 0)"/>
      <use xlink:href="#DejaVuSans-69" transform="translate(154.492188 0)"/>
      <use xlink:href="#DejaVuSans-6d" transform="translate(182.275391 0)"/>
      <use xlink:href="#DejaVuSans-61" transform="translate(279.6875 0)"/>
      <use xlink:href="#DejaVuSans-74" transform="translate(340.966797 0)"/>
      <use xlink:href="#DejaVuSans-69" transform="translate(380.175781 0)"/>
      <use xlink:href="#DejaVuSans-6f" transform="translate(407.958984 0)"/>
      <use xlink:href="#DejaVuSans-6e" transform="translate(469.140625 0)"/>
      <use xlink:href="#DejaVuSans-20" transform="translate(532.519531 0)"/>
      <use xlink:href="#DejaVuSans-4c" transform="translate(564.306641 0)"/>
      <use xlink:href="#DejaVuSans-6f" transform="translate(618.269531 0)"/>
      <use xlink:href="#DejaVuSans-73" transform="translate(679.451172 0)"/>
      <use xlink:href="#DejaVuSans-73" transform="translate(731.550781 0)"/>
     </g>
    </g>
   </g>
   <g id="line2d_11">
    <path d="M 115.363636 55.8 
L 117.060201 249.001083 
L 118.756765 273.330619 
L 120.453329 282.593609 
L 122.149894 287.113561 
L 123.846458 289.862515 
L 125.543022 291.860606 
L 127.239587 293.481296 
L 128.936151 294.937336 
L 130.632715 296.206215 
L 132.329279 297.217846 
L 135.722408 298.93508 
L 139.115537 300.107129 
L 140.812101 300.659452 
L 144.20523 301.393023 
L 149.294922 302.319141 
L 152.688051 302.734157 
L 164.564001 303.897953 
L 190.012466 305.136055 
L 201.888416 305.52763 
L 203.58498 305.503096 
L 208.674673 305.675947 
L 212.067802 305.729129 
L 261.268167 306.516484 
L 262.964731 306.452721 
L 268.054424 306.580689 
L 285.020067 306.703473 
L 293.502888 306.762393 
L 298.592581 306.806168 
L 301.98571 306.836737 
L 312.165096 306.898399 
L 391.903618 307.293171 
L 402.083004 307.307694 
L 408.869261 307.353612 
L 490.304348 307.576605 
L 498.787169 307.571297 
L 505.573427 307.598545 
L 515.752812 307.626102 
L 544.594406 307.663904 
L 564.953177 307.701127 
L 600.581028 307.751369 
L 609.063849 307.77255 
L 622.636364 307.789451 
L 622.636364 307.789451 
" clip-path="url(#p026d53742f)" style="fill: none; stroke: #1f77b4; stroke-width: 1.5; stroke-linecap: square"/>
   </g>
   <g id="line2d_12">
    <path d="M 115.363636 64.492609 
L 117.060201 235.267339 
L 118.756765 256.161694 
L 120.453329 263.065073 
L 122.149894 265.922795 
L 123.846458 267.338024 
L 125.543022 268.254839 
L 128.936151 269.448094 
L 130.632715 269.91094 
L 135.722408 270.813686 
L 139.115537 271.064017 
L 140.812101 271.314296 
L 142.508665 271.234132 
L 144.20523 271.557718 
L 147.598358 271.83496 
L 149.294922 271.787821 
L 150.991487 272.176282 
L 152.688051 272.259781 
L 154.384615 272.184454 
L 157.777744 272.575429 
L 159.474308 272.339581 
L 161.170873 272.559011 
L 162.867437 272.440912 
L 164.564001 272.742814 
L 167.95713 272.804903 
L 169.653694 272.956242 
L 171.350258 272.842797 
L 174.743387 273.183273 
L 176.439951 273.07876 
L 178.136516 272.851582 
L 179.83308 272.933948 
L 181.529644 273.297986 
L 183.226209 273.411169 
L 184.922773 273.239638 
L 186.619337 273.77609 
L 188.315901 273.566379 
L 190.012466 273.575523 
L 191.70903 273.744106 
L 193.405594 273.508552 
L 195.102159 273.821572 
L 196.798723 273.84032 
L 198.495287 273.559179 
L 201.888416 273.881097 
L 205.281545 273.994624 
L 206.978109 273.646643 
L 208.674673 273.835742 
L 212.067802 273.939433 
L 213.764366 273.772686 
L 215.46093 273.954048 
L 217.157495 273.975203 
L 218.854059 274.218863 
L 220.550623 274.116972 
L 222.247188 274.142427 
L 223.943752 273.980742 
L 225.640316 274.289117 
L 229.033445 274.434134 
L 232.426573 274.113829 
L 234.123138 274.436152 
L 237.516266 274.390163 
L 239.212831 274.519211 
L 240.909395 274.388983 
L 244.302524 274.699448 
L 249.392216 274.507455 
L 251.088781 274.168804 
L 252.785345 274.586717 
L 254.481909 274.590029 
L 257.875038 274.935795 
L 259.571602 274.631763 
L 262.964731 274.753104 
L 264.661295 274.595943 
L 268.054424 275.05287 
L 269.750988 274.748305 
L 271.447552 274.743285 
L 273.144117 274.915747 
L 274.840681 274.616269 
L 276.537245 274.67748 
L 278.23381 275.035366 
L 279.930374 274.836441 
L 281.626938 275.039973 
L 285.020067 275.086769 
L 288.413196 275.067914 
L 290.10976 274.866904 
L 291.806324 274.936375 
L 293.502888 274.8718 
L 295.199453 275.212432 
L 296.896017 274.926764 
L 298.592581 275.322973 
L 300.289146 275.132896 
L 301.98571 274.766353 
L 305.378839 275.176353 
L 308.771967 274.994176 
L 312.165096 275.3342 
L 313.86166 275.152332 
L 315.558224 275.164637 
L 317.254789 275.49475 
L 318.951353 275.015884 
L 320.647917 275.550224 
L 322.344482 275.207685 
L 324.041046 274.986722 
L 325.73761 275.456329 
L 329.130739 275.25514 
L 330.827303 275.153776 
L 332.523867 275.31077 
L 334.220432 275.229192 
L 337.61356 275.542466 
L 339.310125 275.270854 
L 346.096382 275.449554 
L 347.792946 275.282256 
L 349.48951 275.488572 
L 351.186075 275.414181 
L 352.882639 275.21295 
L 354.579203 275.404854 
L 356.275768 275.419886 
L 357.972332 275.560014 
L 359.668896 275.281998 
L 361.365461 275.558262 
L 363.062025 275.309685 
L 364.758589 275.301525 
L 366.455154 275.529773 
L 369.848282 275.381876 
L 374.937975 275.463585 
L 376.634539 275.626727 
L 378.331104 275.635995 
L 380.027668 275.533875 
L 381.724232 275.666422 
L 385.117361 275.26879 
L 386.813925 275.619042 
L 390.207054 275.38811 
L 391.903618 275.559469 
L 393.600182 275.60849 
L 396.993311 275.437238 
L 398.689875 275.53837 
L 400.38644 275.455381 
L 402.083004 275.526622 
L 403.779568 275.277332 
L 405.476133 275.613785 
L 407.172697 275.382832 
L 408.869261 275.627984 
L 412.26239 275.401755 
L 413.958954 275.805235 
L 417.352083 275.527101 
L 419.048647 275.732061 
L 420.745211 275.802843 
L 422.441776 275.656992 
L 427.531469 275.846604 
L 429.228033 275.544395 
L 430.924597 275.525651 
L 432.621161 275.698312 
L 434.317726 275.486833 
L 437.710854 275.745861 
L 439.407419 276.05501 
L 441.103983 275.860779 
L 446.193676 275.756726 
L 447.89024 275.6025 
L 451.283369 275.84821 
L 452.979933 275.626909 
L 454.676497 275.56073 
L 456.373062 275.609518 
L 458.069626 275.800568 
L 461.462755 275.767669 
L 463.159319 275.87217 
L 464.855883 275.862924 
L 466.552448 275.985219 
L 468.249012 275.922588 
L 469.945576 276.040287 
L 471.64214 275.906509 
L 473.338705 275.965679 
L 476.731833 275.841129 
L 480.124962 276.18758 
L 481.821526 275.754406 
L 483.518091 275.979834 
L 485.214655 275.783906 
L 488.607784 275.822146 
L 490.304348 275.943947 
L 492.000912 275.922107 
L 493.697476 275.729073 
L 498.787169 275.944417 
L 500.483734 275.701475 
L 502.180298 275.978277 
L 503.876862 275.999418 
L 505.573427 275.690909 
L 507.269991 275.870488 
L 510.663119 275.915793 
L 512.359684 275.672139 
L 515.752812 275.956444 
L 519.145941 276.00913 
L 520.842505 276.188167 
L 522.53907 275.929866 
L 527.628763 275.941918 
L 529.325327 275.721311 
L 534.41502 275.980436 
L 537.808148 275.890574 
L 539.504713 276.164155 
L 541.201277 275.702141 
L 542.897841 276.013205 
L 547.987534 275.923774 
L 549.684099 276.039948 
L 551.380663 275.914569 
L 554.773791 276.133584 
L 556.470356 276.078226 
L 558.16692 275.812717 
L 561.560049 276.00562 
L 563.256613 275.851266 
L 568.346306 275.847357 
L 570.04287 275.801178 
L 575.132563 276.239385 
L 576.829127 276.045494 
L 578.525692 276.242251 
L 581.91882 276.11752 
L 583.615385 275.867627 
L 585.311949 276.056338 
L 587.008513 276.044089 
L 590.401642 275.800635 
L 592.098206 276.002851 
L 593.79477 275.769375 
L 597.187899 275.933991 
L 598.884463 276.252177 
L 607.367285 275.881163 
L 609.063849 276.149632 
L 610.760413 275.906674 
L 612.456978 275.84783 
L 614.153542 276.04214 
L 615.850106 275.94361 
L 617.546671 276.052286 
L 619.243235 275.970651 
L 620.939799 276.122525 
L 622.636364 276.423176 
L 622.636364 276.423176 
" clip-path="url(#p026d53742f)" style="fill: none; stroke: #ff7f0e; stroke-width: 1.5; stroke-linecap: square"/>
   </g>
   <g id="line2d_13">
    <path d="M 115.363636 239.039362 
L 117.060201 272.698749 
L 118.756765 283.60349 
L 120.453329 288.007914 
L 122.149894 290.642238 
L 123.846458 292.674901 
L 125.543022 294.190811 
L 128.936151 296.632358 
L 130.632715 297.622335 
L 132.329279 298.453375 
L 134.025844 299.099192 
L 135.722408 299.335429 
L 137.418972 299.956871 
L 139.115537 299.669971 
L 140.812101 299.975048 
L 142.508665 300.583251 
L 144.20523 301.000189 
L 145.901794 301.657596 
L 147.598358 301.51135 
L 149.294922 302.002992 
L 150.991487 301.761145 
L 154.384615 302.695885 
L 156.08118 302.445101 
L 157.777744 302.712588 
L 159.474308 302.694054 
L 161.170873 303.196501 
L 162.867437 302.571861 
L 164.564001 303.322787 
L 166.260566 303.430622 
L 167.95713 302.927724 
L 169.653694 303.752044 
L 171.350258 302.80589 
L 173.046823 303.524072 
L 174.743387 302.498134 
L 176.439951 303.571155 
L 179.83308 303.625679 
L 181.529644 303.95595 
L 183.226209 304.084324 
L 184.922773 304.070941 
L 186.619337 304.320395 
L 188.315901 304.066963 
L 190.012466 304.267292 
L 191.70903 304.215014 
L 193.405594 304.701195 
L 196.798723 304.632911 
L 198.495287 304.730416 
L 200.191852 305.004766 
L 201.888416 304.803648 
L 205.281545 305.071998 
L 208.674673 304.699147 
L 210.371237 304.98242 
L 212.067802 305.061811 
L 213.764366 304.983492 
L 215.46093 305.109474 
L 217.157495 305.081957 
L 218.854059 305.250005 
L 222.247188 305.373067 
L 223.943752 305.079429 
L 225.640316 305.15865 
L 227.336881 305.027177 
L 229.033445 305.259592 
L 230.730009 305.13314 
L 232.426573 305.162233 
L 234.123138 305.446271 
L 237.516266 305.319306 
L 239.212831 305.640477 
L 240.909395 305.401694 
L 242.605959 305.387544 
L 244.302524 304.521064 
L 245.999088 305.45433 
L 251.088781 305.523338 
L 254.481909 305.656468 
L 257.875038 305.489218 
L 259.571602 305.679117 
L 261.268167 305.374671 
L 262.964731 305.791488 
L 269.750988 305.948924 
L 271.447552 305.388028 
L 273.144117 305.822277 
L 274.840681 305.663159 
L 278.23381 305.936198 
L 279.930374 305.529027 
L 281.626938 305.793063 
L 283.323503 305.894704 
L 285.020067 305.393199 
L 286.716631 305.612692 
L 288.413196 305.579243 
L 290.10976 305.963896 
L 291.806324 305.868949 
L 293.502888 305.593545 
L 295.199453 305.485917 
L 296.896017 305.86364 
L 298.592581 305.587906 
L 301.98571 306.114111 
L 303.682274 305.887819 
L 305.378839 306.002463 
L 307.075403 305.969176 
L 308.771967 305.732118 
L 310.468531 306.151077 
L 312.165096 305.976587 
L 313.86166 305.609695 
L 315.558224 306.014938 
L 318.951353 305.869221 
L 320.647917 306.11197 
L 322.344482 306.203355 
L 324.041046 306.02699 
L 329.130739 306.033591 
L 330.827303 305.960438 
L 332.523867 305.737719 
L 335.916996 306.171002 
L 337.61356 306.075518 
L 339.310125 305.849389 
L 341.006689 306.280543 
L 342.703253 305.847035 
L 344.399818 306.260595 
L 347.792946 305.84967 
L 349.48951 306.072714 
L 356.275768 306.137305 
L 357.972332 306.355541 
L 359.668896 306.146983 
L 363.062025 306.262193 
L 364.758589 305.777652 
L 366.455154 306.073963 
L 373.241411 306.245719 
L 374.937975 306.418089 
L 376.634539 306.128329 
L 380.027668 306.26513 
L 395.296747 306.381634 
L 396.993311 306.205631 
L 398.689875 306.18217 
L 400.38644 306.366701 
L 402.083004 306.162993 
L 408.869261 306.470984 
L 410.565825 306.262084 
L 412.26239 306.213163 
L 413.958954 306.426002 
L 415.655518 306.305136 
L 419.048647 306.51381 
L 424.13834 306.157084 
L 425.834904 306.318523 
L 427.531469 306.24866 
L 434.317726 306.407292 
L 436.01429 306.305177 
L 437.710854 306.349781 
L 439.407419 306.531729 
L 444.497112 306.432435 
L 446.193676 306.514883 
L 449.586804 306.425987 
L 451.283369 306.419726 
L 452.979933 306.566545 
L 454.676497 306.422353 
L 456.373062 306.581123 
L 458.069626 306.103858 
L 459.76619 306.659498 
L 461.462755 306.481156 
L 468.249012 306.377284 
L 469.945576 306.251837 
L 471.64214 306.361602 
L 473.338705 306.007114 
L 475.035269 306.373982 
L 478.428398 306.659371 
L 480.124962 306.484594 
L 481.821526 306.535174 
L 483.518091 306.419605 
L 486.911219 306.71966 
L 488.607784 306.446349 
L 492.000912 306.540588 
L 495.394041 306.453151 
L 497.090605 306.451281 
L 498.787169 306.801315 
L 500.483734 306.29974 
L 502.180298 306.610697 
L 503.876862 306.528126 
L 505.573427 306.072379 
L 507.269991 306.525488 
L 508.966555 306.66487 
L 512.359684 306.523517 
L 515.752812 306.649191 
L 517.449377 306.124689 
L 519.145941 306.781242 
L 522.53907 306.423887 
L 524.235634 306.754075 
L 525.932198 306.585551 
L 527.628763 306.693943 
L 531.021891 306.462437 
L 532.718455 306.768728 
L 534.41502 306.53737 
L 537.808148 306.621484 
L 544.594406 306.834963 
L 546.29097 306.618528 
L 547.987534 306.800038 
L 551.380663 306.51082 
L 554.773791 306.675592 
L 556.470356 306.209685 
L 558.16692 306.292077 
L 559.863484 306.649232 
L 564.953177 306.766457 
L 566.649742 306.693397 
L 568.346306 306.764502 
L 570.04287 306.546977 
L 571.739434 306.151255 
L 573.435999 306.490729 
L 575.132563 306.687581 
L 578.525692 306.102126 
L 581.91882 306.631483 
L 583.615385 306.764304 
L 585.311949 306.444162 
L 587.008513 306.80085 
L 590.401642 306.180522 
L 592.098206 306.863253 
L 593.79477 306.642306 
L 595.491335 306.843097 
L 597.187899 306.768564 
L 598.884463 306.429813 
L 602.277592 306.880695 
L 603.974156 306.59217 
L 605.670721 306.727322 
L 607.367285 306.750736 
L 609.063849 306.436274 
L 610.760413 306.797047 
L 612.456978 306.749424 
L 614.153542 306.854423 
L 617.546671 306.713195 
L 619.243235 306.603584 
L 622.636364 306.883074 
L 622.636364 306.883074 
" clip-path="url(#p026d53742f)" style="fill: none; stroke: #2ca02c; stroke-width: 1.5; stroke-linecap: square"/>
   </g>
   <g id="line2d_14">
    <path d="M 115.363636 212.568065 
L 117.060201 250.922123 
L 118.756765 262.491205 
L 120.453329 266.410926 
L 122.149894 268.172042 
L 123.846458 269.646897 
L 125.543022 270.422608 
L 127.239587 270.628886 
L 128.936151 271.089697 
L 130.632715 271.24539 
L 132.329279 271.872445 
L 134.025844 272.681345 
L 135.722408 272.215955 
L 137.418972 272.281839 
L 139.115537 271.980129 
L 140.812101 273.482593 
L 142.508665 272.964047 
L 144.20523 274.441456 
L 145.901794 274.726297 
L 147.598358 274.134902 
L 149.294922 275.157253 
L 150.991487 274.7514 
L 152.688051 275.383041 
L 154.384615 276.268018 
L 156.08118 274.625281 
L 157.777744 275.833068 
L 159.474308 276.308521 
L 161.170873 275.248971 
L 162.867437 276.034733 
L 164.564001 276.276036 
L 166.260566 277.595741 
L 169.653694 277.040392 
L 171.350258 276.595078 
L 173.046823 276.724447 
L 174.743387 276.523282 
L 176.439951 277.476444 
L 178.136516 277.660309 
L 179.83308 275.889925 
L 181.529644 277.156544 
L 183.226209 278.231175 
L 184.922773 277.690989 
L 186.619337 278.48241 
L 188.315901 277.365028 
L 190.012466 277.628321 
L 191.70903 278.413241 
L 193.405594 276.768915 
L 195.102159 277.757049 
L 196.798723 277.995807 
L 198.495287 278.121221 
L 200.191852 277.134212 
L 201.888416 277.607304 
L 203.58498 278.396497 
L 205.281545 277.546878 
L 206.978109 278.446084 
L 208.674673 277.85493 
L 210.371237 277.527111 
L 212.067802 278.208572 
L 213.764366 279.409553 
L 215.46093 278.547014 
L 217.157495 279.180873 
L 218.854059 277.935614 
L 220.550623 278.965807 
L 222.247188 278.152542 
L 223.943752 279.237763 
L 225.640316 278.756339 
L 227.336881 278.723365 
L 229.033445 278.236904 
L 230.730009 278.81609 
L 232.426573 276.704777 
L 234.123138 277.831713 
L 235.819702 277.683677 
L 237.516266 278.928869 
L 239.212831 278.274818 
L 240.909395 278.775545 
L 242.605959 277.386695 
L 244.302524 275.48286 
L 245.999088 277.941236 
L 247.695652 277.054758 
L 249.392216 277.380453 
L 251.088781 276.365562 
L 252.785345 278.677892 
L 254.481909 278.300488 
L 259.571602 277.895994 
L 261.268167 278.726175 
L 262.964731 278.55823 
L 264.661295 278.652538 
L 266.35786 278.423828 
L 268.054424 279.00391 
L 269.750988 278.542473 
L 271.447552 278.915952 
L 273.144117 277.557409 
L 274.840681 279.602954 
L 276.537245 278.237593 
L 278.23381 278.333234 
L 279.930374 279.020942 
L 281.626938 278.896713 
L 283.323503 277.89743 
L 285.020067 279.751594 
L 286.716631 278.46795 
L 288.413196 278.636287 
L 290.10976 278.640619 
L 291.806324 277.647471 
L 293.502888 278.928412 
L 295.199453 276.608046 
L 296.896017 279.360588 
L 298.592581 276.50448 
L 300.289146 279.050408 
L 301.98571 278.357445 
L 303.682274 278.927646 
L 307.075403 278.393231 
L 308.771967 278.484802 
L 310.468531 278.965516 
L 312.165096 278.233947 
L 313.86166 279.110052 
L 315.558224 278.16204 
L 317.254789 277.813226 
L 320.647917 277.683255 
L 322.344482 278.931471 
L 324.041046 277.976158 
L 325.73761 278.743033 
L 327.434175 278.452239 
L 329.130739 279.544968 
L 330.827303 278.584623 
L 332.523867 278.823948 
L 334.220432 278.301601 
L 335.916996 279.696907 
L 337.61356 279.757917 
L 339.310125 276.727345 
L 341.006689 279.425279 
L 342.703253 277.893305 
L 344.399818 279.23626 
L 346.096382 278.720823 
L 347.792946 278.348075 
L 349.48951 279.133217 
L 351.186075 277.795259 
L 352.882639 277.6121 
L 354.579203 278.35926 
L 356.275768 278.304406 
L 357.972332 279.690571 
L 359.668896 278.50967 
L 361.365461 278.609445 
L 363.062025 278.898354 
L 364.758589 276.167138 
L 366.455154 277.937893 
L 368.151718 278.530454 
L 369.848282 278.937324 
L 371.544846 277.818528 
L 373.241411 278.979901 
L 374.937975 279.267452 
L 376.634539 277.039742 
L 378.331104 278.127222 
L 380.027668 277.841472 
L 381.724232 279.389984 
L 383.420797 278.499643 
L 385.117361 278.388179 
L 386.813925 280.57107 
L 388.51049 279.623852 
L 390.207054 278.125507 
L 391.903618 278.303511 
L 393.600182 279.785256 
L 395.296747 279.037209 
L 396.993311 279.057325 
L 398.689875 277.722931 
L 400.38644 279.741717 
L 402.083004 277.834895 
L 403.779568 278.656833 
L 405.476133 277.413671 
L 407.172697 278.803139 
L 408.869261 279.149674 
L 410.565825 279.241636 
L 412.26239 278.843837 
L 413.958954 278.664805 
L 415.655518 279.65179 
L 417.352083 279.733498 
L 419.048647 279.362197 
L 422.441776 279.95332 
L 424.13834 278.044965 
L 425.834904 278.674333 
L 429.228033 278.130975 
L 430.924597 278.686485 
L 432.621161 278.940467 
L 434.317726 279.068947 
L 436.01429 277.888753 
L 437.710854 278.152541 
L 439.407419 279.426062 
L 441.103983 279.816099 
L 442.800547 279.455439 
L 444.497112 278.605095 
L 446.193676 278.32974 
L 447.89024 278.70424 
L 449.586804 278.958462 
L 451.283369 279.770406 
L 452.979933 279.015808 
L 454.676497 277.91952 
L 456.373062 278.685914 
L 458.069626 276.980428 
L 459.76619 280.091978 
L 461.462755 278.880584 
L 463.159319 279.479643 
L 464.855883 278.610601 
L 466.552448 279.437967 
L 468.249012 278.447144 
L 469.945576 278.822487 
L 471.64214 278.707217 
L 473.338705 277.094786 
L 475.035269 278.757316 
L 478.428398 280.27125 
L 480.124962 278.510035 
L 481.821526 279.903954 
L 483.518091 278.260419 
L 485.214655 279.079031 
L 486.911219 279.407131 
L 488.607784 278.801411 
L 493.697476 278.972447 
L 495.394041 277.659718 
L 497.090605 279.168401 
L 498.787169 279.420696 
L 500.483734 277.712271 
L 502.180298 279.667628 
L 503.876862 278.753084 
L 505.573427 277.475627 
L 507.269991 279.060258 
L 508.966555 279.221527 
L 510.663119 280.180116 
L 512.359684 279.000431 
L 514.056248 278.505112 
L 515.752812 278.852282 
L 517.449377 276.930075 
L 519.145941 279.153217 
L 520.842505 277.740839 
L 522.53907 280.105 
L 524.235634 279.330744 
L 525.932198 279.25574 
L 527.628763 280.157232 
L 529.325327 278.459458 
L 531.021891 277.803022 
L 532.718455 279.431706 
L 534.41502 279.364085 
L 536.111584 279.010575 
L 539.504713 278.652469 
L 541.201277 279.154737 
L 542.897841 279.153555 
L 544.594406 279.00605 
L 546.29097 279.935852 
L 547.987534 279.728783 
L 549.684099 278.454958 
L 553.077227 279.639043 
L 554.773791 278.457981 
L 556.470356 277.079151 
L 558.16692 276.855586 
L 559.863484 278.246874 
L 561.560049 279.444655 
L 563.256613 280.145257 
L 564.953177 279.496268 
L 566.649742 279.829816 
L 570.04287 277.641119 
L 571.739434 277.861663 
L 573.435999 277.306465 
L 575.132563 278.988227 
L 576.829127 277.190927 
L 578.525692 276.994439 
L 580.222256 277.634692 
L 581.91882 278.552363 
L 583.615385 277.932111 
L 585.311949 278.326036 
L 587.008513 280.164617 
L 590.401642 277.024861 
L 592.098206 280.242629 
L 593.79477 277.924227 
L 595.491335 279.457554 
L 597.187899 278.35093 
L 598.884463 278.021912 
L 600.581028 279.846272 
L 602.277592 279.387227 
L 603.974156 278.448829 
L 605.670721 279.038523 
L 607.367285 279.8054 
L 609.063849 277.985153 
L 612.456978 280.741349 
L 614.153542 279.588939 
L 615.850106 279.050102 
L 619.243235 278.333711 
L 620.939799 279.516677 
L 622.636364 280.130601 
L 622.636364 280.130601 
" clip-path="url(#p026d53742f)" style="fill: none; stroke: #d62728; stroke-width: 1.5; stroke-linecap: square"/>
   </g>
   <g id="patch_3">
    <path d="M 90 320.4 
L 90 43.2 
" style="fill: none; stroke: #000000; stroke-width: 0.8; stroke-linejoin: miter; stroke-linecap: square"/>
   </g>
   <g id="patch_4">
    <path d="M 648 320.4 
L 648 43.2 
" style="fill: none; stroke: #000000; stroke-width: 0.8; stroke-linejoin: miter; stroke-linecap: square"/>
   </g>
   <g id="patch_5">
    <path d="M 90 320.4 
L 648 320.4 
" style="fill: none; stroke: #000000; stroke-width: 0.8; stroke-linejoin: miter; stroke-linecap: square"/>
   </g>
   <g id="patch_6">
    <path d="M 90 43.2 
L 648 43.2 
" style="fill: none; stroke: #000000; stroke-width: 0.8; stroke-linejoin: miter; stroke-linecap: square"/>
   </g>
   <g id="text_13">
    <!-- Training and Validating Estimation Loss -->
    <g transform="translate(251.535937 37.2) scale(0.12 -0.12)">
     <defs>
      <path id="DejaVuSans-54" d="M -19 4666 
L 3928 4666 
L 3928 4134 
L 2272 4134 
L 2272 0 
L 1638 0 
L 1638 4134 
L -19 4134 
L -19 4666 
z
" transform="scale(0.015625)"/>
      <path id="DejaVuSans-72" d="M 2631 2963 
Q 2534 3019 2420 3045 
Q 2306 3072 2169 3072 
Q 1681 3072 1420 2755 
Q 1159 2438 1159 1844 
L 1159 0 
L 581 0 
L 581 3500 
L 1159 3500 
L 1159 2956 
Q 1341 3275 1631 3429 
Q 1922 3584 2338 3584 
Q 2397 3584 2469 3576 
Q 2541 3569 2628 3553 
L 2631 2963 
z
" transform="scale(0.015625)"/>
      <path id="DejaVuSans-67" d="M 2906 1791 
Q 2906 2416 2648 2759 
Q 2391 3103 1925 3103 
Q 1463 3103 1205 2759 
Q 947 2416 947 1791 
Q 947 1169 1205 825 
Q 1463 481 1925 481 
Q 2391 481 2648 825 
Q 2906 1169 2906 1791 
z
M 3481 434 
Q 3481 -459 3084 -895 
Q 2688 -1331 1869 -1331 
Q 1566 -1331 1297 -1286 
Q 1028 -1241 775 -1147 
L 775 -588 
Q 1028 -725 1275 -790 
Q 1522 -856 1778 -856 
Q 2344 -856 2625 -561 
Q 2906 -266 2906 331 
L 2906 616 
Q 2728 306 2450 153 
Q 2172 0 1784 0 
Q 1141 0 747 490 
Q 353 981 353 1791 
Q 353 2603 747 3093 
Q 1141 3584 1784 3584 
Q 2172 3584 2450 3431 
Q 2728 3278 2906 2969 
L 2906 3500 
L 3481 3500 
L 3481 434 
z
" transform="scale(0.015625)"/>
      <path id="DejaVuSans-64" d="M 2906 2969 
L 2906 4863 
L 3481 4863 
L 3481 0 
L 2906 0 
L 2906 525 
Q 2725 213 2448 61 
Q 2172 -91 1784 -91 
Q 1150 -91 751 415 
Q 353 922 353 1747 
Q 353 2572 751 3078 
Q 1150 3584 1784 3584 
Q 2172 3584 2448 3432 
Q 2725 3281 2906 2969 
z
M 947 1747 
Q 947 1113 1208 752 
Q 1469 391 1925 391 
Q 2381 391 2643 752 
Q 2906 1113 2906 1747 
Q 2906 2381 2643 2742 
Q 2381 3103 1925 3103 
Q 1469 3103 1208 2742 
Q 947 2381 947 1747 
z
" transform="scale(0.015625)"/>
      <path id="DejaVuSans-56" d="M 1831 0 
L 50 4666 
L 709 4666 
L 2188 738 
L 3669 4666 
L 4325 4666 
L 2547 0 
L 1831 0 
z
" transform="scale(0.015625)"/>
      <path id="DejaVuSans-6c" d="M 603 4863 
L 1178 4863 
L 1178 0 
L 603 0 
L 603 4863 
z
" transform="scale(0.015625)"/>
     </defs>
     <use xlink:href="#DejaVuSans-54"/>
     <use xlink:href="#DejaVuSans-72" transform="translate(46.333984 0)"/>
     <use xlink:href="#DejaVuSans-61" transform="translate(87.447266 0)"/>
     <use xlink:href="#DejaVuSans-69" transform="translate(148.726562 0)"/>
     <use xlink:href="#DejaVuSans-6e" transform="translate(176.509766 0)"/>
     <use xlink:href="#DejaVuSans-69" transform="translate(239.888672 0)"/>
     <use xlink:href="#DejaVuSans-6e" transform="translate(267.671875 0)"/>
     <use xlink:href="#DejaVuSans-67" transform="translate(331.050781 0)"/>
     <use xlink:href="#DejaVuSans-20" transform="translate(394.527344 0)"/>
     <use xlink:href="#DejaVuSans-61" transform="translate(426.314453 0)"/>
     <use xlink:href="#DejaVuSans-6e" transform="translate(487.59375 0)"/>
     <use xlink:href="#DejaVuSans-64" transform="translate(550.972656 0)"/>
     <use xlink:href="#DejaVuSans-20" transform="translate(614.449219 0)"/>
     <use xlink:href="#DejaVuSans-56" transform="translate(646.236328 0)"/>
     <use xlink:href="#DejaVuSans-61" transform="translate(706.894531 0)"/>
     <use xlink:href="#DejaVuSans-6c" transform="translate(768.173828 0)"/>
     <use xlink:href="#DejaVuSans-69" transform="translate(795.957031 0)"/>
     <use xlink:href="#DejaVuSans-64" transform="translate(823.740234 0)"/>
     <use xlink:href="#DejaVuSans-61" transform="translate(887.216797 0)"/>
     <use xlink:href="#DejaVuSans-74" transform="translate(948.496094 0)"/>
     <use xlink:href="#DejaVuSans-69" transform="translate(987.705078 0)"/>
     <use xlink:href="#DejaVuSans-6e" transform="translate(1015.488281 0)"/>
     <use xlink:href="#DejaVuSans-67" transform="translate(1078.867188 0)"/>
     <use xlink:href="#DejaVuSans-20" transform="translate(1142.34375 0)"/>
     <use xlink:href="#DejaVuSans-45" transform="translate(1174.130859 0)"/>
     <use xlink:href="#DejaVuSans-73" transform="translate(1237.314453 0)"/>
     <use xlink:href="#DejaVuSans-74" transform="translate(1289.414062 0)"/>
     <use xlink:href="#DejaVuSans-69" transform="translate(1328.623047 0)"/>
     <use xlink:href="#DejaVuSans-6d" transform="translate(1356.40625 0)"/>
     <use xlink:href="#DejaVuSans-61" transform="translate(1453.818359 0)"/>
     <use xlink:href="#DejaVuSans-74" transform="translate(1515.097656 0)"/>
     <use xlink:href="#DejaVuSans-69" transform="translate(1554.306641 0)"/>
     <use xlink:href="#DejaVuSans-6f" transform="translate(1582.089844 0)"/>
     <use xlink:href="#DejaVuSans-6e" transform="translate(1643.271484 0)"/>
     <use xlink:href="#DejaVuSans-20" transform="translate(1706.650391 0)"/>
     <use xlink:href="#DejaVuSans-4c" transform="translate(1738.4375 0)"/>
     <use xlink:href="#DejaVuSans-6f" transform="translate(1792.400391 0)"/>
     <use xlink:href="#DejaVuSans-73" transform="translate(1853.582031 0)"/>
     <use xlink:href="#DejaVuSans-73" transform="translate(1905.681641 0)"/>
    </g>
   </g>
   <g id="legend_1">
    <g id="patch_7">
     <path d="M 521.439062 109.9125 
L 641 109.9125 
Q 643 109.9125 643 107.9125 
L 643 50.2 
Q 643 48.2 641 48.2 
L 521.439062 48.2 
Q 519.439062 48.2 519.439062 50.2 
L 519.439062 107.9125 
Q 519.439062 109.9125 521.439062 109.9125 
z
" style="fill: #ffffff; opacity: 0.8; stroke: #cccccc; stroke-linejoin: miter"/>
    </g>
    <g id="line2d_15">
     <path d="M 523.439062 56.298437 
L 533.439062 56.298437 
L 543.439062 56.298437 
" style="fill: none; stroke: #1f77b4; stroke-width: 1.5; stroke-linecap: square"/>
    </g>
    <g id="text_14">
     <!-- Training-Source -->
     <g transform="translate(551.439062 59.798437) scale(0.1 -0.1)">
      <defs>
       <path id="DejaVuSans-2d" d="M 313 2009 
L 1997 2009 
L 1997 1497 
L 313 1497 
L 313 2009 
z
" transform="scale(0.015625)"/>
       <path id="DejaVuSans-53" d="M 3425 4513 
L 3425 3897 
Q 3066 4069 2747 4153 
Q 2428 4238 2131 4238 
Q 1616 4238 1336 4038 
Q 1056 3838 1056 3469 
Q 1056 3159 1242 3001 
Q 1428 2844 1947 2747 
L 2328 2669 
Q 3034 2534 3370 2195 
Q 3706 1856 3706 1288 
Q 3706 609 3251 259 
Q 2797 -91 1919 -91 
Q 1588 -91 1214 -16 
Q 841 59 441 206 
L 441 856 
Q 825 641 1194 531 
Q 1563 422 1919 422 
Q 2459 422 2753 634 
Q 3047 847 3047 1241 
Q 3047 1584 2836 1778 
Q 2625 1972 2144 2069 
L 1759 2144 
Q 1053 2284 737 2584 
Q 422 2884 422 3419 
Q 422 4038 858 4394 
Q 1294 4750 2059 4750 
Q 2388 4750 2728 4690 
Q 3069 4631 3425 4513 
z
" transform="scale(0.015625)"/>
       <path id="DejaVuSans-75" d="M 544 1381 
L 544 3500 
L 1119 3500 
L 1119 1403 
Q 1119 906 1312 657 
Q 1506 409 1894 409 
Q 2359 409 2629 706 
Q 2900 1003 2900 1516 
L 2900 3500 
L 3475 3500 
L 3475 0 
L 2900 0 
L 2900 538 
Q 2691 219 2414 64 
Q 2138 -91 1772 -91 
Q 1169 -91 856 284 
Q 544 659 544 1381 
z
M 1991 3584 
L 1991 3584 
z
" transform="scale(0.015625)"/>
       <path id="DejaVuSans-65" d="M 3597 1894 
L 3597 1613 
L 953 1613 
Q 991 1019 1311 708 
Q 1631 397 2203 397 
Q 2534 397 2845 478 
Q 3156 559 3463 722 
L 3463 178 
Q 3153 47 2828 -22 
Q 2503 -91 2169 -91 
Q 1331 -91 842 396 
Q 353 884 353 1716 
Q 353 2575 817 3079 
Q 1281 3584 2069 3584 
Q 2775 3584 3186 3129 
Q 3597 2675 3597 1894 
z
M 3022 2063 
Q 3016 2534 2758 2815 
Q 2500 3097 2075 3097 
Q 1594 3097 1305 2825 
Q 1016 2553 972 2059 
L 3022 2063 
z
" transform="scale(0.015625)"/>
      </defs>
      <use xlink:href="#DejaVuSans-54"/>
      <use xlink:href="#DejaVuSans-72" transform="translate(46.333984 0)"/>
      <use xlink:href="#DejaVuSans-61" transform="translate(87.447266 0)"/>
      <use xlink:href="#DejaVuSans-69" transform="translate(148.726562 0)"/>
      <use xlink:href="#DejaVuSans-6e" transform="translate(176.509766 0)"/>
      <use xlink:href="#DejaVuSans-69" transform="translate(239.888672 0)"/>
      <use xlink:href="#DejaVuSans-6e" transform="translate(267.671875 0)"/>
      <use xlink:href="#DejaVuSans-67" transform="translate(331.050781 0)"/>
      <use xlink:href="#DejaVuSans-2d" transform="translate(394.527344 0)"/>
      <use xlink:href="#DejaVuSans-53" transform="translate(430.611328 0)"/>
      <use xlink:href="#DejaVuSans-6f" transform="translate(494.087891 0)"/>
      <use xlink:href="#DejaVuSans-75" transform="translate(555.269531 0)"/>
      <use xlink:href="#DejaVuSans-72" transform="translate(618.648438 0)"/>
      <use xlink:href="#DejaVuSans-63" transform="translate(657.511719 0)"/>
      <use xlink:href="#DejaVuSans-65" transform="translate(712.492188 0)"/>
     </g>
    </g>
    <g id="line2d_16">
     <path d="M 523.439062 70.976562 
L 533.439062 70.976562 
L 543.439062 70.976562 
" style="fill: none; stroke: #ff7f0e; stroke-width: 1.5; stroke-linecap: square"/>
    </g>
    <g id="text_15">
     <!-- Training-Target -->
     <g transform="translate(551.439062 74.476562) scale(0.1 -0.1)">
      <use xlink:href="#DejaVuSans-54"/>
      <use xlink:href="#DejaVuSans-72" transform="translate(46.333984 0)"/>
      <use xlink:href="#DejaVuSans-61" transform="translate(87.447266 0)"/>
      <use xlink:href="#DejaVuSans-69" transform="translate(148.726562 0)"/>
      <use xlink:href="#DejaVuSans-6e" transform="translate(176.509766 0)"/>
      <use xlink:href="#DejaVuSans-69" transform="translate(239.888672 0)"/>
      <use xlink:href="#DejaVuSans-6e" transform="translate(267.671875 0)"/>
      <use xlink:href="#DejaVuSans-67" transform="translate(331.050781 0)"/>
      <use xlink:href="#DejaVuSans-2d" transform="translate(394.527344 0)"/>
      <use xlink:href="#DejaVuSans-54" transform="translate(421.486328 0)"/>
      <use xlink:href="#DejaVuSans-61" transform="translate(466.070312 0)"/>
      <use xlink:href="#DejaVuSans-72" transform="translate(527.349609 0)"/>
      <use xlink:href="#DejaVuSans-67" transform="translate(566.712891 0)"/>
      <use xlink:href="#DejaVuSans-65" transform="translate(630.189453 0)"/>
      <use xlink:href="#DejaVuSans-74" transform="translate(691.712891 0)"/>
     </g>
    </g>
    <g id="line2d_17">
     <path d="M 523.439062 85.654687 
L 533.439062 85.654687 
L 543.439062 85.654687 
" style="fill: none; stroke: #2ca02c; stroke-width: 1.5; stroke-linecap: square"/>
    </g>
    <g id="text_16">
     <!-- Validating-Source -->
     <g transform="translate(551.439062 89.154687) scale(0.1 -0.1)">
      <use xlink:href="#DejaVuSans-56"/>
      <use xlink:href="#DejaVuSans-61" transform="translate(60.658203 0)"/>
      <use xlink:href="#DejaVuSans-6c" transform="translate(121.9375 0)"/>
      <use xlink:href="#DejaVuSans-69" transform="translate(149.720703 0)"/>
      <use xlink:href="#DejaVuSans-64" transform="translate(177.503906 0)"/>
      <use xlink:href="#DejaVuSans-61" transform="translate(240.980469 0)"/>
      <use xlink:href="#DejaVuSans-74" transform="translate(302.259766 0)"/>
      <use xlink:href="#DejaVuSans-69" transform="translate(341.46875 0)"/>
      <use xlink:href="#DejaVuSans-6e" transform="translate(369.251953 0)"/>
      <use xlink:href="#DejaVuSans-67" transform="translate(432.630859 0)"/>
      <use xlink:href="#DejaVuSans-2d" transform="translate(496.107422 0)"/>
      <use xlink:href="#DejaVuSans-53" transform="translate(532.191406 0)"/>
      <use xlink:href="#DejaVuSans-6f" transform="translate(595.667969 0)"/>
      <use xlink:href="#DejaVuSans-75" transform="translate(656.849609 0)"/>
      <use xlink:href="#DejaVuSans-72" transform="translate(720.228516 0)"/>
      <use xlink:href="#DejaVuSans-63" transform="translate(759.091797 0)"/>
      <use xlink:href="#DejaVuSans-65" transform="translate(814.072266 0)"/>
     </g>
    </g>
    <g id="line2d_18">
     <path d="M 523.439062 100.332812 
L 533.439062 100.332812 
L 543.439062 100.332812 
" style="fill: none; stroke: #d62728; stroke-width: 1.5; stroke-linecap: square"/>
    </g>
    <g id="text_17">
     <!-- Validating-Target -->
     <g transform="translate(551.439062 103.832812) scale(0.1 -0.1)">
      <use xlink:href="#DejaVuSans-56"/>
      <use xlink:href="#DejaVuSans-61" transform="translate(60.658203 0)"/>
      <use xlink:href="#DejaVuSans-6c" transform="translate(121.9375 0)"/>
      <use xlink:href="#DejaVuSans-69" transform="translate(149.720703 0)"/>
      <use xlink:href="#DejaVuSans-64" transform="translate(177.503906 0)"/>
      <use xlink:href="#DejaVuSans-61" transform="translate(240.980469 0)"/>
      <use xlink:href="#DejaVuSans-74" transform="translate(302.259766 0)"/>
      <use xlink:href="#DejaVuSans-69" transform="translate(341.46875 0)"/>
      <use xlink:href="#DejaVuSans-6e" transform="translate(369.251953 0)"/>
      <use xlink:href="#DejaVuSans-67" transform="translate(432.630859 0)"/>
      <use xlink:href="#DejaVuSans-2d" transform="translate(496.107422 0)"/>
      <use xlink:href="#DejaVuSans-54" transform="translate(523.066406 0)"/>
      <use xlink:href="#DejaVuSans-61" transform="translate(567.650391 0)"/>
      <use xlink:href="#DejaVuSans-72" transform="translate(628.929688 0)"/>
      <use xlink:href="#DejaVuSans-67" transform="translate(668.292969 0)"/>
      <use xlink:href="#DejaVuSans-65" transform="translate(731.769531 0)"/>
      <use xlink:href="#DejaVuSans-74" transform="translate(793.292969 0)"/>
     </g>
    </g>
   </g>
  </g>
 </g>
 <defs>
  <clipPath id="p026d53742f">
   <rect x="90" y="43.2" width="558" height="277.2"/>
  </clipPath>
 </defs>
</svg>
