<?xml version="1.0" encoding="utf-8" standalone="no"?>
<!DOCTYPE svg PUBLIC "-//W3C//DTD SVG 1.1//EN"
  "http://www.w3.org/Graphics/SVG/1.1/DTD/svg11.dtd">
<svg xmlns:xlink="http://www.w3.org/1999/xlink" width="720pt" height="360pt" viewBox="0 0 720 360" xmlns="http://www.w3.org/2000/svg" version="1.1">
 <metadata>
  <rdf:RDF xmlns:dc="http://purl.org/dc/elements/1.1/" xmlns:cc="http://creativecommons.org/ns#" xmlns:rdf="http://www.w3.org/1999/02/22-rdf-syntax-ns#">
   <cc:Work>
    <dc:type rdf:resource="http://purl.org/dc/dcmitype/StillImage"/>
    <dc:date>2025-11-25T21:29:22.350332</dc:date>
    <dc:format>image/svg+xml</dc:format>
    <dc:creator>
     <cc:Agent>
      <dc:title>Matplotlib v3.10.1, https://matplotlib.org/</dc:title>
     </cc:Agent>
    </dc:creator>
   </cc:Work>
  </rdf:RDF>
 </metadata>
 <defs>
  <style type="text/css">*{stroke-linejoin: round; stroke-linecap: butt}</style>
 </defs>
 <g id="figure_1">
  <g id="patch_1">
   <path d="M 0 360 
L 720 360 
L 720 0 
L 0 0 
z
" style="fill: #ffffff"/>
  </g>
  <g id="axes_1">
   <g id="patch_2">
    <path d="M 90 320.4 
L 648 320.4 
L 648 43.2 
L 90 43.2 
z
" style="fill: #ffffff"/>
   </g>
   <g id="matplotlib.axis_1">
    <g id="xtick_1">
     <g id="line2d_1">
      <defs>
       <path id="m2f3e21a014" d="M 0 0 
L 0 3.5 
" style="stroke: #000000; stroke-width: 0.8"/>
      </defs>
      <g>
       <use xlink:href="#m2f3e21a014" x="115.363636" y="320.4" style="stroke: #000000; stroke-width: 0.8"/>
      </g>
     </g>
     <g id="text_1">
      <!-- 0 -->
      <g transform="translate(112.182386 334.998438) scale(0.1 -0.1)">
       <defs>
        <path id="DejaVuSans-30" d="M 2034 4250 
Q 1547 4250 1301 3770 
Q 1056 3291 1056 2328 
Q 1056 1369 1301 889 
Q 1547 409 2034 409 
Q 2525 409 2770 889 
Q 3016 1369 3016 2328 
Q 3016 3291 2770 3770 
Q 2525 4250 2034 4250 
z
M 2034 4750 
Q 2819 4750 3233 4129 
Q 3647 3509 3647 2328 
Q 3647 1150 3233 529 
Q 2819 -91 2034 -91 
Q 1250 -91 836 529 
Q 422 1150 422 2328 
Q 422 3509 836 4129 
Q 1250 4750 2034 4750 
z
" transform="scale(0.015625)"/>
       </defs>
       <use xlink:href="#DejaVuSans-30"/>
      </g>
     </g>
    </g>
    <g id="xtick_2">
     <g id="line2d_2">
      <g>
       <use xlink:href="#m2f3e21a014" x="217.157495" y="320.4" style="stroke: #000000; stroke-width: 0.8"/>
      </g>
     </g>
     <g id="text_2">
      <!-- 60 -->
      <g transform="translate(210.794995 334.998438) scale(0.1 -0.1)">
       <defs>
        <path id="DejaVuSans-36" d="M 2113 2584 
Q 1688 2584 1439 2293 
Q 1191 2003 1191 1497 
Q 1191 994 1439 701 
Q 1688 409 2113 409 
Q 2538 409 2786 701 
Q 3034 994 3034 1497 
Q 3034 2003 2786 2293 
Q 2538 2584 2113 2584 
z
M 3366 4563 
L 3366 3988 
Q 3128 4100 2886 4159 
Q 2644 4219 2406 4219 
Q 1781 4219 1451 3797 
Q 1122 3375 1075 2522 
Q 1259 2794 1537 2939 
Q 1816 3084 2150 3084 
Q 2853 3084 3261 2657 
Q 3669 2231 3669 1497 
Q 3669 778 3244 343 
Q 2819 -91 2113 -91 
Q 1303 -91 875 529 
Q 447 1150 447 2328 
Q 447 3434 972 4092 
Q 1497 4750 2381 4750 
Q 2619 4750 2861 4703 
Q 3103 4656 3366 4563 
z
" transform="scale(0.015625)"/>
       </defs>
       <use xlink:href="#DejaVuSans-36"/>
       <use xlink:href="#DejaVuSans-30" transform="translate(63.623047 0)"/>
      </g>
     </g>
    </g>
    <g id="xtick_3">
     <g id="line2d_3">
      <g>
       <use xlink:href="#m2f3e21a014" x="318.951353" y="320.4" style="stroke: #000000; stroke-width: 0.8"/>
      </g>
     </g>
     <g id="text_3">
      <!-- 120 -->
      <g transform="translate(309.407603 334.998438) scale(0.1 -0.1)">
       <defs>
        <path id="DejaVuSans-31" d="M 794 531 
L 1825 531 
L 1825 4091 
L 703 3866 
L 703 4441 
L 1819 4666 
L 2450 4666 
L 2450 531 
L 3481 531 
L 3481 0 
L 794 0 
L 794 531 
z
" transform="scale(0.015625)"/>
        <path id="DejaVuSans-32" d="M 1228 531 
L 3431 531 
L 3431 0 
L 469 0 
L 469 531 
Q 828 903 1448 1529 
Q 2069 2156 2228 2338 
Q 2531 2678 2651 2914 
Q 2772 3150 2772 3378 
Q 2772 3750 2511 3984 
Q 2250 4219 1831 4219 
Q 1534 4219 1204 4116 
Q 875 4013 500 3803 
L 500 4441 
Q 881 4594 1212 4672 
Q 1544 4750 1819 4750 
Q 2544 4750 2975 4387 
Q 3406 4025 3406 3419 
Q 3406 3131 3298 2873 
Q 3191 2616 2906 2266 
Q 2828 2175 2409 1742 
Q 1991 1309 1228 531 
z
" transform="scale(0.015625)"/>
       </defs>
       <use xlink:href="#DejaVuSans-31"/>
       <use xlink:href="#DejaVuSans-32" transform="translate(63.623047 0)"/>
       <use xlink:href="#DejaVuSans-30" transform="translate(127.246094 0)"/>
      </g>
     </g>
    </g>
    <g id="xtick_4">
     <g id="line2d_4">
      <g>
       <use xlink:href="#m2f3e21a014" x="420.745211" y="320.4" style="stroke: #000000; stroke-width: 0.8"/>
      </g>
     </g>
     <g id="text_4">
      <!-- 180 -->
      <g transform="translate(411.201461 334.998438) scale(0.1 -0.1)">
       <defs>
        <path id="DejaVuSans-38" d="M 2034 2216 
Q 1584 2216 1326 1975 
Q 1069 1734 1069 1313 
Q 1069 891 1326 650 
Q 1584 409 2034 409 
Q 2484 409 2743 651 
Q 3003 894 3003 1313 
Q 3003 1734 2745 1975 
Q 2488 2216 2034 2216 
z
M 1403 2484 
Q 997 2584 770 2862 
Q 544 3141 544 3541 
Q 544 4100 942 4425 
Q 1341 4750 2034 4750 
Q 2731 4750 3128 4425 
Q 3525 4100 3525 3541 
Q 3525 3141 3298 2862 
Q 3072 2584 2669 2484 
Q 3125 2378 3379 2068 
Q 3634 1759 3634 1313 
Q 3634 634 3220 271 
Q 2806 -91 2034 -91 
Q 1263 -91 848 271 
Q 434 634 434 1313 
Q 434 1759 690 2068 
Q 947 2378 1403 2484 
z
M 1172 3481 
Q 1172 3119 1398 2916 
Q 1625 2713 2034 2713 
Q 2441 2713 2670 2916 
Q 2900 3119 2900 3481 
Q 2900 3844 2670 4047 
Q 2441 4250 2034 4250 
Q 1625 4250 1398 4047 
Q 1172 3844 1172 3481 
z
" transform="scale(0.015625)"/>
       </defs>
       <use xlink:href="#DejaVuSans-31"/>
       <use xlink:href="#DejaVuSans-38" transform="translate(63.623047 0)"/>
       <use xlink:href="#DejaVuSans-30" transform="translate(127.246094 0)"/>
      </g>
     </g>
    </g>
    <g id="xtick_5">
     <g id="line2d_5">
      <g>
       <use xlink:href="#m2f3e21a014" x="522.53907" y="320.4" style="stroke: #000000; stroke-width: 0.8"/>
      </g>
     </g>
     <g id="text_5">
      <!-- 240 -->
      <g transform="translate(512.99532 334.998438) scale(0.1 -0.1)">
       <defs>
        <path id="DejaVuSans-34" d="M 2419 4116 
L 825 1625 
L 2419 1625 
L 2419 4116 
z
M 2253 4666 
L 3047 4666 
L 3047 1625 
L 3713 1625 
L 3713 1100 
L 3047 1100 
L 3047 0 
L 2419 0 
L 2419 1100 
L 313 1100 
L 313 1709 
L 2253 4666 
z
" transform="scale(0.015625)"/>
       </defs>
       <use xlink:href="#DejaVuSans-32"/>
       <use xlink:href="#DejaVuSans-34" transform="translate(63.623047 0)"/>
       <use xlink:href="#DejaVuSans-30" transform="translate(127.246094 0)"/>
      </g>
     </g>
    </g>
    <g id="text_6">
     <!-- Epoch -->
     <g transform="translate(353.689062 348.676562) scale(0.1 -0.1)">
      <defs>
       <path id="DejaVuSans-45" d="M 628 4666 
L 3578 4666 
L 3578 4134 
L 1259 4134 
L 1259 2753 
L 3481 2753 
L 3481 2222 
L 1259 2222 
L 1259 531 
L 3634 531 
L 3634 0 
L 628 0 
L 628 4666 
z
" transform="scale(0.015625)"/>
       <path id="DejaVuSans-70" d="M 1159 525 
L 1159 -1331 
L 581 -1331 
L 581 3500 
L 1159 3500 
L 1159 2969 
Q 1341 3281 1617 3432 
Q 1894 3584 2278 3584 
Q 2916 3584 3314 3078 
Q 3713 2572 3713 1747 
Q 3713 922 3314 415 
Q 2916 -91 2278 -91 
Q 1894 -91 1617 61 
Q 1341 213 1159 525 
z
M 3116 1747 
Q 3116 2381 2855 2742 
Q 2594 3103 2138 3103 
Q 1681 3103 1420 2742 
Q 1159 2381 1159 1747 
Q 1159 1113 1420 752 
Q 1681 391 2138 391 
Q 2594 391 2855 752 
Q 3116 1113 3116 1747 
z
" transform="scale(0.015625)"/>
       <path id="DejaVuSans-6f" d="M 1959 3097 
Q 1497 3097 1228 2736 
Q 959 2375 959 1747 
Q 959 1119 1226 758 
Q 1494 397 1959 397 
Q 2419 397 2687 759 
Q 2956 1122 2956 1747 
Q 2956 2369 2687 2733 
Q 2419 3097 1959 3097 
z
M 1959 3584 
Q 2709 3584 3137 3096 
Q 3566 2609 3566 1747 
Q 3566 888 3137 398 
Q 2709 -91 1959 -91 
Q 1206 -91 779 398 
Q 353 888 353 1747 
Q 353 2609 779 3096 
Q 1206 3584 1959 3584 
z
" transform="scale(0.015625)"/>
       <path id="DejaVuSans-63" d="M 3122 3366 
L 3122 2828 
Q 2878 2963 2633 3030 
Q 2388 3097 2138 3097 
Q 1578 3097 1268 2742 
Q 959 2388 959 1747 
Q 959 1106 1268 751 
Q 1578 397 2138 397 
Q 2388 397 2633 464 
Q 2878 531 3122 666 
L 3122 134 
Q 2881 22 2623 -34 
Q 2366 -91 2075 -91 
Q 1284 -91 818 406 
Q 353 903 353 1747 
Q 353 2603 823 3093 
Q 1294 3584 2113 3584 
Q 2378 3584 2631 3529 
Q 2884 3475 3122 3366 
z
" transform="scale(0.015625)"/>
       <path id="DejaVuSans-68" d="M 3513 2113 
L 3513 0 
L 2938 0 
L 2938 2094 
Q 2938 2591 2744 2837 
Q 2550 3084 2163 3084 
Q 1697 3084 1428 2787 
Q 1159 2491 1159 1978 
L 1159 0 
L 581 0 
L 581 4863 
L 1159 4863 
L 1159 2956 
Q 1366 3272 1645 3428 
Q 1925 3584 2291 3584 
Q 2894 3584 3203 3211 
Q 3513 2838 3513 2113 
z
" transform="scale(0.015625)"/>
      </defs>
      <use xlink:href="#DejaVuSans-45"/>
      <use xlink:href="#DejaVuSans-70" transform="translate(63.183594 0)"/>
      <use xlink:href="#DejaVuSans-6f" transform="translate(126.660156 0)"/>
      <use xlink:href="#DejaVuSans-63" transform="translate(187.841797 0)"/>
      <use xlink:href="#DejaVuSans-68" transform="translate(242.822266 0)"/>
     </g>
    </g>
   </g>
   <g id="matplotlib.axis_2">
    <g id="ytick_1">
     <g id="line2d_6">
      <defs>
       <path id="med7c8e3d15" d="M 0 0 
L -3.5 0 
" style="stroke: #000000; stroke-width: 0.8"/>
      </defs>
      <g>
       <use xlink:href="#med7c8e3d15" x="90" y="317.696353" style="stroke: #000000; stroke-width: 0.8"/>
      </g>
     </g>
     <g id="text_7">
      <!-- 0.15 -->
      <g transform="translate(60.734375 321.495572) scale(0.1 -0.1)">
       <defs>
        <path id="DejaVuSans-2e" d="M 684 794 
L 1344 794 
L 1344 0 
L 684 0 
L 684 794 
z
" transform="scale(0.015625)"/>
        <path id="DejaVuSans-35" d="M 691 4666 
L 3169 4666 
L 3169 4134 
L 1269 4134 
L 1269 2991 
Q 1406 3038 1543 3061 
Q 1681 3084 1819 3084 
Q 2600 3084 3056 2656 
Q 3513 2228 3513 1497 
Q 3513 744 3044 326 
Q 2575 -91 1722 -91 
Q 1428 -91 1123 -41 
Q 819 9 494 109 
L 494 744 
Q 775 591 1075 516 
Q 1375 441 1709 441 
Q 2250 441 2565 725 
Q 2881 1009 2881 1497 
Q 2881 1984 2565 2268 
Q 2250 2553 1709 2553 
Q 1456 2553 1204 2497 
Q 953 2441 691 2322 
L 691 4666 
z
" transform="scale(0.015625)"/>
       </defs>
       <use xlink:href="#DejaVuSans-30"/>
       <use xlink:href="#DejaVuSans-2e" transform="translate(63.623047 0)"/>
       <use xlink:href="#DejaVuSans-31" transform="translate(95.410156 0)"/>
       <use xlink:href="#DejaVuSans-35" transform="translate(159.033203 0)"/>
      </g>
     </g>
    </g>
    <g id="ytick_2">
     <g id="line2d_7">
      <g>
       <use xlink:href="#med7c8e3d15" x="90" y="282.002092" style="stroke: #000000; stroke-width: 0.8"/>
      </g>
     </g>
     <g id="text_8">
      <!-- 0.20 -->
      <g transform="translate(60.734375 285.801311) scale(0.1 -0.1)">
       <use xlink:href="#DejaVuSans-30"/>
       <use xlink:href="#DejaVuSans-2e" transform="translate(63.623047 0)"/>
       <use xlink:href="#DejaVuSans-32" transform="translate(95.410156 0)"/>
       <use xlink:href="#DejaVuSans-30" transform="translate(159.033203 0)"/>
      </g>
     </g>
    </g>
    <g id="ytick_3">
     <g id="line2d_8">
      <g>
       <use xlink:href="#med7c8e3d15" x="90" y="246.307831" style="stroke: #000000; stroke-width: 0.8"/>
      </g>
     </g>
     <g id="text_9">
      <!-- 0.25 -->
      <g transform="translate(60.734375 250.10705) scale(0.1 -0.1)">
       <use xlink:href="#DejaVuSans-30"/>
       <use xlink:href="#DejaVuSans-2e" transform="translate(63.623047 0)"/>
       <use xlink:href="#DejaVuSans-32" transform="translate(95.410156 0)"/>
       <use xlink:href="#DejaVuSans-35" transform="translate(159.033203 0)"/>
      </g>
     </g>
    </g>
    <g id="ytick_4">
     <g id="line2d_9">
      <g>
       <use xlink:href="#med7c8e3d15" x="90" y="210.61357" style="stroke: #000000; stroke-width: 0.8"/>
      </g>
     </g>
     <g id="text_10">
      <!-- 0.30 -->
      <g transform="translate(60.734375 214.412789) scale(0.1 -0.1)">
       <defs>
        <path id="DejaVuSans-33" d="M 2597 2516 
Q 3050 2419 3304 2112 
Q 3559 1806 3559 1356 
Q 3559 666 3084 287 
Q 2609 -91 1734 -91 
Q 1441 -91 1130 -33 
Q 819 25 488 141 
L 488 750 
Q 750 597 1062 519 
Q 1375 441 1716 441 
Q 2309 441 2620 675 
Q 2931 909 2931 1356 
Q 2931 1769 2642 2001 
Q 2353 2234 1838 2234 
L 1294 2234 
L 1294 2753 
L 1863 2753 
Q 2328 2753 2575 2939 
Q 2822 3125 2822 3475 
Q 2822 3834 2567 4026 
Q 2313 4219 1838 4219 
Q 1578 4219 1281 4162 
Q 984 4106 628 3988 
L 628 4550 
Q 988 4650 1302 4700 
Q 1616 4750 1894 4750 
Q 2613 4750 3031 4423 
Q 3450 4097 3450 3541 
Q 3450 3153 3228 2886 
Q 3006 2619 2597 2516 
z
" transform="scale(0.015625)"/>
       </defs>
       <use xlink:href="#DejaVuSans-30"/>
       <use xlink:href="#DejaVuSans-2e" transform="translate(63.623047 0)"/>
       <use xlink:href="#DejaVuSans-33" transform="translate(95.410156 0)"/>
       <use xlink:href="#DejaVuSans-30" transform="translate(159.033203 0)"/>
      </g>
     </g>
    </g>
    <g id="ytick_5">
     <g id="line2d_10">
      <g>
       <use xlink:href="#med7c8e3d15" x="90" y="174.919309" style="stroke: #000000; stroke-width: 0.8"/>
      </g>
     </g>
     <g id="text_11">
      <!-- 0.35 -->
      <g transform="translate(60.734375 178.718528) scale(0.1 -0.1)">
       <use xlink:href="#DejaVuSans-30"/>
       <use xlink:href="#DejaVuSans-2e" transform="translate(63.623047 0)"/>
       <use xlink:href="#DejaVuSans-33" transform="translate(95.410156 0)"/>
       <use xlink:href="#DejaVuSans-35" transform="translate(159.033203 0)"/>
      </g>
     </g>
    </g>
    <g id="ytick_6">
     <g id="line2d_11">
      <g>
       <use xlink:href="#med7c8e3d15" x="90" y="139.225048" style="stroke: #000000; stroke-width: 0.8"/>
      </g>
     </g>
     <g id="text_12">
      <!-- 0.40 -->
      <g transform="translate(60.734375 143.024267) scale(0.1 -0.1)">
       <use xlink:href="#DejaVuSans-30"/>
       <use xlink:href="#DejaVuSans-2e" transform="translate(63.623047 0)"/>
       <use xlink:href="#DejaVuSans-34" transform="translate(95.410156 0)"/>
       <use xlink:href="#DejaVuSans-30" transform="translate(159.033203 0)"/>
      </g>
     </g>
    </g>
    <g id="ytick_7">
     <g id="line2d_12">
      <g>
       <use xlink:href="#med7c8e3d15" x="90" y="103.530787" style="stroke: #000000; stroke-width: 0.8"/>
      </g>
     </g>
     <g id="text_13">
      <!-- 0.45 -->
      <g transform="translate(60.734375 107.330006) scale(0.1 -0.1)">
       <use xlink:href="#DejaVuSans-30"/>
       <use xlink:href="#DejaVuSans-2e" transform="translate(63.623047 0)"/>
       <use xlink:href="#DejaVuSans-34" transform="translate(95.410156 0)"/>
       <use xlink:href="#DejaVuSans-35" transform="translate(159.033203 0)"/>
      </g>
     </g>
    </g>
    <g id="ytick_8">
     <g id="line2d_13">
      <g>
       <use xlink:href="#med7c8e3d15" x="90" y="67.836526" style="stroke: #000000; stroke-width: 0.8"/>
      </g>
     </g>
     <g id="text_14">
      <!-- 0.50 -->
      <g transform="translate(60.734375 71.635744) scale(0.1 -0.1)">
       <use xlink:href="#DejaVuSans-30"/>
       <use xlink:href="#DejaVuSans-2e" transform="translate(63.623047 0)"/>
       <use xlink:href="#DejaVuSans-35" transform="translate(95.410156 0)"/>
       <use xlink:href="#DejaVuSans-30" transform="translate(159.033203 0)"/>
      </g>
     </g>
    </g>
    <g id="text_15">
     <!-- Estimation Loss -->
     <g transform="translate(54.654687 220.98125) rotate(-90) scale(0.1 -0.1)">
      <defs>
       <path id="DejaVuSans-73" d="M 2834 3397 
L 2834 2853 
Q 2591 2978 2328 3040 
Q 2066 3103 1784 3103 
Q 1356 3103 1142 2972 
Q 928 2841 928 2578 
Q 928 2378 1081 2264 
Q 1234 2150 1697 2047 
L 1894 2003 
Q 2506 1872 2764 1633 
Q 3022 1394 3022 966 
Q 3022 478 2636 193 
Q 2250 -91 1575 -91 
Q 1294 -91 989 -36 
Q 684 19 347 128 
L 347 722 
Q 666 556 975 473 
Q 1284 391 1588 391 
Q 1994 391 2212 530 
Q 2431 669 2431 922 
Q 2431 1156 2273 1281 
Q 2116 1406 1581 1522 
L 1381 1569 
Q 847 1681 609 1914 
Q 372 2147 372 2553 
Q 372 3047 722 3315 
Q 1072 3584 1716 3584 
Q 2034 3584 2315 3537 
Q 2597 3491 2834 3397 
z
" transform="scale(0.015625)"/>
       <path id="DejaVuSans-74" d="M 1172 4494 
L 1172 3500 
L 2356 3500 
L 2356 3053 
L 1172 3053 
L 1172 1153 
Q 1172 725 1289 603 
Q 1406 481 1766 481 
L 2356 481 
L 2356 0 
L 1766 0 
Q 1100 0 847 248 
Q 594 497 594 1153 
L 594 3053 
L 172 3053 
L 172 3500 
L 594 3500 
L 594 4494 
L 1172 4494 
z
" transform="scale(0.015625)"/>
       <path id="DejaVuSans-69" d="M 603 3500 
L 1178 3500 
L 1178 0 
L 603 0 
L 603 3500 
z
M 603 4863 
L 1178 4863 
L 1178 4134 
L 603 4134 
L 603 4863 
z
" transform="scale(0.015625)"/>
       <path id="DejaVuSans-6d" d="M 3328 2828 
Q 3544 3216 3844 3400 
Q 4144 3584 4550 3584 
Q 5097 3584 5394 3201 
Q 5691 2819 5691 2113 
L 5691 0 
L 5113 0 
L 5113 2094 
Q 5113 2597 4934 2840 
Q 4756 3084 4391 3084 
Q 3944 3084 3684 2787 
Q 3425 2491 3425 1978 
L 3425 0 
L 2847 0 
L 2847 2094 
Q 2847 2600 2669 2842 
Q 2491 3084 2119 3084 
Q 1678 3084 1418 2786 
Q 1159 2488 1159 1978 
L 1159 0 
L 581 0 
L 581 3500 
L 1159 3500 
L 1159 2956 
Q 1356 3278 1631 3431 
Q 1906 3584 2284 3584 
Q 2666 3584 2933 3390 
Q 3200 3197 3328 2828 
z
" transform="scale(0.015625)"/>
       <path id="DejaVuSans-61" d="M 2194 1759 
Q 1497 1759 1228 1600 
Q 959 1441 959 1056 
Q 959 750 1161 570 
Q 1363 391 1709 391 
Q 2188 391 2477 730 
Q 2766 1069 2766 1631 
L 2766 1759 
L 2194 1759 
z
M 3341 1997 
L 3341 0 
L 2766 0 
L 2766 531 
Q 2569 213 2275 61 
Q 1981 -91 1556 -91 
Q 1019 -91 701 211 
Q 384 513 384 1019 
Q 384 1609 779 1909 
Q 1175 2209 1959 2209 
L 2766 2209 
L 2766 2266 
Q 2766 2663 2505 2880 
Q 2244 3097 1772 3097 
Q 1472 3097 1187 3025 
Q 903 2953 641 2809 
L 641 3341 
Q 956 3463 1253 3523 
Q 1550 3584 1831 3584 
Q 2591 3584 2966 3190 
Q 3341 2797 3341 1997 
z
" transform="scale(0.015625)"/>
       <path id="DejaVuSans-6e" d="M 3513 2113 
L 3513 0 
L 2938 0 
L 2938 2094 
Q 2938 2591 2744 2837 
Q 2550 3084 2163 3084 
Q 1697 3084 1428 2787 
Q 1159 2491 1159 1978 
L 1159 0 
L 581 0 
L 581 3500 
L 1159 3500 
L 1159 2956 
Q 1366 3272 1645 3428 
Q 1925 3584 2291 3584 
Q 2894 3584 3203 3211 
Q 3513 2838 3513 2113 
z
" transform="scale(0.015625)"/>
       <path id="DejaVuSans-20" transform="scale(0.015625)"/>
       <path id="DejaVuSans-4c" d="M 628 4666 
L 1259 4666 
L 1259 531 
L 3531 531 
L 3531 0 
L 628 0 
L 628 4666 
z
" transform="scale(0.015625)"/>
      </defs>
      <use xlink:href="#DejaVuSans-45"/>
      <use xlink:href="#DejaVuSans-73" transform="translate(63.183594 0)"/>
      <use xlink:href="#DejaVuSans-74" transform="translate(115.283203 0)"/>
      <use xlink:href="#DejaVuSans-69" transform="translate(154.492188 0)"/>
      <use xlink:href="#DejaVuSans-6d" transform="translate(182.275391 0)"/>
      <use xlink:href="#DejaVuSans-61" transform="translate(279.6875 0)"/>
      <use xlink:href="#DejaVuSans-74" transform="translate(340.966797 0)"/>
      <use xlink:href="#DejaVuSans-69" transform="translate(380.175781 0)"/>
      <use xlink:href="#DejaVuSans-6f" transform="translate(407.958984 0)"/>
      <use xlink:href="#DejaVuSans-6e" transform="translate(469.140625 0)"/>
      <use xlink:href="#DejaVuSans-20" transform="translate(532.519531 0)"/>
      <use xlink:href="#DejaVuSans-4c" transform="translate(564.306641 0)"/>
      <use xlink:href="#DejaVuSans-6f" transform="translate(618.269531 0)"/>
      <use xlink:href="#DejaVuSans-73" transform="translate(679.451172 0)"/>
      <use xlink:href="#DejaVuSans-73" transform="translate(731.550781 0)"/>
     </g>
    </g>
   </g>
   <g id="line2d_14">
    <path d="M 115.363636 55.8 
L 117.060201 232.631944 
L 118.756765 256.814471 
L 120.453329 268.272091 
L 122.149894 274.870516 
L 123.846458 279.134716 
L 125.543022 282.285768 
L 127.239587 284.586216 
L 128.936151 286.355256 
L 130.632715 287.799443 
L 132.329279 289.043888 
L 135.722408 290.831262 
L 139.115537 292.208506 
L 144.20523 293.735818 
L 152.688051 295.370956 
L 162.867437 296.668399 
L 171.350258 297.338761 
L 181.529644 297.911824 
L 191.70903 298.341224 
L 201.888416 298.672289 
L 206.978109 298.807263 
L 261.268167 299.79379 
L 368.151718 300.779624 
L 581.91882 301.41414 
L 590.401642 301.408811 
L 622.636364 301.44373 
L 622.636364 301.44373 
" clip-path="url(#p78716be7e6)" style="fill: none; stroke: #1f77b4; stroke-width: 1.5; stroke-linecap: square"/>
   </g>
   <g id="line2d_15">
    <path d="M 115.363636 132.185298 
L 117.060201 243.217349 
L 118.756765 259.108031 
L 120.453329 268.40888 
L 122.149894 274.898865 
L 123.846458 279.253428 
L 125.543022 282.438737 
L 127.239587 284.946782 
L 128.936151 286.883294 
L 132.329279 289.598519 
L 134.025844 290.621939 
L 135.722408 291.479147 
L 137.418972 292.62638 
L 140.812101 293.903276 
L 142.508665 294.384955 
L 144.20523 294.576684 
L 145.901794 294.910201 
L 147.598358 295.500384 
L 149.294922 295.949286 
L 150.991487 295.683501 
L 152.688051 296.605066 
L 154.384615 296.722733 
L 156.08118 296.299028 
L 159.474308 297.275121 
L 161.170873 297.051403 
L 162.867437 297.160213 
L 164.564001 297.532384 
L 166.260566 297.010208 
L 167.95713 297.677585 
L 169.653694 297.621305 
L 174.743387 297.797954 
L 176.439951 298.585142 
L 178.136516 298.012829 
L 179.83308 298.130307 
L 181.529644 298.897446 
L 183.226209 298.491583 
L 184.922773 298.488567 
L 186.619337 298.690708 
L 188.315901 298.061038 
L 191.70903 298.13175 
L 195.102159 298.086043 
L 198.495287 297.805195 
L 200.191852 299.123945 
L 201.888416 298.273857 
L 206.978109 297.927315 
L 208.674673 298.29907 
L 210.371237 298.105973 
L 212.067802 298.08609 
L 213.764366 297.842764 
L 215.46093 298.170065 
L 217.157495 298.066776 
L 218.854059 297.775592 
L 222.247188 298.009202 
L 223.943752 297.341472 
L 227.336881 298.070157 
L 229.033445 297.909617 
L 230.730009 298.450453 
L 232.426573 298.656799 
L 234.123138 298.400749 
L 235.819702 298.309955 
L 237.516266 298.744293 
L 240.909395 298.398303 
L 242.605959 297.694507 
L 244.302524 298.450864 
L 245.999088 298.190302 
L 247.695652 298.368766 
L 249.392216 299.227121 
L 251.088781 298.739421 
L 252.785345 298.798863 
L 254.481909 298.67199 
L 256.178474 299.566455 
L 257.875038 299.628606 
L 259.571602 299.275706 
L 261.268167 299.810218 
L 262.964731 299.615211 
L 264.661295 299.627527 
L 266.35786 298.969415 
L 268.054424 299.01238 
L 269.750988 299.311915 
L 271.447552 299.755999 
L 273.144117 299.416005 
L 274.840681 299.857734 
L 276.537245 299.243443 
L 278.23381 299.684894 
L 279.930374 299.672967 
L 281.626938 299.927165 
L 283.323503 299.64649 
L 286.716631 299.254111 
L 288.413196 299.696656 
L 290.10976 299.616956 
L 291.806324 298.987903 
L 293.502888 299.951651 
L 295.199453 299.306686 
L 296.896017 299.411186 
L 298.592581 299.377218 
L 300.289146 299.944305 
L 301.98571 300.026472 
L 303.682274 299.136099 
L 305.378839 299.973398 
L 307.075403 299.403959 
L 308.771967 300.124724 
L 310.468531 300.130545 
L 312.165096 299.438973 
L 315.558224 300.900868 
L 317.254789 300.575455 
L 318.951353 300.538529 
L 320.647917 299.805204 
L 322.344482 300.031133 
L 324.041046 300.060995 
L 325.73761 300.329709 
L 327.434175 300.725985 
L 329.130739 300.481201 
L 330.827303 301.043192 
L 334.220432 299.760973 
L 335.916996 300.161418 
L 339.310125 300.170528 
L 341.006689 301.005266 
L 342.703253 300.747677 
L 344.399818 300.130622 
L 346.096382 301.165512 
L 347.792946 301.022279 
L 349.48951 301.095629 
L 351.186075 301.280281 
L 352.882639 300.670045 
L 354.579203 301.065955 
L 356.275768 301.319894 
L 357.972332 301.168124 
L 361.365461 301.376511 
L 363.062025 301.688037 
L 364.758589 301.376019 
L 366.455154 300.852075 
L 368.151718 301.561797 
L 369.848282 301.849073 
L 371.544846 301.762347 
L 373.241411 301.041752 
L 374.937975 301.708494 
L 376.634539 300.587393 
L 378.331104 301.632777 
L 380.027668 301.194468 
L 381.724232 301.606042 
L 383.420797 301.361338 
L 385.117361 301.662202 
L 386.813925 301.495655 
L 388.51049 301.611876 
L 390.207054 300.968185 
L 391.903618 301.517153 
L 393.600182 300.871024 
L 398.689875 300.819483 
L 400.38644 300.413826 
L 402.083004 301.152544 
L 403.779568 301.552922 
L 405.476133 301.613467 
L 408.869261 301.455086 
L 410.565825 300.763394 
L 412.26239 301.496414 
L 413.958954 301.988387 
L 417.352083 301.531828 
L 419.048647 302.212853 
L 420.745211 301.763023 
L 422.441776 301.96397 
L 425.834904 302.034644 
L 427.531469 301.704545 
L 429.228033 301.735534 
L 430.924597 301.309058 
L 432.621161 301.161152 
L 434.317726 301.275968 
L 436.01429 301.594124 
L 437.710854 301.757627 
L 441.103983 301.424248 
L 442.800547 301.917453 
L 444.497112 301.706693 
L 446.193676 301.1921 
L 447.89024 301.046058 
L 449.586804 301.875065 
L 451.283369 301.584017 
L 452.979933 301.803644 
L 454.676497 301.355943 
L 456.373062 301.338135 
L 458.069626 302.959699 
L 459.76619 302.380141 
L 461.462755 302.327728 
L 463.159319 301.914468 
L 464.855883 302.876224 
L 466.552448 302.907543 
L 469.945576 302.711571 
L 471.64214 302.967912 
L 473.338705 303.482785 
L 475.035269 303.319219 
L 476.731833 302.741211 
L 478.428398 303.140175 
L 480.124962 302.750161 
L 481.821526 303.101058 
L 483.518091 302.933426 
L 485.214655 303.00359 
L 486.911219 302.835403 
L 488.607784 302.279911 
L 490.304348 303.172136 
L 492.000912 303.620333 
L 493.697476 303.150384 
L 495.394041 303.43343 
L 497.090605 302.583896 
L 498.787169 302.841153 
L 500.483734 302.882135 
L 502.180298 302.053796 
L 503.876862 302.074153 
L 505.573427 302.854989 
L 507.269991 302.497639 
L 510.663119 302.383873 
L 512.359684 302.749097 
L 514.056248 301.8607 
L 515.752812 302.212132 
L 517.449377 301.063026 
L 519.145941 301.781711 
L 520.842505 301.334813 
L 522.53907 301.155365 
L 524.235634 302.645242 
L 525.932198 302.667482 
L 527.628763 301.430149 
L 529.325327 301.993267 
L 531.021891 302.16289 
L 536.111584 301.730272 
L 537.808148 301.846037 
L 539.504713 302.240768 
L 541.201277 302.254697 
L 544.594406 302.015013 
L 546.29097 301.76241 
L 547.987534 302.753345 
L 549.684099 301.957757 
L 551.380663 302.375147 
L 553.077227 302.381642 
L 554.773791 302.925435 
L 556.470356 303.175542 
L 558.16692 302.544721 
L 559.863484 302.327231 
L 561.560049 302.26119 
L 563.256613 302.635082 
L 564.953177 302.447406 
L 566.649742 303.418584 
L 568.346306 303.61154 
L 570.04287 303.576717 
L 571.739434 302.971392 
L 573.435999 303.098181 
L 575.132563 304.278322 
L 576.829127 303.317833 
L 578.525692 303.795617 
L 580.222256 303.116104 
L 581.91882 302.892812 
L 583.615385 303.922325 
L 585.311949 303.390161 
L 587.008513 303.254352 
L 588.705078 303.624303 
L 590.401642 303.1849 
L 592.098206 303.845633 
L 593.79477 303.729639 
L 595.491335 303.391684 
L 597.187899 302.922344 
L 598.884463 303.371849 
L 600.581028 304.041895 
L 602.277592 302.861025 
L 603.974156 303.625755 
L 605.670721 303.154834 
L 609.063849 302.974823 
L 610.760413 302.626852 
L 612.456978 303.290166 
L 614.153542 302.69881 
L 615.850106 303.607465 
L 617.546671 302.876054 
L 619.243235 303.054693 
L 620.939799 302.981817 
L 622.636364 303.104663 
L 622.636364 303.104663 
" clip-path="url(#p78716be7e6)" style="fill: none; stroke: #ff7f0e; stroke-width: 1.5; stroke-linecap: square"/>
   </g>
   <g id="line2d_16">
    <path d="M 115.363636 219.961108 
L 117.060201 255.066097 
L 118.756765 268.661537 
L 120.453329 275.871391 
L 122.149894 279.783907 
L 123.846458 282.789661 
L 125.543022 284.419919 
L 127.239587 286.359898 
L 128.936151 287.419964 
L 130.632715 288.30296 
L 132.329279 288.892517 
L 135.722408 290.384407 
L 137.418972 291.01084 
L 140.812101 291.555422 
L 142.508665 292.264681 
L 144.20523 292.284316 
L 147.598358 293.02286 
L 149.294922 292.964356 
L 150.991487 293.363522 
L 152.688051 293.384202 
L 154.384615 293.786121 
L 156.08118 293.687575 
L 157.777744 294.138319 
L 159.474308 293.886338 
L 164.564001 294.580478 
L 166.260566 294.440518 
L 169.653694 294.655201 
L 171.350258 294.909586 
L 173.046823 294.813994 
L 174.743387 294.988724 
L 176.439951 294.977582 
L 178.136516 295.121783 
L 181.529644 295.096756 
L 183.226209 295.365907 
L 184.922773 295.242268 
L 190.012466 295.366769 
L 203.58498 295.737358 
L 212.067802 295.837955 
L 217.157495 295.904919 
L 220.550623 295.808863 
L 222.247188 295.992601 
L 227.336881 296.088542 
L 230.730009 296.138588 
L 232.426573 296.131891 
L 234.123138 296.261132 
L 235.819702 296.124885 
L 239.212831 296.301818 
L 242.605959 296.208717 
L 245.999088 296.343064 
L 247.695652 296.399223 
L 249.392216 296.299044 
L 252.785345 296.424519 
L 256.178474 296.320181 
L 257.875038 296.471421 
L 259.571602 296.432496 
L 261.268167 296.536591 
L 274.840681 296.573029 
L 276.537245 296.599354 
L 278.23381 296.491495 
L 279.930374 296.66372 
L 281.626938 296.592928 
L 286.716631 296.665782 
L 288.413196 296.600948 
L 290.10976 296.684234 
L 291.806324 296.558625 
L 293.502888 296.707813 
L 300.289146 296.735183 
L 305.378839 296.839519 
L 312.165096 296.713231 
L 315.558224 296.860803 
L 320.647917 296.90234 
L 332.523867 296.944726 
L 335.916996 297.057571 
L 337.61356 297.007229 
L 339.310125 297.110975 
L 341.006689 297.00998 
L 344.399818 297.108061 
L 347.792946 297.118838 
L 349.48951 297.159465 
L 351.186075 297.010318 
L 352.882639 297.141519 
L 359.668896 297.113326 
L 363.062025 297.183274 
L 366.455154 297.165212 
L 380.027668 297.169303 
L 383.420797 297.277162 
L 385.117361 297.189033 
L 390.207054 297.25985 
L 405.476133 297.224064 
L 410.565825 297.340968 
L 415.655518 297.262554 
L 419.048647 297.348296 
L 436.01429 297.363453 
L 439.407419 297.402465 
L 444.497112 297.34846 
L 446.193676 297.432255 
L 458.069626 297.285606 
L 459.76619 297.425548 
L 461.462755 297.314145 
L 464.855883 297.42769 
L 469.945576 297.447131 
L 486.911219 297.446578 
L 490.304348 297.455893 
L 492.000912 297.414335 
L 493.697476 297.485799 
L 497.090605 297.404784 
L 500.483734 297.494452 
L 502.180298 297.444121 
L 503.876862 297.536202 
L 507.269991 297.518997 
L 622.636364 297.560382 
L 622.636364 297.560382 
" clip-path="url(#p78716be7e6)" style="fill: none; stroke: #2ca02c; stroke-width: 1.5; stroke-linecap: square"/>
   </g>
   <g id="line2d_17">
    <path d="M 115.363636 233.644654 
L 117.060201 256.934741 
L 118.756765 269.103218 
L 120.453329 276.701213 
L 122.149894 281.103107 
L 123.846458 283.599528 
L 125.543022 285.74715 
L 127.239587 288.419504 
L 128.936151 289.143929 
L 130.632715 290.639216 
L 132.329279 290.316599 
L 134.025844 292.899289 
L 135.722408 293.77276 
L 137.418972 294.207792 
L 139.115537 295.536896 
L 140.812101 294.857516 
L 142.508665 296.273546 
L 144.20523 296.308698 
L 145.901794 296.927251 
L 150.991487 297.995288 
L 152.688051 297.794215 
L 154.384615 297.876815 
L 156.08118 298.735014 
L 157.777744 298.083198 
L 159.474308 298.761985 
L 161.170873 298.032495 
L 162.867437 299.117676 
L 164.564001 299.201814 
L 166.260566 298.778094 
L 167.95713 299.396872 
L 169.653694 299.641843 
L 171.350258 298.492309 
L 173.046823 298.667215 
L 176.439951 299.971471 
L 178.136516 299.610594 
L 179.83308 299.442576 
L 181.529644 300.349257 
L 183.226209 298.758105 
L 184.922773 299.831039 
L 186.619337 298.92464 
L 188.315901 298.642152 
L 190.012466 298.9322 
L 191.70903 299.810586 
L 193.405594 299.982939 
L 195.102159 299.175669 
L 196.798723 297.648223 
L 198.495287 299.096624 
L 200.191852 298.822962 
L 201.888416 298.736867 
L 203.58498 297.412102 
L 205.281545 298.201389 
L 206.978109 297.946869 
L 208.674673 296.968284 
L 210.371237 296.896819 
L 212.067802 300.340354 
L 213.764366 298.938225 
L 215.46093 298.861043 
L 217.157495 297.980659 
L 218.854059 296.861555 
L 220.550623 296.609437 
L 222.247188 297.716665 
L 225.640316 299.009233 
L 227.336881 296.318281 
L 230.730009 301.460275 
L 232.426573 299.251805 
L 234.123138 297.422346 
L 235.819702 297.161149 
L 237.516266 299.559322 
L 239.212831 298.45436 
L 240.909395 298.539695 
L 242.605959 297.821578 
L 244.302524 298.593083 
L 247.695652 299.20839 
L 249.392216 300.196824 
L 251.088781 298.830768 
L 252.785345 298.963073 
L 254.481909 300.654413 
L 256.178474 300.753045 
L 257.875038 298.357836 
L 259.571602 300.09232 
L 261.268167 301.183854 
L 262.964731 299.61231 
L 264.661295 299.808518 
L 266.35786 299.044388 
L 268.054424 299.180406 
L 269.750988 300.547526 
L 271.447552 300.415222 
L 273.144117 299.328843 
L 274.840681 301.874255 
L 276.537245 300.187234 
L 278.23381 300.319688 
L 279.930374 300.857001 
L 281.626938 302.022379 
L 283.323503 300.272695 
L 285.020067 301.245193 
L 286.716631 300.508696 
L 288.413196 301.943471 
L 290.10976 301.170237 
L 291.806324 301.490117 
L 293.502888 301.666926 
L 295.199453 300.135504 
L 296.896017 302.316428 
L 298.592581 299.95499 
L 300.289146 302.061803 
L 301.98571 302.31339 
L 303.682274 301.729647 
L 305.378839 302.708217 
L 307.075403 301.436471 
L 308.771967 302.698127 
L 312.165096 300.871718 
L 313.86166 302.838791 
L 315.558224 301.147181 
L 317.254789 302.41313 
L 318.951353 302.400084 
L 320.647917 301.232655 
L 322.344482 301.726433 
L 324.041046 304.341618 
L 325.73761 302.562771 
L 327.434175 303.832164 
L 329.130739 302.815672 
L 330.827303 303.338641 
L 332.523867 301.742652 
L 334.220432 301.461094 
L 335.916996 301.721898 
L 337.61356 300.612534 
L 339.310125 301.530064 
L 341.006689 302.658381 
L 342.703253 302.749817 
L 344.399818 302.646878 
L 346.096382 301.997941 
L 347.792946 303.493171 
L 349.48951 302.572103 
L 351.186075 303.367132 
L 352.882639 303.221091 
L 354.579203 302.019364 
L 356.275768 303.679496 
L 357.972332 302.844429 
L 359.668896 303.606326 
L 361.365461 303.70679 
L 363.062025 303.685346 
L 364.758589 302.477878 
L 366.455154 304.249924 
L 368.151718 304.05368 
L 369.848282 303.343063 
L 371.544846 301.268068 
L 373.241411 304.15264 
L 374.937975 303.231621 
L 376.634539 304.001582 
L 378.331104 303.406778 
L 380.027668 305.220445 
L 381.724232 304.096762 
L 383.420797 303.472201 
L 385.117361 304.32723 
L 386.813925 302.927089 
L 388.51049 303.722217 
L 390.207054 303.452521 
L 391.903618 302.99111 
L 393.600182 303.934169 
L 395.296747 301.758436 
L 396.993311 302.932702 
L 398.689875 303.134328 
L 400.38644 306.02014 
L 402.083004 304.038746 
L 403.779568 303.866541 
L 405.476133 301.84222 
L 407.172697 303.893949 
L 408.869261 303.366944 
L 410.565825 301.566552 
L 412.26239 303.633192 
L 413.958954 302.508816 
L 415.655518 303.846409 
L 417.352083 303.487644 
L 419.048647 304.585586 
L 420.745211 303.355299 
L 422.441776 303.064512 
L 424.13834 304.311461 
L 425.834904 303.314185 
L 427.531469 303.227318 
L 429.228033 304.001055 
L 430.924597 303.215322 
L 432.621161 303.468161 
L 434.317726 303.111815 
L 436.01429 304.770293 
L 437.710854 302.686458 
L 439.407419 302.614268 
L 441.103983 303.55148 
L 442.800547 305.091083 
L 444.497112 303.663913 
L 446.193676 305.167296 
L 447.89024 304.57685 
L 449.586804 304.713947 
L 451.283369 305.407498 
L 452.979933 304.457966 
L 454.676497 302.34456 
L 456.373062 302.557331 
L 458.069626 306.395571 
L 459.76619 302.268881 
L 461.462755 303.685873 
L 463.159319 303.848604 
L 464.855883 304.418758 
L 466.552448 303.471967 
L 468.249012 304.125824 
L 469.945576 305.188591 
L 471.64214 306.821903 
L 473.338705 305.945845 
L 475.035269 305.345913 
L 476.731833 304.138473 
L 478.428398 304.437446 
L 480.124962 304.930084 
L 481.821526 305.88337 
L 483.518091 305.517107 
L 485.214655 304.790512 
L 486.911219 305.383869 
L 488.607784 302.406406 
L 490.304348 304.535421 
L 492.000912 305.919113 
L 493.697476 303.606482 
L 495.394041 302.985913 
L 497.090605 301.279539 
L 498.787169 303.422065 
L 500.483734 304.199798 
L 502.180298 302.762465 
L 503.876862 305.676756 
L 505.573427 303.705846 
L 507.269991 303.682043 
L 508.966555 302.931372 
L 510.663119 302.314211 
L 512.359684 303.86495 
L 514.056248 300.767872 
L 515.752812 303.020669 
L 517.449377 301.263723 
L 519.145941 301.189114 
L 520.842505 300.883155 
L 524.235634 304.039072 
L 527.628763 302.378865 
L 529.325327 302.621602 
L 531.021891 303.741044 
L 532.718455 304.290692 
L 534.41502 303.302827 
L 536.111584 303.788276 
L 537.808148 302.463034 
L 539.504713 303.527806 
L 541.201277 304.211709 
L 542.897841 303.915301 
L 544.594406 302.81582 
L 546.29097 302.930035 
L 547.987534 303.69713 
L 549.684099 302.652696 
L 551.380663 304.603402 
L 553.077227 303.723591 
L 554.773791 304.834543 
L 556.470356 303.668011 
L 558.16692 303.425237 
L 559.863484 303.665438 
L 561.560049 303.1731 
L 563.256613 303.933368 
L 564.953177 307.8 
L 566.649742 304.170506 
L 568.346306 305.562242 
L 570.04287 302.658441 
L 571.739434 304.200432 
L 573.435999 304.047338 
L 575.132563 304.705179 
L 576.829127 304.19444 
L 578.525692 304.649362 
L 580.222256 302.89611 
L 581.91882 304.34895 
L 583.615385 304.582671 
L 585.311949 305.317558 
L 587.008513 304.791109 
L 588.705078 303.821319 
L 590.401642 304.711735 
L 592.098206 305.334709 
L 593.79477 304.984315 
L 595.491335 303.318007 
L 597.187899 303.423606 
L 598.884463 303.948737 
L 600.581028 305.051399 
L 602.277592 305.136826 
L 603.974156 304.453887 
L 605.670721 304.703059 
L 607.367285 304.256657 
L 609.063849 305.217899 
L 610.760413 304.06921 
L 612.456978 304.157108 
L 614.153542 303.396501 
L 615.850106 305.669383 
L 617.546671 304.299139 
L 619.243235 304.112195 
L 620.939799 302.927815 
L 622.636364 303.979181 
L 622.636364 303.979181 
" clip-path="url(#p78716be7e6)" style="fill: none; stroke: #d62728; stroke-width: 1.5; stroke-linecap: square"/>
   </g>
   <g id="patch_3">
    <path d="M 90 320.4 
L 90 43.2 
" style="fill: none; stroke: #000000; stroke-width: 0.8; stroke-linejoin: miter; stroke-linecap: square"/>
   </g>
   <g id="patch_4">
    <path d="M 648 320.4 
L 648 43.2 
" style="fill: none; stroke: #000000; stroke-width: 0.8; stroke-linejoin: miter; stroke-linecap: square"/>
   </g>
   <g id="patch_5">
    <path d="M 90 320.4 
L 648 320.4 
" style="fill: none; stroke: #000000; stroke-width: 0.8; stroke-linejoin: miter; stroke-linecap: square"/>
   </g>
   <g id="patch_6">
    <path d="M 90 43.2 
L 648 43.2 
" style="fill: none; stroke: #000000; stroke-width: 0.8; stroke-linejoin: miter; stroke-linecap: square"/>
   </g>
   <g id="text_16">
    <!-- Training and Validating Estimation Loss -->
    <g transform="translate(251.535937 37.2) scale(0.12 -0.12)">
     <defs>
      <path id="DejaVuSans-54" d="M -19 4666 
L 3928 4666 
L 3928 4134 
L 2272 4134 
L 2272 0 
L 1638 0 
L 1638 4134 
L -19 4134 
L -19 4666 
z
" transform="scale(0.015625)"/>
      <path id="DejaVuSans-72" d="M 2631 2963 
Q 2534 3019 2420 3045 
Q 2306 3072 2169 3072 
Q 1681 3072 1420 2755 
Q 1159 2438 1159 1844 
L 1159 0 
L 581 0 
L 581 3500 
L 1159 3500 
L 1159 2956 
Q 1341 3275 1631 3429 
Q 1922 3584 2338 3584 
Q 2397 3584 2469 3576 
Q 2541 3569 2628 3553 
L 2631 2963 
z
" transform="scale(0.015625)"/>
      <path id="DejaVuSans-67" d="M 2906 1791 
Q 2906 2416 2648 2759 
Q 2391 3103 1925 3103 
Q 1463 3103 1205 2759 
Q 947 2416 947 1791 
Q 947 1169 1205 825 
Q 1463 481 1925 481 
Q 2391 481 2648 825 
Q 2906 1169 2906 1791 
z
M 3481 434 
Q 3481 -459 3084 -895 
Q 2688 -1331 1869 -1331 
Q 1566 -1331 1297 -1286 
Q 1028 -1241 775 -1147 
L 775 -588 
Q 1028 -725 1275 -790 
Q 1522 -856 1778 -856 
Q 2344 -856 2625 -561 
Q 2906 -266 2906 331 
L 2906 616 
Q 2728 306 2450 153 
Q 2172 0 1784 0 
Q 1141 0 747 490 
Q 353 981 353 1791 
Q 353 2603 747 3093 
Q 1141 3584 1784 3584 
Q 2172 3584 2450 3431 
Q 2728 3278 2906 2969 
L 2906 3500 
L 3481 3500 
L 3481 434 
z
" transform="scale(0.015625)"/>
      <path id="DejaVuSans-64" d="M 2906 2969 
L 2906 4863 
L 3481 4863 
L 3481 0 
L 2906 0 
L 2906 525 
Q 2725 213 2448 61 
Q 2172 -91 1784 -91 
Q 1150 -91 751 415 
Q 353 922 353 1747 
Q 353 2572 751 3078 
Q 1150 3584 1784 3584 
Q 2172 3584 2448 3432 
Q 2725 3281 2906 2969 
z
M 947 1747 
Q 947 1113 1208 752 
Q 1469 391 1925 391 
Q 2381 391 2643 752 
Q 2906 1113 2906 1747 
Q 2906 2381 2643 2742 
Q 2381 3103 1925 3103 
Q 1469 3103 1208 2742 
Q 947 2381 947 1747 
z
" transform="scale(0.015625)"/>
      <path id="DejaVuSans-56" d="M 1831 0 
L 50 4666 
L 709 4666 
L 2188 738 
L 3669 4666 
L 4325 4666 
L 2547 0 
L 1831 0 
z
" transform="scale(0.015625)"/>
      <path id="DejaVuSans-6c" d="M 603 4863 
L 1178 4863 
L 1178 0 
L 603 0 
L 603 4863 
z
" transform="scale(0.015625)"/>
     </defs>
     <use xlink:href="#DejaVuSans-54"/>
     <use xlink:href="#DejaVuSans-72" transform="translate(46.333984 0)"/>
     <use xlink:href="#DejaVuSans-61" transform="translate(87.447266 0)"/>
     <use xlink:href="#DejaVuSans-69" transform="translate(148.726562 0)"/>
     <use xlink:href="#DejaVuSans-6e" transform="translate(176.509766 0)"/>
     <use xlink:href="#DejaVuSans-69" transform="translate(239.888672 0)"/>
     <use xlink:href="#DejaVuSans-6e" transform="translate(267.671875 0)"/>
     <use xlink:href="#DejaVuSans-67" transform="translate(331.050781 0)"/>
     <use xlink:href="#DejaVuSans-20" transform="translate(394.527344 0)"/>
     <use xlink:href="#DejaVuSans-61" transform="translate(426.314453 0)"/>
     <use xlink:href="#DejaVuSans-6e" transform="translate(487.59375 0)"/>
     <use xlink:href="#DejaVuSans-64" transform="translate(550.972656 0)"/>
     <use xlink:href="#DejaVuSans-20" transform="translate(614.449219 0)"/>
     <use xlink:href="#DejaVuSans-56" transform="translate(646.236328 0)"/>
     <use xlink:href="#DejaVuSans-61" transform="translate(706.894531 0)"/>
     <use xlink:href="#DejaVuSans-6c" transform="translate(768.173828 0)"/>
     <use xlink:href="#DejaVuSans-69" transform="translate(795.957031 0)"/>
     <use xlink:href="#DejaVuSans-64" transform="translate(823.740234 0)"/>
     <use xlink:href="#DejaVuSans-61" transform="translate(887.216797 0)"/>
     <use xlink:href="#DejaVuSans-74" transform="translate(948.496094 0)"/>
     <use xlink:href="#DejaVuSans-69" transform="translate(987.705078 0)"/>
     <use xlink:href="#DejaVuSans-6e" transform="translate(1015.488281 0)"/>
     <use xlink:href="#DejaVuSans-67" transform="translate(1078.867188 0)"/>
     <use xlink:href="#DejaVuSans-20" transform="translate(1142.34375 0)"/>
     <use xlink:href="#DejaVuSans-45" transform="translate(1174.130859 0)"/>
     <use xlink:href="#DejaVuSans-73" transform="translate(1237.314453 0)"/>
     <use xlink:href="#DejaVuSans-74" transform="translate(1289.414062 0)"/>
     <use xlink:href="#DejaVuSans-69" transform="translate(1328.623047 0)"/>
     <use xlink:href="#DejaVuSans-6d" transform="translate(1356.40625 0)"/>
     <use xlink:href="#DejaVuSans-61" transform="translate(1453.818359 0)"/>
     <use xlink:href="#DejaVuSans-74" transform="translate(1515.097656 0)"/>
     <use xlink:href="#DejaVuSans-69" transform="translate(1554.306641 0)"/>
     <use xlink:href="#DejaVuSans-6f" transform="translate(1582.089844 0)"/>
     <use xlink:href="#DejaVuSans-6e" transform="translate(1643.271484 0)"/>
     <use xlink:href="#DejaVuSans-20" transform="translate(1706.650391 0)"/>
     <use xlink:href="#DejaVuSans-4c" transform="translate(1738.4375 0)"/>
     <use xlink:href="#DejaVuSans-6f" transform="translate(1792.400391 0)"/>
     <use xlink:href="#DejaVuSans-73" transform="translate(1853.582031 0)"/>
     <use xlink:href="#DejaVuSans-73" transform="translate(1905.681641 0)"/>
    </g>
   </g>
   <g id="legend_1">
    <g id="patch_7">
     <path d="M 521.439062 109.9125 
L 641 109.9125 
Q 643 109.9125 643 107.9125 
L 643 50.2 
Q 643 48.2 641 48.2 
L 521.439062 48.2 
Q 519.439062 48.2 519.439062 50.2 
L 519.439062 107.9125 
Q 519.439062 109.9125 521.439062 109.9125 
z
" style="fill: #ffffff; opacity: 0.8; stroke: #cccccc; stroke-linejoin: miter"/>
    </g>
    <g id="line2d_18">
     <path d="M 523.439062 56.298437 
L 533.439062 56.298437 
L 543.439062 56.298437 
" style="fill: none; stroke: #1f77b4; stroke-width: 1.5; stroke-linecap: square"/>
    </g>
    <g id="text_17">
     <!-- Training-Source -->
     <g transform="translate(551.439062 59.798437) scale(0.1 -0.1)">
      <defs>
       <path id="DejaVuSans-2d" d="M 313 2009 
L 1997 2009 
L 1997 1497 
L 313 1497 
L 313 2009 
z
" transform="scale(0.015625)"/>
       <path id="DejaVuSans-53" d="M 3425 4513 
L 3425 3897 
Q 3066 4069 2747 4153 
Q 2428 4238 2131 4238 
Q 1616 4238 1336 4038 
Q 1056 3838 1056 3469 
Q 1056 3159 1242 3001 
Q 1428 2844 1947 2747 
L 2328 2669 
Q 3034 2534 3370 2195 
Q 3706 1856 3706 1288 
Q 3706 609 3251 259 
Q 2797 -91 1919 -91 
Q 1588 -91 1214 -16 
Q 841 59 441 206 
L 441 856 
Q 825 641 1194 531 
Q 1563 422 1919 422 
Q 2459 422 2753 634 
Q 3047 847 3047 1241 
Q 3047 1584 2836 1778 
Q 2625 1972 2144 2069 
L 1759 2144 
Q 1053 2284 737 2584 
Q 422 2884 422 3419 
Q 422 4038 858 4394 
Q 1294 4750 2059 4750 
Q 2388 4750 2728 4690 
Q 3069 4631 3425 4513 
z
" transform="scale(0.015625)"/>
       <path id="DejaVuSans-75" d="M 544 1381 
L 544 3500 
L 1119 3500 
L 1119 1403 
Q 1119 906 1312 657 
Q 1506 409 1894 409 
Q 2359 409 2629 706 
Q 2900 1003 2900 1516 
L 2900 3500 
L 3475 3500 
L 3475 0 
L 2900 0 
L 2900 538 
Q 2691 219 2414 64 
Q 2138 -91 1772 -91 
Q 1169 -91 856 284 
Q 544 659 544 1381 
z
M 1991 3584 
L 1991 3584 
z
" transform="scale(0.015625)"/>
       <path id="DejaVuSans-65" d="M 3597 1894 
L 3597 1613 
L 953 1613 
Q 991 1019 1311 708 
Q 1631 397 2203 397 
Q 2534 397 2845 478 
Q 3156 559 3463 722 
L 3463 178 
Q 3153 47 2828 -22 
Q 2503 -91 2169 -91 
Q 1331 -91 842 396 
Q 353 884 353 1716 
Q 353 2575 817 3079 
Q 1281 3584 2069 3584 
Q 2775 3584 3186 3129 
Q 3597 2675 3597 1894 
z
M 3022 2063 
Q 3016 2534 2758 2815 
Q 2500 3097 2075 3097 
Q 1594 3097 1305 2825 
Q 1016 2553 972 2059 
L 3022 2063 
z
" transform="scale(0.015625)"/>
      </defs>
      <use xlink:href="#DejaVuSans-54"/>
      <use xlink:href="#DejaVuSans-72" transform="translate(46.333984 0)"/>
      <use xlink:href="#DejaVuSans-61" transform="translate(87.447266 0)"/>
      <use xlink:href="#DejaVuSans-69" transform="translate(148.726562 0)"/>
      <use xlink:href="#DejaVuSans-6e" transform="translate(176.509766 0)"/>
      <use xlink:href="#DejaVuSans-69" transform="translate(239.888672 0)"/>
      <use xlink:href="#DejaVuSans-6e" transform="translate(267.671875 0)"/>
      <use xlink:href="#DejaVuSans-67" transform="translate(331.050781 0)"/>
      <use xlink:href="#DejaVuSans-2d" transform="translate(394.527344 0)"/>
      <use xlink:href="#DejaVuSans-53" transform="translate(430.611328 0)"/>
      <use xlink:href="#DejaVuSans-6f" transform="translate(494.087891 0)"/>
      <use xlink:href="#DejaVuSans-75" transform="translate(555.269531 0)"/>
      <use xlink:href="#DejaVuSans-72" transform="translate(618.648438 0)"/>
      <use xlink:href="#DejaVuSans-63" transform="translate(657.511719 0)"/>
      <use xlink:href="#DejaVuSans-65" transform="translate(712.492188 0)"/>
     </g>
    </g>
    <g id="line2d_19">
     <path d="M 523.439062 70.976562 
L 533.439062 70.976562 
L 543.439062 70.976562 
" style="fill: none; stroke: #ff7f0e; stroke-width: 1.5; stroke-linecap: square"/>
    </g>
    <g id="text_18">
     <!-- Training-Target -->
     <g transform="translate(551.439062 74.476562) scale(0.1 -0.1)">
      <use xlink:href="#DejaVuSans-54"/>
      <use xlink:href="#DejaVuSans-72" transform="translate(46.333984 0)"/>
      <use xlink:href="#DejaVuSans-61" transform="translate(87.447266 0)"/>
      <use xlink:href="#DejaVuSans-69" transform="translate(148.726562 0)"/>
      <use xlink:href="#DejaVuSans-6e" transform="translate(176.509766 0)"/>
      <use xlink:href="#DejaVuSans-69" transform="translate(239.888672 0)"/>
      <use xlink:href="#DejaVuSans-6e" transform="translate(267.671875 0)"/>
      <use xlink:href="#DejaVuSans-67" transform="translate(331.050781 0)"/>
      <use xlink:href="#DejaVuSans-2d" transform="translate(394.527344 0)"/>
      <use xlink:href="#DejaVuSans-54" transform="translate(421.486328 0)"/>
      <use xlink:href="#DejaVuSans-61" transform="translate(466.070312 0)"/>
      <use xlink:href="#DejaVuSans-72" transform="translate(527.349609 0)"/>
      <use xlink:href="#DejaVuSans-67" transform="translate(566.712891 0)"/>
      <use xlink:href="#DejaVuSans-65" transform="translate(630.189453 0)"/>
      <use xlink:href="#DejaVuSans-74" transform="translate(691.712891 0)"/>
     </g>
    </g>
    <g id="line2d_20">
     <path d="M 523.439062 85.654687 
L 533.439062 85.654687 
L 543.439062 85.654687 
" style="fill: none; stroke: #2ca02c; stroke-width: 1.5; stroke-linecap: square"/>
    </g>
    <g id="text_19">
     <!-- Validating-Source -->
     <g transform="translate(551.439062 89.154687) scale(0.1 -0.1)">
      <use xlink:href="#DejaVuSans-56"/>
      <use xlink:href="#DejaVuSans-61" transform="translate(60.658203 0)"/>
      <use xlink:href="#DejaVuSans-6c" transform="translate(121.9375 0)"/>
      <use xlink:href="#DejaVuSans-69" transform="translate(149.720703 0)"/>
      <use xlink:href="#DejaVuSans-64" transform="translate(177.503906 0)"/>
      <use xlink:href="#DejaVuSans-61" transform="translate(240.980469 0)"/>
      <use xlink:href="#DejaVuSans-74" transform="translate(302.259766 0)"/>
      <use xlink:href="#DejaVuSans-69" transform="translate(341.46875 0)"/>
      <use xlink:href="#DejaVuSans-6e" transform="translate(369.251953 0)"/>
      <use xlink:href="#DejaVuSans-67" transform="translate(432.630859 0)"/>
      <use xlink:href="#DejaVuSans-2d" transform="translate(496.107422 0)"/>
      <use xlink:href="#DejaVuSans-53" transform="translate(532.191406 0)"/>
      <use xlink:href="#DejaVuSans-6f" transform="translate(595.667969 0)"/>
      <use xlink:href="#DejaVuSans-75" transform="translate(656.849609 0)"/>
      <use xlink:href="#DejaVuSans-72" transform="translate(720.228516 0)"/>
      <use xlink:href="#DejaVuSans-63" transform="translate(759.091797 0)"/>
      <use xlink:href="#DejaVuSans-65" transform="translate(814.072266 0)"/>
     </g>
    </g>
    <g id="line2d_21">
     <path d="M 523.439062 100.332812 
L 533.439062 100.332812 
L 543.439062 100.332812 
" style="fill: none; stroke: #d62728; stroke-width: 1.5; stroke-linecap: square"/>
    </g>
    <g id="text_20">
     <!-- Validating-Target -->
     <g transform="translate(551.439062 103.832812) scale(0.1 -0.1)">
      <use xlink:href="#DejaVuSans-56"/>
      <use xlink:href="#DejaVuSans-61" transform="translate(60.658203 0)"/>
      <use xlink:href="#DejaVuSans-6c" transform="translate(121.9375 0)"/>
      <use xlink:href="#DejaVuSans-69" transform="translate(149.720703 0)"/>
      <use xlink:href="#DejaVuSans-64" transform="translate(177.503906 0)"/>
      <use xlink:href="#DejaVuSans-61" transform="translate(240.980469 0)"/>
      <use xlink:href="#DejaVuSans-74" transform="translate(302.259766 0)"/>
      <use xlink:href="#DejaVuSans-69" transform="translate(341.46875 0)"/>
      <use xlink:href="#DejaVuSans-6e" transform="translate(369.251953 0)"/>
      <use xlink:href="#DejaVuSans-67" transform="translate(432.630859 0)"/>
      <use xlink:href="#DejaVuSans-2d" transform="translate(496.107422 0)"/>
      <use xlink:href="#DejaVuSans-54" transform="translate(523.066406 0)"/>
      <use xlink:href="#DejaVuSans-61" transform="translate(567.650391 0)"/>
      <use xlink:href="#DejaVuSans-72" transform="translate(628.929688 0)"/>
      <use xlink:href="#DejaVuSans-67" transform="translate(668.292969 0)"/>
      <use xlink:href="#DejaVuSans-65" transform="translate(731.769531 0)"/>
      <use xlink:href="#DejaVuSans-74" transform="translate(793.292969 0)"/>
     </g>
    </g>
   </g>
  </g>
 </g>
 <defs>
  <clipPath id="p78716be7e6">
   <rect x="90" y="43.2" width="558" height="277.2"/>
  </clipPath>
 </defs>
</svg>
