<?xml version="1.0" encoding="utf-8" standalone="no"?>
<!DOCTYPE svg PUBLIC "-//W3C//DTD SVG 1.1//EN"
  "http://www.w3.org/Graphics/SVG/1.1/DTD/svg11.dtd">
<svg xmlns:xlink="http://www.w3.org/1999/xlink" width="720pt" height="360pt" viewBox="0 0 720 360" xmlns="http://www.w3.org/2000/svg" version="1.1">
 <metadata>
  <rdf:RDF xmlns:dc="http://purl.org/dc/elements/1.1/" xmlns:cc="http://creativecommons.org/ns#" xmlns:rdf="http://www.w3.org/1999/02/22-rdf-syntax-ns#">
   <cc:Work>
    <dc:type rdf:resource="http://purl.org/dc/dcmitype/StillImage"/>
    <dc:date>2025-10-18T05:48:22.518994</dc:date>
    <dc:format>image/svg+xml</dc:format>
    <dc:creator>
     <cc:Agent>
      <dc:title>Matplotlib v3.10.1, https://matplotlib.org/</dc:title>
     </cc:Agent>
    </dc:creator>
   </cc:Work>
  </rdf:RDF>
 </metadata>
 <defs>
  <style type="text/css">*{stroke-linejoin: round; stroke-linecap: butt}</style>
 </defs>
 <g id="figure_1">
  <g id="patch_1">
   <path d="M 0 360 
L 720 360 
L 720 0 
L 0 0 
z
" style="fill: #ffffff"/>
  </g>
  <g id="axes_1">
   <g id="patch_2">
    <path d="M 90 320.4 
L 648 320.4 
L 648 43.2 
L 90 43.2 
z
" style="fill: #ffffff"/>
   </g>
   <g id="matplotlib.axis_1">
    <g id="xtick_1">
     <g id="line2d_1">
      <defs>
       <path id="mcb69427be6" d="M 0 0 
L 0 3.5 
" style="stroke: #000000; stroke-width: 0.8"/>
      </defs>
      <g>
       <use xlink:href="#mcb69427be6" x="115.363636" y="320.4" style="stroke: #000000; stroke-width: 0.8"/>
      </g>
     </g>
     <g id="text_1">
      <!-- 0 -->
      <g transform="translate(112.182386 334.998438) scale(0.1 -0.1)">
       <defs>
        <path id="DejaVuSans-30" d="M 2034 4250 
Q 1547 4250 1301 3770 
Q 1056 3291 1056 2328 
Q 1056 1369 1301 889 
Q 1547 409 2034 409 
Q 2525 409 2770 889 
Q 3016 1369 3016 2328 
Q 3016 3291 2770 3770 
Q 2525 4250 2034 4250 
z
M 2034 4750 
Q 2819 4750 3233 4129 
Q 3647 3509 3647 2328 
Q 3647 1150 3233 529 
Q 2819 -91 2034 -91 
Q 1250 -91 836 529 
Q 422 1150 422 2328 
Q 422 3509 836 4129 
Q 1250 4750 2034 4750 
z
" transform="scale(0.015625)"/>
       </defs>
       <use xlink:href="#DejaVuSans-30"/>
      </g>
     </g>
    </g>
    <g id="xtick_2">
     <g id="line2d_2">
      <g>
       <use xlink:href="#mcb69427be6" x="217.157495" y="320.4" style="stroke: #000000; stroke-width: 0.8"/>
      </g>
     </g>
     <g id="text_2">
      <!-- 60 -->
      <g transform="translate(210.794995 334.998438) scale(0.1 -0.1)">
       <defs>
        <path id="DejaVuSans-36" d="M 2113 2584 
Q 1688 2584 1439 2293 
Q 1191 2003 1191 1497 
Q 1191 994 1439 701 
Q 1688 409 2113 409 
Q 2538 409 2786 701 
Q 3034 994 3034 1497 
Q 3034 2003 2786 2293 
Q 2538 2584 2113 2584 
z
M 3366 4563 
L 3366 3988 
Q 3128 4100 2886 4159 
Q 2644 4219 2406 4219 
Q 1781 4219 1451 3797 
Q 1122 3375 1075 2522 
Q 1259 2794 1537 2939 
Q 1816 3084 2150 3084 
Q 2853 3084 3261 2657 
Q 3669 2231 3669 1497 
Q 3669 778 3244 343 
Q 2819 -91 2113 -91 
Q 1303 -91 875 529 
Q 447 1150 447 2328 
Q 447 3434 972 4092 
Q 1497 4750 2381 4750 
Q 2619 4750 2861 4703 
Q 3103 4656 3366 4563 
z
" transform="scale(0.015625)"/>
       </defs>
       <use xlink:href="#DejaVuSans-36"/>
       <use xlink:href="#DejaVuSans-30" transform="translate(63.623047 0)"/>
      </g>
     </g>
    </g>
    <g id="xtick_3">
     <g id="line2d_3">
      <g>
       <use xlink:href="#mcb69427be6" x="318.951353" y="320.4" style="stroke: #000000; stroke-width: 0.8"/>
      </g>
     </g>
     <g id="text_3">
      <!-- 120 -->
      <g transform="translate(309.407603 334.998438) scale(0.1 -0.1)">
       <defs>
        <path id="DejaVuSans-31" d="M 794 531 
L 1825 531 
L 1825 4091 
L 703 3866 
L 703 4441 
L 1819 4666 
L 2450 4666 
L 2450 531 
L 3481 531 
L 3481 0 
L 794 0 
L 794 531 
z
" transform="scale(0.015625)"/>
        <path id="DejaVuSans-32" d="M 1228 531 
L 3431 531 
L 3431 0 
L 469 0 
L 469 531 
Q 828 903 1448 1529 
Q 2069 2156 2228 2338 
Q 2531 2678 2651 2914 
Q 2772 3150 2772 3378 
Q 2772 3750 2511 3984 
Q 2250 4219 1831 4219 
Q 1534 4219 1204 4116 
Q 875 4013 500 3803 
L 500 4441 
Q 881 4594 1212 4672 
Q 1544 4750 1819 4750 
Q 2544 4750 2975 4387 
Q 3406 4025 3406 3419 
Q 3406 3131 3298 2873 
Q 3191 2616 2906 2266 
Q 2828 2175 2409 1742 
Q 1991 1309 1228 531 
z
" transform="scale(0.015625)"/>
       </defs>
       <use xlink:href="#DejaVuSans-31"/>
       <use xlink:href="#DejaVuSans-32" transform="translate(63.623047 0)"/>
       <use xlink:href="#DejaVuSans-30" transform="translate(127.246094 0)"/>
      </g>
     </g>
    </g>
    <g id="xtick_4">
     <g id="line2d_4">
      <g>
       <use xlink:href="#mcb69427be6" x="420.745211" y="320.4" style="stroke: #000000; stroke-width: 0.8"/>
      </g>
     </g>
     <g id="text_4">
      <!-- 180 -->
      <g transform="translate(411.201461 334.998438) scale(0.1 -0.1)">
       <defs>
        <path id="DejaVuSans-38" d="M 2034 2216 
Q 1584 2216 1326 1975 
Q 1069 1734 1069 1313 
Q 1069 891 1326 650 
Q 1584 409 2034 409 
Q 2484 409 2743 651 
Q 3003 894 3003 1313 
Q 3003 1734 2745 1975 
Q 2488 2216 2034 2216 
z
M 1403 2484 
Q 997 2584 770 2862 
Q 544 3141 544 3541 
Q 544 4100 942 4425 
Q 1341 4750 2034 4750 
Q 2731 4750 3128 4425 
Q 3525 4100 3525 3541 
Q 3525 3141 3298 2862 
Q 3072 2584 2669 2484 
Q 3125 2378 3379 2068 
Q 3634 1759 3634 1313 
Q 3634 634 3220 271 
Q 2806 -91 2034 -91 
Q 1263 -91 848 271 
Q 434 634 434 1313 
Q 434 1759 690 2068 
Q 947 2378 1403 2484 
z
M 1172 3481 
Q 1172 3119 1398 2916 
Q 1625 2713 2034 2713 
Q 2441 2713 2670 2916 
Q 2900 3119 2900 3481 
Q 2900 3844 2670 4047 
Q 2441 4250 2034 4250 
Q 1625 4250 1398 4047 
Q 1172 3844 1172 3481 
z
" transform="scale(0.015625)"/>
       </defs>
       <use xlink:href="#DejaVuSans-31"/>
       <use xlink:href="#DejaVuSans-38" transform="translate(63.623047 0)"/>
       <use xlink:href="#DejaVuSans-30" transform="translate(127.246094 0)"/>
      </g>
     </g>
    </g>
    <g id="xtick_5">
     <g id="line2d_5">
      <g>
       <use xlink:href="#mcb69427be6" x="522.53907" y="320.4" style="stroke: #000000; stroke-width: 0.8"/>
      </g>
     </g>
     <g id="text_5">
      <!-- 240 -->
      <g transform="translate(512.99532 334.998438) scale(0.1 -0.1)">
       <defs>
        <path id="DejaVuSans-34" d="M 2419 4116 
L 825 1625 
L 2419 1625 
L 2419 4116 
z
M 2253 4666 
L 3047 4666 
L 3047 1625 
L 3713 1625 
L 3713 1100 
L 3047 1100 
L 3047 0 
L 2419 0 
L 2419 1100 
L 313 1100 
L 313 1709 
L 2253 4666 
z
" transform="scale(0.015625)"/>
       </defs>
       <use xlink:href="#DejaVuSans-32"/>
       <use xlink:href="#DejaVuSans-34" transform="translate(63.623047 0)"/>
       <use xlink:href="#DejaVuSans-30" transform="translate(127.246094 0)"/>
      </g>
     </g>
    </g>
    <g id="text_6">
     <!-- Epoch -->
     <g transform="translate(353.689062 348.676562) scale(0.1 -0.1)">
      <defs>
       <path id="DejaVuSans-45" d="M 628 4666 
L 3578 4666 
L 3578 4134 
L 1259 4134 
L 1259 2753 
L 3481 2753 
L 3481 2222 
L 1259 2222 
L 1259 531 
L 3634 531 
L 3634 0 
L 628 0 
L 628 4666 
z
" transform="scale(0.015625)"/>
       <path id="DejaVuSans-70" d="M 1159 525 
L 1159 -1331 
L 581 -1331 
L 581 3500 
L 1159 3500 
L 1159 2969 
Q 1341 3281 1617 3432 
Q 1894 3584 2278 3584 
Q 2916 3584 3314 3078 
Q 3713 2572 3713 1747 
Q 3713 922 3314 415 
Q 2916 -91 2278 -91 
Q 1894 -91 1617 61 
Q 1341 213 1159 525 
z
M 3116 1747 
Q 3116 2381 2855 2742 
Q 2594 3103 2138 3103 
Q 1681 3103 1420 2742 
Q 1159 2381 1159 1747 
Q 1159 1113 1420 752 
Q 1681 391 2138 391 
Q 2594 391 2855 752 
Q 3116 1113 3116 1747 
z
" transform="scale(0.015625)"/>
       <path id="DejaVuSans-6f" d="M 1959 3097 
Q 1497 3097 1228 2736 
Q 959 2375 959 1747 
Q 959 1119 1226 758 
Q 1494 397 1959 397 
Q 2419 397 2687 759 
Q 2956 1122 2956 1747 
Q 2956 2369 2687 2733 
Q 2419 3097 1959 3097 
z
M 1959 3584 
Q 2709 3584 3137 3096 
Q 3566 2609 3566 1747 
Q 3566 888 3137 398 
Q 2709 -91 1959 -91 
Q 1206 -91 779 398 
Q 353 888 353 1747 
Q 353 2609 779 3096 
Q 1206 3584 1959 3584 
z
" transform="scale(0.015625)"/>
       <path id="DejaVuSans-63" d="M 3122 3366 
L 3122 2828 
Q 2878 2963 2633 3030 
Q 2388 3097 2138 3097 
Q 1578 3097 1268 2742 
Q 959 2388 959 1747 
Q 959 1106 1268 751 
Q 1578 397 2138 397 
Q 2388 397 2633 464 
Q 2878 531 3122 666 
L 3122 134 
Q 2881 22 2623 -34 
Q 2366 -91 2075 -91 
Q 1284 -91 818 406 
Q 353 903 353 1747 
Q 353 2603 823 3093 
Q 1294 3584 2113 3584 
Q 2378 3584 2631 3529 
Q 2884 3475 3122 3366 
z
" transform="scale(0.015625)"/>
       <path id="DejaVuSans-68" d="M 3513 2113 
L 3513 0 
L 2938 0 
L 2938 2094 
Q 2938 2591 2744 2837 
Q 2550 3084 2163 3084 
Q 1697 3084 1428 2787 
Q 1159 2491 1159 1978 
L 1159 0 
L 581 0 
L 581 4863 
L 1159 4863 
L 1159 2956 
Q 1366 3272 1645 3428 
Q 1925 3584 2291 3584 
Q 2894 3584 3203 3211 
Q 3513 2838 3513 2113 
z
" transform="scale(0.015625)"/>
      </defs>
      <use xlink:href="#DejaVuSans-45"/>
      <use xlink:href="#DejaVuSans-70" transform="translate(63.183594 0)"/>
      <use xlink:href="#DejaVuSans-6f" transform="translate(126.660156 0)"/>
      <use xlink:href="#DejaVuSans-63" transform="translate(187.841797 0)"/>
      <use xlink:href="#DejaVuSans-68" transform="translate(242.822266 0)"/>
     </g>
    </g>
   </g>
   <g id="matplotlib.axis_2">
    <g id="ytick_1">
     <g id="line2d_6">
      <defs>
       <path id="m2b08d4e4ca" d="M 0 0 
L -3.5 0 
" style="stroke: #000000; stroke-width: 0.8"/>
      </defs>
      <g>
       <use xlink:href="#m2b08d4e4ca" x="90" y="278.164554" style="stroke: #000000; stroke-width: 0.8"/>
      </g>
     </g>
     <g id="text_7">
      <!-- 0.05 -->
      <g transform="translate(60.734375 281.963773) scale(0.1 -0.1)">
       <defs>
        <path id="DejaVuSans-2e" d="M 684 794 
L 1344 794 
L 1344 0 
L 684 0 
L 684 794 
z
" transform="scale(0.015625)"/>
        <path id="DejaVuSans-35" d="M 691 4666 
L 3169 4666 
L 3169 4134 
L 1269 4134 
L 1269 2991 
Q 1406 3038 1543 3061 
Q 1681 3084 1819 3084 
Q 2600 3084 3056 2656 
Q 3513 2228 3513 1497 
Q 3513 744 3044 326 
Q 2575 -91 1722 -91 
Q 1428 -91 1123 -41 
Q 819 9 494 109 
L 494 744 
Q 775 591 1075 516 
Q 1375 441 1709 441 
Q 2250 441 2565 725 
Q 2881 1009 2881 1497 
Q 2881 1984 2565 2268 
Q 2250 2553 1709 2553 
Q 1456 2553 1204 2497 
Q 953 2441 691 2322 
L 691 4666 
z
" transform="scale(0.015625)"/>
       </defs>
       <use xlink:href="#DejaVuSans-30"/>
       <use xlink:href="#DejaVuSans-2e" transform="translate(63.623047 0)"/>
       <use xlink:href="#DejaVuSans-30" transform="translate(95.410156 0)"/>
       <use xlink:href="#DejaVuSans-35" transform="translate(159.033203 0)"/>
      </g>
     </g>
    </g>
    <g id="ytick_2">
     <g id="line2d_7">
      <g>
       <use xlink:href="#m2b08d4e4ca" x="90" y="228.004271" style="stroke: #000000; stroke-width: 0.8"/>
      </g>
     </g>
     <g id="text_8">
      <!-- 0.10 -->
      <g transform="translate(60.734375 231.80349) scale(0.1 -0.1)">
       <use xlink:href="#DejaVuSans-30"/>
       <use xlink:href="#DejaVuSans-2e" transform="translate(63.623047 0)"/>
       <use xlink:href="#DejaVuSans-31" transform="translate(95.410156 0)"/>
       <use xlink:href="#DejaVuSans-30" transform="translate(159.033203 0)"/>
      </g>
     </g>
    </g>
    <g id="ytick_3">
     <g id="line2d_8">
      <g>
       <use xlink:href="#m2b08d4e4ca" x="90" y="177.843988" style="stroke: #000000; stroke-width: 0.8"/>
      </g>
     </g>
     <g id="text_9">
      <!-- 0.15 -->
      <g transform="translate(60.734375 181.643207) scale(0.1 -0.1)">
       <use xlink:href="#DejaVuSans-30"/>
       <use xlink:href="#DejaVuSans-2e" transform="translate(63.623047 0)"/>
       <use xlink:href="#DejaVuSans-31" transform="translate(95.410156 0)"/>
       <use xlink:href="#DejaVuSans-35" transform="translate(159.033203 0)"/>
      </g>
     </g>
    </g>
    <g id="ytick_4">
     <g id="line2d_9">
      <g>
       <use xlink:href="#m2b08d4e4ca" x="90" y="127.683706" style="stroke: #000000; stroke-width: 0.8"/>
      </g>
     </g>
     <g id="text_10">
      <!-- 0.20 -->
      <g transform="translate(60.734375 131.482924) scale(0.1 -0.1)">
       <use xlink:href="#DejaVuSans-30"/>
       <use xlink:href="#DejaVuSans-2e" transform="translate(63.623047 0)"/>
       <use xlink:href="#DejaVuSans-32" transform="translate(95.410156 0)"/>
       <use xlink:href="#DejaVuSans-30" transform="translate(159.033203 0)"/>
      </g>
     </g>
    </g>
    <g id="ytick_5">
     <g id="line2d_10">
      <g>
       <use xlink:href="#m2b08d4e4ca" x="90" y="77.523423" style="stroke: #000000; stroke-width: 0.8"/>
      </g>
     </g>
     <g id="text_11">
      <!-- 0.25 -->
      <g transform="translate(60.734375 81.322642) scale(0.1 -0.1)">
       <use xlink:href="#DejaVuSans-30"/>
       <use xlink:href="#DejaVuSans-2e" transform="translate(63.623047 0)"/>
       <use xlink:href="#DejaVuSans-32" transform="translate(95.410156 0)"/>
       <use xlink:href="#DejaVuSans-35" transform="translate(159.033203 0)"/>
      </g>
     </g>
    </g>
    <g id="text_12">
     <!-- Estimation Loss -->
     <g transform="translate(54.654687 220.98125) rotate(-90) scale(0.1 -0.1)">
      <defs>
       <path id="DejaVuSans-73" d="M 2834 3397 
L 2834 2853 
Q 2591 2978 2328 3040 
Q 2066 3103 1784 3103 
Q 1356 3103 1142 2972 
Q 928 2841 928 2578 
Q 928 2378 1081 2264 
Q 1234 2150 1697 2047 
L 1894 2003 
Q 2506 1872 2764 1633 
Q 3022 1394 3022 966 
Q 3022 478 2636 193 
Q 2250 -91 1575 -91 
Q 1294 -91 989 -36 
Q 684 19 347 128 
L 347 722 
Q 666 556 975 473 
Q 1284 391 1588 391 
Q 1994 391 2212 530 
Q 2431 669 2431 922 
Q 2431 1156 2273 1281 
Q 2116 1406 1581 1522 
L 1381 1569 
Q 847 1681 609 1914 
Q 372 2147 372 2553 
Q 372 3047 722 3315 
Q 1072 3584 1716 3584 
Q 2034 3584 2315 3537 
Q 2597 3491 2834 3397 
z
" transform="scale(0.015625)"/>
       <path id="DejaVuSans-74" d="M 1172 4494 
L 1172 3500 
L 2356 3500 
L 2356 3053 
L 1172 3053 
L 1172 1153 
Q 1172 725 1289 603 
Q 1406 481 1766 481 
L 2356 481 
L 2356 0 
L 1766 0 
Q 1100 0 847 248 
Q 594 497 594 1153 
L 594 3053 
L 172 3053 
L 172 3500 
L 594 3500 
L 594 4494 
L 1172 4494 
z
" transform="scale(0.015625)"/>
       <path id="DejaVuSans-69" d="M 603 3500 
L 1178 3500 
L 1178 0 
L 603 0 
L 603 3500 
z
M 603 4863 
L 1178 4863 
L 1178 4134 
L 603 4134 
L 603 4863 
z
" transform="scale(0.015625)"/>
       <path id="DejaVuSans-6d" d="M 3328 2828 
Q 3544 3216 3844 3400 
Q 4144 3584 4550 3584 
Q 5097 3584 5394 3201 
Q 5691 2819 5691 2113 
L 5691 0 
L 5113 0 
L 5113 2094 
Q 5113 2597 4934 2840 
Q 4756 3084 4391 3084 
Q 3944 3084 3684 2787 
Q 3425 2491 3425 1978 
L 3425 0 
L 2847 0 
L 2847 2094 
Q 2847 2600 2669 2842 
Q 2491 3084 2119 3084 
Q 1678 3084 1418 2786 
Q 1159 2488 1159 1978 
L 1159 0 
L 581 0 
L 581 3500 
L 1159 3500 
L 1159 2956 
Q 1356 3278 1631 3431 
Q 1906 3584 2284 3584 
Q 2666 3584 2933 3390 
Q 3200 3197 3328 2828 
z
" transform="scale(0.015625)"/>
       <path id="DejaVuSans-61" d="M 2194 1759 
Q 1497 1759 1228 1600 
Q 959 1441 959 1056 
Q 959 750 1161 570 
Q 1363 391 1709 391 
Q 2188 391 2477 730 
Q 2766 1069 2766 1631 
L 2766 1759 
L 2194 1759 
z
M 3341 1997 
L 3341 0 
L 2766 0 
L 2766 531 
Q 2569 213 2275 61 
Q 1981 -91 1556 -91 
Q 1019 -91 701 211 
Q 384 513 384 1019 
Q 384 1609 779 1909 
Q 1175 2209 1959 2209 
L 2766 2209 
L 2766 2266 
Q 2766 2663 2505 2880 
Q 2244 3097 1772 3097 
Q 1472 3097 1187 3025 
Q 903 2953 641 2809 
L 641 3341 
Q 956 3463 1253 3523 
Q 1550 3584 1831 3584 
Q 2591 3584 2966 3190 
Q 3341 2797 3341 1997 
z
" transform="scale(0.015625)"/>
       <path id="DejaVuSans-6e" d="M 3513 2113 
L 3513 0 
L 2938 0 
L 2938 2094 
Q 2938 2591 2744 2837 
Q 2550 3084 2163 3084 
Q 1697 3084 1428 2787 
Q 1159 2491 1159 1978 
L 1159 0 
L 581 0 
L 581 3500 
L 1159 3500 
L 1159 2956 
Q 1366 3272 1645 3428 
Q 1925 3584 2291 3584 
Q 2894 3584 3203 3211 
Q 3513 2838 3513 2113 
z
" transform="scale(0.015625)"/>
       <path id="DejaVuSans-20" transform="scale(0.015625)"/>
       <path id="DejaVuSans-4c" d="M 628 4666 
L 1259 4666 
L 1259 531 
L 3531 531 
L 3531 0 
L 628 0 
L 628 4666 
z
" transform="scale(0.015625)"/>
      </defs>
      <use xlink:href="#DejaVuSans-45"/>
      <use xlink:href="#DejaVuSans-73" transform="translate(63.183594 0)"/>
      <use xlink:href="#DejaVuSans-74" transform="translate(115.283203 0)"/>
      <use xlink:href="#DejaVuSans-69" transform="translate(154.492188 0)"/>
      <use xlink:href="#DejaVuSans-6d" transform="translate(182.275391 0)"/>
      <use xlink:href="#DejaVuSans-61" transform="translate(279.6875 0)"/>
      <use xlink:href="#DejaVuSans-74" transform="translate(340.966797 0)"/>
      <use xlink:href="#DejaVuSans-69" transform="translate(380.175781 0)"/>
      <use xlink:href="#DejaVuSans-6f" transform="translate(407.958984 0)"/>
      <use xlink:href="#DejaVuSans-6e" transform="translate(469.140625 0)"/>
      <use xlink:href="#DejaVuSans-20" transform="translate(532.519531 0)"/>
      <use xlink:href="#DejaVuSans-4c" transform="translate(564.306641 0)"/>
      <use xlink:href="#DejaVuSans-6f" transform="translate(618.269531 0)"/>
      <use xlink:href="#DejaVuSans-73" transform="translate(679.451172 0)"/>
      <use xlink:href="#DejaVuSans-73" transform="translate(731.550781 0)"/>
     </g>
    </g>
   </g>
   <g id="line2d_11">
    <path d="M 115.363636 260.467127 
L 117.060201 284.241856 
L 118.756765 288.207648 
L 120.453329 290.206286 
L 122.149894 291.409889 
L 123.846458 292.751322 
L 125.543022 293.93579 
L 127.239587 294.768167 
L 132.329279 296.5772 
L 134.025844 297.578483 
L 135.722408 299.016666 
L 137.418972 299.657951 
L 140.812101 300.427318 
L 145.901794 301.217726 
L 159.474308 302.202269 
L 164.564001 302.409846 
L 167.95713 302.803532 
L 171.350258 302.672774 
L 174.743387 302.937335 
L 178.136516 302.903129 
L 183.226209 303.261538 
L 188.315901 303.345621 
L 198.495287 303.484945 
L 200.191852 303.625309 
L 203.58498 303.710264 
L 205.281545 303.859448 
L 206.978109 303.887023 
L 208.674673 303.71612 
L 210.371237 303.86196 
L 212.067802 303.819642 
L 213.764366 303.982789 
L 218.854059 303.983652 
L 222.247188 304.013907 
L 229.033445 304.300519 
L 232.426573 304.271976 
L 234.123138 304.309244 
L 235.819702 304.219661 
L 237.516266 304.357268 
L 240.909395 304.318395 
L 244.302524 304.472181 
L 247.695652 304.512727 
L 251.088781 304.665753 
L 261.268167 304.927112 
L 264.661295 304.781673 
L 266.35786 304.894339 
L 268.054424 304.79096 
L 271.447552 304.881365 
L 273.144117 305.00412 
L 274.840681 304.873614 
L 281.626938 304.966459 
L 283.323503 305.201263 
L 286.716631 305.346778 
L 298.592581 305.199152 
L 303.682274 305.381691 
L 307.075403 305.361496 
L 308.771967 305.145524 
L 312.165096 305.318087 
L 313.86166 305.294305 
L 318.951353 305.591018 
L 322.344482 305.559384 
L 325.73761 305.456233 
L 329.130739 305.599846 
L 330.827303 305.615071 
L 334.220432 305.854747 
L 339.310125 305.740599 
L 342.703253 305.709579 
L 346.096382 305.807444 
L 349.48951 305.739888 
L 351.186075 305.838333 
L 359.668896 305.73098 
L 361.365461 305.968027 
L 366.455154 306.008631 
L 368.151718 306.100551 
L 371.544846 305.869329 
L 376.634539 306.068901 
L 383.420797 306.144855 
L 385.117361 306.072123 
L 390.207054 306.236084 
L 393.600182 306.021164 
L 400.38644 306.324379 
L 402.083004 306.246324 
L 405.476133 306.338855 
L 408.869261 306.298427 
L 413.958954 306.2866 
L 415.655518 306.258583 
L 419.048647 306.548165 
L 420.745211 306.306606 
L 422.441776 306.19586 
L 424.13834 306.422123 
L 425.834904 306.479279 
L 429.228033 306.404766 
L 434.317726 306.448324 
L 436.01429 306.377075 
L 437.710854 306.582165 
L 444.497112 306.857955 
L 451.283369 306.4677 
L 452.979933 306.711339 
L 458.069626 306.976072 
L 461.462755 306.939572 
L 466.552448 306.85403 
L 469.945576 306.933567 
L 471.64214 306.780534 
L 473.338705 306.816238 
L 475.035269 306.708385 
L 476.731833 306.839125 
L 478.428398 306.776495 
L 480.124962 306.907272 
L 481.821526 306.907879 
L 483.518091 307.061746 
L 486.911219 307.00812 
L 492.000912 307.094997 
L 495.394041 306.779793 
L 497.090605 306.979646 
L 500.483734 306.947342 
L 502.180298 306.883494 
L 503.876862 307.022166 
L 505.573427 306.891033 
L 507.269991 306.889884 
L 508.966555 307.090542 
L 510.663119 307.019165 
L 517.449377 307.09599 
L 519.145941 306.938261 
L 522.53907 307.113244 
L 525.932198 306.961458 
L 527.628763 307.026601 
L 531.021891 307.330825 
L 532.718455 307.120727 
L 534.41502 307.315808 
L 539.504713 307.484763 
L 544.594406 307.21936 
L 546.29097 307.39151 
L 549.684099 307.163897 
L 558.16692 307.438311 
L 561.560049 307.566533 
L 563.256613 307.38695 
L 566.649742 307.622718 
L 571.739434 307.221367 
L 575.132563 307.502897 
L 578.525692 307.466269 
L 580.222256 307.61805 
L 581.91882 307.407468 
L 583.615385 307.355405 
L 585.311949 307.505723 
L 588.705078 307.578088 
L 590.401642 307.614983 
L 592.098206 307.486919 
L 593.79477 307.240932 
L 595.491335 307.242578 
L 598.884463 307.610823 
L 607.367285 307.515709 
L 609.063849 307.694633 
L 610.760413 307.698739 
L 612.456978 307.581401 
L 614.153542 307.671543 
L 619.243235 307.446963 
L 620.939799 307.565423 
L 622.636364 307.8 
L 622.636364 307.8 
" clip-path="url(#pcfafa41bf9)" style="fill: none; stroke: #1f77b4; stroke-width: 1.5; stroke-linecap: square"/>
   </g>
   <g id="line2d_12">
    <path d="M 115.363636 166.83444 
L 117.060201 197.236754 
L 118.756765 204.782398 
L 120.453329 208.815927 
L 122.149894 210.987666 
L 123.846458 212.765823 
L 125.543022 214.933121 
L 128.936151 216.241441 
L 130.632715 217.304175 
L 132.329279 218.099178 
L 134.025844 218.56644 
L 135.722408 218.243924 
L 139.115537 218.425001 
L 144.20523 218.504655 
L 145.901794 218.168951 
L 147.598358 217.466252 
L 149.294922 216.974218 
L 152.688051 216.887531 
L 156.08118 218.755841 
L 157.777744 218.814224 
L 159.474308 219.024828 
L 161.170873 218.646214 
L 162.867437 217.748769 
L 167.95713 213.066526 
L 169.653694 210.767167 
L 171.350258 209.768588 
L 173.046823 210.450091 
L 174.743387 210.983887 
L 176.439951 214.193835 
L 178.136516 214.461257 
L 179.83308 211.609771 
L 181.529644 211.576474 
L 183.226209 212.058336 
L 184.922773 216.404801 
L 186.619337 214.257242 
L 188.315901 214.39474 
L 190.012466 216.307988 
L 191.70903 215.910038 
L 193.405594 216.227344 
L 196.798723 213.350345 
L 198.495287 214.311101 
L 200.191852 217.142659 
L 201.888416 218.347469 
L 203.58498 218.151436 
L 205.281545 218.758365 
L 206.978109 217.808587 
L 208.674673 216.227742 
L 210.371237 215.877557 
L 212.067802 217.289654 
L 213.764366 218.051052 
L 215.46093 221.137732 
L 217.157495 218.972637 
L 218.854059 216.365859 
L 220.550623 213.276737 
L 222.247188 214.433521 
L 223.943752 216.284874 
L 225.640316 217.442498 
L 227.336881 215.670209 
L 229.033445 211.074951 
L 230.730009 211.384432 
L 232.426573 212.738741 
L 234.123138 212.375298 
L 235.819702 214.249647 
L 237.516266 217.324867 
L 239.212831 216.092321 
L 240.909395 218.978627 
L 242.605959 219.351887 
L 244.302524 213.302036 
L 245.999088 215.119137 
L 247.695652 215.428347 
L 249.392216 213.05496 
L 251.088781 214.194454 
L 252.785345 206.797851 
L 254.481909 213.10547 
L 256.178474 216.999587 
L 257.875038 215.250885 
L 259.571602 214.618908 
L 261.268167 213.807269 
L 262.964731 212.151161 
L 264.661295 213.476745 
L 266.35786 214.363441 
L 268.054424 211.512457 
L 269.750988 213.752285 
L 271.447552 212.951815 
L 273.144117 211.070843 
L 274.840681 214.451808 
L 276.537245 213.671555 
L 278.23381 215.786575 
L 279.930374 210.77966 
L 281.626938 210.77236 
L 283.323503 214.212641 
L 285.020067 217.391889 
L 286.716631 219.293881 
L 288.413196 219.189412 
L 290.10976 217.298791 
L 291.806324 214.663033 
L 293.502888 213.46424 
L 295.199453 214.223354 
L 296.896017 212.042998 
L 298.592581 213.39935 
L 300.289146 214.419236 
L 301.98571 211.567189 
L 303.682274 211.806368 
L 305.378839 215.534927 
L 307.075403 211.895533 
L 308.771967 212.667786 
L 310.468531 213.164546 
L 312.165096 213.058651 
L 313.86166 212.750219 
L 315.558224 211.432236 
L 317.254789 209.940054 
L 318.951353 210.560864 
L 320.647917 213.115893 
L 322.344482 215.994659 
L 324.041046 215.856523 
L 325.73761 214.738843 
L 327.434175 213.783898 
L 329.130739 210.584203 
L 330.827303 213.150591 
L 332.523867 214.925349 
L 334.220432 216.9317 
L 337.61356 212.667372 
L 339.310125 212.593879 
L 341.006689 213.1403 
L 342.703253 211.70666 
L 344.399818 209.599336 
L 346.096382 209.260533 
L 347.792946 210.408204 
L 349.48951 208.780303 
L 351.186075 210.860065 
L 352.882639 208.232802 
L 354.579203 208.13494 
L 356.275768 209.944564 
L 357.972332 212.878381 
L 361.365461 210.964769 
L 363.062025 212.141965 
L 364.758589 211.050924 
L 368.151718 212.70169 
L 369.848282 210.825422 
L 371.544846 207.952659 
L 373.241411 207.343438 
L 374.937975 210.621918 
L 376.634539 209.791636 
L 378.331104 211.595876 
L 380.027668 212.080218 
L 381.724232 211.802888 
L 383.420797 213.572375 
L 385.117361 210.508358 
L 386.813925 210.434946 
L 388.51049 208.598683 
L 390.207054 210.487548 
L 391.903618 209.770526 
L 393.600182 211.267763 
L 395.296747 209.71611 
L 396.993311 211.657647 
L 398.689875 208.866738 
L 400.38644 208.797741 
L 402.083004 209.963376 
L 403.779568 211.770579 
L 405.476133 209.043783 
L 407.172697 210.278265 
L 408.869261 207.523407 
L 410.565825 208.115076 
L 412.26239 205.168995 
L 413.958954 208.221695 
L 415.655518 209.07366 
L 417.352083 210.288429 
L 419.048647 209.054922 
L 420.745211 209.524998 
L 422.441776 208.280569 
L 424.13834 210.321589 
L 425.834904 208.110638 
L 427.531469 208.042365 
L 429.228033 207.425345 
L 430.924597 209.229291 
L 432.621161 211.732689 
L 434.317726 207.221941 
L 436.01429 204.608262 
L 437.710854 204.41485 
L 439.407419 205.559824 
L 441.103983 207.805282 
L 442.800547 207.88797 
L 444.497112 207.70724 
L 446.193676 209.358923 
L 447.89024 209.385905 
L 449.586804 207.175277 
L 451.283369 207.517076 
L 452.979933 210.295542 
L 454.676497 211.29117 
L 458.069626 209.872632 
L 459.76619 209.623394 
L 461.462755 209.916796 
L 463.159319 207.41591 
L 464.855883 208.986418 
L 466.552448 209.715631 
L 468.249012 207.939764 
L 469.945576 207.467209 
L 471.64214 208.001042 
L 473.338705 208.820802 
L 475.035269 210.015548 
L 476.731833 208.661127 
L 478.428398 207.92187 
L 480.124962 212.771425 
L 481.821526 210.756386 
L 483.518091 208.982107 
L 485.214655 210.60705 
L 486.911219 211.073307 
L 488.607784 209.132614 
L 490.304348 208.609635 
L 492.000912 208.783261 
L 493.697476 211.26495 
L 495.394041 209.576578 
L 497.090605 208.804394 
L 498.787169 206.973089 
L 500.483734 210.133932 
L 502.180298 207.510086 
L 503.876862 207.58546 
L 505.573427 209.623679 
L 507.269991 211.351015 
L 508.966555 212.665937 
L 510.663119 208.508912 
L 512.359684 207.094448 
L 514.056248 210.905177 
L 515.752812 208.610002 
L 517.449377 208.119195 
L 519.145941 207.336836 
L 520.842505 207.885621 
L 522.53907 207.243586 
L 524.235634 208.80586 
L 525.932198 209.684937 
L 527.628763 210.261223 
L 529.325327 208.586302 
L 531.021891 209.68718 
L 532.718455 212.501298 
L 534.41502 210.366415 
L 536.111584 211.241129 
L 537.808148 212.293408 
L 539.504713 212.013271 
L 541.201277 209.868605 
L 542.897841 210.513935 
L 544.594406 211.698066 
L 546.29097 211.54352 
L 549.684099 207.23928 
L 551.380663 207.176113 
L 553.077227 208.852025 
L 554.773791 209.047997 
L 558.16692 208.231407 
L 559.863484 210.905464 
L 561.560049 208.592818 
L 563.256613 207.778725 
L 564.953177 204.039459 
L 566.649742 208.097356 
L 568.346306 206.82901 
L 571.739434 208.749925 
L 573.435999 207.496455 
L 575.132563 208.176935 
L 576.829127 208.353619 
L 578.525692 207.797026 
L 580.222256 206.808217 
L 581.91882 209.797011 
L 583.615385 212.552326 
L 585.311949 207.694224 
L 587.008513 209.552347 
L 588.705078 207.839937 
L 590.401642 206.800745 
L 592.098206 206.993993 
L 593.79477 205.092937 
L 595.491335 206.333044 
L 597.187899 206.859647 
L 598.884463 207.112469 
L 600.581028 207.813567 
L 602.277592 209.232502 
L 603.974156 206.827963 
L 605.670721 207.18368 
L 607.367285 208.095308 
L 609.063849 206.509659 
L 610.760413 205.81283 
L 612.456978 206.87658 
L 614.153542 206.336561 
L 615.850106 207.031492 
L 617.546671 206.891804 
L 619.243235 205.186614 
L 620.939799 207.267348 
L 622.636364 207.846692 
L 622.636364 207.846692 
" clip-path="url(#pcfafa41bf9)" style="fill: none; stroke: #ff7f0e; stroke-width: 1.5; stroke-linecap: square"/>
   </g>
   <g id="line2d_13">
    <path d="M 115.363636 241.688209 
L 117.060201 248.913789 
L 118.756765 252.339578 
L 123.846458 259.833946 
L 125.543022 262.096297 
L 127.239587 263.669222 
L 128.936151 264.599796 
L 130.632715 265.786288 
L 132.329279 267.268938 
L 134.025844 271.349942 
L 135.722408 273.422288 
L 139.115537 275.378556 
L 142.508665 276.191569 
L 144.20523 276.70599 
L 145.901794 276.993184 
L 147.598358 276.733822 
L 149.294922 277.422006 
L 150.991487 277.184845 
L 152.688051 277.518553 
L 154.384615 277.563392 
L 156.08118 277.273748 
L 159.474308 277.947256 
L 161.170873 278.214578 
L 162.867437 278.194596 
L 166.260566 278.781966 
L 167.95713 278.727089 
L 169.653694 278.252361 
L 171.350258 278.678138 
L 173.046823 278.774265 
L 174.743387 279.42391 
L 176.439951 278.763802 
L 178.136516 279.085387 
L 179.83308 279.282153 
L 181.529644 279.722236 
L 184.922773 279.715914 
L 190.012466 279.864965 
L 191.70903 280.055059 
L 193.405594 279.948677 
L 200.191852 280.337973 
L 201.888416 280.618676 
L 203.58498 280.710609 
L 205.281545 280.615696 
L 206.978109 280.639325 
L 208.674673 280.474869 
L 210.371237 280.423741 
L 212.067802 280.637743 
L 213.764366 281.057231 
L 215.46093 280.778018 
L 217.157495 281.042505 
L 220.550623 280.608939 
L 222.247188 280.735397 
L 223.943752 281.3032 
L 225.640316 281.109318 
L 229.033445 281.434978 
L 230.730009 281.188994 
L 237.516266 281.67932 
L 239.212831 281.849323 
L 240.909395 281.88231 
L 242.605959 281.727085 
L 244.302524 281.871945 
L 245.999088 281.812656 
L 247.695652 282.255654 
L 249.392216 281.838517 
L 251.088781 282.048735 
L 252.785345 282.026717 
L 254.481909 282.218982 
L 256.178474 282.094175 
L 257.875038 282.571679 
L 259.571602 282.698857 
L 261.268167 282.709908 
L 262.964731 282.217452 
L 264.661295 281.934276 
L 269.750988 282.496681 
L 273.144117 282.669759 
L 274.840681 282.329226 
L 276.537245 282.466668 
L 278.23381 282.365334 
L 279.930374 282.092088 
L 281.626938 282.66093 
L 283.323503 282.902462 
L 285.020067 283.292589 
L 286.716631 282.931204 
L 288.413196 283.077735 
L 290.10976 283.067603 
L 291.806324 282.851491 
L 295.199453 282.781615 
L 296.896017 283.188625 
L 298.592581 282.609707 
L 300.289146 283.203629 
L 301.98571 283.300651 
L 303.682274 283.035824 
L 305.378839 283.540735 
L 308.771967 282.795475 
L 312.165096 282.893798 
L 313.86166 282.717185 
L 315.558224 283.47797 
L 317.254789 283.363572 
L 320.647917 283.622967 
L 322.344482 283.177481 
L 324.041046 283.091338 
L 325.73761 283.402267 
L 327.434175 283.540169 
L 329.130739 283.278718 
L 330.827303 283.783885 
L 332.523867 283.691202 
L 334.220432 283.419563 
L 335.916996 283.564338 
L 337.61356 283.933627 
L 341.006689 283.408739 
L 344.399818 283.761521 
L 347.792946 283.525357 
L 349.48951 283.287854 
L 351.186075 283.871881 
L 352.882639 283.980208 
L 354.579203 283.537725 
L 356.275768 283.406311 
L 357.972332 283.428393 
L 359.668896 283.773049 
L 361.365461 283.728688 
L 364.758589 283.939612 
L 368.151718 283.421046 
L 369.848282 283.776661 
L 373.241411 283.634826 
L 374.937975 283.860449 
L 376.634539 283.352322 
L 378.331104 283.931156 
L 380.027668 283.706687 
L 381.724232 283.66023 
L 383.420797 283.443653 
L 385.117361 283.646064 
L 388.51049 283.920057 
L 391.903618 283.489019 
L 393.600182 283.837319 
L 395.296747 283.682014 
L 396.993311 283.699201 
L 398.689875 284.065188 
L 400.38644 284.039481 
L 402.083004 284.184395 
L 403.779568 284.013461 
L 407.172697 283.923653 
L 408.869261 283.82054 
L 410.565825 284.014958 
L 417.352083 283.899865 
L 419.048647 284.072973 
L 420.745211 284.113402 
L 424.13834 283.723262 
L 425.834904 283.800464 
L 427.531469 284.011233 
L 429.228033 283.888883 
L 432.621161 284.132741 
L 434.317726 283.74363 
L 436.01429 283.964412 
L 437.710854 284.439278 
L 441.103983 283.911517 
L 446.193676 284.005069 
L 447.89024 283.693987 
L 449.586804 283.631338 
L 452.979933 284.325488 
L 454.676497 284.333508 
L 456.373062 284.051416 
L 458.069626 284.258219 
L 459.76619 283.930337 
L 463.159319 284.302482 
L 464.855883 284.230371 
L 466.552448 283.992682 
L 468.249012 284.057284 
L 469.945576 283.972379 
L 473.338705 284.090216 
L 475.035269 284.094562 
L 476.731833 283.721064 
L 478.428398 284.053389 
L 480.124962 283.962562 
L 483.518091 284.149111 
L 488.607784 284.097576 
L 490.304348 284.223277 
L 492.000912 283.984369 
L 493.697476 283.993135 
L 495.394041 284.187592 
L 497.090605 283.923398 
L 498.787169 284.228122 
L 500.483734 284.203611 
L 502.180298 284.313712 
L 503.876862 284.207977 
L 505.573427 283.692931 
L 507.269991 284.265984 
L 508.966555 284.083701 
L 512.359684 284.245245 
L 515.752812 283.974211 
L 517.449377 284.122424 
L 519.145941 283.722558 
L 520.842505 284.116905 
L 522.53907 284.276722 
L 524.235634 284.174939 
L 525.932198 284.490395 
L 527.628763 284.027488 
L 531.021891 284.205299 
L 532.718455 283.943813 
L 534.41502 284.028269 
L 536.111584 284.229122 
L 537.808148 284.057278 
L 539.504713 284.285409 
L 541.201277 284.315348 
L 542.897841 284.051829 
L 544.594406 284.224412 
L 546.29097 283.984869 
L 547.987534 283.996267 
L 549.684099 283.803237 
L 553.077227 284.007675 
L 554.773791 283.840055 
L 556.470356 284.330914 
L 561.560049 283.798116 
L 563.256613 284.002235 
L 564.953177 283.71816 
L 566.649742 283.775087 
L 568.346306 284.100987 
L 570.04287 284.260047 
L 571.739434 284.113825 
L 575.132563 284.385377 
L 576.829127 283.935277 
L 578.525692 284.064108 
L 580.222256 283.828699 
L 585.311949 283.978714 
L 587.008513 283.570644 
L 588.705078 283.475783 
L 590.401642 283.839011 
L 593.79477 283.456573 
L 595.491335 283.654235 
L 598.884463 283.697174 
L 600.581028 283.7825 
L 602.277592 283.34271 
L 603.974156 283.884033 
L 609.063849 283.57831 
L 610.760413 283.794216 
L 614.153542 283.916497 
L 615.850106 283.450238 
L 617.546671 283.902417 
L 619.243235 283.624276 
L 622.636364 283.578885 
L 622.636364 283.578885 
" clip-path="url(#pcfafa41bf9)" style="fill: none; stroke: #2ca02c; stroke-width: 1.5; stroke-linecap: square"/>
   </g>
   <g id="line2d_14">
    <path d="M 115.363636 55.8 
L 117.060201 76.237884 
L 118.756765 84.348317 
L 120.453329 89.545278 
L 122.149894 92.454715 
L 123.846458 97.296758 
L 127.239587 99.960517 
L 128.936151 100.944385 
L 130.632715 102.955034 
L 132.329279 104.169828 
L 134.025844 103.478817 
L 135.722408 103.345392 
L 137.418972 103.429403 
L 139.115537 103.027392 
L 140.812101 102.964766 
L 142.508665 101.916407 
L 145.901794 100.717514 
L 147.598358 97.799808 
L 149.294922 96.269871 
L 150.991487 96.167021 
L 152.688051 96.732028 
L 154.384615 98.742733 
L 156.08118 100.181981 
L 157.777744 99.896769 
L 161.170873 97.438707 
L 162.867437 94.101191 
L 164.564001 89.154262 
L 166.260566 87.368538 
L 167.95713 83.782066 
L 169.653694 80.46711 
L 171.350258 79.593989 
L 173.046823 82.255896 
L 174.743387 84.028027 
L 176.439951 91.87568 
L 178.136516 87.303039 
L 179.83308 81.843586 
L 181.529644 81.621053 
L 183.226209 87.394414 
L 184.922773 91.759784 
L 186.619337 90.663588 
L 188.315901 83.675386 
L 190.012466 101.949571 
L 191.70903 85.327957 
L 193.405594 91.922099 
L 195.102159 80.950553 
L 196.798723 86.42512 
L 198.495287 88.041392 
L 200.191852 95.273753 
L 201.888416 101.172154 
L 203.58498 98.890678 
L 205.281545 98.430864 
L 206.978109 90.123606 
L 208.674673 91.705358 
L 212.067802 95.3783 
L 213.764366 104.70346 
L 215.46093 104.955815 
L 217.157495 97.862627 
L 218.854059 83.81346 
L 220.550623 92.526682 
L 222.247188 89.164352 
L 223.943752 92.000238 
L 225.640316 95.425946 
L 227.336881 75.872488 
L 229.033445 85.858364 
L 230.730009 84.868709 
L 232.426573 76.502451 
L 234.123138 79.938072 
L 235.819702 93.117844 
L 237.516266 94.504538 
L 239.212831 90.443856 
L 240.909395 95.527426 
L 242.605959 87.203657 
L 244.302524 88.465559 
L 245.999088 81.925558 
L 247.695652 89.942069 
L 249.392216 88.608377 
L 251.088781 70.450539 
L 252.785345 78.035621 
L 254.481909 90.168034 
L 256.178474 94.35056 
L 257.875038 87.805629 
L 259.571602 86.668174 
L 261.268167 86.722896 
L 262.964731 89.834581 
L 264.661295 86.712814 
L 266.35786 91.698011 
L 268.054424 82.640938 
L 269.750988 89.170542 
L 271.447552 75.20671 
L 273.144117 93.906376 
L 274.840681 78.264013 
L 278.23381 88.640544 
L 279.930374 82.945918 
L 281.626938 79.730523 
L 283.323503 92.782155 
L 285.020067 95.491403 
L 286.716631 101.567467 
L 288.413196 96.454434 
L 290.10976 94.234788 
L 291.806324 82.973256 
L 293.502888 88.058709 
L 295.199453 81.154832 
L 296.896017 85.143252 
L 298.592581 94.2727 
L 300.289146 83.047659 
L 301.98571 77.342436 
L 303.682274 88.578294 
L 305.378839 87.010979 
L 307.075403 80.886907 
L 308.771967 86.616417 
L 310.468531 77.977256 
L 312.165096 84.690069 
L 313.86166 81.851593 
L 315.558224 77.980723 
L 317.254789 79.259387 
L 318.951353 85.86263 
L 320.647917 83.488907 
L 322.344482 90.985694 
L 324.041046 82.958454 
L 325.73761 94.212618 
L 327.434175 73.427225 
L 329.130739 83.303369 
L 330.827303 91.655669 
L 332.523867 94.271257 
L 334.220432 95.015498 
L 335.916996 83.177741 
L 337.61356 80.438957 
L 339.310125 86.043223 
L 341.006689 84.913149 
L 342.703253 83.206541 
L 344.399818 70.920094 
L 346.096382 77.870328 
L 347.792946 69.483294 
L 349.48951 79.319345 
L 351.186075 73.202285 
L 352.882639 76.639308 
L 356.275768 78.045957 
L 357.972332 89.066192 
L 359.668896 78.44285 
L 361.365461 89.190334 
L 363.062025 83.449554 
L 364.758589 87.285898 
L 366.455154 87.433268 
L 368.151718 87.323358 
L 369.848282 72.270806 
L 371.544846 74.22101 
L 373.241411 81.168327 
L 374.937975 81.244827 
L 376.634539 81.661429 
L 378.331104 82.919807 
L 380.027668 81.216342 
L 381.724232 87.225839 
L 383.420797 86.782756 
L 385.117361 78.263858 
L 386.813925 74.684029 
L 388.51049 80.48678 
L 390.207054 82.419033 
L 391.903618 82.227218 
L 393.600182 67.652823 
L 395.296747 84.097469 
L 398.689875 75.296116 
L 400.38644 73.918505 
L 402.083004 81.774772 
L 403.779568 85.134369 
L 405.476133 79.781947 
L 407.172697 79.720331 
L 408.869261 73.970868 
L 410.565825 66.996503 
L 412.26239 73.861203 
L 413.958954 76.802649 
L 415.655518 76.62111 
L 417.352083 78.21918 
L 419.048647 75.978977 
L 420.745211 78.230597 
L 422.441776 79.203157 
L 425.834904 84.427365 
L 427.531469 77.052097 
L 429.228033 78.227332 
L 430.924597 83.60634 
L 432.621161 83.253395 
L 434.317726 73.075301 
L 436.01429 73.057653 
L 437.710854 72.648606 
L 439.407419 73.789241 
L 441.103983 72.954209 
L 442.800547 77.874654 
L 444.497112 77.334852 
L 446.193676 87.425569 
L 447.89024 74.818248 
L 449.586804 78.985867 
L 452.979933 85.143579 
L 454.676497 84.498699 
L 456.373062 84.309635 
L 458.069626 76.439283 
L 461.462755 80.775275 
L 463.159319 77.597058 
L 464.855883 83.138604 
L 466.552448 72.790334 
L 468.249012 76.608921 
L 469.945576 72.874236 
L 471.64214 75.56717 
L 473.338705 71.016607 
L 475.035269 71.652709 
L 476.731833 73.874354 
L 478.428398 68.981403 
L 480.124962 88.446948 
L 481.821526 77.474019 
L 483.518091 78.779687 
L 485.214655 82.813494 
L 486.911219 79.476632 
L 488.607784 77.739011 
L 490.304348 76.402108 
L 492.000912 86.27897 
L 493.697476 83.172721 
L 495.394041 82.56089 
L 497.090605 80.645437 
L 498.787169 78.272955 
L 500.483734 87.137623 
L 502.180298 75.558923 
L 503.876862 75.799586 
L 505.573427 82.350833 
L 507.269991 86.279662 
L 508.966555 79.808354 
L 510.663119 71.253342 
L 512.359684 79.891375 
L 514.056248 80.862709 
L 515.752812 77.039681 
L 517.449377 68.576158 
L 519.145941 72.797499 
L 520.842505 71.26458 
L 522.53907 79.050037 
L 524.235634 85.335161 
L 525.932198 76.036085 
L 527.628763 78.301243 
L 529.325327 73.097913 
L 531.021891 81.267656 
L 532.718455 80.924215 
L 534.41502 79.875687 
L 536.111584 84.512222 
L 537.808148 88.235241 
L 539.504713 83.960662 
L 541.201277 81.828212 
L 542.897841 84.909062 
L 544.594406 80.364543 
L 546.29097 83.061701 
L 547.987534 79.240565 
L 549.684099 70.689275 
L 551.380663 79.037411 
L 553.077227 76.15048 
L 554.773791 79.16186 
L 558.16692 77.950501 
L 559.863484 77.838658 
L 561.560049 73.393276 
L 563.256613 64.684323 
L 564.953177 73.017425 
L 566.649742 74.500186 
L 568.346306 73.696809 
L 570.04287 77.164543 
L 571.739434 72.561606 
L 573.435999 75.92485 
L 575.132563 71.418601 
L 576.829127 77.101624 
L 578.525692 70.943072 
L 580.222256 76.868667 
L 581.91882 83.687379 
L 585.311949 76.709612 
L 587.008513 79.616449 
L 588.705078 68.842507 
L 590.401642 70.825817 
L 592.098206 73.618055 
L 593.79477 69.05924 
L 595.491335 75.117841 
L 597.187899 68.611795 
L 598.884463 78.696543 
L 600.581028 71.0762 
L 602.277592 73.250397 
L 603.974156 74.54493 
L 605.670721 75.392574 
L 607.367285 74.391892 
L 609.063849 73.160689 
L 610.760413 71.448625 
L 612.456978 70.297613 
L 614.153542 71.145103 
L 615.850106 76.671115 
L 617.546671 71.120407 
L 619.243235 75.310848 
L 620.939799 71.679288 
L 622.636364 74.212759 
L 622.636364 74.212759 
" clip-path="url(#pcfafa41bf9)" style="fill: none; stroke: #d62728; stroke-width: 1.5; stroke-linecap: square"/>
   </g>
   <g id="patch_3">
    <path d="M 90 320.4 
L 90 43.2 
" style="fill: none; stroke: #000000; stroke-width: 0.8; stroke-linejoin: miter; stroke-linecap: square"/>
   </g>
   <g id="patch_4">
    <path d="M 648 320.4 
L 648 43.2 
" style="fill: none; stroke: #000000; stroke-width: 0.8; stroke-linejoin: miter; stroke-linecap: square"/>
   </g>
   <g id="patch_5">
    <path d="M 90 320.4 
L 648 320.4 
" style="fill: none; stroke: #000000; stroke-width: 0.8; stroke-linejoin: miter; stroke-linecap: square"/>
   </g>
   <g id="patch_6">
    <path d="M 90 43.2 
L 648 43.2 
" style="fill: none; stroke: #000000; stroke-width: 0.8; stroke-linejoin: miter; stroke-linecap: square"/>
   </g>
   <g id="text_13">
    <!-- Training and Validating Estimation Loss -->
    <g transform="translate(251.535937 37.2) scale(0.12 -0.12)">
     <defs>
      <path id="DejaVuSans-54" d="M -19 4666 
L 3928 4666 
L 3928 4134 
L 2272 4134 
L 2272 0 
L 1638 0 
L 1638 4134 
L -19 4134 
L -19 4666 
z
" transform="scale(0.015625)"/>
      <path id="DejaVuSans-72" d="M 2631 2963 
Q 2534 3019 2420 3045 
Q 2306 3072 2169 3072 
Q 1681 3072 1420 2755 
Q 1159 2438 1159 1844 
L 1159 0 
L 581 0 
L 581 3500 
L 1159 3500 
L 1159 2956 
Q 1341 3275 1631 3429 
Q 1922 3584 2338 3584 
Q 2397 3584 2469 3576 
Q 2541 3569 2628 3553 
L 2631 2963 
z
" transform="scale(0.015625)"/>
      <path id="DejaVuSans-67" d="M 2906 1791 
Q 2906 2416 2648 2759 
Q 2391 3103 1925 3103 
Q 1463 3103 1205 2759 
Q 947 2416 947 1791 
Q 947 1169 1205 825 
Q 1463 481 1925 481 
Q 2391 481 2648 825 
Q 2906 1169 2906 1791 
z
M 3481 434 
Q 3481 -459 3084 -895 
Q 2688 -1331 1869 -1331 
Q 1566 -1331 1297 -1286 
Q 1028 -1241 775 -1147 
L 775 -588 
Q 1028 -725 1275 -790 
Q 1522 -856 1778 -856 
Q 2344 -856 2625 -561 
Q 2906 -266 2906 331 
L 2906 616 
Q 2728 306 2450 153 
Q 2172 0 1784 0 
Q 1141 0 747 490 
Q 353 981 353 1791 
Q 353 2603 747 3093 
Q 1141 3584 1784 3584 
Q 2172 3584 2450 3431 
Q 2728 3278 2906 2969 
L 2906 3500 
L 3481 3500 
L 3481 434 
z
" transform="scale(0.015625)"/>
      <path id="DejaVuSans-64" d="M 2906 2969 
L 2906 4863 
L 3481 4863 
L 3481 0 
L 2906 0 
L 2906 525 
Q 2725 213 2448 61 
Q 2172 -91 1784 -91 
Q 1150 -91 751 415 
Q 353 922 353 1747 
Q 353 2572 751 3078 
Q 1150 3584 1784 3584 
Q 2172 3584 2448 3432 
Q 2725 3281 2906 2969 
z
M 947 1747 
Q 947 1113 1208 752 
Q 1469 391 1925 391 
Q 2381 391 2643 752 
Q 2906 1113 2906 1747 
Q 2906 2381 2643 2742 
Q 2381 3103 1925 3103 
Q 1469 3103 1208 2742 
Q 947 2381 947 1747 
z
" transform="scale(0.015625)"/>
      <path id="DejaVuSans-56" d="M 1831 0 
L 50 4666 
L 709 4666 
L 2188 738 
L 3669 4666 
L 4325 4666 
L 2547 0 
L 1831 0 
z
" transform="scale(0.015625)"/>
      <path id="DejaVuSans-6c" d="M 603 4863 
L 1178 4863 
L 1178 0 
L 603 0 
L 603 4863 
z
" transform="scale(0.015625)"/>
     </defs>
     <use xlink:href="#DejaVuSans-54"/>
     <use xlink:href="#DejaVuSans-72" transform="translate(46.333984 0)"/>
     <use xlink:href="#DejaVuSans-61" transform="translate(87.447266 0)"/>
     <use xlink:href="#DejaVuSans-69" transform="translate(148.726562 0)"/>
     <use xlink:href="#DejaVuSans-6e" transform="translate(176.509766 0)"/>
     <use xlink:href="#DejaVuSans-69" transform="translate(239.888672 0)"/>
     <use xlink:href="#DejaVuSans-6e" transform="translate(267.671875 0)"/>
     <use xlink:href="#DejaVuSans-67" transform="translate(331.050781 0)"/>
     <use xlink:href="#DejaVuSans-20" transform="translate(394.527344 0)"/>
     <use xlink:href="#DejaVuSans-61" transform="translate(426.314453 0)"/>
     <use xlink:href="#DejaVuSans-6e" transform="translate(487.59375 0)"/>
     <use xlink:href="#DejaVuSans-64" transform="translate(550.972656 0)"/>
     <use xlink:href="#DejaVuSans-20" transform="translate(614.449219 0)"/>
     <use xlink:href="#DejaVuSans-56" transform="translate(646.236328 0)"/>
     <use xlink:href="#DejaVuSans-61" transform="translate(706.894531 0)"/>
     <use xlink:href="#DejaVuSans-6c" transform="translate(768.173828 0)"/>
     <use xlink:href="#DejaVuSans-69" transform="translate(795.957031 0)"/>
     <use xlink:href="#DejaVuSans-64" transform="translate(823.740234 0)"/>
     <use xlink:href="#DejaVuSans-61" transform="translate(887.216797 0)"/>
     <use xlink:href="#DejaVuSans-74" transform="translate(948.496094 0)"/>
     <use xlink:href="#DejaVuSans-69" transform="translate(987.705078 0)"/>
     <use xlink:href="#DejaVuSans-6e" transform="translate(1015.488281 0)"/>
     <use xlink:href="#DejaVuSans-67" transform="translate(1078.867188 0)"/>
     <use xlink:href="#DejaVuSans-20" transform="translate(1142.34375 0)"/>
     <use xlink:href="#DejaVuSans-45" transform="translate(1174.130859 0)"/>
     <use xlink:href="#DejaVuSans-73" transform="translate(1237.314453 0)"/>
     <use xlink:href="#DejaVuSans-74" transform="translate(1289.414062 0)"/>
     <use xlink:href="#DejaVuSans-69" transform="translate(1328.623047 0)"/>
     <use xlink:href="#DejaVuSans-6d" transform="translate(1356.40625 0)"/>
     <use xlink:href="#DejaVuSans-61" transform="translate(1453.818359 0)"/>
     <use xlink:href="#DejaVuSans-74" transform="translate(1515.097656 0)"/>
     <use xlink:href="#DejaVuSans-69" transform="translate(1554.306641 0)"/>
     <use xlink:href="#DejaVuSans-6f" transform="translate(1582.089844 0)"/>
     <use xlink:href="#DejaVuSans-6e" transform="translate(1643.271484 0)"/>
     <use xlink:href="#DejaVuSans-20" transform="translate(1706.650391 0)"/>
     <use xlink:href="#DejaVuSans-4c" transform="translate(1738.4375 0)"/>
     <use xlink:href="#DejaVuSans-6f" transform="translate(1792.400391 0)"/>
     <use xlink:href="#DejaVuSans-73" transform="translate(1853.582031 0)"/>
     <use xlink:href="#DejaVuSans-73" transform="translate(1905.681641 0)"/>
    </g>
   </g>
   <g id="legend_1">
    <g id="patch_7">
     <path d="M 97 212.65625 
L 216.560938 212.65625 
Q 218.560938 212.65625 218.560938 210.65625 
L 218.560938 152.94375 
Q 218.560938 150.94375 216.560938 150.94375 
L 97 150.94375 
Q 95 150.94375 95 152.94375 
L 95 210.65625 
Q 95 212.65625 97 212.65625 
z
" style="fill: #ffffff; opacity: 0.8; stroke: #cccccc; stroke-linejoin: miter"/>
    </g>
    <g id="line2d_15">
     <path d="M 99 159.042188 
L 109 159.042188 
L 119 159.042188 
" style="fill: none; stroke: #1f77b4; stroke-width: 1.5; stroke-linecap: square"/>
    </g>
    <g id="text_14">
     <!-- Training-Source -->
     <g transform="translate(127 162.542188) scale(0.1 -0.1)">
      <defs>
       <path id="DejaVuSans-2d" d="M 313 2009 
L 1997 2009 
L 1997 1497 
L 313 1497 
L 313 2009 
z
" transform="scale(0.015625)"/>
       <path id="DejaVuSans-53" d="M 3425 4513 
L 3425 3897 
Q 3066 4069 2747 4153 
Q 2428 4238 2131 4238 
Q 1616 4238 1336 4038 
Q 1056 3838 1056 3469 
Q 1056 3159 1242 3001 
Q 1428 2844 1947 2747 
L 2328 2669 
Q 3034 2534 3370 2195 
Q 3706 1856 3706 1288 
Q 3706 609 3251 259 
Q 2797 -91 1919 -91 
Q 1588 -91 1214 -16 
Q 841 59 441 206 
L 441 856 
Q 825 641 1194 531 
Q 1563 422 1919 422 
Q 2459 422 2753 634 
Q 3047 847 3047 1241 
Q 3047 1584 2836 1778 
Q 2625 1972 2144 2069 
L 1759 2144 
Q 1053 2284 737 2584 
Q 422 2884 422 3419 
Q 422 4038 858 4394 
Q 1294 4750 2059 4750 
Q 2388 4750 2728 4690 
Q 3069 4631 3425 4513 
z
" transform="scale(0.015625)"/>
       <path id="DejaVuSans-75" d="M 544 1381 
L 544 3500 
L 1119 3500 
L 1119 1403 
Q 1119 906 1312 657 
Q 1506 409 1894 409 
Q 2359 409 2629 706 
Q 2900 1003 2900 1516 
L 2900 3500 
L 3475 3500 
L 3475 0 
L 2900 0 
L 2900 538 
Q 2691 219 2414 64 
Q 2138 -91 1772 -91 
Q 1169 -91 856 284 
Q 544 659 544 1381 
z
M 1991 3584 
L 1991 3584 
z
" transform="scale(0.015625)"/>
       <path id="DejaVuSans-65" d="M 3597 1894 
L 3597 1613 
L 953 1613 
Q 991 1019 1311 708 
Q 1631 397 2203 397 
Q 2534 397 2845 478 
Q 3156 559 3463 722 
L 3463 178 
Q 3153 47 2828 -22 
Q 2503 -91 2169 -91 
Q 1331 -91 842 396 
Q 353 884 353 1716 
Q 353 2575 817 3079 
Q 1281 3584 2069 3584 
Q 2775 3584 3186 3129 
Q 3597 2675 3597 1894 
z
M 3022 2063 
Q 3016 2534 2758 2815 
Q 2500 3097 2075 3097 
Q 1594 3097 1305 2825 
Q 1016 2553 972 2059 
L 3022 2063 
z
" transform="scale(0.015625)"/>
      </defs>
      <use xlink:href="#DejaVuSans-54"/>
      <use xlink:href="#DejaVuSans-72" transform="translate(46.333984 0)"/>
      <use xlink:href="#DejaVuSans-61" transform="translate(87.447266 0)"/>
      <use xlink:href="#DejaVuSans-69" transform="translate(148.726562 0)"/>
      <use xlink:href="#DejaVuSans-6e" transform="translate(176.509766 0)"/>
      <use xlink:href="#DejaVuSans-69" transform="translate(239.888672 0)"/>
      <use xlink:href="#DejaVuSans-6e" transform="translate(267.671875 0)"/>
      <use xlink:href="#DejaVuSans-67" transform="translate(331.050781 0)"/>
      <use xlink:href="#DejaVuSans-2d" transform="translate(394.527344 0)"/>
      <use xlink:href="#DejaVuSans-53" transform="translate(430.611328 0)"/>
      <use xlink:href="#DejaVuSans-6f" transform="translate(494.087891 0)"/>
      <use xlink:href="#DejaVuSans-75" transform="translate(555.269531 0)"/>
      <use xlink:href="#DejaVuSans-72" transform="translate(618.648438 0)"/>
      <use xlink:href="#DejaVuSans-63" transform="translate(657.511719 0)"/>
      <use xlink:href="#DejaVuSans-65" transform="translate(712.492188 0)"/>
     </g>
    </g>
    <g id="line2d_16">
     <path d="M 99 173.720313 
L 109 173.720313 
L 119 173.720313 
" style="fill: none; stroke: #ff7f0e; stroke-width: 1.5; stroke-linecap: square"/>
    </g>
    <g id="text_15">
     <!-- Training-Target -->
     <g transform="translate(127 177.220313) scale(0.1 -0.1)">
      <use xlink:href="#DejaVuSans-54"/>
      <use xlink:href="#DejaVuSans-72" transform="translate(46.333984 0)"/>
      <use xlink:href="#DejaVuSans-61" transform="translate(87.447266 0)"/>
      <use xlink:href="#DejaVuSans-69" transform="translate(148.726562 0)"/>
      <use xlink:href="#DejaVuSans-6e" transform="translate(176.509766 0)"/>
      <use xlink:href="#DejaVuSans-69" transform="translate(239.888672 0)"/>
      <use xlink:href="#DejaVuSans-6e" transform="translate(267.671875 0)"/>
      <use xlink:href="#DejaVuSans-67" transform="translate(331.050781 0)"/>
      <use xlink:href="#DejaVuSans-2d" transform="translate(394.527344 0)"/>
      <use xlink:href="#DejaVuSans-54" transform="translate(421.486328 0)"/>
      <use xlink:href="#DejaVuSans-61" transform="translate(466.070312 0)"/>
      <use xlink:href="#DejaVuSans-72" transform="translate(527.349609 0)"/>
      <use xlink:href="#DejaVuSans-67" transform="translate(566.712891 0)"/>
      <use xlink:href="#DejaVuSans-65" transform="translate(630.189453 0)"/>
      <use xlink:href="#DejaVuSans-74" transform="translate(691.712891 0)"/>
     </g>
    </g>
    <g id="line2d_17">
     <path d="M 99 188.398438 
L 109 188.398438 
L 119 188.398438 
" style="fill: none; stroke: #2ca02c; stroke-width: 1.5; stroke-linecap: square"/>
    </g>
    <g id="text_16">
     <!-- Validating-Source -->
     <g transform="translate(127 191.898438) scale(0.1 -0.1)">
      <use xlink:href="#DejaVuSans-56"/>
      <use xlink:href="#DejaVuSans-61" transform="translate(60.658203 0)"/>
      <use xlink:href="#DejaVuSans-6c" transform="translate(121.9375 0)"/>
      <use xlink:href="#DejaVuSans-69" transform="translate(149.720703 0)"/>
      <use xlink:href="#DejaVuSans-64" transform="translate(177.503906 0)"/>
      <use xlink:href="#DejaVuSans-61" transform="translate(240.980469 0)"/>
      <use xlink:href="#DejaVuSans-74" transform="translate(302.259766 0)"/>
      <use xlink:href="#DejaVuSans-69" transform="translate(341.46875 0)"/>
      <use xlink:href="#DejaVuSans-6e" transform="translate(369.251953 0)"/>
      <use xlink:href="#DejaVuSans-67" transform="translate(432.630859 0)"/>
      <use xlink:href="#DejaVuSans-2d" transform="translate(496.107422 0)"/>
      <use xlink:href="#DejaVuSans-53" transform="translate(532.191406 0)"/>
      <use xlink:href="#DejaVuSans-6f" transform="translate(595.667969 0)"/>
      <use xlink:href="#DejaVuSans-75" transform="translate(656.849609 0)"/>
      <use xlink:href="#DejaVuSans-72" transform="translate(720.228516 0)"/>
      <use xlink:href="#DejaVuSans-63" transform="translate(759.091797 0)"/>
      <use xlink:href="#DejaVuSans-65" transform="translate(814.072266 0)"/>
     </g>
    </g>
    <g id="line2d_18">
     <path d="M 99 203.076563 
L 109 203.076563 
L 119 203.076563 
" style="fill: none; stroke: #d62728; stroke-width: 1.5; stroke-linecap: square"/>
    </g>
    <g id="text_17">
     <!-- Validating-Target -->
     <g transform="translate(127 206.576563) scale(0.1 -0.1)">
      <use xlink:href="#DejaVuSans-56"/>
      <use xlink:href="#DejaVuSans-61" transform="translate(60.658203 0)"/>
      <use xlink:href="#DejaVuSans-6c" transform="translate(121.9375 0)"/>
      <use xlink:href="#DejaVuSans-69" transform="translate(149.720703 0)"/>
      <use xlink:href="#DejaVuSans-64" transform="translate(177.503906 0)"/>
      <use xlink:href="#DejaVuSans-61" transform="translate(240.980469 0)"/>
      <use xlink:href="#DejaVuSans-74" transform="translate(302.259766 0)"/>
      <use xlink:href="#DejaVuSans-69" transform="translate(341.46875 0)"/>
      <use xlink:href="#DejaVuSans-6e" transform="translate(369.251953 0)"/>
      <use xlink:href="#DejaVuSans-67" transform="translate(432.630859 0)"/>
      <use xlink:href="#DejaVuSans-2d" transform="translate(496.107422 0)"/>
      <use xlink:href="#DejaVuSans-54" transform="translate(523.066406 0)"/>
      <use xlink:href="#DejaVuSans-61" transform="translate(567.650391 0)"/>
      <use xlink:href="#DejaVuSans-72" transform="translate(628.929688 0)"/>
      <use xlink:href="#DejaVuSans-67" transform="translate(668.292969 0)"/>
      <use xlink:href="#DejaVuSans-65" transform="translate(731.769531 0)"/>
      <use xlink:href="#DejaVuSans-74" transform="translate(793.292969 0)"/>
     </g>
    </g>
   </g>
  </g>
 </g>
 <defs>
  <clipPath id="pcfafa41bf9">
   <rect x="90" y="43.2" width="558" height="277.2"/>
  </clipPath>
 </defs>
</svg>
