<?xml version="1.0" encoding="utf-8" standalone="no"?>
<!DOCTYPE svg PUBLIC "-//W3C//DTD SVG 1.1//EN"
  "http://www.w3.org/Graphics/SVG/1.1/DTD/svg11.dtd">
<svg xmlns:xlink="http://www.w3.org/1999/xlink" width="720pt" height="360pt" viewBox="0 0 720 360" xmlns="http://www.w3.org/2000/svg" version="1.1">
 <metadata>
  <rdf:RDF xmlns:dc="http://purl.org/dc/elements/1.1/" xmlns:cc="http://creativecommons.org/ns#" xmlns:rdf="http://www.w3.org/1999/02/22-rdf-syntax-ns#">
   <cc:Work>
    <dc:type rdf:resource="http://purl.org/dc/dcmitype/StillImage"/>
    <dc:date>2025-12-16T20:30:28.532823</dc:date>
    <dc:format>image/svg+xml</dc:format>
    <dc:creator>
     <cc:Agent>
      <dc:title>Matplotlib v3.10.1, https://matplotlib.org/</dc:title>
     </cc:Agent>
    </dc:creator>
   </cc:Work>
  </rdf:RDF>
 </metadata>
 <defs>
  <style type="text/css">*{stroke-linejoin: round; stroke-linecap: butt}</style>
 </defs>
 <g id="figure_1">
  <g id="patch_1">
   <path d="M 0 360 
L 720 360 
L 720 0 
L 0 0 
z
" style="fill: #ffffff"/>
  </g>
  <g id="axes_1">
   <g id="patch_2">
    <path d="M 90 320.4 
L 648 320.4 
L 648 43.2 
L 90 43.2 
z
" style="fill: #ffffff"/>
   </g>
   <g id="matplotlib.axis_1">
    <g id="xtick_1">
     <g id="line2d_1">
      <defs>
       <path id="m517e010f95" d="M 0 0 
L 0 3.5 
" style="stroke: #000000; stroke-width: 0.8"/>
      </defs>
      <g>
       <use xlink:href="#m517e010f95" x="115.363636" y="320.4" style="stroke: #000000; stroke-width: 0.8"/>
      </g>
     </g>
     <g id="text_1">
      <!-- 0 -->
      <g transform="translate(112.182386 334.998438) scale(0.1 -0.1)">
       <defs>
        <path id="DejaVuSans-30" d="M 2034 4250 
Q 1547 4250 1301 3770 
Q 1056 3291 1056 2328 
Q 1056 1369 1301 889 
Q 1547 409 2034 409 
Q 2525 409 2770 889 
Q 3016 1369 3016 2328 
Q 3016 3291 2770 3770 
Q 2525 4250 2034 4250 
z
M 2034 4750 
Q 2819 4750 3233 4129 
Q 3647 3509 3647 2328 
Q 3647 1150 3233 529 
Q 2819 -91 2034 -91 
Q 1250 -91 836 529 
Q 422 1150 422 2328 
Q 422 3509 836 4129 
Q 1250 4750 2034 4750 
z
" transform="scale(0.015625)"/>
       </defs>
       <use xlink:href="#DejaVuSans-30"/>
      </g>
     </g>
    </g>
    <g id="xtick_2">
     <g id="line2d_2">
      <g>
       <use xlink:href="#m517e010f95" x="216.818182" y="320.4" style="stroke: #000000; stroke-width: 0.8"/>
      </g>
     </g>
     <g id="text_2">
      <!-- 40 -->
      <g transform="translate(210.455682 334.998438) scale(0.1 -0.1)">
       <defs>
        <path id="DejaVuSans-34" d="M 2419 4116 
L 825 1625 
L 2419 1625 
L 2419 4116 
z
M 2253 4666 
L 3047 4666 
L 3047 1625 
L 3713 1625 
L 3713 1100 
L 3047 1100 
L 3047 0 
L 2419 0 
L 2419 1100 
L 313 1100 
L 313 1709 
L 2253 4666 
z
" transform="scale(0.015625)"/>
       </defs>
       <use xlink:href="#DejaVuSans-34"/>
       <use xlink:href="#DejaVuSans-30" transform="translate(63.623047 0)"/>
      </g>
     </g>
    </g>
    <g id="xtick_3">
     <g id="line2d_3">
      <g>
       <use xlink:href="#m517e010f95" x="318.272727" y="320.4" style="stroke: #000000; stroke-width: 0.8"/>
      </g>
     </g>
     <g id="text_3">
      <!-- 80 -->
      <g transform="translate(311.910227 334.998438) scale(0.1 -0.1)">
       <defs>
        <path id="DejaVuSans-38" d="M 2034 2216 
Q 1584 2216 1326 1975 
Q 1069 1734 1069 1313 
Q 1069 891 1326 650 
Q 1584 409 2034 409 
Q 2484 409 2743 651 
Q 3003 894 3003 1313 
Q 3003 1734 2745 1975 
Q 2488 2216 2034 2216 
z
M 1403 2484 
Q 997 2584 770 2862 
Q 544 3141 544 3541 
Q 544 4100 942 4425 
Q 1341 4750 2034 4750 
Q 2731 4750 3128 4425 
Q 3525 4100 3525 3541 
Q 3525 3141 3298 2862 
Q 3072 2584 2669 2484 
Q 3125 2378 3379 2068 
Q 3634 1759 3634 1313 
Q 3634 634 3220 271 
Q 2806 -91 2034 -91 
Q 1263 -91 848 271 
Q 434 634 434 1313 
Q 434 1759 690 2068 
Q 947 2378 1403 2484 
z
M 1172 3481 
Q 1172 3119 1398 2916 
Q 1625 2713 2034 2713 
Q 2441 2713 2670 2916 
Q 2900 3119 2900 3481 
Q 2900 3844 2670 4047 
Q 2441 4250 2034 4250 
Q 1625 4250 1398 4047 
Q 1172 3844 1172 3481 
z
" transform="scale(0.015625)"/>
       </defs>
       <use xlink:href="#DejaVuSans-38"/>
       <use xlink:href="#DejaVuSans-30" transform="translate(63.623047 0)"/>
      </g>
     </g>
    </g>
    <g id="xtick_4">
     <g id="line2d_4">
      <g>
       <use xlink:href="#m517e010f95" x="419.727273" y="320.4" style="stroke: #000000; stroke-width: 0.8"/>
      </g>
     </g>
     <g id="text_4">
      <!-- 120 -->
      <g transform="translate(410.183523 334.998438) scale(0.1 -0.1)">
       <defs>
        <path id="DejaVuSans-31" d="M 794 531 
L 1825 531 
L 1825 4091 
L 703 3866 
L 703 4441 
L 1819 4666 
L 2450 4666 
L 2450 531 
L 3481 531 
L 3481 0 
L 794 0 
L 794 531 
z
" transform="scale(0.015625)"/>
        <path id="DejaVuSans-32" d="M 1228 531 
L 3431 531 
L 3431 0 
L 469 0 
L 469 531 
Q 828 903 1448 1529 
Q 2069 2156 2228 2338 
Q 2531 2678 2651 2914 
Q 2772 3150 2772 3378 
Q 2772 3750 2511 3984 
Q 2250 4219 1831 4219 
Q 1534 4219 1204 4116 
Q 875 4013 500 3803 
L 500 4441 
Q 881 4594 1212 4672 
Q 1544 4750 1819 4750 
Q 2544 4750 2975 4387 
Q 3406 4025 3406 3419 
Q 3406 3131 3298 2873 
Q 3191 2616 2906 2266 
Q 2828 2175 2409 1742 
Q 1991 1309 1228 531 
z
" transform="scale(0.015625)"/>
       </defs>
       <use xlink:href="#DejaVuSans-31"/>
       <use xlink:href="#DejaVuSans-32" transform="translate(63.623047 0)"/>
       <use xlink:href="#DejaVuSans-30" transform="translate(127.246094 0)"/>
      </g>
     </g>
    </g>
    <g id="xtick_5">
     <g id="line2d_5">
      <g>
       <use xlink:href="#m517e010f95" x="521.181818" y="320.4" style="stroke: #000000; stroke-width: 0.8"/>
      </g>
     </g>
     <g id="text_5">
      <!-- 160 -->
      <g transform="translate(511.638068 334.998438) scale(0.1 -0.1)">
       <defs>
        <path id="DejaVuSans-36" d="M 2113 2584 
Q 1688 2584 1439 2293 
Q 1191 2003 1191 1497 
Q 1191 994 1439 701 
Q 1688 409 2113 409 
Q 2538 409 2786 701 
Q 3034 994 3034 1497 
Q 3034 2003 2786 2293 
Q 2538 2584 2113 2584 
z
M 3366 4563 
L 3366 3988 
Q 3128 4100 2886 4159 
Q 2644 4219 2406 4219 
Q 1781 4219 1451 3797 
Q 1122 3375 1075 2522 
Q 1259 2794 1537 2939 
Q 1816 3084 2150 3084 
Q 2853 3084 3261 2657 
Q 3669 2231 3669 1497 
Q 3669 778 3244 343 
Q 2819 -91 2113 -91 
Q 1303 -91 875 529 
Q 447 1150 447 2328 
Q 447 3434 972 4092 
Q 1497 4750 2381 4750 
Q 2619 4750 2861 4703 
Q 3103 4656 3366 4563 
z
" transform="scale(0.015625)"/>
       </defs>
       <use xlink:href="#DejaVuSans-31"/>
       <use xlink:href="#DejaVuSans-36" transform="translate(63.623047 0)"/>
       <use xlink:href="#DejaVuSans-30" transform="translate(127.246094 0)"/>
      </g>
     </g>
    </g>
    <g id="xtick_6">
     <g id="line2d_6">
      <g>
       <use xlink:href="#m517e010f95" x="622.636364" y="320.4" style="stroke: #000000; stroke-width: 0.8"/>
      </g>
     </g>
     <g id="text_6">
      <!-- 200 -->
      <g transform="translate(613.092614 334.998438) scale(0.1 -0.1)">
       <use xlink:href="#DejaVuSans-32"/>
       <use xlink:href="#DejaVuSans-30" transform="translate(63.623047 0)"/>
       <use xlink:href="#DejaVuSans-30" transform="translate(127.246094 0)"/>
      </g>
     </g>
    </g>
    <g id="text_7">
     <!-- Epoch -->
     <g transform="translate(353.689062 348.676562) scale(0.1 -0.1)">
      <defs>
       <path id="DejaVuSans-45" d="M 628 4666 
L 3578 4666 
L 3578 4134 
L 1259 4134 
L 1259 2753 
L 3481 2753 
L 3481 2222 
L 1259 2222 
L 1259 531 
L 3634 531 
L 3634 0 
L 628 0 
L 628 4666 
z
" transform="scale(0.015625)"/>
       <path id="DejaVuSans-70" d="M 1159 525 
L 1159 -1331 
L 581 -1331 
L 581 3500 
L 1159 3500 
L 1159 2969 
Q 1341 3281 1617 3432 
Q 1894 3584 2278 3584 
Q 2916 3584 3314 3078 
Q 3713 2572 3713 1747 
Q 3713 922 3314 415 
Q 2916 -91 2278 -91 
Q 1894 -91 1617 61 
Q 1341 213 1159 525 
z
M 3116 1747 
Q 3116 2381 2855 2742 
Q 2594 3103 2138 3103 
Q 1681 3103 1420 2742 
Q 1159 2381 1159 1747 
Q 1159 1113 1420 752 
Q 1681 391 2138 391 
Q 2594 391 2855 752 
Q 3116 1113 3116 1747 
z
" transform="scale(0.015625)"/>
       <path id="DejaVuSans-6f" d="M 1959 3097 
Q 1497 3097 1228 2736 
Q 959 2375 959 1747 
Q 959 1119 1226 758 
Q 1494 397 1959 397 
Q 2419 397 2687 759 
Q 2956 1122 2956 1747 
Q 2956 2369 2687 2733 
Q 2419 3097 1959 3097 
z
M 1959 3584 
Q 2709 3584 3137 3096 
Q 3566 2609 3566 1747 
Q 3566 888 3137 398 
Q 2709 -91 1959 -91 
Q 1206 -91 779 398 
Q 353 888 353 1747 
Q 353 2609 779 3096 
Q 1206 3584 1959 3584 
z
" transform="scale(0.015625)"/>
       <path id="DejaVuSans-63" d="M 3122 3366 
L 3122 2828 
Q 2878 2963 2633 3030 
Q 2388 3097 2138 3097 
Q 1578 3097 1268 2742 
Q 959 2388 959 1747 
Q 959 1106 1268 751 
Q 1578 397 2138 397 
Q 2388 397 2633 464 
Q 2878 531 3122 666 
L 3122 134 
Q 2881 22 2623 -34 
Q 2366 -91 2075 -91 
Q 1284 -91 818 406 
Q 353 903 353 1747 
Q 353 2603 823 3093 
Q 1294 3584 2113 3584 
Q 2378 3584 2631 3529 
Q 2884 3475 3122 3366 
z
" transform="scale(0.015625)"/>
       <path id="DejaVuSans-68" d="M 3513 2113 
L 3513 0 
L 2938 0 
L 2938 2094 
Q 2938 2591 2744 2837 
Q 2550 3084 2163 3084 
Q 1697 3084 1428 2787 
Q 1159 2491 1159 1978 
L 1159 0 
L 581 0 
L 581 4863 
L 1159 4863 
L 1159 2956 
Q 1366 3272 1645 3428 
Q 1925 3584 2291 3584 
Q 2894 3584 3203 3211 
Q 3513 2838 3513 2113 
z
" transform="scale(0.015625)"/>
      </defs>
      <use xlink:href="#DejaVuSans-45"/>
      <use xlink:href="#DejaVuSans-70" transform="translate(63.183594 0)"/>
      <use xlink:href="#DejaVuSans-6f" transform="translate(126.660156 0)"/>
      <use xlink:href="#DejaVuSans-63" transform="translate(187.841797 0)"/>
      <use xlink:href="#DejaVuSans-68" transform="translate(242.822266 0)"/>
     </g>
    </g>
   </g>
   <g id="matplotlib.axis_2">
    <g id="ytick_1">
     <g id="line2d_7">
      <defs>
       <path id="md0b4f7fee1" d="M 0 0 
L -3.5 0 
" style="stroke: #000000; stroke-width: 0.8"/>
      </defs>
      <g>
       <use xlink:href="#md0b4f7fee1" x="90" y="307.936048" style="stroke: #000000; stroke-width: 0.8"/>
      </g>
     </g>
     <g id="text_8">
      <!-- 0.00 -->
      <g transform="translate(60.734375 311.735267) scale(0.1 -0.1)">
       <defs>
        <path id="DejaVuSans-2e" d="M 684 794 
L 1344 794 
L 1344 0 
L 684 0 
L 684 794 
z
" transform="scale(0.015625)"/>
       </defs>
       <use xlink:href="#DejaVuSans-30"/>
       <use xlink:href="#DejaVuSans-2e" transform="translate(63.623047 0)"/>
       <use xlink:href="#DejaVuSans-30" transform="translate(95.410156 0)"/>
       <use xlink:href="#DejaVuSans-30" transform="translate(159.033203 0)"/>
      </g>
     </g>
    </g>
    <g id="ytick_2">
     <g id="line2d_8">
      <g>
       <use xlink:href="#md0b4f7fee1" x="90" y="261.788935" style="stroke: #000000; stroke-width: 0.8"/>
      </g>
     </g>
     <g id="text_9">
      <!-- 0.02 -->
      <g transform="translate(60.734375 265.588154) scale(0.1 -0.1)">
       <use xlink:href="#DejaVuSans-30"/>
       <use xlink:href="#DejaVuSans-2e" transform="translate(63.623047 0)"/>
       <use xlink:href="#DejaVuSans-30" transform="translate(95.410156 0)"/>
       <use xlink:href="#DejaVuSans-32" transform="translate(159.033203 0)"/>
      </g>
     </g>
    </g>
    <g id="ytick_3">
     <g id="line2d_9">
      <g>
       <use xlink:href="#md0b4f7fee1" x="90" y="215.641822" style="stroke: #000000; stroke-width: 0.8"/>
      </g>
     </g>
     <g id="text_10">
      <!-- 0.04 -->
      <g transform="translate(60.734375 219.44104) scale(0.1 -0.1)">
       <use xlink:href="#DejaVuSans-30"/>
       <use xlink:href="#DejaVuSans-2e" transform="translate(63.623047 0)"/>
       <use xlink:href="#DejaVuSans-30" transform="translate(95.410156 0)"/>
       <use xlink:href="#DejaVuSans-34" transform="translate(159.033203 0)"/>
      </g>
     </g>
    </g>
    <g id="ytick_4">
     <g id="line2d_10">
      <g>
       <use xlink:href="#md0b4f7fee1" x="90" y="169.494708" style="stroke: #000000; stroke-width: 0.8"/>
      </g>
     </g>
     <g id="text_11">
      <!-- 0.06 -->
      <g transform="translate(60.734375 173.293927) scale(0.1 -0.1)">
       <use xlink:href="#DejaVuSans-30"/>
       <use xlink:href="#DejaVuSans-2e" transform="translate(63.623047 0)"/>
       <use xlink:href="#DejaVuSans-30" transform="translate(95.410156 0)"/>
       <use xlink:href="#DejaVuSans-36" transform="translate(159.033203 0)"/>
      </g>
     </g>
    </g>
    <g id="ytick_5">
     <g id="line2d_11">
      <g>
       <use xlink:href="#md0b4f7fee1" x="90" y="123.347595" style="stroke: #000000; stroke-width: 0.8"/>
      </g>
     </g>
     <g id="text_12">
      <!-- 0.08 -->
      <g transform="translate(60.734375 127.146814) scale(0.1 -0.1)">
       <use xlink:href="#DejaVuSans-30"/>
       <use xlink:href="#DejaVuSans-2e" transform="translate(63.623047 0)"/>
       <use xlink:href="#DejaVuSans-30" transform="translate(95.410156 0)"/>
       <use xlink:href="#DejaVuSans-38" transform="translate(159.033203 0)"/>
      </g>
     </g>
    </g>
    <g id="ytick_6">
     <g id="line2d_12">
      <g>
       <use xlink:href="#md0b4f7fee1" x="90" y="77.200482" style="stroke: #000000; stroke-width: 0.8"/>
      </g>
     </g>
     <g id="text_13">
      <!-- 0.10 -->
      <g transform="translate(60.734375 80.999701) scale(0.1 -0.1)">
       <use xlink:href="#DejaVuSans-30"/>
       <use xlink:href="#DejaVuSans-2e" transform="translate(63.623047 0)"/>
       <use xlink:href="#DejaVuSans-31" transform="translate(95.410156 0)"/>
       <use xlink:href="#DejaVuSans-30" transform="translate(159.033203 0)"/>
      </g>
     </g>
    </g>
    <g id="text_14">
     <!-- Estimation Loss -->
     <g transform="translate(54.654687 220.98125) rotate(-90) scale(0.1 -0.1)">
      <defs>
       <path id="DejaVuSans-73" d="M 2834 3397 
L 2834 2853 
Q 2591 2978 2328 3040 
Q 2066 3103 1784 3103 
Q 1356 3103 1142 2972 
Q 928 2841 928 2578 
Q 928 2378 1081 2264 
Q 1234 2150 1697 2047 
L 1894 2003 
Q 2506 1872 2764 1633 
Q 3022 1394 3022 966 
Q 3022 478 2636 193 
Q 2250 -91 1575 -91 
Q 1294 -91 989 -36 
Q 684 19 347 128 
L 347 722 
Q 666 556 975 473 
Q 1284 391 1588 391 
Q 1994 391 2212 530 
Q 2431 669 2431 922 
Q 2431 1156 2273 1281 
Q 2116 1406 1581 1522 
L 1381 1569 
Q 847 1681 609 1914 
Q 372 2147 372 2553 
Q 372 3047 722 3315 
Q 1072 3584 1716 3584 
Q 2034 3584 2315 3537 
Q 2597 3491 2834 3397 
z
" transform="scale(0.015625)"/>
       <path id="DejaVuSans-74" d="M 1172 4494 
L 1172 3500 
L 2356 3500 
L 2356 3053 
L 1172 3053 
L 1172 1153 
Q 1172 725 1289 603 
Q 1406 481 1766 481 
L 2356 481 
L 2356 0 
L 1766 0 
Q 1100 0 847 248 
Q 594 497 594 1153 
L 594 3053 
L 172 3053 
L 172 3500 
L 594 3500 
L 594 4494 
L 1172 4494 
z
" transform="scale(0.015625)"/>
       <path id="DejaVuSans-69" d="M 603 3500 
L 1178 3500 
L 1178 0 
L 603 0 
L 603 3500 
z
M 603 4863 
L 1178 4863 
L 1178 4134 
L 603 4134 
L 603 4863 
z
" transform="scale(0.015625)"/>
       <path id="DejaVuSans-6d" d="M 3328 2828 
Q 3544 3216 3844 3400 
Q 4144 3584 4550 3584 
Q 5097 3584 5394 3201 
Q 5691 2819 5691 2113 
L 5691 0 
L 5113 0 
L 5113 2094 
Q 5113 2597 4934 2840 
Q 4756 3084 4391 3084 
Q 3944 3084 3684 2787 
Q 3425 2491 3425 1978 
L 3425 0 
L 2847 0 
L 2847 2094 
Q 2847 2600 2669 2842 
Q 2491 3084 2119 3084 
Q 1678 3084 1418 2786 
Q 1159 2488 1159 1978 
L 1159 0 
L 581 0 
L 581 3500 
L 1159 3500 
L 1159 2956 
Q 1356 3278 1631 3431 
Q 1906 3584 2284 3584 
Q 2666 3584 2933 3390 
Q 3200 3197 3328 2828 
z
" transform="scale(0.015625)"/>
       <path id="DejaVuSans-61" d="M 2194 1759 
Q 1497 1759 1228 1600 
Q 959 1441 959 1056 
Q 959 750 1161 570 
Q 1363 391 1709 391 
Q 2188 391 2477 730 
Q 2766 1069 2766 1631 
L 2766 1759 
L 2194 1759 
z
M 3341 1997 
L 3341 0 
L 2766 0 
L 2766 531 
Q 2569 213 2275 61 
Q 1981 -91 1556 -91 
Q 1019 -91 701 211 
Q 384 513 384 1019 
Q 384 1609 779 1909 
Q 1175 2209 1959 2209 
L 2766 2209 
L 2766 2266 
Q 2766 2663 2505 2880 
Q 2244 3097 1772 3097 
Q 1472 3097 1187 3025 
Q 903 2953 641 2809 
L 641 3341 
Q 956 3463 1253 3523 
Q 1550 3584 1831 3584 
Q 2591 3584 2966 3190 
Q 3341 2797 3341 1997 
z
" transform="scale(0.015625)"/>
       <path id="DejaVuSans-6e" d="M 3513 2113 
L 3513 0 
L 2938 0 
L 2938 2094 
Q 2938 2591 2744 2837 
Q 2550 3084 2163 3084 
Q 1697 3084 1428 2787 
Q 1159 2491 1159 1978 
L 1159 0 
L 581 0 
L 581 3500 
L 1159 3500 
L 1159 2956 
Q 1366 3272 1645 3428 
Q 1925 3584 2291 3584 
Q 2894 3584 3203 3211 
Q 3513 2838 3513 2113 
z
" transform="scale(0.015625)"/>
       <path id="DejaVuSans-20" transform="scale(0.015625)"/>
       <path id="DejaVuSans-4c" d="M 628 4666 
L 1259 4666 
L 1259 531 
L 3531 531 
L 3531 0 
L 628 0 
L 628 4666 
z
" transform="scale(0.015625)"/>
      </defs>
      <use xlink:href="#DejaVuSans-45"/>
      <use xlink:href="#DejaVuSans-73" transform="translate(63.183594 0)"/>
      <use xlink:href="#DejaVuSans-74" transform="translate(115.283203 0)"/>
      <use xlink:href="#DejaVuSans-69" transform="translate(154.492188 0)"/>
      <use xlink:href="#DejaVuSans-6d" transform="translate(182.275391 0)"/>
      <use xlink:href="#DejaVuSans-61" transform="translate(279.6875 0)"/>
      <use xlink:href="#DejaVuSans-74" transform="translate(340.966797 0)"/>
      <use xlink:href="#DejaVuSans-69" transform="translate(380.175781 0)"/>
      <use xlink:href="#DejaVuSans-6f" transform="translate(407.958984 0)"/>
      <use xlink:href="#DejaVuSans-6e" transform="translate(469.140625 0)"/>
      <use xlink:href="#DejaVuSans-20" transform="translate(532.519531 0)"/>
      <use xlink:href="#DejaVuSans-4c" transform="translate(564.306641 0)"/>
      <use xlink:href="#DejaVuSans-6f" transform="translate(618.269531 0)"/>
      <use xlink:href="#DejaVuSans-73" transform="translate(679.451172 0)"/>
      <use xlink:href="#DejaVuSans-73" transform="translate(731.550781 0)"/>
     </g>
    </g>
   </g>
   <g id="line2d_13">
    <path d="M 115.363636 121.678757 
L 117.9 288.637039 
L 120.436364 296.980706 
L 122.972727 300.26631 
L 125.509091 301.940136 
L 128.045455 303.108693 
L 130.581818 303.893297 
L 135.654545 304.926238 
L 138.190909 305.301059 
L 145.8 305.983385 
L 158.481818 306.5939 
L 173.7 306.945062 
L 186.381818 307.136973 
L 214.281818 307.373277 
L 252.327273 307.5072 
L 270.081818 307.56259 
L 285.3 307.592425 
L 318.272727 307.616348 
L 328.418182 307.637601 
L 369 307.692079 
L 394.363636 307.698253 
L 409.581818 307.715157 
L 442.554545 307.73551 
L 592.2 307.795848 
L 622.636364 307.796246 
L 622.636364 307.796246 
" clip-path="url(#p3d6e12fdf6)" style="fill: none; stroke: #1f77b4; stroke-width: 1.5; stroke-linecap: square"/>
   </g>
   <g id="line2d_14">
    <path d="M 115.363636 55.8 
L 117.9 231.520074 
L 120.436364 241.921358 
L 122.972727 246.37908 
L 125.509091 248.376318 
L 128.045455 250.101247 
L 130.581818 251.311478 
L 133.118182 251.842048 
L 135.654545 252.515853 
L 138.190909 253.031161 
L 140.727273 253.376886 
L 150.872727 253.432491 
L 161.018182 252.669301 
L 163.554545 251.864899 
L 166.090909 252.090554 
L 168.627273 251.146859 
L 171.163636 251.288433 
L 173.7 250.737275 
L 176.236364 250.492819 
L 178.772727 249.417893 
L 181.309091 250.030718 
L 183.845455 249.219815 
L 186.381818 248.929436 
L 188.918182 247.965873 
L 191.454545 248.352665 
L 193.990909 247.103591 
L 196.527273 247.374038 
L 199.063636 246.66158 
L 201.6 246.334424 
L 204.136364 245.713686 
L 206.672727 245.848679 
L 209.209091 244.246427 
L 211.745455 245.356779 
L 214.281818 243.460631 
L 216.818182 243.928807 
L 219.354545 242.101696 
L 221.890909 242.868038 
L 224.427273 241.331891 
L 226.963636 241.250797 
L 229.5 240.234028 
L 232.036364 239.963008 
L 234.572727 238.625801 
L 237.109091 238.93386 
L 239.645455 236.993971 
L 242.181818 237.88955 
L 244.718182 235.553198 
L 247.254545 235.519015 
L 249.790909 233.703341 
L 252.327273 234.335456 
L 254.863636 231.971835 
L 257.4 232.07563 
L 259.936364 229.958758 
L 262.472727 230.046293 
L 265.009091 228.119265 
L 267.545455 227.17877 
L 270.081818 226.030172 
L 272.618182 224.729911 
L 275.154545 223.773478 
L 277.690909 221.678266 
L 280.227273 220.875191 
L 282.763636 219.152476 
L 285.3 218.115209 
L 287.836364 215.511569 
L 290.372727 214.00531 
L 292.909091 211.587528 
L 295.445455 212.807409 
L 297.981818 208.931378 
L 300.518182 207.179914 
L 303.054545 203.823348 
L 305.590909 203.54255 
L 308.127273 199.145949 
L 310.663636 196.35158 
L 313.2 194.02494 
L 315.736364 191.386194 
L 318.272727 190.166876 
L 320.809091 188.461558 
L 323.345455 184.113283 
L 325.881818 185.610191 
L 328.418182 179.54512 
L 330.954545 179.367931 
L 333.490909 176.240615 
L 336.027273 173.72202 
L 338.563636 171.497661 
L 341.1 168.16994 
L 343.636364 169.404523 
L 346.172727 165.949616 
L 348.709091 163.297509 
L 351.245455 162.006816 
L 353.781818 159.508182 
L 356.318182 159.609865 
L 358.854545 154.192833 
L 361.390909 152.497322 
L 363.927273 150.960162 
L 366.463636 152.747912 
L 369 145.402464 
L 371.536364 145.7068 
L 374.072727 142.888105 
L 376.609091 145.48938 
L 379.145455 141.616965 
L 381.681818 140.780978 
L 384.218182 138.486526 
L 386.754545 137.602261 
L 389.290909 135.246463 
L 394.363636 133.88167 
L 396.9 133.876115 
L 399.436364 131.399116 
L 401.972727 133.399035 
L 404.509091 127.802133 
L 407.045455 130.211819 
L 409.581818 124.435022 
L 412.118182 125.890142 
L 414.654545 123.954309 
L 417.190909 125.669845 
L 419.727273 122.344469 
L 422.263636 128.391372 
L 424.8 122.937623 
L 427.336364 128.683176 
L 429.872727 117.910674 
L 432.409091 118.445233 
L 434.945455 117.95949 
L 437.481818 119.618314 
L 440.018182 122.364027 
L 442.554545 117.887324 
L 445.090909 115.869972 
L 447.627273 115.014764 
L 452.7 114.505203 
L 455.236364 115.169019 
L 457.772727 113.270251 
L 460.309091 112.481464 
L 462.845455 111.474555 
L 465.381818 117.338657 
L 467.918182 109.906964 
L 470.454545 112.042619 
L 472.990909 110.950838 
L 475.527273 108.804875 
L 478.063636 108.202989 
L 480.6 124.890016 
L 483.136364 110.391555 
L 485.672727 106.725073 
L 488.209091 105.990239 
L 490.745455 104.862494 
L 493.281818 109.968361 
L 495.818182 106.552913 
L 498.354545 104.692241 
L 500.890909 106.078326 
L 503.427273 103.816464 
L 505.963636 114.944306 
L 508.5 103.132594 
L 511.036364 113.834046 
L 513.572727 106.87493 
L 516.109091 101.921266 
L 518.645455 102.86082 
L 521.181818 100.33975 
L 523.718182 103.851818 
L 526.254545 100.519373 
L 528.790909 101.073847 
L 531.327273 101.808934 
L 533.863636 102.231219 
L 536.4 101.147386 
L 538.936364 100.855095 
L 541.472727 102.20434 
L 544.009091 99.823548 
L 546.545455 102.007231 
L 549.081818 98.991783 
L 551.618182 98.739107 
L 554.154545 98.663152 
L 556.690909 101.563347 
L 559.227273 96.552391 
L 561.763636 99.495951 
L 564.3 97.844812 
L 566.836364 100.253741 
L 571.909091 98.136724 
L 574.445455 96.577356 
L 576.981818 97.344971 
L 579.518182 96.841001 
L 582.054545 97.253545 
L 584.590909 101.318993 
L 587.127273 97.281486 
L 589.663636 95.923756 
L 592.2 97.219376 
L 594.736364 99.327735 
L 597.272727 96.474569 
L 599.809091 95.450652 
L 602.345455 97.463888 
L 604.881818 95.05924 
L 607.418182 96.433877 
L 609.954545 96.180675 
L 612.490909 95.588331 
L 615.027273 95.700102 
L 617.563636 94.094618 
L 620.1 97.141043 
L 622.636364 94.348921 
L 622.636364 94.348921 
" clip-path="url(#p3d6e12fdf6)" style="fill: none; stroke: #ff7f0e; stroke-width: 1.5; stroke-linecap: square"/>
   </g>
   <g id="line2d_15">
    <path d="M 115.363636 284.474133 
L 117.9 296.973855 
L 120.436364 301.589304 
L 122.972727 302.761707 
L 125.509091 304.487896 
L 128.045455 303.02972 
L 130.581818 305.657051 
L 133.118182 306.407927 
L 138.190909 304.086052 
L 140.727273 306.053335 
L 145.8 306.598174 
L 148.336364 306.546766 
L 150.872727 306.263411 
L 153.409091 306.926198 
L 155.945455 307.226328 
L 158.481818 306.768081 
L 161.018182 307.000842 
L 163.554545 306.851756 
L 166.090909 306.515565 
L 168.627273 307.326894 
L 171.163636 307.231686 
L 173.7 306.750241 
L 176.236364 306.982358 
L 178.772727 306.914049 
L 181.309091 306.986123 
L 183.845455 307.439219 
L 186.381818 307.10262 
L 188.918182 307.306004 
L 191.454545 307.206348 
L 193.990909 307.29898 
L 196.527273 307.241124 
L 199.063636 306.877773 
L 204.136364 307.488278 
L 206.672727 307.33518 
L 209.209091 307.350691 
L 211.745455 307.509281 
L 216.818182 307.361169 
L 219.354545 307.324537 
L 221.890909 307.493832 
L 224.427273 307.392411 
L 226.963636 307.470611 
L 229.5 307.294992 
L 234.572727 307.45748 
L 237.109091 307.466058 
L 239.645455 307.330336 
L 244.718182 307.377893 
L 247.254545 307.287261 
L 252.327273 307.488046 
L 257.4 307.447827 
L 259.936364 307.536365 
L 262.472727 307.301477 
L 265.009091 307.439218 
L 270.081818 307.305845 
L 277.690909 307.615073 
L 282.763636 307.34319 
L 287.836364 307.545375 
L 308.127273 307.558043 
L 310.663636 307.13135 
L 313.2 307.452093 
L 320.809091 307.462658 
L 323.345455 307.282377 
L 325.881818 307.514325 
L 328.418182 307.391745 
L 330.954545 307.440849 
L 333.490909 307.217253 
L 336.027273 307.556548 
L 338.563636 307.219856 
L 343.636364 307.386736 
L 348.709091 307.306705 
L 353.781818 307.077395 
L 356.318182 307.268411 
L 358.854545 307.23977 
L 361.390909 306.810167 
L 363.927273 306.819109 
L 366.463636 307.213069 
L 369 306.827108 
L 371.536364 307.073617 
L 374.072727 306.67816 
L 376.609091 306.91729 
L 379.145455 307.029257 
L 384.218182 306.921164 
L 386.754545 306.979252 
L 389.290909 306.923549 
L 391.827273 307.072406 
L 394.363636 306.935887 
L 396.9 307.007057 
L 399.436364 306.949509 
L 404.509091 306.639276 
L 407.045455 307.115106 
L 412.118182 306.836719 
L 414.654545 306.993344 
L 417.190909 306.646787 
L 419.727273 306.761238 
L 422.263636 307.021248 
L 424.8 306.618428 
L 427.336364 307.075348 
L 429.872727 306.948829 
L 432.409091 307.0265 
L 437.481818 306.896296 
L 440.018182 306.907044 
L 442.554545 306.708321 
L 445.090909 307.124721 
L 447.627273 306.679449 
L 450.163636 306.526642 
L 452.7 306.877302 
L 455.236364 306.897618 
L 457.772727 307.299803 
L 460.309091 307.265346 
L 462.845455 306.685227 
L 465.381818 307.095524 
L 467.918182 306.701645 
L 470.454545 306.941036 
L 472.990909 306.872364 
L 475.527273 306.951022 
L 483.136364 306.90936 
L 488.209091 306.98631 
L 490.745455 306.837622 
L 493.281818 307.173023 
L 498.354545 306.772365 
L 500.890909 306.939224 
L 503.427273 306.867999 
L 505.963636 306.980915 
L 513.572727 306.983432 
L 516.109091 307.082631 
L 518.645455 306.957469 
L 521.181818 307.409215 
L 523.718182 306.899452 
L 526.254545 307.028459 
L 528.790909 307.580426 
L 531.327273 306.989406 
L 533.863636 306.950749 
L 536.4 307.6386 
L 538.936364 306.97711 
L 541.472727 306.949394 
L 544.009091 307.683096 
L 546.545455 306.994851 
L 549.081818 307.005061 
L 551.618182 307.587251 
L 554.154545 306.904858 
L 556.690909 307.093903 
L 559.227273 307.163137 
L 561.763636 307.583417 
L 564.3 307.046117 
L 566.836364 307.685709 
L 569.372727 306.990948 
L 571.909091 307.218794 
L 574.445455 306.994391 
L 576.981818 307.074759 
L 579.518182 306.914568 
L 582.054545 307.726048 
L 584.590909 307.629925 
L 587.127273 306.927661 
L 589.663636 306.952685 
L 592.2 307.715283 
L 597.272727 306.966756 
L 599.809091 307.724465 
L 602.345455 306.990393 
L 604.881818 307.691283 
L 607.418182 306.937509 
L 609.954545 307.697456 
L 612.490909 307.487389 
L 615.027273 307.09599 
L 617.563636 307.70179 
L 620.1 307.708539 
L 622.636364 307.196308 
L 622.636364 307.196308 
" clip-path="url(#p3d6e12fdf6)" style="fill: none; stroke: #2ca02c; stroke-width: 1.5; stroke-linecap: square"/>
   </g>
   <g id="line2d_16">
    <path d="M 115.363636 208.352073 
L 117.9 226.572679 
L 120.436364 233.122948 
L 125.509091 237.256586 
L 128.045455 236.678728 
L 130.581818 239.063781 
L 133.118182 239.547489 
L 135.654545 238.431308 
L 138.190909 237.969754 
L 140.727273 239.863335 
L 143.263636 239.29725 
L 145.8 239.469451 
L 150.872727 239.023503 
L 153.409091 238.640637 
L 155.945455 239.526743 
L 158.481818 238.553146 
L 161.018182 238.098075 
L 163.554545 237.948222 
L 166.090909 236.988515 
L 168.627273 236.923559 
L 173.7 235.968483 
L 176.236364 235.893049 
L 178.772727 235.049884 
L 181.309091 234.935593 
L 183.845455 235.320062 
L 186.381818 234.062538 
L 188.918182 233.690648 
L 191.454545 232.959922 
L 193.990909 233.092701 
L 196.527273 232.410027 
L 199.063636 232.194297 
L 201.6 231.35944 
L 204.136364 231.438274 
L 206.672727 231.144175 
L 209.209091 229.940232 
L 211.745455 229.927171 
L 214.281818 229.352747 
L 216.818182 229.196688 
L 219.354545 227.35186 
L 221.890909 227.375812 
L 224.427273 226.079306 
L 226.963636 226.359745 
L 229.5 225.966982 
L 232.036364 224.464569 
L 234.572727 223.102366 
L 237.109091 222.860456 
L 239.645455 221.859084 
L 242.181818 223.377194 
L 244.718182 218.952906 
L 247.254545 218.513074 
L 249.790909 217.199118 
L 252.327273 220.305781 
L 257.4 213.637204 
L 259.936364 213.508307 
L 262.472727 213.02803 
L 265.009091 211.688415 
L 267.545455 208.042486 
L 270.081818 208.057163 
L 272.618182 205.722346 
L 275.154545 205.864495 
L 277.690909 207.370231 
L 280.227273 202.754594 
L 282.763636 199.247362 
L 285.3 200.042021 
L 287.836364 199.282154 
L 290.372727 196.333219 
L 292.909091 198.324725 
L 295.445455 192.299601 
L 297.981818 193.540728 
L 300.518182 185.138096 
L 303.054545 186.721971 
L 305.590909 178.878248 
L 308.127273 183.523834 
L 310.663636 176.375943 
L 313.2 176.320056 
L 315.736364 170.196825 
L 318.272727 166.906801 
L 323.345455 163.323881 
L 325.881818 175.421695 
L 328.418182 157.022909 
L 330.954545 170.359595 
L 333.490909 146.451816 
L 336.027273 181.984639 
L 338.563636 142.408735 
L 341.1 143.601014 
L 343.636364 145.851839 
L 346.172727 142.584339 
L 348.709091 138.563169 
L 351.245455 139.487668 
L 353.781818 131.85159 
L 356.318182 133.72818 
L 358.854545 128.527415 
L 361.390909 130.455115 
L 363.927273 125.009796 
L 366.463636 134.583278 
L 369 122.898304 
L 371.536364 124.339492 
L 374.072727 120.99987 
L 376.609091 121.360367 
L 379.145455 123.171361 
L 381.681818 117.160005 
L 384.218182 118.206004 
L 386.754545 121.750679 
L 389.290909 114.036649 
L 391.827273 116.012924 
L 394.363636 108.822263 
L 396.9 112.321528 
L 399.436364 112.4171 
L 401.972727 111.694244 
L 404.509091 109.930929 
L 407.045455 109.103407 
L 409.581818 106.967756 
L 412.118182 105.232856 
L 414.654545 106.497266 
L 417.190909 107.076193 
L 419.727273 106.184895 
L 422.263636 110.762484 
L 424.8 101.194421 
L 427.336364 103.386145 
L 429.872727 101.498304 
L 432.409091 103.758522 
L 434.945455 101.852398 
L 437.481818 101.113935 
L 440.018182 98.031968 
L 442.554545 95.860788 
L 445.090909 95.098572 
L 447.627273 94.883639 
L 450.163636 96.31385 
L 452.7 99.556702 
L 455.236364 93.431396 
L 457.772727 102.11387 
L 460.309091 92.707736 
L 462.845455 94.966592 
L 465.381818 93.149962 
L 467.918182 89.528527 
L 470.454545 94.187432 
L 472.990909 94.690406 
L 475.527273 88.736149 
L 478.063636 89.226945 
L 480.6 90.428854 
L 483.136364 87.185487 
L 485.672727 88.353194 
L 488.209091 84.950839 
L 490.745455 91.18599 
L 493.281818 96.514679 
L 498.354545 82.747381 
L 500.890909 86.754678 
L 503.427273 86.375664 
L 505.963636 90.43785 
L 508.5 81.916842 
L 511.036364 83.52996 
L 513.572727 88.882921 
L 516.109091 89.688622 
L 518.645455 87.103585 
L 521.181818 99.17487 
L 523.718182 83.934879 
L 526.254545 88.671185 
L 528.790909 106.031231 
L 531.327273 87.72929 
L 533.863636 86.80298 
L 536.4 111.641525 
L 538.936364 87.315488 
L 541.472727 88.551666 
L 544.009091 109.14949 
L 546.545455 86.518773 
L 549.081818 86.292969 
L 551.618182 108.793538 
L 554.154545 79.604956 
L 556.690909 82.367788 
L 559.227273 83.902274 
L 561.763636 106.118205 
L 564.3 83.710836 
L 566.836364 117.296067 
L 569.372727 83.129285 
L 571.909091 95.720046 
L 574.445455 79.000304 
L 576.981818 85.166348 
L 579.518182 75.573555 
L 582.054545 137.272749 
L 584.590909 94.147517 
L 587.127273 83.333496 
L 589.663636 79.69589 
L 592.2 145.868775 
L 594.736364 81.392313 
L 597.272727 83.234006 
L 599.809091 125.85942 
L 602.345455 81.895596 
L 604.881818 121.513987 
L 607.418182 81.822537 
L 609.954545 110.028369 
L 612.490909 92.500556 
L 615.027273 82.266632 
L 617.563636 110.321755 
L 620.1 125.461155 
L 622.636364 79.542555 
L 622.636364 79.542555 
" clip-path="url(#p3d6e12fdf6)" style="fill: none; stroke: #d62728; stroke-width: 1.5; stroke-linecap: square"/>
   </g>
   <g id="patch_3">
    <path d="M 90 320.4 
L 90 43.2 
" style="fill: none; stroke: #000000; stroke-width: 0.8; stroke-linejoin: miter; stroke-linecap: square"/>
   </g>
   <g id="patch_4">
    <path d="M 648 320.4 
L 648 43.2 
" style="fill: none; stroke: #000000; stroke-width: 0.8; stroke-linejoin: miter; stroke-linecap: square"/>
   </g>
   <g id="patch_5">
    <path d="M 90 320.4 
L 648 320.4 
" style="fill: none; stroke: #000000; stroke-width: 0.8; stroke-linejoin: miter; stroke-linecap: square"/>
   </g>
   <g id="patch_6">
    <path d="M 90 43.2 
L 648 43.2 
" style="fill: none; stroke: #000000; stroke-width: 0.8; stroke-linejoin: miter; stroke-linecap: square"/>
   </g>
   <g id="text_15">
    <!-- Training and Validating Estimation Loss -->
    <g transform="translate(251.535937 37.2) scale(0.12 -0.12)">
     <defs>
      <path id="DejaVuSans-54" d="M -19 4666 
L 3928 4666 
L 3928 4134 
L 2272 4134 
L 2272 0 
L 1638 0 
L 1638 4134 
L -19 4134 
L -19 4666 
z
" transform="scale(0.015625)"/>
      <path id="DejaVuSans-72" d="M 2631 2963 
Q 2534 3019 2420 3045 
Q 2306 3072 2169 3072 
Q 1681 3072 1420 2755 
Q 1159 2438 1159 1844 
L 1159 0 
L 581 0 
L 581 3500 
L 1159 3500 
L 1159 2956 
Q 1341 3275 1631 3429 
Q 1922 3584 2338 3584 
Q 2397 3584 2469 3576 
Q 2541 3569 2628 3553 
L 2631 2963 
z
" transform="scale(0.015625)"/>
      <path id="DejaVuSans-67" d="M 2906 1791 
Q 2906 2416 2648 2759 
Q 2391 3103 1925 3103 
Q 1463 3103 1205 2759 
Q 947 2416 947 1791 
Q 947 1169 1205 825 
Q 1463 481 1925 481 
Q 2391 481 2648 825 
Q 2906 1169 2906 1791 
z
M 3481 434 
Q 3481 -459 3084 -895 
Q 2688 -1331 1869 -1331 
Q 1566 -1331 1297 -1286 
Q 1028 -1241 775 -1147 
L 775 -588 
Q 1028 -725 1275 -790 
Q 1522 -856 1778 -856 
Q 2344 -856 2625 -561 
Q 2906 -266 2906 331 
L 2906 616 
Q 2728 306 2450 153 
Q 2172 0 1784 0 
Q 1141 0 747 490 
Q 353 981 353 1791 
Q 353 2603 747 3093 
Q 1141 3584 1784 3584 
Q 2172 3584 2450 3431 
Q 2728 3278 2906 2969 
L 2906 3500 
L 3481 3500 
L 3481 434 
z
" transform="scale(0.015625)"/>
      <path id="DejaVuSans-64" d="M 2906 2969 
L 2906 4863 
L 3481 4863 
L 3481 0 
L 2906 0 
L 2906 525 
Q 2725 213 2448 61 
Q 2172 -91 1784 -91 
Q 1150 -91 751 415 
Q 353 922 353 1747 
Q 353 2572 751 3078 
Q 1150 3584 1784 3584 
Q 2172 3584 2448 3432 
Q 2725 3281 2906 2969 
z
M 947 1747 
Q 947 1113 1208 752 
Q 1469 391 1925 391 
Q 2381 391 2643 752 
Q 2906 1113 2906 1747 
Q 2906 2381 2643 2742 
Q 2381 3103 1925 3103 
Q 1469 3103 1208 2742 
Q 947 2381 947 1747 
z
" transform="scale(0.015625)"/>
      <path id="DejaVuSans-56" d="M 1831 0 
L 50 4666 
L 709 4666 
L 2188 738 
L 3669 4666 
L 4325 4666 
L 2547 0 
L 1831 0 
z
" transform="scale(0.015625)"/>
      <path id="DejaVuSans-6c" d="M 603 4863 
L 1178 4863 
L 1178 0 
L 603 0 
L 603 4863 
z
" transform="scale(0.015625)"/>
     </defs>
     <use xlink:href="#DejaVuSans-54"/>
     <use xlink:href="#DejaVuSans-72" transform="translate(46.333984 0)"/>
     <use xlink:href="#DejaVuSans-61" transform="translate(87.447266 0)"/>
     <use xlink:href="#DejaVuSans-69" transform="translate(148.726562 0)"/>
     <use xlink:href="#DejaVuSans-6e" transform="translate(176.509766 0)"/>
     <use xlink:href="#DejaVuSans-69" transform="translate(239.888672 0)"/>
     <use xlink:href="#DejaVuSans-6e" transform="translate(267.671875 0)"/>
     <use xlink:href="#DejaVuSans-67" transform="translate(331.050781 0)"/>
     <use xlink:href="#DejaVuSans-20" transform="translate(394.527344 0)"/>
     <use xlink:href="#DejaVuSans-61" transform="translate(426.314453 0)"/>
     <use xlink:href="#DejaVuSans-6e" transform="translate(487.59375 0)"/>
     <use xlink:href="#DejaVuSans-64" transform="translate(550.972656 0)"/>
     <use xlink:href="#DejaVuSans-20" transform="translate(614.449219 0)"/>
     <use xlink:href="#DejaVuSans-56" transform="translate(646.236328 0)"/>
     <use xlink:href="#DejaVuSans-61" transform="translate(706.894531 0)"/>
     <use xlink:href="#DejaVuSans-6c" transform="translate(768.173828 0)"/>
     <use xlink:href="#DejaVuSans-69" transform="translate(795.957031 0)"/>
     <use xlink:href="#DejaVuSans-64" transform="translate(823.740234 0)"/>
     <use xlink:href="#DejaVuSans-61" transform="translate(887.216797 0)"/>
     <use xlink:href="#DejaVuSans-74" transform="translate(948.496094 0)"/>
     <use xlink:href="#DejaVuSans-69" transform="translate(987.705078 0)"/>
     <use xlink:href="#DejaVuSans-6e" transform="translate(1015.488281 0)"/>
     <use xlink:href="#DejaVuSans-67" transform="translate(1078.867188 0)"/>
     <use xlink:href="#DejaVuSans-20" transform="translate(1142.34375 0)"/>
     <use xlink:href="#DejaVuSans-45" transform="translate(1174.130859 0)"/>
     <use xlink:href="#DejaVuSans-73" transform="translate(1237.314453 0)"/>
     <use xlink:href="#DejaVuSans-74" transform="translate(1289.414062 0)"/>
     <use xlink:href="#DejaVuSans-69" transform="translate(1328.623047 0)"/>
     <use xlink:href="#DejaVuSans-6d" transform="translate(1356.40625 0)"/>
     <use xlink:href="#DejaVuSans-61" transform="translate(1453.818359 0)"/>
     <use xlink:href="#DejaVuSans-74" transform="translate(1515.097656 0)"/>
     <use xlink:href="#DejaVuSans-69" transform="translate(1554.306641 0)"/>
     <use xlink:href="#DejaVuSans-6f" transform="translate(1582.089844 0)"/>
     <use xlink:href="#DejaVuSans-6e" transform="translate(1643.271484 0)"/>
     <use xlink:href="#DejaVuSans-20" transform="translate(1706.650391 0)"/>
     <use xlink:href="#DejaVuSans-4c" transform="translate(1738.4375 0)"/>
     <use xlink:href="#DejaVuSans-6f" transform="translate(1792.400391 0)"/>
     <use xlink:href="#DejaVuSans-73" transform="translate(1853.582031 0)"/>
     <use xlink:href="#DejaVuSans-73" transform="translate(1905.681641 0)"/>
    </g>
   </g>
   <g id="legend_1">
    <g id="patch_7">
     <path d="M 521.439062 212.65625 
L 641 212.65625 
Q 643 212.65625 643 210.65625 
L 643 152.94375 
Q 643 150.94375 641 150.94375 
L 521.439062 150.94375 
Q 519.439062 150.94375 519.439062 152.94375 
L 519.439062 210.65625 
Q 519.439062 212.65625 521.439062 212.65625 
z
" style="fill: #ffffff; opacity: 0.8; stroke: #cccccc; stroke-linejoin: miter"/>
    </g>
    <g id="line2d_17">
     <path d="M 523.439062 159.042188 
L 533.439062 159.042188 
L 543.439062 159.042188 
" style="fill: none; stroke: #1f77b4; stroke-width: 1.5; stroke-linecap: square"/>
    </g>
    <g id="text_16">
     <!-- Training-Source -->
     <g transform="translate(551.439062 162.542188) scale(0.1 -0.1)">
      <defs>
       <path id="DejaVuSans-2d" d="M 313 2009 
L 1997 2009 
L 1997 1497 
L 313 1497 
L 313 2009 
z
" transform="scale(0.015625)"/>
       <path id="DejaVuSans-53" d="M 3425 4513 
L 3425 3897 
Q 3066 4069 2747 4153 
Q 2428 4238 2131 4238 
Q 1616 4238 1336 4038 
Q 1056 3838 1056 3469 
Q 1056 3159 1242 3001 
Q 1428 2844 1947 2747 
L 2328 2669 
Q 3034 2534 3370 2195 
Q 3706 1856 3706 1288 
Q 3706 609 3251 259 
Q 2797 -91 1919 -91 
Q 1588 -91 1214 -16 
Q 841 59 441 206 
L 441 856 
Q 825 641 1194 531 
Q 1563 422 1919 422 
Q 2459 422 2753 634 
Q 3047 847 3047 1241 
Q 3047 1584 2836 1778 
Q 2625 1972 2144 2069 
L 1759 2144 
Q 1053 2284 737 2584 
Q 422 2884 422 3419 
Q 422 4038 858 4394 
Q 1294 4750 2059 4750 
Q 2388 4750 2728 4690 
Q 3069 4631 3425 4513 
z
" transform="scale(0.015625)"/>
       <path id="DejaVuSans-75" d="M 544 1381 
L 544 3500 
L 1119 3500 
L 1119 1403 
Q 1119 906 1312 657 
Q 1506 409 1894 409 
Q 2359 409 2629 706 
Q 2900 1003 2900 1516 
L 2900 3500 
L 3475 3500 
L 3475 0 
L 2900 0 
L 2900 538 
Q 2691 219 2414 64 
Q 2138 -91 1772 -91 
Q 1169 -91 856 284 
Q 544 659 544 1381 
z
M 1991 3584 
L 1991 3584 
z
" transform="scale(0.015625)"/>
       <path id="DejaVuSans-65" d="M 3597 1894 
L 3597 1613 
L 953 1613 
Q 991 1019 1311 708 
Q 1631 397 2203 397 
Q 2534 397 2845 478 
Q 3156 559 3463 722 
L 3463 178 
Q 3153 47 2828 -22 
Q 2503 -91 2169 -91 
Q 1331 -91 842 396 
Q 353 884 353 1716 
Q 353 2575 817 3079 
Q 1281 3584 2069 3584 
Q 2775 3584 3186 3129 
Q 3597 2675 3597 1894 
z
M 3022 2063 
Q 3016 2534 2758 2815 
Q 2500 3097 2075 3097 
Q 1594 3097 1305 2825 
Q 1016 2553 972 2059 
L 3022 2063 
z
" transform="scale(0.015625)"/>
      </defs>
      <use xlink:href="#DejaVuSans-54"/>
      <use xlink:href="#DejaVuSans-72" transform="translate(46.333984 0)"/>
      <use xlink:href="#DejaVuSans-61" transform="translate(87.447266 0)"/>
      <use xlink:href="#DejaVuSans-69" transform="translate(148.726562 0)"/>
      <use xlink:href="#DejaVuSans-6e" transform="translate(176.509766 0)"/>
      <use xlink:href="#DejaVuSans-69" transform="translate(239.888672 0)"/>
      <use xlink:href="#DejaVuSans-6e" transform="translate(267.671875 0)"/>
      <use xlink:href="#DejaVuSans-67" transform="translate(331.050781 0)"/>
      <use xlink:href="#DejaVuSans-2d" transform="translate(394.527344 0)"/>
      <use xlink:href="#DejaVuSans-53" transform="translate(430.611328 0)"/>
      <use xlink:href="#DejaVuSans-6f" transform="translate(494.087891 0)"/>
      <use xlink:href="#DejaVuSans-75" transform="translate(555.269531 0)"/>
      <use xlink:href="#DejaVuSans-72" transform="translate(618.648438 0)"/>
      <use xlink:href="#DejaVuSans-63" transform="translate(657.511719 0)"/>
      <use xlink:href="#DejaVuSans-65" transform="translate(712.492188 0)"/>
     </g>
    </g>
    <g id="line2d_18">
     <path d="M 523.439062 173.720313 
L 533.439062 173.720313 
L 543.439062 173.720313 
" style="fill: none; stroke: #ff7f0e; stroke-width: 1.5; stroke-linecap: square"/>
    </g>
    <g id="text_17">
     <!-- Training-Target -->
     <g transform="translate(551.439062 177.220313) scale(0.1 -0.1)">
      <use xlink:href="#DejaVuSans-54"/>
      <use xlink:href="#DejaVuSans-72" transform="translate(46.333984 0)"/>
      <use xlink:href="#DejaVuSans-61" transform="translate(87.447266 0)"/>
      <use xlink:href="#DejaVuSans-69" transform="translate(148.726562 0)"/>
      <use xlink:href="#DejaVuSans-6e" transform="translate(176.509766 0)"/>
      <use xlink:href="#DejaVuSans-69" transform="translate(239.888672 0)"/>
      <use xlink:href="#DejaVuSans-6e" transform="translate(267.671875 0)"/>
      <use xlink:href="#DejaVuSans-67" transform="translate(331.050781 0)"/>
      <use xlink:href="#DejaVuSans-2d" transform="translate(394.527344 0)"/>
      <use xlink:href="#DejaVuSans-54" transform="translate(421.486328 0)"/>
      <use xlink:href="#DejaVuSans-61" transform="translate(466.070312 0)"/>
      <use xlink:href="#DejaVuSans-72" transform="translate(527.349609 0)"/>
      <use xlink:href="#DejaVuSans-67" transform="translate(566.712891 0)"/>
      <use xlink:href="#DejaVuSans-65" transform="translate(630.189453 0)"/>
      <use xlink:href="#DejaVuSans-74" transform="translate(691.712891 0)"/>
     </g>
    </g>
    <g id="line2d_19">
     <path d="M 523.439062 188.398438 
L 533.439062 188.398438 
L 543.439062 188.398438 
" style="fill: none; stroke: #2ca02c; stroke-width: 1.5; stroke-linecap: square"/>
    </g>
    <g id="text_18">
     <!-- Validating-Source -->
     <g transform="translate(551.439062 191.898438) scale(0.1 -0.1)">
      <use xlink:href="#DejaVuSans-56"/>
      <use xlink:href="#DejaVuSans-61" transform="translate(60.658203 0)"/>
      <use xlink:href="#DejaVuSans-6c" transform="translate(121.9375 0)"/>
      <use xlink:href="#DejaVuSans-69" transform="translate(149.720703 0)"/>
      <use xlink:href="#DejaVuSans-64" transform="translate(177.503906 0)"/>
      <use xlink:href="#DejaVuSans-61" transform="translate(240.980469 0)"/>
      <use xlink:href="#DejaVuSans-74" transform="translate(302.259766 0)"/>
      <use xlink:href="#DejaVuSans-69" transform="translate(341.46875 0)"/>
      <use xlink:href="#DejaVuSans-6e" transform="translate(369.251953 0)"/>
      <use xlink:href="#DejaVuSans-67" transform="translate(432.630859 0)"/>
      <use xlink:href="#DejaVuSans-2d" transform="translate(496.107422 0)"/>
      <use xlink:href="#DejaVuSans-53" transform="translate(532.191406 0)"/>
      <use xlink:href="#DejaVuSans-6f" transform="translate(595.667969 0)"/>
      <use xlink:href="#DejaVuSans-75" transform="translate(656.849609 0)"/>
      <use xlink:href="#DejaVuSans-72" transform="translate(720.228516 0)"/>
      <use xlink:href="#DejaVuSans-63" transform="translate(759.091797 0)"/>
      <use xlink:href="#DejaVuSans-65" transform="translate(814.072266 0)"/>
     </g>
    </g>
    <g id="line2d_20">
     <path d="M 523.439062 203.076563 
L 533.439062 203.076563 
L 543.439062 203.076563 
" style="fill: none; stroke: #d62728; stroke-width: 1.5; stroke-linecap: square"/>
    </g>
    <g id="text_19">
     <!-- Validating-Target -->
     <g transform="translate(551.439062 206.576563) scale(0.1 -0.1)">
      <use xlink:href="#DejaVuSans-56"/>
      <use xlink:href="#DejaVuSans-61" transform="translate(60.658203 0)"/>
      <use xlink:href="#DejaVuSans-6c" transform="translate(121.9375 0)"/>
      <use xlink:href="#DejaVuSans-69" transform="translate(149.720703 0)"/>
      <use xlink:href="#DejaVuSans-64" transform="translate(177.503906 0)"/>
      <use xlink:href="#DejaVuSans-61" transform="translate(240.980469 0)"/>
      <use xlink:href="#DejaVuSans-74" transform="translate(302.259766 0)"/>
      <use xlink:href="#DejaVuSans-69" transform="translate(341.46875 0)"/>
      <use xlink:href="#DejaVuSans-6e" transform="translate(369.251953 0)"/>
      <use xlink:href="#DejaVuSans-67" transform="translate(432.630859 0)"/>
      <use xlink:href="#DejaVuSans-2d" transform="translate(496.107422 0)"/>
      <use xlink:href="#DejaVuSans-54" transform="translate(523.066406 0)"/>
      <use xlink:href="#DejaVuSans-61" transform="translate(567.650391 0)"/>
      <use xlink:href="#DejaVuSans-72" transform="translate(628.929688 0)"/>
      <use xlink:href="#DejaVuSans-67" transform="translate(668.292969 0)"/>
      <use xlink:href="#DejaVuSans-65" transform="translate(731.769531 0)"/>
      <use xlink:href="#DejaVuSans-74" transform="translate(793.292969 0)"/>
     </g>
    </g>
   </g>
  </g>
 </g>
 <defs>
  <clipPath id="p3d6e12fdf6">
   <rect x="90" y="43.2" width="558" height="277.2"/>
  </clipPath>
 </defs>
</svg>
