<?xml version="1.0" encoding="utf-8" standalone="no"?>
<!DOCTYPE svg PUBLIC "-//W3C//DTD SVG 1.1//EN"
  "http://www.w3.org/Graphics/SVG/1.1/DTD/svg11.dtd">
<svg xmlns:xlink="http://www.w3.org/1999/xlink" width="720pt" height="360pt" viewBox="0 0 720 360" xmlns="http://www.w3.org/2000/svg" version="1.1">
 <metadata>
  <rdf:RDF xmlns:dc="http://purl.org/dc/elements/1.1/" xmlns:cc="http://creativecommons.org/ns#" xmlns:rdf="http://www.w3.org/1999/02/22-rdf-syntax-ns#">
   <cc:Work>
    <dc:type rdf:resource="http://purl.org/dc/dcmitype/StillImage"/>
    <dc:date>2025-11-20T11:35:13.083343</dc:date>
    <dc:format>image/svg+xml</dc:format>
    <dc:creator>
     <cc:Agent>
      <dc:title>Matplotlib v3.10.1, https://matplotlib.org/</dc:title>
     </cc:Agent>
    </dc:creator>
   </cc:Work>
  </rdf:RDF>
 </metadata>
 <defs>
  <style type="text/css">*{stroke-linejoin: round; stroke-linecap: butt}</style>
 </defs>
 <g id="figure_1">
  <g id="patch_1">
   <path d="M 0 360 
L 720 360 
L 720 0 
L 0 0 
z
" style="fill: #ffffff"/>
  </g>
  <g id="axes_1">
   <g id="patch_2">
    <path d="M 90 320.4 
L 648 320.4 
L 648 43.2 
L 90 43.2 
z
" style="fill: #ffffff"/>
   </g>
   <g id="matplotlib.axis_1">
    <g id="xtick_1">
     <g id="line2d_1">
      <defs>
       <path id="ma9f3bc288e" d="M 0 0 
L 0 3.5 
" style="stroke: #000000; stroke-width: 0.8"/>
      </defs>
      <g>
       <use xlink:href="#ma9f3bc288e" x="115.363636" y="320.4" style="stroke: #000000; stroke-width: 0.8"/>
      </g>
     </g>
     <g id="text_1">
      <!-- 0 -->
      <g transform="translate(112.182386 334.998438) scale(0.1 -0.1)">
       <defs>
        <path id="DejaVuSans-30" d="M 2034 4250 
Q 1547 4250 1301 3770 
Q 1056 3291 1056 2328 
Q 1056 1369 1301 889 
Q 1547 409 2034 409 
Q 2525 409 2770 889 
Q 3016 1369 3016 2328 
Q 3016 3291 2770 3770 
Q 2525 4250 2034 4250 
z
M 2034 4750 
Q 2819 4750 3233 4129 
Q 3647 3509 3647 2328 
Q 3647 1150 3233 529 
Q 2819 -91 2034 -91 
Q 1250 -91 836 529 
Q 422 1150 422 2328 
Q 422 3509 836 4129 
Q 1250 4750 2034 4750 
z
" transform="scale(0.015625)"/>
       </defs>
       <use xlink:href="#DejaVuSans-30"/>
      </g>
     </g>
    </g>
    <g id="xtick_2">
     <g id="line2d_2">
      <g>
       <use xlink:href="#ma9f3bc288e" x="216.818182" y="320.4" style="stroke: #000000; stroke-width: 0.8"/>
      </g>
     </g>
     <g id="text_2">
      <!-- 44 -->
      <g transform="translate(210.455682 334.998438) scale(0.1 -0.1)">
       <defs>
        <path id="DejaVuSans-34" d="M 2419 4116 
L 825 1625 
L 2419 1625 
L 2419 4116 
z
M 2253 4666 
L 3047 4666 
L 3047 1625 
L 3713 1625 
L 3713 1100 
L 3047 1100 
L 3047 0 
L 2419 0 
L 2419 1100 
L 313 1100 
L 313 1709 
L 2253 4666 
z
" transform="scale(0.015625)"/>
       </defs>
       <use xlink:href="#DejaVuSans-34"/>
       <use xlink:href="#DejaVuSans-34" transform="translate(63.623047 0)"/>
      </g>
     </g>
    </g>
    <g id="xtick_3">
     <g id="line2d_3">
      <g>
       <use xlink:href="#ma9f3bc288e" x="318.272727" y="320.4" style="stroke: #000000; stroke-width: 0.8"/>
      </g>
     </g>
     <g id="text_3">
      <!-- 88 -->
      <g transform="translate(311.910227 334.998438) scale(0.1 -0.1)">
       <defs>
        <path id="DejaVuSans-38" d="M 2034 2216 
Q 1584 2216 1326 1975 
Q 1069 1734 1069 1313 
Q 1069 891 1326 650 
Q 1584 409 2034 409 
Q 2484 409 2743 651 
Q 3003 894 3003 1313 
Q 3003 1734 2745 1975 
Q 2488 2216 2034 2216 
z
M 1403 2484 
Q 997 2584 770 2862 
Q 544 3141 544 3541 
Q 544 4100 942 4425 
Q 1341 4750 2034 4750 
Q 2731 4750 3128 4425 
Q 3525 4100 3525 3541 
Q 3525 3141 3298 2862 
Q 3072 2584 2669 2484 
Q 3125 2378 3379 2068 
Q 3634 1759 3634 1313 
Q 3634 634 3220 271 
Q 2806 -91 2034 -91 
Q 1263 -91 848 271 
Q 434 634 434 1313 
Q 434 1759 690 2068 
Q 947 2378 1403 2484 
z
M 1172 3481 
Q 1172 3119 1398 2916 
Q 1625 2713 2034 2713 
Q 2441 2713 2670 2916 
Q 2900 3119 2900 3481 
Q 2900 3844 2670 4047 
Q 2441 4250 2034 4250 
Q 1625 4250 1398 4047 
Q 1172 3844 1172 3481 
z
" transform="scale(0.015625)"/>
       </defs>
       <use xlink:href="#DejaVuSans-38"/>
       <use xlink:href="#DejaVuSans-38" transform="translate(63.623047 0)"/>
      </g>
     </g>
    </g>
    <g id="xtick_4">
     <g id="line2d_4">
      <g>
       <use xlink:href="#ma9f3bc288e" x="419.727273" y="320.4" style="stroke: #000000; stroke-width: 0.8"/>
      </g>
     </g>
     <g id="text_4">
      <!-- 132 -->
      <g transform="translate(410.183523 334.998438) scale(0.1 -0.1)">
       <defs>
        <path id="DejaVuSans-31" d="M 794 531 
L 1825 531 
L 1825 4091 
L 703 3866 
L 703 4441 
L 1819 4666 
L 2450 4666 
L 2450 531 
L 3481 531 
L 3481 0 
L 794 0 
L 794 531 
z
" transform="scale(0.015625)"/>
        <path id="DejaVuSans-33" d="M 2597 2516 
Q 3050 2419 3304 2112 
Q 3559 1806 3559 1356 
Q 3559 666 3084 287 
Q 2609 -91 1734 -91 
Q 1441 -91 1130 -33 
Q 819 25 488 141 
L 488 750 
Q 750 597 1062 519 
Q 1375 441 1716 441 
Q 2309 441 2620 675 
Q 2931 909 2931 1356 
Q 2931 1769 2642 2001 
Q 2353 2234 1838 2234 
L 1294 2234 
L 1294 2753 
L 1863 2753 
Q 2328 2753 2575 2939 
Q 2822 3125 2822 3475 
Q 2822 3834 2567 4026 
Q 2313 4219 1838 4219 
Q 1578 4219 1281 4162 
Q 984 4106 628 3988 
L 628 4550 
Q 988 4650 1302 4700 
Q 1616 4750 1894 4750 
Q 2613 4750 3031 4423 
Q 3450 4097 3450 3541 
Q 3450 3153 3228 2886 
Q 3006 2619 2597 2516 
z
" transform="scale(0.015625)"/>
        <path id="DejaVuSans-32" d="M 1228 531 
L 3431 531 
L 3431 0 
L 469 0 
L 469 531 
Q 828 903 1448 1529 
Q 2069 2156 2228 2338 
Q 2531 2678 2651 2914 
Q 2772 3150 2772 3378 
Q 2772 3750 2511 3984 
Q 2250 4219 1831 4219 
Q 1534 4219 1204 4116 
Q 875 4013 500 3803 
L 500 4441 
Q 881 4594 1212 4672 
Q 1544 4750 1819 4750 
Q 2544 4750 2975 4387 
Q 3406 4025 3406 3419 
Q 3406 3131 3298 2873 
Q 3191 2616 2906 2266 
Q 2828 2175 2409 1742 
Q 1991 1309 1228 531 
z
" transform="scale(0.015625)"/>
       </defs>
       <use xlink:href="#DejaVuSans-31"/>
       <use xlink:href="#DejaVuSans-33" transform="translate(63.623047 0)"/>
       <use xlink:href="#DejaVuSans-32" transform="translate(127.246094 0)"/>
      </g>
     </g>
    </g>
    <g id="xtick_5">
     <g id="line2d_5">
      <g>
       <use xlink:href="#ma9f3bc288e" x="521.181818" y="320.4" style="stroke: #000000; stroke-width: 0.8"/>
      </g>
     </g>
     <g id="text_5">
      <!-- 176 -->
      <g transform="translate(511.638068 334.998438) scale(0.1 -0.1)">
       <defs>
        <path id="DejaVuSans-37" d="M 525 4666 
L 3525 4666 
L 3525 4397 
L 1831 0 
L 1172 0 
L 2766 4134 
L 525 4134 
L 525 4666 
z
" transform="scale(0.015625)"/>
        <path id="DejaVuSans-36" d="M 2113 2584 
Q 1688 2584 1439 2293 
Q 1191 2003 1191 1497 
Q 1191 994 1439 701 
Q 1688 409 2113 409 
Q 2538 409 2786 701 
Q 3034 994 3034 1497 
Q 3034 2003 2786 2293 
Q 2538 2584 2113 2584 
z
M 3366 4563 
L 3366 3988 
Q 3128 4100 2886 4159 
Q 2644 4219 2406 4219 
Q 1781 4219 1451 3797 
Q 1122 3375 1075 2522 
Q 1259 2794 1537 2939 
Q 1816 3084 2150 3084 
Q 2853 3084 3261 2657 
Q 3669 2231 3669 1497 
Q 3669 778 3244 343 
Q 2819 -91 2113 -91 
Q 1303 -91 875 529 
Q 447 1150 447 2328 
Q 447 3434 972 4092 
Q 1497 4750 2381 4750 
Q 2619 4750 2861 4703 
Q 3103 4656 3366 4563 
z
" transform="scale(0.015625)"/>
       </defs>
       <use xlink:href="#DejaVuSans-31"/>
       <use xlink:href="#DejaVuSans-37" transform="translate(63.623047 0)"/>
       <use xlink:href="#DejaVuSans-36" transform="translate(127.246094 0)"/>
      </g>
     </g>
    </g>
    <g id="xtick_6">
     <g id="line2d_6">
      <g>
       <use xlink:href="#ma9f3bc288e" x="622.636364" y="320.4" style="stroke: #000000; stroke-width: 0.8"/>
      </g>
     </g>
     <g id="text_6">
      <!-- 220 -->
      <g transform="translate(613.092614 334.998438) scale(0.1 -0.1)">
       <use xlink:href="#DejaVuSans-32"/>
       <use xlink:href="#DejaVuSans-32" transform="translate(63.623047 0)"/>
       <use xlink:href="#DejaVuSans-30" transform="translate(127.246094 0)"/>
      </g>
     </g>
    </g>
    <g id="text_7">
     <!-- Epoch -->
     <g transform="translate(353.689062 348.676562) scale(0.1 -0.1)">
      <defs>
       <path id="DejaVuSans-45" d="M 628 4666 
L 3578 4666 
L 3578 4134 
L 1259 4134 
L 1259 2753 
L 3481 2753 
L 3481 2222 
L 1259 2222 
L 1259 531 
L 3634 531 
L 3634 0 
L 628 0 
L 628 4666 
z
" transform="scale(0.015625)"/>
       <path id="DejaVuSans-70" d="M 1159 525 
L 1159 -1331 
L 581 -1331 
L 581 3500 
L 1159 3500 
L 1159 2969 
Q 1341 3281 1617 3432 
Q 1894 3584 2278 3584 
Q 2916 3584 3314 3078 
Q 3713 2572 3713 1747 
Q 3713 922 3314 415 
Q 2916 -91 2278 -91 
Q 1894 -91 1617 61 
Q 1341 213 1159 525 
z
M 3116 1747 
Q 3116 2381 2855 2742 
Q 2594 3103 2138 3103 
Q 1681 3103 1420 2742 
Q 1159 2381 1159 1747 
Q 1159 1113 1420 752 
Q 1681 391 2138 391 
Q 2594 391 2855 752 
Q 3116 1113 3116 1747 
z
" transform="scale(0.015625)"/>
       <path id="DejaVuSans-6f" d="M 1959 3097 
Q 1497 3097 1228 2736 
Q 959 2375 959 1747 
Q 959 1119 1226 758 
Q 1494 397 1959 397 
Q 2419 397 2687 759 
Q 2956 1122 2956 1747 
Q 2956 2369 2687 2733 
Q 2419 3097 1959 3097 
z
M 1959 3584 
Q 2709 3584 3137 3096 
Q 3566 2609 3566 1747 
Q 3566 888 3137 398 
Q 2709 -91 1959 -91 
Q 1206 -91 779 398 
Q 353 888 353 1747 
Q 353 2609 779 3096 
Q 1206 3584 1959 3584 
z
" transform="scale(0.015625)"/>
       <path id="DejaVuSans-63" d="M 3122 3366 
L 3122 2828 
Q 2878 2963 2633 3030 
Q 2388 3097 2138 3097 
Q 1578 3097 1268 2742 
Q 959 2388 959 1747 
Q 959 1106 1268 751 
Q 1578 397 2138 397 
Q 2388 397 2633 464 
Q 2878 531 3122 666 
L 3122 134 
Q 2881 22 2623 -34 
Q 2366 -91 2075 -91 
Q 1284 -91 818 406 
Q 353 903 353 1747 
Q 353 2603 823 3093 
Q 1294 3584 2113 3584 
Q 2378 3584 2631 3529 
Q 2884 3475 3122 3366 
z
" transform="scale(0.015625)"/>
       <path id="DejaVuSans-68" d="M 3513 2113 
L 3513 0 
L 2938 0 
L 2938 2094 
Q 2938 2591 2744 2837 
Q 2550 3084 2163 3084 
Q 1697 3084 1428 2787 
Q 1159 2491 1159 1978 
L 1159 0 
L 581 0 
L 581 4863 
L 1159 4863 
L 1159 2956 
Q 1366 3272 1645 3428 
Q 1925 3584 2291 3584 
Q 2894 3584 3203 3211 
Q 3513 2838 3513 2113 
z
" transform="scale(0.015625)"/>
      </defs>
      <use xlink:href="#DejaVuSans-45"/>
      <use xlink:href="#DejaVuSans-70" transform="translate(63.183594 0)"/>
      <use xlink:href="#DejaVuSans-6f" transform="translate(126.660156 0)"/>
      <use xlink:href="#DejaVuSans-63" transform="translate(187.841797 0)"/>
      <use xlink:href="#DejaVuSans-68" transform="translate(242.822266 0)"/>
     </g>
    </g>
   </g>
   <g id="matplotlib.axis_2">
    <g id="ytick_1">
     <g id="line2d_7">
      <defs>
       <path id="mcf1b3fc2f0" d="M 0 0 
L -3.5 0 
" style="stroke: #000000; stroke-width: 0.8"/>
      </defs>
      <g>
       <use xlink:href="#mcf1b3fc2f0" x="90" y="310.11268" style="stroke: #000000; stroke-width: 0.8"/>
      </g>
     </g>
     <g id="text_8">
      <!-- 0.00 -->
      <g transform="translate(60.734375 313.911899) scale(0.1 -0.1)">
       <defs>
        <path id="DejaVuSans-2e" d="M 684 794 
L 1344 794 
L 1344 0 
L 684 0 
L 684 794 
z
" transform="scale(0.015625)"/>
       </defs>
       <use xlink:href="#DejaVuSans-30"/>
       <use xlink:href="#DejaVuSans-2e" transform="translate(63.623047 0)"/>
       <use xlink:href="#DejaVuSans-30" transform="translate(95.410156 0)"/>
       <use xlink:href="#DejaVuSans-30" transform="translate(159.033203 0)"/>
      </g>
     </g>
    </g>
    <g id="ytick_2">
     <g id="line2d_8">
      <g>
       <use xlink:href="#mcf1b3fc2f0" x="90" y="261.133203" style="stroke: #000000; stroke-width: 0.8"/>
      </g>
     </g>
     <g id="text_9">
      <!-- 0.02 -->
      <g transform="translate(60.734375 264.932421) scale(0.1 -0.1)">
       <use xlink:href="#DejaVuSans-30"/>
       <use xlink:href="#DejaVuSans-2e" transform="translate(63.623047 0)"/>
       <use xlink:href="#DejaVuSans-30" transform="translate(95.410156 0)"/>
       <use xlink:href="#DejaVuSans-32" transform="translate(159.033203 0)"/>
      </g>
     </g>
    </g>
    <g id="ytick_3">
     <g id="line2d_9">
      <g>
       <use xlink:href="#mcf1b3fc2f0" x="90" y="212.153726" style="stroke: #000000; stroke-width: 0.8"/>
      </g>
     </g>
     <g id="text_10">
      <!-- 0.04 -->
      <g transform="translate(60.734375 215.952944) scale(0.1 -0.1)">
       <use xlink:href="#DejaVuSans-30"/>
       <use xlink:href="#DejaVuSans-2e" transform="translate(63.623047 0)"/>
       <use xlink:href="#DejaVuSans-30" transform="translate(95.410156 0)"/>
       <use xlink:href="#DejaVuSans-34" transform="translate(159.033203 0)"/>
      </g>
     </g>
    </g>
    <g id="ytick_4">
     <g id="line2d_10">
      <g>
       <use xlink:href="#mcf1b3fc2f0" x="90" y="163.174248" style="stroke: #000000; stroke-width: 0.8"/>
      </g>
     </g>
     <g id="text_11">
      <!-- 0.06 -->
      <g transform="translate(60.734375 166.973467) scale(0.1 -0.1)">
       <use xlink:href="#DejaVuSans-30"/>
       <use xlink:href="#DejaVuSans-2e" transform="translate(63.623047 0)"/>
       <use xlink:href="#DejaVuSans-30" transform="translate(95.410156 0)"/>
       <use xlink:href="#DejaVuSans-36" transform="translate(159.033203 0)"/>
      </g>
     </g>
    </g>
    <g id="ytick_5">
     <g id="line2d_11">
      <g>
       <use xlink:href="#mcf1b3fc2f0" x="90" y="114.194771" style="stroke: #000000; stroke-width: 0.8"/>
      </g>
     </g>
     <g id="text_12">
      <!-- 0.08 -->
      <g transform="translate(60.734375 117.99399) scale(0.1 -0.1)">
       <use xlink:href="#DejaVuSans-30"/>
       <use xlink:href="#DejaVuSans-2e" transform="translate(63.623047 0)"/>
       <use xlink:href="#DejaVuSans-30" transform="translate(95.410156 0)"/>
       <use xlink:href="#DejaVuSans-38" transform="translate(159.033203 0)"/>
      </g>
     </g>
    </g>
    <g id="ytick_6">
     <g id="line2d_12">
      <g>
       <use xlink:href="#mcf1b3fc2f0" x="90" y="65.215294" style="stroke: #000000; stroke-width: 0.8"/>
      </g>
     </g>
     <g id="text_13">
      <!-- 0.10 -->
      <g transform="translate(60.734375 69.014513) scale(0.1 -0.1)">
       <use xlink:href="#DejaVuSans-30"/>
       <use xlink:href="#DejaVuSans-2e" transform="translate(63.623047 0)"/>
       <use xlink:href="#DejaVuSans-31" transform="translate(95.410156 0)"/>
       <use xlink:href="#DejaVuSans-30" transform="translate(159.033203 0)"/>
      </g>
     </g>
    </g>
    <g id="text_14">
     <!-- Estimation Loss -->
     <g transform="translate(54.654687 220.98125) rotate(-90) scale(0.1 -0.1)">
      <defs>
       <path id="DejaVuSans-73" d="M 2834 3397 
L 2834 2853 
Q 2591 2978 2328 3040 
Q 2066 3103 1784 3103 
Q 1356 3103 1142 2972 
Q 928 2841 928 2578 
Q 928 2378 1081 2264 
Q 1234 2150 1697 2047 
L 1894 2003 
Q 2506 1872 2764 1633 
Q 3022 1394 3022 966 
Q 3022 478 2636 193 
Q 2250 -91 1575 -91 
Q 1294 -91 989 -36 
Q 684 19 347 128 
L 347 722 
Q 666 556 975 473 
Q 1284 391 1588 391 
Q 1994 391 2212 530 
Q 2431 669 2431 922 
Q 2431 1156 2273 1281 
Q 2116 1406 1581 1522 
L 1381 1569 
Q 847 1681 609 1914 
Q 372 2147 372 2553 
Q 372 3047 722 3315 
Q 1072 3584 1716 3584 
Q 2034 3584 2315 3537 
Q 2597 3491 2834 3397 
z
" transform="scale(0.015625)"/>
       <path id="DejaVuSans-74" d="M 1172 4494 
L 1172 3500 
L 2356 3500 
L 2356 3053 
L 1172 3053 
L 1172 1153 
Q 1172 725 1289 603 
Q 1406 481 1766 481 
L 2356 481 
L 2356 0 
L 1766 0 
Q 1100 0 847 248 
Q 594 497 594 1153 
L 594 3053 
L 172 3053 
L 172 3500 
L 594 3500 
L 594 4494 
L 1172 4494 
z
" transform="scale(0.015625)"/>
       <path id="DejaVuSans-69" d="M 603 3500 
L 1178 3500 
L 1178 0 
L 603 0 
L 603 3500 
z
M 603 4863 
L 1178 4863 
L 1178 4134 
L 603 4134 
L 603 4863 
z
" transform="scale(0.015625)"/>
       <path id="DejaVuSans-6d" d="M 3328 2828 
Q 3544 3216 3844 3400 
Q 4144 3584 4550 3584 
Q 5097 3584 5394 3201 
Q 5691 2819 5691 2113 
L 5691 0 
L 5113 0 
L 5113 2094 
Q 5113 2597 4934 2840 
Q 4756 3084 4391 3084 
Q 3944 3084 3684 2787 
Q 3425 2491 3425 1978 
L 3425 0 
L 2847 0 
L 2847 2094 
Q 2847 2600 2669 2842 
Q 2491 3084 2119 3084 
Q 1678 3084 1418 2786 
Q 1159 2488 1159 1978 
L 1159 0 
L 581 0 
L 581 3500 
L 1159 3500 
L 1159 2956 
Q 1356 3278 1631 3431 
Q 1906 3584 2284 3584 
Q 2666 3584 2933 3390 
Q 3200 3197 3328 2828 
z
" transform="scale(0.015625)"/>
       <path id="DejaVuSans-61" d="M 2194 1759 
Q 1497 1759 1228 1600 
Q 959 1441 959 1056 
Q 959 750 1161 570 
Q 1363 391 1709 391 
Q 2188 391 2477 730 
Q 2766 1069 2766 1631 
L 2766 1759 
L 2194 1759 
z
M 3341 1997 
L 3341 0 
L 2766 0 
L 2766 531 
Q 2569 213 2275 61 
Q 1981 -91 1556 -91 
Q 1019 -91 701 211 
Q 384 513 384 1019 
Q 384 1609 779 1909 
Q 1175 2209 1959 2209 
L 2766 2209 
L 2766 2266 
Q 2766 2663 2505 2880 
Q 2244 3097 1772 3097 
Q 1472 3097 1187 3025 
Q 903 2953 641 2809 
L 641 3341 
Q 956 3463 1253 3523 
Q 1550 3584 1831 3584 
Q 2591 3584 2966 3190 
Q 3341 2797 3341 1997 
z
" transform="scale(0.015625)"/>
       <path id="DejaVuSans-6e" d="M 3513 2113 
L 3513 0 
L 2938 0 
L 2938 2094 
Q 2938 2591 2744 2837 
Q 2550 3084 2163 3084 
Q 1697 3084 1428 2787 
Q 1159 2491 1159 1978 
L 1159 0 
L 581 0 
L 581 3500 
L 1159 3500 
L 1159 2956 
Q 1366 3272 1645 3428 
Q 1925 3584 2291 3584 
Q 2894 3584 3203 3211 
Q 3513 2838 3513 2113 
z
" transform="scale(0.015625)"/>
       <path id="DejaVuSans-20" transform="scale(0.015625)"/>
       <path id="DejaVuSans-4c" d="M 628 4666 
L 1259 4666 
L 1259 531 
L 3531 531 
L 3531 0 
L 628 0 
L 628 4666 
z
" transform="scale(0.015625)"/>
      </defs>
      <use xlink:href="#DejaVuSans-45"/>
      <use xlink:href="#DejaVuSans-73" transform="translate(63.183594 0)"/>
      <use xlink:href="#DejaVuSans-74" transform="translate(115.283203 0)"/>
      <use xlink:href="#DejaVuSans-69" transform="translate(154.492188 0)"/>
      <use xlink:href="#DejaVuSans-6d" transform="translate(182.275391 0)"/>
      <use xlink:href="#DejaVuSans-61" transform="translate(279.6875 0)"/>
      <use xlink:href="#DejaVuSans-74" transform="translate(340.966797 0)"/>
      <use xlink:href="#DejaVuSans-69" transform="translate(380.175781 0)"/>
      <use xlink:href="#DejaVuSans-6f" transform="translate(407.958984 0)"/>
      <use xlink:href="#DejaVuSans-6e" transform="translate(469.140625 0)"/>
      <use xlink:href="#DejaVuSans-20" transform="translate(532.519531 0)"/>
      <use xlink:href="#DejaVuSans-4c" transform="translate(564.306641 0)"/>
      <use xlink:href="#DejaVuSans-6f" transform="translate(618.269531 0)"/>
      <use xlink:href="#DejaVuSans-73" transform="translate(679.451172 0)"/>
      <use xlink:href="#DejaVuSans-73" transform="translate(731.550781 0)"/>
     </g>
    </g>
   </g>
   <g id="line2d_13">
    <path d="M 115.363636 88.038836 
L 117.669421 237.91535 
L 119.975207 262.42802 
L 122.280992 274.243576 
L 124.586777 280.648006 
L 126.892562 284.300593 
L 129.198347 286.937032 
L 131.504132 288.995977 
L 133.809917 290.769613 
L 136.115702 292.364077 
L 138.421488 293.795594 
L 140.727273 294.982637 
L 145.338843 296.931929 
L 149.950413 298.484873 
L 154.561983 299.724898 
L 161.479339 301.088852 
L 166.090909 301.742603 
L 170.702479 302.313727 
L 175.31405 302.622698 
L 177.619835 302.661896 
L 184.53719 302.422893 
L 196.066116 302.59788 
L 198.371901 302.322041 
L 200.677686 301.703911 
L 202.983471 297.829914 
L 205.289256 294.844399 
L 209.900826 298.099578 
L 214.512397 300.90592 
L 216.818182 301.860436 
L 219.123967 302.162528 
L 221.429752 302.860967 
L 226.041322 303.529663 
L 228.347107 303.754238 
L 230.652893 303.841787 
L 239.876033 304.645675 
L 244.487603 304.902384 
L 256.016529 305.349554 
L 258.322314 305.331386 
L 265.239669 305.614943 
L 283.68595 306.039578 
L 309.049587 306.107364 
L 313.661157 305.936398 
L 315.966942 305.599929 
L 318.272727 304.505674 
L 320.578512 300.192984 
L 322.884298 299.416943 
L 325.190083 300.564509 
L 327.495868 302.169434 
L 329.801653 303.53011 
L 332.107438 304.244441 
L 334.413223 303.921603 
L 336.719008 304.673968 
L 339.024793 305.021126 
L 345.942149 305.662914 
L 348.247934 305.831186 
L 350.553719 305.881344 
L 352.859504 306.086855 
L 355.165289 306.084559 
L 359.77686 306.31521 
L 366.694215 306.478286 
L 369 306.403588 
L 392.057851 306.919968 
L 403.586777 307.057534 
L 408.198347 307.130309 
L 417.421488 307.238737 
L 435.867769 307.289458 
L 442.785124 307.136546 
L 447.396694 307.076392 
L 452.008264 306.915937 
L 454.31405 306.478437 
L 456.619835 302.444885 
L 458.92562 301.572691 
L 461.231405 302.495646 
L 463.53719 304.172234 
L 465.842975 305.011711 
L 470.454545 305.313695 
L 472.760331 305.263176 
L 475.066116 305.812826 
L 479.677686 306.196824 
L 491.206612 306.761789 
L 495.818182 306.853501 
L 507.347107 307.107587 
L 516.570248 307.225152 
L 521.181818 307.277063 
L 571.909091 307.780813 
L 594.966942 307.493873 
L 597.272727 307.25308 
L 599.578512 305.734837 
L 601.884298 303.09252 
L 604.190083 302.62477 
L 606.495868 303.226332 
L 608.801653 304.747939 
L 613.413223 305.655241 
L 618.024793 305.892054 
L 620.330579 306.292735 
L 622.636364 306.36816 
L 622.636364 306.36816 
" clip-path="url(#p0d7b04061d)" style="fill: none; stroke: #1f77b4; stroke-width: 1.5; stroke-linecap: square"/>
   </g>
   <g id="line2d_14">
    <path d="M 115.363636 55.8 
L 117.669421 214.877255 
L 119.975207 241.616103 
L 122.280992 254.664563 
L 124.586777 262.046476 
L 126.892562 266.212235 
L 129.198347 269.229652 
L 131.504132 271.558189 
L 133.809917 273.648287 
L 136.115702 275.368094 
L 138.421488 276.755372 
L 143.033058 279.048329 
L 145.338843 279.980656 
L 147.644628 280.760176 
L 152.256198 282.043018 
L 159.173554 283.40131 
L 163.785124 284.106603 
L 170.702479 284.805403 
L 179.92562 285.220522 
L 184.53719 285.181224 
L 186.842975 285.43179 
L 189.14876 285.535525 
L 193.760331 285.523793 
L 196.066116 285.678056 
L 198.371901 285.444927 
L 200.677686 284.934894 
L 202.983471 281.105021 
L 205.289256 277.87105 
L 207.595041 279.880753 
L 209.900826 282.184857 
L 214.512397 284.702594 
L 216.818182 285.50007 
L 219.123967 285.628449 
L 221.429752 286.464132 
L 228.347107 287.246593 
L 235.264463 287.538426 
L 239.876033 287.915578 
L 246.793388 288.391765 
L 249.099174 288.268598 
L 251.404959 288.573506 
L 253.710744 288.500184 
L 281.380165 289.245905 
L 283.68595 289.187811 
L 288.297521 289.382695 
L 295.214876 289.580098 
L 297.520661 289.720257 
L 302.132231 289.509047 
L 306.743802 289.649354 
L 311.355372 289.572262 
L 313.661157 289.721836 
L 315.966942 289.412884 
L 318.272727 288.505294 
L 320.578512 283.904452 
L 322.884298 282.960755 
L 325.190083 283.951087 
L 327.495868 286.236354 
L 329.801653 287.491225 
L 332.107438 288.249392 
L 334.413223 287.755938 
L 336.719008 288.717651 
L 339.024793 289.184227 
L 343.636364 289.453881 
L 345.942149 289.775962 
L 348.247934 289.764319 
L 352.859504 289.923014 
L 357.471074 289.976637 
L 362.082645 290.284316 
L 364.38843 290.382493 
L 369 290.221716 
L 371.305785 290.428355 
L 375.917355 290.343922 
L 380.528926 290.473559 
L 382.834711 290.438718 
L 385.140496 290.608972 
L 387.446281 290.586679 
L 389.752066 290.701927 
L 392.057851 290.638192 
L 396.669421 290.823175 
L 398.975207 290.708064 
L 403.586777 290.854523 
L 410.504132 290.875555 
L 412.809917 291.010697 
L 415.115702 290.810411 
L 419.727273 290.923305 
L 426.644628 290.941734 
L 428.950413 290.935994 
L 431.256198 291.126528 
L 435.867769 291.123293 
L 452.008264 291.210444 
L 454.31405 291.012207 
L 456.619835 286.878898 
L 458.92562 285.873707 
L 461.231405 287.12176 
L 463.53719 288.763075 
L 465.842975 289.634271 
L 470.454545 289.9358 
L 472.760331 289.850567 
L 475.066116 290.711653 
L 477.371901 290.480197 
L 479.677686 290.896397 
L 484.289256 290.956848 
L 486.595041 290.778885 
L 488.900826 291.039235 
L 491.206612 291.093618 
L 493.512397 291.006502 
L 495.818182 291.250657 
L 502.735537 291.311486 
L 507.347107 291.608736 
L 511.958678 291.449179 
L 514.264463 291.606267 
L 518.876033 291.599822 
L 548.85124 291.721324 
L 551.157025 291.878209 
L 553.46281 291.832584 
L 555.768595 291.938334 
L 564.991736 291.899461 
L 567.297521 292.061007 
L 571.909091 291.900803 
L 576.520661 292.016084 
L 578.826446 291.961697 
L 581.132231 292.160768 
L 592.661157 291.89453 
L 594.966942 291.961755 
L 597.272727 291.905177 
L 599.578512 290.475432 
L 601.884298 288.198479 
L 604.190083 287.411067 
L 606.495868 288.297544 
L 608.801653 289.769863 
L 611.107438 289.836535 
L 613.413223 290.361685 
L 615.719008 290.12084 
L 620.330579 290.907474 
L 622.636364 291.198772 
L 622.636364 291.198772 
" clip-path="url(#p0d7b04061d)" style="fill: none; stroke: #ff7f0e; stroke-width: 1.5; stroke-linecap: square"/>
   </g>
   <g id="line2d_15">
    <path d="M 115.363636 232.425818 
L 117.669421 264.039165 
L 119.975207 277.361274 
L 122.280992 284.344878 
L 124.586777 287.515006 
L 126.892562 289.977879 
L 129.198347 291.67899 
L 131.504132 293.186746 
L 136.115702 295.801569 
L 140.727273 297.877337 
L 147.644628 300.279424 
L 149.950413 300.834903 
L 154.561983 301.563814 
L 156.867769 302.047679 
L 159.173554 302.213317 
L 161.479339 302.594112 
L 166.090909 302.955923 
L 168.396694 303.000332 
L 170.702479 302.894559 
L 173.008264 303.200665 
L 175.31405 303.19957 
L 177.619835 303.671154 
L 179.92562 303.526146 
L 182.231405 303.145899 
L 184.53719 303.386905 
L 189.14876 303.433567 
L 191.454545 303.675537 
L 193.760331 303.208698 
L 196.066116 303.457603 
L 198.371901 303.188245 
L 200.677686 302.0533 
L 202.983471 295.691117 
L 205.289256 296.952586 
L 207.595041 298.996166 
L 209.900826 300.567469 
L 212.206612 300.850004 
L 214.512397 302.624331 
L 216.818182 303.282668 
L 221.429752 303.813959 
L 223.735537 304.042827 
L 226.041322 304.136525 
L 228.347107 304.55959 
L 230.652893 304.439587 
L 232.958678 304.631034 
L 235.264463 304.67842 
L 237.570248 304.844008 
L 239.876033 304.644649 
L 242.181818 305.150689 
L 244.487603 305.189 
L 246.793388 304.983147 
L 249.099174 305.567709 
L 251.404959 305.167105 
L 253.710744 305.592236 
L 256.016529 305.168606 
L 260.628099 305.797061 
L 262.933884 305.017317 
L 265.239669 305.945306 
L 267.545455 305.715628 
L 272.157025 306.089777 
L 274.46281 305.647431 
L 276.768595 305.549668 
L 279.07438 304.794908 
L 281.380165 305.895922 
L 285.991736 306.192046 
L 288.297521 306.014405 
L 292.909091 305.927127 
L 297.520661 305.385136 
L 299.826446 306.189332 
L 302.132231 305.844469 
L 304.438017 306.258436 
L 309.049587 306.048977 
L 311.355372 306.084109 
L 313.661157 305.401094 
L 315.966942 305.423761 
L 318.272727 303.342356 
L 320.578512 300.509895 
L 322.884298 301.191645 
L 325.190083 302.689286 
L 327.495868 303.45823 
L 329.801653 304.617536 
L 332.107438 304.140769 
L 334.413223 304.947567 
L 339.024793 305.318795 
L 341.330579 305.833826 
L 343.636364 305.696785 
L 345.942149 306.057478 
L 348.247934 305.882615 
L 352.859504 306.212991 
L 355.165289 306.048263 
L 357.471074 306.114124 
L 359.77686 306.431373 
L 362.082645 305.938957 
L 364.38843 305.814706 
L 366.694215 306.009915 
L 369 306.458968 
L 371.305785 306.620237 
L 373.61157 306.049305 
L 375.917355 305.908601 
L 378.22314 306.463795 
L 380.528926 306.732202 
L 385.140496 306.57326 
L 387.446281 306.155606 
L 389.752066 306.925697 
L 392.057851 306.673582 
L 394.363636 306.577492 
L 396.669421 306.928519 
L 398.975207 306.748351 
L 401.280992 306.809705 
L 403.586777 306.312968 
L 405.892562 307.147663 
L 408.198347 306.547741 
L 410.504132 306.812287 
L 412.809917 306.600063 
L 419.727273 307.138889 
L 424.338843 306.999517 
L 426.644628 306.934652 
L 428.950413 307.177312 
L 431.256198 307.044608 
L 433.561983 307.275384 
L 435.867769 306.266025 
L 438.173554 306.957027 
L 440.479339 307.041665 
L 442.785124 306.958136 
L 445.090909 307.159347 
L 447.396694 307.1269 
L 452.008264 306.555231 
L 454.31405 305.817987 
L 456.619835 302.206406 
L 458.92562 302.592315 
L 461.231405 304.424476 
L 463.53719 305.498216 
L 465.842975 304.917393 
L 468.14876 305.460442 
L 470.454545 305.653402 
L 475.066116 306.378994 
L 477.371901 306.458732 
L 479.677686 306.288706 
L 481.983471 305.859008 
L 484.289256 306.223714 
L 486.595041 306.39365 
L 488.900826 306.820718 
L 491.206612 306.122423 
L 493.512397 307.046253 
L 495.818182 306.872624 
L 498.123967 306.956452 
L 500.429752 306.732532 
L 502.735537 307.126348 
L 505.041322 306.893523 
L 507.347107 307.244791 
L 509.652893 307.0938 
L 511.958678 306.778251 
L 514.264463 307.290534 
L 516.570248 307.245575 
L 521.181818 307.361605 
L 523.487603 306.880733 
L 525.793388 307.314109 
L 530.404959 307.230572 
L 532.710744 307.390351 
L 535.016529 307.304751 
L 537.322314 307.453505 
L 539.628099 306.671925 
L 546.545455 307.465995 
L 548.85124 307.062093 
L 551.157025 307.588147 
L 553.46281 307.446885 
L 555.768595 307.472273 
L 558.07438 307.315257 
L 562.68595 307.676849 
L 564.991736 307.465521 
L 569.603306 307.656464 
L 571.909091 307.483904 
L 574.214876 307.587028 
L 576.520661 307.513454 
L 578.826446 307.6089 
L 581.132231 307.534807 
L 585.743802 307.636938 
L 588.049587 307.254467 
L 590.355372 307.415258 
L 594.966942 307.32722 
L 597.272727 306.679591 
L 599.578512 303.435731 
L 601.884298 303.795757 
L 604.190083 303.010333 
L 608.801653 305.814346 
L 611.107438 305.710677 
L 613.413223 305.811025 
L 615.719008 306.322278 
L 618.024793 306.488381 
L 620.330579 306.800181 
L 622.636364 306.800464 
L 622.636364 306.800464 
" clip-path="url(#p0d7b04061d)" style="fill: none; stroke: #2ca02c; stroke-width: 1.5; stroke-linecap: square"/>
   </g>
   <g id="line2d_16">
    <path d="M 115.363636 208.194726 
L 117.669421 243.064425 
L 119.975207 257.350421 
L 122.280992 265.451767 
L 124.586777 269.030025 
L 126.892562 271.883843 
L 131.504132 275.48551 
L 133.809917 276.986496 
L 136.115702 278.229358 
L 138.421488 279.319714 
L 143.033058 281.137885 
L 147.644628 282.660239 
L 149.950413 283.273459 
L 152.256198 283.522677 
L 154.561983 284.085675 
L 156.867769 284.512306 
L 166.090909 285.518584 
L 170.702479 285.706605 
L 173.008264 286.113763 
L 175.31405 285.957237 
L 179.92562 286.154967 
L 182.231405 285.824475 
L 184.53719 285.862669 
L 189.14876 286.3513 
L 191.454545 286.280342 
L 193.760331 286.064891 
L 196.066116 286.021417 
L 198.371901 285.732138 
L 200.677686 285.090844 
L 202.983471 278.55707 
L 205.289256 280.242559 
L 207.595041 282.734773 
L 209.900826 284.389438 
L 212.206612 284.373534 
L 214.512397 285.826888 
L 216.818182 286.343757 
L 219.123967 286.585979 
L 221.429752 287.476491 
L 223.735537 287.366529 
L 226.041322 287.74255 
L 228.347107 287.967233 
L 230.652893 287.830482 
L 232.958678 288.071458 
L 235.264463 288.000886 
L 237.570248 288.404315 
L 239.876033 288.065369 
L 242.181818 288.49337 
L 244.487603 288.275009 
L 260.628099 289.25984 
L 262.933884 288.743071 
L 265.239669 289.145005 
L 272.157025 289.639685 
L 274.46281 289.426818 
L 276.768595 289.462052 
L 279.07438 289.145566 
L 281.380165 289.69924 
L 285.991736 289.737525 
L 288.297521 289.310006 
L 290.603306 289.802532 
L 292.909091 289.748692 
L 295.214876 289.502955 
L 297.520661 289.414542 
L 299.826446 289.823518 
L 304.438017 289.849599 
L 306.743802 290.068512 
L 309.049587 290.039385 
L 311.355372 290.20379 
L 313.661157 289.467125 
L 315.966942 289.703266 
L 318.272727 287.402799 
L 320.578512 283.891004 
L 322.884298 284.168662 
L 325.190083 286.370736 
L 329.801653 288.040755 
L 332.107438 288.347241 
L 334.413223 288.881234 
L 336.719008 288.940253 
L 339.024793 289.34877 
L 341.330579 290.026206 
L 343.636364 289.681208 
L 345.942149 290.070845 
L 348.247934 289.860184 
L 352.859504 290.43846 
L 357.471074 290.343946 
L 359.77686 290.786579 
L 362.082645 290.153857 
L 364.38843 290.385699 
L 366.694215 290.331241 
L 369 290.773404 
L 371.305785 290.828899 
L 373.61157 290.252962 
L 375.917355 290.200018 
L 378.22314 290.57685 
L 380.528926 290.49995 
L 382.834711 290.551493 
L 385.140496 290.743054 
L 387.446281 290.127358 
L 389.752066 290.770098 
L 394.363636 290.745775 
L 396.669421 290.881987 
L 401.280992 290.771384 
L 403.586777 290.330093 
L 405.892562 290.789042 
L 408.198347 290.418345 
L 410.504132 290.526798 
L 412.809917 290.093247 
L 415.115702 290.810415 
L 417.421488 291.182604 
L 419.727273 291.008377 
L 422.033058 291.149364 
L 424.338843 290.894986 
L 426.644628 291.138486 
L 428.950413 291.248987 
L 431.256198 290.819014 
L 433.561983 291.350118 
L 435.867769 290.340199 
L 438.173554 291.041271 
L 440.479339 291.088819 
L 445.090909 291.53587 
L 452.008264 291.23451 
L 454.31405 290.365183 
L 456.619835 286.400658 
L 458.92562 286.801611 
L 461.231405 288.806339 
L 463.53719 289.443784 
L 465.842975 289.89973 
L 468.14876 290.215401 
L 470.454545 289.915597 
L 472.760331 290.730372 
L 477.371901 290.4381 
L 479.677686 290.450695 
L 481.983471 290.777957 
L 484.289256 290.737265 
L 486.595041 290.369196 
L 488.900826 291.302499 
L 491.206612 290.833241 
L 493.512397 291.438284 
L 495.818182 291.002963 
L 500.429752 291.476094 
L 502.735537 291.462763 
L 505.041322 291.116527 
L 507.347107 291.806051 
L 511.958678 291.280402 
L 514.264463 291.94348 
L 516.570248 291.436068 
L 521.181818 291.622474 
L 523.487603 291.017837 
L 525.793388 291.401039 
L 530.404959 291.405213 
L 532.710744 291.700705 
L 535.016529 291.591503 
L 537.322314 292.019446 
L 539.628099 290.915785 
L 541.933884 291.441002 
L 546.545455 291.85248 
L 548.85124 291.605593 
L 551.157025 291.808475 
L 553.46281 291.62649 
L 555.768595 291.840742 
L 558.07438 291.832173 
L 560.380165 292.112481 
L 562.68595 291.845524 
L 564.991736 291.78482 
L 569.603306 291.889243 
L 571.909091 291.654745 
L 574.214876 291.98667 
L 578.826446 292.139686 
L 581.132231 291.908303 
L 585.743802 292.24074 
L 588.049587 291.946736 
L 590.355372 291.979877 
L 592.661157 292.393312 
L 594.966942 292.456666 
L 597.272727 291.719798 
L 599.578512 288.317151 
L 601.884298 288.454938 
L 604.190083 287.320879 
L 606.495868 289.403109 
L 608.801653 290.495649 
L 611.107438 290.267169 
L 618.024793 290.740365 
L 620.330579 291.232652 
L 622.636364 291.080938 
L 622.636364 291.080938 
" clip-path="url(#p0d7b04061d)" style="fill: none; stroke: #d62728; stroke-width: 1.5; stroke-linecap: square"/>
   </g>
   <g id="patch_3">
    <path d="M 90 320.4 
L 90 43.2 
" style="fill: none; stroke: #000000; stroke-width: 0.8; stroke-linejoin: miter; stroke-linecap: square"/>
   </g>
   <g id="patch_4">
    <path d="M 648 320.4 
L 648 43.2 
" style="fill: none; stroke: #000000; stroke-width: 0.8; stroke-linejoin: miter; stroke-linecap: square"/>
   </g>
   <g id="patch_5">
    <path d="M 90 320.4 
L 648 320.4 
" style="fill: none; stroke: #000000; stroke-width: 0.8; stroke-linejoin: miter; stroke-linecap: square"/>
   </g>
   <g id="patch_6">
    <path d="M 90 43.2 
L 648 43.2 
" style="fill: none; stroke: #000000; stroke-width: 0.8; stroke-linejoin: miter; stroke-linecap: square"/>
   </g>
   <g id="text_15">
    <!-- Training and Validating Estimation Loss -->
    <g transform="translate(251.535937 37.2) scale(0.12 -0.12)">
     <defs>
      <path id="DejaVuSans-54" d="M -19 4666 
L 3928 4666 
L 3928 4134 
L 2272 4134 
L 2272 0 
L 1638 0 
L 1638 4134 
L -19 4134 
L -19 4666 
z
" transform="scale(0.015625)"/>
      <path id="DejaVuSans-72" d="M 2631 2963 
Q 2534 3019 2420 3045 
Q 2306 3072 2169 3072 
Q 1681 3072 1420 2755 
Q 1159 2438 1159 1844 
L 1159 0 
L 581 0 
L 581 3500 
L 1159 3500 
L 1159 2956 
Q 1341 3275 1631 3429 
Q 1922 3584 2338 3584 
Q 2397 3584 2469 3576 
Q 2541 3569 2628 3553 
L 2631 2963 
z
" transform="scale(0.015625)"/>
      <path id="DejaVuSans-67" d="M 2906 1791 
Q 2906 2416 2648 2759 
Q 2391 3103 1925 3103 
Q 1463 3103 1205 2759 
Q 947 2416 947 1791 
Q 947 1169 1205 825 
Q 1463 481 1925 481 
Q 2391 481 2648 825 
Q 2906 1169 2906 1791 
z
M 3481 434 
Q 3481 -459 3084 -895 
Q 2688 -1331 1869 -1331 
Q 1566 -1331 1297 -1286 
Q 1028 -1241 775 -1147 
L 775 -588 
Q 1028 -725 1275 -790 
Q 1522 -856 1778 -856 
Q 2344 -856 2625 -561 
Q 2906 -266 2906 331 
L 2906 616 
Q 2728 306 2450 153 
Q 2172 0 1784 0 
Q 1141 0 747 490 
Q 353 981 353 1791 
Q 353 2603 747 3093 
Q 1141 3584 1784 3584 
Q 2172 3584 2450 3431 
Q 2728 3278 2906 2969 
L 2906 3500 
L 3481 3500 
L 3481 434 
z
" transform="scale(0.015625)"/>
      <path id="DejaVuSans-64" d="M 2906 2969 
L 2906 4863 
L 3481 4863 
L 3481 0 
L 2906 0 
L 2906 525 
Q 2725 213 2448 61 
Q 2172 -91 1784 -91 
Q 1150 -91 751 415 
Q 353 922 353 1747 
Q 353 2572 751 3078 
Q 1150 3584 1784 3584 
Q 2172 3584 2448 3432 
Q 2725 3281 2906 2969 
z
M 947 1747 
Q 947 1113 1208 752 
Q 1469 391 1925 391 
Q 2381 391 2643 752 
Q 2906 1113 2906 1747 
Q 2906 2381 2643 2742 
Q 2381 3103 1925 3103 
Q 1469 3103 1208 2742 
Q 947 2381 947 1747 
z
" transform="scale(0.015625)"/>
      <path id="DejaVuSans-56" d="M 1831 0 
L 50 4666 
L 709 4666 
L 2188 738 
L 3669 4666 
L 4325 4666 
L 2547 0 
L 1831 0 
z
" transform="scale(0.015625)"/>
      <path id="DejaVuSans-6c" d="M 603 4863 
L 1178 4863 
L 1178 0 
L 603 0 
L 603 4863 
z
" transform="scale(0.015625)"/>
     </defs>
     <use xlink:href="#DejaVuSans-54"/>
     <use xlink:href="#DejaVuSans-72" transform="translate(46.333984 0)"/>
     <use xlink:href="#DejaVuSans-61" transform="translate(87.447266 0)"/>
     <use xlink:href="#DejaVuSans-69" transform="translate(148.726562 0)"/>
     <use xlink:href="#DejaVuSans-6e" transform="translate(176.509766 0)"/>
     <use xlink:href="#DejaVuSans-69" transform="translate(239.888672 0)"/>
     <use xlink:href="#DejaVuSans-6e" transform="translate(267.671875 0)"/>
     <use xlink:href="#DejaVuSans-67" transform="translate(331.050781 0)"/>
     <use xlink:href="#DejaVuSans-20" transform="translate(394.527344 0)"/>
     <use xlink:href="#DejaVuSans-61" transform="translate(426.314453 0)"/>
     <use xlink:href="#DejaVuSans-6e" transform="translate(487.59375 0)"/>
     <use xlink:href="#DejaVuSans-64" transform="translate(550.972656 0)"/>
     <use xlink:href="#DejaVuSans-20" transform="translate(614.449219 0)"/>
     <use xlink:href="#DejaVuSans-56" transform="translate(646.236328 0)"/>
     <use xlink:href="#DejaVuSans-61" transform="translate(706.894531 0)"/>
     <use xlink:href="#DejaVuSans-6c" transform="translate(768.173828 0)"/>
     <use xlink:href="#DejaVuSans-69" transform="translate(795.957031 0)"/>
     <use xlink:href="#DejaVuSans-64" transform="translate(823.740234 0)"/>
     <use xlink:href="#DejaVuSans-61" transform="translate(887.216797 0)"/>
     <use xlink:href="#DejaVuSans-74" transform="translate(948.496094 0)"/>
     <use xlink:href="#DejaVuSans-69" transform="translate(987.705078 0)"/>
     <use xlink:href="#DejaVuSans-6e" transform="translate(1015.488281 0)"/>
     <use xlink:href="#DejaVuSans-67" transform="translate(1078.867188 0)"/>
     <use xlink:href="#DejaVuSans-20" transform="translate(1142.34375 0)"/>
     <use xlink:href="#DejaVuSans-45" transform="translate(1174.130859 0)"/>
     <use xlink:href="#DejaVuSans-73" transform="translate(1237.314453 0)"/>
     <use xlink:href="#DejaVuSans-74" transform="translate(1289.414062 0)"/>
     <use xlink:href="#DejaVuSans-69" transform="translate(1328.623047 0)"/>
     <use xlink:href="#DejaVuSans-6d" transform="translate(1356.40625 0)"/>
     <use xlink:href="#DejaVuSans-61" transform="translate(1453.818359 0)"/>
     <use xlink:href="#DejaVuSans-74" transform="translate(1515.097656 0)"/>
     <use xlink:href="#DejaVuSans-69" transform="translate(1554.306641 0)"/>
     <use xlink:href="#DejaVuSans-6f" transform="translate(1582.089844 0)"/>
     <use xlink:href="#DejaVuSans-6e" transform="translate(1643.271484 0)"/>
     <use xlink:href="#DejaVuSans-20" transform="translate(1706.650391 0)"/>
     <use xlink:href="#DejaVuSans-4c" transform="translate(1738.4375 0)"/>
     <use xlink:href="#DejaVuSans-6f" transform="translate(1792.400391 0)"/>
     <use xlink:href="#DejaVuSans-73" transform="translate(1853.582031 0)"/>
     <use xlink:href="#DejaVuSans-73" transform="translate(1905.681641 0)"/>
    </g>
   </g>
   <g id="legend_1">
    <g id="patch_7">
     <path d="M 521.439062 109.9125 
L 641 109.9125 
Q 643 109.9125 643 107.9125 
L 643 50.2 
Q 643 48.2 641 48.2 
L 521.439062 48.2 
Q 519.439062 48.2 519.439062 50.2 
L 519.439062 107.9125 
Q 519.439062 109.9125 521.439062 109.9125 
z
" style="fill: #ffffff; opacity: 0.8; stroke: #cccccc; stroke-linejoin: miter"/>
    </g>
    <g id="line2d_17">
     <path d="M 523.439062 56.298437 
L 533.439062 56.298437 
L 543.439062 56.298437 
" style="fill: none; stroke: #1f77b4; stroke-width: 1.5; stroke-linecap: square"/>
    </g>
    <g id="text_16">
     <!-- Training-Source -->
     <g transform="translate(551.439062 59.798437) scale(0.1 -0.1)">
      <defs>
       <path id="DejaVuSans-2d" d="M 313 2009 
L 1997 2009 
L 1997 1497 
L 313 1497 
L 313 2009 
z
" transform="scale(0.015625)"/>
       <path id="DejaVuSans-53" d="M 3425 4513 
L 3425 3897 
Q 3066 4069 2747 4153 
Q 2428 4238 2131 4238 
Q 1616 4238 1336 4038 
Q 1056 3838 1056 3469 
Q 1056 3159 1242 3001 
Q 1428 2844 1947 2747 
L 2328 2669 
Q 3034 2534 3370 2195 
Q 3706 1856 3706 1288 
Q 3706 609 3251 259 
Q 2797 -91 1919 -91 
Q 1588 -91 1214 -16 
Q 841 59 441 206 
L 441 856 
Q 825 641 1194 531 
Q 1563 422 1919 422 
Q 2459 422 2753 634 
Q 3047 847 3047 1241 
Q 3047 1584 2836 1778 
Q 2625 1972 2144 2069 
L 1759 2144 
Q 1053 2284 737 2584 
Q 422 2884 422 3419 
Q 422 4038 858 4394 
Q 1294 4750 2059 4750 
Q 2388 4750 2728 4690 
Q 3069 4631 3425 4513 
z
" transform="scale(0.015625)"/>
       <path id="DejaVuSans-75" d="M 544 1381 
L 544 3500 
L 1119 3500 
L 1119 1403 
Q 1119 906 1312 657 
Q 1506 409 1894 409 
Q 2359 409 2629 706 
Q 2900 1003 2900 1516 
L 2900 3500 
L 3475 3500 
L 3475 0 
L 2900 0 
L 2900 538 
Q 2691 219 2414 64 
Q 2138 -91 1772 -91 
Q 1169 -91 856 284 
Q 544 659 544 1381 
z
M 1991 3584 
L 1991 3584 
z
" transform="scale(0.015625)"/>
       <path id="DejaVuSans-65" d="M 3597 1894 
L 3597 1613 
L 953 1613 
Q 991 1019 1311 708 
Q 1631 397 2203 397 
Q 2534 397 2845 478 
Q 3156 559 3463 722 
L 3463 178 
Q 3153 47 2828 -22 
Q 2503 -91 2169 -91 
Q 1331 -91 842 396 
Q 353 884 353 1716 
Q 353 2575 817 3079 
Q 1281 3584 2069 3584 
Q 2775 3584 3186 3129 
Q 3597 2675 3597 1894 
z
M 3022 2063 
Q 3016 2534 2758 2815 
Q 2500 3097 2075 3097 
Q 1594 3097 1305 2825 
Q 1016 2553 972 2059 
L 3022 2063 
z
" transform="scale(0.015625)"/>
      </defs>
      <use xlink:href="#DejaVuSans-54"/>
      <use xlink:href="#DejaVuSans-72" transform="translate(46.333984 0)"/>
      <use xlink:href="#DejaVuSans-61" transform="translate(87.447266 0)"/>
      <use xlink:href="#DejaVuSans-69" transform="translate(148.726562 0)"/>
      <use xlink:href="#DejaVuSans-6e" transform="translate(176.509766 0)"/>
      <use xlink:href="#DejaVuSans-69" transform="translate(239.888672 0)"/>
      <use xlink:href="#DejaVuSans-6e" transform="translate(267.671875 0)"/>
      <use xlink:href="#DejaVuSans-67" transform="translate(331.050781 0)"/>
      <use xlink:href="#DejaVuSans-2d" transform="translate(394.527344 0)"/>
      <use xlink:href="#DejaVuSans-53" transform="translate(430.611328 0)"/>
      <use xlink:href="#DejaVuSans-6f" transform="translate(494.087891 0)"/>
      <use xlink:href="#DejaVuSans-75" transform="translate(555.269531 0)"/>
      <use xlink:href="#DejaVuSans-72" transform="translate(618.648438 0)"/>
      <use xlink:href="#DejaVuSans-63" transform="translate(657.511719 0)"/>
      <use xlink:href="#DejaVuSans-65" transform="translate(712.492188 0)"/>
     </g>
    </g>
    <g id="line2d_18">
     <path d="M 523.439062 70.976562 
L 533.439062 70.976562 
L 543.439062 70.976562 
" style="fill: none; stroke: #ff7f0e; stroke-width: 1.5; stroke-linecap: square"/>
    </g>
    <g id="text_17">
     <!-- Training-Target -->
     <g transform="translate(551.439062 74.476562) scale(0.1 -0.1)">
      <use xlink:href="#DejaVuSans-54"/>
      <use xlink:href="#DejaVuSans-72" transform="translate(46.333984 0)"/>
      <use xlink:href="#DejaVuSans-61" transform="translate(87.447266 0)"/>
      <use xlink:href="#DejaVuSans-69" transform="translate(148.726562 0)"/>
      <use xlink:href="#DejaVuSans-6e" transform="translate(176.509766 0)"/>
      <use xlink:href="#DejaVuSans-69" transform="translate(239.888672 0)"/>
      <use xlink:href="#DejaVuSans-6e" transform="translate(267.671875 0)"/>
      <use xlink:href="#DejaVuSans-67" transform="translate(331.050781 0)"/>
      <use xlink:href="#DejaVuSans-2d" transform="translate(394.527344 0)"/>
      <use xlink:href="#DejaVuSans-54" transform="translate(421.486328 0)"/>
      <use xlink:href="#DejaVuSans-61" transform="translate(466.070312 0)"/>
      <use xlink:href="#DejaVuSans-72" transform="translate(527.349609 0)"/>
      <use xlink:href="#DejaVuSans-67" transform="translate(566.712891 0)"/>
      <use xlink:href="#DejaVuSans-65" transform="translate(630.189453 0)"/>
      <use xlink:href="#DejaVuSans-74" transform="translate(691.712891 0)"/>
     </g>
    </g>
    <g id="line2d_19">
     <path d="M 523.439062 85.654687 
L 533.439062 85.654687 
L 543.439062 85.654687 
" style="fill: none; stroke: #2ca02c; stroke-width: 1.5; stroke-linecap: square"/>
    </g>
    <g id="text_18">
     <!-- Validating-Source -->
     <g transform="translate(551.439062 89.154687) scale(0.1 -0.1)">
      <use xlink:href="#DejaVuSans-56"/>
      <use xlink:href="#DejaVuSans-61" transform="translate(60.658203 0)"/>
      <use xlink:href="#DejaVuSans-6c" transform="translate(121.9375 0)"/>
      <use xlink:href="#DejaVuSans-69" transform="translate(149.720703 0)"/>
      <use xlink:href="#DejaVuSans-64" transform="translate(177.503906 0)"/>
      <use xlink:href="#DejaVuSans-61" transform="translate(240.980469 0)"/>
      <use xlink:href="#DejaVuSans-74" transform="translate(302.259766 0)"/>
      <use xlink:href="#DejaVuSans-69" transform="translate(341.46875 0)"/>
      <use xlink:href="#DejaVuSans-6e" transform="translate(369.251953 0)"/>
      <use xlink:href="#DejaVuSans-67" transform="translate(432.630859 0)"/>
      <use xlink:href="#DejaVuSans-2d" transform="translate(496.107422 0)"/>
      <use xlink:href="#DejaVuSans-53" transform="translate(532.191406 0)"/>
      <use xlink:href="#DejaVuSans-6f" transform="translate(595.667969 0)"/>
      <use xlink:href="#DejaVuSans-75" transform="translate(656.849609 0)"/>
      <use xlink:href="#DejaVuSans-72" transform="translate(720.228516 0)"/>
      <use xlink:href="#DejaVuSans-63" transform="translate(759.091797 0)"/>
      <use xlink:href="#DejaVuSans-65" transform="translate(814.072266 0)"/>
     </g>
    </g>
    <g id="line2d_20">
     <path d="M 523.439062 100.332812 
L 533.439062 100.332812 
L 543.439062 100.332812 
" style="fill: none; stroke: #d62728; stroke-width: 1.5; stroke-linecap: square"/>
    </g>
    <g id="text_19">
     <!-- Validating-Target -->
     <g transform="translate(551.439062 103.832812) scale(0.1 -0.1)">
      <use xlink:href="#DejaVuSans-56"/>
      <use xlink:href="#DejaVuSans-61" transform="translate(60.658203 0)"/>
      <use xlink:href="#DejaVuSans-6c" transform="translate(121.9375 0)"/>
      <use xlink:href="#DejaVuSans-69" transform="translate(149.720703 0)"/>
      <use xlink:href="#DejaVuSans-64" transform="translate(177.503906 0)"/>
      <use xlink:href="#DejaVuSans-61" transform="translate(240.980469 0)"/>
      <use xlink:href="#DejaVuSans-74" transform="translate(302.259766 0)"/>
      <use xlink:href="#DejaVuSans-69" transform="translate(341.46875 0)"/>
      <use xlink:href="#DejaVuSans-6e" transform="translate(369.251953 0)"/>
      <use xlink:href="#DejaVuSans-67" transform="translate(432.630859 0)"/>
      <use xlink:href="#DejaVuSans-2d" transform="translate(496.107422 0)"/>
      <use xlink:href="#DejaVuSans-54" transform="translate(523.066406 0)"/>
      <use xlink:href="#DejaVuSans-61" transform="translate(567.650391 0)"/>
      <use xlink:href="#DejaVuSans-72" transform="translate(628.929688 0)"/>
      <use xlink:href="#DejaVuSans-67" transform="translate(668.292969 0)"/>
      <use xlink:href="#DejaVuSans-65" transform="translate(731.769531 0)"/>
      <use xlink:href="#DejaVuSans-74" transform="translate(793.292969 0)"/>
     </g>
    </g>
   </g>
  </g>
 </g>
 <defs>
  <clipPath id="p0d7b04061d">
   <rect x="90" y="43.2" width="558" height="277.2"/>
  </clipPath>
 </defs>
</svg>
