<?xml version="1.0" encoding="utf-8" standalone="no"?>
<!DOCTYPE svg PUBLIC "-//W3C//DTD SVG 1.1//EN"
  "http://www.w3.org/Graphics/SVG/1.1/DTD/svg11.dtd">
<svg xmlns:xlink="http://www.w3.org/1999/xlink" width="720pt" height="360pt" viewBox="0 0 720 360" xmlns="http://www.w3.org/2000/svg" version="1.1">
 <metadata>
  <rdf:RDF xmlns:dc="http://purl.org/dc/elements/1.1/" xmlns:cc="http://creativecommons.org/ns#" xmlns:rdf="http://www.w3.org/1999/02/22-rdf-syntax-ns#">
   <cc:Work>
    <dc:type rdf:resource="http://purl.org/dc/dcmitype/StillImage"/>
    <dc:date>2025-12-05T22:57:43.777436</dc:date>
    <dc:format>image/svg+xml</dc:format>
    <dc:creator>
     <cc:Agent>
      <dc:title>Matplotlib v3.10.1, https://matplotlib.org/</dc:title>
     </cc:Agent>
    </dc:creator>
   </cc:Work>
  </rdf:RDF>
 </metadata>
 <defs>
  <style type="text/css">*{stroke-linejoin: round; stroke-linecap: butt}</style>
 </defs>
 <g id="figure_1">
  <g id="patch_1">
   <path d="M 0 360 
L 720 360 
L 720 0 
L 0 0 
z
" style="fill: #ffffff"/>
  </g>
  <g id="axes_1">
   <g id="patch_2">
    <path d="M 90 320.4 
L 648 320.4 
L 648 43.2 
L 90 43.2 
z
" style="fill: #ffffff"/>
   </g>
   <g id="matplotlib.axis_1">
    <g id="xtick_1">
     <g id="line2d_1">
      <defs>
       <path id="m4f34257f23" d="M 0 0 
L 0 3.5 
" style="stroke: #000000; stroke-width: 0.8"/>
      </defs>
      <g>
       <use xlink:href="#m4f34257f23" x="115.363636" y="320.4" style="stroke: #000000; stroke-width: 0.8"/>
      </g>
     </g>
     <g id="text_1">
      <!-- 0 -->
      <g transform="translate(112.182386 334.998438) scale(0.1 -0.1)">
       <defs>
        <path id="DejaVuSans-30" d="M 2034 4250 
Q 1547 4250 1301 3770 
Q 1056 3291 1056 2328 
Q 1056 1369 1301 889 
Q 1547 409 2034 409 
Q 2525 409 2770 889 
Q 3016 1369 3016 2328 
Q 3016 3291 2770 3770 
Q 2525 4250 2034 4250 
z
M 2034 4750 
Q 2819 4750 3233 4129 
Q 3647 3509 3647 2328 
Q 3647 1150 3233 529 
Q 2819 -91 2034 -91 
Q 1250 -91 836 529 
Q 422 1150 422 2328 
Q 422 3509 836 4129 
Q 1250 4750 2034 4750 
z
" transform="scale(0.015625)"/>
       </defs>
       <use xlink:href="#DejaVuSans-30"/>
      </g>
     </g>
    </g>
    <g id="xtick_2">
     <g id="line2d_2">
      <g>
       <use xlink:href="#m4f34257f23" x="217.157495" y="320.4" style="stroke: #000000; stroke-width: 0.8"/>
      </g>
     </g>
     <g id="text_2">
      <!-- 60 -->
      <g transform="translate(210.794995 334.998438) scale(0.1 -0.1)">
       <defs>
        <path id="DejaVuSans-36" d="M 2113 2584 
Q 1688 2584 1439 2293 
Q 1191 2003 1191 1497 
Q 1191 994 1439 701 
Q 1688 409 2113 409 
Q 2538 409 2786 701 
Q 3034 994 3034 1497 
Q 3034 2003 2786 2293 
Q 2538 2584 2113 2584 
z
M 3366 4563 
L 3366 3988 
Q 3128 4100 2886 4159 
Q 2644 4219 2406 4219 
Q 1781 4219 1451 3797 
Q 1122 3375 1075 2522 
Q 1259 2794 1537 2939 
Q 1816 3084 2150 3084 
Q 2853 3084 3261 2657 
Q 3669 2231 3669 1497 
Q 3669 778 3244 343 
Q 2819 -91 2113 -91 
Q 1303 -91 875 529 
Q 447 1150 447 2328 
Q 447 3434 972 4092 
Q 1497 4750 2381 4750 
Q 2619 4750 2861 4703 
Q 3103 4656 3366 4563 
z
" transform="scale(0.015625)"/>
       </defs>
       <use xlink:href="#DejaVuSans-36"/>
       <use xlink:href="#DejaVuSans-30" transform="translate(63.623047 0)"/>
      </g>
     </g>
    </g>
    <g id="xtick_3">
     <g id="line2d_3">
      <g>
       <use xlink:href="#m4f34257f23" x="318.951353" y="320.4" style="stroke: #000000; stroke-width: 0.8"/>
      </g>
     </g>
     <g id="text_3">
      <!-- 120 -->
      <g transform="translate(309.407603 334.998438) scale(0.1 -0.1)">
       <defs>
        <path id="DejaVuSans-31" d="M 794 531 
L 1825 531 
L 1825 4091 
L 703 3866 
L 703 4441 
L 1819 4666 
L 2450 4666 
L 2450 531 
L 3481 531 
L 3481 0 
L 794 0 
L 794 531 
z
" transform="scale(0.015625)"/>
        <path id="DejaVuSans-32" d="M 1228 531 
L 3431 531 
L 3431 0 
L 469 0 
L 469 531 
Q 828 903 1448 1529 
Q 2069 2156 2228 2338 
Q 2531 2678 2651 2914 
Q 2772 3150 2772 3378 
Q 2772 3750 2511 3984 
Q 2250 4219 1831 4219 
Q 1534 4219 1204 4116 
Q 875 4013 500 3803 
L 500 4441 
Q 881 4594 1212 4672 
Q 1544 4750 1819 4750 
Q 2544 4750 2975 4387 
Q 3406 4025 3406 3419 
Q 3406 3131 3298 2873 
Q 3191 2616 2906 2266 
Q 2828 2175 2409 1742 
Q 1991 1309 1228 531 
z
" transform="scale(0.015625)"/>
       </defs>
       <use xlink:href="#DejaVuSans-31"/>
       <use xlink:href="#DejaVuSans-32" transform="translate(63.623047 0)"/>
       <use xlink:href="#DejaVuSans-30" transform="translate(127.246094 0)"/>
      </g>
     </g>
    </g>
    <g id="xtick_4">
     <g id="line2d_4">
      <g>
       <use xlink:href="#m4f34257f23" x="420.745211" y="320.4" style="stroke: #000000; stroke-width: 0.8"/>
      </g>
     </g>
     <g id="text_4">
      <!-- 180 -->
      <g transform="translate(411.201461 334.998438) scale(0.1 -0.1)">
       <defs>
        <path id="DejaVuSans-38" d="M 2034 2216 
Q 1584 2216 1326 1975 
Q 1069 1734 1069 1313 
Q 1069 891 1326 650 
Q 1584 409 2034 409 
Q 2484 409 2743 651 
Q 3003 894 3003 1313 
Q 3003 1734 2745 1975 
Q 2488 2216 2034 2216 
z
M 1403 2484 
Q 997 2584 770 2862 
Q 544 3141 544 3541 
Q 544 4100 942 4425 
Q 1341 4750 2034 4750 
Q 2731 4750 3128 4425 
Q 3525 4100 3525 3541 
Q 3525 3141 3298 2862 
Q 3072 2584 2669 2484 
Q 3125 2378 3379 2068 
Q 3634 1759 3634 1313 
Q 3634 634 3220 271 
Q 2806 -91 2034 -91 
Q 1263 -91 848 271 
Q 434 634 434 1313 
Q 434 1759 690 2068 
Q 947 2378 1403 2484 
z
M 1172 3481 
Q 1172 3119 1398 2916 
Q 1625 2713 2034 2713 
Q 2441 2713 2670 2916 
Q 2900 3119 2900 3481 
Q 2900 3844 2670 4047 
Q 2441 4250 2034 4250 
Q 1625 4250 1398 4047 
Q 1172 3844 1172 3481 
z
" transform="scale(0.015625)"/>
       </defs>
       <use xlink:href="#DejaVuSans-31"/>
       <use xlink:href="#DejaVuSans-38" transform="translate(63.623047 0)"/>
       <use xlink:href="#DejaVuSans-30" transform="translate(127.246094 0)"/>
      </g>
     </g>
    </g>
    <g id="xtick_5">
     <g id="line2d_5">
      <g>
       <use xlink:href="#m4f34257f23" x="522.53907" y="320.4" style="stroke: #000000; stroke-width: 0.8"/>
      </g>
     </g>
     <g id="text_5">
      <!-- 240 -->
      <g transform="translate(512.99532 334.998438) scale(0.1 -0.1)">
       <defs>
        <path id="DejaVuSans-34" d="M 2419 4116 
L 825 1625 
L 2419 1625 
L 2419 4116 
z
M 2253 4666 
L 3047 4666 
L 3047 1625 
L 3713 1625 
L 3713 1100 
L 3047 1100 
L 3047 0 
L 2419 0 
L 2419 1100 
L 313 1100 
L 313 1709 
L 2253 4666 
z
" transform="scale(0.015625)"/>
       </defs>
       <use xlink:href="#DejaVuSans-32"/>
       <use xlink:href="#DejaVuSans-34" transform="translate(63.623047 0)"/>
       <use xlink:href="#DejaVuSans-30" transform="translate(127.246094 0)"/>
      </g>
     </g>
    </g>
    <g id="text_6">
     <!-- Epoch -->
     <g transform="translate(353.689062 348.676562) scale(0.1 -0.1)">
      <defs>
       <path id="DejaVuSans-45" d="M 628 4666 
L 3578 4666 
L 3578 4134 
L 1259 4134 
L 1259 2753 
L 3481 2753 
L 3481 2222 
L 1259 2222 
L 1259 531 
L 3634 531 
L 3634 0 
L 628 0 
L 628 4666 
z
" transform="scale(0.015625)"/>
       <path id="DejaVuSans-70" d="M 1159 525 
L 1159 -1331 
L 581 -1331 
L 581 3500 
L 1159 3500 
L 1159 2969 
Q 1341 3281 1617 3432 
Q 1894 3584 2278 3584 
Q 2916 3584 3314 3078 
Q 3713 2572 3713 1747 
Q 3713 922 3314 415 
Q 2916 -91 2278 -91 
Q 1894 -91 1617 61 
Q 1341 213 1159 525 
z
M 3116 1747 
Q 3116 2381 2855 2742 
Q 2594 3103 2138 3103 
Q 1681 3103 1420 2742 
Q 1159 2381 1159 1747 
Q 1159 1113 1420 752 
Q 1681 391 2138 391 
Q 2594 391 2855 752 
Q 3116 1113 3116 1747 
z
" transform="scale(0.015625)"/>
       <path id="DejaVuSans-6f" d="M 1959 3097 
Q 1497 3097 1228 2736 
Q 959 2375 959 1747 
Q 959 1119 1226 758 
Q 1494 397 1959 397 
Q 2419 397 2687 759 
Q 2956 1122 2956 1747 
Q 2956 2369 2687 2733 
Q 2419 3097 1959 3097 
z
M 1959 3584 
Q 2709 3584 3137 3096 
Q 3566 2609 3566 1747 
Q 3566 888 3137 398 
Q 2709 -91 1959 -91 
Q 1206 -91 779 398 
Q 353 888 353 1747 
Q 353 2609 779 3096 
Q 1206 3584 1959 3584 
z
" transform="scale(0.015625)"/>
       <path id="DejaVuSans-63" d="M 3122 3366 
L 3122 2828 
Q 2878 2963 2633 3030 
Q 2388 3097 2138 3097 
Q 1578 3097 1268 2742 
Q 959 2388 959 1747 
Q 959 1106 1268 751 
Q 1578 397 2138 397 
Q 2388 397 2633 464 
Q 2878 531 3122 666 
L 3122 134 
Q 2881 22 2623 -34 
Q 2366 -91 2075 -91 
Q 1284 -91 818 406 
Q 353 903 353 1747 
Q 353 2603 823 3093 
Q 1294 3584 2113 3584 
Q 2378 3584 2631 3529 
Q 2884 3475 3122 3366 
z
" transform="scale(0.015625)"/>
       <path id="DejaVuSans-68" d="M 3513 2113 
L 3513 0 
L 2938 0 
L 2938 2094 
Q 2938 2591 2744 2837 
Q 2550 3084 2163 3084 
Q 1697 3084 1428 2787 
Q 1159 2491 1159 1978 
L 1159 0 
L 581 0 
L 581 4863 
L 1159 4863 
L 1159 2956 
Q 1366 3272 1645 3428 
Q 1925 3584 2291 3584 
Q 2894 3584 3203 3211 
Q 3513 2838 3513 2113 
z
" transform="scale(0.015625)"/>
      </defs>
      <use xlink:href="#DejaVuSans-45"/>
      <use xlink:href="#DejaVuSans-70" transform="translate(63.183594 0)"/>
      <use xlink:href="#DejaVuSans-6f" transform="translate(126.660156 0)"/>
      <use xlink:href="#DejaVuSans-63" transform="translate(187.841797 0)"/>
      <use xlink:href="#DejaVuSans-68" transform="translate(242.822266 0)"/>
     </g>
    </g>
   </g>
   <g id="matplotlib.axis_2">
    <g id="ytick_1">
     <g id="line2d_6">
      <defs>
       <path id="m5ea9c0b0b6" d="M 0 0 
L -3.5 0 
" style="stroke: #000000; stroke-width: 0.8"/>
      </defs>
      <g>
       <use xlink:href="#m5ea9c0b0b6" x="90" y="310.665083" style="stroke: #000000; stroke-width: 0.8"/>
      </g>
     </g>
     <g id="text_7">
      <!-- 0.00 -->
      <g transform="translate(60.734375 314.464302) scale(0.1 -0.1)">
       <defs>
        <path id="DejaVuSans-2e" d="M 684 794 
L 1344 794 
L 1344 0 
L 684 0 
L 684 794 
z
" transform="scale(0.015625)"/>
       </defs>
       <use xlink:href="#DejaVuSans-30"/>
       <use xlink:href="#DejaVuSans-2e" transform="translate(63.623047 0)"/>
       <use xlink:href="#DejaVuSans-30" transform="translate(95.410156 0)"/>
       <use xlink:href="#DejaVuSans-30" transform="translate(159.033203 0)"/>
      </g>
     </g>
    </g>
    <g id="ytick_2">
     <g id="line2d_7">
      <g>
       <use xlink:href="#m5ea9c0b0b6" x="90" y="256.192194" style="stroke: #000000; stroke-width: 0.8"/>
      </g>
     </g>
     <g id="text_8">
      <!-- 0.05 -->
      <g transform="translate(60.734375 259.991413) scale(0.1 -0.1)">
       <defs>
        <path id="DejaVuSans-35" d="M 691 4666 
L 3169 4666 
L 3169 4134 
L 1269 4134 
L 1269 2991 
Q 1406 3038 1543 3061 
Q 1681 3084 1819 3084 
Q 2600 3084 3056 2656 
Q 3513 2228 3513 1497 
Q 3513 744 3044 326 
Q 2575 -91 1722 -91 
Q 1428 -91 1123 -41 
Q 819 9 494 109 
L 494 744 
Q 775 591 1075 516 
Q 1375 441 1709 441 
Q 2250 441 2565 725 
Q 2881 1009 2881 1497 
Q 2881 1984 2565 2268 
Q 2250 2553 1709 2553 
Q 1456 2553 1204 2497 
Q 953 2441 691 2322 
L 691 4666 
z
" transform="scale(0.015625)"/>
       </defs>
       <use xlink:href="#DejaVuSans-30"/>
       <use xlink:href="#DejaVuSans-2e" transform="translate(63.623047 0)"/>
       <use xlink:href="#DejaVuSans-30" transform="translate(95.410156 0)"/>
       <use xlink:href="#DejaVuSans-35" transform="translate(159.033203 0)"/>
      </g>
     </g>
    </g>
    <g id="ytick_3">
     <g id="line2d_8">
      <g>
       <use xlink:href="#m5ea9c0b0b6" x="90" y="201.719304" style="stroke: #000000; stroke-width: 0.8"/>
      </g>
     </g>
     <g id="text_9">
      <!-- 0.10 -->
      <g transform="translate(60.734375 205.518523) scale(0.1 -0.1)">
       <use xlink:href="#DejaVuSans-30"/>
       <use xlink:href="#DejaVuSans-2e" transform="translate(63.623047 0)"/>
       <use xlink:href="#DejaVuSans-31" transform="translate(95.410156 0)"/>
       <use xlink:href="#DejaVuSans-30" transform="translate(159.033203 0)"/>
      </g>
     </g>
    </g>
    <g id="ytick_4">
     <g id="line2d_9">
      <g>
       <use xlink:href="#m5ea9c0b0b6" x="90" y="147.246415" style="stroke: #000000; stroke-width: 0.8"/>
      </g>
     </g>
     <g id="text_10">
      <!-- 0.15 -->
      <g transform="translate(60.734375 151.045634) scale(0.1 -0.1)">
       <use xlink:href="#DejaVuSans-30"/>
       <use xlink:href="#DejaVuSans-2e" transform="translate(63.623047 0)"/>
       <use xlink:href="#DejaVuSans-31" transform="translate(95.410156 0)"/>
       <use xlink:href="#DejaVuSans-35" transform="translate(159.033203 0)"/>
      </g>
     </g>
    </g>
    <g id="ytick_5">
     <g id="line2d_10">
      <g>
       <use xlink:href="#m5ea9c0b0b6" x="90" y="92.773525" style="stroke: #000000; stroke-width: 0.8"/>
      </g>
     </g>
     <g id="text_11">
      <!-- 0.20 -->
      <g transform="translate(60.734375 96.572744) scale(0.1 -0.1)">
       <use xlink:href="#DejaVuSans-30"/>
       <use xlink:href="#DejaVuSans-2e" transform="translate(63.623047 0)"/>
       <use xlink:href="#DejaVuSans-32" transform="translate(95.410156 0)"/>
       <use xlink:href="#DejaVuSans-30" transform="translate(159.033203 0)"/>
      </g>
     </g>
    </g>
    <g id="text_12">
     <!-- Estimation Loss -->
     <g transform="translate(54.654687 220.98125) rotate(-90) scale(0.1 -0.1)">
      <defs>
       <path id="DejaVuSans-73" d="M 2834 3397 
L 2834 2853 
Q 2591 2978 2328 3040 
Q 2066 3103 1784 3103 
Q 1356 3103 1142 2972 
Q 928 2841 928 2578 
Q 928 2378 1081 2264 
Q 1234 2150 1697 2047 
L 1894 2003 
Q 2506 1872 2764 1633 
Q 3022 1394 3022 966 
Q 3022 478 2636 193 
Q 2250 -91 1575 -91 
Q 1294 -91 989 -36 
Q 684 19 347 128 
L 347 722 
Q 666 556 975 473 
Q 1284 391 1588 391 
Q 1994 391 2212 530 
Q 2431 669 2431 922 
Q 2431 1156 2273 1281 
Q 2116 1406 1581 1522 
L 1381 1569 
Q 847 1681 609 1914 
Q 372 2147 372 2553 
Q 372 3047 722 3315 
Q 1072 3584 1716 3584 
Q 2034 3584 2315 3537 
Q 2597 3491 2834 3397 
z
" transform="scale(0.015625)"/>
       <path id="DejaVuSans-74" d="M 1172 4494 
L 1172 3500 
L 2356 3500 
L 2356 3053 
L 1172 3053 
L 1172 1153 
Q 1172 725 1289 603 
Q 1406 481 1766 481 
L 2356 481 
L 2356 0 
L 1766 0 
Q 1100 0 847 248 
Q 594 497 594 1153 
L 594 3053 
L 172 3053 
L 172 3500 
L 594 3500 
L 594 4494 
L 1172 4494 
z
" transform="scale(0.015625)"/>
       <path id="DejaVuSans-69" d="M 603 3500 
L 1178 3500 
L 1178 0 
L 603 0 
L 603 3500 
z
M 603 4863 
L 1178 4863 
L 1178 4134 
L 603 4134 
L 603 4863 
z
" transform="scale(0.015625)"/>
       <path id="DejaVuSans-6d" d="M 3328 2828 
Q 3544 3216 3844 3400 
Q 4144 3584 4550 3584 
Q 5097 3584 5394 3201 
Q 5691 2819 5691 2113 
L 5691 0 
L 5113 0 
L 5113 2094 
Q 5113 2597 4934 2840 
Q 4756 3084 4391 3084 
Q 3944 3084 3684 2787 
Q 3425 2491 3425 1978 
L 3425 0 
L 2847 0 
L 2847 2094 
Q 2847 2600 2669 2842 
Q 2491 3084 2119 3084 
Q 1678 3084 1418 2786 
Q 1159 2488 1159 1978 
L 1159 0 
L 581 0 
L 581 3500 
L 1159 3500 
L 1159 2956 
Q 1356 3278 1631 3431 
Q 1906 3584 2284 3584 
Q 2666 3584 2933 3390 
Q 3200 3197 3328 2828 
z
" transform="scale(0.015625)"/>
       <path id="DejaVuSans-61" d="M 2194 1759 
Q 1497 1759 1228 1600 
Q 959 1441 959 1056 
Q 959 750 1161 570 
Q 1363 391 1709 391 
Q 2188 391 2477 730 
Q 2766 1069 2766 1631 
L 2766 1759 
L 2194 1759 
z
M 3341 1997 
L 3341 0 
L 2766 0 
L 2766 531 
Q 2569 213 2275 61 
Q 1981 -91 1556 -91 
Q 1019 -91 701 211 
Q 384 513 384 1019 
Q 384 1609 779 1909 
Q 1175 2209 1959 2209 
L 2766 2209 
L 2766 2266 
Q 2766 2663 2505 2880 
Q 2244 3097 1772 3097 
Q 1472 3097 1187 3025 
Q 903 2953 641 2809 
L 641 3341 
Q 956 3463 1253 3523 
Q 1550 3584 1831 3584 
Q 2591 3584 2966 3190 
Q 3341 2797 3341 1997 
z
" transform="scale(0.015625)"/>
       <path id="DejaVuSans-6e" d="M 3513 2113 
L 3513 0 
L 2938 0 
L 2938 2094 
Q 2938 2591 2744 2837 
Q 2550 3084 2163 3084 
Q 1697 3084 1428 2787 
Q 1159 2491 1159 1978 
L 1159 0 
L 581 0 
L 581 3500 
L 1159 3500 
L 1159 2956 
Q 1366 3272 1645 3428 
Q 1925 3584 2291 3584 
Q 2894 3584 3203 3211 
Q 3513 2838 3513 2113 
z
" transform="scale(0.015625)"/>
       <path id="DejaVuSans-20" transform="scale(0.015625)"/>
       <path id="DejaVuSans-4c" d="M 628 4666 
L 1259 4666 
L 1259 531 
L 3531 531 
L 3531 0 
L 628 0 
L 628 4666 
z
" transform="scale(0.015625)"/>
      </defs>
      <use xlink:href="#DejaVuSans-45"/>
      <use xlink:href="#DejaVuSans-73" transform="translate(63.183594 0)"/>
      <use xlink:href="#DejaVuSans-74" transform="translate(115.283203 0)"/>
      <use xlink:href="#DejaVuSans-69" transform="translate(154.492188 0)"/>
      <use xlink:href="#DejaVuSans-6d" transform="translate(182.275391 0)"/>
      <use xlink:href="#DejaVuSans-61" transform="translate(279.6875 0)"/>
      <use xlink:href="#DejaVuSans-74" transform="translate(340.966797 0)"/>
      <use xlink:href="#DejaVuSans-69" transform="translate(380.175781 0)"/>
      <use xlink:href="#DejaVuSans-6f" transform="translate(407.958984 0)"/>
      <use xlink:href="#DejaVuSans-6e" transform="translate(469.140625 0)"/>
      <use xlink:href="#DejaVuSans-20" transform="translate(532.519531 0)"/>
      <use xlink:href="#DejaVuSans-4c" transform="translate(564.306641 0)"/>
      <use xlink:href="#DejaVuSans-6f" transform="translate(618.269531 0)"/>
      <use xlink:href="#DejaVuSans-73" transform="translate(679.451172 0)"/>
      <use xlink:href="#DejaVuSans-73" transform="translate(731.550781 0)"/>
     </g>
    </g>
   </g>
   <g id="line2d_11">
    <path d="M 115.363636 55.8 
L 117.060201 210.152078 
L 118.756765 242.223284 
L 120.453329 258.176194 
L 122.149894 268.291122 
L 123.846458 275.022967 
L 125.543022 279.914684 
L 127.239587 283.557282 
L 128.936151 286.487766 
L 130.632715 288.906205 
L 132.329279 290.886979 
L 134.025844 292.5533 
L 135.722408 293.987541 
L 137.418972 295.226067 
L 140.812101 297.204797 
L 144.20523 298.722726 
L 145.901794 299.379892 
L 150.991487 300.846207 
L 154.384615 301.604532 
L 159.474308 302.54011 
L 162.867437 302.970714 
L 167.95713 303.590421 
L 174.743387 304.224228 
L 179.83308 304.65605 
L 183.226209 304.8268 
L 190.012466 305.285013 
L 191.70903 305.167787 
L 195.102159 305.445147 
L 198.495287 305.648322 
L 200.191852 305.520758 
L 201.888416 305.732021 
L 205.281545 305.850942 
L 206.978109 305.938798 
L 208.674673 305.874029 
L 217.157495 306.131432 
L 222.247188 306.231263 
L 223.943752 306.317068 
L 225.640316 306.281726 
L 227.336881 306.403548 
L 229.033445 306.315882 
L 232.426573 306.456728 
L 234.123138 306.404054 
L 237.516266 306.447698 
L 240.909395 306.516664 
L 245.999088 306.47306 
L 249.392216 306.605208 
L 251.088781 306.496543 
L 254.481909 306.551412 
L 273.144117 306.467311 
L 274.840681 306.5463 
L 276.537245 306.417095 
L 279.930374 306.474766 
L 281.626938 306.360475 
L 285.020067 306.375988 
L 291.806324 306.400934 
L 295.199453 306.338044 
L 320.647917 306.220745 
L 325.73761 306.302183 
L 327.434175 306.233314 
L 329.130739 306.291068 
L 330.827303 306.208719 
L 337.61356 306.309727 
L 341.006689 306.243975 
L 342.703253 306.345203 
L 344.399818 306.193926 
L 347.792946 306.339178 
L 349.48951 306.250849 
L 352.882639 306.350416 
L 356.275768 306.314478 
L 357.972332 306.267492 
L 359.668896 306.352026 
L 363.062025 306.331941 
L 366.455154 306.375979 
L 374.937975 306.397749 
L 376.634539 306.52321 
L 378.331104 306.228526 
L 380.027668 306.429362 
L 385.117361 306.470011 
L 386.813925 306.373535 
L 388.51049 306.528003 
L 390.207054 306.431861 
L 391.903618 306.600618 
L 395.296747 306.417954 
L 396.993311 306.62103 
L 398.689875 306.506976 
L 402.083004 306.707987 
L 403.779568 306.490274 
L 405.476133 306.731049 
L 407.172697 306.540189 
L 408.869261 306.679267 
L 410.565825 306.559299 
L 412.26239 306.701984 
L 420.745211 306.720164 
L 422.441776 306.796337 
L 424.13834 306.676411 
L 425.834904 306.792477 
L 427.531469 306.65378 
L 429.228033 306.747611 
L 430.924597 306.702623 
L 432.621161 306.795823 
L 439.407419 306.685525 
L 441.103983 306.842159 
L 447.89024 306.860347 
L 449.586804 306.972836 
L 451.283369 306.722343 
L 452.979933 306.982966 
L 458.069626 306.781966 
L 459.76619 307.036232 
L 461.462755 306.913757 
L 471.64214 307.068328 
L 478.428398 307.076515 
L 507.269991 307.149082 
L 510.663119 307.196746 
L 514.056248 307.216137 
L 536.111584 307.340552 
L 537.808148 307.261311 
L 541.201277 307.446159 
L 542.897841 307.3671 
L 544.594406 307.448331 
L 546.29097 307.372129 
L 551.380663 307.475928 
L 559.863484 307.409268 
L 561.560049 307.535231 
L 563.256613 307.46493 
L 570.04287 307.563139 
L 573.435999 307.490913 
L 575.132563 307.606802 
L 576.829127 307.465334 
L 581.91882 307.591204 
L 588.705078 307.572713 
L 590.401642 307.700307 
L 592.098206 307.415249 
L 593.79477 307.722937 
L 597.187899 307.627408 
L 602.277592 307.699462 
L 622.636364 307.767834 
L 622.636364 307.767834 
" clip-path="url(#p8b9642d829)" style="fill: none; stroke: #1f77b4; stroke-width: 1.5; stroke-linecap: square"/>
   </g>
   <g id="line2d_12">
    <path d="M 115.363636 61.55072 
L 117.060201 182.152916 
L 118.756765 206.590249 
L 120.453329 219.512692 
L 122.149894 228.042089 
L 123.846458 233.964653 
L 125.543022 238.259602 
L 127.239587 241.409025 
L 128.936151 243.990955 
L 130.632715 246.089481 
L 132.329279 247.798406 
L 135.722408 250.398337 
L 137.418972 251.411896 
L 144.20523 254.300807 
L 147.598358 255.180119 
L 156.08118 256.893705 
L 159.474308 257.372832 
L 169.653694 258.557675 
L 173.046823 258.798915 
L 183.226209 259.431479 
L 198.495287 260.245279 
L 200.191852 260.111302 
L 201.888416 260.317344 
L 212.067802 260.582973 
L 213.764366 260.500304 
L 217.157495 260.733077 
L 218.854059 260.650653 
L 220.550623 260.751176 
L 223.943752 260.73678 
L 229.033445 260.780745 
L 230.730009 260.930611 
L 232.426573 260.774707 
L 234.123138 260.924822 
L 235.819702 260.912084 
L 237.516266 260.782237 
L 239.212831 260.893685 
L 240.909395 260.787282 
L 245.999088 260.831702 
L 269.750988 260.279514 
L 273.144117 260.032517 
L 274.840681 260.103364 
L 276.537245 259.744168 
L 278.23381 259.941918 
L 283.323503 259.650321 
L 285.020067 259.664121 
L 288.413196 259.365571 
L 291.806324 259.277787 
L 298.592581 258.788276 
L 301.98571 258.704111 
L 305.378839 258.416358 
L 308.771967 258.486938 
L 310.468531 258.258086 
L 322.344482 257.921171 
L 324.041046 257.673537 
L 325.73761 257.821656 
L 329.130739 257.702109 
L 330.827303 257.524043 
L 337.61356 257.525038 
L 339.310125 257.293429 
L 342.703253 257.276393 
L 344.399818 257.048052 
L 346.096382 257.178955 
L 357.972332 256.719469 
L 359.668896 256.92209 
L 361.365461 256.73549 
L 364.758589 256.805167 
L 368.151718 256.637628 
L 373.241411 256.841505 
L 374.937975 256.7233 
L 376.634539 256.74391 
L 378.331104 256.618861 
L 380.027668 256.819894 
L 383.420797 256.917924 
L 385.117361 256.926153 
L 386.813925 256.748604 
L 388.51049 256.950622 
L 390.207054 256.807726 
L 391.903618 257.155659 
L 393.600182 256.901095 
L 398.689875 257.25373 
L 400.38644 257.075296 
L 402.083004 257.190353 
L 403.779568 257.132399 
L 405.476133 257.264795 
L 407.172697 257.137625 
L 408.869261 257.195865 
L 410.565825 257.113807 
L 413.958954 257.28768 
L 415.655518 257.141809 
L 419.048647 257.407896 
L 424.13834 257.277605 
L 425.834904 257.39657 
L 427.531469 257.240851 
L 429.228033 257.407625 
L 432.621161 257.45272 
L 437.710854 257.539159 
L 439.407419 257.345948 
L 441.103983 257.54327 
L 447.89024 257.483012 
L 449.586804 257.597351 
L 451.283369 257.333454 
L 452.979933 257.617464 
L 454.676497 257.68138 
L 458.069626 257.458389 
L 459.76619 257.72273 
L 461.462755 257.605975 
L 464.855883 257.552039 
L 468.249012 257.626689 
L 473.338705 257.703925 
L 476.731833 257.856779 
L 478.428398 257.678863 
L 485.214655 257.647839 
L 486.911219 257.541812 
L 488.607784 257.823465 
L 490.304348 257.677724 
L 492.000912 257.863613 
L 497.090605 257.752219 
L 498.787169 257.601199 
L 500.483734 257.796195 
L 505.573427 257.76541 
L 507.269991 257.630523 
L 508.966555 257.936406 
L 510.663119 257.842464 
L 512.359684 257.904608 
L 515.752812 257.776885 
L 517.449377 257.964518 
L 519.145941 257.878742 
L 520.842505 258.162245 
L 522.53907 258.062305 
L 524.235634 258.157603 
L 525.932198 258.024285 
L 527.628763 258.216056 
L 529.325327 257.912991 
L 534.41502 258.271881 
L 536.111584 258.063522 
L 549.684099 258.394999 
L 551.380663 258.385799 
L 553.077227 258.539058 
L 556.470356 258.652251 
L 558.16692 258.311023 
L 559.863484 258.718522 
L 561.560049 258.676879 
L 563.256613 258.433175 
L 564.953177 258.739151 
L 566.649742 258.470535 
L 568.346306 258.638983 
L 570.04287 258.628904 
L 571.739434 258.860337 
L 576.829127 258.535915 
L 578.525692 258.828675 
L 580.222256 258.722951 
L 583.615385 258.745739 
L 587.008513 258.774483 
L 590.401642 258.854615 
L 592.098206 258.720826 
L 593.79477 259.07785 
L 595.491335 258.819891 
L 598.884463 258.961743 
L 600.581028 258.892934 
L 602.277592 259.030199 
L 607.367285 258.97309 
L 609.063849 258.883914 
L 610.760413 259.146263 
L 612.456978 258.938433 
L 620.939799 259.035344 
L 622.636364 258.979883 
L 622.636364 258.979883 
" clip-path="url(#p8b9642d829)" style="fill: none; stroke: #ff7f0e; stroke-width: 1.5; stroke-linecap: square"/>
   </g>
   <g id="line2d_13">
    <path d="M 115.363636 182.03526 
L 117.060201 232.263658 
L 118.756765 253.333968 
L 120.453329 265.698883 
L 122.149894 273.537431 
L 123.846458 278.820225 
L 125.543022 282.526171 
L 127.239587 285.427396 
L 128.936151 287.839421 
L 130.632715 289.776603 
L 132.329279 291.40136 
L 135.722408 294.00228 
L 139.115537 295.860626 
L 144.20523 297.794892 
L 145.901794 298.181625 
L 147.598358 298.78057 
L 149.294922 299.05478 
L 150.991487 299.523285 
L 157.777744 300.604135 
L 161.170873 301.006691 
L 162.867437 301.32069 
L 166.260566 301.608941 
L 169.653694 301.920183 
L 171.350258 301.994534 
L 174.743387 302.287882 
L 178.136516 302.48949 
L 179.83308 302.474221 
L 183.226209 302.85029 
L 184.922773 302.805956 
L 186.619337 303.039261 
L 190.012466 303.056422 
L 191.70903 303.264926 
L 198.495287 303.340938 
L 201.888416 303.47378 
L 203.58498 303.388028 
L 205.281545 303.555998 
L 206.978109 303.221898 
L 208.674673 303.555995 
L 210.371237 303.765207 
L 215.46093 303.849204 
L 217.157495 303.719 
L 218.854059 303.894337 
L 223.943752 303.918311 
L 225.640316 303.967776 
L 227.336881 303.887999 
L 230.730009 303.933999 
L 232.426573 303.847845 
L 234.123138 304.035433 
L 235.819702 304.046396 
L 237.516266 303.786344 
L 239.212831 304.078237 
L 240.909395 303.870852 
L 242.605959 304.078698 
L 244.302524 304.006987 
L 245.999088 304.10101 
L 247.695652 303.961873 
L 249.392216 304.04039 
L 252.785345 303.984602 
L 254.481909 304.100664 
L 256.178474 303.887913 
L 257.875038 304.041401 
L 259.571602 303.851243 
L 261.268167 303.980807 
L 262.964731 303.812895 
L 266.35786 304.051144 
L 268.054424 303.804102 
L 269.750988 304.087112 
L 271.447552 303.906481 
L 273.144117 304.057432 
L 278.23381 303.976383 
L 279.930374 303.662571 
L 281.626938 303.812317 
L 290.10976 303.923111 
L 291.806324 304.088173 
L 293.502888 303.827872 
L 295.199453 304.043224 
L 296.896017 304.096801 
L 298.592581 303.86889 
L 300.289146 303.98773 
L 303.682274 304.043179 
L 305.378839 303.696631 
L 307.075403 303.809691 
L 308.771967 304.051388 
L 310.468531 304.055208 
L 312.165096 303.748671 
L 313.86166 303.970142 
L 315.558224 303.693858 
L 318.951353 304.116247 
L 320.647917 303.832369 
L 322.344482 304.040567 
L 324.041046 303.661341 
L 325.73761 304.00322 
L 327.434175 303.931826 
L 329.130739 304.09178 
L 330.827303 303.667695 
L 332.523867 304.037751 
L 334.220432 303.83961 
L 335.916996 304.033623 
L 337.61356 303.997624 
L 339.310125 303.693019 
L 341.006689 303.884672 
L 342.703253 303.793505 
L 352.882639 303.97879 
L 354.579203 303.87153 
L 356.275768 304.007155 
L 357.972332 303.781932 
L 359.668896 303.932661 
L 361.365461 303.632138 
L 363.062025 304.033974 
L 364.758589 303.415846 
L 366.455154 304.074443 
L 368.151718 303.918732 
L 369.848282 303.492034 
L 371.544846 303.989262 
L 374.937975 304.165427 
L 376.634539 303.539003 
L 378.331104 303.962666 
L 380.027668 304.051649 
L 381.724232 303.67023 
L 383.420797 304.083291 
L 385.117361 304.171761 
L 386.813925 303.947458 
L 388.51049 304.1389 
L 390.207054 303.836824 
L 391.903618 304.177376 
L 393.600182 303.694234 
L 395.296747 304.215903 
L 396.993311 304.039283 
L 398.689875 304.083093 
L 400.38644 304.315283 
L 402.083004 304.031354 
L 403.779568 304.235819 
L 405.476133 304.013943 
L 407.172697 304.26445 
L 408.869261 304.303164 
L 410.565825 304.126224 
L 412.26239 303.719175 
L 413.958954 304.337543 
L 415.655518 304.232332 
L 419.048647 304.203373 
L 420.745211 304.385446 
L 422.441776 304.41359 
L 424.13834 304.238941 
L 425.834904 303.94802 
L 427.531469 304.235842 
L 429.228033 304.355109 
L 430.924597 304.306478 
L 432.621161 304.085507 
L 436.01429 304.236662 
L 437.710854 303.847163 
L 439.407419 304.356311 
L 441.103983 304.451148 
L 442.800547 304.390838 
L 444.497112 304.442367 
L 446.193676 304.195813 
L 447.89024 304.499288 
L 451.283369 304.331515 
L 452.979933 304.462535 
L 454.676497 304.392024 
L 456.373062 303.729956 
L 458.069626 304.294755 
L 459.76619 304.34176 
L 461.462755 304.132702 
L 463.159319 304.538425 
L 464.855883 304.230701 
L 471.64214 304.435176 
L 473.338705 304.344364 
L 475.035269 304.501777 
L 480.124962 304.577576 
L 483.518091 304.208511 
L 485.214655 304.526465 
L 486.911219 304.26222 
L 488.607784 304.443496 
L 490.304348 304.42319 
L 492.000912 304.515213 
L 493.697476 304.343786 
L 495.394041 304.469883 
L 497.090605 303.559035 
L 498.787169 304.376339 
L 502.180298 304.2091 
L 505.573427 303.887208 
L 507.269991 304.117267 
L 508.966555 304.49161 
L 510.663119 304.333102 
L 515.752812 304.198885 
L 517.449377 303.691025 
L 519.145941 304.192739 
L 520.842505 304.489944 
L 522.53907 304.440979 
L 524.235634 303.884914 
L 525.932198 304.237112 
L 527.628763 304.25755 
L 531.021891 304.576631 
L 532.718455 304.274177 
L 534.41502 304.193953 
L 537.808148 304.609807 
L 539.504713 304.345208 
L 541.201277 304.226843 
L 542.897841 304.613717 
L 544.594406 304.658312 
L 546.29097 304.829267 
L 547.987534 304.57589 
L 549.684099 304.538144 
L 551.380663 304.214885 
L 553.077227 304.668927 
L 554.773791 304.630976 
L 556.470356 304.817789 
L 558.16692 304.784153 
L 559.863484 304.969423 
L 561.560049 304.708183 
L 563.256613 304.069954 
L 564.953177 304.901402 
L 570.04287 304.654652 
L 571.739434 304.759671 
L 573.435999 304.523561 
L 575.132563 304.858371 
L 576.829127 304.844631 
L 578.525692 305.024253 
L 581.91882 304.580783 
L 583.615385 304.764294 
L 587.008513 304.408399 
L 588.705078 304.574038 
L 590.401642 304.592003 
L 592.098206 305.105729 
L 593.79477 304.440757 
L 595.491335 305.084643 
L 597.187899 304.636723 
L 598.884463 305.070526 
L 600.581028 305.200391 
L 602.277592 304.837583 
L 603.974156 305.018585 
L 605.670721 304.861579 
L 607.367285 304.913772 
L 610.760413 304.882492 
L 612.456978 305.063821 
L 614.153542 305.12813 
L 615.850106 304.881091 
L 617.546671 304.78017 
L 619.243235 305.003524 
L 620.939799 304.907136 
L 622.636364 305.033269 
L 622.636364 305.033269 
" clip-path="url(#p8b9642d829)" style="fill: none; stroke: #2ca02c; stroke-width: 1.5; stroke-linecap: square"/>
   </g>
   <g id="line2d_14">
    <path d="M 115.363636 175.720114 
L 117.060201 211.627935 
L 118.756765 227.594876 
L 120.453329 237.684352 
L 122.149894 244.820264 
L 123.846458 250.047611 
L 125.543022 253.76206 
L 127.239587 256.597906 
L 128.936151 258.922549 
L 130.632715 261.031617 
L 132.329279 262.553839 
L 134.025844 263.637969 
L 135.722408 265.083355 
L 137.418972 265.729112 
L 139.115537 266.73283 
L 140.812101 267.439758 
L 142.508665 267.882514 
L 144.20523 268.798945 
L 145.901794 268.936709 
L 147.598358 269.518295 
L 149.294922 269.683051 
L 150.991487 270.260022 
L 156.08118 271.126661 
L 157.777744 271.337966 
L 159.474308 271.315232 
L 161.170873 271.634182 
L 162.867437 271.670822 
L 164.564001 272.080809 
L 166.260566 272.031866 
L 169.653694 272.423236 
L 171.350258 272.555833 
L 173.046823 272.466365 
L 174.743387 272.681855 
L 186.619337 273.210123 
L 190.012466 273.432444 
L 191.70903 273.367072 
L 193.405594 273.472109 
L 195.102159 273.460628 
L 196.798723 273.594612 
L 198.495287 273.580268 
L 203.58498 273.836269 
L 206.978109 273.60137 
L 208.674673 273.860943 
L 213.764366 274.126815 
L 215.46093 274.158036 
L 217.157495 274.036678 
L 220.550623 274.155111 
L 222.247188 274.090806 
L 223.943752 274.191971 
L 229.033445 274.143387 
L 230.730009 274.293541 
L 235.819702 274.198951 
L 237.516266 273.905003 
L 239.212831 274.278488 
L 240.909395 274.32123 
L 242.605959 274.132395 
L 244.302524 274.183542 
L 245.999088 274.067721 
L 247.695652 274.256813 
L 249.392216 274.011316 
L 252.785345 274.112002 
L 256.178474 274.035577 
L 259.571602 273.953184 
L 262.964731 273.983636 
L 268.054424 273.749988 
L 273.144117 273.593462 
L 274.840681 273.049252 
L 276.537245 273.525245 
L 278.23381 273.364546 
L 279.930374 273.4371 
L 283.323503 273.25698 
L 285.020067 272.85965 
L 286.716631 273.092903 
L 288.413196 272.886515 
L 290.10976 272.915307 
L 291.806324 272.141312 
L 293.502888 272.623041 
L 296.896017 272.189072 
L 298.592581 272.577738 
L 300.289146 272.298252 
L 301.98571 272.238501 
L 303.682274 271.900725 
L 305.378839 272.093065 
L 307.075403 271.925307 
L 308.771967 271.637044 
L 310.468531 271.491995 
L 312.165096 271.828832 
L 313.86166 271.292067 
L 315.558224 271.710048 
L 317.254789 271.631452 
L 318.951353 271.148895 
L 320.647917 271.574937 
L 322.344482 271.208114 
L 324.041046 271.177458 
L 325.73761 270.785471 
L 327.434175 270.977958 
L 329.130739 270.85496 
L 330.827303 271.207192 
L 332.523867 270.74702 
L 334.220432 271.166048 
L 335.916996 270.910225 
L 339.310125 270.710297 
L 341.006689 270.29142 
L 342.703253 270.525423 
L 344.399818 270.635451 
L 346.096382 270.501056 
L 347.792946 270.179865 
L 349.48951 270.538298 
L 351.186075 270.217212 
L 352.882639 270.2791 
L 354.579203 270.62489 
L 356.275768 269.871357 
L 357.972332 270.206097 
L 359.668896 270.092396 
L 361.365461 270.726974 
L 363.062025 270.432702 
L 364.758589 268.910786 
L 366.455154 270.36089 
L 368.151718 270.366004 
L 369.848282 270.804569 
L 373.241411 270.084055 
L 374.937975 270.069486 
L 376.634539 270.530935 
L 378.331104 270.458236 
L 380.027668 270.610904 
L 381.724232 269.711259 
L 383.420797 269.586985 
L 385.117361 269.981003 
L 386.813925 270.699263 
L 388.51049 270.405191 
L 390.207054 270.657823 
L 391.903618 270.470198 
L 393.600182 271.027325 
L 395.296747 270.603849 
L 396.993311 269.668217 
L 398.689875 270.848957 
L 400.38644 270.12474 
L 402.083004 270.750039 
L 403.779568 270.722714 
L 405.476133 269.504164 
L 407.172697 270.797469 
L 408.869261 270.060586 
L 410.565825 270.851089 
L 412.26239 269.704619 
L 413.958954 270.518907 
L 415.655518 270.911573 
L 417.352083 270.705888 
L 419.048647 270.347026 
L 420.745211 270.175117 
L 422.441776 270.636948 
L 424.13834 270.82413 
L 425.834904 271.423313 
L 427.531469 271.085598 
L 429.228033 270.446008 
L 430.924597 270.666123 
L 432.621161 271.311266 
L 434.317726 270.718965 
L 436.01429 271.062905 
L 437.710854 271.255958 
L 439.407419 270.73653 
L 442.800547 269.973912 
L 444.497112 270.340564 
L 446.193676 271.274497 
L 447.89024 270.644902 
L 449.586804 270.437992 
L 451.283369 271.018465 
L 452.979933 270.955557 
L 454.676497 270.724625 
L 456.373062 271.230151 
L 458.069626 271.28801 
L 459.76619 271.213091 
L 461.462755 271.307062 
L 463.159319 271.208758 
L 464.855883 270.598743 
L 466.552448 270.175675 
L 468.249012 270.953312 
L 469.945576 271.558941 
L 471.64214 271.181809 
L 473.338705 271.478741 
L 475.035269 271.087882 
L 476.731833 270.893869 
L 478.428398 270.55678 
L 480.124962 270.505647 
L 481.821526 270.929457 
L 483.518091 270.454156 
L 485.214655 271.505248 
L 486.911219 271.924655 
L 488.607784 271.841967 
L 490.304348 271.536422 
L 492.000912 271.9135 
L 493.697476 271.890647 
L 495.394041 271.404222 
L 497.090605 271.940983 
L 500.483734 272.104068 
L 502.180298 271.795346 
L 503.876862 271.162399 
L 505.573427 272.04515 
L 507.269991 271.743714 
L 508.966555 271.719286 
L 510.663119 271.994163 
L 512.359684 271.683164 
L 514.056248 272.15836 
L 517.449377 271.635594 
L 519.145941 271.919664 
L 520.842505 272.025978 
L 522.53907 271.699552 
L 524.235634 272.437055 
L 525.932198 271.478751 
L 527.628763 271.912467 
L 529.325327 272.206007 
L 531.021891 271.844065 
L 532.718455 271.773473 
L 534.41502 270.642974 
L 536.111584 271.822575 
L 537.808148 272.424553 
L 539.504713 271.987755 
L 541.201277 272.546824 
L 542.897841 271.893418 
L 544.594406 271.47096 
L 546.29097 271.681592 
L 547.987534 271.559461 
L 549.684099 272.245734 
L 551.380663 272.598964 
L 553.077227 272.040134 
L 554.773791 272.134157 
L 556.470356 271.609243 
L 558.16692 272.363466 
L 559.863484 272.404523 
L 561.560049 272.171008 
L 563.256613 271.209571 
L 564.953177 272.3578 
L 566.649742 271.984568 
L 568.346306 272.578612 
L 570.04287 272.770939 
L 571.739434 272.463652 
L 573.435999 271.059166 
L 575.132563 271.718848 
L 576.829127 272.621411 
L 578.525692 272.432376 
L 580.222256 272.419919 
L 581.91882 271.783787 
L 583.615385 271.857915 
L 585.311949 271.710334 
L 587.008513 272.88881 
L 588.705078 271.942698 
L 590.401642 273.018642 
L 592.098206 272.405592 
L 593.79477 271.418423 
L 595.491335 272.402736 
L 597.187899 271.620337 
L 598.884463 272.340663 
L 600.581028 272.126551 
L 602.277592 271.62005 
L 603.974156 272.737898 
L 605.670721 271.744671 
L 607.367285 271.718529 
L 609.063849 272.203296 
L 610.760413 273.145284 
L 612.456978 272.075943 
L 614.153542 272.13618 
L 615.850106 272.513788 
L 617.546671 271.754467 
L 619.243235 272.100927 
L 622.636364 272.349975 
L 622.636364 272.349975 
" clip-path="url(#p8b9642d829)" style="fill: none; stroke: #d62728; stroke-width: 1.5; stroke-linecap: square"/>
   </g>
   <g id="patch_3">
    <path d="M 90 320.4 
L 90 43.2 
" style="fill: none; stroke: #000000; stroke-width: 0.8; stroke-linejoin: miter; stroke-linecap: square"/>
   </g>
   <g id="patch_4">
    <path d="M 648 320.4 
L 648 43.2 
" style="fill: none; stroke: #000000; stroke-width: 0.8; stroke-linejoin: miter; stroke-linecap: square"/>
   </g>
   <g id="patch_5">
    <path d="M 90 320.4 
L 648 320.4 
" style="fill: none; stroke: #000000; stroke-width: 0.8; stroke-linejoin: miter; stroke-linecap: square"/>
   </g>
   <g id="patch_6">
    <path d="M 90 43.2 
L 648 43.2 
" style="fill: none; stroke: #000000; stroke-width: 0.8; stroke-linejoin: miter; stroke-linecap: square"/>
   </g>
   <g id="text_13">
    <!-- Training and Validating Estimation Loss -->
    <g transform="translate(251.535937 37.2) scale(0.12 -0.12)">
     <defs>
      <path id="DejaVuSans-54" d="M -19 4666 
L 3928 4666 
L 3928 4134 
L 2272 4134 
L 2272 0 
L 1638 0 
L 1638 4134 
L -19 4134 
L -19 4666 
z
" transform="scale(0.015625)"/>
      <path id="DejaVuSans-72" d="M 2631 2963 
Q 2534 3019 2420 3045 
Q 2306 3072 2169 3072 
Q 1681 3072 1420 2755 
Q 1159 2438 1159 1844 
L 1159 0 
L 581 0 
L 581 3500 
L 1159 3500 
L 1159 2956 
Q 1341 3275 1631 3429 
Q 1922 3584 2338 3584 
Q 2397 3584 2469 3576 
Q 2541 3569 2628 3553 
L 2631 2963 
z
" transform="scale(0.015625)"/>
      <path id="DejaVuSans-67" d="M 2906 1791 
Q 2906 2416 2648 2759 
Q 2391 3103 1925 3103 
Q 1463 3103 1205 2759 
Q 947 2416 947 1791 
Q 947 1169 1205 825 
Q 1463 481 1925 481 
Q 2391 481 2648 825 
Q 2906 1169 2906 1791 
z
M 3481 434 
Q 3481 -459 3084 -895 
Q 2688 -1331 1869 -1331 
Q 1566 -1331 1297 -1286 
Q 1028 -1241 775 -1147 
L 775 -588 
Q 1028 -725 1275 -790 
Q 1522 -856 1778 -856 
Q 2344 -856 2625 -561 
Q 2906 -266 2906 331 
L 2906 616 
Q 2728 306 2450 153 
Q 2172 0 1784 0 
Q 1141 0 747 490 
Q 353 981 353 1791 
Q 353 2603 747 3093 
Q 1141 3584 1784 3584 
Q 2172 3584 2450 3431 
Q 2728 3278 2906 2969 
L 2906 3500 
L 3481 3500 
L 3481 434 
z
" transform="scale(0.015625)"/>
      <path id="DejaVuSans-64" d="M 2906 2969 
L 2906 4863 
L 3481 4863 
L 3481 0 
L 2906 0 
L 2906 525 
Q 2725 213 2448 61 
Q 2172 -91 1784 -91 
Q 1150 -91 751 415 
Q 353 922 353 1747 
Q 353 2572 751 3078 
Q 1150 3584 1784 3584 
Q 2172 3584 2448 3432 
Q 2725 3281 2906 2969 
z
M 947 1747 
Q 947 1113 1208 752 
Q 1469 391 1925 391 
Q 2381 391 2643 752 
Q 2906 1113 2906 1747 
Q 2906 2381 2643 2742 
Q 2381 3103 1925 3103 
Q 1469 3103 1208 2742 
Q 947 2381 947 1747 
z
" transform="scale(0.015625)"/>
      <path id="DejaVuSans-56" d="M 1831 0 
L 50 4666 
L 709 4666 
L 2188 738 
L 3669 4666 
L 4325 4666 
L 2547 0 
L 1831 0 
z
" transform="scale(0.015625)"/>
      <path id="DejaVuSans-6c" d="M 603 4863 
L 1178 4863 
L 1178 0 
L 603 0 
L 603 4863 
z
" transform="scale(0.015625)"/>
     </defs>
     <use xlink:href="#DejaVuSans-54"/>
     <use xlink:href="#DejaVuSans-72" transform="translate(46.333984 0)"/>
     <use xlink:href="#DejaVuSans-61" transform="translate(87.447266 0)"/>
     <use xlink:href="#DejaVuSans-69" transform="translate(148.726562 0)"/>
     <use xlink:href="#DejaVuSans-6e" transform="translate(176.509766 0)"/>
     <use xlink:href="#DejaVuSans-69" transform="translate(239.888672 0)"/>
     <use xlink:href="#DejaVuSans-6e" transform="translate(267.671875 0)"/>
     <use xlink:href="#DejaVuSans-67" transform="translate(331.050781 0)"/>
     <use xlink:href="#DejaVuSans-20" transform="translate(394.527344 0)"/>
     <use xlink:href="#DejaVuSans-61" transform="translate(426.314453 0)"/>
     <use xlink:href="#DejaVuSans-6e" transform="translate(487.59375 0)"/>
     <use xlink:href="#DejaVuSans-64" transform="translate(550.972656 0)"/>
     <use xlink:href="#DejaVuSans-20" transform="translate(614.449219 0)"/>
     <use xlink:href="#DejaVuSans-56" transform="translate(646.236328 0)"/>
     <use xlink:href="#DejaVuSans-61" transform="translate(706.894531 0)"/>
     <use xlink:href="#DejaVuSans-6c" transform="translate(768.173828 0)"/>
     <use xlink:href="#DejaVuSans-69" transform="translate(795.957031 0)"/>
     <use xlink:href="#DejaVuSans-64" transform="translate(823.740234 0)"/>
     <use xlink:href="#DejaVuSans-61" transform="translate(887.216797 0)"/>
     <use xlink:href="#DejaVuSans-74" transform="translate(948.496094 0)"/>
     <use xlink:href="#DejaVuSans-69" transform="translate(987.705078 0)"/>
     <use xlink:href="#DejaVuSans-6e" transform="translate(1015.488281 0)"/>
     <use xlink:href="#DejaVuSans-67" transform="translate(1078.867188 0)"/>
     <use xlink:href="#DejaVuSans-20" transform="translate(1142.34375 0)"/>
     <use xlink:href="#DejaVuSans-45" transform="translate(1174.130859 0)"/>
     <use xlink:href="#DejaVuSans-73" transform="translate(1237.314453 0)"/>
     <use xlink:href="#DejaVuSans-74" transform="translate(1289.414062 0)"/>
     <use xlink:href="#DejaVuSans-69" transform="translate(1328.623047 0)"/>
     <use xlink:href="#DejaVuSans-6d" transform="translate(1356.40625 0)"/>
     <use xlink:href="#DejaVuSans-61" transform="translate(1453.818359 0)"/>
     <use xlink:href="#DejaVuSans-74" transform="translate(1515.097656 0)"/>
     <use xlink:href="#DejaVuSans-69" transform="translate(1554.306641 0)"/>
     <use xlink:href="#DejaVuSans-6f" transform="translate(1582.089844 0)"/>
     <use xlink:href="#DejaVuSans-6e" transform="translate(1643.271484 0)"/>
     <use xlink:href="#DejaVuSans-20" transform="translate(1706.650391 0)"/>
     <use xlink:href="#DejaVuSans-4c" transform="translate(1738.4375 0)"/>
     <use xlink:href="#DejaVuSans-6f" transform="translate(1792.400391 0)"/>
     <use xlink:href="#DejaVuSans-73" transform="translate(1853.582031 0)"/>
     <use xlink:href="#DejaVuSans-73" transform="translate(1905.681641 0)"/>
    </g>
   </g>
   <g id="legend_1">
    <g id="patch_7">
     <path d="M 521.439062 109.9125 
L 641 109.9125 
Q 643 109.9125 643 107.9125 
L 643 50.2 
Q 643 48.2 641 48.2 
L 521.439062 48.2 
Q 519.439062 48.2 519.439062 50.2 
L 519.439062 107.9125 
Q 519.439062 109.9125 521.439062 109.9125 
z
" style="fill: #ffffff; opacity: 0.8; stroke: #cccccc; stroke-linejoin: miter"/>
    </g>
    <g id="line2d_15">
     <path d="M 523.439062 56.298437 
L 533.439062 56.298437 
L 543.439062 56.298437 
" style="fill: none; stroke: #1f77b4; stroke-width: 1.5; stroke-linecap: square"/>
    </g>
    <g id="text_14">
     <!-- Training-Source -->
     <g transform="translate(551.439062 59.798437) scale(0.1 -0.1)">
      <defs>
       <path id="DejaVuSans-2d" d="M 313 2009 
L 1997 2009 
L 1997 1497 
L 313 1497 
L 313 2009 
z
" transform="scale(0.015625)"/>
       <path id="DejaVuSans-53" d="M 3425 4513 
L 3425 3897 
Q 3066 4069 2747 4153 
Q 2428 4238 2131 4238 
Q 1616 4238 1336 4038 
Q 1056 3838 1056 3469 
Q 1056 3159 1242 3001 
Q 1428 2844 1947 2747 
L 2328 2669 
Q 3034 2534 3370 2195 
Q 3706 1856 3706 1288 
Q 3706 609 3251 259 
Q 2797 -91 1919 -91 
Q 1588 -91 1214 -16 
Q 841 59 441 206 
L 441 856 
Q 825 641 1194 531 
Q 1563 422 1919 422 
Q 2459 422 2753 634 
Q 3047 847 3047 1241 
Q 3047 1584 2836 1778 
Q 2625 1972 2144 2069 
L 1759 2144 
Q 1053 2284 737 2584 
Q 422 2884 422 3419 
Q 422 4038 858 4394 
Q 1294 4750 2059 4750 
Q 2388 4750 2728 4690 
Q 3069 4631 3425 4513 
z
" transform="scale(0.015625)"/>
       <path id="DejaVuSans-75" d="M 544 1381 
L 544 3500 
L 1119 3500 
L 1119 1403 
Q 1119 906 1312 657 
Q 1506 409 1894 409 
Q 2359 409 2629 706 
Q 2900 1003 2900 1516 
L 2900 3500 
L 3475 3500 
L 3475 0 
L 2900 0 
L 2900 538 
Q 2691 219 2414 64 
Q 2138 -91 1772 -91 
Q 1169 -91 856 284 
Q 544 659 544 1381 
z
M 1991 3584 
L 1991 3584 
z
" transform="scale(0.015625)"/>
       <path id="DejaVuSans-65" d="M 3597 1894 
L 3597 1613 
L 953 1613 
Q 991 1019 1311 708 
Q 1631 397 2203 397 
Q 2534 397 2845 478 
Q 3156 559 3463 722 
L 3463 178 
Q 3153 47 2828 -22 
Q 2503 -91 2169 -91 
Q 1331 -91 842 396 
Q 353 884 353 1716 
Q 353 2575 817 3079 
Q 1281 3584 2069 3584 
Q 2775 3584 3186 3129 
Q 3597 2675 3597 1894 
z
M 3022 2063 
Q 3016 2534 2758 2815 
Q 2500 3097 2075 3097 
Q 1594 3097 1305 2825 
Q 1016 2553 972 2059 
L 3022 2063 
z
" transform="scale(0.015625)"/>
      </defs>
      <use xlink:href="#DejaVuSans-54"/>
      <use xlink:href="#DejaVuSans-72" transform="translate(46.333984 0)"/>
      <use xlink:href="#DejaVuSans-61" transform="translate(87.447266 0)"/>
      <use xlink:href="#DejaVuSans-69" transform="translate(148.726562 0)"/>
      <use xlink:href="#DejaVuSans-6e" transform="translate(176.509766 0)"/>
      <use xlink:href="#DejaVuSans-69" transform="translate(239.888672 0)"/>
      <use xlink:href="#DejaVuSans-6e" transform="translate(267.671875 0)"/>
      <use xlink:href="#DejaVuSans-67" transform="translate(331.050781 0)"/>
      <use xlink:href="#DejaVuSans-2d" transform="translate(394.527344 0)"/>
      <use xlink:href="#DejaVuSans-53" transform="translate(430.611328 0)"/>
      <use xlink:href="#DejaVuSans-6f" transform="translate(494.087891 0)"/>
      <use xlink:href="#DejaVuSans-75" transform="translate(555.269531 0)"/>
      <use xlink:href="#DejaVuSans-72" transform="translate(618.648438 0)"/>
      <use xlink:href="#DejaVuSans-63" transform="translate(657.511719 0)"/>
      <use xlink:href="#DejaVuSans-65" transform="translate(712.492188 0)"/>
     </g>
    </g>
    <g id="line2d_16">
     <path d="M 523.439062 70.976562 
L 533.439062 70.976562 
L 543.439062 70.976562 
" style="fill: none; stroke: #ff7f0e; stroke-width: 1.5; stroke-linecap: square"/>
    </g>
    <g id="text_15">
     <!-- Training-Target -->
     <g transform="translate(551.439062 74.476562) scale(0.1 -0.1)">
      <use xlink:href="#DejaVuSans-54"/>
      <use xlink:href="#DejaVuSans-72" transform="translate(46.333984 0)"/>
      <use xlink:href="#DejaVuSans-61" transform="translate(87.447266 0)"/>
      <use xlink:href="#DejaVuSans-69" transform="translate(148.726562 0)"/>
      <use xlink:href="#DejaVuSans-6e" transform="translate(176.509766 0)"/>
      <use xlink:href="#DejaVuSans-69" transform="translate(239.888672 0)"/>
      <use xlink:href="#DejaVuSans-6e" transform="translate(267.671875 0)"/>
      <use xlink:href="#DejaVuSans-67" transform="translate(331.050781 0)"/>
      <use xlink:href="#DejaVuSans-2d" transform="translate(394.527344 0)"/>
      <use xlink:href="#DejaVuSans-54" transform="translate(421.486328 0)"/>
      <use xlink:href="#DejaVuSans-61" transform="translate(466.070312 0)"/>
      <use xlink:href="#DejaVuSans-72" transform="translate(527.349609 0)"/>
      <use xlink:href="#DejaVuSans-67" transform="translate(566.712891 0)"/>
      <use xlink:href="#DejaVuSans-65" transform="translate(630.189453 0)"/>
      <use xlink:href="#DejaVuSans-74" transform="translate(691.712891 0)"/>
     </g>
    </g>
    <g id="line2d_17">
     <path d="M 523.439062 85.654687 
L 533.439062 85.654687 
L 543.439062 85.654687 
" style="fill: none; stroke: #2ca02c; stroke-width: 1.5; stroke-linecap: square"/>
    </g>
    <g id="text_16">
     <!-- Validating-Source -->
     <g transform="translate(551.439062 89.154687) scale(0.1 -0.1)">
      <use xlink:href="#DejaVuSans-56"/>
      <use xlink:href="#DejaVuSans-61" transform="translate(60.658203 0)"/>
      <use xlink:href="#DejaVuSans-6c" transform="translate(121.9375 0)"/>
      <use xlink:href="#DejaVuSans-69" transform="translate(149.720703 0)"/>
      <use xlink:href="#DejaVuSans-64" transform="translate(177.503906 0)"/>
      <use xlink:href="#DejaVuSans-61" transform="translate(240.980469 0)"/>
      <use xlink:href="#DejaVuSans-74" transform="translate(302.259766 0)"/>
      <use xlink:href="#DejaVuSans-69" transform="translate(341.46875 0)"/>
      <use xlink:href="#DejaVuSans-6e" transform="translate(369.251953 0)"/>
      <use xlink:href="#DejaVuSans-67" transform="translate(432.630859 0)"/>
      <use xlink:href="#DejaVuSans-2d" transform="translate(496.107422 0)"/>
      <use xlink:href="#DejaVuSans-53" transform="translate(532.191406 0)"/>
      <use xlink:href="#DejaVuSans-6f" transform="translate(595.667969 0)"/>
      <use xlink:href="#DejaVuSans-75" transform="translate(656.849609 0)"/>
      <use xlink:href="#DejaVuSans-72" transform="translate(720.228516 0)"/>
      <use xlink:href="#DejaVuSans-63" transform="translate(759.091797 0)"/>
      <use xlink:href="#DejaVuSans-65" transform="translate(814.072266 0)"/>
     </g>
    </g>
    <g id="line2d_18">
     <path d="M 523.439062 100.332812 
L 533.439062 100.332812 
L 543.439062 100.332812 
" style="fill: none; stroke: #d62728; stroke-width: 1.5; stroke-linecap: square"/>
    </g>
    <g id="text_17">
     <!-- Validating-Target -->
     <g transform="translate(551.439062 103.832812) scale(0.1 -0.1)">
      <use xlink:href="#DejaVuSans-56"/>
      <use xlink:href="#DejaVuSans-61" transform="translate(60.658203 0)"/>
      <use xlink:href="#DejaVuSans-6c" transform="translate(121.9375 0)"/>
      <use xlink:href="#DejaVuSans-69" transform="translate(149.720703 0)"/>
      <use xlink:href="#DejaVuSans-64" transform="translate(177.503906 0)"/>
      <use xlink:href="#DejaVuSans-61" transform="translate(240.980469 0)"/>
      <use xlink:href="#DejaVuSans-74" transform="translate(302.259766 0)"/>
      <use xlink:href="#DejaVuSans-69" transform="translate(341.46875 0)"/>
      <use xlink:href="#DejaVuSans-6e" transform="translate(369.251953 0)"/>
      <use xlink:href="#DejaVuSans-67" transform="translate(432.630859 0)"/>
      <use xlink:href="#DejaVuSans-2d" transform="translate(496.107422 0)"/>
      <use xlink:href="#DejaVuSans-54" transform="translate(523.066406 0)"/>
      <use xlink:href="#DejaVuSans-61" transform="translate(567.650391 0)"/>
      <use xlink:href="#DejaVuSans-72" transform="translate(628.929688 0)"/>
      <use xlink:href="#DejaVuSans-67" transform="translate(668.292969 0)"/>
      <use xlink:href="#DejaVuSans-65" transform="translate(731.769531 0)"/>
      <use xlink:href="#DejaVuSans-74" transform="translate(793.292969 0)"/>
     </g>
    </g>
   </g>
  </g>
 </g>
 <defs>
  <clipPath id="p8b9642d829">
   <rect x="90" y="43.2" width="558" height="277.2"/>
  </clipPath>
 </defs>
</svg>
