<?xml version="1.0" encoding="utf-8" standalone="no"?>
<!DOCTYPE svg PUBLIC "-//W3C//DTD SVG 1.1//EN"
  "http://www.w3.org/Graphics/SVG/1.1/DTD/svg11.dtd">
<svg xmlns:xlink="http://www.w3.org/1999/xlink" width="720pt" height="360pt" viewBox="0 0 720 360" xmlns="http://www.w3.org/2000/svg" version="1.1">
 <metadata>
  <rdf:RDF xmlns:dc="http://purl.org/dc/elements/1.1/" xmlns:cc="http://creativecommons.org/ns#" xmlns:rdf="http://www.w3.org/1999/02/22-rdf-syntax-ns#">
   <cc:Work>
    <dc:type rdf:resource="http://purl.org/dc/dcmitype/StillImage"/>
    <dc:date>2026-02-03T17:44:13.065429</dc:date>
    <dc:format>image/svg+xml</dc:format>
    <dc:creator>
     <cc:Agent>
      <dc:title>Matplotlib v3.10.1, https://matplotlib.org/</dc:title>
     </cc:Agent>
    </dc:creator>
   </cc:Work>
  </rdf:RDF>
 </metadata>
 <defs>
  <style type="text/css">*{stroke-linejoin: round; stroke-linecap: butt}</style>
 </defs>
 <g id="figure_1">
  <g id="patch_1">
   <path d="M 0 360 
L 720 360 
L 720 0 
L 0 0 
z
" style="fill: #ffffff"/>
  </g>
  <g id="axes_1">
   <g id="patch_2">
    <path d="M 90 320.4 
L 648 320.4 
L 648 43.2 
L 90 43.2 
z
" style="fill: #ffffff"/>
   </g>
   <g id="matplotlib.axis_1">
    <g id="xtick_1">
     <g id="line2d_1">
      <defs>
       <path id="m300fbf274a" d="M 0 0 
L 0 3.5 
" style="stroke: #000000; stroke-width: 0.8"/>
      </defs>
      <g>
       <use xlink:href="#m300fbf274a" x="115.363636" y="320.4" style="stroke: #000000; stroke-width: 0.8"/>
      </g>
     </g>
     <g id="text_1">
      <!-- 0 -->
      <g transform="translate(112.182386 334.998438) scale(0.1 -0.1)">
       <defs>
        <path id="DejaVuSans-30" d="M 2034 4250 
Q 1547 4250 1301 3770 
Q 1056 3291 1056 2328 
Q 1056 1369 1301 889 
Q 1547 409 2034 409 
Q 2525 409 2770 889 
Q 3016 1369 3016 2328 
Q 3016 3291 2770 3770 
Q 2525 4250 2034 4250 
z
M 2034 4750 
Q 2819 4750 3233 4129 
Q 3647 3509 3647 2328 
Q 3647 1150 3233 529 
Q 2819 -91 2034 -91 
Q 1250 -91 836 529 
Q 422 1150 422 2328 
Q 422 3509 836 4129 
Q 1250 4750 2034 4750 
z
" transform="scale(0.015625)"/>
       </defs>
       <use xlink:href="#DejaVuSans-30"/>
      </g>
     </g>
    </g>
    <g id="xtick_2">
     <g id="line2d_2">
      <g>
       <use xlink:href="#m300fbf274a" x="217.195336" y="320.4" style="stroke: #000000; stroke-width: 0.8"/>
      </g>
     </g>
     <g id="text_2">
      <!-- 54 -->
      <g transform="translate(210.832836 334.998438) scale(0.1 -0.1)">
       <defs>
        <path id="DejaVuSans-35" d="M 691 4666 
L 3169 4666 
L 3169 4134 
L 1269 4134 
L 1269 2991 
Q 1406 3038 1543 3061 
Q 1681 3084 1819 3084 
Q 2600 3084 3056 2656 
Q 3513 2228 3513 1497 
Q 3513 744 3044 326 
Q 2575 -91 1722 -91 
Q 1428 -91 1123 -41 
Q 819 9 494 109 
L 494 744 
Q 775 591 1075 516 
Q 1375 441 1709 441 
Q 2250 441 2565 725 
Q 2881 1009 2881 1497 
Q 2881 1984 2565 2268 
Q 2250 2553 1709 2553 
Q 1456 2553 1204 2497 
Q 953 2441 691 2322 
L 691 4666 
z
" transform="scale(0.015625)"/>
        <path id="DejaVuSans-34" d="M 2419 4116 
L 825 1625 
L 2419 1625 
L 2419 4116 
z
M 2253 4666 
L 3047 4666 
L 3047 1625 
L 3713 1625 
L 3713 1100 
L 3047 1100 
L 3047 0 
L 2419 0 
L 2419 1100 
L 313 1100 
L 313 1709 
L 2253 4666 
z
" transform="scale(0.015625)"/>
       </defs>
       <use xlink:href="#DejaVuSans-35"/>
       <use xlink:href="#DejaVuSans-34" transform="translate(63.623047 0)"/>
      </g>
     </g>
    </g>
    <g id="xtick_3">
     <g id="line2d_3">
      <g>
       <use xlink:href="#m300fbf274a" x="319.027036" y="320.4" style="stroke: #000000; stroke-width: 0.8"/>
      </g>
     </g>
     <g id="text_3">
      <!-- 108 -->
      <g transform="translate(309.483286 334.998438) scale(0.1 -0.1)">
       <defs>
        <path id="DejaVuSans-31" d="M 794 531 
L 1825 531 
L 1825 4091 
L 703 3866 
L 703 4441 
L 1819 4666 
L 2450 4666 
L 2450 531 
L 3481 531 
L 3481 0 
L 794 0 
L 794 531 
z
" transform="scale(0.015625)"/>
        <path id="DejaVuSans-38" d="M 2034 2216 
Q 1584 2216 1326 1975 
Q 1069 1734 1069 1313 
Q 1069 891 1326 650 
Q 1584 409 2034 409 
Q 2484 409 2743 651 
Q 3003 894 3003 1313 
Q 3003 1734 2745 1975 
Q 2488 2216 2034 2216 
z
M 1403 2484 
Q 997 2584 770 2862 
Q 544 3141 544 3541 
Q 544 4100 942 4425 
Q 1341 4750 2034 4750 
Q 2731 4750 3128 4425 
Q 3525 4100 3525 3541 
Q 3525 3141 3298 2862 
Q 3072 2584 2669 2484 
Q 3125 2378 3379 2068 
Q 3634 1759 3634 1313 
Q 3634 634 3220 271 
Q 2806 -91 2034 -91 
Q 1263 -91 848 271 
Q 434 634 434 1313 
Q 434 1759 690 2068 
Q 947 2378 1403 2484 
z
M 1172 3481 
Q 1172 3119 1398 2916 
Q 1625 2713 2034 2713 
Q 2441 2713 2670 2916 
Q 2900 3119 2900 3481 
Q 2900 3844 2670 4047 
Q 2441 4250 2034 4250 
Q 1625 4250 1398 4047 
Q 1172 3844 1172 3481 
z
" transform="scale(0.015625)"/>
       </defs>
       <use xlink:href="#DejaVuSans-31"/>
       <use xlink:href="#DejaVuSans-30" transform="translate(63.623047 0)"/>
       <use xlink:href="#DejaVuSans-38" transform="translate(127.246094 0)"/>
      </g>
     </g>
    </g>
    <g id="xtick_4">
     <g id="line2d_4">
      <g>
       <use xlink:href="#m300fbf274a" x="420.858736" y="320.4" style="stroke: #000000; stroke-width: 0.8"/>
      </g>
     </g>
     <g id="text_4">
      <!-- 162 -->
      <g transform="translate(411.314986 334.998438) scale(0.1 -0.1)">
       <defs>
        <path id="DejaVuSans-36" d="M 2113 2584 
Q 1688 2584 1439 2293 
Q 1191 2003 1191 1497 
Q 1191 994 1439 701 
Q 1688 409 2113 409 
Q 2538 409 2786 701 
Q 3034 994 3034 1497 
Q 3034 2003 2786 2293 
Q 2538 2584 2113 2584 
z
M 3366 4563 
L 3366 3988 
Q 3128 4100 2886 4159 
Q 2644 4219 2406 4219 
Q 1781 4219 1451 3797 
Q 1122 3375 1075 2522 
Q 1259 2794 1537 2939 
Q 1816 3084 2150 3084 
Q 2853 3084 3261 2657 
Q 3669 2231 3669 1497 
Q 3669 778 3244 343 
Q 2819 -91 2113 -91 
Q 1303 -91 875 529 
Q 447 1150 447 2328 
Q 447 3434 972 4092 
Q 1497 4750 2381 4750 
Q 2619 4750 2861 4703 
Q 3103 4656 3366 4563 
z
" transform="scale(0.015625)"/>
        <path id="DejaVuSans-32" d="M 1228 531 
L 3431 531 
L 3431 0 
L 469 0 
L 469 531 
Q 828 903 1448 1529 
Q 2069 2156 2228 2338 
Q 2531 2678 2651 2914 
Q 2772 3150 2772 3378 
Q 2772 3750 2511 3984 
Q 2250 4219 1831 4219 
Q 1534 4219 1204 4116 
Q 875 4013 500 3803 
L 500 4441 
Q 881 4594 1212 4672 
Q 1544 4750 1819 4750 
Q 2544 4750 2975 4387 
Q 3406 4025 3406 3419 
Q 3406 3131 3298 2873 
Q 3191 2616 2906 2266 
Q 2828 2175 2409 1742 
Q 1991 1309 1228 531 
z
" transform="scale(0.015625)"/>
       </defs>
       <use xlink:href="#DejaVuSans-31"/>
       <use xlink:href="#DejaVuSans-36" transform="translate(63.623047 0)"/>
       <use xlink:href="#DejaVuSans-32" transform="translate(127.246094 0)"/>
      </g>
     </g>
    </g>
    <g id="xtick_5">
     <g id="line2d_5">
      <g>
       <use xlink:href="#m300fbf274a" x="522.690436" y="320.4" style="stroke: #000000; stroke-width: 0.8"/>
      </g>
     </g>
     <g id="text_5">
      <!-- 216 -->
      <g transform="translate(513.146686 334.998438) scale(0.1 -0.1)">
       <use xlink:href="#DejaVuSans-32"/>
       <use xlink:href="#DejaVuSans-31" transform="translate(63.623047 0)"/>
       <use xlink:href="#DejaVuSans-36" transform="translate(127.246094 0)"/>
      </g>
     </g>
    </g>
    <g id="text_6">
     <!-- Epoch -->
     <g transform="translate(353.689062 348.676562) scale(0.1 -0.1)">
      <defs>
       <path id="DejaVuSans-45" d="M 628 4666 
L 3578 4666 
L 3578 4134 
L 1259 4134 
L 1259 2753 
L 3481 2753 
L 3481 2222 
L 1259 2222 
L 1259 531 
L 3634 531 
L 3634 0 
L 628 0 
L 628 4666 
z
" transform="scale(0.015625)"/>
       <path id="DejaVuSans-70" d="M 1159 525 
L 1159 -1331 
L 581 -1331 
L 581 3500 
L 1159 3500 
L 1159 2969 
Q 1341 3281 1617 3432 
Q 1894 3584 2278 3584 
Q 2916 3584 3314 3078 
Q 3713 2572 3713 1747 
Q 3713 922 3314 415 
Q 2916 -91 2278 -91 
Q 1894 -91 1617 61 
Q 1341 213 1159 525 
z
M 3116 1747 
Q 3116 2381 2855 2742 
Q 2594 3103 2138 3103 
Q 1681 3103 1420 2742 
Q 1159 2381 1159 1747 
Q 1159 1113 1420 752 
Q 1681 391 2138 391 
Q 2594 391 2855 752 
Q 3116 1113 3116 1747 
z
" transform="scale(0.015625)"/>
       <path id="DejaVuSans-6f" d="M 1959 3097 
Q 1497 3097 1228 2736 
Q 959 2375 959 1747 
Q 959 1119 1226 758 
Q 1494 397 1959 397 
Q 2419 397 2687 759 
Q 2956 1122 2956 1747 
Q 2956 2369 2687 2733 
Q 2419 3097 1959 3097 
z
M 1959 3584 
Q 2709 3584 3137 3096 
Q 3566 2609 3566 1747 
Q 3566 888 3137 398 
Q 2709 -91 1959 -91 
Q 1206 -91 779 398 
Q 353 888 353 1747 
Q 353 2609 779 3096 
Q 1206 3584 1959 3584 
z
" transform="scale(0.015625)"/>
       <path id="DejaVuSans-63" d="M 3122 3366 
L 3122 2828 
Q 2878 2963 2633 3030 
Q 2388 3097 2138 3097 
Q 1578 3097 1268 2742 
Q 959 2388 959 1747 
Q 959 1106 1268 751 
Q 1578 397 2138 397 
Q 2388 397 2633 464 
Q 2878 531 3122 666 
L 3122 134 
Q 2881 22 2623 -34 
Q 2366 -91 2075 -91 
Q 1284 -91 818 406 
Q 353 903 353 1747 
Q 353 2603 823 3093 
Q 1294 3584 2113 3584 
Q 2378 3584 2631 3529 
Q 2884 3475 3122 3366 
z
" transform="scale(0.015625)"/>
       <path id="DejaVuSans-68" d="M 3513 2113 
L 3513 0 
L 2938 0 
L 2938 2094 
Q 2938 2591 2744 2837 
Q 2550 3084 2163 3084 
Q 1697 3084 1428 2787 
Q 1159 2491 1159 1978 
L 1159 0 
L 581 0 
L 581 4863 
L 1159 4863 
L 1159 2956 
Q 1366 3272 1645 3428 
Q 1925 3584 2291 3584 
Q 2894 3584 3203 3211 
Q 3513 2838 3513 2113 
z
" transform="scale(0.015625)"/>
      </defs>
      <use xlink:href="#DejaVuSans-45"/>
      <use xlink:href="#DejaVuSans-70" transform="translate(63.183594 0)"/>
      <use xlink:href="#DejaVuSans-6f" transform="translate(126.660156 0)"/>
      <use xlink:href="#DejaVuSans-63" transform="translate(187.841797 0)"/>
      <use xlink:href="#DejaVuSans-68" transform="translate(242.822266 0)"/>
     </g>
    </g>
   </g>
   <g id="matplotlib.axis_2">
    <g id="ytick_1">
     <g id="line2d_6">
      <defs>
       <path id="mc1a19fe940" d="M 0 0 
L -3.5 0 
" style="stroke: #000000; stroke-width: 0.8"/>
      </defs>
      <g>
       <use xlink:href="#mc1a19fe940" x="90" y="307.812691" style="stroke: #000000; stroke-width: 0.8"/>
      </g>
     </g>
     <g id="text_7">
      <!-- 0.0 -->
      <g transform="translate(67.096875 311.61191) scale(0.1 -0.1)">
       <defs>
        <path id="DejaVuSans-2e" d="M 684 794 
L 1344 794 
L 1344 0 
L 684 0 
L 684 794 
z
" transform="scale(0.015625)"/>
       </defs>
       <use xlink:href="#DejaVuSans-30"/>
       <use xlink:href="#DejaVuSans-2e" transform="translate(63.623047 0)"/>
       <use xlink:href="#DejaVuSans-30" transform="translate(95.410156 0)"/>
      </g>
     </g>
    </g>
    <g id="ytick_2">
     <g id="line2d_7">
      <g>
       <use xlink:href="#mc1a19fe940" x="90" y="256.233947" style="stroke: #000000; stroke-width: 0.8"/>
      </g>
     </g>
     <g id="text_8">
      <!-- 0.2 -->
      <g transform="translate(67.096875 260.033166) scale(0.1 -0.1)">
       <use xlink:href="#DejaVuSans-30"/>
       <use xlink:href="#DejaVuSans-2e" transform="translate(63.623047 0)"/>
       <use xlink:href="#DejaVuSans-32" transform="translate(95.410156 0)"/>
      </g>
     </g>
    </g>
    <g id="ytick_3">
     <g id="line2d_8">
      <g>
       <use xlink:href="#mc1a19fe940" x="90" y="204.655204" style="stroke: #000000; stroke-width: 0.8"/>
      </g>
     </g>
     <g id="text_9">
      <!-- 0.4 -->
      <g transform="translate(67.096875 208.454422) scale(0.1 -0.1)">
       <use xlink:href="#DejaVuSans-30"/>
       <use xlink:href="#DejaVuSans-2e" transform="translate(63.623047 0)"/>
       <use xlink:href="#DejaVuSans-34" transform="translate(95.410156 0)"/>
      </g>
     </g>
    </g>
    <g id="ytick_4">
     <g id="line2d_9">
      <g>
       <use xlink:href="#mc1a19fe940" x="90" y="153.07646" style="stroke: #000000; stroke-width: 0.8"/>
      </g>
     </g>
     <g id="text_10">
      <!-- 0.6 -->
      <g transform="translate(67.096875 156.875679) scale(0.1 -0.1)">
       <use xlink:href="#DejaVuSans-30"/>
       <use xlink:href="#DejaVuSans-2e" transform="translate(63.623047 0)"/>
       <use xlink:href="#DejaVuSans-36" transform="translate(95.410156 0)"/>
      </g>
     </g>
    </g>
    <g id="ytick_5">
     <g id="line2d_10">
      <g>
       <use xlink:href="#mc1a19fe940" x="90" y="101.497717" style="stroke: #000000; stroke-width: 0.8"/>
      </g>
     </g>
     <g id="text_11">
      <!-- 0.8 -->
      <g transform="translate(67.096875 105.296935) scale(0.1 -0.1)">
       <use xlink:href="#DejaVuSans-30"/>
       <use xlink:href="#DejaVuSans-2e" transform="translate(63.623047 0)"/>
       <use xlink:href="#DejaVuSans-38" transform="translate(95.410156 0)"/>
      </g>
     </g>
    </g>
    <g id="ytick_6">
     <g id="line2d_11">
      <g>
       <use xlink:href="#mc1a19fe940" x="90" y="49.918973" style="stroke: #000000; stroke-width: 0.8"/>
      </g>
     </g>
     <g id="text_12">
      <!-- 1.0 -->
      <g transform="translate(67.096875 53.718192) scale(0.1 -0.1)">
       <use xlink:href="#DejaVuSans-31"/>
       <use xlink:href="#DejaVuSans-2e" transform="translate(63.623047 0)"/>
       <use xlink:href="#DejaVuSans-30" transform="translate(95.410156 0)"/>
      </g>
     </g>
    </g>
    <g id="text_13">
     <!-- Total Loss -->
     <g transform="translate(61.017187 206.032812) rotate(-90) scale(0.1 -0.1)">
      <defs>
       <path id="DejaVuSans-54" d="M -19 4666 
L 3928 4666 
L 3928 4134 
L 2272 4134 
L 2272 0 
L 1638 0 
L 1638 4134 
L -19 4134 
L -19 4666 
z
" transform="scale(0.015625)"/>
       <path id="DejaVuSans-74" d="M 1172 4494 
L 1172 3500 
L 2356 3500 
L 2356 3053 
L 1172 3053 
L 1172 1153 
Q 1172 725 1289 603 
Q 1406 481 1766 481 
L 2356 481 
L 2356 0 
L 1766 0 
Q 1100 0 847 248 
Q 594 497 594 1153 
L 594 3053 
L 172 3053 
L 172 3500 
L 594 3500 
L 594 4494 
L 1172 4494 
z
" transform="scale(0.015625)"/>
       <path id="DejaVuSans-61" d="M 2194 1759 
Q 1497 1759 1228 1600 
Q 959 1441 959 1056 
Q 959 750 1161 570 
Q 1363 391 1709 391 
Q 2188 391 2477 730 
Q 2766 1069 2766 1631 
L 2766 1759 
L 2194 1759 
z
M 3341 1997 
L 3341 0 
L 2766 0 
L 2766 531 
Q 2569 213 2275 61 
Q 1981 -91 1556 -91 
Q 1019 -91 701 211 
Q 384 513 384 1019 
Q 384 1609 779 1909 
Q 1175 2209 1959 2209 
L 2766 2209 
L 2766 2266 
Q 2766 2663 2505 2880 
Q 2244 3097 1772 3097 
Q 1472 3097 1187 3025 
Q 903 2953 641 2809 
L 641 3341 
Q 956 3463 1253 3523 
Q 1550 3584 1831 3584 
Q 2591 3584 2966 3190 
Q 3341 2797 3341 1997 
z
" transform="scale(0.015625)"/>
       <path id="DejaVuSans-6c" d="M 603 4863 
L 1178 4863 
L 1178 0 
L 603 0 
L 603 4863 
z
" transform="scale(0.015625)"/>
       <path id="DejaVuSans-20" transform="scale(0.015625)"/>
       <path id="DejaVuSans-4c" d="M 628 4666 
L 1259 4666 
L 1259 531 
L 3531 531 
L 3531 0 
L 628 0 
L 628 4666 
z
" transform="scale(0.015625)"/>
       <path id="DejaVuSans-73" d="M 2834 3397 
L 2834 2853 
Q 2591 2978 2328 3040 
Q 2066 3103 1784 3103 
Q 1356 3103 1142 2972 
Q 928 2841 928 2578 
Q 928 2378 1081 2264 
Q 1234 2150 1697 2047 
L 1894 2003 
Q 2506 1872 2764 1633 
Q 3022 1394 3022 966 
Q 3022 478 2636 193 
Q 2250 -91 1575 -91 
Q 1294 -91 989 -36 
Q 684 19 347 128 
L 347 722 
Q 666 556 975 473 
Q 1284 391 1588 391 
Q 1994 391 2212 530 
Q 2431 669 2431 922 
Q 2431 1156 2273 1281 
Q 2116 1406 1581 1522 
L 1381 1569 
Q 847 1681 609 1914 
Q 372 2147 372 2553 
Q 372 3047 722 3315 
Q 1072 3584 1716 3584 
Q 2034 3584 2315 3537 
Q 2597 3491 2834 3397 
z
" transform="scale(0.015625)"/>
      </defs>
      <use xlink:href="#DejaVuSans-54"/>
      <use xlink:href="#DejaVuSans-6f" transform="translate(44.083984 0)"/>
      <use xlink:href="#DejaVuSans-74" transform="translate(105.265625 0)"/>
      <use xlink:href="#DejaVuSans-61" transform="translate(144.474609 0)"/>
      <use xlink:href="#DejaVuSans-6c" transform="translate(205.753906 0)"/>
      <use xlink:href="#DejaVuSans-20" transform="translate(233.537109 0)"/>
      <use xlink:href="#DejaVuSans-4c" transform="translate(265.324219 0)"/>
      <use xlink:href="#DejaVuSans-6f" transform="translate(319.287109 0)"/>
      <use xlink:href="#DejaVuSans-73" transform="translate(380.46875 0)"/>
      <use xlink:href="#DejaVuSans-73" transform="translate(432.568359 0)"/>
     </g>
    </g>
    <g id="text_14">
     <!-- 1e7 -->
     <g transform="translate(90 40.2) scale(0.1 -0.1)">
      <defs>
       <path id="DejaVuSans-65" d="M 3597 1894 
L 3597 1613 
L 953 1613 
Q 991 1019 1311 708 
Q 1631 397 2203 397 
Q 2534 397 2845 478 
Q 3156 559 3463 722 
L 3463 178 
Q 3153 47 2828 -22 
Q 2503 -91 2169 -91 
Q 1331 -91 842 396 
Q 353 884 353 1716 
Q 353 2575 817 3079 
Q 1281 3584 2069 3584 
Q 2775 3584 3186 3129 
Q 3597 2675 3597 1894 
z
M 3022 2063 
Q 3016 2534 2758 2815 
Q 2500 3097 2075 3097 
Q 1594 3097 1305 2825 
Q 1016 2553 972 2059 
L 3022 2063 
z
" transform="scale(0.015625)"/>
       <path id="DejaVuSans-37" d="M 525 4666 
L 3525 4666 
L 3525 4397 
L 1831 0 
L 1172 0 
L 2766 4134 
L 525 4134 
L 525 4666 
z
" transform="scale(0.015625)"/>
      </defs>
      <use xlink:href="#DejaVuSans-31"/>
      <use xlink:href="#DejaVuSans-65" transform="translate(63.623047 0)"/>
      <use xlink:href="#DejaVuSans-37" transform="translate(125.146484 0)"/>
     </g>
    </g>
   </g>
   <g id="line2d_12">
    <path d="M 115.363636 55.8 
L 117.249409 58.564194 
L 119.135181 63.395356 
L 121.020953 57.917851 
L 122.906725 63.032726 
L 124.792497 275.91457 
L 126.67827 64.842541 
L 128.564042 72.127396 
L 130.449814 231.273851 
L 132.335586 68.656124 
L 134.221359 159.133781 
L 136.107131 146.586743 
L 137.992903 187.566626 
L 139.878675 190.867664 
L 141.764447 226.052714 
L 143.65022 218.743131 
L 145.535992 252.537595 
L 147.421764 209.771126 
L 149.307536 279.456613 
L 151.193309 248.261863 
L 153.079081 260.310781 
L 154.964853 205.752287 
L 156.850625 291.529939 
L 158.736397 269.83747 
L 160.62217 273.923496 
L 162.507942 263.16812 
L 164.393714 282.323598 
L 166.279486 275.558137 
L 168.165259 282.51255 
L 170.051031 285.550947 
L 171.936803 285.154858 
L 173.822575 291.681766 
L 175.708347 289.479421 
L 177.59412 290.465228 
L 179.479892 295.34929 
L 181.365664 291.303284 
L 183.251436 295.777572 
L 185.137209 296.977257 
L 187.022981 296.204552 
L 188.908753 293.484569 
L 190.794525 298.320634 
L 192.680297 297.37555 
L 194.56607 297.412661 
L 196.451842 300.265589 
L 198.337614 299.707377 
L 200.223386 300.201712 
L 202.109158 300.526087 
L 203.994931 293.16952 
L 205.880703 301.297929 
L 207.766475 302.663553 
L 209.652247 300.76234 
L 211.53802 300.087426 
L 213.423792 300.41253 
L 215.309564 302.489911 
L 219.081108 302.967905 
L 220.966881 302.273306 
L 222.852653 302.924109 
L 224.738425 302.464265 
L 226.624197 303.338152 
L 228.50997 302.160917 
L 230.395742 302.64442 
L 232.281514 304.368471 
L 234.167286 303.877035 
L 236.053058 303.842449 
L 237.938831 304.103113 
L 239.824603 303.985112 
L 241.710375 304.228128 
L 243.596147 304.174228 
L 247.367692 304.774374 
L 249.253464 304.168891 
L 251.139236 303.937612 
L 253.025008 305.068607 
L 254.910781 305.510564 
L 256.796553 303.203671 
L 258.682325 304.586894 
L 260.568097 305.552798 
L 262.45387 304.947705 
L 264.339642 304.660484 
L 268.111186 305.076241 
L 271.882731 305.507961 
L 273.768503 305.385145 
L 277.540047 305.579141 
L 279.42582 305.243629 
L 281.311592 305.520928 
L 283.197364 305.93866 
L 285.083136 305.696725 
L 286.968908 305.599996 
L 288.854681 306.002563 
L 296.39777 305.941292 
L 298.283542 305.295004 
L 300.169314 306.220977 
L 302.055086 306.060975 
L 303.940858 306.567971 
L 305.826631 306.035132 
L 309.598175 306.134883 
L 311.483947 306.289815 
L 313.369719 306.72002 
L 317.141264 305.227685 
L 319.027036 306.302007 
L 320.912808 306.212407 
L 322.798581 306.257005 
L 324.684353 305.973297 
L 326.570125 306.377911 
L 328.455897 306.323338 
L 332.227442 306.823735 
L 334.113214 305.791115 
L 335.998986 306.273227 
L 337.884758 306.587416 
L 339.770531 306.484293 
L 341.656303 306.626635 
L 343.542075 306.288628 
L 349.199392 306.796152 
L 351.085164 306.333131 
L 352.970936 306.896335 
L 354.856708 306.742513 
L 356.742481 306.847147 
L 358.628253 306.476027 
L 360.514025 306.732907 
L 366.171342 306.725147 
L 369.942886 306.866076 
L 371.828658 306.815803 
L 373.714431 306.942567 
L 381.257519 306.812819 
L 383.143292 306.954364 
L 385.029064 306.798536 
L 386.914836 306.842895 
L 388.800608 306.740129 
L 390.686381 307.097231 
L 392.572153 306.743326 
L 394.457925 306.75469 
L 396.343697 306.910996 
L 398.229469 307.201119 
L 400.115242 306.613067 
L 402.001014 306.959872 
L 403.886786 306.776445 
L 407.658331 307.098913 
L 409.544103 307.094526 
L 411.429875 306.839786 
L 415.201419 306.979754 
L 422.744508 307.019889 
L 424.630281 306.948054 
L 426.516053 307.098142 
L 437.830686 307.122006 
L 441.60223 307.166594 
L 449.145319 307.182242 
L 452.916864 307.135855 
L 454.802636 307.25165 
L 460.459953 307.205028 
L 462.345725 307.274035 
L 464.231497 307.183132 
L 468.003042 307.268809 
L 471.774586 307.274391 
L 479.317675 307.291557 
L 481.203447 307.482923 
L 483.089219 307.091481 
L 484.974992 307.49524 
L 486.860764 307.2371 
L 488.746536 307.233349 
L 490.632308 307.350932 
L 496.289625 307.346357 
L 498.175397 307.384856 
L 500.061169 307.30229 
L 505.718486 307.3712 
L 524.576208 307.404684 
L 528.347753 307.481381 
L 530.233525 307.315849 
L 534.005069 307.486518 
L 539.662386 307.437249 
L 547.205475 307.504979 
L 554.748564 307.505284 
L 556.634336 307.401699 
L 564.177425 307.518339 
L 567.948969 307.498623 
L 571.720514 307.536246 
L 579.263603 307.535268 
L 581.149375 307.569492 
L 583.035147 307.456155 
L 601.892869 307.569027 
L 603.778641 307.410722 
L 607.550186 307.634961 
L 609.435958 307.550768 
L 611.32173 307.344409 
L 616.979047 307.644416 
L 618.864819 307.469524 
L 622.636364 307.594996 
L 622.636364 307.594996 
" clip-path="url(#p5ff686eea0)" style="fill: none; stroke: #1f77b4; stroke-width: 1.5; stroke-linecap: square"/>
   </g>
   <g id="line2d_13">
    <path d="M 115.363636 257.87035 
L 117.249409 268.048568 
L 119.135181 300.517519 
L 121.020953 279.61677 
L 122.906725 306.430624 
L 124.792497 303.271177 
L 126.67827 303.624391 
L 128.564042 306.35824 
L 130.449814 301.063878 
L 132.335586 305.2763 
L 134.221359 306.13495 
L 136.107131 303.321485 
L 137.992903 300.214663 
L 141.764447 307.008276 
L 143.65022 306.682972 
L 145.535992 302.145788 
L 147.421764 295.53134 
L 149.307536 305.824696 
L 151.193309 293.863948 
L 153.079081 300.547276 
L 154.964853 300.531793 
L 156.850625 302.160946 
L 158.736397 296.984669 
L 160.62217 306.287004 
L 162.507942 291.498702 
L 164.393714 305.559053 
L 166.279486 293.214726 
L 168.165259 301.663458 
L 170.051031 297.289775 
L 171.936803 303.058353 
L 173.822575 299.700148 
L 175.708347 305.333982 
L 177.59412 305.592071 
L 179.479892 307.463267 
L 181.365664 305.752774 
L 183.251436 306.802781 
L 185.137209 302.282171 
L 187.022981 302.079242 
L 188.908753 300.081909 
L 190.794525 304.480851 
L 192.680297 302.728102 
L 194.56607 306.219018 
L 196.451842 304.87964 
L 198.337614 304.820909 
L 200.223386 305.960453 
L 202.109158 306.253283 
L 203.994931 301.742339 
L 205.880703 305.101744 
L 207.766475 305.143412 
L 209.652247 305.871054 
L 211.53802 306.162416 
L 215.309564 307.13601 
L 217.195336 306.883062 
L 219.081108 306.416526 
L 220.966881 306.617746 
L 224.738425 307.580136 
L 226.624197 307.70062 
L 228.50997 307.208964 
L 230.395742 307.308686 
L 232.281514 307.026852 
L 234.167286 306.145095 
L 236.053058 306.067277 
L 239.824603 306.199786 
L 241.710375 306.763011 
L 243.596147 306.832337 
L 247.367692 306.046 
L 249.253464 306.682649 
L 253.025008 307.19692 
L 254.910781 307.268561 
L 256.796553 306.954896 
L 258.682325 307.593347 
L 260.568097 307.734114 
L 262.45387 307.561995 
L 264.339642 306.720544 
L 266.225414 306.401383 
L 268.111186 307.099525 
L 269.996958 307.308491 
L 271.882731 307.371459 
L 273.768503 306.643146 
L 275.654275 307.729813 
L 277.540047 307.587711 
L 279.42582 307.62817 
L 281.311592 306.220791 
L 283.197364 307.45176 
L 285.083136 306.665168 
L 286.968908 307.777447 
L 290.740453 307.792583 
L 292.626225 307.105856 
L 294.511997 307.229468 
L 296.39777 306.977041 
L 300.169314 307.468099 
L 302.055086 307.710276 
L 303.940858 307.202026 
L 305.826631 307.672287 
L 307.712403 306.776866 
L 309.598175 306.395622 
L 311.483947 306.290321 
L 313.369719 307.787342 
L 315.255492 307.106582 
L 317.141264 307.389553 
L 319.027036 307.035972 
L 320.912808 307.148525 
L 322.798581 307.656355 
L 324.684353 307.673222 
L 328.455897 307.360612 
L 330.341669 307.629166 
L 335.998986 307.555943 
L 337.884758 307.571522 
L 339.770531 307.743399 
L 343.542075 307.428628 
L 347.313619 307.664955 
L 349.199392 307.13067 
L 351.085164 307.716951 
L 352.970936 307.402405 
L 354.856708 307.702494 
L 358.628253 307.739057 
L 366.171342 307.779152 
L 377.485975 307.786607 
L 379.371747 307.56779 
L 381.257519 307.750667 
L 386.914836 307.704304 
L 388.800608 307.555056 
L 392.572153 307.78302 
L 394.457925 307.796576 
L 396.343697 306.516669 
L 398.229469 307.373689 
L 402.001014 307.743395 
L 403.886786 307.627109 
L 405.772558 307.730935 
L 409.544103 307.442248 
L 413.315647 307.652637 
L 415.201419 307.772174 
L 428.401825 307.751618 
L 432.173369 307.713205 
L 435.944914 307.778286 
L 437.830686 307.599718 
L 441.60223 307.657503 
L 443.488003 307.768006 
L 445.373775 307.56917 
L 447.259547 307.70708 
L 449.145319 307.719851 
L 452.916864 307.296309 
L 454.802636 307.520961 
L 456.688408 307.187864 
L 458.57418 307.406756 
L 460.459953 307.372667 
L 462.345725 307.776954 
L 466.117269 307.560165 
L 468.003042 307.058508 
L 469.888814 307.666201 
L 471.774586 307.663234 
L 473.660358 307.773126 
L 475.54613 307.549564 
L 477.431903 307.742716 
L 479.317675 307.540133 
L 481.203447 307.778263 
L 483.089219 307.61973 
L 484.974992 307.8 
L 486.860764 307.241999 
L 488.746536 307.715659 
L 490.632308 307.475869 
L 492.51808 307.76214 
L 494.403853 307.573392 
L 496.289625 307.757118 
L 498.175397 307.185237 
L 500.061169 307.766901 
L 501.946942 306.939657 
L 503.832714 307.617647 
L 507.604258 306.851248 
L 509.49003 307.555888 
L 511.375803 306.942185 
L 513.261575 307.608477 
L 515.147347 306.955781 
L 517.033119 307.759022 
L 518.918892 306.169079 
L 520.804664 306.919097 
L 522.690436 306.286861 
L 524.576208 307.51384 
L 526.46198 307.664646 
L 528.347753 307.675747 
L 530.233525 306.637199 
L 532.119297 307.055777 
L 534.005069 307.348944 
L 535.890842 305.814696 
L 537.776614 306.55351 
L 541.548158 305.869348 
L 543.43393 306.826668 
L 545.319703 306.29562 
L 547.205475 302.287798 
L 549.091247 302.909123 
L 550.977019 303.261073 
L 552.862791 304.599117 
L 554.748564 304.241669 
L 556.634336 307.012176 
L 558.520108 304.19388 
L 560.40588 306.167228 
L 562.291653 305.827303 
L 564.177425 306.542724 
L 567.948969 305.635753 
L 569.834741 300.360511 
L 571.720514 305.445373 
L 573.606286 304.430937 
L 575.492058 303.046079 
L 577.37783 305.338624 
L 579.263603 305.809608 
L 581.149375 306.971911 
L 583.035147 306.886204 
L 584.920919 304.875286 
L 586.806691 305.05668 
L 588.692464 306.316492 
L 590.578236 306.665335 
L 592.464008 306.709849 
L 594.34978 307.515243 
L 598.121325 307.792552 
L 600.007097 307.491542 
L 601.892869 305.643575 
L 603.778641 303.398236 
L 605.664414 306.395676 
L 607.550186 306.456198 
L 609.435958 306.695632 
L 611.32173 307.628002 
L 613.207503 307.521196 
L 615.093275 306.954954 
L 616.979047 306.776427 
L 618.864819 306.907717 
L 620.750591 306.506392 
L 622.636364 307.272514 
L 622.636364 307.272514 
" clip-path="url(#p5ff686eea0)" style="fill: none; stroke: #ff7f0e; stroke-width: 1.5; stroke-linecap: square"/>
   </g>
   <g id="patch_3">
    <path d="M 90 320.4 
L 90 43.2 
" style="fill: none; stroke: #000000; stroke-width: 0.8; stroke-linejoin: miter; stroke-linecap: square"/>
   </g>
   <g id="patch_4">
    <path d="M 648 320.4 
L 648 43.2 
" style="fill: none; stroke: #000000; stroke-width: 0.8; stroke-linejoin: miter; stroke-linecap: square"/>
   </g>
   <g id="patch_5">
    <path d="M 90 320.4 
L 648 320.4 
" style="fill: none; stroke: #000000; stroke-width: 0.8; stroke-linejoin: miter; stroke-linecap: square"/>
   </g>
   <g id="patch_6">
    <path d="M 90 43.2 
L 648 43.2 
" style="fill: none; stroke: #000000; stroke-width: 0.8; stroke-linejoin: miter; stroke-linecap: square"/>
   </g>
   <g id="text_15">
    <!-- Training and Validating Total Loss -->
    <g transform="translate(269.474063 37.2) scale(0.12 -0.12)">
     <defs>
      <path id="DejaVuSans-72" d="M 2631 2963 
Q 2534 3019 2420 3045 
Q 2306 3072 2169 3072 
Q 1681 3072 1420 2755 
Q 1159 2438 1159 1844 
L 1159 0 
L 581 0 
L 581 3500 
L 1159 3500 
L 1159 2956 
Q 1341 3275 1631 3429 
Q 1922 3584 2338 3584 
Q 2397 3584 2469 3576 
Q 2541 3569 2628 3553 
L 2631 2963 
z
" transform="scale(0.015625)"/>
      <path id="DejaVuSans-69" d="M 603 3500 
L 1178 3500 
L 1178 0 
L 603 0 
L 603 3500 
z
M 603 4863 
L 1178 4863 
L 1178 4134 
L 603 4134 
L 603 4863 
z
" transform="scale(0.015625)"/>
      <path id="DejaVuSans-6e" d="M 3513 2113 
L 3513 0 
L 2938 0 
L 2938 2094 
Q 2938 2591 2744 2837 
Q 2550 3084 2163 3084 
Q 1697 3084 1428 2787 
Q 1159 2491 1159 1978 
L 1159 0 
L 581 0 
L 581 3500 
L 1159 3500 
L 1159 2956 
Q 1366 3272 1645 3428 
Q 1925 3584 2291 3584 
Q 2894 3584 3203 3211 
Q 3513 2838 3513 2113 
z
" transform="scale(0.015625)"/>
      <path id="DejaVuSans-67" d="M 2906 1791 
Q 2906 2416 2648 2759 
Q 2391 3103 1925 3103 
Q 1463 3103 1205 2759 
Q 947 2416 947 1791 
Q 947 1169 1205 825 
Q 1463 481 1925 481 
Q 2391 481 2648 825 
Q 2906 1169 2906 1791 
z
M 3481 434 
Q 3481 -459 3084 -895 
Q 2688 -1331 1869 -1331 
Q 1566 -1331 1297 -1286 
Q 1028 -1241 775 -1147 
L 775 -588 
Q 1028 -725 1275 -790 
Q 1522 -856 1778 -856 
Q 2344 -856 2625 -561 
Q 2906 -266 2906 331 
L 2906 616 
Q 2728 306 2450 153 
Q 2172 0 1784 0 
Q 1141 0 747 490 
Q 353 981 353 1791 
Q 353 2603 747 3093 
Q 1141 3584 1784 3584 
Q 2172 3584 2450 3431 
Q 2728 3278 2906 2969 
L 2906 3500 
L 3481 3500 
L 3481 434 
z
" transform="scale(0.015625)"/>
      <path id="DejaVuSans-64" d="M 2906 2969 
L 2906 4863 
L 3481 4863 
L 3481 0 
L 2906 0 
L 2906 525 
Q 2725 213 2448 61 
Q 2172 -91 1784 -91 
Q 1150 -91 751 415 
Q 353 922 353 1747 
Q 353 2572 751 3078 
Q 1150 3584 1784 3584 
Q 2172 3584 2448 3432 
Q 2725 3281 2906 2969 
z
M 947 1747 
Q 947 1113 1208 752 
Q 1469 391 1925 391 
Q 2381 391 2643 752 
Q 2906 1113 2906 1747 
Q 2906 2381 2643 2742 
Q 2381 3103 1925 3103 
Q 1469 3103 1208 2742 
Q 947 2381 947 1747 
z
" transform="scale(0.015625)"/>
      <path id="DejaVuSans-56" d="M 1831 0 
L 50 4666 
L 709 4666 
L 2188 738 
L 3669 4666 
L 4325 4666 
L 2547 0 
L 1831 0 
z
" transform="scale(0.015625)"/>
     </defs>
     <use xlink:href="#DejaVuSans-54"/>
     <use xlink:href="#DejaVuSans-72" transform="translate(46.333984 0)"/>
     <use xlink:href="#DejaVuSans-61" transform="translate(87.447266 0)"/>
     <use xlink:href="#DejaVuSans-69" transform="translate(148.726562 0)"/>
     <use xlink:href="#DejaVuSans-6e" transform="translate(176.509766 0)"/>
     <use xlink:href="#DejaVuSans-69" transform="translate(239.888672 0)"/>
     <use xlink:href="#DejaVuSans-6e" transform="translate(267.671875 0)"/>
     <use xlink:href="#DejaVuSans-67" transform="translate(331.050781 0)"/>
     <use xlink:href="#DejaVuSans-20" transform="translate(394.527344 0)"/>
     <use xlink:href="#DejaVuSans-61" transform="translate(426.314453 0)"/>
     <use xlink:href="#DejaVuSans-6e" transform="translate(487.59375 0)"/>
     <use xlink:href="#DejaVuSans-64" transform="translate(550.972656 0)"/>
     <use xlink:href="#DejaVuSans-20" transform="translate(614.449219 0)"/>
     <use xlink:href="#DejaVuSans-56" transform="translate(646.236328 0)"/>
     <use xlink:href="#DejaVuSans-61" transform="translate(706.894531 0)"/>
     <use xlink:href="#DejaVuSans-6c" transform="translate(768.173828 0)"/>
     <use xlink:href="#DejaVuSans-69" transform="translate(795.957031 0)"/>
     <use xlink:href="#DejaVuSans-64" transform="translate(823.740234 0)"/>
     <use xlink:href="#DejaVuSans-61" transform="translate(887.216797 0)"/>
     <use xlink:href="#DejaVuSans-74" transform="translate(948.496094 0)"/>
     <use xlink:href="#DejaVuSans-69" transform="translate(987.705078 0)"/>
     <use xlink:href="#DejaVuSans-6e" transform="translate(1015.488281 0)"/>
     <use xlink:href="#DejaVuSans-67" transform="translate(1078.867188 0)"/>
     <use xlink:href="#DejaVuSans-20" transform="translate(1142.34375 0)"/>
     <use xlink:href="#DejaVuSans-54" transform="translate(1174.130859 0)"/>
     <use xlink:href="#DejaVuSans-6f" transform="translate(1218.214844 0)"/>
     <use xlink:href="#DejaVuSans-74" transform="translate(1279.396484 0)"/>
     <use xlink:href="#DejaVuSans-61" transform="translate(1318.605469 0)"/>
     <use xlink:href="#DejaVuSans-6c" transform="translate(1379.884766 0)"/>
     <use xlink:href="#DejaVuSans-20" transform="translate(1407.667969 0)"/>
     <use xlink:href="#DejaVuSans-4c" transform="translate(1439.455078 0)"/>
     <use xlink:href="#DejaVuSans-6f" transform="translate(1493.417969 0)"/>
     <use xlink:href="#DejaVuSans-73" transform="translate(1554.599609 0)"/>
     <use xlink:href="#DejaVuSans-73" transform="translate(1606.699219 0)"/>
    </g>
   </g>
   <g id="legend_1">
    <g id="patch_7">
     <path d="M 559.389063 80.55625 
L 641 80.55625 
Q 643 80.55625 643 78.55625 
L 643 50.2 
Q 643 48.2 641 48.2 
L 559.389063 48.2 
Q 557.389063 48.2 557.389063 50.2 
L 557.389063 78.55625 
Q 557.389063 80.55625 559.389063 80.55625 
z
" style="fill: #ffffff; opacity: 0.8; stroke: #cccccc; stroke-linejoin: miter"/>
    </g>
    <g id="line2d_14">
     <path d="M 561.389063 56.298437 
L 571.389063 56.298437 
L 581.389063 56.298437 
" style="fill: none; stroke: #1f77b4; stroke-width: 1.5; stroke-linecap: square"/>
    </g>
    <g id="text_16">
     <!-- Training -->
     <g transform="translate(589.389063 59.798437) scale(0.1 -0.1)">
      <use xlink:href="#DejaVuSans-54"/>
      <use xlink:href="#DejaVuSans-72" transform="translate(46.333984 0)"/>
      <use xlink:href="#DejaVuSans-61" transform="translate(87.447266 0)"/>
      <use xlink:href="#DejaVuSans-69" transform="translate(148.726562 0)"/>
      <use xlink:href="#DejaVuSans-6e" transform="translate(176.509766 0)"/>
      <use xlink:href="#DejaVuSans-69" transform="translate(239.888672 0)"/>
      <use xlink:href="#DejaVuSans-6e" transform="translate(267.671875 0)"/>
      <use xlink:href="#DejaVuSans-67" transform="translate(331.050781 0)"/>
     </g>
    </g>
    <g id="line2d_15">
     <path d="M 561.389063 70.976562 
L 571.389063 70.976562 
L 581.389063 70.976562 
" style="fill: none; stroke: #ff7f0e; stroke-width: 1.5; stroke-linecap: square"/>
    </g>
    <g id="text_17">
     <!-- Validating -->
     <g transform="translate(589.389063 74.476562) scale(0.1 -0.1)">
      <use xlink:href="#DejaVuSans-56"/>
      <use xlink:href="#DejaVuSans-61" transform="translate(60.658203 0)"/>
      <use xlink:href="#DejaVuSans-6c" transform="translate(121.9375 0)"/>
      <use xlink:href="#DejaVuSans-69" transform="translate(149.720703 0)"/>
      <use xlink:href="#DejaVuSans-64" transform="translate(177.503906 0)"/>
      <use xlink:href="#DejaVuSans-61" transform="translate(240.980469 0)"/>
      <use xlink:href="#DejaVuSans-74" transform="translate(302.259766 0)"/>
      <use xlink:href="#DejaVuSans-69" transform="translate(341.46875 0)"/>
      <use xlink:href="#DejaVuSans-6e" transform="translate(369.251953 0)"/>
      <use xlink:href="#DejaVuSans-67" transform="translate(432.630859 0)"/>
     </g>
    </g>
   </g>
  </g>
 </g>
 <defs>
  <clipPath id="p5ff686eea0">
   <rect x="90" y="43.2" width="558" height="277.2"/>
  </clipPath>
 </defs>
</svg>
