<?xml version="1.0" encoding="utf-8" standalone="no"?>
<!DOCTYPE svg PUBLIC "-//W3C//DTD SVG 1.1//EN"
  "http://www.w3.org/Graphics/SVG/1.1/DTD/svg11.dtd">
<svg xmlns:xlink="http://www.w3.org/1999/xlink" width="720pt" height="360pt" viewBox="0 0 720 360" xmlns="http://www.w3.org/2000/svg" version="1.1">
 <metadata>
  <rdf:RDF xmlns:dc="http://purl.org/dc/elements/1.1/" xmlns:cc="http://creativecommons.org/ns#" xmlns:rdf="http://www.w3.org/1999/02/22-rdf-syntax-ns#">
   <cc:Work>
    <dc:type rdf:resource="http://purl.org/dc/dcmitype/StillImage"/>
    <dc:date>2025-10-28T19:01:50.815104</dc:date>
    <dc:format>image/svg+xml</dc:format>
    <dc:creator>
     <cc:Agent>
      <dc:title>Matplotlib v3.10.1, https://matplotlib.org/</dc:title>
     </cc:Agent>
    </dc:creator>
   </cc:Work>
  </rdf:RDF>
 </metadata>
 <defs>
  <style type="text/css">*{stroke-linejoin: round; stroke-linecap: butt}</style>
 </defs>
 <g id="figure_1">
  <g id="patch_1">
   <path d="M 0 360 
L 720 360 
L 720 0 
L 0 0 
z
" style="fill: #ffffff"/>
  </g>
  <g id="axes_1">
   <g id="patch_2">
    <path d="M 90 320.4 
L 648 320.4 
L 648 43.2 
L 90 43.2 
z
" style="fill: #ffffff"/>
   </g>
   <g id="matplotlib.axis_1">
    <g id="xtick_1">
     <g id="line2d_1">
      <defs>
       <path id="mbab2c6910e" d="M 0 0 
L 0 3.5 
" style="stroke: #000000; stroke-width: 0.8"/>
      </defs>
      <g>
       <use xlink:href="#mbab2c6910e" x="115.363636" y="320.4" style="stroke: #000000; stroke-width: 0.8"/>
      </g>
     </g>
     <g id="text_1">
      <!-- 0 -->
      <g transform="translate(112.182386 334.998438) scale(0.1 -0.1)">
       <defs>
        <path id="DejaVuSans-30" d="M 2034 4250 
Q 1547 4250 1301 3770 
Q 1056 3291 1056 2328 
Q 1056 1369 1301 889 
Q 1547 409 2034 409 
Q 2525 409 2770 889 
Q 3016 1369 3016 2328 
Q 3016 3291 2770 3770 
Q 2525 4250 2034 4250 
z
M 2034 4750 
Q 2819 4750 3233 4129 
Q 3647 3509 3647 2328 
Q 3647 1150 3233 529 
Q 2819 -91 2034 -91 
Q 1250 -91 836 529 
Q 422 1150 422 2328 
Q 422 3509 836 4129 
Q 1250 4750 2034 4750 
z
" transform="scale(0.015625)"/>
       </defs>
       <use xlink:href="#DejaVuSans-30"/>
      </g>
     </g>
    </g>
    <g id="xtick_2">
     <g id="line2d_2">
      <g>
       <use xlink:href="#mbab2c6910e" x="217.157495" y="320.4" style="stroke: #000000; stroke-width: 0.8"/>
      </g>
     </g>
     <g id="text_2">
      <!-- 60 -->
      <g transform="translate(210.794995 334.998438) scale(0.1 -0.1)">
       <defs>
        <path id="DejaVuSans-36" d="M 2113 2584 
Q 1688 2584 1439 2293 
Q 1191 2003 1191 1497 
Q 1191 994 1439 701 
Q 1688 409 2113 409 
Q 2538 409 2786 701 
Q 3034 994 3034 1497 
Q 3034 2003 2786 2293 
Q 2538 2584 2113 2584 
z
M 3366 4563 
L 3366 3988 
Q 3128 4100 2886 4159 
Q 2644 4219 2406 4219 
Q 1781 4219 1451 3797 
Q 1122 3375 1075 2522 
Q 1259 2794 1537 2939 
Q 1816 3084 2150 3084 
Q 2853 3084 3261 2657 
Q 3669 2231 3669 1497 
Q 3669 778 3244 343 
Q 2819 -91 2113 -91 
Q 1303 -91 875 529 
Q 447 1150 447 2328 
Q 447 3434 972 4092 
Q 1497 4750 2381 4750 
Q 2619 4750 2861 4703 
Q 3103 4656 3366 4563 
z
" transform="scale(0.015625)"/>
       </defs>
       <use xlink:href="#DejaVuSans-36"/>
       <use xlink:href="#DejaVuSans-30" transform="translate(63.623047 0)"/>
      </g>
     </g>
    </g>
    <g id="xtick_3">
     <g id="line2d_3">
      <g>
       <use xlink:href="#mbab2c6910e" x="318.951353" y="320.4" style="stroke: #000000; stroke-width: 0.8"/>
      </g>
     </g>
     <g id="text_3">
      <!-- 120 -->
      <g transform="translate(309.407603 334.998438) scale(0.1 -0.1)">
       <defs>
        <path id="DejaVuSans-31" d="M 794 531 
L 1825 531 
L 1825 4091 
L 703 3866 
L 703 4441 
L 1819 4666 
L 2450 4666 
L 2450 531 
L 3481 531 
L 3481 0 
L 794 0 
L 794 531 
z
" transform="scale(0.015625)"/>
        <path id="DejaVuSans-32" d="M 1228 531 
L 3431 531 
L 3431 0 
L 469 0 
L 469 531 
Q 828 903 1448 1529 
Q 2069 2156 2228 2338 
Q 2531 2678 2651 2914 
Q 2772 3150 2772 3378 
Q 2772 3750 2511 3984 
Q 2250 4219 1831 4219 
Q 1534 4219 1204 4116 
Q 875 4013 500 3803 
L 500 4441 
Q 881 4594 1212 4672 
Q 1544 4750 1819 4750 
Q 2544 4750 2975 4387 
Q 3406 4025 3406 3419 
Q 3406 3131 3298 2873 
Q 3191 2616 2906 2266 
Q 2828 2175 2409 1742 
Q 1991 1309 1228 531 
z
" transform="scale(0.015625)"/>
       </defs>
       <use xlink:href="#DejaVuSans-31"/>
       <use xlink:href="#DejaVuSans-32" transform="translate(63.623047 0)"/>
       <use xlink:href="#DejaVuSans-30" transform="translate(127.246094 0)"/>
      </g>
     </g>
    </g>
    <g id="xtick_4">
     <g id="line2d_4">
      <g>
       <use xlink:href="#mbab2c6910e" x="420.745211" y="320.4" style="stroke: #000000; stroke-width: 0.8"/>
      </g>
     </g>
     <g id="text_4">
      <!-- 180 -->
      <g transform="translate(411.201461 334.998438) scale(0.1 -0.1)">
       <defs>
        <path id="DejaVuSans-38" d="M 2034 2216 
Q 1584 2216 1326 1975 
Q 1069 1734 1069 1313 
Q 1069 891 1326 650 
Q 1584 409 2034 409 
Q 2484 409 2743 651 
Q 3003 894 3003 1313 
Q 3003 1734 2745 1975 
Q 2488 2216 2034 2216 
z
M 1403 2484 
Q 997 2584 770 2862 
Q 544 3141 544 3541 
Q 544 4100 942 4425 
Q 1341 4750 2034 4750 
Q 2731 4750 3128 4425 
Q 3525 4100 3525 3541 
Q 3525 3141 3298 2862 
Q 3072 2584 2669 2484 
Q 3125 2378 3379 2068 
Q 3634 1759 3634 1313 
Q 3634 634 3220 271 
Q 2806 -91 2034 -91 
Q 1263 -91 848 271 
Q 434 634 434 1313 
Q 434 1759 690 2068 
Q 947 2378 1403 2484 
z
M 1172 3481 
Q 1172 3119 1398 2916 
Q 1625 2713 2034 2713 
Q 2441 2713 2670 2916 
Q 2900 3119 2900 3481 
Q 2900 3844 2670 4047 
Q 2441 4250 2034 4250 
Q 1625 4250 1398 4047 
Q 1172 3844 1172 3481 
z
" transform="scale(0.015625)"/>
       </defs>
       <use xlink:href="#DejaVuSans-31"/>
       <use xlink:href="#DejaVuSans-38" transform="translate(63.623047 0)"/>
       <use xlink:href="#DejaVuSans-30" transform="translate(127.246094 0)"/>
      </g>
     </g>
    </g>
    <g id="xtick_5">
     <g id="line2d_5">
      <g>
       <use xlink:href="#mbab2c6910e" x="522.53907" y="320.4" style="stroke: #000000; stroke-width: 0.8"/>
      </g>
     </g>
     <g id="text_5">
      <!-- 240 -->
      <g transform="translate(512.99532 334.998438) scale(0.1 -0.1)">
       <defs>
        <path id="DejaVuSans-34" d="M 2419 4116 
L 825 1625 
L 2419 1625 
L 2419 4116 
z
M 2253 4666 
L 3047 4666 
L 3047 1625 
L 3713 1625 
L 3713 1100 
L 3047 1100 
L 3047 0 
L 2419 0 
L 2419 1100 
L 313 1100 
L 313 1709 
L 2253 4666 
z
" transform="scale(0.015625)"/>
       </defs>
       <use xlink:href="#DejaVuSans-32"/>
       <use xlink:href="#DejaVuSans-34" transform="translate(63.623047 0)"/>
       <use xlink:href="#DejaVuSans-30" transform="translate(127.246094 0)"/>
      </g>
     </g>
    </g>
    <g id="text_6">
     <!-- Epoch -->
     <g transform="translate(353.689062 348.676562) scale(0.1 -0.1)">
      <defs>
       <path id="DejaVuSans-45" d="M 628 4666 
L 3578 4666 
L 3578 4134 
L 1259 4134 
L 1259 2753 
L 3481 2753 
L 3481 2222 
L 1259 2222 
L 1259 531 
L 3634 531 
L 3634 0 
L 628 0 
L 628 4666 
z
" transform="scale(0.015625)"/>
       <path id="DejaVuSans-70" d="M 1159 525 
L 1159 -1331 
L 581 -1331 
L 581 3500 
L 1159 3500 
L 1159 2969 
Q 1341 3281 1617 3432 
Q 1894 3584 2278 3584 
Q 2916 3584 3314 3078 
Q 3713 2572 3713 1747 
Q 3713 922 3314 415 
Q 2916 -91 2278 -91 
Q 1894 -91 1617 61 
Q 1341 213 1159 525 
z
M 3116 1747 
Q 3116 2381 2855 2742 
Q 2594 3103 2138 3103 
Q 1681 3103 1420 2742 
Q 1159 2381 1159 1747 
Q 1159 1113 1420 752 
Q 1681 391 2138 391 
Q 2594 391 2855 752 
Q 3116 1113 3116 1747 
z
" transform="scale(0.015625)"/>
       <path id="DejaVuSans-6f" d="M 1959 3097 
Q 1497 3097 1228 2736 
Q 959 2375 959 1747 
Q 959 1119 1226 758 
Q 1494 397 1959 397 
Q 2419 397 2687 759 
Q 2956 1122 2956 1747 
Q 2956 2369 2687 2733 
Q 2419 3097 1959 3097 
z
M 1959 3584 
Q 2709 3584 3137 3096 
Q 3566 2609 3566 1747 
Q 3566 888 3137 398 
Q 2709 -91 1959 -91 
Q 1206 -91 779 398 
Q 353 888 353 1747 
Q 353 2609 779 3096 
Q 1206 3584 1959 3584 
z
" transform="scale(0.015625)"/>
       <path id="DejaVuSans-63" d="M 3122 3366 
L 3122 2828 
Q 2878 2963 2633 3030 
Q 2388 3097 2138 3097 
Q 1578 3097 1268 2742 
Q 959 2388 959 1747 
Q 959 1106 1268 751 
Q 1578 397 2138 397 
Q 2388 397 2633 464 
Q 2878 531 3122 666 
L 3122 134 
Q 2881 22 2623 -34 
Q 2366 -91 2075 -91 
Q 1284 -91 818 406 
Q 353 903 353 1747 
Q 353 2603 823 3093 
Q 1294 3584 2113 3584 
Q 2378 3584 2631 3529 
Q 2884 3475 3122 3366 
z
" transform="scale(0.015625)"/>
       <path id="DejaVuSans-68" d="M 3513 2113 
L 3513 0 
L 2938 0 
L 2938 2094 
Q 2938 2591 2744 2837 
Q 2550 3084 2163 3084 
Q 1697 3084 1428 2787 
Q 1159 2491 1159 1978 
L 1159 0 
L 581 0 
L 581 4863 
L 1159 4863 
L 1159 2956 
Q 1366 3272 1645 3428 
Q 1925 3584 2291 3584 
Q 2894 3584 3203 3211 
Q 3513 2838 3513 2113 
z
" transform="scale(0.015625)"/>
      </defs>
      <use xlink:href="#DejaVuSans-45"/>
      <use xlink:href="#DejaVuSans-70" transform="translate(63.183594 0)"/>
      <use xlink:href="#DejaVuSans-6f" transform="translate(126.660156 0)"/>
      <use xlink:href="#DejaVuSans-63" transform="translate(187.841797 0)"/>
      <use xlink:href="#DejaVuSans-68" transform="translate(242.822266 0)"/>
     </g>
    </g>
   </g>
   <g id="matplotlib.axis_2">
    <g id="ytick_1">
     <g id="line2d_6">
      <defs>
       <path id="mb1e8fb8ad7" d="M 0 0 
L -3.5 0 
" style="stroke: #000000; stroke-width: 0.8"/>
      </defs>
      <g>
       <use xlink:href="#mb1e8fb8ad7" x="90" y="278.91843" style="stroke: #000000; stroke-width: 0.8"/>
      </g>
     </g>
     <g id="text_7">
      <!-- 0.4 -->
      <g transform="translate(67.096875 282.717649) scale(0.1 -0.1)">
       <defs>
        <path id="DejaVuSans-2e" d="M 684 794 
L 1344 794 
L 1344 0 
L 684 0 
L 684 794 
z
" transform="scale(0.015625)"/>
       </defs>
       <use xlink:href="#DejaVuSans-30"/>
       <use xlink:href="#DejaVuSans-2e" transform="translate(63.623047 0)"/>
       <use xlink:href="#DejaVuSans-34" transform="translate(95.410156 0)"/>
      </g>
     </g>
    </g>
    <g id="ytick_2">
     <g id="line2d_7">
      <g>
       <use xlink:href="#mb1e8fb8ad7" x="90" y="223.701325" style="stroke: #000000; stroke-width: 0.8"/>
      </g>
     </g>
     <g id="text_8">
      <!-- 0.6 -->
      <g transform="translate(67.096875 227.500544) scale(0.1 -0.1)">
       <use xlink:href="#DejaVuSans-30"/>
       <use xlink:href="#DejaVuSans-2e" transform="translate(63.623047 0)"/>
       <use xlink:href="#DejaVuSans-36" transform="translate(95.410156 0)"/>
      </g>
     </g>
    </g>
    <g id="ytick_3">
     <g id="line2d_8">
      <g>
       <use xlink:href="#mb1e8fb8ad7" x="90" y="168.484221" style="stroke: #000000; stroke-width: 0.8"/>
      </g>
     </g>
     <g id="text_9">
      <!-- 0.8 -->
      <g transform="translate(67.096875 172.283439) scale(0.1 -0.1)">
       <use xlink:href="#DejaVuSans-30"/>
       <use xlink:href="#DejaVuSans-2e" transform="translate(63.623047 0)"/>
       <use xlink:href="#DejaVuSans-38" transform="translate(95.410156 0)"/>
      </g>
     </g>
    </g>
    <g id="ytick_4">
     <g id="line2d_9">
      <g>
       <use xlink:href="#mb1e8fb8ad7" x="90" y="113.267116" style="stroke: #000000; stroke-width: 0.8"/>
      </g>
     </g>
     <g id="text_10">
      <!-- 1.0 -->
      <g transform="translate(67.096875 117.066335) scale(0.1 -0.1)">
       <use xlink:href="#DejaVuSans-31"/>
       <use xlink:href="#DejaVuSans-2e" transform="translate(63.623047 0)"/>
       <use xlink:href="#DejaVuSans-30" transform="translate(95.410156 0)"/>
      </g>
     </g>
    </g>
    <g id="ytick_5">
     <g id="line2d_10">
      <g>
       <use xlink:href="#mb1e8fb8ad7" x="90" y="58.050011" style="stroke: #000000; stroke-width: 0.8"/>
      </g>
     </g>
     <g id="text_11">
      <!-- 1.2 -->
      <g transform="translate(67.096875 61.84923) scale(0.1 -0.1)">
       <use xlink:href="#DejaVuSans-31"/>
       <use xlink:href="#DejaVuSans-2e" transform="translate(63.623047 0)"/>
       <use xlink:href="#DejaVuSans-32" transform="translate(95.410156 0)"/>
      </g>
     </g>
    </g>
    <g id="text_12">
     <!-- Estimation Loss -->
     <g transform="translate(61.017187 220.98125) rotate(-90) scale(0.1 -0.1)">
      <defs>
       <path id="DejaVuSans-73" d="M 2834 3397 
L 2834 2853 
Q 2591 2978 2328 3040 
Q 2066 3103 1784 3103 
Q 1356 3103 1142 2972 
Q 928 2841 928 2578 
Q 928 2378 1081 2264 
Q 1234 2150 1697 2047 
L 1894 2003 
Q 2506 1872 2764 1633 
Q 3022 1394 3022 966 
Q 3022 478 2636 193 
Q 2250 -91 1575 -91 
Q 1294 -91 989 -36 
Q 684 19 347 128 
L 347 722 
Q 666 556 975 473 
Q 1284 391 1588 391 
Q 1994 391 2212 530 
Q 2431 669 2431 922 
Q 2431 1156 2273 1281 
Q 2116 1406 1581 1522 
L 1381 1569 
Q 847 1681 609 1914 
Q 372 2147 372 2553 
Q 372 3047 722 3315 
Q 1072 3584 1716 3584 
Q 2034 3584 2315 3537 
Q 2597 3491 2834 3397 
z
" transform="scale(0.015625)"/>
       <path id="DejaVuSans-74" d="M 1172 4494 
L 1172 3500 
L 2356 3500 
L 2356 3053 
L 1172 3053 
L 1172 1153 
Q 1172 725 1289 603 
Q 1406 481 1766 481 
L 2356 481 
L 2356 0 
L 1766 0 
Q 1100 0 847 248 
Q 594 497 594 1153 
L 594 3053 
L 172 3053 
L 172 3500 
L 594 3500 
L 594 4494 
L 1172 4494 
z
" transform="scale(0.015625)"/>
       <path id="DejaVuSans-69" d="M 603 3500 
L 1178 3500 
L 1178 0 
L 603 0 
L 603 3500 
z
M 603 4863 
L 1178 4863 
L 1178 4134 
L 603 4134 
L 603 4863 
z
" transform="scale(0.015625)"/>
       <path id="DejaVuSans-6d" d="M 3328 2828 
Q 3544 3216 3844 3400 
Q 4144 3584 4550 3584 
Q 5097 3584 5394 3201 
Q 5691 2819 5691 2113 
L 5691 0 
L 5113 0 
L 5113 2094 
Q 5113 2597 4934 2840 
Q 4756 3084 4391 3084 
Q 3944 3084 3684 2787 
Q 3425 2491 3425 1978 
L 3425 0 
L 2847 0 
L 2847 2094 
Q 2847 2600 2669 2842 
Q 2491 3084 2119 3084 
Q 1678 3084 1418 2786 
Q 1159 2488 1159 1978 
L 1159 0 
L 581 0 
L 581 3500 
L 1159 3500 
L 1159 2956 
Q 1356 3278 1631 3431 
Q 1906 3584 2284 3584 
Q 2666 3584 2933 3390 
Q 3200 3197 3328 2828 
z
" transform="scale(0.015625)"/>
       <path id="DejaVuSans-61" d="M 2194 1759 
Q 1497 1759 1228 1600 
Q 959 1441 959 1056 
Q 959 750 1161 570 
Q 1363 391 1709 391 
Q 2188 391 2477 730 
Q 2766 1069 2766 1631 
L 2766 1759 
L 2194 1759 
z
M 3341 1997 
L 3341 0 
L 2766 0 
L 2766 531 
Q 2569 213 2275 61 
Q 1981 -91 1556 -91 
Q 1019 -91 701 211 
Q 384 513 384 1019 
Q 384 1609 779 1909 
Q 1175 2209 1959 2209 
L 2766 2209 
L 2766 2266 
Q 2766 2663 2505 2880 
Q 2244 3097 1772 3097 
Q 1472 3097 1187 3025 
Q 903 2953 641 2809 
L 641 3341 
Q 956 3463 1253 3523 
Q 1550 3584 1831 3584 
Q 2591 3584 2966 3190 
Q 3341 2797 3341 1997 
z
" transform="scale(0.015625)"/>
       <path id="DejaVuSans-6e" d="M 3513 2113 
L 3513 0 
L 2938 0 
L 2938 2094 
Q 2938 2591 2744 2837 
Q 2550 3084 2163 3084 
Q 1697 3084 1428 2787 
Q 1159 2491 1159 1978 
L 1159 0 
L 581 0 
L 581 3500 
L 1159 3500 
L 1159 2956 
Q 1366 3272 1645 3428 
Q 1925 3584 2291 3584 
Q 2894 3584 3203 3211 
Q 3513 2838 3513 2113 
z
" transform="scale(0.015625)"/>
       <path id="DejaVuSans-20" transform="scale(0.015625)"/>
       <path id="DejaVuSans-4c" d="M 628 4666 
L 1259 4666 
L 1259 531 
L 3531 531 
L 3531 0 
L 628 0 
L 628 4666 
z
" transform="scale(0.015625)"/>
      </defs>
      <use xlink:href="#DejaVuSans-45"/>
      <use xlink:href="#DejaVuSans-73" transform="translate(63.183594 0)"/>
      <use xlink:href="#DejaVuSans-74" transform="translate(115.283203 0)"/>
      <use xlink:href="#DejaVuSans-69" transform="translate(154.492188 0)"/>
      <use xlink:href="#DejaVuSans-6d" transform="translate(182.275391 0)"/>
      <use xlink:href="#DejaVuSans-61" transform="translate(279.6875 0)"/>
      <use xlink:href="#DejaVuSans-74" transform="translate(340.966797 0)"/>
      <use xlink:href="#DejaVuSans-69" transform="translate(380.175781 0)"/>
      <use xlink:href="#DejaVuSans-6f" transform="translate(407.958984 0)"/>
      <use xlink:href="#DejaVuSans-6e" transform="translate(469.140625 0)"/>
      <use xlink:href="#DejaVuSans-20" transform="translate(532.519531 0)"/>
      <use xlink:href="#DejaVuSans-4c" transform="translate(564.306641 0)"/>
      <use xlink:href="#DejaVuSans-6f" transform="translate(618.269531 0)"/>
      <use xlink:href="#DejaVuSans-73" transform="translate(679.451172 0)"/>
      <use xlink:href="#DejaVuSans-73" transform="translate(731.550781 0)"/>
     </g>
    </g>
   </g>
   <g id="line2d_11">
    <path d="M 115.363636 202.653002 
L 117.060201 274.553784 
L 118.756765 284.798233 
L 120.453329 288.761209 
L 122.149894 291.125762 
L 123.846458 292.73483 
L 125.543022 293.948644 
L 127.239587 295.004833 
L 128.936151 295.82508 
L 132.329279 297.122147 
L 137.418972 298.548489 
L 145.901794 300.090016 
L 154.384615 301.067764 
L 161.170873 301.652424 
L 164.564001 301.991263 
L 166.260566 302.036348 
L 169.653694 302.320269 
L 173.046823 302.524063 
L 181.529644 302.927514 
L 186.619337 303.22458 
L 193.405594 303.527356 
L 200.191852 303.735752 
L 206.978109 304.010247 
L 213.764366 304.167114 
L 217.157495 304.31941 
L 220.550623 304.384404 
L 227.336881 304.542267 
L 234.123138 304.686732 
L 235.819702 304.793326 
L 237.516266 304.759143 
L 240.909395 304.82655 
L 247.695652 305.037636 
L 252.785345 305.077171 
L 264.661295 305.335976 
L 269.750988 305.392252 
L 293.502888 305.693694 
L 295.199453 305.684569 
L 296.896017 305.788044 
L 300.289146 305.805724 
L 303.682274 305.860586 
L 318.951353 305.987411 
L 320.647917 306.096033 
L 322.344482 306.028053 
L 327.434175 306.151175 
L 361.365461 306.444601 
L 366.455154 306.484789 
L 371.544846 306.518395 
L 378.331104 306.572012 
L 380.027668 306.534279 
L 383.420797 306.633862 
L 386.813925 306.610028 
L 390.207054 306.651576 
L 395.296747 306.63591 
L 398.689875 306.718764 
L 412.26239 306.779787 
L 413.958954 306.840567 
L 417.352083 306.783582 
L 420.745211 306.877626 
L 429.228033 306.879743 
L 432.621161 306.959224 
L 437.710854 306.938709 
L 439.407419 307.001715 
L 442.800547 306.98277 
L 449.586804 307.044381 
L 454.676497 306.986553 
L 458.069626 307.101478 
L 463.159319 307.066572 
L 464.855883 307.127681 
L 468.249012 307.061453 
L 469.945576 307.1865 
L 473.338705 307.120315 
L 483.518091 307.181176 
L 500.483734 307.272114 
L 508.966555 307.347654 
L 537.808148 307.451885 
L 539.504713 307.523911 
L 541.201277 307.42887 
L 549.684099 307.536555 
L 551.380663 307.484173 
L 553.077227 307.586152 
L 556.470356 307.499172 
L 559.863484 307.561011 
L 561.560049 307.484695 
L 563.256613 307.5648 
L 564.953177 307.469836 
L 566.649742 307.5994 
L 568.346306 307.526021 
L 573.435999 307.566081 
L 597.187899 307.694256 
L 600.581028 307.648274 
L 602.277592 307.722963 
L 603.974156 307.642186 
L 607.367285 307.714608 
L 615.850106 307.8 
L 617.546671 307.684364 
L 622.636364 307.78936 
L 622.636364 307.78936 
" clip-path="url(#p3a5c12df9f)" style="fill: none; stroke: #1f77b4; stroke-width: 1.5; stroke-linecap: square"/>
   </g>
   <g id="line2d_12">
    <path d="M 115.363636 131.012671 
L 117.060201 228.888048 
L 118.756765 242.416995 
L 120.453329 246.679773 
L 122.149894 248.622962 
L 123.846458 249.705247 
L 125.543022 250.440108 
L 127.239587 250.965188 
L 130.632715 251.609398 
L 132.329279 251.821958 
L 135.722408 251.983842 
L 137.418972 252.101435 
L 144.20523 251.860049 
L 149.294922 251.413143 
L 154.384615 250.913364 
L 161.170873 250.159664 
L 162.867437 249.91834 
L 166.260566 249.756741 
L 169.653694 249.305005 
L 176.439951 248.816171 
L 178.136516 248.545633 
L 179.83308 248.446274 
L 181.529644 248.223849 
L 183.226209 248.246507 
L 184.922773 248.139247 
L 186.619337 247.920282 
L 190.012466 247.708354 
L 191.70903 247.457623 
L 193.405594 247.426328 
L 195.102159 247.201573 
L 198.495287 247.122438 
L 200.191852 246.775964 
L 205.281545 246.863068 
L 208.674673 246.238309 
L 210.371237 246.117507 
L 212.067802 246.422113 
L 217.157495 245.862246 
L 218.854059 245.958448 
L 223.943752 245.717447 
L 225.640316 245.754835 
L 229.033445 245.223998 
L 230.730009 245.277786 
L 232.426573 245.006111 
L 235.819702 244.800521 
L 237.516266 244.999973 
L 239.212831 244.986887 
L 242.605959 244.551359 
L 244.302524 244.289531 
L 245.999088 244.333186 
L 251.088781 243.991716 
L 252.785345 243.840592 
L 254.481909 243.995211 
L 256.178474 243.880605 
L 257.875038 243.641025 
L 259.571602 243.58687 
L 262.964731 243.757528 
L 264.661295 243.505478 
L 266.35786 243.06865 
L 268.054424 242.983186 
L 269.750988 243.244585 
L 271.447552 242.929357 
L 273.144117 243.204907 
L 274.840681 242.970061 
L 276.537245 242.953883 
L 278.23381 242.765153 
L 279.930374 242.309553 
L 281.626938 242.608539 
L 283.323503 242.755207 
L 285.020067 242.449817 
L 286.716631 242.291059 
L 288.413196 242.724187 
L 290.10976 242.237759 
L 291.806324 242.289384 
L 293.502888 241.973924 
L 295.199453 242.29077 
L 296.896017 242.243579 
L 298.592581 241.940483 
L 300.289146 242.044057 
L 301.98571 241.68343 
L 303.682274 242.126807 
L 305.378839 241.782292 
L 307.075403 241.574351 
L 308.771967 241.820463 
L 310.468531 241.386907 
L 312.165096 241.524793 
L 315.558224 241.349475 
L 317.254789 241.467606 
L 318.951353 241.176983 
L 320.647917 241.023534 
L 322.344482 241.182401 
L 324.041046 241.135098 
L 327.434175 240.810414 
L 329.130739 241.014041 
L 330.827303 240.753549 
L 332.523867 240.69412 
L 334.220432 240.946752 
L 339.310125 240.411021 
L 341.006689 240.431668 
L 342.703253 240.218141 
L 346.096382 240.039036 
L 347.792946 240.257158 
L 349.48951 239.922332 
L 351.186075 239.760427 
L 354.579203 240.124995 
L 359.668896 239.591012 
L 361.365461 239.665287 
L 363.062025 239.316309 
L 364.758589 239.736892 
L 366.455154 238.966025 
L 368.151718 239.676337 
L 371.544846 239.063912 
L 374.937975 239.058469 
L 378.331104 239.076737 
L 381.724232 238.711739 
L 383.420797 239.188253 
L 386.813925 238.752506 
L 388.51049 238.173736 
L 390.207054 238.452694 
L 393.600182 238.26037 
L 395.296747 237.859327 
L 396.993311 238.158547 
L 398.689875 237.715561 
L 402.083004 238.06266 
L 403.779568 237.743809 
L 405.476133 237.934134 
L 407.172697 238.00758 
L 408.869261 237.792143 
L 412.26239 237.862312 
L 413.958954 237.680188 
L 415.655518 237.810796 
L 417.352083 237.457705 
L 419.048647 237.575096 
L 424.13834 237.652909 
L 427.531469 237.09769 
L 429.228033 237.304388 
L 430.924597 237.670054 
L 434.317726 236.441732 
L 437.710854 237.156626 
L 439.407419 237.063403 
L 441.103983 237.335684 
L 444.497112 236.298263 
L 446.193676 236.403868 
L 447.89024 236.068657 
L 449.586804 236.51205 
L 451.283369 236.221665 
L 452.979933 236.234227 
L 454.676497 236.409974 
L 456.373062 235.960216 
L 461.462755 236.503035 
L 463.159319 236.015148 
L 464.855883 235.816024 
L 466.552448 236.292083 
L 468.249012 235.803065 
L 471.64214 235.79382 
L 473.338705 235.458355 
L 475.035269 234.963014 
L 476.731833 235.680274 
L 478.428398 235.650649 
L 480.124962 234.908264 
L 481.821526 235.367109 
L 483.518091 235.27645 
L 485.214655 235.396398 
L 486.911219 234.992652 
L 488.607784 235.037107 
L 490.304348 234.789182 
L 493.697476 234.670748 
L 495.394041 234.931487 
L 497.090605 234.314961 
L 498.787169 235.113857 
L 500.483734 234.621192 
L 502.180298 234.9086 
L 503.876862 234.834247 
L 505.573427 234.962534 
L 507.269991 234.844189 
L 508.966555 234.185766 
L 510.663119 233.777283 
L 512.359684 234.162505 
L 515.752812 233.698636 
L 517.449377 233.619516 
L 519.145941 233.397736 
L 520.842505 233.615584 
L 522.53907 233.326193 
L 524.235634 233.904294 
L 527.628763 233.624897 
L 531.021891 233.670397 
L 532.718455 233.149836 
L 534.41502 233.500717 
L 536.111584 232.699287 
L 537.808148 233.604816 
L 539.504713 233.175284 
L 541.201277 233.716463 
L 542.897841 232.492295 
L 544.594406 233.240718 
L 546.29097 232.986709 
L 547.987534 233.017747 
L 549.684099 232.248879 
L 551.380663 232.253008 
L 553.077227 232.110723 
L 554.773791 232.646771 
L 556.470356 232.841787 
L 558.16692 232.099612 
L 561.560049 232.066757 
L 563.256613 231.485182 
L 564.953177 232.730129 
L 566.649742 232.811974 
L 568.346306 231.698446 
L 570.04287 231.115746 
L 571.739434 231.211981 
L 573.435999 231.18735 
L 575.132563 231.625879 
L 576.829127 231.47383 
L 578.525692 230.801941 
L 580.222256 231.320199 
L 583.615385 230.635554 
L 585.311949 231.51741 
L 587.008513 231.475147 
L 588.705078 230.694905 
L 590.401642 231.198746 
L 592.098206 230.623031 
L 593.79477 230.542223 
L 595.491335 230.62342 
L 597.187899 230.161873 
L 598.884463 230.58446 
L 600.581028 230.817283 
L 602.277592 230.332821 
L 603.974156 230.769944 
L 605.670721 230.079308 
L 607.367285 230.407338 
L 609.063849 230.597598 
L 612.456978 230.504622 
L 614.153542 229.462214 
L 615.850106 229.838648 
L 617.546671 229.957553 
L 619.243235 229.254338 
L 620.939799 230.11229 
L 622.636364 230.175738 
L 622.636364 230.175738 
" clip-path="url(#p3a5c12df9f)" style="fill: none; stroke: #ff7f0e; stroke-width: 1.5; stroke-linecap: square"/>
   </g>
   <g id="line2d_13">
    <path d="M 115.363636 150.713153 
L 117.060201 181.603724 
L 118.756765 191.858816 
L 120.453329 196.98099 
L 122.149894 200.660145 
L 123.846458 203.088242 
L 125.543022 205.035571 
L 127.239587 206.68177 
L 130.632715 209.19654 
L 132.329279 210.022492 
L 134.025844 210.672392 
L 137.418972 212.312509 
L 139.115537 212.892724 
L 140.812101 213.305599 
L 142.508665 213.918461 
L 149.294922 215.106773 
L 150.991487 215.667132 
L 152.688051 215.544661 
L 156.08118 216.604811 
L 157.777744 216.521045 
L 159.474308 216.919915 
L 161.170873 217.182605 
L 162.867437 217.173422 
L 164.564001 216.932028 
L 166.260566 217.559786 
L 167.95713 217.924338 
L 169.653694 217.495797 
L 171.350258 217.943916 
L 173.046823 218.006285 
L 174.743387 218.32077 
L 179.83308 218.715669 
L 181.529644 218.557567 
L 183.226209 218.771511 
L 184.922773 219.205016 
L 186.619337 218.816403 
L 188.315901 218.980555 
L 190.012466 218.924783 
L 191.70903 219.356318 
L 193.405594 219.503024 
L 196.798723 219.027121 
L 198.495287 219.830226 
L 200.191852 219.456763 
L 201.888416 218.958892 
L 203.58498 219.883077 
L 205.281545 219.102343 
L 206.978109 219.463946 
L 208.674673 219.099448 
L 210.371237 219.878992 
L 213.764366 219.655576 
L 217.157495 219.842855 
L 218.854059 220.145974 
L 220.550623 219.45731 
L 222.247188 219.253228 
L 223.943752 220.579703 
L 227.336881 219.697291 
L 229.033445 220.125605 
L 230.730009 220.196351 
L 232.426573 219.835928 
L 234.123138 220.405898 
L 235.819702 219.90015 
L 237.516266 220.58105 
L 239.212831 219.994606 
L 240.909395 221.024344 
L 242.605959 220.179397 
L 244.302524 221.095414 
L 245.999088 220.521422 
L 247.695652 220.653726 
L 249.392216 220.452867 
L 251.088781 220.104386 
L 252.785345 220.94628 
L 254.481909 220.835822 
L 256.178474 220.9882 
L 259.571602 220.355338 
L 261.268167 221.593755 
L 262.964731 221.019561 
L 264.661295 220.671936 
L 266.35786 221.234961 
L 268.054424 221.089776 
L 269.750988 220.652607 
L 271.447552 221.882393 
L 273.144117 221.033604 
L 274.840681 221.124798 
L 278.23381 221.918065 
L 279.930374 221.503111 
L 281.626938 220.752243 
L 283.323503 221.161153 
L 285.020067 221.018789 
L 286.716631 221.628974 
L 288.413196 221.202239 
L 290.10976 221.826599 
L 291.806324 221.655484 
L 293.502888 221.776493 
L 298.592581 221.788262 
L 300.289146 222.035248 
L 303.682274 221.169058 
L 305.378839 222.274308 
L 307.075403 221.609895 
L 308.771967 221.863531 
L 310.468531 222.416366 
L 312.165096 221.703372 
L 313.86166 221.859823 
L 315.558224 221.490978 
L 318.951353 222.906914 
L 320.647917 222.065462 
L 322.344482 222.496598 
L 324.041046 221.991747 
L 325.73761 221.844672 
L 329.130739 222.727023 
L 330.827303 222.783838 
L 334.220432 222.143824 
L 335.916996 222.161056 
L 337.61356 222.677823 
L 339.310125 221.794224 
L 341.006689 222.449969 
L 342.703253 222.720544 
L 344.399818 222.603421 
L 346.096382 221.857179 
L 347.792946 221.57947 
L 349.48951 222.471108 
L 351.186075 222.887666 
L 352.882639 222.24507 
L 356.275768 222.728516 
L 357.972332 222.721184 
L 359.668896 222.340621 
L 361.365461 222.517959 
L 363.062025 223.071367 
L 364.758589 222.553962 
L 366.455154 222.267769 
L 368.151718 222.717998 
L 369.848282 222.36277 
L 371.544846 223.341499 
L 373.241411 222.53998 
L 374.937975 222.096253 
L 376.634539 221.908594 
L 378.331104 221.971959 
L 380.027668 222.766313 
L 381.724232 222.417749 
L 383.420797 222.314011 
L 385.117361 223.206118 
L 386.813925 222.798285 
L 388.51049 222.225838 
L 390.207054 223.386682 
L 391.903618 222.734943 
L 393.600182 222.290554 
L 395.296747 222.876791 
L 396.993311 223.090781 
L 398.689875 222.063824 
L 400.38644 223.316851 
L 402.083004 223.067346 
L 403.779568 223.10076 
L 405.476133 222.767807 
L 407.172697 223.007287 
L 410.565825 222.390803 
L 412.26239 222.75691 
L 413.958954 222.448155 
L 415.655518 223.312365 
L 417.352083 223.150761 
L 419.048647 222.516077 
L 420.745211 223.412017 
L 422.441776 223.134141 
L 424.13834 223.240082 
L 425.834904 223.107935 
L 427.531469 223.467939 
L 429.228033 222.353054 
L 430.924597 223.187647 
L 432.621161 223.113306 
L 434.317726 222.413616 
L 436.01429 222.329299 
L 437.710854 223.199284 
L 439.407419 223.765108 
L 441.103983 223.196888 
L 442.800547 223.234425 
L 444.497112 222.906608 
L 446.193676 222.232784 
L 447.89024 223.190876 
L 449.586804 222.780787 
L 451.283369 223.48437 
L 452.979933 222.874205 
L 454.676497 223.291935 
L 456.373062 222.87816 
L 458.069626 222.867169 
L 459.76619 223.170216 
L 461.462755 222.745609 
L 463.159319 223.309594 
L 464.855883 223.406514 
L 466.552448 222.771967 
L 468.249012 222.580532 
L 469.945576 223.623385 
L 471.64214 222.764403 
L 473.338705 223.481044 
L 475.035269 222.982806 
L 476.731833 222.249021 
L 478.428398 223.315178 
L 480.124962 222.750326 
L 481.821526 223.14515 
L 483.518091 223.116102 
L 485.214655 223.729219 
L 486.911219 222.54767 
L 490.304348 222.908282 
L 492.000912 223.674508 
L 493.697476 223.60846 
L 495.394041 223.10569 
L 497.090605 223.112866 
L 498.787169 223.564184 
L 500.483734 222.759141 
L 502.180298 222.261937 
L 503.876862 223.325161 
L 505.573427 223.301561 
L 507.269991 223.58774 
L 508.966555 222.915389 
L 512.359684 222.762145 
L 514.056248 223.886887 
L 515.752812 223.652558 
L 517.449377 223.639735 
L 519.145941 222.670414 
L 520.842505 222.784471 
L 522.53907 223.409691 
L 524.235634 223.827836 
L 525.932198 223.046616 
L 529.325327 223.172172 
L 532.718455 223.322494 
L 536.111584 223.684777 
L 537.808148 223.053564 
L 539.504713 223.324714 
L 541.201277 224.588801 
L 542.897841 222.655343 
L 544.594406 223.353584 
L 546.29097 223.261119 
L 549.684099 223.350985 
L 551.380663 223.854137 
L 553.077227 223.033299 
L 556.470356 222.864396 
L 558.16692 223.279525 
L 559.863484 224.050953 
L 561.560049 223.860822 
L 563.256613 223.139544 
L 564.953177 222.918953 
L 566.649742 223.381434 
L 568.346306 223.256512 
L 570.04287 223.368314 
L 571.739434 223.942358 
L 573.435999 223.681802 
L 575.132563 223.881166 
L 576.829127 222.499239 
L 578.525692 224.237474 
L 580.222256 223.165275 
L 581.91882 224.145976 
L 583.615385 223.282167 
L 585.311949 222.793936 
L 587.008513 223.174214 
L 588.705078 224.24132 
L 590.401642 222.792348 
L 592.098206 224.108436 
L 593.79477 223.152715 
L 595.491335 223.612262 
L 597.187899 222.578055 
L 598.884463 222.986326 
L 600.581028 223.736974 
L 602.277592 223.517032 
L 603.974156 224.332731 
L 605.670721 223.754744 
L 607.367285 223.615239 
L 609.063849 224.275299 
L 610.760413 224.021763 
L 612.456978 223.340309 
L 614.153542 223.781281 
L 615.850106 223.784308 
L 617.546671 224.094079 
L 619.243235 223.640648 
L 620.939799 222.645864 
L 622.636364 224.335039 
L 622.636364 224.335039 
" clip-path="url(#p3a5c12df9f)" style="fill: none; stroke: #2ca02c; stroke-width: 1.5; stroke-linecap: square"/>
   </g>
   <g id="line2d_14">
    <path d="M 115.363636 55.8 
L 117.060201 97.835511 
L 118.756765 109.115794 
L 120.453329 113.776468 
L 122.149894 116.356579 
L 123.846458 117.636936 
L 125.543022 118.527857 
L 127.239587 119.809986 
L 128.936151 119.922589 
L 130.632715 120.726604 
L 132.329279 120.806761 
L 134.025844 121.393051 
L 137.418972 121.776412 
L 139.115537 122.352091 
L 142.508665 121.401083 
L 144.20523 121.509624 
L 145.901794 121.062065 
L 147.598358 120.840986 
L 149.294922 120.28181 
L 150.991487 120.156773 
L 154.384615 118.578497 
L 156.08118 118.526752 
L 157.777744 117.862632 
L 159.474308 118.342072 
L 161.170873 118.34949 
L 162.867437 116.845494 
L 164.564001 117.918972 
L 166.260566 117.785846 
L 167.95713 116.656114 
L 169.653694 117.042203 
L 171.350258 116.339313 
L 173.046823 115.357494 
L 174.743387 116.055344 
L 176.439951 116.030538 
L 178.136516 115.374633 
L 179.83308 114.073038 
L 181.529644 114.074458 
L 183.226209 114.32378 
L 184.922773 113.945932 
L 186.619337 113.211848 
L 188.315901 114.449092 
L 190.012466 111.915903 
L 191.70903 113.94025 
L 193.405594 113.324385 
L 195.102159 113.787139 
L 196.798723 113.377275 
L 198.495287 113.138135 
L 200.191852 111.552589 
L 201.888416 111.830063 
L 203.58498 111.963073 
L 205.281545 111.555721 
L 206.978109 112.106105 
L 208.674673 111.362804 
L 210.371237 110.89868 
L 212.067802 111.108527 
L 213.764366 110.045928 
L 215.46093 110.655012 
L 217.157495 110.198913 
L 218.854059 110.126024 
L 220.550623 109.514029 
L 222.247188 108.71873 
L 223.943752 109.284273 
L 225.640316 109.306412 
L 227.336881 108.715386 
L 229.033445 108.31925 
L 230.730009 108.738527 
L 232.426573 110.145698 
L 234.123138 108.836563 
L 235.819702 106.952753 
L 237.516266 108.508976 
L 239.212831 107.806701 
L 240.909395 106.899817 
L 242.605959 107.811937 
L 244.302524 107.282066 
L 245.999088 106.884342 
L 247.695652 107.380934 
L 249.392216 106.326173 
L 251.088781 105.759508 
L 252.785345 107.508602 
L 254.481909 107.683957 
L 256.178474 105.758672 
L 257.875038 104.773512 
L 259.571602 106.168085 
L 261.268167 106.884175 
L 262.964731 106.286668 
L 264.661295 105.338166 
L 266.35786 105.413944 
L 268.054424 106.205691 
L 269.750988 103.924058 
L 271.447552 105.552783 
L 273.144117 104.975001 
L 274.840681 105.566375 
L 276.537245 104.803544 
L 278.23381 105.752137 
L 279.930374 106.492145 
L 283.323503 105.912465 
L 285.020067 103.756508 
L 286.716631 104.252124 
L 291.806324 103.864704 
L 293.502888 104.307505 
L 295.199453 103.325333 
L 296.896017 103.269039 
L 298.592581 105.1039 
L 300.289146 104.896645 
L 301.98571 104.193395 
L 303.682274 103.191884 
L 308.771967 102.2829 
L 310.468531 103.218942 
L 312.165096 103.3447 
L 313.86166 103.202176 
L 315.558224 103.945472 
L 317.254789 102.274124 
L 318.951353 102.296621 
L 322.344482 102.558079 
L 324.041046 103.172136 
L 325.73761 101.461498 
L 327.434175 102.52965 
L 329.130739 102.135286 
L 330.827303 100.120366 
L 332.523867 103.374613 
L 334.220432 103.099245 
L 335.916996 102.464107 
L 337.61356 101.125299 
L 339.310125 101.068686 
L 341.006689 102.215193 
L 342.703253 100.816373 
L 344.399818 101.772541 
L 346.096382 102.117268 
L 347.792946 97.6526 
L 349.48951 98.846329 
L 351.186075 99.31243 
L 352.882639 101.040417 
L 354.579203 99.77026 
L 356.275768 100.645843 
L 357.972332 100.773364 
L 359.668896 99.958183 
L 361.365461 100.569867 
L 363.062025 99.692538 
L 364.758589 100.680015 
L 366.455154 97.52512 
L 368.151718 99.758871 
L 369.848282 99.882719 
L 371.544846 99.173665 
L 373.241411 100.287394 
L 374.937975 96.367192 
L 376.634539 101.350881 
L 378.331104 98.100571 
L 380.027668 97.770394 
L 381.724232 99.901345 
L 383.420797 97.945278 
L 385.117361 99.699361 
L 386.813925 99.073711 
L 388.51049 96.709004 
L 390.207054 98.249073 
L 391.903618 99.417648 
L 393.600182 96.343978 
L 395.296747 98.050152 
L 398.689875 94.734437 
L 402.083004 97.302522 
L 403.779568 94.946578 
L 405.476133 96.888668 
L 407.172697 96.329521 
L 408.869261 96.653712 
L 410.565825 98.308627 
L 412.26239 99.233739 
L 413.958954 95.639119 
L 415.655518 97.560319 
L 417.352083 97.664035 
L 419.048647 94.147359 
L 420.745211 97.648393 
L 422.441776 95.548136 
L 424.13834 98.038502 
L 425.834904 96.616876 
L 427.531469 96.094498 
L 429.228033 94.055478 
L 430.924597 96.235084 
L 432.621161 95.572008 
L 434.317726 97.036025 
L 436.01429 95.754175 
L 437.710854 96.309708 
L 439.407419 95.606898 
L 441.103983 93.888271 
L 442.800547 95.660602 
L 446.193676 94.7756 
L 447.89024 93.458867 
L 449.586804 92.811207 
L 451.283369 92.556566 
L 452.979933 92.709019 
L 454.676497 94.663375 
L 456.373062 94.872994 
L 458.069626 94.249713 
L 459.76619 93.969075 
L 461.462755 94.313443 
L 463.159319 91.644469 
L 464.855883 94.820643 
L 466.552448 90.944815 
L 468.249012 95.479869 
L 469.945576 90.650343 
L 471.64214 92.223533 
L 473.338705 93.062063 
L 475.035269 95.494611 
L 476.731833 94.583418 
L 478.428398 90.438636 
L 480.124962 91.776492 
L 481.821526 94.711662 
L 483.518091 92.136198 
L 485.214655 93.465866 
L 486.911219 91.974044 
L 488.607784 92.654846 
L 490.304348 92.620404 
L 492.000912 91.865146 
L 493.697476 92.888155 
L 497.090605 93.680785 
L 498.787169 91.891992 
L 500.483734 91.971479 
L 502.180298 91.477878 
L 503.876862 94.139582 
L 505.573427 95.207552 
L 507.269991 91.779517 
L 508.966555 90.438899 
L 510.663119 91.747563 
L 512.359684 89.303622 
L 514.056248 89.685932 
L 515.752812 91.512868 
L 517.449377 90.016516 
L 519.145941 92.642369 
L 520.842505 90.539901 
L 522.53907 90.24515 
L 524.235634 93.272512 
L 525.932198 92.88506 
L 527.628763 89.68467 
L 529.325327 91.518872 
L 531.021891 88.522305 
L 532.718455 88.057373 
L 534.41502 91.559439 
L 536.111584 91.7454 
L 539.504713 89.531069 
L 541.201277 90.462989 
L 542.897841 86.311052 
L 544.594406 89.980644 
L 546.29097 90.086402 
L 547.987534 85.27331 
L 549.684099 88.945392 
L 551.380663 87.357284 
L 553.077227 87.313907 
L 554.773791 88.592818 
L 556.470356 91.575158 
L 558.16692 88.741144 
L 559.863484 87.992701 
L 561.560049 88.450512 
L 563.256613 87.127548 
L 564.953177 91.674999 
L 566.649742 88.798396 
L 568.346306 86.768807 
L 570.04287 89.125756 
L 571.739434 86.665155 
L 573.435999 90.623019 
L 575.132563 85.855111 
L 576.829127 91.246991 
L 578.525692 85.508012 
L 580.222256 88.171887 
L 581.91882 90.165483 
L 583.615385 88.369419 
L 585.311949 88.589352 
L 587.008513 87.74219 
L 588.705078 87.79316 
L 590.401642 87.386184 
L 592.098206 87.895287 
L 593.79477 88.233262 
L 595.491335 81.911828 
L 598.884463 85.126524 
L 600.581028 85.438924 
L 602.277592 87.636476 
L 603.974156 83.470125 
L 605.670721 84.238702 
L 607.367285 84.598717 
L 609.063849 83.132743 
L 610.760413 87.933452 
L 612.456978 83.80499 
L 614.153542 81.640147 
L 615.850106 83.576673 
L 617.546671 81.517682 
L 619.243235 82.343218 
L 620.939799 86.082164 
L 622.636364 81.95176 
L 622.636364 81.95176 
" clip-path="url(#p3a5c12df9f)" style="fill: none; stroke: #d62728; stroke-width: 1.5; stroke-linecap: square"/>
   </g>
   <g id="patch_3">
    <path d="M 90 320.4 
L 90 43.2 
" style="fill: none; stroke: #000000; stroke-width: 0.8; stroke-linejoin: miter; stroke-linecap: square"/>
   </g>
   <g id="patch_4">
    <path d="M 648 320.4 
L 648 43.2 
" style="fill: none; stroke: #000000; stroke-width: 0.8; stroke-linejoin: miter; stroke-linecap: square"/>
   </g>
   <g id="patch_5">
    <path d="M 90 320.4 
L 648 320.4 
" style="fill: none; stroke: #000000; stroke-width: 0.8; stroke-linejoin: miter; stroke-linecap: square"/>
   </g>
   <g id="patch_6">
    <path d="M 90 43.2 
L 648 43.2 
" style="fill: none; stroke: #000000; stroke-width: 0.8; stroke-linejoin: miter; stroke-linecap: square"/>
   </g>
   <g id="text_13">
    <!-- Training and Validating Estimation Loss -->
    <g transform="translate(251.535937 37.2) scale(0.12 -0.12)">
     <defs>
      <path id="DejaVuSans-54" d="M -19 4666 
L 3928 4666 
L 3928 4134 
L 2272 4134 
L 2272 0 
L 1638 0 
L 1638 4134 
L -19 4134 
L -19 4666 
z
" transform="scale(0.015625)"/>
      <path id="DejaVuSans-72" d="M 2631 2963 
Q 2534 3019 2420 3045 
Q 2306 3072 2169 3072 
Q 1681 3072 1420 2755 
Q 1159 2438 1159 1844 
L 1159 0 
L 581 0 
L 581 3500 
L 1159 3500 
L 1159 2956 
Q 1341 3275 1631 3429 
Q 1922 3584 2338 3584 
Q 2397 3584 2469 3576 
Q 2541 3569 2628 3553 
L 2631 2963 
z
" transform="scale(0.015625)"/>
      <path id="DejaVuSans-67" d="M 2906 1791 
Q 2906 2416 2648 2759 
Q 2391 3103 1925 3103 
Q 1463 3103 1205 2759 
Q 947 2416 947 1791 
Q 947 1169 1205 825 
Q 1463 481 1925 481 
Q 2391 481 2648 825 
Q 2906 1169 2906 1791 
z
M 3481 434 
Q 3481 -459 3084 -895 
Q 2688 -1331 1869 -1331 
Q 1566 -1331 1297 -1286 
Q 1028 -1241 775 -1147 
L 775 -588 
Q 1028 -725 1275 -790 
Q 1522 -856 1778 -856 
Q 2344 -856 2625 -561 
Q 2906 -266 2906 331 
L 2906 616 
Q 2728 306 2450 153 
Q 2172 0 1784 0 
Q 1141 0 747 490 
Q 353 981 353 1791 
Q 353 2603 747 3093 
Q 1141 3584 1784 3584 
Q 2172 3584 2450 3431 
Q 2728 3278 2906 2969 
L 2906 3500 
L 3481 3500 
L 3481 434 
z
" transform="scale(0.015625)"/>
      <path id="DejaVuSans-64" d="M 2906 2969 
L 2906 4863 
L 3481 4863 
L 3481 0 
L 2906 0 
L 2906 525 
Q 2725 213 2448 61 
Q 2172 -91 1784 -91 
Q 1150 -91 751 415 
Q 353 922 353 1747 
Q 353 2572 751 3078 
Q 1150 3584 1784 3584 
Q 2172 3584 2448 3432 
Q 2725 3281 2906 2969 
z
M 947 1747 
Q 947 1113 1208 752 
Q 1469 391 1925 391 
Q 2381 391 2643 752 
Q 2906 1113 2906 1747 
Q 2906 2381 2643 2742 
Q 2381 3103 1925 3103 
Q 1469 3103 1208 2742 
Q 947 2381 947 1747 
z
" transform="scale(0.015625)"/>
      <path id="DejaVuSans-56" d="M 1831 0 
L 50 4666 
L 709 4666 
L 2188 738 
L 3669 4666 
L 4325 4666 
L 2547 0 
L 1831 0 
z
" transform="scale(0.015625)"/>
      <path id="DejaVuSans-6c" d="M 603 4863 
L 1178 4863 
L 1178 0 
L 603 0 
L 603 4863 
z
" transform="scale(0.015625)"/>
     </defs>
     <use xlink:href="#DejaVuSans-54"/>
     <use xlink:href="#DejaVuSans-72" transform="translate(46.333984 0)"/>
     <use xlink:href="#DejaVuSans-61" transform="translate(87.447266 0)"/>
     <use xlink:href="#DejaVuSans-69" transform="translate(148.726562 0)"/>
     <use xlink:href="#DejaVuSans-6e" transform="translate(176.509766 0)"/>
     <use xlink:href="#DejaVuSans-69" transform="translate(239.888672 0)"/>
     <use xlink:href="#DejaVuSans-6e" transform="translate(267.671875 0)"/>
     <use xlink:href="#DejaVuSans-67" transform="translate(331.050781 0)"/>
     <use xlink:href="#DejaVuSans-20" transform="translate(394.527344 0)"/>
     <use xlink:href="#DejaVuSans-61" transform="translate(426.314453 0)"/>
     <use xlink:href="#DejaVuSans-6e" transform="translate(487.59375 0)"/>
     <use xlink:href="#DejaVuSans-64" transform="translate(550.972656 0)"/>
     <use xlink:href="#DejaVuSans-20" transform="translate(614.449219 0)"/>
     <use xlink:href="#DejaVuSans-56" transform="translate(646.236328 0)"/>
     <use xlink:href="#DejaVuSans-61" transform="translate(706.894531 0)"/>
     <use xlink:href="#DejaVuSans-6c" transform="translate(768.173828 0)"/>
     <use xlink:href="#DejaVuSans-69" transform="translate(795.957031 0)"/>
     <use xlink:href="#DejaVuSans-64" transform="translate(823.740234 0)"/>
     <use xlink:href="#DejaVuSans-61" transform="translate(887.216797 0)"/>
     <use xlink:href="#DejaVuSans-74" transform="translate(948.496094 0)"/>
     <use xlink:href="#DejaVuSans-69" transform="translate(987.705078 0)"/>
     <use xlink:href="#DejaVuSans-6e" transform="translate(1015.488281 0)"/>
     <use xlink:href="#DejaVuSans-67" transform="translate(1078.867188 0)"/>
     <use xlink:href="#DejaVuSans-20" transform="translate(1142.34375 0)"/>
     <use xlink:href="#DejaVuSans-45" transform="translate(1174.130859 0)"/>
     <use xlink:href="#DejaVuSans-73" transform="translate(1237.314453 0)"/>
     <use xlink:href="#DejaVuSans-74" transform="translate(1289.414062 0)"/>
     <use xlink:href="#DejaVuSans-69" transform="translate(1328.623047 0)"/>
     <use xlink:href="#DejaVuSans-6d" transform="translate(1356.40625 0)"/>
     <use xlink:href="#DejaVuSans-61" transform="translate(1453.818359 0)"/>
     <use xlink:href="#DejaVuSans-74" transform="translate(1515.097656 0)"/>
     <use xlink:href="#DejaVuSans-69" transform="translate(1554.306641 0)"/>
     <use xlink:href="#DejaVuSans-6f" transform="translate(1582.089844 0)"/>
     <use xlink:href="#DejaVuSans-6e" transform="translate(1643.271484 0)"/>
     <use xlink:href="#DejaVuSans-20" transform="translate(1706.650391 0)"/>
     <use xlink:href="#DejaVuSans-4c" transform="translate(1738.4375 0)"/>
     <use xlink:href="#DejaVuSans-6f" transform="translate(1792.400391 0)"/>
     <use xlink:href="#DejaVuSans-73" transform="translate(1853.582031 0)"/>
     <use xlink:href="#DejaVuSans-73" transform="translate(1905.681641 0)"/>
    </g>
   </g>
   <g id="legend_1">
    <g id="patch_7">
     <path d="M 521.439062 212.65625 
L 641 212.65625 
Q 643 212.65625 643 210.65625 
L 643 152.94375 
Q 643 150.94375 641 150.94375 
L 521.439062 150.94375 
Q 519.439062 150.94375 519.439062 152.94375 
L 519.439062 210.65625 
Q 519.439062 212.65625 521.439062 212.65625 
z
" style="fill: #ffffff; opacity: 0.8; stroke: #cccccc; stroke-linejoin: miter"/>
    </g>
    <g id="line2d_15">
     <path d="M 523.439062 159.042188 
L 533.439062 159.042188 
L 543.439062 159.042188 
" style="fill: none; stroke: #1f77b4; stroke-width: 1.5; stroke-linecap: square"/>
    </g>
    <g id="text_14">
     <!-- Training-Source -->
     <g transform="translate(551.439062 162.542188) scale(0.1 -0.1)">
      <defs>
       <path id="DejaVuSans-2d" d="M 313 2009 
L 1997 2009 
L 1997 1497 
L 313 1497 
L 313 2009 
z
" transform="scale(0.015625)"/>
       <path id="DejaVuSans-53" d="M 3425 4513 
L 3425 3897 
Q 3066 4069 2747 4153 
Q 2428 4238 2131 4238 
Q 1616 4238 1336 4038 
Q 1056 3838 1056 3469 
Q 1056 3159 1242 3001 
Q 1428 2844 1947 2747 
L 2328 2669 
Q 3034 2534 3370 2195 
Q 3706 1856 3706 1288 
Q 3706 609 3251 259 
Q 2797 -91 1919 -91 
Q 1588 -91 1214 -16 
Q 841 59 441 206 
L 441 856 
Q 825 641 1194 531 
Q 1563 422 1919 422 
Q 2459 422 2753 634 
Q 3047 847 3047 1241 
Q 3047 1584 2836 1778 
Q 2625 1972 2144 2069 
L 1759 2144 
Q 1053 2284 737 2584 
Q 422 2884 422 3419 
Q 422 4038 858 4394 
Q 1294 4750 2059 4750 
Q 2388 4750 2728 4690 
Q 3069 4631 3425 4513 
z
" transform="scale(0.015625)"/>
       <path id="DejaVuSans-75" d="M 544 1381 
L 544 3500 
L 1119 3500 
L 1119 1403 
Q 1119 906 1312 657 
Q 1506 409 1894 409 
Q 2359 409 2629 706 
Q 2900 1003 2900 1516 
L 2900 3500 
L 3475 3500 
L 3475 0 
L 2900 0 
L 2900 538 
Q 2691 219 2414 64 
Q 2138 -91 1772 -91 
Q 1169 -91 856 284 
Q 544 659 544 1381 
z
M 1991 3584 
L 1991 3584 
z
" transform="scale(0.015625)"/>
       <path id="DejaVuSans-65" d="M 3597 1894 
L 3597 1613 
L 953 1613 
Q 991 1019 1311 708 
Q 1631 397 2203 397 
Q 2534 397 2845 478 
Q 3156 559 3463 722 
L 3463 178 
Q 3153 47 2828 -22 
Q 2503 -91 2169 -91 
Q 1331 -91 842 396 
Q 353 884 353 1716 
Q 353 2575 817 3079 
Q 1281 3584 2069 3584 
Q 2775 3584 3186 3129 
Q 3597 2675 3597 1894 
z
M 3022 2063 
Q 3016 2534 2758 2815 
Q 2500 3097 2075 3097 
Q 1594 3097 1305 2825 
Q 1016 2553 972 2059 
L 3022 2063 
z
" transform="scale(0.015625)"/>
      </defs>
      <use xlink:href="#DejaVuSans-54"/>
      <use xlink:href="#DejaVuSans-72" transform="translate(46.333984 0)"/>
      <use xlink:href="#DejaVuSans-61" transform="translate(87.447266 0)"/>
      <use xlink:href="#DejaVuSans-69" transform="translate(148.726562 0)"/>
      <use xlink:href="#DejaVuSans-6e" transform="translate(176.509766 0)"/>
      <use xlink:href="#DejaVuSans-69" transform="translate(239.888672 0)"/>
      <use xlink:href="#DejaVuSans-6e" transform="translate(267.671875 0)"/>
      <use xlink:href="#DejaVuSans-67" transform="translate(331.050781 0)"/>
      <use xlink:href="#DejaVuSans-2d" transform="translate(394.527344 0)"/>
      <use xlink:href="#DejaVuSans-53" transform="translate(430.611328 0)"/>
      <use xlink:href="#DejaVuSans-6f" transform="translate(494.087891 0)"/>
      <use xlink:href="#DejaVuSans-75" transform="translate(555.269531 0)"/>
      <use xlink:href="#DejaVuSans-72" transform="translate(618.648438 0)"/>
      <use xlink:href="#DejaVuSans-63" transform="translate(657.511719 0)"/>
      <use xlink:href="#DejaVuSans-65" transform="translate(712.492188 0)"/>
     </g>
    </g>
    <g id="line2d_16">
     <path d="M 523.439062 173.720313 
L 533.439062 173.720313 
L 543.439062 173.720313 
" style="fill: none; stroke: #ff7f0e; stroke-width: 1.5; stroke-linecap: square"/>
    </g>
    <g id="text_15">
     <!-- Training-Target -->
     <g transform="translate(551.439062 177.220313) scale(0.1 -0.1)">
      <use xlink:href="#DejaVuSans-54"/>
      <use xlink:href="#DejaVuSans-72" transform="translate(46.333984 0)"/>
      <use xlink:href="#DejaVuSans-61" transform="translate(87.447266 0)"/>
      <use xlink:href="#DejaVuSans-69" transform="translate(148.726562 0)"/>
      <use xlink:href="#DejaVuSans-6e" transform="translate(176.509766 0)"/>
      <use xlink:href="#DejaVuSans-69" transform="translate(239.888672 0)"/>
      <use xlink:href="#DejaVuSans-6e" transform="translate(267.671875 0)"/>
      <use xlink:href="#DejaVuSans-67" transform="translate(331.050781 0)"/>
      <use xlink:href="#DejaVuSans-2d" transform="translate(394.527344 0)"/>
      <use xlink:href="#DejaVuSans-54" transform="translate(421.486328 0)"/>
      <use xlink:href="#DejaVuSans-61" transform="translate(466.070312 0)"/>
      <use xlink:href="#DejaVuSans-72" transform="translate(527.349609 0)"/>
      <use xlink:href="#DejaVuSans-67" transform="translate(566.712891 0)"/>
      <use xlink:href="#DejaVuSans-65" transform="translate(630.189453 0)"/>
      <use xlink:href="#DejaVuSans-74" transform="translate(691.712891 0)"/>
     </g>
    </g>
    <g id="line2d_17">
     <path d="M 523.439062 188.398438 
L 533.439062 188.398438 
L 543.439062 188.398438 
" style="fill: none; stroke: #2ca02c; stroke-width: 1.5; stroke-linecap: square"/>
    </g>
    <g id="text_16">
     <!-- Validating-Source -->
     <g transform="translate(551.439062 191.898438) scale(0.1 -0.1)">
      <use xlink:href="#DejaVuSans-56"/>
      <use xlink:href="#DejaVuSans-61" transform="translate(60.658203 0)"/>
      <use xlink:href="#DejaVuSans-6c" transform="translate(121.9375 0)"/>
      <use xlink:href="#DejaVuSans-69" transform="translate(149.720703 0)"/>
      <use xlink:href="#DejaVuSans-64" transform="translate(177.503906 0)"/>
      <use xlink:href="#DejaVuSans-61" transform="translate(240.980469 0)"/>
      <use xlink:href="#DejaVuSans-74" transform="translate(302.259766 0)"/>
      <use xlink:href="#DejaVuSans-69" transform="translate(341.46875 0)"/>
      <use xlink:href="#DejaVuSans-6e" transform="translate(369.251953 0)"/>
      <use xlink:href="#DejaVuSans-67" transform="translate(432.630859 0)"/>
      <use xlink:href="#DejaVuSans-2d" transform="translate(496.107422 0)"/>
      <use xlink:href="#DejaVuSans-53" transform="translate(532.191406 0)"/>
      <use xlink:href="#DejaVuSans-6f" transform="translate(595.667969 0)"/>
      <use xlink:href="#DejaVuSans-75" transform="translate(656.849609 0)"/>
      <use xlink:href="#DejaVuSans-72" transform="translate(720.228516 0)"/>
      <use xlink:href="#DejaVuSans-63" transform="translate(759.091797 0)"/>
      <use xlink:href="#DejaVuSans-65" transform="translate(814.072266 0)"/>
     </g>
    </g>
    <g id="line2d_18">
     <path d="M 523.439062 203.076563 
L 533.439062 203.076563 
L 543.439062 203.076563 
" style="fill: none; stroke: #d62728; stroke-width: 1.5; stroke-linecap: square"/>
    </g>
    <g id="text_17">
     <!-- Validating-Target -->
     <g transform="translate(551.439062 206.576563) scale(0.1 -0.1)">
      <use xlink:href="#DejaVuSans-56"/>
      <use xlink:href="#DejaVuSans-61" transform="translate(60.658203 0)"/>
      <use xlink:href="#DejaVuSans-6c" transform="translate(121.9375 0)"/>
      <use xlink:href="#DejaVuSans-69" transform="translate(149.720703 0)"/>
      <use xlink:href="#DejaVuSans-64" transform="translate(177.503906 0)"/>
      <use xlink:href="#DejaVuSans-61" transform="translate(240.980469 0)"/>
      <use xlink:href="#DejaVuSans-74" transform="translate(302.259766 0)"/>
      <use xlink:href="#DejaVuSans-69" transform="translate(341.46875 0)"/>
      <use xlink:href="#DejaVuSans-6e" transform="translate(369.251953 0)"/>
      <use xlink:href="#DejaVuSans-67" transform="translate(432.630859 0)"/>
      <use xlink:href="#DejaVuSans-2d" transform="translate(496.107422 0)"/>
      <use xlink:href="#DejaVuSans-54" transform="translate(523.066406 0)"/>
      <use xlink:href="#DejaVuSans-61" transform="translate(567.650391 0)"/>
      <use xlink:href="#DejaVuSans-72" transform="translate(628.929688 0)"/>
      <use xlink:href="#DejaVuSans-67" transform="translate(668.292969 0)"/>
      <use xlink:href="#DejaVuSans-65" transform="translate(731.769531 0)"/>
      <use xlink:href="#DejaVuSans-74" transform="translate(793.292969 0)"/>
     </g>
    </g>
   </g>
  </g>
 </g>
 <defs>
  <clipPath id="p3a5c12df9f">
   <rect x="90" y="43.2" width="558" height="277.2"/>
  </clipPath>
 </defs>
</svg>
