<?xml version="1.0" encoding="utf-8" standalone="no"?>
<!DOCTYPE svg PUBLIC "-//W3C//DTD SVG 1.1//EN"
  "http://www.w3.org/Graphics/SVG/1.1/DTD/svg11.dtd">
<svg xmlns:xlink="http://www.w3.org/1999/xlink" width="720pt" height="360pt" viewBox="0 0 720 360" xmlns="http://www.w3.org/2000/svg" version="1.1">
 <metadata>
  <rdf:RDF xmlns:dc="http://purl.org/dc/elements/1.1/" xmlns:cc="http://creativecommons.org/ns#" xmlns:rdf="http://www.w3.org/1999/02/22-rdf-syntax-ns#">
   <cc:Work>
    <dc:type rdf:resource="http://purl.org/dc/dcmitype/StillImage"/>
    <dc:date>2026-03-05T21:46:50.583105</dc:date>
    <dc:format>image/svg+xml</dc:format>
    <dc:creator>
     <cc:Agent>
      <dc:title>Matplotlib v3.10.1, https://matplotlib.org/</dc:title>
     </cc:Agent>
    </dc:creator>
   </cc:Work>
  </rdf:RDF>
 </metadata>
 <defs>
  <style type="text/css">*{stroke-linejoin: round; stroke-linecap: butt}</style>
 </defs>
 <g id="figure_1">
  <g id="patch_1">
   <path d="M 0 360 
L 720 360 
L 720 0 
L 0 0 
z
" style="fill: #ffffff"/>
  </g>
  <g id="axes_1">
   <g id="patch_2">
    <path d="M 90 320.4 
L 648 320.4 
L 648 43.2 
L 90 43.2 
z
" style="fill: #ffffff"/>
   </g>
   <g id="matplotlib.axis_1">
    <g id="xtick_1">
     <g id="line2d_1">
      <defs>
       <path id="mc510df0d12" d="M 0 0 
L 0 3.5 
" style="stroke: #000000; stroke-width: 0.8"/>
      </defs>
      <g>
       <use xlink:href="#mc510df0d12" x="115.363636" y="320.4" style="stroke: #000000; stroke-width: 0.8"/>
      </g>
     </g>
     <g id="text_1">
      <!-- 0 -->
      <g transform="translate(112.182386 334.998438) scale(0.1 -0.1)">
       <defs>
        <path id="DejaVuSans-30" d="M 2034 4250 
Q 1547 4250 1301 3770 
Q 1056 3291 1056 2328 
Q 1056 1369 1301 889 
Q 1547 409 2034 409 
Q 2525 409 2770 889 
Q 3016 1369 3016 2328 
Q 3016 3291 2770 3770 
Q 2525 4250 2034 4250 
z
M 2034 4750 
Q 2819 4750 3233 4129 
Q 3647 3509 3647 2328 
Q 3647 1150 3233 529 
Q 2819 -91 2034 -91 
Q 1250 -91 836 529 
Q 422 1150 422 2328 
Q 422 3509 836 4129 
Q 1250 4750 2034 4750 
z
" transform="scale(0.015625)"/>
       </defs>
       <use xlink:href="#DejaVuSans-30"/>
      </g>
     </g>
    </g>
    <g id="xtick_2">
     <g id="line2d_2">
      <g>
       <use xlink:href="#mc510df0d12" x="217.157495" y="320.4" style="stroke: #000000; stroke-width: 0.8"/>
      </g>
     </g>
     <g id="text_2">
      <!-- 60 -->
      <g transform="translate(210.794995 334.998438) scale(0.1 -0.1)">
       <defs>
        <path id="DejaVuSans-36" d="M 2113 2584 
Q 1688 2584 1439 2293 
Q 1191 2003 1191 1497 
Q 1191 994 1439 701 
Q 1688 409 2113 409 
Q 2538 409 2786 701 
Q 3034 994 3034 1497 
Q 3034 2003 2786 2293 
Q 2538 2584 2113 2584 
z
M 3366 4563 
L 3366 3988 
Q 3128 4100 2886 4159 
Q 2644 4219 2406 4219 
Q 1781 4219 1451 3797 
Q 1122 3375 1075 2522 
Q 1259 2794 1537 2939 
Q 1816 3084 2150 3084 
Q 2853 3084 3261 2657 
Q 3669 2231 3669 1497 
Q 3669 778 3244 343 
Q 2819 -91 2113 -91 
Q 1303 -91 875 529 
Q 447 1150 447 2328 
Q 447 3434 972 4092 
Q 1497 4750 2381 4750 
Q 2619 4750 2861 4703 
Q 3103 4656 3366 4563 
z
" transform="scale(0.015625)"/>
       </defs>
       <use xlink:href="#DejaVuSans-36"/>
       <use xlink:href="#DejaVuSans-30" transform="translate(63.623047 0)"/>
      </g>
     </g>
    </g>
    <g id="xtick_3">
     <g id="line2d_3">
      <g>
       <use xlink:href="#mc510df0d12" x="318.951353" y="320.4" style="stroke: #000000; stroke-width: 0.8"/>
      </g>
     </g>
     <g id="text_3">
      <!-- 120 -->
      <g transform="translate(309.407603 334.998438) scale(0.1 -0.1)">
       <defs>
        <path id="DejaVuSans-31" d="M 794 531 
L 1825 531 
L 1825 4091 
L 703 3866 
L 703 4441 
L 1819 4666 
L 2450 4666 
L 2450 531 
L 3481 531 
L 3481 0 
L 794 0 
L 794 531 
z
" transform="scale(0.015625)"/>
        <path id="DejaVuSans-32" d="M 1228 531 
L 3431 531 
L 3431 0 
L 469 0 
L 469 531 
Q 828 903 1448 1529 
Q 2069 2156 2228 2338 
Q 2531 2678 2651 2914 
Q 2772 3150 2772 3378 
Q 2772 3750 2511 3984 
Q 2250 4219 1831 4219 
Q 1534 4219 1204 4116 
Q 875 4013 500 3803 
L 500 4441 
Q 881 4594 1212 4672 
Q 1544 4750 1819 4750 
Q 2544 4750 2975 4387 
Q 3406 4025 3406 3419 
Q 3406 3131 3298 2873 
Q 3191 2616 2906 2266 
Q 2828 2175 2409 1742 
Q 1991 1309 1228 531 
z
" transform="scale(0.015625)"/>
       </defs>
       <use xlink:href="#DejaVuSans-31"/>
       <use xlink:href="#DejaVuSans-32" transform="translate(63.623047 0)"/>
       <use xlink:href="#DejaVuSans-30" transform="translate(127.246094 0)"/>
      </g>
     </g>
    </g>
    <g id="xtick_4">
     <g id="line2d_4">
      <g>
       <use xlink:href="#mc510df0d12" x="420.745211" y="320.4" style="stroke: #000000; stroke-width: 0.8"/>
      </g>
     </g>
     <g id="text_4">
      <!-- 180 -->
      <g transform="translate(411.201461 334.998438) scale(0.1 -0.1)">
       <defs>
        <path id="DejaVuSans-38" d="M 2034 2216 
Q 1584 2216 1326 1975 
Q 1069 1734 1069 1313 
Q 1069 891 1326 650 
Q 1584 409 2034 409 
Q 2484 409 2743 651 
Q 3003 894 3003 1313 
Q 3003 1734 2745 1975 
Q 2488 2216 2034 2216 
z
M 1403 2484 
Q 997 2584 770 2862 
Q 544 3141 544 3541 
Q 544 4100 942 4425 
Q 1341 4750 2034 4750 
Q 2731 4750 3128 4425 
Q 3525 4100 3525 3541 
Q 3525 3141 3298 2862 
Q 3072 2584 2669 2484 
Q 3125 2378 3379 2068 
Q 3634 1759 3634 1313 
Q 3634 634 3220 271 
Q 2806 -91 2034 -91 
Q 1263 -91 848 271 
Q 434 634 434 1313 
Q 434 1759 690 2068 
Q 947 2378 1403 2484 
z
M 1172 3481 
Q 1172 3119 1398 2916 
Q 1625 2713 2034 2713 
Q 2441 2713 2670 2916 
Q 2900 3119 2900 3481 
Q 2900 3844 2670 4047 
Q 2441 4250 2034 4250 
Q 1625 4250 1398 4047 
Q 1172 3844 1172 3481 
z
" transform="scale(0.015625)"/>
       </defs>
       <use xlink:href="#DejaVuSans-31"/>
       <use xlink:href="#DejaVuSans-38" transform="translate(63.623047 0)"/>
       <use xlink:href="#DejaVuSans-30" transform="translate(127.246094 0)"/>
      </g>
     </g>
    </g>
    <g id="xtick_5">
     <g id="line2d_5">
      <g>
       <use xlink:href="#mc510df0d12" x="522.53907" y="320.4" style="stroke: #000000; stroke-width: 0.8"/>
      </g>
     </g>
     <g id="text_5">
      <!-- 240 -->
      <g transform="translate(512.99532 334.998438) scale(0.1 -0.1)">
       <defs>
        <path id="DejaVuSans-34" d="M 2419 4116 
L 825 1625 
L 2419 1625 
L 2419 4116 
z
M 2253 4666 
L 3047 4666 
L 3047 1625 
L 3713 1625 
L 3713 1100 
L 3047 1100 
L 3047 0 
L 2419 0 
L 2419 1100 
L 313 1100 
L 313 1709 
L 2253 4666 
z
" transform="scale(0.015625)"/>
       </defs>
       <use xlink:href="#DejaVuSans-32"/>
       <use xlink:href="#DejaVuSans-34" transform="translate(63.623047 0)"/>
       <use xlink:href="#DejaVuSans-30" transform="translate(127.246094 0)"/>
      </g>
     </g>
    </g>
    <g id="text_6">
     <!-- Epoch -->
     <g transform="translate(353.689062 348.676562) scale(0.1 -0.1)">
      <defs>
       <path id="DejaVuSans-45" d="M 628 4666 
L 3578 4666 
L 3578 4134 
L 1259 4134 
L 1259 2753 
L 3481 2753 
L 3481 2222 
L 1259 2222 
L 1259 531 
L 3634 531 
L 3634 0 
L 628 0 
L 628 4666 
z
" transform="scale(0.015625)"/>
       <path id="DejaVuSans-70" d="M 1159 525 
L 1159 -1331 
L 581 -1331 
L 581 3500 
L 1159 3500 
L 1159 2969 
Q 1341 3281 1617 3432 
Q 1894 3584 2278 3584 
Q 2916 3584 3314 3078 
Q 3713 2572 3713 1747 
Q 3713 922 3314 415 
Q 2916 -91 2278 -91 
Q 1894 -91 1617 61 
Q 1341 213 1159 525 
z
M 3116 1747 
Q 3116 2381 2855 2742 
Q 2594 3103 2138 3103 
Q 1681 3103 1420 2742 
Q 1159 2381 1159 1747 
Q 1159 1113 1420 752 
Q 1681 391 2138 391 
Q 2594 391 2855 752 
Q 3116 1113 3116 1747 
z
" transform="scale(0.015625)"/>
       <path id="DejaVuSans-6f" d="M 1959 3097 
Q 1497 3097 1228 2736 
Q 959 2375 959 1747 
Q 959 1119 1226 758 
Q 1494 397 1959 397 
Q 2419 397 2687 759 
Q 2956 1122 2956 1747 
Q 2956 2369 2687 2733 
Q 2419 3097 1959 3097 
z
M 1959 3584 
Q 2709 3584 3137 3096 
Q 3566 2609 3566 1747 
Q 3566 888 3137 398 
Q 2709 -91 1959 -91 
Q 1206 -91 779 398 
Q 353 888 353 1747 
Q 353 2609 779 3096 
Q 1206 3584 1959 3584 
z
" transform="scale(0.015625)"/>
       <path id="DejaVuSans-63" d="M 3122 3366 
L 3122 2828 
Q 2878 2963 2633 3030 
Q 2388 3097 2138 3097 
Q 1578 3097 1268 2742 
Q 959 2388 959 1747 
Q 959 1106 1268 751 
Q 1578 397 2138 397 
Q 2388 397 2633 464 
Q 2878 531 3122 666 
L 3122 134 
Q 2881 22 2623 -34 
Q 2366 -91 2075 -91 
Q 1284 -91 818 406 
Q 353 903 353 1747 
Q 353 2603 823 3093 
Q 1294 3584 2113 3584 
Q 2378 3584 2631 3529 
Q 2884 3475 3122 3366 
z
" transform="scale(0.015625)"/>
       <path id="DejaVuSans-68" d="M 3513 2113 
L 3513 0 
L 2938 0 
L 2938 2094 
Q 2938 2591 2744 2837 
Q 2550 3084 2163 3084 
Q 1697 3084 1428 2787 
Q 1159 2491 1159 1978 
L 1159 0 
L 581 0 
L 581 4863 
L 1159 4863 
L 1159 2956 
Q 1366 3272 1645 3428 
Q 1925 3584 2291 3584 
Q 2894 3584 3203 3211 
Q 3513 2838 3513 2113 
z
" transform="scale(0.015625)"/>
      </defs>
      <use xlink:href="#DejaVuSans-45"/>
      <use xlink:href="#DejaVuSans-70" transform="translate(63.183594 0)"/>
      <use xlink:href="#DejaVuSans-6f" transform="translate(126.660156 0)"/>
      <use xlink:href="#DejaVuSans-63" transform="translate(187.841797 0)"/>
      <use xlink:href="#DejaVuSans-68" transform="translate(242.822266 0)"/>
     </g>
    </g>
   </g>
   <g id="matplotlib.axis_2">
    <g id="ytick_1">
     <g id="line2d_6">
      <defs>
       <path id="me6d8eac047" d="M 0 0 
L -3.5 0 
" style="stroke: #000000; stroke-width: 0.8"/>
      </defs>
      <g>
       <use xlink:href="#me6d8eac047" x="90" y="274.768064" style="stroke: #000000; stroke-width: 0.8"/>
      </g>
     </g>
     <g id="text_7">
      <!-- 0.10 -->
      <g transform="translate(60.734375 278.567283) scale(0.1 -0.1)">
       <defs>
        <path id="DejaVuSans-2e" d="M 684 794 
L 1344 794 
L 1344 0 
L 684 0 
L 684 794 
z
" transform="scale(0.015625)"/>
       </defs>
       <use xlink:href="#DejaVuSans-30"/>
       <use xlink:href="#DejaVuSans-2e" transform="translate(63.623047 0)"/>
       <use xlink:href="#DejaVuSans-31" transform="translate(95.410156 0)"/>
       <use xlink:href="#DejaVuSans-30" transform="translate(159.033203 0)"/>
      </g>
     </g>
    </g>
    <g id="ytick_2">
     <g id="line2d_7">
      <g>
       <use xlink:href="#me6d8eac047" x="90" y="221.256962" style="stroke: #000000; stroke-width: 0.8"/>
      </g>
     </g>
     <g id="text_8">
      <!-- 0.15 -->
      <g transform="translate(60.734375 225.056181) scale(0.1 -0.1)">
       <defs>
        <path id="DejaVuSans-35" d="M 691 4666 
L 3169 4666 
L 3169 4134 
L 1269 4134 
L 1269 2991 
Q 1406 3038 1543 3061 
Q 1681 3084 1819 3084 
Q 2600 3084 3056 2656 
Q 3513 2228 3513 1497 
Q 3513 744 3044 326 
Q 2575 -91 1722 -91 
Q 1428 -91 1123 -41 
Q 819 9 494 109 
L 494 744 
Q 775 591 1075 516 
Q 1375 441 1709 441 
Q 2250 441 2565 725 
Q 2881 1009 2881 1497 
Q 2881 1984 2565 2268 
Q 2250 2553 1709 2553 
Q 1456 2553 1204 2497 
Q 953 2441 691 2322 
L 691 4666 
z
" transform="scale(0.015625)"/>
       </defs>
       <use xlink:href="#DejaVuSans-30"/>
       <use xlink:href="#DejaVuSans-2e" transform="translate(63.623047 0)"/>
       <use xlink:href="#DejaVuSans-31" transform="translate(95.410156 0)"/>
       <use xlink:href="#DejaVuSans-35" transform="translate(159.033203 0)"/>
      </g>
     </g>
    </g>
    <g id="ytick_3">
     <g id="line2d_8">
      <g>
       <use xlink:href="#me6d8eac047" x="90" y="167.74586" style="stroke: #000000; stroke-width: 0.8"/>
      </g>
     </g>
     <g id="text_9">
      <!-- 0.20 -->
      <g transform="translate(60.734375 171.545079) scale(0.1 -0.1)">
       <use xlink:href="#DejaVuSans-30"/>
       <use xlink:href="#DejaVuSans-2e" transform="translate(63.623047 0)"/>
       <use xlink:href="#DejaVuSans-32" transform="translate(95.410156 0)"/>
       <use xlink:href="#DejaVuSans-30" transform="translate(159.033203 0)"/>
      </g>
     </g>
    </g>
    <g id="ytick_4">
     <g id="line2d_9">
      <g>
       <use xlink:href="#me6d8eac047" x="90" y="114.234758" style="stroke: #000000; stroke-width: 0.8"/>
      </g>
     </g>
     <g id="text_10">
      <!-- 0.25 -->
      <g transform="translate(60.734375 118.033977) scale(0.1 -0.1)">
       <use xlink:href="#DejaVuSans-30"/>
       <use xlink:href="#DejaVuSans-2e" transform="translate(63.623047 0)"/>
       <use xlink:href="#DejaVuSans-32" transform="translate(95.410156 0)"/>
       <use xlink:href="#DejaVuSans-35" transform="translate(159.033203 0)"/>
      </g>
     </g>
    </g>
    <g id="ytick_5">
     <g id="line2d_10">
      <g>
       <use xlink:href="#me6d8eac047" x="90" y="60.723656" style="stroke: #000000; stroke-width: 0.8"/>
      </g>
     </g>
     <g id="text_11">
      <!-- 0.30 -->
      <g transform="translate(60.734375 64.522875) scale(0.1 -0.1)">
       <defs>
        <path id="DejaVuSans-33" d="M 2597 2516 
Q 3050 2419 3304 2112 
Q 3559 1806 3559 1356 
Q 3559 666 3084 287 
Q 2609 -91 1734 -91 
Q 1441 -91 1130 -33 
Q 819 25 488 141 
L 488 750 
Q 750 597 1062 519 
Q 1375 441 1716 441 
Q 2309 441 2620 675 
Q 2931 909 2931 1356 
Q 2931 1769 2642 2001 
Q 2353 2234 1838 2234 
L 1294 2234 
L 1294 2753 
L 1863 2753 
Q 2328 2753 2575 2939 
Q 2822 3125 2822 3475 
Q 2822 3834 2567 4026 
Q 2313 4219 1838 4219 
Q 1578 4219 1281 4162 
Q 984 4106 628 3988 
L 628 4550 
Q 988 4650 1302 4700 
Q 1616 4750 1894 4750 
Q 2613 4750 3031 4423 
Q 3450 4097 3450 3541 
Q 3450 3153 3228 2886 
Q 3006 2619 2597 2516 
z
" transform="scale(0.015625)"/>
       </defs>
       <use xlink:href="#DejaVuSans-30"/>
       <use xlink:href="#DejaVuSans-2e" transform="translate(63.623047 0)"/>
       <use xlink:href="#DejaVuSans-33" transform="translate(95.410156 0)"/>
       <use xlink:href="#DejaVuSans-30" transform="translate(159.033203 0)"/>
      </g>
     </g>
    </g>
    <g id="text_12">
     <!-- NMSE -->
     <g transform="translate(54.654688 196.188281) rotate(-90) scale(0.1 -0.1)">
      <defs>
       <path id="DejaVuSans-4e" d="M 628 4666 
L 1478 4666 
L 3547 763 
L 3547 4666 
L 4159 4666 
L 4159 0 
L 3309 0 
L 1241 3903 
L 1241 0 
L 628 0 
L 628 4666 
z
" transform="scale(0.015625)"/>
       <path id="DejaVuSans-4d" d="M 628 4666 
L 1569 4666 
L 2759 1491 
L 3956 4666 
L 4897 4666 
L 4897 0 
L 4281 0 
L 4281 4097 
L 3078 897 
L 2444 897 
L 1241 4097 
L 1241 0 
L 628 0 
L 628 4666 
z
" transform="scale(0.015625)"/>
       <path id="DejaVuSans-53" d="M 3425 4513 
L 3425 3897 
Q 3066 4069 2747 4153 
Q 2428 4238 2131 4238 
Q 1616 4238 1336 4038 
Q 1056 3838 1056 3469 
Q 1056 3159 1242 3001 
Q 1428 2844 1947 2747 
L 2328 2669 
Q 3034 2534 3370 2195 
Q 3706 1856 3706 1288 
Q 3706 609 3251 259 
Q 2797 -91 1919 -91 
Q 1588 -91 1214 -16 
Q 841 59 441 206 
L 441 856 
Q 825 641 1194 531 
Q 1563 422 1919 422 
Q 2459 422 2753 634 
Q 3047 847 3047 1241 
Q 3047 1584 2836 1778 
Q 2625 1972 2144 2069 
L 1759 2144 
Q 1053 2284 737 2584 
Q 422 2884 422 3419 
Q 422 4038 858 4394 
Q 1294 4750 2059 4750 
Q 2388 4750 2728 4690 
Q 3069 4631 3425 4513 
z
" transform="scale(0.015625)"/>
      </defs>
      <use xlink:href="#DejaVuSans-4e"/>
      <use xlink:href="#DejaVuSans-4d" transform="translate(74.804688 0)"/>
      <use xlink:href="#DejaVuSans-53" transform="translate(161.083984 0)"/>
      <use xlink:href="#DejaVuSans-45" transform="translate(224.560547 0)"/>
     </g>
    </g>
   </g>
   <g id="line2d_11">
    <path d="M 115.363636 202.635772 
L 117.060201 267.921654 
L 118.756765 267.0721 
L 120.453329 260.228539 
L 122.149894 257.360934 
L 123.846458 258.019524 
L 127.239587 258.393024 
L 128.936151 259.707411 
L 130.632715 261.164348 
L 132.329279 262.8148 
L 134.025844 264.303137 
L 135.722408 266.170708 
L 137.418972 266.665228 
L 139.115537 267.655089 
L 140.812101 268.049715 
L 142.508665 268.838528 
L 145.901794 269.146242 
L 149.294922 269.661723 
L 152.688051 268.960386 
L 154.384615 268.735861 
L 157.777744 268.650813 
L 159.474308 268.091283 
L 162.867437 268.160733 
L 164.564001 267.513932 
L 166.260566 267.513045 
L 167.95713 267.205327 
L 169.653694 267.451442 
L 171.350258 266.946833 
L 173.046823 267.046032 
L 174.743387 266.80479 
L 176.439951 266.748263 
L 178.136516 266.423025 
L 179.83308 266.258894 
L 181.529644 265.974895 
L 183.226209 266.051761 
L 184.922773 265.762884 
L 186.619337 265.279854 
L 188.315901 265.676441 
L 190.012466 265.199298 
L 191.70903 264.905542 
L 196.798723 264.561303 
L 198.495287 264.244642 
L 200.191852 263.806638 
L 201.888416 263.710773 
L 203.58498 263.289355 
L 206.978109 262.940672 
L 220.550623 261.324401 
L 222.247188 261.364627 
L 223.943752 260.726762 
L 225.640316 260.867587 
L 227.336881 260.246985 
L 229.033445 260.116131 
L 230.730009 260.098912 
L 232.426573 259.60619 
L 235.819702 259.364238 
L 239.212831 259.205214 
L 240.909395 258.923337 
L 242.605959 258.916771 
L 245.999088 258.35207 
L 247.695652 258.333336 
L 249.392216 257.913249 
L 251.088781 258.163416 
L 252.785345 257.9737 
L 254.481909 257.989209 
L 256.178474 257.825608 
L 257.875038 257.777012 
L 261.268167 257.324998 
L 264.661295 256.941517 
L 268.054424 256.826145 
L 271.447552 256.534855 
L 273.144117 256.458761 
L 276.537245 256.575574 
L 278.23381 256.25048 
L 279.930374 256.176418 
L 281.626938 255.919324 
L 283.323503 255.987386 
L 290.10976 255.515221 
L 291.806324 255.682276 
L 293.502888 255.294889 
L 295.199453 255.490317 
L 301.98571 255.491039 
L 303.682274 255.288531 
L 308.771967 255.383691 
L 310.468531 255.086877 
L 315.558224 254.981481 
L 317.254789 254.883203 
L 318.951353 254.573435 
L 320.647917 254.62159 
L 325.73761 254.400292 
L 329.130739 254.510604 
L 332.523867 254.916825 
L 334.220432 254.644514 
L 335.916996 254.504355 
L 337.61356 254.635841 
L 339.310125 254.460929 
L 344.399818 254.384089 
L 346.096382 254.111484 
L 347.792946 254.263403 
L 351.186075 253.846611 
L 352.882639 253.959909 
L 354.579203 253.748499 
L 357.972332 253.682148 
L 359.668896 253.501983 
L 361.365461 253.202137 
L 364.758589 253.307261 
L 366.455154 253.099268 
L 368.151718 253.173511 
L 369.848282 253.374183 
L 371.544846 253.040344 
L 373.241411 253.154288 
L 374.937975 253.027109 
L 376.634539 253.118712 
L 378.331104 252.993908 
L 380.027668 252.623738 
L 381.724232 252.509128 
L 383.420797 252.240908 
L 385.117361 252.308433 
L 386.813925 252.131268 
L 388.51049 251.76755 
L 398.689875 251.255266 
L 400.38644 250.965424 
L 403.779568 250.70497 
L 408.869261 249.771364 
L 413.958954 249.777396 
L 415.655518 249.552102 
L 419.048647 249.357211 
L 420.745211 249.404242 
L 422.441776 249.208168 
L 424.13834 249.14684 
L 427.531469 248.681424 
L 432.621161 248.613766 
L 434.317726 248.17675 
L 436.01429 248.25385 
L 439.407419 248.01197 
L 442.800547 247.960031 
L 446.193676 247.572926 
L 449.586804 247.749069 
L 451.283369 247.395933 
L 452.979933 247.470904 
L 456.373062 246.976319 
L 459.76619 246.937631 
L 463.159319 246.48321 
L 468.249012 246.094657 
L 469.945576 246.272447 
L 471.64214 245.994131 
L 473.338705 246.139201 
L 478.428398 245.943204 
L 480.124962 246.119002 
L 481.821526 245.656675 
L 483.518091 245.717363 
L 486.911219 245.442187 
L 488.607784 245.513114 
L 490.304348 245.269794 
L 492.000912 245.481757 
L 495.394041 245.08279 
L 500.483734 244.656053 
L 502.180298 244.822654 
L 503.876862 244.658227 
L 508.966555 244.444057 
L 510.663119 244.649677 
L 512.359684 244.424994 
L 514.056248 244.593786 
L 515.752812 244.37237 
L 522.53907 244.569068 
L 524.235634 244.199115 
L 525.932198 244.107833 
L 532.718455 244.386545 
L 539.504713 243.769373 
L 542.897841 243.592374 
L 544.594406 243.479871 
L 546.29097 243.5743 
L 553.077227 242.951546 
L 554.773791 242.887685 
L 556.470356 242.708635 
L 566.649742 242.256266 
L 568.346306 241.971828 
L 570.04287 242.02335 
L 575.132563 241.691048 
L 576.829127 241.909804 
L 578.525692 241.876946 
L 581.91882 241.557237 
L 583.615385 241.421053 
L 585.311949 241.573872 
L 593.79477 241.436522 
L 595.491335 241.135585 
L 597.187899 240.664165 
L 598.884463 240.664147 
L 600.581028 240.936298 
L 602.277592 240.697818 
L 603.974156 240.69639 
L 607.367285 240.929325 
L 609.063849 240.850797 
L 610.760413 240.638539 
L 612.456978 240.627056 
L 614.153542 240.431447 
L 615.850106 240.530063 
L 617.546671 240.314077 
L 619.243235 240.307893 
L 620.939799 239.982102 
L 622.636364 239.846416 
L 622.636364 239.846416 
" clip-path="url(#p0aca204c23)" style="fill: none; stroke: #1f77b4; stroke-width: 1.5; stroke-linecap: square"/>
   </g>
   <g id="line2d_12">
    <path d="M 115.363636 153.19946 
L 117.060201 262.381351 
L 118.756765 254.30726 
L 120.453329 243.627766 
L 122.149894 240.964156 
L 123.846458 244.290456 
L 125.543022 246.286808 
L 127.239587 248.710119 
L 128.936151 250.854078 
L 132.329279 256.998083 
L 134.025844 258.917055 
L 135.722408 261.170939 
L 137.418972 261.59675 
L 139.115537 262.34825 
L 140.812101 262.223479 
L 142.508665 262.720497 
L 145.901794 261.812662 
L 147.598358 261.511552 
L 149.294922 261.345899 
L 150.991487 260.217558 
L 154.384615 259.090256 
L 156.08118 258.893564 
L 157.777744 258.867355 
L 159.474308 257.561363 
L 161.170873 257.679632 
L 162.867437 257.461662 
L 164.564001 256.657873 
L 166.260566 256.659513 
L 167.95713 256.103909 
L 169.653694 256.281857 
L 171.350258 255.637319 
L 173.046823 255.716857 
L 174.743387 255.473536 
L 176.439951 255.504164 
L 178.136516 254.807894 
L 179.83308 255.010073 
L 181.529644 254.384671 
L 183.226209 254.586295 
L 184.922773 254.2024 
L 186.619337 253.554109 
L 188.315901 254.088524 
L 193.405594 252.94961 
L 195.102159 252.807969 
L 198.495287 252.354813 
L 200.191852 251.77138 
L 201.888416 251.720775 
L 203.58498 251.136551 
L 206.978109 250.656978 
L 208.674673 250.582322 
L 210.371237 249.939031 
L 212.067802 249.710816 
L 215.46093 248.807525 
L 218.854059 247.990195 
L 220.550623 248.004564 
L 223.943752 247.261659 
L 225.640316 247.282848 
L 227.336881 246.613364 
L 229.033445 246.572566 
L 230.730009 246.229084 
L 232.426573 246.005388 
L 234.123138 245.91917 
L 237.516266 245.56478 
L 247.695652 244.507705 
L 249.392216 244.133425 
L 251.088781 244.180153 
L 254.481909 243.79612 
L 259.571602 243.173018 
L 261.268167 242.815678 
L 262.964731 242.724095 
L 264.661295 242.395211 
L 266.35786 242.388707 
L 271.447552 241.887464 
L 274.840681 241.846056 
L 276.537245 241.828492 
L 278.23381 241.50439 
L 279.930374 241.458872 
L 281.626938 241.205452 
L 283.323503 241.196883 
L 286.716631 240.726218 
L 288.413196 240.702719 
L 290.10976 240.512496 
L 291.806324 240.587586 
L 293.502888 240.167574 
L 295.199453 240.26483 
L 298.592581 240.098885 
L 301.98571 240.071823 
L 303.682274 239.982837 
L 305.378839 239.665051 
L 307.075403 239.677301 
L 308.771967 239.88439 
L 310.468531 239.599189 
L 312.165096 239.444715 
L 315.558224 239.574748 
L 318.951353 239.3048 
L 320.647917 239.413246 
L 329.130739 239.377799 
L 330.827303 239.759331 
L 341.006689 239.824979 
L 342.703253 239.684659 
L 344.399818 239.761089 
L 346.096382 239.573344 
L 347.792946 239.84929 
L 352.882639 239.799296 
L 354.579203 239.834422 
L 356.275768 239.737888 
L 359.668896 239.828256 
L 361.365461 239.654042 
L 364.758589 239.872615 
L 366.455154 239.689164 
L 369.848282 240.010559 
L 373.241411 239.532644 
L 376.634539 239.468476 
L 378.331104 239.43994 
L 380.027668 239.237143 
L 385.117361 239.20498 
L 388.51049 238.598556 
L 391.903618 238.256974 
L 393.600182 238.38626 
L 402.083004 237.840195 
L 403.779568 237.814221 
L 405.476133 237.383602 
L 408.869261 236.937689 
L 410.565825 236.975584 
L 415.655518 236.542459 
L 419.048647 236.524527 
L 422.441776 236.426118 
L 425.834904 236.388272 
L 432.621161 236.036628 
L 434.317726 235.798341 
L 436.01429 235.919862 
L 439.407419 235.951304 
L 444.497112 235.818815 
L 446.193676 235.720185 
L 452.979933 236.265231 
L 458.069626 236.134459 
L 459.76619 236.237672 
L 464.855883 235.843126 
L 466.552448 235.884528 
L 468.249012 235.577017 
L 469.945576 235.941109 
L 471.64214 235.723274 
L 473.338705 235.860361 
L 478.428398 235.591526 
L 480.124962 235.720324 
L 481.821526 235.427005 
L 483.518091 235.503881 
L 485.214655 235.340294 
L 490.304348 235.288071 
L 492.000912 235.536739 
L 493.697476 235.282554 
L 498.787169 234.8897 
L 500.483734 234.59526 
L 502.180298 234.720184 
L 505.573427 234.590859 
L 507.269991 234.786734 
L 508.966555 234.601936 
L 510.663119 234.803443 
L 512.359684 234.61174 
L 514.056248 234.638767 
L 515.752812 234.521836 
L 519.145941 234.819084 
L 520.842505 234.914512 
L 525.932198 234.631393 
L 527.628763 234.804965 
L 529.325327 234.866196 
L 531.021891 235.141437 
L 532.718455 234.993133 
L 539.504713 234.884664 
L 541.201277 234.749908 
L 542.897841 234.8994 
L 547.987534 234.822641 
L 554.773791 234.365998 
L 556.470356 234.02948 
L 558.16692 234.067753 
L 559.863484 233.916468 
L 561.560049 234.007975 
L 563.256613 233.699155 
L 564.953177 233.807449 
L 566.649742 234.057099 
L 568.346306 233.687612 
L 570.04287 233.790884 
L 573.435999 233.485108 
L 575.132563 233.406125 
L 576.829127 233.531647 
L 580.222256 233.327493 
L 583.615385 232.97301 
L 585.311949 233.229434 
L 588.705078 233.094999 
L 592.098206 233.037784 
L 593.79477 233.176307 
L 595.491335 233.023198 
L 597.187899 232.51318 
L 598.884463 232.483374 
L 600.581028 232.770334 
L 603.974156 232.511934 
L 605.670721 232.810011 
L 615.850106 232.817315 
L 617.546671 232.866972 
L 619.243235 232.771308 
L 620.939799 232.494676 
L 622.636364 232.345283 
L 622.636364 232.345283 
" clip-path="url(#p0aca204c23)" style="fill: none; stroke: #ff7f0e; stroke-width: 1.5; stroke-linecap: square"/>
   </g>
   <g id="line2d_13">
    <path d="M 115.363636 55.8 
L 117.060201 191.817321 
L 118.756765 202.270368 
L 120.453329 209.749119 
L 122.149894 218.753743 
L 123.846458 228.905382 
L 127.239587 245.211927 
L 128.936151 248.926071 
L 132.329279 258.986225 
L 135.722408 264.838035 
L 139.115537 269.416898 
L 140.812101 271.261182 
L 144.20523 274.312716 
L 149.294922 277.93531 
L 150.991487 278.506734 
L 154.384615 280.29802 
L 156.08118 281.705412 
L 157.777744 282.335023 
L 159.474308 282.69699 
L 161.170873 283.353798 
L 162.867437 284.252715 
L 164.564001 285.011536 
L 166.260566 286.240764 
L 169.653694 287.092144 
L 171.350258 287.885906 
L 173.046823 288.43809 
L 174.743387 289.473946 
L 176.439951 290.147086 
L 178.136516 290.230793 
L 179.83308 291.44836 
L 181.529644 291.642842 
L 183.226209 292.318249 
L 184.922773 292.736078 
L 186.619337 292.924124 
L 188.315901 293.754358 
L 190.012466 294.336726 
L 196.798723 295.632219 
L 198.495287 296.217344 
L 200.191852 296.284598 
L 201.888416 296.876062 
L 203.58498 296.919072 
L 206.978109 297.225094 
L 208.674673 297.977176 
L 210.371237 297.924415 
L 212.067802 297.994598 
L 213.764366 298.400406 
L 215.46093 298.450631 
L 217.157495 298.892032 
L 218.854059 298.641742 
L 220.550623 299.345315 
L 222.247188 299.378979 
L 223.943752 299.884479 
L 225.640316 300.089817 
L 227.336881 300.046391 
L 229.033445 300.346401 
L 230.730009 300.314436 
L 232.426573 300.869771 
L 239.212831 301.095178 
L 240.909395 301.561753 
L 242.605959 301.567922 
L 244.302524 301.865907 
L 247.695652 302.163574 
L 249.392216 302.540571 
L 252.785345 302.865116 
L 254.481909 302.823222 
L 256.178474 302.8925 
L 259.571602 303.333935 
L 261.268167 303.423041 
L 262.964731 303.694028 
L 264.661295 303.709626 
L 266.35786 303.925193 
L 268.054424 303.981769 
L 269.750988 304.232473 
L 274.840681 304.509991 
L 278.23381 304.650974 
L 279.930374 304.931997 
L 288.413196 305.070561 
L 290.10976 305.280303 
L 291.806324 305.278783 
L 293.502888 305.473396 
L 298.592581 305.294127 
L 300.289146 305.567274 
L 301.98571 305.576948 
L 303.682274 305.848855 
L 305.378839 305.498023 
L 310.468531 305.934508 
L 312.165096 305.77857 
L 315.558224 306.000634 
L 318.951353 306.115219 
L 320.647917 306.226913 
L 325.73761 306.304472 
L 327.434175 306.417965 
L 329.130739 306.090984 
L 330.827303 306.285258 
L 332.523867 305.915575 
L 335.916996 306.559475 
L 337.61356 306.296094 
L 339.310125 306.467203 
L 342.703253 306.410437 
L 344.399818 306.535324 
L 349.48951 306.394865 
L 351.186075 306.506612 
L 352.882639 306.177399 
L 354.579203 306.51681 
L 356.275768 306.365651 
L 359.668896 306.383892 
L 361.365461 306.502595 
L 364.758589 306.319983 
L 366.455154 306.410374 
L 369.848282 306.261535 
L 371.544846 306.2737 
L 373.241411 306.05888 
L 378.331104 305.940148 
L 380.027668 306.24359 
L 383.420797 306.326841 
L 385.117361 306.067422 
L 388.51049 306.225501 
L 390.207054 305.955994 
L 393.600182 306.092652 
L 396.993311 306.007607 
L 412.26239 305.735268 
L 417.352083 305.482527 
L 419.048647 305.524121 
L 420.745211 305.385214 
L 422.441776 305.367146 
L 424.13834 305.633542 
L 425.834904 305.479725 
L 427.531469 305.621565 
L 429.228033 305.528262 
L 430.924597 305.614143 
L 434.317726 305.388528 
L 439.407419 305.551839 
L 441.103983 305.384358 
L 442.800547 305.478471 
L 446.193676 305.453604 
L 449.586804 305.624703 
L 451.283369 305.858173 
L 454.676497 305.665704 
L 458.069626 305.867794 
L 459.76619 305.721357 
L 461.462755 305.935087 
L 463.159319 305.677296 
L 464.855883 305.607091 
L 466.552448 305.658383 
L 468.249012 305.52007 
L 475.035269 305.901714 
L 476.731833 305.760531 
L 480.124962 305.931044 
L 481.821526 306.135209 
L 483.518091 306.218894 
L 485.214655 306.13255 
L 492.000912 306.398154 
L 493.697476 306.276071 
L 498.787169 306.288959 
L 500.483734 306.202014 
L 503.876862 306.455257 
L 505.573427 306.252271 
L 507.269991 306.497006 
L 508.966555 306.355881 
L 512.359684 306.324213 
L 514.056248 306.296821 
L 515.752812 306.47291 
L 520.842505 306.59715 
L 522.53907 306.481323 
L 524.235634 306.695291 
L 525.932198 306.644665 
L 529.325327 306.696655 
L 537.808148 306.730795 
L 539.504713 306.872766 
L 542.897841 306.66079 
L 544.594406 306.896111 
L 547.987534 306.738868 
L 549.684099 306.855125 
L 553.077227 306.668669 
L 554.773791 306.706419 
L 556.470356 306.585671 
L 558.16692 306.725136 
L 561.560049 306.769416 
L 568.346306 306.878992 
L 571.739434 306.864007 
L 573.435999 306.932365 
L 575.132563 306.866191 
L 576.829127 306.918397 
L 578.525692 306.828239 
L 581.91882 307.013664 
L 583.615385 306.906088 
L 585.311949 307.033492 
L 587.008513 306.844822 
L 590.401642 306.924133 
L 595.491335 306.981076 
L 598.884463 307.160306 
L 603.974156 307.110017 
L 605.670721 307.427794 
L 607.367285 307.269851 
L 609.063849 307.423291 
L 612.456978 307.502068 
L 614.153542 307.75321 
L 615.850106 307.565186 
L 617.546671 307.726355 
L 619.243235 307.699846 
L 620.939799 307.8 
L 622.636364 307.737852 
L 622.636364 307.737852 
" clip-path="url(#p0aca204c23)" style="fill: none; stroke: #2ca02c; stroke-width: 1.5; stroke-linecap: square"/>
   </g>
   <g id="patch_3">
    <path d="M 90 320.4 
L 90 43.2 
" style="fill: none; stroke: #000000; stroke-width: 0.8; stroke-linejoin: miter; stroke-linecap: square"/>
   </g>
   <g id="patch_4">
    <path d="M 648 320.4 
L 648 43.2 
" style="fill: none; stroke: #000000; stroke-width: 0.8; stroke-linejoin: miter; stroke-linecap: square"/>
   </g>
   <g id="patch_5">
    <path d="M 90 320.4 
L 648 320.4 
" style="fill: none; stroke: #000000; stroke-width: 0.8; stroke-linejoin: miter; stroke-linecap: square"/>
   </g>
   <g id="patch_6">
    <path d="M 90 43.2 
L 648 43.2 
" style="fill: none; stroke: #000000; stroke-width: 0.8; stroke-linejoin: miter; stroke-linecap: square"/>
   </g>
   <g id="text_13">
    <!-- NMSE in Validation -->
    <g transform="translate(312.822187 37.2) scale(0.12 -0.12)">
     <defs>
      <path id="DejaVuSans-20" transform="scale(0.015625)"/>
      <path id="DejaVuSans-69" d="M 603 3500 
L 1178 3500 
L 1178 0 
L 603 0 
L 603 3500 
z
M 603 4863 
L 1178 4863 
L 1178 4134 
L 603 4134 
L 603 4863 
z
" transform="scale(0.015625)"/>
      <path id="DejaVuSans-6e" d="M 3513 2113 
L 3513 0 
L 2938 0 
L 2938 2094 
Q 2938 2591 2744 2837 
Q 2550 3084 2163 3084 
Q 1697 3084 1428 2787 
Q 1159 2491 1159 1978 
L 1159 0 
L 581 0 
L 581 3500 
L 1159 3500 
L 1159 2956 
Q 1366 3272 1645 3428 
Q 1925 3584 2291 3584 
Q 2894 3584 3203 3211 
Q 3513 2838 3513 2113 
z
" transform="scale(0.015625)"/>
      <path id="DejaVuSans-56" d="M 1831 0 
L 50 4666 
L 709 4666 
L 2188 738 
L 3669 4666 
L 4325 4666 
L 2547 0 
L 1831 0 
z
" transform="scale(0.015625)"/>
      <path id="DejaVuSans-61" d="M 2194 1759 
Q 1497 1759 1228 1600 
Q 959 1441 959 1056 
Q 959 750 1161 570 
Q 1363 391 1709 391 
Q 2188 391 2477 730 
Q 2766 1069 2766 1631 
L 2766 1759 
L 2194 1759 
z
M 3341 1997 
L 3341 0 
L 2766 0 
L 2766 531 
Q 2569 213 2275 61 
Q 1981 -91 1556 -91 
Q 1019 -91 701 211 
Q 384 513 384 1019 
Q 384 1609 779 1909 
Q 1175 2209 1959 2209 
L 2766 2209 
L 2766 2266 
Q 2766 2663 2505 2880 
Q 2244 3097 1772 3097 
Q 1472 3097 1187 3025 
Q 903 2953 641 2809 
L 641 3341 
Q 956 3463 1253 3523 
Q 1550 3584 1831 3584 
Q 2591 3584 2966 3190 
Q 3341 2797 3341 1997 
z
" transform="scale(0.015625)"/>
      <path id="DejaVuSans-6c" d="M 603 4863 
L 1178 4863 
L 1178 0 
L 603 0 
L 603 4863 
z
" transform="scale(0.015625)"/>
      <path id="DejaVuSans-64" d="M 2906 2969 
L 2906 4863 
L 3481 4863 
L 3481 0 
L 2906 0 
L 2906 525 
Q 2725 213 2448 61 
Q 2172 -91 1784 -91 
Q 1150 -91 751 415 
Q 353 922 353 1747 
Q 353 2572 751 3078 
Q 1150 3584 1784 3584 
Q 2172 3584 2448 3432 
Q 2725 3281 2906 2969 
z
M 947 1747 
Q 947 1113 1208 752 
Q 1469 391 1925 391 
Q 2381 391 2643 752 
Q 2906 1113 2906 1747 
Q 2906 2381 2643 2742 
Q 2381 3103 1925 3103 
Q 1469 3103 1208 2742 
Q 947 2381 947 1747 
z
" transform="scale(0.015625)"/>
      <path id="DejaVuSans-74" d="M 1172 4494 
L 1172 3500 
L 2356 3500 
L 2356 3053 
L 1172 3053 
L 1172 1153 
Q 1172 725 1289 603 
Q 1406 481 1766 481 
L 2356 481 
L 2356 0 
L 1766 0 
Q 1100 0 847 248 
Q 594 497 594 1153 
L 594 3053 
L 172 3053 
L 172 3500 
L 594 3500 
L 594 4494 
L 1172 4494 
z
" transform="scale(0.015625)"/>
     </defs>
     <use xlink:href="#DejaVuSans-4e"/>
     <use xlink:href="#DejaVuSans-4d" transform="translate(74.804688 0)"/>
     <use xlink:href="#DejaVuSans-53" transform="translate(161.083984 0)"/>
     <use xlink:href="#DejaVuSans-45" transform="translate(224.560547 0)"/>
     <use xlink:href="#DejaVuSans-20" transform="translate(287.744141 0)"/>
     <use xlink:href="#DejaVuSans-69" transform="translate(319.53125 0)"/>
     <use xlink:href="#DejaVuSans-6e" transform="translate(347.314453 0)"/>
     <use xlink:href="#DejaVuSans-20" transform="translate(410.693359 0)"/>
     <use xlink:href="#DejaVuSans-56" transform="translate(442.480469 0)"/>
     <use xlink:href="#DejaVuSans-61" transform="translate(503.138672 0)"/>
     <use xlink:href="#DejaVuSans-6c" transform="translate(564.417969 0)"/>
     <use xlink:href="#DejaVuSans-69" transform="translate(592.201172 0)"/>
     <use xlink:href="#DejaVuSans-64" transform="translate(619.984375 0)"/>
     <use xlink:href="#DejaVuSans-61" transform="translate(683.460938 0)"/>
     <use xlink:href="#DejaVuSans-74" transform="translate(744.740234 0)"/>
     <use xlink:href="#DejaVuSans-69" transform="translate(783.949219 0)"/>
     <use xlink:href="#DejaVuSans-6f" transform="translate(811.732422 0)"/>
     <use xlink:href="#DejaVuSans-6e" transform="translate(872.914062 0)"/>
    </g>
   </g>
   <g id="legend_1">
    <g id="patch_7">
     <path d="M 530.996875 95.234375 
L 641 95.234375 
Q 643 95.234375 643 93.234375 
L 643 50.2 
Q 643 48.2 641 48.2 
L 530.996875 48.2 
Q 528.996875 48.2 528.996875 50.2 
L 528.996875 93.234375 
Q 528.996875 95.234375 530.996875 95.234375 
z
" style="fill: #ffffff; opacity: 0.8; stroke: #cccccc; stroke-linejoin: miter"/>
    </g>
    <g id="line2d_14">
     <path d="M 532.996875 56.298437 
L 542.996875 56.298437 
L 552.996875 56.298437 
" style="fill: none; stroke: #1f77b4; stroke-width: 1.5; stroke-linecap: square"/>
    </g>
    <g id="text_14">
     <!-- Source Domain -->
     <g transform="translate(560.996875 59.798437) scale(0.1 -0.1)">
      <defs>
       <path id="DejaVuSans-75" d="M 544 1381 
L 544 3500 
L 1119 3500 
L 1119 1403 
Q 1119 906 1312 657 
Q 1506 409 1894 409 
Q 2359 409 2629 706 
Q 2900 1003 2900 1516 
L 2900 3500 
L 3475 3500 
L 3475 0 
L 2900 0 
L 2900 538 
Q 2691 219 2414 64 
Q 2138 -91 1772 -91 
Q 1169 -91 856 284 
Q 544 659 544 1381 
z
M 1991 3584 
L 1991 3584 
z
" transform="scale(0.015625)"/>
       <path id="DejaVuSans-72" d="M 2631 2963 
Q 2534 3019 2420 3045 
Q 2306 3072 2169 3072 
Q 1681 3072 1420 2755 
Q 1159 2438 1159 1844 
L 1159 0 
L 581 0 
L 581 3500 
L 1159 3500 
L 1159 2956 
Q 1341 3275 1631 3429 
Q 1922 3584 2338 3584 
Q 2397 3584 2469 3576 
Q 2541 3569 2628 3553 
L 2631 2963 
z
" transform="scale(0.015625)"/>
       <path id="DejaVuSans-65" d="M 3597 1894 
L 3597 1613 
L 953 1613 
Q 991 1019 1311 708 
Q 1631 397 2203 397 
Q 2534 397 2845 478 
Q 3156 559 3463 722 
L 3463 178 
Q 3153 47 2828 -22 
Q 2503 -91 2169 -91 
Q 1331 -91 842 396 
Q 353 884 353 1716 
Q 353 2575 817 3079 
Q 1281 3584 2069 3584 
Q 2775 3584 3186 3129 
Q 3597 2675 3597 1894 
z
M 3022 2063 
Q 3016 2534 2758 2815 
Q 2500 3097 2075 3097 
Q 1594 3097 1305 2825 
Q 1016 2553 972 2059 
L 3022 2063 
z
" transform="scale(0.015625)"/>
       <path id="DejaVuSans-44" d="M 1259 4147 
L 1259 519 
L 2022 519 
Q 2988 519 3436 956 
Q 3884 1394 3884 2338 
Q 3884 3275 3436 3711 
Q 2988 4147 2022 4147 
L 1259 4147 
z
M 628 4666 
L 1925 4666 
Q 3281 4666 3915 4102 
Q 4550 3538 4550 2338 
Q 4550 1131 3912 565 
Q 3275 0 1925 0 
L 628 0 
L 628 4666 
z
" transform="scale(0.015625)"/>
       <path id="DejaVuSans-6d" d="M 3328 2828 
Q 3544 3216 3844 3400 
Q 4144 3584 4550 3584 
Q 5097 3584 5394 3201 
Q 5691 2819 5691 2113 
L 5691 0 
L 5113 0 
L 5113 2094 
Q 5113 2597 4934 2840 
Q 4756 3084 4391 3084 
Q 3944 3084 3684 2787 
Q 3425 2491 3425 1978 
L 3425 0 
L 2847 0 
L 2847 2094 
Q 2847 2600 2669 2842 
Q 2491 3084 2119 3084 
Q 1678 3084 1418 2786 
Q 1159 2488 1159 1978 
L 1159 0 
L 581 0 
L 581 3500 
L 1159 3500 
L 1159 2956 
Q 1356 3278 1631 3431 
Q 1906 3584 2284 3584 
Q 2666 3584 2933 3390 
Q 3200 3197 3328 2828 
z
" transform="scale(0.015625)"/>
      </defs>
      <use xlink:href="#DejaVuSans-53"/>
      <use xlink:href="#DejaVuSans-6f" transform="translate(63.476562 0)"/>
      <use xlink:href="#DejaVuSans-75" transform="translate(124.658203 0)"/>
      <use xlink:href="#DejaVuSans-72" transform="translate(188.037109 0)"/>
      <use xlink:href="#DejaVuSans-63" transform="translate(226.900391 0)"/>
      <use xlink:href="#DejaVuSans-65" transform="translate(281.880859 0)"/>
      <use xlink:href="#DejaVuSans-20" transform="translate(343.404297 0)"/>
      <use xlink:href="#DejaVuSans-44" transform="translate(375.191406 0)"/>
      <use xlink:href="#DejaVuSans-6f" transform="translate(452.193359 0)"/>
      <use xlink:href="#DejaVuSans-6d" transform="translate(513.375 0)"/>
      <use xlink:href="#DejaVuSans-61" transform="translate(610.787109 0)"/>
      <use xlink:href="#DejaVuSans-69" transform="translate(672.066406 0)"/>
      <use xlink:href="#DejaVuSans-6e" transform="translate(699.849609 0)"/>
     </g>
    </g>
    <g id="line2d_15">
     <path d="M 532.996875 70.976562 
L 542.996875 70.976562 
L 552.996875 70.976562 
" style="fill: none; stroke: #ff7f0e; stroke-width: 1.5; stroke-linecap: square"/>
    </g>
    <g id="text_15">
     <!-- Target Domain -->
     <g transform="translate(560.996875 74.476562) scale(0.1 -0.1)">
      <defs>
       <path id="DejaVuSans-54" d="M -19 4666 
L 3928 4666 
L 3928 4134 
L 2272 4134 
L 2272 0 
L 1638 0 
L 1638 4134 
L -19 4134 
L -19 4666 
z
" transform="scale(0.015625)"/>
       <path id="DejaVuSans-67" d="M 2906 1791 
Q 2906 2416 2648 2759 
Q 2391 3103 1925 3103 
Q 1463 3103 1205 2759 
Q 947 2416 947 1791 
Q 947 1169 1205 825 
Q 1463 481 1925 481 
Q 2391 481 2648 825 
Q 2906 1169 2906 1791 
z
M 3481 434 
Q 3481 -459 3084 -895 
Q 2688 -1331 1869 -1331 
Q 1566 -1331 1297 -1286 
Q 1028 -1241 775 -1147 
L 775 -588 
Q 1028 -725 1275 -790 
Q 1522 -856 1778 -856 
Q 2344 -856 2625 -561 
Q 2906 -266 2906 331 
L 2906 616 
Q 2728 306 2450 153 
Q 2172 0 1784 0 
Q 1141 0 747 490 
Q 353 981 353 1791 
Q 353 2603 747 3093 
Q 1141 3584 1784 3584 
Q 2172 3584 2450 3431 
Q 2728 3278 2906 2969 
L 2906 3500 
L 3481 3500 
L 3481 434 
z
" transform="scale(0.015625)"/>
      </defs>
      <use xlink:href="#DejaVuSans-54"/>
      <use xlink:href="#DejaVuSans-61" transform="translate(44.583984 0)"/>
      <use xlink:href="#DejaVuSans-72" transform="translate(105.863281 0)"/>
      <use xlink:href="#DejaVuSans-67" transform="translate(145.226562 0)"/>
      <use xlink:href="#DejaVuSans-65" transform="translate(208.703125 0)"/>
      <use xlink:href="#DejaVuSans-74" transform="translate(270.226562 0)"/>
      <use xlink:href="#DejaVuSans-20" transform="translate(309.435547 0)"/>
      <use xlink:href="#DejaVuSans-44" transform="translate(341.222656 0)"/>
      <use xlink:href="#DejaVuSans-6f" transform="translate(418.224609 0)"/>
      <use xlink:href="#DejaVuSans-6d" transform="translate(479.40625 0)"/>
      <use xlink:href="#DejaVuSans-61" transform="translate(576.818359 0)"/>
      <use xlink:href="#DejaVuSans-69" transform="translate(638.097656 0)"/>
      <use xlink:href="#DejaVuSans-6e" transform="translate(665.880859 0)"/>
     </g>
    </g>
    <g id="line2d_16">
     <path d="M 532.996875 85.654687 
L 542.996875 85.654687 
L 552.996875 85.654687 
" style="fill: none; stroke: #2ca02c; stroke-width: 1.5; stroke-linecap: square"/>
    </g>
    <g id="text_16">
     <!-- Pseudo Domain -->
     <g transform="translate(560.996875 89.154687) scale(0.1 -0.1)">
      <defs>
       <path id="DejaVuSans-50" d="M 1259 4147 
L 1259 2394 
L 2053 2394 
Q 2494 2394 2734 2622 
Q 2975 2850 2975 3272 
Q 2975 3691 2734 3919 
Q 2494 4147 2053 4147 
L 1259 4147 
z
M 628 4666 
L 2053 4666 
Q 2838 4666 3239 4311 
Q 3641 3956 3641 3272 
Q 3641 2581 3239 2228 
Q 2838 1875 2053 1875 
L 1259 1875 
L 1259 0 
L 628 0 
L 628 4666 
z
" transform="scale(0.015625)"/>
       <path id="DejaVuSans-73" d="M 2834 3397 
L 2834 2853 
Q 2591 2978 2328 3040 
Q 2066 3103 1784 3103 
Q 1356 3103 1142 2972 
Q 928 2841 928 2578 
Q 928 2378 1081 2264 
Q 1234 2150 1697 2047 
L 1894 2003 
Q 2506 1872 2764 1633 
Q 3022 1394 3022 966 
Q 3022 478 2636 193 
Q 2250 -91 1575 -91 
Q 1294 -91 989 -36 
Q 684 19 347 128 
L 347 722 
Q 666 556 975 473 
Q 1284 391 1588 391 
Q 1994 391 2212 530 
Q 2431 669 2431 922 
Q 2431 1156 2273 1281 
Q 2116 1406 1581 1522 
L 1381 1569 
Q 847 1681 609 1914 
Q 372 2147 372 2553 
Q 372 3047 722 3315 
Q 1072 3584 1716 3584 
Q 2034 3584 2315 3537 
Q 2597 3491 2834 3397 
z
" transform="scale(0.015625)"/>
      </defs>
      <use xlink:href="#DejaVuSans-50"/>
      <use xlink:href="#DejaVuSans-73" transform="translate(58.552734 0)"/>
      <use xlink:href="#DejaVuSans-65" transform="translate(110.652344 0)"/>
      <use xlink:href="#DejaVuSans-75" transform="translate(172.175781 0)"/>
      <use xlink:href="#DejaVuSans-64" transform="translate(235.554688 0)"/>
      <use xlink:href="#DejaVuSans-6f" transform="translate(299.03125 0)"/>
      <use xlink:href="#DejaVuSans-20" transform="translate(360.212891 0)"/>
      <use xlink:href="#DejaVuSans-44" transform="translate(392 0)"/>
      <use xlink:href="#DejaVuSans-6f" transform="translate(469.001953 0)"/>
      <use xlink:href="#DejaVuSans-6d" transform="translate(530.183594 0)"/>
      <use xlink:href="#DejaVuSans-61" transform="translate(627.595703 0)"/>
      <use xlink:href="#DejaVuSans-69" transform="translate(688.875 0)"/>
      <use xlink:href="#DejaVuSans-6e" transform="translate(716.658203 0)"/>
     </g>
    </g>
   </g>
  </g>
 </g>
 <defs>
  <clipPath id="p0aca204c23">
   <rect x="90" y="43.2" width="558" height="277.2"/>
  </clipPath>
 </defs>
</svg>
