<?xml version="1.0" encoding="utf-8" standalone="no"?>
<!DOCTYPE svg PUBLIC "-//W3C//DTD SVG 1.1//EN"
  "http://www.w3.org/Graphics/SVG/1.1/DTD/svg11.dtd">
<svg xmlns:xlink="http://www.w3.org/1999/xlink" width="720pt" height="360pt" viewBox="0 0 720 360" xmlns="http://www.w3.org/2000/svg" version="1.1">
 <metadata>
  <rdf:RDF xmlns:dc="http://purl.org/dc/elements/1.1/" xmlns:cc="http://creativecommons.org/ns#" xmlns:rdf="http://www.w3.org/1999/02/22-rdf-syntax-ns#">
   <cc:Work>
    <dc:type rdf:resource="http://purl.org/dc/dcmitype/StillImage"/>
    <dc:date>2026-02-16T20:22:51.502483</dc:date>
    <dc:format>image/svg+xml</dc:format>
    <dc:creator>
     <cc:Agent>
      <dc:title>Matplotlib v3.10.1, https://matplotlib.org/</dc:title>
     </cc:Agent>
    </dc:creator>
   </cc:Work>
  </rdf:RDF>
 </metadata>
 <defs>
  <style type="text/css">*{stroke-linejoin: round; stroke-linecap: butt}</style>
 </defs>
 <g id="figure_1">
  <g id="patch_1">
   <path d="M 0 360 
L 720 360 
L 720 0 
L 0 0 
z
" style="fill: #ffffff"/>
  </g>
  <g id="axes_1">
   <g id="patch_2">
    <path d="M 90 320.4 
L 648 320.4 
L 648 43.2 
L 90 43.2 
z
" style="fill: #ffffff"/>
   </g>
   <g id="matplotlib.axis_1">
    <g id="xtick_1">
     <g id="line2d_1">
      <defs>
       <path id="m0359080da6" d="M 0 0 
L 0 3.5 
" style="stroke: #000000; stroke-width: 0.8"/>
      </defs>
      <g>
       <use xlink:href="#m0359080da6" x="115.363636" y="320.4" style="stroke: #000000; stroke-width: 0.8"/>
      </g>
     </g>
     <g id="text_1">
      <!-- 0 -->
      <g transform="translate(112.182386 334.998438) scale(0.1 -0.1)">
       <defs>
        <path id="DejaVuSans-30" d="M 2034 4250 
Q 1547 4250 1301 3770 
Q 1056 3291 1056 2328 
Q 1056 1369 1301 889 
Q 1547 409 2034 409 
Q 2525 409 2770 889 
Q 3016 1369 3016 2328 
Q 3016 3291 2770 3770 
Q 2525 4250 2034 4250 
z
M 2034 4750 
Q 2819 4750 3233 4129 
Q 3647 3509 3647 2328 
Q 3647 1150 3233 529 
Q 2819 -91 2034 -91 
Q 1250 -91 836 529 
Q 422 1150 422 2328 
Q 422 3509 836 4129 
Q 1250 4750 2034 4750 
z
" transform="scale(0.015625)"/>
       </defs>
       <use xlink:href="#DejaVuSans-30"/>
      </g>
     </g>
    </g>
    <g id="xtick_2">
     <g id="line2d_2">
      <g>
       <use xlink:href="#m0359080da6" x="217.157495" y="320.4" style="stroke: #000000; stroke-width: 0.8"/>
      </g>
     </g>
     <g id="text_2">
      <!-- 60 -->
      <g transform="translate(210.794995 334.998438) scale(0.1 -0.1)">
       <defs>
        <path id="DejaVuSans-36" d="M 2113 2584 
Q 1688 2584 1439 2293 
Q 1191 2003 1191 1497 
Q 1191 994 1439 701 
Q 1688 409 2113 409 
Q 2538 409 2786 701 
Q 3034 994 3034 1497 
Q 3034 2003 2786 2293 
Q 2538 2584 2113 2584 
z
M 3366 4563 
L 3366 3988 
Q 3128 4100 2886 4159 
Q 2644 4219 2406 4219 
Q 1781 4219 1451 3797 
Q 1122 3375 1075 2522 
Q 1259 2794 1537 2939 
Q 1816 3084 2150 3084 
Q 2853 3084 3261 2657 
Q 3669 2231 3669 1497 
Q 3669 778 3244 343 
Q 2819 -91 2113 -91 
Q 1303 -91 875 529 
Q 447 1150 447 2328 
Q 447 3434 972 4092 
Q 1497 4750 2381 4750 
Q 2619 4750 2861 4703 
Q 3103 4656 3366 4563 
z
" transform="scale(0.015625)"/>
       </defs>
       <use xlink:href="#DejaVuSans-36"/>
       <use xlink:href="#DejaVuSans-30" transform="translate(63.623047 0)"/>
      </g>
     </g>
    </g>
    <g id="xtick_3">
     <g id="line2d_3">
      <g>
       <use xlink:href="#m0359080da6" x="318.951353" y="320.4" style="stroke: #000000; stroke-width: 0.8"/>
      </g>
     </g>
     <g id="text_3">
      <!-- 120 -->
      <g transform="translate(309.407603 334.998438) scale(0.1 -0.1)">
       <defs>
        <path id="DejaVuSans-31" d="M 794 531 
L 1825 531 
L 1825 4091 
L 703 3866 
L 703 4441 
L 1819 4666 
L 2450 4666 
L 2450 531 
L 3481 531 
L 3481 0 
L 794 0 
L 794 531 
z
" transform="scale(0.015625)"/>
        <path id="DejaVuSans-32" d="M 1228 531 
L 3431 531 
L 3431 0 
L 469 0 
L 469 531 
Q 828 903 1448 1529 
Q 2069 2156 2228 2338 
Q 2531 2678 2651 2914 
Q 2772 3150 2772 3378 
Q 2772 3750 2511 3984 
Q 2250 4219 1831 4219 
Q 1534 4219 1204 4116 
Q 875 4013 500 3803 
L 500 4441 
Q 881 4594 1212 4672 
Q 1544 4750 1819 4750 
Q 2544 4750 2975 4387 
Q 3406 4025 3406 3419 
Q 3406 3131 3298 2873 
Q 3191 2616 2906 2266 
Q 2828 2175 2409 1742 
Q 1991 1309 1228 531 
z
" transform="scale(0.015625)"/>
       </defs>
       <use xlink:href="#DejaVuSans-31"/>
       <use xlink:href="#DejaVuSans-32" transform="translate(63.623047 0)"/>
       <use xlink:href="#DejaVuSans-30" transform="translate(127.246094 0)"/>
      </g>
     </g>
    </g>
    <g id="xtick_4">
     <g id="line2d_4">
      <g>
       <use xlink:href="#m0359080da6" x="420.745211" y="320.4" style="stroke: #000000; stroke-width: 0.8"/>
      </g>
     </g>
     <g id="text_4">
      <!-- 180 -->
      <g transform="translate(411.201461 334.998438) scale(0.1 -0.1)">
       <defs>
        <path id="DejaVuSans-38" d="M 2034 2216 
Q 1584 2216 1326 1975 
Q 1069 1734 1069 1313 
Q 1069 891 1326 650 
Q 1584 409 2034 409 
Q 2484 409 2743 651 
Q 3003 894 3003 1313 
Q 3003 1734 2745 1975 
Q 2488 2216 2034 2216 
z
M 1403 2484 
Q 997 2584 770 2862 
Q 544 3141 544 3541 
Q 544 4100 942 4425 
Q 1341 4750 2034 4750 
Q 2731 4750 3128 4425 
Q 3525 4100 3525 3541 
Q 3525 3141 3298 2862 
Q 3072 2584 2669 2484 
Q 3125 2378 3379 2068 
Q 3634 1759 3634 1313 
Q 3634 634 3220 271 
Q 2806 -91 2034 -91 
Q 1263 -91 848 271 
Q 434 634 434 1313 
Q 434 1759 690 2068 
Q 947 2378 1403 2484 
z
M 1172 3481 
Q 1172 3119 1398 2916 
Q 1625 2713 2034 2713 
Q 2441 2713 2670 2916 
Q 2900 3119 2900 3481 
Q 2900 3844 2670 4047 
Q 2441 4250 2034 4250 
Q 1625 4250 1398 4047 
Q 1172 3844 1172 3481 
z
" transform="scale(0.015625)"/>
       </defs>
       <use xlink:href="#DejaVuSans-31"/>
       <use xlink:href="#DejaVuSans-38" transform="translate(63.623047 0)"/>
       <use xlink:href="#DejaVuSans-30" transform="translate(127.246094 0)"/>
      </g>
     </g>
    </g>
    <g id="xtick_5">
     <g id="line2d_5">
      <g>
       <use xlink:href="#m0359080da6" x="522.53907" y="320.4" style="stroke: #000000; stroke-width: 0.8"/>
      </g>
     </g>
     <g id="text_5">
      <!-- 240 -->
      <g transform="translate(512.99532 334.998438) scale(0.1 -0.1)">
       <defs>
        <path id="DejaVuSans-34" d="M 2419 4116 
L 825 1625 
L 2419 1625 
L 2419 4116 
z
M 2253 4666 
L 3047 4666 
L 3047 1625 
L 3713 1625 
L 3713 1100 
L 3047 1100 
L 3047 0 
L 2419 0 
L 2419 1100 
L 313 1100 
L 313 1709 
L 2253 4666 
z
" transform="scale(0.015625)"/>
       </defs>
       <use xlink:href="#DejaVuSans-32"/>
       <use xlink:href="#DejaVuSans-34" transform="translate(63.623047 0)"/>
       <use xlink:href="#DejaVuSans-30" transform="translate(127.246094 0)"/>
      </g>
     </g>
    </g>
    <g id="text_6">
     <!-- Epoch -->
     <g transform="translate(353.689062 348.676562) scale(0.1 -0.1)">
      <defs>
       <path id="DejaVuSans-45" d="M 628 4666 
L 3578 4666 
L 3578 4134 
L 1259 4134 
L 1259 2753 
L 3481 2753 
L 3481 2222 
L 1259 2222 
L 1259 531 
L 3634 531 
L 3634 0 
L 628 0 
L 628 4666 
z
" transform="scale(0.015625)"/>
       <path id="DejaVuSans-70" d="M 1159 525 
L 1159 -1331 
L 581 -1331 
L 581 3500 
L 1159 3500 
L 1159 2969 
Q 1341 3281 1617 3432 
Q 1894 3584 2278 3584 
Q 2916 3584 3314 3078 
Q 3713 2572 3713 1747 
Q 3713 922 3314 415 
Q 2916 -91 2278 -91 
Q 1894 -91 1617 61 
Q 1341 213 1159 525 
z
M 3116 1747 
Q 3116 2381 2855 2742 
Q 2594 3103 2138 3103 
Q 1681 3103 1420 2742 
Q 1159 2381 1159 1747 
Q 1159 1113 1420 752 
Q 1681 391 2138 391 
Q 2594 391 2855 752 
Q 3116 1113 3116 1747 
z
" transform="scale(0.015625)"/>
       <path id="DejaVuSans-6f" d="M 1959 3097 
Q 1497 3097 1228 2736 
Q 959 2375 959 1747 
Q 959 1119 1226 758 
Q 1494 397 1959 397 
Q 2419 397 2687 759 
Q 2956 1122 2956 1747 
Q 2956 2369 2687 2733 
Q 2419 3097 1959 3097 
z
M 1959 3584 
Q 2709 3584 3137 3096 
Q 3566 2609 3566 1747 
Q 3566 888 3137 398 
Q 2709 -91 1959 -91 
Q 1206 -91 779 398 
Q 353 888 353 1747 
Q 353 2609 779 3096 
Q 1206 3584 1959 3584 
z
" transform="scale(0.015625)"/>
       <path id="DejaVuSans-63" d="M 3122 3366 
L 3122 2828 
Q 2878 2963 2633 3030 
Q 2388 3097 2138 3097 
Q 1578 3097 1268 2742 
Q 959 2388 959 1747 
Q 959 1106 1268 751 
Q 1578 397 2138 397 
Q 2388 397 2633 464 
Q 2878 531 3122 666 
L 3122 134 
Q 2881 22 2623 -34 
Q 2366 -91 2075 -91 
Q 1284 -91 818 406 
Q 353 903 353 1747 
Q 353 2603 823 3093 
Q 1294 3584 2113 3584 
Q 2378 3584 2631 3529 
Q 2884 3475 3122 3366 
z
" transform="scale(0.015625)"/>
       <path id="DejaVuSans-68" d="M 3513 2113 
L 3513 0 
L 2938 0 
L 2938 2094 
Q 2938 2591 2744 2837 
Q 2550 3084 2163 3084 
Q 1697 3084 1428 2787 
Q 1159 2491 1159 1978 
L 1159 0 
L 581 0 
L 581 4863 
L 1159 4863 
L 1159 2956 
Q 1366 3272 1645 3428 
Q 1925 3584 2291 3584 
Q 2894 3584 3203 3211 
Q 3513 2838 3513 2113 
z
" transform="scale(0.015625)"/>
      </defs>
      <use xlink:href="#DejaVuSans-45"/>
      <use xlink:href="#DejaVuSans-70" transform="translate(63.183594 0)"/>
      <use xlink:href="#DejaVuSans-6f" transform="translate(126.660156 0)"/>
      <use xlink:href="#DejaVuSans-63" transform="translate(187.841797 0)"/>
      <use xlink:href="#DejaVuSans-68" transform="translate(242.822266 0)"/>
     </g>
    </g>
   </g>
   <g id="matplotlib.axis_2">
    <g id="ytick_1">
     <g id="line2d_6">
      <defs>
       <path id="mccd91888e6" d="M 0 0 
L -3.5 0 
" style="stroke: #000000; stroke-width: 0.8"/>
      </defs>
      <g>
       <use xlink:href="#mccd91888e6" x="90" y="307.933651" style="stroke: #000000; stroke-width: 0.8"/>
      </g>
     </g>
     <g id="text_7">
      <!-- 0.0 -->
      <g transform="translate(67.096875 311.73287) scale(0.1 -0.1)">
       <defs>
        <path id="DejaVuSans-2e" d="M 684 794 
L 1344 794 
L 1344 0 
L 684 0 
L 684 794 
z
" transform="scale(0.015625)"/>
       </defs>
       <use xlink:href="#DejaVuSans-30"/>
       <use xlink:href="#DejaVuSans-2e" transform="translate(63.623047 0)"/>
       <use xlink:href="#DejaVuSans-30" transform="translate(95.410156 0)"/>
      </g>
     </g>
    </g>
    <g id="ytick_2">
     <g id="line2d_7">
      <g>
       <use xlink:href="#mccd91888e6" x="90" y="269.593528" style="stroke: #000000; stroke-width: 0.8"/>
      </g>
     </g>
     <g id="text_8">
      <!-- 0.1 -->
      <g transform="translate(67.096875 273.392747) scale(0.1 -0.1)">
       <use xlink:href="#DejaVuSans-30"/>
       <use xlink:href="#DejaVuSans-2e" transform="translate(63.623047 0)"/>
       <use xlink:href="#DejaVuSans-31" transform="translate(95.410156 0)"/>
      </g>
     </g>
    </g>
    <g id="ytick_3">
     <g id="line2d_8">
      <g>
       <use xlink:href="#mccd91888e6" x="90" y="231.253405" style="stroke: #000000; stroke-width: 0.8"/>
      </g>
     </g>
     <g id="text_9">
      <!-- 0.2 -->
      <g transform="translate(67.096875 235.052623) scale(0.1 -0.1)">
       <use xlink:href="#DejaVuSans-30"/>
       <use xlink:href="#DejaVuSans-2e" transform="translate(63.623047 0)"/>
       <use xlink:href="#DejaVuSans-32" transform="translate(95.410156 0)"/>
      </g>
     </g>
    </g>
    <g id="ytick_4">
     <g id="line2d_9">
      <g>
       <use xlink:href="#mccd91888e6" x="90" y="192.913281" style="stroke: #000000; stroke-width: 0.8"/>
      </g>
     </g>
     <g id="text_10">
      <!-- 0.3 -->
      <g transform="translate(67.096875 196.7125) scale(0.1 -0.1)">
       <defs>
        <path id="DejaVuSans-33" d="M 2597 2516 
Q 3050 2419 3304 2112 
Q 3559 1806 3559 1356 
Q 3559 666 3084 287 
Q 2609 -91 1734 -91 
Q 1441 -91 1130 -33 
Q 819 25 488 141 
L 488 750 
Q 750 597 1062 519 
Q 1375 441 1716 441 
Q 2309 441 2620 675 
Q 2931 909 2931 1356 
Q 2931 1769 2642 2001 
Q 2353 2234 1838 2234 
L 1294 2234 
L 1294 2753 
L 1863 2753 
Q 2328 2753 2575 2939 
Q 2822 3125 2822 3475 
Q 2822 3834 2567 4026 
Q 2313 4219 1838 4219 
Q 1578 4219 1281 4162 
Q 984 4106 628 3988 
L 628 4550 
Q 988 4650 1302 4700 
Q 1616 4750 1894 4750 
Q 2613 4750 3031 4423 
Q 3450 4097 3450 3541 
Q 3450 3153 3228 2886 
Q 3006 2619 2597 2516 
z
" transform="scale(0.015625)"/>
       </defs>
       <use xlink:href="#DejaVuSans-30"/>
       <use xlink:href="#DejaVuSans-2e" transform="translate(63.623047 0)"/>
       <use xlink:href="#DejaVuSans-33" transform="translate(95.410156 0)"/>
      </g>
     </g>
    </g>
    <g id="ytick_5">
     <g id="line2d_10">
      <g>
       <use xlink:href="#mccd91888e6" x="90" y="154.573158" style="stroke: #000000; stroke-width: 0.8"/>
      </g>
     </g>
     <g id="text_11">
      <!-- 0.4 -->
      <g transform="translate(67.096875 158.372377) scale(0.1 -0.1)">
       <use xlink:href="#DejaVuSans-30"/>
       <use xlink:href="#DejaVuSans-2e" transform="translate(63.623047 0)"/>
       <use xlink:href="#DejaVuSans-34" transform="translate(95.410156 0)"/>
      </g>
     </g>
    </g>
    <g id="ytick_6">
     <g id="line2d_11">
      <g>
       <use xlink:href="#mccd91888e6" x="90" y="116.233035" style="stroke: #000000; stroke-width: 0.8"/>
      </g>
     </g>
     <g id="text_12">
      <!-- 0.5 -->
      <g transform="translate(67.096875 120.032254) scale(0.1 -0.1)">
       <defs>
        <path id="DejaVuSans-35" d="M 691 4666 
L 3169 4666 
L 3169 4134 
L 1269 4134 
L 1269 2991 
Q 1406 3038 1543 3061 
Q 1681 3084 1819 3084 
Q 2600 3084 3056 2656 
Q 3513 2228 3513 1497 
Q 3513 744 3044 326 
Q 2575 -91 1722 -91 
Q 1428 -91 1123 -41 
Q 819 9 494 109 
L 494 744 
Q 775 591 1075 516 
Q 1375 441 1709 441 
Q 2250 441 2565 725 
Q 2881 1009 2881 1497 
Q 2881 1984 2565 2268 
Q 2250 2553 1709 2553 
Q 1456 2553 1204 2497 
Q 953 2441 691 2322 
L 691 4666 
z
" transform="scale(0.015625)"/>
       </defs>
       <use xlink:href="#DejaVuSans-30"/>
       <use xlink:href="#DejaVuSans-2e" transform="translate(63.623047 0)"/>
       <use xlink:href="#DejaVuSans-35" transform="translate(95.410156 0)"/>
      </g>
     </g>
    </g>
    <g id="ytick_7">
     <g id="line2d_12">
      <g>
       <use xlink:href="#mccd91888e6" x="90" y="77.892912" style="stroke: #000000; stroke-width: 0.8"/>
      </g>
     </g>
     <g id="text_13">
      <!-- 0.6 -->
      <g transform="translate(67.096875 81.69213) scale(0.1 -0.1)">
       <use xlink:href="#DejaVuSans-30"/>
       <use xlink:href="#DejaVuSans-2e" transform="translate(63.623047 0)"/>
       <use xlink:href="#DejaVuSans-36" transform="translate(95.410156 0)"/>
      </g>
     </g>
    </g>
    <g id="text_14">
     <!-- Loss -->
     <g transform="translate(61.017187 192.767187) rotate(-90) scale(0.1 -0.1)">
      <defs>
       <path id="DejaVuSans-4c" d="M 628 4666 
L 1259 4666 
L 1259 531 
L 3531 531 
L 3531 0 
L 628 0 
L 628 4666 
z
" transform="scale(0.015625)"/>
       <path id="DejaVuSans-73" d="M 2834 3397 
L 2834 2853 
Q 2591 2978 2328 3040 
Q 2066 3103 1784 3103 
Q 1356 3103 1142 2972 
Q 928 2841 928 2578 
Q 928 2378 1081 2264 
Q 1234 2150 1697 2047 
L 1894 2003 
Q 2506 1872 2764 1633 
Q 3022 1394 3022 966 
Q 3022 478 2636 193 
Q 2250 -91 1575 -91 
Q 1294 -91 989 -36 
Q 684 19 347 128 
L 347 722 
Q 666 556 975 473 
Q 1284 391 1588 391 
Q 1994 391 2212 530 
Q 2431 669 2431 922 
Q 2431 1156 2273 1281 
Q 2116 1406 1581 1522 
L 1381 1569 
Q 847 1681 609 1914 
Q 372 2147 372 2553 
Q 372 3047 722 3315 
Q 1072 3584 1716 3584 
Q 2034 3584 2315 3537 
Q 2597 3491 2834 3397 
z
" transform="scale(0.015625)"/>
      </defs>
      <use xlink:href="#DejaVuSans-4c"/>
      <use xlink:href="#DejaVuSans-6f" transform="translate(53.962891 0)"/>
      <use xlink:href="#DejaVuSans-73" transform="translate(115.144531 0)"/>
      <use xlink:href="#DejaVuSans-73" transform="translate(167.244141 0)"/>
     </g>
    </g>
   </g>
   <g id="line2d_13">
    <path d="M 115.363636 286.243568 
L 117.060201 303.434639 
L 118.756765 304.701329 
L 120.453329 305.559703 
L 122.149894 306.159411 
L 125.543022 306.907779 
L 128.936151 307.216082 
L 137.418972 307.427509 
L 176.439951 307.641077 
L 218.854059 307.671167 
L 339.310125 307.763752 
L 430.924597 307.797466 
L 502.180298 307.79492 
L 559.863484 307.784305 
L 622.636364 307.780949 
L 622.636364 307.780949 
" clip-path="url(#peafcbc4b82)" style="fill: none; stroke: #1f77b4; stroke-width: 1.5; stroke-linecap: square"/>
   </g>
   <g id="line2d_14">
    <path d="M 115.363636 55.8 
L 117.060201 160.58406 
L 118.756765 188.949642 
L 120.453329 188.303532 
L 122.149894 178.650343 
L 123.846458 176.645917 
L 125.543022 175.536393 
L 127.239587 171.73483 
L 128.936151 174.908093 
L 130.632715 172.049759 
L 132.329279 185.379853 
L 134.025844 181.209037 
L 135.722408 188.206269 
L 137.418972 181.750657 
L 139.115537 195.467224 
L 140.812101 195.302254 
L 142.508665 196.282952 
L 144.20523 204.331741 
L 145.901794 200.406725 
L 147.598358 200.187519 
L 149.294922 206.497903 
L 150.991487 202.339602 
L 152.688051 194.14838 
L 154.384615 205.247351 
L 156.08118 196.531534 
L 157.777744 210.157933 
L 159.474308 208.357218 
L 161.170873 195.395807 
L 162.867437 209.270191 
L 164.564001 211.407024 
L 166.260566 213.726468 
L 167.95713 219.412154 
L 169.653694 218.505808 
L 171.350258 209.760749 
L 173.046823 216.839861 
L 174.743387 210.946523 
L 176.439951 219.404071 
L 178.136516 219.001807 
L 179.83308 219.977835 
L 181.529644 220.124461 
L 183.226209 212.736306 
L 184.922773 219.908486 
L 186.619337 227.667058 
L 188.315901 223.375483 
L 190.012466 223.749484 
L 191.70903 220.668314 
L 193.405594 222.504738 
L 195.102159 227.368468 
L 196.798723 224.493207 
L 198.495287 221.044513 
L 200.191852 221.321077 
L 201.888416 223.981103 
L 203.58498 219.366176 
L 205.281545 220.265673 
L 206.978109 218.336541 
L 208.674673 222.28988 
L 210.371237 223.32335 
L 212.067802 214.177386 
L 213.764366 221.685242 
L 215.46093 214.60523 
L 217.157495 216.418172 
L 218.854059 217.371853 
L 220.550623 217.346223 
L 222.247188 221.440893 
L 223.943752 213.94587 
L 225.640316 218.425244 
L 227.336881 218.409797 
L 229.033445 213.236884 
L 230.730009 218.166687 
L 232.426573 216.7549 
L 234.123138 216.580446 
L 235.819702 207.0431 
L 237.516266 222.377502 
L 239.212831 219.413147 
L 240.909395 205.632382 
L 242.605959 209.078706 
L 244.302524 214.65654 
L 245.999088 212.308907 
L 247.695652 211.596179 
L 249.392216 215.386082 
L 251.088781 210.333794 
L 252.785345 214.271731 
L 254.481909 215.805454 
L 256.178474 214.315782 
L 257.875038 216.426072 
L 259.571602 212.248636 
L 261.268167 211.72455 
L 262.964731 215.054963 
L 264.661295 214.451181 
L 266.35786 209.286868 
L 268.054424 216.883584 
L 269.750988 220.216782 
L 271.447552 211.383731 
L 273.144117 221.27613 
L 274.840681 206.578723 
L 276.537245 206.376082 
L 278.23381 215.377931 
L 279.930374 209.362124 
L 281.626938 214.457479 
L 283.323503 213.728384 
L 285.020067 205.564892 
L 286.716631 215.586624 
L 288.413196 213.778951 
L 290.10976 210.846623 
L 291.806324 203.527293 
L 293.502888 216.062033 
L 295.199453 213.342941 
L 296.896017 213.086783 
L 298.592581 216.077947 
L 300.289146 210.763639 
L 301.98571 202.362635 
L 303.682274 216.729152 
L 305.378839 216.739358 
L 308.771967 208.163265 
L 310.468531 212.480254 
L 312.165096 212.414719 
L 313.86166 220.312647 
L 315.558224 217.860167 
L 317.254789 208.9858 
L 318.951353 215.42184 
L 320.647917 207.052525 
L 322.344482 207.93726 
L 325.73761 212.066517 
L 327.434175 214.598801 
L 329.130739 209.146655 
L 332.523867 217.750352 
L 334.220432 217.826275 
L 335.916996 215.465103 
L 337.61356 211.649468 
L 339.310125 218.689889 
L 341.006689 210.498463 
L 342.703253 214.796819 
L 344.399818 205.931576 
L 346.096382 214.416652 
L 347.792946 204.343604 
L 349.48951 199.416833 
L 351.186075 216.488146 
L 352.882639 208.793294 
L 354.579203 219.253655 
L 356.275768 217.806956 
L 357.972332 218.024743 
L 359.668896 213.677619 
L 361.365461 217.559916 
L 363.062025 214.865606 
L 364.758589 212.535459 
L 366.455154 212.643096 
L 368.151718 218.030412 
L 369.848282 214.774754 
L 371.544846 208.98229 
L 373.241411 215.807305 
L 374.937975 212.780718 
L 376.634539 211.064201 
L 378.331104 209.009367 
L 380.027668 218.053152 
L 381.724232 198.175528 
L 383.420797 216.398566 
L 385.117361 199.564287 
L 386.813925 206.014117 
L 388.51049 198.373367 
L 390.207054 204.841307 
L 391.903618 216.219917 
L 393.600182 209.195467 
L 395.296747 216.488041 
L 396.993311 211.990953 
L 398.689875 214.215782 
L 400.38644 216.767767 
L 402.083004 209.485508 
L 403.779568 215.097828 
L 405.476133 208.575739 
L 407.172697 219.923329 
L 408.869261 219.467463 
L 410.565825 213.48861 
L 412.26239 212.511855 
L 413.958954 213.385155 
L 415.655518 219.449555 
L 417.352083 211.705438 
L 419.048647 210.651488 
L 422.441776 206.781731 
L 424.13834 205.242537 
L 425.834904 203.410935 
L 427.531469 212.809777 
L 429.228033 211.580948 
L 430.924597 203.368352 
L 432.621161 198.817883 
L 434.317726 187.539625 
L 436.01429 164.522445 
L 437.710854 185.158073 
L 439.407419 184.109787 
L 441.103983 196.355933 
L 442.800547 200.025277 
L 444.497112 200.256702 
L 446.193676 201.42231 
L 447.89024 200.575543 
L 449.586804 202.192519 
L 451.283369 196.338382 
L 452.979933 189.53871 
L 454.676497 201.465102 
L 456.373062 191.787181 
L 458.069626 201.801308 
L 459.76619 200.124332 
L 461.462755 202.04548 
L 463.159319 198.032696 
L 464.855883 192.480231 
L 466.552448 200.014153 
L 468.249012 192.792738 
L 469.945576 199.016028 
L 471.64214 204.761544 
L 473.338705 200.085449 
L 475.035269 209.955998 
L 476.731833 206.656289 
L 478.428398 206.274112 
L 480.124962 199.011488 
L 481.821526 203.350671 
L 483.518091 203.557951 
L 485.214655 201.213182 
L 486.911219 195.632049 
L 488.607784 209.698921 
L 490.304348 204.668772 
L 492.000912 204.514566 
L 493.697476 208.656548 
L 495.394041 211.474317 
L 497.090605 200.386633 
L 498.787169 198.840305 
L 500.483734 206.999925 
L 502.180298 207.252923 
L 503.876862 209.246006 
L 505.573427 199.469072 
L 507.269991 202.186792 
L 508.966555 203.340517 
L 510.663119 212.232261 
L 512.359684 208.756807 
L 514.056248 196.881046 
L 515.752812 199.123623 
L 517.449377 204.587424 
L 519.145941 193.590058 
L 520.842505 196.093032 
L 522.53907 188.256897 
L 524.235634 196.956719 
L 525.932198 197.511474 
L 527.628763 201.504677 
L 529.325327 196.931086 
L 531.021891 193.153693 
L 532.718455 188.001941 
L 534.41502 204.426293 
L 536.111584 208.469373 
L 537.808148 199.505538 
L 539.504713 197.565964 
L 541.201277 209.736551 
L 542.897841 196.830866 
L 544.594406 194.994743 
L 546.29097 203.369611 
L 547.987534 197.210542 
L 549.684099 210.017916 
L 551.380663 202.461931 
L 553.077227 205.472239 
L 554.773791 201.615832 
L 556.470356 197.045913 
L 558.16692 194.104418 
L 559.863484 202.626975 
L 561.560049 205.66892 
L 563.256613 199.892364 
L 564.953177 201.232226 
L 566.649742 194.253495 
L 570.04287 199.190752 
L 571.739434 195.6152 
L 573.435999 200.75793 
L 575.132563 198.636607 
L 576.829127 202.115355 
L 578.525692 198.192705 
L 580.222256 196.467509 
L 581.91882 206.728543 
L 583.615385 203.979297 
L 585.311949 211.127824 
L 587.008513 202.907479 
L 588.705078 202.423369 
L 590.401642 205.925142 
L 592.098206 206.729069 
L 593.79477 211.308741 
L 595.491335 199.443465 
L 597.187899 205.31717 
L 598.884463 200.300217 
L 600.581028 200.71211 
L 603.974156 200.014983 
L 605.670721 201.515467 
L 607.367285 203.27425 
L 609.063849 207.809604 
L 610.760413 206.030577 
L 612.456978 211.19285 
L 614.153542 195.888162 
L 615.850106 197.631072 
L 617.546671 193.697603 
L 619.243235 193.45996 
L 620.939799 195.668602 
L 622.636364 196.369413 
L 622.636364 196.369413 
" clip-path="url(#peafcbc4b82)" style="fill: none; stroke: #ff7f0e; stroke-width: 1.5; stroke-linecap: square"/>
   </g>
   <g id="patch_3">
    <path d="M 90 320.4 
L 90 43.2 
" style="fill: none; stroke: #000000; stroke-width: 0.8; stroke-linejoin: miter; stroke-linecap: square"/>
   </g>
   <g id="patch_4">
    <path d="M 648 320.4 
L 648 43.2 
" style="fill: none; stroke: #000000; stroke-width: 0.8; stroke-linejoin: miter; stroke-linecap: square"/>
   </g>
   <g id="patch_5">
    <path d="M 90 320.4 
L 648 320.4 
" style="fill: none; stroke: #000000; stroke-width: 0.8; stroke-linejoin: miter; stroke-linecap: square"/>
   </g>
   <g id="patch_6">
    <path d="M 90 43.2 
L 648 43.2 
" style="fill: none; stroke: #000000; stroke-width: 0.8; stroke-linejoin: miter; stroke-linecap: square"/>
   </g>
   <g id="text_15">
    <!-- Training GAN Losses -->
    <g transform="translate(308.295 37.2) scale(0.12 -0.12)">
     <defs>
      <path id="DejaVuSans-54" d="M -19 4666 
L 3928 4666 
L 3928 4134 
L 2272 4134 
L 2272 0 
L 1638 0 
L 1638 4134 
L -19 4134 
L -19 4666 
z
" transform="scale(0.015625)"/>
      <path id="DejaVuSans-72" d="M 2631 2963 
Q 2534 3019 2420 3045 
Q 2306 3072 2169 3072 
Q 1681 3072 1420 2755 
Q 1159 2438 1159 1844 
L 1159 0 
L 581 0 
L 581 3500 
L 1159 3500 
L 1159 2956 
Q 1341 3275 1631 3429 
Q 1922 3584 2338 3584 
Q 2397 3584 2469 3576 
Q 2541 3569 2628 3553 
L 2631 2963 
z
" transform="scale(0.015625)"/>
      <path id="DejaVuSans-61" d="M 2194 1759 
Q 1497 1759 1228 1600 
Q 959 1441 959 1056 
Q 959 750 1161 570 
Q 1363 391 1709 391 
Q 2188 391 2477 730 
Q 2766 1069 2766 1631 
L 2766 1759 
L 2194 1759 
z
M 3341 1997 
L 3341 0 
L 2766 0 
L 2766 531 
Q 2569 213 2275 61 
Q 1981 -91 1556 -91 
Q 1019 -91 701 211 
Q 384 513 384 1019 
Q 384 1609 779 1909 
Q 1175 2209 1959 2209 
L 2766 2209 
L 2766 2266 
Q 2766 2663 2505 2880 
Q 2244 3097 1772 3097 
Q 1472 3097 1187 3025 
Q 903 2953 641 2809 
L 641 3341 
Q 956 3463 1253 3523 
Q 1550 3584 1831 3584 
Q 2591 3584 2966 3190 
Q 3341 2797 3341 1997 
z
" transform="scale(0.015625)"/>
      <path id="DejaVuSans-69" d="M 603 3500 
L 1178 3500 
L 1178 0 
L 603 0 
L 603 3500 
z
M 603 4863 
L 1178 4863 
L 1178 4134 
L 603 4134 
L 603 4863 
z
" transform="scale(0.015625)"/>
      <path id="DejaVuSans-6e" d="M 3513 2113 
L 3513 0 
L 2938 0 
L 2938 2094 
Q 2938 2591 2744 2837 
Q 2550 3084 2163 3084 
Q 1697 3084 1428 2787 
Q 1159 2491 1159 1978 
L 1159 0 
L 581 0 
L 581 3500 
L 1159 3500 
L 1159 2956 
Q 1366 3272 1645 3428 
Q 1925 3584 2291 3584 
Q 2894 3584 3203 3211 
Q 3513 2838 3513 2113 
z
" transform="scale(0.015625)"/>
      <path id="DejaVuSans-67" d="M 2906 1791 
Q 2906 2416 2648 2759 
Q 2391 3103 1925 3103 
Q 1463 3103 1205 2759 
Q 947 2416 947 1791 
Q 947 1169 1205 825 
Q 1463 481 1925 481 
Q 2391 481 2648 825 
Q 2906 1169 2906 1791 
z
M 3481 434 
Q 3481 -459 3084 -895 
Q 2688 -1331 1869 -1331 
Q 1566 -1331 1297 -1286 
Q 1028 -1241 775 -1147 
L 775 -588 
Q 1028 -725 1275 -790 
Q 1522 -856 1778 -856 
Q 2344 -856 2625 -561 
Q 2906 -266 2906 331 
L 2906 616 
Q 2728 306 2450 153 
Q 2172 0 1784 0 
Q 1141 0 747 490 
Q 353 981 353 1791 
Q 353 2603 747 3093 
Q 1141 3584 1784 3584 
Q 2172 3584 2450 3431 
Q 2728 3278 2906 2969 
L 2906 3500 
L 3481 3500 
L 3481 434 
z
" transform="scale(0.015625)"/>
      <path id="DejaVuSans-20" transform="scale(0.015625)"/>
      <path id="DejaVuSans-47" d="M 3809 666 
L 3809 1919 
L 2778 1919 
L 2778 2438 
L 4434 2438 
L 4434 434 
Q 4069 175 3628 42 
Q 3188 -91 2688 -91 
Q 1594 -91 976 548 
Q 359 1188 359 2328 
Q 359 3472 976 4111 
Q 1594 4750 2688 4750 
Q 3144 4750 3555 4637 
Q 3966 4525 4313 4306 
L 4313 3634 
Q 3963 3931 3569 4081 
Q 3175 4231 2741 4231 
Q 1884 4231 1454 3753 
Q 1025 3275 1025 2328 
Q 1025 1384 1454 906 
Q 1884 428 2741 428 
Q 3075 428 3337 486 
Q 3600 544 3809 666 
z
" transform="scale(0.015625)"/>
      <path id="DejaVuSans-41" d="M 2188 4044 
L 1331 1722 
L 3047 1722 
L 2188 4044 
z
M 1831 4666 
L 2547 4666 
L 4325 0 
L 3669 0 
L 3244 1197 
L 1141 1197 
L 716 0 
L 50 0 
L 1831 4666 
z
" transform="scale(0.015625)"/>
      <path id="DejaVuSans-4e" d="M 628 4666 
L 1478 4666 
L 3547 763 
L 3547 4666 
L 4159 4666 
L 4159 0 
L 3309 0 
L 1241 3903 
L 1241 0 
L 628 0 
L 628 4666 
z
" transform="scale(0.015625)"/>
      <path id="DejaVuSans-65" d="M 3597 1894 
L 3597 1613 
L 953 1613 
Q 991 1019 1311 708 
Q 1631 397 2203 397 
Q 2534 397 2845 478 
Q 3156 559 3463 722 
L 3463 178 
Q 3153 47 2828 -22 
Q 2503 -91 2169 -91 
Q 1331 -91 842 396 
Q 353 884 353 1716 
Q 353 2575 817 3079 
Q 1281 3584 2069 3584 
Q 2775 3584 3186 3129 
Q 3597 2675 3597 1894 
z
M 3022 2063 
Q 3016 2534 2758 2815 
Q 2500 3097 2075 3097 
Q 1594 3097 1305 2825 
Q 1016 2553 972 2059 
L 3022 2063 
z
" transform="scale(0.015625)"/>
     </defs>
     <use xlink:href="#DejaVuSans-54"/>
     <use xlink:href="#DejaVuSans-72" transform="translate(46.333984 0)"/>
     <use xlink:href="#DejaVuSans-61" transform="translate(87.447266 0)"/>
     <use xlink:href="#DejaVuSans-69" transform="translate(148.726562 0)"/>
     <use xlink:href="#DejaVuSans-6e" transform="translate(176.509766 0)"/>
     <use xlink:href="#DejaVuSans-69" transform="translate(239.888672 0)"/>
     <use xlink:href="#DejaVuSans-6e" transform="translate(267.671875 0)"/>
     <use xlink:href="#DejaVuSans-67" transform="translate(331.050781 0)"/>
     <use xlink:href="#DejaVuSans-20" transform="translate(394.527344 0)"/>
     <use xlink:href="#DejaVuSans-47" transform="translate(426.314453 0)"/>
     <use xlink:href="#DejaVuSans-41" transform="translate(503.804688 0)"/>
     <use xlink:href="#DejaVuSans-4e" transform="translate(572.212891 0)"/>
     <use xlink:href="#DejaVuSans-20" transform="translate(647.017578 0)"/>
     <use xlink:href="#DejaVuSans-4c" transform="translate(678.804688 0)"/>
     <use xlink:href="#DejaVuSans-6f" transform="translate(732.767578 0)"/>
     <use xlink:href="#DejaVuSans-73" transform="translate(793.949219 0)"/>
     <use xlink:href="#DejaVuSans-73" transform="translate(846.048828 0)"/>
     <use xlink:href="#DejaVuSans-65" transform="translate(898.148438 0)"/>
     <use xlink:href="#DejaVuSans-73" transform="translate(959.671875 0)"/>
    </g>
   </g>
   <g id="legend_1">
    <g id="patch_7">
     <path d="M 491.429688 80.55625 
L 641 80.55625 
Q 643 80.55625 643 78.55625 
L 643 50.2 
Q 643 48.2 641 48.2 
L 491.429688 48.2 
Q 489.429688 48.2 489.429688 50.2 
L 489.429688 78.55625 
Q 489.429688 80.55625 491.429688 80.55625 
z
" style="fill: #ffffff; opacity: 0.8; stroke: #cccccc; stroke-linejoin: miter"/>
    </g>
    <g id="line2d_15">
     <path d="M 493.429688 56.298437 
L 503.429688 56.298437 
L 513.429688 56.298437 
" style="fill: none; stroke: #1f77b4; stroke-width: 1.5; stroke-linecap: square"/>
    </g>
    <g id="text_16">
     <!-- GAN Generate Loss -->
     <g transform="translate(521.429688 59.798437) scale(0.1 -0.1)">
      <defs>
       <path id="DejaVuSans-74" d="M 1172 4494 
L 1172 3500 
L 2356 3500 
L 2356 3053 
L 1172 3053 
L 1172 1153 
Q 1172 725 1289 603 
Q 1406 481 1766 481 
L 2356 481 
L 2356 0 
L 1766 0 
Q 1100 0 847 248 
Q 594 497 594 1153 
L 594 3053 
L 172 3053 
L 172 3500 
L 594 3500 
L 594 4494 
L 1172 4494 
z
" transform="scale(0.015625)"/>
      </defs>
      <use xlink:href="#DejaVuSans-47"/>
      <use xlink:href="#DejaVuSans-41" transform="translate(77.490234 0)"/>
      <use xlink:href="#DejaVuSans-4e" transform="translate(145.898438 0)"/>
      <use xlink:href="#DejaVuSans-20" transform="translate(220.703125 0)"/>
      <use xlink:href="#DejaVuSans-47" transform="translate(252.490234 0)"/>
      <use xlink:href="#DejaVuSans-65" transform="translate(329.980469 0)"/>
      <use xlink:href="#DejaVuSans-6e" transform="translate(391.503906 0)"/>
      <use xlink:href="#DejaVuSans-65" transform="translate(454.882812 0)"/>
      <use xlink:href="#DejaVuSans-72" transform="translate(516.40625 0)"/>
      <use xlink:href="#DejaVuSans-61" transform="translate(557.519531 0)"/>
      <use xlink:href="#DejaVuSans-74" transform="translate(618.798828 0)"/>
      <use xlink:href="#DejaVuSans-65" transform="translate(658.007812 0)"/>
      <use xlink:href="#DejaVuSans-20" transform="translate(719.53125 0)"/>
      <use xlink:href="#DejaVuSans-4c" transform="translate(751.318359 0)"/>
      <use xlink:href="#DejaVuSans-6f" transform="translate(805.28125 0)"/>
      <use xlink:href="#DejaVuSans-73" transform="translate(866.462891 0)"/>
      <use xlink:href="#DejaVuSans-73" transform="translate(918.5625 0)"/>
     </g>
    </g>
    <g id="line2d_16">
     <path d="M 493.429688 70.976562 
L 503.429688 70.976562 
L 513.429688 70.976562 
" style="fill: none; stroke: #ff7f0e; stroke-width: 1.5; stroke-linecap: square"/>
    </g>
    <g id="text_17">
     <!-- GAN Discriminator Loss -->
     <g transform="translate(521.429688 74.476562) scale(0.1 -0.1)">
      <defs>
       <path id="DejaVuSans-44" d="M 1259 4147 
L 1259 519 
L 2022 519 
Q 2988 519 3436 956 
Q 3884 1394 3884 2338 
Q 3884 3275 3436 3711 
Q 2988 4147 2022 4147 
L 1259 4147 
z
M 628 4666 
L 1925 4666 
Q 3281 4666 3915 4102 
Q 4550 3538 4550 2338 
Q 4550 1131 3912 565 
Q 3275 0 1925 0 
L 628 0 
L 628 4666 
z
" transform="scale(0.015625)"/>
       <path id="DejaVuSans-6d" d="M 3328 2828 
Q 3544 3216 3844 3400 
Q 4144 3584 4550 3584 
Q 5097 3584 5394 3201 
Q 5691 2819 5691 2113 
L 5691 0 
L 5113 0 
L 5113 2094 
Q 5113 2597 4934 2840 
Q 4756 3084 4391 3084 
Q 3944 3084 3684 2787 
Q 3425 2491 3425 1978 
L 3425 0 
L 2847 0 
L 2847 2094 
Q 2847 2600 2669 2842 
Q 2491 3084 2119 3084 
Q 1678 3084 1418 2786 
Q 1159 2488 1159 1978 
L 1159 0 
L 581 0 
L 581 3500 
L 1159 3500 
L 1159 2956 
Q 1356 3278 1631 3431 
Q 1906 3584 2284 3584 
Q 2666 3584 2933 3390 
Q 3200 3197 3328 2828 
z
" transform="scale(0.015625)"/>
      </defs>
      <use xlink:href="#DejaVuSans-47"/>
      <use xlink:href="#DejaVuSans-41" transform="translate(77.490234 0)"/>
      <use xlink:href="#DejaVuSans-4e" transform="translate(145.898438 0)"/>
      <use xlink:href="#DejaVuSans-20" transform="translate(220.703125 0)"/>
      <use xlink:href="#DejaVuSans-44" transform="translate(252.490234 0)"/>
      <use xlink:href="#DejaVuSans-69" transform="translate(329.492188 0)"/>
      <use xlink:href="#DejaVuSans-73" transform="translate(357.275391 0)"/>
      <use xlink:href="#DejaVuSans-63" transform="translate(409.375 0)"/>
      <use xlink:href="#DejaVuSans-72" transform="translate(464.355469 0)"/>
      <use xlink:href="#DejaVuSans-69" transform="translate(505.46875 0)"/>
      <use xlink:href="#DejaVuSans-6d" transform="translate(533.251953 0)"/>
      <use xlink:href="#DejaVuSans-69" transform="translate(630.664062 0)"/>
      <use xlink:href="#DejaVuSans-6e" transform="translate(658.447266 0)"/>
      <use xlink:href="#DejaVuSans-61" transform="translate(721.826172 0)"/>
      <use xlink:href="#DejaVuSans-74" transform="translate(783.105469 0)"/>
      <use xlink:href="#DejaVuSans-6f" transform="translate(822.314453 0)"/>
      <use xlink:href="#DejaVuSans-72" transform="translate(883.496094 0)"/>
      <use xlink:href="#DejaVuSans-20" transform="translate(924.609375 0)"/>
      <use xlink:href="#DejaVuSans-4c" transform="translate(956.396484 0)"/>
      <use xlink:href="#DejaVuSans-6f" transform="translate(1010.359375 0)"/>
      <use xlink:href="#DejaVuSans-73" transform="translate(1071.541016 0)"/>
      <use xlink:href="#DejaVuSans-73" transform="translate(1123.640625 0)"/>
     </g>
    </g>
   </g>
  </g>
 </g>
 <defs>
  <clipPath id="peafcbc4b82">
   <rect x="90" y="43.2" width="558" height="277.2"/>
  </clipPath>
 </defs>
</svg>
