<?xml version="1.0" encoding="utf-8" standalone="no"?>
<!DOCTYPE svg PUBLIC "-//W3C//DTD SVG 1.1//EN"
  "http://www.w3.org/Graphics/SVG/1.1/DTD/svg11.dtd">
<svg xmlns:xlink="http://www.w3.org/1999/xlink" width="720pt" height="360pt" viewBox="0 0 720 360" xmlns="http://www.w3.org/2000/svg" version="1.1">
 <metadata>
  <rdf:RDF xmlns:dc="http://purl.org/dc/elements/1.1/" xmlns:cc="http://creativecommons.org/ns#" xmlns:rdf="http://www.w3.org/1999/02/22-rdf-syntax-ns#">
   <cc:Work>
    <dc:type rdf:resource="http://purl.org/dc/dcmitype/StillImage"/>
    <dc:date>2025-11-16T23:30:20.942517</dc:date>
    <dc:format>image/svg+xml</dc:format>
    <dc:creator>
     <cc:Agent>
      <dc:title>Matplotlib v3.10.1, https://matplotlib.org/</dc:title>
     </cc:Agent>
    </dc:creator>
   </cc:Work>
  </rdf:RDF>
 </metadata>
 <defs>
  <style type="text/css">*{stroke-linejoin: round; stroke-linecap: butt}</style>
 </defs>
 <g id="figure_1">
  <g id="patch_1">
   <path d="M 0 360 
L 720 360 
L 720 0 
L 0 0 
z
" style="fill: #ffffff"/>
  </g>
  <g id="axes_1">
   <g id="patch_2">
    <path d="M 90 320.4 
L 648 320.4 
L 648 43.2 
L 90 43.2 
z
" style="fill: #ffffff"/>
   </g>
   <g id="matplotlib.axis_1">
    <g id="xtick_1">
     <g id="line2d_1">
      <defs>
       <path id="m81bdbd4253" d="M 0 0 
L 0 3.5 
" style="stroke: #000000; stroke-width: 0.8"/>
      </defs>
      <g>
       <use xlink:href="#m81bdbd4253" x="115.363636" y="320.4" style="stroke: #000000; stroke-width: 0.8"/>
      </g>
     </g>
     <g id="text_1">
      <!-- 0 -->
      <g transform="translate(112.182386 334.998438) scale(0.1 -0.1)">
       <defs>
        <path id="DejaVuSans-30" d="M 2034 4250 
Q 1547 4250 1301 3770 
Q 1056 3291 1056 2328 
Q 1056 1369 1301 889 
Q 1547 409 2034 409 
Q 2525 409 2770 889 
Q 3016 1369 3016 2328 
Q 3016 3291 2770 3770 
Q 2525 4250 2034 4250 
z
M 2034 4750 
Q 2819 4750 3233 4129 
Q 3647 3509 3647 2328 
Q 3647 1150 3233 529 
Q 2819 -91 2034 -91 
Q 1250 -91 836 529 
Q 422 1150 422 2328 
Q 422 3509 836 4129 
Q 1250 4750 2034 4750 
z
" transform="scale(0.015625)"/>
       </defs>
       <use xlink:href="#DejaVuSans-30"/>
      </g>
     </g>
    </g>
    <g id="xtick_2">
     <g id="line2d_2">
      <g>
       <use xlink:href="#m81bdbd4253" x="217.157495" y="320.4" style="stroke: #000000; stroke-width: 0.8"/>
      </g>
     </g>
     <g id="text_2">
      <!-- 60 -->
      <g transform="translate(210.794995 334.998438) scale(0.1 -0.1)">
       <defs>
        <path id="DejaVuSans-36" d="M 2113 2584 
Q 1688 2584 1439 2293 
Q 1191 2003 1191 1497 
Q 1191 994 1439 701 
Q 1688 409 2113 409 
Q 2538 409 2786 701 
Q 3034 994 3034 1497 
Q 3034 2003 2786 2293 
Q 2538 2584 2113 2584 
z
M 3366 4563 
L 3366 3988 
Q 3128 4100 2886 4159 
Q 2644 4219 2406 4219 
Q 1781 4219 1451 3797 
Q 1122 3375 1075 2522 
Q 1259 2794 1537 2939 
Q 1816 3084 2150 3084 
Q 2853 3084 3261 2657 
Q 3669 2231 3669 1497 
Q 3669 778 3244 343 
Q 2819 -91 2113 -91 
Q 1303 -91 875 529 
Q 447 1150 447 2328 
Q 447 3434 972 4092 
Q 1497 4750 2381 4750 
Q 2619 4750 2861 4703 
Q 3103 4656 3366 4563 
z
" transform="scale(0.015625)"/>
       </defs>
       <use xlink:href="#DejaVuSans-36"/>
       <use xlink:href="#DejaVuSans-30" transform="translate(63.623047 0)"/>
      </g>
     </g>
    </g>
    <g id="xtick_3">
     <g id="line2d_3">
      <g>
       <use xlink:href="#m81bdbd4253" x="318.951353" y="320.4" style="stroke: #000000; stroke-width: 0.8"/>
      </g>
     </g>
     <g id="text_3">
      <!-- 120 -->
      <g transform="translate(309.407603 334.998438) scale(0.1 -0.1)">
       <defs>
        <path id="DejaVuSans-31" d="M 794 531 
L 1825 531 
L 1825 4091 
L 703 3866 
L 703 4441 
L 1819 4666 
L 2450 4666 
L 2450 531 
L 3481 531 
L 3481 0 
L 794 0 
L 794 531 
z
" transform="scale(0.015625)"/>
        <path id="DejaVuSans-32" d="M 1228 531 
L 3431 531 
L 3431 0 
L 469 0 
L 469 531 
Q 828 903 1448 1529 
Q 2069 2156 2228 2338 
Q 2531 2678 2651 2914 
Q 2772 3150 2772 3378 
Q 2772 3750 2511 3984 
Q 2250 4219 1831 4219 
Q 1534 4219 1204 4116 
Q 875 4013 500 3803 
L 500 4441 
Q 881 4594 1212 4672 
Q 1544 4750 1819 4750 
Q 2544 4750 2975 4387 
Q 3406 4025 3406 3419 
Q 3406 3131 3298 2873 
Q 3191 2616 2906 2266 
Q 2828 2175 2409 1742 
Q 1991 1309 1228 531 
z
" transform="scale(0.015625)"/>
       </defs>
       <use xlink:href="#DejaVuSans-31"/>
       <use xlink:href="#DejaVuSans-32" transform="translate(63.623047 0)"/>
       <use xlink:href="#DejaVuSans-30" transform="translate(127.246094 0)"/>
      </g>
     </g>
    </g>
    <g id="xtick_4">
     <g id="line2d_4">
      <g>
       <use xlink:href="#m81bdbd4253" x="420.745211" y="320.4" style="stroke: #000000; stroke-width: 0.8"/>
      </g>
     </g>
     <g id="text_4">
      <!-- 180 -->
      <g transform="translate(411.201461 334.998438) scale(0.1 -0.1)">
       <defs>
        <path id="DejaVuSans-38" d="M 2034 2216 
Q 1584 2216 1326 1975 
Q 1069 1734 1069 1313 
Q 1069 891 1326 650 
Q 1584 409 2034 409 
Q 2484 409 2743 651 
Q 3003 894 3003 1313 
Q 3003 1734 2745 1975 
Q 2488 2216 2034 2216 
z
M 1403 2484 
Q 997 2584 770 2862 
Q 544 3141 544 3541 
Q 544 4100 942 4425 
Q 1341 4750 2034 4750 
Q 2731 4750 3128 4425 
Q 3525 4100 3525 3541 
Q 3525 3141 3298 2862 
Q 3072 2584 2669 2484 
Q 3125 2378 3379 2068 
Q 3634 1759 3634 1313 
Q 3634 634 3220 271 
Q 2806 -91 2034 -91 
Q 1263 -91 848 271 
Q 434 634 434 1313 
Q 434 1759 690 2068 
Q 947 2378 1403 2484 
z
M 1172 3481 
Q 1172 3119 1398 2916 
Q 1625 2713 2034 2713 
Q 2441 2713 2670 2916 
Q 2900 3119 2900 3481 
Q 2900 3844 2670 4047 
Q 2441 4250 2034 4250 
Q 1625 4250 1398 4047 
Q 1172 3844 1172 3481 
z
" transform="scale(0.015625)"/>
       </defs>
       <use xlink:href="#DejaVuSans-31"/>
       <use xlink:href="#DejaVuSans-38" transform="translate(63.623047 0)"/>
       <use xlink:href="#DejaVuSans-30" transform="translate(127.246094 0)"/>
      </g>
     </g>
    </g>
    <g id="xtick_5">
     <g id="line2d_5">
      <g>
       <use xlink:href="#m81bdbd4253" x="522.53907" y="320.4" style="stroke: #000000; stroke-width: 0.8"/>
      </g>
     </g>
     <g id="text_5">
      <!-- 240 -->
      <g transform="translate(512.99532 334.998438) scale(0.1 -0.1)">
       <defs>
        <path id="DejaVuSans-34" d="M 2419 4116 
L 825 1625 
L 2419 1625 
L 2419 4116 
z
M 2253 4666 
L 3047 4666 
L 3047 1625 
L 3713 1625 
L 3713 1100 
L 3047 1100 
L 3047 0 
L 2419 0 
L 2419 1100 
L 313 1100 
L 313 1709 
L 2253 4666 
z
" transform="scale(0.015625)"/>
       </defs>
       <use xlink:href="#DejaVuSans-32"/>
       <use xlink:href="#DejaVuSans-34" transform="translate(63.623047 0)"/>
       <use xlink:href="#DejaVuSans-30" transform="translate(127.246094 0)"/>
      </g>
     </g>
    </g>
    <g id="text_6">
     <!-- Epoch -->
     <g transform="translate(353.689062 348.676562) scale(0.1 -0.1)">
      <defs>
       <path id="DejaVuSans-45" d="M 628 4666 
L 3578 4666 
L 3578 4134 
L 1259 4134 
L 1259 2753 
L 3481 2753 
L 3481 2222 
L 1259 2222 
L 1259 531 
L 3634 531 
L 3634 0 
L 628 0 
L 628 4666 
z
" transform="scale(0.015625)"/>
       <path id="DejaVuSans-70" d="M 1159 525 
L 1159 -1331 
L 581 -1331 
L 581 3500 
L 1159 3500 
L 1159 2969 
Q 1341 3281 1617 3432 
Q 1894 3584 2278 3584 
Q 2916 3584 3314 3078 
Q 3713 2572 3713 1747 
Q 3713 922 3314 415 
Q 2916 -91 2278 -91 
Q 1894 -91 1617 61 
Q 1341 213 1159 525 
z
M 3116 1747 
Q 3116 2381 2855 2742 
Q 2594 3103 2138 3103 
Q 1681 3103 1420 2742 
Q 1159 2381 1159 1747 
Q 1159 1113 1420 752 
Q 1681 391 2138 391 
Q 2594 391 2855 752 
Q 3116 1113 3116 1747 
z
" transform="scale(0.015625)"/>
       <path id="DejaVuSans-6f" d="M 1959 3097 
Q 1497 3097 1228 2736 
Q 959 2375 959 1747 
Q 959 1119 1226 758 
Q 1494 397 1959 397 
Q 2419 397 2687 759 
Q 2956 1122 2956 1747 
Q 2956 2369 2687 2733 
Q 2419 3097 1959 3097 
z
M 1959 3584 
Q 2709 3584 3137 3096 
Q 3566 2609 3566 1747 
Q 3566 888 3137 398 
Q 2709 -91 1959 -91 
Q 1206 -91 779 398 
Q 353 888 353 1747 
Q 353 2609 779 3096 
Q 1206 3584 1959 3584 
z
" transform="scale(0.015625)"/>
       <path id="DejaVuSans-63" d="M 3122 3366 
L 3122 2828 
Q 2878 2963 2633 3030 
Q 2388 3097 2138 3097 
Q 1578 3097 1268 2742 
Q 959 2388 959 1747 
Q 959 1106 1268 751 
Q 1578 397 2138 397 
Q 2388 397 2633 464 
Q 2878 531 3122 666 
L 3122 134 
Q 2881 22 2623 -34 
Q 2366 -91 2075 -91 
Q 1284 -91 818 406 
Q 353 903 353 1747 
Q 353 2603 823 3093 
Q 1294 3584 2113 3584 
Q 2378 3584 2631 3529 
Q 2884 3475 3122 3366 
z
" transform="scale(0.015625)"/>
       <path id="DejaVuSans-68" d="M 3513 2113 
L 3513 0 
L 2938 0 
L 2938 2094 
Q 2938 2591 2744 2837 
Q 2550 3084 2163 3084 
Q 1697 3084 1428 2787 
Q 1159 2491 1159 1978 
L 1159 0 
L 581 0 
L 581 4863 
L 1159 4863 
L 1159 2956 
Q 1366 3272 1645 3428 
Q 1925 3584 2291 3584 
Q 2894 3584 3203 3211 
Q 3513 2838 3513 2113 
z
" transform="scale(0.015625)"/>
      </defs>
      <use xlink:href="#DejaVuSans-45"/>
      <use xlink:href="#DejaVuSans-70" transform="translate(63.183594 0)"/>
      <use xlink:href="#DejaVuSans-6f" transform="translate(126.660156 0)"/>
      <use xlink:href="#DejaVuSans-63" transform="translate(187.841797 0)"/>
      <use xlink:href="#DejaVuSans-68" transform="translate(242.822266 0)"/>
     </g>
    </g>
   </g>
   <g id="matplotlib.axis_2">
    <g id="ytick_1">
     <g id="line2d_6">
      <defs>
       <path id="m9c9c27879e" d="M 0 0 
L -3.5 0 
" style="stroke: #000000; stroke-width: 0.8"/>
      </defs>
      <g>
       <use xlink:href="#m9c9c27879e" x="90" y="293.058179" style="stroke: #000000; stroke-width: 0.8"/>
      </g>
     </g>
     <g id="text_7">
      <!-- 0.20 -->
      <g transform="translate(60.734375 296.857397) scale(0.1 -0.1)">
       <defs>
        <path id="DejaVuSans-2e" d="M 684 794 
L 1344 794 
L 1344 0 
L 684 0 
L 684 794 
z
" transform="scale(0.015625)"/>
       </defs>
       <use xlink:href="#DejaVuSans-30"/>
       <use xlink:href="#DejaVuSans-2e" transform="translate(63.623047 0)"/>
       <use xlink:href="#DejaVuSans-32" transform="translate(95.410156 0)"/>
       <use xlink:href="#DejaVuSans-30" transform="translate(159.033203 0)"/>
      </g>
     </g>
    </g>
    <g id="ytick_2">
     <g id="line2d_7">
      <g>
       <use xlink:href="#m9c9c27879e" x="90" y="257.908978" style="stroke: #000000; stroke-width: 0.8"/>
      </g>
     </g>
     <g id="text_8">
      <!-- 0.25 -->
      <g transform="translate(60.734375 261.708197) scale(0.1 -0.1)">
       <defs>
        <path id="DejaVuSans-35" d="M 691 4666 
L 3169 4666 
L 3169 4134 
L 1269 4134 
L 1269 2991 
Q 1406 3038 1543 3061 
Q 1681 3084 1819 3084 
Q 2600 3084 3056 2656 
Q 3513 2228 3513 1497 
Q 3513 744 3044 326 
Q 2575 -91 1722 -91 
Q 1428 -91 1123 -41 
Q 819 9 494 109 
L 494 744 
Q 775 591 1075 516 
Q 1375 441 1709 441 
Q 2250 441 2565 725 
Q 2881 1009 2881 1497 
Q 2881 1984 2565 2268 
Q 2250 2553 1709 2553 
Q 1456 2553 1204 2497 
Q 953 2441 691 2322 
L 691 4666 
z
" transform="scale(0.015625)"/>
       </defs>
       <use xlink:href="#DejaVuSans-30"/>
       <use xlink:href="#DejaVuSans-2e" transform="translate(63.623047 0)"/>
       <use xlink:href="#DejaVuSans-32" transform="translate(95.410156 0)"/>
       <use xlink:href="#DejaVuSans-35" transform="translate(159.033203 0)"/>
      </g>
     </g>
    </g>
    <g id="ytick_3">
     <g id="line2d_8">
      <g>
       <use xlink:href="#m9c9c27879e" x="90" y="222.759777" style="stroke: #000000; stroke-width: 0.8"/>
      </g>
     </g>
     <g id="text_9">
      <!-- 0.30 -->
      <g transform="translate(60.734375 226.558996) scale(0.1 -0.1)">
       <defs>
        <path id="DejaVuSans-33" d="M 2597 2516 
Q 3050 2419 3304 2112 
Q 3559 1806 3559 1356 
Q 3559 666 3084 287 
Q 2609 -91 1734 -91 
Q 1441 -91 1130 -33 
Q 819 25 488 141 
L 488 750 
Q 750 597 1062 519 
Q 1375 441 1716 441 
Q 2309 441 2620 675 
Q 2931 909 2931 1356 
Q 2931 1769 2642 2001 
Q 2353 2234 1838 2234 
L 1294 2234 
L 1294 2753 
L 1863 2753 
Q 2328 2753 2575 2939 
Q 2822 3125 2822 3475 
Q 2822 3834 2567 4026 
Q 2313 4219 1838 4219 
Q 1578 4219 1281 4162 
Q 984 4106 628 3988 
L 628 4550 
Q 988 4650 1302 4700 
Q 1616 4750 1894 4750 
Q 2613 4750 3031 4423 
Q 3450 4097 3450 3541 
Q 3450 3153 3228 2886 
Q 3006 2619 2597 2516 
z
" transform="scale(0.015625)"/>
       </defs>
       <use xlink:href="#DejaVuSans-30"/>
       <use xlink:href="#DejaVuSans-2e" transform="translate(63.623047 0)"/>
       <use xlink:href="#DejaVuSans-33" transform="translate(95.410156 0)"/>
       <use xlink:href="#DejaVuSans-30" transform="translate(159.033203 0)"/>
      </g>
     </g>
    </g>
    <g id="ytick_4">
     <g id="line2d_9">
      <g>
       <use xlink:href="#m9c9c27879e" x="90" y="187.610576" style="stroke: #000000; stroke-width: 0.8"/>
      </g>
     </g>
     <g id="text_10">
      <!-- 0.35 -->
      <g transform="translate(60.734375 191.409795) scale(0.1 -0.1)">
       <use xlink:href="#DejaVuSans-30"/>
       <use xlink:href="#DejaVuSans-2e" transform="translate(63.623047 0)"/>
       <use xlink:href="#DejaVuSans-33" transform="translate(95.410156 0)"/>
       <use xlink:href="#DejaVuSans-35" transform="translate(159.033203 0)"/>
      </g>
     </g>
    </g>
    <g id="ytick_5">
     <g id="line2d_10">
      <g>
       <use xlink:href="#m9c9c27879e" x="90" y="152.461375" style="stroke: #000000; stroke-width: 0.8"/>
      </g>
     </g>
     <g id="text_11">
      <!-- 0.40 -->
      <g transform="translate(60.734375 156.260594) scale(0.1 -0.1)">
       <use xlink:href="#DejaVuSans-30"/>
       <use xlink:href="#DejaVuSans-2e" transform="translate(63.623047 0)"/>
       <use xlink:href="#DejaVuSans-34" transform="translate(95.410156 0)"/>
       <use xlink:href="#DejaVuSans-30" transform="translate(159.033203 0)"/>
      </g>
     </g>
    </g>
    <g id="ytick_6">
     <g id="line2d_11">
      <g>
       <use xlink:href="#m9c9c27879e" x="90" y="117.312174" style="stroke: #000000; stroke-width: 0.8"/>
      </g>
     </g>
     <g id="text_12">
      <!-- 0.45 -->
      <g transform="translate(60.734375 121.111393) scale(0.1 -0.1)">
       <use xlink:href="#DejaVuSans-30"/>
       <use xlink:href="#DejaVuSans-2e" transform="translate(63.623047 0)"/>
       <use xlink:href="#DejaVuSans-34" transform="translate(95.410156 0)"/>
       <use xlink:href="#DejaVuSans-35" transform="translate(159.033203 0)"/>
      </g>
     </g>
    </g>
    <g id="ytick_7">
     <g id="line2d_12">
      <g>
       <use xlink:href="#m9c9c27879e" x="90" y="82.162973" style="stroke: #000000; stroke-width: 0.8"/>
      </g>
     </g>
     <g id="text_13">
      <!-- 0.50 -->
      <g transform="translate(60.734375 85.962192) scale(0.1 -0.1)">
       <use xlink:href="#DejaVuSans-30"/>
       <use xlink:href="#DejaVuSans-2e" transform="translate(63.623047 0)"/>
       <use xlink:href="#DejaVuSans-35" transform="translate(95.410156 0)"/>
       <use xlink:href="#DejaVuSans-30" transform="translate(159.033203 0)"/>
      </g>
     </g>
    </g>
    <g id="ytick_8">
     <g id="line2d_13">
      <g>
       <use xlink:href="#m9c9c27879e" x="90" y="47.013773" style="stroke: #000000; stroke-width: 0.8"/>
      </g>
     </g>
     <g id="text_14">
      <!-- 0.55 -->
      <g transform="translate(60.734375 50.812991) scale(0.1 -0.1)">
       <use xlink:href="#DejaVuSans-30"/>
       <use xlink:href="#DejaVuSans-2e" transform="translate(63.623047 0)"/>
       <use xlink:href="#DejaVuSans-35" transform="translate(95.410156 0)"/>
       <use xlink:href="#DejaVuSans-35" transform="translate(159.033203 0)"/>
      </g>
     </g>
    </g>
    <g id="text_15">
     <!-- Estimation Loss -->
     <g transform="translate(54.654687 220.98125) rotate(-90) scale(0.1 -0.1)">
      <defs>
       <path id="DejaVuSans-73" d="M 2834 3397 
L 2834 2853 
Q 2591 2978 2328 3040 
Q 2066 3103 1784 3103 
Q 1356 3103 1142 2972 
Q 928 2841 928 2578 
Q 928 2378 1081 2264 
Q 1234 2150 1697 2047 
L 1894 2003 
Q 2506 1872 2764 1633 
Q 3022 1394 3022 966 
Q 3022 478 2636 193 
Q 2250 -91 1575 -91 
Q 1294 -91 989 -36 
Q 684 19 347 128 
L 347 722 
Q 666 556 975 473 
Q 1284 391 1588 391 
Q 1994 391 2212 530 
Q 2431 669 2431 922 
Q 2431 1156 2273 1281 
Q 2116 1406 1581 1522 
L 1381 1569 
Q 847 1681 609 1914 
Q 372 2147 372 2553 
Q 372 3047 722 3315 
Q 1072 3584 1716 3584 
Q 2034 3584 2315 3537 
Q 2597 3491 2834 3397 
z
" transform="scale(0.015625)"/>
       <path id="DejaVuSans-74" d="M 1172 4494 
L 1172 3500 
L 2356 3500 
L 2356 3053 
L 1172 3053 
L 1172 1153 
Q 1172 725 1289 603 
Q 1406 481 1766 481 
L 2356 481 
L 2356 0 
L 1766 0 
Q 1100 0 847 248 
Q 594 497 594 1153 
L 594 3053 
L 172 3053 
L 172 3500 
L 594 3500 
L 594 4494 
L 1172 4494 
z
" transform="scale(0.015625)"/>
       <path id="DejaVuSans-69" d="M 603 3500 
L 1178 3500 
L 1178 0 
L 603 0 
L 603 3500 
z
M 603 4863 
L 1178 4863 
L 1178 4134 
L 603 4134 
L 603 4863 
z
" transform="scale(0.015625)"/>
       <path id="DejaVuSans-6d" d="M 3328 2828 
Q 3544 3216 3844 3400 
Q 4144 3584 4550 3584 
Q 5097 3584 5394 3201 
Q 5691 2819 5691 2113 
L 5691 0 
L 5113 0 
L 5113 2094 
Q 5113 2597 4934 2840 
Q 4756 3084 4391 3084 
Q 3944 3084 3684 2787 
Q 3425 2491 3425 1978 
L 3425 0 
L 2847 0 
L 2847 2094 
Q 2847 2600 2669 2842 
Q 2491 3084 2119 3084 
Q 1678 3084 1418 2786 
Q 1159 2488 1159 1978 
L 1159 0 
L 581 0 
L 581 3500 
L 1159 3500 
L 1159 2956 
Q 1356 3278 1631 3431 
Q 1906 3584 2284 3584 
Q 2666 3584 2933 3390 
Q 3200 3197 3328 2828 
z
" transform="scale(0.015625)"/>
       <path id="DejaVuSans-61" d="M 2194 1759 
Q 1497 1759 1228 1600 
Q 959 1441 959 1056 
Q 959 750 1161 570 
Q 1363 391 1709 391 
Q 2188 391 2477 730 
Q 2766 1069 2766 1631 
L 2766 1759 
L 2194 1759 
z
M 3341 1997 
L 3341 0 
L 2766 0 
L 2766 531 
Q 2569 213 2275 61 
Q 1981 -91 1556 -91 
Q 1019 -91 701 211 
Q 384 513 384 1019 
Q 384 1609 779 1909 
Q 1175 2209 1959 2209 
L 2766 2209 
L 2766 2266 
Q 2766 2663 2505 2880 
Q 2244 3097 1772 3097 
Q 1472 3097 1187 3025 
Q 903 2953 641 2809 
L 641 3341 
Q 956 3463 1253 3523 
Q 1550 3584 1831 3584 
Q 2591 3584 2966 3190 
Q 3341 2797 3341 1997 
z
" transform="scale(0.015625)"/>
       <path id="DejaVuSans-6e" d="M 3513 2113 
L 3513 0 
L 2938 0 
L 2938 2094 
Q 2938 2591 2744 2837 
Q 2550 3084 2163 3084 
Q 1697 3084 1428 2787 
Q 1159 2491 1159 1978 
L 1159 0 
L 581 0 
L 581 3500 
L 1159 3500 
L 1159 2956 
Q 1366 3272 1645 3428 
Q 1925 3584 2291 3584 
Q 2894 3584 3203 3211 
Q 3513 2838 3513 2113 
z
" transform="scale(0.015625)"/>
       <path id="DejaVuSans-20" transform="scale(0.015625)"/>
       <path id="DejaVuSans-4c" d="M 628 4666 
L 1259 4666 
L 1259 531 
L 3531 531 
L 3531 0 
L 628 0 
L 628 4666 
z
" transform="scale(0.015625)"/>
      </defs>
      <use xlink:href="#DejaVuSans-45"/>
      <use xlink:href="#DejaVuSans-73" transform="translate(63.183594 0)"/>
      <use xlink:href="#DejaVuSans-74" transform="translate(115.283203 0)"/>
      <use xlink:href="#DejaVuSans-69" transform="translate(154.492188 0)"/>
      <use xlink:href="#DejaVuSans-6d" transform="translate(182.275391 0)"/>
      <use xlink:href="#DejaVuSans-61" transform="translate(279.6875 0)"/>
      <use xlink:href="#DejaVuSans-74" transform="translate(340.966797 0)"/>
      <use xlink:href="#DejaVuSans-69" transform="translate(380.175781 0)"/>
      <use xlink:href="#DejaVuSans-6f" transform="translate(407.958984 0)"/>
      <use xlink:href="#DejaVuSans-6e" transform="translate(469.140625 0)"/>
      <use xlink:href="#DejaVuSans-20" transform="translate(532.519531 0)"/>
      <use xlink:href="#DejaVuSans-4c" transform="translate(564.306641 0)"/>
      <use xlink:href="#DejaVuSans-6f" transform="translate(618.269531 0)"/>
      <use xlink:href="#DejaVuSans-73" transform="translate(679.451172 0)"/>
      <use xlink:href="#DejaVuSans-73" transform="translate(731.550781 0)"/>
     </g>
    </g>
   </g>
   <g id="line2d_14">
    <path d="M 115.363636 55.8 
L 117.060201 235.464875 
L 118.756765 258.798988 
L 120.453329 269.57687 
L 122.149894 275.736835 
L 123.846458 279.657112 
L 125.543022 282.549815 
L 127.239587 284.850484 
L 128.936151 286.718114 
L 130.632715 288.244005 
L 132.329279 289.485113 
L 134.025844 290.585803 
L 137.418972 292.307471 
L 142.508665 294.286885 
L 147.598358 295.741787 
L 149.294922 296.144475 
L 150.991487 296.430279 
L 154.384615 297.214264 
L 161.170873 298.424962 
L 169.653694 299.488814 
L 173.046823 299.788838 
L 179.83308 300.374411 
L 183.226209 300.544672 
L 191.70903 301.056071 
L 195.102159 301.205487 
L 203.58498 301.59032 
L 220.550623 302.087627 
L 222.247188 302.197211 
L 225.640316 302.268625 
L 279.930374 303.227524 
L 288.413196 303.307263 
L 300.289146 303.489389 
L 305.378839 303.537385 
L 313.86166 303.605253 
L 395.296747 304.161163 
L 398.689875 304.145237 
L 422.441776 304.275916 
L 425.834904 304.281757 
L 466.552448 304.430231 
L 488.607784 304.502237 
L 507.269991 304.566873 
L 515.752812 304.598561 
L 532.718455 304.683926 
L 570.04287 304.762693 
L 590.401642 304.901238 
L 622.636364 305.026265 
L 622.636364 305.026265 
" clip-path="url(#pc67892be1d)" style="fill: none; stroke: #1f77b4; stroke-width: 1.5; stroke-linecap: square"/>
   </g>
   <g id="line2d_15">
    <path d="M 115.363636 144.396497 
L 117.060201 230.096823 
L 118.756765 244.331629 
L 120.453329 253.888221 
L 122.149894 258.472676 
L 123.846458 261.370825 
L 125.543022 262.293884 
L 127.239587 263.44329 
L 128.936151 264.288215 
L 130.632715 265.324905 
L 132.329279 266.222144 
L 135.722408 266.861771 
L 139.115537 268.170272 
L 140.812101 267.917501 
L 142.508665 269.092423 
L 144.20523 268.618876 
L 145.901794 268.38267 
L 147.598358 268.815044 
L 149.294922 267.7138 
L 150.991487 268.346045 
L 152.688051 269.519729 
L 154.384615 268.558258 
L 156.08118 268.38339 
L 157.777744 269.455491 
L 159.474308 269.761473 
L 161.170873 269.860455 
L 162.867437 269.097279 
L 164.564001 269.673363 
L 167.95713 268.770692 
L 169.653694 268.244508 
L 171.350258 268.678412 
L 174.743387 269.255429 
L 176.439951 269.02024 
L 178.136516 269.045941 
L 179.83308 269.620711 
L 181.529644 268.670998 
L 183.226209 268.902577 
L 184.922773 267.986099 
L 186.619337 267.850406 
L 188.315901 268.622288 
L 190.012466 268.254901 
L 191.70903 268.14923 
L 193.405594 268.429608 
L 195.102159 269.509194 
L 196.798723 267.819195 
L 198.495287 269.413969 
L 200.191852 269.305002 
L 201.888416 268.448884 
L 203.58498 269.115514 
L 205.281545 267.900827 
L 206.978109 269.579824 
L 210.371237 269.814111 
L 212.067802 267.932942 
L 213.764366 269.557444 
L 215.46093 268.52986 
L 217.157495 268.785805 
L 218.854059 268.789137 
L 220.550623 267.973201 
L 222.247188 266.958049 
L 223.943752 268.994059 
L 225.640316 269.107485 
L 227.336881 268.014101 
L 229.033445 269.310767 
L 230.730009 267.18269 
L 232.426573 270.751476 
L 234.123138 269.761698 
L 235.819702 269.122317 
L 237.516266 269.316825 
L 239.212831 268.421405 
L 240.909395 270.277769 
L 242.605959 269.167733 
L 244.302524 269.584496 
L 245.999088 269.056086 
L 247.695652 270.699976 
L 249.392216 270.802295 
L 251.088781 268.096165 
L 252.785345 270.107793 
L 254.481909 269.246047 
L 256.178474 268.816166 
L 257.875038 271.2476 
L 259.571602 269.386635 
L 261.268167 269.412708 
L 262.964731 268.590181 
L 264.661295 271.898762 
L 266.35786 269.376353 
L 268.054424 269.171097 
L 269.750988 272.273614 
L 271.447552 270.157276 
L 273.144117 270.841739 
L 274.840681 270.709588 
L 276.537245 270.460576 
L 278.23381 270.377755 
L 279.930374 268.525706 
L 281.626938 271.257805 
L 285.020067 269.37919 
L 286.716631 269.319929 
L 288.413196 268.065432 
L 290.10976 271.904716 
L 291.806324 268.85817 
L 293.502888 267.806849 
L 295.199453 271.479307 
L 296.896017 267.886562 
L 298.592581 270.424265 
L 300.289146 269.543688 
L 303.682274 270.959596 
L 305.378839 268.81039 
L 307.075403 270.448684 
L 308.771967 269.013601 
L 310.468531 268.523588 
L 312.165096 271.170903 
L 313.86166 269.417669 
L 315.558224 269.474614 
L 317.254789 270.042738 
L 318.951353 269.771911 
L 320.647917 271.078156 
L 322.344482 270.44273 
L 324.041046 268.563891 
L 325.73761 270.622432 
L 327.434175 269.70281 
L 329.130739 269.934162 
L 330.827303 271.728706 
L 332.523867 270.131222 
L 334.220432 269.845694 
L 335.916996 269.939332 
L 337.61356 269.415563 
L 339.310125 270.739219 
L 341.006689 271.398749 
L 342.703253 268.852087 
L 344.399818 268.215587 
L 346.096382 271.661253 
L 347.792946 270.000196 
L 349.48951 270.827157 
L 351.186075 268.765651 
L 352.882639 270.594637 
L 354.579203 268.297146 
L 356.275768 271.883668 
L 357.972332 267.919691 
L 359.668896 269.158996 
L 361.365461 269.652615 
L 363.062025 268.831271 
L 364.758589 270.114333 
L 366.455154 270.47478 
L 368.151718 270.659497 
L 369.848282 268.389096 
L 371.544846 270.62308 
L 373.241411 268.007869 
L 374.937975 269.89215 
L 376.634539 268.833765 
L 378.331104 270.183926 
L 380.027668 270.386376 
L 381.724232 269.160376 
L 383.420797 267.243752 
L 385.117361 269.073986 
L 386.813925 270.039548 
L 388.51049 268.523236 
L 390.207054 269.060633 
L 391.903618 269.15945 
L 393.600182 270.183828 
L 395.296747 267.03118 
L 396.993311 268.315625 
L 398.689875 271.442238 
L 400.38644 269.652048 
L 403.779568 269.28133 
L 405.476133 268.09573 
L 407.172697 269.363807 
L 408.869261 269.089197 
L 412.26239 266.604094 
L 413.958954 267.44387 
L 415.655518 268.64284 
L 417.352083 269.166499 
L 419.048647 269.406394 
L 420.745211 268.292647 
L 422.441776 268.705521 
L 424.13834 267.714427 
L 425.834904 270.464176 
L 427.531469 266.901347 
L 429.228033 268.235488 
L 432.621161 267.028596 
L 434.317726 267.25161 
L 436.01429 268.966579 
L 437.710854 269.456068 
L 439.407419 266.949784 
L 441.103983 269.4885 
L 442.800547 267.250447 
L 444.497112 265.373666 
L 446.193676 269.112778 
L 447.89024 267.510528 
L 451.283369 268.201898 
L 452.979933 266.691494 
L 454.676497 266.860438 
L 456.373062 268.551901 
L 458.069626 267.840797 
L 459.76619 266.114711 
L 461.462755 266.853311 
L 463.159319 266.871908 
L 464.855883 267.850254 
L 466.552448 266.883727 
L 468.249012 268.040985 
L 469.945576 268.17421 
L 471.64214 267.137324 
L 473.338705 267.886757 
L 475.035269 266.387336 
L 476.731833 269.128668 
L 478.428398 265.454195 
L 480.124962 266.843655 
L 481.821526 266.313516 
L 483.518091 266.071912 
L 485.214655 265.520793 
L 486.911219 266.548947 
L 488.607784 268.870575 
L 490.304348 266.734443 
L 492.000912 265.589213 
L 493.697476 265.533849 
L 495.394041 267.282957 
L 497.090605 265.477219 
L 498.787169 266.521143 
L 500.483734 266.925652 
L 502.180298 264.724545 
L 503.876862 265.68594 
L 505.573427 265.282443 
L 507.269991 265.296734 
L 508.966555 267.995682 
L 510.663119 266.478633 
L 512.359684 264.149235 
L 514.056248 266.161386 
L 515.752812 265.751818 
L 517.449377 265.898075 
L 519.145941 267.186612 
L 520.842505 267.667732 
L 522.53907 267.36062 
L 524.235634 263.324222 
L 525.932198 266.812364 
L 527.628763 264.39303 
L 529.325327 266.048739 
L 531.021891 268.074351 
L 532.718455 267.742353 
L 534.41502 264.971197 
L 536.111584 265.877635 
L 537.808148 266.029324 
L 539.504713 268.378491 
L 541.201277 266.134034 
L 542.897841 264.978609 
L 544.594406 265.283383 
L 546.29097 264.914544 
L 547.987534 268.282381 
L 549.684099 267.633246 
L 551.380663 266.1944 
L 553.077227 268.57257 
L 554.773791 266.491405 
L 556.470356 267.632927 
L 558.16692 266.154797 
L 559.863484 268.689496 
L 561.560049 267.422881 
L 563.256613 263.244136 
L 564.953177 267.34673 
L 566.649742 269.605014 
L 568.346306 266.56658 
L 570.04287 268.133154 
L 571.739434 266.265768 
L 573.435999 265.174836 
L 575.132563 266.431831 
L 576.829127 265.071699 
L 578.525692 266.326534 
L 580.222256 266.505945 
L 581.91882 263.280956 
L 583.615385 265.354021 
L 585.311949 264.261583 
L 587.008513 265.418955 
L 588.705078 264.186102 
L 590.401642 264.823983 
L 592.098206 265.585251 
L 593.79477 266.122344 
L 595.491335 265.889875 
L 597.187899 267.399799 
L 598.884463 265.340524 
L 600.581028 264.373838 
L 602.277592 266.544419 
L 603.974156 264.088359 
L 605.670721 263.954749 
L 607.367285 263.441939 
L 609.063849 266.692497 
L 610.760413 266.016012 
L 612.456978 266.370444 
L 614.153542 267.190714 
L 615.850106 266.231311 
L 617.546671 266.515202 
L 619.243235 264.482551 
L 620.939799 264.833612 
L 622.636364 264.043628 
L 622.636364 264.043628 
" clip-path="url(#pc67892be1d)" style="fill: none; stroke: #ff7f0e; stroke-width: 1.5; stroke-linecap: square"/>
   </g>
   <g id="line2d_16">
    <path d="M 115.363636 227.350831 
L 117.060201 260.399902 
L 118.756765 273.950974 
L 120.453329 280.92063 
L 122.149894 285.170708 
L 125.543022 290.02489 
L 127.239587 291.300746 
L 128.936151 293.366919 
L 130.632715 294.681862 
L 132.329279 295.337182 
L 135.722408 296.472984 
L 137.418972 297.396385 
L 139.115537 297.690967 
L 144.20523 299.472136 
L 147.598358 300.02267 
L 149.294922 299.059052 
L 152.688051 300.845727 
L 154.384615 301.228335 
L 156.08118 301.779679 
L 157.777744 301.618259 
L 161.170873 302.53144 
L 162.867437 302.133617 
L 164.564001 302.735167 
L 166.260566 302.765423 
L 167.95713 302.395637 
L 169.653694 303.11264 
L 171.350258 303.214332 
L 174.743387 303.738422 
L 176.439951 303.386549 
L 178.136516 303.560722 
L 179.83308 303.97198 
L 181.529644 304.032361 
L 183.226209 303.625288 
L 184.922773 304.439261 
L 186.619337 303.871473 
L 188.315901 303.857198 
L 190.012466 304.20382 
L 191.70903 304.700111 
L 193.405594 303.87171 
L 195.102159 304.250964 
L 196.798723 304.222983 
L 198.495287 304.709353 
L 200.191852 303.868623 
L 201.888416 304.944835 
L 203.58498 304.914558 
L 205.281545 304.454981 
L 206.978109 304.935721 
L 208.674673 304.211922 
L 210.371237 305.194426 
L 213.764366 304.864091 
L 215.46093 304.990758 
L 217.157495 305.385684 
L 218.854059 304.809406 
L 220.550623 305.085494 
L 222.247188 305.223479 
L 223.943752 305.0963 
L 225.640316 305.612891 
L 227.336881 304.738711 
L 229.033445 305.164303 
L 230.730009 304.808696 
L 232.426573 305.611313 
L 234.123138 305.47781 
L 235.819702 305.669061 
L 237.516266 305.498531 
L 244.302524 305.951536 
L 245.999088 305.750011 
L 247.695652 305.114472 
L 249.392216 305.625797 
L 252.785345 305.781064 
L 254.481909 305.614374 
L 256.178474 305.236231 
L 257.875038 306.310248 
L 259.571602 306.027408 
L 261.268167 306.228989 
L 262.964731 305.689109 
L 264.661295 306.306927 
L 266.35786 306.170431 
L 268.054424 305.587795 
L 269.750988 306.102719 
L 271.447552 306.499402 
L 273.144117 305.838425 
L 274.840681 306.304299 
L 276.537245 306.405867 
L 278.23381 306.360835 
L 279.930374 305.944842 
L 281.626938 306.393 
L 283.323503 306.285281 
L 285.020067 306.43731 
L 286.716631 306.299589 
L 288.413196 305.535816 
L 290.10976 306.626861 
L 291.806324 306.126301 
L 293.502888 306.103248 
L 295.199453 306.713752 
L 296.896017 306.152304 
L 298.592581 306.145071 
L 300.289146 306.360854 
L 303.682274 306.447209 
L 305.378839 306.19232 
L 307.075403 306.109832 
L 308.771967 306.695002 
L 310.468531 306.059651 
L 312.165096 306.625948 
L 313.86166 306.457303 
L 317.254789 306.709536 
L 318.951353 306.110192 
L 320.647917 306.645956 
L 324.041046 306.253776 
L 325.73761 306.58089 
L 327.434175 306.712934 
L 329.130739 306.40221 
L 330.827303 306.559322 
L 332.523867 306.860646 
L 337.61356 306.18747 
L 341.006689 306.776736 
L 342.703253 306.190966 
L 344.399818 306.008112 
L 346.096382 306.751259 
L 347.792946 306.329441 
L 349.48951 306.612082 
L 351.186075 306.764686 
L 352.882639 306.757291 
L 354.579203 306.339525 
L 356.275768 306.344972 
L 357.972332 306.535183 
L 359.668896 306.871429 
L 363.062025 306.740153 
L 364.758589 306.50074 
L 366.455154 306.631669 
L 368.151718 306.923812 
L 369.848282 306.176213 
L 373.241411 306.94906 
L 374.937975 306.926882 
L 376.634539 306.445869 
L 378.331104 306.794414 
L 380.027668 306.94621 
L 381.724232 306.863345 
L 383.420797 306.946308 
L 385.117361 306.809283 
L 386.813925 306.437448 
L 388.51049 306.796195 
L 390.207054 306.8875 
L 391.903618 306.80941 
L 393.600182 307.053564 
L 395.296747 306.792629 
L 396.993311 306.406554 
L 398.689875 306.991532 
L 403.779568 306.833178 
L 405.476133 306.632215 
L 407.172697 306.892452 
L 410.565825 306.870724 
L 415.655518 306.990643 
L 417.352083 306.935864 
L 419.048647 307.140973 
L 420.745211 306.903091 
L 422.441776 307.011597 
L 424.13834 306.306682 
L 425.834904 307.111626 
L 429.228033 306.995614 
L 430.924597 306.609947 
L 432.621161 306.782128 
L 434.317726 306.637033 
L 436.01429 306.946146 
L 437.710854 307.029691 
L 439.407419 306.653765 
L 441.103983 306.922901 
L 442.800547 306.621047 
L 444.497112 306.913148 
L 446.193676 307.059814 
L 447.89024 307.023551 
L 449.586804 307.251564 
L 451.283369 306.951901 
L 452.979933 307.209377 
L 454.676497 307.329199 
L 456.373062 306.992654 
L 458.069626 307.163896 
L 459.76619 307.137398 
L 461.462755 306.937102 
L 464.855883 307.226561 
L 466.552448 307.161273 
L 468.249012 306.938561 
L 469.945576 307.007615 
L 471.64214 306.820701 
L 473.338705 307.35091 
L 475.035269 307.065602 
L 476.731833 307.260378 
L 480.124962 307.049707 
L 481.821526 306.703627 
L 483.518091 306.795985 
L 485.214655 307.253041 
L 486.911219 307.327289 
L 488.607784 306.948657 
L 492.000912 307.243178 
L 493.697476 307.131245 
L 495.394041 307.296277 
L 497.090605 306.918863 
L 498.787169 307.290544 
L 502.180298 306.942874 
L 503.876862 307.218944 
L 505.573427 307.126967 
L 507.269991 306.897959 
L 508.966555 307.370294 
L 515.752812 307.254535 
L 517.449377 307.077854 
L 520.842505 307.479175 
L 522.53907 307.112254 
L 524.235634 306.994076 
L 525.932198 307.425516 
L 529.325327 307.148318 
L 531.021891 307.437327 
L 537.808148 307.163744 
L 539.504713 307.344488 
L 546.29097 307.379911 
L 547.987534 306.961547 
L 549.684099 307.366204 
L 551.380663 306.908023 
L 553.077227 307.501637 
L 556.470356 307.285877 
L 558.16692 307.162539 
L 559.863484 307.428227 
L 563.256613 307.344251 
L 564.953177 307.144869 
L 566.649742 307.386382 
L 568.346306 307.179462 
L 570.04287 307.315458 
L 571.739434 307.26675 
L 573.435999 307.496114 
L 575.132563 307.340437 
L 576.829127 307.473466 
L 578.525692 307.239596 
L 580.222256 307.456507 
L 581.91882 307.133399 
L 583.615385 307.53184 
L 587.008513 307.303284 
L 588.705078 307.550082 
L 590.401642 307.388847 
L 593.79477 307.537855 
L 595.491335 307.386862 
L 597.187899 307.602265 
L 600.581028 307.584157 
L 602.277592 307.500365 
L 603.974156 307.672557 
L 605.670721 307.400085 
L 607.367285 307.448557 
L 609.063849 307.701879 
L 610.760413 307.495826 
L 612.456978 307.552786 
L 614.153542 307.346246 
L 615.850106 307.70306 
L 617.546671 307.668817 
L 619.243235 307.444149 
L 620.939799 307.747524 
L 622.636364 307.8 
L 622.636364 307.8 
" clip-path="url(#pc67892be1d)" style="fill: none; stroke: #2ca02c; stroke-width: 1.5; stroke-linecap: square"/>
   </g>
   <g id="line2d_17">
    <path d="M 115.363636 223.577061 
L 117.060201 237.732379 
L 118.756765 248.537871 
L 120.453329 256.552018 
L 122.149894 259.861433 
L 123.846458 261.983231 
L 125.543022 262.727407 
L 127.239587 264.934055 
L 128.936151 265.230953 
L 130.632715 268.766919 
L 132.329279 264.520402 
L 134.025844 266.133794 
L 135.722408 265.062708 
L 137.418972 268.710933 
L 139.115537 269.342754 
L 140.812101 271.713428 
L 142.508665 267.086863 
L 144.20523 268.799131 
L 145.901794 271.622434 
L 147.598358 269.748393 
L 149.294922 263.380134 
L 150.991487 268.940706 
L 152.688051 266.683421 
L 154.384615 266.685857 
L 156.08118 269.450128 
L 157.777744 269.14167 
L 159.474308 270.529682 
L 161.170873 267.300501 
L 162.867437 270.79848 
L 164.564001 269.515534 
L 166.260566 269.548288 
L 167.95713 269.079761 
L 169.653694 268.015558 
L 171.350258 272.725212 
L 173.046823 268.28572 
L 174.743387 272.852682 
L 176.439951 271.353176 
L 178.136516 270.725261 
L 179.83308 268.799299 
L 181.529644 266.20613 
L 183.226209 272.088963 
L 184.922773 265.444156 
L 186.619337 269.892423 
L 188.315901 264.867959 
L 190.012466 267.853183 
L 191.70903 265.728913 
L 193.405594 273.88418 
L 195.102159 267.241689 
L 196.798723 272.96506 
L 198.495287 264.461932 
L 200.191852 270.864582 
L 201.888416 268.198117 
L 203.58498 265.27662 
L 205.281545 268.470681 
L 206.978109 270.502278 
L 208.674673 273.78531 
L 210.371237 271.34216 
L 212.067802 263.716005 
L 213.764366 273.831824 
L 215.46093 264.887351 
L 217.157495 270.74203 
L 218.854059 268.950718 
L 220.550623 269.113828 
L 222.247188 272.858322 
L 223.943752 263.791785 
L 225.640316 270.805575 
L 227.336881 270.542831 
L 229.033445 265.043372 
L 230.730009 274.269439 
L 232.426573 266.289259 
L 234.123138 270.270418 
L 235.819702 261.501911 
L 237.516266 269.453054 
L 239.212831 265.835696 
L 240.909395 270.463101 
L 242.605959 270.96056 
L 244.302524 269.322519 
L 245.999088 265.652593 
L 247.695652 277.758654 
L 249.392216 263.750917 
L 251.088781 273.971944 
L 252.785345 256.124882 
L 254.481909 266.752193 
L 256.178474 273.236329 
L 257.875038 268.363707 
L 259.571602 269.513631 
L 261.268167 270.835757 
L 262.964731 277.842606 
L 264.661295 263.881291 
L 266.35786 270.642384 
L 268.054424 278.573266 
L 269.750988 266.913137 
L 271.447552 271.576977 
L 273.144117 277.896622 
L 274.840681 273.052178 
L 276.537245 270.198388 
L 278.23381 267.778667 
L 279.930374 277.231778 
L 281.626938 273.592243 
L 283.323503 269.675639 
L 285.020067 267.626157 
L 286.716631 266.578456 
L 288.413196 276.687308 
L 290.10976 271.754734 
L 291.806324 261.514971 
L 293.502888 277.356476 
L 295.199453 267.973392 
L 296.896017 271.334516 
L 298.592581 264.458293 
L 300.289146 267.310477 
L 301.98571 276.056426 
L 303.682274 274.049973 
L 305.378839 261.526063 
L 307.075403 271.297463 
L 308.771967 265.272673 
L 310.468531 277.674165 
L 312.165096 264.840118 
L 313.86166 268.13073 
L 315.558224 277.192873 
L 317.254789 273.309488 
L 318.951353 277.75258 
L 320.647917 269.017054 
L 322.344482 263.114592 
L 324.041046 279.305257 
L 325.73761 266.339081 
L 327.434175 267.81678 
L 329.130739 278.838194 
L 330.827303 264.90084 
L 332.523867 271.686453 
L 334.220432 262.877095 
L 335.916996 262.564396 
L 337.61356 281.001295 
L 339.310125 276.932271 
L 341.006689 266.469423 
L 342.703253 265.012408 
L 344.399818 277.021166 
L 346.096382 266.248038 
L 347.792946 276.866075 
L 349.48951 271.694918 
L 351.186075 270.367822 
L 352.882639 270.248947 
L 354.579203 278.616052 
L 356.275768 266.968906 
L 357.972332 261.541439 
L 359.668896 273.589708 
L 361.365461 265.097985 
L 363.062025 274.234656 
L 364.758589 267.04158 
L 366.455154 277.483029 
L 368.151718 266.238471 
L 369.848282 277.893269 
L 371.544846 265.406648 
L 373.241411 269.036817 
L 374.937975 269.85526 
L 376.634539 278.277629 
L 378.331104 264.540078 
L 380.027668 273.281793 
L 381.724232 271.668056 
L 383.420797 264.877291 
L 385.117361 271.582872 
L 386.813925 263.659669 
L 388.51049 274.801276 
L 390.207054 263.245341 
L 391.903618 277.112422 
L 393.600182 268.785099 
L 395.296747 261.855646 
L 396.993311 277.490479 
L 398.689875 264.883989 
L 400.38644 270.280421 
L 402.083004 272.442496 
L 403.779568 263.730999 
L 405.476133 277.581077 
L 407.172697 268.372974 
L 408.869261 272.919662 
L 410.565825 263.707875 
L 412.26239 272.447975 
L 413.958954 273.82022 
L 415.655518 261.808448 
L 417.352083 274.86929 
L 419.048647 264.964599 
L 420.745211 267.382874 
L 422.441776 265.134942 
L 424.13834 277.972252 
L 425.834904 265.475199 
L 427.531469 272.214453 
L 429.228033 269.140134 
L 430.924597 258.162977 
L 432.621161 274.593569 
L 434.317726 260.531182 
L 436.01429 275.624128 
L 437.710854 264.249909 
L 439.407419 276.111428 
L 441.103983 265.62709 
L 442.800547 261.917544 
L 444.497112 275.670451 
L 446.193676 267.878722 
L 447.89024 272.350419 
L 449.586804 265.551838 
L 451.283369 266.557691 
L 452.979933 266.053368 
L 454.676497 266.074357 
L 456.373062 272.350048 
L 458.069626 270.668354 
L 459.76619 270.819831 
L 461.462755 271.215975 
L 463.159319 264.874448 
L 464.855883 267.891833 
L 466.552448 268.711539 
L 468.249012 275.453582 
L 469.945576 260.37962 
L 471.64214 273.134333 
L 473.338705 267.145642 
L 475.035269 271.286414 
L 476.731833 258.411798 
L 478.428398 268.975975 
L 480.124962 261.542993 
L 481.821526 260.920209 
L 483.518091 274.733762 
L 485.214655 260.39042 
L 486.911219 269.114614 
L 488.607784 263.135382 
L 490.304348 273.3875 
L 492.000912 264.983832 
L 493.697476 260.880969 
L 495.394041 268.549622 
L 497.090605 273.441553 
L 498.787169 260.419484 
L 500.483734 262.216635 
L 502.180298 270.397028 
L 503.876862 264.089249 
L 505.573427 262.069731 
L 507.269991 271.503168 
L 508.966555 267.08234 
L 512.359684 266.45513 
L 514.056248 267.328351 
L 515.752812 268.515543 
L 517.449377 275.654149 
L 519.145941 263.626777 
L 520.842505 263.70543 
L 522.53907 264.342468 
L 524.235634 273.039222 
L 525.932198 266.72464 
L 527.628763 261.726819 
L 529.325327 274.342603 
L 531.021891 264.555266 
L 532.718455 266.149999 
L 534.41502 267.236775 
L 536.111584 268.053475 
L 537.808148 275.556675 
L 539.504713 264.920142 
L 541.201277 272.382933 
L 542.897841 264.364217 
L 544.594406 267.443376 
L 546.29097 273.372044 
L 547.987534 259.100828 
L 549.684099 269.801707 
L 551.380663 275.139702 
L 553.077227 264.623628 
L 554.773791 263.586239 
L 556.470356 265.608172 
L 558.16692 271.874271 
L 559.863484 268.121779 
L 561.560049 264.977765 
L 563.256613 270.289991 
L 564.953177 275.111509 
L 566.649742 267.569973 
L 568.346306 272.144409 
L 570.04287 268.009024 
L 571.739434 267.682913 
L 573.435999 264.229836 
L 575.132563 265.495723 
L 576.829127 263.94868 
L 578.525692 273.375025 
L 580.222256 267.618506 
L 581.91882 270.328568 
L 583.615385 267.601588 
L 585.311949 267.955682 
L 587.008513 268.166265 
L 588.705078 263.370577 
L 590.401642 268.473859 
L 592.098206 266.00395 
L 593.79477 267.755039 
L 595.491335 268.75452 
L 597.187899 265.206867 
L 598.884463 271.627977 
L 600.581028 263.72417 
L 602.277592 271.774257 
L 603.974156 264.035328 
L 605.670721 259.856454 
L 607.367285 272.079794 
L 609.063849 262.689841 
L 610.760413 264.517674 
L 612.456978 269.883906 
L 614.153542 260.674229 
L 615.850106 270.745997 
L 617.546671 273.057258 
L 619.243235 265.038106 
L 620.939799 269.048334 
L 622.636364 268.850681 
L 622.636364 268.850681 
" clip-path="url(#pc67892be1d)" style="fill: none; stroke: #d62728; stroke-width: 1.5; stroke-linecap: square"/>
   </g>
   <g id="patch_3">
    <path d="M 90 320.4 
L 90 43.2 
" style="fill: none; stroke: #000000; stroke-width: 0.8; stroke-linejoin: miter; stroke-linecap: square"/>
   </g>
   <g id="patch_4">
    <path d="M 648 320.4 
L 648 43.2 
" style="fill: none; stroke: #000000; stroke-width: 0.8; stroke-linejoin: miter; stroke-linecap: square"/>
   </g>
   <g id="patch_5">
    <path d="M 90 320.4 
L 648 320.4 
" style="fill: none; stroke: #000000; stroke-width: 0.8; stroke-linejoin: miter; stroke-linecap: square"/>
   </g>
   <g id="patch_6">
    <path d="M 90 43.2 
L 648 43.2 
" style="fill: none; stroke: #000000; stroke-width: 0.8; stroke-linejoin: miter; stroke-linecap: square"/>
   </g>
   <g id="text_16">
    <!-- Training and Validating Estimation Loss -->
    <g transform="translate(251.535937 37.2) scale(0.12 -0.12)">
     <defs>
      <path id="DejaVuSans-54" d="M -19 4666 
L 3928 4666 
L 3928 4134 
L 2272 4134 
L 2272 0 
L 1638 0 
L 1638 4134 
L -19 4134 
L -19 4666 
z
" transform="scale(0.015625)"/>
      <path id="DejaVuSans-72" d="M 2631 2963 
Q 2534 3019 2420 3045 
Q 2306 3072 2169 3072 
Q 1681 3072 1420 2755 
Q 1159 2438 1159 1844 
L 1159 0 
L 581 0 
L 581 3500 
L 1159 3500 
L 1159 2956 
Q 1341 3275 1631 3429 
Q 1922 3584 2338 3584 
Q 2397 3584 2469 3576 
Q 2541 3569 2628 3553 
L 2631 2963 
z
" transform="scale(0.015625)"/>
      <path id="DejaVuSans-67" d="M 2906 1791 
Q 2906 2416 2648 2759 
Q 2391 3103 1925 3103 
Q 1463 3103 1205 2759 
Q 947 2416 947 1791 
Q 947 1169 1205 825 
Q 1463 481 1925 481 
Q 2391 481 2648 825 
Q 2906 1169 2906 1791 
z
M 3481 434 
Q 3481 -459 3084 -895 
Q 2688 -1331 1869 -1331 
Q 1566 -1331 1297 -1286 
Q 1028 -1241 775 -1147 
L 775 -588 
Q 1028 -725 1275 -790 
Q 1522 -856 1778 -856 
Q 2344 -856 2625 -561 
Q 2906 -266 2906 331 
L 2906 616 
Q 2728 306 2450 153 
Q 2172 0 1784 0 
Q 1141 0 747 490 
Q 353 981 353 1791 
Q 353 2603 747 3093 
Q 1141 3584 1784 3584 
Q 2172 3584 2450 3431 
Q 2728 3278 2906 2969 
L 2906 3500 
L 3481 3500 
L 3481 434 
z
" transform="scale(0.015625)"/>
      <path id="DejaVuSans-64" d="M 2906 2969 
L 2906 4863 
L 3481 4863 
L 3481 0 
L 2906 0 
L 2906 525 
Q 2725 213 2448 61 
Q 2172 -91 1784 -91 
Q 1150 -91 751 415 
Q 353 922 353 1747 
Q 353 2572 751 3078 
Q 1150 3584 1784 3584 
Q 2172 3584 2448 3432 
Q 2725 3281 2906 2969 
z
M 947 1747 
Q 947 1113 1208 752 
Q 1469 391 1925 391 
Q 2381 391 2643 752 
Q 2906 1113 2906 1747 
Q 2906 2381 2643 2742 
Q 2381 3103 1925 3103 
Q 1469 3103 1208 2742 
Q 947 2381 947 1747 
z
" transform="scale(0.015625)"/>
      <path id="DejaVuSans-56" d="M 1831 0 
L 50 4666 
L 709 4666 
L 2188 738 
L 3669 4666 
L 4325 4666 
L 2547 0 
L 1831 0 
z
" transform="scale(0.015625)"/>
      <path id="DejaVuSans-6c" d="M 603 4863 
L 1178 4863 
L 1178 0 
L 603 0 
L 603 4863 
z
" transform="scale(0.015625)"/>
     </defs>
     <use xlink:href="#DejaVuSans-54"/>
     <use xlink:href="#DejaVuSans-72" transform="translate(46.333984 0)"/>
     <use xlink:href="#DejaVuSans-61" transform="translate(87.447266 0)"/>
     <use xlink:href="#DejaVuSans-69" transform="translate(148.726562 0)"/>
     <use xlink:href="#DejaVuSans-6e" transform="translate(176.509766 0)"/>
     <use xlink:href="#DejaVuSans-69" transform="translate(239.888672 0)"/>
     <use xlink:href="#DejaVuSans-6e" transform="translate(267.671875 0)"/>
     <use xlink:href="#DejaVuSans-67" transform="translate(331.050781 0)"/>
     <use xlink:href="#DejaVuSans-20" transform="translate(394.527344 0)"/>
     <use xlink:href="#DejaVuSans-61" transform="translate(426.314453 0)"/>
     <use xlink:href="#DejaVuSans-6e" transform="translate(487.59375 0)"/>
     <use xlink:href="#DejaVuSans-64" transform="translate(550.972656 0)"/>
     <use xlink:href="#DejaVuSans-20" transform="translate(614.449219 0)"/>
     <use xlink:href="#DejaVuSans-56" transform="translate(646.236328 0)"/>
     <use xlink:href="#DejaVuSans-61" transform="translate(706.894531 0)"/>
     <use xlink:href="#DejaVuSans-6c" transform="translate(768.173828 0)"/>
     <use xlink:href="#DejaVuSans-69" transform="translate(795.957031 0)"/>
     <use xlink:href="#DejaVuSans-64" transform="translate(823.740234 0)"/>
     <use xlink:href="#DejaVuSans-61" transform="translate(887.216797 0)"/>
     <use xlink:href="#DejaVuSans-74" transform="translate(948.496094 0)"/>
     <use xlink:href="#DejaVuSans-69" transform="translate(987.705078 0)"/>
     <use xlink:href="#DejaVuSans-6e" transform="translate(1015.488281 0)"/>
     <use xlink:href="#DejaVuSans-67" transform="translate(1078.867188 0)"/>
     <use xlink:href="#DejaVuSans-20" transform="translate(1142.34375 0)"/>
     <use xlink:href="#DejaVuSans-45" transform="translate(1174.130859 0)"/>
     <use xlink:href="#DejaVuSans-73" transform="translate(1237.314453 0)"/>
     <use xlink:href="#DejaVuSans-74" transform="translate(1289.414062 0)"/>
     <use xlink:href="#DejaVuSans-69" transform="translate(1328.623047 0)"/>
     <use xlink:href="#DejaVuSans-6d" transform="translate(1356.40625 0)"/>
     <use xlink:href="#DejaVuSans-61" transform="translate(1453.818359 0)"/>
     <use xlink:href="#DejaVuSans-74" transform="translate(1515.097656 0)"/>
     <use xlink:href="#DejaVuSans-69" transform="translate(1554.306641 0)"/>
     <use xlink:href="#DejaVuSans-6f" transform="translate(1582.089844 0)"/>
     <use xlink:href="#DejaVuSans-6e" transform="translate(1643.271484 0)"/>
     <use xlink:href="#DejaVuSans-20" transform="translate(1706.650391 0)"/>
     <use xlink:href="#DejaVuSans-4c" transform="translate(1738.4375 0)"/>
     <use xlink:href="#DejaVuSans-6f" transform="translate(1792.400391 0)"/>
     <use xlink:href="#DejaVuSans-73" transform="translate(1853.582031 0)"/>
     <use xlink:href="#DejaVuSans-73" transform="translate(1905.681641 0)"/>
    </g>
   </g>
   <g id="legend_1">
    <g id="patch_7">
     <path d="M 521.439062 109.9125 
L 641 109.9125 
Q 643 109.9125 643 107.9125 
L 643 50.2 
Q 643 48.2 641 48.2 
L 521.439062 48.2 
Q 519.439062 48.2 519.439062 50.2 
L 519.439062 107.9125 
Q 519.439062 109.9125 521.439062 109.9125 
z
" style="fill: #ffffff; opacity: 0.8; stroke: #cccccc; stroke-linejoin: miter"/>
    </g>
    <g id="line2d_18">
     <path d="M 523.439062 56.298437 
L 533.439062 56.298437 
L 543.439062 56.298437 
" style="fill: none; stroke: #1f77b4; stroke-width: 1.5; stroke-linecap: square"/>
    </g>
    <g id="text_17">
     <!-- Training-Source -->
     <g transform="translate(551.439062 59.798437) scale(0.1 -0.1)">
      <defs>
       <path id="DejaVuSans-2d" d="M 313 2009 
L 1997 2009 
L 1997 1497 
L 313 1497 
L 313 2009 
z
" transform="scale(0.015625)"/>
       <path id="DejaVuSans-53" d="M 3425 4513 
L 3425 3897 
Q 3066 4069 2747 4153 
Q 2428 4238 2131 4238 
Q 1616 4238 1336 4038 
Q 1056 3838 1056 3469 
Q 1056 3159 1242 3001 
Q 1428 2844 1947 2747 
L 2328 2669 
Q 3034 2534 3370 2195 
Q 3706 1856 3706 1288 
Q 3706 609 3251 259 
Q 2797 -91 1919 -91 
Q 1588 -91 1214 -16 
Q 841 59 441 206 
L 441 856 
Q 825 641 1194 531 
Q 1563 422 1919 422 
Q 2459 422 2753 634 
Q 3047 847 3047 1241 
Q 3047 1584 2836 1778 
Q 2625 1972 2144 2069 
L 1759 2144 
Q 1053 2284 737 2584 
Q 422 2884 422 3419 
Q 422 4038 858 4394 
Q 1294 4750 2059 4750 
Q 2388 4750 2728 4690 
Q 3069 4631 3425 4513 
z
" transform="scale(0.015625)"/>
       <path id="DejaVuSans-75" d="M 544 1381 
L 544 3500 
L 1119 3500 
L 1119 1403 
Q 1119 906 1312 657 
Q 1506 409 1894 409 
Q 2359 409 2629 706 
Q 2900 1003 2900 1516 
L 2900 3500 
L 3475 3500 
L 3475 0 
L 2900 0 
L 2900 538 
Q 2691 219 2414 64 
Q 2138 -91 1772 -91 
Q 1169 -91 856 284 
Q 544 659 544 1381 
z
M 1991 3584 
L 1991 3584 
z
" transform="scale(0.015625)"/>
       <path id="DejaVuSans-65" d="M 3597 1894 
L 3597 1613 
L 953 1613 
Q 991 1019 1311 708 
Q 1631 397 2203 397 
Q 2534 397 2845 478 
Q 3156 559 3463 722 
L 3463 178 
Q 3153 47 2828 -22 
Q 2503 -91 2169 -91 
Q 1331 -91 842 396 
Q 353 884 353 1716 
Q 353 2575 817 3079 
Q 1281 3584 2069 3584 
Q 2775 3584 3186 3129 
Q 3597 2675 3597 1894 
z
M 3022 2063 
Q 3016 2534 2758 2815 
Q 2500 3097 2075 3097 
Q 1594 3097 1305 2825 
Q 1016 2553 972 2059 
L 3022 2063 
z
" transform="scale(0.015625)"/>
      </defs>
      <use xlink:href="#DejaVuSans-54"/>
      <use xlink:href="#DejaVuSans-72" transform="translate(46.333984 0)"/>
      <use xlink:href="#DejaVuSans-61" transform="translate(87.447266 0)"/>
      <use xlink:href="#DejaVuSans-69" transform="translate(148.726562 0)"/>
      <use xlink:href="#DejaVuSans-6e" transform="translate(176.509766 0)"/>
      <use xlink:href="#DejaVuSans-69" transform="translate(239.888672 0)"/>
      <use xlink:href="#DejaVuSans-6e" transform="translate(267.671875 0)"/>
      <use xlink:href="#DejaVuSans-67" transform="translate(331.050781 0)"/>
      <use xlink:href="#DejaVuSans-2d" transform="translate(394.527344 0)"/>
      <use xlink:href="#DejaVuSans-53" transform="translate(430.611328 0)"/>
      <use xlink:href="#DejaVuSans-6f" transform="translate(494.087891 0)"/>
      <use xlink:href="#DejaVuSans-75" transform="translate(555.269531 0)"/>
      <use xlink:href="#DejaVuSans-72" transform="translate(618.648438 0)"/>
      <use xlink:href="#DejaVuSans-63" transform="translate(657.511719 0)"/>
      <use xlink:href="#DejaVuSans-65" transform="translate(712.492188 0)"/>
     </g>
    </g>
    <g id="line2d_19">
     <path d="M 523.439062 70.976562 
L 533.439062 70.976562 
L 543.439062 70.976562 
" style="fill: none; stroke: #ff7f0e; stroke-width: 1.5; stroke-linecap: square"/>
    </g>
    <g id="text_18">
     <!-- Training-Target -->
     <g transform="translate(551.439062 74.476562) scale(0.1 -0.1)">
      <use xlink:href="#DejaVuSans-54"/>
      <use xlink:href="#DejaVuSans-72" transform="translate(46.333984 0)"/>
      <use xlink:href="#DejaVuSans-61" transform="translate(87.447266 0)"/>
      <use xlink:href="#DejaVuSans-69" transform="translate(148.726562 0)"/>
      <use xlink:href="#DejaVuSans-6e" transform="translate(176.509766 0)"/>
      <use xlink:href="#DejaVuSans-69" transform="translate(239.888672 0)"/>
      <use xlink:href="#DejaVuSans-6e" transform="translate(267.671875 0)"/>
      <use xlink:href="#DejaVuSans-67" transform="translate(331.050781 0)"/>
      <use xlink:href="#DejaVuSans-2d" transform="translate(394.527344 0)"/>
      <use xlink:href="#DejaVuSans-54" transform="translate(421.486328 0)"/>
      <use xlink:href="#DejaVuSans-61" transform="translate(466.070312 0)"/>
      <use xlink:href="#DejaVuSans-72" transform="translate(527.349609 0)"/>
      <use xlink:href="#DejaVuSans-67" transform="translate(566.712891 0)"/>
      <use xlink:href="#DejaVuSans-65" transform="translate(630.189453 0)"/>
      <use xlink:href="#DejaVuSans-74" transform="translate(691.712891 0)"/>
     </g>
    </g>
    <g id="line2d_20">
     <path d="M 523.439062 85.654687 
L 533.439062 85.654687 
L 543.439062 85.654687 
" style="fill: none; stroke: #2ca02c; stroke-width: 1.5; stroke-linecap: square"/>
    </g>
    <g id="text_19">
     <!-- Validating-Source -->
     <g transform="translate(551.439062 89.154687) scale(0.1 -0.1)">
      <use xlink:href="#DejaVuSans-56"/>
      <use xlink:href="#DejaVuSans-61" transform="translate(60.658203 0)"/>
      <use xlink:href="#DejaVuSans-6c" transform="translate(121.9375 0)"/>
      <use xlink:href="#DejaVuSans-69" transform="translate(149.720703 0)"/>
      <use xlink:href="#DejaVuSans-64" transform="translate(177.503906 0)"/>
      <use xlink:href="#DejaVuSans-61" transform="translate(240.980469 0)"/>
      <use xlink:href="#DejaVuSans-74" transform="translate(302.259766 0)"/>
      <use xlink:href="#DejaVuSans-69" transform="translate(341.46875 0)"/>
      <use xlink:href="#DejaVuSans-6e" transform="translate(369.251953 0)"/>
      <use xlink:href="#DejaVuSans-67" transform="translate(432.630859 0)"/>
      <use xlink:href="#DejaVuSans-2d" transform="translate(496.107422 0)"/>
      <use xlink:href="#DejaVuSans-53" transform="translate(532.191406 0)"/>
      <use xlink:href="#DejaVuSans-6f" transform="translate(595.667969 0)"/>
      <use xlink:href="#DejaVuSans-75" transform="translate(656.849609 0)"/>
      <use xlink:href="#DejaVuSans-72" transform="translate(720.228516 0)"/>
      <use xlink:href="#DejaVuSans-63" transform="translate(759.091797 0)"/>
      <use xlink:href="#DejaVuSans-65" transform="translate(814.072266 0)"/>
     </g>
    </g>
    <g id="line2d_21">
     <path d="M 523.439062 100.332812 
L 533.439062 100.332812 
L 543.439062 100.332812 
" style="fill: none; stroke: #d62728; stroke-width: 1.5; stroke-linecap: square"/>
    </g>
    <g id="text_20">
     <!-- Validating-Target -->
     <g transform="translate(551.439062 103.832812) scale(0.1 -0.1)">
      <use xlink:href="#DejaVuSans-56"/>
      <use xlink:href="#DejaVuSans-61" transform="translate(60.658203 0)"/>
      <use xlink:href="#DejaVuSans-6c" transform="translate(121.9375 0)"/>
      <use xlink:href="#DejaVuSans-69" transform="translate(149.720703 0)"/>
      <use xlink:href="#DejaVuSans-64" transform="translate(177.503906 0)"/>
      <use xlink:href="#DejaVuSans-61" transform="translate(240.980469 0)"/>
      <use xlink:href="#DejaVuSans-74" transform="translate(302.259766 0)"/>
      <use xlink:href="#DejaVuSans-69" transform="translate(341.46875 0)"/>
      <use xlink:href="#DejaVuSans-6e" transform="translate(369.251953 0)"/>
      <use xlink:href="#DejaVuSans-67" transform="translate(432.630859 0)"/>
      <use xlink:href="#DejaVuSans-2d" transform="translate(496.107422 0)"/>
      <use xlink:href="#DejaVuSans-54" transform="translate(523.066406 0)"/>
      <use xlink:href="#DejaVuSans-61" transform="translate(567.650391 0)"/>
      <use xlink:href="#DejaVuSans-72" transform="translate(628.929688 0)"/>
      <use xlink:href="#DejaVuSans-67" transform="translate(668.292969 0)"/>
      <use xlink:href="#DejaVuSans-65" transform="translate(731.769531 0)"/>
      <use xlink:href="#DejaVuSans-74" transform="translate(793.292969 0)"/>
     </g>
    </g>
   </g>
  </g>
 </g>
 <defs>
  <clipPath id="pc67892be1d">
   <rect x="90" y="43.2" width="558" height="277.2"/>
  </clipPath>
 </defs>
</svg>
