<?xml version="1.0" encoding="utf-8" standalone="no"?>
<!DOCTYPE svg PUBLIC "-//W3C//DTD SVG 1.1//EN"
  "http://www.w3.org/Graphics/SVG/1.1/DTD/svg11.dtd">
<svg xmlns:xlink="http://www.w3.org/1999/xlink" width="720pt" height="360pt" viewBox="0 0 720 360" xmlns="http://www.w3.org/2000/svg" version="1.1">
 <metadata>
  <rdf:RDF xmlns:dc="http://purl.org/dc/elements/1.1/" xmlns:cc="http://creativecommons.org/ns#" xmlns:rdf="http://www.w3.org/1999/02/22-rdf-syntax-ns#">
   <cc:Work>
    <dc:type rdf:resource="http://purl.org/dc/dcmitype/StillImage"/>
    <dc:date>2026-01-25T06:04:19.576839</dc:date>
    <dc:format>image/svg+xml</dc:format>
    <dc:creator>
     <cc:Agent>
      <dc:title>Matplotlib v3.10.1, https://matplotlib.org/</dc:title>
     </cc:Agent>
    </dc:creator>
   </cc:Work>
  </rdf:RDF>
 </metadata>
 <defs>
  <style type="text/css">*{stroke-linejoin: round; stroke-linecap: butt}</style>
 </defs>
 <g id="figure_1">
  <g id="patch_1">
   <path d="M 0 360 
L 720 360 
L 720 0 
L 0 0 
z
" style="fill: #ffffff"/>
  </g>
  <g id="axes_1">
   <g id="patch_2">
    <path d="M 90 320.4 
L 648 320.4 
L 648 43.2 
L 90 43.2 
z
" style="fill: #ffffff"/>
   </g>
   <g id="matplotlib.axis_1">
    <g id="xtick_1">
     <g id="line2d_1">
      <defs>
       <path id="m4c76d7feea" d="M 0 0 
L 0 3.5 
" style="stroke: #000000; stroke-width: 0.8"/>
      </defs>
      <g>
       <use xlink:href="#m4c76d7feea" x="115.363636" y="320.4" style="stroke: #000000; stroke-width: 0.8"/>
      </g>
     </g>
     <g id="text_1">
      <!-- 0 -->
      <g transform="translate(112.182386 334.998438) scale(0.1 -0.1)">
       <defs>
        <path id="DejaVuSans-30" d="M 2034 4250 
Q 1547 4250 1301 3770 
Q 1056 3291 1056 2328 
Q 1056 1369 1301 889 
Q 1547 409 2034 409 
Q 2525 409 2770 889 
Q 3016 1369 3016 2328 
Q 3016 3291 2770 3770 
Q 2525 4250 2034 4250 
z
M 2034 4750 
Q 2819 4750 3233 4129 
Q 3647 3509 3647 2328 
Q 3647 1150 3233 529 
Q 2819 -91 2034 -91 
Q 1250 -91 836 529 
Q 422 1150 422 2328 
Q 422 3509 836 4129 
Q 1250 4750 2034 4750 
z
" transform="scale(0.015625)"/>
       </defs>
       <use xlink:href="#DejaVuSans-30"/>
      </g>
     </g>
    </g>
    <g id="xtick_2">
     <g id="line2d_2">
      <g>
       <use xlink:href="#m4c76d7feea" x="217.195336" y="320.4" style="stroke: #000000; stroke-width: 0.8"/>
      </g>
     </g>
     <g id="text_2">
      <!-- 54 -->
      <g transform="translate(210.832836 334.998438) scale(0.1 -0.1)">
       <defs>
        <path id="DejaVuSans-35" d="M 691 4666 
L 3169 4666 
L 3169 4134 
L 1269 4134 
L 1269 2991 
Q 1406 3038 1543 3061 
Q 1681 3084 1819 3084 
Q 2600 3084 3056 2656 
Q 3513 2228 3513 1497 
Q 3513 744 3044 326 
Q 2575 -91 1722 -91 
Q 1428 -91 1123 -41 
Q 819 9 494 109 
L 494 744 
Q 775 591 1075 516 
Q 1375 441 1709 441 
Q 2250 441 2565 725 
Q 2881 1009 2881 1497 
Q 2881 1984 2565 2268 
Q 2250 2553 1709 2553 
Q 1456 2553 1204 2497 
Q 953 2441 691 2322 
L 691 4666 
z
" transform="scale(0.015625)"/>
        <path id="DejaVuSans-34" d="M 2419 4116 
L 825 1625 
L 2419 1625 
L 2419 4116 
z
M 2253 4666 
L 3047 4666 
L 3047 1625 
L 3713 1625 
L 3713 1100 
L 3047 1100 
L 3047 0 
L 2419 0 
L 2419 1100 
L 313 1100 
L 313 1709 
L 2253 4666 
z
" transform="scale(0.015625)"/>
       </defs>
       <use xlink:href="#DejaVuSans-35"/>
       <use xlink:href="#DejaVuSans-34" transform="translate(63.623047 0)"/>
      </g>
     </g>
    </g>
    <g id="xtick_3">
     <g id="line2d_3">
      <g>
       <use xlink:href="#m4c76d7feea" x="319.027036" y="320.4" style="stroke: #000000; stroke-width: 0.8"/>
      </g>
     </g>
     <g id="text_3">
      <!-- 108 -->
      <g transform="translate(309.483286 334.998438) scale(0.1 -0.1)">
       <defs>
        <path id="DejaVuSans-31" d="M 794 531 
L 1825 531 
L 1825 4091 
L 703 3866 
L 703 4441 
L 1819 4666 
L 2450 4666 
L 2450 531 
L 3481 531 
L 3481 0 
L 794 0 
L 794 531 
z
" transform="scale(0.015625)"/>
        <path id="DejaVuSans-38" d="M 2034 2216 
Q 1584 2216 1326 1975 
Q 1069 1734 1069 1313 
Q 1069 891 1326 650 
Q 1584 409 2034 409 
Q 2484 409 2743 651 
Q 3003 894 3003 1313 
Q 3003 1734 2745 1975 
Q 2488 2216 2034 2216 
z
M 1403 2484 
Q 997 2584 770 2862 
Q 544 3141 544 3541 
Q 544 4100 942 4425 
Q 1341 4750 2034 4750 
Q 2731 4750 3128 4425 
Q 3525 4100 3525 3541 
Q 3525 3141 3298 2862 
Q 3072 2584 2669 2484 
Q 3125 2378 3379 2068 
Q 3634 1759 3634 1313 
Q 3634 634 3220 271 
Q 2806 -91 2034 -91 
Q 1263 -91 848 271 
Q 434 634 434 1313 
Q 434 1759 690 2068 
Q 947 2378 1403 2484 
z
M 1172 3481 
Q 1172 3119 1398 2916 
Q 1625 2713 2034 2713 
Q 2441 2713 2670 2916 
Q 2900 3119 2900 3481 
Q 2900 3844 2670 4047 
Q 2441 4250 2034 4250 
Q 1625 4250 1398 4047 
Q 1172 3844 1172 3481 
z
" transform="scale(0.015625)"/>
       </defs>
       <use xlink:href="#DejaVuSans-31"/>
       <use xlink:href="#DejaVuSans-30" transform="translate(63.623047 0)"/>
       <use xlink:href="#DejaVuSans-38" transform="translate(127.246094 0)"/>
      </g>
     </g>
    </g>
    <g id="xtick_4">
     <g id="line2d_4">
      <g>
       <use xlink:href="#m4c76d7feea" x="420.858736" y="320.4" style="stroke: #000000; stroke-width: 0.8"/>
      </g>
     </g>
     <g id="text_4">
      <!-- 162 -->
      <g transform="translate(411.314986 334.998438) scale(0.1 -0.1)">
       <defs>
        <path id="DejaVuSans-36" d="M 2113 2584 
Q 1688 2584 1439 2293 
Q 1191 2003 1191 1497 
Q 1191 994 1439 701 
Q 1688 409 2113 409 
Q 2538 409 2786 701 
Q 3034 994 3034 1497 
Q 3034 2003 2786 2293 
Q 2538 2584 2113 2584 
z
M 3366 4563 
L 3366 3988 
Q 3128 4100 2886 4159 
Q 2644 4219 2406 4219 
Q 1781 4219 1451 3797 
Q 1122 3375 1075 2522 
Q 1259 2794 1537 2939 
Q 1816 3084 2150 3084 
Q 2853 3084 3261 2657 
Q 3669 2231 3669 1497 
Q 3669 778 3244 343 
Q 2819 -91 2113 -91 
Q 1303 -91 875 529 
Q 447 1150 447 2328 
Q 447 3434 972 4092 
Q 1497 4750 2381 4750 
Q 2619 4750 2861 4703 
Q 3103 4656 3366 4563 
z
" transform="scale(0.015625)"/>
        <path id="DejaVuSans-32" d="M 1228 531 
L 3431 531 
L 3431 0 
L 469 0 
L 469 531 
Q 828 903 1448 1529 
Q 2069 2156 2228 2338 
Q 2531 2678 2651 2914 
Q 2772 3150 2772 3378 
Q 2772 3750 2511 3984 
Q 2250 4219 1831 4219 
Q 1534 4219 1204 4116 
Q 875 4013 500 3803 
L 500 4441 
Q 881 4594 1212 4672 
Q 1544 4750 1819 4750 
Q 2544 4750 2975 4387 
Q 3406 4025 3406 3419 
Q 3406 3131 3298 2873 
Q 3191 2616 2906 2266 
Q 2828 2175 2409 1742 
Q 1991 1309 1228 531 
z
" transform="scale(0.015625)"/>
       </defs>
       <use xlink:href="#DejaVuSans-31"/>
       <use xlink:href="#DejaVuSans-36" transform="translate(63.623047 0)"/>
       <use xlink:href="#DejaVuSans-32" transform="translate(127.246094 0)"/>
      </g>
     </g>
    </g>
    <g id="xtick_5">
     <g id="line2d_5">
      <g>
       <use xlink:href="#m4c76d7feea" x="522.690436" y="320.4" style="stroke: #000000; stroke-width: 0.8"/>
      </g>
     </g>
     <g id="text_5">
      <!-- 216 -->
      <g transform="translate(513.146686 334.998438) scale(0.1 -0.1)">
       <use xlink:href="#DejaVuSans-32"/>
       <use xlink:href="#DejaVuSans-31" transform="translate(63.623047 0)"/>
       <use xlink:href="#DejaVuSans-36" transform="translate(127.246094 0)"/>
      </g>
     </g>
    </g>
    <g id="text_6">
     <!-- Epoch -->
     <g transform="translate(353.689062 348.676562) scale(0.1 -0.1)">
      <defs>
       <path id="DejaVuSans-45" d="M 628 4666 
L 3578 4666 
L 3578 4134 
L 1259 4134 
L 1259 2753 
L 3481 2753 
L 3481 2222 
L 1259 2222 
L 1259 531 
L 3634 531 
L 3634 0 
L 628 0 
L 628 4666 
z
" transform="scale(0.015625)"/>
       <path id="DejaVuSans-70" d="M 1159 525 
L 1159 -1331 
L 581 -1331 
L 581 3500 
L 1159 3500 
L 1159 2969 
Q 1341 3281 1617 3432 
Q 1894 3584 2278 3584 
Q 2916 3584 3314 3078 
Q 3713 2572 3713 1747 
Q 3713 922 3314 415 
Q 2916 -91 2278 -91 
Q 1894 -91 1617 61 
Q 1341 213 1159 525 
z
M 3116 1747 
Q 3116 2381 2855 2742 
Q 2594 3103 2138 3103 
Q 1681 3103 1420 2742 
Q 1159 2381 1159 1747 
Q 1159 1113 1420 752 
Q 1681 391 2138 391 
Q 2594 391 2855 752 
Q 3116 1113 3116 1747 
z
" transform="scale(0.015625)"/>
       <path id="DejaVuSans-6f" d="M 1959 3097 
Q 1497 3097 1228 2736 
Q 959 2375 959 1747 
Q 959 1119 1226 758 
Q 1494 397 1959 397 
Q 2419 397 2687 759 
Q 2956 1122 2956 1747 
Q 2956 2369 2687 2733 
Q 2419 3097 1959 3097 
z
M 1959 3584 
Q 2709 3584 3137 3096 
Q 3566 2609 3566 1747 
Q 3566 888 3137 398 
Q 2709 -91 1959 -91 
Q 1206 -91 779 398 
Q 353 888 353 1747 
Q 353 2609 779 3096 
Q 1206 3584 1959 3584 
z
" transform="scale(0.015625)"/>
       <path id="DejaVuSans-63" d="M 3122 3366 
L 3122 2828 
Q 2878 2963 2633 3030 
Q 2388 3097 2138 3097 
Q 1578 3097 1268 2742 
Q 959 2388 959 1747 
Q 959 1106 1268 751 
Q 1578 397 2138 397 
Q 2388 397 2633 464 
Q 2878 531 3122 666 
L 3122 134 
Q 2881 22 2623 -34 
Q 2366 -91 2075 -91 
Q 1284 -91 818 406 
Q 353 903 353 1747 
Q 353 2603 823 3093 
Q 1294 3584 2113 3584 
Q 2378 3584 2631 3529 
Q 2884 3475 3122 3366 
z
" transform="scale(0.015625)"/>
       <path id="DejaVuSans-68" d="M 3513 2113 
L 3513 0 
L 2938 0 
L 2938 2094 
Q 2938 2591 2744 2837 
Q 2550 3084 2163 3084 
Q 1697 3084 1428 2787 
Q 1159 2491 1159 1978 
L 1159 0 
L 581 0 
L 581 4863 
L 1159 4863 
L 1159 2956 
Q 1366 3272 1645 3428 
Q 1925 3584 2291 3584 
Q 2894 3584 3203 3211 
Q 3513 2838 3513 2113 
z
" transform="scale(0.015625)"/>
      </defs>
      <use xlink:href="#DejaVuSans-45"/>
      <use xlink:href="#DejaVuSans-70" transform="translate(63.183594 0)"/>
      <use xlink:href="#DejaVuSans-6f" transform="translate(126.660156 0)"/>
      <use xlink:href="#DejaVuSans-63" transform="translate(187.841797 0)"/>
      <use xlink:href="#DejaVuSans-68" transform="translate(242.822266 0)"/>
     </g>
    </g>
   </g>
   <g id="matplotlib.axis_2">
    <g id="ytick_1">
     <g id="line2d_6">
      <defs>
       <path id="mabafd491c7" d="M 0 0 
L -3.5 0 
" style="stroke: #000000; stroke-width: 0.8"/>
      </defs>
      <g>
       <use xlink:href="#mabafd491c7" x="90" y="265.573264" style="stroke: #000000; stroke-width: 0.8"/>
      </g>
     </g>
     <g id="text_7">
      <!-- 0.0002 -->
      <g transform="translate(48.009375 269.372483) scale(0.1 -0.1)">
       <defs>
        <path id="DejaVuSans-2e" d="M 684 794 
L 1344 794 
L 1344 0 
L 684 0 
L 684 794 
z
" transform="scale(0.015625)"/>
       </defs>
       <use xlink:href="#DejaVuSans-30"/>
       <use xlink:href="#DejaVuSans-2e" transform="translate(63.623047 0)"/>
       <use xlink:href="#DejaVuSans-30" transform="translate(95.410156 0)"/>
       <use xlink:href="#DejaVuSans-30" transform="translate(159.033203 0)"/>
       <use xlink:href="#DejaVuSans-30" transform="translate(222.65625 0)"/>
       <use xlink:href="#DejaVuSans-32" transform="translate(286.279297 0)"/>
      </g>
     </g>
    </g>
    <g id="ytick_2">
     <g id="line2d_7">
      <g>
       <use xlink:href="#mabafd491c7" x="90" y="207.210546" style="stroke: #000000; stroke-width: 0.8"/>
      </g>
     </g>
     <g id="text_8">
      <!-- 0.0004 -->
      <g transform="translate(48.009375 211.009765) scale(0.1 -0.1)">
       <use xlink:href="#DejaVuSans-30"/>
       <use xlink:href="#DejaVuSans-2e" transform="translate(63.623047 0)"/>
       <use xlink:href="#DejaVuSans-30" transform="translate(95.410156 0)"/>
       <use xlink:href="#DejaVuSans-30" transform="translate(159.033203 0)"/>
       <use xlink:href="#DejaVuSans-30" transform="translate(222.65625 0)"/>
       <use xlink:href="#DejaVuSans-34" transform="translate(286.279297 0)"/>
      </g>
     </g>
    </g>
    <g id="ytick_3">
     <g id="line2d_8">
      <g>
       <use xlink:href="#mabafd491c7" x="90" y="148.847828" style="stroke: #000000; stroke-width: 0.8"/>
      </g>
     </g>
     <g id="text_9">
      <!-- 0.0006 -->
      <g transform="translate(48.009375 152.647047) scale(0.1 -0.1)">
       <use xlink:href="#DejaVuSans-30"/>
       <use xlink:href="#DejaVuSans-2e" transform="translate(63.623047 0)"/>
       <use xlink:href="#DejaVuSans-30" transform="translate(95.410156 0)"/>
       <use xlink:href="#DejaVuSans-30" transform="translate(159.033203 0)"/>
       <use xlink:href="#DejaVuSans-30" transform="translate(222.65625 0)"/>
       <use xlink:href="#DejaVuSans-36" transform="translate(286.279297 0)"/>
      </g>
     </g>
    </g>
    <g id="ytick_4">
     <g id="line2d_9">
      <g>
       <use xlink:href="#mabafd491c7" x="90" y="90.48511" style="stroke: #000000; stroke-width: 0.8"/>
      </g>
     </g>
     <g id="text_10">
      <!-- 0.0008 -->
      <g transform="translate(48.009375 94.284329) scale(0.1 -0.1)">
       <use xlink:href="#DejaVuSans-30"/>
       <use xlink:href="#DejaVuSans-2e" transform="translate(63.623047 0)"/>
       <use xlink:href="#DejaVuSans-30" transform="translate(95.410156 0)"/>
       <use xlink:href="#DejaVuSans-30" transform="translate(159.033203 0)"/>
       <use xlink:href="#DejaVuSans-30" transform="translate(222.65625 0)"/>
       <use xlink:href="#DejaVuSans-38" transform="translate(286.279297 0)"/>
      </g>
     </g>
    </g>
    <g id="text_11">
     <!-- Total Loss -->
     <g transform="translate(41.929688 206.032812) rotate(-90) scale(0.1 -0.1)">
      <defs>
       <path id="DejaVuSans-54" d="M -19 4666 
L 3928 4666 
L 3928 4134 
L 2272 4134 
L 2272 0 
L 1638 0 
L 1638 4134 
L -19 4134 
L -19 4666 
z
" transform="scale(0.015625)"/>
       <path id="DejaVuSans-74" d="M 1172 4494 
L 1172 3500 
L 2356 3500 
L 2356 3053 
L 1172 3053 
L 1172 1153 
Q 1172 725 1289 603 
Q 1406 481 1766 481 
L 2356 481 
L 2356 0 
L 1766 0 
Q 1100 0 847 248 
Q 594 497 594 1153 
L 594 3053 
L 172 3053 
L 172 3500 
L 594 3500 
L 594 4494 
L 1172 4494 
z
" transform="scale(0.015625)"/>
       <path id="DejaVuSans-61" d="M 2194 1759 
Q 1497 1759 1228 1600 
Q 959 1441 959 1056 
Q 959 750 1161 570 
Q 1363 391 1709 391 
Q 2188 391 2477 730 
Q 2766 1069 2766 1631 
L 2766 1759 
L 2194 1759 
z
M 3341 1997 
L 3341 0 
L 2766 0 
L 2766 531 
Q 2569 213 2275 61 
Q 1981 -91 1556 -91 
Q 1019 -91 701 211 
Q 384 513 384 1019 
Q 384 1609 779 1909 
Q 1175 2209 1959 2209 
L 2766 2209 
L 2766 2266 
Q 2766 2663 2505 2880 
Q 2244 3097 1772 3097 
Q 1472 3097 1187 3025 
Q 903 2953 641 2809 
L 641 3341 
Q 956 3463 1253 3523 
Q 1550 3584 1831 3584 
Q 2591 3584 2966 3190 
Q 3341 2797 3341 1997 
z
" transform="scale(0.015625)"/>
       <path id="DejaVuSans-6c" d="M 603 4863 
L 1178 4863 
L 1178 0 
L 603 0 
L 603 4863 
z
" transform="scale(0.015625)"/>
       <path id="DejaVuSans-20" transform="scale(0.015625)"/>
       <path id="DejaVuSans-4c" d="M 628 4666 
L 1259 4666 
L 1259 531 
L 3531 531 
L 3531 0 
L 628 0 
L 628 4666 
z
" transform="scale(0.015625)"/>
       <path id="DejaVuSans-73" d="M 2834 3397 
L 2834 2853 
Q 2591 2978 2328 3040 
Q 2066 3103 1784 3103 
Q 1356 3103 1142 2972 
Q 928 2841 928 2578 
Q 928 2378 1081 2264 
Q 1234 2150 1697 2047 
L 1894 2003 
Q 2506 1872 2764 1633 
Q 3022 1394 3022 966 
Q 3022 478 2636 193 
Q 2250 -91 1575 -91 
Q 1294 -91 989 -36 
Q 684 19 347 128 
L 347 722 
Q 666 556 975 473 
Q 1284 391 1588 391 
Q 1994 391 2212 530 
Q 2431 669 2431 922 
Q 2431 1156 2273 1281 
Q 2116 1406 1581 1522 
L 1381 1569 
Q 847 1681 609 1914 
Q 372 2147 372 2553 
Q 372 3047 722 3315 
Q 1072 3584 1716 3584 
Q 2034 3584 2315 3537 
Q 2597 3491 2834 3397 
z
" transform="scale(0.015625)"/>
      </defs>
      <use xlink:href="#DejaVuSans-54"/>
      <use xlink:href="#DejaVuSans-6f" transform="translate(44.083984 0)"/>
      <use xlink:href="#DejaVuSans-74" transform="translate(105.265625 0)"/>
      <use xlink:href="#DejaVuSans-61" transform="translate(144.474609 0)"/>
      <use xlink:href="#DejaVuSans-6c" transform="translate(205.753906 0)"/>
      <use xlink:href="#DejaVuSans-20" transform="translate(233.537109 0)"/>
      <use xlink:href="#DejaVuSans-4c" transform="translate(265.324219 0)"/>
      <use xlink:href="#DejaVuSans-6f" transform="translate(319.287109 0)"/>
      <use xlink:href="#DejaVuSans-73" transform="translate(380.46875 0)"/>
      <use xlink:href="#DejaVuSans-73" transform="translate(432.568359 0)"/>
     </g>
    </g>
   </g>
   <g id="line2d_10">
    <path d="M 115.363636 55.8 
L 117.249409 59.252115 
L 119.135181 62.211883 
L 121.020953 66.274021 
L 122.906725 66.394984 
L 126.67827 71.734766 
L 128.564042 73.130227 
L 130.449814 75.04972 
L 132.335586 76.177324 
L 134.221359 78.389004 
L 136.107131 79.095256 
L 137.992903 80.910807 
L 139.878675 82.927535 
L 143.65022 84.988372 
L 145.535992 86.904155 
L 147.421764 87.596541 
L 149.307536 89.765655 
L 151.193309 90.140599 
L 153.079081 90.871173 
L 154.964853 92.707157 
L 156.850625 93.389603 
L 158.736397 94.2181 
L 160.62217 95.651335 
L 162.507942 96.292964 
L 164.393714 97.426776 
L 166.279486 97.824696 
L 168.165259 100.093952 
L 170.051031 99.818826 
L 171.936803 100.849775 
L 173.822575 102.075847 
L 175.708347 102.066184 
L 177.59412 103.397687 
L 179.479892 103.898931 
L 181.365664 104.852965 
L 183.251436 105.357889 
L 187.022981 107.483806 
L 188.908753 107.523433 
L 190.794525 108.181126 
L 192.680297 108.581738 
L 194.56607 108.742205 
L 196.451842 110.293284 
L 198.337614 110.533395 
L 202.109158 112.056818 
L 203.994931 112.381869 
L 205.880703 112.338115 
L 209.652247 113.795184 
L 211.53802 114.902982 
L 213.423792 114.271973 
L 215.309564 115.461876 
L 217.195336 116.3043 
L 219.081108 116.647733 
L 220.966881 117.602198 
L 222.852653 117.194737 
L 224.738425 118.298968 
L 226.624197 118.709925 
L 228.50997 119.822692 
L 230.395742 119.811988 
L 232.281514 120.561356 
L 234.167286 120.807667 
L 236.053058 120.900061 
L 237.938831 122.06273 
L 239.824603 121.657769 
L 241.710375 122.965933 
L 247.367692 124.546274 
L 249.253464 125.092497 
L 253.025008 126.500255 
L 256.796553 127.407108 
L 258.682325 127.19534 
L 260.568097 128.274639 
L 264.339642 129.406039 
L 266.225414 130.39594 
L 268.111186 130.598861 
L 273.768503 132.582086 
L 275.654275 132.874509 
L 277.540047 133.8457 
L 279.42582 134.536084 
L 281.311592 134.78515 
L 286.968908 136.955184 
L 288.854681 137.50759 
L 290.740453 138.360858 
L 294.511997 139.49489 
L 296.39777 140.398387 
L 298.283542 140.709246 
L 303.940858 142.925587 
L 305.826631 143.459706 
L 307.712403 144.123989 
L 309.598175 144.299198 
L 311.483947 145.869972 
L 313.369719 146.421731 
L 315.255492 147.217674 
L 319.027036 148.48588 
L 320.912808 149.360795 
L 322.798581 150.070747 
L 324.684353 151.086561 
L 328.455897 152.067447 
L 332.227442 153.87359 
L 335.998986 155.253834 
L 337.884758 156.129141 
L 341.656303 157.509777 
L 343.542075 158.514608 
L 345.427847 159.263315 
L 349.199392 160.267479 
L 352.970936 162.018107 
L 354.856708 162.542653 
L 358.628253 164.097104 
L 360.514025 164.190258 
L 362.399797 165.572384 
L 364.285569 166.23992 
L 366.171342 166.765917 
L 371.828658 168.882285 
L 373.714431 169.293894 
L 375.600203 170.192164 
L 381.257519 171.961281 
L 383.143292 172.651445 
L 385.029064 173.045791 
L 386.914836 173.811474 
L 390.686381 174.958658 
L 392.572153 175.259621 
L 394.457925 176.105521 
L 396.343697 176.049652 
L 398.229469 176.897109 
L 403.886786 178.433466 
L 405.772558 178.776291 
L 407.658331 179.301709 
L 409.544103 179.70976 
L 411.429875 180.285443 
L 413.315647 180.193419 
L 415.201419 181.009871 
L 417.087192 181.623145 
L 420.858736 181.962415 
L 424.630281 183.016812 
L 428.401825 183.664381 
L 432.173369 184.363205 
L 434.059142 184.519842 
L 435.944914 185.027688 
L 439.716458 185.652433 
L 441.60223 185.733332 
L 445.373775 186.422148 
L 447.259547 186.490511 
L 451.031092 187.095694 
L 454.802636 187.516205 
L 460.459953 188.264232 
L 464.231497 188.582031 
L 468.003042 188.76095 
L 469.888814 189.243769 
L 471.774586 189.251784 
L 475.54613 189.571218 
L 477.431903 189.618215 
L 483.089219 190.255716 
L 484.974992 190.27375 
L 488.746536 190.586512 
L 492.51808 190.723658 
L 498.175397 191.209908 
L 500.061169 190.995223 
L 503.832714 191.471164 
L 509.49003 191.781533 
L 511.375803 191.867319 
L 513.261575 191.810816 
L 515.147347 191.978511 
L 517.033119 191.929227 
L 518.918892 191.613769 
L 520.804664 192.172116 
L 530.233525 192.464397 
L 539.662386 192.857091 
L 541.548158 192.779236 
L 554.748564 193.213203 
L 558.520108 193.133112 
L 562.291653 193.320048 
L 564.177425 193.26931 
L 566.063197 193.438423 
L 569.834741 193.361072 
L 577.37783 193.568908 
L 579.263603 193.545324 
L 583.035147 193.729633 
L 590.578236 193.656784 
L 592.464008 193.718125 
L 594.34978 193.911836 
L 596.235553 193.708709 
L 598.121325 193.822643 
L 600.007097 193.746312 
L 603.778641 193.882219 
L 605.664414 193.946099 
L 607.550186 193.866253 
L 611.32173 193.956324 
L 616.979047 193.985205 
L 620.750591 194.080158 
L 622.636364 194.132235 
L 622.636364 194.132235 
" clip-path="url(#p023271b48a)" style="fill: none; stroke: #1f77b4; stroke-width: 1.5; stroke-linecap: square"/>
   </g>
   <g id="line2d_11">
    <path d="M 115.363636 193.541892 
L 117.249409 199.43224 
L 119.135181 199.209369 
L 121.020953 203.22542 
L 122.906725 215.85369 
L 124.792497 216.938666 
L 126.67827 202.607129 
L 128.564042 214.177465 
L 130.449814 217.070645 
L 132.335586 233.124957 
L 134.221359 205.927655 
L 136.107131 207.722807 
L 137.992903 213.307835 
L 139.878675 223.571777 
L 141.764447 231.096913 
L 143.65022 222.536604 
L 145.535992 221.38202 
L 147.421764 227.806393 
L 149.307536 229.450727 
L 151.193309 202.11224 
L 153.079081 231.675611 
L 154.964853 216.67993 
L 156.850625 241.205699 
L 160.62217 223.730042 
L 162.507942 247.835761 
L 164.393714 206.783858 
L 166.279486 237.233844 
L 168.165259 228.882196 
L 170.051031 246.673041 
L 171.936803 232.441245 
L 173.822575 229.669742 
L 175.708347 250.01626 
L 177.59412 247.679355 
L 179.479892 243.783028 
L 181.365664 253.777083 
L 183.251436 238.312883 
L 185.137209 255.647961 
L 187.022981 244.475845 
L 188.908753 229.43082 
L 190.794525 247.257938 
L 192.680297 241.003355 
L 194.56607 245.13209 
L 196.451842 236.230095 
L 198.337614 257.448047 
L 200.223386 235.760489 
L 202.109158 234.939285 
L 203.994931 242.696779 
L 205.880703 232.530548 
L 207.766475 237.799649 
L 209.652247 218.538285 
L 211.53802 243.123835 
L 213.423792 252.644878 
L 215.309564 257.128489 
L 217.195336 234.245815 
L 219.081108 241.316301 
L 220.966881 249.083664 
L 222.852653 258.62664 
L 224.738425 265.070571 
L 226.624197 256.232429 
L 228.50997 239.172288 
L 230.395742 252.46319 
L 232.281514 235.523469 
L 234.167286 255.26393 
L 236.053058 247.969575 
L 237.938831 256.93122 
L 239.824603 249.777813 
L 241.710375 237.156066 
L 243.596147 265.569359 
L 245.48192 255.439703 
L 247.367692 250.264286 
L 249.253464 259.556068 
L 251.139236 264.327481 
L 253.025008 253.59756 
L 254.910781 256.558663 
L 256.796553 257.849255 
L 258.682325 261.370192 
L 260.568097 247.426794 
L 262.45387 261.681024 
L 264.339642 241.07743 
L 266.225414 277.516949 
L 268.111186 274.379712 
L 269.996958 264.10273 
L 271.882731 261.187396 
L 273.768503 272.499513 
L 275.654275 259.666628 
L 277.540047 274.154188 
L 279.42582 259.446696 
L 281.311592 265.685831 
L 283.197364 258.994123 
L 285.083136 263.370986 
L 286.968908 273.74734 
L 288.854681 276.062915 
L 290.740453 271.071764 
L 292.626225 278.307633 
L 294.511997 260.441766 
L 296.39777 275.533604 
L 298.283542 278.04189 
L 300.169314 275.603674 
L 302.055086 277.705653 
L 303.940858 258.444225 
L 305.826631 273.714349 
L 307.712403 272.930617 
L 309.598175 260.991316 
L 311.483947 291.715421 
L 313.369719 264.820205 
L 315.255492 278.222908 
L 317.141264 285.275105 
L 319.027036 287.064154 
L 320.912808 269.663532 
L 322.798581 276.592948 
L 324.684353 285.52356 
L 326.570125 282.882665 
L 328.455897 281.052608 
L 332.227442 270.461491 
L 334.113214 282.594187 
L 335.998986 282.571911 
L 337.884758 274.847051 
L 339.770531 290.282048 
L 341.656303 293.809456 
L 343.542075 271.289696 
L 345.427847 282.463452 
L 347.313619 288.382576 
L 349.199392 286.687112 
L 351.085164 283.988937 
L 352.970936 286.454679 
L 354.856708 278.465622 
L 356.742481 284.657587 
L 358.628253 280.271288 
L 360.514025 286.583631 
L 362.399797 290.946457 
L 364.285569 281.313654 
L 366.171342 289.974206 
L 368.057114 295.26537 
L 369.942886 292.786657 
L 371.828658 291.537741 
L 373.714431 288.91052 
L 375.600203 288.80255 
L 377.485975 296.883656 
L 379.371747 293.828018 
L 381.257519 277.662738 
L 383.143292 297.520445 
L 385.029064 288.19545 
L 386.914836 295.834587 
L 388.800608 300.130211 
L 390.686381 292.104062 
L 392.572153 293.788496 
L 394.457925 290.882742 
L 396.343697 286.796959 
L 398.229469 300.440406 
L 400.115242 290.431436 
L 403.886786 291.591677 
L 405.772558 299.8812 
L 407.658331 288.907248 
L 409.544103 292.224978 
L 411.429875 298.381922 
L 413.315647 300.642554 
L 415.201419 299.483883 
L 417.087192 289.96807 
L 418.972964 301.460411 
L 420.858736 302.118999 
L 422.744508 290.967176 
L 424.630281 295.862503 
L 426.516053 299.059111 
L 428.401825 294.197329 
L 430.287597 296.043321 
L 432.173369 295.135235 
L 434.059142 302.811182 
L 435.944914 290.650126 
L 437.830686 301.86567 
L 439.716458 301.301672 
L 441.60223 283.068256 
L 443.488003 302.412933 
L 445.373775 301.195114 
L 447.259547 293.927826 
L 449.145319 303.950158 
L 451.031092 305.66741 
L 452.916864 291.374357 
L 454.802636 290.416397 
L 456.688408 296.675457 
L 458.57418 283.681507 
L 460.459953 301.356224 
L 462.345725 298.759456 
L 464.231497 295.75824 
L 466.117269 301.584422 
L 468.003042 292.591739 
L 469.888814 295.143044 
L 471.774586 297.240638 
L 473.660358 291.733732 
L 475.54613 297.49502 
L 477.431903 303.708592 
L 479.317675 294.139626 
L 481.203447 303.921677 
L 483.089219 295.921376 
L 484.974992 303.498639 
L 486.860764 302.920694 
L 488.746536 302.120948 
L 490.632308 300.149841 
L 492.51808 296.075286 
L 494.403853 297.346415 
L 496.289625 302.366645 
L 498.175397 296.226744 
L 500.061169 281.983366 
L 501.946942 305.49986 
L 503.832714 298.989875 
L 505.718486 300.820518 
L 507.604258 306.015995 
L 511.375803 291.067579 
L 513.261575 304.277614 
L 515.147347 302.890924 
L 517.033119 300.162824 
L 518.918892 302.043885 
L 520.804664 303.194103 
L 522.690436 290.151752 
L 524.576208 306.628195 
L 526.46198 302.900825 
L 528.347753 290.589023 
L 530.233525 302.589573 
L 532.119297 298.946827 
L 534.005069 299.162659 
L 535.890842 303.673434 
L 537.776614 304.311891 
L 539.662386 301.455568 
L 541.548158 298.842164 
L 543.43393 291.710529 
L 545.319703 301.661782 
L 547.205475 303.874291 
L 549.091247 305.554374 
L 550.977019 296.066746 
L 552.862791 300.162113 
L 554.748564 303.865522 
L 556.634336 305.280132 
L 558.520108 285.356815 
L 560.40588 303.99513 
L 562.291653 303.837531 
L 564.177425 290.530747 
L 566.063197 300.456105 
L 567.948969 302.311403 
L 569.834741 301.886164 
L 571.720514 300.175583 
L 573.606286 301.031607 
L 575.492058 305.578277 
L 577.37783 302.724763 
L 579.263603 297.443449 
L 581.149375 297.166833 
L 583.035147 301.260329 
L 584.920919 298.739572 
L 586.806691 300.474974 
L 588.692464 304.803664 
L 590.578236 295.635632 
L 592.464008 303.391739 
L 594.34978 299.696354 
L 596.235553 305.580481 
L 598.121325 293.940062 
L 600.007097 294.423257 
L 601.892869 300.485694 
L 603.778641 301.611361 
L 605.664414 301.572048 
L 607.550186 307.8 
L 609.435958 304.729342 
L 611.32173 302.639853 
L 613.207503 303.428117 
L 615.093275 297.426478 
L 616.979047 301.876919 
L 618.864819 299.275083 
L 620.750591 291.53272 
L 622.636364 301.384145 
L 622.636364 301.384145 
" clip-path="url(#p023271b48a)" style="fill: none; stroke: #ff7f0e; stroke-width: 1.5; stroke-linecap: square"/>
   </g>
   <g id="patch_3">
    <path d="M 90 320.4 
L 90 43.2 
" style="fill: none; stroke: #000000; stroke-width: 0.8; stroke-linejoin: miter; stroke-linecap: square"/>
   </g>
   <g id="patch_4">
    <path d="M 648 320.4 
L 648 43.2 
" style="fill: none; stroke: #000000; stroke-width: 0.8; stroke-linejoin: miter; stroke-linecap: square"/>
   </g>
   <g id="patch_5">
    <path d="M 90 320.4 
L 648 320.4 
" style="fill: none; stroke: #000000; stroke-width: 0.8; stroke-linejoin: miter; stroke-linecap: square"/>
   </g>
   <g id="patch_6">
    <path d="M 90 43.2 
L 648 43.2 
" style="fill: none; stroke: #000000; stroke-width: 0.8; stroke-linejoin: miter; stroke-linecap: square"/>
   </g>
   <g id="text_12">
    <!-- Training and Validating Total Loss -->
    <g transform="translate(269.474063 37.2) scale(0.12 -0.12)">
     <defs>
      <path id="DejaVuSans-72" d="M 2631 2963 
Q 2534 3019 2420 3045 
Q 2306 3072 2169 3072 
Q 1681 3072 1420 2755 
Q 1159 2438 1159 1844 
L 1159 0 
L 581 0 
L 581 3500 
L 1159 3500 
L 1159 2956 
Q 1341 3275 1631 3429 
Q 1922 3584 2338 3584 
Q 2397 3584 2469 3576 
Q 2541 3569 2628 3553 
L 2631 2963 
z
" transform="scale(0.015625)"/>
      <path id="DejaVuSans-69" d="M 603 3500 
L 1178 3500 
L 1178 0 
L 603 0 
L 603 3500 
z
M 603 4863 
L 1178 4863 
L 1178 4134 
L 603 4134 
L 603 4863 
z
" transform="scale(0.015625)"/>
      <path id="DejaVuSans-6e" d="M 3513 2113 
L 3513 0 
L 2938 0 
L 2938 2094 
Q 2938 2591 2744 2837 
Q 2550 3084 2163 3084 
Q 1697 3084 1428 2787 
Q 1159 2491 1159 1978 
L 1159 0 
L 581 0 
L 581 3500 
L 1159 3500 
L 1159 2956 
Q 1366 3272 1645 3428 
Q 1925 3584 2291 3584 
Q 2894 3584 3203 3211 
Q 3513 2838 3513 2113 
z
" transform="scale(0.015625)"/>
      <path id="DejaVuSans-67" d="M 2906 1791 
Q 2906 2416 2648 2759 
Q 2391 3103 1925 3103 
Q 1463 3103 1205 2759 
Q 947 2416 947 1791 
Q 947 1169 1205 825 
Q 1463 481 1925 481 
Q 2391 481 2648 825 
Q 2906 1169 2906 1791 
z
M 3481 434 
Q 3481 -459 3084 -895 
Q 2688 -1331 1869 -1331 
Q 1566 -1331 1297 -1286 
Q 1028 -1241 775 -1147 
L 775 -588 
Q 1028 -725 1275 -790 
Q 1522 -856 1778 -856 
Q 2344 -856 2625 -561 
Q 2906 -266 2906 331 
L 2906 616 
Q 2728 306 2450 153 
Q 2172 0 1784 0 
Q 1141 0 747 490 
Q 353 981 353 1791 
Q 353 2603 747 3093 
Q 1141 3584 1784 3584 
Q 2172 3584 2450 3431 
Q 2728 3278 2906 2969 
L 2906 3500 
L 3481 3500 
L 3481 434 
z
" transform="scale(0.015625)"/>
      <path id="DejaVuSans-64" d="M 2906 2969 
L 2906 4863 
L 3481 4863 
L 3481 0 
L 2906 0 
L 2906 525 
Q 2725 213 2448 61 
Q 2172 -91 1784 -91 
Q 1150 -91 751 415 
Q 353 922 353 1747 
Q 353 2572 751 3078 
Q 1150 3584 1784 3584 
Q 2172 3584 2448 3432 
Q 2725 3281 2906 2969 
z
M 947 1747 
Q 947 1113 1208 752 
Q 1469 391 1925 391 
Q 2381 391 2643 752 
Q 2906 1113 2906 1747 
Q 2906 2381 2643 2742 
Q 2381 3103 1925 3103 
Q 1469 3103 1208 2742 
Q 947 2381 947 1747 
z
" transform="scale(0.015625)"/>
      <path id="DejaVuSans-56" d="M 1831 0 
L 50 4666 
L 709 4666 
L 2188 738 
L 3669 4666 
L 4325 4666 
L 2547 0 
L 1831 0 
z
" transform="scale(0.015625)"/>
     </defs>
     <use xlink:href="#DejaVuSans-54"/>
     <use xlink:href="#DejaVuSans-72" transform="translate(46.333984 0)"/>
     <use xlink:href="#DejaVuSans-61" transform="translate(87.447266 0)"/>
     <use xlink:href="#DejaVuSans-69" transform="translate(148.726562 0)"/>
     <use xlink:href="#DejaVuSans-6e" transform="translate(176.509766 0)"/>
     <use xlink:href="#DejaVuSans-69" transform="translate(239.888672 0)"/>
     <use xlink:href="#DejaVuSans-6e" transform="translate(267.671875 0)"/>
     <use xlink:href="#DejaVuSans-67" transform="translate(331.050781 0)"/>
     <use xlink:href="#DejaVuSans-20" transform="translate(394.527344 0)"/>
     <use xlink:href="#DejaVuSans-61" transform="translate(426.314453 0)"/>
     <use xlink:href="#DejaVuSans-6e" transform="translate(487.59375 0)"/>
     <use xlink:href="#DejaVuSans-64" transform="translate(550.972656 0)"/>
     <use xlink:href="#DejaVuSans-20" transform="translate(614.449219 0)"/>
     <use xlink:href="#DejaVuSans-56" transform="translate(646.236328 0)"/>
     <use xlink:href="#DejaVuSans-61" transform="translate(706.894531 0)"/>
     <use xlink:href="#DejaVuSans-6c" transform="translate(768.173828 0)"/>
     <use xlink:href="#DejaVuSans-69" transform="translate(795.957031 0)"/>
     <use xlink:href="#DejaVuSans-64" transform="translate(823.740234 0)"/>
     <use xlink:href="#DejaVuSans-61" transform="translate(887.216797 0)"/>
     <use xlink:href="#DejaVuSans-74" transform="translate(948.496094 0)"/>
     <use xlink:href="#DejaVuSans-69" transform="translate(987.705078 0)"/>
     <use xlink:href="#DejaVuSans-6e" transform="translate(1015.488281 0)"/>
     <use xlink:href="#DejaVuSans-67" transform="translate(1078.867188 0)"/>
     <use xlink:href="#DejaVuSans-20" transform="translate(1142.34375 0)"/>
     <use xlink:href="#DejaVuSans-54" transform="translate(1174.130859 0)"/>
     <use xlink:href="#DejaVuSans-6f" transform="translate(1218.214844 0)"/>
     <use xlink:href="#DejaVuSans-74" transform="translate(1279.396484 0)"/>
     <use xlink:href="#DejaVuSans-61" transform="translate(1318.605469 0)"/>
     <use xlink:href="#DejaVuSans-6c" transform="translate(1379.884766 0)"/>
     <use xlink:href="#DejaVuSans-20" transform="translate(1407.667969 0)"/>
     <use xlink:href="#DejaVuSans-4c" transform="translate(1439.455078 0)"/>
     <use xlink:href="#DejaVuSans-6f" transform="translate(1493.417969 0)"/>
     <use xlink:href="#DejaVuSans-73" transform="translate(1554.599609 0)"/>
     <use xlink:href="#DejaVuSans-73" transform="translate(1606.699219 0)"/>
    </g>
   </g>
   <g id="legend_1">
    <g id="patch_7">
     <path d="M 559.389063 80.55625 
L 641 80.55625 
Q 643 80.55625 643 78.55625 
L 643 50.2 
Q 643 48.2 641 48.2 
L 559.389063 48.2 
Q 557.389063 48.2 557.389063 50.2 
L 557.389063 78.55625 
Q 557.389063 80.55625 559.389063 80.55625 
z
" style="fill: #ffffff; opacity: 0.8; stroke: #cccccc; stroke-linejoin: miter"/>
    </g>
    <g id="line2d_12">
     <path d="M 561.389063 56.298437 
L 571.389063 56.298437 
L 581.389063 56.298437 
" style="fill: none; stroke: #1f77b4; stroke-width: 1.5; stroke-linecap: square"/>
    </g>
    <g id="text_13">
     <!-- Training -->
     <g transform="translate(589.389063 59.798437) scale(0.1 -0.1)">
      <use xlink:href="#DejaVuSans-54"/>
      <use xlink:href="#DejaVuSans-72" transform="translate(46.333984 0)"/>
      <use xlink:href="#DejaVuSans-61" transform="translate(87.447266 0)"/>
      <use xlink:href="#DejaVuSans-69" transform="translate(148.726562 0)"/>
      <use xlink:href="#DejaVuSans-6e" transform="translate(176.509766 0)"/>
      <use xlink:href="#DejaVuSans-69" transform="translate(239.888672 0)"/>
      <use xlink:href="#DejaVuSans-6e" transform="translate(267.671875 0)"/>
      <use xlink:href="#DejaVuSans-67" transform="translate(331.050781 0)"/>
     </g>
    </g>
    <g id="line2d_13">
     <path d="M 561.389063 70.976562 
L 571.389063 70.976562 
L 581.389063 70.976562 
" style="fill: none; stroke: #ff7f0e; stroke-width: 1.5; stroke-linecap: square"/>
    </g>
    <g id="text_14">
     <!-- Validating -->
     <g transform="translate(589.389063 74.476562) scale(0.1 -0.1)">
      <use xlink:href="#DejaVuSans-56"/>
      <use xlink:href="#DejaVuSans-61" transform="translate(60.658203 0)"/>
      <use xlink:href="#DejaVuSans-6c" transform="translate(121.9375 0)"/>
      <use xlink:href="#DejaVuSans-69" transform="translate(149.720703 0)"/>
      <use xlink:href="#DejaVuSans-64" transform="translate(177.503906 0)"/>
      <use xlink:href="#DejaVuSans-61" transform="translate(240.980469 0)"/>
      <use xlink:href="#DejaVuSans-74" transform="translate(302.259766 0)"/>
      <use xlink:href="#DejaVuSans-69" transform="translate(341.46875 0)"/>
      <use xlink:href="#DejaVuSans-6e" transform="translate(369.251953 0)"/>
      <use xlink:href="#DejaVuSans-67" transform="translate(432.630859 0)"/>
     </g>
    </g>
   </g>
  </g>
 </g>
 <defs>
  <clipPath id="p023271b48a">
   <rect x="90" y="43.2" width="558" height="277.2"/>
  </clipPath>
 </defs>
</svg>
