<?xml version="1.0" encoding="utf-8" standalone="no"?>
<!DOCTYPE svg PUBLIC "-//W3C//DTD SVG 1.1//EN"
  "http://www.w3.org/Graphics/SVG/1.1/DTD/svg11.dtd">
<svg xmlns:xlink="http://www.w3.org/1999/xlink" width="720pt" height="360pt" viewBox="0 0 720 360" xmlns="http://www.w3.org/2000/svg" version="1.1">
 <metadata>
  <rdf:RDF xmlns:dc="http://purl.org/dc/elements/1.1/" xmlns:cc="http://creativecommons.org/ns#" xmlns:rdf="http://www.w3.org/1999/02/22-rdf-syntax-ns#">
   <cc:Work>
    <dc:type rdf:resource="http://purl.org/dc/dcmitype/StillImage"/>
    <dc:date>2026-03-06T14:52:56.112722</dc:date>
    <dc:format>image/svg+xml</dc:format>
    <dc:creator>
     <cc:Agent>
      <dc:title>Matplotlib v3.10.1, https://matplotlib.org/</dc:title>
     </cc:Agent>
    </dc:creator>
   </cc:Work>
  </rdf:RDF>
 </metadata>
 <defs>
  <style type="text/css">*{stroke-linejoin: round; stroke-linecap: butt}</style>
 </defs>
 <g id="figure_1">
  <g id="patch_1">
   <path d="M 0 360 
L 720 360 
L 720 0 
L 0 0 
z
" style="fill: #ffffff"/>
  </g>
  <g id="axes_1">
   <g id="patch_2">
    <path d="M 90 320.4 
L 648 320.4 
L 648 43.2 
L 90 43.2 
z
" style="fill: #ffffff"/>
   </g>
   <g id="matplotlib.axis_1">
    <g id="xtick_1">
     <g id="line2d_1">
      <defs>
       <path id="ma4e66d6e96" d="M 0 0 
L 0 3.5 
" style="stroke: #000000; stroke-width: 0.8"/>
      </defs>
      <g>
       <use xlink:href="#ma4e66d6e96" x="115.363636" y="320.4" style="stroke: #000000; stroke-width: 0.8"/>
      </g>
     </g>
     <g id="text_1">
      <!-- 0 -->
      <g transform="translate(112.182386 334.998438) scale(0.1 -0.1)">
       <defs>
        <path id="DejaVuSans-30" d="M 2034 4250 
Q 1547 4250 1301 3770 
Q 1056 3291 1056 2328 
Q 1056 1369 1301 889 
Q 1547 409 2034 409 
Q 2525 409 2770 889 
Q 3016 1369 3016 2328 
Q 3016 3291 2770 3770 
Q 2525 4250 2034 4250 
z
M 2034 4750 
Q 2819 4750 3233 4129 
Q 3647 3509 3647 2328 
Q 3647 1150 3233 529 
Q 2819 -91 2034 -91 
Q 1250 -91 836 529 
Q 422 1150 422 2328 
Q 422 3509 836 4129 
Q 1250 4750 2034 4750 
z
" transform="scale(0.015625)"/>
       </defs>
       <use xlink:href="#DejaVuSans-30"/>
      </g>
     </g>
    </g>
    <g id="xtick_2">
     <g id="line2d_2">
      <g>
       <use xlink:href="#ma4e66d6e96" x="217.157495" y="320.4" style="stroke: #000000; stroke-width: 0.8"/>
      </g>
     </g>
     <g id="text_2">
      <!-- 60 -->
      <g transform="translate(210.794995 334.998438) scale(0.1 -0.1)">
       <defs>
        <path id="DejaVuSans-36" d="M 2113 2584 
Q 1688 2584 1439 2293 
Q 1191 2003 1191 1497 
Q 1191 994 1439 701 
Q 1688 409 2113 409 
Q 2538 409 2786 701 
Q 3034 994 3034 1497 
Q 3034 2003 2786 2293 
Q 2538 2584 2113 2584 
z
M 3366 4563 
L 3366 3988 
Q 3128 4100 2886 4159 
Q 2644 4219 2406 4219 
Q 1781 4219 1451 3797 
Q 1122 3375 1075 2522 
Q 1259 2794 1537 2939 
Q 1816 3084 2150 3084 
Q 2853 3084 3261 2657 
Q 3669 2231 3669 1497 
Q 3669 778 3244 343 
Q 2819 -91 2113 -91 
Q 1303 -91 875 529 
Q 447 1150 447 2328 
Q 447 3434 972 4092 
Q 1497 4750 2381 4750 
Q 2619 4750 2861 4703 
Q 3103 4656 3366 4563 
z
" transform="scale(0.015625)"/>
       </defs>
       <use xlink:href="#DejaVuSans-36"/>
       <use xlink:href="#DejaVuSans-30" transform="translate(63.623047 0)"/>
      </g>
     </g>
    </g>
    <g id="xtick_3">
     <g id="line2d_3">
      <g>
       <use xlink:href="#ma4e66d6e96" x="318.951353" y="320.4" style="stroke: #000000; stroke-width: 0.8"/>
      </g>
     </g>
     <g id="text_3">
      <!-- 120 -->
      <g transform="translate(309.407603 334.998438) scale(0.1 -0.1)">
       <defs>
        <path id="DejaVuSans-31" d="M 794 531 
L 1825 531 
L 1825 4091 
L 703 3866 
L 703 4441 
L 1819 4666 
L 2450 4666 
L 2450 531 
L 3481 531 
L 3481 0 
L 794 0 
L 794 531 
z
" transform="scale(0.015625)"/>
        <path id="DejaVuSans-32" d="M 1228 531 
L 3431 531 
L 3431 0 
L 469 0 
L 469 531 
Q 828 903 1448 1529 
Q 2069 2156 2228 2338 
Q 2531 2678 2651 2914 
Q 2772 3150 2772 3378 
Q 2772 3750 2511 3984 
Q 2250 4219 1831 4219 
Q 1534 4219 1204 4116 
Q 875 4013 500 3803 
L 500 4441 
Q 881 4594 1212 4672 
Q 1544 4750 1819 4750 
Q 2544 4750 2975 4387 
Q 3406 4025 3406 3419 
Q 3406 3131 3298 2873 
Q 3191 2616 2906 2266 
Q 2828 2175 2409 1742 
Q 1991 1309 1228 531 
z
" transform="scale(0.015625)"/>
       </defs>
       <use xlink:href="#DejaVuSans-31"/>
       <use xlink:href="#DejaVuSans-32" transform="translate(63.623047 0)"/>
       <use xlink:href="#DejaVuSans-30" transform="translate(127.246094 0)"/>
      </g>
     </g>
    </g>
    <g id="xtick_4">
     <g id="line2d_4">
      <g>
       <use xlink:href="#ma4e66d6e96" x="420.745211" y="320.4" style="stroke: #000000; stroke-width: 0.8"/>
      </g>
     </g>
     <g id="text_4">
      <!-- 180 -->
      <g transform="translate(411.201461 334.998438) scale(0.1 -0.1)">
       <defs>
        <path id="DejaVuSans-38" d="M 2034 2216 
Q 1584 2216 1326 1975 
Q 1069 1734 1069 1313 
Q 1069 891 1326 650 
Q 1584 409 2034 409 
Q 2484 409 2743 651 
Q 3003 894 3003 1313 
Q 3003 1734 2745 1975 
Q 2488 2216 2034 2216 
z
M 1403 2484 
Q 997 2584 770 2862 
Q 544 3141 544 3541 
Q 544 4100 942 4425 
Q 1341 4750 2034 4750 
Q 2731 4750 3128 4425 
Q 3525 4100 3525 3541 
Q 3525 3141 3298 2862 
Q 3072 2584 2669 2484 
Q 3125 2378 3379 2068 
Q 3634 1759 3634 1313 
Q 3634 634 3220 271 
Q 2806 -91 2034 -91 
Q 1263 -91 848 271 
Q 434 634 434 1313 
Q 434 1759 690 2068 
Q 947 2378 1403 2484 
z
M 1172 3481 
Q 1172 3119 1398 2916 
Q 1625 2713 2034 2713 
Q 2441 2713 2670 2916 
Q 2900 3119 2900 3481 
Q 2900 3844 2670 4047 
Q 2441 4250 2034 4250 
Q 1625 4250 1398 4047 
Q 1172 3844 1172 3481 
z
" transform="scale(0.015625)"/>
       </defs>
       <use xlink:href="#DejaVuSans-31"/>
       <use xlink:href="#DejaVuSans-38" transform="translate(63.623047 0)"/>
       <use xlink:href="#DejaVuSans-30" transform="translate(127.246094 0)"/>
      </g>
     </g>
    </g>
    <g id="xtick_5">
     <g id="line2d_5">
      <g>
       <use xlink:href="#ma4e66d6e96" x="522.53907" y="320.4" style="stroke: #000000; stroke-width: 0.8"/>
      </g>
     </g>
     <g id="text_5">
      <!-- 240 -->
      <g transform="translate(512.99532 334.998438) scale(0.1 -0.1)">
       <defs>
        <path id="DejaVuSans-34" d="M 2419 4116 
L 825 1625 
L 2419 1625 
L 2419 4116 
z
M 2253 4666 
L 3047 4666 
L 3047 1625 
L 3713 1625 
L 3713 1100 
L 3047 1100 
L 3047 0 
L 2419 0 
L 2419 1100 
L 313 1100 
L 313 1709 
L 2253 4666 
z
" transform="scale(0.015625)"/>
       </defs>
       <use xlink:href="#DejaVuSans-32"/>
       <use xlink:href="#DejaVuSans-34" transform="translate(63.623047 0)"/>
       <use xlink:href="#DejaVuSans-30" transform="translate(127.246094 0)"/>
      </g>
     </g>
    </g>
    <g id="text_6">
     <!-- Epoch -->
     <g transform="translate(353.689062 348.676562) scale(0.1 -0.1)">
      <defs>
       <path id="DejaVuSans-45" d="M 628 4666 
L 3578 4666 
L 3578 4134 
L 1259 4134 
L 1259 2753 
L 3481 2753 
L 3481 2222 
L 1259 2222 
L 1259 531 
L 3634 531 
L 3634 0 
L 628 0 
L 628 4666 
z
" transform="scale(0.015625)"/>
       <path id="DejaVuSans-70" d="M 1159 525 
L 1159 -1331 
L 581 -1331 
L 581 3500 
L 1159 3500 
L 1159 2969 
Q 1341 3281 1617 3432 
Q 1894 3584 2278 3584 
Q 2916 3584 3314 3078 
Q 3713 2572 3713 1747 
Q 3713 922 3314 415 
Q 2916 -91 2278 -91 
Q 1894 -91 1617 61 
Q 1341 213 1159 525 
z
M 3116 1747 
Q 3116 2381 2855 2742 
Q 2594 3103 2138 3103 
Q 1681 3103 1420 2742 
Q 1159 2381 1159 1747 
Q 1159 1113 1420 752 
Q 1681 391 2138 391 
Q 2594 391 2855 752 
Q 3116 1113 3116 1747 
z
" transform="scale(0.015625)"/>
       <path id="DejaVuSans-6f" d="M 1959 3097 
Q 1497 3097 1228 2736 
Q 959 2375 959 1747 
Q 959 1119 1226 758 
Q 1494 397 1959 397 
Q 2419 397 2687 759 
Q 2956 1122 2956 1747 
Q 2956 2369 2687 2733 
Q 2419 3097 1959 3097 
z
M 1959 3584 
Q 2709 3584 3137 3096 
Q 3566 2609 3566 1747 
Q 3566 888 3137 398 
Q 2709 -91 1959 -91 
Q 1206 -91 779 398 
Q 353 888 353 1747 
Q 353 2609 779 3096 
Q 1206 3584 1959 3584 
z
" transform="scale(0.015625)"/>
       <path id="DejaVuSans-63" d="M 3122 3366 
L 3122 2828 
Q 2878 2963 2633 3030 
Q 2388 3097 2138 3097 
Q 1578 3097 1268 2742 
Q 959 2388 959 1747 
Q 959 1106 1268 751 
Q 1578 397 2138 397 
Q 2388 397 2633 464 
Q 2878 531 3122 666 
L 3122 134 
Q 2881 22 2623 -34 
Q 2366 -91 2075 -91 
Q 1284 -91 818 406 
Q 353 903 353 1747 
Q 353 2603 823 3093 
Q 1294 3584 2113 3584 
Q 2378 3584 2631 3529 
Q 2884 3475 3122 3366 
z
" transform="scale(0.015625)"/>
       <path id="DejaVuSans-68" d="M 3513 2113 
L 3513 0 
L 2938 0 
L 2938 2094 
Q 2938 2591 2744 2837 
Q 2550 3084 2163 3084 
Q 1697 3084 1428 2787 
Q 1159 2491 1159 1978 
L 1159 0 
L 581 0 
L 581 4863 
L 1159 4863 
L 1159 2956 
Q 1366 3272 1645 3428 
Q 1925 3584 2291 3584 
Q 2894 3584 3203 3211 
Q 3513 2838 3513 2113 
z
" transform="scale(0.015625)"/>
      </defs>
      <use xlink:href="#DejaVuSans-45"/>
      <use xlink:href="#DejaVuSans-70" transform="translate(63.183594 0)"/>
      <use xlink:href="#DejaVuSans-6f" transform="translate(126.660156 0)"/>
      <use xlink:href="#DejaVuSans-63" transform="translate(187.841797 0)"/>
      <use xlink:href="#DejaVuSans-68" transform="translate(242.822266 0)"/>
     </g>
    </g>
   </g>
   <g id="matplotlib.axis_2">
    <g id="ytick_1">
     <g id="line2d_6">
      <defs>
       <path id="m03cae132e6" d="M 0 0 
L -3.5 0 
" style="stroke: #000000; stroke-width: 0.8"/>
      </defs>
      <g>
       <use xlink:href="#m03cae132e6" x="90" y="277.201895" style="stroke: #000000; stroke-width: 0.8"/>
      </g>
     </g>
     <g id="text_7">
      <!-- 0.02 -->
      <g transform="translate(60.734375 281.001113) scale(0.1 -0.1)">
       <defs>
        <path id="DejaVuSans-2e" d="M 684 794 
L 1344 794 
L 1344 0 
L 684 0 
L 684 794 
z
" transform="scale(0.015625)"/>
       </defs>
       <use xlink:href="#DejaVuSans-30"/>
       <use xlink:href="#DejaVuSans-2e" transform="translate(63.623047 0)"/>
       <use xlink:href="#DejaVuSans-30" transform="translate(95.410156 0)"/>
       <use xlink:href="#DejaVuSans-32" transform="translate(159.033203 0)"/>
      </g>
     </g>
    </g>
    <g id="ytick_2">
     <g id="line2d_7">
      <g>
       <use xlink:href="#m03cae132e6" x="90" y="231.690046" style="stroke: #000000; stroke-width: 0.8"/>
      </g>
     </g>
     <g id="text_8">
      <!-- 0.04 -->
      <g transform="translate(60.734375 235.489265) scale(0.1 -0.1)">
       <use xlink:href="#DejaVuSans-30"/>
       <use xlink:href="#DejaVuSans-2e" transform="translate(63.623047 0)"/>
       <use xlink:href="#DejaVuSans-30" transform="translate(95.410156 0)"/>
       <use xlink:href="#DejaVuSans-34" transform="translate(159.033203 0)"/>
      </g>
     </g>
    </g>
    <g id="ytick_3">
     <g id="line2d_8">
      <g>
       <use xlink:href="#m03cae132e6" x="90" y="186.178198" style="stroke: #000000; stroke-width: 0.8"/>
      </g>
     </g>
     <g id="text_9">
      <!-- 0.06 -->
      <g transform="translate(60.734375 189.977416) scale(0.1 -0.1)">
       <use xlink:href="#DejaVuSans-30"/>
       <use xlink:href="#DejaVuSans-2e" transform="translate(63.623047 0)"/>
       <use xlink:href="#DejaVuSans-30" transform="translate(95.410156 0)"/>
       <use xlink:href="#DejaVuSans-36" transform="translate(159.033203 0)"/>
      </g>
     </g>
    </g>
    <g id="ytick_4">
     <g id="line2d_9">
      <g>
       <use xlink:href="#m03cae132e6" x="90" y="140.666349" style="stroke: #000000; stroke-width: 0.8"/>
      </g>
     </g>
     <g id="text_10">
      <!-- 0.08 -->
      <g transform="translate(60.734375 144.465568) scale(0.1 -0.1)">
       <use xlink:href="#DejaVuSans-30"/>
       <use xlink:href="#DejaVuSans-2e" transform="translate(63.623047 0)"/>
       <use xlink:href="#DejaVuSans-30" transform="translate(95.410156 0)"/>
       <use xlink:href="#DejaVuSans-38" transform="translate(159.033203 0)"/>
      </g>
     </g>
    </g>
    <g id="ytick_5">
     <g id="line2d_10">
      <g>
       <use xlink:href="#m03cae132e6" x="90" y="95.154501" style="stroke: #000000; stroke-width: 0.8"/>
      </g>
     </g>
     <g id="text_11">
      <!-- 0.10 -->
      <g transform="translate(60.734375 98.95372) scale(0.1 -0.1)">
       <use xlink:href="#DejaVuSans-30"/>
       <use xlink:href="#DejaVuSans-2e" transform="translate(63.623047 0)"/>
       <use xlink:href="#DejaVuSans-31" transform="translate(95.410156 0)"/>
       <use xlink:href="#DejaVuSans-30" transform="translate(159.033203 0)"/>
      </g>
     </g>
    </g>
    <g id="ytick_6">
     <g id="line2d_11">
      <g>
       <use xlink:href="#m03cae132e6" x="90" y="49.642653" style="stroke: #000000; stroke-width: 0.8"/>
      </g>
     </g>
     <g id="text_12">
      <!-- 0.12 -->
      <g transform="translate(60.734375 53.441871) scale(0.1 -0.1)">
       <use xlink:href="#DejaVuSans-30"/>
       <use xlink:href="#DejaVuSans-2e" transform="translate(63.623047 0)"/>
       <use xlink:href="#DejaVuSans-31" transform="translate(95.410156 0)"/>
       <use xlink:href="#DejaVuSans-32" transform="translate(159.033203 0)"/>
      </g>
     </g>
    </g>
    <g id="text_13">
     <!-- Loss -->
     <g transform="translate(54.654688 192.767187) rotate(-90) scale(0.1 -0.1)">
      <defs>
       <path id="DejaVuSans-4c" d="M 628 4666 
L 1259 4666 
L 1259 531 
L 3531 531 
L 3531 0 
L 628 0 
L 628 4666 
z
" transform="scale(0.015625)"/>
       <path id="DejaVuSans-73" d="M 2834 3397 
L 2834 2853 
Q 2591 2978 2328 3040 
Q 2066 3103 1784 3103 
Q 1356 3103 1142 2972 
Q 928 2841 928 2578 
Q 928 2378 1081 2264 
Q 1234 2150 1697 2047 
L 1894 2003 
Q 2506 1872 2764 1633 
Q 3022 1394 3022 966 
Q 3022 478 2636 193 
Q 2250 -91 1575 -91 
Q 1294 -91 989 -36 
Q 684 19 347 128 
L 347 722 
Q 666 556 975 473 
Q 1284 391 1588 391 
Q 1994 391 2212 530 
Q 2431 669 2431 922 
Q 2431 1156 2273 1281 
Q 2116 1406 1581 1522 
L 1381 1569 
Q 847 1681 609 1914 
Q 372 2147 372 2553 
Q 372 3047 722 3315 
Q 1072 3584 1716 3584 
Q 2034 3584 2315 3537 
Q 2597 3491 2834 3397 
z
" transform="scale(0.015625)"/>
      </defs>
      <use xlink:href="#DejaVuSans-4c"/>
      <use xlink:href="#DejaVuSans-6f" transform="translate(53.962891 0)"/>
      <use xlink:href="#DejaVuSans-73" transform="translate(115.144531 0)"/>
      <use xlink:href="#DejaVuSans-73" transform="translate(167.244141 0)"/>
     </g>
    </g>
   </g>
   <g id="line2d_12">
    <path d="M 115.363636 146.178463 
L 117.060201 250.356056 
L 118.756765 260.653239 
L 120.453329 266.180008 
L 122.149894 269.979327 
L 123.846458 272.828433 
L 125.543022 275.052218 
L 127.239587 276.8691 
L 128.936151 278.411182 
L 130.632715 279.741037 
L 132.329279 280.901584 
L 135.722408 282.844452 
L 139.115537 284.420751 
L 142.508665 285.724729 
L 147.598358 287.31045 
L 152.688051 288.587376 
L 157.777744 289.646091 
L 164.564001 290.808443 
L 173.046823 291.990656 
L 183.226209 293.155305 
L 196.798723 294.429523 
L 212.067802 295.617709 
L 229.033445 296.730319 
L 252.785345 298.035248 
L 285.020067 299.493997 
L 320.647917 300.841391 
L 363.062025 302.202992 
L 417.352083 303.682191 
L 480.124962 305.149169 
L 541.201277 306.380811 
L 622.636364 307.8 
L 622.636364 307.8 
" clip-path="url(#pbb2fdf9192)" style="fill: none; stroke: #1f77b4; stroke-width: 1.5; stroke-linecap: square"/>
   </g>
   <g id="line2d_13">
    <path d="M 115.363636 232.623106 
L 117.060201 252.283196 
L 118.756765 261.388801 
L 120.453329 266.930823 
L 122.149894 269.979846 
L 123.846458 272.192489 
L 125.543022 274.111735 
L 128.936151 277.164597 
L 130.632715 278.579962 
L 132.329279 279.68142 
L 134.025844 280.632422 
L 139.115537 282.859907 
L 142.508665 284.02128 
L 144.20523 284.589105 
L 145.901794 284.917522 
L 149.294922 285.780278 
L 156.08118 287.007797 
L 164.564001 288.136172 
L 176.439951 289.274334 
L 191.70903 290.271613 
L 200.191852 290.662752 
L 203.58498 290.814314 
L 210.371237 291.035347 
L 237.516266 292.047329 
L 242.605959 292.195214 
L 281.626938 293.296484 
L 295.199453 293.492202 
L 327.434175 293.936018 
L 357.972332 294.067592 
L 363.062025 294.070575 
L 383.420797 294.060018 
L 395.296747 294.047984 
L 405.476133 294.017489 
L 412.26239 293.968671 
L 422.441776 293.926364 
L 436.01429 293.827565 
L 515.752812 293.220055 
L 531.021891 293.054284 
L 551.380663 292.782743 
L 595.491335 292.361805 
L 600.581028 292.295137 
L 617.546671 292.163423 
L 622.636364 292.080201 
L 622.636364 292.080201 
" clip-path="url(#pbb2fdf9192)" style="fill: none; stroke: #ff7f0e; stroke-width: 1.5; stroke-linecap: square"/>
   </g>
   <g id="line2d_14">
    <path d="M 115.363636 92.909098 
L 117.060201 139.397573 
L 118.756765 156.217868 
L 120.453329 166.49917 
L 122.149894 169.491809 
L 123.846458 170.961695 
L 125.543022 171.290832 
L 127.239587 171.8822 
L 128.936151 173.079478 
L 132.329279 176.391233 
L 134.025844 177.668878 
L 135.722408 179.135835 
L 137.418972 179.966164 
L 139.115537 180.992481 
L 140.812101 181.663389 
L 142.508665 182.015036 
L 144.20523 182.096268 
L 145.901794 182.975826 
L 147.598358 183.369694 
L 150.991487 183.383162 
L 152.688051 182.681638 
L 154.384615 182.268813 
L 156.08118 181.584726 
L 164.564001 179.672344 
L 166.260566 178.730291 
L 167.95713 178.37246 
L 169.653694 177.86775 
L 173.046823 176.255825 
L 176.439951 174.629435 
L 183.226209 170.827378 
L 188.315901 167.123081 
L 190.012466 166.218577 
L 191.70903 165.555798 
L 195.102159 163.532225 
L 196.798723 162.369789 
L 200.191852 160.587698 
L 203.58498 158.385193 
L 205.281545 157.380249 
L 206.978109 156.731643 
L 208.674673 155.881998 
L 210.371237 155.244887 
L 212.067802 154.962841 
L 213.764366 154.037739 
L 215.46093 153.404021 
L 217.157495 152.976672 
L 222.247188 150.903906 
L 223.943752 150.58436 
L 225.640316 150.0001 
L 227.336881 149.281361 
L 230.730009 148.407148 
L 232.426573 147.574739 
L 234.123138 147.374164 
L 235.819702 146.453012 
L 239.212831 145.695957 
L 240.909395 144.97854 
L 247.695652 143.084075 
L 249.392216 143.006448 
L 251.088781 142.412952 
L 254.481909 141.572944 
L 256.178474 141.382573 
L 257.875038 140.943767 
L 259.571602 140.328625 
L 261.268167 139.946839 
L 264.661295 139.405021 
L 268.054424 138.297496 
L 269.750988 138.106183 
L 271.447552 137.436405 
L 273.144117 137.232553 
L 285.020067 134.89297 
L 286.716631 134.386403 
L 288.413196 134.099587 
L 290.10976 133.468052 
L 293.502888 132.958426 
L 295.199453 132.696477 
L 307.075403 130.080049 
L 308.771967 129.521204 
L 310.468531 129.41317 
L 312.165096 128.805274 
L 313.86166 128.344939 
L 317.254789 127.693172 
L 318.951353 127.154884 
L 320.647917 126.95818 
L 324.041046 125.958125 
L 325.73761 125.205863 
L 327.434175 124.887589 
L 329.130739 124.686285 
L 330.827303 124.041285 
L 332.523867 123.595815 
L 334.220432 123.437805 
L 335.916996 122.885757 
L 337.61356 122.50882 
L 342.703253 120.93672 
L 344.399818 120.459555 
L 346.096382 120.219909 
L 349.48951 119.071789 
L 351.186075 118.78904 
L 352.882639 118.22435 
L 354.579203 117.843723 
L 359.668896 116.43978 
L 361.365461 115.676277 
L 363.062025 115.380308 
L 364.758589 114.76374 
L 369.848282 113.464442 
L 371.544846 112.70808 
L 373.241411 112.327038 
L 374.937975 111.721366 
L 378.331104 110.811652 
L 380.027668 110.498774 
L 390.207054 107.677208 
L 393.600182 106.804658 
L 396.993311 105.658616 
L 398.689875 105.506169 
L 400.38644 104.995561 
L 402.083004 104.120839 
L 403.779568 103.977247 
L 407.172697 103.061825 
L 412.26239 101.557773 
L 413.958954 100.922199 
L 417.352083 100.18826 
L 419.048647 99.612274 
L 420.745211 99.199534 
L 422.441776 98.3596 
L 424.13834 97.767867 
L 425.834904 97.594125 
L 427.531469 97.158174 
L 429.228033 96.946666 
L 437.710854 95.065194 
L 439.407419 94.380208 
L 441.103983 94.162544 
L 442.800547 93.764603 
L 444.497112 93.553484 
L 446.193676 92.756653 
L 447.89024 92.463625 
L 449.586804 91.821817 
L 452.979933 91.231161 
L 454.676497 90.670057 
L 456.373062 90.466504 
L 461.462755 89.44952 
L 464.855883 88.960041 
L 466.552448 88.209109 
L 469.945576 87.36806 
L 471.64214 86.684276 
L 476.731833 85.631988 
L 478.428398 84.96679 
L 480.124962 84.568749 
L 481.821526 84.304038 
L 483.518091 84.208271 
L 488.607784 82.837001 
L 490.304348 83.022171 
L 492.000912 82.344584 
L 493.697476 82.414135 
L 497.090605 81.41086 
L 498.787169 81.219475 
L 503.876862 80.157364 
L 507.269991 79.410647 
L 508.966555 79.19662 
L 510.663119 78.679331 
L 514.056248 78.386439 
L 515.752812 77.961037 
L 517.449377 77.724019 
L 519.145941 77.676735 
L 520.842505 77.130594 
L 522.53907 76.777632 
L 524.235634 76.170579 
L 529.325327 75.767235 
L 531.021891 75.400923 
L 534.41502 74.994401 
L 536.111584 74.274507 
L 537.808148 73.731252 
L 541.201277 72.991184 
L 542.897841 72.471999 
L 544.594406 72.071876 
L 546.29097 71.875511 
L 547.987534 71.540684 
L 549.684099 70.85206 
L 554.773791 70.093023 
L 556.470356 69.542851 
L 558.16692 69.370666 
L 563.256613 67.369101 
L 564.953177 67.299594 
L 566.649742 66.883589 
L 570.04287 65.772123 
L 571.739434 65.644768 
L 575.132563 65.013422 
L 576.829127 64.846531 
L 578.525692 64.508689 
L 580.222256 63.867336 
L 581.91882 63.721148 
L 583.615385 63.778852 
L 585.311949 63.198515 
L 587.008513 63.272393 
L 588.705078 62.660941 
L 593.79477 61.543602 
L 597.187899 60.553552 
L 600.581028 60.133746 
L 602.277592 59.43936 
L 603.974156 59.199852 
L 609.063849 58.061179 
L 610.760413 58.185028 
L 612.456978 57.582073 
L 614.153542 57.322731 
L 615.850106 56.843826 
L 617.546671 57.115834 
L 619.243235 56.479503 
L 620.939799 56.252641 
L 622.636364 55.8 
L 622.636364 55.8 
" clip-path="url(#pbb2fdf9192)" style="fill: none; stroke: #2ca02c; stroke-width: 1.5; stroke-linecap: square"/>
   </g>
   <g id="line2d_15">
    <path d="M 115.363636 210.299417 
L 117.060201 235.864165 
L 118.756765 247.018502 
L 120.453329 254.16232 
L 122.149894 257.41687 
L 123.846458 259.687243 
L 125.543022 261.271124 
L 128.936151 264.080181 
L 130.632715 265.758735 
L 132.329279 266.900822 
L 137.418972 268.91855 
L 140.812101 269.691708 
L 144.20523 270.060694 
L 145.901794 270.489898 
L 147.598358 270.764355 
L 149.294922 270.774995 
L 150.991487 271.11119 
L 152.688051 270.916233 
L 154.384615 270.934853 
L 157.777744 270.785138 
L 164.564001 270.674838 
L 166.260566 270.392191 
L 167.95713 270.400372 
L 169.653694 270.275194 
L 176.439951 269.075493 
L 184.922773 267.110867 
L 186.619337 266.610622 
L 188.315901 265.988912 
L 193.405594 265.006326 
L 205.281545 261.879297 
L 208.674673 261.188413 
L 210.371237 260.810106 
L 212.067802 260.673622 
L 215.46093 259.818711 
L 217.157495 259.623481 
L 222.247188 258.434591 
L 223.943752 258.260439 
L 234.123138 256.564418 
L 235.819702 256.075013 
L 247.695652 254.142519 
L 249.392216 254.013431 
L 252.785345 253.437376 
L 281.626938 250.075386 
L 285.020067 249.77853 
L 286.716631 249.507143 
L 288.413196 249.411943 
L 290.10976 249.153992 
L 307.075403 247.848822 
L 308.771967 247.619048 
L 310.468531 247.610245 
L 313.86166 247.160608 
L 317.254789 246.945836 
L 318.951353 246.759737 
L 320.647917 246.700942 
L 325.73761 246.039874 
L 335.916996 245.310995 
L 344.399818 244.428075 
L 346.096382 244.435686 
L 352.882639 243.847138 
L 356.275768 243.57607 
L 366.455154 242.593039 
L 369.848282 242.414639 
L 371.544846 242.165039 
L 374.937975 241.928533 
L 385.117361 241.184842 
L 390.207054 240.74334 
L 393.600182 240.51948 
L 396.993311 240.134885 
L 398.689875 240.172221 
L 400.38644 239.993756 
L 402.083004 239.677197 
L 403.779568 239.707699 
L 408.869261 239.20587 
L 413.958954 238.625397 
L 417.352083 238.363956 
L 419.048647 238.16013 
L 420.745211 238.132095 
L 422.441776 237.782749 
L 424.13834 237.596675 
L 425.834904 237.575333 
L 427.531469 237.4028 
L 430.924597 237.223271 
L 436.01429 236.79664 
L 442.800547 236.077144 
L 444.497112 236.009313 
L 446.193676 235.718163 
L 447.89024 235.638829 
L 449.586804 235.365556 
L 452.979933 235.193192 
L 454.676497 234.939604 
L 459.76619 234.597153 
L 463.159319 234.363167 
L 464.855883 234.366855 
L 466.552448 234.116731 
L 469.945576 233.841714 
L 471.64214 233.613677 
L 473.338705 233.55496 
L 475.035269 233.340252 
L 476.731833 233.305851 
L 480.124962 232.876826 
L 483.518091 232.777473 
L 485.214655 232.524932 
L 488.607784 232.244125 
L 490.304348 232.34571 
L 492.000912 232.087577 
L 493.697476 232.188312 
L 497.090605 231.818559 
L 500.483734 231.622261 
L 510.663119 230.95184 
L 514.056248 230.96276 
L 517.449377 230.707722 
L 519.145941 230.731106 
L 525.932198 230.156981 
L 527.628763 230.127046 
L 529.325327 230.221016 
L 531.021891 230.050418 
L 534.41502 230.058263 
L 536.111584 229.804101 
L 547.987534 228.905152 
L 549.684099 228.5196 
L 553.077227 228.386046 
L 554.773791 228.321066 
L 556.470356 228.032148 
L 558.16692 228.008486 
L 563.256613 227.338267 
L 564.953177 227.388963 
L 570.04287 226.796526 
L 578.525692 226.411513 
L 580.222256 226.142314 
L 585.311949 225.893949 
L 587.008513 225.983641 
L 588.705078 225.796475 
L 590.401642 225.758735 
L 592.098206 225.59339 
L 593.79477 225.541887 
L 597.187899 225.018272 
L 598.884463 225.036067 
L 600.581028 224.91723 
L 603.974156 224.494064 
L 609.063849 224.010787 
L 610.760413 224.05907 
L 615.850106 223.467461 
L 617.546671 223.605781 
L 619.243235 223.344466 
L 622.636364 223.080348 
L 622.636364 223.080348 
" clip-path="url(#pbb2fdf9192)" style="fill: none; stroke: #d62728; stroke-width: 1.5; stroke-linecap: square"/>
   </g>
   <g id="patch_3">
    <path d="M 90 320.4 
L 90 43.2 
" style="fill: none; stroke: #000000; stroke-width: 0.8; stroke-linejoin: miter; stroke-linecap: square"/>
   </g>
   <g id="patch_4">
    <path d="M 648 320.4 
L 648 43.2 
" style="fill: none; stroke: #000000; stroke-width: 0.8; stroke-linejoin: miter; stroke-linecap: square"/>
   </g>
   <g id="patch_5">
    <path d="M 90 320.4 
L 648 320.4 
" style="fill: none; stroke: #000000; stroke-width: 0.8; stroke-linejoin: miter; stroke-linecap: square"/>
   </g>
   <g id="patch_6">
    <path d="M 90 43.2 
L 648 43.2 
" style="fill: none; stroke: #000000; stroke-width: 0.8; stroke-linejoin: miter; stroke-linecap: square"/>
   </g>
   <g id="text_14">
    <!-- Estimation Losses -->
    <g transform="translate(315.165 37.2) scale(0.12 -0.12)">
     <defs>
      <path id="DejaVuSans-74" d="M 1172 4494 
L 1172 3500 
L 2356 3500 
L 2356 3053 
L 1172 3053 
L 1172 1153 
Q 1172 725 1289 603 
Q 1406 481 1766 481 
L 2356 481 
L 2356 0 
L 1766 0 
Q 1100 0 847 248 
Q 594 497 594 1153 
L 594 3053 
L 172 3053 
L 172 3500 
L 594 3500 
L 594 4494 
L 1172 4494 
z
" transform="scale(0.015625)"/>
      <path id="DejaVuSans-69" d="M 603 3500 
L 1178 3500 
L 1178 0 
L 603 0 
L 603 3500 
z
M 603 4863 
L 1178 4863 
L 1178 4134 
L 603 4134 
L 603 4863 
z
" transform="scale(0.015625)"/>
      <path id="DejaVuSans-6d" d="M 3328 2828 
Q 3544 3216 3844 3400 
Q 4144 3584 4550 3584 
Q 5097 3584 5394 3201 
Q 5691 2819 5691 2113 
L 5691 0 
L 5113 0 
L 5113 2094 
Q 5113 2597 4934 2840 
Q 4756 3084 4391 3084 
Q 3944 3084 3684 2787 
Q 3425 2491 3425 1978 
L 3425 0 
L 2847 0 
L 2847 2094 
Q 2847 2600 2669 2842 
Q 2491 3084 2119 3084 
Q 1678 3084 1418 2786 
Q 1159 2488 1159 1978 
L 1159 0 
L 581 0 
L 581 3500 
L 1159 3500 
L 1159 2956 
Q 1356 3278 1631 3431 
Q 1906 3584 2284 3584 
Q 2666 3584 2933 3390 
Q 3200 3197 3328 2828 
z
" transform="scale(0.015625)"/>
      <path id="DejaVuSans-61" d="M 2194 1759 
Q 1497 1759 1228 1600 
Q 959 1441 959 1056 
Q 959 750 1161 570 
Q 1363 391 1709 391 
Q 2188 391 2477 730 
Q 2766 1069 2766 1631 
L 2766 1759 
L 2194 1759 
z
M 3341 1997 
L 3341 0 
L 2766 0 
L 2766 531 
Q 2569 213 2275 61 
Q 1981 -91 1556 -91 
Q 1019 -91 701 211 
Q 384 513 384 1019 
Q 384 1609 779 1909 
Q 1175 2209 1959 2209 
L 2766 2209 
L 2766 2266 
Q 2766 2663 2505 2880 
Q 2244 3097 1772 3097 
Q 1472 3097 1187 3025 
Q 903 2953 641 2809 
L 641 3341 
Q 956 3463 1253 3523 
Q 1550 3584 1831 3584 
Q 2591 3584 2966 3190 
Q 3341 2797 3341 1997 
z
" transform="scale(0.015625)"/>
      <path id="DejaVuSans-6e" d="M 3513 2113 
L 3513 0 
L 2938 0 
L 2938 2094 
Q 2938 2591 2744 2837 
Q 2550 3084 2163 3084 
Q 1697 3084 1428 2787 
Q 1159 2491 1159 1978 
L 1159 0 
L 581 0 
L 581 3500 
L 1159 3500 
L 1159 2956 
Q 1366 3272 1645 3428 
Q 1925 3584 2291 3584 
Q 2894 3584 3203 3211 
Q 3513 2838 3513 2113 
z
" transform="scale(0.015625)"/>
      <path id="DejaVuSans-20" transform="scale(0.015625)"/>
      <path id="DejaVuSans-65" d="M 3597 1894 
L 3597 1613 
L 953 1613 
Q 991 1019 1311 708 
Q 1631 397 2203 397 
Q 2534 397 2845 478 
Q 3156 559 3463 722 
L 3463 178 
Q 3153 47 2828 -22 
Q 2503 -91 2169 -91 
Q 1331 -91 842 396 
Q 353 884 353 1716 
Q 353 2575 817 3079 
Q 1281 3584 2069 3584 
Q 2775 3584 3186 3129 
Q 3597 2675 3597 1894 
z
M 3022 2063 
Q 3016 2534 2758 2815 
Q 2500 3097 2075 3097 
Q 1594 3097 1305 2825 
Q 1016 2553 972 2059 
L 3022 2063 
z
" transform="scale(0.015625)"/>
     </defs>
     <use xlink:href="#DejaVuSans-45"/>
     <use xlink:href="#DejaVuSans-73" transform="translate(63.183594 0)"/>
     <use xlink:href="#DejaVuSans-74" transform="translate(115.283203 0)"/>
     <use xlink:href="#DejaVuSans-69" transform="translate(154.492188 0)"/>
     <use xlink:href="#DejaVuSans-6d" transform="translate(182.275391 0)"/>
     <use xlink:href="#DejaVuSans-61" transform="translate(279.6875 0)"/>
     <use xlink:href="#DejaVuSans-74" transform="translate(340.966797 0)"/>
     <use xlink:href="#DejaVuSans-69" transform="translate(380.175781 0)"/>
     <use xlink:href="#DejaVuSans-6f" transform="translate(407.958984 0)"/>
     <use xlink:href="#DejaVuSans-6e" transform="translate(469.140625 0)"/>
     <use xlink:href="#DejaVuSans-20" transform="translate(532.519531 0)"/>
     <use xlink:href="#DejaVuSans-4c" transform="translate(564.306641 0)"/>
     <use xlink:href="#DejaVuSans-6f" transform="translate(618.269531 0)"/>
     <use xlink:href="#DejaVuSans-73" transform="translate(679.451172 0)"/>
     <use xlink:href="#DejaVuSans-73" transform="translate(731.550781 0)"/>
     <use xlink:href="#DejaVuSans-65" transform="translate(783.650391 0)"/>
     <use xlink:href="#DejaVuSans-73" transform="translate(845.173828 0)"/>
    </g>
   </g>
   <g id="legend_1">
    <g id="patch_7">
     <path d="M 471.932812 212.65625 
L 641 212.65625 
Q 643 212.65625 643 210.65625 
L 643 152.94375 
Q 643 150.94375 641 150.94375 
L 471.932812 150.94375 
Q 469.932812 150.94375 469.932812 152.94375 
L 469.932812 210.65625 
Q 469.932812 212.65625 471.932812 212.65625 
z
" style="fill: #ffffff; opacity: 0.8; stroke: #cccccc; stroke-linejoin: miter"/>
    </g>
    <g id="line2d_16">
     <path d="M 473.932812 159.042188 
L 483.932812 159.042188 
L 493.932812 159.042188 
" style="fill: none; stroke: #1f77b4; stroke-width: 1.5; stroke-linecap: square"/>
    </g>
    <g id="text_15">
     <!-- Train Loss - Pseudo Domain -->
     <g transform="translate(501.932812 162.542188) scale(0.1 -0.1)">
      <defs>
       <path id="DejaVuSans-54" d="M -19 4666 
L 3928 4666 
L 3928 4134 
L 2272 4134 
L 2272 0 
L 1638 0 
L 1638 4134 
L -19 4134 
L -19 4666 
z
" transform="scale(0.015625)"/>
       <path id="DejaVuSans-72" d="M 2631 2963 
Q 2534 3019 2420 3045 
Q 2306 3072 2169 3072 
Q 1681 3072 1420 2755 
Q 1159 2438 1159 1844 
L 1159 0 
L 581 0 
L 581 3500 
L 1159 3500 
L 1159 2956 
Q 1341 3275 1631 3429 
Q 1922 3584 2338 3584 
Q 2397 3584 2469 3576 
Q 2541 3569 2628 3553 
L 2631 2963 
z
" transform="scale(0.015625)"/>
       <path id="DejaVuSans-2d" d="M 313 2009 
L 1997 2009 
L 1997 1497 
L 313 1497 
L 313 2009 
z
" transform="scale(0.015625)"/>
       <path id="DejaVuSans-50" d="M 1259 4147 
L 1259 2394 
L 2053 2394 
Q 2494 2394 2734 2622 
Q 2975 2850 2975 3272 
Q 2975 3691 2734 3919 
Q 2494 4147 2053 4147 
L 1259 4147 
z
M 628 4666 
L 2053 4666 
Q 2838 4666 3239 4311 
Q 3641 3956 3641 3272 
Q 3641 2581 3239 2228 
Q 2838 1875 2053 1875 
L 1259 1875 
L 1259 0 
L 628 0 
L 628 4666 
z
" transform="scale(0.015625)"/>
       <path id="DejaVuSans-75" d="M 544 1381 
L 544 3500 
L 1119 3500 
L 1119 1403 
Q 1119 906 1312 657 
Q 1506 409 1894 409 
Q 2359 409 2629 706 
Q 2900 1003 2900 1516 
L 2900 3500 
L 3475 3500 
L 3475 0 
L 2900 0 
L 2900 538 
Q 2691 219 2414 64 
Q 2138 -91 1772 -91 
Q 1169 -91 856 284 
Q 544 659 544 1381 
z
M 1991 3584 
L 1991 3584 
z
" transform="scale(0.015625)"/>
       <path id="DejaVuSans-64" d="M 2906 2969 
L 2906 4863 
L 3481 4863 
L 3481 0 
L 2906 0 
L 2906 525 
Q 2725 213 2448 61 
Q 2172 -91 1784 -91 
Q 1150 -91 751 415 
Q 353 922 353 1747 
Q 353 2572 751 3078 
Q 1150 3584 1784 3584 
Q 2172 3584 2448 3432 
Q 2725 3281 2906 2969 
z
M 947 1747 
Q 947 1113 1208 752 
Q 1469 391 1925 391 
Q 2381 391 2643 752 
Q 2906 1113 2906 1747 
Q 2906 2381 2643 2742 
Q 2381 3103 1925 3103 
Q 1469 3103 1208 2742 
Q 947 2381 947 1747 
z
" transform="scale(0.015625)"/>
       <path id="DejaVuSans-44" d="M 1259 4147 
L 1259 519 
L 2022 519 
Q 2988 519 3436 956 
Q 3884 1394 3884 2338 
Q 3884 3275 3436 3711 
Q 2988 4147 2022 4147 
L 1259 4147 
z
M 628 4666 
L 1925 4666 
Q 3281 4666 3915 4102 
Q 4550 3538 4550 2338 
Q 4550 1131 3912 565 
Q 3275 0 1925 0 
L 628 0 
L 628 4666 
z
" transform="scale(0.015625)"/>
      </defs>
      <use xlink:href="#DejaVuSans-54"/>
      <use xlink:href="#DejaVuSans-72" transform="translate(46.333984 0)"/>
      <use xlink:href="#DejaVuSans-61" transform="translate(87.447266 0)"/>
      <use xlink:href="#DejaVuSans-69" transform="translate(148.726562 0)"/>
      <use xlink:href="#DejaVuSans-6e" transform="translate(176.509766 0)"/>
      <use xlink:href="#DejaVuSans-20" transform="translate(239.888672 0)"/>
      <use xlink:href="#DejaVuSans-4c" transform="translate(271.675781 0)"/>
      <use xlink:href="#DejaVuSans-6f" transform="translate(325.638672 0)"/>
      <use xlink:href="#DejaVuSans-73" transform="translate(386.820312 0)"/>
      <use xlink:href="#DejaVuSans-73" transform="translate(438.919922 0)"/>
      <use xlink:href="#DejaVuSans-20" transform="translate(491.019531 0)"/>
      <use xlink:href="#DejaVuSans-2d" transform="translate(522.806641 0)"/>
      <use xlink:href="#DejaVuSans-20" transform="translate(558.890625 0)"/>
      <use xlink:href="#DejaVuSans-50" transform="translate(590.677734 0)"/>
      <use xlink:href="#DejaVuSans-73" transform="translate(649.230469 0)"/>
      <use xlink:href="#DejaVuSans-65" transform="translate(701.330078 0)"/>
      <use xlink:href="#DejaVuSans-75" transform="translate(762.853516 0)"/>
      <use xlink:href="#DejaVuSans-64" transform="translate(826.232422 0)"/>
      <use xlink:href="#DejaVuSans-6f" transform="translate(889.708984 0)"/>
      <use xlink:href="#DejaVuSans-20" transform="translate(950.890625 0)"/>
      <use xlink:href="#DejaVuSans-44" transform="translate(982.677734 0)"/>
      <use xlink:href="#DejaVuSans-6f" transform="translate(1059.679688 0)"/>
      <use xlink:href="#DejaVuSans-6d" transform="translate(1120.861328 0)"/>
      <use xlink:href="#DejaVuSans-61" transform="translate(1218.273438 0)"/>
      <use xlink:href="#DejaVuSans-69" transform="translate(1279.552734 0)"/>
      <use xlink:href="#DejaVuSans-6e" transform="translate(1307.335938 0)"/>
     </g>
    </g>
    <g id="line2d_17">
     <path d="M 473.932812 173.720313 
L 483.932812 173.720313 
L 493.932812 173.720313 
" style="fill: none; stroke: #ff7f0e; stroke-width: 1.5; stroke-linecap: square"/>
    </g>
    <g id="text_16">
     <!-- Val Loss - Pseudo Domain -->
     <g transform="translate(501.932812 177.220313) scale(0.1 -0.1)">
      <defs>
       <path id="DejaVuSans-56" d="M 1831 0 
L 50 4666 
L 709 4666 
L 2188 738 
L 3669 4666 
L 4325 4666 
L 2547 0 
L 1831 0 
z
" transform="scale(0.015625)"/>
       <path id="DejaVuSans-6c" d="M 603 4863 
L 1178 4863 
L 1178 0 
L 603 0 
L 603 4863 
z
" transform="scale(0.015625)"/>
      </defs>
      <use xlink:href="#DejaVuSans-56"/>
      <use xlink:href="#DejaVuSans-61" transform="translate(60.658203 0)"/>
      <use xlink:href="#DejaVuSans-6c" transform="translate(121.9375 0)"/>
      <use xlink:href="#DejaVuSans-20" transform="translate(149.720703 0)"/>
      <use xlink:href="#DejaVuSans-4c" transform="translate(181.507812 0)"/>
      <use xlink:href="#DejaVuSans-6f" transform="translate(235.470703 0)"/>
      <use xlink:href="#DejaVuSans-73" transform="translate(296.652344 0)"/>
      <use xlink:href="#DejaVuSans-73" transform="translate(348.751953 0)"/>
      <use xlink:href="#DejaVuSans-20" transform="translate(400.851562 0)"/>
      <use xlink:href="#DejaVuSans-2d" transform="translate(432.638672 0)"/>
      <use xlink:href="#DejaVuSans-20" transform="translate(468.722656 0)"/>
      <use xlink:href="#DejaVuSans-50" transform="translate(500.509766 0)"/>
      <use xlink:href="#DejaVuSans-73" transform="translate(559.0625 0)"/>
      <use xlink:href="#DejaVuSans-65" transform="translate(611.162109 0)"/>
      <use xlink:href="#DejaVuSans-75" transform="translate(672.685547 0)"/>
      <use xlink:href="#DejaVuSans-64" transform="translate(736.064453 0)"/>
      <use xlink:href="#DejaVuSans-6f" transform="translate(799.541016 0)"/>
      <use xlink:href="#DejaVuSans-20" transform="translate(860.722656 0)"/>
      <use xlink:href="#DejaVuSans-44" transform="translate(892.509766 0)"/>
      <use xlink:href="#DejaVuSans-6f" transform="translate(969.511719 0)"/>
      <use xlink:href="#DejaVuSans-6d" transform="translate(1030.693359 0)"/>
      <use xlink:href="#DejaVuSans-61" transform="translate(1128.105469 0)"/>
      <use xlink:href="#DejaVuSans-69" transform="translate(1189.384766 0)"/>
      <use xlink:href="#DejaVuSans-6e" transform="translate(1217.167969 0)"/>
     </g>
    </g>
    <g id="line2d_18">
     <path d="M 473.932812 188.398438 
L 483.932812 188.398438 
L 493.932812 188.398438 
" style="fill: none; stroke: #2ca02c; stroke-width: 1.5; stroke-linecap: square"/>
    </g>
    <g id="text_17">
     <!-- Val Loss - Source Domain -->
     <g transform="translate(501.932812 191.898438) scale(0.1 -0.1)">
      <defs>
       <path id="DejaVuSans-53" d="M 3425 4513 
L 3425 3897 
Q 3066 4069 2747 4153 
Q 2428 4238 2131 4238 
Q 1616 4238 1336 4038 
Q 1056 3838 1056 3469 
Q 1056 3159 1242 3001 
Q 1428 2844 1947 2747 
L 2328 2669 
Q 3034 2534 3370 2195 
Q 3706 1856 3706 1288 
Q 3706 609 3251 259 
Q 2797 -91 1919 -91 
Q 1588 -91 1214 -16 
Q 841 59 441 206 
L 441 856 
Q 825 641 1194 531 
Q 1563 422 1919 422 
Q 2459 422 2753 634 
Q 3047 847 3047 1241 
Q 3047 1584 2836 1778 
Q 2625 1972 2144 2069 
L 1759 2144 
Q 1053 2284 737 2584 
Q 422 2884 422 3419 
Q 422 4038 858 4394 
Q 1294 4750 2059 4750 
Q 2388 4750 2728 4690 
Q 3069 4631 3425 4513 
z
" transform="scale(0.015625)"/>
      </defs>
      <use xlink:href="#DejaVuSans-56"/>
      <use xlink:href="#DejaVuSans-61" transform="translate(60.658203 0)"/>
      <use xlink:href="#DejaVuSans-6c" transform="translate(121.9375 0)"/>
      <use xlink:href="#DejaVuSans-20" transform="translate(149.720703 0)"/>
      <use xlink:href="#DejaVuSans-4c" transform="translate(181.507812 0)"/>
      <use xlink:href="#DejaVuSans-6f" transform="translate(235.470703 0)"/>
      <use xlink:href="#DejaVuSans-73" transform="translate(296.652344 0)"/>
      <use xlink:href="#DejaVuSans-73" transform="translate(348.751953 0)"/>
      <use xlink:href="#DejaVuSans-20" transform="translate(400.851562 0)"/>
      <use xlink:href="#DejaVuSans-2d" transform="translate(432.638672 0)"/>
      <use xlink:href="#DejaVuSans-20" transform="translate(468.722656 0)"/>
      <use xlink:href="#DejaVuSans-53" transform="translate(500.509766 0)"/>
      <use xlink:href="#DejaVuSans-6f" transform="translate(563.986328 0)"/>
      <use xlink:href="#DejaVuSans-75" transform="translate(625.167969 0)"/>
      <use xlink:href="#DejaVuSans-72" transform="translate(688.546875 0)"/>
      <use xlink:href="#DejaVuSans-63" transform="translate(727.410156 0)"/>
      <use xlink:href="#DejaVuSans-65" transform="translate(782.390625 0)"/>
      <use xlink:href="#DejaVuSans-20" transform="translate(843.914062 0)"/>
      <use xlink:href="#DejaVuSans-44" transform="translate(875.701172 0)"/>
      <use xlink:href="#DejaVuSans-6f" transform="translate(952.703125 0)"/>
      <use xlink:href="#DejaVuSans-6d" transform="translate(1013.884766 0)"/>
      <use xlink:href="#DejaVuSans-61" transform="translate(1111.296875 0)"/>
      <use xlink:href="#DejaVuSans-69" transform="translate(1172.576172 0)"/>
      <use xlink:href="#DejaVuSans-6e" transform="translate(1200.359375 0)"/>
     </g>
    </g>
    <g id="line2d_19">
     <path d="M 473.932812 203.076563 
L 483.932812 203.076563 
L 493.932812 203.076563 
" style="fill: none; stroke: #d62728; stroke-width: 1.5; stroke-linecap: square"/>
    </g>
    <g id="text_18">
     <!-- Val Loss - Target Domain -->
     <g transform="translate(501.932812 206.576563) scale(0.1 -0.1)">
      <defs>
       <path id="DejaVuSans-67" d="M 2906 1791 
Q 2906 2416 2648 2759 
Q 2391 3103 1925 3103 
Q 1463 3103 1205 2759 
Q 947 2416 947 1791 
Q 947 1169 1205 825 
Q 1463 481 1925 481 
Q 2391 481 2648 825 
Q 2906 1169 2906 1791 
z
M 3481 434 
Q 3481 -459 3084 -895 
Q 2688 -1331 1869 -1331 
Q 1566 -1331 1297 -1286 
Q 1028 -1241 775 -1147 
L 775 -588 
Q 1028 -725 1275 -790 
Q 1522 -856 1778 -856 
Q 2344 -856 2625 -561 
Q 2906 -266 2906 331 
L 2906 616 
Q 2728 306 2450 153 
Q 2172 0 1784 0 
Q 1141 0 747 490 
Q 353 981 353 1791 
Q 353 2603 747 3093 
Q 1141 3584 1784 3584 
Q 2172 3584 2450 3431 
Q 2728 3278 2906 2969 
L 2906 3500 
L 3481 3500 
L 3481 434 
z
" transform="scale(0.015625)"/>
      </defs>
      <use xlink:href="#DejaVuSans-56"/>
      <use xlink:href="#DejaVuSans-61" transform="translate(60.658203 0)"/>
      <use xlink:href="#DejaVuSans-6c" transform="translate(121.9375 0)"/>
      <use xlink:href="#DejaVuSans-20" transform="translate(149.720703 0)"/>
      <use xlink:href="#DejaVuSans-4c" transform="translate(181.507812 0)"/>
      <use xlink:href="#DejaVuSans-6f" transform="translate(235.470703 0)"/>
      <use xlink:href="#DejaVuSans-73" transform="translate(296.652344 0)"/>
      <use xlink:href="#DejaVuSans-73" transform="translate(348.751953 0)"/>
      <use xlink:href="#DejaVuSans-20" transform="translate(400.851562 0)"/>
      <use xlink:href="#DejaVuSans-2d" transform="translate(432.638672 0)"/>
      <use xlink:href="#DejaVuSans-20" transform="translate(468.722656 0)"/>
      <use xlink:href="#DejaVuSans-54" transform="translate(500.509766 0)"/>
      <use xlink:href="#DejaVuSans-61" transform="translate(545.09375 0)"/>
      <use xlink:href="#DejaVuSans-72" transform="translate(606.373047 0)"/>
      <use xlink:href="#DejaVuSans-67" transform="translate(645.736328 0)"/>
      <use xlink:href="#DejaVuSans-65" transform="translate(709.212891 0)"/>
      <use xlink:href="#DejaVuSans-74" transform="translate(770.736328 0)"/>
      <use xlink:href="#DejaVuSans-20" transform="translate(809.945312 0)"/>
      <use xlink:href="#DejaVuSans-44" transform="translate(841.732422 0)"/>
      <use xlink:href="#DejaVuSans-6f" transform="translate(918.734375 0)"/>
      <use xlink:href="#DejaVuSans-6d" transform="translate(979.916016 0)"/>
      <use xlink:href="#DejaVuSans-61" transform="translate(1077.328125 0)"/>
      <use xlink:href="#DejaVuSans-69" transform="translate(1138.607422 0)"/>
      <use xlink:href="#DejaVuSans-6e" transform="translate(1166.390625 0)"/>
     </g>
    </g>
   </g>
  </g>
 </g>
 <defs>
  <clipPath id="pbb2fdf9192">
   <rect x="90" y="43.2" width="558" height="277.2"/>
  </clipPath>
 </defs>
</svg>
