<?xml version="1.0" encoding="utf-8" standalone="no"?>
<!DOCTYPE svg PUBLIC "-//W3C//DTD SVG 1.1//EN"
  "http://www.w3.org/Graphics/SVG/1.1/DTD/svg11.dtd">
<svg xmlns:xlink="http://www.w3.org/1999/xlink" width="720pt" height="360pt" viewBox="0 0 720 360" xmlns="http://www.w3.org/2000/svg" version="1.1">
 <metadata>
  <rdf:RDF xmlns:dc="http://purl.org/dc/elements/1.1/" xmlns:cc="http://creativecommons.org/ns#" xmlns:rdf="http://www.w3.org/1999/02/22-rdf-syntax-ns#">
   <cc:Work>
    <dc:type rdf:resource="http://purl.org/dc/dcmitype/StillImage"/>
    <dc:date>2025-10-18T06:09:43.981009</dc:date>
    <dc:format>image/svg+xml</dc:format>
    <dc:creator>
     <cc:Agent>
      <dc:title>Matplotlib v3.10.1, https://matplotlib.org/</dc:title>
     </cc:Agent>
    </dc:creator>
   </cc:Work>
  </rdf:RDF>
 </metadata>
 <defs>
  <style type="text/css">*{stroke-linejoin: round; stroke-linecap: butt}</style>
 </defs>
 <g id="figure_1">
  <g id="patch_1">
   <path d="M 0 360 
L 720 360 
L 720 0 
L 0 0 
z
" style="fill: #ffffff"/>
  </g>
  <g id="axes_1">
   <g id="patch_2">
    <path d="M 90 320.4 
L 648 320.4 
L 648 43.2 
L 90 43.2 
z
" style="fill: #ffffff"/>
   </g>
   <g id="matplotlib.axis_1">
    <g id="xtick_1">
     <g id="line2d_1">
      <defs>
       <path id="mec9a537f92" d="M 0 0 
L 0 3.5 
" style="stroke: #000000; stroke-width: 0.8"/>
      </defs>
      <g>
       <use xlink:href="#mec9a537f92" x="115.363636" y="320.4" style="stroke: #000000; stroke-width: 0.8"/>
      </g>
     </g>
     <g id="text_1">
      <!-- 0 -->
      <g transform="translate(112.182386 334.998438) scale(0.1 -0.1)">
       <defs>
        <path id="DejaVuSans-30" d="M 2034 4250 
Q 1547 4250 1301 3770 
Q 1056 3291 1056 2328 
Q 1056 1369 1301 889 
Q 1547 409 2034 409 
Q 2525 409 2770 889 
Q 3016 1369 3016 2328 
Q 3016 3291 2770 3770 
Q 2525 4250 2034 4250 
z
M 2034 4750 
Q 2819 4750 3233 4129 
Q 3647 3509 3647 2328 
Q 3647 1150 3233 529 
Q 2819 -91 2034 -91 
Q 1250 -91 836 529 
Q 422 1150 422 2328 
Q 422 3509 836 4129 
Q 1250 4750 2034 4750 
z
" transform="scale(0.015625)"/>
       </defs>
       <use xlink:href="#DejaVuSans-30"/>
      </g>
     </g>
    </g>
    <g id="xtick_2">
     <g id="line2d_2">
      <g>
       <use xlink:href="#mec9a537f92" x="217.157495" y="320.4" style="stroke: #000000; stroke-width: 0.8"/>
      </g>
     </g>
     <g id="text_2">
      <!-- 60 -->
      <g transform="translate(210.794995 334.998438) scale(0.1 -0.1)">
       <defs>
        <path id="DejaVuSans-36" d="M 2113 2584 
Q 1688 2584 1439 2293 
Q 1191 2003 1191 1497 
Q 1191 994 1439 701 
Q 1688 409 2113 409 
Q 2538 409 2786 701 
Q 3034 994 3034 1497 
Q 3034 2003 2786 2293 
Q 2538 2584 2113 2584 
z
M 3366 4563 
L 3366 3988 
Q 3128 4100 2886 4159 
Q 2644 4219 2406 4219 
Q 1781 4219 1451 3797 
Q 1122 3375 1075 2522 
Q 1259 2794 1537 2939 
Q 1816 3084 2150 3084 
Q 2853 3084 3261 2657 
Q 3669 2231 3669 1497 
Q 3669 778 3244 343 
Q 2819 -91 2113 -91 
Q 1303 -91 875 529 
Q 447 1150 447 2328 
Q 447 3434 972 4092 
Q 1497 4750 2381 4750 
Q 2619 4750 2861 4703 
Q 3103 4656 3366 4563 
z
" transform="scale(0.015625)"/>
       </defs>
       <use xlink:href="#DejaVuSans-36"/>
       <use xlink:href="#DejaVuSans-30" transform="translate(63.623047 0)"/>
      </g>
     </g>
    </g>
    <g id="xtick_3">
     <g id="line2d_3">
      <g>
       <use xlink:href="#mec9a537f92" x="318.951353" y="320.4" style="stroke: #000000; stroke-width: 0.8"/>
      </g>
     </g>
     <g id="text_3">
      <!-- 120 -->
      <g transform="translate(309.407603 334.998438) scale(0.1 -0.1)">
       <defs>
        <path id="DejaVuSans-31" d="M 794 531 
L 1825 531 
L 1825 4091 
L 703 3866 
L 703 4441 
L 1819 4666 
L 2450 4666 
L 2450 531 
L 3481 531 
L 3481 0 
L 794 0 
L 794 531 
z
" transform="scale(0.015625)"/>
        <path id="DejaVuSans-32" d="M 1228 531 
L 3431 531 
L 3431 0 
L 469 0 
L 469 531 
Q 828 903 1448 1529 
Q 2069 2156 2228 2338 
Q 2531 2678 2651 2914 
Q 2772 3150 2772 3378 
Q 2772 3750 2511 3984 
Q 2250 4219 1831 4219 
Q 1534 4219 1204 4116 
Q 875 4013 500 3803 
L 500 4441 
Q 881 4594 1212 4672 
Q 1544 4750 1819 4750 
Q 2544 4750 2975 4387 
Q 3406 4025 3406 3419 
Q 3406 3131 3298 2873 
Q 3191 2616 2906 2266 
Q 2828 2175 2409 1742 
Q 1991 1309 1228 531 
z
" transform="scale(0.015625)"/>
       </defs>
       <use xlink:href="#DejaVuSans-31"/>
       <use xlink:href="#DejaVuSans-32" transform="translate(63.623047 0)"/>
       <use xlink:href="#DejaVuSans-30" transform="translate(127.246094 0)"/>
      </g>
     </g>
    </g>
    <g id="xtick_4">
     <g id="line2d_4">
      <g>
       <use xlink:href="#mec9a537f92" x="420.745211" y="320.4" style="stroke: #000000; stroke-width: 0.8"/>
      </g>
     </g>
     <g id="text_4">
      <!-- 180 -->
      <g transform="translate(411.201461 334.998438) scale(0.1 -0.1)">
       <defs>
        <path id="DejaVuSans-38" d="M 2034 2216 
Q 1584 2216 1326 1975 
Q 1069 1734 1069 1313 
Q 1069 891 1326 650 
Q 1584 409 2034 409 
Q 2484 409 2743 651 
Q 3003 894 3003 1313 
Q 3003 1734 2745 1975 
Q 2488 2216 2034 2216 
z
M 1403 2484 
Q 997 2584 770 2862 
Q 544 3141 544 3541 
Q 544 4100 942 4425 
Q 1341 4750 2034 4750 
Q 2731 4750 3128 4425 
Q 3525 4100 3525 3541 
Q 3525 3141 3298 2862 
Q 3072 2584 2669 2484 
Q 3125 2378 3379 2068 
Q 3634 1759 3634 1313 
Q 3634 634 3220 271 
Q 2806 -91 2034 -91 
Q 1263 -91 848 271 
Q 434 634 434 1313 
Q 434 1759 690 2068 
Q 947 2378 1403 2484 
z
M 1172 3481 
Q 1172 3119 1398 2916 
Q 1625 2713 2034 2713 
Q 2441 2713 2670 2916 
Q 2900 3119 2900 3481 
Q 2900 3844 2670 4047 
Q 2441 4250 2034 4250 
Q 1625 4250 1398 4047 
Q 1172 3844 1172 3481 
z
" transform="scale(0.015625)"/>
       </defs>
       <use xlink:href="#DejaVuSans-31"/>
       <use xlink:href="#DejaVuSans-38" transform="translate(63.623047 0)"/>
       <use xlink:href="#DejaVuSans-30" transform="translate(127.246094 0)"/>
      </g>
     </g>
    </g>
    <g id="xtick_5">
     <g id="line2d_5">
      <g>
       <use xlink:href="#mec9a537f92" x="522.53907" y="320.4" style="stroke: #000000; stroke-width: 0.8"/>
      </g>
     </g>
     <g id="text_5">
      <!-- 240 -->
      <g transform="translate(512.99532 334.998438) scale(0.1 -0.1)">
       <defs>
        <path id="DejaVuSans-34" d="M 2419 4116 
L 825 1625 
L 2419 1625 
L 2419 4116 
z
M 2253 4666 
L 3047 4666 
L 3047 1625 
L 3713 1625 
L 3713 1100 
L 3047 1100 
L 3047 0 
L 2419 0 
L 2419 1100 
L 313 1100 
L 313 1709 
L 2253 4666 
z
" transform="scale(0.015625)"/>
       </defs>
       <use xlink:href="#DejaVuSans-32"/>
       <use xlink:href="#DejaVuSans-34" transform="translate(63.623047 0)"/>
       <use xlink:href="#DejaVuSans-30" transform="translate(127.246094 0)"/>
      </g>
     </g>
    </g>
    <g id="text_6">
     <!-- Epoch -->
     <g transform="translate(353.689062 348.676562) scale(0.1 -0.1)">
      <defs>
       <path id="DejaVuSans-45" d="M 628 4666 
L 3578 4666 
L 3578 4134 
L 1259 4134 
L 1259 2753 
L 3481 2753 
L 3481 2222 
L 1259 2222 
L 1259 531 
L 3634 531 
L 3634 0 
L 628 0 
L 628 4666 
z
" transform="scale(0.015625)"/>
       <path id="DejaVuSans-70" d="M 1159 525 
L 1159 -1331 
L 581 -1331 
L 581 3500 
L 1159 3500 
L 1159 2969 
Q 1341 3281 1617 3432 
Q 1894 3584 2278 3584 
Q 2916 3584 3314 3078 
Q 3713 2572 3713 1747 
Q 3713 922 3314 415 
Q 2916 -91 2278 -91 
Q 1894 -91 1617 61 
Q 1341 213 1159 525 
z
M 3116 1747 
Q 3116 2381 2855 2742 
Q 2594 3103 2138 3103 
Q 1681 3103 1420 2742 
Q 1159 2381 1159 1747 
Q 1159 1113 1420 752 
Q 1681 391 2138 391 
Q 2594 391 2855 752 
Q 3116 1113 3116 1747 
z
" transform="scale(0.015625)"/>
       <path id="DejaVuSans-6f" d="M 1959 3097 
Q 1497 3097 1228 2736 
Q 959 2375 959 1747 
Q 959 1119 1226 758 
Q 1494 397 1959 397 
Q 2419 397 2687 759 
Q 2956 1122 2956 1747 
Q 2956 2369 2687 2733 
Q 2419 3097 1959 3097 
z
M 1959 3584 
Q 2709 3584 3137 3096 
Q 3566 2609 3566 1747 
Q 3566 888 3137 398 
Q 2709 -91 1959 -91 
Q 1206 -91 779 398 
Q 353 888 353 1747 
Q 353 2609 779 3096 
Q 1206 3584 1959 3584 
z
" transform="scale(0.015625)"/>
       <path id="DejaVuSans-63" d="M 3122 3366 
L 3122 2828 
Q 2878 2963 2633 3030 
Q 2388 3097 2138 3097 
Q 1578 3097 1268 2742 
Q 959 2388 959 1747 
Q 959 1106 1268 751 
Q 1578 397 2138 397 
Q 2388 397 2633 464 
Q 2878 531 3122 666 
L 3122 134 
Q 2881 22 2623 -34 
Q 2366 -91 2075 -91 
Q 1284 -91 818 406 
Q 353 903 353 1747 
Q 353 2603 823 3093 
Q 1294 3584 2113 3584 
Q 2378 3584 2631 3529 
Q 2884 3475 3122 3366 
z
" transform="scale(0.015625)"/>
       <path id="DejaVuSans-68" d="M 3513 2113 
L 3513 0 
L 2938 0 
L 2938 2094 
Q 2938 2591 2744 2837 
Q 2550 3084 2163 3084 
Q 1697 3084 1428 2787 
Q 1159 2491 1159 1978 
L 1159 0 
L 581 0 
L 581 4863 
L 1159 4863 
L 1159 2956 
Q 1366 3272 1645 3428 
Q 1925 3584 2291 3584 
Q 2894 3584 3203 3211 
Q 3513 2838 3513 2113 
z
" transform="scale(0.015625)"/>
      </defs>
      <use xlink:href="#DejaVuSans-45"/>
      <use xlink:href="#DejaVuSans-70" transform="translate(63.183594 0)"/>
      <use xlink:href="#DejaVuSans-6f" transform="translate(126.660156 0)"/>
      <use xlink:href="#DejaVuSans-63" transform="translate(187.841797 0)"/>
      <use xlink:href="#DejaVuSans-68" transform="translate(242.822266 0)"/>
     </g>
    </g>
   </g>
   <g id="matplotlib.axis_2">
    <g id="ytick_1">
     <g id="line2d_6">
      <defs>
       <path id="mb970f77706" d="M 0 0 
L -3.5 0 
" style="stroke: #000000; stroke-width: 0.8"/>
      </defs>
      <g>
       <use xlink:href="#mb970f77706" x="90" y="275.811109" style="stroke: #000000; stroke-width: 0.8"/>
      </g>
     </g>
     <g id="text_7">
      <!-- 0.8 -->
      <g transform="translate(67.096875 279.610327) scale(0.1 -0.1)">
       <defs>
        <path id="DejaVuSans-2e" d="M 684 794 
L 1344 794 
L 1344 0 
L 684 0 
L 684 794 
z
" transform="scale(0.015625)"/>
       </defs>
       <use xlink:href="#DejaVuSans-30"/>
       <use xlink:href="#DejaVuSans-2e" transform="translate(63.623047 0)"/>
       <use xlink:href="#DejaVuSans-38" transform="translate(95.410156 0)"/>
      </g>
     </g>
    </g>
    <g id="ytick_2">
     <g id="line2d_7">
      <g>
       <use xlink:href="#mb970f77706" x="90" y="216.816602" style="stroke: #000000; stroke-width: 0.8"/>
      </g>
     </g>
     <g id="text_8">
      <!-- 1.0 -->
      <g transform="translate(67.096875 220.615821) scale(0.1 -0.1)">
       <use xlink:href="#DejaVuSans-31"/>
       <use xlink:href="#DejaVuSans-2e" transform="translate(63.623047 0)"/>
       <use xlink:href="#DejaVuSans-30" transform="translate(95.410156 0)"/>
      </g>
     </g>
    </g>
    <g id="ytick_3">
     <g id="line2d_8">
      <g>
       <use xlink:href="#mb970f77706" x="90" y="157.822096" style="stroke: #000000; stroke-width: 0.8"/>
      </g>
     </g>
     <g id="text_9">
      <!-- 1.2 -->
      <g transform="translate(67.096875 161.621315) scale(0.1 -0.1)">
       <use xlink:href="#DejaVuSans-31"/>
       <use xlink:href="#DejaVuSans-2e" transform="translate(63.623047 0)"/>
       <use xlink:href="#DejaVuSans-32" transform="translate(95.410156 0)"/>
      </g>
     </g>
    </g>
    <g id="ytick_4">
     <g id="line2d_9">
      <g>
       <use xlink:href="#mb970f77706" x="90" y="98.82759" style="stroke: #000000; stroke-width: 0.8"/>
      </g>
     </g>
     <g id="text_10">
      <!-- 1.4 -->
      <g transform="translate(67.096875 102.626808) scale(0.1 -0.1)">
       <use xlink:href="#DejaVuSans-31"/>
       <use xlink:href="#DejaVuSans-2e" transform="translate(63.623047 0)"/>
       <use xlink:href="#DejaVuSans-34" transform="translate(95.410156 0)"/>
      </g>
     </g>
    </g>
    <g id="text_11">
     <!-- Domain Discrimination Loss -->
     <g transform="translate(61.017187 251.453906) rotate(-90) scale(0.1 -0.1)">
      <defs>
       <path id="DejaVuSans-44" d="M 1259 4147 
L 1259 519 
L 2022 519 
Q 2988 519 3436 956 
Q 3884 1394 3884 2338 
Q 3884 3275 3436 3711 
Q 2988 4147 2022 4147 
L 1259 4147 
z
M 628 4666 
L 1925 4666 
Q 3281 4666 3915 4102 
Q 4550 3538 4550 2338 
Q 4550 1131 3912 565 
Q 3275 0 1925 0 
L 628 0 
L 628 4666 
z
" transform="scale(0.015625)"/>
       <path id="DejaVuSans-6d" d="M 3328 2828 
Q 3544 3216 3844 3400 
Q 4144 3584 4550 3584 
Q 5097 3584 5394 3201 
Q 5691 2819 5691 2113 
L 5691 0 
L 5113 0 
L 5113 2094 
Q 5113 2597 4934 2840 
Q 4756 3084 4391 3084 
Q 3944 3084 3684 2787 
Q 3425 2491 3425 1978 
L 3425 0 
L 2847 0 
L 2847 2094 
Q 2847 2600 2669 2842 
Q 2491 3084 2119 3084 
Q 1678 3084 1418 2786 
Q 1159 2488 1159 1978 
L 1159 0 
L 581 0 
L 581 3500 
L 1159 3500 
L 1159 2956 
Q 1356 3278 1631 3431 
Q 1906 3584 2284 3584 
Q 2666 3584 2933 3390 
Q 3200 3197 3328 2828 
z
" transform="scale(0.015625)"/>
       <path id="DejaVuSans-61" d="M 2194 1759 
Q 1497 1759 1228 1600 
Q 959 1441 959 1056 
Q 959 750 1161 570 
Q 1363 391 1709 391 
Q 2188 391 2477 730 
Q 2766 1069 2766 1631 
L 2766 1759 
L 2194 1759 
z
M 3341 1997 
L 3341 0 
L 2766 0 
L 2766 531 
Q 2569 213 2275 61 
Q 1981 -91 1556 -91 
Q 1019 -91 701 211 
Q 384 513 384 1019 
Q 384 1609 779 1909 
Q 1175 2209 1959 2209 
L 2766 2209 
L 2766 2266 
Q 2766 2663 2505 2880 
Q 2244 3097 1772 3097 
Q 1472 3097 1187 3025 
Q 903 2953 641 2809 
L 641 3341 
Q 956 3463 1253 3523 
Q 1550 3584 1831 3584 
Q 2591 3584 2966 3190 
Q 3341 2797 3341 1997 
z
" transform="scale(0.015625)"/>
       <path id="DejaVuSans-69" d="M 603 3500 
L 1178 3500 
L 1178 0 
L 603 0 
L 603 3500 
z
M 603 4863 
L 1178 4863 
L 1178 4134 
L 603 4134 
L 603 4863 
z
" transform="scale(0.015625)"/>
       <path id="DejaVuSans-6e" d="M 3513 2113 
L 3513 0 
L 2938 0 
L 2938 2094 
Q 2938 2591 2744 2837 
Q 2550 3084 2163 3084 
Q 1697 3084 1428 2787 
Q 1159 2491 1159 1978 
L 1159 0 
L 581 0 
L 581 3500 
L 1159 3500 
L 1159 2956 
Q 1366 3272 1645 3428 
Q 1925 3584 2291 3584 
Q 2894 3584 3203 3211 
Q 3513 2838 3513 2113 
z
" transform="scale(0.015625)"/>
       <path id="DejaVuSans-20" transform="scale(0.015625)"/>
       <path id="DejaVuSans-73" d="M 2834 3397 
L 2834 2853 
Q 2591 2978 2328 3040 
Q 2066 3103 1784 3103 
Q 1356 3103 1142 2972 
Q 928 2841 928 2578 
Q 928 2378 1081 2264 
Q 1234 2150 1697 2047 
L 1894 2003 
Q 2506 1872 2764 1633 
Q 3022 1394 3022 966 
Q 3022 478 2636 193 
Q 2250 -91 1575 -91 
Q 1294 -91 989 -36 
Q 684 19 347 128 
L 347 722 
Q 666 556 975 473 
Q 1284 391 1588 391 
Q 1994 391 2212 530 
Q 2431 669 2431 922 
Q 2431 1156 2273 1281 
Q 2116 1406 1581 1522 
L 1381 1569 
Q 847 1681 609 1914 
Q 372 2147 372 2553 
Q 372 3047 722 3315 
Q 1072 3584 1716 3584 
Q 2034 3584 2315 3537 
Q 2597 3491 2834 3397 
z
" transform="scale(0.015625)"/>
       <path id="DejaVuSans-72" d="M 2631 2963 
Q 2534 3019 2420 3045 
Q 2306 3072 2169 3072 
Q 1681 3072 1420 2755 
Q 1159 2438 1159 1844 
L 1159 0 
L 581 0 
L 581 3500 
L 1159 3500 
L 1159 2956 
Q 1341 3275 1631 3429 
Q 1922 3584 2338 3584 
Q 2397 3584 2469 3576 
Q 2541 3569 2628 3553 
L 2631 2963 
z
" transform="scale(0.015625)"/>
       <path id="DejaVuSans-74" d="M 1172 4494 
L 1172 3500 
L 2356 3500 
L 2356 3053 
L 1172 3053 
L 1172 1153 
Q 1172 725 1289 603 
Q 1406 481 1766 481 
L 2356 481 
L 2356 0 
L 1766 0 
Q 1100 0 847 248 
Q 594 497 594 1153 
L 594 3053 
L 172 3053 
L 172 3500 
L 594 3500 
L 594 4494 
L 1172 4494 
z
" transform="scale(0.015625)"/>
       <path id="DejaVuSans-4c" d="M 628 4666 
L 1259 4666 
L 1259 531 
L 3531 531 
L 3531 0 
L 628 0 
L 628 4666 
z
" transform="scale(0.015625)"/>
      </defs>
      <use xlink:href="#DejaVuSans-44"/>
      <use xlink:href="#DejaVuSans-6f" transform="translate(77.001953 0)"/>
      <use xlink:href="#DejaVuSans-6d" transform="translate(138.183594 0)"/>
      <use xlink:href="#DejaVuSans-61" transform="translate(235.595703 0)"/>
      <use xlink:href="#DejaVuSans-69" transform="translate(296.875 0)"/>
      <use xlink:href="#DejaVuSans-6e" transform="translate(324.658203 0)"/>
      <use xlink:href="#DejaVuSans-20" transform="translate(388.037109 0)"/>
      <use xlink:href="#DejaVuSans-44" transform="translate(419.824219 0)"/>
      <use xlink:href="#DejaVuSans-69" transform="translate(496.826172 0)"/>
      <use xlink:href="#DejaVuSans-73" transform="translate(524.609375 0)"/>
      <use xlink:href="#DejaVuSans-63" transform="translate(576.708984 0)"/>
      <use xlink:href="#DejaVuSans-72" transform="translate(631.689453 0)"/>
      <use xlink:href="#DejaVuSans-69" transform="translate(672.802734 0)"/>
      <use xlink:href="#DejaVuSans-6d" transform="translate(700.585938 0)"/>
      <use xlink:href="#DejaVuSans-69" transform="translate(797.998047 0)"/>
      <use xlink:href="#DejaVuSans-6e" transform="translate(825.78125 0)"/>
      <use xlink:href="#DejaVuSans-61" transform="translate(889.160156 0)"/>
      <use xlink:href="#DejaVuSans-74" transform="translate(950.439453 0)"/>
      <use xlink:href="#DejaVuSans-69" transform="translate(989.648438 0)"/>
      <use xlink:href="#DejaVuSans-6f" transform="translate(1017.431641 0)"/>
      <use xlink:href="#DejaVuSans-6e" transform="translate(1078.613281 0)"/>
      <use xlink:href="#DejaVuSans-20" transform="translate(1141.992188 0)"/>
      <use xlink:href="#DejaVuSans-4c" transform="translate(1173.779297 0)"/>
      <use xlink:href="#DejaVuSans-6f" transform="translate(1227.742188 0)"/>
      <use xlink:href="#DejaVuSans-73" transform="translate(1288.923828 0)"/>
      <use xlink:href="#DejaVuSans-73" transform="translate(1341.023438 0)"/>
     </g>
    </g>
   </g>
   <g id="line2d_10">
    <path d="M 115.363636 257.334882 
L 117.060201 284.294391 
L 118.756765 299.868719 
L 120.453329 301.490156 
L 122.149894 305.684393 
L 123.846458 306.700378 
L 125.543022 307.313943 
L 130.632715 307.38688 
L 132.329279 307.558174 
L 134.025844 307.215772 
L 135.722408 307.201754 
L 137.418972 307.380584 
L 139.115537 307.247053 
L 140.812101 307.269099 
L 142.508665 307.416178 
L 144.20523 307.156373 
L 145.901794 307.162455 
L 149.294922 307.652653 
L 150.991487 307.49799 
L 152.688051 307.003759 
L 154.384615 304.933259 
L 156.08118 305.143648 
L 157.777744 304.600937 
L 159.474308 305.305552 
L 161.170873 306.474728 
L 162.867437 306.582641 
L 164.564001 306.389842 
L 166.260566 307.154639 
L 167.95713 307.109598 
L 171.350258 307.34364 
L 173.046823 307.073368 
L 174.743387 307.300384 
L 178.136516 306.936726 
L 179.83308 307.239083 
L 181.529644 306.976537 
L 183.226209 305.202316 
L 184.922773 305.174567 
L 186.619337 303.124437 
L 190.012466 304.974901 
L 191.70903 306.844649 
L 193.405594 306.063464 
L 195.102159 306.666679 
L 198.495287 307.187775 
L 200.191852 306.896923 
L 203.58498 307.27469 
L 206.978109 307.003207 
L 208.674673 305.534974 
L 210.371237 304.465608 
L 212.067802 305.045035 
L 213.764366 306.569255 
L 215.46093 307.224228 
L 217.157495 306.954322 
L 218.854059 306.998265 
L 220.550623 306.873799 
L 222.247188 307.36132 
L 223.943752 307.561771 
L 225.640316 307.263698 
L 227.336881 306.723302 
L 230.730009 307.445501 
L 232.426573 306.791313 
L 234.123138 306.870746 
L 235.819702 306.779694 
L 237.516266 307.03113 
L 239.212831 306.269989 
L 240.909395 307.439849 
L 242.605959 306.550219 
L 244.302524 306.862346 
L 245.999088 306.820018 
L 247.695652 306.429693 
L 249.392216 306.249025 
L 251.088781 306.981475 
L 252.785345 307.144427 
L 254.481909 306.662048 
L 256.178474 306.943902 
L 257.875038 307.359048 
L 259.571602 306.819787 
L 264.661295 306.381446 
L 266.35786 306.953932 
L 268.054424 306.574716 
L 269.750988 307.268161 
L 271.447552 307.158126 
L 273.144117 307.339347 
L 274.840681 307.002005 
L 278.23381 307.623644 
L 279.930374 306.911325 
L 281.626938 306.491476 
L 283.323503 306.803089 
L 285.020067 306.715467 
L 286.716631 307.000067 
L 288.413196 307.084518 
L 290.10976 306.64177 
L 291.806324 306.992441 
L 295.199453 307.205175 
L 296.896017 306.908544 
L 301.98571 306.92436 
L 303.682274 307.092941 
L 305.378839 307.136127 
L 307.075403 307.335037 
L 308.771967 307.398576 
L 310.468531 307.578613 
L 312.165096 307.14091 
L 313.86166 306.182158 
L 315.558224 306.148632 
L 317.254789 306.755954 
L 318.951353 307.065613 
L 320.647917 306.994647 
L 322.344482 307.184691 
L 325.73761 306.956533 
L 329.130739 307.365123 
L 330.827303 306.856439 
L 332.523867 306.974849 
L 334.220432 306.318115 
L 337.61356 306.75118 
L 339.310125 307.069498 
L 341.006689 306.890283 
L 342.703253 307.01779 
L 346.096382 307.015171 
L 347.792946 307.274513 
L 349.48951 307.195235 
L 352.882639 307.8 
L 354.579203 307.073599 
L 356.275768 306.863794 
L 357.972332 306.214118 
L 359.668896 306.920085 
L 361.365461 307.01834 
L 363.062025 306.977416 
L 366.455154 307.349598 
L 368.151718 307.034355 
L 373.241411 306.85405 
L 374.937975 307.313497 
L 378.331104 306.823268 
L 381.724232 306.67506 
L 383.420797 306.414052 
L 385.117361 306.999292 
L 386.813925 307.356488 
L 390.207054 307.037523 
L 391.903618 307.034335 
L 395.296747 307.547119 
L 396.993311 306.965477 
L 398.689875 306.8756 
L 400.38644 307.430418 
L 402.083004 307.058757 
L 407.172697 307.192797 
L 408.869261 307.189271 
L 410.565825 307.003753 
L 412.26239 306.946823 
L 415.655518 307.285645 
L 417.352083 306.724579 
L 419.048647 306.88566 
L 420.745211 307.306384 
L 422.441776 307.399476 
L 424.13834 306.989534 
L 427.531469 307.15664 
L 429.228033 306.907295 
L 432.621161 307.400173 
L 434.317726 306.6234 
L 436.01429 306.661143 
L 437.710854 307.00255 
L 439.407419 306.823828 
L 441.103983 307.310859 
L 442.800547 307.216888 
L 444.497112 307.407973 
L 446.193676 307.330994 
L 447.89024 306.821644 
L 449.586804 307.258658 
L 451.283369 306.729771 
L 454.676497 306.924606 
L 456.373062 307.138251 
L 458.069626 306.538073 
L 459.76619 306.689514 
L 461.462755 307.193091 
L 463.159319 306.866063 
L 464.855883 307.165463 
L 466.552448 307.240303 
L 468.249012 307.076309 
L 469.945576 307.037144 
L 471.64214 306.726911 
L 473.338705 307.357121 
L 475.035269 306.977662 
L 476.731833 307.430008 
L 481.821526 306.478026 
L 483.518091 307.018381 
L 485.214655 307.008551 
L 486.911219 307.184738 
L 488.607784 307.193917 
L 490.304348 306.599125 
L 492.000912 306.832062 
L 493.697476 307.294954 
L 495.394041 307.079778 
L 497.090605 307.418613 
L 498.787169 307.178532 
L 500.483734 307.405581 
L 502.180298 307.209341 
L 503.876862 307.580994 
L 505.573427 307.2113 
L 507.269991 306.567054 
L 510.663119 306.946175 
L 512.359684 306.757147 
L 515.752812 307.214468 
L 517.449377 307.064442 
L 520.842505 307.306038 
L 522.53907 307.093137 
L 524.235634 307.542554 
L 525.932198 307.195366 
L 531.021891 306.940393 
L 532.718455 307.284613 
L 534.41502 307.290608 
L 536.111584 307.127457 
L 537.808148 307.327338 
L 539.504713 307.188724 
L 541.201277 307.192771 
L 542.897841 306.958898 
L 546.29097 306.865784 
L 547.987534 307.328648 
L 549.684099 307.370501 
L 551.380663 306.761051 
L 553.077227 307.095923 
L 554.773791 307.591406 
L 556.470356 307.189329 
L 558.16692 307.19625 
L 559.863484 307.042177 
L 561.560049 307.063604 
L 563.256613 306.900965 
L 564.953177 307.121277 
L 568.346306 306.950813 
L 570.04287 307.119209 
L 571.739434 307.545385 
L 573.435999 307.326266 
L 575.132563 306.573068 
L 576.829127 306.878355 
L 578.525692 307.37759 
L 580.222256 307.009304 
L 581.91882 307.397867 
L 583.615385 306.628079 
L 587.008513 306.834912 
L 588.705078 307.309959 
L 590.401642 307.137151 
L 592.098206 307.785047 
L 593.79477 307.03027 
L 595.491335 307.389545 
L 597.187899 307.475558 
L 600.581028 306.793838 
L 602.277592 306.90773 
L 603.974156 307.179112 
L 605.670721 306.98848 
L 607.367285 306.14382 
L 609.063849 306.961103 
L 610.760413 307.275851 
L 612.456978 307.062259 
L 615.850106 307.217646 
L 617.546671 307.556314 
L 619.243235 306.860554 
L 620.939799 307.267235 
L 622.636364 307.320032 
L 622.636364 307.320032 
" clip-path="url(#pb6400fef70)" style="fill: none; stroke: #1f77b4; stroke-width: 1.5; stroke-linecap: square"/>
   </g>
   <g id="line2d_11">
    <path d="M 115.363636 55.8 
L 117.060201 80.575967 
L 118.756765 91.440404 
L 120.453329 98.108082 
L 122.149894 101.203478 
L 123.846458 102.581448 
L 125.543022 102.89535 
L 127.239587 102.926967 
L 128.936151 103.090631 
L 130.632715 103.42294 
L 132.329279 103.463004 
L 134.025844 102.767181 
L 135.722408 102.832131 
L 137.418972 103.314155 
L 139.115537 102.453234 
L 140.812101 103.301344 
L 144.20523 102.59184 
L 145.901794 102.90674 
L 149.294922 103.993275 
L 152.688051 103.9476 
L 154.384615 98.189604 
L 156.08118 99.691382 
L 157.777744 98.314873 
L 159.474308 103.490269 
L 161.170873 99.621112 
L 162.867437 100.703881 
L 164.564001 102.959185 
L 166.260566 102.518197 
L 167.95713 102.826229 
L 169.653694 103.437554 
L 171.350258 103.26194 
L 173.046823 104.712784 
L 174.743387 103.655454 
L 176.439951 103.444094 
L 179.83308 104.995528 
L 181.529644 102.193987 
L 183.226209 108.608902 
L 184.922773 102.290589 
L 186.619337 100.648999 
L 188.315901 91.998925 
L 190.012466 101.969239 
L 191.70903 101.910416 
L 193.405594 99.172653 
L 195.102159 101.661512 
L 196.798723 101.719113 
L 198.495287 102.73303 
L 200.191852 102.724531 
L 201.888416 102.258088 
L 203.58498 104.258716 
L 205.281545 103.219384 
L 206.978109 101.417148 
L 208.674673 94.878236 
L 210.371237 95.700428 
L 212.067802 99.95474 
L 213.764366 102.275775 
L 215.46093 102.596008 
L 218.854059 102.106831 
L 220.550623 102.511283 
L 223.943752 104.023991 
L 225.640316 102.529033 
L 227.336881 102.549325 
L 229.033445 103.191421 
L 230.730009 104.122679 
L 232.426573 104.068208 
L 234.123138 102.37638 
L 235.819702 102.290111 
L 237.516266 102.734791 
L 239.212831 102.332572 
L 240.909395 104.475777 
L 242.605959 102.139619 
L 244.302524 102.984048 
L 245.999088 102.233335 
L 247.695652 100.973801 
L 249.392216 104.841334 
L 251.088781 105.473843 
L 252.785345 102.310535 
L 254.481909 101.81199 
L 256.178474 104.870852 
L 259.571602 101.28182 
L 261.268167 102.525917 
L 262.964731 104.420925 
L 264.661295 102.25416 
L 268.054424 102.002384 
L 269.750988 103.532714 
L 271.447552 103.113363 
L 273.144117 102.270032 
L 274.840681 103.254352 
L 276.537245 104.038408 
L 278.23381 104.11009 
L 279.930374 104.475842 
L 281.626938 102.145291 
L 283.323503 103.295986 
L 285.020067 102.391265 
L 286.716631 103.600932 
L 288.413196 104.570586 
L 290.10976 101.993372 
L 293.502888 103.381471 
L 295.199453 103.62467 
L 296.896017 103.090918 
L 298.592581 101.797403 
L 300.289146 103.822659 
L 301.98571 102.445449 
L 303.682274 102.70142 
L 305.378839 101.72356 
L 307.075403 104.587321 
L 308.771967 104.886278 
L 310.468531 102.835959 
L 312.165096 104.069166 
L 313.86166 99.156608 
L 315.558224 103.251729 
L 317.254789 102.403745 
L 318.951353 102.199302 
L 320.647917 103.159627 
L 322.344482 102.684166 
L 324.041046 104.724169 
L 325.73761 104.596912 
L 327.434175 104.093523 
L 329.130739 105.599112 
L 330.827303 102.473978 
L 332.523867 103.573077 
L 334.220432 105.934122 
L 335.916996 101.542403 
L 337.61356 102.863808 
L 339.310125 105.182384 
L 341.006689 102.684258 
L 342.703253 104.129401 
L 344.399818 103.623739 
L 346.096382 103.652203 
L 347.792946 104.239552 
L 349.48951 103.738434 
L 351.186075 105.811532 
L 352.882639 103.443981 
L 354.579203 104.238223 
L 356.275768 101.235098 
L 357.972332 101.084131 
L 359.668896 103.098897 
L 361.365461 102.679811 
L 363.062025 102.789105 
L 364.758589 102.256949 
L 366.455154 104.162979 
L 368.151718 102.838382 
L 369.848282 104.54226 
L 371.544846 101.972328 
L 373.241411 102.977105 
L 374.937975 104.616455 
L 376.634539 102.424351 
L 378.331104 103.878788 
L 380.027668 105.712327 
L 381.724232 102.043991 
L 383.420797 102.754496 
L 385.117361 102.783235 
L 386.813925 102.672873 
L 388.51049 102.403015 
L 390.207054 102.429956 
L 391.903618 102.672143 
L 393.600182 103.208169 
L 395.296747 103.59975 
L 396.993311 104.127807 
L 398.689875 102.653925 
L 400.38644 103.119936 
L 402.083004 103.843427 
L 403.779568 103.471265 
L 405.476133 105.00186 
L 407.172697 102.580653 
L 408.869261 103.223755 
L 410.565825 102.63728 
L 413.958954 103.6286 
L 415.655518 102.270514 
L 417.352083 101.443461 
L 419.048647 104.231913 
L 420.745211 104.279538 
L 422.441776 103.730271 
L 424.13834 103.456924 
L 425.834904 105.122457 
L 427.531469 103.690761 
L 429.228033 102.683465 
L 430.924597 104.916851 
L 432.621161 102.484362 
L 434.317726 103.740958 
L 436.01429 103.020721 
L 437.710854 102.071334 
L 439.407419 103.529942 
L 442.800547 103.451836 
L 444.497112 102.722007 
L 446.193676 103.617009 
L 447.89024 102.322545 
L 449.586804 105.08965 
L 451.283369 103.816943 
L 452.979933 104.204564 
L 454.676497 102.431579 
L 456.373062 103.016945 
L 458.069626 104.009534 
L 459.76619 103.052693 
L 463.159319 103.484714 
L 464.855883 100.445438 
L 466.552448 104.949902 
L 468.249012 103.363438 
L 469.945576 105.515531 
L 471.64214 102.557629 
L 473.338705 103.281279 
L 475.035269 103.056217 
L 476.731833 103.554483 
L 478.428398 102.496033 
L 480.124962 101.604131 
L 481.821526 102.221006 
L 483.518091 101.411411 
L 485.214655 102.736411 
L 486.911219 103.298685 
L 490.304348 102.162932 
L 492.000912 103.015998 
L 493.697476 101.873526 
L 495.394041 103.593515 
L 497.090605 102.349088 
L 498.787169 102.214769 
L 500.483734 104.514411 
L 502.180298 103.251207 
L 503.876862 105.672698 
L 505.573427 106.47914 
L 507.269991 100.738155 
L 508.966555 104.254577 
L 510.663119 101.62217 
L 512.359684 102.346386 
L 514.056248 103.775229 
L 515.752812 102.739135 
L 517.449377 100.900653 
L 519.145941 104.090989 
L 520.842505 102.777509 
L 522.53907 103.340219 
L 524.235634 103.244569 
L 525.932198 104.0546 
L 527.628763 104.662733 
L 529.325327 102.642643 
L 531.021891 103.541752 
L 532.718455 103.297974 
L 534.41502 103.617283 
L 536.111584 103.160342 
L 537.808148 104.979091 
L 539.504713 102.649562 
L 541.201277 104.394614 
L 542.897841 101.537366 
L 544.594406 102.897024 
L 546.29097 102.793697 
L 547.987534 103.907803 
L 549.684099 105.62245 
L 551.380663 102.712949 
L 553.077227 102.762856 
L 554.773791 105.126085 
L 556.470356 102.751409 
L 558.16692 103.747555 
L 559.863484 102.706406 
L 561.560049 104.240725 
L 563.256613 103.116863 
L 564.953177 102.951565 
L 566.649742 101.946731 
L 568.346306 102.019314 
L 570.04287 104.620158 
L 571.739434 104.915166 
L 573.435999 104.01071 
L 575.132563 102.408536 
L 576.829127 102.716316 
L 580.222256 104.476634 
L 581.91882 101.178418 
L 583.615385 104.974095 
L 585.311949 101.960153 
L 588.705078 105.076061 
L 590.401642 105.09549 
L 592.098206 104.362442 
L 593.79477 105.133066 
L 595.491335 103.147545 
L 597.187899 103.475371 
L 598.884463 104.507632 
L 600.581028 103.590761 
L 602.277592 104.898409 
L 603.974156 102.289621 
L 605.670721 102.641034 
L 607.367285 102.789897 
L 609.063849 103.168551 
L 610.760413 104.626296 
L 612.456978 101.659116 
L 614.153542 103.243143 
L 615.850106 102.645578 
L 617.546671 105.072347 
L 619.243235 102.754704 
L 620.939799 103.114456 
L 622.636364 105.552566 
L 622.636364 105.552566 
" clip-path="url(#pb6400fef70)" style="fill: none; stroke: #ff7f0e; stroke-width: 1.5; stroke-linecap: square"/>
   </g>
   <g id="patch_3">
    <path d="M 90 320.4 
L 90 43.2 
" style="fill: none; stroke: #000000; stroke-width: 0.8; stroke-linejoin: miter; stroke-linecap: square"/>
   </g>
   <g id="patch_4">
    <path d="M 648 320.4 
L 648 43.2 
" style="fill: none; stroke: #000000; stroke-width: 0.8; stroke-linejoin: miter; stroke-linecap: square"/>
   </g>
   <g id="patch_5">
    <path d="M 90 320.4 
L 648 320.4 
" style="fill: none; stroke: #000000; stroke-width: 0.8; stroke-linejoin: miter; stroke-linecap: square"/>
   </g>
   <g id="patch_6">
    <path d="M 90 43.2 
L 648 43.2 
" style="fill: none; stroke: #000000; stroke-width: 0.8; stroke-linejoin: miter; stroke-linecap: square"/>
   </g>
   <g id="text_12">
    <!-- Training and Validating Domain Discrimination Loss -->
    <g transform="translate(214.96875 37.2) scale(0.12 -0.12)">
     <defs>
      <path id="DejaVuSans-54" d="M -19 4666 
L 3928 4666 
L 3928 4134 
L 2272 4134 
L 2272 0 
L 1638 0 
L 1638 4134 
L -19 4134 
L -19 4666 
z
" transform="scale(0.015625)"/>
      <path id="DejaVuSans-67" d="M 2906 1791 
Q 2906 2416 2648 2759 
Q 2391 3103 1925 3103 
Q 1463 3103 1205 2759 
Q 947 2416 947 1791 
Q 947 1169 1205 825 
Q 1463 481 1925 481 
Q 2391 481 2648 825 
Q 2906 1169 2906 1791 
z
M 3481 434 
Q 3481 -459 3084 -895 
Q 2688 -1331 1869 -1331 
Q 1566 -1331 1297 -1286 
Q 1028 -1241 775 -1147 
L 775 -588 
Q 1028 -725 1275 -790 
Q 1522 -856 1778 -856 
Q 2344 -856 2625 -561 
Q 2906 -266 2906 331 
L 2906 616 
Q 2728 306 2450 153 
Q 2172 0 1784 0 
Q 1141 0 747 490 
Q 353 981 353 1791 
Q 353 2603 747 3093 
Q 1141 3584 1784 3584 
Q 2172 3584 2450 3431 
Q 2728 3278 2906 2969 
L 2906 3500 
L 3481 3500 
L 3481 434 
z
" transform="scale(0.015625)"/>
      <path id="DejaVuSans-64" d="M 2906 2969 
L 2906 4863 
L 3481 4863 
L 3481 0 
L 2906 0 
L 2906 525 
Q 2725 213 2448 61 
Q 2172 -91 1784 -91 
Q 1150 -91 751 415 
Q 353 922 353 1747 
Q 353 2572 751 3078 
Q 1150 3584 1784 3584 
Q 2172 3584 2448 3432 
Q 2725 3281 2906 2969 
z
M 947 1747 
Q 947 1113 1208 752 
Q 1469 391 1925 391 
Q 2381 391 2643 752 
Q 2906 1113 2906 1747 
Q 2906 2381 2643 2742 
Q 2381 3103 1925 3103 
Q 1469 3103 1208 2742 
Q 947 2381 947 1747 
z
" transform="scale(0.015625)"/>
      <path id="DejaVuSans-56" d="M 1831 0 
L 50 4666 
L 709 4666 
L 2188 738 
L 3669 4666 
L 4325 4666 
L 2547 0 
L 1831 0 
z
" transform="scale(0.015625)"/>
      <path id="DejaVuSans-6c" d="M 603 4863 
L 1178 4863 
L 1178 0 
L 603 0 
L 603 4863 
z
" transform="scale(0.015625)"/>
     </defs>
     <use xlink:href="#DejaVuSans-54"/>
     <use xlink:href="#DejaVuSans-72" transform="translate(46.333984 0)"/>
     <use xlink:href="#DejaVuSans-61" transform="translate(87.447266 0)"/>
     <use xlink:href="#DejaVuSans-69" transform="translate(148.726562 0)"/>
     <use xlink:href="#DejaVuSans-6e" transform="translate(176.509766 0)"/>
     <use xlink:href="#DejaVuSans-69" transform="translate(239.888672 0)"/>
     <use xlink:href="#DejaVuSans-6e" transform="translate(267.671875 0)"/>
     <use xlink:href="#DejaVuSans-67" transform="translate(331.050781 0)"/>
     <use xlink:href="#DejaVuSans-20" transform="translate(394.527344 0)"/>
     <use xlink:href="#DejaVuSans-61" transform="translate(426.314453 0)"/>
     <use xlink:href="#DejaVuSans-6e" transform="translate(487.59375 0)"/>
     <use xlink:href="#DejaVuSans-64" transform="translate(550.972656 0)"/>
     <use xlink:href="#DejaVuSans-20" transform="translate(614.449219 0)"/>
     <use xlink:href="#DejaVuSans-56" transform="translate(646.236328 0)"/>
     <use xlink:href="#DejaVuSans-61" transform="translate(706.894531 0)"/>
     <use xlink:href="#DejaVuSans-6c" transform="translate(768.173828 0)"/>
     <use xlink:href="#DejaVuSans-69" transform="translate(795.957031 0)"/>
     <use xlink:href="#DejaVuSans-64" transform="translate(823.740234 0)"/>
     <use xlink:href="#DejaVuSans-61" transform="translate(887.216797 0)"/>
     <use xlink:href="#DejaVuSans-74" transform="translate(948.496094 0)"/>
     <use xlink:href="#DejaVuSans-69" transform="translate(987.705078 0)"/>
     <use xlink:href="#DejaVuSans-6e" transform="translate(1015.488281 0)"/>
     <use xlink:href="#DejaVuSans-67" transform="translate(1078.867188 0)"/>
     <use xlink:href="#DejaVuSans-20" transform="translate(1142.34375 0)"/>
     <use xlink:href="#DejaVuSans-44" transform="translate(1174.130859 0)"/>
     <use xlink:href="#DejaVuSans-6f" transform="translate(1251.132812 0)"/>
     <use xlink:href="#DejaVuSans-6d" transform="translate(1312.314453 0)"/>
     <use xlink:href="#DejaVuSans-61" transform="translate(1409.726562 0)"/>
     <use xlink:href="#DejaVuSans-69" transform="translate(1471.005859 0)"/>
     <use xlink:href="#DejaVuSans-6e" transform="translate(1498.789062 0)"/>
     <use xlink:href="#DejaVuSans-20" transform="translate(1562.167969 0)"/>
     <use xlink:href="#DejaVuSans-44" transform="translate(1593.955078 0)"/>
     <use xlink:href="#DejaVuSans-69" transform="translate(1670.957031 0)"/>
     <use xlink:href="#DejaVuSans-73" transform="translate(1698.740234 0)"/>
     <use xlink:href="#DejaVuSans-63" transform="translate(1750.839844 0)"/>
     <use xlink:href="#DejaVuSans-72" transform="translate(1805.820312 0)"/>
     <use xlink:href="#DejaVuSans-69" transform="translate(1846.933594 0)"/>
     <use xlink:href="#DejaVuSans-6d" transform="translate(1874.716797 0)"/>
     <use xlink:href="#DejaVuSans-69" transform="translate(1972.128906 0)"/>
     <use xlink:href="#DejaVuSans-6e" transform="translate(1999.912109 0)"/>
     <use xlink:href="#DejaVuSans-61" transform="translate(2063.291016 0)"/>
     <use xlink:href="#DejaVuSans-74" transform="translate(2124.570312 0)"/>
     <use xlink:href="#DejaVuSans-69" transform="translate(2163.779297 0)"/>
     <use xlink:href="#DejaVuSans-6f" transform="translate(2191.5625 0)"/>
     <use xlink:href="#DejaVuSans-6e" transform="translate(2252.744141 0)"/>
     <use xlink:href="#DejaVuSans-20" transform="translate(2316.123047 0)"/>
     <use xlink:href="#DejaVuSans-4c" transform="translate(2347.910156 0)"/>
     <use xlink:href="#DejaVuSans-6f" transform="translate(2401.873047 0)"/>
     <use xlink:href="#DejaVuSans-73" transform="translate(2463.054688 0)"/>
     <use xlink:href="#DejaVuSans-73" transform="translate(2515.154297 0)"/>
    </g>
   </g>
   <g id="legend_1">
    <g id="patch_7">
     <path d="M 559.389063 80.55625 
L 641 80.55625 
Q 643 80.55625 643 78.55625 
L 643 50.2 
Q 643 48.2 641 48.2 
L 559.389063 48.2 
Q 557.389063 48.2 557.389063 50.2 
L 557.389063 78.55625 
Q 557.389063 80.55625 559.389063 80.55625 
z
" style="fill: #ffffff; opacity: 0.8; stroke: #cccccc; stroke-linejoin: miter"/>
    </g>
    <g id="line2d_12">
     <path d="M 561.389063 56.298437 
L 571.389063 56.298437 
L 581.389063 56.298437 
" style="fill: none; stroke: #1f77b4; stroke-width: 1.5; stroke-linecap: square"/>
    </g>
    <g id="text_13">
     <!-- Training -->
     <g transform="translate(589.389063 59.798437) scale(0.1 -0.1)">
      <use xlink:href="#DejaVuSans-54"/>
      <use xlink:href="#DejaVuSans-72" transform="translate(46.333984 0)"/>
      <use xlink:href="#DejaVuSans-61" transform="translate(87.447266 0)"/>
      <use xlink:href="#DejaVuSans-69" transform="translate(148.726562 0)"/>
      <use xlink:href="#DejaVuSans-6e" transform="translate(176.509766 0)"/>
      <use xlink:href="#DejaVuSans-69" transform="translate(239.888672 0)"/>
      <use xlink:href="#DejaVuSans-6e" transform="translate(267.671875 0)"/>
      <use xlink:href="#DejaVuSans-67" transform="translate(331.050781 0)"/>
     </g>
    </g>
    <g id="line2d_13">
     <path d="M 561.389063 70.976562 
L 571.389063 70.976562 
L 581.389063 70.976562 
" style="fill: none; stroke: #ff7f0e; stroke-width: 1.5; stroke-linecap: square"/>
    </g>
    <g id="text_14">
     <!-- Validating -->
     <g transform="translate(589.389063 74.476562) scale(0.1 -0.1)">
      <use xlink:href="#DejaVuSans-56"/>
      <use xlink:href="#DejaVuSans-61" transform="translate(60.658203 0)"/>
      <use xlink:href="#DejaVuSans-6c" transform="translate(121.9375 0)"/>
      <use xlink:href="#DejaVuSans-69" transform="translate(149.720703 0)"/>
      <use xlink:href="#DejaVuSans-64" transform="translate(177.503906 0)"/>
      <use xlink:href="#DejaVuSans-61" transform="translate(240.980469 0)"/>
      <use xlink:href="#DejaVuSans-74" transform="translate(302.259766 0)"/>
      <use xlink:href="#DejaVuSans-69" transform="translate(341.46875 0)"/>
      <use xlink:href="#DejaVuSans-6e" transform="translate(369.251953 0)"/>
      <use xlink:href="#DejaVuSans-67" transform="translate(432.630859 0)"/>
     </g>
    </g>
   </g>
  </g>
 </g>
 <defs>
  <clipPath id="pb6400fef70">
   <rect x="90" y="43.2" width="558" height="277.2"/>
  </clipPath>
 </defs>
</svg>
