<?xml version="1.0" encoding="utf-8" standalone="no"?>
<!DOCTYPE svg PUBLIC "-//W3C//DTD SVG 1.1//EN"
  "http://www.w3.org/Graphics/SVG/1.1/DTD/svg11.dtd">
<svg xmlns:xlink="http://www.w3.org/1999/xlink" width="720pt" height="360pt" viewBox="0 0 720 360" xmlns="http://www.w3.org/2000/svg" version="1.1">
 <metadata>
  <rdf:RDF xmlns:dc="http://purl.org/dc/elements/1.1/" xmlns:cc="http://creativecommons.org/ns#" xmlns:rdf="http://www.w3.org/1999/02/22-rdf-syntax-ns#">
   <cc:Work>
    <dc:type rdf:resource="http://purl.org/dc/dcmitype/StillImage"/>
    <dc:date>2025-11-18T22:27:59.099705</dc:date>
    <dc:format>image/svg+xml</dc:format>
    <dc:creator>
     <cc:Agent>
      <dc:title>Matplotlib v3.10.1, https://matplotlib.org/</dc:title>
     </cc:Agent>
    </dc:creator>
   </cc:Work>
  </rdf:RDF>
 </metadata>
 <defs>
  <style type="text/css">*{stroke-linejoin: round; stroke-linecap: butt}</style>
 </defs>
 <g id="figure_1">
  <g id="patch_1">
   <path d="M 0 360 
L 720 360 
L 720 0 
L 0 0 
z
" style="fill: #ffffff"/>
  </g>
  <g id="axes_1">
   <g id="patch_2">
    <path d="M 90 320.4 
L 648 320.4 
L 648 43.2 
L 90 43.2 
z
" style="fill: #ffffff"/>
   </g>
   <g id="matplotlib.axis_1">
    <g id="xtick_1">
     <g id="line2d_1">
      <defs>
       <path id="m213a4c3377" d="M 0 0 
L 0 3.5 
" style="stroke: #000000; stroke-width: 0.8"/>
      </defs>
      <g>
       <use xlink:href="#m213a4c3377" x="115.363636" y="320.4" style="stroke: #000000; stroke-width: 0.8"/>
      </g>
     </g>
     <g id="text_1">
      <!-- 0 -->
      <g transform="translate(112.182386 334.998438) scale(0.1 -0.1)">
       <defs>
        <path id="DejaVuSans-30" d="M 2034 4250 
Q 1547 4250 1301 3770 
Q 1056 3291 1056 2328 
Q 1056 1369 1301 889 
Q 1547 409 2034 409 
Q 2525 409 2770 889 
Q 3016 1369 3016 2328 
Q 3016 3291 2770 3770 
Q 2525 4250 2034 4250 
z
M 2034 4750 
Q 2819 4750 3233 4129 
Q 3647 3509 3647 2328 
Q 3647 1150 3233 529 
Q 2819 -91 2034 -91 
Q 1250 -91 836 529 
Q 422 1150 422 2328 
Q 422 3509 836 4129 
Q 1250 4750 2034 4750 
z
" transform="scale(0.015625)"/>
       </defs>
       <use xlink:href="#DejaVuSans-30"/>
      </g>
     </g>
    </g>
    <g id="xtick_2">
     <g id="line2d_2">
      <g>
       <use xlink:href="#m213a4c3377" x="217.157495" y="320.4" style="stroke: #000000; stroke-width: 0.8"/>
      </g>
     </g>
     <g id="text_2">
      <!-- 60 -->
      <g transform="translate(210.794995 334.998438) scale(0.1 -0.1)">
       <defs>
        <path id="DejaVuSans-36" d="M 2113 2584 
Q 1688 2584 1439 2293 
Q 1191 2003 1191 1497 
Q 1191 994 1439 701 
Q 1688 409 2113 409 
Q 2538 409 2786 701 
Q 3034 994 3034 1497 
Q 3034 2003 2786 2293 
Q 2538 2584 2113 2584 
z
M 3366 4563 
L 3366 3988 
Q 3128 4100 2886 4159 
Q 2644 4219 2406 4219 
Q 1781 4219 1451 3797 
Q 1122 3375 1075 2522 
Q 1259 2794 1537 2939 
Q 1816 3084 2150 3084 
Q 2853 3084 3261 2657 
Q 3669 2231 3669 1497 
Q 3669 778 3244 343 
Q 2819 -91 2113 -91 
Q 1303 -91 875 529 
Q 447 1150 447 2328 
Q 447 3434 972 4092 
Q 1497 4750 2381 4750 
Q 2619 4750 2861 4703 
Q 3103 4656 3366 4563 
z
" transform="scale(0.015625)"/>
       </defs>
       <use xlink:href="#DejaVuSans-36"/>
       <use xlink:href="#DejaVuSans-30" transform="translate(63.623047 0)"/>
      </g>
     </g>
    </g>
    <g id="xtick_3">
     <g id="line2d_3">
      <g>
       <use xlink:href="#m213a4c3377" x="318.951353" y="320.4" style="stroke: #000000; stroke-width: 0.8"/>
      </g>
     </g>
     <g id="text_3">
      <!-- 120 -->
      <g transform="translate(309.407603 334.998438) scale(0.1 -0.1)">
       <defs>
        <path id="DejaVuSans-31" d="M 794 531 
L 1825 531 
L 1825 4091 
L 703 3866 
L 703 4441 
L 1819 4666 
L 2450 4666 
L 2450 531 
L 3481 531 
L 3481 0 
L 794 0 
L 794 531 
z
" transform="scale(0.015625)"/>
        <path id="DejaVuSans-32" d="M 1228 531 
L 3431 531 
L 3431 0 
L 469 0 
L 469 531 
Q 828 903 1448 1529 
Q 2069 2156 2228 2338 
Q 2531 2678 2651 2914 
Q 2772 3150 2772 3378 
Q 2772 3750 2511 3984 
Q 2250 4219 1831 4219 
Q 1534 4219 1204 4116 
Q 875 4013 500 3803 
L 500 4441 
Q 881 4594 1212 4672 
Q 1544 4750 1819 4750 
Q 2544 4750 2975 4387 
Q 3406 4025 3406 3419 
Q 3406 3131 3298 2873 
Q 3191 2616 2906 2266 
Q 2828 2175 2409 1742 
Q 1991 1309 1228 531 
z
" transform="scale(0.015625)"/>
       </defs>
       <use xlink:href="#DejaVuSans-31"/>
       <use xlink:href="#DejaVuSans-32" transform="translate(63.623047 0)"/>
       <use xlink:href="#DejaVuSans-30" transform="translate(127.246094 0)"/>
      </g>
     </g>
    </g>
    <g id="xtick_4">
     <g id="line2d_4">
      <g>
       <use xlink:href="#m213a4c3377" x="420.745211" y="320.4" style="stroke: #000000; stroke-width: 0.8"/>
      </g>
     </g>
     <g id="text_4">
      <!-- 180 -->
      <g transform="translate(411.201461 334.998438) scale(0.1 -0.1)">
       <defs>
        <path id="DejaVuSans-38" d="M 2034 2216 
Q 1584 2216 1326 1975 
Q 1069 1734 1069 1313 
Q 1069 891 1326 650 
Q 1584 409 2034 409 
Q 2484 409 2743 651 
Q 3003 894 3003 1313 
Q 3003 1734 2745 1975 
Q 2488 2216 2034 2216 
z
M 1403 2484 
Q 997 2584 770 2862 
Q 544 3141 544 3541 
Q 544 4100 942 4425 
Q 1341 4750 2034 4750 
Q 2731 4750 3128 4425 
Q 3525 4100 3525 3541 
Q 3525 3141 3298 2862 
Q 3072 2584 2669 2484 
Q 3125 2378 3379 2068 
Q 3634 1759 3634 1313 
Q 3634 634 3220 271 
Q 2806 -91 2034 -91 
Q 1263 -91 848 271 
Q 434 634 434 1313 
Q 434 1759 690 2068 
Q 947 2378 1403 2484 
z
M 1172 3481 
Q 1172 3119 1398 2916 
Q 1625 2713 2034 2713 
Q 2441 2713 2670 2916 
Q 2900 3119 2900 3481 
Q 2900 3844 2670 4047 
Q 2441 4250 2034 4250 
Q 1625 4250 1398 4047 
Q 1172 3844 1172 3481 
z
" transform="scale(0.015625)"/>
       </defs>
       <use xlink:href="#DejaVuSans-31"/>
       <use xlink:href="#DejaVuSans-38" transform="translate(63.623047 0)"/>
       <use xlink:href="#DejaVuSans-30" transform="translate(127.246094 0)"/>
      </g>
     </g>
    </g>
    <g id="xtick_5">
     <g id="line2d_5">
      <g>
       <use xlink:href="#m213a4c3377" x="522.53907" y="320.4" style="stroke: #000000; stroke-width: 0.8"/>
      </g>
     </g>
     <g id="text_5">
      <!-- 240 -->
      <g transform="translate(512.99532 334.998438) scale(0.1 -0.1)">
       <defs>
        <path id="DejaVuSans-34" d="M 2419 4116 
L 825 1625 
L 2419 1625 
L 2419 4116 
z
M 2253 4666 
L 3047 4666 
L 3047 1625 
L 3713 1625 
L 3713 1100 
L 3047 1100 
L 3047 0 
L 2419 0 
L 2419 1100 
L 313 1100 
L 313 1709 
L 2253 4666 
z
" transform="scale(0.015625)"/>
       </defs>
       <use xlink:href="#DejaVuSans-32"/>
       <use xlink:href="#DejaVuSans-34" transform="translate(63.623047 0)"/>
       <use xlink:href="#DejaVuSans-30" transform="translate(127.246094 0)"/>
      </g>
     </g>
    </g>
    <g id="text_6">
     <!-- Epoch -->
     <g transform="translate(353.689062 348.676562) scale(0.1 -0.1)">
      <defs>
       <path id="DejaVuSans-45" d="M 628 4666 
L 3578 4666 
L 3578 4134 
L 1259 4134 
L 1259 2753 
L 3481 2753 
L 3481 2222 
L 1259 2222 
L 1259 531 
L 3634 531 
L 3634 0 
L 628 0 
L 628 4666 
z
" transform="scale(0.015625)"/>
       <path id="DejaVuSans-70" d="M 1159 525 
L 1159 -1331 
L 581 -1331 
L 581 3500 
L 1159 3500 
L 1159 2969 
Q 1341 3281 1617 3432 
Q 1894 3584 2278 3584 
Q 2916 3584 3314 3078 
Q 3713 2572 3713 1747 
Q 3713 922 3314 415 
Q 2916 -91 2278 -91 
Q 1894 -91 1617 61 
Q 1341 213 1159 525 
z
M 3116 1747 
Q 3116 2381 2855 2742 
Q 2594 3103 2138 3103 
Q 1681 3103 1420 2742 
Q 1159 2381 1159 1747 
Q 1159 1113 1420 752 
Q 1681 391 2138 391 
Q 2594 391 2855 752 
Q 3116 1113 3116 1747 
z
" transform="scale(0.015625)"/>
       <path id="DejaVuSans-6f" d="M 1959 3097 
Q 1497 3097 1228 2736 
Q 959 2375 959 1747 
Q 959 1119 1226 758 
Q 1494 397 1959 397 
Q 2419 397 2687 759 
Q 2956 1122 2956 1747 
Q 2956 2369 2687 2733 
Q 2419 3097 1959 3097 
z
M 1959 3584 
Q 2709 3584 3137 3096 
Q 3566 2609 3566 1747 
Q 3566 888 3137 398 
Q 2709 -91 1959 -91 
Q 1206 -91 779 398 
Q 353 888 353 1747 
Q 353 2609 779 3096 
Q 1206 3584 1959 3584 
z
" transform="scale(0.015625)"/>
       <path id="DejaVuSans-63" d="M 3122 3366 
L 3122 2828 
Q 2878 2963 2633 3030 
Q 2388 3097 2138 3097 
Q 1578 3097 1268 2742 
Q 959 2388 959 1747 
Q 959 1106 1268 751 
Q 1578 397 2138 397 
Q 2388 397 2633 464 
Q 2878 531 3122 666 
L 3122 134 
Q 2881 22 2623 -34 
Q 2366 -91 2075 -91 
Q 1284 -91 818 406 
Q 353 903 353 1747 
Q 353 2603 823 3093 
Q 1294 3584 2113 3584 
Q 2378 3584 2631 3529 
Q 2884 3475 3122 3366 
z
" transform="scale(0.015625)"/>
       <path id="DejaVuSans-68" d="M 3513 2113 
L 3513 0 
L 2938 0 
L 2938 2094 
Q 2938 2591 2744 2837 
Q 2550 3084 2163 3084 
Q 1697 3084 1428 2787 
Q 1159 2491 1159 1978 
L 1159 0 
L 581 0 
L 581 4863 
L 1159 4863 
L 1159 2956 
Q 1366 3272 1645 3428 
Q 1925 3584 2291 3584 
Q 2894 3584 3203 3211 
Q 3513 2838 3513 2113 
z
" transform="scale(0.015625)"/>
      </defs>
      <use xlink:href="#DejaVuSans-45"/>
      <use xlink:href="#DejaVuSans-70" transform="translate(63.183594 0)"/>
      <use xlink:href="#DejaVuSans-6f" transform="translate(126.660156 0)"/>
      <use xlink:href="#DejaVuSans-63" transform="translate(187.841797 0)"/>
      <use xlink:href="#DejaVuSans-68" transform="translate(242.822266 0)"/>
     </g>
    </g>
   </g>
   <g id="matplotlib.axis_2">
    <g id="ytick_1">
     <g id="line2d_6">
      <defs>
       <path id="mca33cc84d9" d="M 0 0 
L -3.5 0 
" style="stroke: #000000; stroke-width: 0.8"/>
      </defs>
      <g>
       <use xlink:href="#mca33cc84d9" x="90" y="312.328223" style="stroke: #000000; stroke-width: 0.8"/>
      </g>
     </g>
     <g id="text_7">
      <!-- 0.00 -->
      <g transform="translate(60.734375 316.127441) scale(0.1 -0.1)">
       <defs>
        <path id="DejaVuSans-2e" d="M 684 794 
L 1344 794 
L 1344 0 
L 684 0 
L 684 794 
z
" transform="scale(0.015625)"/>
       </defs>
       <use xlink:href="#DejaVuSans-30"/>
       <use xlink:href="#DejaVuSans-2e" transform="translate(63.623047 0)"/>
       <use xlink:href="#DejaVuSans-30" transform="translate(95.410156 0)"/>
       <use xlink:href="#DejaVuSans-30" transform="translate(159.033203 0)"/>
      </g>
     </g>
    </g>
    <g id="ytick_2">
     <g id="line2d_7">
      <g>
       <use xlink:href="#mca33cc84d9" x="90" y="280.062063" style="stroke: #000000; stroke-width: 0.8"/>
      </g>
     </g>
     <g id="text_8">
      <!-- 0.05 -->
      <g transform="translate(60.734375 283.861281) scale(0.1 -0.1)">
       <defs>
        <path id="DejaVuSans-35" d="M 691 4666 
L 3169 4666 
L 3169 4134 
L 1269 4134 
L 1269 2991 
Q 1406 3038 1543 3061 
Q 1681 3084 1819 3084 
Q 2600 3084 3056 2656 
Q 3513 2228 3513 1497 
Q 3513 744 3044 326 
Q 2575 -91 1722 -91 
Q 1428 -91 1123 -41 
Q 819 9 494 109 
L 494 744 
Q 775 591 1075 516 
Q 1375 441 1709 441 
Q 2250 441 2565 725 
Q 2881 1009 2881 1497 
Q 2881 1984 2565 2268 
Q 2250 2553 1709 2553 
Q 1456 2553 1204 2497 
Q 953 2441 691 2322 
L 691 4666 
z
" transform="scale(0.015625)"/>
       </defs>
       <use xlink:href="#DejaVuSans-30"/>
       <use xlink:href="#DejaVuSans-2e" transform="translate(63.623047 0)"/>
       <use xlink:href="#DejaVuSans-30" transform="translate(95.410156 0)"/>
       <use xlink:href="#DejaVuSans-35" transform="translate(159.033203 0)"/>
      </g>
     </g>
    </g>
    <g id="ytick_3">
     <g id="line2d_8">
      <g>
       <use xlink:href="#mca33cc84d9" x="90" y="247.795902" style="stroke: #000000; stroke-width: 0.8"/>
      </g>
     </g>
     <g id="text_9">
      <!-- 0.10 -->
      <g transform="translate(60.734375 251.595121) scale(0.1 -0.1)">
       <use xlink:href="#DejaVuSans-30"/>
       <use xlink:href="#DejaVuSans-2e" transform="translate(63.623047 0)"/>
       <use xlink:href="#DejaVuSans-31" transform="translate(95.410156 0)"/>
       <use xlink:href="#DejaVuSans-30" transform="translate(159.033203 0)"/>
      </g>
     </g>
    </g>
    <g id="ytick_4">
     <g id="line2d_9">
      <g>
       <use xlink:href="#mca33cc84d9" x="90" y="215.529742" style="stroke: #000000; stroke-width: 0.8"/>
      </g>
     </g>
     <g id="text_10">
      <!-- 0.15 -->
      <g transform="translate(60.734375 219.328961) scale(0.1 -0.1)">
       <use xlink:href="#DejaVuSans-30"/>
       <use xlink:href="#DejaVuSans-2e" transform="translate(63.623047 0)"/>
       <use xlink:href="#DejaVuSans-31" transform="translate(95.410156 0)"/>
       <use xlink:href="#DejaVuSans-35" transform="translate(159.033203 0)"/>
      </g>
     </g>
    </g>
    <g id="ytick_5">
     <g id="line2d_10">
      <g>
       <use xlink:href="#mca33cc84d9" x="90" y="183.263582" style="stroke: #000000; stroke-width: 0.8"/>
      </g>
     </g>
     <g id="text_11">
      <!-- 0.20 -->
      <g transform="translate(60.734375 187.062801) scale(0.1 -0.1)">
       <use xlink:href="#DejaVuSans-30"/>
       <use xlink:href="#DejaVuSans-2e" transform="translate(63.623047 0)"/>
       <use xlink:href="#DejaVuSans-32" transform="translate(95.410156 0)"/>
       <use xlink:href="#DejaVuSans-30" transform="translate(159.033203 0)"/>
      </g>
     </g>
    </g>
    <g id="ytick_6">
     <g id="line2d_11">
      <g>
       <use xlink:href="#mca33cc84d9" x="90" y="150.997422" style="stroke: #000000; stroke-width: 0.8"/>
      </g>
     </g>
     <g id="text_12">
      <!-- 0.25 -->
      <g transform="translate(60.734375 154.796641) scale(0.1 -0.1)">
       <use xlink:href="#DejaVuSans-30"/>
       <use xlink:href="#DejaVuSans-2e" transform="translate(63.623047 0)"/>
       <use xlink:href="#DejaVuSans-32" transform="translate(95.410156 0)"/>
       <use xlink:href="#DejaVuSans-35" transform="translate(159.033203 0)"/>
      </g>
     </g>
    </g>
    <g id="ytick_7">
     <g id="line2d_12">
      <g>
       <use xlink:href="#mca33cc84d9" x="90" y="118.731262" style="stroke: #000000; stroke-width: 0.8"/>
      </g>
     </g>
     <g id="text_13">
      <!-- 0.30 -->
      <g transform="translate(60.734375 122.530481) scale(0.1 -0.1)">
       <defs>
        <path id="DejaVuSans-33" d="M 2597 2516 
Q 3050 2419 3304 2112 
Q 3559 1806 3559 1356 
Q 3559 666 3084 287 
Q 2609 -91 1734 -91 
Q 1441 -91 1130 -33 
Q 819 25 488 141 
L 488 750 
Q 750 597 1062 519 
Q 1375 441 1716 441 
Q 2309 441 2620 675 
Q 2931 909 2931 1356 
Q 2931 1769 2642 2001 
Q 2353 2234 1838 2234 
L 1294 2234 
L 1294 2753 
L 1863 2753 
Q 2328 2753 2575 2939 
Q 2822 3125 2822 3475 
Q 2822 3834 2567 4026 
Q 2313 4219 1838 4219 
Q 1578 4219 1281 4162 
Q 984 4106 628 3988 
L 628 4550 
Q 988 4650 1302 4700 
Q 1616 4750 1894 4750 
Q 2613 4750 3031 4423 
Q 3450 4097 3450 3541 
Q 3450 3153 3228 2886 
Q 3006 2619 2597 2516 
z
" transform="scale(0.015625)"/>
       </defs>
       <use xlink:href="#DejaVuSans-30"/>
       <use xlink:href="#DejaVuSans-2e" transform="translate(63.623047 0)"/>
       <use xlink:href="#DejaVuSans-33" transform="translate(95.410156 0)"/>
       <use xlink:href="#DejaVuSans-30" transform="translate(159.033203 0)"/>
      </g>
     </g>
    </g>
    <g id="ytick_8">
     <g id="line2d_13">
      <g>
       <use xlink:href="#mca33cc84d9" x="90" y="86.465102" style="stroke: #000000; stroke-width: 0.8"/>
      </g>
     </g>
     <g id="text_14">
      <!-- 0.35 -->
      <g transform="translate(60.734375 90.264321) scale(0.1 -0.1)">
       <use xlink:href="#DejaVuSans-30"/>
       <use xlink:href="#DejaVuSans-2e" transform="translate(63.623047 0)"/>
       <use xlink:href="#DejaVuSans-33" transform="translate(95.410156 0)"/>
       <use xlink:href="#DejaVuSans-35" transform="translate(159.033203 0)"/>
      </g>
     </g>
    </g>
    <g id="ytick_9">
     <g id="line2d_14">
      <g>
       <use xlink:href="#mca33cc84d9" x="90" y="54.198942" style="stroke: #000000; stroke-width: 0.8"/>
      </g>
     </g>
     <g id="text_15">
      <!-- 0.40 -->
      <g transform="translate(60.734375 57.998161) scale(0.1 -0.1)">
       <use xlink:href="#DejaVuSans-30"/>
       <use xlink:href="#DejaVuSans-2e" transform="translate(63.623047 0)"/>
       <use xlink:href="#DejaVuSans-34" transform="translate(95.410156 0)"/>
       <use xlink:href="#DejaVuSans-30" transform="translate(159.033203 0)"/>
      </g>
     </g>
    </g>
    <g id="text_16">
     <!-- Estimation Loss -->
     <g transform="translate(54.654687 220.98125) rotate(-90) scale(0.1 -0.1)">
      <defs>
       <path id="DejaVuSans-73" d="M 2834 3397 
L 2834 2853 
Q 2591 2978 2328 3040 
Q 2066 3103 1784 3103 
Q 1356 3103 1142 2972 
Q 928 2841 928 2578 
Q 928 2378 1081 2264 
Q 1234 2150 1697 2047 
L 1894 2003 
Q 2506 1872 2764 1633 
Q 3022 1394 3022 966 
Q 3022 478 2636 193 
Q 2250 -91 1575 -91 
Q 1294 -91 989 -36 
Q 684 19 347 128 
L 347 722 
Q 666 556 975 473 
Q 1284 391 1588 391 
Q 1994 391 2212 530 
Q 2431 669 2431 922 
Q 2431 1156 2273 1281 
Q 2116 1406 1581 1522 
L 1381 1569 
Q 847 1681 609 1914 
Q 372 2147 372 2553 
Q 372 3047 722 3315 
Q 1072 3584 1716 3584 
Q 2034 3584 2315 3537 
Q 2597 3491 2834 3397 
z
" transform="scale(0.015625)"/>
       <path id="DejaVuSans-74" d="M 1172 4494 
L 1172 3500 
L 2356 3500 
L 2356 3053 
L 1172 3053 
L 1172 1153 
Q 1172 725 1289 603 
Q 1406 481 1766 481 
L 2356 481 
L 2356 0 
L 1766 0 
Q 1100 0 847 248 
Q 594 497 594 1153 
L 594 3053 
L 172 3053 
L 172 3500 
L 594 3500 
L 594 4494 
L 1172 4494 
z
" transform="scale(0.015625)"/>
       <path id="DejaVuSans-69" d="M 603 3500 
L 1178 3500 
L 1178 0 
L 603 0 
L 603 3500 
z
M 603 4863 
L 1178 4863 
L 1178 4134 
L 603 4134 
L 603 4863 
z
" transform="scale(0.015625)"/>
       <path id="DejaVuSans-6d" d="M 3328 2828 
Q 3544 3216 3844 3400 
Q 4144 3584 4550 3584 
Q 5097 3584 5394 3201 
Q 5691 2819 5691 2113 
L 5691 0 
L 5113 0 
L 5113 2094 
Q 5113 2597 4934 2840 
Q 4756 3084 4391 3084 
Q 3944 3084 3684 2787 
Q 3425 2491 3425 1978 
L 3425 0 
L 2847 0 
L 2847 2094 
Q 2847 2600 2669 2842 
Q 2491 3084 2119 3084 
Q 1678 3084 1418 2786 
Q 1159 2488 1159 1978 
L 1159 0 
L 581 0 
L 581 3500 
L 1159 3500 
L 1159 2956 
Q 1356 3278 1631 3431 
Q 1906 3584 2284 3584 
Q 2666 3584 2933 3390 
Q 3200 3197 3328 2828 
z
" transform="scale(0.015625)"/>
       <path id="DejaVuSans-61" d="M 2194 1759 
Q 1497 1759 1228 1600 
Q 959 1441 959 1056 
Q 959 750 1161 570 
Q 1363 391 1709 391 
Q 2188 391 2477 730 
Q 2766 1069 2766 1631 
L 2766 1759 
L 2194 1759 
z
M 3341 1997 
L 3341 0 
L 2766 0 
L 2766 531 
Q 2569 213 2275 61 
Q 1981 -91 1556 -91 
Q 1019 -91 701 211 
Q 384 513 384 1019 
Q 384 1609 779 1909 
Q 1175 2209 1959 2209 
L 2766 2209 
L 2766 2266 
Q 2766 2663 2505 2880 
Q 2244 3097 1772 3097 
Q 1472 3097 1187 3025 
Q 903 2953 641 2809 
L 641 3341 
Q 956 3463 1253 3523 
Q 1550 3584 1831 3584 
Q 2591 3584 2966 3190 
Q 3341 2797 3341 1997 
z
" transform="scale(0.015625)"/>
       <path id="DejaVuSans-6e" d="M 3513 2113 
L 3513 0 
L 2938 0 
L 2938 2094 
Q 2938 2591 2744 2837 
Q 2550 3084 2163 3084 
Q 1697 3084 1428 2787 
Q 1159 2491 1159 1978 
L 1159 0 
L 581 0 
L 581 3500 
L 1159 3500 
L 1159 2956 
Q 1366 3272 1645 3428 
Q 1925 3584 2291 3584 
Q 2894 3584 3203 3211 
Q 3513 2838 3513 2113 
z
" transform="scale(0.015625)"/>
       <path id="DejaVuSans-20" transform="scale(0.015625)"/>
       <path id="DejaVuSans-4c" d="M 628 4666 
L 1259 4666 
L 1259 531 
L 3531 531 
L 3531 0 
L 628 0 
L 628 4666 
z
" transform="scale(0.015625)"/>
      </defs>
      <use xlink:href="#DejaVuSans-45"/>
      <use xlink:href="#DejaVuSans-73" transform="translate(63.183594 0)"/>
      <use xlink:href="#DejaVuSans-74" transform="translate(115.283203 0)"/>
      <use xlink:href="#DejaVuSans-69" transform="translate(154.492188 0)"/>
      <use xlink:href="#DejaVuSans-6d" transform="translate(182.275391 0)"/>
      <use xlink:href="#DejaVuSans-61" transform="translate(279.6875 0)"/>
      <use xlink:href="#DejaVuSans-74" transform="translate(340.966797 0)"/>
      <use xlink:href="#DejaVuSans-69" transform="translate(380.175781 0)"/>
      <use xlink:href="#DejaVuSans-6f" transform="translate(407.958984 0)"/>
      <use xlink:href="#DejaVuSans-6e" transform="translate(469.140625 0)"/>
      <use xlink:href="#DejaVuSans-20" transform="translate(532.519531 0)"/>
      <use xlink:href="#DejaVuSans-4c" transform="translate(564.306641 0)"/>
      <use xlink:href="#DejaVuSans-6f" transform="translate(618.269531 0)"/>
      <use xlink:href="#DejaVuSans-73" transform="translate(679.451172 0)"/>
      <use xlink:href="#DejaVuSans-73" transform="translate(731.550781 0)"/>
     </g>
    </g>
   </g>
   <g id="line2d_15">
    <path d="M 115.363636 205.777859 
L 117.060201 198.224149 
L 120.453329 212.948835 
L 122.149894 215.203378 
L 123.846458 215.342991 
L 125.543022 218.736543 
L 127.239587 218.089519 
L 128.936151 222.304939 
L 132.329279 225.033015 
L 134.025844 224.447974 
L 135.722408 227.940692 
L 137.418972 228.908523 
L 139.115537 229.482007 
L 140.812101 229.352967 
L 142.508665 227.960107 
L 144.20523 229.558283 
L 145.901794 227.322001 
L 147.598358 227.522688 
L 149.294922 229.266757 
L 150.991487 229.790531 
L 154.384615 229.317199 
L 156.08118 227.605858 
L 157.777744 229.680634 
L 159.474308 228.387731 
L 161.170873 230.741394 
L 162.867437 231.617837 
L 164.564001 233.165395 
L 166.260566 232.339948 
L 167.95713 231.798392 
L 169.653694 233.768399 
L 171.350258 234.139359 
L 173.046823 232.432595 
L 174.743387 234.659114 
L 176.439951 234.14374 
L 178.136516 232.840918 
L 179.83308 233.697495 
L 181.529644 234.982986 
L 183.226209 235.742595 
L 184.922773 234.107111 
L 186.619337 234.512381 
L 188.315901 234.525738 
L 191.70903 236.166965 
L 193.405594 235.400785 
L 195.102159 234.839327 
L 196.798723 235.18747 
L 198.495287 235.893209 
L 200.191852 235.601914 
L 201.888416 235.756697 
L 203.58498 235.712252 
L 205.281545 235.166177 
L 206.978109 235.866637 
L 208.674673 237.214021 
L 210.371237 236.733441 
L 212.067802 235.831676 
L 213.764366 235.659256 
L 215.46093 237.765498 
L 217.157495 237.270998 
L 218.854059 237.589757 
L 220.550623 237.116364 
L 222.247188 237.685573 
L 223.943752 238.485817 
L 225.640316 238.953617 
L 227.336881 238.49103 
L 229.033445 238.190731 
L 230.730009 237.699572 
L 232.426573 238.053721 
L 234.123138 237.905207 
L 235.819702 238.081588 
L 239.212831 239.236869 
L 240.909395 238.509836 
L 242.605959 239.316222 
L 244.302524 238.737157 
L 245.999088 238.935566 
L 247.695652 238.386438 
L 249.392216 238.035945 
L 251.088781 238.087195 
L 252.785345 239.098623 
L 254.481909 238.670548 
L 256.178474 239.074656 
L 257.875038 239.660985 
L 261.268167 240.255017 
L 262.964731 239.760656 
L 264.661295 239.890546 
L 266.35786 240.153417 
L 269.750988 240.391171 
L 271.447552 240.846058 
L 273.144117 240.407069 
L 274.840681 241.115784 
L 276.537245 241.181824 
L 278.23381 241.512777 
L 279.930374 241.727069 
L 281.626938 241.302208 
L 283.323503 242.059636 
L 285.020067 242.284881 
L 286.716631 241.744801 
L 288.413196 242.123751 
L 290.10976 242.318277 
L 291.806324 241.998154 
L 293.502888 242.458308 
L 295.199453 242.623841 
L 296.896017 242.427329 
L 300.289146 243.399977 
L 301.98571 243.078683 
L 303.682274 243.542978 
L 305.378839 243.743595 
L 307.075403 243.539485 
L 308.771967 244.034491 
L 310.468531 244.175446 
L 313.86166 244.900626 
L 315.558224 244.842903 
L 317.254789 245.088462 
L 320.647917 245.165259 
L 322.344482 245.090477 
L 325.73761 245.524565 
L 327.434175 246.010151 
L 334.220432 246.655919 
L 335.916996 247.16411 
L 337.61356 246.968797 
L 339.310125 247.121282 
L 341.006689 247.496376 
L 342.703253 247.485522 
L 344.399818 247.903203 
L 346.096382 247.578112 
L 347.792946 247.739233 
L 349.48951 248.037108 
L 351.186075 248.128325 
L 352.882639 247.997229 
L 354.579203 248.103244 
L 357.972332 248.605611 
L 359.668896 248.973514 
L 361.365461 248.737638 
L 364.758589 248.89715 
L 373.241411 249.626644 
L 374.937975 249.782868 
L 376.634539 249.758384 
L 380.027668 249.439964 
L 381.724232 249.941777 
L 383.420797 249.979192 
L 385.117361 249.859528 
L 388.51049 250.276988 
L 393.600182 250.339308 
L 395.296747 250.386961 
L 396.993311 250.724694 
L 402.083004 250.624759 
L 412.26239 251.040777 
L 417.352083 251.007199 
L 424.13834 251.340605 
L 425.834904 251.27273 
L 427.531469 251.348748 
L 429.228033 251.135423 
L 430.924597 251.547773 
L 434.317726 251.679149 
L 436.01429 251.853324 
L 437.710854 251.806745 
L 439.407419 251.61909 
L 442.800547 251.610591 
L 446.193676 252.085982 
L 447.89024 251.883505 
L 449.586804 251.844707 
L 451.283369 252.226085 
L 456.373062 252.097909 
L 458.069626 252.238255 
L 461.462755 252.291041 
L 463.159319 252.43213 
L 468.249012 252.423603 
L 473.338705 252.524753 
L 475.035269 252.527834 
L 476.731833 252.818292 
L 480.124962 252.924502 
L 483.518091 253.322449 
L 485.214655 253.309118 
L 486.911219 253.599048 
L 495.394041 254.398497 
L 497.090605 255.188429 
L 500.483734 291.627375 
L 502.180298 282.837916 
L 503.876862 289.624812 
L 505.573427 290.800835 
L 507.269991 294.290372 
L 508.966555 296.831393 
L 510.663119 298.757588 
L 512.359684 300.133053 
L 514.056248 301.195238 
L 515.752812 301.824965 
L 519.145941 302.814945 
L 522.53907 303.439066 
L 527.628763 304.02524 
L 532.718455 304.376169 
L 541.201277 305.274216 
L 544.594406 305.539588 
L 546.29097 305.834785 
L 547.987534 305.926278 
L 553.077227 305.813173 
L 556.470356 305.926962 
L 564.953177 306.436312 
L 576.829127 306.840477 
L 622.636364 307.8 
L 622.636364 307.8 
" clip-path="url(#pd689d6a706)" style="fill: none; stroke: #1f77b4; stroke-width: 1.5; stroke-linecap: square"/>
   </g>
   <g id="line2d_16">
    <path d="M 115.363636 195.056446 
L 117.060201 186.786208 
L 118.756765 192.332245 
L 120.453329 198.262295 
L 122.149894 199.331701 
L 123.846458 199.556964 
L 125.543022 203.26645 
L 127.239587 202.929036 
L 128.936151 207.201783 
L 130.632715 207.586821 
L 132.329279 208.782856 
L 134.025844 208.863042 
L 135.722408 212.044205 
L 137.418972 212.469125 
L 139.115537 213.300638 
L 140.812101 212.991756 
L 142.508665 211.264948 
L 144.20523 213.364089 
L 145.901794 211.465632 
L 147.598358 211.712469 
L 149.294922 213.644615 
L 150.991487 214.140922 
L 152.688051 214.090659 
L 154.384615 213.682427 
L 156.08118 212.242826 
L 157.777744 213.645532 
L 159.474308 211.973943 
L 161.170873 214.608812 
L 162.867437 215.525322 
L 164.564001 217.228284 
L 166.260566 216.302255 
L 167.95713 215.594513 
L 169.653694 218.100104 
L 171.350258 218.795813 
L 173.046823 216.687701 
L 174.743387 218.759305 
L 176.439951 218.307668 
L 178.136516 216.685877 
L 183.226209 219.936305 
L 184.922773 217.988664 
L 186.619337 218.486956 
L 188.315901 218.665625 
L 191.70903 220.570521 
L 195.102159 219.212138 
L 196.798723 219.32331 
L 198.495287 220.033313 
L 200.191852 219.766472 
L 201.888416 220.018495 
L 203.58498 220.025928 
L 205.281545 219.488957 
L 206.978109 220.322884 
L 208.674673 221.413013 
L 210.371237 220.663627 
L 212.067802 219.627805 
L 213.764366 219.328995 
L 215.46093 221.494015 
L 217.157495 221.086773 
L 218.854059 222.027497 
L 220.550623 221.638317 
L 222.247188 221.843906 
L 223.943752 222.52656 
L 225.640316 222.964336 
L 230.730009 221.647611 
L 232.426573 221.904164 
L 234.123138 221.810169 
L 235.819702 222.183803 
L 239.212831 223.363815 
L 240.909395 222.969595 
L 242.605959 223.679411 
L 244.302524 222.977197 
L 245.999088 223.179444 
L 247.695652 222.481333 
L 249.392216 222.035749 
L 251.088781 221.999675 
L 252.785345 223.156985 
L 254.481909 222.829421 
L 256.178474 223.07765 
L 257.875038 223.519295 
L 259.571602 223.631188 
L 261.268167 224.038069 
L 262.964731 223.841579 
L 266.35786 223.966389 
L 269.750988 224.249267 
L 271.447552 224.614035 
L 273.144117 224.261689 
L 274.840681 225.056472 
L 278.23381 225.406829 
L 279.930374 225.663179 
L 281.626938 225.436581 
L 283.323503 226.172329 
L 285.020067 226.363 
L 286.716631 225.838774 
L 288.413196 226.35079 
L 290.10976 226.365412 
L 291.806324 225.957914 
L 293.502888 226.373177 
L 295.199453 226.580475 
L 296.896017 226.503046 
L 300.289146 227.342944 
L 301.98571 227.028021 
L 303.682274 227.732285 
L 305.378839 227.854089 
L 307.075403 227.633868 
L 308.771967 227.985205 
L 310.468531 228.168402 
L 313.86166 228.936818 
L 317.254789 229.162516 
L 320.647917 229.557297 
L 322.344482 229.314141 
L 325.73761 229.742389 
L 327.434175 230.287866 
L 330.827303 230.472135 
L 334.220432 231.013797 
L 335.916996 231.517514 
L 337.61356 231.341321 
L 339.310125 231.472297 
L 341.006689 231.922318 
L 342.703253 231.914152 
L 344.399818 232.299544 
L 346.096382 232.100614 
L 349.48951 232.519836 
L 356.275768 232.931875 
L 357.972332 233.2098 
L 359.668896 233.628366 
L 361.365461 233.401777 
L 376.634539 234.588089 
L 380.027668 234.322188 
L 381.724232 234.828589 
L 383.420797 234.881305 
L 385.117361 234.722729 
L 388.51049 235.221619 
L 391.903618 235.390607 
L 395.296747 235.519035 
L 396.993311 235.772309 
L 400.38644 235.637535 
L 403.779568 235.843139 
L 412.26239 236.280609 
L 417.352083 236.298438 
L 420.745211 236.479883 
L 424.13834 236.75143 
L 427.531469 236.778211 
L 429.228033 236.081943 
L 430.924597 236.854259 
L 434.317726 237.171365 
L 436.01429 237.339711 
L 437.710854 237.316198 
L 441.103983 237.152358 
L 442.800547 237.222253 
L 444.497112 237.558869 
L 446.193676 237.714623 
L 447.89024 237.505218 
L 449.586804 237.439849 
L 451.283369 237.813547 
L 473.338705 238.560541 
L 475.035269 238.52482 
L 476.731833 238.81475 
L 478.428398 238.839123 
L 480.124962 238.977335 
L 483.518091 239.534472 
L 485.214655 239.599426 
L 490.304348 240.455407 
L 493.697476 240.872465 
L 495.394041 241.202911 
L 497.090605 242.043416 
L 498.787169 262.029993 
L 500.483734 284.195125 
L 502.180298 274.528077 
L 503.876862 282.535395 
L 505.573427 283.888855 
L 507.269991 287.878063 
L 508.966555 290.909872 
L 510.663119 293.203685 
L 512.359684 294.633041 
L 514.056248 295.691396 
L 517.449377 297.108199 
L 519.145941 297.658085 
L 520.842505 298.054264 
L 527.628763 299.031196 
L 532.718455 299.421794 
L 539.504713 300.224641 
L 542.897841 300.521466 
L 544.594406 300.466055 
L 547.987534 300.95333 
L 556.470356 301.130215 
L 561.560049 301.515076 
L 566.649742 301.699678 
L 573.435999 302.001514 
L 578.525692 302.057327 
L 590.401642 302.349146 
L 593.79477 302.461539 
L 622.636364 302.954037 
L 622.636364 302.954037 
" clip-path="url(#pd689d6a706)" style="fill: none; stroke: #ff7f0e; stroke-width: 1.5; stroke-linecap: square"/>
   </g>
   <g id="line2d_17">
    <path d="M 115.363636 74.347997 
L 117.060201 80.597256 
L 118.756765 99.633429 
L 120.453329 114.959815 
L 122.149894 116.418135 
L 125.543022 124.564046 
L 127.239587 121.331414 
L 128.936151 132.404614 
L 130.632715 135.855478 
L 132.329279 137.225339 
L 134.025844 137.596192 
L 135.722408 146.12312 
L 137.418972 145.963102 
L 139.115537 146.46737 
L 140.812101 143.551052 
L 142.508665 145.479958 
L 144.20523 142.323398 
L 145.901794 140.863827 
L 147.598358 142.313331 
L 149.294922 147.606434 
L 150.991487 146.9975 
L 152.688051 148.37353 
L 154.384615 142.660679 
L 156.08118 144.811983 
L 157.777744 147.175594 
L 159.474308 143.37899 
L 161.170873 148.354417 
L 162.867437 157.721719 
L 164.564001 150.913752 
L 166.260566 153.051938 
L 167.95713 151.571595 
L 169.653694 159.439066 
L 171.350258 153.927836 
L 173.046823 158.349344 
L 174.743387 155.715604 
L 176.439951 153.985588 
L 178.136516 153.618489 
L 179.83308 155.796547 
L 181.529644 159.796457 
L 183.226209 156.987568 
L 184.922773 156.27193 
L 186.619337 155.93762 
L 188.315901 156.932238 
L 190.012466 160.737602 
L 191.70903 161.732775 
L 193.405594 158.667609 
L 195.102159 157.375488 
L 196.798723 162.925185 
L 198.495287 160.824201 
L 200.191852 160.979064 
L 201.888416 159.434969 
L 203.58498 160.845359 
L 205.281545 160.018132 
L 206.978109 161.080353 
L 208.674673 164.305388 
L 210.371237 160.410409 
L 212.067802 160.254168 
L 213.764366 162.019028 
L 217.157495 163.805548 
L 218.854059 161.893907 
L 220.550623 164.310493 
L 222.247188 165.910738 
L 223.943752 166.23763 
L 225.640316 165.953576 
L 227.336881 167.206344 
L 229.033445 162.497192 
L 230.730009 164.749268 
L 232.426573 163.746746 
L 234.123138 163.318862 
L 235.819702 163.48861 
L 237.516266 168.044211 
L 239.212831 166.056658 
L 240.909395 167.525856 
L 242.605959 165.287294 
L 244.302524 165.824055 
L 245.999088 164.569386 
L 247.695652 163.715325 
L 249.392216 165.866118 
L 251.088781 163.860697 
L 252.785345 165.968908 
L 254.481909 165.343352 
L 256.178474 166.847746 
L 257.875038 167.16935 
L 259.571602 168.063155 
L 261.268167 169.156451 
L 262.964731 170.072184 
L 264.661295 169.806469 
L 266.35786 168.618496 
L 268.054424 168.938155 
L 269.750988 173.247071 
L 271.447552 170.30973 
L 273.144117 169.936192 
L 274.840681 170.764659 
L 276.537245 171.168197 
L 278.23381 172.656428 
L 279.930374 170.781575 
L 281.626938 171.720747 
L 283.323503 172.417303 
L 285.020067 170.161609 
L 286.716631 171.226913 
L 288.413196 173.982136 
L 290.10976 173.26047 
L 291.806324 173.790948 
L 293.502888 173.806479 
L 295.199453 172.850019 
L 296.896017 173.884692 
L 298.592581 173.934329 
L 300.289146 175.968814 
L 301.98571 174.771832 
L 303.682274 176.486464 
L 305.378839 174.156923 
L 307.075403 176.090023 
L 308.771967 175.129134 
L 310.468531 178.88281 
L 312.165096 177.126413 
L 313.86166 177.772986 
L 315.558224 180.064821 
L 317.254789 180.144206 
L 318.951353 178.609566 
L 320.647917 177.448172 
L 322.344482 177.780218 
L 324.041046 178.69828 
L 325.73761 180.997686 
L 327.434175 179.981802 
L 329.130739 180.39349 
L 330.827303 181.186961 
L 332.523867 179.771201 
L 334.220432 182.281737 
L 335.916996 181.97585 
L 339.310125 183.648049 
L 341.006689 181.885358 
L 342.703253 183.712697 
L 344.399818 184.205319 
L 346.096382 182.347819 
L 347.792946 184.40899 
L 349.48951 185.230768 
L 351.186075 184.127171 
L 352.882639 184.871588 
L 354.579203 185.049561 
L 356.275768 184.632877 
L 357.972332 186.066617 
L 359.668896 186.12485 
L 361.365461 184.733357 
L 363.062025 185.608851 
L 364.758589 186.630436 
L 366.455154 186.207901 
L 368.151718 186.127229 
L 369.848282 187.924859 
L 371.544846 187.241503 
L 373.241411 187.105731 
L 374.937975 185.947586 
L 378.331104 188.215713 
L 380.027668 186.255291 
L 381.724232 186.246249 
L 383.420797 188.056284 
L 385.117361 186.658633 
L 386.813925 187.402849 
L 388.51049 189.57507 
L 391.903618 188.148047 
L 393.600182 190.072617 
L 395.296747 188.726839 
L 396.993311 189.214904 
L 398.689875 189.092198 
L 400.38644 189.586669 
L 402.083004 188.166767 
L 403.779568 189.646452 
L 405.476133 188.737687 
L 407.172697 189.655062 
L 408.869261 187.788931 
L 410.565825 191.470158 
L 412.26239 189.992745 
L 413.958954 187.735385 
L 415.655518 189.368916 
L 417.352083 189.69892 
L 419.048647 190.72046 
L 420.745211 188.800955 
L 422.441776 191.197174 
L 424.13834 190.47874 
L 425.834904 189.9476 
L 427.531469 190.705856 
L 429.228033 192.002797 
L 430.924597 189.912589 
L 432.621161 192.170771 
L 434.317726 191.079863 
L 436.01429 191.106523 
L 437.710854 191.757638 
L 439.407419 191.555683 
L 441.103983 191.141884 
L 442.800547 191.101055 
L 444.497112 191.52796 
L 446.193676 191.721724 
L 447.89024 191.320619 
L 449.586804 190.751097 
L 451.283369 192.467207 
L 452.979933 191.856441 
L 454.676497 191.435628 
L 456.373062 191.214006 
L 458.069626 189.706781 
L 459.76619 192.841078 
L 461.462755 191.782865 
L 463.159319 191.989682 
L 464.855883 193.482526 
L 466.552448 192.250334 
L 468.249012 192.84178 
L 469.945576 192.215304 
L 471.64214 192.653335 
L 473.338705 190.133612 
L 475.035269 193.532505 
L 476.731833 193.948288 
L 478.428398 193.8072 
L 480.124962 193.982058 
L 481.821526 192.654951 
L 483.518091 195.523806 
L 485.214655 194.706406 
L 486.911219 195.631958 
L 488.607784 193.576281 
L 490.304348 196.309344 
L 492.000912 198.763381 
L 493.697476 196.19104 
L 495.394041 197.92168 
L 497.090605 198.852489 
L 498.787169 288.79752 
L 500.483734 226.535407 
L 502.180298 264.132997 
L 503.876862 266.854312 
L 505.573427 273.263429 
L 507.269991 280.361321 
L 508.966555 284.668978 
L 512.359684 290.353301 
L 514.056248 291.991287 
L 517.449377 294.290613 
L 519.145941 294.5729 
L 520.842505 295.431161 
L 525.932198 296.700223 
L 527.628763 296.866173 
L 531.021891 296.971281 
L 536.111584 298.367854 
L 537.808148 298.55022 
L 539.504713 299.107041 
L 541.201277 299.223309 
L 542.897841 299.501056 
L 544.594406 299.952671 
L 546.29097 300.591469 
L 547.987534 300.185406 
L 549.684099 300.265433 
L 551.380663 300.158839 
L 554.773791 300.528975 
L 556.470356 300.463998 
L 561.560049 301.30285 
L 563.256613 301.290756 
L 570.04287 301.805147 
L 571.739434 301.703601 
L 573.435999 301.972791 
L 576.829127 301.992527 
L 578.525692 302.204218 
L 583.615385 302.187622 
L 585.311949 302.221156 
L 587.008513 302.63532 
L 588.705078 302.598718 
L 590.401642 302.806818 
L 592.098206 302.801575 
L 595.491335 303.013913 
L 597.187899 303.050339 
L 598.884463 302.84919 
L 600.581028 303.087309 
L 617.546671 303.687314 
L 619.243235 303.604957 
L 620.939799 303.832122 
L 622.636364 303.912442 
L 622.636364 303.912442 
" clip-path="url(#pd689d6a706)" style="fill: none; stroke: #2ca02c; stroke-width: 1.5; stroke-linecap: square"/>
   </g>
   <g id="line2d_18">
    <path d="M 115.363636 55.8 
L 117.060201 56.646288 
L 118.756765 70.511442 
L 120.453329 85.797941 
L 122.149894 86.905547 
L 123.846458 91.081211 
L 125.543022 94.924981 
L 127.239587 93.123148 
L 128.936151 104.589964 
L 130.632715 106.309226 
L 132.329279 107.278582 
L 134.025844 109.663767 
L 135.722408 117.577975 
L 137.418972 115.99163 
L 139.115537 117.070254 
L 140.812101 113.55435 
L 142.508665 115.510559 
L 144.20523 112.651992 
L 145.901794 110.524982 
L 147.598358 112.468425 
L 149.294922 118.307853 
L 150.991487 118.613337 
L 152.688051 119.229283 
L 154.384615 114.03985 
L 156.08118 115.889861 
L 157.777744 116.933277 
L 159.474308 114.659975 
L 161.170873 119.085187 
L 162.867437 128.65322 
L 164.564001 123.356353 
L 166.260566 123.914627 
L 167.95713 123.456305 
L 169.653694 131.688185 
L 171.350258 126.318357 
L 173.046823 127.514522 
L 174.743387 127.592084 
L 176.439951 124.885584 
L 178.136516 124.767516 
L 179.83308 126.576824 
L 181.529644 130.962666 
L 183.226209 128.258957 
L 184.922773 127.075217 
L 186.619337 127.201733 
L 188.315901 129.301858 
L 190.012466 132.535669 
L 191.70903 133.765402 
L 193.405594 130.030978 
L 195.102159 128.227886 
L 196.798723 133.674378 
L 198.495287 131.964371 
L 200.191852 133.050243 
L 201.888416 130.763196 
L 203.58498 131.271192 
L 205.281545 130.66614 
L 206.978109 132.21234 
L 208.674673 135.093947 
L 210.371237 131.377028 
L 212.067802 131.398155 
L 213.764366 133.423565 
L 215.46093 132.45723 
L 217.157495 134.176155 
L 218.854059 133.636602 
L 220.550623 135.848859 
L 222.247188 136.643797 
L 223.943752 136.890218 
L 225.640316 136.054165 
L 227.336881 137.40036 
L 229.033445 132.912631 
L 230.730009 136.071817 
L 232.426573 134.987315 
L 234.123138 134.11043 
L 235.819702 134.767613 
L 237.516266 139.822192 
L 239.212831 137.546572 
L 240.909395 139.63035 
L 242.605959 136.902452 
L 244.302524 136.01667 
L 245.999088 134.767573 
L 247.695652 134.46876 
L 249.392216 137.190224 
L 251.088781 134.952622 
L 252.785345 136.697078 
L 254.481909 136.368056 
L 256.178474 137.830868 
L 257.875038 138.300646 
L 259.571602 139.044915 
L 261.268167 140.407454 
L 262.964731 141.616867 
L 264.661295 140.754172 
L 266.35786 139.398651 
L 268.054424 140.391548 
L 269.750988 144.192785 
L 271.447552 141.715874 
L 273.144117 141.446761 
L 274.840681 141.579513 
L 276.537245 142.162686 
L 278.23381 143.942063 
L 279.930374 141.971498 
L 281.626938 143.233462 
L 283.323503 144.078664 
L 285.020067 141.732001 
L 286.716631 143.003444 
L 288.413196 146.127195 
L 290.10976 144.784002 
L 291.806324 144.923709 
L 295.199453 144.205417 
L 296.896017 145.097293 
L 298.592581 145.118663 
L 300.289146 146.628476 
L 301.98571 146.094553 
L 303.682274 148.052933 
L 305.378839 145.563322 
L 307.075403 147.790851 
L 308.771967 146.437285 
L 310.468531 150.671114 
L 312.165096 149.053582 
L 313.86166 149.2381 
L 315.558224 151.584484 
L 317.254789 151.512031 
L 320.647917 149.503854 
L 322.344482 149.661331 
L 324.041046 150.790382 
L 325.73761 153.691778 
L 327.434175 152.579561 
L 329.130739 152.173534 
L 330.827303 152.817287 
L 332.523867 151.71265 
L 334.220432 154.617946 
L 335.916996 154.640179 
L 337.61356 155.202201 
L 339.310125 156.519947 
L 341.006689 153.830381 
L 342.703253 155.916518 
L 344.399818 156.699412 
L 346.096382 155.211075 
L 347.792946 157.921731 
L 349.48951 158.017665 
L 351.186075 157.148712 
L 352.882639 157.898548 
L 354.579203 158.233819 
L 356.275768 157.37779 
L 357.972332 159.029752 
L 359.668896 159.081893 
L 361.365461 157.786157 
L 363.062025 159.146699 
L 364.758589 160.000592 
L 366.455154 159.477282 
L 368.151718 159.32891 
L 369.848282 161.204942 
L 371.544846 160.105918 
L 373.241411 160.45697 
L 374.937975 159.522611 
L 376.634539 160.733412 
L 378.331104 162.094394 
L 380.027668 160.104895 
L 381.724232 159.750451 
L 383.420797 161.824228 
L 385.117361 160.309632 
L 386.813925 160.952461 
L 388.51049 163.065389 
L 390.207054 162.942767 
L 391.903618 162.315517 
L 393.600182 164.255728 
L 395.296747 162.743049 
L 396.993311 162.961887 
L 398.689875 162.810435 
L 400.38644 163.650861 
L 402.083004 162.359908 
L 403.779568 163.935561 
L 405.476133 163.039982 
L 407.172697 163.947374 
L 408.869261 162.041626 
L 410.565825 165.663644 
L 412.26239 164.433152 
L 413.958954 162.427561 
L 415.655518 164.161122 
L 417.352083 164.037822 
L 419.048647 165.167062 
L 420.745211 163.137017 
L 422.441776 165.920182 
L 424.13834 165.418808 
L 427.531469 164.079829 
L 429.228033 166.204203 
L 430.924597 164.298807 
L 432.621161 167.055224 
L 434.317726 166.118491 
L 436.01429 165.966036 
L 437.710854 166.893666 
L 439.407419 166.51342 
L 441.103983 166.318291 
L 442.800547 166.670229 
L 444.497112 166.67833 
L 446.193676 167.008557 
L 447.89024 166.428761 
L 449.586804 165.604148 
L 451.283369 167.550293 
L 452.979933 167.21685 
L 454.676497 166.685351 
L 456.373062 167.142037 
L 458.069626 165.253966 
L 459.76619 168.488662 
L 461.462755 167.377762 
L 463.159319 167.34299 
L 464.855883 168.903123 
L 466.552448 167.7864 
L 468.249012 168.347128 
L 469.945576 168.143165 
L 471.64214 168.660163 
L 473.338705 165.930285 
L 475.035269 169.351345 
L 478.428398 169.35166 
L 480.124962 169.753912 
L 481.821526 168.495432 
L 483.518091 171.903408 
L 485.214655 170.536789 
L 486.911219 171.369225 
L 488.607784 169.100407 
L 490.304348 172.462944 
L 492.000912 174.640581 
L 493.697476 172.19072 
L 495.394041 174.345212 
L 497.090605 174.515993 
L 498.787169 276.266118 
L 500.483734 211.070871 
L 502.180298 251.522954 
L 503.876862 254.37071 
L 505.573427 261.766124 
L 507.269991 269.678984 
L 508.966555 274.484708 
L 510.663119 277.839668 
L 512.359684 280.614218 
L 517.449377 285.269926 
L 519.145941 285.6188 
L 520.842505 286.221298 
L 522.53907 287.068291 
L 527.628763 288.061605 
L 529.325327 288.200578 
L 531.021891 288.067436 
L 532.718455 288.823394 
L 536.111584 289.883198 
L 537.808148 289.900341 
L 539.504713 290.669472 
L 541.201277 290.711299 
L 542.897841 290.916257 
L 544.594406 290.25825 
L 546.29097 291.586112 
L 551.380663 291.531104 
L 554.773791 292.410094 
L 556.470356 291.982716 
L 559.863484 292.816882 
L 561.560049 293.083866 
L 564.953177 293.237383 
L 568.346306 293.694394 
L 570.04287 293.674245 
L 571.739434 293.352794 
L 573.435999 293.788817 
L 576.829127 293.458464 
L 578.525692 294.056989 
L 580.222256 293.928035 
L 585.311949 293.818382 
L 587.008513 294.339221 
L 588.705078 294.278034 
L 590.401642 294.68169 
L 592.098206 294.648454 
L 593.79477 294.911423 
L 598.884463 294.572345 
L 600.581028 294.832828 
L 602.277592 294.800642 
L 603.974156 294.574033 
L 605.670721 294.888383 
L 609.063849 295.089623 
L 610.760413 295.073085 
L 614.153542 295.216432 
L 617.546671 295.256778 
L 619.243235 294.983441 
L 620.939799 295.314736 
L 622.636364 295.454893 
L 622.636364 295.454893 
" clip-path="url(#pd689d6a706)" style="fill: none; stroke: #d62728; stroke-width: 1.5; stroke-linecap: square"/>
   </g>
   <g id="patch_3">
    <path d="M 90 320.4 
L 90 43.2 
" style="fill: none; stroke: #000000; stroke-width: 0.8; stroke-linejoin: miter; stroke-linecap: square"/>
   </g>
   <g id="patch_4">
    <path d="M 648 320.4 
L 648 43.2 
" style="fill: none; stroke: #000000; stroke-width: 0.8; stroke-linejoin: miter; stroke-linecap: square"/>
   </g>
   <g id="patch_5">
    <path d="M 90 320.4 
L 648 320.4 
" style="fill: none; stroke: #000000; stroke-width: 0.8; stroke-linejoin: miter; stroke-linecap: square"/>
   </g>
   <g id="patch_6">
    <path d="M 90 43.2 
L 648 43.2 
" style="fill: none; stroke: #000000; stroke-width: 0.8; stroke-linejoin: miter; stroke-linecap: square"/>
   </g>
   <g id="text_17">
    <!-- Training and Validating Estimation Loss -->
    <g transform="translate(251.535937 37.2) scale(0.12 -0.12)">
     <defs>
      <path id="DejaVuSans-54" d="M -19 4666 
L 3928 4666 
L 3928 4134 
L 2272 4134 
L 2272 0 
L 1638 0 
L 1638 4134 
L -19 4134 
L -19 4666 
z
" transform="scale(0.015625)"/>
      <path id="DejaVuSans-72" d="M 2631 2963 
Q 2534 3019 2420 3045 
Q 2306 3072 2169 3072 
Q 1681 3072 1420 2755 
Q 1159 2438 1159 1844 
L 1159 0 
L 581 0 
L 581 3500 
L 1159 3500 
L 1159 2956 
Q 1341 3275 1631 3429 
Q 1922 3584 2338 3584 
Q 2397 3584 2469 3576 
Q 2541 3569 2628 3553 
L 2631 2963 
z
" transform="scale(0.015625)"/>
      <path id="DejaVuSans-67" d="M 2906 1791 
Q 2906 2416 2648 2759 
Q 2391 3103 1925 3103 
Q 1463 3103 1205 2759 
Q 947 2416 947 1791 
Q 947 1169 1205 825 
Q 1463 481 1925 481 
Q 2391 481 2648 825 
Q 2906 1169 2906 1791 
z
M 3481 434 
Q 3481 -459 3084 -895 
Q 2688 -1331 1869 -1331 
Q 1566 -1331 1297 -1286 
Q 1028 -1241 775 -1147 
L 775 -588 
Q 1028 -725 1275 -790 
Q 1522 -856 1778 -856 
Q 2344 -856 2625 -561 
Q 2906 -266 2906 331 
L 2906 616 
Q 2728 306 2450 153 
Q 2172 0 1784 0 
Q 1141 0 747 490 
Q 353 981 353 1791 
Q 353 2603 747 3093 
Q 1141 3584 1784 3584 
Q 2172 3584 2450 3431 
Q 2728 3278 2906 2969 
L 2906 3500 
L 3481 3500 
L 3481 434 
z
" transform="scale(0.015625)"/>
      <path id="DejaVuSans-64" d="M 2906 2969 
L 2906 4863 
L 3481 4863 
L 3481 0 
L 2906 0 
L 2906 525 
Q 2725 213 2448 61 
Q 2172 -91 1784 -91 
Q 1150 -91 751 415 
Q 353 922 353 1747 
Q 353 2572 751 3078 
Q 1150 3584 1784 3584 
Q 2172 3584 2448 3432 
Q 2725 3281 2906 2969 
z
M 947 1747 
Q 947 1113 1208 752 
Q 1469 391 1925 391 
Q 2381 391 2643 752 
Q 2906 1113 2906 1747 
Q 2906 2381 2643 2742 
Q 2381 3103 1925 3103 
Q 1469 3103 1208 2742 
Q 947 2381 947 1747 
z
" transform="scale(0.015625)"/>
      <path id="DejaVuSans-56" d="M 1831 0 
L 50 4666 
L 709 4666 
L 2188 738 
L 3669 4666 
L 4325 4666 
L 2547 0 
L 1831 0 
z
" transform="scale(0.015625)"/>
      <path id="DejaVuSans-6c" d="M 603 4863 
L 1178 4863 
L 1178 0 
L 603 0 
L 603 4863 
z
" transform="scale(0.015625)"/>
     </defs>
     <use xlink:href="#DejaVuSans-54"/>
     <use xlink:href="#DejaVuSans-72" transform="translate(46.333984 0)"/>
     <use xlink:href="#DejaVuSans-61" transform="translate(87.447266 0)"/>
     <use xlink:href="#DejaVuSans-69" transform="translate(148.726562 0)"/>
     <use xlink:href="#DejaVuSans-6e" transform="translate(176.509766 0)"/>
     <use xlink:href="#DejaVuSans-69" transform="translate(239.888672 0)"/>
     <use xlink:href="#DejaVuSans-6e" transform="translate(267.671875 0)"/>
     <use xlink:href="#DejaVuSans-67" transform="translate(331.050781 0)"/>
     <use xlink:href="#DejaVuSans-20" transform="translate(394.527344 0)"/>
     <use xlink:href="#DejaVuSans-61" transform="translate(426.314453 0)"/>
     <use xlink:href="#DejaVuSans-6e" transform="translate(487.59375 0)"/>
     <use xlink:href="#DejaVuSans-64" transform="translate(550.972656 0)"/>
     <use xlink:href="#DejaVuSans-20" transform="translate(614.449219 0)"/>
     <use xlink:href="#DejaVuSans-56" transform="translate(646.236328 0)"/>
     <use xlink:href="#DejaVuSans-61" transform="translate(706.894531 0)"/>
     <use xlink:href="#DejaVuSans-6c" transform="translate(768.173828 0)"/>
     <use xlink:href="#DejaVuSans-69" transform="translate(795.957031 0)"/>
     <use xlink:href="#DejaVuSans-64" transform="translate(823.740234 0)"/>
     <use xlink:href="#DejaVuSans-61" transform="translate(887.216797 0)"/>
     <use xlink:href="#DejaVuSans-74" transform="translate(948.496094 0)"/>
     <use xlink:href="#DejaVuSans-69" transform="translate(987.705078 0)"/>
     <use xlink:href="#DejaVuSans-6e" transform="translate(1015.488281 0)"/>
     <use xlink:href="#DejaVuSans-67" transform="translate(1078.867188 0)"/>
     <use xlink:href="#DejaVuSans-20" transform="translate(1142.34375 0)"/>
     <use xlink:href="#DejaVuSans-45" transform="translate(1174.130859 0)"/>
     <use xlink:href="#DejaVuSans-73" transform="translate(1237.314453 0)"/>
     <use xlink:href="#DejaVuSans-74" transform="translate(1289.414062 0)"/>
     <use xlink:href="#DejaVuSans-69" transform="translate(1328.623047 0)"/>
     <use xlink:href="#DejaVuSans-6d" transform="translate(1356.40625 0)"/>
     <use xlink:href="#DejaVuSans-61" transform="translate(1453.818359 0)"/>
     <use xlink:href="#DejaVuSans-74" transform="translate(1515.097656 0)"/>
     <use xlink:href="#DejaVuSans-69" transform="translate(1554.306641 0)"/>
     <use xlink:href="#DejaVuSans-6f" transform="translate(1582.089844 0)"/>
     <use xlink:href="#DejaVuSans-6e" transform="translate(1643.271484 0)"/>
     <use xlink:href="#DejaVuSans-20" transform="translate(1706.650391 0)"/>
     <use xlink:href="#DejaVuSans-4c" transform="translate(1738.4375 0)"/>
     <use xlink:href="#DejaVuSans-6f" transform="translate(1792.400391 0)"/>
     <use xlink:href="#DejaVuSans-73" transform="translate(1853.582031 0)"/>
     <use xlink:href="#DejaVuSans-73" transform="translate(1905.681641 0)"/>
    </g>
   </g>
   <g id="legend_1">
    <g id="patch_7">
     <path d="M 521.439062 109.9125 
L 641 109.9125 
Q 643 109.9125 643 107.9125 
L 643 50.2 
Q 643 48.2 641 48.2 
L 521.439062 48.2 
Q 519.439062 48.2 519.439062 50.2 
L 519.439062 107.9125 
Q 519.439062 109.9125 521.439062 109.9125 
z
" style="fill: #ffffff; opacity: 0.8; stroke: #cccccc; stroke-linejoin: miter"/>
    </g>
    <g id="line2d_19">
     <path d="M 523.439062 56.298437 
L 533.439062 56.298437 
L 543.439062 56.298437 
" style="fill: none; stroke: #1f77b4; stroke-width: 1.5; stroke-linecap: square"/>
    </g>
    <g id="text_18">
     <!-- Training-Source -->
     <g transform="translate(551.439062 59.798437) scale(0.1 -0.1)">
      <defs>
       <path id="DejaVuSans-2d" d="M 313 2009 
L 1997 2009 
L 1997 1497 
L 313 1497 
L 313 2009 
z
" transform="scale(0.015625)"/>
       <path id="DejaVuSans-53" d="M 3425 4513 
L 3425 3897 
Q 3066 4069 2747 4153 
Q 2428 4238 2131 4238 
Q 1616 4238 1336 4038 
Q 1056 3838 1056 3469 
Q 1056 3159 1242 3001 
Q 1428 2844 1947 2747 
L 2328 2669 
Q 3034 2534 3370 2195 
Q 3706 1856 3706 1288 
Q 3706 609 3251 259 
Q 2797 -91 1919 -91 
Q 1588 -91 1214 -16 
Q 841 59 441 206 
L 441 856 
Q 825 641 1194 531 
Q 1563 422 1919 422 
Q 2459 422 2753 634 
Q 3047 847 3047 1241 
Q 3047 1584 2836 1778 
Q 2625 1972 2144 2069 
L 1759 2144 
Q 1053 2284 737 2584 
Q 422 2884 422 3419 
Q 422 4038 858 4394 
Q 1294 4750 2059 4750 
Q 2388 4750 2728 4690 
Q 3069 4631 3425 4513 
z
" transform="scale(0.015625)"/>
       <path id="DejaVuSans-75" d="M 544 1381 
L 544 3500 
L 1119 3500 
L 1119 1403 
Q 1119 906 1312 657 
Q 1506 409 1894 409 
Q 2359 409 2629 706 
Q 2900 1003 2900 1516 
L 2900 3500 
L 3475 3500 
L 3475 0 
L 2900 0 
L 2900 538 
Q 2691 219 2414 64 
Q 2138 -91 1772 -91 
Q 1169 -91 856 284 
Q 544 659 544 1381 
z
M 1991 3584 
L 1991 3584 
z
" transform="scale(0.015625)"/>
       <path id="DejaVuSans-65" d="M 3597 1894 
L 3597 1613 
L 953 1613 
Q 991 1019 1311 708 
Q 1631 397 2203 397 
Q 2534 397 2845 478 
Q 3156 559 3463 722 
L 3463 178 
Q 3153 47 2828 -22 
Q 2503 -91 2169 -91 
Q 1331 -91 842 396 
Q 353 884 353 1716 
Q 353 2575 817 3079 
Q 1281 3584 2069 3584 
Q 2775 3584 3186 3129 
Q 3597 2675 3597 1894 
z
M 3022 2063 
Q 3016 2534 2758 2815 
Q 2500 3097 2075 3097 
Q 1594 3097 1305 2825 
Q 1016 2553 972 2059 
L 3022 2063 
z
" transform="scale(0.015625)"/>
      </defs>
      <use xlink:href="#DejaVuSans-54"/>
      <use xlink:href="#DejaVuSans-72" transform="translate(46.333984 0)"/>
      <use xlink:href="#DejaVuSans-61" transform="translate(87.447266 0)"/>
      <use xlink:href="#DejaVuSans-69" transform="translate(148.726562 0)"/>
      <use xlink:href="#DejaVuSans-6e" transform="translate(176.509766 0)"/>
      <use xlink:href="#DejaVuSans-69" transform="translate(239.888672 0)"/>
      <use xlink:href="#DejaVuSans-6e" transform="translate(267.671875 0)"/>
      <use xlink:href="#DejaVuSans-67" transform="translate(331.050781 0)"/>
      <use xlink:href="#DejaVuSans-2d" transform="translate(394.527344 0)"/>
      <use xlink:href="#DejaVuSans-53" transform="translate(430.611328 0)"/>
      <use xlink:href="#DejaVuSans-6f" transform="translate(494.087891 0)"/>
      <use xlink:href="#DejaVuSans-75" transform="translate(555.269531 0)"/>
      <use xlink:href="#DejaVuSans-72" transform="translate(618.648438 0)"/>
      <use xlink:href="#DejaVuSans-63" transform="translate(657.511719 0)"/>
      <use xlink:href="#DejaVuSans-65" transform="translate(712.492188 0)"/>
     </g>
    </g>
    <g id="line2d_20">
     <path d="M 523.439062 70.976562 
L 533.439062 70.976562 
L 543.439062 70.976562 
" style="fill: none; stroke: #ff7f0e; stroke-width: 1.5; stroke-linecap: square"/>
    </g>
    <g id="text_19">
     <!-- Training-Target -->
     <g transform="translate(551.439062 74.476562) scale(0.1 -0.1)">
      <use xlink:href="#DejaVuSans-54"/>
      <use xlink:href="#DejaVuSans-72" transform="translate(46.333984 0)"/>
      <use xlink:href="#DejaVuSans-61" transform="translate(87.447266 0)"/>
      <use xlink:href="#DejaVuSans-69" transform="translate(148.726562 0)"/>
      <use xlink:href="#DejaVuSans-6e" transform="translate(176.509766 0)"/>
      <use xlink:href="#DejaVuSans-69" transform="translate(239.888672 0)"/>
      <use xlink:href="#DejaVuSans-6e" transform="translate(267.671875 0)"/>
      <use xlink:href="#DejaVuSans-67" transform="translate(331.050781 0)"/>
      <use xlink:href="#DejaVuSans-2d" transform="translate(394.527344 0)"/>
      <use xlink:href="#DejaVuSans-54" transform="translate(421.486328 0)"/>
      <use xlink:href="#DejaVuSans-61" transform="translate(466.070312 0)"/>
      <use xlink:href="#DejaVuSans-72" transform="translate(527.349609 0)"/>
      <use xlink:href="#DejaVuSans-67" transform="translate(566.712891 0)"/>
      <use xlink:href="#DejaVuSans-65" transform="translate(630.189453 0)"/>
      <use xlink:href="#DejaVuSans-74" transform="translate(691.712891 0)"/>
     </g>
    </g>
    <g id="line2d_21">
     <path d="M 523.439062 85.654687 
L 533.439062 85.654687 
L 543.439062 85.654687 
" style="fill: none; stroke: #2ca02c; stroke-width: 1.5; stroke-linecap: square"/>
    </g>
    <g id="text_20">
     <!-- Validating-Source -->
     <g transform="translate(551.439062 89.154687) scale(0.1 -0.1)">
      <use xlink:href="#DejaVuSans-56"/>
      <use xlink:href="#DejaVuSans-61" transform="translate(60.658203 0)"/>
      <use xlink:href="#DejaVuSans-6c" transform="translate(121.9375 0)"/>
      <use xlink:href="#DejaVuSans-69" transform="translate(149.720703 0)"/>
      <use xlink:href="#DejaVuSans-64" transform="translate(177.503906 0)"/>
      <use xlink:href="#DejaVuSans-61" transform="translate(240.980469 0)"/>
      <use xlink:href="#DejaVuSans-74" transform="translate(302.259766 0)"/>
      <use xlink:href="#DejaVuSans-69" transform="translate(341.46875 0)"/>
      <use xlink:href="#DejaVuSans-6e" transform="translate(369.251953 0)"/>
      <use xlink:href="#DejaVuSans-67" transform="translate(432.630859 0)"/>
      <use xlink:href="#DejaVuSans-2d" transform="translate(496.107422 0)"/>
      <use xlink:href="#DejaVuSans-53" transform="translate(532.191406 0)"/>
      <use xlink:href="#DejaVuSans-6f" transform="translate(595.667969 0)"/>
      <use xlink:href="#DejaVuSans-75" transform="translate(656.849609 0)"/>
      <use xlink:href="#DejaVuSans-72" transform="translate(720.228516 0)"/>
      <use xlink:href="#DejaVuSans-63" transform="translate(759.091797 0)"/>
      <use xlink:href="#DejaVuSans-65" transform="translate(814.072266 0)"/>
     </g>
    </g>
    <g id="line2d_22">
     <path d="M 523.439062 100.332812 
L 533.439062 100.332812 
L 543.439062 100.332812 
" style="fill: none; stroke: #d62728; stroke-width: 1.5; stroke-linecap: square"/>
    </g>
    <g id="text_21">
     <!-- Validating-Target -->
     <g transform="translate(551.439062 103.832812) scale(0.1 -0.1)">
      <use xlink:href="#DejaVuSans-56"/>
      <use xlink:href="#DejaVuSans-61" transform="translate(60.658203 0)"/>
      <use xlink:href="#DejaVuSans-6c" transform="translate(121.9375 0)"/>
      <use xlink:href="#DejaVuSans-69" transform="translate(149.720703 0)"/>
      <use xlink:href="#DejaVuSans-64" transform="translate(177.503906 0)"/>
      <use xlink:href="#DejaVuSans-61" transform="translate(240.980469 0)"/>
      <use xlink:href="#DejaVuSans-74" transform="translate(302.259766 0)"/>
      <use xlink:href="#DejaVuSans-69" transform="translate(341.46875 0)"/>
      <use xlink:href="#DejaVuSans-6e" transform="translate(369.251953 0)"/>
      <use xlink:href="#DejaVuSans-67" transform="translate(432.630859 0)"/>
      <use xlink:href="#DejaVuSans-2d" transform="translate(496.107422 0)"/>
      <use xlink:href="#DejaVuSans-54" transform="translate(523.066406 0)"/>
      <use xlink:href="#DejaVuSans-61" transform="translate(567.650391 0)"/>
      <use xlink:href="#DejaVuSans-72" transform="translate(628.929688 0)"/>
      <use xlink:href="#DejaVuSans-67" transform="translate(668.292969 0)"/>
      <use xlink:href="#DejaVuSans-65" transform="translate(731.769531 0)"/>
      <use xlink:href="#DejaVuSans-74" transform="translate(793.292969 0)"/>
     </g>
    </g>
   </g>
  </g>
 </g>
 <defs>
  <clipPath id="pd689d6a706">
   <rect x="90" y="43.2" width="558" height="277.2"/>
  </clipPath>
 </defs>
</svg>
