<?xml version="1.0" encoding="utf-8" standalone="no"?>
<!DOCTYPE svg PUBLIC "-//W3C//DTD SVG 1.1//EN"
  "http://www.w3.org/Graphics/SVG/1.1/DTD/svg11.dtd">
<svg xmlns:xlink="http://www.w3.org/1999/xlink" width="720pt" height="360pt" viewBox="0 0 720 360" xmlns="http://www.w3.org/2000/svg" version="1.1">
 <metadata>
  <rdf:RDF xmlns:dc="http://purl.org/dc/elements/1.1/" xmlns:cc="http://creativecommons.org/ns#" xmlns:rdf="http://www.w3.org/1999/02/22-rdf-syntax-ns#">
   <cc:Work>
    <dc:type rdf:resource="http://purl.org/dc/dcmitype/StillImage"/>
    <dc:date>2026-02-16T20:29:31.100604</dc:date>
    <dc:format>image/svg+xml</dc:format>
    <dc:creator>
     <cc:Agent>
      <dc:title>Matplotlib v3.10.1, https://matplotlib.org/</dc:title>
     </cc:Agent>
    </dc:creator>
   </cc:Work>
  </rdf:RDF>
 </metadata>
 <defs>
  <style type="text/css">*{stroke-linejoin: round; stroke-linecap: butt}</style>
 </defs>
 <g id="figure_1">
  <g id="patch_1">
   <path d="M 0 360 
L 720 360 
L 720 0 
L 0 0 
z
" style="fill: #ffffff"/>
  </g>
  <g id="axes_1">
   <g id="patch_2">
    <path d="M 90 320.4 
L 648 320.4 
L 648 43.2 
L 90 43.2 
z
" style="fill: #ffffff"/>
   </g>
   <g id="matplotlib.axis_1">
    <g id="xtick_1">
     <g id="line2d_1">
      <defs>
       <path id="m27cfbe72d2" d="M 0 0 
L 0 3.5 
" style="stroke: #000000; stroke-width: 0.8"/>
      </defs>
      <g>
       <use xlink:href="#m27cfbe72d2" x="115.363636" y="320.4" style="stroke: #000000; stroke-width: 0.8"/>
      </g>
     </g>
     <g id="text_1">
      <!-- 0 -->
      <g transform="translate(112.182386 334.998438) scale(0.1 -0.1)">
       <defs>
        <path id="DejaVuSans-30" d="M 2034 4250 
Q 1547 4250 1301 3770 
Q 1056 3291 1056 2328 
Q 1056 1369 1301 889 
Q 1547 409 2034 409 
Q 2525 409 2770 889 
Q 3016 1369 3016 2328 
Q 3016 3291 2770 3770 
Q 2525 4250 2034 4250 
z
M 2034 4750 
Q 2819 4750 3233 4129 
Q 3647 3509 3647 2328 
Q 3647 1150 3233 529 
Q 2819 -91 2034 -91 
Q 1250 -91 836 529 
Q 422 1150 422 2328 
Q 422 3509 836 4129 
Q 1250 4750 2034 4750 
z
" transform="scale(0.015625)"/>
       </defs>
       <use xlink:href="#DejaVuSans-30"/>
      </g>
     </g>
    </g>
    <g id="xtick_2">
     <g id="line2d_2">
      <g>
       <use xlink:href="#m27cfbe72d2" x="217.157495" y="320.4" style="stroke: #000000; stroke-width: 0.8"/>
      </g>
     </g>
     <g id="text_2">
      <!-- 60 -->
      <g transform="translate(210.794995 334.998438) scale(0.1 -0.1)">
       <defs>
        <path id="DejaVuSans-36" d="M 2113 2584 
Q 1688 2584 1439 2293 
Q 1191 2003 1191 1497 
Q 1191 994 1439 701 
Q 1688 409 2113 409 
Q 2538 409 2786 701 
Q 3034 994 3034 1497 
Q 3034 2003 2786 2293 
Q 2538 2584 2113 2584 
z
M 3366 4563 
L 3366 3988 
Q 3128 4100 2886 4159 
Q 2644 4219 2406 4219 
Q 1781 4219 1451 3797 
Q 1122 3375 1075 2522 
Q 1259 2794 1537 2939 
Q 1816 3084 2150 3084 
Q 2853 3084 3261 2657 
Q 3669 2231 3669 1497 
Q 3669 778 3244 343 
Q 2819 -91 2113 -91 
Q 1303 -91 875 529 
Q 447 1150 447 2328 
Q 447 3434 972 4092 
Q 1497 4750 2381 4750 
Q 2619 4750 2861 4703 
Q 3103 4656 3366 4563 
z
" transform="scale(0.015625)"/>
       </defs>
       <use xlink:href="#DejaVuSans-36"/>
       <use xlink:href="#DejaVuSans-30" transform="translate(63.623047 0)"/>
      </g>
     </g>
    </g>
    <g id="xtick_3">
     <g id="line2d_3">
      <g>
       <use xlink:href="#m27cfbe72d2" x="318.951353" y="320.4" style="stroke: #000000; stroke-width: 0.8"/>
      </g>
     </g>
     <g id="text_3">
      <!-- 120 -->
      <g transform="translate(309.407603 334.998438) scale(0.1 -0.1)">
       <defs>
        <path id="DejaVuSans-31" d="M 794 531 
L 1825 531 
L 1825 4091 
L 703 3866 
L 703 4441 
L 1819 4666 
L 2450 4666 
L 2450 531 
L 3481 531 
L 3481 0 
L 794 0 
L 794 531 
z
" transform="scale(0.015625)"/>
        <path id="DejaVuSans-32" d="M 1228 531 
L 3431 531 
L 3431 0 
L 469 0 
L 469 531 
Q 828 903 1448 1529 
Q 2069 2156 2228 2338 
Q 2531 2678 2651 2914 
Q 2772 3150 2772 3378 
Q 2772 3750 2511 3984 
Q 2250 4219 1831 4219 
Q 1534 4219 1204 4116 
Q 875 4013 500 3803 
L 500 4441 
Q 881 4594 1212 4672 
Q 1544 4750 1819 4750 
Q 2544 4750 2975 4387 
Q 3406 4025 3406 3419 
Q 3406 3131 3298 2873 
Q 3191 2616 2906 2266 
Q 2828 2175 2409 1742 
Q 1991 1309 1228 531 
z
" transform="scale(0.015625)"/>
       </defs>
       <use xlink:href="#DejaVuSans-31"/>
       <use xlink:href="#DejaVuSans-32" transform="translate(63.623047 0)"/>
       <use xlink:href="#DejaVuSans-30" transform="translate(127.246094 0)"/>
      </g>
     </g>
    </g>
    <g id="xtick_4">
     <g id="line2d_4">
      <g>
       <use xlink:href="#m27cfbe72d2" x="420.745211" y="320.4" style="stroke: #000000; stroke-width: 0.8"/>
      </g>
     </g>
     <g id="text_4">
      <!-- 180 -->
      <g transform="translate(411.201461 334.998438) scale(0.1 -0.1)">
       <defs>
        <path id="DejaVuSans-38" d="M 2034 2216 
Q 1584 2216 1326 1975 
Q 1069 1734 1069 1313 
Q 1069 891 1326 650 
Q 1584 409 2034 409 
Q 2484 409 2743 651 
Q 3003 894 3003 1313 
Q 3003 1734 2745 1975 
Q 2488 2216 2034 2216 
z
M 1403 2484 
Q 997 2584 770 2862 
Q 544 3141 544 3541 
Q 544 4100 942 4425 
Q 1341 4750 2034 4750 
Q 2731 4750 3128 4425 
Q 3525 4100 3525 3541 
Q 3525 3141 3298 2862 
Q 3072 2584 2669 2484 
Q 3125 2378 3379 2068 
Q 3634 1759 3634 1313 
Q 3634 634 3220 271 
Q 2806 -91 2034 -91 
Q 1263 -91 848 271 
Q 434 634 434 1313 
Q 434 1759 690 2068 
Q 947 2378 1403 2484 
z
M 1172 3481 
Q 1172 3119 1398 2916 
Q 1625 2713 2034 2713 
Q 2441 2713 2670 2916 
Q 2900 3119 2900 3481 
Q 2900 3844 2670 4047 
Q 2441 4250 2034 4250 
Q 1625 4250 1398 4047 
Q 1172 3844 1172 3481 
z
" transform="scale(0.015625)"/>
       </defs>
       <use xlink:href="#DejaVuSans-31"/>
       <use xlink:href="#DejaVuSans-38" transform="translate(63.623047 0)"/>
       <use xlink:href="#DejaVuSans-30" transform="translate(127.246094 0)"/>
      </g>
     </g>
    </g>
    <g id="xtick_5">
     <g id="line2d_5">
      <g>
       <use xlink:href="#m27cfbe72d2" x="522.53907" y="320.4" style="stroke: #000000; stroke-width: 0.8"/>
      </g>
     </g>
     <g id="text_5">
      <!-- 240 -->
      <g transform="translate(512.99532 334.998438) scale(0.1 -0.1)">
       <defs>
        <path id="DejaVuSans-34" d="M 2419 4116 
L 825 1625 
L 2419 1625 
L 2419 4116 
z
M 2253 4666 
L 3047 4666 
L 3047 1625 
L 3713 1625 
L 3713 1100 
L 3047 1100 
L 3047 0 
L 2419 0 
L 2419 1100 
L 313 1100 
L 313 1709 
L 2253 4666 
z
" transform="scale(0.015625)"/>
       </defs>
       <use xlink:href="#DejaVuSans-32"/>
       <use xlink:href="#DejaVuSans-34" transform="translate(63.623047 0)"/>
       <use xlink:href="#DejaVuSans-30" transform="translate(127.246094 0)"/>
      </g>
     </g>
    </g>
    <g id="text_6">
     <!-- Epoch -->
     <g transform="translate(353.689062 348.676562) scale(0.1 -0.1)">
      <defs>
       <path id="DejaVuSans-45" d="M 628 4666 
L 3578 4666 
L 3578 4134 
L 1259 4134 
L 1259 2753 
L 3481 2753 
L 3481 2222 
L 1259 2222 
L 1259 531 
L 3634 531 
L 3634 0 
L 628 0 
L 628 4666 
z
" transform="scale(0.015625)"/>
       <path id="DejaVuSans-70" d="M 1159 525 
L 1159 -1331 
L 581 -1331 
L 581 3500 
L 1159 3500 
L 1159 2969 
Q 1341 3281 1617 3432 
Q 1894 3584 2278 3584 
Q 2916 3584 3314 3078 
Q 3713 2572 3713 1747 
Q 3713 922 3314 415 
Q 2916 -91 2278 -91 
Q 1894 -91 1617 61 
Q 1341 213 1159 525 
z
M 3116 1747 
Q 3116 2381 2855 2742 
Q 2594 3103 2138 3103 
Q 1681 3103 1420 2742 
Q 1159 2381 1159 1747 
Q 1159 1113 1420 752 
Q 1681 391 2138 391 
Q 2594 391 2855 752 
Q 3116 1113 3116 1747 
z
" transform="scale(0.015625)"/>
       <path id="DejaVuSans-6f" d="M 1959 3097 
Q 1497 3097 1228 2736 
Q 959 2375 959 1747 
Q 959 1119 1226 758 
Q 1494 397 1959 397 
Q 2419 397 2687 759 
Q 2956 1122 2956 1747 
Q 2956 2369 2687 2733 
Q 2419 3097 1959 3097 
z
M 1959 3584 
Q 2709 3584 3137 3096 
Q 3566 2609 3566 1747 
Q 3566 888 3137 398 
Q 2709 -91 1959 -91 
Q 1206 -91 779 398 
Q 353 888 353 1747 
Q 353 2609 779 3096 
Q 1206 3584 1959 3584 
z
" transform="scale(0.015625)"/>
       <path id="DejaVuSans-63" d="M 3122 3366 
L 3122 2828 
Q 2878 2963 2633 3030 
Q 2388 3097 2138 3097 
Q 1578 3097 1268 2742 
Q 959 2388 959 1747 
Q 959 1106 1268 751 
Q 1578 397 2138 397 
Q 2388 397 2633 464 
Q 2878 531 3122 666 
L 3122 134 
Q 2881 22 2623 -34 
Q 2366 -91 2075 -91 
Q 1284 -91 818 406 
Q 353 903 353 1747 
Q 353 2603 823 3093 
Q 1294 3584 2113 3584 
Q 2378 3584 2631 3529 
Q 2884 3475 3122 3366 
z
" transform="scale(0.015625)"/>
       <path id="DejaVuSans-68" d="M 3513 2113 
L 3513 0 
L 2938 0 
L 2938 2094 
Q 2938 2591 2744 2837 
Q 2550 3084 2163 3084 
Q 1697 3084 1428 2787 
Q 1159 2491 1159 1978 
L 1159 0 
L 581 0 
L 581 4863 
L 1159 4863 
L 1159 2956 
Q 1366 3272 1645 3428 
Q 1925 3584 2291 3584 
Q 2894 3584 3203 3211 
Q 3513 2838 3513 2113 
z
" transform="scale(0.015625)"/>
      </defs>
      <use xlink:href="#DejaVuSans-45"/>
      <use xlink:href="#DejaVuSans-70" transform="translate(63.183594 0)"/>
      <use xlink:href="#DejaVuSans-6f" transform="translate(126.660156 0)"/>
      <use xlink:href="#DejaVuSans-63" transform="translate(187.841797 0)"/>
      <use xlink:href="#DejaVuSans-68" transform="translate(242.822266 0)"/>
     </g>
    </g>
   </g>
   <g id="matplotlib.axis_2">
    <g id="ytick_1">
     <g id="line2d_6">
      <defs>
       <path id="ma3d4c37271" d="M 0 0 
L -3.5 0 
" style="stroke: #000000; stroke-width: 0.8"/>
      </defs>
      <g>
       <use xlink:href="#ma3d4c37271" x="90" y="308.018314" style="stroke: #000000; stroke-width: 0.8"/>
      </g>
     </g>
     <g id="text_7">
      <!-- 0.0 -->
      <g transform="translate(67.096875 311.817533) scale(0.1 -0.1)">
       <defs>
        <path id="DejaVuSans-2e" d="M 684 794 
L 1344 794 
L 1344 0 
L 684 0 
L 684 794 
z
" transform="scale(0.015625)"/>
       </defs>
       <use xlink:href="#DejaVuSans-30"/>
       <use xlink:href="#DejaVuSans-2e" transform="translate(63.623047 0)"/>
       <use xlink:href="#DejaVuSans-30" transform="translate(95.410156 0)"/>
      </g>
     </g>
    </g>
    <g id="ytick_2">
     <g id="line2d_7">
      <g>
       <use xlink:href="#ma3d4c37271" x="90" y="261.398561" style="stroke: #000000; stroke-width: 0.8"/>
      </g>
     </g>
     <g id="text_8">
      <!-- 0.1 -->
      <g transform="translate(67.096875 265.19778) scale(0.1 -0.1)">
       <use xlink:href="#DejaVuSans-30"/>
       <use xlink:href="#DejaVuSans-2e" transform="translate(63.623047 0)"/>
       <use xlink:href="#DejaVuSans-31" transform="translate(95.410156 0)"/>
      </g>
     </g>
    </g>
    <g id="ytick_3">
     <g id="line2d_8">
      <g>
       <use xlink:href="#ma3d4c37271" x="90" y="214.778808" style="stroke: #000000; stroke-width: 0.8"/>
      </g>
     </g>
     <g id="text_9">
      <!-- 0.2 -->
      <g transform="translate(67.096875 218.578027) scale(0.1 -0.1)">
       <use xlink:href="#DejaVuSans-30"/>
       <use xlink:href="#DejaVuSans-2e" transform="translate(63.623047 0)"/>
       <use xlink:href="#DejaVuSans-32" transform="translate(95.410156 0)"/>
      </g>
     </g>
    </g>
    <g id="ytick_4">
     <g id="line2d_9">
      <g>
       <use xlink:href="#ma3d4c37271" x="90" y="168.159055" style="stroke: #000000; stroke-width: 0.8"/>
      </g>
     </g>
     <g id="text_10">
      <!-- 0.3 -->
      <g transform="translate(67.096875 171.958274) scale(0.1 -0.1)">
       <defs>
        <path id="DejaVuSans-33" d="M 2597 2516 
Q 3050 2419 3304 2112 
Q 3559 1806 3559 1356 
Q 3559 666 3084 287 
Q 2609 -91 1734 -91 
Q 1441 -91 1130 -33 
Q 819 25 488 141 
L 488 750 
Q 750 597 1062 519 
Q 1375 441 1716 441 
Q 2309 441 2620 675 
Q 2931 909 2931 1356 
Q 2931 1769 2642 2001 
Q 2353 2234 1838 2234 
L 1294 2234 
L 1294 2753 
L 1863 2753 
Q 2328 2753 2575 2939 
Q 2822 3125 2822 3475 
Q 2822 3834 2567 4026 
Q 2313 4219 1838 4219 
Q 1578 4219 1281 4162 
Q 984 4106 628 3988 
L 628 4550 
Q 988 4650 1302 4700 
Q 1616 4750 1894 4750 
Q 2613 4750 3031 4423 
Q 3450 4097 3450 3541 
Q 3450 3153 3228 2886 
Q 3006 2619 2597 2516 
z
" transform="scale(0.015625)"/>
       </defs>
       <use xlink:href="#DejaVuSans-30"/>
       <use xlink:href="#DejaVuSans-2e" transform="translate(63.623047 0)"/>
       <use xlink:href="#DejaVuSans-33" transform="translate(95.410156 0)"/>
      </g>
     </g>
    </g>
    <g id="ytick_5">
     <g id="line2d_10">
      <g>
       <use xlink:href="#ma3d4c37271" x="90" y="121.539302" style="stroke: #000000; stroke-width: 0.8"/>
      </g>
     </g>
     <g id="text_11">
      <!-- 0.4 -->
      <g transform="translate(67.096875 125.338521) scale(0.1 -0.1)">
       <use xlink:href="#DejaVuSans-30"/>
       <use xlink:href="#DejaVuSans-2e" transform="translate(63.623047 0)"/>
       <use xlink:href="#DejaVuSans-34" transform="translate(95.410156 0)"/>
      </g>
     </g>
    </g>
    <g id="ytick_6">
     <g id="line2d_11">
      <g>
       <use xlink:href="#ma3d4c37271" x="90" y="74.919549" style="stroke: #000000; stroke-width: 0.8"/>
      </g>
     </g>
     <g id="text_12">
      <!-- 0.5 -->
      <g transform="translate(67.096875 78.718768) scale(0.1 -0.1)">
       <defs>
        <path id="DejaVuSans-35" d="M 691 4666 
L 3169 4666 
L 3169 4134 
L 1269 4134 
L 1269 2991 
Q 1406 3038 1543 3061 
Q 1681 3084 1819 3084 
Q 2600 3084 3056 2656 
Q 3513 2228 3513 1497 
Q 3513 744 3044 326 
Q 2575 -91 1722 -91 
Q 1428 -91 1123 -41 
Q 819 9 494 109 
L 494 744 
Q 775 591 1075 516 
Q 1375 441 1709 441 
Q 2250 441 2565 725 
Q 2881 1009 2881 1497 
Q 2881 1984 2565 2268 
Q 2250 2553 1709 2553 
Q 1456 2553 1204 2497 
Q 953 2441 691 2322 
L 691 4666 
z
" transform="scale(0.015625)"/>
       </defs>
       <use xlink:href="#DejaVuSans-30"/>
       <use xlink:href="#DejaVuSans-2e" transform="translate(63.623047 0)"/>
       <use xlink:href="#DejaVuSans-35" transform="translate(95.410156 0)"/>
      </g>
     </g>
    </g>
    <g id="text_13">
     <!-- Loss -->
     <g transform="translate(61.017187 192.767187) rotate(-90) scale(0.1 -0.1)">
      <defs>
       <path id="DejaVuSans-4c" d="M 628 4666 
L 1259 4666 
L 1259 531 
L 3531 531 
L 3531 0 
L 628 0 
L 628 4666 
z
" transform="scale(0.015625)"/>
       <path id="DejaVuSans-73" d="M 2834 3397 
L 2834 2853 
Q 2591 2978 2328 3040 
Q 2066 3103 1784 3103 
Q 1356 3103 1142 2972 
Q 928 2841 928 2578 
Q 928 2378 1081 2264 
Q 1234 2150 1697 2047 
L 1894 2003 
Q 2506 1872 2764 1633 
Q 3022 1394 3022 966 
Q 3022 478 2636 193 
Q 2250 -91 1575 -91 
Q 1294 -91 989 -36 
Q 684 19 347 128 
L 347 722 
Q 666 556 975 473 
Q 1284 391 1588 391 
Q 1994 391 2212 530 
Q 2431 669 2431 922 
Q 2431 1156 2273 1281 
Q 2116 1406 1581 1522 
L 1381 1569 
Q 847 1681 609 1914 
Q 372 2147 372 2553 
Q 372 3047 722 3315 
Q 1072 3584 1716 3584 
Q 2034 3584 2315 3537 
Q 2597 3491 2834 3397 
z
" transform="scale(0.015625)"/>
      </defs>
      <use xlink:href="#DejaVuSans-4c"/>
      <use xlink:href="#DejaVuSans-6f" transform="translate(53.962891 0)"/>
      <use xlink:href="#DejaVuSans-73" transform="translate(115.144531 0)"/>
      <use xlink:href="#DejaVuSans-73" transform="translate(167.244141 0)"/>
     </g>
    </g>
   </g>
   <g id="line2d_12">
    <path d="M 115.363636 282.336368 
L 117.060201 303.719009 
L 118.756765 305.249968 
L 120.453329 306.021702 
L 122.149894 306.371145 
L 125.543022 306.74934 
L 130.632715 307.050829 
L 142.508665 307.364952 
L 159.474308 307.489224 
L 166.260566 307.466797 
L 181.529644 307.541358 
L 193.405594 307.565192 
L 196.798723 307.539822 
L 203.58498 307.566238 
L 208.674673 307.572425 
L 212.067802 307.574558 
L 215.46093 307.582145 
L 268.054424 307.712497 
L 308.771967 307.749443 
L 352.882639 307.779931 
L 600.581028 307.775282 
L 622.636364 307.793484 
L 622.636364 307.793484 
" clip-path="url(#p0613743c21)" style="fill: none; stroke: #1f77b4; stroke-width: 1.5; stroke-linecap: square"/>
   </g>
   <g id="line2d_13">
    <path d="M 115.363636 218.671497 
L 117.060201 205.376125 
L 118.756765 259.5988 
L 120.453329 244.179988 
L 122.149894 254.623161 
L 123.846458 260.490723 
L 125.543022 257.453215 
L 127.239587 262.128352 
L 128.936151 252.572147 
L 130.632715 264.054199 
L 132.329279 255.42895 
L 134.025844 249.84931 
L 135.722408 247.717089 
L 137.418972 238.509138 
L 139.115537 250.106615 
L 140.812101 240.227758 
L 142.508665 251.226581 
L 144.20523 251.816005 
L 145.901794 238.714789 
L 147.598358 223.989107 
L 149.294922 254.665746 
L 150.991487 55.8 
L 152.688051 243.751676 
L 154.384615 200.675705 
L 156.08118 227.6704 
L 157.777744 243.765472 
L 159.474308 206.650339 
L 161.170873 243.802861 
L 162.867437 207.266686 
L 164.564001 251.020668 
L 166.260566 258.442651 
L 167.95713 249.412876 
L 169.653694 230.152106 
L 171.350258 248.1873 
L 173.046823 264.393551 
L 174.743387 246.119613 
L 176.439951 249.211726 
L 178.136516 234.725906 
L 179.83308 250.082758 
L 181.529644 257.916894 
L 183.226209 257.08344 
L 184.922773 251.755787 
L 186.619337 262.498519 
L 188.315901 229.641741 
L 190.012466 247.594744 
L 191.70903 260.490521 
L 193.405594 256.507651 
L 195.102159 196.831833 
L 196.798723 234.73946 
L 198.495287 227.747181 
L 200.191852 227.220017 
L 201.888416 238.919667 
L 203.58498 226.476495 
L 205.281545 223.663409 
L 206.978109 218.55477 
L 208.674673 244.315861 
L 210.371237 251.778525 
L 212.067802 233.55082 
L 213.764366 240.139154 
L 215.46093 247.666613 
L 217.157495 238.631707 
L 218.854059 232.697874 
L 220.550623 230.524725 
L 222.247188 250.351683 
L 223.943752 249.997727 
L 225.640316 224.418417 
L 227.336881 232.118227 
L 229.033445 240.402046 
L 230.730009 231.510692 
L 232.426573 235.567718 
L 234.123138 233.141538 
L 235.819702 235.720619 
L 237.516266 234.371844 
L 239.212831 246.4221 
L 240.909395 245.096036 
L 242.605959 249.221389 
L 244.302524 250.367559 
L 245.999088 241.251347 
L 247.695652 247.181885 
L 249.392216 238.367822 
L 251.088781 247.737676 
L 252.785345 247.523082 
L 254.481909 245.206714 
L 256.178474 222.838006 
L 257.875038 227.463333 
L 259.571602 240.286707 
L 261.268167 251.990085 
L 262.964731 237.558127 
L 264.661295 240.712759 
L 266.35786 245.291667 
L 268.054424 244.012502 
L 269.750988 238.382041 
L 271.447552 233.340374 
L 273.144117 236.534376 
L 274.840681 238.58827 
L 276.537245 235.551403 
L 278.23381 233.664333 
L 279.930374 242.519369 
L 281.626938 236.793458 
L 283.323503 232.378753 
L 285.020067 230.056753 
L 286.716631 237.915888 
L 288.413196 233.454342 
L 290.10976 237.487642 
L 291.806324 234.216498 
L 293.502888 241.632958 
L 295.199453 236.881809 
L 296.896017 227.241546 
L 298.592581 224.30701 
L 301.98571 227.830894 
L 303.682274 235.373406 
L 305.378839 232.07568 
L 307.075403 241.719022 
L 308.771967 242.225632 
L 310.468531 239.860495 
L 312.165096 238.115922 
L 315.558224 232.290417 
L 317.254789 236.211989 
L 318.951353 237.6249 
L 320.647917 233.375397 
L 322.344482 230.962475 
L 324.041046 232.60395 
L 325.73761 239.335476 
L 327.434175 225.292474 
L 329.130739 236.198255 
L 330.827303 237.038935 
L 332.523867 221.927062 
L 334.220432 227.055189 
L 335.916996 232.982693 
L 337.61356 228.059715 
L 339.310125 247.471628 
L 341.006689 225.289154 
L 342.703253 210.008761 
L 344.399818 230.156115 
L 346.096382 230.810667 
L 347.792946 222.221023 
L 349.48951 231.943552 
L 351.186075 234.409116 
L 352.882639 237.897396 
L 354.579203 243.507234 
L 356.275768 240.627484 
L 357.972332 236.824105 
L 359.668896 235.839074 
L 361.365461 237.540726 
L 363.062025 233.541003 
L 364.758589 242.802867 
L 366.455154 242.995092 
L 368.151718 240.259421 
L 369.848282 225.570529 
L 371.544846 237.217427 
L 373.241411 235.911633 
L 374.937975 240.148548 
L 376.634539 230.64024 
L 378.331104 233.557848 
L 380.027668 234.606487 
L 381.724232 230.063456 
L 383.420797 238.730053 
L 385.117361 236.319109 
L 386.813925 232.438977 
L 388.51049 239.24746 
L 390.207054 231.568421 
L 391.903618 227.256761 
L 395.296747 241.372012 
L 396.993311 229.811456 
L 398.689875 229.243424 
L 400.38644 231.873542 
L 402.083004 218.437776 
L 403.779568 230.283611 
L 405.476133 235.330014 
L 407.172697 228.399724 
L 408.869261 233.284295 
L 410.565825 231.051507 
L 412.26239 227.510095 
L 413.958954 231.130458 
L 415.655518 229.489761 
L 417.352083 220.954819 
L 419.048647 223.904953 
L 420.745211 231.258343 
L 422.441776 226.325909 
L 424.13834 222.862277 
L 425.834904 226.930374 
L 427.531469 230.621107 
L 429.228033 216.115851 
L 430.924597 215.786424 
L 432.621161 222.499878 
L 434.317726 222.131388 
L 436.01429 220.92338 
L 437.710854 217.241498 
L 439.407419 214.583762 
L 441.103983 214.013748 
L 442.800547 214.401773 
L 444.497112 221.577388 
L 446.193676 217.892382 
L 447.89024 224.793476 
L 449.586804 227.008945 
L 451.283369 226.795848 
L 452.979933 228.797034 
L 454.676497 224.823731 
L 456.373062 214.152734 
L 458.069626 215.625863 
L 459.76619 215.304459 
L 461.462755 218.413581 
L 463.159319 214.817111 
L 464.855883 212.828 
L 466.552448 212.799406 
L 468.249012 226.624388 
L 469.945576 217.474451 
L 471.64214 214.118203 
L 473.338705 215.378786 
L 475.035269 224.995183 
L 476.731833 219.896405 
L 478.428398 217.734237 
L 480.124962 221.895604 
L 481.821526 224.290484 
L 483.518091 230.922765 
L 485.214655 225.55544 
L 486.911219 201.803423 
L 488.607784 206.902223 
L 490.304348 216.770627 
L 492.000912 220.971873 
L 493.697476 216.038253 
L 495.394041 221.551046 
L 497.090605 213.517476 
L 498.787169 223.407844 
L 500.483734 224.301137 
L 502.180298 216.175595 
L 503.876862 214.74044 
L 505.573427 218.264031 
L 507.269991 208.010791 
L 508.966555 219.070457 
L 510.663119 219.021946 
L 512.359684 212.839272 
L 514.056248 218.103959 
L 515.752812 215.679537 
L 517.449377 211.520548 
L 519.145941 215.550313 
L 520.842505 208.400204 
L 522.53907 214.731121 
L 524.235634 219.085984 
L 525.932198 212.700064 
L 527.628763 212.836085 
L 529.325327 218.861519 
L 531.021891 201.011797 
L 532.718455 201.691282 
L 534.41502 210.253965 
L 536.111584 210.993339 
L 537.808148 200.10853 
L 539.504713 222.470591 
L 541.201277 204.408657 
L 542.897841 219.523331 
L 544.594406 209.186468 
L 546.29097 199.969061 
L 547.987534 206.296638 
L 549.684099 218.068131 
L 551.380663 223.150463 
L 554.773791 202.848821 
L 556.470356 210.516844 
L 558.16692 213.106466 
L 559.863484 217.700479 
L 561.560049 200.672543 
L 563.256613 205.799392 
L 564.953177 206.075588 
L 566.649742 201.214703 
L 568.346306 197.615551 
L 571.739434 204.423592 
L 573.435999 211.246152 
L 575.132563 212.619146 
L 576.829127 208.31846 
L 578.525692 209.866851 
L 580.222256 204.273817 
L 581.91882 193.186604 
L 583.615385 209.153125 
L 585.311949 205.958906 
L 587.008513 189.51888 
L 588.705078 202.504295 
L 590.401642 195.081261 
L 592.098206 186.787857 
L 593.79477 197.902414 
L 595.491335 205.909159 
L 597.187899 197.885913 
L 598.884463 197.195866 
L 600.581028 195.67504 
L 602.277592 188.457655 
L 603.974156 175.917033 
L 605.670721 173.923724 
L 607.367285 191.411234 
L 609.063849 200.106262 
L 610.760413 202.19804 
L 612.456978 192.876762 
L 614.153542 193.990027 
L 615.850106 191.696434 
L 617.546671 206.323756 
L 619.243235 208.499233 
L 620.939799 188.254912 
L 622.636364 193.016471 
L 622.636364 193.016471 
" clip-path="url(#p0613743c21)" style="fill: none; stroke: #ff7f0e; stroke-width: 1.5; stroke-linecap: square"/>
   </g>
   <g id="patch_3">
    <path d="M 90 320.4 
L 90 43.2 
" style="fill: none; stroke: #000000; stroke-width: 0.8; stroke-linejoin: miter; stroke-linecap: square"/>
   </g>
   <g id="patch_4">
    <path d="M 648 320.4 
L 648 43.2 
" style="fill: none; stroke: #000000; stroke-width: 0.8; stroke-linejoin: miter; stroke-linecap: square"/>
   </g>
   <g id="patch_5">
    <path d="M 90 320.4 
L 648 320.4 
" style="fill: none; stroke: #000000; stroke-width: 0.8; stroke-linejoin: miter; stroke-linecap: square"/>
   </g>
   <g id="patch_6">
    <path d="M 90 43.2 
L 648 43.2 
" style="fill: none; stroke: #000000; stroke-width: 0.8; stroke-linejoin: miter; stroke-linecap: square"/>
   </g>
   <g id="text_14">
    <!-- Training GAN Losses -->
    <g transform="translate(308.295 37.2) scale(0.12 -0.12)">
     <defs>
      <path id="DejaVuSans-54" d="M -19 4666 
L 3928 4666 
L 3928 4134 
L 2272 4134 
L 2272 0 
L 1638 0 
L 1638 4134 
L -19 4134 
L -19 4666 
z
" transform="scale(0.015625)"/>
      <path id="DejaVuSans-72" d="M 2631 2963 
Q 2534 3019 2420 3045 
Q 2306 3072 2169 3072 
Q 1681 3072 1420 2755 
Q 1159 2438 1159 1844 
L 1159 0 
L 581 0 
L 581 3500 
L 1159 3500 
L 1159 2956 
Q 1341 3275 1631 3429 
Q 1922 3584 2338 3584 
Q 2397 3584 2469 3576 
Q 2541 3569 2628 3553 
L 2631 2963 
z
" transform="scale(0.015625)"/>
      <path id="DejaVuSans-61" d="M 2194 1759 
Q 1497 1759 1228 1600 
Q 959 1441 959 1056 
Q 959 750 1161 570 
Q 1363 391 1709 391 
Q 2188 391 2477 730 
Q 2766 1069 2766 1631 
L 2766 1759 
L 2194 1759 
z
M 3341 1997 
L 3341 0 
L 2766 0 
L 2766 531 
Q 2569 213 2275 61 
Q 1981 -91 1556 -91 
Q 1019 -91 701 211 
Q 384 513 384 1019 
Q 384 1609 779 1909 
Q 1175 2209 1959 2209 
L 2766 2209 
L 2766 2266 
Q 2766 2663 2505 2880 
Q 2244 3097 1772 3097 
Q 1472 3097 1187 3025 
Q 903 2953 641 2809 
L 641 3341 
Q 956 3463 1253 3523 
Q 1550 3584 1831 3584 
Q 2591 3584 2966 3190 
Q 3341 2797 3341 1997 
z
" transform="scale(0.015625)"/>
      <path id="DejaVuSans-69" d="M 603 3500 
L 1178 3500 
L 1178 0 
L 603 0 
L 603 3500 
z
M 603 4863 
L 1178 4863 
L 1178 4134 
L 603 4134 
L 603 4863 
z
" transform="scale(0.015625)"/>
      <path id="DejaVuSans-6e" d="M 3513 2113 
L 3513 0 
L 2938 0 
L 2938 2094 
Q 2938 2591 2744 2837 
Q 2550 3084 2163 3084 
Q 1697 3084 1428 2787 
Q 1159 2491 1159 1978 
L 1159 0 
L 581 0 
L 581 3500 
L 1159 3500 
L 1159 2956 
Q 1366 3272 1645 3428 
Q 1925 3584 2291 3584 
Q 2894 3584 3203 3211 
Q 3513 2838 3513 2113 
z
" transform="scale(0.015625)"/>
      <path id="DejaVuSans-67" d="M 2906 1791 
Q 2906 2416 2648 2759 
Q 2391 3103 1925 3103 
Q 1463 3103 1205 2759 
Q 947 2416 947 1791 
Q 947 1169 1205 825 
Q 1463 481 1925 481 
Q 2391 481 2648 825 
Q 2906 1169 2906 1791 
z
M 3481 434 
Q 3481 -459 3084 -895 
Q 2688 -1331 1869 -1331 
Q 1566 -1331 1297 -1286 
Q 1028 -1241 775 -1147 
L 775 -588 
Q 1028 -725 1275 -790 
Q 1522 -856 1778 -856 
Q 2344 -856 2625 -561 
Q 2906 -266 2906 331 
L 2906 616 
Q 2728 306 2450 153 
Q 2172 0 1784 0 
Q 1141 0 747 490 
Q 353 981 353 1791 
Q 353 2603 747 3093 
Q 1141 3584 1784 3584 
Q 2172 3584 2450 3431 
Q 2728 3278 2906 2969 
L 2906 3500 
L 3481 3500 
L 3481 434 
z
" transform="scale(0.015625)"/>
      <path id="DejaVuSans-20" transform="scale(0.015625)"/>
      <path id="DejaVuSans-47" d="M 3809 666 
L 3809 1919 
L 2778 1919 
L 2778 2438 
L 4434 2438 
L 4434 434 
Q 4069 175 3628 42 
Q 3188 -91 2688 -91 
Q 1594 -91 976 548 
Q 359 1188 359 2328 
Q 359 3472 976 4111 
Q 1594 4750 2688 4750 
Q 3144 4750 3555 4637 
Q 3966 4525 4313 4306 
L 4313 3634 
Q 3963 3931 3569 4081 
Q 3175 4231 2741 4231 
Q 1884 4231 1454 3753 
Q 1025 3275 1025 2328 
Q 1025 1384 1454 906 
Q 1884 428 2741 428 
Q 3075 428 3337 486 
Q 3600 544 3809 666 
z
" transform="scale(0.015625)"/>
      <path id="DejaVuSans-41" d="M 2188 4044 
L 1331 1722 
L 3047 1722 
L 2188 4044 
z
M 1831 4666 
L 2547 4666 
L 4325 0 
L 3669 0 
L 3244 1197 
L 1141 1197 
L 716 0 
L 50 0 
L 1831 4666 
z
" transform="scale(0.015625)"/>
      <path id="DejaVuSans-4e" d="M 628 4666 
L 1478 4666 
L 3547 763 
L 3547 4666 
L 4159 4666 
L 4159 0 
L 3309 0 
L 1241 3903 
L 1241 0 
L 628 0 
L 628 4666 
z
" transform="scale(0.015625)"/>
      <path id="DejaVuSans-65" d="M 3597 1894 
L 3597 1613 
L 953 1613 
Q 991 1019 1311 708 
Q 1631 397 2203 397 
Q 2534 397 2845 478 
Q 3156 559 3463 722 
L 3463 178 
Q 3153 47 2828 -22 
Q 2503 -91 2169 -91 
Q 1331 -91 842 396 
Q 353 884 353 1716 
Q 353 2575 817 3079 
Q 1281 3584 2069 3584 
Q 2775 3584 3186 3129 
Q 3597 2675 3597 1894 
z
M 3022 2063 
Q 3016 2534 2758 2815 
Q 2500 3097 2075 3097 
Q 1594 3097 1305 2825 
Q 1016 2553 972 2059 
L 3022 2063 
z
" transform="scale(0.015625)"/>
     </defs>
     <use xlink:href="#DejaVuSans-54"/>
     <use xlink:href="#DejaVuSans-72" transform="translate(46.333984 0)"/>
     <use xlink:href="#DejaVuSans-61" transform="translate(87.447266 0)"/>
     <use xlink:href="#DejaVuSans-69" transform="translate(148.726562 0)"/>
     <use xlink:href="#DejaVuSans-6e" transform="translate(176.509766 0)"/>
     <use xlink:href="#DejaVuSans-69" transform="translate(239.888672 0)"/>
     <use xlink:href="#DejaVuSans-6e" transform="translate(267.671875 0)"/>
     <use xlink:href="#DejaVuSans-67" transform="translate(331.050781 0)"/>
     <use xlink:href="#DejaVuSans-20" transform="translate(394.527344 0)"/>
     <use xlink:href="#DejaVuSans-47" transform="translate(426.314453 0)"/>
     <use xlink:href="#DejaVuSans-41" transform="translate(503.804688 0)"/>
     <use xlink:href="#DejaVuSans-4e" transform="translate(572.212891 0)"/>
     <use xlink:href="#DejaVuSans-20" transform="translate(647.017578 0)"/>
     <use xlink:href="#DejaVuSans-4c" transform="translate(678.804688 0)"/>
     <use xlink:href="#DejaVuSans-6f" transform="translate(732.767578 0)"/>
     <use xlink:href="#DejaVuSans-73" transform="translate(793.949219 0)"/>
     <use xlink:href="#DejaVuSans-73" transform="translate(846.048828 0)"/>
     <use xlink:href="#DejaVuSans-65" transform="translate(898.148438 0)"/>
     <use xlink:href="#DejaVuSans-73" transform="translate(959.671875 0)"/>
    </g>
   </g>
   <g id="legend_1">
    <g id="patch_7">
     <path d="M 491.429688 80.55625 
L 641 80.55625 
Q 643 80.55625 643 78.55625 
L 643 50.2 
Q 643 48.2 641 48.2 
L 491.429688 48.2 
Q 489.429688 48.2 489.429688 50.2 
L 489.429688 78.55625 
Q 489.429688 80.55625 491.429688 80.55625 
z
" style="fill: #ffffff; opacity: 0.8; stroke: #cccccc; stroke-linejoin: miter"/>
    </g>
    <g id="line2d_14">
     <path d="M 493.429688 56.298437 
L 503.429688 56.298437 
L 513.429688 56.298437 
" style="fill: none; stroke: #1f77b4; stroke-width: 1.5; stroke-linecap: square"/>
    </g>
    <g id="text_15">
     <!-- GAN Generate Loss -->
     <g transform="translate(521.429688 59.798437) scale(0.1 -0.1)">
      <defs>
       <path id="DejaVuSans-74" d="M 1172 4494 
L 1172 3500 
L 2356 3500 
L 2356 3053 
L 1172 3053 
L 1172 1153 
Q 1172 725 1289 603 
Q 1406 481 1766 481 
L 2356 481 
L 2356 0 
L 1766 0 
Q 1100 0 847 248 
Q 594 497 594 1153 
L 594 3053 
L 172 3053 
L 172 3500 
L 594 3500 
L 594 4494 
L 1172 4494 
z
" transform="scale(0.015625)"/>
      </defs>
      <use xlink:href="#DejaVuSans-47"/>
      <use xlink:href="#DejaVuSans-41" transform="translate(77.490234 0)"/>
      <use xlink:href="#DejaVuSans-4e" transform="translate(145.898438 0)"/>
      <use xlink:href="#DejaVuSans-20" transform="translate(220.703125 0)"/>
      <use xlink:href="#DejaVuSans-47" transform="translate(252.490234 0)"/>
      <use xlink:href="#DejaVuSans-65" transform="translate(329.980469 0)"/>
      <use xlink:href="#DejaVuSans-6e" transform="translate(391.503906 0)"/>
      <use xlink:href="#DejaVuSans-65" transform="translate(454.882812 0)"/>
      <use xlink:href="#DejaVuSans-72" transform="translate(516.40625 0)"/>
      <use xlink:href="#DejaVuSans-61" transform="translate(557.519531 0)"/>
      <use xlink:href="#DejaVuSans-74" transform="translate(618.798828 0)"/>
      <use xlink:href="#DejaVuSans-65" transform="translate(658.007812 0)"/>
      <use xlink:href="#DejaVuSans-20" transform="translate(719.53125 0)"/>
      <use xlink:href="#DejaVuSans-4c" transform="translate(751.318359 0)"/>
      <use xlink:href="#DejaVuSans-6f" transform="translate(805.28125 0)"/>
      <use xlink:href="#DejaVuSans-73" transform="translate(866.462891 0)"/>
      <use xlink:href="#DejaVuSans-73" transform="translate(918.5625 0)"/>
     </g>
    </g>
    <g id="line2d_15">
     <path d="M 493.429688 70.976562 
L 503.429688 70.976562 
L 513.429688 70.976562 
" style="fill: none; stroke: #ff7f0e; stroke-width: 1.5; stroke-linecap: square"/>
    </g>
    <g id="text_16">
     <!-- GAN Discriminator Loss -->
     <g transform="translate(521.429688 74.476562) scale(0.1 -0.1)">
      <defs>
       <path id="DejaVuSans-44" d="M 1259 4147 
L 1259 519 
L 2022 519 
Q 2988 519 3436 956 
Q 3884 1394 3884 2338 
Q 3884 3275 3436 3711 
Q 2988 4147 2022 4147 
L 1259 4147 
z
M 628 4666 
L 1925 4666 
Q 3281 4666 3915 4102 
Q 4550 3538 4550 2338 
Q 4550 1131 3912 565 
Q 3275 0 1925 0 
L 628 0 
L 628 4666 
z
" transform="scale(0.015625)"/>
       <path id="DejaVuSans-6d" d="M 3328 2828 
Q 3544 3216 3844 3400 
Q 4144 3584 4550 3584 
Q 5097 3584 5394 3201 
Q 5691 2819 5691 2113 
L 5691 0 
L 5113 0 
L 5113 2094 
Q 5113 2597 4934 2840 
Q 4756 3084 4391 3084 
Q 3944 3084 3684 2787 
Q 3425 2491 3425 1978 
L 3425 0 
L 2847 0 
L 2847 2094 
Q 2847 2600 2669 2842 
Q 2491 3084 2119 3084 
Q 1678 3084 1418 2786 
Q 1159 2488 1159 1978 
L 1159 0 
L 581 0 
L 581 3500 
L 1159 3500 
L 1159 2956 
Q 1356 3278 1631 3431 
Q 1906 3584 2284 3584 
Q 2666 3584 2933 3390 
Q 3200 3197 3328 2828 
z
" transform="scale(0.015625)"/>
      </defs>
      <use xlink:href="#DejaVuSans-47"/>
      <use xlink:href="#DejaVuSans-41" transform="translate(77.490234 0)"/>
      <use xlink:href="#DejaVuSans-4e" transform="translate(145.898438 0)"/>
      <use xlink:href="#DejaVuSans-20" transform="translate(220.703125 0)"/>
      <use xlink:href="#DejaVuSans-44" transform="translate(252.490234 0)"/>
      <use xlink:href="#DejaVuSans-69" transform="translate(329.492188 0)"/>
      <use xlink:href="#DejaVuSans-73" transform="translate(357.275391 0)"/>
      <use xlink:href="#DejaVuSans-63" transform="translate(409.375 0)"/>
      <use xlink:href="#DejaVuSans-72" transform="translate(464.355469 0)"/>
      <use xlink:href="#DejaVuSans-69" transform="translate(505.46875 0)"/>
      <use xlink:href="#DejaVuSans-6d" transform="translate(533.251953 0)"/>
      <use xlink:href="#DejaVuSans-69" transform="translate(630.664062 0)"/>
      <use xlink:href="#DejaVuSans-6e" transform="translate(658.447266 0)"/>
      <use xlink:href="#DejaVuSans-61" transform="translate(721.826172 0)"/>
      <use xlink:href="#DejaVuSans-74" transform="translate(783.105469 0)"/>
      <use xlink:href="#DejaVuSans-6f" transform="translate(822.314453 0)"/>
      <use xlink:href="#DejaVuSans-72" transform="translate(883.496094 0)"/>
      <use xlink:href="#DejaVuSans-20" transform="translate(924.609375 0)"/>
      <use xlink:href="#DejaVuSans-4c" transform="translate(956.396484 0)"/>
      <use xlink:href="#DejaVuSans-6f" transform="translate(1010.359375 0)"/>
      <use xlink:href="#DejaVuSans-73" transform="translate(1071.541016 0)"/>
      <use xlink:href="#DejaVuSans-73" transform="translate(1123.640625 0)"/>
     </g>
    </g>
   </g>
  </g>
 </g>
 <defs>
  <clipPath id="p0613743c21">
   <rect x="90" y="43.2" width="558" height="277.2"/>
  </clipPath>
 </defs>
</svg>
