<?xml version="1.0" encoding="utf-8" standalone="no"?>
<!DOCTYPE svg PUBLIC "-//W3C//DTD SVG 1.1//EN"
  "http://www.w3.org/Graphics/SVG/1.1/DTD/svg11.dtd">
<svg xmlns:xlink="http://www.w3.org/1999/xlink" width="720pt" height="360pt" viewBox="0 0 720 360" xmlns="http://www.w3.org/2000/svg" version="1.1">
 <metadata>
  <rdf:RDF xmlns:dc="http://purl.org/dc/elements/1.1/" xmlns:cc="http://creativecommons.org/ns#" xmlns:rdf="http://www.w3.org/1999/02/22-rdf-syntax-ns#">
   <cc:Work>
    <dc:type rdf:resource="http://purl.org/dc/dcmitype/StillImage"/>
    <dc:date>2026-02-16T20:29:31.602355</dc:date>
    <dc:format>image/svg+xml</dc:format>
    <dc:creator>
     <cc:Agent>
      <dc:title>Matplotlib v3.10.1, https://matplotlib.org/</dc:title>
     </cc:Agent>
    </dc:creator>
   </cc:Work>
  </rdf:RDF>
 </metadata>
 <defs>
  <style type="text/css">*{stroke-linejoin: round; stroke-linecap: butt}</style>
 </defs>
 <g id="figure_1">
  <g id="patch_1">
   <path d="M 0 360 
L 720 360 
L 720 0 
L 0 0 
z
" style="fill: #ffffff"/>
  </g>
  <g id="axes_1">
   <g id="patch_2">
    <path d="M 90 320.4 
L 648 320.4 
L 648 43.2 
L 90 43.2 
z
" style="fill: #ffffff"/>
   </g>
   <g id="matplotlib.axis_1">
    <g id="xtick_1">
     <g id="line2d_1">
      <defs>
       <path id="m1e086f5691" d="M 0 0 
L 0 3.5 
" style="stroke: #000000; stroke-width: 0.8"/>
      </defs>
      <g>
       <use xlink:href="#m1e086f5691" x="115.363636" y="320.4" style="stroke: #000000; stroke-width: 0.8"/>
      </g>
     </g>
     <g id="text_1">
      <!-- 0 -->
      <g transform="translate(112.182386 334.998438) scale(0.1 -0.1)">
       <defs>
        <path id="DejaVuSans-30" d="M 2034 4250 
Q 1547 4250 1301 3770 
Q 1056 3291 1056 2328 
Q 1056 1369 1301 889 
Q 1547 409 2034 409 
Q 2525 409 2770 889 
Q 3016 1369 3016 2328 
Q 3016 3291 2770 3770 
Q 2525 4250 2034 4250 
z
M 2034 4750 
Q 2819 4750 3233 4129 
Q 3647 3509 3647 2328 
Q 3647 1150 3233 529 
Q 2819 -91 2034 -91 
Q 1250 -91 836 529 
Q 422 1150 422 2328 
Q 422 3509 836 4129 
Q 1250 4750 2034 4750 
z
" transform="scale(0.015625)"/>
       </defs>
       <use xlink:href="#DejaVuSans-30"/>
      </g>
     </g>
    </g>
    <g id="xtick_2">
     <g id="line2d_2">
      <g>
       <use xlink:href="#m1e086f5691" x="217.157495" y="320.4" style="stroke: #000000; stroke-width: 0.8"/>
      </g>
     </g>
     <g id="text_2">
      <!-- 60 -->
      <g transform="translate(210.794995 334.998438) scale(0.1 -0.1)">
       <defs>
        <path id="DejaVuSans-36" d="M 2113 2584 
Q 1688 2584 1439 2293 
Q 1191 2003 1191 1497 
Q 1191 994 1439 701 
Q 1688 409 2113 409 
Q 2538 409 2786 701 
Q 3034 994 3034 1497 
Q 3034 2003 2786 2293 
Q 2538 2584 2113 2584 
z
M 3366 4563 
L 3366 3988 
Q 3128 4100 2886 4159 
Q 2644 4219 2406 4219 
Q 1781 4219 1451 3797 
Q 1122 3375 1075 2522 
Q 1259 2794 1537 2939 
Q 1816 3084 2150 3084 
Q 2853 3084 3261 2657 
Q 3669 2231 3669 1497 
Q 3669 778 3244 343 
Q 2819 -91 2113 -91 
Q 1303 -91 875 529 
Q 447 1150 447 2328 
Q 447 3434 972 4092 
Q 1497 4750 2381 4750 
Q 2619 4750 2861 4703 
Q 3103 4656 3366 4563 
z
" transform="scale(0.015625)"/>
       </defs>
       <use xlink:href="#DejaVuSans-36"/>
       <use xlink:href="#DejaVuSans-30" transform="translate(63.623047 0)"/>
      </g>
     </g>
    </g>
    <g id="xtick_3">
     <g id="line2d_3">
      <g>
       <use xlink:href="#m1e086f5691" x="318.951353" y="320.4" style="stroke: #000000; stroke-width: 0.8"/>
      </g>
     </g>
     <g id="text_3">
      <!-- 120 -->
      <g transform="translate(309.407603 334.998438) scale(0.1 -0.1)">
       <defs>
        <path id="DejaVuSans-31" d="M 794 531 
L 1825 531 
L 1825 4091 
L 703 3866 
L 703 4441 
L 1819 4666 
L 2450 4666 
L 2450 531 
L 3481 531 
L 3481 0 
L 794 0 
L 794 531 
z
" transform="scale(0.015625)"/>
        <path id="DejaVuSans-32" d="M 1228 531 
L 3431 531 
L 3431 0 
L 469 0 
L 469 531 
Q 828 903 1448 1529 
Q 2069 2156 2228 2338 
Q 2531 2678 2651 2914 
Q 2772 3150 2772 3378 
Q 2772 3750 2511 3984 
Q 2250 4219 1831 4219 
Q 1534 4219 1204 4116 
Q 875 4013 500 3803 
L 500 4441 
Q 881 4594 1212 4672 
Q 1544 4750 1819 4750 
Q 2544 4750 2975 4387 
Q 3406 4025 3406 3419 
Q 3406 3131 3298 2873 
Q 3191 2616 2906 2266 
Q 2828 2175 2409 1742 
Q 1991 1309 1228 531 
z
" transform="scale(0.015625)"/>
       </defs>
       <use xlink:href="#DejaVuSans-31"/>
       <use xlink:href="#DejaVuSans-32" transform="translate(63.623047 0)"/>
       <use xlink:href="#DejaVuSans-30" transform="translate(127.246094 0)"/>
      </g>
     </g>
    </g>
    <g id="xtick_4">
     <g id="line2d_4">
      <g>
       <use xlink:href="#m1e086f5691" x="420.745211" y="320.4" style="stroke: #000000; stroke-width: 0.8"/>
      </g>
     </g>
     <g id="text_4">
      <!-- 180 -->
      <g transform="translate(411.201461 334.998438) scale(0.1 -0.1)">
       <defs>
        <path id="DejaVuSans-38" d="M 2034 2216 
Q 1584 2216 1326 1975 
Q 1069 1734 1069 1313 
Q 1069 891 1326 650 
Q 1584 409 2034 409 
Q 2484 409 2743 651 
Q 3003 894 3003 1313 
Q 3003 1734 2745 1975 
Q 2488 2216 2034 2216 
z
M 1403 2484 
Q 997 2584 770 2862 
Q 544 3141 544 3541 
Q 544 4100 942 4425 
Q 1341 4750 2034 4750 
Q 2731 4750 3128 4425 
Q 3525 4100 3525 3541 
Q 3525 3141 3298 2862 
Q 3072 2584 2669 2484 
Q 3125 2378 3379 2068 
Q 3634 1759 3634 1313 
Q 3634 634 3220 271 
Q 2806 -91 2034 -91 
Q 1263 -91 848 271 
Q 434 634 434 1313 
Q 434 1759 690 2068 
Q 947 2378 1403 2484 
z
M 1172 3481 
Q 1172 3119 1398 2916 
Q 1625 2713 2034 2713 
Q 2441 2713 2670 2916 
Q 2900 3119 2900 3481 
Q 2900 3844 2670 4047 
Q 2441 4250 2034 4250 
Q 1625 4250 1398 4047 
Q 1172 3844 1172 3481 
z
" transform="scale(0.015625)"/>
       </defs>
       <use xlink:href="#DejaVuSans-31"/>
       <use xlink:href="#DejaVuSans-38" transform="translate(63.623047 0)"/>
       <use xlink:href="#DejaVuSans-30" transform="translate(127.246094 0)"/>
      </g>
     </g>
    </g>
    <g id="xtick_5">
     <g id="line2d_5">
      <g>
       <use xlink:href="#m1e086f5691" x="522.53907" y="320.4" style="stroke: #000000; stroke-width: 0.8"/>
      </g>
     </g>
     <g id="text_5">
      <!-- 240 -->
      <g transform="translate(512.99532 334.998438) scale(0.1 -0.1)">
       <defs>
        <path id="DejaVuSans-34" d="M 2419 4116 
L 825 1625 
L 2419 1625 
L 2419 4116 
z
M 2253 4666 
L 3047 4666 
L 3047 1625 
L 3713 1625 
L 3713 1100 
L 3047 1100 
L 3047 0 
L 2419 0 
L 2419 1100 
L 313 1100 
L 313 1709 
L 2253 4666 
z
" transform="scale(0.015625)"/>
       </defs>
       <use xlink:href="#DejaVuSans-32"/>
       <use xlink:href="#DejaVuSans-34" transform="translate(63.623047 0)"/>
       <use xlink:href="#DejaVuSans-30" transform="translate(127.246094 0)"/>
      </g>
     </g>
    </g>
    <g id="text_6">
     <!-- Epoch -->
     <g transform="translate(353.689062 348.676562) scale(0.1 -0.1)">
      <defs>
       <path id="DejaVuSans-45" d="M 628 4666 
L 3578 4666 
L 3578 4134 
L 1259 4134 
L 1259 2753 
L 3481 2753 
L 3481 2222 
L 1259 2222 
L 1259 531 
L 3634 531 
L 3634 0 
L 628 0 
L 628 4666 
z
" transform="scale(0.015625)"/>
       <path id="DejaVuSans-70" d="M 1159 525 
L 1159 -1331 
L 581 -1331 
L 581 3500 
L 1159 3500 
L 1159 2969 
Q 1341 3281 1617 3432 
Q 1894 3584 2278 3584 
Q 2916 3584 3314 3078 
Q 3713 2572 3713 1747 
Q 3713 922 3314 415 
Q 2916 -91 2278 -91 
Q 1894 -91 1617 61 
Q 1341 213 1159 525 
z
M 3116 1747 
Q 3116 2381 2855 2742 
Q 2594 3103 2138 3103 
Q 1681 3103 1420 2742 
Q 1159 2381 1159 1747 
Q 1159 1113 1420 752 
Q 1681 391 2138 391 
Q 2594 391 2855 752 
Q 3116 1113 3116 1747 
z
" transform="scale(0.015625)"/>
       <path id="DejaVuSans-6f" d="M 1959 3097 
Q 1497 3097 1228 2736 
Q 959 2375 959 1747 
Q 959 1119 1226 758 
Q 1494 397 1959 397 
Q 2419 397 2687 759 
Q 2956 1122 2956 1747 
Q 2956 2369 2687 2733 
Q 2419 3097 1959 3097 
z
M 1959 3584 
Q 2709 3584 3137 3096 
Q 3566 2609 3566 1747 
Q 3566 888 3137 398 
Q 2709 -91 1959 -91 
Q 1206 -91 779 398 
Q 353 888 353 1747 
Q 353 2609 779 3096 
Q 1206 3584 1959 3584 
z
" transform="scale(0.015625)"/>
       <path id="DejaVuSans-63" d="M 3122 3366 
L 3122 2828 
Q 2878 2963 2633 3030 
Q 2388 3097 2138 3097 
Q 1578 3097 1268 2742 
Q 959 2388 959 1747 
Q 959 1106 1268 751 
Q 1578 397 2138 397 
Q 2388 397 2633 464 
Q 2878 531 3122 666 
L 3122 134 
Q 2881 22 2623 -34 
Q 2366 -91 2075 -91 
Q 1284 -91 818 406 
Q 353 903 353 1747 
Q 353 2603 823 3093 
Q 1294 3584 2113 3584 
Q 2378 3584 2631 3529 
Q 2884 3475 3122 3366 
z
" transform="scale(0.015625)"/>
       <path id="DejaVuSans-68" d="M 3513 2113 
L 3513 0 
L 2938 0 
L 2938 2094 
Q 2938 2591 2744 2837 
Q 2550 3084 2163 3084 
Q 1697 3084 1428 2787 
Q 1159 2491 1159 1978 
L 1159 0 
L 581 0 
L 581 4863 
L 1159 4863 
L 1159 2956 
Q 1366 3272 1645 3428 
Q 1925 3584 2291 3584 
Q 2894 3584 3203 3211 
Q 3513 2838 3513 2113 
z
" transform="scale(0.015625)"/>
      </defs>
      <use xlink:href="#DejaVuSans-45"/>
      <use xlink:href="#DejaVuSans-70" transform="translate(63.183594 0)"/>
      <use xlink:href="#DejaVuSans-6f" transform="translate(126.660156 0)"/>
      <use xlink:href="#DejaVuSans-63" transform="translate(187.841797 0)"/>
      <use xlink:href="#DejaVuSans-68" transform="translate(242.822266 0)"/>
     </g>
    </g>
   </g>
   <g id="matplotlib.axis_2">
    <g id="ytick_1">
     <g id="line2d_6">
      <defs>
       <path id="m34b645db05" d="M 0 0 
L -3.5 0 
" style="stroke: #000000; stroke-width: 0.8"/>
      </defs>
      <g>
       <use xlink:href="#m34b645db05" x="90" y="307.858898" style="stroke: #000000; stroke-width: 0.8"/>
      </g>
     </g>
     <g id="text_7">
      <!-- 0 -->
      <g transform="translate(76.6375 311.658117) scale(0.1 -0.1)">
       <use xlink:href="#DejaVuSans-30"/>
      </g>
     </g>
    </g>
    <g id="ytick_2">
     <g id="line2d_7">
      <g>
       <use xlink:href="#m34b645db05" x="90" y="248.357281" style="stroke: #000000; stroke-width: 0.8"/>
      </g>
     </g>
     <g id="text_8">
      <!-- 2 -->
      <g transform="translate(76.6375 252.156499) scale(0.1 -0.1)">
       <use xlink:href="#DejaVuSans-32"/>
      </g>
     </g>
    </g>
    <g id="ytick_3">
     <g id="line2d_8">
      <g>
       <use xlink:href="#m34b645db05" x="90" y="188.855663" style="stroke: #000000; stroke-width: 0.8"/>
      </g>
     </g>
     <g id="text_9">
      <!-- 4 -->
      <g transform="translate(76.6375 192.654882) scale(0.1 -0.1)">
       <use xlink:href="#DejaVuSans-34"/>
      </g>
     </g>
    </g>
    <g id="ytick_4">
     <g id="line2d_9">
      <g>
       <use xlink:href="#m34b645db05" x="90" y="129.354046" style="stroke: #000000; stroke-width: 0.8"/>
      </g>
     </g>
     <g id="text_10">
      <!-- 6 -->
      <g transform="translate(76.6375 133.153264) scale(0.1 -0.1)">
       <use xlink:href="#DejaVuSans-36"/>
      </g>
     </g>
    </g>
    <g id="ytick_5">
     <g id="line2d_10">
      <g>
       <use xlink:href="#m34b645db05" x="90" y="69.852428" style="stroke: #000000; stroke-width: 0.8"/>
      </g>
     </g>
     <g id="text_11">
      <!-- 8 -->
      <g transform="translate(76.6375 73.651647) scale(0.1 -0.1)">
       <use xlink:href="#DejaVuSans-38"/>
      </g>
     </g>
    </g>
    <g id="text_12">
     <!-- Domain Loss -->
     <g transform="translate(70.557812 213.757812) rotate(-90) scale(0.1 -0.1)">
      <defs>
       <path id="DejaVuSans-44" d="M 1259 4147 
L 1259 519 
L 2022 519 
Q 2988 519 3436 956 
Q 3884 1394 3884 2338 
Q 3884 3275 3436 3711 
Q 2988 4147 2022 4147 
L 1259 4147 
z
M 628 4666 
L 1925 4666 
Q 3281 4666 3915 4102 
Q 4550 3538 4550 2338 
Q 4550 1131 3912 565 
Q 3275 0 1925 0 
L 628 0 
L 628 4666 
z
" transform="scale(0.015625)"/>
       <path id="DejaVuSans-6d" d="M 3328 2828 
Q 3544 3216 3844 3400 
Q 4144 3584 4550 3584 
Q 5097 3584 5394 3201 
Q 5691 2819 5691 2113 
L 5691 0 
L 5113 0 
L 5113 2094 
Q 5113 2597 4934 2840 
Q 4756 3084 4391 3084 
Q 3944 3084 3684 2787 
Q 3425 2491 3425 1978 
L 3425 0 
L 2847 0 
L 2847 2094 
Q 2847 2600 2669 2842 
Q 2491 3084 2119 3084 
Q 1678 3084 1418 2786 
Q 1159 2488 1159 1978 
L 1159 0 
L 581 0 
L 581 3500 
L 1159 3500 
L 1159 2956 
Q 1356 3278 1631 3431 
Q 1906 3584 2284 3584 
Q 2666 3584 2933 3390 
Q 3200 3197 3328 2828 
z
" transform="scale(0.015625)"/>
       <path id="DejaVuSans-61" d="M 2194 1759 
Q 1497 1759 1228 1600 
Q 959 1441 959 1056 
Q 959 750 1161 570 
Q 1363 391 1709 391 
Q 2188 391 2477 730 
Q 2766 1069 2766 1631 
L 2766 1759 
L 2194 1759 
z
M 3341 1997 
L 3341 0 
L 2766 0 
L 2766 531 
Q 2569 213 2275 61 
Q 1981 -91 1556 -91 
Q 1019 -91 701 211 
Q 384 513 384 1019 
Q 384 1609 779 1909 
Q 1175 2209 1959 2209 
L 2766 2209 
L 2766 2266 
Q 2766 2663 2505 2880 
Q 2244 3097 1772 3097 
Q 1472 3097 1187 3025 
Q 903 2953 641 2809 
L 641 3341 
Q 956 3463 1253 3523 
Q 1550 3584 1831 3584 
Q 2591 3584 2966 3190 
Q 3341 2797 3341 1997 
z
" transform="scale(0.015625)"/>
       <path id="DejaVuSans-69" d="M 603 3500 
L 1178 3500 
L 1178 0 
L 603 0 
L 603 3500 
z
M 603 4863 
L 1178 4863 
L 1178 4134 
L 603 4134 
L 603 4863 
z
" transform="scale(0.015625)"/>
       <path id="DejaVuSans-6e" d="M 3513 2113 
L 3513 0 
L 2938 0 
L 2938 2094 
Q 2938 2591 2744 2837 
Q 2550 3084 2163 3084 
Q 1697 3084 1428 2787 
Q 1159 2491 1159 1978 
L 1159 0 
L 581 0 
L 581 3500 
L 1159 3500 
L 1159 2956 
Q 1366 3272 1645 3428 
Q 1925 3584 2291 3584 
Q 2894 3584 3203 3211 
Q 3513 2838 3513 2113 
z
" transform="scale(0.015625)"/>
       <path id="DejaVuSans-20" transform="scale(0.015625)"/>
       <path id="DejaVuSans-4c" d="M 628 4666 
L 1259 4666 
L 1259 531 
L 3531 531 
L 3531 0 
L 628 0 
L 628 4666 
z
" transform="scale(0.015625)"/>
       <path id="DejaVuSans-73" d="M 2834 3397 
L 2834 2853 
Q 2591 2978 2328 3040 
Q 2066 3103 1784 3103 
Q 1356 3103 1142 2972 
Q 928 2841 928 2578 
Q 928 2378 1081 2264 
Q 1234 2150 1697 2047 
L 1894 2003 
Q 2506 1872 2764 1633 
Q 3022 1394 3022 966 
Q 3022 478 2636 193 
Q 2250 -91 1575 -91 
Q 1294 -91 989 -36 
Q 684 19 347 128 
L 347 722 
Q 666 556 975 473 
Q 1284 391 1588 391 
Q 1994 391 2212 530 
Q 2431 669 2431 922 
Q 2431 1156 2273 1281 
Q 2116 1406 1581 1522 
L 1381 1569 
Q 847 1681 609 1914 
Q 372 2147 372 2553 
Q 372 3047 722 3315 
Q 1072 3584 1716 3584 
Q 2034 3584 2315 3537 
Q 2597 3491 2834 3397 
z
" transform="scale(0.015625)"/>
      </defs>
      <use xlink:href="#DejaVuSans-44"/>
      <use xlink:href="#DejaVuSans-6f" transform="translate(77.001953 0)"/>
      <use xlink:href="#DejaVuSans-6d" transform="translate(138.183594 0)"/>
      <use xlink:href="#DejaVuSans-61" transform="translate(235.595703 0)"/>
      <use xlink:href="#DejaVuSans-69" transform="translate(296.875 0)"/>
      <use xlink:href="#DejaVuSans-6e" transform="translate(324.658203 0)"/>
      <use xlink:href="#DejaVuSans-20" transform="translate(388.037109 0)"/>
      <use xlink:href="#DejaVuSans-4c" transform="translate(419.824219 0)"/>
      <use xlink:href="#DejaVuSans-6f" transform="translate(473.787109 0)"/>
      <use xlink:href="#DejaVuSans-73" transform="translate(534.96875 0)"/>
      <use xlink:href="#DejaVuSans-73" transform="translate(587.068359 0)"/>
     </g>
    </g>
   </g>
   <g id="line2d_11">
    <path d="M 115.363636 154.728142 
L 118.756765 92.456332 
L 120.453329 94.815662 
L 122.149894 83.979887 
L 123.846458 88.441816 
L 125.543022 82.939914 
L 127.239587 73.306674 
L 128.936151 78.243007 
L 130.632715 79.735985 
L 132.329279 94.648811 
L 134.025844 98.008866 
L 135.722408 103.208626 
L 137.418972 118.385281 
L 139.115537 100.18719 
L 140.812101 75.124559 
L 142.508665 102.382488 
L 144.20523 104.032388 
L 145.901794 99.661756 
L 147.598358 93.295593 
L 149.294922 112.772033 
L 150.991487 94.416681 
L 152.688051 105.238091 
L 154.384615 99.146965 
L 156.08118 100.42069 
L 157.777744 121.962709 
L 159.474308 120.630516 
L 161.170873 88.137659 
L 162.867437 78.93804 
L 164.564001 88.221124 
L 166.260566 94.013263 
L 167.95713 75.145535 
L 169.653694 80.981791 
L 171.350258 55.8 
L 173.046823 97.300982 
L 174.743387 94.00701 
L 176.439951 110.210876 
L 178.136516 82.750876 
L 181.529644 105.234381 
L 183.226209 99.753171 
L 184.922773 99.593423 
L 186.619337 91.66706 
L 188.315901 94.340244 
L 190.012466 74.75035 
L 191.70903 87.919516 
L 193.405594 70.348302 
L 195.102159 75.965852 
L 196.798723 110.879678 
L 198.495287 107.199167 
L 200.191852 105.601719 
L 201.888416 120.281788 
L 203.58498 99.665593 
L 205.281545 85.76452 
L 206.978109 99.757473 
L 208.674673 101.948428 
L 210.371237 107.456801 
L 212.067802 86.154948 
L 213.764366 57.857776 
L 215.46093 107.786178 
L 217.157495 115.22715 
L 218.854059 101.690685 
L 220.550623 68.042254 
L 222.247188 99.539144 
L 223.943752 91.003166 
L 225.640316 94.967638 
L 227.336881 105.992655 
L 229.033445 111.980127 
L 230.730009 98.043322 
L 232.426573 111.1256 
L 234.123138 91.027689 
L 235.819702 83.054719 
L 237.516266 100.770788 
L 239.212831 120.632263 
L 240.909395 109.5545 
L 242.605959 86.571328 
L 244.302524 101.192566 
L 245.999088 125.052584 
L 247.695652 114.710621 
L 249.392216 125.920404 
L 251.088781 116.691149 
L 252.785345 124.754452 
L 254.481909 104.102753 
L 256.178474 117.000059 
L 257.875038 117.819405 
L 259.571602 120.852842 
L 261.268167 107.429006 
L 262.964731 122.334246 
L 264.661295 127.535749 
L 266.35786 113.477641 
L 268.054424 119.849726 
L 269.750988 107.535839 
L 271.447552 130.339447 
L 273.144117 129.63109 
L 274.840681 127.098676 
L 276.537245 128.203597 
L 278.23381 130.182875 
L 279.930374 123.364888 
L 281.626938 127.712514 
L 283.323503 143.731426 
L 285.020067 149.105418 
L 286.716631 143.093606 
L 288.413196 149.153924 
L 290.10976 140.873855 
L 291.806324 142.35775 
L 293.502888 138.677968 
L 295.199453 140.293303 
L 296.896017 149.920814 
L 298.592581 149.285057 
L 300.289146 148.963633 
L 301.98571 147.352674 
L 303.682274 142.042889 
L 305.378839 143.590048 
L 307.075403 140.983004 
L 308.771967 140.94272 
L 310.468531 140.347757 
L 312.165096 135.096648 
L 313.86166 121.604608 
L 315.558224 121.049003 
L 317.254789 111.632491 
L 318.951353 129.398119 
L 320.647917 137.869455 
L 322.344482 138.137663 
L 324.041046 130.271531 
L 325.73761 134.03861 
L 327.434175 125.932624 
L 329.130739 130.971645 
L 330.827303 123.428684 
L 332.523867 142.572618 
L 335.916996 144.514121 
L 337.61356 144.495967 
L 339.310125 133.894552 
L 341.006689 139.442618 
L 342.703253 151.697999 
L 344.399818 138.919737 
L 346.096382 136.850514 
L 347.792946 141.207287 
L 349.48951 137.986199 
L 351.186075 140.602187 
L 352.882639 128.692457 
L 354.579203 128.02393 
L 356.275768 128.771533 
L 357.972332 130.01511 
L 359.668896 131.074735 
L 361.365461 138.785555 
L 363.062025 137.755657 
L 364.758589 129.640099 
L 366.455154 125.773732 
L 368.151718 128.860665 
L 369.848282 138.396364 
L 371.544846 129.757717 
L 373.241411 133.013713 
L 374.937975 130.773548 
L 376.634539 133.667528 
L 378.331104 135.64806 
L 380.027668 135.457979 
L 381.724232 142.218174 
L 383.420797 138.733844 
L 385.117361 134.829263 
L 386.813925 142.461489 
L 388.51049 140.504368 
L 390.207054 143.310809 
L 391.903618 139.280636 
L 395.296747 137.772087 
L 396.993311 139.489048 
L 398.689875 133.263917 
L 400.38644 137.662143 
L 402.083004 131.092249 
L 403.779568 132.860159 
L 405.476133 135.529105 
L 407.172697 142.578154 
L 410.565825 136.395408 
L 412.26239 141.639613 
L 413.958954 137.328072 
L 415.655518 136.184472 
L 417.352083 139.316712 
L 419.048647 138.93902 
L 420.745211 143.692497 
L 422.441776 134.769738 
L 424.13834 141.253463 
L 425.834904 136.830808 
L 427.531469 136.230239 
L 429.228033 146.112328 
L 430.924597 135.138061 
L 432.621161 141.533615 
L 434.317726 139.407011 
L 436.01429 136.269381 
L 437.710854 129.805086 
L 439.407419 133.795501 
L 441.103983 141.901165 
L 442.800547 136.516012 
L 444.497112 132.381015 
L 446.193676 132.282667 
L 447.89024 131.587079 
L 449.586804 121.998346 
L 451.283369 121.598739 
L 452.979933 124.004114 
L 454.676497 134.30678 
L 456.373062 131.842495 
L 458.069626 149.698011 
L 459.76619 152.984896 
L 461.462755 143.363198 
L 463.159319 139.784602 
L 464.855883 138.441112 
L 466.552448 137.718491 
L 468.249012 142.450982 
L 469.945576 136.52043 
L 471.64214 126.982724 
L 473.338705 135.520989 
L 475.035269 118.592961 
L 476.731833 123.183923 
L 478.428398 126.881984 
L 480.124962 111.666591 
L 481.821526 113.872651 
L 483.518091 123.352353 
L 485.214655 125.483226 
L 486.911219 123.032202 
L 488.607784 126.300047 
L 490.304348 119.853715 
L 492.000912 115.74665 
L 493.697476 128.833733 
L 497.090605 113.150664 
L 498.787169 118.418917 
L 500.483734 126.306698 
L 502.180298 127.695193 
L 503.876862 137.930797 
L 505.573427 124.216069 
L 507.269991 119.196902 
L 508.966555 117.674015 
L 510.663119 111.817865 
L 512.359684 118.400174 
L 514.056248 117.158099 
L 515.752812 105.750876 
L 517.449377 124.163871 
L 519.145941 113.53019 
L 520.842505 106.476746 
L 522.53907 102.347595 
L 525.932198 114.034851 
L 527.628763 113.015273 
L 529.325327 100.133452 
L 531.021891 107.53366 
L 532.718455 122.652235 
L 534.41502 109.70083 
L 536.111584 129.920067 
L 537.808148 114.364385 
L 539.504713 123.584434 
L 541.201277 122.563669 
L 542.897841 116.095188 
L 544.594406 124.639505 
L 546.29097 140.053678 
L 547.987534 123.871504 
L 549.684099 122.192377 
L 551.380663 117.575108 
L 553.077227 128.693569 
L 554.773791 134.678251 
L 556.470356 115.142934 
L 558.16692 129.996295 
L 559.863484 124.099331 
L 561.560049 131.448812 
L 563.256613 137.403755 
L 564.953177 125.378075 
L 566.649742 129.994467 
L 568.346306 132.575834 
L 570.04287 130.713604 
L 571.739434 127.175663 
L 575.132563 124.479682 
L 576.829127 132.65556 
L 578.525692 133.889467 
L 580.222256 136.051537 
L 581.91882 134.916332 
L 583.615385 131.326985 
L 585.311949 121.329817 
L 587.008513 137.610171 
L 588.705078 141.217479 
L 590.401642 138.559388 
L 592.098206 133.18914 
L 593.79477 140.98803 
L 595.491335 137.269983 
L 597.187899 130.476856 
L 598.884463 130.400763 
L 600.581028 134.212851 
L 602.277592 139.063095 
L 603.974156 149.989416 
L 605.670721 137.04415 
L 607.367285 146.100746 
L 609.063849 141.642652 
L 610.760413 142.764731 
L 612.456978 138.675626 
L 614.153542 141.937633 
L 615.850106 134.857855 
L 617.546671 142.495556 
L 619.243235 141.444398 
L 620.939799 135.728926 
L 622.636364 143.338292 
L 622.636364 143.338292 
" clip-path="url(#p02503a7f4b)" style="fill: none; stroke: #1f77b4; stroke-width: 1.5; stroke-linecap: square"/>
   </g>
   <g id="line2d_12">
    <path d="M 115.363636 300.026274 
L 117.060201 307.656124 
L 118.756765 307.049926 
L 120.453329 307.685825 
L 122.149894 307.611626 
L 123.846458 307.683745 
L 125.543022 307.569229 
L 127.239587 307.088739 
L 128.936151 306.830552 
L 130.632715 307.442328 
L 132.329279 302.48651 
L 134.025844 307.678875 
L 135.722408 306.462643 
L 137.418972 307.6114 
L 139.115537 307.678144 
L 140.812101 307.47021 
L 142.508665 307.704972 
L 145.901794 307.36124 
L 149.294922 307.57728 
L 150.991487 307.143965 
L 152.688051 307.002283 
L 154.384615 306.737865 
L 156.08118 296.855344 
L 157.777744 307.703296 
L 159.474308 299.854375 
L 161.170873 307.722718 
L 162.867437 306.52292 
L 164.564001 307.684305 
L 166.260566 307.766568 
L 167.95713 307.296991 
L 169.653694 305.648742 
L 171.350258 307.097145 
L 173.046823 303.754672 
L 174.743387 307.482298 
L 176.439951 307.8 
L 178.136516 306.002571 
L 179.83308 307.405817 
L 181.529644 304.843063 
L 183.226209 307.527461 
L 184.922773 307.698091 
L 186.619337 307.263324 
L 188.315901 307.710736 
L 191.70903 307.76239 
L 193.405594 305.178461 
L 195.102159 307.042316 
L 196.798723 307.066098 
L 198.495287 307.481236 
L 200.191852 307.725861 
L 201.888416 307.277921 
L 203.58498 304.301946 
L 205.281545 307.010442 
L 210.371237 307.324376 
L 212.067802 304.576899 
L 213.764366 307.60371 
L 217.157495 307.618451 
L 218.854059 307.241402 
L 220.550623 307.338781 
L 222.247188 307.280442 
L 223.943752 307.055603 
L 225.640316 307.403338 
L 227.336881 303.396999 
L 229.033445 307.098174 
L 230.730009 307.388532 
L 232.426573 307.109658 
L 234.123138 306.637556 
L 235.819702 306.672726 
L 237.516266 307.392933 
L 239.212831 300.852771 
L 240.909395 307.168683 
L 242.605959 306.794952 
L 244.302524 307.489281 
L 245.999088 307.516223 
L 247.695652 300.822757 
L 249.392216 307.018642 
L 251.088781 307.179403 
L 252.785345 307.016218 
L 254.481909 307.552295 
L 256.178474 307.382668 
L 257.875038 307.349828 
L 259.571602 307.520521 
L 261.268167 307.014484 
L 262.964731 307.5092 
L 266.35786 307.265047 
L 268.054424 307.598206 
L 269.750988 307.189325 
L 271.447552 307.318801 
L 273.144117 307.060762 
L 276.537245 307.415743 
L 278.23381 307.06853 
L 279.930374 303.737519 
L 281.626938 307.358542 
L 283.323503 306.612479 
L 285.020067 307.325179 
L 286.716631 307.666158 
L 288.413196 307.189555 
L 290.10976 307.334556 
L 291.806324 307.043879 
L 293.502888 307.25273 
L 295.199453 306.800465 
L 296.896017 306.817093 
L 298.592581 307.398433 
L 300.289146 306.639744 
L 301.98571 307.347836 
L 303.682274 306.649483 
L 305.378839 307.275696 
L 307.075403 307.334699 
L 308.771967 307.127051 
L 310.468531 305.647568 
L 312.165096 306.940033 
L 313.86166 306.231085 
L 315.558224 307.171788 
L 317.254789 306.916149 
L 318.951353 307.0997 
L 320.647917 306.549123 
L 322.344482 307.107871 
L 324.041046 306.922129 
L 325.73761 307.374936 
L 327.434175 306.97605 
L 329.130739 307.154655 
L 330.827303 307.148582 
L 332.523867 306.380716 
L 334.220432 307.065378 
L 335.916996 306.99579 
L 337.61356 307.523465 
L 339.310125 307.196049 
L 341.006689 307.042107 
L 344.399818 307.393497 
L 346.096382 307.348116 
L 347.792946 307.100564 
L 351.186075 307.277405 
L 352.882639 306.081182 
L 354.579203 307.60492 
L 356.275768 307.230441 
L 357.972332 307.274897 
L 359.668896 307.470558 
L 361.365461 306.967038 
L 363.062025 306.613525 
L 364.758589 305.947509 
L 368.151718 307.045876 
L 369.848282 307.393217 
L 371.544846 307.055734 
L 373.241411 306.441099 
L 374.937975 307.453804 
L 376.634539 305.025026 
L 378.331104 307.246743 
L 380.027668 306.805054 
L 386.813925 307.372598 
L 391.903618 307.021917 
L 395.296747 307.445568 
L 396.993311 307.341866 
L 398.689875 306.384734 
L 400.38644 307.152039 
L 402.083004 306.689131 
L 403.779568 307.061974 
L 405.476133 306.75449 
L 407.172697 307.19324 
L 408.869261 307.433692 
L 410.565825 307.434888 
L 412.26239 307.0212 
L 413.958954 307.011782 
L 415.655518 305.64886 
L 417.352083 306.940815 
L 420.745211 307.451256 
L 422.441776 306.815644 
L 424.13834 306.934331 
L 425.834904 307.19165 
L 427.531469 307.172177 
L 429.228033 306.951309 
L 430.924597 304.817465 
L 432.621161 307.013826 
L 434.317726 306.908356 
L 436.01429 305.109754 
L 437.710854 306.604373 
L 439.407419 307.169294 
L 441.103983 306.317637 
L 442.800547 307.160656 
L 444.497112 306.454725 
L 446.193676 304.334393 
L 447.89024 307.030993 
L 449.586804 303.148812 
L 451.283369 306.884121 
L 454.676497 306.516829 
L 456.373062 306.653771 
L 458.069626 306.579893 
L 459.76619 307.13014 
L 461.462755 306.949299 
L 463.159319 306.910736 
L 464.855883 306.256825 
L 466.552448 306.333169 
L 468.249012 306.908725 
L 469.945576 307.301682 
L 471.64214 306.732267 
L 475.035269 307.134071 
L 476.731833 306.623965 
L 478.428398 306.381034 
L 480.124962 306.51551 
L 481.821526 307.176343 
L 483.518091 305.781594 
L 485.214655 306.823575 
L 486.911219 306.32457 
L 488.607784 306.6264 
L 490.304348 307.256698 
L 492.000912 306.215543 
L 493.697476 305.510431 
L 495.394041 306.79135 
L 497.090605 306.451375 
L 498.787169 306.643327 
L 500.483734 306.094122 
L 502.180298 306.733335 
L 503.876862 306.424444 
L 505.573427 306.692342 
L 507.269991 305.827343 
L 508.966555 305.850196 
L 510.663119 304.912632 
L 512.359684 306.103319 
L 514.056248 306.871127 
L 515.752812 306.623448 
L 517.449377 306.691749 
L 519.145941 306.019677 
L 520.842505 305.737179 
L 522.53907 307.191753 
L 525.932198 306.985224 
L 527.628763 306.784645 
L 529.325327 306.16089 
L 531.021891 306.062727 
L 532.718455 305.824403 
L 534.41502 306.374732 
L 536.111584 306.168014 
L 541.201277 306.842552 
L 542.897841 306.135105 
L 544.594406 306.8483 
L 546.29097 305.515797 
L 547.987534 306.320183 
L 549.684099 306.913423 
L 551.380663 307.029046 
L 554.773791 306.10791 
L 556.470356 307.07171 
L 558.16692 306.246705 
L 559.863484 304.212788 
L 561.560049 306.805921 
L 563.256613 306.154746 
L 564.953177 306.489479 
L 566.649742 304.374621 
L 568.346306 306.105515 
L 570.04287 304.283891 
L 571.739434 304.927834 
L 573.435999 306.577584 
L 575.132563 300.320682 
L 576.829127 306.764064 
L 580.222256 306.634967 
L 581.91882 306.227093 
L 583.615385 306.719878 
L 585.311949 306.621054 
L 587.008513 306.164176 
L 588.705078 304.570594 
L 590.401642 306.065675 
L 592.098206 306.053468 
L 593.79477 306.244115 
L 595.491335 305.393466 
L 597.187899 304.239169 
L 598.884463 305.076304 
L 600.581028 306.38704 
L 602.277592 305.648745 
L 603.974156 305.740783 
L 605.670721 306.566386 
L 607.367285 306.089866 
L 609.063849 303.811778 
L 610.760413 305.951769 
L 612.456978 306.617248 
L 614.153542 304.891403 
L 615.850106 306.979269 
L 617.546671 305.687054 
L 619.243235 305.547283 
L 620.939799 306.800874 
L 622.636364 305.826473 
L 622.636364 305.826473 
" clip-path="url(#p02503a7f4b)" style="fill: none; stroke: #ff7f0e; stroke-width: 1.5; stroke-linecap: square"/>
   </g>
   <g id="patch_3">
    <path d="M 90 320.4 
L 90 43.2 
" style="fill: none; stroke: #000000; stroke-width: 0.8; stroke-linejoin: miter; stroke-linecap: square"/>
   </g>
   <g id="patch_4">
    <path d="M 648 320.4 
L 648 43.2 
" style="fill: none; stroke: #000000; stroke-width: 0.8; stroke-linejoin: miter; stroke-linecap: square"/>
   </g>
   <g id="patch_5">
    <path d="M 90 320.4 
L 648 320.4 
" style="fill: none; stroke: #000000; stroke-width: 0.8; stroke-linejoin: miter; stroke-linecap: square"/>
   </g>
   <g id="patch_6">
    <path d="M 90 43.2 
L 648 43.2 
" style="fill: none; stroke: #000000; stroke-width: 0.8; stroke-linejoin: miter; stroke-linecap: square"/>
   </g>
   <g id="text_13">
    <!-- Training and Validating Domain Loss -->
    <g transform="translate(260.204063 37.2) scale(0.12 -0.12)">
     <defs>
      <path id="DejaVuSans-54" d="M -19 4666 
L 3928 4666 
L 3928 4134 
L 2272 4134 
L 2272 0 
L 1638 0 
L 1638 4134 
L -19 4134 
L -19 4666 
z
" transform="scale(0.015625)"/>
      <path id="DejaVuSans-72" d="M 2631 2963 
Q 2534 3019 2420 3045 
Q 2306 3072 2169 3072 
Q 1681 3072 1420 2755 
Q 1159 2438 1159 1844 
L 1159 0 
L 581 0 
L 581 3500 
L 1159 3500 
L 1159 2956 
Q 1341 3275 1631 3429 
Q 1922 3584 2338 3584 
Q 2397 3584 2469 3576 
Q 2541 3569 2628 3553 
L 2631 2963 
z
" transform="scale(0.015625)"/>
      <path id="DejaVuSans-67" d="M 2906 1791 
Q 2906 2416 2648 2759 
Q 2391 3103 1925 3103 
Q 1463 3103 1205 2759 
Q 947 2416 947 1791 
Q 947 1169 1205 825 
Q 1463 481 1925 481 
Q 2391 481 2648 825 
Q 2906 1169 2906 1791 
z
M 3481 434 
Q 3481 -459 3084 -895 
Q 2688 -1331 1869 -1331 
Q 1566 -1331 1297 -1286 
Q 1028 -1241 775 -1147 
L 775 -588 
Q 1028 -725 1275 -790 
Q 1522 -856 1778 -856 
Q 2344 -856 2625 -561 
Q 2906 -266 2906 331 
L 2906 616 
Q 2728 306 2450 153 
Q 2172 0 1784 0 
Q 1141 0 747 490 
Q 353 981 353 1791 
Q 353 2603 747 3093 
Q 1141 3584 1784 3584 
Q 2172 3584 2450 3431 
Q 2728 3278 2906 2969 
L 2906 3500 
L 3481 3500 
L 3481 434 
z
" transform="scale(0.015625)"/>
      <path id="DejaVuSans-64" d="M 2906 2969 
L 2906 4863 
L 3481 4863 
L 3481 0 
L 2906 0 
L 2906 525 
Q 2725 213 2448 61 
Q 2172 -91 1784 -91 
Q 1150 -91 751 415 
Q 353 922 353 1747 
Q 353 2572 751 3078 
Q 1150 3584 1784 3584 
Q 2172 3584 2448 3432 
Q 2725 3281 2906 2969 
z
M 947 1747 
Q 947 1113 1208 752 
Q 1469 391 1925 391 
Q 2381 391 2643 752 
Q 2906 1113 2906 1747 
Q 2906 2381 2643 2742 
Q 2381 3103 1925 3103 
Q 1469 3103 1208 2742 
Q 947 2381 947 1747 
z
" transform="scale(0.015625)"/>
      <path id="DejaVuSans-56" d="M 1831 0 
L 50 4666 
L 709 4666 
L 2188 738 
L 3669 4666 
L 4325 4666 
L 2547 0 
L 1831 0 
z
" transform="scale(0.015625)"/>
      <path id="DejaVuSans-6c" d="M 603 4863 
L 1178 4863 
L 1178 0 
L 603 0 
L 603 4863 
z
" transform="scale(0.015625)"/>
      <path id="DejaVuSans-74" d="M 1172 4494 
L 1172 3500 
L 2356 3500 
L 2356 3053 
L 1172 3053 
L 1172 1153 
Q 1172 725 1289 603 
Q 1406 481 1766 481 
L 2356 481 
L 2356 0 
L 1766 0 
Q 1100 0 847 248 
Q 594 497 594 1153 
L 594 3053 
L 172 3053 
L 172 3500 
L 594 3500 
L 594 4494 
L 1172 4494 
z
" transform="scale(0.015625)"/>
     </defs>
     <use xlink:href="#DejaVuSans-54"/>
     <use xlink:href="#DejaVuSans-72" transform="translate(46.333984 0)"/>
     <use xlink:href="#DejaVuSans-61" transform="translate(87.447266 0)"/>
     <use xlink:href="#DejaVuSans-69" transform="translate(148.726562 0)"/>
     <use xlink:href="#DejaVuSans-6e" transform="translate(176.509766 0)"/>
     <use xlink:href="#DejaVuSans-69" transform="translate(239.888672 0)"/>
     <use xlink:href="#DejaVuSans-6e" transform="translate(267.671875 0)"/>
     <use xlink:href="#DejaVuSans-67" transform="translate(331.050781 0)"/>
     <use xlink:href="#DejaVuSans-20" transform="translate(394.527344 0)"/>
     <use xlink:href="#DejaVuSans-61" transform="translate(426.314453 0)"/>
     <use xlink:href="#DejaVuSans-6e" transform="translate(487.59375 0)"/>
     <use xlink:href="#DejaVuSans-64" transform="translate(550.972656 0)"/>
     <use xlink:href="#DejaVuSans-20" transform="translate(614.449219 0)"/>
     <use xlink:href="#DejaVuSans-56" transform="translate(646.236328 0)"/>
     <use xlink:href="#DejaVuSans-61" transform="translate(706.894531 0)"/>
     <use xlink:href="#DejaVuSans-6c" transform="translate(768.173828 0)"/>
     <use xlink:href="#DejaVuSans-69" transform="translate(795.957031 0)"/>
     <use xlink:href="#DejaVuSans-64" transform="translate(823.740234 0)"/>
     <use xlink:href="#DejaVuSans-61" transform="translate(887.216797 0)"/>
     <use xlink:href="#DejaVuSans-74" transform="translate(948.496094 0)"/>
     <use xlink:href="#DejaVuSans-69" transform="translate(987.705078 0)"/>
     <use xlink:href="#DejaVuSans-6e" transform="translate(1015.488281 0)"/>
     <use xlink:href="#DejaVuSans-67" transform="translate(1078.867188 0)"/>
     <use xlink:href="#DejaVuSans-20" transform="translate(1142.34375 0)"/>
     <use xlink:href="#DejaVuSans-44" transform="translate(1174.130859 0)"/>
     <use xlink:href="#DejaVuSans-6f" transform="translate(1251.132812 0)"/>
     <use xlink:href="#DejaVuSans-6d" transform="translate(1312.314453 0)"/>
     <use xlink:href="#DejaVuSans-61" transform="translate(1409.726562 0)"/>
     <use xlink:href="#DejaVuSans-69" transform="translate(1471.005859 0)"/>
     <use xlink:href="#DejaVuSans-6e" transform="translate(1498.789062 0)"/>
     <use xlink:href="#DejaVuSans-20" transform="translate(1562.167969 0)"/>
     <use xlink:href="#DejaVuSans-4c" transform="translate(1593.955078 0)"/>
     <use xlink:href="#DejaVuSans-6f" transform="translate(1647.917969 0)"/>
     <use xlink:href="#DejaVuSans-73" transform="translate(1709.099609 0)"/>
     <use xlink:href="#DejaVuSans-73" transform="translate(1761.199219 0)"/>
    </g>
   </g>
   <g id="legend_1">
    <g id="patch_7">
     <path d="M 559.389063 80.55625 
L 641 80.55625 
Q 643 80.55625 643 78.55625 
L 643 50.2 
Q 643 48.2 641 48.2 
L 559.389063 48.2 
Q 557.389063 48.2 557.389063 50.2 
L 557.389063 78.55625 
Q 557.389063 80.55625 559.389063 80.55625 
z
" style="fill: #ffffff; opacity: 0.8; stroke: #cccccc; stroke-linejoin: miter"/>
    </g>
    <g id="line2d_13">
     <path d="M 561.389063 56.298437 
L 571.389063 56.298437 
L 581.389063 56.298437 
" style="fill: none; stroke: #1f77b4; stroke-width: 1.5; stroke-linecap: square"/>
    </g>
    <g id="text_14">
     <!-- Training -->
     <g transform="translate(589.389063 59.798437) scale(0.1 -0.1)">
      <use xlink:href="#DejaVuSans-54"/>
      <use xlink:href="#DejaVuSans-72" transform="translate(46.333984 0)"/>
      <use xlink:href="#DejaVuSans-61" transform="translate(87.447266 0)"/>
      <use xlink:href="#DejaVuSans-69" transform="translate(148.726562 0)"/>
      <use xlink:href="#DejaVuSans-6e" transform="translate(176.509766 0)"/>
      <use xlink:href="#DejaVuSans-69" transform="translate(239.888672 0)"/>
      <use xlink:href="#DejaVuSans-6e" transform="translate(267.671875 0)"/>
      <use xlink:href="#DejaVuSans-67" transform="translate(331.050781 0)"/>
     </g>
    </g>
    <g id="line2d_14">
     <path d="M 561.389063 70.976562 
L 571.389063 70.976562 
L 581.389063 70.976562 
" style="fill: none; stroke: #ff7f0e; stroke-width: 1.5; stroke-linecap: square"/>
    </g>
    <g id="text_15">
     <!-- Validating -->
     <g transform="translate(589.389063 74.476562) scale(0.1 -0.1)">
      <use xlink:href="#DejaVuSans-56"/>
      <use xlink:href="#DejaVuSans-61" transform="translate(60.658203 0)"/>
      <use xlink:href="#DejaVuSans-6c" transform="translate(121.9375 0)"/>
      <use xlink:href="#DejaVuSans-69" transform="translate(149.720703 0)"/>
      <use xlink:href="#DejaVuSans-64" transform="translate(177.503906 0)"/>
      <use xlink:href="#DejaVuSans-61" transform="translate(240.980469 0)"/>
      <use xlink:href="#DejaVuSans-74" transform="translate(302.259766 0)"/>
      <use xlink:href="#DejaVuSans-69" transform="translate(341.46875 0)"/>
      <use xlink:href="#DejaVuSans-6e" transform="translate(369.251953 0)"/>
      <use xlink:href="#DejaVuSans-67" transform="translate(432.630859 0)"/>
     </g>
    </g>
   </g>
  </g>
 </g>
 <defs>
  <clipPath id="p02503a7f4b">
   <rect x="90" y="43.2" width="558" height="277.2"/>
  </clipPath>
 </defs>
</svg>
