<?xml version="1.0" encoding="utf-8" standalone="no"?>
<!DOCTYPE svg PUBLIC "-//W3C//DTD SVG 1.1//EN"
  "http://www.w3.org/Graphics/SVG/1.1/DTD/svg11.dtd">
<svg xmlns:xlink="http://www.w3.org/1999/xlink" width="720pt" height="360pt" viewBox="0 0 720 360" xmlns="http://www.w3.org/2000/svg" version="1.1">
 <metadata>
  <rdf:RDF xmlns:dc="http://purl.org/dc/elements/1.1/" xmlns:cc="http://creativecommons.org/ns#" xmlns:rdf="http://www.w3.org/1999/02/22-rdf-syntax-ns#">
   <cc:Work>
    <dc:type rdf:resource="http://purl.org/dc/dcmitype/StillImage"/>
    <dc:date>2025-10-19T08:21:04.443521</dc:date>
    <dc:format>image/svg+xml</dc:format>
    <dc:creator>
     <cc:Agent>
      <dc:title>Matplotlib v3.10.1, https://matplotlib.org/</dc:title>
     </cc:Agent>
    </dc:creator>
   </cc:Work>
  </rdf:RDF>
 </metadata>
 <defs>
  <style type="text/css">*{stroke-linejoin: round; stroke-linecap: butt}</style>
 </defs>
 <g id="figure_1">
  <g id="patch_1">
   <path d="M 0 360 
L 720 360 
L 720 0 
L 0 0 
z
" style="fill: #ffffff"/>
  </g>
  <g id="axes_1">
   <g id="patch_2">
    <path d="M 90 320.4 
L 648 320.4 
L 648 43.2 
L 90 43.2 
z
" style="fill: #ffffff"/>
   </g>
   <g id="matplotlib.axis_1">
    <g id="xtick_1">
     <g id="line2d_1">
      <defs>
       <path id="m6f5b7f349d" d="M 0 0 
L 0 3.5 
" style="stroke: #000000; stroke-width: 0.8"/>
      </defs>
      <g>
       <use xlink:href="#m6f5b7f349d" x="115.363636" y="320.4" style="stroke: #000000; stroke-width: 0.8"/>
      </g>
     </g>
     <g id="text_1">
      <!-- 0 -->
      <g transform="translate(112.182386 334.998438) scale(0.1 -0.1)">
       <defs>
        <path id="DejaVuSans-30" d="M 2034 4250 
Q 1547 4250 1301 3770 
Q 1056 3291 1056 2328 
Q 1056 1369 1301 889 
Q 1547 409 2034 409 
Q 2525 409 2770 889 
Q 3016 1369 3016 2328 
Q 3016 3291 2770 3770 
Q 2525 4250 2034 4250 
z
M 2034 4750 
Q 2819 4750 3233 4129 
Q 3647 3509 3647 2328 
Q 3647 1150 3233 529 
Q 2819 -91 2034 -91 
Q 1250 -91 836 529 
Q 422 1150 422 2328 
Q 422 3509 836 4129 
Q 1250 4750 2034 4750 
z
" transform="scale(0.015625)"/>
       </defs>
       <use xlink:href="#DejaVuSans-30"/>
      </g>
     </g>
    </g>
    <g id="xtick_2">
     <g id="line2d_2">
      <g>
       <use xlink:href="#m6f5b7f349d" x="217.157495" y="320.4" style="stroke: #000000; stroke-width: 0.8"/>
      </g>
     </g>
     <g id="text_2">
      <!-- 60 -->
      <g transform="translate(210.794995 334.998438) scale(0.1 -0.1)">
       <defs>
        <path id="DejaVuSans-36" d="M 2113 2584 
Q 1688 2584 1439 2293 
Q 1191 2003 1191 1497 
Q 1191 994 1439 701 
Q 1688 409 2113 409 
Q 2538 409 2786 701 
Q 3034 994 3034 1497 
Q 3034 2003 2786 2293 
Q 2538 2584 2113 2584 
z
M 3366 4563 
L 3366 3988 
Q 3128 4100 2886 4159 
Q 2644 4219 2406 4219 
Q 1781 4219 1451 3797 
Q 1122 3375 1075 2522 
Q 1259 2794 1537 2939 
Q 1816 3084 2150 3084 
Q 2853 3084 3261 2657 
Q 3669 2231 3669 1497 
Q 3669 778 3244 343 
Q 2819 -91 2113 -91 
Q 1303 -91 875 529 
Q 447 1150 447 2328 
Q 447 3434 972 4092 
Q 1497 4750 2381 4750 
Q 2619 4750 2861 4703 
Q 3103 4656 3366 4563 
z
" transform="scale(0.015625)"/>
       </defs>
       <use xlink:href="#DejaVuSans-36"/>
       <use xlink:href="#DejaVuSans-30" transform="translate(63.623047 0)"/>
      </g>
     </g>
    </g>
    <g id="xtick_3">
     <g id="line2d_3">
      <g>
       <use xlink:href="#m6f5b7f349d" x="318.951353" y="320.4" style="stroke: #000000; stroke-width: 0.8"/>
      </g>
     </g>
     <g id="text_3">
      <!-- 120 -->
      <g transform="translate(309.407603 334.998438) scale(0.1 -0.1)">
       <defs>
        <path id="DejaVuSans-31" d="M 794 531 
L 1825 531 
L 1825 4091 
L 703 3866 
L 703 4441 
L 1819 4666 
L 2450 4666 
L 2450 531 
L 3481 531 
L 3481 0 
L 794 0 
L 794 531 
z
" transform="scale(0.015625)"/>
        <path id="DejaVuSans-32" d="M 1228 531 
L 3431 531 
L 3431 0 
L 469 0 
L 469 531 
Q 828 903 1448 1529 
Q 2069 2156 2228 2338 
Q 2531 2678 2651 2914 
Q 2772 3150 2772 3378 
Q 2772 3750 2511 3984 
Q 2250 4219 1831 4219 
Q 1534 4219 1204 4116 
Q 875 4013 500 3803 
L 500 4441 
Q 881 4594 1212 4672 
Q 1544 4750 1819 4750 
Q 2544 4750 2975 4387 
Q 3406 4025 3406 3419 
Q 3406 3131 3298 2873 
Q 3191 2616 2906 2266 
Q 2828 2175 2409 1742 
Q 1991 1309 1228 531 
z
" transform="scale(0.015625)"/>
       </defs>
       <use xlink:href="#DejaVuSans-31"/>
       <use xlink:href="#DejaVuSans-32" transform="translate(63.623047 0)"/>
       <use xlink:href="#DejaVuSans-30" transform="translate(127.246094 0)"/>
      </g>
     </g>
    </g>
    <g id="xtick_4">
     <g id="line2d_4">
      <g>
       <use xlink:href="#m6f5b7f349d" x="420.745211" y="320.4" style="stroke: #000000; stroke-width: 0.8"/>
      </g>
     </g>
     <g id="text_4">
      <!-- 180 -->
      <g transform="translate(411.201461 334.998438) scale(0.1 -0.1)">
       <defs>
        <path id="DejaVuSans-38" d="M 2034 2216 
Q 1584 2216 1326 1975 
Q 1069 1734 1069 1313 
Q 1069 891 1326 650 
Q 1584 409 2034 409 
Q 2484 409 2743 651 
Q 3003 894 3003 1313 
Q 3003 1734 2745 1975 
Q 2488 2216 2034 2216 
z
M 1403 2484 
Q 997 2584 770 2862 
Q 544 3141 544 3541 
Q 544 4100 942 4425 
Q 1341 4750 2034 4750 
Q 2731 4750 3128 4425 
Q 3525 4100 3525 3541 
Q 3525 3141 3298 2862 
Q 3072 2584 2669 2484 
Q 3125 2378 3379 2068 
Q 3634 1759 3634 1313 
Q 3634 634 3220 271 
Q 2806 -91 2034 -91 
Q 1263 -91 848 271 
Q 434 634 434 1313 
Q 434 1759 690 2068 
Q 947 2378 1403 2484 
z
M 1172 3481 
Q 1172 3119 1398 2916 
Q 1625 2713 2034 2713 
Q 2441 2713 2670 2916 
Q 2900 3119 2900 3481 
Q 2900 3844 2670 4047 
Q 2441 4250 2034 4250 
Q 1625 4250 1398 4047 
Q 1172 3844 1172 3481 
z
" transform="scale(0.015625)"/>
       </defs>
       <use xlink:href="#DejaVuSans-31"/>
       <use xlink:href="#DejaVuSans-38" transform="translate(63.623047 0)"/>
       <use xlink:href="#DejaVuSans-30" transform="translate(127.246094 0)"/>
      </g>
     </g>
    </g>
    <g id="xtick_5">
     <g id="line2d_5">
      <g>
       <use xlink:href="#m6f5b7f349d" x="522.53907" y="320.4" style="stroke: #000000; stroke-width: 0.8"/>
      </g>
     </g>
     <g id="text_5">
      <!-- 240 -->
      <g transform="translate(512.99532 334.998438) scale(0.1 -0.1)">
       <defs>
        <path id="DejaVuSans-34" d="M 2419 4116 
L 825 1625 
L 2419 1625 
L 2419 4116 
z
M 2253 4666 
L 3047 4666 
L 3047 1625 
L 3713 1625 
L 3713 1100 
L 3047 1100 
L 3047 0 
L 2419 0 
L 2419 1100 
L 313 1100 
L 313 1709 
L 2253 4666 
z
" transform="scale(0.015625)"/>
       </defs>
       <use xlink:href="#DejaVuSans-32"/>
       <use xlink:href="#DejaVuSans-34" transform="translate(63.623047 0)"/>
       <use xlink:href="#DejaVuSans-30" transform="translate(127.246094 0)"/>
      </g>
     </g>
    </g>
    <g id="text_6">
     <!-- Epoch -->
     <g transform="translate(353.689062 348.676562) scale(0.1 -0.1)">
      <defs>
       <path id="DejaVuSans-45" d="M 628 4666 
L 3578 4666 
L 3578 4134 
L 1259 4134 
L 1259 2753 
L 3481 2753 
L 3481 2222 
L 1259 2222 
L 1259 531 
L 3634 531 
L 3634 0 
L 628 0 
L 628 4666 
z
" transform="scale(0.015625)"/>
       <path id="DejaVuSans-70" d="M 1159 525 
L 1159 -1331 
L 581 -1331 
L 581 3500 
L 1159 3500 
L 1159 2969 
Q 1341 3281 1617 3432 
Q 1894 3584 2278 3584 
Q 2916 3584 3314 3078 
Q 3713 2572 3713 1747 
Q 3713 922 3314 415 
Q 2916 -91 2278 -91 
Q 1894 -91 1617 61 
Q 1341 213 1159 525 
z
M 3116 1747 
Q 3116 2381 2855 2742 
Q 2594 3103 2138 3103 
Q 1681 3103 1420 2742 
Q 1159 2381 1159 1747 
Q 1159 1113 1420 752 
Q 1681 391 2138 391 
Q 2594 391 2855 752 
Q 3116 1113 3116 1747 
z
" transform="scale(0.015625)"/>
       <path id="DejaVuSans-6f" d="M 1959 3097 
Q 1497 3097 1228 2736 
Q 959 2375 959 1747 
Q 959 1119 1226 758 
Q 1494 397 1959 397 
Q 2419 397 2687 759 
Q 2956 1122 2956 1747 
Q 2956 2369 2687 2733 
Q 2419 3097 1959 3097 
z
M 1959 3584 
Q 2709 3584 3137 3096 
Q 3566 2609 3566 1747 
Q 3566 888 3137 398 
Q 2709 -91 1959 -91 
Q 1206 -91 779 398 
Q 353 888 353 1747 
Q 353 2609 779 3096 
Q 1206 3584 1959 3584 
z
" transform="scale(0.015625)"/>
       <path id="DejaVuSans-63" d="M 3122 3366 
L 3122 2828 
Q 2878 2963 2633 3030 
Q 2388 3097 2138 3097 
Q 1578 3097 1268 2742 
Q 959 2388 959 1747 
Q 959 1106 1268 751 
Q 1578 397 2138 397 
Q 2388 397 2633 464 
Q 2878 531 3122 666 
L 3122 134 
Q 2881 22 2623 -34 
Q 2366 -91 2075 -91 
Q 1284 -91 818 406 
Q 353 903 353 1747 
Q 353 2603 823 3093 
Q 1294 3584 2113 3584 
Q 2378 3584 2631 3529 
Q 2884 3475 3122 3366 
z
" transform="scale(0.015625)"/>
       <path id="DejaVuSans-68" d="M 3513 2113 
L 3513 0 
L 2938 0 
L 2938 2094 
Q 2938 2591 2744 2837 
Q 2550 3084 2163 3084 
Q 1697 3084 1428 2787 
Q 1159 2491 1159 1978 
L 1159 0 
L 581 0 
L 581 4863 
L 1159 4863 
L 1159 2956 
Q 1366 3272 1645 3428 
Q 1925 3584 2291 3584 
Q 2894 3584 3203 3211 
Q 3513 2838 3513 2113 
z
" transform="scale(0.015625)"/>
      </defs>
      <use xlink:href="#DejaVuSans-45"/>
      <use xlink:href="#DejaVuSans-70" transform="translate(63.183594 0)"/>
      <use xlink:href="#DejaVuSans-6f" transform="translate(126.660156 0)"/>
      <use xlink:href="#DejaVuSans-63" transform="translate(187.841797 0)"/>
      <use xlink:href="#DejaVuSans-68" transform="translate(242.822266 0)"/>
     </g>
    </g>
   </g>
   <g id="matplotlib.axis_2">
    <g id="ytick_1">
     <g id="line2d_6">
      <defs>
       <path id="mb6a33c9600" d="M 0 0 
L -3.5 0 
" style="stroke: #000000; stroke-width: 0.8"/>
      </defs>
      <g>
       <use xlink:href="#mb6a33c9600" x="90" y="279.162656" style="stroke: #000000; stroke-width: 0.8"/>
      </g>
     </g>
     <g id="text_7">
      <!-- 0.4 -->
      <g transform="translate(67.096875 282.961875) scale(0.1 -0.1)">
       <defs>
        <path id="DejaVuSans-2e" d="M 684 794 
L 1344 794 
L 1344 0 
L 684 0 
L 684 794 
z
" transform="scale(0.015625)"/>
       </defs>
       <use xlink:href="#DejaVuSans-30"/>
       <use xlink:href="#DejaVuSans-2e" transform="translate(63.623047 0)"/>
       <use xlink:href="#DejaVuSans-34" transform="translate(95.410156 0)"/>
      </g>
     </g>
    </g>
    <g id="ytick_2">
     <g id="line2d_7">
      <g>
       <use xlink:href="#mb6a33c9600" x="90" y="227.013039" style="stroke: #000000; stroke-width: 0.8"/>
      </g>
     </g>
     <g id="text_8">
      <!-- 0.6 -->
      <g transform="translate(67.096875 230.812257) scale(0.1 -0.1)">
       <use xlink:href="#DejaVuSans-30"/>
       <use xlink:href="#DejaVuSans-2e" transform="translate(63.623047 0)"/>
       <use xlink:href="#DejaVuSans-36" transform="translate(95.410156 0)"/>
      </g>
     </g>
    </g>
    <g id="ytick_3">
     <g id="line2d_8">
      <g>
       <use xlink:href="#mb6a33c9600" x="90" y="174.863421" style="stroke: #000000; stroke-width: 0.8"/>
      </g>
     </g>
     <g id="text_9">
      <!-- 0.8 -->
      <g transform="translate(67.096875 178.66264) scale(0.1 -0.1)">
       <use xlink:href="#DejaVuSans-30"/>
       <use xlink:href="#DejaVuSans-2e" transform="translate(63.623047 0)"/>
       <use xlink:href="#DejaVuSans-38" transform="translate(95.410156 0)"/>
      </g>
     </g>
    </g>
    <g id="ytick_4">
     <g id="line2d_9">
      <g>
       <use xlink:href="#mb6a33c9600" x="90" y="122.713804" style="stroke: #000000; stroke-width: 0.8"/>
      </g>
     </g>
     <g id="text_10">
      <!-- 1.0 -->
      <g transform="translate(67.096875 126.513023) scale(0.1 -0.1)">
       <use xlink:href="#DejaVuSans-31"/>
       <use xlink:href="#DejaVuSans-2e" transform="translate(63.623047 0)"/>
       <use xlink:href="#DejaVuSans-30" transform="translate(95.410156 0)"/>
      </g>
     </g>
    </g>
    <g id="ytick_5">
     <g id="line2d_10">
      <g>
       <use xlink:href="#mb6a33c9600" x="90" y="70.564186" style="stroke: #000000; stroke-width: 0.8"/>
      </g>
     </g>
     <g id="text_11">
      <!-- 1.2 -->
      <g transform="translate(67.096875 74.363405) scale(0.1 -0.1)">
       <use xlink:href="#DejaVuSans-31"/>
       <use xlink:href="#DejaVuSans-2e" transform="translate(63.623047 0)"/>
       <use xlink:href="#DejaVuSans-32" transform="translate(95.410156 0)"/>
      </g>
     </g>
    </g>
    <g id="text_12">
     <!-- Estimation Loss -->
     <g transform="translate(61.017187 220.98125) rotate(-90) scale(0.1 -0.1)">
      <defs>
       <path id="DejaVuSans-73" d="M 2834 3397 
L 2834 2853 
Q 2591 2978 2328 3040 
Q 2066 3103 1784 3103 
Q 1356 3103 1142 2972 
Q 928 2841 928 2578 
Q 928 2378 1081 2264 
Q 1234 2150 1697 2047 
L 1894 2003 
Q 2506 1872 2764 1633 
Q 3022 1394 3022 966 
Q 3022 478 2636 193 
Q 2250 -91 1575 -91 
Q 1294 -91 989 -36 
Q 684 19 347 128 
L 347 722 
Q 666 556 975 473 
Q 1284 391 1588 391 
Q 1994 391 2212 530 
Q 2431 669 2431 922 
Q 2431 1156 2273 1281 
Q 2116 1406 1581 1522 
L 1381 1569 
Q 847 1681 609 1914 
Q 372 2147 372 2553 
Q 372 3047 722 3315 
Q 1072 3584 1716 3584 
Q 2034 3584 2315 3537 
Q 2597 3491 2834 3397 
z
" transform="scale(0.015625)"/>
       <path id="DejaVuSans-74" d="M 1172 4494 
L 1172 3500 
L 2356 3500 
L 2356 3053 
L 1172 3053 
L 1172 1153 
Q 1172 725 1289 603 
Q 1406 481 1766 481 
L 2356 481 
L 2356 0 
L 1766 0 
Q 1100 0 847 248 
Q 594 497 594 1153 
L 594 3053 
L 172 3053 
L 172 3500 
L 594 3500 
L 594 4494 
L 1172 4494 
z
" transform="scale(0.015625)"/>
       <path id="DejaVuSans-69" d="M 603 3500 
L 1178 3500 
L 1178 0 
L 603 0 
L 603 3500 
z
M 603 4863 
L 1178 4863 
L 1178 4134 
L 603 4134 
L 603 4863 
z
" transform="scale(0.015625)"/>
       <path id="DejaVuSans-6d" d="M 3328 2828 
Q 3544 3216 3844 3400 
Q 4144 3584 4550 3584 
Q 5097 3584 5394 3201 
Q 5691 2819 5691 2113 
L 5691 0 
L 5113 0 
L 5113 2094 
Q 5113 2597 4934 2840 
Q 4756 3084 4391 3084 
Q 3944 3084 3684 2787 
Q 3425 2491 3425 1978 
L 3425 0 
L 2847 0 
L 2847 2094 
Q 2847 2600 2669 2842 
Q 2491 3084 2119 3084 
Q 1678 3084 1418 2786 
Q 1159 2488 1159 1978 
L 1159 0 
L 581 0 
L 581 3500 
L 1159 3500 
L 1159 2956 
Q 1356 3278 1631 3431 
Q 1906 3584 2284 3584 
Q 2666 3584 2933 3390 
Q 3200 3197 3328 2828 
z
" transform="scale(0.015625)"/>
       <path id="DejaVuSans-61" d="M 2194 1759 
Q 1497 1759 1228 1600 
Q 959 1441 959 1056 
Q 959 750 1161 570 
Q 1363 391 1709 391 
Q 2188 391 2477 730 
Q 2766 1069 2766 1631 
L 2766 1759 
L 2194 1759 
z
M 3341 1997 
L 3341 0 
L 2766 0 
L 2766 531 
Q 2569 213 2275 61 
Q 1981 -91 1556 -91 
Q 1019 -91 701 211 
Q 384 513 384 1019 
Q 384 1609 779 1909 
Q 1175 2209 1959 2209 
L 2766 2209 
L 2766 2266 
Q 2766 2663 2505 2880 
Q 2244 3097 1772 3097 
Q 1472 3097 1187 3025 
Q 903 2953 641 2809 
L 641 3341 
Q 956 3463 1253 3523 
Q 1550 3584 1831 3584 
Q 2591 3584 2966 3190 
Q 3341 2797 3341 1997 
z
" transform="scale(0.015625)"/>
       <path id="DejaVuSans-6e" d="M 3513 2113 
L 3513 0 
L 2938 0 
L 2938 2094 
Q 2938 2591 2744 2837 
Q 2550 3084 2163 3084 
Q 1697 3084 1428 2787 
Q 1159 2491 1159 1978 
L 1159 0 
L 581 0 
L 581 3500 
L 1159 3500 
L 1159 2956 
Q 1366 3272 1645 3428 
Q 1925 3584 2291 3584 
Q 2894 3584 3203 3211 
Q 3513 2838 3513 2113 
z
" transform="scale(0.015625)"/>
       <path id="DejaVuSans-20" transform="scale(0.015625)"/>
       <path id="DejaVuSans-4c" d="M 628 4666 
L 1259 4666 
L 1259 531 
L 3531 531 
L 3531 0 
L 628 0 
L 628 4666 
z
" transform="scale(0.015625)"/>
      </defs>
      <use xlink:href="#DejaVuSans-45"/>
      <use xlink:href="#DejaVuSans-73" transform="translate(63.183594 0)"/>
      <use xlink:href="#DejaVuSans-74" transform="translate(115.283203 0)"/>
      <use xlink:href="#DejaVuSans-69" transform="translate(154.492188 0)"/>
      <use xlink:href="#DejaVuSans-6d" transform="translate(182.275391 0)"/>
      <use xlink:href="#DejaVuSans-61" transform="translate(279.6875 0)"/>
      <use xlink:href="#DejaVuSans-74" transform="translate(340.966797 0)"/>
      <use xlink:href="#DejaVuSans-69" transform="translate(380.175781 0)"/>
      <use xlink:href="#DejaVuSans-6f" transform="translate(407.958984 0)"/>
      <use xlink:href="#DejaVuSans-6e" transform="translate(469.140625 0)"/>
      <use xlink:href="#DejaVuSans-20" transform="translate(532.519531 0)"/>
      <use xlink:href="#DejaVuSans-4c" transform="translate(564.306641 0)"/>
      <use xlink:href="#DejaVuSans-6f" transform="translate(618.269531 0)"/>
      <use xlink:href="#DejaVuSans-73" transform="translate(679.451172 0)"/>
      <use xlink:href="#DejaVuSans-73" transform="translate(731.550781 0)"/>
     </g>
    </g>
   </g>
   <g id="line2d_11">
    <path d="M 115.363636 200.13505 
L 117.060201 273.37218 
L 118.756765 284.920363 
L 120.453329 289.470517 
L 122.149894 291.558186 
L 125.543022 294.05683 
L 130.632715 297.005605 
L 132.329279 297.773236 
L 134.025844 298.362517 
L 137.418972 299.148251 
L 140.812101 299.549062 
L 145.901794 299.941417 
L 150.991487 300.974357 
L 154.384615 301.593976 
L 159.474308 302.240016 
L 162.867437 302.325127 
L 171.350258 301.967875 
L 181.529644 303.371991 
L 186.619337 303.757965 
L 188.315901 303.776532 
L 190.012466 303.671642 
L 191.70903 303.43678 
L 193.405594 302.689681 
L 195.102159 302.26365 
L 196.798723 302.627411 
L 198.495287 303.210377 
L 200.191852 303.580307 
L 205.281545 304.148969 
L 220.550623 304.983484 
L 227.336881 304.984209 
L 230.730009 304.713665 
L 232.426573 304.228162 
L 234.123138 303.599506 
L 235.819702 303.453017 
L 240.909395 304.555633 
L 244.302524 304.962459 
L 254.481909 305.469482 
L 261.268167 305.657115 
L 264.661295 305.685205 
L 269.750988 305.658297 
L 271.447552 305.460161 
L 273.144117 304.391231 
L 274.840681 303.97517 
L 276.537245 304.659509 
L 278.23381 305.082413 
L 279.930374 305.345149 
L 286.716631 305.793078 
L 298.592581 306.185449 
L 303.682274 306.235658 
L 310.468531 306.089505 
L 312.165096 305.80222 
L 313.86166 304.756391 
L 315.558224 304.464672 
L 317.254789 305.068193 
L 318.951353 305.499665 
L 324.041046 306.01447 
L 327.434175 306.19492 
L 337.61356 306.48791 
L 342.703253 306.583137 
L 346.096382 306.511946 
L 351.186075 306.414327 
L 352.882639 306.189073 
L 356.275768 304.546407 
L 357.972332 305.237483 
L 359.668896 305.698564 
L 363.062025 306.191308 
L 374.937975 306.681627 
L 395.296747 306.863148 
L 398.689875 306.762064 
L 400.38644 306.433593 
L 402.083004 305.321111 
L 403.779568 305.00927 
L 405.476133 305.703509 
L 407.172697 306.128714 
L 410.565825 306.477704 
L 413.958954 306.696346 
L 439.407419 307.198543 
L 449.586804 307.089592 
L 451.283369 306.906722 
L 452.979933 306.117258 
L 454.676497 305.180203 
L 456.373062 305.452742 
L 458.069626 306.014631 
L 459.76619 306.384548 
L 463.159319 306.767318 
L 473.338705 307.18014 
L 493.697476 307.467346 
L 500.483734 306.921587 
L 502.180298 305.953848 
L 503.876862 305.670551 
L 507.269991 306.572709 
L 508.966555 306.831842 
L 514.056248 307.163562 
L 519.145941 307.325843 
L 541.201277 307.504178 
L 542.897841 307.325578 
L 544.594406 306.798052 
L 546.29097 305.708101 
L 547.987534 305.546928 
L 549.684099 306.159001 
L 551.380663 306.595824 
L 554.773791 307.058266 
L 570.04287 307.566133 
L 573.435999 307.612996 
L 580.222256 307.695732 
L 593.79477 307.789474 
L 597.187899 307.641203 
L 598.884463 307.22895 
L 600.581028 305.91225 
L 602.277592 305.877055 
L 603.974156 306.657713 
L 605.670721 307.033425 
L 607.367285 307.281866 
L 614.153542 307.589508 
L 619.243235 307.708982 
L 622.636364 307.727404 
L 622.636364 307.727404 
" clip-path="url(#p146ae18929)" style="fill: none; stroke: #1f77b4; stroke-width: 1.5; stroke-linecap: square"/>
   </g>
   <g id="line2d_12">
    <path d="M 115.363636 129.776753 
L 117.060201 227.708175 
L 118.756765 241.557681 
L 120.453329 244.886853 
L 122.149894 245.898056 
L 125.543022 247.734454 
L 127.239587 248.301197 
L 128.936151 248.304002 
L 130.632715 247.772714 
L 135.722408 245.11891 
L 137.418972 244.61195 
L 139.115537 243.836692 
L 140.812101 243.210313 
L 142.508665 243.037349 
L 144.20523 243.354357 
L 147.598358 245.122568 
L 150.991487 242.947786 
L 152.688051 241.387602 
L 154.384615 240.458441 
L 157.777744 238.109482 
L 162.867437 235.540332 
L 164.564001 235.832474 
L 166.260566 238.065822 
L 167.95713 239.549514 
L 169.653694 241.445548 
L 171.350258 242.854568 
L 173.046823 242.565361 
L 174.743387 240.301057 
L 176.439951 239.245847 
L 178.136516 238.890777 
L 179.83308 238.038332 
L 181.529644 237.3681 
L 183.226209 236.414905 
L 188.315901 235.573815 
L 190.012466 236.675815 
L 191.70903 240.416215 
L 193.405594 242.017185 
L 195.102159 244.072732 
L 196.798723 243.998656 
L 198.495287 242.407185 
L 200.191852 240.970696 
L 201.888416 238.655283 
L 203.58498 238.50067 
L 205.281545 237.14278 
L 206.978109 236.658877 
L 208.674673 236.038832 
L 213.764366 233.391467 
L 217.157495 232.882873 
L 220.550623 231.863809 
L 222.247188 232.618043 
L 225.640316 232.478062 
L 227.336881 233.063558 
L 230.730009 233.966012 
L 232.426573 238.002457 
L 234.123138 241.008172 
L 235.819702 240.422753 
L 237.516266 240.451792 
L 239.212831 239.886824 
L 240.909395 238.768081 
L 242.605959 237.293969 
L 244.302524 236.961574 
L 245.999088 236.19082 
L 247.695652 236.131965 
L 251.088781 234.940407 
L 252.785345 233.467839 
L 254.481909 233.54706 
L 256.178474 232.957497 
L 257.875038 232.914732 
L 259.571602 232.252918 
L 261.268167 231.187196 
L 264.661295 231.434376 
L 266.35786 232.503452 
L 268.054424 233.116282 
L 269.750988 233.183091 
L 271.447552 234.097449 
L 273.144117 238.322839 
L 274.840681 243.066016 
L 276.537245 243.959297 
L 278.23381 242.400423 
L 279.930374 240.64327 
L 281.626938 239.146406 
L 283.323503 238.028521 
L 285.020067 237.993211 
L 286.716631 236.895939 
L 288.413196 236.500239 
L 290.10976 236.461565 
L 291.806324 236.100896 
L 293.502888 236.15178 
L 295.199453 236.410366 
L 296.896017 236.254773 
L 298.592581 235.152186 
L 300.289146 234.69028 
L 301.98571 234.479783 
L 303.682274 233.62918 
L 305.378839 235.137113 
L 308.771967 236.057983 
L 310.468531 236.455071 
L 312.165096 239.809346 
L 313.86166 242.166766 
L 315.558224 242.375074 
L 317.254789 240.633138 
L 318.951353 240.210046 
L 320.647917 239.995899 
L 322.344482 239.356804 
L 324.041046 238.201124 
L 325.73761 237.450515 
L 327.434175 237.319997 
L 329.130739 237.308214 
L 330.827303 236.212962 
L 332.523867 235.919622 
L 334.220432 236.050322 
L 335.916996 235.866206 
L 337.61356 234.979358 
L 339.310125 234.922507 
L 341.006689 235.117654 
L 344.399818 234.957818 
L 347.792946 236.845584 
L 349.48951 237.752084 
L 351.186075 239.714091 
L 352.882639 239.505648 
L 354.579203 238.315811 
L 356.275768 241.011491 
L 357.972332 240.375057 
L 359.668896 239.358149 
L 363.062025 237.632814 
L 364.758589 237.188919 
L 366.455154 237.143158 
L 368.151718 236.976659 
L 369.848282 236.517252 
L 371.544846 235.76478 
L 373.241411 235.434176 
L 374.937975 235.614778 
L 378.331104 234.789632 
L 380.027668 234.859977 
L 381.724232 234.551052 
L 385.117361 234.400184 
L 386.813925 234.342635 
L 388.51049 233.533344 
L 390.207054 233.950465 
L 391.903618 234.782592 
L 393.600182 234.528961 
L 398.689875 240.526373 
L 400.38644 239.176734 
L 402.083004 243.548275 
L 405.476133 244.951021 
L 407.172697 243.839958 
L 408.869261 241.810422 
L 412.26239 239.680069 
L 413.958954 239.335276 
L 415.655518 238.772938 
L 417.352083 237.936527 
L 419.048647 238.390631 
L 420.745211 238.179756 
L 425.834904 238.182544 
L 427.531469 238.635712 
L 432.621161 237.294412 
L 434.317726 237.691041 
L 436.01429 237.887233 
L 437.710854 238.534505 
L 439.407419 238.407595 
L 441.103983 238.776465 
L 442.800547 239.341189 
L 444.497112 239.786701 
L 446.193676 239.09618 
L 447.89024 238.66607 
L 451.283369 243.157674 
L 452.979933 243.967987 
L 454.676497 244.324373 
L 456.373062 245.538331 
L 458.069626 244.960588 
L 459.76619 243.462208 
L 461.462755 242.768048 
L 463.159319 242.363149 
L 464.855883 241.822968 
L 468.249012 241.103377 
L 471.64214 240.946509 
L 473.338705 241.160306 
L 475.035269 241.088131 
L 476.731833 240.878182 
L 478.428398 239.526352 
L 480.124962 240.368588 
L 481.821526 239.605258 
L 483.518091 239.621778 
L 485.214655 239.360052 
L 486.911219 239.455221 
L 488.607784 239.254891 
L 492.000912 237.640444 
L 493.697476 237.963869 
L 497.090605 243.326461 
L 498.787169 242.527614 
L 500.483734 243.647786 
L 502.180298 244.90702 
L 503.876862 244.593214 
L 505.573427 246.188799 
L 507.269991 246.44301 
L 508.966555 246.947226 
L 510.663119 246.609375 
L 512.359684 245.321173 
L 514.056248 245.893263 
L 515.752812 245.24555 
L 517.449377 245.57747 
L 519.145941 244.930949 
L 520.842505 244.548719 
L 524.235634 244.265338 
L 525.932198 243.329224 
L 529.325327 244.201056 
L 531.021891 243.63541 
L 532.718455 243.326507 
L 534.41502 243.611076 
L 536.111584 243.687811 
L 539.504713 244.415364 
L 541.201277 245.246542 
L 544.594406 245.345632 
L 546.29097 244.472327 
L 547.987534 245.767965 
L 549.684099 244.89874 
L 551.380663 244.878036 
L 553.077227 244.674163 
L 556.470356 245.195459 
L 558.16692 245.3462 
L 559.863484 244.645612 
L 561.560049 244.986396 
L 563.256613 243.998514 
L 564.953177 244.019527 
L 566.649742 245.489125 
L 570.04287 244.747602 
L 571.739434 244.311355 
L 573.435999 244.514836 
L 575.132563 244.590699 
L 576.829127 244.479604 
L 578.525692 244.742303 
L 580.222256 244.054319 
L 581.91882 243.672655 
L 583.615385 244.302903 
L 585.311949 243.758047 
L 587.008513 244.158439 
L 588.705078 244.151711 
L 590.401642 243.785652 
L 592.098206 243.774024 
L 595.491335 242.795177 
L 597.187899 244.499754 
L 598.884463 244.653194 
L 600.581028 245.36114 
L 602.277592 248.860814 
L 603.974156 248.863183 
L 605.670721 247.728391 
L 607.367285 246.383035 
L 609.063849 244.181652 
L 610.760413 244.259871 
L 612.456978 244.202421 
L 614.153542 244.73201 
L 615.850106 244.528941 
L 617.546671 245.342749 
L 620.939799 244.920981 
L 622.636364 244.53404 
L 622.636364 244.53404 
" clip-path="url(#p146ae18929)" style="fill: none; stroke: #ff7f0e; stroke-width: 1.5; stroke-linecap: square"/>
   </g>
   <g id="line2d_13">
    <path d="M 115.363636 151.21635 
L 117.060201 186.797647 
L 118.756765 198.366503 
L 120.453329 204.162703 
L 123.846458 209.493805 
L 125.543022 211.097033 
L 127.239587 212.884028 
L 132.329279 216.705832 
L 134.025844 217.238133 
L 135.722408 218.038362 
L 139.115537 218.444604 
L 140.812101 218.979727 
L 142.508665 219.076687 
L 144.20523 219.039999 
L 145.901794 219.806022 
L 147.598358 219.976014 
L 149.294922 220.901534 
L 150.991487 220.94115 
L 152.688051 221.935399 
L 154.384615 222.698295 
L 157.777744 222.863971 
L 159.474308 223.332934 
L 162.867437 222.842194 
L 164.564001 223.15683 
L 169.653694 222.995358 
L 171.350258 222.514937 
L 173.046823 223.399816 
L 174.743387 223.356181 
L 176.439951 223.495547 
L 178.136516 224.412909 
L 179.83308 224.732987 
L 181.529644 224.708554 
L 183.226209 224.803946 
L 184.922773 225.041771 
L 186.619337 225.554041 
L 188.315901 225.282921 
L 190.012466 225.352892 
L 191.70903 224.93551 
L 193.405594 223.375315 
L 195.102159 223.586876 
L 196.798723 224.607083 
L 198.495287 225.245627 
L 200.191852 225.27178 
L 201.888416 225.795136 
L 203.58498 225.820684 
L 205.281545 225.971146 
L 206.978109 226.006792 
L 208.674673 226.339478 
L 210.371237 226.343247 
L 212.067802 226.855739 
L 222.247188 227.174041 
L 223.943752 226.944934 
L 227.336881 227.084447 
L 229.033445 226.935513 
L 230.730009 226.642453 
L 232.426573 225.93449 
L 234.123138 225.698069 
L 235.819702 225.690441 
L 237.516266 225.909877 
L 239.212831 226.743343 
L 240.909395 226.925821 
L 242.605959 227.291978 
L 244.302524 227.226486 
L 245.999088 227.489265 
L 247.695652 226.981295 
L 249.392216 227.172177 
L 251.088781 227.509496 
L 252.785345 227.54196 
L 254.481909 227.947406 
L 256.178474 227.312811 
L 257.875038 227.494198 
L 259.571602 227.427598 
L 264.661295 227.854483 
L 266.35786 227.887927 
L 268.054424 228.041687 
L 269.750988 227.485832 
L 271.447552 227.318497 
L 273.144117 225.81206 
L 276.537245 227.347005 
L 279.930374 227.915923 
L 281.626938 227.77964 
L 283.323503 228.072827 
L 285.020067 227.758207 
L 286.716631 228.331955 
L 288.413196 227.89642 
L 291.806324 228.242349 
L 293.502888 228.373747 
L 296.896017 228.180774 
L 301.98571 228.790873 
L 303.682274 228.205059 
L 305.378839 228.473031 
L 307.075403 228.3064 
L 308.771967 228.51755 
L 310.468531 228.002989 
L 312.165096 227.799443 
L 313.86166 226.512931 
L 315.558224 227.114477 
L 317.254789 227.91923 
L 318.951353 227.680285 
L 320.647917 228.142348 
L 322.344482 228.203066 
L 325.73761 228.798798 
L 327.434175 228.398352 
L 329.130739 228.530735 
L 330.827303 228.494732 
L 332.523867 228.603321 
L 334.220432 228.552834 
L 335.916996 228.769182 
L 337.61356 228.720748 
L 339.310125 228.795827 
L 341.006689 229.052154 
L 342.703253 228.619975 
L 344.399818 228.887301 
L 347.792946 228.616548 
L 351.186075 228.58116 
L 352.882639 228.475737 
L 354.579203 226.618811 
L 356.275768 227.075709 
L 357.972332 227.946401 
L 361.365461 228.744227 
L 364.758589 228.711906 
L 368.151718 229.056488 
L 369.848282 228.927458 
L 374.937975 228.908977 
L 376.634539 229.415665 
L 378.331104 229.192502 
L 380.027668 228.716031 
L 381.724232 229.141462 
L 383.420797 228.905373 
L 385.117361 229.158247 
L 386.813925 229.22945 
L 388.51049 229.463617 
L 390.207054 229.51729 
L 391.903618 229.044351 
L 393.600182 229.098557 
L 395.296747 228.793683 
L 396.993311 229.111231 
L 402.083004 227.50746 
L 405.476133 228.769418 
L 407.172697 228.965197 
L 408.869261 228.796787 
L 410.565825 229.067716 
L 412.26239 228.666656 
L 417.352083 229.230653 
L 420.745211 229.012162 
L 424.13834 229.181644 
L 425.834904 229.014969 
L 430.924597 229.396777 
L 432.621161 229.309149 
L 436.01429 229.353274 
L 437.710854 229.067035 
L 439.407419 229.578076 
L 441.103983 229.507694 
L 442.800547 229.093651 
L 444.497112 228.48863 
L 446.193676 228.785879 
L 447.89024 229.355025 
L 449.586804 228.775068 
L 451.283369 227.959084 
L 452.979933 227.768973 
L 454.676497 227.330765 
L 456.373062 228.01661 
L 458.069626 228.913382 
L 459.76619 228.935165 
L 463.159319 229.374758 
L 466.552448 228.925445 
L 468.249012 229.547044 
L 469.945576 229.074257 
L 471.64214 229.484251 
L 473.338705 229.210266 
L 475.035269 229.232565 
L 476.731833 229.511542 
L 478.428398 229.450681 
L 480.124962 229.640453 
L 481.821526 229.40097 
L 483.518091 229.848811 
L 485.214655 229.168145 
L 486.911219 229.075912 
L 488.607784 229.858652 
L 490.304348 229.739185 
L 492.000912 229.284317 
L 493.697476 229.724906 
L 495.394041 229.32039 
L 497.090605 229.355267 
L 500.483734 228.72735 
L 502.180298 227.77672 
L 503.876862 228.155234 
L 507.269991 228.604479 
L 508.966555 229.104215 
L 510.663119 229.353185 
L 512.359684 229.175623 
L 514.056248 229.148904 
L 515.752812 229.497991 
L 517.449377 229.644892 
L 519.145941 229.302101 
L 520.842505 229.448694 
L 522.53907 229.100498 
L 524.235634 229.708038 
L 525.932198 229.877666 
L 527.628763 229.532026 
L 529.325327 229.456495 
L 531.021891 229.912041 
L 532.718455 229.326327 
L 534.41502 229.688522 
L 536.111584 229.438982 
L 537.808148 229.536938 
L 541.201277 229.100754 
L 542.897841 228.836902 
L 544.594406 228.155344 
L 546.29097 226.568368 
L 547.987534 228.343887 
L 549.684099 229.012304 
L 551.380663 228.98025 
L 553.077227 228.706465 
L 554.773791 229.103342 
L 558.16692 229.180184 
L 559.863484 229.851013 
L 561.560049 229.503753 
L 563.256613 229.334845 
L 564.953177 229.553853 
L 566.649742 229.367474 
L 568.346306 229.883168 
L 570.04287 229.65131 
L 571.739434 229.964897 
L 573.435999 229.677112 
L 576.829127 229.450193 
L 578.525692 229.923734 
L 581.91882 229.861349 
L 585.311949 229.387441 
L 587.008513 229.761259 
L 590.401642 229.571895 
L 592.098206 229.085674 
L 593.79477 229.518357 
L 597.187899 229.607257 
L 598.884463 228.075874 
L 600.581028 227.00891 
L 602.277592 228.213411 
L 603.974156 229.163839 
L 605.670721 229.438004 
L 609.063849 229.575854 
L 610.760413 229.918778 
L 612.456978 228.903864 
L 614.153542 229.637018 
L 615.850106 229.674013 
L 620.939799 229.231658 
L 622.636364 229.649808 
L 622.636364 229.649808 
" clip-path="url(#p146ae18929)" style="fill: none; stroke: #2ca02c; stroke-width: 1.5; stroke-linecap: square"/>
   </g>
   <g id="line2d_14">
    <path d="M 115.363636 55.8 
L 117.060201 102.103639 
L 118.756765 112.229714 
L 120.453329 115.975887 
L 122.149894 117.004931 
L 123.846458 119.287985 
L 125.543022 120.386249 
L 127.239587 120.699359 
L 128.936151 120.555242 
L 130.632715 119.199569 
L 132.329279 118.275509 
L 134.025844 115.966906 
L 135.722408 114.687829 
L 137.418972 112.749464 
L 139.115537 111.830353 
L 140.812101 111.956588 
L 142.508665 113.748338 
L 144.20523 115.988108 
L 145.901794 115.367102 
L 147.598358 115.346786 
L 149.294922 112.713999 
L 150.991487 111.364913 
L 152.688051 108.360209 
L 154.384615 104.635967 
L 156.08118 103.75161 
L 157.777744 102.659891 
L 159.474308 99.836098 
L 161.170873 98.126065 
L 162.867437 98.829599 
L 164.564001 99.73559 
L 166.260566 103.468235 
L 167.95713 106.466473 
L 169.653694 111.970308 
L 171.350258 111.788797 
L 173.046823 108.264486 
L 174.743387 106.776369 
L 176.439951 106.484843 
L 178.136516 105.336043 
L 179.83308 100.308067 
L 181.529644 99.148018 
L 183.226209 101.128707 
L 184.922773 97.684496 
L 186.619337 97.362462 
L 188.315901 99.415882 
L 190.012466 102.714884 
L 191.70903 108.939683 
L 193.405594 109.955436 
L 195.102159 114.059672 
L 196.798723 111.118498 
L 198.495287 108.428639 
L 200.191852 106.648323 
L 201.888416 103.775303 
L 203.58498 97.809347 
L 206.978109 100.558311 
L 208.674673 94.82825 
L 210.371237 93.619457 
L 212.067802 89.298098 
L 213.764366 89.850422 
L 215.46093 89.275471 
L 218.854059 90.096105 
L 220.550623 86.945633 
L 222.247188 89.690681 
L 223.943752 90.110729 
L 225.640316 87.690711 
L 227.336881 92.542074 
L 229.033445 93.634774 
L 230.730009 88.587336 
L 232.426573 104.431965 
L 234.123138 105.96686 
L 235.819702 103.051302 
L 237.516266 100.385156 
L 239.212831 101.345805 
L 240.909395 96.179288 
L 242.605959 94.311289 
L 244.302524 94.17598 
L 245.999088 93.151059 
L 247.695652 93.524326 
L 249.392216 94.24717 
L 251.088781 91.289193 
L 252.785345 90.322354 
L 254.481909 87.744664 
L 256.178474 87.743836 
L 257.875038 85.441119 
L 259.571602 86.855783 
L 261.268167 84.430892 
L 262.964731 86.908424 
L 264.661295 84.144209 
L 266.35786 88.320763 
L 268.054424 91.765304 
L 269.750988 91.762827 
L 271.447552 93.887621 
L 273.144117 101.087507 
L 274.840681 109.797809 
L 276.537245 108.583979 
L 278.23381 106.341433 
L 279.930374 100.806181 
L 281.626938 99.56606 
L 283.323503 96.435623 
L 285.020067 99.715795 
L 286.716631 95.898764 
L 288.413196 96.840152 
L 290.10976 94.818468 
L 291.806324 93.893771 
L 293.502888 95.340093 
L 295.199453 95.163497 
L 296.896017 92.864466 
L 298.592581 93.864245 
L 300.289146 91.243955 
L 301.98571 89.202967 
L 303.682274 91.470941 
L 305.378839 90.099509 
L 307.075403 91.29451 
L 308.771967 94.010149 
L 310.468531 98.392801 
L 312.165096 103.161572 
L 313.86166 109.125749 
L 315.558224 104.810849 
L 317.254789 100.898434 
L 318.951353 100.807259 
L 320.647917 100.829808 
L 322.344482 99.023859 
L 324.041046 96.020226 
L 325.73761 96.771027 
L 327.434175 98.474689 
L 329.130739 91.560819 
L 330.827303 97.172027 
L 332.523867 94.744398 
L 334.220432 96.086044 
L 335.916996 91.939605 
L 337.61356 92.49923 
L 339.310125 91.831299 
L 341.006689 93.732326 
L 342.703253 92.075187 
L 344.399818 93.687284 
L 346.096382 96.985803 
L 351.186075 103.732216 
L 352.882639 99.834376 
L 354.579203 103.39333 
L 356.275768 108.548629 
L 357.972332 103.702818 
L 359.668896 100.920688 
L 361.365461 99.180998 
L 363.062025 99.486919 
L 364.758589 99.95591 
L 366.455154 97.35501 
L 368.151718 96.962387 
L 369.848282 94.962899 
L 371.544846 94.581023 
L 373.241411 93.378381 
L 374.937975 97.469666 
L 376.634539 92.208754 
L 378.331104 93.90648 
L 380.027668 95.262144 
L 381.724232 92.848241 
L 383.420797 90.928046 
L 385.117361 91.8638 
L 386.813925 91.835903 
L 388.51049 92.628194 
L 390.207054 90.941287 
L 391.903618 95.261631 
L 393.600182 93.654739 
L 395.296747 101.115564 
L 396.993311 104.649253 
L 398.689875 102.818043 
L 400.38644 104.333742 
L 402.083004 108.959174 
L 403.779568 114.864484 
L 405.476133 111.513216 
L 407.172697 109.375126 
L 408.869261 106.183844 
L 410.565825 103.473021 
L 412.26239 101.233432 
L 413.958954 104.343392 
L 415.655518 97.659294 
L 420.745211 103.461081 
L 422.441776 103.379558 
L 424.13834 101.919697 
L 425.834904 104.062888 
L 427.531469 103.43511 
L 429.228033 100.748733 
L 430.924597 99.627563 
L 432.621161 101.427219 
L 434.317726 99.212719 
L 436.01429 102.057145 
L 437.710854 102.904241 
L 439.407419 101.767315 
L 441.103983 105.558223 
L 442.800547 104.331889 
L 444.497112 103.378035 
L 446.193676 104.389236 
L 447.89024 102.950368 
L 449.586804 109.438854 
L 451.283369 109.810409 
L 452.979933 111.029725 
L 454.676497 112.0489 
L 456.373062 114.215523 
L 458.069626 110.866352 
L 459.76619 110.305869 
L 461.462755 108.690708 
L 463.159319 104.789648 
L 464.855883 107.663966 
L 466.552448 108.20151 
L 468.249012 106.527228 
L 469.945576 108.326132 
L 471.64214 107.236345 
L 473.338705 106.662541 
L 475.035269 106.285762 
L 478.428398 106.947305 
L 480.124962 107.299033 
L 481.821526 103.89305 
L 485.214655 104.791332 
L 486.911219 103.061425 
L 488.607784 103.131902 
L 490.304348 97.271559 
L 492.000912 102.221732 
L 493.697476 101.343386 
L 495.394041 108.256718 
L 497.090605 108.961207 
L 498.787169 111.214475 
L 500.483734 108.856365 
L 502.180298 112.308064 
L 503.876862 117.118972 
L 505.573427 117.75515 
L 507.269991 119.735648 
L 508.966555 119.773898 
L 510.663119 118.59166 
L 512.359684 117.628204 
L 514.056248 116.1769 
L 515.752812 116.052688 
L 517.449377 113.661338 
L 519.145941 114.885066 
L 520.842505 114.99382 
L 522.53907 114.780976 
L 524.235634 113.306154 
L 525.932198 111.048344 
L 527.628763 113.033364 
L 529.325327 113.741462 
L 531.021891 111.145708 
L 532.718455 112.317418 
L 534.41502 111.974485 
L 536.111584 112.543431 
L 537.808148 111.53565 
L 541.201277 118.125356 
L 542.897841 114.252156 
L 544.594406 115.15123 
L 547.987534 113.338723 
L 549.684099 114.778707 
L 551.380663 114.22611 
L 553.077227 115.985713 
L 554.773791 115.184993 
L 556.470356 116.859099 
L 558.16692 114.455738 
L 559.863484 114.955656 
L 561.560049 113.701378 
L 563.256613 112.60329 
L 564.953177 114.417229 
L 566.649742 112.273084 
L 568.346306 112.178719 
L 570.04287 112.76366 
L 571.739434 111.68237 
L 573.435999 112.488695 
L 575.132563 113.009401 
L 576.829127 114.707057 
L 578.525692 111.471408 
L 580.222256 109.872398 
L 581.91882 111.410022 
L 583.615385 111.430758 
L 585.311949 112.54444 
L 587.008513 111.272554 
L 588.705078 112.638053 
L 590.401642 111.184643 
L 592.098206 112.966775 
L 595.491335 112.157917 
L 597.187899 113.369368 
L 598.884463 115.84489 
L 600.581028 117.40614 
L 602.277592 120.764339 
L 603.974156 119.15273 
L 605.670721 116.067911 
L 607.367285 113.733274 
L 609.063849 108.209515 
L 610.760413 112.424411 
L 612.456978 115.771762 
L 614.153542 113.085975 
L 615.850106 114.935999 
L 617.546671 116.180242 
L 619.243235 116.535961 
L 620.939799 114.639913 
L 622.636364 113.106603 
L 622.636364 113.106603 
" clip-path="url(#p146ae18929)" style="fill: none; stroke: #d62728; stroke-width: 1.5; stroke-linecap: square"/>
   </g>
   <g id="patch_3">
    <path d="M 90 320.4 
L 90 43.2 
" style="fill: none; stroke: #000000; stroke-width: 0.8; stroke-linejoin: miter; stroke-linecap: square"/>
   </g>
   <g id="patch_4">
    <path d="M 648 320.4 
L 648 43.2 
" style="fill: none; stroke: #000000; stroke-width: 0.8; stroke-linejoin: miter; stroke-linecap: square"/>
   </g>
   <g id="patch_5">
    <path d="M 90 320.4 
L 648 320.4 
" style="fill: none; stroke: #000000; stroke-width: 0.8; stroke-linejoin: miter; stroke-linecap: square"/>
   </g>
   <g id="patch_6">
    <path d="M 90 43.2 
L 648 43.2 
" style="fill: none; stroke: #000000; stroke-width: 0.8; stroke-linejoin: miter; stroke-linecap: square"/>
   </g>
   <g id="text_13">
    <!-- Training and Validating Estimation Loss -->
    <g transform="translate(251.535937 37.2) scale(0.12 -0.12)">
     <defs>
      <path id="DejaVuSans-54" d="M -19 4666 
L 3928 4666 
L 3928 4134 
L 2272 4134 
L 2272 0 
L 1638 0 
L 1638 4134 
L -19 4134 
L -19 4666 
z
" transform="scale(0.015625)"/>
      <path id="DejaVuSans-72" d="M 2631 2963 
Q 2534 3019 2420 3045 
Q 2306 3072 2169 3072 
Q 1681 3072 1420 2755 
Q 1159 2438 1159 1844 
L 1159 0 
L 581 0 
L 581 3500 
L 1159 3500 
L 1159 2956 
Q 1341 3275 1631 3429 
Q 1922 3584 2338 3584 
Q 2397 3584 2469 3576 
Q 2541 3569 2628 3553 
L 2631 2963 
z
" transform="scale(0.015625)"/>
      <path id="DejaVuSans-67" d="M 2906 1791 
Q 2906 2416 2648 2759 
Q 2391 3103 1925 3103 
Q 1463 3103 1205 2759 
Q 947 2416 947 1791 
Q 947 1169 1205 825 
Q 1463 481 1925 481 
Q 2391 481 2648 825 
Q 2906 1169 2906 1791 
z
M 3481 434 
Q 3481 -459 3084 -895 
Q 2688 -1331 1869 -1331 
Q 1566 -1331 1297 -1286 
Q 1028 -1241 775 -1147 
L 775 -588 
Q 1028 -725 1275 -790 
Q 1522 -856 1778 -856 
Q 2344 -856 2625 -561 
Q 2906 -266 2906 331 
L 2906 616 
Q 2728 306 2450 153 
Q 2172 0 1784 0 
Q 1141 0 747 490 
Q 353 981 353 1791 
Q 353 2603 747 3093 
Q 1141 3584 1784 3584 
Q 2172 3584 2450 3431 
Q 2728 3278 2906 2969 
L 2906 3500 
L 3481 3500 
L 3481 434 
z
" transform="scale(0.015625)"/>
      <path id="DejaVuSans-64" d="M 2906 2969 
L 2906 4863 
L 3481 4863 
L 3481 0 
L 2906 0 
L 2906 525 
Q 2725 213 2448 61 
Q 2172 -91 1784 -91 
Q 1150 -91 751 415 
Q 353 922 353 1747 
Q 353 2572 751 3078 
Q 1150 3584 1784 3584 
Q 2172 3584 2448 3432 
Q 2725 3281 2906 2969 
z
M 947 1747 
Q 947 1113 1208 752 
Q 1469 391 1925 391 
Q 2381 391 2643 752 
Q 2906 1113 2906 1747 
Q 2906 2381 2643 2742 
Q 2381 3103 1925 3103 
Q 1469 3103 1208 2742 
Q 947 2381 947 1747 
z
" transform="scale(0.015625)"/>
      <path id="DejaVuSans-56" d="M 1831 0 
L 50 4666 
L 709 4666 
L 2188 738 
L 3669 4666 
L 4325 4666 
L 2547 0 
L 1831 0 
z
" transform="scale(0.015625)"/>
      <path id="DejaVuSans-6c" d="M 603 4863 
L 1178 4863 
L 1178 0 
L 603 0 
L 603 4863 
z
" transform="scale(0.015625)"/>
     </defs>
     <use xlink:href="#DejaVuSans-54"/>
     <use xlink:href="#DejaVuSans-72" transform="translate(46.333984 0)"/>
     <use xlink:href="#DejaVuSans-61" transform="translate(87.447266 0)"/>
     <use xlink:href="#DejaVuSans-69" transform="translate(148.726562 0)"/>
     <use xlink:href="#DejaVuSans-6e" transform="translate(176.509766 0)"/>
     <use xlink:href="#DejaVuSans-69" transform="translate(239.888672 0)"/>
     <use xlink:href="#DejaVuSans-6e" transform="translate(267.671875 0)"/>
     <use xlink:href="#DejaVuSans-67" transform="translate(331.050781 0)"/>
     <use xlink:href="#DejaVuSans-20" transform="translate(394.527344 0)"/>
     <use xlink:href="#DejaVuSans-61" transform="translate(426.314453 0)"/>
     <use xlink:href="#DejaVuSans-6e" transform="translate(487.59375 0)"/>
     <use xlink:href="#DejaVuSans-64" transform="translate(550.972656 0)"/>
     <use xlink:href="#DejaVuSans-20" transform="translate(614.449219 0)"/>
     <use xlink:href="#DejaVuSans-56" transform="translate(646.236328 0)"/>
     <use xlink:href="#DejaVuSans-61" transform="translate(706.894531 0)"/>
     <use xlink:href="#DejaVuSans-6c" transform="translate(768.173828 0)"/>
     <use xlink:href="#DejaVuSans-69" transform="translate(795.957031 0)"/>
     <use xlink:href="#DejaVuSans-64" transform="translate(823.740234 0)"/>
     <use xlink:href="#DejaVuSans-61" transform="translate(887.216797 0)"/>
     <use xlink:href="#DejaVuSans-74" transform="translate(948.496094 0)"/>
     <use xlink:href="#DejaVuSans-69" transform="translate(987.705078 0)"/>
     <use xlink:href="#DejaVuSans-6e" transform="translate(1015.488281 0)"/>
     <use xlink:href="#DejaVuSans-67" transform="translate(1078.867188 0)"/>
     <use xlink:href="#DejaVuSans-20" transform="translate(1142.34375 0)"/>
     <use xlink:href="#DejaVuSans-45" transform="translate(1174.130859 0)"/>
     <use xlink:href="#DejaVuSans-73" transform="translate(1237.314453 0)"/>
     <use xlink:href="#DejaVuSans-74" transform="translate(1289.414062 0)"/>
     <use xlink:href="#DejaVuSans-69" transform="translate(1328.623047 0)"/>
     <use xlink:href="#DejaVuSans-6d" transform="translate(1356.40625 0)"/>
     <use xlink:href="#DejaVuSans-61" transform="translate(1453.818359 0)"/>
     <use xlink:href="#DejaVuSans-74" transform="translate(1515.097656 0)"/>
     <use xlink:href="#DejaVuSans-69" transform="translate(1554.306641 0)"/>
     <use xlink:href="#DejaVuSans-6f" transform="translate(1582.089844 0)"/>
     <use xlink:href="#DejaVuSans-6e" transform="translate(1643.271484 0)"/>
     <use xlink:href="#DejaVuSans-20" transform="translate(1706.650391 0)"/>
     <use xlink:href="#DejaVuSans-4c" transform="translate(1738.4375 0)"/>
     <use xlink:href="#DejaVuSans-6f" transform="translate(1792.400391 0)"/>
     <use xlink:href="#DejaVuSans-73" transform="translate(1853.582031 0)"/>
     <use xlink:href="#DejaVuSans-73" transform="translate(1905.681641 0)"/>
    </g>
   </g>
   <g id="legend_1">
    <g id="patch_7">
     <path d="M 521.439062 212.65625 
L 641 212.65625 
Q 643 212.65625 643 210.65625 
L 643 152.94375 
Q 643 150.94375 641 150.94375 
L 521.439062 150.94375 
Q 519.439062 150.94375 519.439062 152.94375 
L 519.439062 210.65625 
Q 519.439062 212.65625 521.439062 212.65625 
z
" style="fill: #ffffff; opacity: 0.8; stroke: #cccccc; stroke-linejoin: miter"/>
    </g>
    <g id="line2d_15">
     <path d="M 523.439062 159.042188 
L 533.439062 159.042188 
L 543.439062 159.042188 
" style="fill: none; stroke: #1f77b4; stroke-width: 1.5; stroke-linecap: square"/>
    </g>
    <g id="text_14">
     <!-- Training-Source -->
     <g transform="translate(551.439062 162.542188) scale(0.1 -0.1)">
      <defs>
       <path id="DejaVuSans-2d" d="M 313 2009 
L 1997 2009 
L 1997 1497 
L 313 1497 
L 313 2009 
z
" transform="scale(0.015625)"/>
       <path id="DejaVuSans-53" d="M 3425 4513 
L 3425 3897 
Q 3066 4069 2747 4153 
Q 2428 4238 2131 4238 
Q 1616 4238 1336 4038 
Q 1056 3838 1056 3469 
Q 1056 3159 1242 3001 
Q 1428 2844 1947 2747 
L 2328 2669 
Q 3034 2534 3370 2195 
Q 3706 1856 3706 1288 
Q 3706 609 3251 259 
Q 2797 -91 1919 -91 
Q 1588 -91 1214 -16 
Q 841 59 441 206 
L 441 856 
Q 825 641 1194 531 
Q 1563 422 1919 422 
Q 2459 422 2753 634 
Q 3047 847 3047 1241 
Q 3047 1584 2836 1778 
Q 2625 1972 2144 2069 
L 1759 2144 
Q 1053 2284 737 2584 
Q 422 2884 422 3419 
Q 422 4038 858 4394 
Q 1294 4750 2059 4750 
Q 2388 4750 2728 4690 
Q 3069 4631 3425 4513 
z
" transform="scale(0.015625)"/>
       <path id="DejaVuSans-75" d="M 544 1381 
L 544 3500 
L 1119 3500 
L 1119 1403 
Q 1119 906 1312 657 
Q 1506 409 1894 409 
Q 2359 409 2629 706 
Q 2900 1003 2900 1516 
L 2900 3500 
L 3475 3500 
L 3475 0 
L 2900 0 
L 2900 538 
Q 2691 219 2414 64 
Q 2138 -91 1772 -91 
Q 1169 -91 856 284 
Q 544 659 544 1381 
z
M 1991 3584 
L 1991 3584 
z
" transform="scale(0.015625)"/>
       <path id="DejaVuSans-65" d="M 3597 1894 
L 3597 1613 
L 953 1613 
Q 991 1019 1311 708 
Q 1631 397 2203 397 
Q 2534 397 2845 478 
Q 3156 559 3463 722 
L 3463 178 
Q 3153 47 2828 -22 
Q 2503 -91 2169 -91 
Q 1331 -91 842 396 
Q 353 884 353 1716 
Q 353 2575 817 3079 
Q 1281 3584 2069 3584 
Q 2775 3584 3186 3129 
Q 3597 2675 3597 1894 
z
M 3022 2063 
Q 3016 2534 2758 2815 
Q 2500 3097 2075 3097 
Q 1594 3097 1305 2825 
Q 1016 2553 972 2059 
L 3022 2063 
z
" transform="scale(0.015625)"/>
      </defs>
      <use xlink:href="#DejaVuSans-54"/>
      <use xlink:href="#DejaVuSans-72" transform="translate(46.333984 0)"/>
      <use xlink:href="#DejaVuSans-61" transform="translate(87.447266 0)"/>
      <use xlink:href="#DejaVuSans-69" transform="translate(148.726562 0)"/>
      <use xlink:href="#DejaVuSans-6e" transform="translate(176.509766 0)"/>
      <use xlink:href="#DejaVuSans-69" transform="translate(239.888672 0)"/>
      <use xlink:href="#DejaVuSans-6e" transform="translate(267.671875 0)"/>
      <use xlink:href="#DejaVuSans-67" transform="translate(331.050781 0)"/>
      <use xlink:href="#DejaVuSans-2d" transform="translate(394.527344 0)"/>
      <use xlink:href="#DejaVuSans-53" transform="translate(430.611328 0)"/>
      <use xlink:href="#DejaVuSans-6f" transform="translate(494.087891 0)"/>
      <use xlink:href="#DejaVuSans-75" transform="translate(555.269531 0)"/>
      <use xlink:href="#DejaVuSans-72" transform="translate(618.648438 0)"/>
      <use xlink:href="#DejaVuSans-63" transform="translate(657.511719 0)"/>
      <use xlink:href="#DejaVuSans-65" transform="translate(712.492188 0)"/>
     </g>
    </g>
    <g id="line2d_16">
     <path d="M 523.439062 173.720313 
L 533.439062 173.720313 
L 543.439062 173.720313 
" style="fill: none; stroke: #ff7f0e; stroke-width: 1.5; stroke-linecap: square"/>
    </g>
    <g id="text_15">
     <!-- Training-Target -->
     <g transform="translate(551.439062 177.220313) scale(0.1 -0.1)">
      <use xlink:href="#DejaVuSans-54"/>
      <use xlink:href="#DejaVuSans-72" transform="translate(46.333984 0)"/>
      <use xlink:href="#DejaVuSans-61" transform="translate(87.447266 0)"/>
      <use xlink:href="#DejaVuSans-69" transform="translate(148.726562 0)"/>
      <use xlink:href="#DejaVuSans-6e" transform="translate(176.509766 0)"/>
      <use xlink:href="#DejaVuSans-69" transform="translate(239.888672 0)"/>
      <use xlink:href="#DejaVuSans-6e" transform="translate(267.671875 0)"/>
      <use xlink:href="#DejaVuSans-67" transform="translate(331.050781 0)"/>
      <use xlink:href="#DejaVuSans-2d" transform="translate(394.527344 0)"/>
      <use xlink:href="#DejaVuSans-54" transform="translate(421.486328 0)"/>
      <use xlink:href="#DejaVuSans-61" transform="translate(466.070312 0)"/>
      <use xlink:href="#DejaVuSans-72" transform="translate(527.349609 0)"/>
      <use xlink:href="#DejaVuSans-67" transform="translate(566.712891 0)"/>
      <use xlink:href="#DejaVuSans-65" transform="translate(630.189453 0)"/>
      <use xlink:href="#DejaVuSans-74" transform="translate(691.712891 0)"/>
     </g>
    </g>
    <g id="line2d_17">
     <path d="M 523.439062 188.398438 
L 533.439062 188.398438 
L 543.439062 188.398438 
" style="fill: none; stroke: #2ca02c; stroke-width: 1.5; stroke-linecap: square"/>
    </g>
    <g id="text_16">
     <!-- Validating-Source -->
     <g transform="translate(551.439062 191.898438) scale(0.1 -0.1)">
      <use xlink:href="#DejaVuSans-56"/>
      <use xlink:href="#DejaVuSans-61" transform="translate(60.658203 0)"/>
      <use xlink:href="#DejaVuSans-6c" transform="translate(121.9375 0)"/>
      <use xlink:href="#DejaVuSans-69" transform="translate(149.720703 0)"/>
      <use xlink:href="#DejaVuSans-64" transform="translate(177.503906 0)"/>
      <use xlink:href="#DejaVuSans-61" transform="translate(240.980469 0)"/>
      <use xlink:href="#DejaVuSans-74" transform="translate(302.259766 0)"/>
      <use xlink:href="#DejaVuSans-69" transform="translate(341.46875 0)"/>
      <use xlink:href="#DejaVuSans-6e" transform="translate(369.251953 0)"/>
      <use xlink:href="#DejaVuSans-67" transform="translate(432.630859 0)"/>
      <use xlink:href="#DejaVuSans-2d" transform="translate(496.107422 0)"/>
      <use xlink:href="#DejaVuSans-53" transform="translate(532.191406 0)"/>
      <use xlink:href="#DejaVuSans-6f" transform="translate(595.667969 0)"/>
      <use xlink:href="#DejaVuSans-75" transform="translate(656.849609 0)"/>
      <use xlink:href="#DejaVuSans-72" transform="translate(720.228516 0)"/>
      <use xlink:href="#DejaVuSans-63" transform="translate(759.091797 0)"/>
      <use xlink:href="#DejaVuSans-65" transform="translate(814.072266 0)"/>
     </g>
    </g>
    <g id="line2d_18">
     <path d="M 523.439062 203.076563 
L 533.439062 203.076563 
L 543.439062 203.076563 
" style="fill: none; stroke: #d62728; stroke-width: 1.5; stroke-linecap: square"/>
    </g>
    <g id="text_17">
     <!-- Validating-Target -->
     <g transform="translate(551.439062 206.576563) scale(0.1 -0.1)">
      <use xlink:href="#DejaVuSans-56"/>
      <use xlink:href="#DejaVuSans-61" transform="translate(60.658203 0)"/>
      <use xlink:href="#DejaVuSans-6c" transform="translate(121.9375 0)"/>
      <use xlink:href="#DejaVuSans-69" transform="translate(149.720703 0)"/>
      <use xlink:href="#DejaVuSans-64" transform="translate(177.503906 0)"/>
      <use xlink:href="#DejaVuSans-61" transform="translate(240.980469 0)"/>
      <use xlink:href="#DejaVuSans-74" transform="translate(302.259766 0)"/>
      <use xlink:href="#DejaVuSans-69" transform="translate(341.46875 0)"/>
      <use xlink:href="#DejaVuSans-6e" transform="translate(369.251953 0)"/>
      <use xlink:href="#DejaVuSans-67" transform="translate(432.630859 0)"/>
      <use xlink:href="#DejaVuSans-2d" transform="translate(496.107422 0)"/>
      <use xlink:href="#DejaVuSans-54" transform="translate(523.066406 0)"/>
      <use xlink:href="#DejaVuSans-61" transform="translate(567.650391 0)"/>
      <use xlink:href="#DejaVuSans-72" transform="translate(628.929688 0)"/>
      <use xlink:href="#DejaVuSans-67" transform="translate(668.292969 0)"/>
      <use xlink:href="#DejaVuSans-65" transform="translate(731.769531 0)"/>
      <use xlink:href="#DejaVuSans-74" transform="translate(793.292969 0)"/>
     </g>
    </g>
   </g>
  </g>
 </g>
 <defs>
  <clipPath id="p146ae18929">
   <rect x="90" y="43.2" width="558" height="277.2"/>
  </clipPath>
 </defs>
</svg>
