<?xml version="1.0" encoding="utf-8" standalone="no"?>
<!DOCTYPE svg PUBLIC "-//W3C//DTD SVG 1.1//EN"
  "http://www.w3.org/Graphics/SVG/1.1/DTD/svg11.dtd">
<svg xmlns:xlink="http://www.w3.org/1999/xlink" width="720pt" height="360pt" viewBox="0 0 720 360" xmlns="http://www.w3.org/2000/svg" version="1.1">
 <metadata>
  <rdf:RDF xmlns:dc="http://purl.org/dc/elements/1.1/" xmlns:cc="http://creativecommons.org/ns#" xmlns:rdf="http://www.w3.org/1999/02/22-rdf-syntax-ns#">
   <cc:Work>
    <dc:type rdf:resource="http://purl.org/dc/dcmitype/StillImage"/>
    <dc:date>2025-10-19T08:11:31.645049</dc:date>
    <dc:format>image/svg+xml</dc:format>
    <dc:creator>
     <cc:Agent>
      <dc:title>Matplotlib v3.10.1, https://matplotlib.org/</dc:title>
     </cc:Agent>
    </dc:creator>
   </cc:Work>
  </rdf:RDF>
 </metadata>
 <defs>
  <style type="text/css">*{stroke-linejoin: round; stroke-linecap: butt}</style>
 </defs>
 <g id="figure_1">
  <g id="patch_1">
   <path d="M 0 360 
L 720 360 
L 720 0 
L 0 0 
z
" style="fill: #ffffff"/>
  </g>
  <g id="axes_1">
   <g id="patch_2">
    <path d="M 90 320.4 
L 648 320.4 
L 648 43.2 
L 90 43.2 
z
" style="fill: #ffffff"/>
   </g>
   <g id="matplotlib.axis_1">
    <g id="xtick_1">
     <g id="line2d_1">
      <defs>
       <path id="mb503e73ab6" d="M 0 0 
L 0 3.5 
" style="stroke: #000000; stroke-width: 0.8"/>
      </defs>
      <g>
       <use xlink:href="#mb503e73ab6" x="115.363636" y="320.4" style="stroke: #000000; stroke-width: 0.8"/>
      </g>
     </g>
     <g id="text_1">
      <!-- 0 -->
      <g transform="translate(112.182386 334.998438) scale(0.1 -0.1)">
       <defs>
        <path id="DejaVuSans-30" d="M 2034 4250 
Q 1547 4250 1301 3770 
Q 1056 3291 1056 2328 
Q 1056 1369 1301 889 
Q 1547 409 2034 409 
Q 2525 409 2770 889 
Q 3016 1369 3016 2328 
Q 3016 3291 2770 3770 
Q 2525 4250 2034 4250 
z
M 2034 4750 
Q 2819 4750 3233 4129 
Q 3647 3509 3647 2328 
Q 3647 1150 3233 529 
Q 2819 -91 2034 -91 
Q 1250 -91 836 529 
Q 422 1150 422 2328 
Q 422 3509 836 4129 
Q 1250 4750 2034 4750 
z
" transform="scale(0.015625)"/>
       </defs>
       <use xlink:href="#DejaVuSans-30"/>
      </g>
     </g>
    </g>
    <g id="xtick_2">
     <g id="line2d_2">
      <g>
       <use xlink:href="#mb503e73ab6" x="217.157495" y="320.4" style="stroke: #000000; stroke-width: 0.8"/>
      </g>
     </g>
     <g id="text_2">
      <!-- 60 -->
      <g transform="translate(210.794995 334.998438) scale(0.1 -0.1)">
       <defs>
        <path id="DejaVuSans-36" d="M 2113 2584 
Q 1688 2584 1439 2293 
Q 1191 2003 1191 1497 
Q 1191 994 1439 701 
Q 1688 409 2113 409 
Q 2538 409 2786 701 
Q 3034 994 3034 1497 
Q 3034 2003 2786 2293 
Q 2538 2584 2113 2584 
z
M 3366 4563 
L 3366 3988 
Q 3128 4100 2886 4159 
Q 2644 4219 2406 4219 
Q 1781 4219 1451 3797 
Q 1122 3375 1075 2522 
Q 1259 2794 1537 2939 
Q 1816 3084 2150 3084 
Q 2853 3084 3261 2657 
Q 3669 2231 3669 1497 
Q 3669 778 3244 343 
Q 2819 -91 2113 -91 
Q 1303 -91 875 529 
Q 447 1150 447 2328 
Q 447 3434 972 4092 
Q 1497 4750 2381 4750 
Q 2619 4750 2861 4703 
Q 3103 4656 3366 4563 
z
" transform="scale(0.015625)"/>
       </defs>
       <use xlink:href="#DejaVuSans-36"/>
       <use xlink:href="#DejaVuSans-30" transform="translate(63.623047 0)"/>
      </g>
     </g>
    </g>
    <g id="xtick_3">
     <g id="line2d_3">
      <g>
       <use xlink:href="#mb503e73ab6" x="318.951353" y="320.4" style="stroke: #000000; stroke-width: 0.8"/>
      </g>
     </g>
     <g id="text_3">
      <!-- 120 -->
      <g transform="translate(309.407603 334.998438) scale(0.1 -0.1)">
       <defs>
        <path id="DejaVuSans-31" d="M 794 531 
L 1825 531 
L 1825 4091 
L 703 3866 
L 703 4441 
L 1819 4666 
L 2450 4666 
L 2450 531 
L 3481 531 
L 3481 0 
L 794 0 
L 794 531 
z
" transform="scale(0.015625)"/>
        <path id="DejaVuSans-32" d="M 1228 531 
L 3431 531 
L 3431 0 
L 469 0 
L 469 531 
Q 828 903 1448 1529 
Q 2069 2156 2228 2338 
Q 2531 2678 2651 2914 
Q 2772 3150 2772 3378 
Q 2772 3750 2511 3984 
Q 2250 4219 1831 4219 
Q 1534 4219 1204 4116 
Q 875 4013 500 3803 
L 500 4441 
Q 881 4594 1212 4672 
Q 1544 4750 1819 4750 
Q 2544 4750 2975 4387 
Q 3406 4025 3406 3419 
Q 3406 3131 3298 2873 
Q 3191 2616 2906 2266 
Q 2828 2175 2409 1742 
Q 1991 1309 1228 531 
z
" transform="scale(0.015625)"/>
       </defs>
       <use xlink:href="#DejaVuSans-31"/>
       <use xlink:href="#DejaVuSans-32" transform="translate(63.623047 0)"/>
       <use xlink:href="#DejaVuSans-30" transform="translate(127.246094 0)"/>
      </g>
     </g>
    </g>
    <g id="xtick_4">
     <g id="line2d_4">
      <g>
       <use xlink:href="#mb503e73ab6" x="420.745211" y="320.4" style="stroke: #000000; stroke-width: 0.8"/>
      </g>
     </g>
     <g id="text_4">
      <!-- 180 -->
      <g transform="translate(411.201461 334.998438) scale(0.1 -0.1)">
       <defs>
        <path id="DejaVuSans-38" d="M 2034 2216 
Q 1584 2216 1326 1975 
Q 1069 1734 1069 1313 
Q 1069 891 1326 650 
Q 1584 409 2034 409 
Q 2484 409 2743 651 
Q 3003 894 3003 1313 
Q 3003 1734 2745 1975 
Q 2488 2216 2034 2216 
z
M 1403 2484 
Q 997 2584 770 2862 
Q 544 3141 544 3541 
Q 544 4100 942 4425 
Q 1341 4750 2034 4750 
Q 2731 4750 3128 4425 
Q 3525 4100 3525 3541 
Q 3525 3141 3298 2862 
Q 3072 2584 2669 2484 
Q 3125 2378 3379 2068 
Q 3634 1759 3634 1313 
Q 3634 634 3220 271 
Q 2806 -91 2034 -91 
Q 1263 -91 848 271 
Q 434 634 434 1313 
Q 434 1759 690 2068 
Q 947 2378 1403 2484 
z
M 1172 3481 
Q 1172 3119 1398 2916 
Q 1625 2713 2034 2713 
Q 2441 2713 2670 2916 
Q 2900 3119 2900 3481 
Q 2900 3844 2670 4047 
Q 2441 4250 2034 4250 
Q 1625 4250 1398 4047 
Q 1172 3844 1172 3481 
z
" transform="scale(0.015625)"/>
       </defs>
       <use xlink:href="#DejaVuSans-31"/>
       <use xlink:href="#DejaVuSans-38" transform="translate(63.623047 0)"/>
       <use xlink:href="#DejaVuSans-30" transform="translate(127.246094 0)"/>
      </g>
     </g>
    </g>
    <g id="xtick_5">
     <g id="line2d_5">
      <g>
       <use xlink:href="#mb503e73ab6" x="522.53907" y="320.4" style="stroke: #000000; stroke-width: 0.8"/>
      </g>
     </g>
     <g id="text_5">
      <!-- 240 -->
      <g transform="translate(512.99532 334.998438) scale(0.1 -0.1)">
       <defs>
        <path id="DejaVuSans-34" d="M 2419 4116 
L 825 1625 
L 2419 1625 
L 2419 4116 
z
M 2253 4666 
L 3047 4666 
L 3047 1625 
L 3713 1625 
L 3713 1100 
L 3047 1100 
L 3047 0 
L 2419 0 
L 2419 1100 
L 313 1100 
L 313 1709 
L 2253 4666 
z
" transform="scale(0.015625)"/>
       </defs>
       <use xlink:href="#DejaVuSans-32"/>
       <use xlink:href="#DejaVuSans-34" transform="translate(63.623047 0)"/>
       <use xlink:href="#DejaVuSans-30" transform="translate(127.246094 0)"/>
      </g>
     </g>
    </g>
    <g id="text_6">
     <!-- Epoch -->
     <g transform="translate(353.689062 348.676562) scale(0.1 -0.1)">
      <defs>
       <path id="DejaVuSans-45" d="M 628 4666 
L 3578 4666 
L 3578 4134 
L 1259 4134 
L 1259 2753 
L 3481 2753 
L 3481 2222 
L 1259 2222 
L 1259 531 
L 3634 531 
L 3634 0 
L 628 0 
L 628 4666 
z
" transform="scale(0.015625)"/>
       <path id="DejaVuSans-70" d="M 1159 525 
L 1159 -1331 
L 581 -1331 
L 581 3500 
L 1159 3500 
L 1159 2969 
Q 1341 3281 1617 3432 
Q 1894 3584 2278 3584 
Q 2916 3584 3314 3078 
Q 3713 2572 3713 1747 
Q 3713 922 3314 415 
Q 2916 -91 2278 -91 
Q 1894 -91 1617 61 
Q 1341 213 1159 525 
z
M 3116 1747 
Q 3116 2381 2855 2742 
Q 2594 3103 2138 3103 
Q 1681 3103 1420 2742 
Q 1159 2381 1159 1747 
Q 1159 1113 1420 752 
Q 1681 391 2138 391 
Q 2594 391 2855 752 
Q 3116 1113 3116 1747 
z
" transform="scale(0.015625)"/>
       <path id="DejaVuSans-6f" d="M 1959 3097 
Q 1497 3097 1228 2736 
Q 959 2375 959 1747 
Q 959 1119 1226 758 
Q 1494 397 1959 397 
Q 2419 397 2687 759 
Q 2956 1122 2956 1747 
Q 2956 2369 2687 2733 
Q 2419 3097 1959 3097 
z
M 1959 3584 
Q 2709 3584 3137 3096 
Q 3566 2609 3566 1747 
Q 3566 888 3137 398 
Q 2709 -91 1959 -91 
Q 1206 -91 779 398 
Q 353 888 353 1747 
Q 353 2609 779 3096 
Q 1206 3584 1959 3584 
z
" transform="scale(0.015625)"/>
       <path id="DejaVuSans-63" d="M 3122 3366 
L 3122 2828 
Q 2878 2963 2633 3030 
Q 2388 3097 2138 3097 
Q 1578 3097 1268 2742 
Q 959 2388 959 1747 
Q 959 1106 1268 751 
Q 1578 397 2138 397 
Q 2388 397 2633 464 
Q 2878 531 3122 666 
L 3122 134 
Q 2881 22 2623 -34 
Q 2366 -91 2075 -91 
Q 1284 -91 818 406 
Q 353 903 353 1747 
Q 353 2603 823 3093 
Q 1294 3584 2113 3584 
Q 2378 3584 2631 3529 
Q 2884 3475 3122 3366 
z
" transform="scale(0.015625)"/>
       <path id="DejaVuSans-68" d="M 3513 2113 
L 3513 0 
L 2938 0 
L 2938 2094 
Q 2938 2591 2744 2837 
Q 2550 3084 2163 3084 
Q 1697 3084 1428 2787 
Q 1159 2491 1159 1978 
L 1159 0 
L 581 0 
L 581 4863 
L 1159 4863 
L 1159 2956 
Q 1366 3272 1645 3428 
Q 1925 3584 2291 3584 
Q 2894 3584 3203 3211 
Q 3513 2838 3513 2113 
z
" transform="scale(0.015625)"/>
      </defs>
      <use xlink:href="#DejaVuSans-45"/>
      <use xlink:href="#DejaVuSans-70" transform="translate(63.183594 0)"/>
      <use xlink:href="#DejaVuSans-6f" transform="translate(126.660156 0)"/>
      <use xlink:href="#DejaVuSans-63" transform="translate(187.841797 0)"/>
      <use xlink:href="#DejaVuSans-68" transform="translate(242.822266 0)"/>
     </g>
    </g>
   </g>
   <g id="matplotlib.axis_2">
    <g id="ytick_1">
     <g id="line2d_6">
      <defs>
       <path id="m308b306da4" d="M 0 0 
L -3.5 0 
" style="stroke: #000000; stroke-width: 0.8"/>
      </defs>
      <g>
       <use xlink:href="#m308b306da4" x="90" y="318.693766" style="stroke: #000000; stroke-width: 0.8"/>
      </g>
     </g>
     <g id="text_7">
      <!-- 0.4 -->
      <g transform="translate(67.096875 322.492985) scale(0.1 -0.1)">
       <defs>
        <path id="DejaVuSans-2e" d="M 684 794 
L 1344 794 
L 1344 0 
L 684 0 
L 684 794 
z
" transform="scale(0.015625)"/>
       </defs>
       <use xlink:href="#DejaVuSans-30"/>
       <use xlink:href="#DejaVuSans-2e" transform="translate(63.623047 0)"/>
       <use xlink:href="#DejaVuSans-34" transform="translate(95.410156 0)"/>
      </g>
     </g>
    </g>
    <g id="ytick_2">
     <g id="line2d_7">
      <g>
       <use xlink:href="#m308b306da4" x="90" y="268.224366" style="stroke: #000000; stroke-width: 0.8"/>
      </g>
     </g>
     <g id="text_8">
      <!-- 0.6 -->
      <g transform="translate(67.096875 272.023584) scale(0.1 -0.1)">
       <use xlink:href="#DejaVuSans-30"/>
       <use xlink:href="#DejaVuSans-2e" transform="translate(63.623047 0)"/>
       <use xlink:href="#DejaVuSans-36" transform="translate(95.410156 0)"/>
      </g>
     </g>
    </g>
    <g id="ytick_3">
     <g id="line2d_8">
      <g>
       <use xlink:href="#m308b306da4" x="90" y="217.754965" style="stroke: #000000; stroke-width: 0.8"/>
      </g>
     </g>
     <g id="text_9">
      <!-- 0.8 -->
      <g transform="translate(67.096875 221.554184) scale(0.1 -0.1)">
       <use xlink:href="#DejaVuSans-30"/>
       <use xlink:href="#DejaVuSans-2e" transform="translate(63.623047 0)"/>
       <use xlink:href="#DejaVuSans-38" transform="translate(95.410156 0)"/>
      </g>
     </g>
    </g>
    <g id="ytick_4">
     <g id="line2d_9">
      <g>
       <use xlink:href="#m308b306da4" x="90" y="167.285565" style="stroke: #000000; stroke-width: 0.8"/>
      </g>
     </g>
     <g id="text_10">
      <!-- 1.0 -->
      <g transform="translate(67.096875 171.084784) scale(0.1 -0.1)">
       <use xlink:href="#DejaVuSans-31"/>
       <use xlink:href="#DejaVuSans-2e" transform="translate(63.623047 0)"/>
       <use xlink:href="#DejaVuSans-30" transform="translate(95.410156 0)"/>
      </g>
     </g>
    </g>
    <g id="ytick_5">
     <g id="line2d_10">
      <g>
       <use xlink:href="#m308b306da4" x="90" y="116.816165" style="stroke: #000000; stroke-width: 0.8"/>
      </g>
     </g>
     <g id="text_11">
      <!-- 1.2 -->
      <g transform="translate(67.096875 120.615383) scale(0.1 -0.1)">
       <use xlink:href="#DejaVuSans-31"/>
       <use xlink:href="#DejaVuSans-2e" transform="translate(63.623047 0)"/>
       <use xlink:href="#DejaVuSans-32" transform="translate(95.410156 0)"/>
      </g>
     </g>
    </g>
    <g id="ytick_6">
     <g id="line2d_11">
      <g>
       <use xlink:href="#m308b306da4" x="90" y="66.346764" style="stroke: #000000; stroke-width: 0.8"/>
      </g>
     </g>
     <g id="text_12">
      <!-- 1.4 -->
      <g transform="translate(67.096875 70.145983) scale(0.1 -0.1)">
       <use xlink:href="#DejaVuSans-31"/>
       <use xlink:href="#DejaVuSans-2e" transform="translate(63.623047 0)"/>
       <use xlink:href="#DejaVuSans-34" transform="translate(95.410156 0)"/>
      </g>
     </g>
    </g>
    <g id="text_13">
     <!-- Estimation Loss -->
     <g transform="translate(61.017187 220.98125) rotate(-90) scale(0.1 -0.1)">
      <defs>
       <path id="DejaVuSans-73" d="M 2834 3397 
L 2834 2853 
Q 2591 2978 2328 3040 
Q 2066 3103 1784 3103 
Q 1356 3103 1142 2972 
Q 928 2841 928 2578 
Q 928 2378 1081 2264 
Q 1234 2150 1697 2047 
L 1894 2003 
Q 2506 1872 2764 1633 
Q 3022 1394 3022 966 
Q 3022 478 2636 193 
Q 2250 -91 1575 -91 
Q 1294 -91 989 -36 
Q 684 19 347 128 
L 347 722 
Q 666 556 975 473 
Q 1284 391 1588 391 
Q 1994 391 2212 530 
Q 2431 669 2431 922 
Q 2431 1156 2273 1281 
Q 2116 1406 1581 1522 
L 1381 1569 
Q 847 1681 609 1914 
Q 372 2147 372 2553 
Q 372 3047 722 3315 
Q 1072 3584 1716 3584 
Q 2034 3584 2315 3537 
Q 2597 3491 2834 3397 
z
" transform="scale(0.015625)"/>
       <path id="DejaVuSans-74" d="M 1172 4494 
L 1172 3500 
L 2356 3500 
L 2356 3053 
L 1172 3053 
L 1172 1153 
Q 1172 725 1289 603 
Q 1406 481 1766 481 
L 2356 481 
L 2356 0 
L 1766 0 
Q 1100 0 847 248 
Q 594 497 594 1153 
L 594 3053 
L 172 3053 
L 172 3500 
L 594 3500 
L 594 4494 
L 1172 4494 
z
" transform="scale(0.015625)"/>
       <path id="DejaVuSans-69" d="M 603 3500 
L 1178 3500 
L 1178 0 
L 603 0 
L 603 3500 
z
M 603 4863 
L 1178 4863 
L 1178 4134 
L 603 4134 
L 603 4863 
z
" transform="scale(0.015625)"/>
       <path id="DejaVuSans-6d" d="M 3328 2828 
Q 3544 3216 3844 3400 
Q 4144 3584 4550 3584 
Q 5097 3584 5394 3201 
Q 5691 2819 5691 2113 
L 5691 0 
L 5113 0 
L 5113 2094 
Q 5113 2597 4934 2840 
Q 4756 3084 4391 3084 
Q 3944 3084 3684 2787 
Q 3425 2491 3425 1978 
L 3425 0 
L 2847 0 
L 2847 2094 
Q 2847 2600 2669 2842 
Q 2491 3084 2119 3084 
Q 1678 3084 1418 2786 
Q 1159 2488 1159 1978 
L 1159 0 
L 581 0 
L 581 3500 
L 1159 3500 
L 1159 2956 
Q 1356 3278 1631 3431 
Q 1906 3584 2284 3584 
Q 2666 3584 2933 3390 
Q 3200 3197 3328 2828 
z
" transform="scale(0.015625)"/>
       <path id="DejaVuSans-61" d="M 2194 1759 
Q 1497 1759 1228 1600 
Q 959 1441 959 1056 
Q 959 750 1161 570 
Q 1363 391 1709 391 
Q 2188 391 2477 730 
Q 2766 1069 2766 1631 
L 2766 1759 
L 2194 1759 
z
M 3341 1997 
L 3341 0 
L 2766 0 
L 2766 531 
Q 2569 213 2275 61 
Q 1981 -91 1556 -91 
Q 1019 -91 701 211 
Q 384 513 384 1019 
Q 384 1609 779 1909 
Q 1175 2209 1959 2209 
L 2766 2209 
L 2766 2266 
Q 2766 2663 2505 2880 
Q 2244 3097 1772 3097 
Q 1472 3097 1187 3025 
Q 903 2953 641 2809 
L 641 3341 
Q 956 3463 1253 3523 
Q 1550 3584 1831 3584 
Q 2591 3584 2966 3190 
Q 3341 2797 3341 1997 
z
" transform="scale(0.015625)"/>
       <path id="DejaVuSans-6e" d="M 3513 2113 
L 3513 0 
L 2938 0 
L 2938 2094 
Q 2938 2591 2744 2837 
Q 2550 3084 2163 3084 
Q 1697 3084 1428 2787 
Q 1159 2491 1159 1978 
L 1159 0 
L 581 0 
L 581 3500 
L 1159 3500 
L 1159 2956 
Q 1366 3272 1645 3428 
Q 1925 3584 2291 3584 
Q 2894 3584 3203 3211 
Q 3513 2838 3513 2113 
z
" transform="scale(0.015625)"/>
       <path id="DejaVuSans-20" transform="scale(0.015625)"/>
       <path id="DejaVuSans-4c" d="M 628 4666 
L 1259 4666 
L 1259 531 
L 3531 531 
L 3531 0 
L 628 0 
L 628 4666 
z
" transform="scale(0.015625)"/>
      </defs>
      <use xlink:href="#DejaVuSans-45"/>
      <use xlink:href="#DejaVuSans-73" transform="translate(63.183594 0)"/>
      <use xlink:href="#DejaVuSans-74" transform="translate(115.283203 0)"/>
      <use xlink:href="#DejaVuSans-69" transform="translate(154.492188 0)"/>
      <use xlink:href="#DejaVuSans-6d" transform="translate(182.275391 0)"/>
      <use xlink:href="#DejaVuSans-61" transform="translate(279.6875 0)"/>
      <use xlink:href="#DejaVuSans-74" transform="translate(340.966797 0)"/>
      <use xlink:href="#DejaVuSans-69" transform="translate(380.175781 0)"/>
      <use xlink:href="#DejaVuSans-6f" transform="translate(407.958984 0)"/>
      <use xlink:href="#DejaVuSans-6e" transform="translate(469.140625 0)"/>
      <use xlink:href="#DejaVuSans-20" transform="translate(532.519531 0)"/>
      <use xlink:href="#DejaVuSans-4c" transform="translate(564.306641 0)"/>
      <use xlink:href="#DejaVuSans-6f" transform="translate(618.269531 0)"/>
      <use xlink:href="#DejaVuSans-73" transform="translate(679.451172 0)"/>
      <use xlink:href="#DejaVuSans-73" transform="translate(731.550781 0)"/>
     </g>
    </g>
   </g>
   <g id="line2d_12">
    <path d="M 115.363636 199.630458 
L 117.060201 273.881841 
L 118.756765 283.220024 
L 120.453329 286.302954 
L 122.149894 287.799234 
L 123.846458 288.856412 
L 125.543022 289.764216 
L 128.936151 291.209533 
L 132.329279 292.488303 
L 137.418972 293.980449 
L 142.508665 295.001342 
L 145.901794 295.349629 
L 156.08118 296.303264 
L 164.564001 297.441363 
L 166.260566 297.742527 
L 169.653694 298.160575 
L 173.046823 298.621954 
L 174.743387 298.634729 
L 178.136516 298.830384 
L 184.922773 299.054657 
L 195.102159 299.914632 
L 201.888416 300.560963 
L 206.978109 300.860721 
L 212.067802 300.888351 
L 220.550623 300.744394 
L 223.943752 300.899849 
L 237.516266 302.363007 
L 242.605959 302.632092 
L 245.999088 302.584992 
L 247.695652 302.497464 
L 249.392216 302.278345 
L 252.785345 301.602161 
L 254.481909 301.382935 
L 256.178474 301.456293 
L 257.875038 301.641351 
L 262.964731 302.713357 
L 269.750988 303.397571 
L 276.537245 303.788495 
L 281.626938 303.939211 
L 286.716631 303.734437 
L 288.413196 303.282012 
L 290.10976 302.56661 
L 291.806324 302.093241 
L 293.502888 302.193131 
L 298.592581 303.431801 
L 305.378839 304.092115 
L 322.344482 304.811328 
L 325.73761 304.803624 
L 327.434175 304.767896 
L 329.130739 304.537923 
L 330.827303 303.835069 
L 332.523867 302.929253 
L 334.220432 302.761102 
L 335.916996 303.004656 
L 339.310125 303.933903 
L 342.703253 304.47039 
L 347.792946 304.89331 
L 351.186075 305.066032 
L 363.062025 305.355245 
L 364.758589 305.326398 
L 366.455154 305.022552 
L 368.151718 304.129815 
L 369.848282 302.985494 
L 371.544846 303.127392 
L 374.937975 304.438301 
L 378.331104 304.963081 
L 388.51049 305.681577 
L 400.38644 306.160394 
L 408.869261 306.288956 
L 410.565825 306.225512 
L 412.26239 305.857905 
L 413.958954 304.500969 
L 415.655518 303.821812 
L 417.352083 304.380754 
L 419.048647 305.128355 
L 422.441776 305.751191 
L 427.531469 306.142604 
L 432.621161 306.357399 
L 437.710854 306.549923 
L 442.800547 306.673225 
L 451.283369 306.764547 
L 454.676497 306.630527 
L 456.373062 305.910995 
L 458.069626 304.344685 
L 459.76619 304.486118 
L 461.462755 305.360877 
L 463.159319 305.830627 
L 466.552448 306.313656 
L 473.338705 306.652805 
L 486.911219 307.051121 
L 493.697476 307.110528 
L 497.090605 307.210127 
L 498.787169 307.12202 
L 500.483734 307.183377 
L 503.876862 307.077059 
L 505.573427 307.09214 
L 507.269991 306.965986 
L 508.966555 306.702905 
L 510.663119 305.848646 
L 512.359684 304.61738 
L 514.056248 304.690654 
L 515.752812 305.520318 
L 517.449377 306.162664 
L 519.145941 306.471484 
L 524.235634 306.891802 
L 529.325327 307.097 
L 553.077227 307.477045 
L 566.649742 307.375159 
L 568.346306 306.945699 
L 570.04287 304.90169 
L 571.739434 305.266301 
L 573.435999 306.137557 
L 575.132563 306.636753 
L 576.829127 306.930286 
L 581.91882 307.211025 
L 587.008513 307.398038 
L 588.705078 307.373481 
L 590.401642 307.461817 
L 593.79477 307.468299 
L 600.581028 307.611698 
L 609.063849 307.716977 
L 619.243235 307.767026 
L 622.636364 307.8 
L 622.636364 307.8 
" clip-path="url(#p6041442a04)" style="fill: none; stroke: #1f77b4; stroke-width: 1.5; stroke-linecap: square"/>
   </g>
   <g id="line2d_13">
    <path d="M 115.363636 154.375484 
L 117.060201 250.843106 
L 118.756765 262.872207 
L 120.453329 266.268651 
L 122.149894 267.459945 
L 123.846458 268.182552 
L 127.239587 268.968915 
L 132.329279 269.90394 
L 135.722408 270.275869 
L 144.20523 270.455186 
L 147.598358 270.213171 
L 152.688051 270.231858 
L 154.384615 270.323588 
L 157.777744 270.116358 
L 159.474308 270.155992 
L 164.564001 269.904219 
L 167.95713 269.284352 
L 169.653694 268.828144 
L 173.046823 268.603712 
L 176.439951 268.501723 
L 178.136516 268.32818 
L 179.83308 268.407977 
L 181.529644 268.230149 
L 186.619337 268.168263 
L 188.315901 268.323256 
L 191.70903 268.171782 
L 193.405594 267.778295 
L 195.102159 267.505558 
L 196.798723 267.685061 
L 198.495287 267.082915 
L 200.191852 267.045258 
L 201.888416 266.584772 
L 206.978109 266.489036 
L 208.674673 265.927871 
L 210.371237 265.884856 
L 212.067802 266.51066 
L 213.764366 266.915378 
L 215.46093 266.925642 
L 217.157495 267.31253 
L 218.854059 267.390744 
L 222.247188 267.99063 
L 227.336881 266.936377 
L 230.730009 266.52816 
L 232.426573 265.547666 
L 234.123138 265.458042 
L 235.819702 264.77504 
L 237.516266 264.244541 
L 240.909395 263.580401 
L 242.605959 262.955797 
L 245.999088 262.999878 
L 247.695652 263.625212 
L 251.088781 265.486243 
L 252.785345 266.875856 
L 254.481909 267.414461 
L 256.178474 267.484551 
L 257.875038 267.147173 
L 259.571602 266.933764 
L 261.268167 266.198734 
L 262.964731 265.952782 
L 264.661295 265.146493 
L 266.35786 264.692301 
L 269.750988 263.124564 
L 273.144117 262.446763 
L 274.840681 261.808662 
L 276.537245 261.343249 
L 278.23381 261.004143 
L 279.930374 260.430431 
L 281.626938 260.588232 
L 283.323503 260.29503 
L 285.020067 260.680192 
L 286.716631 261.739029 
L 288.413196 263.059352 
L 290.10976 264.897775 
L 291.806324 267.016825 
L 293.502888 267.222102 
L 295.199453 267.181369 
L 296.896017 266.741529 
L 298.592581 265.998882 
L 300.289146 265.119692 
L 301.98571 264.76813 
L 303.682274 264.128206 
L 305.378839 263.355284 
L 307.075403 263.254763 
L 310.468531 262.536441 
L 312.165096 261.849306 
L 315.558224 260.780915 
L 318.951353 260.354504 
L 320.647917 260.000645 
L 324.041046 259.826701 
L 327.434175 260.02141 
L 329.130739 260.740915 
L 330.827303 262.705299 
L 332.523867 265.129401 
L 334.220432 265.541312 
L 335.916996 264.387139 
L 337.61356 263.674887 
L 339.310125 263.186683 
L 341.006689 262.276688 
L 342.703253 261.598213 
L 344.399818 260.767182 
L 346.096382 260.208126 
L 347.792946 259.018825 
L 349.48951 258.555065 
L 351.186075 257.494991 
L 352.882639 256.797372 
L 354.579203 256.394842 
L 356.275768 255.587553 
L 357.972332 255.61343 
L 359.668896 255.208087 
L 361.365461 254.57065 
L 363.062025 254.66625 
L 364.758589 255.371934 
L 366.455154 258.452174 
L 368.151718 261.836911 
L 369.848282 263.369403 
L 371.544846 263.026582 
L 373.241411 262.081459 
L 374.937975 260.443975 
L 376.634539 259.475127 
L 378.331104 259.182151 
L 383.420797 256.429848 
L 385.117361 255.736202 
L 386.813925 254.638027 
L 388.51049 254.404512 
L 391.903618 253.225222 
L 393.600182 252.927499 
L 395.296747 252.335724 
L 398.689875 251.347707 
L 400.38644 250.434944 
L 402.083004 249.938809 
L 405.476133 249.976023 
L 407.172697 250.514135 
L 410.565825 254.115154 
L 412.26239 256.459122 
L 413.958954 261.023544 
L 415.655518 263.328671 
L 417.352083 262.477191 
L 419.048647 259.802305 
L 420.745211 255.701443 
L 422.441776 256.409171 
L 424.13834 256.837407 
L 425.834904 255.187126 
L 427.531469 253.924201 
L 429.228033 254.17059 
L 430.924597 254.015676 
L 432.621161 253.345426 
L 434.317726 252.986037 
L 436.01429 252.291615 
L 437.710854 250.305299 
L 439.407419 251.089985 
L 441.103983 250.138888 
L 442.800547 248.880984 
L 444.497112 248.066471 
L 446.193676 248.286184 
L 449.586804 249.112827 
L 451.283369 250.258118 
L 452.979933 252.463716 
L 454.676497 255.372631 
L 456.373062 259.92377 
L 458.069626 262.842841 
L 459.76619 262.795398 
L 461.462755 261.778751 
L 463.159319 260.551144 
L 464.855883 259.598008 
L 468.249012 257.339202 
L 469.945576 256.863827 
L 471.64214 255.371137 
L 473.338705 255.744376 
L 475.035269 254.492624 
L 476.731833 253.679783 
L 478.428398 254.388723 
L 480.124962 253.131197 
L 481.821526 253.697907 
L 483.518091 252.990682 
L 485.214655 252.872487 
L 486.911219 251.713139 
L 488.607784 252.935681 
L 490.304348 251.241886 
L 492.000912 250.974222 
L 493.697476 250.301539 
L 495.394041 251.436358 
L 497.090605 251.664959 
L 498.787169 252.393016 
L 502.180298 253.469867 
L 503.876862 256.009029 
L 505.573427 258.004362 
L 507.269991 260.480539 
L 508.966555 263.346838 
L 510.663119 264.437097 
L 512.359684 263.927742 
L 514.056248 265.217085 
L 515.752812 264.207039 
L 517.449377 262.094129 
L 519.145941 262.141993 
L 520.842505 261.711309 
L 522.53907 260.62273 
L 524.235634 260.013535 
L 525.932198 260.607731 
L 527.628763 260.414146 
L 529.325327 259.81101 
L 531.021891 259.4955 
L 532.718455 257.661691 
L 534.41502 258.442831 
L 536.111584 258.314335 
L 539.504713 257.213362 
L 541.201277 258.376562 
L 542.897841 257.868961 
L 544.594406 256.655223 
L 546.29097 257.245781 
L 547.987534 256.677493 
L 549.684099 255.834478 
L 553.077227 256.067224 
L 554.773791 256.700262 
L 556.470356 255.852629 
L 558.16692 257.610424 
L 559.863484 257.377974 
L 561.560049 257.990822 
L 563.256613 258.147882 
L 564.953177 259.198794 
L 566.649742 261.917373 
L 568.346306 263.470632 
L 570.04287 265.435673 
L 571.739434 260.599632 
L 573.435999 259.680705 
L 575.132563 260.235574 
L 576.829127 259.279233 
L 578.525692 258.848251 
L 580.222256 258.56466 
L 581.91882 258.013813 
L 583.615385 258.536812 
L 585.311949 259.213511 
L 587.008513 258.93741 
L 588.705078 259.394296 
L 590.401642 258.580032 
L 592.098206 259.25948 
L 593.79477 259.324816 
L 595.491335 260.233923 
L 597.187899 260.025277 
L 598.884463 258.653403 
L 600.581028 258.772846 
L 602.277592 258.062397 
L 603.974156 258.837957 
L 605.670721 257.871686 
L 607.367285 258.764349 
L 609.063849 257.480665 
L 610.760413 258.377693 
L 612.456978 257.046534 
L 614.153542 256.84376 
L 615.850106 256.795131 
L 619.243235 256.050863 
L 620.939799 255.510683 
L 622.636364 256.393447 
L 622.636364 256.393447 
" clip-path="url(#p6041442a04)" style="fill: none; stroke: #ff7f0e; stroke-width: 1.5; stroke-linecap: square"/>
   </g>
   <g id="line2d_14">
    <path d="M 115.363636 132.114203 
L 117.060201 161.116815 
L 118.756765 169.169488 
L 120.453329 172.627267 
L 123.846458 176.666616 
L 125.543022 178.129609 
L 127.239587 179.018501 
L 128.936151 180.505061 
L 130.632715 181.784023 
L 134.025844 183.819507 
L 135.722408 184.341483 
L 139.115537 185.889215 
L 144.20523 187.423129 
L 145.901794 187.123968 
L 147.598358 187.645998 
L 149.294922 187.708947 
L 150.991487 188.177831 
L 152.688051 188.24591 
L 154.384615 188.964115 
L 156.08118 189.364284 
L 157.777744 189.400654 
L 159.474308 190.020287 
L 161.170873 190.152323 
L 164.564001 190.844988 
L 166.260566 191.526453 
L 169.653694 192.390869 
L 171.350258 192.709298 
L 174.743387 192.910352 
L 176.439951 192.654558 
L 178.136516 193.172168 
L 179.83308 193.136212 
L 184.922773 193.458591 
L 186.619337 193.776088 
L 188.315901 193.788711 
L 190.012466 193.921345 
L 191.70903 194.181256 
L 193.405594 194.575011 
L 195.102159 194.500623 
L 196.798723 194.894093 
L 200.191852 195.235191 
L 201.888416 195.461778 
L 206.978109 195.604743 
L 208.674673 196.223617 
L 210.371237 196.594606 
L 212.067802 196.431987 
L 213.764366 196.648442 
L 215.46093 196.371809 
L 220.550623 196.219858 
L 222.247188 196.270636 
L 223.943752 196.719517 
L 225.640316 197.01302 
L 227.336881 197.184747 
L 229.033445 197.591217 
L 230.730009 197.539992 
L 232.426573 197.917216 
L 234.123138 198.175936 
L 239.212831 198.524522 
L 240.909395 198.751292 
L 247.695652 198.351058 
L 249.392216 198.051027 
L 251.088781 197.905863 
L 252.785345 197.11818 
L 254.481909 197.311178 
L 256.178474 197.002148 
L 257.875038 197.75318 
L 259.571602 198.315017 
L 262.964731 199.092723 
L 266.35786 199.104241 
L 268.054424 199.418826 
L 269.750988 199.53811 
L 271.447552 199.845813 
L 273.144117 199.753708 
L 276.537245 200.093482 
L 283.323503 200.262066 
L 285.020067 200.379807 
L 286.716631 200.156571 
L 288.413196 199.555631 
L 290.10976 198.28086 
L 293.502888 198.420106 
L 296.896017 199.237889 
L 298.592581 199.762725 
L 305.378839 200.795434 
L 308.771967 200.46894 
L 310.468531 200.506439 
L 313.86166 201.062163 
L 315.558224 200.962475 
L 317.254789 200.99838 
L 318.951353 201.235768 
L 322.344482 201.083834 
L 325.73761 201.29243 
L 327.434175 201.087511 
L 329.130739 200.767442 
L 330.827303 199.151637 
L 332.523867 198.671223 
L 334.220432 198.874223 
L 335.916996 199.673313 
L 337.61356 200.239125 
L 339.310125 200.520902 
L 341.006689 201.045701 
L 342.703253 201.10264 
L 344.399818 201.505519 
L 346.096382 201.44348 
L 347.792946 201.575375 
L 349.48951 201.226618 
L 351.186075 201.864803 
L 352.882639 201.918074 
L 354.579203 201.787665 
L 357.972332 202.024883 
L 359.668896 201.932128 
L 361.365461 202.1965 
L 363.062025 202.250945 
L 364.758589 202.151443 
L 366.455154 200.842281 
L 368.151718 199.32602 
L 369.848282 199.429682 
L 371.544846 199.923236 
L 373.241411 200.943855 
L 374.937975 201.164448 
L 376.634539 201.701708 
L 378.331104 201.288922 
L 380.027668 202.32091 
L 381.724232 202.370331 
L 383.420797 202.66914 
L 386.813925 202.759331 
L 388.51049 203.073016 
L 390.207054 202.860172 
L 391.903618 203.27179 
L 393.600182 203.478692 
L 395.296747 203.318873 
L 396.993311 203.47083 
L 398.689875 203.467651 
L 400.38644 203.66828 
L 402.083004 203.430164 
L 403.779568 203.924736 
L 405.476133 203.594855 
L 407.172697 204.087392 
L 408.869261 203.697 
L 410.565825 203.815731 
L 412.26239 203.276344 
L 413.958954 200.796458 
L 415.655518 200.984391 
L 417.352083 202.510951 
L 419.048647 203.732155 
L 420.745211 203.523592 
L 422.441776 204.024439 
L 425.834904 204.119866 
L 429.228033 204.549752 
L 430.924597 204.344133 
L 432.621161 204.680036 
L 434.317726 204.802803 
L 436.01429 204.620692 
L 437.710854 204.781299 
L 439.407419 204.754129 
L 441.103983 205.033308 
L 442.800547 205.022527 
L 444.497112 204.88028 
L 446.193676 205.306352 
L 449.586804 205.245769 
L 451.283369 205.146468 
L 452.979933 205.277471 
L 454.676497 205.253085 
L 456.373062 203.236374 
L 458.069626 201.886302 
L 459.76619 203.451161 
L 461.462755 204.791048 
L 463.159319 204.752948 
L 464.855883 205.346664 
L 469.945576 205.307544 
L 471.64214 205.85994 
L 473.338705 205.60012 
L 480.124962 205.882613 
L 481.821526 205.652846 
L 483.518091 205.984609 
L 485.214655 205.842996 
L 488.607784 205.903436 
L 490.304348 206.333386 
L 492.000912 206.010603 
L 493.697476 206.0409 
L 497.090605 206.31616 
L 498.787169 205.839119 
L 500.483734 206.273588 
L 508.966555 205.723945 
L 510.663119 203.863896 
L 512.359684 202.737733 
L 514.056248 204.101784 
L 517.449377 205.553532 
L 520.842505 205.816528 
L 522.53907 206.166734 
L 524.235634 205.926362 
L 525.932198 206.141006 
L 527.628763 206.09134 
L 532.718455 206.424016 
L 534.41502 206.740126 
L 536.111584 206.493226 
L 537.808148 206.885333 
L 539.504713 206.465144 
L 542.897841 206.628982 
L 546.29097 206.917647 
L 549.684099 206.929339 
L 551.380663 206.504044 
L 554.773791 206.945678 
L 556.470356 207.00432 
L 558.16692 206.714565 
L 559.863484 206.959674 
L 561.560049 206.671185 
L 563.256613 206.930875 
L 564.953177 207.046594 
L 566.649742 206.662391 
L 568.346306 205.35571 
L 570.04287 203.631767 
L 571.739434 205.427604 
L 573.435999 206.275111 
L 578.525692 206.710743 
L 580.222256 206.599569 
L 581.91882 206.810792 
L 583.615385 206.762634 
L 585.311949 206.946096 
L 587.008513 206.504336 
L 588.705078 206.587861 
L 590.401642 206.87984 
L 593.79477 206.817915 
L 595.491335 207.228798 
L 597.187899 207.330773 
L 598.884463 207.258731 
L 602.277592 207.234926 
L 605.670721 206.908955 
L 609.063849 207.227687 
L 610.760413 207.425555 
L 612.456978 207.339205 
L 614.153542 207.521563 
L 615.850106 207.448079 
L 617.546671 207.190828 
L 619.243235 207.593559 
L 622.636364 207.280811 
L 622.636364 207.280811 
" clip-path="url(#p6041442a04)" style="fill: none; stroke: #2ca02c; stroke-width: 1.5; stroke-linecap: square"/>
   </g>
   <g id="line2d_15">
    <path d="M 115.363636 55.8 
L 117.060201 96.226336 
L 118.756765 106.054704 
L 120.453329 109.941304 
L 122.149894 111.432419 
L 123.846458 112.427387 
L 127.239587 113.765424 
L 128.936151 114.1867 
L 130.632715 114.404236 
L 134.025844 115.493454 
L 137.418972 115.632573 
L 139.115537 115.722549 
L 140.812101 116.05276 
L 144.20523 116.504413 
L 145.901794 116.267445 
L 147.598358 115.768432 
L 150.991487 116.209202 
L 152.688051 116.232552 
L 154.384615 116.522149 
L 156.08118 116.347856 
L 161.170873 116.113886 
L 162.867437 115.776627 
L 164.564001 115.701581 
L 167.95713 114.508847 
L 169.653694 113.97072 
L 171.350258 114.133164 
L 173.046823 113.46191 
L 174.743387 114.290792 
L 176.439951 113.941033 
L 179.83308 114.445891 
L 181.529644 113.952631 
L 183.226209 113.992675 
L 188.315901 113.495033 
L 190.012466 113.611015 
L 191.70903 112.388524 
L 193.405594 111.54794 
L 195.102159 112.464339 
L 198.495287 111.46171 
L 200.191852 111.419264 
L 201.888416 110.625868 
L 203.58498 110.093338 
L 205.281545 110.00954 
L 206.978109 110.037085 
L 208.674673 109.225558 
L 210.371237 109.170889 
L 212.067802 111.125288 
L 213.764366 111.972903 
L 215.46093 111.382983 
L 218.854059 112.539775 
L 220.550623 111.723855 
L 222.247188 113.221981 
L 223.943752 112.505978 
L 225.640316 111.534473 
L 227.336881 110.961121 
L 229.033445 110.839452 
L 230.730009 109.686492 
L 232.426573 108.126634 
L 234.123138 107.706516 
L 235.819702 105.537077 
L 239.212831 104.356614 
L 240.909395 101.426975 
L 242.605959 101.104824 
L 244.302524 102.269665 
L 245.999088 101.822071 
L 247.695652 104.611321 
L 249.392216 105.634623 
L 251.088781 109.290517 
L 252.785345 112.182175 
L 254.481909 111.353203 
L 256.178474 111.086354 
L 257.875038 111.587928 
L 259.571602 109.667949 
L 261.268167 108.761075 
L 262.964731 107.408926 
L 264.661295 105.760542 
L 266.35786 105.327123 
L 268.054424 101.99383 
L 269.750988 102.17961 
L 271.447552 99.636487 
L 273.144117 100.094782 
L 274.840681 97.859627 
L 276.537245 99.094086 
L 278.23381 95.20226 
L 279.930374 93.484003 
L 281.626938 95.56286 
L 283.323503 93.385005 
L 285.020067 97.820201 
L 286.716631 99.995382 
L 288.413196 102.782432 
L 290.10976 109.255941 
L 291.806324 110.164563 
L 293.502888 110.276908 
L 295.199453 109.869266 
L 296.896017 108.028488 
L 298.592581 106.559486 
L 301.98571 103.330664 
L 303.682274 101.251749 
L 305.378839 101.460064 
L 307.075403 100.305765 
L 308.771967 99.634727 
L 310.468531 98.484548 
L 312.165096 98.107624 
L 313.86166 95.92061 
L 315.558224 94.379323 
L 317.254789 96.296975 
L 318.951353 92.492535 
L 320.647917 93.275513 
L 322.344482 91.437185 
L 324.041046 91.617245 
L 325.73761 93.053689 
L 327.434175 92.950678 
L 329.130739 96.313574 
L 330.827303 104.972317 
L 332.523867 107.714706 
L 337.61356 103.241388 
L 339.310125 100.254302 
L 341.006689 97.615402 
L 342.703253 96.123537 
L 344.399818 94.144178 
L 346.096382 90.520556 
L 347.792946 89.440262 
L 349.48951 86.010162 
L 351.186075 89.351219 
L 352.882639 85.829049 
L 354.579203 81.299839 
L 356.275768 84.491161 
L 357.972332 87.019533 
L 359.668896 84.754241 
L 361.365461 75.602663 
L 363.062025 83.572587 
L 364.758589 87.158797 
L 366.455154 94.093572 
L 368.151718 102.659966 
L 369.848282 102.620101 
L 371.544846 104.41014 
L 373.241411 94.692727 
L 374.937975 92.605148 
L 376.634539 94.084973 
L 378.331104 97.075339 
L 380.027668 88.230448 
L 381.724232 90.181892 
L 383.420797 87.611002 
L 385.117361 83.419988 
L 386.813925 85.608531 
L 388.51049 83.388656 
L 390.207054 84.475974 
L 391.903618 81.430274 
L 393.600182 73.100298 
L 395.296747 81.712046 
L 396.993311 79.202611 
L 398.689875 78.767087 
L 402.083004 77.184148 
L 403.779568 75.739133 
L 405.476133 78.774242 
L 407.172697 77.014651 
L 408.869261 87.02808 
L 410.565825 85.787473 
L 412.26239 93.344197 
L 413.958954 99.198956 
L 415.655518 99.417655 
L 417.352083 99.501981 
L 419.048647 89.756715 
L 420.745211 89.362249 
L 422.441776 90.292395 
L 424.13834 90.637104 
L 427.531469 85.320126 
L 429.228033 83.790646 
L 430.924597 86.681408 
L 432.621161 82.533873 
L 434.317726 84.577823 
L 436.01429 85.074844 
L 437.710854 79.515773 
L 439.407419 81.227539 
L 441.103983 74.195676 
L 442.800547 75.234758 
L 444.497112 74.879171 
L 446.193676 68.491518 
L 447.89024 65.276588 
L 451.283369 81.513743 
L 452.979933 83.96731 
L 454.676497 89.178983 
L 456.373062 100.609123 
L 458.069626 95.335918 
L 459.76619 93.867444 
L 461.462755 94.369464 
L 463.159319 97.123286 
L 464.855883 93.925315 
L 466.552448 93.775108 
L 469.945576 88.337475 
L 471.64214 85.078975 
L 473.338705 85.997727 
L 475.035269 84.745164 
L 476.731833 86.038618 
L 478.428398 81.934911 
L 480.124962 85.316102 
L 481.821526 85.475679 
L 483.518091 83.763665 
L 485.214655 85.688622 
L 486.911219 82.488239 
L 488.607784 83.309647 
L 490.304348 77.834456 
L 492.000912 78.993381 
L 493.697476 77.526184 
L 495.394041 82.350963 
L 497.090605 78.752435 
L 498.787169 80.875035 
L 500.483734 80.429524 
L 503.876862 89.578588 
L 505.573427 95.195232 
L 507.269991 97.863605 
L 508.966555 103.532703 
L 510.663119 102.178651 
L 512.359684 105.683008 
L 514.056248 101.586836 
L 515.752812 100.903522 
L 517.449377 98.75499 
L 520.842505 98.150411 
L 522.53907 93.024578 
L 524.235634 95.765393 
L 525.932198 94.773778 
L 527.628763 97.333526 
L 529.325327 98.036207 
L 531.021891 92.350643 
L 532.718455 91.403032 
L 534.41502 91.217687 
L 536.111584 90.45303 
L 537.808148 90.161867 
L 539.504713 89.375118 
L 541.201277 92.014134 
L 542.897841 93.217348 
L 544.594406 90.206167 
L 546.29097 89.377983 
L 547.987534 91.285347 
L 549.684099 88.08398 
L 551.380663 88.499063 
L 553.077227 89.02988 
L 554.773791 89.749266 
L 556.470356 86.758639 
L 558.16692 92.495847 
L 559.863484 91.687699 
L 561.560049 93.752474 
L 563.256613 95.385121 
L 564.953177 94.078479 
L 568.346306 106.482364 
L 570.04287 102.332838 
L 571.739434 97.01736 
L 573.435999 96.697689 
L 575.132563 96.615029 
L 576.829127 93.414423 
L 578.525692 94.29834 
L 580.222256 92.772594 
L 581.91882 94.18357 
L 583.615385 92.575816 
L 585.311949 95.264867 
L 587.008513 91.453498 
L 588.705078 96.142307 
L 590.401642 95.104981 
L 592.098206 93.83279 
L 593.79477 95.093663 
L 595.491335 94.612626 
L 597.187899 92.748581 
L 598.884463 87.183058 
L 600.581028 93.634814 
L 602.277592 94.992125 
L 603.974156 90.071996 
L 605.670721 94.391696 
L 607.367285 90.921421 
L 609.063849 88.240134 
L 610.760413 89.510735 
L 612.456978 89.050013 
L 614.153542 86.49611 
L 615.850106 90.081495 
L 617.546671 87.560397 
L 620.939799 85.037778 
L 622.636364 88.472588 
L 622.636364 88.472588 
" clip-path="url(#p6041442a04)" style="fill: none; stroke: #d62728; stroke-width: 1.5; stroke-linecap: square"/>
   </g>
   <g id="patch_3">
    <path d="M 90 320.4 
L 90 43.2 
" style="fill: none; stroke: #000000; stroke-width: 0.8; stroke-linejoin: miter; stroke-linecap: square"/>
   </g>
   <g id="patch_4">
    <path d="M 648 320.4 
L 648 43.2 
" style="fill: none; stroke: #000000; stroke-width: 0.8; stroke-linejoin: miter; stroke-linecap: square"/>
   </g>
   <g id="patch_5">
    <path d="M 90 320.4 
L 648 320.4 
" style="fill: none; stroke: #000000; stroke-width: 0.8; stroke-linejoin: miter; stroke-linecap: square"/>
   </g>
   <g id="patch_6">
    <path d="M 90 43.2 
L 648 43.2 
" style="fill: none; stroke: #000000; stroke-width: 0.8; stroke-linejoin: miter; stroke-linecap: square"/>
   </g>
   <g id="text_14">
    <!-- Training and Validating Estimation Loss -->
    <g transform="translate(251.535937 37.2) scale(0.12 -0.12)">
     <defs>
      <path id="DejaVuSans-54" d="M -19 4666 
L 3928 4666 
L 3928 4134 
L 2272 4134 
L 2272 0 
L 1638 0 
L 1638 4134 
L -19 4134 
L -19 4666 
z
" transform="scale(0.015625)"/>
      <path id="DejaVuSans-72" d="M 2631 2963 
Q 2534 3019 2420 3045 
Q 2306 3072 2169 3072 
Q 1681 3072 1420 2755 
Q 1159 2438 1159 1844 
L 1159 0 
L 581 0 
L 581 3500 
L 1159 3500 
L 1159 2956 
Q 1341 3275 1631 3429 
Q 1922 3584 2338 3584 
Q 2397 3584 2469 3576 
Q 2541 3569 2628 3553 
L 2631 2963 
z
" transform="scale(0.015625)"/>
      <path id="DejaVuSans-67" d="M 2906 1791 
Q 2906 2416 2648 2759 
Q 2391 3103 1925 3103 
Q 1463 3103 1205 2759 
Q 947 2416 947 1791 
Q 947 1169 1205 825 
Q 1463 481 1925 481 
Q 2391 481 2648 825 
Q 2906 1169 2906 1791 
z
M 3481 434 
Q 3481 -459 3084 -895 
Q 2688 -1331 1869 -1331 
Q 1566 -1331 1297 -1286 
Q 1028 -1241 775 -1147 
L 775 -588 
Q 1028 -725 1275 -790 
Q 1522 -856 1778 -856 
Q 2344 -856 2625 -561 
Q 2906 -266 2906 331 
L 2906 616 
Q 2728 306 2450 153 
Q 2172 0 1784 0 
Q 1141 0 747 490 
Q 353 981 353 1791 
Q 353 2603 747 3093 
Q 1141 3584 1784 3584 
Q 2172 3584 2450 3431 
Q 2728 3278 2906 2969 
L 2906 3500 
L 3481 3500 
L 3481 434 
z
" transform="scale(0.015625)"/>
      <path id="DejaVuSans-64" d="M 2906 2969 
L 2906 4863 
L 3481 4863 
L 3481 0 
L 2906 0 
L 2906 525 
Q 2725 213 2448 61 
Q 2172 -91 1784 -91 
Q 1150 -91 751 415 
Q 353 922 353 1747 
Q 353 2572 751 3078 
Q 1150 3584 1784 3584 
Q 2172 3584 2448 3432 
Q 2725 3281 2906 2969 
z
M 947 1747 
Q 947 1113 1208 752 
Q 1469 391 1925 391 
Q 2381 391 2643 752 
Q 2906 1113 2906 1747 
Q 2906 2381 2643 2742 
Q 2381 3103 1925 3103 
Q 1469 3103 1208 2742 
Q 947 2381 947 1747 
z
" transform="scale(0.015625)"/>
      <path id="DejaVuSans-56" d="M 1831 0 
L 50 4666 
L 709 4666 
L 2188 738 
L 3669 4666 
L 4325 4666 
L 2547 0 
L 1831 0 
z
" transform="scale(0.015625)"/>
      <path id="DejaVuSans-6c" d="M 603 4863 
L 1178 4863 
L 1178 0 
L 603 0 
L 603 4863 
z
" transform="scale(0.015625)"/>
     </defs>
     <use xlink:href="#DejaVuSans-54"/>
     <use xlink:href="#DejaVuSans-72" transform="translate(46.333984 0)"/>
     <use xlink:href="#DejaVuSans-61" transform="translate(87.447266 0)"/>
     <use xlink:href="#DejaVuSans-69" transform="translate(148.726562 0)"/>
     <use xlink:href="#DejaVuSans-6e" transform="translate(176.509766 0)"/>
     <use xlink:href="#DejaVuSans-69" transform="translate(239.888672 0)"/>
     <use xlink:href="#DejaVuSans-6e" transform="translate(267.671875 0)"/>
     <use xlink:href="#DejaVuSans-67" transform="translate(331.050781 0)"/>
     <use xlink:href="#DejaVuSans-20" transform="translate(394.527344 0)"/>
     <use xlink:href="#DejaVuSans-61" transform="translate(426.314453 0)"/>
     <use xlink:href="#DejaVuSans-6e" transform="translate(487.59375 0)"/>
     <use xlink:href="#DejaVuSans-64" transform="translate(550.972656 0)"/>
     <use xlink:href="#DejaVuSans-20" transform="translate(614.449219 0)"/>
     <use xlink:href="#DejaVuSans-56" transform="translate(646.236328 0)"/>
     <use xlink:href="#DejaVuSans-61" transform="translate(706.894531 0)"/>
     <use xlink:href="#DejaVuSans-6c" transform="translate(768.173828 0)"/>
     <use xlink:href="#DejaVuSans-69" transform="translate(795.957031 0)"/>
     <use xlink:href="#DejaVuSans-64" transform="translate(823.740234 0)"/>
     <use xlink:href="#DejaVuSans-61" transform="translate(887.216797 0)"/>
     <use xlink:href="#DejaVuSans-74" transform="translate(948.496094 0)"/>
     <use xlink:href="#DejaVuSans-69" transform="translate(987.705078 0)"/>
     <use xlink:href="#DejaVuSans-6e" transform="translate(1015.488281 0)"/>
     <use xlink:href="#DejaVuSans-67" transform="translate(1078.867188 0)"/>
     <use xlink:href="#DejaVuSans-20" transform="translate(1142.34375 0)"/>
     <use xlink:href="#DejaVuSans-45" transform="translate(1174.130859 0)"/>
     <use xlink:href="#DejaVuSans-73" transform="translate(1237.314453 0)"/>
     <use xlink:href="#DejaVuSans-74" transform="translate(1289.414062 0)"/>
     <use xlink:href="#DejaVuSans-69" transform="translate(1328.623047 0)"/>
     <use xlink:href="#DejaVuSans-6d" transform="translate(1356.40625 0)"/>
     <use xlink:href="#DejaVuSans-61" transform="translate(1453.818359 0)"/>
     <use xlink:href="#DejaVuSans-74" transform="translate(1515.097656 0)"/>
     <use xlink:href="#DejaVuSans-69" transform="translate(1554.306641 0)"/>
     <use xlink:href="#DejaVuSans-6f" transform="translate(1582.089844 0)"/>
     <use xlink:href="#DejaVuSans-6e" transform="translate(1643.271484 0)"/>
     <use xlink:href="#DejaVuSans-20" transform="translate(1706.650391 0)"/>
     <use xlink:href="#DejaVuSans-4c" transform="translate(1738.4375 0)"/>
     <use xlink:href="#DejaVuSans-6f" transform="translate(1792.400391 0)"/>
     <use xlink:href="#DejaVuSans-73" transform="translate(1853.582031 0)"/>
     <use xlink:href="#DejaVuSans-73" transform="translate(1905.681641 0)"/>
    </g>
   </g>
   <g id="legend_1">
    <g id="patch_7">
     <path d="M 97 109.9125 
L 216.560938 109.9125 
Q 218.560938 109.9125 218.560938 107.9125 
L 218.560938 50.2 
Q 218.560938 48.2 216.560938 48.2 
L 97 48.2 
Q 95 48.2 95 50.2 
L 95 107.9125 
Q 95 109.9125 97 109.9125 
z
" style="fill: #ffffff; opacity: 0.8; stroke: #cccccc; stroke-linejoin: miter"/>
    </g>
    <g id="line2d_16">
     <path d="M 99 56.298437 
L 109 56.298437 
L 119 56.298437 
" style="fill: none; stroke: #1f77b4; stroke-width: 1.5; stroke-linecap: square"/>
    </g>
    <g id="text_15">
     <!-- Training-Source -->
     <g transform="translate(127 59.798437) scale(0.1 -0.1)">
      <defs>
       <path id="DejaVuSans-2d" d="M 313 2009 
L 1997 2009 
L 1997 1497 
L 313 1497 
L 313 2009 
z
" transform="scale(0.015625)"/>
       <path id="DejaVuSans-53" d="M 3425 4513 
L 3425 3897 
Q 3066 4069 2747 4153 
Q 2428 4238 2131 4238 
Q 1616 4238 1336 4038 
Q 1056 3838 1056 3469 
Q 1056 3159 1242 3001 
Q 1428 2844 1947 2747 
L 2328 2669 
Q 3034 2534 3370 2195 
Q 3706 1856 3706 1288 
Q 3706 609 3251 259 
Q 2797 -91 1919 -91 
Q 1588 -91 1214 -16 
Q 841 59 441 206 
L 441 856 
Q 825 641 1194 531 
Q 1563 422 1919 422 
Q 2459 422 2753 634 
Q 3047 847 3047 1241 
Q 3047 1584 2836 1778 
Q 2625 1972 2144 2069 
L 1759 2144 
Q 1053 2284 737 2584 
Q 422 2884 422 3419 
Q 422 4038 858 4394 
Q 1294 4750 2059 4750 
Q 2388 4750 2728 4690 
Q 3069 4631 3425 4513 
z
" transform="scale(0.015625)"/>
       <path id="DejaVuSans-75" d="M 544 1381 
L 544 3500 
L 1119 3500 
L 1119 1403 
Q 1119 906 1312 657 
Q 1506 409 1894 409 
Q 2359 409 2629 706 
Q 2900 1003 2900 1516 
L 2900 3500 
L 3475 3500 
L 3475 0 
L 2900 0 
L 2900 538 
Q 2691 219 2414 64 
Q 2138 -91 1772 -91 
Q 1169 -91 856 284 
Q 544 659 544 1381 
z
M 1991 3584 
L 1991 3584 
z
" transform="scale(0.015625)"/>
       <path id="DejaVuSans-65" d="M 3597 1894 
L 3597 1613 
L 953 1613 
Q 991 1019 1311 708 
Q 1631 397 2203 397 
Q 2534 397 2845 478 
Q 3156 559 3463 722 
L 3463 178 
Q 3153 47 2828 -22 
Q 2503 -91 2169 -91 
Q 1331 -91 842 396 
Q 353 884 353 1716 
Q 353 2575 817 3079 
Q 1281 3584 2069 3584 
Q 2775 3584 3186 3129 
Q 3597 2675 3597 1894 
z
M 3022 2063 
Q 3016 2534 2758 2815 
Q 2500 3097 2075 3097 
Q 1594 3097 1305 2825 
Q 1016 2553 972 2059 
L 3022 2063 
z
" transform="scale(0.015625)"/>
      </defs>
      <use xlink:href="#DejaVuSans-54"/>
      <use xlink:href="#DejaVuSans-72" transform="translate(46.333984 0)"/>
      <use xlink:href="#DejaVuSans-61" transform="translate(87.447266 0)"/>
      <use xlink:href="#DejaVuSans-69" transform="translate(148.726562 0)"/>
      <use xlink:href="#DejaVuSans-6e" transform="translate(176.509766 0)"/>
      <use xlink:href="#DejaVuSans-69" transform="translate(239.888672 0)"/>
      <use xlink:href="#DejaVuSans-6e" transform="translate(267.671875 0)"/>
      <use xlink:href="#DejaVuSans-67" transform="translate(331.050781 0)"/>
      <use xlink:href="#DejaVuSans-2d" transform="translate(394.527344 0)"/>
      <use xlink:href="#DejaVuSans-53" transform="translate(430.611328 0)"/>
      <use xlink:href="#DejaVuSans-6f" transform="translate(494.087891 0)"/>
      <use xlink:href="#DejaVuSans-75" transform="translate(555.269531 0)"/>
      <use xlink:href="#DejaVuSans-72" transform="translate(618.648438 0)"/>
      <use xlink:href="#DejaVuSans-63" transform="translate(657.511719 0)"/>
      <use xlink:href="#DejaVuSans-65" transform="translate(712.492188 0)"/>
     </g>
    </g>
    <g id="line2d_17">
     <path d="M 99 70.976562 
L 109 70.976562 
L 119 70.976562 
" style="fill: none; stroke: #ff7f0e; stroke-width: 1.5; stroke-linecap: square"/>
    </g>
    <g id="text_16">
     <!-- Training-Target -->
     <g transform="translate(127 74.476562) scale(0.1 -0.1)">
      <use xlink:href="#DejaVuSans-54"/>
      <use xlink:href="#DejaVuSans-72" transform="translate(46.333984 0)"/>
      <use xlink:href="#DejaVuSans-61" transform="translate(87.447266 0)"/>
      <use xlink:href="#DejaVuSans-69" transform="translate(148.726562 0)"/>
      <use xlink:href="#DejaVuSans-6e" transform="translate(176.509766 0)"/>
      <use xlink:href="#DejaVuSans-69" transform="translate(239.888672 0)"/>
      <use xlink:href="#DejaVuSans-6e" transform="translate(267.671875 0)"/>
      <use xlink:href="#DejaVuSans-67" transform="translate(331.050781 0)"/>
      <use xlink:href="#DejaVuSans-2d" transform="translate(394.527344 0)"/>
      <use xlink:href="#DejaVuSans-54" transform="translate(421.486328 0)"/>
      <use xlink:href="#DejaVuSans-61" transform="translate(466.070312 0)"/>
      <use xlink:href="#DejaVuSans-72" transform="translate(527.349609 0)"/>
      <use xlink:href="#DejaVuSans-67" transform="translate(566.712891 0)"/>
      <use xlink:href="#DejaVuSans-65" transform="translate(630.189453 0)"/>
      <use xlink:href="#DejaVuSans-74" transform="translate(691.712891 0)"/>
     </g>
    </g>
    <g id="line2d_18">
     <path d="M 99 85.654687 
L 109 85.654687 
L 119 85.654687 
" style="fill: none; stroke: #2ca02c; stroke-width: 1.5; stroke-linecap: square"/>
    </g>
    <g id="text_17">
     <!-- Validating-Source -->
     <g transform="translate(127 89.154687) scale(0.1 -0.1)">
      <use xlink:href="#DejaVuSans-56"/>
      <use xlink:href="#DejaVuSans-61" transform="translate(60.658203 0)"/>
      <use xlink:href="#DejaVuSans-6c" transform="translate(121.9375 0)"/>
      <use xlink:href="#DejaVuSans-69" transform="translate(149.720703 0)"/>
      <use xlink:href="#DejaVuSans-64" transform="translate(177.503906 0)"/>
      <use xlink:href="#DejaVuSans-61" transform="translate(240.980469 0)"/>
      <use xlink:href="#DejaVuSans-74" transform="translate(302.259766 0)"/>
      <use xlink:href="#DejaVuSans-69" transform="translate(341.46875 0)"/>
      <use xlink:href="#DejaVuSans-6e" transform="translate(369.251953 0)"/>
      <use xlink:href="#DejaVuSans-67" transform="translate(432.630859 0)"/>
      <use xlink:href="#DejaVuSans-2d" transform="translate(496.107422 0)"/>
      <use xlink:href="#DejaVuSans-53" transform="translate(532.191406 0)"/>
      <use xlink:href="#DejaVuSans-6f" transform="translate(595.667969 0)"/>
      <use xlink:href="#DejaVuSans-75" transform="translate(656.849609 0)"/>
      <use xlink:href="#DejaVuSans-72" transform="translate(720.228516 0)"/>
      <use xlink:href="#DejaVuSans-63" transform="translate(759.091797 0)"/>
      <use xlink:href="#DejaVuSans-65" transform="translate(814.072266 0)"/>
     </g>
    </g>
    <g id="line2d_19">
     <path d="M 99 100.332812 
L 109 100.332812 
L 119 100.332812 
" style="fill: none; stroke: #d62728; stroke-width: 1.5; stroke-linecap: square"/>
    </g>
    <g id="text_18">
     <!-- Validating-Target -->
     <g transform="translate(127 103.832812) scale(0.1 -0.1)">
      <use xlink:href="#DejaVuSans-56"/>
      <use xlink:href="#DejaVuSans-61" transform="translate(60.658203 0)"/>
      <use xlink:href="#DejaVuSans-6c" transform="translate(121.9375 0)"/>
      <use xlink:href="#DejaVuSans-69" transform="translate(149.720703 0)"/>
      <use xlink:href="#DejaVuSans-64" transform="translate(177.503906 0)"/>
      <use xlink:href="#DejaVuSans-61" transform="translate(240.980469 0)"/>
      <use xlink:href="#DejaVuSans-74" transform="translate(302.259766 0)"/>
      <use xlink:href="#DejaVuSans-69" transform="translate(341.46875 0)"/>
      <use xlink:href="#DejaVuSans-6e" transform="translate(369.251953 0)"/>
      <use xlink:href="#DejaVuSans-67" transform="translate(432.630859 0)"/>
      <use xlink:href="#DejaVuSans-2d" transform="translate(496.107422 0)"/>
      <use xlink:href="#DejaVuSans-54" transform="translate(523.066406 0)"/>
      <use xlink:href="#DejaVuSans-61" transform="translate(567.650391 0)"/>
      <use xlink:href="#DejaVuSans-72" transform="translate(628.929688 0)"/>
      <use xlink:href="#DejaVuSans-67" transform="translate(668.292969 0)"/>
      <use xlink:href="#DejaVuSans-65" transform="translate(731.769531 0)"/>
      <use xlink:href="#DejaVuSans-74" transform="translate(793.292969 0)"/>
     </g>
    </g>
   </g>
  </g>
 </g>
 <defs>
  <clipPath id="p6041442a04">
   <rect x="90" y="43.2" width="558" height="277.2"/>
  </clipPath>
 </defs>
</svg>
