<?xml version="1.0" encoding="utf-8" standalone="no"?>
<!DOCTYPE svg PUBLIC "-//W3C//DTD SVG 1.1//EN"
  "http://www.w3.org/Graphics/SVG/1.1/DTD/svg11.dtd">
<svg xmlns:xlink="http://www.w3.org/1999/xlink" width="720pt" height="360pt" viewBox="0 0 720 360" xmlns="http://www.w3.org/2000/svg" version="1.1">
 <metadata>
  <rdf:RDF xmlns:dc="http://purl.org/dc/elements/1.1/" xmlns:cc="http://creativecommons.org/ns#" xmlns:rdf="http://www.w3.org/1999/02/22-rdf-syntax-ns#">
   <cc:Work>
    <dc:type rdf:resource="http://purl.org/dc/dcmitype/StillImage"/>
    <dc:date>2026-02-13T21:16:08.599484</dc:date>
    <dc:format>image/svg+xml</dc:format>
    <dc:creator>
     <cc:Agent>
      <dc:title>Matplotlib v3.10.1, https://matplotlib.org/</dc:title>
     </cc:Agent>
    </dc:creator>
   </cc:Work>
  </rdf:RDF>
 </metadata>
 <defs>
  <style type="text/css">*{stroke-linejoin: round; stroke-linecap: butt}</style>
 </defs>
 <g id="figure_1">
  <g id="patch_1">
   <path d="M 0 360 
L 720 360 
L 720 0 
L 0 0 
z
" style="fill: #ffffff"/>
  </g>
  <g id="axes_1">
   <g id="patch_2">
    <path d="M 90 320.4 
L 648 320.4 
L 648 43.2 
L 90 43.2 
z
" style="fill: #ffffff"/>
   </g>
   <g id="matplotlib.axis_1">
    <g id="xtick_1">
     <g id="line2d_1">
      <defs>
       <path id="m1ddac9d3fe" d="M 0 0 
L 0 3.5 
" style="stroke: #000000; stroke-width: 0.8"/>
      </defs>
      <g>
       <use xlink:href="#m1ddac9d3fe" x="115.363636" y="320.4" style="stroke: #000000; stroke-width: 0.8"/>
      </g>
     </g>
     <g id="text_1">
      <!-- 0 -->
      <g transform="translate(112.182386 334.998438) scale(0.1 -0.1)">
       <defs>
        <path id="DejaVuSans-30" d="M 2034 4250 
Q 1547 4250 1301 3770 
Q 1056 3291 1056 2328 
Q 1056 1369 1301 889 
Q 1547 409 2034 409 
Q 2525 409 2770 889 
Q 3016 1369 3016 2328 
Q 3016 3291 2770 3770 
Q 2525 4250 2034 4250 
z
M 2034 4750 
Q 2819 4750 3233 4129 
Q 3647 3509 3647 2328 
Q 3647 1150 3233 529 
Q 2819 -91 2034 -91 
Q 1250 -91 836 529 
Q 422 1150 422 2328 
Q 422 3509 836 4129 
Q 1250 4750 2034 4750 
z
" transform="scale(0.015625)"/>
       </defs>
       <use xlink:href="#DejaVuSans-30"/>
      </g>
     </g>
    </g>
    <g id="xtick_2">
     <g id="line2d_2">
      <g>
       <use xlink:href="#m1ddac9d3fe" x="217.157495" y="320.4" style="stroke: #000000; stroke-width: 0.8"/>
      </g>
     </g>
     <g id="text_2">
      <!-- 60 -->
      <g transform="translate(210.794995 334.998438) scale(0.1 -0.1)">
       <defs>
        <path id="DejaVuSans-36" d="M 2113 2584 
Q 1688 2584 1439 2293 
Q 1191 2003 1191 1497 
Q 1191 994 1439 701 
Q 1688 409 2113 409 
Q 2538 409 2786 701 
Q 3034 994 3034 1497 
Q 3034 2003 2786 2293 
Q 2538 2584 2113 2584 
z
M 3366 4563 
L 3366 3988 
Q 3128 4100 2886 4159 
Q 2644 4219 2406 4219 
Q 1781 4219 1451 3797 
Q 1122 3375 1075 2522 
Q 1259 2794 1537 2939 
Q 1816 3084 2150 3084 
Q 2853 3084 3261 2657 
Q 3669 2231 3669 1497 
Q 3669 778 3244 343 
Q 2819 -91 2113 -91 
Q 1303 -91 875 529 
Q 447 1150 447 2328 
Q 447 3434 972 4092 
Q 1497 4750 2381 4750 
Q 2619 4750 2861 4703 
Q 3103 4656 3366 4563 
z
" transform="scale(0.015625)"/>
       </defs>
       <use xlink:href="#DejaVuSans-36"/>
       <use xlink:href="#DejaVuSans-30" transform="translate(63.623047 0)"/>
      </g>
     </g>
    </g>
    <g id="xtick_3">
     <g id="line2d_3">
      <g>
       <use xlink:href="#m1ddac9d3fe" x="318.951353" y="320.4" style="stroke: #000000; stroke-width: 0.8"/>
      </g>
     </g>
     <g id="text_3">
      <!-- 120 -->
      <g transform="translate(309.407603 334.998438) scale(0.1 -0.1)">
       <defs>
        <path id="DejaVuSans-31" d="M 794 531 
L 1825 531 
L 1825 4091 
L 703 3866 
L 703 4441 
L 1819 4666 
L 2450 4666 
L 2450 531 
L 3481 531 
L 3481 0 
L 794 0 
L 794 531 
z
" transform="scale(0.015625)"/>
        <path id="DejaVuSans-32" d="M 1228 531 
L 3431 531 
L 3431 0 
L 469 0 
L 469 531 
Q 828 903 1448 1529 
Q 2069 2156 2228 2338 
Q 2531 2678 2651 2914 
Q 2772 3150 2772 3378 
Q 2772 3750 2511 3984 
Q 2250 4219 1831 4219 
Q 1534 4219 1204 4116 
Q 875 4013 500 3803 
L 500 4441 
Q 881 4594 1212 4672 
Q 1544 4750 1819 4750 
Q 2544 4750 2975 4387 
Q 3406 4025 3406 3419 
Q 3406 3131 3298 2873 
Q 3191 2616 2906 2266 
Q 2828 2175 2409 1742 
Q 1991 1309 1228 531 
z
" transform="scale(0.015625)"/>
       </defs>
       <use xlink:href="#DejaVuSans-31"/>
       <use xlink:href="#DejaVuSans-32" transform="translate(63.623047 0)"/>
       <use xlink:href="#DejaVuSans-30" transform="translate(127.246094 0)"/>
      </g>
     </g>
    </g>
    <g id="xtick_4">
     <g id="line2d_4">
      <g>
       <use xlink:href="#m1ddac9d3fe" x="420.745211" y="320.4" style="stroke: #000000; stroke-width: 0.8"/>
      </g>
     </g>
     <g id="text_4">
      <!-- 180 -->
      <g transform="translate(411.201461 334.998438) scale(0.1 -0.1)">
       <defs>
        <path id="DejaVuSans-38" d="M 2034 2216 
Q 1584 2216 1326 1975 
Q 1069 1734 1069 1313 
Q 1069 891 1326 650 
Q 1584 409 2034 409 
Q 2484 409 2743 651 
Q 3003 894 3003 1313 
Q 3003 1734 2745 1975 
Q 2488 2216 2034 2216 
z
M 1403 2484 
Q 997 2584 770 2862 
Q 544 3141 544 3541 
Q 544 4100 942 4425 
Q 1341 4750 2034 4750 
Q 2731 4750 3128 4425 
Q 3525 4100 3525 3541 
Q 3525 3141 3298 2862 
Q 3072 2584 2669 2484 
Q 3125 2378 3379 2068 
Q 3634 1759 3634 1313 
Q 3634 634 3220 271 
Q 2806 -91 2034 -91 
Q 1263 -91 848 271 
Q 434 634 434 1313 
Q 434 1759 690 2068 
Q 947 2378 1403 2484 
z
M 1172 3481 
Q 1172 3119 1398 2916 
Q 1625 2713 2034 2713 
Q 2441 2713 2670 2916 
Q 2900 3119 2900 3481 
Q 2900 3844 2670 4047 
Q 2441 4250 2034 4250 
Q 1625 4250 1398 4047 
Q 1172 3844 1172 3481 
z
" transform="scale(0.015625)"/>
       </defs>
       <use xlink:href="#DejaVuSans-31"/>
       <use xlink:href="#DejaVuSans-38" transform="translate(63.623047 0)"/>
       <use xlink:href="#DejaVuSans-30" transform="translate(127.246094 0)"/>
      </g>
     </g>
    </g>
    <g id="xtick_5">
     <g id="line2d_5">
      <g>
       <use xlink:href="#m1ddac9d3fe" x="522.53907" y="320.4" style="stroke: #000000; stroke-width: 0.8"/>
      </g>
     </g>
     <g id="text_5">
      <!-- 240 -->
      <g transform="translate(512.99532 334.998438) scale(0.1 -0.1)">
       <defs>
        <path id="DejaVuSans-34" d="M 2419 4116 
L 825 1625 
L 2419 1625 
L 2419 4116 
z
M 2253 4666 
L 3047 4666 
L 3047 1625 
L 3713 1625 
L 3713 1100 
L 3047 1100 
L 3047 0 
L 2419 0 
L 2419 1100 
L 313 1100 
L 313 1709 
L 2253 4666 
z
" transform="scale(0.015625)"/>
       </defs>
       <use xlink:href="#DejaVuSans-32"/>
       <use xlink:href="#DejaVuSans-34" transform="translate(63.623047 0)"/>
       <use xlink:href="#DejaVuSans-30" transform="translate(127.246094 0)"/>
      </g>
     </g>
    </g>
    <g id="text_6">
     <!-- Epoch -->
     <g transform="translate(353.689062 348.676562) scale(0.1 -0.1)">
      <defs>
       <path id="DejaVuSans-45" d="M 628 4666 
L 3578 4666 
L 3578 4134 
L 1259 4134 
L 1259 2753 
L 3481 2753 
L 3481 2222 
L 1259 2222 
L 1259 531 
L 3634 531 
L 3634 0 
L 628 0 
L 628 4666 
z
" transform="scale(0.015625)"/>
       <path id="DejaVuSans-70" d="M 1159 525 
L 1159 -1331 
L 581 -1331 
L 581 3500 
L 1159 3500 
L 1159 2969 
Q 1341 3281 1617 3432 
Q 1894 3584 2278 3584 
Q 2916 3584 3314 3078 
Q 3713 2572 3713 1747 
Q 3713 922 3314 415 
Q 2916 -91 2278 -91 
Q 1894 -91 1617 61 
Q 1341 213 1159 525 
z
M 3116 1747 
Q 3116 2381 2855 2742 
Q 2594 3103 2138 3103 
Q 1681 3103 1420 2742 
Q 1159 2381 1159 1747 
Q 1159 1113 1420 752 
Q 1681 391 2138 391 
Q 2594 391 2855 752 
Q 3116 1113 3116 1747 
z
" transform="scale(0.015625)"/>
       <path id="DejaVuSans-6f" d="M 1959 3097 
Q 1497 3097 1228 2736 
Q 959 2375 959 1747 
Q 959 1119 1226 758 
Q 1494 397 1959 397 
Q 2419 397 2687 759 
Q 2956 1122 2956 1747 
Q 2956 2369 2687 2733 
Q 2419 3097 1959 3097 
z
M 1959 3584 
Q 2709 3584 3137 3096 
Q 3566 2609 3566 1747 
Q 3566 888 3137 398 
Q 2709 -91 1959 -91 
Q 1206 -91 779 398 
Q 353 888 353 1747 
Q 353 2609 779 3096 
Q 1206 3584 1959 3584 
z
" transform="scale(0.015625)"/>
       <path id="DejaVuSans-63" d="M 3122 3366 
L 3122 2828 
Q 2878 2963 2633 3030 
Q 2388 3097 2138 3097 
Q 1578 3097 1268 2742 
Q 959 2388 959 1747 
Q 959 1106 1268 751 
Q 1578 397 2138 397 
Q 2388 397 2633 464 
Q 2878 531 3122 666 
L 3122 134 
Q 2881 22 2623 -34 
Q 2366 -91 2075 -91 
Q 1284 -91 818 406 
Q 353 903 353 1747 
Q 353 2603 823 3093 
Q 1294 3584 2113 3584 
Q 2378 3584 2631 3529 
Q 2884 3475 3122 3366 
z
" transform="scale(0.015625)"/>
       <path id="DejaVuSans-68" d="M 3513 2113 
L 3513 0 
L 2938 0 
L 2938 2094 
Q 2938 2591 2744 2837 
Q 2550 3084 2163 3084 
Q 1697 3084 1428 2787 
Q 1159 2491 1159 1978 
L 1159 0 
L 581 0 
L 581 4863 
L 1159 4863 
L 1159 2956 
Q 1366 3272 1645 3428 
Q 1925 3584 2291 3584 
Q 2894 3584 3203 3211 
Q 3513 2838 3513 2113 
z
" transform="scale(0.015625)"/>
      </defs>
      <use xlink:href="#DejaVuSans-45"/>
      <use xlink:href="#DejaVuSans-70" transform="translate(63.183594 0)"/>
      <use xlink:href="#DejaVuSans-6f" transform="translate(126.660156 0)"/>
      <use xlink:href="#DejaVuSans-63" transform="translate(187.841797 0)"/>
      <use xlink:href="#DejaVuSans-68" transform="translate(242.822266 0)"/>
     </g>
    </g>
   </g>
   <g id="matplotlib.axis_2">
    <g id="ytick_1">
     <g id="line2d_6">
      <defs>
       <path id="m05a1080ec6" d="M 0 0 
L -3.5 0 
" style="stroke: #000000; stroke-width: 0.8"/>
      </defs>
      <g>
       <use xlink:href="#m05a1080ec6" x="90" y="309.249981" style="stroke: #000000; stroke-width: 0.8"/>
      </g>
     </g>
     <g id="text_7">
      <!-- 0.0 -->
      <g transform="translate(67.096875 313.0492) scale(0.1 -0.1)">
       <defs>
        <path id="DejaVuSans-2e" d="M 684 794 
L 1344 794 
L 1344 0 
L 684 0 
L 684 794 
z
" transform="scale(0.015625)"/>
       </defs>
       <use xlink:href="#DejaVuSans-30"/>
       <use xlink:href="#DejaVuSans-2e" transform="translate(63.623047 0)"/>
       <use xlink:href="#DejaVuSans-30" transform="translate(95.410156 0)"/>
      </g>
     </g>
    </g>
    <g id="ytick_2">
     <g id="line2d_7">
      <g>
       <use xlink:href="#m05a1080ec6" x="90" y="260.834907" style="stroke: #000000; stroke-width: 0.8"/>
      </g>
     </g>
     <g id="text_8">
      <!-- 0.1 -->
      <g transform="translate(67.096875 264.634126) scale(0.1 -0.1)">
       <use xlink:href="#DejaVuSans-30"/>
       <use xlink:href="#DejaVuSans-2e" transform="translate(63.623047 0)"/>
       <use xlink:href="#DejaVuSans-31" transform="translate(95.410156 0)"/>
      </g>
     </g>
    </g>
    <g id="ytick_3">
     <g id="line2d_8">
      <g>
       <use xlink:href="#m05a1080ec6" x="90" y="212.419833" style="stroke: #000000; stroke-width: 0.8"/>
      </g>
     </g>
     <g id="text_9">
      <!-- 0.2 -->
      <g transform="translate(67.096875 216.219052) scale(0.1 -0.1)">
       <use xlink:href="#DejaVuSans-30"/>
       <use xlink:href="#DejaVuSans-2e" transform="translate(63.623047 0)"/>
       <use xlink:href="#DejaVuSans-32" transform="translate(95.410156 0)"/>
      </g>
     </g>
    </g>
    <g id="ytick_4">
     <g id="line2d_9">
      <g>
       <use xlink:href="#m05a1080ec6" x="90" y="164.004759" style="stroke: #000000; stroke-width: 0.8"/>
      </g>
     </g>
     <g id="text_10">
      <!-- 0.3 -->
      <g transform="translate(67.096875 167.803978) scale(0.1 -0.1)">
       <defs>
        <path id="DejaVuSans-33" d="M 2597 2516 
Q 3050 2419 3304 2112 
Q 3559 1806 3559 1356 
Q 3559 666 3084 287 
Q 2609 -91 1734 -91 
Q 1441 -91 1130 -33 
Q 819 25 488 141 
L 488 750 
Q 750 597 1062 519 
Q 1375 441 1716 441 
Q 2309 441 2620 675 
Q 2931 909 2931 1356 
Q 2931 1769 2642 2001 
Q 2353 2234 1838 2234 
L 1294 2234 
L 1294 2753 
L 1863 2753 
Q 2328 2753 2575 2939 
Q 2822 3125 2822 3475 
Q 2822 3834 2567 4026 
Q 2313 4219 1838 4219 
Q 1578 4219 1281 4162 
Q 984 4106 628 3988 
L 628 4550 
Q 988 4650 1302 4700 
Q 1616 4750 1894 4750 
Q 2613 4750 3031 4423 
Q 3450 4097 3450 3541 
Q 3450 3153 3228 2886 
Q 3006 2619 2597 2516 
z
" transform="scale(0.015625)"/>
       </defs>
       <use xlink:href="#DejaVuSans-30"/>
       <use xlink:href="#DejaVuSans-2e" transform="translate(63.623047 0)"/>
       <use xlink:href="#DejaVuSans-33" transform="translate(95.410156 0)"/>
      </g>
     </g>
    </g>
    <g id="ytick_5">
     <g id="line2d_10">
      <g>
       <use xlink:href="#m05a1080ec6" x="90" y="115.589685" style="stroke: #000000; stroke-width: 0.8"/>
      </g>
     </g>
     <g id="text_11">
      <!-- 0.4 -->
      <g transform="translate(67.096875 119.388904) scale(0.1 -0.1)">
       <use xlink:href="#DejaVuSans-30"/>
       <use xlink:href="#DejaVuSans-2e" transform="translate(63.623047 0)"/>
       <use xlink:href="#DejaVuSans-34" transform="translate(95.410156 0)"/>
      </g>
     </g>
    </g>
    <g id="ytick_6">
     <g id="line2d_11">
      <g>
       <use xlink:href="#m05a1080ec6" x="90" y="67.174611" style="stroke: #000000; stroke-width: 0.8"/>
      </g>
     </g>
     <g id="text_12">
      <!-- 0.5 -->
      <g transform="translate(67.096875 70.97383) scale(0.1 -0.1)">
       <defs>
        <path id="DejaVuSans-35" d="M 691 4666 
L 3169 4666 
L 3169 4134 
L 1269 4134 
L 1269 2991 
Q 1406 3038 1543 3061 
Q 1681 3084 1819 3084 
Q 2600 3084 3056 2656 
Q 3513 2228 3513 1497 
Q 3513 744 3044 326 
Q 2575 -91 1722 -91 
Q 1428 -91 1123 -41 
Q 819 9 494 109 
L 494 744 
Q 775 591 1075 516 
Q 1375 441 1709 441 
Q 2250 441 2565 725 
Q 2881 1009 2881 1497 
Q 2881 1984 2565 2268 
Q 2250 2553 1709 2553 
Q 1456 2553 1204 2497 
Q 953 2441 691 2322 
L 691 4666 
z
" transform="scale(0.015625)"/>
       </defs>
       <use xlink:href="#DejaVuSans-30"/>
       <use xlink:href="#DejaVuSans-2e" transform="translate(63.623047 0)"/>
       <use xlink:href="#DejaVuSans-35" transform="translate(95.410156 0)"/>
      </g>
     </g>
    </g>
    <g id="text_13">
     <!-- NMSE -->
     <g transform="translate(61.017187 196.188281) rotate(-90) scale(0.1 -0.1)">
      <defs>
       <path id="DejaVuSans-4e" d="M 628 4666 
L 1478 4666 
L 3547 763 
L 3547 4666 
L 4159 4666 
L 4159 0 
L 3309 0 
L 1241 3903 
L 1241 0 
L 628 0 
L 628 4666 
z
" transform="scale(0.015625)"/>
       <path id="DejaVuSans-4d" d="M 628 4666 
L 1569 4666 
L 2759 1491 
L 3956 4666 
L 4897 4666 
L 4897 0 
L 4281 0 
L 4281 4097 
L 3078 897 
L 2444 897 
L 1241 4097 
L 1241 0 
L 628 0 
L 628 4666 
z
" transform="scale(0.015625)"/>
       <path id="DejaVuSans-53" d="M 3425 4513 
L 3425 3897 
Q 3066 4069 2747 4153 
Q 2428 4238 2131 4238 
Q 1616 4238 1336 4038 
Q 1056 3838 1056 3469 
Q 1056 3159 1242 3001 
Q 1428 2844 1947 2747 
L 2328 2669 
Q 3034 2534 3370 2195 
Q 3706 1856 3706 1288 
Q 3706 609 3251 259 
Q 2797 -91 1919 -91 
Q 1588 -91 1214 -16 
Q 841 59 441 206 
L 441 856 
Q 825 641 1194 531 
Q 1563 422 1919 422 
Q 2459 422 2753 634 
Q 3047 847 3047 1241 
Q 3047 1584 2836 1778 
Q 2625 1972 2144 2069 
L 1759 2144 
Q 1053 2284 737 2584 
Q 422 2884 422 3419 
Q 422 4038 858 4394 
Q 1294 4750 2059 4750 
Q 2388 4750 2728 4690 
Q 3069 4631 3425 4513 
z
" transform="scale(0.015625)"/>
      </defs>
      <use xlink:href="#DejaVuSans-4e"/>
      <use xlink:href="#DejaVuSans-4d" transform="translate(74.804688 0)"/>
      <use xlink:href="#DejaVuSans-53" transform="translate(161.083984 0)"/>
      <use xlink:href="#DejaVuSans-45" transform="translate(224.560547 0)"/>
     </g>
    </g>
   </g>
   <g id="line2d_12">
    <path d="M 115.363636 266.858202 
L 117.060201 278.661893 
L 118.756765 289.505241 
L 120.453329 284.596313 
L 122.149894 295.093391 
L 123.846458 300.438995 
L 127.239587 302.07745 
L 128.936151 300.336937 
L 130.632715 301.339896 
L 132.329279 302.889916 
L 134.025844 304.025107 
L 135.722408 301.824531 
L 137.418972 305.466348 
L 139.115537 302.023337 
L 140.812101 303.76891 
L 142.508665 304.841193 
L 144.20523 305.65711 
L 145.901794 305.096021 
L 147.598358 304.112616 
L 149.294922 306.023162 
L 150.991487 306.737183 
L 152.688051 303.952738 
L 154.384615 306.184391 
L 156.08118 306.071492 
L 157.777744 305.143196 
L 161.170873 305.755465 
L 162.867437 305.759924 
L 164.564001 305.082415 
L 166.260566 306.633849 
L 167.95713 306.014562 
L 169.653694 307.023509 
L 171.350258 306.751934 
L 173.046823 306.331548 
L 174.743387 306.91177 
L 176.439951 306.184218 
L 178.136516 306.504091 
L 179.83308 306.510293 
L 181.529644 305.94915 
L 183.226209 306.309869 
L 184.922773 306.192937 
L 186.619337 307.395656 
L 188.315901 306.985728 
L 190.012466 307.029506 
L 191.70903 306.348299 
L 193.405594 307.594996 
L 195.102159 306.949027 
L 196.798723 307.202719 
L 198.495287 307.621941 
L 200.191852 307.3089 
L 201.888416 307.710524 
L 205.281545 307.367012 
L 206.978109 306.601263 
L 208.674673 307.668556 
L 210.371237 307.056344 
L 212.067802 307.055876 
L 213.764366 307.486299 
L 215.46093 307.742756 
L 217.157495 307.645552 
L 218.854059 307.231483 
L 220.550623 307.282055 
L 222.247188 306.894794 
L 223.943752 307.537976 
L 225.640316 307.538002 
L 227.336881 307.673864 
L 229.033445 307.522412 
L 230.730009 307.156269 
L 232.426573 307.682087 
L 234.123138 307.246056 
L 235.819702 307.697197 
L 237.516266 307.375882 
L 240.909395 307.688726 
L 242.605959 307.602079 
L 245.999088 307.8 
L 247.695652 307.602821 
L 249.392216 307.697027 
L 252.785345 307.544077 
L 257.875038 307.525146 
L 262.964731 307.281591 
L 264.661295 307.58398 
L 273.144117 307.493063 
L 276.537245 307.331271 
L 278.23381 307.50514 
L 296.896017 307.543956 
L 301.98571 307.434203 
L 305.378839 307.510759 
L 335.916996 307.193705 
L 337.61356 307.094037 
L 341.006689 307.091702 
L 342.703253 307.051725 
L 344.399818 307.140721 
L 347.792946 307.0987 
L 361.365461 306.975883 
L 363.062025 307.034809 
L 366.455154 306.958148 
L 388.51049 307.054632 
L 390.207054 306.896173 
L 408.869261 307.120732 
L 410.565825 306.928569 
L 417.352083 306.96894 
L 419.048647 306.904933 
L 420.745211 307.017978 
L 456.373062 306.841123 
L 468.249012 306.869891 
L 495.394041 306.730144 
L 505.573427 306.763512 
L 517.449377 306.817266 
L 575.132563 306.918587 
L 592.098206 306.943661 
L 615.850106 306.826394 
L 617.546671 306.875586 
L 620.939799 306.794416 
L 622.636364 306.835601 
L 622.636364 306.835601 
" clip-path="url(#p012ad6fff4)" style="fill: none; stroke: #1f77b4; stroke-width: 1.5; stroke-linecap: square"/>
   </g>
   <g id="line2d_13">
    <path d="M 115.363636 55.8 
L 117.060201 146.378014 
L 118.756765 209.871049 
L 120.453329 190.944646 
L 122.149894 233.852582 
L 123.846458 245.119208 
L 125.543022 251.716483 
L 127.239587 254.453238 
L 128.936151 258.874486 
L 130.632715 259.040669 
L 132.329279 263.940959 
L 134.025844 269.407714 
L 135.722408 261.193523 
L 137.418972 273.186393 
L 139.115537 262.28834 
L 140.812101 271.119497 
L 142.508665 274.004797 
L 144.20523 277.186611 
L 145.901794 274.820493 
L 147.598358 275.161091 
L 149.294922 279.163428 
L 150.991487 281.76145 
L 152.688051 272.941789 
L 154.384615 279.139241 
L 156.08118 280.242137 
L 157.777744 277.698635 
L 159.474308 277.635907 
L 161.170873 280.324632 
L 162.867437 280.707597 
L 164.564001 278.021471 
L 166.260566 281.5313 
L 167.95713 280.622384 
L 169.653694 282.597962 
L 171.350258 282.822868 
L 173.046823 280.443244 
L 174.743387 280.992359 
L 176.439951 278.042792 
L 178.136516 279.555705 
L 179.83308 278.695303 
L 181.529644 277.451893 
L 183.226209 278.837586 
L 184.922773 278.144326 
L 186.619337 280.85934 
L 188.315901 280.656056 
L 190.012466 278.89963 
L 191.70903 276.24819 
L 193.405594 280.841435 
L 195.102159 279.567822 
L 196.798723 282.6213 
L 198.495287 283.432205 
L 200.191852 282.865824 
L 201.888416 283.325865 
L 203.58498 283.358946 
L 205.281545 283.530136 
L 206.978109 279.843401 
L 208.674673 284.157888 
L 210.371237 284.409437 
L 212.067802 282.084992 
L 213.764366 285.462244 
L 215.46093 285.071413 
L 217.157495 285.806231 
L 218.854059 285.412254 
L 220.550623 285.548414 
L 222.247188 284.910398 
L 223.943752 285.742438 
L 225.640316 286.420336 
L 227.336881 286.169448 
L 229.033445 286.26499 
L 230.730009 285.922443 
L 232.426573 286.896423 
L 234.123138 286.575839 
L 235.819702 287.288338 
L 239.212831 286.517128 
L 240.909395 287.520348 
L 242.605959 287.154953 
L 244.302524 287.530571 
L 245.999088 287.771331 
L 249.392216 286.999806 
L 257.875038 286.926459 
L 261.268167 286.638508 
L 262.964731 285.910938 
L 264.661295 287.330962 
L 268.054424 287.103985 
L 271.447552 287.00439 
L 273.144117 286.908388 
L 274.840681 286.987287 
L 276.537245 286.562774 
L 278.23381 287.264143 
L 279.930374 287.021149 
L 281.626938 287.036222 
L 283.323503 286.90184 
L 285.020067 287.258541 
L 290.10976 287.267167 
L 291.806324 287.549014 
L 293.502888 287.399022 
L 295.199453 287.458028 
L 296.896017 287.185186 
L 310.468531 287.066478 
L 313.86166 287.000731 
L 315.558224 287.164822 
L 317.254789 287.023115 
L 318.951353 287.158323 
L 320.647917 287.121409 
L 322.344482 287.200484 
L 324.041046 287.088835 
L 325.73761 287.108194 
L 337.61356 286.373339 
L 339.310125 286.534915 
L 342.703253 286.263053 
L 344.399818 286.598145 
L 346.096382 286.430755 
L 349.48951 286.544694 
L 354.579203 286.296033 
L 357.972332 286.371471 
L 359.668896 286.187966 
L 361.365461 286.197939 
L 363.062025 286.357469 
L 364.758589 286.059781 
L 373.241411 285.850302 
L 376.634539 286.136238 
L 380.027668 285.996317 
L 381.724232 286.226796 
L 383.420797 286.05021 
L 385.117361 286.319108 
L 386.813925 285.810144 
L 388.51049 286.225226 
L 390.207054 285.558188 
L 391.903618 285.688503 
L 393.600182 285.635152 
L 398.689875 286.31554 
L 402.083004 286.259318 
L 403.779568 286.75851 
L 405.476133 286.832089 
L 407.172697 286.59514 
L 408.869261 286.769501 
L 410.565825 286.320868 
L 412.26239 286.460309 
L 413.958954 286.387641 
L 415.655518 286.19987 
L 417.352083 286.385742 
L 419.048647 286.157986 
L 420.745211 286.65367 
L 422.441776 286.632015 
L 424.13834 286.794186 
L 434.317726 286.723065 
L 436.01429 286.752117 
L 437.710854 286.647496 
L 439.407419 286.7092 
L 441.103983 286.621618 
L 447.89024 286.925677 
L 466.552448 287.405936 
L 471.64214 287.253744 
L 495.394041 287.506993 
L 497.090605 287.609579 
L 500.483734 287.569411 
L 505.573427 287.672932 
L 515.752812 287.685617 
L 519.145941 287.748337 
L 520.842505 287.670973 
L 522.53907 287.828866 
L 529.325327 287.780614 
L 531.021891 287.685276 
L 532.718455 287.81389 
L 534.41502 287.694435 
L 539.504713 287.734988 
L 542.897841 287.680777 
L 549.684099 287.652704 
L 559.863484 287.592674 
L 563.256613 287.543307 
L 592.098206 287.18442 
L 595.491335 287.115759 
L 600.581028 287.148334 
L 609.063849 286.96401 
L 617.546671 286.975281 
L 619.243235 286.689468 
L 622.636364 286.875898 
L 622.636364 286.875898 
" clip-path="url(#p012ad6fff4)" style="fill: none; stroke: #ff7f0e; stroke-width: 1.5; stroke-linecap: square"/>
   </g>
   <g id="patch_3">
    <path d="M 90 320.4 
L 90 43.2 
" style="fill: none; stroke: #000000; stroke-width: 0.8; stroke-linejoin: miter; stroke-linecap: square"/>
   </g>
   <g id="patch_4">
    <path d="M 648 320.4 
L 648 43.2 
" style="fill: none; stroke: #000000; stroke-width: 0.8; stroke-linejoin: miter; stroke-linecap: square"/>
   </g>
   <g id="patch_5">
    <path d="M 90 320.4 
L 648 320.4 
" style="fill: none; stroke: #000000; stroke-width: 0.8; stroke-linejoin: miter; stroke-linecap: square"/>
   </g>
   <g id="patch_6">
    <path d="M 90 43.2 
L 648 43.2 
" style="fill: none; stroke: #000000; stroke-width: 0.8; stroke-linejoin: miter; stroke-linecap: square"/>
   </g>
   <g id="text_14">
    <!-- NMSE in Validation -->
    <g transform="translate(312.822187 37.2) scale(0.12 -0.12)">
     <defs>
      <path id="DejaVuSans-20" transform="scale(0.015625)"/>
      <path id="DejaVuSans-69" d="M 603 3500 
L 1178 3500 
L 1178 0 
L 603 0 
L 603 3500 
z
M 603 4863 
L 1178 4863 
L 1178 4134 
L 603 4134 
L 603 4863 
z
" transform="scale(0.015625)"/>
      <path id="DejaVuSans-6e" d="M 3513 2113 
L 3513 0 
L 2938 0 
L 2938 2094 
Q 2938 2591 2744 2837 
Q 2550 3084 2163 3084 
Q 1697 3084 1428 2787 
Q 1159 2491 1159 1978 
L 1159 0 
L 581 0 
L 581 3500 
L 1159 3500 
L 1159 2956 
Q 1366 3272 1645 3428 
Q 1925 3584 2291 3584 
Q 2894 3584 3203 3211 
Q 3513 2838 3513 2113 
z
" transform="scale(0.015625)"/>
      <path id="DejaVuSans-56" d="M 1831 0 
L 50 4666 
L 709 4666 
L 2188 738 
L 3669 4666 
L 4325 4666 
L 2547 0 
L 1831 0 
z
" transform="scale(0.015625)"/>
      <path id="DejaVuSans-61" d="M 2194 1759 
Q 1497 1759 1228 1600 
Q 959 1441 959 1056 
Q 959 750 1161 570 
Q 1363 391 1709 391 
Q 2188 391 2477 730 
Q 2766 1069 2766 1631 
L 2766 1759 
L 2194 1759 
z
M 3341 1997 
L 3341 0 
L 2766 0 
L 2766 531 
Q 2569 213 2275 61 
Q 1981 -91 1556 -91 
Q 1019 -91 701 211 
Q 384 513 384 1019 
Q 384 1609 779 1909 
Q 1175 2209 1959 2209 
L 2766 2209 
L 2766 2266 
Q 2766 2663 2505 2880 
Q 2244 3097 1772 3097 
Q 1472 3097 1187 3025 
Q 903 2953 641 2809 
L 641 3341 
Q 956 3463 1253 3523 
Q 1550 3584 1831 3584 
Q 2591 3584 2966 3190 
Q 3341 2797 3341 1997 
z
" transform="scale(0.015625)"/>
      <path id="DejaVuSans-6c" d="M 603 4863 
L 1178 4863 
L 1178 0 
L 603 0 
L 603 4863 
z
" transform="scale(0.015625)"/>
      <path id="DejaVuSans-64" d="M 2906 2969 
L 2906 4863 
L 3481 4863 
L 3481 0 
L 2906 0 
L 2906 525 
Q 2725 213 2448 61 
Q 2172 -91 1784 -91 
Q 1150 -91 751 415 
Q 353 922 353 1747 
Q 353 2572 751 3078 
Q 1150 3584 1784 3584 
Q 2172 3584 2448 3432 
Q 2725 3281 2906 2969 
z
M 947 1747 
Q 947 1113 1208 752 
Q 1469 391 1925 391 
Q 2381 391 2643 752 
Q 2906 1113 2906 1747 
Q 2906 2381 2643 2742 
Q 2381 3103 1925 3103 
Q 1469 3103 1208 2742 
Q 947 2381 947 1747 
z
" transform="scale(0.015625)"/>
      <path id="DejaVuSans-74" d="M 1172 4494 
L 1172 3500 
L 2356 3500 
L 2356 3053 
L 1172 3053 
L 1172 1153 
Q 1172 725 1289 603 
Q 1406 481 1766 481 
L 2356 481 
L 2356 0 
L 1766 0 
Q 1100 0 847 248 
Q 594 497 594 1153 
L 594 3053 
L 172 3053 
L 172 3500 
L 594 3500 
L 594 4494 
L 1172 4494 
z
" transform="scale(0.015625)"/>
     </defs>
     <use xlink:href="#DejaVuSans-4e"/>
     <use xlink:href="#DejaVuSans-4d" transform="translate(74.804688 0)"/>
     <use xlink:href="#DejaVuSans-53" transform="translate(161.083984 0)"/>
     <use xlink:href="#DejaVuSans-45" transform="translate(224.560547 0)"/>
     <use xlink:href="#DejaVuSans-20" transform="translate(287.744141 0)"/>
     <use xlink:href="#DejaVuSans-69" transform="translate(319.53125 0)"/>
     <use xlink:href="#DejaVuSans-6e" transform="translate(347.314453 0)"/>
     <use xlink:href="#DejaVuSans-20" transform="translate(410.693359 0)"/>
     <use xlink:href="#DejaVuSans-56" transform="translate(442.480469 0)"/>
     <use xlink:href="#DejaVuSans-61" transform="translate(503.138672 0)"/>
     <use xlink:href="#DejaVuSans-6c" transform="translate(564.417969 0)"/>
     <use xlink:href="#DejaVuSans-69" transform="translate(592.201172 0)"/>
     <use xlink:href="#DejaVuSans-64" transform="translate(619.984375 0)"/>
     <use xlink:href="#DejaVuSans-61" transform="translate(683.460938 0)"/>
     <use xlink:href="#DejaVuSans-74" transform="translate(744.740234 0)"/>
     <use xlink:href="#DejaVuSans-69" transform="translate(783.949219 0)"/>
     <use xlink:href="#DejaVuSans-6f" transform="translate(811.732422 0)"/>
     <use xlink:href="#DejaVuSans-6e" transform="translate(872.914062 0)"/>
    </g>
   </g>
   <g id="legend_1">
    <g id="patch_7">
     <path d="M 532.676563 80.55625 
L 641 80.55625 
Q 643 80.55625 643 78.55625 
L 643 50.2 
Q 643 48.2 641 48.2 
L 532.676563 48.2 
Q 530.676563 48.2 530.676563 50.2 
L 530.676563 78.55625 
Q 530.676563 80.55625 532.676563 80.55625 
z
" style="fill: #ffffff; opacity: 0.8; stroke: #cccccc; stroke-linejoin: miter"/>
    </g>
    <g id="line2d_14">
     <path d="M 534.676563 56.298437 
L 544.676563 56.298437 
L 554.676563 56.298437 
" style="fill: none; stroke: #1f77b4; stroke-width: 1.5; stroke-linecap: square"/>
    </g>
    <g id="text_15">
     <!-- Source Domain -->
     <g transform="translate(562.676563 59.798437) scale(0.1 -0.1)">
      <defs>
       <path id="DejaVuSans-75" d="M 544 1381 
L 544 3500 
L 1119 3500 
L 1119 1403 
Q 1119 906 1312 657 
Q 1506 409 1894 409 
Q 2359 409 2629 706 
Q 2900 1003 2900 1516 
L 2900 3500 
L 3475 3500 
L 3475 0 
L 2900 0 
L 2900 538 
Q 2691 219 2414 64 
Q 2138 -91 1772 -91 
Q 1169 -91 856 284 
Q 544 659 544 1381 
z
M 1991 3584 
L 1991 3584 
z
" transform="scale(0.015625)"/>
       <path id="DejaVuSans-72" d="M 2631 2963 
Q 2534 3019 2420 3045 
Q 2306 3072 2169 3072 
Q 1681 3072 1420 2755 
Q 1159 2438 1159 1844 
L 1159 0 
L 581 0 
L 581 3500 
L 1159 3500 
L 1159 2956 
Q 1341 3275 1631 3429 
Q 1922 3584 2338 3584 
Q 2397 3584 2469 3576 
Q 2541 3569 2628 3553 
L 2631 2963 
z
" transform="scale(0.015625)"/>
       <path id="DejaVuSans-65" d="M 3597 1894 
L 3597 1613 
L 953 1613 
Q 991 1019 1311 708 
Q 1631 397 2203 397 
Q 2534 397 2845 478 
Q 3156 559 3463 722 
L 3463 178 
Q 3153 47 2828 -22 
Q 2503 -91 2169 -91 
Q 1331 -91 842 396 
Q 353 884 353 1716 
Q 353 2575 817 3079 
Q 1281 3584 2069 3584 
Q 2775 3584 3186 3129 
Q 3597 2675 3597 1894 
z
M 3022 2063 
Q 3016 2534 2758 2815 
Q 2500 3097 2075 3097 
Q 1594 3097 1305 2825 
Q 1016 2553 972 2059 
L 3022 2063 
z
" transform="scale(0.015625)"/>
       <path id="DejaVuSans-44" d="M 1259 4147 
L 1259 519 
L 2022 519 
Q 2988 519 3436 956 
Q 3884 1394 3884 2338 
Q 3884 3275 3436 3711 
Q 2988 4147 2022 4147 
L 1259 4147 
z
M 628 4666 
L 1925 4666 
Q 3281 4666 3915 4102 
Q 4550 3538 4550 2338 
Q 4550 1131 3912 565 
Q 3275 0 1925 0 
L 628 0 
L 628 4666 
z
" transform="scale(0.015625)"/>
       <path id="DejaVuSans-6d" d="M 3328 2828 
Q 3544 3216 3844 3400 
Q 4144 3584 4550 3584 
Q 5097 3584 5394 3201 
Q 5691 2819 5691 2113 
L 5691 0 
L 5113 0 
L 5113 2094 
Q 5113 2597 4934 2840 
Q 4756 3084 4391 3084 
Q 3944 3084 3684 2787 
Q 3425 2491 3425 1978 
L 3425 0 
L 2847 0 
L 2847 2094 
Q 2847 2600 2669 2842 
Q 2491 3084 2119 3084 
Q 1678 3084 1418 2786 
Q 1159 2488 1159 1978 
L 1159 0 
L 581 0 
L 581 3500 
L 1159 3500 
L 1159 2956 
Q 1356 3278 1631 3431 
Q 1906 3584 2284 3584 
Q 2666 3584 2933 3390 
Q 3200 3197 3328 2828 
z
" transform="scale(0.015625)"/>
      </defs>
      <use xlink:href="#DejaVuSans-53"/>
      <use xlink:href="#DejaVuSans-6f" transform="translate(63.476562 0)"/>
      <use xlink:href="#DejaVuSans-75" transform="translate(124.658203 0)"/>
      <use xlink:href="#DejaVuSans-72" transform="translate(188.037109 0)"/>
      <use xlink:href="#DejaVuSans-63" transform="translate(226.900391 0)"/>
      <use xlink:href="#DejaVuSans-65" transform="translate(281.880859 0)"/>
      <use xlink:href="#DejaVuSans-20" transform="translate(343.404297 0)"/>
      <use xlink:href="#DejaVuSans-44" transform="translate(375.191406 0)"/>
      <use xlink:href="#DejaVuSans-6f" transform="translate(452.193359 0)"/>
      <use xlink:href="#DejaVuSans-6d" transform="translate(513.375 0)"/>
      <use xlink:href="#DejaVuSans-61" transform="translate(610.787109 0)"/>
      <use xlink:href="#DejaVuSans-69" transform="translate(672.066406 0)"/>
      <use xlink:href="#DejaVuSans-6e" transform="translate(699.849609 0)"/>
     </g>
    </g>
    <g id="line2d_15">
     <path d="M 534.676563 70.976562 
L 544.676563 70.976562 
L 554.676563 70.976562 
" style="fill: none; stroke: #ff7f0e; stroke-width: 1.5; stroke-linecap: square"/>
    </g>
    <g id="text_16">
     <!-- Target Domain -->
     <g transform="translate(562.676563 74.476562) scale(0.1 -0.1)">
      <defs>
       <path id="DejaVuSans-54" d="M -19 4666 
L 3928 4666 
L 3928 4134 
L 2272 4134 
L 2272 0 
L 1638 0 
L 1638 4134 
L -19 4134 
L -19 4666 
z
" transform="scale(0.015625)"/>
       <path id="DejaVuSans-67" d="M 2906 1791 
Q 2906 2416 2648 2759 
Q 2391 3103 1925 3103 
Q 1463 3103 1205 2759 
Q 947 2416 947 1791 
Q 947 1169 1205 825 
Q 1463 481 1925 481 
Q 2391 481 2648 825 
Q 2906 1169 2906 1791 
z
M 3481 434 
Q 3481 -459 3084 -895 
Q 2688 -1331 1869 -1331 
Q 1566 -1331 1297 -1286 
Q 1028 -1241 775 -1147 
L 775 -588 
Q 1028 -725 1275 -790 
Q 1522 -856 1778 -856 
Q 2344 -856 2625 -561 
Q 2906 -266 2906 331 
L 2906 616 
Q 2728 306 2450 153 
Q 2172 0 1784 0 
Q 1141 0 747 490 
Q 353 981 353 1791 
Q 353 2603 747 3093 
Q 1141 3584 1784 3584 
Q 2172 3584 2450 3431 
Q 2728 3278 2906 2969 
L 2906 3500 
L 3481 3500 
L 3481 434 
z
" transform="scale(0.015625)"/>
      </defs>
      <use xlink:href="#DejaVuSans-54"/>
      <use xlink:href="#DejaVuSans-61" transform="translate(44.583984 0)"/>
      <use xlink:href="#DejaVuSans-72" transform="translate(105.863281 0)"/>
      <use xlink:href="#DejaVuSans-67" transform="translate(145.226562 0)"/>
      <use xlink:href="#DejaVuSans-65" transform="translate(208.703125 0)"/>
      <use xlink:href="#DejaVuSans-74" transform="translate(270.226562 0)"/>
      <use xlink:href="#DejaVuSans-20" transform="translate(309.435547 0)"/>
      <use xlink:href="#DejaVuSans-44" transform="translate(341.222656 0)"/>
      <use xlink:href="#DejaVuSans-6f" transform="translate(418.224609 0)"/>
      <use xlink:href="#DejaVuSans-6d" transform="translate(479.40625 0)"/>
      <use xlink:href="#DejaVuSans-61" transform="translate(576.818359 0)"/>
      <use xlink:href="#DejaVuSans-69" transform="translate(638.097656 0)"/>
      <use xlink:href="#DejaVuSans-6e" transform="translate(665.880859 0)"/>
     </g>
    </g>
   </g>
  </g>
 </g>
 <defs>
  <clipPath id="p012ad6fff4">
   <rect x="90" y="43.2" width="558" height="277.2"/>
  </clipPath>
 </defs>
</svg>
