<?xml version="1.0" encoding="utf-8" standalone="no"?>
<!DOCTYPE svg PUBLIC "-//W3C//DTD SVG 1.1//EN"
  "http://www.w3.org/Graphics/SVG/1.1/DTD/svg11.dtd">
<svg xmlns:xlink="http://www.w3.org/1999/xlink" width="720pt" height="360pt" viewBox="0 0 720 360" xmlns="http://www.w3.org/2000/svg" version="1.1">
 <metadata>
  <rdf:RDF xmlns:dc="http://purl.org/dc/elements/1.1/" xmlns:cc="http://creativecommons.org/ns#" xmlns:rdf="http://www.w3.org/1999/02/22-rdf-syntax-ns#">
   <cc:Work>
    <dc:type rdf:resource="http://purl.org/dc/dcmitype/StillImage"/>
    <dc:date>2025-10-19T08:11:40.014414</dc:date>
    <dc:format>image/svg+xml</dc:format>
    <dc:creator>
     <cc:Agent>
      <dc:title>Matplotlib v3.10.1, https://matplotlib.org/</dc:title>
     </cc:Agent>
    </dc:creator>
   </cc:Work>
  </rdf:RDF>
 </metadata>
 <defs>
  <style type="text/css">*{stroke-linejoin: round; stroke-linecap: butt}</style>
 </defs>
 <g id="figure_1">
  <g id="patch_1">
   <path d="M 0 360 
L 720 360 
L 720 0 
L 0 0 
z
" style="fill: #ffffff"/>
  </g>
  <g id="axes_1">
   <g id="patch_2">
    <path d="M 90 320.4 
L 648 320.4 
L 648 43.2 
L 90 43.2 
z
" style="fill: #ffffff"/>
   </g>
   <g id="matplotlib.axis_1">
    <g id="xtick_1">
     <g id="line2d_1">
      <defs>
       <path id="m3ff8b0e0b2" d="M 0 0 
L 0 3.5 
" style="stroke: #000000; stroke-width: 0.8"/>
      </defs>
      <g>
       <use xlink:href="#m3ff8b0e0b2" x="115.363636" y="320.4" style="stroke: #000000; stroke-width: 0.8"/>
      </g>
     </g>
     <g id="text_1">
      <!-- 0 -->
      <g transform="translate(112.182386 334.998438) scale(0.1 -0.1)">
       <defs>
        <path id="DejaVuSans-30" d="M 2034 4250 
Q 1547 4250 1301 3770 
Q 1056 3291 1056 2328 
Q 1056 1369 1301 889 
Q 1547 409 2034 409 
Q 2525 409 2770 889 
Q 3016 1369 3016 2328 
Q 3016 3291 2770 3770 
Q 2525 4250 2034 4250 
z
M 2034 4750 
Q 2819 4750 3233 4129 
Q 3647 3509 3647 2328 
Q 3647 1150 3233 529 
Q 2819 -91 2034 -91 
Q 1250 -91 836 529 
Q 422 1150 422 2328 
Q 422 3509 836 4129 
Q 1250 4750 2034 4750 
z
" transform="scale(0.015625)"/>
       </defs>
       <use xlink:href="#DejaVuSans-30"/>
      </g>
     </g>
    </g>
    <g id="xtick_2">
     <g id="line2d_2">
      <g>
       <use xlink:href="#m3ff8b0e0b2" x="217.157495" y="320.4" style="stroke: #000000; stroke-width: 0.8"/>
      </g>
     </g>
     <g id="text_2">
      <!-- 60 -->
      <g transform="translate(210.794995 334.998438) scale(0.1 -0.1)">
       <defs>
        <path id="DejaVuSans-36" d="M 2113 2584 
Q 1688 2584 1439 2293 
Q 1191 2003 1191 1497 
Q 1191 994 1439 701 
Q 1688 409 2113 409 
Q 2538 409 2786 701 
Q 3034 994 3034 1497 
Q 3034 2003 2786 2293 
Q 2538 2584 2113 2584 
z
M 3366 4563 
L 3366 3988 
Q 3128 4100 2886 4159 
Q 2644 4219 2406 4219 
Q 1781 4219 1451 3797 
Q 1122 3375 1075 2522 
Q 1259 2794 1537 2939 
Q 1816 3084 2150 3084 
Q 2853 3084 3261 2657 
Q 3669 2231 3669 1497 
Q 3669 778 3244 343 
Q 2819 -91 2113 -91 
Q 1303 -91 875 529 
Q 447 1150 447 2328 
Q 447 3434 972 4092 
Q 1497 4750 2381 4750 
Q 2619 4750 2861 4703 
Q 3103 4656 3366 4563 
z
" transform="scale(0.015625)"/>
       </defs>
       <use xlink:href="#DejaVuSans-36"/>
       <use xlink:href="#DejaVuSans-30" transform="translate(63.623047 0)"/>
      </g>
     </g>
    </g>
    <g id="xtick_3">
     <g id="line2d_3">
      <g>
       <use xlink:href="#m3ff8b0e0b2" x="318.951353" y="320.4" style="stroke: #000000; stroke-width: 0.8"/>
      </g>
     </g>
     <g id="text_3">
      <!-- 120 -->
      <g transform="translate(309.407603 334.998438) scale(0.1 -0.1)">
       <defs>
        <path id="DejaVuSans-31" d="M 794 531 
L 1825 531 
L 1825 4091 
L 703 3866 
L 703 4441 
L 1819 4666 
L 2450 4666 
L 2450 531 
L 3481 531 
L 3481 0 
L 794 0 
L 794 531 
z
" transform="scale(0.015625)"/>
        <path id="DejaVuSans-32" d="M 1228 531 
L 3431 531 
L 3431 0 
L 469 0 
L 469 531 
Q 828 903 1448 1529 
Q 2069 2156 2228 2338 
Q 2531 2678 2651 2914 
Q 2772 3150 2772 3378 
Q 2772 3750 2511 3984 
Q 2250 4219 1831 4219 
Q 1534 4219 1204 4116 
Q 875 4013 500 3803 
L 500 4441 
Q 881 4594 1212 4672 
Q 1544 4750 1819 4750 
Q 2544 4750 2975 4387 
Q 3406 4025 3406 3419 
Q 3406 3131 3298 2873 
Q 3191 2616 2906 2266 
Q 2828 2175 2409 1742 
Q 1991 1309 1228 531 
z
" transform="scale(0.015625)"/>
       </defs>
       <use xlink:href="#DejaVuSans-31"/>
       <use xlink:href="#DejaVuSans-32" transform="translate(63.623047 0)"/>
       <use xlink:href="#DejaVuSans-30" transform="translate(127.246094 0)"/>
      </g>
     </g>
    </g>
    <g id="xtick_4">
     <g id="line2d_4">
      <g>
       <use xlink:href="#m3ff8b0e0b2" x="420.745211" y="320.4" style="stroke: #000000; stroke-width: 0.8"/>
      </g>
     </g>
     <g id="text_4">
      <!-- 180 -->
      <g transform="translate(411.201461 334.998438) scale(0.1 -0.1)">
       <defs>
        <path id="DejaVuSans-38" d="M 2034 2216 
Q 1584 2216 1326 1975 
Q 1069 1734 1069 1313 
Q 1069 891 1326 650 
Q 1584 409 2034 409 
Q 2484 409 2743 651 
Q 3003 894 3003 1313 
Q 3003 1734 2745 1975 
Q 2488 2216 2034 2216 
z
M 1403 2484 
Q 997 2584 770 2862 
Q 544 3141 544 3541 
Q 544 4100 942 4425 
Q 1341 4750 2034 4750 
Q 2731 4750 3128 4425 
Q 3525 4100 3525 3541 
Q 3525 3141 3298 2862 
Q 3072 2584 2669 2484 
Q 3125 2378 3379 2068 
Q 3634 1759 3634 1313 
Q 3634 634 3220 271 
Q 2806 -91 2034 -91 
Q 1263 -91 848 271 
Q 434 634 434 1313 
Q 434 1759 690 2068 
Q 947 2378 1403 2484 
z
M 1172 3481 
Q 1172 3119 1398 2916 
Q 1625 2713 2034 2713 
Q 2441 2713 2670 2916 
Q 2900 3119 2900 3481 
Q 2900 3844 2670 4047 
Q 2441 4250 2034 4250 
Q 1625 4250 1398 4047 
Q 1172 3844 1172 3481 
z
" transform="scale(0.015625)"/>
       </defs>
       <use xlink:href="#DejaVuSans-31"/>
       <use xlink:href="#DejaVuSans-38" transform="translate(63.623047 0)"/>
       <use xlink:href="#DejaVuSans-30" transform="translate(127.246094 0)"/>
      </g>
     </g>
    </g>
    <g id="xtick_5">
     <g id="line2d_5">
      <g>
       <use xlink:href="#m3ff8b0e0b2" x="522.53907" y="320.4" style="stroke: #000000; stroke-width: 0.8"/>
      </g>
     </g>
     <g id="text_5">
      <!-- 240 -->
      <g transform="translate(512.99532 334.998438) scale(0.1 -0.1)">
       <defs>
        <path id="DejaVuSans-34" d="M 2419 4116 
L 825 1625 
L 2419 1625 
L 2419 4116 
z
M 2253 4666 
L 3047 4666 
L 3047 1625 
L 3713 1625 
L 3713 1100 
L 3047 1100 
L 3047 0 
L 2419 0 
L 2419 1100 
L 313 1100 
L 313 1709 
L 2253 4666 
z
" transform="scale(0.015625)"/>
       </defs>
       <use xlink:href="#DejaVuSans-32"/>
       <use xlink:href="#DejaVuSans-34" transform="translate(63.623047 0)"/>
       <use xlink:href="#DejaVuSans-30" transform="translate(127.246094 0)"/>
      </g>
     </g>
    </g>
    <g id="text_6">
     <!-- Epoch -->
     <g transform="translate(353.689062 348.676562) scale(0.1 -0.1)">
      <defs>
       <path id="DejaVuSans-45" d="M 628 4666 
L 3578 4666 
L 3578 4134 
L 1259 4134 
L 1259 2753 
L 3481 2753 
L 3481 2222 
L 1259 2222 
L 1259 531 
L 3634 531 
L 3634 0 
L 628 0 
L 628 4666 
z
" transform="scale(0.015625)"/>
       <path id="DejaVuSans-70" d="M 1159 525 
L 1159 -1331 
L 581 -1331 
L 581 3500 
L 1159 3500 
L 1159 2969 
Q 1341 3281 1617 3432 
Q 1894 3584 2278 3584 
Q 2916 3584 3314 3078 
Q 3713 2572 3713 1747 
Q 3713 922 3314 415 
Q 2916 -91 2278 -91 
Q 1894 -91 1617 61 
Q 1341 213 1159 525 
z
M 3116 1747 
Q 3116 2381 2855 2742 
Q 2594 3103 2138 3103 
Q 1681 3103 1420 2742 
Q 1159 2381 1159 1747 
Q 1159 1113 1420 752 
Q 1681 391 2138 391 
Q 2594 391 2855 752 
Q 3116 1113 3116 1747 
z
" transform="scale(0.015625)"/>
       <path id="DejaVuSans-6f" d="M 1959 3097 
Q 1497 3097 1228 2736 
Q 959 2375 959 1747 
Q 959 1119 1226 758 
Q 1494 397 1959 397 
Q 2419 397 2687 759 
Q 2956 1122 2956 1747 
Q 2956 2369 2687 2733 
Q 2419 3097 1959 3097 
z
M 1959 3584 
Q 2709 3584 3137 3096 
Q 3566 2609 3566 1747 
Q 3566 888 3137 398 
Q 2709 -91 1959 -91 
Q 1206 -91 779 398 
Q 353 888 353 1747 
Q 353 2609 779 3096 
Q 1206 3584 1959 3584 
z
" transform="scale(0.015625)"/>
       <path id="DejaVuSans-63" d="M 3122 3366 
L 3122 2828 
Q 2878 2963 2633 3030 
Q 2388 3097 2138 3097 
Q 1578 3097 1268 2742 
Q 959 2388 959 1747 
Q 959 1106 1268 751 
Q 1578 397 2138 397 
Q 2388 397 2633 464 
Q 2878 531 3122 666 
L 3122 134 
Q 2881 22 2623 -34 
Q 2366 -91 2075 -91 
Q 1284 -91 818 406 
Q 353 903 353 1747 
Q 353 2603 823 3093 
Q 1294 3584 2113 3584 
Q 2378 3584 2631 3529 
Q 2884 3475 3122 3366 
z
" transform="scale(0.015625)"/>
       <path id="DejaVuSans-68" d="M 3513 2113 
L 3513 0 
L 2938 0 
L 2938 2094 
Q 2938 2591 2744 2837 
Q 2550 3084 2163 3084 
Q 1697 3084 1428 2787 
Q 1159 2491 1159 1978 
L 1159 0 
L 581 0 
L 581 4863 
L 1159 4863 
L 1159 2956 
Q 1366 3272 1645 3428 
Q 1925 3584 2291 3584 
Q 2894 3584 3203 3211 
Q 3513 2838 3513 2113 
z
" transform="scale(0.015625)"/>
      </defs>
      <use xlink:href="#DejaVuSans-45"/>
      <use xlink:href="#DejaVuSans-70" transform="translate(63.183594 0)"/>
      <use xlink:href="#DejaVuSans-6f" transform="translate(126.660156 0)"/>
      <use xlink:href="#DejaVuSans-63" transform="translate(187.841797 0)"/>
      <use xlink:href="#DejaVuSans-68" transform="translate(242.822266 0)"/>
     </g>
    </g>
   </g>
   <g id="matplotlib.axis_2">
    <g id="ytick_1">
     <g id="line2d_6">
      <defs>
       <path id="m1f757ac181" d="M 0 0 
L -3.5 0 
" style="stroke: #000000; stroke-width: 0.8"/>
      </defs>
      <g>
       <use xlink:href="#m1f757ac181" x="90" y="290.087261" style="stroke: #000000; stroke-width: 0.8"/>
      </g>
     </g>
     <g id="text_7">
      <!-- 0.75 -->
      <g transform="translate(60.734375 293.88648) scale(0.1 -0.1)">
       <defs>
        <path id="DejaVuSans-2e" d="M 684 794 
L 1344 794 
L 1344 0 
L 684 0 
L 684 794 
z
" transform="scale(0.015625)"/>
        <path id="DejaVuSans-37" d="M 525 4666 
L 3525 4666 
L 3525 4397 
L 1831 0 
L 1172 0 
L 2766 4134 
L 525 4134 
L 525 4666 
z
" transform="scale(0.015625)"/>
        <path id="DejaVuSans-35" d="M 691 4666 
L 3169 4666 
L 3169 4134 
L 1269 4134 
L 1269 2991 
Q 1406 3038 1543 3061 
Q 1681 3084 1819 3084 
Q 2600 3084 3056 2656 
Q 3513 2228 3513 1497 
Q 3513 744 3044 326 
Q 2575 -91 1722 -91 
Q 1428 -91 1123 -41 
Q 819 9 494 109 
L 494 744 
Q 775 591 1075 516 
Q 1375 441 1709 441 
Q 2250 441 2565 725 
Q 2881 1009 2881 1497 
Q 2881 1984 2565 2268 
Q 2250 2553 1709 2553 
Q 1456 2553 1204 2497 
Q 953 2441 691 2322 
L 691 4666 
z
" transform="scale(0.015625)"/>
       </defs>
       <use xlink:href="#DejaVuSans-30"/>
       <use xlink:href="#DejaVuSans-2e" transform="translate(63.623047 0)"/>
       <use xlink:href="#DejaVuSans-37" transform="translate(95.410156 0)"/>
       <use xlink:href="#DejaVuSans-35" transform="translate(159.033203 0)"/>
      </g>
     </g>
    </g>
    <g id="ytick_2">
     <g id="line2d_7">
      <g>
       <use xlink:href="#m1f757ac181" x="90" y="257.531181" style="stroke: #000000; stroke-width: 0.8"/>
      </g>
     </g>
     <g id="text_8">
      <!-- 1.00 -->
      <g transform="translate(60.734375 261.3304) scale(0.1 -0.1)">
       <use xlink:href="#DejaVuSans-31"/>
       <use xlink:href="#DejaVuSans-2e" transform="translate(63.623047 0)"/>
       <use xlink:href="#DejaVuSans-30" transform="translate(95.410156 0)"/>
       <use xlink:href="#DejaVuSans-30" transform="translate(159.033203 0)"/>
      </g>
     </g>
    </g>
    <g id="ytick_3">
     <g id="line2d_8">
      <g>
       <use xlink:href="#m1f757ac181" x="90" y="224.9751" style="stroke: #000000; stroke-width: 0.8"/>
      </g>
     </g>
     <g id="text_9">
      <!-- 1.25 -->
      <g transform="translate(60.734375 228.774319) scale(0.1 -0.1)">
       <use xlink:href="#DejaVuSans-31"/>
       <use xlink:href="#DejaVuSans-2e" transform="translate(63.623047 0)"/>
       <use xlink:href="#DejaVuSans-32" transform="translate(95.410156 0)"/>
       <use xlink:href="#DejaVuSans-35" transform="translate(159.033203 0)"/>
      </g>
     </g>
    </g>
    <g id="ytick_4">
     <g id="line2d_9">
      <g>
       <use xlink:href="#m1f757ac181" x="90" y="192.41902" style="stroke: #000000; stroke-width: 0.8"/>
      </g>
     </g>
     <g id="text_10">
      <!-- 1.50 -->
      <g transform="translate(60.734375 196.218239) scale(0.1 -0.1)">
       <use xlink:href="#DejaVuSans-31"/>
       <use xlink:href="#DejaVuSans-2e" transform="translate(63.623047 0)"/>
       <use xlink:href="#DejaVuSans-35" transform="translate(95.410156 0)"/>
       <use xlink:href="#DejaVuSans-30" transform="translate(159.033203 0)"/>
      </g>
     </g>
    </g>
    <g id="ytick_5">
     <g id="line2d_10">
      <g>
       <use xlink:href="#m1f757ac181" x="90" y="159.86294" style="stroke: #000000; stroke-width: 0.8"/>
      </g>
     </g>
     <g id="text_11">
      <!-- 1.75 -->
      <g transform="translate(60.734375 163.662159) scale(0.1 -0.1)">
       <use xlink:href="#DejaVuSans-31"/>
       <use xlink:href="#DejaVuSans-2e" transform="translate(63.623047 0)"/>
       <use xlink:href="#DejaVuSans-37" transform="translate(95.410156 0)"/>
       <use xlink:href="#DejaVuSans-35" transform="translate(159.033203 0)"/>
      </g>
     </g>
    </g>
    <g id="ytick_6">
     <g id="line2d_11">
      <g>
       <use xlink:href="#m1f757ac181" x="90" y="127.30686" style="stroke: #000000; stroke-width: 0.8"/>
      </g>
     </g>
     <g id="text_12">
      <!-- 2.00 -->
      <g transform="translate(60.734375 131.106078) scale(0.1 -0.1)">
       <use xlink:href="#DejaVuSans-32"/>
       <use xlink:href="#DejaVuSans-2e" transform="translate(63.623047 0)"/>
       <use xlink:href="#DejaVuSans-30" transform="translate(95.410156 0)"/>
       <use xlink:href="#DejaVuSans-30" transform="translate(159.033203 0)"/>
      </g>
     </g>
    </g>
    <g id="ytick_7">
     <g id="line2d_12">
      <g>
       <use xlink:href="#m1f757ac181" x="90" y="94.750779" style="stroke: #000000; stroke-width: 0.8"/>
      </g>
     </g>
     <g id="text_13">
      <!-- 2.25 -->
      <g transform="translate(60.734375 98.549998) scale(0.1 -0.1)">
       <use xlink:href="#DejaVuSans-32"/>
       <use xlink:href="#DejaVuSans-2e" transform="translate(63.623047 0)"/>
       <use xlink:href="#DejaVuSans-32" transform="translate(95.410156 0)"/>
       <use xlink:href="#DejaVuSans-35" transform="translate(159.033203 0)"/>
      </g>
     </g>
    </g>
    <g id="ytick_8">
     <g id="line2d_13">
      <g>
       <use xlink:href="#m1f757ac181" x="90" y="62.194699" style="stroke: #000000; stroke-width: 0.8"/>
      </g>
     </g>
     <g id="text_14">
      <!-- 2.50 -->
      <g transform="translate(60.734375 65.993918) scale(0.1 -0.1)">
       <use xlink:href="#DejaVuSans-32"/>
       <use xlink:href="#DejaVuSans-2e" transform="translate(63.623047 0)"/>
       <use xlink:href="#DejaVuSans-35" transform="translate(95.410156 0)"/>
       <use xlink:href="#DejaVuSans-30" transform="translate(159.033203 0)"/>
      </g>
     </g>
    </g>
    <g id="text_15">
     <!-- Domain Discrimination Loss -->
     <g transform="translate(54.654687 251.453906) rotate(-90) scale(0.1 -0.1)">
      <defs>
       <path id="DejaVuSans-44" d="M 1259 4147 
L 1259 519 
L 2022 519 
Q 2988 519 3436 956 
Q 3884 1394 3884 2338 
Q 3884 3275 3436 3711 
Q 2988 4147 2022 4147 
L 1259 4147 
z
M 628 4666 
L 1925 4666 
Q 3281 4666 3915 4102 
Q 4550 3538 4550 2338 
Q 4550 1131 3912 565 
Q 3275 0 1925 0 
L 628 0 
L 628 4666 
z
" transform="scale(0.015625)"/>
       <path id="DejaVuSans-6d" d="M 3328 2828 
Q 3544 3216 3844 3400 
Q 4144 3584 4550 3584 
Q 5097 3584 5394 3201 
Q 5691 2819 5691 2113 
L 5691 0 
L 5113 0 
L 5113 2094 
Q 5113 2597 4934 2840 
Q 4756 3084 4391 3084 
Q 3944 3084 3684 2787 
Q 3425 2491 3425 1978 
L 3425 0 
L 2847 0 
L 2847 2094 
Q 2847 2600 2669 2842 
Q 2491 3084 2119 3084 
Q 1678 3084 1418 2786 
Q 1159 2488 1159 1978 
L 1159 0 
L 581 0 
L 581 3500 
L 1159 3500 
L 1159 2956 
Q 1356 3278 1631 3431 
Q 1906 3584 2284 3584 
Q 2666 3584 2933 3390 
Q 3200 3197 3328 2828 
z
" transform="scale(0.015625)"/>
       <path id="DejaVuSans-61" d="M 2194 1759 
Q 1497 1759 1228 1600 
Q 959 1441 959 1056 
Q 959 750 1161 570 
Q 1363 391 1709 391 
Q 2188 391 2477 730 
Q 2766 1069 2766 1631 
L 2766 1759 
L 2194 1759 
z
M 3341 1997 
L 3341 0 
L 2766 0 
L 2766 531 
Q 2569 213 2275 61 
Q 1981 -91 1556 -91 
Q 1019 -91 701 211 
Q 384 513 384 1019 
Q 384 1609 779 1909 
Q 1175 2209 1959 2209 
L 2766 2209 
L 2766 2266 
Q 2766 2663 2505 2880 
Q 2244 3097 1772 3097 
Q 1472 3097 1187 3025 
Q 903 2953 641 2809 
L 641 3341 
Q 956 3463 1253 3523 
Q 1550 3584 1831 3584 
Q 2591 3584 2966 3190 
Q 3341 2797 3341 1997 
z
" transform="scale(0.015625)"/>
       <path id="DejaVuSans-69" d="M 603 3500 
L 1178 3500 
L 1178 0 
L 603 0 
L 603 3500 
z
M 603 4863 
L 1178 4863 
L 1178 4134 
L 603 4134 
L 603 4863 
z
" transform="scale(0.015625)"/>
       <path id="DejaVuSans-6e" d="M 3513 2113 
L 3513 0 
L 2938 0 
L 2938 2094 
Q 2938 2591 2744 2837 
Q 2550 3084 2163 3084 
Q 1697 3084 1428 2787 
Q 1159 2491 1159 1978 
L 1159 0 
L 581 0 
L 581 3500 
L 1159 3500 
L 1159 2956 
Q 1366 3272 1645 3428 
Q 1925 3584 2291 3584 
Q 2894 3584 3203 3211 
Q 3513 2838 3513 2113 
z
" transform="scale(0.015625)"/>
       <path id="DejaVuSans-20" transform="scale(0.015625)"/>
       <path id="DejaVuSans-73" d="M 2834 3397 
L 2834 2853 
Q 2591 2978 2328 3040 
Q 2066 3103 1784 3103 
Q 1356 3103 1142 2972 
Q 928 2841 928 2578 
Q 928 2378 1081 2264 
Q 1234 2150 1697 2047 
L 1894 2003 
Q 2506 1872 2764 1633 
Q 3022 1394 3022 966 
Q 3022 478 2636 193 
Q 2250 -91 1575 -91 
Q 1294 -91 989 -36 
Q 684 19 347 128 
L 347 722 
Q 666 556 975 473 
Q 1284 391 1588 391 
Q 1994 391 2212 530 
Q 2431 669 2431 922 
Q 2431 1156 2273 1281 
Q 2116 1406 1581 1522 
L 1381 1569 
Q 847 1681 609 1914 
Q 372 2147 372 2553 
Q 372 3047 722 3315 
Q 1072 3584 1716 3584 
Q 2034 3584 2315 3537 
Q 2597 3491 2834 3397 
z
" transform="scale(0.015625)"/>
       <path id="DejaVuSans-72" d="M 2631 2963 
Q 2534 3019 2420 3045 
Q 2306 3072 2169 3072 
Q 1681 3072 1420 2755 
Q 1159 2438 1159 1844 
L 1159 0 
L 581 0 
L 581 3500 
L 1159 3500 
L 1159 2956 
Q 1341 3275 1631 3429 
Q 1922 3584 2338 3584 
Q 2397 3584 2469 3576 
Q 2541 3569 2628 3553 
L 2631 2963 
z
" transform="scale(0.015625)"/>
       <path id="DejaVuSans-74" d="M 1172 4494 
L 1172 3500 
L 2356 3500 
L 2356 3053 
L 1172 3053 
L 1172 1153 
Q 1172 725 1289 603 
Q 1406 481 1766 481 
L 2356 481 
L 2356 0 
L 1766 0 
Q 1100 0 847 248 
Q 594 497 594 1153 
L 594 3053 
L 172 3053 
L 172 3500 
L 594 3500 
L 594 4494 
L 1172 4494 
z
" transform="scale(0.015625)"/>
       <path id="DejaVuSans-4c" d="M 628 4666 
L 1259 4666 
L 1259 531 
L 3531 531 
L 3531 0 
L 628 0 
L 628 4666 
z
" transform="scale(0.015625)"/>
      </defs>
      <use xlink:href="#DejaVuSans-44"/>
      <use xlink:href="#DejaVuSans-6f" transform="translate(77.001953 0)"/>
      <use xlink:href="#DejaVuSans-6d" transform="translate(138.183594 0)"/>
      <use xlink:href="#DejaVuSans-61" transform="translate(235.595703 0)"/>
      <use xlink:href="#DejaVuSans-69" transform="translate(296.875 0)"/>
      <use xlink:href="#DejaVuSans-6e" transform="translate(324.658203 0)"/>
      <use xlink:href="#DejaVuSans-20" transform="translate(388.037109 0)"/>
      <use xlink:href="#DejaVuSans-44" transform="translate(419.824219 0)"/>
      <use xlink:href="#DejaVuSans-69" transform="translate(496.826172 0)"/>
      <use xlink:href="#DejaVuSans-73" transform="translate(524.609375 0)"/>
      <use xlink:href="#DejaVuSans-63" transform="translate(576.708984 0)"/>
      <use xlink:href="#DejaVuSans-72" transform="translate(631.689453 0)"/>
      <use xlink:href="#DejaVuSans-69" transform="translate(672.802734 0)"/>
      <use xlink:href="#DejaVuSans-6d" transform="translate(700.585938 0)"/>
      <use xlink:href="#DejaVuSans-69" transform="translate(797.998047 0)"/>
      <use xlink:href="#DejaVuSans-6e" transform="translate(825.78125 0)"/>
      <use xlink:href="#DejaVuSans-61" transform="translate(889.160156 0)"/>
      <use xlink:href="#DejaVuSans-74" transform="translate(950.439453 0)"/>
      <use xlink:href="#DejaVuSans-69" transform="translate(989.648438 0)"/>
      <use xlink:href="#DejaVuSans-6f" transform="translate(1017.431641 0)"/>
      <use xlink:href="#DejaVuSans-6e" transform="translate(1078.613281 0)"/>
      <use xlink:href="#DejaVuSans-20" transform="translate(1141.992188 0)"/>
      <use xlink:href="#DejaVuSans-4c" transform="translate(1173.779297 0)"/>
      <use xlink:href="#DejaVuSans-6f" transform="translate(1227.742188 0)"/>
      <use xlink:href="#DejaVuSans-73" transform="translate(1288.923828 0)"/>
      <use xlink:href="#DejaVuSans-73" transform="translate(1341.023438 0)"/>
     </g>
    </g>
   </g>
   <g id="line2d_14">
    <path d="M 115.363636 287.318289 
L 117.060201 301.813084 
L 118.756765 298.591372 
L 120.453329 291.690689 
L 122.149894 293.947104 
L 123.846458 293.692911 
L 125.543022 296.527257 
L 127.239587 296.507476 
L 128.936151 300.952587 
L 130.632715 296.134247 
L 132.329279 287.269132 
L 134.025844 289.524078 
L 135.722408 294.45472 
L 137.418972 293.192347 
L 139.115537 290.701221 
L 140.812101 287.006085 
L 142.508665 293.484719 
L 144.20523 289.264092 
L 145.901794 297.669706 
L 147.598358 293.570351 
L 149.294922 298.345829 
L 150.991487 286.118644 
L 152.688051 296.89839 
L 154.384615 300.652091 
L 156.08118 297.807624 
L 157.777744 296.570204 
L 159.474308 297.488338 
L 161.170873 300.060642 
L 162.867437 297.670275 
L 164.564001 298.889507 
L 166.260566 296.957587 
L 167.95713 301.48853 
L 169.653694 301.437548 
L 171.350258 297.446428 
L 173.046823 296.362652 
L 174.743387 299.914955 
L 178.136516 295.282495 
L 179.83308 299.024801 
L 181.529644 300.37101 
L 183.226209 295.410184 
L 184.922773 295.319962 
L 186.619337 292.831855 
L 188.315901 294.047815 
L 190.012466 290.019636 
L 191.70903 294.248196 
L 193.405594 289.378448 
L 195.102159 295.934771 
L 196.798723 293.050673 
L 198.495287 297.33017 
L 200.191852 298.19299 
L 201.888416 294.743039 
L 203.58498 296.948196 
L 206.978109 298.036409 
L 208.674673 299.326235 
L 210.371237 298.055669 
L 212.067802 301.044766 
L 213.764366 294.287254 
L 215.46093 299.17447 
L 217.157495 294.154087 
L 218.854059 300.160921 
L 220.550623 293.473472 
L 222.247188 297.771683 
L 223.943752 289.978453 
L 225.640316 292.28462 
L 227.336881 295.321536 
L 229.033445 292.724726 
L 230.730009 294.416824 
L 232.426573 298.120009 
L 234.123138 298.487895 
L 235.819702 295.986894 
L 237.516266 298.985686 
L 239.212831 296.790774 
L 240.909395 296.622185 
L 242.605959 295.677786 
L 244.302524 298.146132 
L 245.999088 295.610321 
L 247.695652 294.789293 
L 249.392216 298.175292 
L 251.088781 299.427187 
L 252.785345 293.348144 
L 254.481909 297.202928 
L 256.178474 299.596256 
L 257.875038 298.864858 
L 259.571602 293.522896 
L 261.268167 293.514814 
L 262.964731 293.240432 
L 264.661295 296.398822 
L 266.35786 296.177468 
L 268.054424 297.004158 
L 269.750988 298.883818 
L 271.447552 297.808328 
L 274.840681 300.759992 
L 276.537245 298.592689 
L 278.23381 295.119971 
L 279.930374 290.995424 
L 281.626938 293.539104 
L 283.323503 291.123265 
L 285.020067 295.668183 
L 286.716631 295.951095 
L 290.10976 297.056737 
L 291.806324 298.407078 
L 293.502888 295.768921 
L 295.199453 298.346913 
L 296.896017 299.437337 
L 298.592581 299.257845 
L 300.289146 296.881014 
L 301.98571 297.665785 
L 303.682274 291.572318 
L 305.378839 289.679416 
L 307.075403 289.604863 
L 308.771967 293.771109 
L 310.468531 294.89098 
L 312.165096 297.250215 
L 313.86166 294.289717 
L 315.558224 297.034926 
L 317.254789 298.33031 
L 318.951353 297.168687 
L 320.647917 299.530849 
L 322.344482 291.954756 
L 324.041046 295.266356 
L 325.73761 298.990859 
L 327.434175 298.725855 
L 329.130739 297.66052 
L 330.827303 297.919622 
L 332.523867 293.832101 
L 334.220432 293.573245 
L 335.916996 300.084764 
L 337.61356 296.431154 
L 339.310125 293.355433 
L 341.006689 296.479372 
L 342.703253 295.733993 
L 344.399818 293.341411 
L 346.096382 298.827467 
L 347.792946 296.473353 
L 351.186075 298.673768 
L 352.882639 298.106909 
L 354.579203 298.964711 
L 357.972332 296.621642 
L 359.668896 297.896551 
L 361.365461 296.484273 
L 363.062025 299.373336 
L 364.758589 296.701431 
L 366.455154 295.079405 
L 368.151718 295.939198 
L 369.848282 299.110909 
L 371.544846 301.165136 
L 373.241411 293.694765 
L 374.937975 291.593507 
L 376.634539 295.603789 
L 378.331104 294.541108 
L 380.027668 295.92514 
L 381.724232 296.096778 
L 383.420797 300.602445 
L 385.117361 297.668138 
L 386.813925 297.194843 
L 388.51049 295.836912 
L 390.207054 299.532299 
L 391.903618 296.165995 
L 393.600182 297.768793 
L 395.296747 296.245061 
L 396.993311 296.536554 
L 398.689875 297.36034 
L 400.38644 299.49269 
L 402.083004 302.098509 
L 403.779568 296.737088 
L 405.476133 294.040861 
L 407.172697 290.984645 
L 408.869261 295.816137 
L 410.565825 296.429712 
L 412.26239 298.601192 
L 413.958954 299.22064 
L 415.655518 291.299582 
L 417.352083 295.337776 
L 419.048647 296.820209 
L 420.745211 294.707988 
L 422.441776 297.94822 
L 424.13834 298.464949 
L 425.834904 291.205882 
L 427.531469 295.806466 
L 429.228033 297.474736 
L 430.924597 300.149308 
L 432.621161 294.71895 
L 434.317726 301.138449 
L 436.01429 299.820113 
L 437.710854 301.15341 
L 439.407419 293.384802 
L 441.103983 294.494667 
L 442.800547 293.063839 
L 444.497112 295.915201 
L 446.193676 297.33602 
L 447.89024 299.061093 
L 449.586804 297.879655 
L 451.283369 300.570995 
L 452.979933 299.478492 
L 454.676497 299.794707 
L 456.373062 302.073378 
L 458.069626 307.8 
L 459.76619 293.398458 
L 461.462755 290.152772 
L 463.159319 294.198965 
L 464.855883 297.935986 
L 466.552448 295.705186 
L 468.249012 300.014959 
L 469.945576 299.862476 
L 471.64214 301.722703 
L 473.338705 295.706899 
L 475.035269 296.126528 
L 476.731833 296.936976 
L 478.428398 303.260369 
L 480.124962 295.484575 
L 481.821526 293.581528 
L 483.518091 301.820458 
L 485.214655 300.030251 
L 486.911219 298.0231 
L 488.607784 299.068553 
L 490.304348 298.018256 
L 492.000912 297.311489 
L 493.697476 300.448088 
L 495.394041 296.254694 
L 497.090605 298.824308 
L 498.787169 297.787271 
L 500.483734 296.362745 
L 502.180298 294.384994 
L 503.876862 293.622618 
L 505.573427 297.774851 
L 507.269991 298.861089 
L 508.966555 296.044379 
L 510.663119 302.178882 
L 512.359684 294.189 
L 514.056248 292.744004 
L 515.752812 297.798534 
L 517.449377 298.046401 
L 519.145941 299.034081 
L 520.842505 301.478173 
L 522.53907 298.844153 
L 524.235634 296.747569 
L 525.932198 297.979562 
L 527.628763 301.657356 
L 529.325327 301.034565 
L 531.021891 297.188781 
L 532.718455 298.227102 
L 534.41502 290.060547 
L 536.111584 296.192722 
L 537.808148 301.021587 
L 539.504713 303.086634 
L 541.201277 294.255165 
L 542.897841 290.894949 
L 544.594406 298.562012 
L 546.29097 297.67534 
L 547.987534 295.992807 
L 549.684099 299.510991 
L 551.380663 300.848333 
L 553.077227 295.266296 
L 554.773791 292.004429 
L 556.470356 292.311373 
L 558.16692 296.208388 
L 559.863484 295.02309 
L 561.560049 291.55257 
L 563.256613 294.680727 
L 564.953177 296.882768 
L 566.649742 296.850745 
L 568.346306 295.337407 
L 570.04287 297.476683 
L 571.739434 300.147697 
L 573.435999 298.623693 
L 575.132563 302.296001 
L 576.829127 299.815005 
L 578.525692 295.997978 
L 580.222256 291.650252 
L 581.91882 296.651806 
L 583.615385 293.7494 
L 585.311949 296.352206 
L 587.008513 296.089773 
L 588.705078 298.340959 
L 590.401642 298.726208 
L 592.098206 302.74696 
L 593.79477 287.917453 
L 595.491335 294.739553 
L 597.187899 299.611874 
L 598.884463 295.641225 
L 600.581028 297.781994 
L 602.277592 298.977053 
L 603.974156 297.950836 
L 605.670721 299.139988 
L 607.367285 301.498036 
L 609.063849 301.699291 
L 610.760413 296.017885 
L 612.456978 293.218016 
L 614.153542 300.242315 
L 615.850106 297.548084 
L 617.546671 292.723964 
L 619.243235 300.81533 
L 620.939799 293.794215 
L 622.636364 295.171716 
L 622.636364 295.171716 
" clip-path="url(#pcf4c7bc34b)" style="fill: none; stroke: #1f77b4; stroke-width: 1.5; stroke-linecap: square"/>
   </g>
   <g id="line2d_15">
    <path d="M 115.363636 213.03269 
L 117.060201 225.3421 
L 118.756765 230.331422 
L 120.453329 204.986105 
L 122.149894 223.242406 
L 123.846458 248.696573 
L 125.543022 248.01896 
L 127.239587 243.877969 
L 128.936151 269.126424 
L 130.632715 214.391882 
L 132.329279 127.196745 
L 134.025844 55.8 
L 135.722408 176.292146 
L 137.418972 272.87023 
L 139.115537 212.772576 
L 140.812101 236.460861 
L 142.508665 264.830623 
L 144.20523 229.749764 
L 145.901794 147.098383 
L 147.598358 96.118204 
L 149.294922 162.435027 
L 150.991487 182.653859 
L 152.688051 232.440827 
L 154.384615 196.609599 
L 156.08118 210.840782 
L 157.777744 224.088456 
L 159.474308 196.394838 
L 162.867437 212.69663 
L 164.564001 244.848638 
L 166.260566 211.30004 
L 167.95713 206.018659 
L 169.653694 225.592577 
L 171.350258 221.684138 
L 173.046823 178.31286 
L 174.743387 178.226812 
L 176.439951 230.527314 
L 178.136516 199.216138 
L 179.83308 239.807179 
L 181.529644 261.053091 
L 183.226209 226.777023 
L 184.922773 199.32844 
L 186.619337 244.495469 
L 188.315901 208.085103 
L 190.012466 220.577915 
L 191.70903 209.78343 
L 193.405594 209.6177 
L 195.102159 194.753881 
L 196.798723 205.481993 
L 198.495287 203.047904 
L 200.191852 211.708992 
L 201.888416 209.001352 
L 203.58498 227.969226 
L 205.281545 204.993954 
L 206.978109 211.58009 
L 208.674673 195.473904 
L 210.371237 227.582403 
L 212.067802 222.738166 
L 213.764366 210.596567 
L 215.46093 215.756889 
L 217.157495 232.422162 
L 218.854059 230.903412 
L 220.550623 217.801117 
L 222.247188 215.482222 
L 223.943752 224.440408 
L 225.640316 199.859423 
L 227.336881 201.917849 
L 229.033445 210.346446 
L 230.730009 207.289878 
L 232.426573 209.082795 
L 234.123138 213.532179 
L 235.819702 205.772727 
L 237.516266 218.322694 
L 239.212831 223.416122 
L 240.909395 229.657872 
L 242.605959 222.089305 
L 244.302524 221.538144 
L 245.999088 207.049049 
L 247.695652 212.572134 
L 249.392216 205.019694 
L 251.088781 228.056468 
L 252.785345 193.676441 
L 254.481909 213.388617 
L 256.178474 215.351372 
L 257.875038 232.889195 
L 259.571602 223.180782 
L 261.268167 224.807763 
L 262.964731 209.643668 
L 264.661295 204.284081 
L 266.35786 211.631716 
L 268.054424 216.847142 
L 269.750988 211.016281 
L 271.447552 211.463038 
L 273.144117 210.499497 
L 274.840681 212.438696 
L 276.537245 217.399067 
L 278.23381 187.436298 
L 279.930374 199.05123 
L 281.626938 182.285594 
L 283.323503 211.281739 
L 285.020067 217.818687 
L 286.716631 207.817914 
L 288.413196 225.666996 
L 290.10976 212.765424 
L 291.806324 207.704096 
L 293.502888 210.380347 
L 295.199453 220.366675 
L 296.896017 206.748189 
L 298.592581 221.269939 
L 300.289146 236.779537 
L 301.98571 235.994809 
L 303.682274 239.588054 
L 305.378839 205.618934 
L 307.075403 209.682088 
L 308.771967 200.382782 
L 310.468531 202.845968 
L 312.165096 208.447524 
L 313.86166 198.030482 
L 315.558224 215.287694 
L 317.254789 223.795135 
L 318.951353 210.198243 
L 320.647917 194.694233 
L 322.344482 195.366728 
L 324.041046 218.756675 
L 325.73761 227.463017 
L 327.434175 212.765186 
L 329.130739 218.087583 
L 330.827303 201.090943 
L 332.523867 195.862732 
L 334.220432 212.0695 
L 335.916996 218.353021 
L 337.61356 215.408924 
L 339.310125 206.638736 
L 341.006689 201.956718 
L 342.703253 214.535652 
L 344.399818 215.229095 
L 346.096382 206.504576 
L 349.48951 231.664695 
L 351.186075 210.550408 
L 352.882639 211.843652 
L 354.579203 199.083113 
L 356.275768 212.212847 
L 357.972332 231.101905 
L 359.668896 216.14959 
L 361.365461 218.005113 
L 363.062025 225.326061 
L 364.758589 209.937283 
L 366.455154 225.24061 
L 368.151718 214.898897 
L 369.848282 221.715209 
L 371.544846 213.231484 
L 373.241411 196.209849 
L 374.937975 200.051692 
L 376.634539 206.313005 
L 378.331104 218.467019 
L 380.027668 204.375672 
L 381.724232 202.40054 
L 383.420797 225.133055 
L 385.117361 219.875299 
L 386.813925 213.380662 
L 388.51049 198.201279 
L 390.207054 222.839189 
L 391.903618 222.907836 
L 393.600182 211.286681 
L 395.296747 216.032088 
L 396.993311 216.193975 
L 398.689875 221.806671 
L 400.38644 218.21158 
L 402.083004 229.063785 
L 403.779568 217.952959 
L 405.476133 186.210695 
L 407.172697 216.679275 
L 408.869261 202.84484 
L 410.565825 208.958705 
L 412.26239 213.805594 
L 413.958954 210.117701 
L 415.655518 178.67683 
L 417.352083 207.702381 
L 419.048647 218.606116 
L 420.745211 212.707034 
L 422.441776 212.494797 
L 424.13834 208.736486 
L 425.834904 218.874199 
L 427.531469 205.909342 
L 429.228033 214.084862 
L 432.621161 228.413935 
L 434.317726 220.576247 
L 436.01429 230.953383 
L 437.710854 208.953891 
L 439.407419 213.876604 
L 441.103983 224.831484 
L 442.800547 218.318154 
L 444.497112 207.942998 
L 446.193676 213.46189 
L 447.89024 208.435426 
L 449.586804 221.46023 
L 451.283369 231.170767 
L 452.979933 230.840346 
L 454.676497 226.423703 
L 456.373062 244.55237 
L 458.069626 268.866723 
L 459.76619 196.595581 
L 461.462755 209.795919 
L 463.159319 215.0654 
L 464.855883 212.040231 
L 466.552448 212.572042 
L 468.249012 217.487503 
L 469.945576 215.064054 
L 471.64214 217.636342 
L 473.338705 196.69764 
L 475.035269 212.242207 
L 476.731833 221.998309 
L 478.428398 241.185129 
L 480.124962 221.374996 
L 481.821526 214.869755 
L 483.518091 220.616377 
L 485.214655 222.063679 
L 486.911219 229.65719 
L 488.607784 224.924064 
L 490.304348 217.649154 
L 492.000912 214.966095 
L 493.697476 224.429715 
L 495.394041 207.35052 
L 497.090605 220.989857 
L 498.787169 210.507148 
L 500.483734 209.067213 
L 502.180298 211.245049 
L 503.876862 198.022917 
L 505.573427 219.249498 
L 507.269991 217.686543 
L 508.966555 226.595185 
L 510.663119 244.799052 
L 512.359684 218.141452 
L 514.056248 210.658413 
L 515.752812 197.499089 
L 517.449377 228.327346 
L 519.145941 220.911568 
L 520.842505 229.058107 
L 522.53907 233.799614 
L 524.235634 222.064236 
L 525.932198 218.004634 
L 527.628763 249.26186 
L 529.325327 226.678471 
L 531.021891 246.457467 
L 532.718455 228.680699 
L 534.41502 195.926026 
L 536.111584 210.848182 
L 537.808148 241.788174 
L 539.504713 248.313682 
L 541.201277 192.003534 
L 542.897841 220.202271 
L 544.594406 209.465455 
L 546.29097 207.394925 
L 547.987534 219.29901 
L 549.684099 214.677586 
L 551.380663 253.233651 
L 553.077227 197.086251 
L 554.773791 226.020806 
L 556.470356 218.233395 
L 558.16692 218.388948 
L 559.863484 203.941271 
L 561.560049 197.255014 
L 563.256613 222.909347 
L 564.953177 210.539795 
L 566.649742 217.171116 
L 568.346306 212.358071 
L 570.04287 225.015774 
L 571.739434 234.902193 
L 573.435999 222.7531 
L 575.132563 219.458942 
L 576.829127 224.648669 
L 578.525692 215.629442 
L 580.222256 230.442316 
L 581.91882 214.223772 
L 583.615385 202.975773 
L 585.311949 201.679173 
L 587.008513 199.055947 
L 588.705078 235.16659 
L 590.401642 220.869275 
L 592.098206 216.559924 
L 593.79477 179.868511 
L 595.491335 215.081194 
L 597.187899 211.158215 
L 598.884463 230.567808 
L 600.581028 223.007187 
L 602.277592 222.074812 
L 603.974156 216.077038 
L 605.670721 224.161974 
L 607.367285 255.891843 
L 609.063849 261.568628 
L 610.760413 220.608012 
L 612.456978 202.364615 
L 614.153542 218.477629 
L 615.850106 220.162178 
L 617.546671 212.881199 
L 619.243235 214.105509 
L 620.939799 216.359369 
L 622.636364 250.239574 
L 622.636364 250.239574 
" clip-path="url(#pcf4c7bc34b)" style="fill: none; stroke: #ff7f0e; stroke-width: 1.5; stroke-linecap: square"/>
   </g>
   <g id="patch_3">
    <path d="M 90 320.4 
L 90 43.2 
" style="fill: none; stroke: #000000; stroke-width: 0.8; stroke-linejoin: miter; stroke-linecap: square"/>
   </g>
   <g id="patch_4">
    <path d="M 648 320.4 
L 648 43.2 
" style="fill: none; stroke: #000000; stroke-width: 0.8; stroke-linejoin: miter; stroke-linecap: square"/>
   </g>
   <g id="patch_5">
    <path d="M 90 320.4 
L 648 320.4 
" style="fill: none; stroke: #000000; stroke-width: 0.8; stroke-linejoin: miter; stroke-linecap: square"/>
   </g>
   <g id="patch_6">
    <path d="M 90 43.2 
L 648 43.2 
" style="fill: none; stroke: #000000; stroke-width: 0.8; stroke-linejoin: miter; stroke-linecap: square"/>
   </g>
   <g id="text_16">
    <!-- Training and Validating Domain Discrimination Loss -->
    <g transform="translate(214.96875 37.2) scale(0.12 -0.12)">
     <defs>
      <path id="DejaVuSans-54" d="M -19 4666 
L 3928 4666 
L 3928 4134 
L 2272 4134 
L 2272 0 
L 1638 0 
L 1638 4134 
L -19 4134 
L -19 4666 
z
" transform="scale(0.015625)"/>
      <path id="DejaVuSans-67" d="M 2906 1791 
Q 2906 2416 2648 2759 
Q 2391 3103 1925 3103 
Q 1463 3103 1205 2759 
Q 947 2416 947 1791 
Q 947 1169 1205 825 
Q 1463 481 1925 481 
Q 2391 481 2648 825 
Q 2906 1169 2906 1791 
z
M 3481 434 
Q 3481 -459 3084 -895 
Q 2688 -1331 1869 -1331 
Q 1566 -1331 1297 -1286 
Q 1028 -1241 775 -1147 
L 775 -588 
Q 1028 -725 1275 -790 
Q 1522 -856 1778 -856 
Q 2344 -856 2625 -561 
Q 2906 -266 2906 331 
L 2906 616 
Q 2728 306 2450 153 
Q 2172 0 1784 0 
Q 1141 0 747 490 
Q 353 981 353 1791 
Q 353 2603 747 3093 
Q 1141 3584 1784 3584 
Q 2172 3584 2450 3431 
Q 2728 3278 2906 2969 
L 2906 3500 
L 3481 3500 
L 3481 434 
z
" transform="scale(0.015625)"/>
      <path id="DejaVuSans-64" d="M 2906 2969 
L 2906 4863 
L 3481 4863 
L 3481 0 
L 2906 0 
L 2906 525 
Q 2725 213 2448 61 
Q 2172 -91 1784 -91 
Q 1150 -91 751 415 
Q 353 922 353 1747 
Q 353 2572 751 3078 
Q 1150 3584 1784 3584 
Q 2172 3584 2448 3432 
Q 2725 3281 2906 2969 
z
M 947 1747 
Q 947 1113 1208 752 
Q 1469 391 1925 391 
Q 2381 391 2643 752 
Q 2906 1113 2906 1747 
Q 2906 2381 2643 2742 
Q 2381 3103 1925 3103 
Q 1469 3103 1208 2742 
Q 947 2381 947 1747 
z
" transform="scale(0.015625)"/>
      <path id="DejaVuSans-56" d="M 1831 0 
L 50 4666 
L 709 4666 
L 2188 738 
L 3669 4666 
L 4325 4666 
L 2547 0 
L 1831 0 
z
" transform="scale(0.015625)"/>
      <path id="DejaVuSans-6c" d="M 603 4863 
L 1178 4863 
L 1178 0 
L 603 0 
L 603 4863 
z
" transform="scale(0.015625)"/>
     </defs>
     <use xlink:href="#DejaVuSans-54"/>
     <use xlink:href="#DejaVuSans-72" transform="translate(46.333984 0)"/>
     <use xlink:href="#DejaVuSans-61" transform="translate(87.447266 0)"/>
     <use xlink:href="#DejaVuSans-69" transform="translate(148.726562 0)"/>
     <use xlink:href="#DejaVuSans-6e" transform="translate(176.509766 0)"/>
     <use xlink:href="#DejaVuSans-69" transform="translate(239.888672 0)"/>
     <use xlink:href="#DejaVuSans-6e" transform="translate(267.671875 0)"/>
     <use xlink:href="#DejaVuSans-67" transform="translate(331.050781 0)"/>
     <use xlink:href="#DejaVuSans-20" transform="translate(394.527344 0)"/>
     <use xlink:href="#DejaVuSans-61" transform="translate(426.314453 0)"/>
     <use xlink:href="#DejaVuSans-6e" transform="translate(487.59375 0)"/>
     <use xlink:href="#DejaVuSans-64" transform="translate(550.972656 0)"/>
     <use xlink:href="#DejaVuSans-20" transform="translate(614.449219 0)"/>
     <use xlink:href="#DejaVuSans-56" transform="translate(646.236328 0)"/>
     <use xlink:href="#DejaVuSans-61" transform="translate(706.894531 0)"/>
     <use xlink:href="#DejaVuSans-6c" transform="translate(768.173828 0)"/>
     <use xlink:href="#DejaVuSans-69" transform="translate(795.957031 0)"/>
     <use xlink:href="#DejaVuSans-64" transform="translate(823.740234 0)"/>
     <use xlink:href="#DejaVuSans-61" transform="translate(887.216797 0)"/>
     <use xlink:href="#DejaVuSans-74" transform="translate(948.496094 0)"/>
     <use xlink:href="#DejaVuSans-69" transform="translate(987.705078 0)"/>
     <use xlink:href="#DejaVuSans-6e" transform="translate(1015.488281 0)"/>
     <use xlink:href="#DejaVuSans-67" transform="translate(1078.867188 0)"/>
     <use xlink:href="#DejaVuSans-20" transform="translate(1142.34375 0)"/>
     <use xlink:href="#DejaVuSans-44" transform="translate(1174.130859 0)"/>
     <use xlink:href="#DejaVuSans-6f" transform="translate(1251.132812 0)"/>
     <use xlink:href="#DejaVuSans-6d" transform="translate(1312.314453 0)"/>
     <use xlink:href="#DejaVuSans-61" transform="translate(1409.726562 0)"/>
     <use xlink:href="#DejaVuSans-69" transform="translate(1471.005859 0)"/>
     <use xlink:href="#DejaVuSans-6e" transform="translate(1498.789062 0)"/>
     <use xlink:href="#DejaVuSans-20" transform="translate(1562.167969 0)"/>
     <use xlink:href="#DejaVuSans-44" transform="translate(1593.955078 0)"/>
     <use xlink:href="#DejaVuSans-69" transform="translate(1670.957031 0)"/>
     <use xlink:href="#DejaVuSans-73" transform="translate(1698.740234 0)"/>
     <use xlink:href="#DejaVuSans-63" transform="translate(1750.839844 0)"/>
     <use xlink:href="#DejaVuSans-72" transform="translate(1805.820312 0)"/>
     <use xlink:href="#DejaVuSans-69" transform="translate(1846.933594 0)"/>
     <use xlink:href="#DejaVuSans-6d" transform="translate(1874.716797 0)"/>
     <use xlink:href="#DejaVuSans-69" transform="translate(1972.128906 0)"/>
     <use xlink:href="#DejaVuSans-6e" transform="translate(1999.912109 0)"/>
     <use xlink:href="#DejaVuSans-61" transform="translate(2063.291016 0)"/>
     <use xlink:href="#DejaVuSans-74" transform="translate(2124.570312 0)"/>
     <use xlink:href="#DejaVuSans-69" transform="translate(2163.779297 0)"/>
     <use xlink:href="#DejaVuSans-6f" transform="translate(2191.5625 0)"/>
     <use xlink:href="#DejaVuSans-6e" transform="translate(2252.744141 0)"/>
     <use xlink:href="#DejaVuSans-20" transform="translate(2316.123047 0)"/>
     <use xlink:href="#DejaVuSans-4c" transform="translate(2347.910156 0)"/>
     <use xlink:href="#DejaVuSans-6f" transform="translate(2401.873047 0)"/>
     <use xlink:href="#DejaVuSans-73" transform="translate(2463.054688 0)"/>
     <use xlink:href="#DejaVuSans-73" transform="translate(2515.154297 0)"/>
    </g>
   </g>
   <g id="legend_1">
    <g id="patch_7">
     <path d="M 559.389063 80.55625 
L 641 80.55625 
Q 643 80.55625 643 78.55625 
L 643 50.2 
Q 643 48.2 641 48.2 
L 559.389063 48.2 
Q 557.389063 48.2 557.389063 50.2 
L 557.389063 78.55625 
Q 557.389063 80.55625 559.389063 80.55625 
z
" style="fill: #ffffff; opacity: 0.8; stroke: #cccccc; stroke-linejoin: miter"/>
    </g>
    <g id="line2d_16">
     <path d="M 561.389063 56.298437 
L 571.389063 56.298437 
L 581.389063 56.298437 
" style="fill: none; stroke: #1f77b4; stroke-width: 1.5; stroke-linecap: square"/>
    </g>
    <g id="text_17">
     <!-- Training -->
     <g transform="translate(589.389063 59.798437) scale(0.1 -0.1)">
      <use xlink:href="#DejaVuSans-54"/>
      <use xlink:href="#DejaVuSans-72" transform="translate(46.333984 0)"/>
      <use xlink:href="#DejaVuSans-61" transform="translate(87.447266 0)"/>
      <use xlink:href="#DejaVuSans-69" transform="translate(148.726562 0)"/>
      <use xlink:href="#DejaVuSans-6e" transform="translate(176.509766 0)"/>
      <use xlink:href="#DejaVuSans-69" transform="translate(239.888672 0)"/>
      <use xlink:href="#DejaVuSans-6e" transform="translate(267.671875 0)"/>
      <use xlink:href="#DejaVuSans-67" transform="translate(331.050781 0)"/>
     </g>
    </g>
    <g id="line2d_17">
     <path d="M 561.389063 70.976562 
L 571.389063 70.976562 
L 581.389063 70.976562 
" style="fill: none; stroke: #ff7f0e; stroke-width: 1.5; stroke-linecap: square"/>
    </g>
    <g id="text_18">
     <!-- Validating -->
     <g transform="translate(589.389063 74.476562) scale(0.1 -0.1)">
      <use xlink:href="#DejaVuSans-56"/>
      <use xlink:href="#DejaVuSans-61" transform="translate(60.658203 0)"/>
      <use xlink:href="#DejaVuSans-6c" transform="translate(121.9375 0)"/>
      <use xlink:href="#DejaVuSans-69" transform="translate(149.720703 0)"/>
      <use xlink:href="#DejaVuSans-64" transform="translate(177.503906 0)"/>
      <use xlink:href="#DejaVuSans-61" transform="translate(240.980469 0)"/>
      <use xlink:href="#DejaVuSans-74" transform="translate(302.259766 0)"/>
      <use xlink:href="#DejaVuSans-69" transform="translate(341.46875 0)"/>
      <use xlink:href="#DejaVuSans-6e" transform="translate(369.251953 0)"/>
      <use xlink:href="#DejaVuSans-67" transform="translate(432.630859 0)"/>
     </g>
    </g>
   </g>
  </g>
 </g>
 <defs>
  <clipPath id="pcf4c7bc34b">
   <rect x="90" y="43.2" width="558" height="277.2"/>
  </clipPath>
 </defs>
</svg>
