<?xml version="1.0" encoding="utf-8" standalone="no"?>
<!DOCTYPE svg PUBLIC "-//W3C//DTD SVG 1.1//EN"
  "http://www.w3.org/Graphics/SVG/1.1/DTD/svg11.dtd">
<svg xmlns:xlink="http://www.w3.org/1999/xlink" width="720pt" height="360pt" viewBox="0 0 720 360" xmlns="http://www.w3.org/2000/svg" version="1.1">
 <metadata>
  <rdf:RDF xmlns:dc="http://purl.org/dc/elements/1.1/" xmlns:cc="http://creativecommons.org/ns#" xmlns:rdf="http://www.w3.org/1999/02/22-rdf-syntax-ns#">
   <cc:Work>
    <dc:type rdf:resource="http://purl.org/dc/dcmitype/StillImage"/>
    <dc:date>2025-12-04T15:24:41.428246</dc:date>
    <dc:format>image/svg+xml</dc:format>
    <dc:creator>
     <cc:Agent>
      <dc:title>Matplotlib v3.10.1, https://matplotlib.org/</dc:title>
     </cc:Agent>
    </dc:creator>
   </cc:Work>
  </rdf:RDF>
 </metadata>
 <defs>
  <style type="text/css">*{stroke-linejoin: round; stroke-linecap: butt}</style>
 </defs>
 <g id="figure_1">
  <g id="patch_1">
   <path d="M 0 360 
L 720 360 
L 720 0 
L 0 0 
z
" style="fill: #ffffff"/>
  </g>
  <g id="axes_1">
   <g id="patch_2">
    <path d="M 90 320.4 
L 648 320.4 
L 648 43.2 
L 90 43.2 
z
" style="fill: #ffffff"/>
   </g>
   <g id="matplotlib.axis_1">
    <g id="xtick_1">
     <g id="line2d_1">
      <defs>
       <path id="m26fa125b69" d="M 0 0 
L 0 3.5 
" style="stroke: #000000; stroke-width: 0.8"/>
      </defs>
      <g>
       <use xlink:href="#m26fa125b69" x="115.363636" y="320.4" style="stroke: #000000; stroke-width: 0.8"/>
      </g>
     </g>
     <g id="text_1">
      <!-- 0 -->
      <g transform="translate(112.182386 334.998438) scale(0.1 -0.1)">
       <defs>
        <path id="DejaVuSans-30" d="M 2034 4250 
Q 1547 4250 1301 3770 
Q 1056 3291 1056 2328 
Q 1056 1369 1301 889 
Q 1547 409 2034 409 
Q 2525 409 2770 889 
Q 3016 1369 3016 2328 
Q 3016 3291 2770 3770 
Q 2525 4250 2034 4250 
z
M 2034 4750 
Q 2819 4750 3233 4129 
Q 3647 3509 3647 2328 
Q 3647 1150 3233 529 
Q 2819 -91 2034 -91 
Q 1250 -91 836 529 
Q 422 1150 422 2328 
Q 422 3509 836 4129 
Q 1250 4750 2034 4750 
z
" transform="scale(0.015625)"/>
       </defs>
       <use xlink:href="#DejaVuSans-30"/>
      </g>
     </g>
    </g>
    <g id="xtick_2">
     <g id="line2d_2">
      <g>
       <use xlink:href="#m26fa125b69" x="217.157495" y="320.4" style="stroke: #000000; stroke-width: 0.8"/>
      </g>
     </g>
     <g id="text_2">
      <!-- 60 -->
      <g transform="translate(210.794995 334.998438) scale(0.1 -0.1)">
       <defs>
        <path id="DejaVuSans-36" d="M 2113 2584 
Q 1688 2584 1439 2293 
Q 1191 2003 1191 1497 
Q 1191 994 1439 701 
Q 1688 409 2113 409 
Q 2538 409 2786 701 
Q 3034 994 3034 1497 
Q 3034 2003 2786 2293 
Q 2538 2584 2113 2584 
z
M 3366 4563 
L 3366 3988 
Q 3128 4100 2886 4159 
Q 2644 4219 2406 4219 
Q 1781 4219 1451 3797 
Q 1122 3375 1075 2522 
Q 1259 2794 1537 2939 
Q 1816 3084 2150 3084 
Q 2853 3084 3261 2657 
Q 3669 2231 3669 1497 
Q 3669 778 3244 343 
Q 2819 -91 2113 -91 
Q 1303 -91 875 529 
Q 447 1150 447 2328 
Q 447 3434 972 4092 
Q 1497 4750 2381 4750 
Q 2619 4750 2861 4703 
Q 3103 4656 3366 4563 
z
" transform="scale(0.015625)"/>
       </defs>
       <use xlink:href="#DejaVuSans-36"/>
       <use xlink:href="#DejaVuSans-30" transform="translate(63.623047 0)"/>
      </g>
     </g>
    </g>
    <g id="xtick_3">
     <g id="line2d_3">
      <g>
       <use xlink:href="#m26fa125b69" x="318.951353" y="320.4" style="stroke: #000000; stroke-width: 0.8"/>
      </g>
     </g>
     <g id="text_3">
      <!-- 120 -->
      <g transform="translate(309.407603 334.998438) scale(0.1 -0.1)">
       <defs>
        <path id="DejaVuSans-31" d="M 794 531 
L 1825 531 
L 1825 4091 
L 703 3866 
L 703 4441 
L 1819 4666 
L 2450 4666 
L 2450 531 
L 3481 531 
L 3481 0 
L 794 0 
L 794 531 
z
" transform="scale(0.015625)"/>
        <path id="DejaVuSans-32" d="M 1228 531 
L 3431 531 
L 3431 0 
L 469 0 
L 469 531 
Q 828 903 1448 1529 
Q 2069 2156 2228 2338 
Q 2531 2678 2651 2914 
Q 2772 3150 2772 3378 
Q 2772 3750 2511 3984 
Q 2250 4219 1831 4219 
Q 1534 4219 1204 4116 
Q 875 4013 500 3803 
L 500 4441 
Q 881 4594 1212 4672 
Q 1544 4750 1819 4750 
Q 2544 4750 2975 4387 
Q 3406 4025 3406 3419 
Q 3406 3131 3298 2873 
Q 3191 2616 2906 2266 
Q 2828 2175 2409 1742 
Q 1991 1309 1228 531 
z
" transform="scale(0.015625)"/>
       </defs>
       <use xlink:href="#DejaVuSans-31"/>
       <use xlink:href="#DejaVuSans-32" transform="translate(63.623047 0)"/>
       <use xlink:href="#DejaVuSans-30" transform="translate(127.246094 0)"/>
      </g>
     </g>
    </g>
    <g id="xtick_4">
     <g id="line2d_4">
      <g>
       <use xlink:href="#m26fa125b69" x="420.745211" y="320.4" style="stroke: #000000; stroke-width: 0.8"/>
      </g>
     </g>
     <g id="text_4">
      <!-- 180 -->
      <g transform="translate(411.201461 334.998438) scale(0.1 -0.1)">
       <defs>
        <path id="DejaVuSans-38" d="M 2034 2216 
Q 1584 2216 1326 1975 
Q 1069 1734 1069 1313 
Q 1069 891 1326 650 
Q 1584 409 2034 409 
Q 2484 409 2743 651 
Q 3003 894 3003 1313 
Q 3003 1734 2745 1975 
Q 2488 2216 2034 2216 
z
M 1403 2484 
Q 997 2584 770 2862 
Q 544 3141 544 3541 
Q 544 4100 942 4425 
Q 1341 4750 2034 4750 
Q 2731 4750 3128 4425 
Q 3525 4100 3525 3541 
Q 3525 3141 3298 2862 
Q 3072 2584 2669 2484 
Q 3125 2378 3379 2068 
Q 3634 1759 3634 1313 
Q 3634 634 3220 271 
Q 2806 -91 2034 -91 
Q 1263 -91 848 271 
Q 434 634 434 1313 
Q 434 1759 690 2068 
Q 947 2378 1403 2484 
z
M 1172 3481 
Q 1172 3119 1398 2916 
Q 1625 2713 2034 2713 
Q 2441 2713 2670 2916 
Q 2900 3119 2900 3481 
Q 2900 3844 2670 4047 
Q 2441 4250 2034 4250 
Q 1625 4250 1398 4047 
Q 1172 3844 1172 3481 
z
" transform="scale(0.015625)"/>
       </defs>
       <use xlink:href="#DejaVuSans-31"/>
       <use xlink:href="#DejaVuSans-38" transform="translate(63.623047 0)"/>
       <use xlink:href="#DejaVuSans-30" transform="translate(127.246094 0)"/>
      </g>
     </g>
    </g>
    <g id="xtick_5">
     <g id="line2d_5">
      <g>
       <use xlink:href="#m26fa125b69" x="522.53907" y="320.4" style="stroke: #000000; stroke-width: 0.8"/>
      </g>
     </g>
     <g id="text_5">
      <!-- 240 -->
      <g transform="translate(512.99532 334.998438) scale(0.1 -0.1)">
       <defs>
        <path id="DejaVuSans-34" d="M 2419 4116 
L 825 1625 
L 2419 1625 
L 2419 4116 
z
M 2253 4666 
L 3047 4666 
L 3047 1625 
L 3713 1625 
L 3713 1100 
L 3047 1100 
L 3047 0 
L 2419 0 
L 2419 1100 
L 313 1100 
L 313 1709 
L 2253 4666 
z
" transform="scale(0.015625)"/>
       </defs>
       <use xlink:href="#DejaVuSans-32"/>
       <use xlink:href="#DejaVuSans-34" transform="translate(63.623047 0)"/>
       <use xlink:href="#DejaVuSans-30" transform="translate(127.246094 0)"/>
      </g>
     </g>
    </g>
    <g id="text_6">
     <!-- Epoch -->
     <g transform="translate(353.689062 348.676562) scale(0.1 -0.1)">
      <defs>
       <path id="DejaVuSans-45" d="M 628 4666 
L 3578 4666 
L 3578 4134 
L 1259 4134 
L 1259 2753 
L 3481 2753 
L 3481 2222 
L 1259 2222 
L 1259 531 
L 3634 531 
L 3634 0 
L 628 0 
L 628 4666 
z
" transform="scale(0.015625)"/>
       <path id="DejaVuSans-70" d="M 1159 525 
L 1159 -1331 
L 581 -1331 
L 581 3500 
L 1159 3500 
L 1159 2969 
Q 1341 3281 1617 3432 
Q 1894 3584 2278 3584 
Q 2916 3584 3314 3078 
Q 3713 2572 3713 1747 
Q 3713 922 3314 415 
Q 2916 -91 2278 -91 
Q 1894 -91 1617 61 
Q 1341 213 1159 525 
z
M 3116 1747 
Q 3116 2381 2855 2742 
Q 2594 3103 2138 3103 
Q 1681 3103 1420 2742 
Q 1159 2381 1159 1747 
Q 1159 1113 1420 752 
Q 1681 391 2138 391 
Q 2594 391 2855 752 
Q 3116 1113 3116 1747 
z
" transform="scale(0.015625)"/>
       <path id="DejaVuSans-6f" d="M 1959 3097 
Q 1497 3097 1228 2736 
Q 959 2375 959 1747 
Q 959 1119 1226 758 
Q 1494 397 1959 397 
Q 2419 397 2687 759 
Q 2956 1122 2956 1747 
Q 2956 2369 2687 2733 
Q 2419 3097 1959 3097 
z
M 1959 3584 
Q 2709 3584 3137 3096 
Q 3566 2609 3566 1747 
Q 3566 888 3137 398 
Q 2709 -91 1959 -91 
Q 1206 -91 779 398 
Q 353 888 353 1747 
Q 353 2609 779 3096 
Q 1206 3584 1959 3584 
z
" transform="scale(0.015625)"/>
       <path id="DejaVuSans-63" d="M 3122 3366 
L 3122 2828 
Q 2878 2963 2633 3030 
Q 2388 3097 2138 3097 
Q 1578 3097 1268 2742 
Q 959 2388 959 1747 
Q 959 1106 1268 751 
Q 1578 397 2138 397 
Q 2388 397 2633 464 
Q 2878 531 3122 666 
L 3122 134 
Q 2881 22 2623 -34 
Q 2366 -91 2075 -91 
Q 1284 -91 818 406 
Q 353 903 353 1747 
Q 353 2603 823 3093 
Q 1294 3584 2113 3584 
Q 2378 3584 2631 3529 
Q 2884 3475 3122 3366 
z
" transform="scale(0.015625)"/>
       <path id="DejaVuSans-68" d="M 3513 2113 
L 3513 0 
L 2938 0 
L 2938 2094 
Q 2938 2591 2744 2837 
Q 2550 3084 2163 3084 
Q 1697 3084 1428 2787 
Q 1159 2491 1159 1978 
L 1159 0 
L 581 0 
L 581 4863 
L 1159 4863 
L 1159 2956 
Q 1366 3272 1645 3428 
Q 1925 3584 2291 3584 
Q 2894 3584 3203 3211 
Q 3513 2838 3513 2113 
z
" transform="scale(0.015625)"/>
      </defs>
      <use xlink:href="#DejaVuSans-45"/>
      <use xlink:href="#DejaVuSans-70" transform="translate(63.183594 0)"/>
      <use xlink:href="#DejaVuSans-6f" transform="translate(126.660156 0)"/>
      <use xlink:href="#DejaVuSans-63" transform="translate(187.841797 0)"/>
      <use xlink:href="#DejaVuSans-68" transform="translate(242.822266 0)"/>
     </g>
    </g>
   </g>
   <g id="matplotlib.axis_2">
    <g id="ytick_1">
     <g id="line2d_6">
      <defs>
       <path id="m9b076d5b12" d="M 0 0 
L -3.5 0 
" style="stroke: #000000; stroke-width: 0.8"/>
      </defs>
      <g>
       <use xlink:href="#m9b076d5b12" x="90" y="308.737965" style="stroke: #000000; stroke-width: 0.8"/>
      </g>
     </g>
     <g id="text_7">
      <!-- 0.00 -->
      <g transform="translate(60.734375 312.537184) scale(0.1 -0.1)">
       <defs>
        <path id="DejaVuSans-2e" d="M 684 794 
L 1344 794 
L 1344 0 
L 684 0 
L 684 794 
z
" transform="scale(0.015625)"/>
       </defs>
       <use xlink:href="#DejaVuSans-30"/>
       <use xlink:href="#DejaVuSans-2e" transform="translate(63.623047 0)"/>
       <use xlink:href="#DejaVuSans-30" transform="translate(95.410156 0)"/>
       <use xlink:href="#DejaVuSans-30" transform="translate(159.033203 0)"/>
      </g>
     </g>
    </g>
    <g id="ytick_2">
     <g id="line2d_7">
      <g>
       <use xlink:href="#m9b076d5b12" x="90" y="259.681205" style="stroke: #000000; stroke-width: 0.8"/>
      </g>
     </g>
     <g id="text_8">
      <!-- 0.02 -->
      <g transform="translate(60.734375 263.480424) scale(0.1 -0.1)">
       <use xlink:href="#DejaVuSans-30"/>
       <use xlink:href="#DejaVuSans-2e" transform="translate(63.623047 0)"/>
       <use xlink:href="#DejaVuSans-30" transform="translate(95.410156 0)"/>
       <use xlink:href="#DejaVuSans-32" transform="translate(159.033203 0)"/>
      </g>
     </g>
    </g>
    <g id="ytick_3">
     <g id="line2d_8">
      <g>
       <use xlink:href="#m9b076d5b12" x="90" y="210.624445" style="stroke: #000000; stroke-width: 0.8"/>
      </g>
     </g>
     <g id="text_9">
      <!-- 0.04 -->
      <g transform="translate(60.734375 214.423664) scale(0.1 -0.1)">
       <use xlink:href="#DejaVuSans-30"/>
       <use xlink:href="#DejaVuSans-2e" transform="translate(63.623047 0)"/>
       <use xlink:href="#DejaVuSans-30" transform="translate(95.410156 0)"/>
       <use xlink:href="#DejaVuSans-34" transform="translate(159.033203 0)"/>
      </g>
     </g>
    </g>
    <g id="ytick_4">
     <g id="line2d_9">
      <g>
       <use xlink:href="#m9b076d5b12" x="90" y="161.567685" style="stroke: #000000; stroke-width: 0.8"/>
      </g>
     </g>
     <g id="text_10">
      <!-- 0.06 -->
      <g transform="translate(60.734375 165.366904) scale(0.1 -0.1)">
       <use xlink:href="#DejaVuSans-30"/>
       <use xlink:href="#DejaVuSans-2e" transform="translate(63.623047 0)"/>
       <use xlink:href="#DejaVuSans-30" transform="translate(95.410156 0)"/>
       <use xlink:href="#DejaVuSans-36" transform="translate(159.033203 0)"/>
      </g>
     </g>
    </g>
    <g id="ytick_5">
     <g id="line2d_10">
      <g>
       <use xlink:href="#m9b076d5b12" x="90" y="112.510925" style="stroke: #000000; stroke-width: 0.8"/>
      </g>
     </g>
     <g id="text_11">
      <!-- 0.08 -->
      <g transform="translate(60.734375 116.310144) scale(0.1 -0.1)">
       <use xlink:href="#DejaVuSans-30"/>
       <use xlink:href="#DejaVuSans-2e" transform="translate(63.623047 0)"/>
       <use xlink:href="#DejaVuSans-30" transform="translate(95.410156 0)"/>
       <use xlink:href="#DejaVuSans-38" transform="translate(159.033203 0)"/>
      </g>
     </g>
    </g>
    <g id="ytick_6">
     <g id="line2d_11">
      <g>
       <use xlink:href="#m9b076d5b12" x="90" y="63.454165" style="stroke: #000000; stroke-width: 0.8"/>
      </g>
     </g>
     <g id="text_12">
      <!-- 0.10 -->
      <g transform="translate(60.734375 67.253384) scale(0.1 -0.1)">
       <use xlink:href="#DejaVuSans-30"/>
       <use xlink:href="#DejaVuSans-2e" transform="translate(63.623047 0)"/>
       <use xlink:href="#DejaVuSans-31" transform="translate(95.410156 0)"/>
       <use xlink:href="#DejaVuSans-30" transform="translate(159.033203 0)"/>
      </g>
     </g>
    </g>
    <g id="text_13">
     <!-- Estimation Loss -->
     <g transform="translate(54.654687 220.98125) rotate(-90) scale(0.1 -0.1)">
      <defs>
       <path id="DejaVuSans-73" d="M 2834 3397 
L 2834 2853 
Q 2591 2978 2328 3040 
Q 2066 3103 1784 3103 
Q 1356 3103 1142 2972 
Q 928 2841 928 2578 
Q 928 2378 1081 2264 
Q 1234 2150 1697 2047 
L 1894 2003 
Q 2506 1872 2764 1633 
Q 3022 1394 3022 966 
Q 3022 478 2636 193 
Q 2250 -91 1575 -91 
Q 1294 -91 989 -36 
Q 684 19 347 128 
L 347 722 
Q 666 556 975 473 
Q 1284 391 1588 391 
Q 1994 391 2212 530 
Q 2431 669 2431 922 
Q 2431 1156 2273 1281 
Q 2116 1406 1581 1522 
L 1381 1569 
Q 847 1681 609 1914 
Q 372 2147 372 2553 
Q 372 3047 722 3315 
Q 1072 3584 1716 3584 
Q 2034 3584 2315 3537 
Q 2597 3491 2834 3397 
z
" transform="scale(0.015625)"/>
       <path id="DejaVuSans-74" d="M 1172 4494 
L 1172 3500 
L 2356 3500 
L 2356 3053 
L 1172 3053 
L 1172 1153 
Q 1172 725 1289 603 
Q 1406 481 1766 481 
L 2356 481 
L 2356 0 
L 1766 0 
Q 1100 0 847 248 
Q 594 497 594 1153 
L 594 3053 
L 172 3053 
L 172 3500 
L 594 3500 
L 594 4494 
L 1172 4494 
z
" transform="scale(0.015625)"/>
       <path id="DejaVuSans-69" d="M 603 3500 
L 1178 3500 
L 1178 0 
L 603 0 
L 603 3500 
z
M 603 4863 
L 1178 4863 
L 1178 4134 
L 603 4134 
L 603 4863 
z
" transform="scale(0.015625)"/>
       <path id="DejaVuSans-6d" d="M 3328 2828 
Q 3544 3216 3844 3400 
Q 4144 3584 4550 3584 
Q 5097 3584 5394 3201 
Q 5691 2819 5691 2113 
L 5691 0 
L 5113 0 
L 5113 2094 
Q 5113 2597 4934 2840 
Q 4756 3084 4391 3084 
Q 3944 3084 3684 2787 
Q 3425 2491 3425 1978 
L 3425 0 
L 2847 0 
L 2847 2094 
Q 2847 2600 2669 2842 
Q 2491 3084 2119 3084 
Q 1678 3084 1418 2786 
Q 1159 2488 1159 1978 
L 1159 0 
L 581 0 
L 581 3500 
L 1159 3500 
L 1159 2956 
Q 1356 3278 1631 3431 
Q 1906 3584 2284 3584 
Q 2666 3584 2933 3390 
Q 3200 3197 3328 2828 
z
" transform="scale(0.015625)"/>
       <path id="DejaVuSans-61" d="M 2194 1759 
Q 1497 1759 1228 1600 
Q 959 1441 959 1056 
Q 959 750 1161 570 
Q 1363 391 1709 391 
Q 2188 391 2477 730 
Q 2766 1069 2766 1631 
L 2766 1759 
L 2194 1759 
z
M 3341 1997 
L 3341 0 
L 2766 0 
L 2766 531 
Q 2569 213 2275 61 
Q 1981 -91 1556 -91 
Q 1019 -91 701 211 
Q 384 513 384 1019 
Q 384 1609 779 1909 
Q 1175 2209 1959 2209 
L 2766 2209 
L 2766 2266 
Q 2766 2663 2505 2880 
Q 2244 3097 1772 3097 
Q 1472 3097 1187 3025 
Q 903 2953 641 2809 
L 641 3341 
Q 956 3463 1253 3523 
Q 1550 3584 1831 3584 
Q 2591 3584 2966 3190 
Q 3341 2797 3341 1997 
z
" transform="scale(0.015625)"/>
       <path id="DejaVuSans-6e" d="M 3513 2113 
L 3513 0 
L 2938 0 
L 2938 2094 
Q 2938 2591 2744 2837 
Q 2550 3084 2163 3084 
Q 1697 3084 1428 2787 
Q 1159 2491 1159 1978 
L 1159 0 
L 581 0 
L 581 3500 
L 1159 3500 
L 1159 2956 
Q 1366 3272 1645 3428 
Q 1925 3584 2291 3584 
Q 2894 3584 3203 3211 
Q 3513 2838 3513 2113 
z
" transform="scale(0.015625)"/>
       <path id="DejaVuSans-20" transform="scale(0.015625)"/>
       <path id="DejaVuSans-4c" d="M 628 4666 
L 1259 4666 
L 1259 531 
L 3531 531 
L 3531 0 
L 628 0 
L 628 4666 
z
" transform="scale(0.015625)"/>
      </defs>
      <use xlink:href="#DejaVuSans-45"/>
      <use xlink:href="#DejaVuSans-73" transform="translate(63.183594 0)"/>
      <use xlink:href="#DejaVuSans-74" transform="translate(115.283203 0)"/>
      <use xlink:href="#DejaVuSans-69" transform="translate(154.492188 0)"/>
      <use xlink:href="#DejaVuSans-6d" transform="translate(182.275391 0)"/>
      <use xlink:href="#DejaVuSans-61" transform="translate(279.6875 0)"/>
      <use xlink:href="#DejaVuSans-74" transform="translate(340.966797 0)"/>
      <use xlink:href="#DejaVuSans-69" transform="translate(380.175781 0)"/>
      <use xlink:href="#DejaVuSans-6f" transform="translate(407.958984 0)"/>
      <use xlink:href="#DejaVuSans-6e" transform="translate(469.140625 0)"/>
      <use xlink:href="#DejaVuSans-20" transform="translate(532.519531 0)"/>
      <use xlink:href="#DejaVuSans-4c" transform="translate(564.306641 0)"/>
      <use xlink:href="#DejaVuSans-6f" transform="translate(618.269531 0)"/>
      <use xlink:href="#DejaVuSans-73" transform="translate(679.451172 0)"/>
      <use xlink:href="#DejaVuSans-73" transform="translate(731.550781 0)"/>
     </g>
    </g>
   </g>
   <g id="line2d_12">
    <path d="M 115.363636 99.867917 
L 117.060201 258.768672 
L 118.756765 279.729339 
L 120.453329 288.047167 
L 122.149894 291.94848 
L 123.846458 294.201721 
L 125.543022 295.701025 
L 127.239587 296.806052 
L 128.936151 297.683943 
L 130.632715 298.401148 
L 134.025844 299.479653 
L 137.418972 300.327926 
L 142.508665 301.300945 
L 145.901794 301.850955 
L 161.170873 303.447823 
L 186.619337 304.823115 
L 201.888416 305.328739 
L 254.481909 306.297332 
L 325.73761 306.961212 
L 393.600182 307.294589 
L 622.636364 307.788877 
L 622.636364 307.788877 
" clip-path="url(#p4c1e22141f)" style="fill: none; stroke: #1f77b4; stroke-width: 1.5; stroke-linecap: square"/>
   </g>
   <g id="line2d_13">
    <path d="M 115.363636 55.8 
L 117.060201 166.508793 
L 118.756765 182.591303 
L 120.453329 189.116574 
L 122.149894 192.324828 
L 123.846458 194.409499 
L 125.543022 195.960982 
L 128.936151 198.39186 
L 132.329279 200.329311 
L 135.722408 201.975533 
L 139.115537 203.318482 
L 142.508665 204.429915 
L 149.294922 206.374078 
L 154.384615 207.566754 
L 161.170873 209.070934 
L 162.867437 209.371106 
L 164.564001 209.794014 
L 166.260566 210.021046 
L 169.653694 210.804966 
L 190.012466 214.020132 
L 201.888416 215.429843 
L 215.46093 216.794167 
L 229.033445 217.750862 
L 244.302524 218.575628 
L 245.999088 218.782332 
L 247.695652 218.676052 
L 249.392216 218.90577 
L 251.088781 218.796581 
L 252.785345 219.051961 
L 254.481909 219.03925 
L 256.178474 219.240172 
L 257.875038 219.246763 
L 259.571602 219.399614 
L 261.268167 219.355897 
L 262.964731 219.610576 
L 264.661295 219.494437 
L 266.35786 219.725083 
L 268.054424 219.68477 
L 271.447552 219.853608 
L 278.23381 220.182658 
L 279.930374 220.09399 
L 281.626938 220.367531 
L 283.323503 220.252834 
L 285.020067 220.48084 
L 286.716631 220.306835 
L 288.413196 220.541635 
L 290.10976 220.48498 
L 291.806324 220.776919 
L 293.502888 220.591902 
L 295.199453 220.864185 
L 296.896017 220.626649 
L 298.592581 220.977816 
L 300.289146 220.74268 
L 301.98571 221.177834 
L 303.682274 220.944576 
L 305.378839 221.247648 
L 308.771967 221.105936 
L 310.468531 221.315001 
L 312.165096 221.225777 
L 313.86166 221.452624 
L 315.558224 221.348017 
L 318.951353 221.523383 
L 320.647917 221.374231 
L 322.344482 221.617935 
L 324.041046 221.346106 
L 325.73761 221.724021 
L 327.434175 221.557091 
L 329.130739 221.748678 
L 330.827303 221.725148 
L 334.220432 221.82365 
L 335.916996 221.894344 
L 337.61356 221.793462 
L 344.399818 222.083507 
L 346.096382 221.8128 
L 347.792946 222.110379 
L 349.48951 221.931722 
L 351.186075 222.237363 
L 352.882639 221.972666 
L 354.579203 222.258011 
L 356.275768 222.078112 
L 357.972332 222.316775 
L 359.668896 222.150012 
L 361.365461 222.325501 
L 363.062025 222.127795 
L 364.758589 222.300406 
L 366.455154 222.332257 
L 368.151718 222.479327 
L 374.937975 222.463668 
L 376.634539 222.621663 
L 378.331104 222.43248 
L 380.027668 222.559599 
L 381.724232 222.421015 
L 383.420797 222.687735 
L 385.117361 222.619745 
L 386.813925 222.685552 
L 388.51049 222.59011 
L 390.207054 222.815724 
L 391.903618 222.66057 
L 393.600182 222.835612 
L 395.296747 222.740994 
L 396.993311 222.888186 
L 398.689875 222.745171 
L 400.38644 222.906632 
L 402.083004 222.862068 
L 403.779568 222.98869 
L 405.476133 222.922993 
L 407.172697 223.07335 
L 408.869261 222.865284 
L 410.565825 223.222658 
L 412.26239 222.913563 
L 413.958954 223.166132 
L 415.655518 223.064818 
L 417.352083 223.247727 
L 419.048647 223.012143 
L 420.745211 223.219128 
L 422.441776 223.118881 
L 424.13834 223.324161 
L 425.834904 223.177317 
L 427.531469 223.308917 
L 429.228033 223.225475 
L 430.924597 223.363444 
L 432.621161 223.266828 
L 434.317726 223.395737 
L 436.01429 223.275261 
L 437.710854 223.454531 
L 439.407419 223.318333 
L 441.103983 223.411333 
L 442.800547 223.297844 
L 447.89024 223.513845 
L 449.586804 223.386094 
L 451.283369 223.564024 
L 452.979933 223.459075 
L 456.373062 223.49534 
L 458.069626 223.68262 
L 464.855883 223.603386 
L 468.249012 223.759304 
L 469.945576 223.544717 
L 471.64214 223.707318 
L 473.338705 223.665016 
L 475.035269 223.854029 
L 476.731833 223.602735 
L 478.428398 223.793854 
L 480.124962 223.642862 
L 481.821526 223.821518 
L 483.518091 223.710219 
L 488.607784 223.860457 
L 490.304348 223.739702 
L 492.000912 223.865586 
L 493.697476 223.765219 
L 495.394041 223.915628 
L 497.090605 223.737861 
L 498.787169 224.083887 
L 500.483734 223.727001 
L 502.180298 224.097385 
L 503.876862 223.82148 
L 505.573427 224.137508 
L 507.269991 223.840662 
L 508.966555 224.031876 
L 510.663119 223.824698 
L 512.359684 224.18904 
L 514.056248 223.855706 
L 515.752812 224.058371 
L 517.449377 223.878188 
L 519.145941 224.152412 
L 520.842505 223.91362 
L 522.53907 224.017408 
L 524.235634 223.942108 
L 525.932198 224.043042 
L 527.628763 223.886311 
L 529.325327 224.141829 
L 531.021891 224.000219 
L 532.718455 224.209822 
L 534.41502 223.932331 
L 536.111584 224.261247 
L 537.808148 224.041531 
L 539.504713 224.247299 
L 541.201277 224.034576 
L 542.897841 224.196119 
L 544.594406 224.061197 
L 546.29097 224.258082 
L 547.987534 224.103463 
L 549.684099 224.17092 
L 551.380663 223.998111 
L 553.077227 224.21365 
L 554.773791 224.082966 
L 556.470356 224.284345 
L 558.16692 224.04241 
L 559.863484 224.250331 
L 561.560049 224.071915 
L 563.256613 224.372912 
L 564.953177 224.060573 
L 566.649742 224.24144 
L 568.346306 224.092763 
L 570.04287 224.227805 
L 571.739434 224.101553 
L 573.435999 224.282593 
L 575.132563 224.167076 
L 576.829127 224.301309 
L 578.525692 224.224403 
L 583.615385 224.30962 
L 585.311949 224.178238 
L 587.008513 224.31901 
L 588.705078 224.21269 
L 590.401642 224.258337 
L 592.098206 224.153182 
L 593.79477 224.373171 
L 595.491335 224.31945 
L 597.187899 224.434561 
L 598.884463 224.23646 
L 603.974156 224.469927 
L 605.670721 224.294671 
L 607.367285 224.430786 
L 609.063849 224.041078 
L 610.760413 224.479292 
L 612.456978 224.156394 
L 614.153542 224.390729 
L 615.850106 224.235539 
L 617.546671 224.367183 
L 619.243235 224.275171 
L 620.939799 224.448318 
L 622.636364 224.207268 
L 622.636364 224.207268 
" clip-path="url(#p4c1e22141f)" style="fill: none; stroke: #ff7f0e; stroke-width: 1.5; stroke-linecap: square"/>
   </g>
   <g id="line2d_14">
    <path d="M 115.363636 240.725222 
L 117.060201 273.077864 
L 118.756765 285.520894 
L 120.453329 290.464049 
L 122.149894 293.41308 
L 123.846458 295.270288 
L 125.543022 296.62809 
L 128.936151 297.779911 
L 130.632715 298.412936 
L 132.329279 298.655033 
L 134.025844 299.312991 
L 140.812101 300.88244 
L 142.508665 301.394962 
L 144.20523 301.575479 
L 147.598358 301.654346 
L 150.991487 302.482084 
L 152.688051 302.219331 
L 154.384615 302.211585 
L 156.08118 302.908131 
L 159.474308 302.669858 
L 161.170873 303.386325 
L 162.867437 302.803267 
L 164.564001 303.160422 
L 167.95713 303.190495 
L 169.653694 303.639308 
L 171.350258 303.777139 
L 173.046823 303.488703 
L 174.743387 304.077901 
L 178.136516 304.246404 
L 181.529644 304.135678 
L 188.315901 304.393097 
L 190.012466 304.209107 
L 191.70903 304.495351 
L 193.405594 304.551249 
L 195.102159 304.477097 
L 198.495287 304.810513 
L 200.191852 304.698111 
L 201.888416 304.856987 
L 203.58498 304.740231 
L 205.281545 304.894506 
L 206.978109 304.806021 
L 208.674673 304.939932 
L 210.371237 304.492622 
L 212.067802 305.136505 
L 213.764366 304.970379 
L 215.46093 305.093755 
L 217.157495 305.021817 
L 223.943752 305.298811 
L 225.640316 305.014867 
L 227.336881 305.421892 
L 229.033445 305.119408 
L 230.730009 305.202791 
L 232.426573 305.03991 
L 234.123138 305.336784 
L 235.819702 305.509084 
L 237.516266 305.30807 
L 239.212831 305.585066 
L 244.302524 305.723343 
L 245.999088 305.598478 
L 247.695652 305.799956 
L 249.392216 305.521356 
L 251.088781 305.761268 
L 254.481909 305.812512 
L 262.964731 305.908234 
L 266.35786 305.885388 
L 268.054424 306.163947 
L 271.447552 305.922518 
L 281.626938 306.222617 
L 283.323503 306.265456 
L 286.716631 306.148291 
L 288.413196 306.263813 
L 290.10976 306.157995 
L 295.199453 306.309641 
L 296.896017 306.165085 
L 298.592581 306.197043 
L 300.289146 306.347473 
L 301.98571 306.384691 
L 303.682274 306.275433 
L 305.378839 306.313517 
L 307.075403 306.492282 
L 308.771967 306.274742 
L 310.468531 306.478713 
L 312.165096 306.406319 
L 313.86166 306.519955 
L 315.558224 306.463474 
L 317.254789 306.270325 
L 318.951353 306.269854 
L 320.647917 306.50573 
L 322.344482 306.603933 
L 324.041046 306.283952 
L 325.73761 306.507207 
L 327.434175 306.400807 
L 329.130739 306.590919 
L 339.310125 306.676952 
L 341.006689 306.503294 
L 342.703253 306.519759 
L 344.399818 306.740936 
L 346.096382 306.663275 
L 351.186075 306.764651 
L 356.275768 306.598266 
L 357.972332 306.430715 
L 359.668896 306.764261 
L 361.365461 306.530726 
L 363.062025 306.50563 
L 364.758589 306.788359 
L 366.455154 306.693896 
L 369.848282 306.755008 
L 371.544846 306.611343 
L 378.331104 306.820687 
L 380.027668 306.716941 
L 381.724232 306.82339 
L 383.420797 306.53939 
L 385.117361 306.851888 
L 391.903618 306.919208 
L 393.600182 306.595555 
L 395.296747 306.897275 
L 398.689875 306.846118 
L 400.38644 306.925808 
L 403.779568 306.642475 
L 407.172697 306.934013 
L 408.869261 306.964566 
L 412.26239 306.783414 
L 413.958954 306.99449 
L 417.352083 306.696242 
L 419.048647 307.038027 
L 420.745211 306.928898 
L 425.834904 307.029625 
L 427.531469 306.830774 
L 429.228033 307.048887 
L 430.924597 306.955421 
L 432.621161 307.096071 
L 434.317726 306.955376 
L 441.103983 307.06248 
L 442.800547 306.944762 
L 444.497112 307.025116 
L 446.193676 306.931695 
L 451.283369 307.008885 
L 452.979933 306.883049 
L 454.676497 307.261859 
L 458.069626 307.035992 
L 461.462755 307.206378 
L 464.855883 307.086609 
L 471.64214 307.243963 
L 473.338705 307.034237 
L 475.035269 307.217636 
L 476.731833 307.018331 
L 478.428398 307.07915 
L 480.124962 307.014337 
L 483.518091 307.196218 
L 488.607784 307.064578 
L 490.304348 307.20046 
L 492.000912 307.055145 
L 495.394041 306.974931 
L 497.090605 307.287679 
L 498.787169 307.316035 
L 500.483734 307.127828 
L 502.180298 307.255661 
L 503.876862 307.007203 
L 510.663119 307.246261 
L 512.359684 306.841002 
L 514.056248 307.286005 
L 515.752812 307.163997 
L 517.449377 307.199301 
L 519.145941 307.079938 
L 520.842505 307.137013 
L 522.53907 307.044112 
L 524.235634 307.265598 
L 525.932198 307.357379 
L 529.325327 307.239699 
L 531.021891 307.209808 
L 532.718455 307.373787 
L 534.41502 307.232599 
L 536.111584 306.963845 
L 537.808148 307.278724 
L 542.897841 307.346467 
L 544.594406 307.221594 
L 546.29097 307.321894 
L 553.077227 307.179727 
L 554.773791 307.376773 
L 556.470356 307.403516 
L 558.16692 307.306846 
L 559.863484 306.874396 
L 561.560049 307.439022 
L 564.953177 307.214373 
L 566.649742 307.36401 
L 573.435999 307.367811 
L 575.132563 307.183682 
L 580.222256 307.391446 
L 581.91882 307.256134 
L 585.311949 307.302199 
L 587.008513 307.380575 
L 588.705078 307.228571 
L 590.401642 307.46534 
L 592.098206 307.402258 
L 593.79477 307.489133 
L 595.491335 307.352793 
L 597.187899 307.460114 
L 602.277592 307.166261 
L 603.974156 307.217006 
L 605.670721 307.465054 
L 607.367285 307.157311 
L 609.063849 307.56257 
L 610.760413 307.462136 
L 615.850106 307.449054 
L 619.243235 307.531131 
L 620.939799 307.594392 
L 622.636364 307.285712 
L 622.636364 307.285712 
" clip-path="url(#p4c1e22141f)" style="fill: none; stroke: #2ca02c; stroke-width: 1.5; stroke-linecap: square"/>
   </g>
   <g id="line2d_15">
    <path d="M 115.363636 136.634104 
L 117.060201 158.60765 
L 118.756765 168.648653 
L 120.453329 172.984856 
L 122.149894 176.180342 
L 123.846458 178.650536 
L 125.543022 180.407176 
L 130.632715 183.61807 
L 132.329279 184.341528 
L 134.025844 185.664315 
L 139.115537 187.972684 
L 142.508665 189.225548 
L 144.20523 189.811032 
L 145.901794 190.150244 
L 147.598358 190.003287 
L 149.294922 191.290695 
L 150.991487 191.590998 
L 152.688051 191.159176 
L 156.08118 192.807284 
L 157.777744 192.779936 
L 159.474308 193.512564 
L 161.170873 193.74463 
L 162.867437 194.288231 
L 164.564001 193.894425 
L 166.260566 194.967199 
L 167.95713 195.326758 
L 169.653694 195.450911 
L 171.350258 196.277622 
L 174.743387 196.116067 
L 178.136516 197.186975 
L 181.529644 197.111628 
L 183.226209 197.596332 
L 186.619337 198.155252 
L 188.315901 198.372524 
L 190.012466 198.936377 
L 191.70903 198.582664 
L 193.405594 199.704668 
L 195.102159 199.574065 
L 196.798723 199.264692 
L 200.191852 199.758104 
L 201.888416 199.699701 
L 203.58498 200.797865 
L 205.281545 200.825387 
L 206.978109 201.249317 
L 208.674673 201.064832 
L 210.371237 200.409641 
L 212.067802 201.081719 
L 213.764366 201.896277 
L 215.46093 201.827679 
L 217.157495 202.170286 
L 218.854059 201.326653 
L 220.550623 202.426832 
L 222.247188 202.160606 
L 223.943752 202.096897 
L 227.336881 203.082781 
L 229.033445 203.222974 
L 230.730009 202.624468 
L 232.426573 202.39772 
L 234.123138 202.519513 
L 235.819702 203.412096 
L 237.516266 203.151296 
L 239.212831 203.466971 
L 240.909395 203.494737 
L 242.605959 203.986406 
L 244.302524 203.820388 
L 245.999088 203.855052 
L 247.695652 203.721308 
L 249.392216 203.988586 
L 251.088781 204.088004 
L 252.785345 204.546849 
L 256.178474 203.966411 
L 257.875038 204.33864 
L 259.571602 204.477294 
L 262.964731 204.532316 
L 264.661295 204.7964 
L 269.750988 204.674002 
L 273.144117 205.027688 
L 274.840681 204.718468 
L 278.23381 205.209711 
L 279.930374 205.145454 
L 281.626938 205.436336 
L 283.323503 205.3149 
L 286.716631 205.631524 
L 288.413196 205.487269 
L 293.502888 205.706485 
L 295.199453 205.546723 
L 296.896017 205.519588 
L 298.592581 205.720136 
L 300.289146 205.786645 
L 301.98571 206.012554 
L 303.682274 205.773142 
L 305.378839 205.943552 
L 307.075403 205.787921 
L 308.771967 205.493619 
L 310.468531 205.945788 
L 312.165096 206.180771 
L 315.558224 206.145775 
L 317.254789 205.932746 
L 318.951353 205.309115 
L 320.647917 205.998741 
L 322.344482 206.115346 
L 324.041046 205.492044 
L 325.73761 206.378779 
L 327.434175 205.61497 
L 329.130739 206.335257 
L 330.827303 205.806705 
L 332.523867 206.380548 
L 334.220432 206.223129 
L 335.916996 206.644373 
L 337.61356 205.861241 
L 339.310125 206.220367 
L 341.006689 206.103578 
L 342.703253 205.750227 
L 344.399818 206.473511 
L 346.096382 206.264782 
L 347.792946 206.608386 
L 349.48951 206.52822 
L 351.186075 206.651808 
L 354.579203 206.501463 
L 356.275768 206.020258 
L 357.972332 205.93152 
L 359.668896 206.510981 
L 361.365461 206.165284 
L 363.062025 205.519776 
L 364.758589 206.697416 
L 366.455154 206.370435 
L 368.151718 206.731445 
L 369.848282 206.685334 
L 371.544846 206.00304 
L 374.937975 206.110139 
L 376.634539 206.734637 
L 378.331104 206.682101 
L 380.027668 206.296234 
L 381.724232 206.136285 
L 383.420797 205.722382 
L 386.813925 206.900627 
L 388.51049 206.472674 
L 390.207054 206.952433 
L 391.903618 206.852894 
L 393.600182 206.354436 
L 395.296747 206.651703 
L 396.993311 207.118787 
L 398.689875 207.062872 
L 400.38644 207.132137 
L 402.083004 206.63083 
L 403.779568 206.397934 
L 407.172697 207.374993 
L 408.869261 207.139286 
L 410.565825 206.670461 
L 412.26239 206.811053 
L 413.958954 207.209964 
L 415.655518 207.131415 
L 417.352083 206.32685 
L 419.048647 207.338958 
L 420.745211 207.179167 
L 422.441776 207.145693 
L 424.13834 206.900936 
L 425.834904 207.131668 
L 427.531469 206.625549 
L 429.228033 207.530633 
L 434.317726 206.949333 
L 436.01429 206.913287 
L 437.710854 207.549547 
L 439.407419 207.156874 
L 441.103983 207.062461 
L 442.800547 207.55416 
L 444.497112 207.517687 
L 446.193676 207.02845 
L 447.89024 207.072928 
L 449.586804 207.287511 
L 451.283369 206.943915 
L 452.979933 206.835416 
L 454.676497 207.650357 
L 456.373062 207.91784 
L 458.069626 207.585942 
L 459.76619 207.763136 
L 461.462755 207.338082 
L 463.159319 207.149725 
L 464.855883 207.509633 
L 466.552448 207.217429 
L 468.249012 207.410881 
L 469.945576 207.101845 
L 471.64214 207.813326 
L 473.338705 207.232772 
L 475.035269 207.978956 
L 476.731833 207.268055 
L 478.428398 207.801099 
L 480.124962 207.368715 
L 481.821526 207.346518 
L 483.518091 207.444766 
L 485.214655 207.330027 
L 486.911219 207.747558 
L 488.607784 207.499609 
L 490.304348 206.995553 
L 492.000912 207.490873 
L 495.394041 207.406261 
L 497.090605 208.22412 
L 498.787169 207.566122 
L 500.483734 207.895824 
L 502.180298 207.96742 
L 503.876862 207.62271 
L 505.573427 207.496883 
L 507.269991 207.872905 
L 508.966555 207.875342 
L 510.663119 207.707112 
L 512.359684 206.841708 
L 514.056248 207.520176 
L 515.752812 207.869745 
L 517.449377 207.917682 
L 520.842505 207.891786 
L 522.53907 207.005027 
L 524.235634 207.433309 
L 525.932198 207.661063 
L 527.628763 207.543036 
L 529.325327 207.858498 
L 531.021891 207.504349 
L 532.718455 207.813964 
L 534.41502 207.657933 
L 536.111584 206.949229 
L 537.808148 207.799918 
L 539.504713 208.039468 
L 541.201277 207.631217 
L 542.897841 208.437632 
L 544.594406 208.017458 
L 546.29097 207.816889 
L 547.987534 207.35878 
L 549.684099 207.376006 
L 551.380663 207.813495 
L 553.077227 207.397799 
L 554.773791 208.093124 
L 556.470356 208.606566 
L 558.16692 207.851198 
L 559.863484 207.632667 
L 561.560049 207.898252 
L 563.256613 207.433259 
L 564.953177 207.25492 
L 566.649742 208.401333 
L 568.346306 207.804142 
L 570.04287 208.298555 
L 571.739434 207.831378 
L 573.435999 207.946142 
L 575.132563 207.461388 
L 576.829127 207.663444 
L 578.525692 208.270703 
L 581.91882 207.985466 
L 583.615385 207.134083 
L 585.311949 208.2432 
L 587.008513 208.060614 
L 588.705078 207.027168 
L 590.401642 207.713138 
L 592.098206 207.991271 
L 593.79477 208.649971 
L 595.491335 207.843419 
L 597.187899 207.999387 
L 600.581028 207.366638 
L 602.277592 207.826016 
L 603.974156 207.091238 
L 605.670721 208.378762 
L 607.367285 207.221732 
L 609.063849 208.145012 
L 610.760413 208.365607 
L 612.456978 207.973618 
L 615.850106 208.081963 
L 619.243235 207.46935 
L 620.939799 208.417656 
L 622.636364 208.136752 
L 622.636364 208.136752 
" clip-path="url(#p4c1e22141f)" style="fill: none; stroke: #d62728; stroke-width: 1.5; stroke-linecap: square"/>
   </g>
   <g id="patch_3">
    <path d="M 90 320.4 
L 90 43.2 
" style="fill: none; stroke: #000000; stroke-width: 0.8; stroke-linejoin: miter; stroke-linecap: square"/>
   </g>
   <g id="patch_4">
    <path d="M 648 320.4 
L 648 43.2 
" style="fill: none; stroke: #000000; stroke-width: 0.8; stroke-linejoin: miter; stroke-linecap: square"/>
   </g>
   <g id="patch_5">
    <path d="M 90 320.4 
L 648 320.4 
" style="fill: none; stroke: #000000; stroke-width: 0.8; stroke-linejoin: miter; stroke-linecap: square"/>
   </g>
   <g id="patch_6">
    <path d="M 90 43.2 
L 648 43.2 
" style="fill: none; stroke: #000000; stroke-width: 0.8; stroke-linejoin: miter; stroke-linecap: square"/>
   </g>
   <g id="text_14">
    <!-- Training and Validating Estimation Loss -->
    <g transform="translate(251.535937 37.2) scale(0.12 -0.12)">
     <defs>
      <path id="DejaVuSans-54" d="M -19 4666 
L 3928 4666 
L 3928 4134 
L 2272 4134 
L 2272 0 
L 1638 0 
L 1638 4134 
L -19 4134 
L -19 4666 
z
" transform="scale(0.015625)"/>
      <path id="DejaVuSans-72" d="M 2631 2963 
Q 2534 3019 2420 3045 
Q 2306 3072 2169 3072 
Q 1681 3072 1420 2755 
Q 1159 2438 1159 1844 
L 1159 0 
L 581 0 
L 581 3500 
L 1159 3500 
L 1159 2956 
Q 1341 3275 1631 3429 
Q 1922 3584 2338 3584 
Q 2397 3584 2469 3576 
Q 2541 3569 2628 3553 
L 2631 2963 
z
" transform="scale(0.015625)"/>
      <path id="DejaVuSans-67" d="M 2906 1791 
Q 2906 2416 2648 2759 
Q 2391 3103 1925 3103 
Q 1463 3103 1205 2759 
Q 947 2416 947 1791 
Q 947 1169 1205 825 
Q 1463 481 1925 481 
Q 2391 481 2648 825 
Q 2906 1169 2906 1791 
z
M 3481 434 
Q 3481 -459 3084 -895 
Q 2688 -1331 1869 -1331 
Q 1566 -1331 1297 -1286 
Q 1028 -1241 775 -1147 
L 775 -588 
Q 1028 -725 1275 -790 
Q 1522 -856 1778 -856 
Q 2344 -856 2625 -561 
Q 2906 -266 2906 331 
L 2906 616 
Q 2728 306 2450 153 
Q 2172 0 1784 0 
Q 1141 0 747 490 
Q 353 981 353 1791 
Q 353 2603 747 3093 
Q 1141 3584 1784 3584 
Q 2172 3584 2450 3431 
Q 2728 3278 2906 2969 
L 2906 3500 
L 3481 3500 
L 3481 434 
z
" transform="scale(0.015625)"/>
      <path id="DejaVuSans-64" d="M 2906 2969 
L 2906 4863 
L 3481 4863 
L 3481 0 
L 2906 0 
L 2906 525 
Q 2725 213 2448 61 
Q 2172 -91 1784 -91 
Q 1150 -91 751 415 
Q 353 922 353 1747 
Q 353 2572 751 3078 
Q 1150 3584 1784 3584 
Q 2172 3584 2448 3432 
Q 2725 3281 2906 2969 
z
M 947 1747 
Q 947 1113 1208 752 
Q 1469 391 1925 391 
Q 2381 391 2643 752 
Q 2906 1113 2906 1747 
Q 2906 2381 2643 2742 
Q 2381 3103 1925 3103 
Q 1469 3103 1208 2742 
Q 947 2381 947 1747 
z
" transform="scale(0.015625)"/>
      <path id="DejaVuSans-56" d="M 1831 0 
L 50 4666 
L 709 4666 
L 2188 738 
L 3669 4666 
L 4325 4666 
L 2547 0 
L 1831 0 
z
" transform="scale(0.015625)"/>
      <path id="DejaVuSans-6c" d="M 603 4863 
L 1178 4863 
L 1178 0 
L 603 0 
L 603 4863 
z
" transform="scale(0.015625)"/>
     </defs>
     <use xlink:href="#DejaVuSans-54"/>
     <use xlink:href="#DejaVuSans-72" transform="translate(46.333984 0)"/>
     <use xlink:href="#DejaVuSans-61" transform="translate(87.447266 0)"/>
     <use xlink:href="#DejaVuSans-69" transform="translate(148.726562 0)"/>
     <use xlink:href="#DejaVuSans-6e" transform="translate(176.509766 0)"/>
     <use xlink:href="#DejaVuSans-69" transform="translate(239.888672 0)"/>
     <use xlink:href="#DejaVuSans-6e" transform="translate(267.671875 0)"/>
     <use xlink:href="#DejaVuSans-67" transform="translate(331.050781 0)"/>
     <use xlink:href="#DejaVuSans-20" transform="translate(394.527344 0)"/>
     <use xlink:href="#DejaVuSans-61" transform="translate(426.314453 0)"/>
     <use xlink:href="#DejaVuSans-6e" transform="translate(487.59375 0)"/>
     <use xlink:href="#DejaVuSans-64" transform="translate(550.972656 0)"/>
     <use xlink:href="#DejaVuSans-20" transform="translate(614.449219 0)"/>
     <use xlink:href="#DejaVuSans-56" transform="translate(646.236328 0)"/>
     <use xlink:href="#DejaVuSans-61" transform="translate(706.894531 0)"/>
     <use xlink:href="#DejaVuSans-6c" transform="translate(768.173828 0)"/>
     <use xlink:href="#DejaVuSans-69" transform="translate(795.957031 0)"/>
     <use xlink:href="#DejaVuSans-64" transform="translate(823.740234 0)"/>
     <use xlink:href="#DejaVuSans-61" transform="translate(887.216797 0)"/>
     <use xlink:href="#DejaVuSans-74" transform="translate(948.496094 0)"/>
     <use xlink:href="#DejaVuSans-69" transform="translate(987.705078 0)"/>
     <use xlink:href="#DejaVuSans-6e" transform="translate(1015.488281 0)"/>
     <use xlink:href="#DejaVuSans-67" transform="translate(1078.867188 0)"/>
     <use xlink:href="#DejaVuSans-20" transform="translate(1142.34375 0)"/>
     <use xlink:href="#DejaVuSans-45" transform="translate(1174.130859 0)"/>
     <use xlink:href="#DejaVuSans-73" transform="translate(1237.314453 0)"/>
     <use xlink:href="#DejaVuSans-74" transform="translate(1289.414062 0)"/>
     <use xlink:href="#DejaVuSans-69" transform="translate(1328.623047 0)"/>
     <use xlink:href="#DejaVuSans-6d" transform="translate(1356.40625 0)"/>
     <use xlink:href="#DejaVuSans-61" transform="translate(1453.818359 0)"/>
     <use xlink:href="#DejaVuSans-74" transform="translate(1515.097656 0)"/>
     <use xlink:href="#DejaVuSans-69" transform="translate(1554.306641 0)"/>
     <use xlink:href="#DejaVuSans-6f" transform="translate(1582.089844 0)"/>
     <use xlink:href="#DejaVuSans-6e" transform="translate(1643.271484 0)"/>
     <use xlink:href="#DejaVuSans-20" transform="translate(1706.650391 0)"/>
     <use xlink:href="#DejaVuSans-4c" transform="translate(1738.4375 0)"/>
     <use xlink:href="#DejaVuSans-6f" transform="translate(1792.400391 0)"/>
     <use xlink:href="#DejaVuSans-73" transform="translate(1853.582031 0)"/>
     <use xlink:href="#DejaVuSans-73" transform="translate(1905.681641 0)"/>
    </g>
   </g>
   <g id="legend_1">
    <g id="patch_7">
     <path d="M 521.439062 109.9125 
L 641 109.9125 
Q 643 109.9125 643 107.9125 
L 643 50.2 
Q 643 48.2 641 48.2 
L 521.439062 48.2 
Q 519.439062 48.2 519.439062 50.2 
L 519.439062 107.9125 
Q 519.439062 109.9125 521.439062 109.9125 
z
" style="fill: #ffffff; opacity: 0.8; stroke: #cccccc; stroke-linejoin: miter"/>
    </g>
    <g id="line2d_16">
     <path d="M 523.439062 56.298437 
L 533.439062 56.298437 
L 543.439062 56.298437 
" style="fill: none; stroke: #1f77b4; stroke-width: 1.5; stroke-linecap: square"/>
    </g>
    <g id="text_15">
     <!-- Training-Source -->
     <g transform="translate(551.439062 59.798437) scale(0.1 -0.1)">
      <defs>
       <path id="DejaVuSans-2d" d="M 313 2009 
L 1997 2009 
L 1997 1497 
L 313 1497 
L 313 2009 
z
" transform="scale(0.015625)"/>
       <path id="DejaVuSans-53" d="M 3425 4513 
L 3425 3897 
Q 3066 4069 2747 4153 
Q 2428 4238 2131 4238 
Q 1616 4238 1336 4038 
Q 1056 3838 1056 3469 
Q 1056 3159 1242 3001 
Q 1428 2844 1947 2747 
L 2328 2669 
Q 3034 2534 3370 2195 
Q 3706 1856 3706 1288 
Q 3706 609 3251 259 
Q 2797 -91 1919 -91 
Q 1588 -91 1214 -16 
Q 841 59 441 206 
L 441 856 
Q 825 641 1194 531 
Q 1563 422 1919 422 
Q 2459 422 2753 634 
Q 3047 847 3047 1241 
Q 3047 1584 2836 1778 
Q 2625 1972 2144 2069 
L 1759 2144 
Q 1053 2284 737 2584 
Q 422 2884 422 3419 
Q 422 4038 858 4394 
Q 1294 4750 2059 4750 
Q 2388 4750 2728 4690 
Q 3069 4631 3425 4513 
z
" transform="scale(0.015625)"/>
       <path id="DejaVuSans-75" d="M 544 1381 
L 544 3500 
L 1119 3500 
L 1119 1403 
Q 1119 906 1312 657 
Q 1506 409 1894 409 
Q 2359 409 2629 706 
Q 2900 1003 2900 1516 
L 2900 3500 
L 3475 3500 
L 3475 0 
L 2900 0 
L 2900 538 
Q 2691 219 2414 64 
Q 2138 -91 1772 -91 
Q 1169 -91 856 284 
Q 544 659 544 1381 
z
M 1991 3584 
L 1991 3584 
z
" transform="scale(0.015625)"/>
       <path id="DejaVuSans-65" d="M 3597 1894 
L 3597 1613 
L 953 1613 
Q 991 1019 1311 708 
Q 1631 397 2203 397 
Q 2534 397 2845 478 
Q 3156 559 3463 722 
L 3463 178 
Q 3153 47 2828 -22 
Q 2503 -91 2169 -91 
Q 1331 -91 842 396 
Q 353 884 353 1716 
Q 353 2575 817 3079 
Q 1281 3584 2069 3584 
Q 2775 3584 3186 3129 
Q 3597 2675 3597 1894 
z
M 3022 2063 
Q 3016 2534 2758 2815 
Q 2500 3097 2075 3097 
Q 1594 3097 1305 2825 
Q 1016 2553 972 2059 
L 3022 2063 
z
" transform="scale(0.015625)"/>
      </defs>
      <use xlink:href="#DejaVuSans-54"/>
      <use xlink:href="#DejaVuSans-72" transform="translate(46.333984 0)"/>
      <use xlink:href="#DejaVuSans-61" transform="translate(87.447266 0)"/>
      <use xlink:href="#DejaVuSans-69" transform="translate(148.726562 0)"/>
      <use xlink:href="#DejaVuSans-6e" transform="translate(176.509766 0)"/>
      <use xlink:href="#DejaVuSans-69" transform="translate(239.888672 0)"/>
      <use xlink:href="#DejaVuSans-6e" transform="translate(267.671875 0)"/>
      <use xlink:href="#DejaVuSans-67" transform="translate(331.050781 0)"/>
      <use xlink:href="#DejaVuSans-2d" transform="translate(394.527344 0)"/>
      <use xlink:href="#DejaVuSans-53" transform="translate(430.611328 0)"/>
      <use xlink:href="#DejaVuSans-6f" transform="translate(494.087891 0)"/>
      <use xlink:href="#DejaVuSans-75" transform="translate(555.269531 0)"/>
      <use xlink:href="#DejaVuSans-72" transform="translate(618.648438 0)"/>
      <use xlink:href="#DejaVuSans-63" transform="translate(657.511719 0)"/>
      <use xlink:href="#DejaVuSans-65" transform="translate(712.492188 0)"/>
     </g>
    </g>
    <g id="line2d_17">
     <path d="M 523.439062 70.976562 
L 533.439062 70.976562 
L 543.439062 70.976562 
" style="fill: none; stroke: #ff7f0e; stroke-width: 1.5; stroke-linecap: square"/>
    </g>
    <g id="text_16">
     <!-- Training-Target -->
     <g transform="translate(551.439062 74.476562) scale(0.1 -0.1)">
      <use xlink:href="#DejaVuSans-54"/>
      <use xlink:href="#DejaVuSans-72" transform="translate(46.333984 0)"/>
      <use xlink:href="#DejaVuSans-61" transform="translate(87.447266 0)"/>
      <use xlink:href="#DejaVuSans-69" transform="translate(148.726562 0)"/>
      <use xlink:href="#DejaVuSans-6e" transform="translate(176.509766 0)"/>
      <use xlink:href="#DejaVuSans-69" transform="translate(239.888672 0)"/>
      <use xlink:href="#DejaVuSans-6e" transform="translate(267.671875 0)"/>
      <use xlink:href="#DejaVuSans-67" transform="translate(331.050781 0)"/>
      <use xlink:href="#DejaVuSans-2d" transform="translate(394.527344 0)"/>
      <use xlink:href="#DejaVuSans-54" transform="translate(421.486328 0)"/>
      <use xlink:href="#DejaVuSans-61" transform="translate(466.070312 0)"/>
      <use xlink:href="#DejaVuSans-72" transform="translate(527.349609 0)"/>
      <use xlink:href="#DejaVuSans-67" transform="translate(566.712891 0)"/>
      <use xlink:href="#DejaVuSans-65" transform="translate(630.189453 0)"/>
      <use xlink:href="#DejaVuSans-74" transform="translate(691.712891 0)"/>
     </g>
    </g>
    <g id="line2d_18">
     <path d="M 523.439062 85.654687 
L 533.439062 85.654687 
L 543.439062 85.654687 
" style="fill: none; stroke: #2ca02c; stroke-width: 1.5; stroke-linecap: square"/>
    </g>
    <g id="text_17">
     <!-- Validating-Source -->
     <g transform="translate(551.439062 89.154687) scale(0.1 -0.1)">
      <use xlink:href="#DejaVuSans-56"/>
      <use xlink:href="#DejaVuSans-61" transform="translate(60.658203 0)"/>
      <use xlink:href="#DejaVuSans-6c" transform="translate(121.9375 0)"/>
      <use xlink:href="#DejaVuSans-69" transform="translate(149.720703 0)"/>
      <use xlink:href="#DejaVuSans-64" transform="translate(177.503906 0)"/>
      <use xlink:href="#DejaVuSans-61" transform="translate(240.980469 0)"/>
      <use xlink:href="#DejaVuSans-74" transform="translate(302.259766 0)"/>
      <use xlink:href="#DejaVuSans-69" transform="translate(341.46875 0)"/>
      <use xlink:href="#DejaVuSans-6e" transform="translate(369.251953 0)"/>
      <use xlink:href="#DejaVuSans-67" transform="translate(432.630859 0)"/>
      <use xlink:href="#DejaVuSans-2d" transform="translate(496.107422 0)"/>
      <use xlink:href="#DejaVuSans-53" transform="translate(532.191406 0)"/>
      <use xlink:href="#DejaVuSans-6f" transform="translate(595.667969 0)"/>
      <use xlink:href="#DejaVuSans-75" transform="translate(656.849609 0)"/>
      <use xlink:href="#DejaVuSans-72" transform="translate(720.228516 0)"/>
      <use xlink:href="#DejaVuSans-63" transform="translate(759.091797 0)"/>
      <use xlink:href="#DejaVuSans-65" transform="translate(814.072266 0)"/>
     </g>
    </g>
    <g id="line2d_19">
     <path d="M 523.439062 100.332812 
L 533.439062 100.332812 
L 543.439062 100.332812 
" style="fill: none; stroke: #d62728; stroke-width: 1.5; stroke-linecap: square"/>
    </g>
    <g id="text_18">
     <!-- Validating-Target -->
     <g transform="translate(551.439062 103.832812) scale(0.1 -0.1)">
      <use xlink:href="#DejaVuSans-56"/>
      <use xlink:href="#DejaVuSans-61" transform="translate(60.658203 0)"/>
      <use xlink:href="#DejaVuSans-6c" transform="translate(121.9375 0)"/>
      <use xlink:href="#DejaVuSans-69" transform="translate(149.720703 0)"/>
      <use xlink:href="#DejaVuSans-64" transform="translate(177.503906 0)"/>
      <use xlink:href="#DejaVuSans-61" transform="translate(240.980469 0)"/>
      <use xlink:href="#DejaVuSans-74" transform="translate(302.259766 0)"/>
      <use xlink:href="#DejaVuSans-69" transform="translate(341.46875 0)"/>
      <use xlink:href="#DejaVuSans-6e" transform="translate(369.251953 0)"/>
      <use xlink:href="#DejaVuSans-67" transform="translate(432.630859 0)"/>
      <use xlink:href="#DejaVuSans-2d" transform="translate(496.107422 0)"/>
      <use xlink:href="#DejaVuSans-54" transform="translate(523.066406 0)"/>
      <use xlink:href="#DejaVuSans-61" transform="translate(567.650391 0)"/>
      <use xlink:href="#DejaVuSans-72" transform="translate(628.929688 0)"/>
      <use xlink:href="#DejaVuSans-67" transform="translate(668.292969 0)"/>
      <use xlink:href="#DejaVuSans-65" transform="translate(731.769531 0)"/>
      <use xlink:href="#DejaVuSans-74" transform="translate(793.292969 0)"/>
     </g>
    </g>
   </g>
  </g>
 </g>
 <defs>
  <clipPath id="p4c1e22141f">
   <rect x="90" y="43.2" width="558" height="277.2"/>
  </clipPath>
 </defs>
</svg>
