<?xml version="1.0" encoding="utf-8" standalone="no"?>
<!DOCTYPE svg PUBLIC "-//W3C//DTD SVG 1.1//EN"
  "http://www.w3.org/Graphics/SVG/1.1/DTD/svg11.dtd">
<svg xmlns:xlink="http://www.w3.org/1999/xlink" width="720pt" height="360pt" viewBox="0 0 720 360" xmlns="http://www.w3.org/2000/svg" version="1.1">
 <metadata>
  <rdf:RDF xmlns:dc="http://purl.org/dc/elements/1.1/" xmlns:cc="http://creativecommons.org/ns#" xmlns:rdf="http://www.w3.org/1999/02/22-rdf-syntax-ns#">
   <cc:Work>
    <dc:type rdf:resource="http://purl.org/dc/dcmitype/StillImage"/>
    <dc:date>2026-02-17T19:03:09.695831</dc:date>
    <dc:format>image/svg+xml</dc:format>
    <dc:creator>
     <cc:Agent>
      <dc:title>Matplotlib v3.10.1, https://matplotlib.org/</dc:title>
     </cc:Agent>
    </dc:creator>
   </cc:Work>
  </rdf:RDF>
 </metadata>
 <defs>
  <style type="text/css">*{stroke-linejoin: round; stroke-linecap: butt}</style>
 </defs>
 <g id="figure_1">
  <g id="patch_1">
   <path d="M 0 360 
L 720 360 
L 720 0 
L 0 0 
z
" style="fill: #ffffff"/>
  </g>
  <g id="axes_1">
   <g id="patch_2">
    <path d="M 90 320.4 
L 648 320.4 
L 648 43.2 
L 90 43.2 
z
" style="fill: #ffffff"/>
   </g>
   <g id="matplotlib.axis_1">
    <g id="xtick_1">
     <g id="line2d_1">
      <defs>
       <path id="m12fb8986ed" d="M 0 0 
L 0 3.5 
" style="stroke: #000000; stroke-width: 0.8"/>
      </defs>
      <g>
       <use xlink:href="#m12fb8986ed" x="115.363636" y="320.4" style="stroke: #000000; stroke-width: 0.8"/>
      </g>
     </g>
     <g id="text_1">
      <!-- 0 -->
      <g transform="translate(112.182386 334.998438) scale(0.1 -0.1)">
       <defs>
        <path id="DejaVuSans-30" d="M 2034 4250 
Q 1547 4250 1301 3770 
Q 1056 3291 1056 2328 
Q 1056 1369 1301 889 
Q 1547 409 2034 409 
Q 2525 409 2770 889 
Q 3016 1369 3016 2328 
Q 3016 3291 2770 3770 
Q 2525 4250 2034 4250 
z
M 2034 4750 
Q 2819 4750 3233 4129 
Q 3647 3509 3647 2328 
Q 3647 1150 3233 529 
Q 2819 -91 2034 -91 
Q 1250 -91 836 529 
Q 422 1150 422 2328 
Q 422 3509 836 4129 
Q 1250 4750 2034 4750 
z
" transform="scale(0.015625)"/>
       </defs>
       <use xlink:href="#DejaVuSans-30"/>
      </g>
     </g>
    </g>
    <g id="xtick_2">
     <g id="line2d_2">
      <g>
       <use xlink:href="#m12fb8986ed" x="217.157495" y="320.4" style="stroke: #000000; stroke-width: 0.8"/>
      </g>
     </g>
     <g id="text_2">
      <!-- 60 -->
      <g transform="translate(210.794995 334.998438) scale(0.1 -0.1)">
       <defs>
        <path id="DejaVuSans-36" d="M 2113 2584 
Q 1688 2584 1439 2293 
Q 1191 2003 1191 1497 
Q 1191 994 1439 701 
Q 1688 409 2113 409 
Q 2538 409 2786 701 
Q 3034 994 3034 1497 
Q 3034 2003 2786 2293 
Q 2538 2584 2113 2584 
z
M 3366 4563 
L 3366 3988 
Q 3128 4100 2886 4159 
Q 2644 4219 2406 4219 
Q 1781 4219 1451 3797 
Q 1122 3375 1075 2522 
Q 1259 2794 1537 2939 
Q 1816 3084 2150 3084 
Q 2853 3084 3261 2657 
Q 3669 2231 3669 1497 
Q 3669 778 3244 343 
Q 2819 -91 2113 -91 
Q 1303 -91 875 529 
Q 447 1150 447 2328 
Q 447 3434 972 4092 
Q 1497 4750 2381 4750 
Q 2619 4750 2861 4703 
Q 3103 4656 3366 4563 
z
" transform="scale(0.015625)"/>
       </defs>
       <use xlink:href="#DejaVuSans-36"/>
       <use xlink:href="#DejaVuSans-30" transform="translate(63.623047 0)"/>
      </g>
     </g>
    </g>
    <g id="xtick_3">
     <g id="line2d_3">
      <g>
       <use xlink:href="#m12fb8986ed" x="318.951353" y="320.4" style="stroke: #000000; stroke-width: 0.8"/>
      </g>
     </g>
     <g id="text_3">
      <!-- 120 -->
      <g transform="translate(309.407603 334.998438) scale(0.1 -0.1)">
       <defs>
        <path id="DejaVuSans-31" d="M 794 531 
L 1825 531 
L 1825 4091 
L 703 3866 
L 703 4441 
L 1819 4666 
L 2450 4666 
L 2450 531 
L 3481 531 
L 3481 0 
L 794 0 
L 794 531 
z
" transform="scale(0.015625)"/>
        <path id="DejaVuSans-32" d="M 1228 531 
L 3431 531 
L 3431 0 
L 469 0 
L 469 531 
Q 828 903 1448 1529 
Q 2069 2156 2228 2338 
Q 2531 2678 2651 2914 
Q 2772 3150 2772 3378 
Q 2772 3750 2511 3984 
Q 2250 4219 1831 4219 
Q 1534 4219 1204 4116 
Q 875 4013 500 3803 
L 500 4441 
Q 881 4594 1212 4672 
Q 1544 4750 1819 4750 
Q 2544 4750 2975 4387 
Q 3406 4025 3406 3419 
Q 3406 3131 3298 2873 
Q 3191 2616 2906 2266 
Q 2828 2175 2409 1742 
Q 1991 1309 1228 531 
z
" transform="scale(0.015625)"/>
       </defs>
       <use xlink:href="#DejaVuSans-31"/>
       <use xlink:href="#DejaVuSans-32" transform="translate(63.623047 0)"/>
       <use xlink:href="#DejaVuSans-30" transform="translate(127.246094 0)"/>
      </g>
     </g>
    </g>
    <g id="xtick_4">
     <g id="line2d_4">
      <g>
       <use xlink:href="#m12fb8986ed" x="420.745211" y="320.4" style="stroke: #000000; stroke-width: 0.8"/>
      </g>
     </g>
     <g id="text_4">
      <!-- 180 -->
      <g transform="translate(411.201461 334.998438) scale(0.1 -0.1)">
       <defs>
        <path id="DejaVuSans-38" d="M 2034 2216 
Q 1584 2216 1326 1975 
Q 1069 1734 1069 1313 
Q 1069 891 1326 650 
Q 1584 409 2034 409 
Q 2484 409 2743 651 
Q 3003 894 3003 1313 
Q 3003 1734 2745 1975 
Q 2488 2216 2034 2216 
z
M 1403 2484 
Q 997 2584 770 2862 
Q 544 3141 544 3541 
Q 544 4100 942 4425 
Q 1341 4750 2034 4750 
Q 2731 4750 3128 4425 
Q 3525 4100 3525 3541 
Q 3525 3141 3298 2862 
Q 3072 2584 2669 2484 
Q 3125 2378 3379 2068 
Q 3634 1759 3634 1313 
Q 3634 634 3220 271 
Q 2806 -91 2034 -91 
Q 1263 -91 848 271 
Q 434 634 434 1313 
Q 434 1759 690 2068 
Q 947 2378 1403 2484 
z
M 1172 3481 
Q 1172 3119 1398 2916 
Q 1625 2713 2034 2713 
Q 2441 2713 2670 2916 
Q 2900 3119 2900 3481 
Q 2900 3844 2670 4047 
Q 2441 4250 2034 4250 
Q 1625 4250 1398 4047 
Q 1172 3844 1172 3481 
z
" transform="scale(0.015625)"/>
       </defs>
       <use xlink:href="#DejaVuSans-31"/>
       <use xlink:href="#DejaVuSans-38" transform="translate(63.623047 0)"/>
       <use xlink:href="#DejaVuSans-30" transform="translate(127.246094 0)"/>
      </g>
     </g>
    </g>
    <g id="xtick_5">
     <g id="line2d_5">
      <g>
       <use xlink:href="#m12fb8986ed" x="522.53907" y="320.4" style="stroke: #000000; stroke-width: 0.8"/>
      </g>
     </g>
     <g id="text_5">
      <!-- 240 -->
      <g transform="translate(512.99532 334.998438) scale(0.1 -0.1)">
       <defs>
        <path id="DejaVuSans-34" d="M 2419 4116 
L 825 1625 
L 2419 1625 
L 2419 4116 
z
M 2253 4666 
L 3047 4666 
L 3047 1625 
L 3713 1625 
L 3713 1100 
L 3047 1100 
L 3047 0 
L 2419 0 
L 2419 1100 
L 313 1100 
L 313 1709 
L 2253 4666 
z
" transform="scale(0.015625)"/>
       </defs>
       <use xlink:href="#DejaVuSans-32"/>
       <use xlink:href="#DejaVuSans-34" transform="translate(63.623047 0)"/>
       <use xlink:href="#DejaVuSans-30" transform="translate(127.246094 0)"/>
      </g>
     </g>
    </g>
    <g id="text_6">
     <!-- Epoch -->
     <g transform="translate(353.689062 348.676562) scale(0.1 -0.1)">
      <defs>
       <path id="DejaVuSans-45" d="M 628 4666 
L 3578 4666 
L 3578 4134 
L 1259 4134 
L 1259 2753 
L 3481 2753 
L 3481 2222 
L 1259 2222 
L 1259 531 
L 3634 531 
L 3634 0 
L 628 0 
L 628 4666 
z
" transform="scale(0.015625)"/>
       <path id="DejaVuSans-70" d="M 1159 525 
L 1159 -1331 
L 581 -1331 
L 581 3500 
L 1159 3500 
L 1159 2969 
Q 1341 3281 1617 3432 
Q 1894 3584 2278 3584 
Q 2916 3584 3314 3078 
Q 3713 2572 3713 1747 
Q 3713 922 3314 415 
Q 2916 -91 2278 -91 
Q 1894 -91 1617 61 
Q 1341 213 1159 525 
z
M 3116 1747 
Q 3116 2381 2855 2742 
Q 2594 3103 2138 3103 
Q 1681 3103 1420 2742 
Q 1159 2381 1159 1747 
Q 1159 1113 1420 752 
Q 1681 391 2138 391 
Q 2594 391 2855 752 
Q 3116 1113 3116 1747 
z
" transform="scale(0.015625)"/>
       <path id="DejaVuSans-6f" d="M 1959 3097 
Q 1497 3097 1228 2736 
Q 959 2375 959 1747 
Q 959 1119 1226 758 
Q 1494 397 1959 397 
Q 2419 397 2687 759 
Q 2956 1122 2956 1747 
Q 2956 2369 2687 2733 
Q 2419 3097 1959 3097 
z
M 1959 3584 
Q 2709 3584 3137 3096 
Q 3566 2609 3566 1747 
Q 3566 888 3137 398 
Q 2709 -91 1959 -91 
Q 1206 -91 779 398 
Q 353 888 353 1747 
Q 353 2609 779 3096 
Q 1206 3584 1959 3584 
z
" transform="scale(0.015625)"/>
       <path id="DejaVuSans-63" d="M 3122 3366 
L 3122 2828 
Q 2878 2963 2633 3030 
Q 2388 3097 2138 3097 
Q 1578 3097 1268 2742 
Q 959 2388 959 1747 
Q 959 1106 1268 751 
Q 1578 397 2138 397 
Q 2388 397 2633 464 
Q 2878 531 3122 666 
L 3122 134 
Q 2881 22 2623 -34 
Q 2366 -91 2075 -91 
Q 1284 -91 818 406 
Q 353 903 353 1747 
Q 353 2603 823 3093 
Q 1294 3584 2113 3584 
Q 2378 3584 2631 3529 
Q 2884 3475 3122 3366 
z
" transform="scale(0.015625)"/>
       <path id="DejaVuSans-68" d="M 3513 2113 
L 3513 0 
L 2938 0 
L 2938 2094 
Q 2938 2591 2744 2837 
Q 2550 3084 2163 3084 
Q 1697 3084 1428 2787 
Q 1159 2491 1159 1978 
L 1159 0 
L 581 0 
L 581 4863 
L 1159 4863 
L 1159 2956 
Q 1366 3272 1645 3428 
Q 1925 3584 2291 3584 
Q 2894 3584 3203 3211 
Q 3513 2838 3513 2113 
z
" transform="scale(0.015625)"/>
      </defs>
      <use xlink:href="#DejaVuSans-45"/>
      <use xlink:href="#DejaVuSans-70" transform="translate(63.183594 0)"/>
      <use xlink:href="#DejaVuSans-6f" transform="translate(126.660156 0)"/>
      <use xlink:href="#DejaVuSans-63" transform="translate(187.841797 0)"/>
      <use xlink:href="#DejaVuSans-68" transform="translate(242.822266 0)"/>
     </g>
    </g>
   </g>
   <g id="matplotlib.axis_2">
    <g id="ytick_1">
     <g id="line2d_6">
      <defs>
       <path id="m3d1cd3cafe" d="M 0 0 
L -3.5 0 
" style="stroke: #000000; stroke-width: 0.8"/>
      </defs>
      <g>
       <use xlink:href="#m3d1cd3cafe" x="90" y="310.264073" style="stroke: #000000; stroke-width: 0.8"/>
      </g>
     </g>
     <g id="text_7">
      <!-- 0.00 -->
      <g transform="translate(60.734375 314.063292) scale(0.1 -0.1)">
       <defs>
        <path id="DejaVuSans-2e" d="M 684 794 
L 1344 794 
L 1344 0 
L 684 0 
L 684 794 
z
" transform="scale(0.015625)"/>
       </defs>
       <use xlink:href="#DejaVuSans-30"/>
       <use xlink:href="#DejaVuSans-2e" transform="translate(63.623047 0)"/>
       <use xlink:href="#DejaVuSans-30" transform="translate(95.410156 0)"/>
       <use xlink:href="#DejaVuSans-30" transform="translate(159.033203 0)"/>
      </g>
     </g>
    </g>
    <g id="ytick_2">
     <g id="line2d_7">
      <g>
       <use xlink:href="#m3d1cd3cafe" x="90" y="257.194878" style="stroke: #000000; stroke-width: 0.8"/>
      </g>
     </g>
     <g id="text_8">
      <!-- 0.02 -->
      <g transform="translate(60.734375 260.994097) scale(0.1 -0.1)">
       <use xlink:href="#DejaVuSans-30"/>
       <use xlink:href="#DejaVuSans-2e" transform="translate(63.623047 0)"/>
       <use xlink:href="#DejaVuSans-30" transform="translate(95.410156 0)"/>
       <use xlink:href="#DejaVuSans-32" transform="translate(159.033203 0)"/>
      </g>
     </g>
    </g>
    <g id="ytick_3">
     <g id="line2d_8">
      <g>
       <use xlink:href="#m3d1cd3cafe" x="90" y="204.125684" style="stroke: #000000; stroke-width: 0.8"/>
      </g>
     </g>
     <g id="text_9">
      <!-- 0.04 -->
      <g transform="translate(60.734375 207.924902) scale(0.1 -0.1)">
       <use xlink:href="#DejaVuSans-30"/>
       <use xlink:href="#DejaVuSans-2e" transform="translate(63.623047 0)"/>
       <use xlink:href="#DejaVuSans-30" transform="translate(95.410156 0)"/>
       <use xlink:href="#DejaVuSans-34" transform="translate(159.033203 0)"/>
      </g>
     </g>
    </g>
    <g id="ytick_4">
     <g id="line2d_9">
      <g>
       <use xlink:href="#m3d1cd3cafe" x="90" y="151.056489" style="stroke: #000000; stroke-width: 0.8"/>
      </g>
     </g>
     <g id="text_10">
      <!-- 0.06 -->
      <g transform="translate(60.734375 154.855708) scale(0.1 -0.1)">
       <use xlink:href="#DejaVuSans-30"/>
       <use xlink:href="#DejaVuSans-2e" transform="translate(63.623047 0)"/>
       <use xlink:href="#DejaVuSans-30" transform="translate(95.410156 0)"/>
       <use xlink:href="#DejaVuSans-36" transform="translate(159.033203 0)"/>
      </g>
     </g>
    </g>
    <g id="ytick_5">
     <g id="line2d_10">
      <g>
       <use xlink:href="#m3d1cd3cafe" x="90" y="97.987294" style="stroke: #000000; stroke-width: 0.8"/>
      </g>
     </g>
     <g id="text_11">
      <!-- 0.08 -->
      <g transform="translate(60.734375 101.786513) scale(0.1 -0.1)">
       <use xlink:href="#DejaVuSans-30"/>
       <use xlink:href="#DejaVuSans-2e" transform="translate(63.623047 0)"/>
       <use xlink:href="#DejaVuSans-30" transform="translate(95.410156 0)"/>
       <use xlink:href="#DejaVuSans-38" transform="translate(159.033203 0)"/>
      </g>
     </g>
    </g>
    <g id="ytick_6">
     <g id="line2d_11">
      <g>
       <use xlink:href="#m3d1cd3cafe" x="90" y="44.918099" style="stroke: #000000; stroke-width: 0.8"/>
      </g>
     </g>
     <g id="text_12">
      <!-- 0.10 -->
      <g transform="translate(60.734375 48.717318) scale(0.1 -0.1)">
       <use xlink:href="#DejaVuSans-30"/>
       <use xlink:href="#DejaVuSans-2e" transform="translate(63.623047 0)"/>
       <use xlink:href="#DejaVuSans-31" transform="translate(95.410156 0)"/>
       <use xlink:href="#DejaVuSans-30" transform="translate(159.033203 0)"/>
      </g>
     </g>
    </g>
    <g id="text_13">
     <!-- Estimation Loss -->
     <g transform="translate(54.654687 220.98125) rotate(-90) scale(0.1 -0.1)">
      <defs>
       <path id="DejaVuSans-73" d="M 2834 3397 
L 2834 2853 
Q 2591 2978 2328 3040 
Q 2066 3103 1784 3103 
Q 1356 3103 1142 2972 
Q 928 2841 928 2578 
Q 928 2378 1081 2264 
Q 1234 2150 1697 2047 
L 1894 2003 
Q 2506 1872 2764 1633 
Q 3022 1394 3022 966 
Q 3022 478 2636 193 
Q 2250 -91 1575 -91 
Q 1294 -91 989 -36 
Q 684 19 347 128 
L 347 722 
Q 666 556 975 473 
Q 1284 391 1588 391 
Q 1994 391 2212 530 
Q 2431 669 2431 922 
Q 2431 1156 2273 1281 
Q 2116 1406 1581 1522 
L 1381 1569 
Q 847 1681 609 1914 
Q 372 2147 372 2553 
Q 372 3047 722 3315 
Q 1072 3584 1716 3584 
Q 2034 3584 2315 3537 
Q 2597 3491 2834 3397 
z
" transform="scale(0.015625)"/>
       <path id="DejaVuSans-74" d="M 1172 4494 
L 1172 3500 
L 2356 3500 
L 2356 3053 
L 1172 3053 
L 1172 1153 
Q 1172 725 1289 603 
Q 1406 481 1766 481 
L 2356 481 
L 2356 0 
L 1766 0 
Q 1100 0 847 248 
Q 594 497 594 1153 
L 594 3053 
L 172 3053 
L 172 3500 
L 594 3500 
L 594 4494 
L 1172 4494 
z
" transform="scale(0.015625)"/>
       <path id="DejaVuSans-69" d="M 603 3500 
L 1178 3500 
L 1178 0 
L 603 0 
L 603 3500 
z
M 603 4863 
L 1178 4863 
L 1178 4134 
L 603 4134 
L 603 4863 
z
" transform="scale(0.015625)"/>
       <path id="DejaVuSans-6d" d="M 3328 2828 
Q 3544 3216 3844 3400 
Q 4144 3584 4550 3584 
Q 5097 3584 5394 3201 
Q 5691 2819 5691 2113 
L 5691 0 
L 5113 0 
L 5113 2094 
Q 5113 2597 4934 2840 
Q 4756 3084 4391 3084 
Q 3944 3084 3684 2787 
Q 3425 2491 3425 1978 
L 3425 0 
L 2847 0 
L 2847 2094 
Q 2847 2600 2669 2842 
Q 2491 3084 2119 3084 
Q 1678 3084 1418 2786 
Q 1159 2488 1159 1978 
L 1159 0 
L 581 0 
L 581 3500 
L 1159 3500 
L 1159 2956 
Q 1356 3278 1631 3431 
Q 1906 3584 2284 3584 
Q 2666 3584 2933 3390 
Q 3200 3197 3328 2828 
z
" transform="scale(0.015625)"/>
       <path id="DejaVuSans-61" d="M 2194 1759 
Q 1497 1759 1228 1600 
Q 959 1441 959 1056 
Q 959 750 1161 570 
Q 1363 391 1709 391 
Q 2188 391 2477 730 
Q 2766 1069 2766 1631 
L 2766 1759 
L 2194 1759 
z
M 3341 1997 
L 3341 0 
L 2766 0 
L 2766 531 
Q 2569 213 2275 61 
Q 1981 -91 1556 -91 
Q 1019 -91 701 211 
Q 384 513 384 1019 
Q 384 1609 779 1909 
Q 1175 2209 1959 2209 
L 2766 2209 
L 2766 2266 
Q 2766 2663 2505 2880 
Q 2244 3097 1772 3097 
Q 1472 3097 1187 3025 
Q 903 2953 641 2809 
L 641 3341 
Q 956 3463 1253 3523 
Q 1550 3584 1831 3584 
Q 2591 3584 2966 3190 
Q 3341 2797 3341 1997 
z
" transform="scale(0.015625)"/>
       <path id="DejaVuSans-6e" d="M 3513 2113 
L 3513 0 
L 2938 0 
L 2938 2094 
Q 2938 2591 2744 2837 
Q 2550 3084 2163 3084 
Q 1697 3084 1428 2787 
Q 1159 2491 1159 1978 
L 1159 0 
L 581 0 
L 581 3500 
L 1159 3500 
L 1159 2956 
Q 1366 3272 1645 3428 
Q 1925 3584 2291 3584 
Q 2894 3584 3203 3211 
Q 3513 2838 3513 2113 
z
" transform="scale(0.015625)"/>
       <path id="DejaVuSans-20" transform="scale(0.015625)"/>
       <path id="DejaVuSans-4c" d="M 628 4666 
L 1259 4666 
L 1259 531 
L 3531 531 
L 3531 0 
L 628 0 
L 628 4666 
z
" transform="scale(0.015625)"/>
      </defs>
      <use xlink:href="#DejaVuSans-45"/>
      <use xlink:href="#DejaVuSans-73" transform="translate(63.183594 0)"/>
      <use xlink:href="#DejaVuSans-74" transform="translate(115.283203 0)"/>
      <use xlink:href="#DejaVuSans-69" transform="translate(154.492188 0)"/>
      <use xlink:href="#DejaVuSans-6d" transform="translate(182.275391 0)"/>
      <use xlink:href="#DejaVuSans-61" transform="translate(279.6875 0)"/>
      <use xlink:href="#DejaVuSans-74" transform="translate(340.966797 0)"/>
      <use xlink:href="#DejaVuSans-69" transform="translate(380.175781 0)"/>
      <use xlink:href="#DejaVuSans-6f" transform="translate(407.958984 0)"/>
      <use xlink:href="#DejaVuSans-6e" transform="translate(469.140625 0)"/>
      <use xlink:href="#DejaVuSans-20" transform="translate(532.519531 0)"/>
      <use xlink:href="#DejaVuSans-4c" transform="translate(564.306641 0)"/>
      <use xlink:href="#DejaVuSans-6f" transform="translate(618.269531 0)"/>
      <use xlink:href="#DejaVuSans-73" transform="translate(679.451172 0)"/>
      <use xlink:href="#DejaVuSans-73" transform="translate(731.550781 0)"/>
     </g>
    </g>
   </g>
   <g id="line2d_12">
    <path d="M 115.363636 128.911135 
L 117.060201 284.371033 
L 118.756765 293.783933 
L 120.453329 297.56953 
L 122.149894 299.647486 
L 123.846458 300.953689 
L 125.543022 301.948596 
L 127.239587 302.71817 
L 130.632715 303.722501 
L 135.722408 304.676942 
L 140.812101 305.320686 
L 145.901794 305.801708 
L 152.688051 306.27217 
L 157.777744 306.539093 
L 159.474308 306.213187 
L 161.170873 306.608582 
L 164.564001 306.811402 
L 174.743387 307.071155 
L 176.439951 307.116252 
L 178.136516 307.001235 
L 188.315901 307.186898 
L 190.012466 307.308395 
L 191.70903 307.256852 
L 198.495287 307.474933 
L 201.888416 307.508273 
L 235.819702 307.668984 
L 237.516266 307.611704 
L 239.212831 307.711915 
L 245.999088 307.644606 
L 251.088781 307.681716 
L 252.785345 307.582123 
L 254.481909 307.67894 
L 256.178474 307.554549 
L 266.35786 307.682323 
L 269.750988 307.623619 
L 271.447552 307.653873 
L 273.144117 307.294058 
L 274.840681 307.557428 
L 278.23381 307.61099 
L 286.716631 307.521861 
L 288.413196 306.721479 
L 290.10976 307.154923 
L 291.806324 307.408687 
L 295.199453 307.550095 
L 300.289146 307.469167 
L 349.48951 307.362123 
L 351.186075 307.266517 
L 356.275768 307.339941 
L 361.365461 307.261212 
L 366.455154 307.291399 
L 373.241411 307.289475 
L 376.634539 307.228692 
L 407.172697 307.159123 
L 408.869261 307.016099 
L 410.565825 307.16174 
L 424.13834 307.218748 
L 430.924597 307.145941 
L 436.01429 307.170549 
L 439.407419 307.167003 
L 444.497112 307.174434 
L 446.193676 307.081507 
L 447.89024 307.213538 
L 451.283369 307.173576 
L 454.676497 307.231452 
L 459.76619 307.124695 
L 466.552448 307.131153 
L 490.304348 307.199243 
L 497.090605 307.213321 
L 520.842505 307.238746 
L 525.932198 307.30002 
L 532.718455 307.161902 
L 536.111584 307.304284 
L 539.504713 307.125375 
L 541.201277 307.290466 
L 554.773791 307.359559 
L 559.863484 307.317577 
L 571.739434 307.285788 
L 575.132563 307.370274 
L 580.222256 307.382921 
L 585.311949 307.391637 
L 592.098206 307.34226 
L 595.491335 307.362477 
L 600.581028 307.409416 
L 609.063849 307.383648 
L 610.760413 307.461852 
L 612.456978 307.3891 
L 615.850106 307.39897 
L 617.546671 307.361336 
L 619.243235 307.48462 
L 620.939799 307.378463 
L 622.636364 307.485825 
L 622.636364 307.485825 
" clip-path="url(#pa60c859115)" style="fill: none; stroke: #1f77b4; stroke-width: 1.5; stroke-linecap: square"/>
   </g>
   <g id="line2d_13">
    <path d="M 115.363636 55.8 
L 117.060201 244.757421 
L 118.756765 262.819085 
L 120.453329 270.745667 
L 122.149894 275.12179 
L 123.846458 278.020717 
L 125.543022 279.95045 
L 127.239587 281.528304 
L 130.632715 283.66069 
L 134.025844 285.179978 
L 137.418972 286.324756 
L 144.20523 287.968443 
L 154.384615 289.592944 
L 157.777744 289.989641 
L 159.474308 290.053795 
L 161.170873 290.437828 
L 164.564001 290.84979 
L 186.619337 292.366523 
L 188.315901 292.63568 
L 195.102159 293.052215 
L 196.798723 292.993728 
L 198.495287 293.264873 
L 203.58498 293.413678 
L 205.281545 293.576152 
L 213.764366 293.714355 
L 217.157495 293.795077 
L 220.550623 293.811572 
L 222.247188 293.769641 
L 225.640316 293.878991 
L 227.336881 293.766592 
L 239.212831 293.966284 
L 240.909395 293.744978 
L 244.302524 293.894582 
L 247.695652 293.934688 
L 251.088781 293.996569 
L 252.785345 293.804956 
L 254.481909 293.807437 
L 256.178474 293.653637 
L 259.571602 293.675634 
L 262.964731 293.529378 
L 264.661295 293.854802 
L 266.35786 293.904875 
L 268.054424 293.697914 
L 271.447552 293.805079 
L 273.144117 293.353902 
L 274.840681 293.76485 
L 281.626938 293.633273 
L 285.020067 293.613751 
L 286.716631 293.422577 
L 288.413196 292.425336 
L 291.806324 293.352197 
L 293.502888 293.33522 
L 295.199453 293.43204 
L 303.682274 293.220717 
L 305.378839 293.048526 
L 308.771967 293.380071 
L 310.468531 293.084991 
L 312.165096 293.259329 
L 322.344482 293.061207 
L 324.041046 293.145274 
L 329.130739 292.769097 
L 330.827303 292.945846 
L 334.220432 292.679476 
L 335.916996 292.871895 
L 337.61356 292.642101 
L 339.310125 292.743776 
L 342.703253 292.438472 
L 344.399818 292.461057 
L 346.096382 292.217824 
L 347.792946 292.313198 
L 351.186075 292.154426 
L 352.882639 292.393779 
L 359.668896 291.94381 
L 361.365461 292.015618 
L 363.062025 291.932099 
L 364.758589 291.670372 
L 366.455154 291.658717 
L 369.848282 291.81241 
L 373.241411 291.817985 
L 376.634539 291.532175 
L 378.331104 291.343152 
L 381.724232 291.339619 
L 385.117361 291.194577 
L 390.207054 291.239021 
L 391.903618 290.979032 
L 396.993311 290.872289 
L 400.38644 290.535788 
L 402.083004 290.594868 
L 403.779568 290.520313 
L 407.172697 290.534668 
L 412.26239 290.569042 
L 413.958954 290.571793 
L 415.655518 290.70737 
L 417.352083 290.531143 
L 424.13834 290.33877 
L 425.834904 290.246132 
L 427.531469 290.373333 
L 429.228033 290.252304 
L 434.317726 290.302389 
L 436.01429 290.271357 
L 437.710854 290.375497 
L 439.407419 290.242475 
L 441.103983 290.258447 
L 442.800547 290.087194 
L 444.497112 290.041052 
L 446.193676 289.824258 
L 447.89024 290.245834 
L 456.373062 290.313508 
L 459.76619 290.005322 
L 464.855883 290.206909 
L 466.552448 290.050935 
L 468.249012 290.106136 
L 469.945576 289.971282 
L 475.035269 290.12562 
L 478.428398 290.19054 
L 480.124962 289.914911 
L 481.821526 289.8772 
L 483.518091 289.988252 
L 497.090605 289.853564 
L 498.787169 290.017838 
L 502.180298 289.973479 
L 503.876862 289.915912 
L 505.573427 290.022036 
L 507.269991 289.783662 
L 510.663119 289.852299 
L 514.056248 289.51824 
L 517.449377 290.107676 
L 519.145941 289.941608 
L 520.842505 289.605832 
L 524.235634 289.933227 
L 527.628763 289.9405 
L 529.325327 290.046124 
L 531.021891 289.641899 
L 536.111584 289.632038 
L 537.808148 289.819586 
L 539.504713 289.562812 
L 541.201277 289.883163 
L 547.987534 289.674675 
L 549.684099 289.536685 
L 551.380663 289.883688 
L 554.773791 289.783967 
L 556.470356 289.890544 
L 558.16692 289.676489 
L 561.560049 289.717732 
L 563.256613 289.922617 
L 564.953177 289.755967 
L 566.649742 289.95574 
L 568.346306 289.68763 
L 570.04287 289.831766 
L 571.739434 289.553564 
L 573.435999 289.629729 
L 575.132563 289.395336 
L 587.008513 289.520144 
L 590.401642 289.13057 
L 592.098206 289.094356 
L 593.79477 289.216276 
L 595.491335 289.222224 
L 597.187899 289.423069 
L 598.884463 289.267766 
L 600.581028 289.36995 
L 602.277592 289.638553 
L 603.974156 289.502005 
L 605.670721 289.502317 
L 609.063849 289.112561 
L 610.760413 289.274504 
L 615.850106 289.314071 
L 619.243235 289.585786 
L 620.939799 289.347638 
L 622.636364 289.56701 
L 622.636364 289.56701 
" clip-path="url(#pa60c859115)" style="fill: none; stroke: #ff7f0e; stroke-width: 1.5; stroke-linecap: square"/>
   </g>
   <g id="line2d_14">
    <path d="M 115.363636 280.268881 
L 117.060201 289.895893 
L 118.756765 295.143284 
L 120.453329 299.541705 
L 122.149894 299.314106 
L 123.846458 297.738452 
L 125.543022 300.479138 
L 127.239587 299.700472 
L 128.936151 300.73747 
L 130.632715 300.587742 
L 132.329279 300.676292 
L 134.025844 303.187777 
L 135.722408 303.734164 
L 137.418972 303.128162 
L 139.115537 304.906592 
L 140.812101 304.582235 
L 142.508665 305.219816 
L 144.20523 305.128355 
L 145.901794 305.251242 
L 149.294922 305.183264 
L 150.991487 306.101914 
L 154.384615 306.117959 
L 156.08118 305.692188 
L 157.777744 306.357176 
L 159.474308 305.787272 
L 161.170873 306.320716 
L 162.867437 306.480657 
L 166.260566 306.453409 
L 167.95713 306.948342 
L 169.653694 307.025215 
L 171.350258 307.263361 
L 173.046823 307.174495 
L 176.439951 307.222926 
L 181.529644 306.907973 
L 183.226209 307.430624 
L 184.922773 306.767608 
L 186.619337 307.13721 
L 188.315901 307.108778 
L 190.012466 307.504586 
L 191.70903 307.216107 
L 195.102159 307.050425 
L 196.798723 307.3967 
L 198.495287 306.982741 
L 200.191852 307.20986 
L 201.888416 307.209856 
L 203.58498 307.080296 
L 210.371237 307.300259 
L 212.067802 307.467575 
L 213.764366 307.474153 
L 215.46093 307.365015 
L 217.157495 307.46939 
L 218.854059 307.261937 
L 222.247188 307.158097 
L 225.640316 307.514987 
L 227.336881 307.071068 
L 229.033445 307.417497 
L 232.426573 307.304727 
L 239.212831 307.429356 
L 240.909395 307.080495 
L 242.605959 307.397981 
L 244.302524 306.990634 
L 245.999088 307.39335 
L 247.695652 307.364641 
L 249.392216 307.8 
L 251.088781 307.589555 
L 252.785345 307.625782 
L 254.481909 307.781221 
L 262.964731 307.458333 
L 264.661295 307.339067 
L 266.35786 307.06525 
L 268.054424 307.595956 
L 269.750988 306.926191 
L 271.447552 307.306936 
L 273.144117 307.260699 
L 278.23381 307.561344 
L 285.020067 307.427711 
L 286.716631 307.045622 
L 288.413196 305.582891 
L 290.10976 306.988869 
L 291.806324 307.254748 
L 293.502888 306.969882 
L 295.199453 307.398881 
L 296.896017 307.162737 
L 305.378839 307.184533 
L 307.075403 307.027096 
L 308.771967 307.313533 
L 310.468531 307.317708 
L 312.165096 306.863623 
L 315.558224 306.750256 
L 317.254789 307.032649 
L 318.951353 306.730914 
L 320.647917 307.184706 
L 324.041046 307.024789 
L 325.73761 307.046573 
L 329.130739 307.277472 
L 330.827303 307.279246 
L 335.916996 306.829801 
L 337.61356 306.484028 
L 339.310125 307.149518 
L 341.006689 306.897683 
L 342.703253 306.851376 
L 349.48951 307.146469 
L 351.186075 306.898599 
L 352.882639 307.046774 
L 354.579203 306.848315 
L 356.275768 306.895861 
L 357.972332 306.812804 
L 363.062025 306.984427 
L 364.758589 306.67597 
L 368.151718 306.989409 
L 369.848282 306.954809 
L 373.241411 306.550167 
L 376.634539 306.600613 
L 381.724232 306.615388 
L 383.420797 306.862273 
L 385.117361 306.837186 
L 386.813925 306.653781 
L 388.51049 306.839007 
L 395.296747 306.500388 
L 396.993311 306.859882 
L 398.689875 306.66683 
L 402.083004 307.028203 
L 405.476133 306.291621 
L 407.172697 306.837678 
L 408.869261 306.453942 
L 412.26239 306.781016 
L 425.834904 306.861368 
L 432.621161 306.680279 
L 434.317726 306.49781 
L 436.01429 306.548144 
L 437.710854 306.714934 
L 439.407419 306.763764 
L 441.103983 306.386686 
L 442.800547 306.866231 
L 444.497112 306.687691 
L 451.283369 306.741679 
L 452.979933 306.5343 
L 454.676497 306.656257 
L 458.069626 306.602137 
L 459.76619 306.598559 
L 463.159319 306.235185 
L 464.855883 306.638672 
L 466.552448 306.263168 
L 468.249012 306.452136 
L 469.945576 306.393277 
L 471.64214 306.654246 
L 476.731833 306.622784 
L 478.428398 306.214795 
L 480.124962 307.01464 
L 481.821526 306.377831 
L 483.518091 306.762401 
L 486.911219 306.165057 
L 488.607784 306.914794 
L 490.304348 306.387411 
L 492.000912 306.185183 
L 493.697476 306.535296 
L 497.090605 306.759784 
L 498.787169 306.52354 
L 500.483734 306.532011 
L 502.180298 306.31767 
L 503.876862 306.857065 
L 512.359684 306.617522 
L 515.752812 306.678342 
L 522.53907 306.743036 
L 524.235634 306.825237 
L 529.325327 306.782913 
L 531.021891 306.445657 
L 532.718455 306.693088 
L 534.41502 306.702157 
L 536.111584 306.834478 
L 537.808148 306.776173 
L 539.504713 306.364498 
L 541.201277 306.859231 
L 546.29097 306.89395 
L 547.987534 307.06091 
L 549.684099 306.823658 
L 551.380663 306.960295 
L 553.077227 306.850837 
L 556.470356 306.820232 
L 558.16692 306.583291 
L 559.863484 307.192937 
L 561.560049 306.96262 
L 564.953177 307.035679 
L 566.649742 307.006566 
L 568.346306 307.130929 
L 570.04287 306.887125 
L 571.739434 307.084368 
L 575.132563 306.702401 
L 576.829127 307.210673 
L 578.525692 306.907067 
L 581.91882 307.032488 
L 588.705078 306.791659 
L 592.098206 307.021099 
L 593.79477 306.678757 
L 595.491335 306.944103 
L 597.187899 306.815633 
L 600.581028 307.16705 
L 602.277592 306.895535 
L 603.974156 306.951343 
L 607.367285 306.819507 
L 609.063849 306.982012 
L 614.153542 306.897819 
L 619.243235 306.946397 
L 620.939799 307.126352 
L 622.636364 307.035743 
L 622.636364 307.035743 
" clip-path="url(#pa60c859115)" style="fill: none; stroke: #2ca02c; stroke-width: 1.5; stroke-linecap: square"/>
   </g>
   <g id="line2d_15">
    <path d="M 115.363636 226.006883 
L 117.060201 255.718071 
L 118.756765 265.590999 
L 120.453329 274.157124 
L 122.149894 275.350687 
L 123.846458 274.659071 
L 125.543022 278.639186 
L 127.239587 278.490474 
L 128.936151 280.080347 
L 130.632715 280.722866 
L 132.329279 280.393172 
L 134.025844 283.698552 
L 135.722408 284.61223 
L 137.418972 283.905166 
L 139.115537 286.334738 
L 140.812101 286.091225 
L 142.508665 287.019509 
L 145.901794 286.971655 
L 147.598358 287.512487 
L 149.294922 287.748704 
L 150.991487 288.545666 
L 152.688051 288.576938 
L 154.384615 288.794852 
L 156.08118 288.237675 
L 159.474308 289.66357 
L 161.170873 289.093472 
L 164.564001 290.281589 
L 166.260566 289.407893 
L 167.95713 290.491303 
L 169.653694 290.486342 
L 171.350258 290.920753 
L 173.046823 290.834841 
L 174.743387 290.954552 
L 176.439951 291.689531 
L 178.136516 291.916536 
L 179.83308 291.820507 
L 181.529644 291.33857 
L 183.226209 291.884332 
L 184.922773 291.443262 
L 186.619337 291.744835 
L 190.012466 292.716639 
L 191.70903 292.446734 
L 193.405594 292.53258 
L 195.102159 292.372742 
L 196.798723 292.861231 
L 200.191852 292.733161 
L 201.888416 293.037311 
L 206.978109 292.883682 
L 208.674673 293.298184 
L 210.371237 293.333252 
L 212.067802 293.652967 
L 213.764366 293.821112 
L 215.46093 293.289346 
L 217.157495 293.403903 
L 218.854059 293.707261 
L 220.550623 293.181092 
L 222.247188 293.583081 
L 223.943752 293.676299 
L 225.640316 294.114536 
L 227.336881 293.703534 
L 229.033445 294.021162 
L 230.730009 293.898681 
L 234.123138 294.133442 
L 235.819702 294.273367 
L 237.516266 293.983487 
L 239.212831 294.236385 
L 240.909395 293.740927 
L 242.605959 294.153365 
L 247.695652 294.193226 
L 249.392216 294.703772 
L 251.088781 294.663872 
L 252.785345 294.851847 
L 254.481909 294.729147 
L 256.178474 294.354808 
L 257.875038 294.460035 
L 262.964731 294.120293 
L 264.661295 294.592406 
L 266.35786 294.388934 
L 268.054424 294.502996 
L 273.144117 294.282731 
L 274.840681 294.834616 
L 276.537245 294.480215 
L 283.323503 294.331573 
L 285.020067 294.286212 
L 286.716631 294.04249 
L 288.413196 292.35004 
L 290.10976 293.816846 
L 291.806324 293.840123 
L 293.502888 294.034067 
L 295.199453 293.986576 
L 296.896017 293.749671 
L 298.592581 293.77871 
L 300.289146 294.100882 
L 301.98571 293.644199 
L 303.682274 293.7971 
L 305.378839 293.138625 
L 307.075403 293.45903 
L 308.771967 293.512926 
L 313.86166 293.35988 
L 315.558224 292.996767 
L 317.254789 293.373726 
L 318.951353 293.325285 
L 320.647917 293.083188 
L 322.344482 293.454919 
L 327.434175 292.69635 
L 334.220432 292.901016 
L 335.916996 292.447708 
L 337.61356 291.855731 
L 339.310125 292.709435 
L 341.006689 292.328891 
L 342.703253 292.105441 
L 344.399818 292.041759 
L 346.096382 292.734254 
L 347.792946 292.563646 
L 349.48951 291.940224 
L 351.186075 292.400547 
L 352.882639 292.344554 
L 354.579203 292.151365 
L 356.275768 292.096329 
L 357.972332 291.627359 
L 359.668896 292.089469 
L 361.365461 292.31938 
L 363.062025 291.758353 
L 364.758589 290.985961 
L 366.455154 291.190416 
L 368.151718 291.657814 
L 369.848282 291.832658 
L 371.544846 291.396476 
L 373.241411 291.343482 
L 374.937975 291.891072 
L 376.634539 291.637581 
L 378.331104 290.967743 
L 380.027668 291.079836 
L 381.724232 290.986231 
L 383.420797 291.469949 
L 385.117361 290.855883 
L 386.813925 290.646632 
L 388.51049 290.948674 
L 391.903618 290.725024 
L 393.600182 291.007083 
L 398.689875 291.059834 
L 400.38644 290.863797 
L 402.083004 291.121143 
L 403.779568 290.686638 
L 405.476133 290.52282 
L 407.172697 291.123339 
L 410.565825 290.638604 
L 412.26239 290.852516 
L 415.655518 290.481665 
L 417.352083 290.617498 
L 419.048647 290.592859 
L 420.745211 290.302746 
L 422.441776 290.677417 
L 424.13834 290.278259 
L 425.834904 290.708204 
L 427.531469 290.394392 
L 429.228033 290.47822 
L 430.924597 290.169115 
L 432.621161 290.489025 
L 437.710854 290.084301 
L 439.407419 290.327748 
L 441.103983 289.697026 
L 442.800547 290.278024 
L 444.497112 289.994754 
L 451.283369 290.24643 
L 452.979933 290.043613 
L 454.676497 290.448764 
L 456.373062 290.416008 
L 458.069626 290.011985 
L 459.76619 290.682488 
L 461.462755 290.204302 
L 463.159319 289.993536 
L 464.855883 290.206357 
L 466.552448 290.285484 
L 468.249012 290.084695 
L 469.945576 289.746287 
L 471.64214 290.136868 
L 473.338705 290.189089 
L 475.035269 290.093986 
L 476.731833 290.438187 
L 478.428398 290.309313 
L 481.821526 289.696869 
L 483.518091 290.313904 
L 486.911219 289.59923 
L 488.607784 290.423129 
L 490.304348 289.957764 
L 492.000912 289.864848 
L 493.697476 290.219941 
L 495.394041 290.322684 
L 497.090605 290.148406 
L 498.787169 290.10354 
L 500.483734 290.220171 
L 502.180298 289.866279 
L 503.876862 290.394409 
L 505.573427 289.991738 
L 507.269991 289.962038 
L 508.966555 290.146534 
L 510.663119 289.671632 
L 514.056248 289.516668 
L 515.752812 290.051758 
L 517.449377 290.096375 
L 519.145941 289.580004 
L 520.842505 289.550749 
L 522.53907 289.795104 
L 524.235634 289.904909 
L 525.932198 289.674593 
L 527.628763 290.081639 
L 531.021891 289.270225 
L 532.718455 289.41992 
L 534.41502 289.393622 
L 536.111584 289.829566 
L 537.808148 289.827887 
L 539.504713 289.154179 
L 541.201277 289.952923 
L 542.897841 290.050593 
L 544.594406 289.496687 
L 547.987534 289.441643 
L 549.684099 289.691745 
L 554.773791 289.824842 
L 556.470356 289.974108 
L 558.16692 289.722309 
L 559.863484 290.383719 
L 561.560049 290.644316 
L 563.256613 290.556503 
L 564.953177 290.038999 
L 566.649742 289.789171 
L 568.346306 290.088144 
L 570.04287 289.767785 
L 573.435999 289.844631 
L 576.829127 289.555795 
L 578.525692 289.713025 
L 580.222256 289.721558 
L 581.91882 289.508455 
L 583.615385 289.846602 
L 585.311949 289.731383 
L 587.008513 289.282361 
L 588.705078 289.475086 
L 590.401642 289.32436 
L 592.098206 288.859729 
L 593.79477 288.797532 
L 595.491335 289.371364 
L 598.884463 289.300307 
L 600.581028 289.562374 
L 602.277592 289.502398 
L 603.974156 289.832214 
L 605.670721 289.272137 
L 607.367285 289.438651 
L 609.063849 289.023303 
L 610.760413 289.523745 
L 614.153542 289.028374 
L 615.850106 288.989263 
L 617.546671 289.652743 
L 619.243235 289.575378 
L 620.939799 289.368454 
L 622.636364 289.551297 
L 622.636364 289.551297 
" clip-path="url(#pa60c859115)" style="fill: none; stroke: #d62728; stroke-width: 1.5; stroke-linecap: square"/>
   </g>
   <g id="patch_3">
    <path d="M 90 320.4 
L 90 43.2 
" style="fill: none; stroke: #000000; stroke-width: 0.8; stroke-linejoin: miter; stroke-linecap: square"/>
   </g>
   <g id="patch_4">
    <path d="M 648 320.4 
L 648 43.2 
" style="fill: none; stroke: #000000; stroke-width: 0.8; stroke-linejoin: miter; stroke-linecap: square"/>
   </g>
   <g id="patch_5">
    <path d="M 90 320.4 
L 648 320.4 
" style="fill: none; stroke: #000000; stroke-width: 0.8; stroke-linejoin: miter; stroke-linecap: square"/>
   </g>
   <g id="patch_6">
    <path d="M 90 43.2 
L 648 43.2 
" style="fill: none; stroke: #000000; stroke-width: 0.8; stroke-linejoin: miter; stroke-linecap: square"/>
   </g>
   <g id="text_14">
    <!-- Training and Validating Estimation Loss -->
    <g transform="translate(251.535937 37.2) scale(0.12 -0.12)">
     <defs>
      <path id="DejaVuSans-54" d="M -19 4666 
L 3928 4666 
L 3928 4134 
L 2272 4134 
L 2272 0 
L 1638 0 
L 1638 4134 
L -19 4134 
L -19 4666 
z
" transform="scale(0.015625)"/>
      <path id="DejaVuSans-72" d="M 2631 2963 
Q 2534 3019 2420 3045 
Q 2306 3072 2169 3072 
Q 1681 3072 1420 2755 
Q 1159 2438 1159 1844 
L 1159 0 
L 581 0 
L 581 3500 
L 1159 3500 
L 1159 2956 
Q 1341 3275 1631 3429 
Q 1922 3584 2338 3584 
Q 2397 3584 2469 3576 
Q 2541 3569 2628 3553 
L 2631 2963 
z
" transform="scale(0.015625)"/>
      <path id="DejaVuSans-67" d="M 2906 1791 
Q 2906 2416 2648 2759 
Q 2391 3103 1925 3103 
Q 1463 3103 1205 2759 
Q 947 2416 947 1791 
Q 947 1169 1205 825 
Q 1463 481 1925 481 
Q 2391 481 2648 825 
Q 2906 1169 2906 1791 
z
M 3481 434 
Q 3481 -459 3084 -895 
Q 2688 -1331 1869 -1331 
Q 1566 -1331 1297 -1286 
Q 1028 -1241 775 -1147 
L 775 -588 
Q 1028 -725 1275 -790 
Q 1522 -856 1778 -856 
Q 2344 -856 2625 -561 
Q 2906 -266 2906 331 
L 2906 616 
Q 2728 306 2450 153 
Q 2172 0 1784 0 
Q 1141 0 747 490 
Q 353 981 353 1791 
Q 353 2603 747 3093 
Q 1141 3584 1784 3584 
Q 2172 3584 2450 3431 
Q 2728 3278 2906 2969 
L 2906 3500 
L 3481 3500 
L 3481 434 
z
" transform="scale(0.015625)"/>
      <path id="DejaVuSans-64" d="M 2906 2969 
L 2906 4863 
L 3481 4863 
L 3481 0 
L 2906 0 
L 2906 525 
Q 2725 213 2448 61 
Q 2172 -91 1784 -91 
Q 1150 -91 751 415 
Q 353 922 353 1747 
Q 353 2572 751 3078 
Q 1150 3584 1784 3584 
Q 2172 3584 2448 3432 
Q 2725 3281 2906 2969 
z
M 947 1747 
Q 947 1113 1208 752 
Q 1469 391 1925 391 
Q 2381 391 2643 752 
Q 2906 1113 2906 1747 
Q 2906 2381 2643 2742 
Q 2381 3103 1925 3103 
Q 1469 3103 1208 2742 
Q 947 2381 947 1747 
z
" transform="scale(0.015625)"/>
      <path id="DejaVuSans-56" d="M 1831 0 
L 50 4666 
L 709 4666 
L 2188 738 
L 3669 4666 
L 4325 4666 
L 2547 0 
L 1831 0 
z
" transform="scale(0.015625)"/>
      <path id="DejaVuSans-6c" d="M 603 4863 
L 1178 4863 
L 1178 0 
L 603 0 
L 603 4863 
z
" transform="scale(0.015625)"/>
     </defs>
     <use xlink:href="#DejaVuSans-54"/>
     <use xlink:href="#DejaVuSans-72" transform="translate(46.333984 0)"/>
     <use xlink:href="#DejaVuSans-61" transform="translate(87.447266 0)"/>
     <use xlink:href="#DejaVuSans-69" transform="translate(148.726562 0)"/>
     <use xlink:href="#DejaVuSans-6e" transform="translate(176.509766 0)"/>
     <use xlink:href="#DejaVuSans-69" transform="translate(239.888672 0)"/>
     <use xlink:href="#DejaVuSans-6e" transform="translate(267.671875 0)"/>
     <use xlink:href="#DejaVuSans-67" transform="translate(331.050781 0)"/>
     <use xlink:href="#DejaVuSans-20" transform="translate(394.527344 0)"/>
     <use xlink:href="#DejaVuSans-61" transform="translate(426.314453 0)"/>
     <use xlink:href="#DejaVuSans-6e" transform="translate(487.59375 0)"/>
     <use xlink:href="#DejaVuSans-64" transform="translate(550.972656 0)"/>
     <use xlink:href="#DejaVuSans-20" transform="translate(614.449219 0)"/>
     <use xlink:href="#DejaVuSans-56" transform="translate(646.236328 0)"/>
     <use xlink:href="#DejaVuSans-61" transform="translate(706.894531 0)"/>
     <use xlink:href="#DejaVuSans-6c" transform="translate(768.173828 0)"/>
     <use xlink:href="#DejaVuSans-69" transform="translate(795.957031 0)"/>
     <use xlink:href="#DejaVuSans-64" transform="translate(823.740234 0)"/>
     <use xlink:href="#DejaVuSans-61" transform="translate(887.216797 0)"/>
     <use xlink:href="#DejaVuSans-74" transform="translate(948.496094 0)"/>
     <use xlink:href="#DejaVuSans-69" transform="translate(987.705078 0)"/>
     <use xlink:href="#DejaVuSans-6e" transform="translate(1015.488281 0)"/>
     <use xlink:href="#DejaVuSans-67" transform="translate(1078.867188 0)"/>
     <use xlink:href="#DejaVuSans-20" transform="translate(1142.34375 0)"/>
     <use xlink:href="#DejaVuSans-45" transform="translate(1174.130859 0)"/>
     <use xlink:href="#DejaVuSans-73" transform="translate(1237.314453 0)"/>
     <use xlink:href="#DejaVuSans-74" transform="translate(1289.414062 0)"/>
     <use xlink:href="#DejaVuSans-69" transform="translate(1328.623047 0)"/>
     <use xlink:href="#DejaVuSans-6d" transform="translate(1356.40625 0)"/>
     <use xlink:href="#DejaVuSans-61" transform="translate(1453.818359 0)"/>
     <use xlink:href="#DejaVuSans-74" transform="translate(1515.097656 0)"/>
     <use xlink:href="#DejaVuSans-69" transform="translate(1554.306641 0)"/>
     <use xlink:href="#DejaVuSans-6f" transform="translate(1582.089844 0)"/>
     <use xlink:href="#DejaVuSans-6e" transform="translate(1643.271484 0)"/>
     <use xlink:href="#DejaVuSans-20" transform="translate(1706.650391 0)"/>
     <use xlink:href="#DejaVuSans-4c" transform="translate(1738.4375 0)"/>
     <use xlink:href="#DejaVuSans-6f" transform="translate(1792.400391 0)"/>
     <use xlink:href="#DejaVuSans-73" transform="translate(1853.582031 0)"/>
     <use xlink:href="#DejaVuSans-73" transform="translate(1905.681641 0)"/>
    </g>
   </g>
   <g id="legend_1">
    <g id="patch_7">
     <path d="M 521.439062 109.9125 
L 641 109.9125 
Q 643 109.9125 643 107.9125 
L 643 50.2 
Q 643 48.2 641 48.2 
L 521.439062 48.2 
Q 519.439062 48.2 519.439062 50.2 
L 519.439062 107.9125 
Q 519.439062 109.9125 521.439062 109.9125 
z
" style="fill: #ffffff; opacity: 0.8; stroke: #cccccc; stroke-linejoin: miter"/>
    </g>
    <g id="line2d_16">
     <path d="M 523.439062 56.298437 
L 533.439062 56.298437 
L 543.439062 56.298437 
" style="fill: none; stroke: #1f77b4; stroke-width: 1.5; stroke-linecap: square"/>
    </g>
    <g id="text_15">
     <!-- Training-Source -->
     <g transform="translate(551.439062 59.798437) scale(0.1 -0.1)">
      <defs>
       <path id="DejaVuSans-2d" d="M 313 2009 
L 1997 2009 
L 1997 1497 
L 313 1497 
L 313 2009 
z
" transform="scale(0.015625)"/>
       <path id="DejaVuSans-53" d="M 3425 4513 
L 3425 3897 
Q 3066 4069 2747 4153 
Q 2428 4238 2131 4238 
Q 1616 4238 1336 4038 
Q 1056 3838 1056 3469 
Q 1056 3159 1242 3001 
Q 1428 2844 1947 2747 
L 2328 2669 
Q 3034 2534 3370 2195 
Q 3706 1856 3706 1288 
Q 3706 609 3251 259 
Q 2797 -91 1919 -91 
Q 1588 -91 1214 -16 
Q 841 59 441 206 
L 441 856 
Q 825 641 1194 531 
Q 1563 422 1919 422 
Q 2459 422 2753 634 
Q 3047 847 3047 1241 
Q 3047 1584 2836 1778 
Q 2625 1972 2144 2069 
L 1759 2144 
Q 1053 2284 737 2584 
Q 422 2884 422 3419 
Q 422 4038 858 4394 
Q 1294 4750 2059 4750 
Q 2388 4750 2728 4690 
Q 3069 4631 3425 4513 
z
" transform="scale(0.015625)"/>
       <path id="DejaVuSans-75" d="M 544 1381 
L 544 3500 
L 1119 3500 
L 1119 1403 
Q 1119 906 1312 657 
Q 1506 409 1894 409 
Q 2359 409 2629 706 
Q 2900 1003 2900 1516 
L 2900 3500 
L 3475 3500 
L 3475 0 
L 2900 0 
L 2900 538 
Q 2691 219 2414 64 
Q 2138 -91 1772 -91 
Q 1169 -91 856 284 
Q 544 659 544 1381 
z
M 1991 3584 
L 1991 3584 
z
" transform="scale(0.015625)"/>
       <path id="DejaVuSans-65" d="M 3597 1894 
L 3597 1613 
L 953 1613 
Q 991 1019 1311 708 
Q 1631 397 2203 397 
Q 2534 397 2845 478 
Q 3156 559 3463 722 
L 3463 178 
Q 3153 47 2828 -22 
Q 2503 -91 2169 -91 
Q 1331 -91 842 396 
Q 353 884 353 1716 
Q 353 2575 817 3079 
Q 1281 3584 2069 3584 
Q 2775 3584 3186 3129 
Q 3597 2675 3597 1894 
z
M 3022 2063 
Q 3016 2534 2758 2815 
Q 2500 3097 2075 3097 
Q 1594 3097 1305 2825 
Q 1016 2553 972 2059 
L 3022 2063 
z
" transform="scale(0.015625)"/>
      </defs>
      <use xlink:href="#DejaVuSans-54"/>
      <use xlink:href="#DejaVuSans-72" transform="translate(46.333984 0)"/>
      <use xlink:href="#DejaVuSans-61" transform="translate(87.447266 0)"/>
      <use xlink:href="#DejaVuSans-69" transform="translate(148.726562 0)"/>
      <use xlink:href="#DejaVuSans-6e" transform="translate(176.509766 0)"/>
      <use xlink:href="#DejaVuSans-69" transform="translate(239.888672 0)"/>
      <use xlink:href="#DejaVuSans-6e" transform="translate(267.671875 0)"/>
      <use xlink:href="#DejaVuSans-67" transform="translate(331.050781 0)"/>
      <use xlink:href="#DejaVuSans-2d" transform="translate(394.527344 0)"/>
      <use xlink:href="#DejaVuSans-53" transform="translate(430.611328 0)"/>
      <use xlink:href="#DejaVuSans-6f" transform="translate(494.087891 0)"/>
      <use xlink:href="#DejaVuSans-75" transform="translate(555.269531 0)"/>
      <use xlink:href="#DejaVuSans-72" transform="translate(618.648438 0)"/>
      <use xlink:href="#DejaVuSans-63" transform="translate(657.511719 0)"/>
      <use xlink:href="#DejaVuSans-65" transform="translate(712.492188 0)"/>
     </g>
    </g>
    <g id="line2d_17">
     <path d="M 523.439062 70.976562 
L 533.439062 70.976562 
L 543.439062 70.976562 
" style="fill: none; stroke: #ff7f0e; stroke-width: 1.5; stroke-linecap: square"/>
    </g>
    <g id="text_16">
     <!-- Training-Target -->
     <g transform="translate(551.439062 74.476562) scale(0.1 -0.1)">
      <use xlink:href="#DejaVuSans-54"/>
      <use xlink:href="#DejaVuSans-72" transform="translate(46.333984 0)"/>
      <use xlink:href="#DejaVuSans-61" transform="translate(87.447266 0)"/>
      <use xlink:href="#DejaVuSans-69" transform="translate(148.726562 0)"/>
      <use xlink:href="#DejaVuSans-6e" transform="translate(176.509766 0)"/>
      <use xlink:href="#DejaVuSans-69" transform="translate(239.888672 0)"/>
      <use xlink:href="#DejaVuSans-6e" transform="translate(267.671875 0)"/>
      <use xlink:href="#DejaVuSans-67" transform="translate(331.050781 0)"/>
      <use xlink:href="#DejaVuSans-2d" transform="translate(394.527344 0)"/>
      <use xlink:href="#DejaVuSans-54" transform="translate(421.486328 0)"/>
      <use xlink:href="#DejaVuSans-61" transform="translate(466.070312 0)"/>
      <use xlink:href="#DejaVuSans-72" transform="translate(527.349609 0)"/>
      <use xlink:href="#DejaVuSans-67" transform="translate(566.712891 0)"/>
      <use xlink:href="#DejaVuSans-65" transform="translate(630.189453 0)"/>
      <use xlink:href="#DejaVuSans-74" transform="translate(691.712891 0)"/>
     </g>
    </g>
    <g id="line2d_18">
     <path d="M 523.439062 85.654687 
L 533.439062 85.654687 
L 543.439062 85.654687 
" style="fill: none; stroke: #2ca02c; stroke-width: 1.5; stroke-linecap: square"/>
    </g>
    <g id="text_17">
     <!-- Validating-Source -->
     <g transform="translate(551.439062 89.154687) scale(0.1 -0.1)">
      <use xlink:href="#DejaVuSans-56"/>
      <use xlink:href="#DejaVuSans-61" transform="translate(60.658203 0)"/>
      <use xlink:href="#DejaVuSans-6c" transform="translate(121.9375 0)"/>
      <use xlink:href="#DejaVuSans-69" transform="translate(149.720703 0)"/>
      <use xlink:href="#DejaVuSans-64" transform="translate(177.503906 0)"/>
      <use xlink:href="#DejaVuSans-61" transform="translate(240.980469 0)"/>
      <use xlink:href="#DejaVuSans-74" transform="translate(302.259766 0)"/>
      <use xlink:href="#DejaVuSans-69" transform="translate(341.46875 0)"/>
      <use xlink:href="#DejaVuSans-6e" transform="translate(369.251953 0)"/>
      <use xlink:href="#DejaVuSans-67" transform="translate(432.630859 0)"/>
      <use xlink:href="#DejaVuSans-2d" transform="translate(496.107422 0)"/>
      <use xlink:href="#DejaVuSans-53" transform="translate(532.191406 0)"/>
      <use xlink:href="#DejaVuSans-6f" transform="translate(595.667969 0)"/>
      <use xlink:href="#DejaVuSans-75" transform="translate(656.849609 0)"/>
      <use xlink:href="#DejaVuSans-72" transform="translate(720.228516 0)"/>
      <use xlink:href="#DejaVuSans-63" transform="translate(759.091797 0)"/>
      <use xlink:href="#DejaVuSans-65" transform="translate(814.072266 0)"/>
     </g>
    </g>
    <g id="line2d_19">
     <path d="M 523.439062 100.332812 
L 533.439062 100.332812 
L 543.439062 100.332812 
" style="fill: none; stroke: #d62728; stroke-width: 1.5; stroke-linecap: square"/>
    </g>
    <g id="text_18">
     <!-- Validating-Target -->
     <g transform="translate(551.439062 103.832812) scale(0.1 -0.1)">
      <use xlink:href="#DejaVuSans-56"/>
      <use xlink:href="#DejaVuSans-61" transform="translate(60.658203 0)"/>
      <use xlink:href="#DejaVuSans-6c" transform="translate(121.9375 0)"/>
      <use xlink:href="#DejaVuSans-69" transform="translate(149.720703 0)"/>
      <use xlink:href="#DejaVuSans-64" transform="translate(177.503906 0)"/>
      <use xlink:href="#DejaVuSans-61" transform="translate(240.980469 0)"/>
      <use xlink:href="#DejaVuSans-74" transform="translate(302.259766 0)"/>
      <use xlink:href="#DejaVuSans-69" transform="translate(341.46875 0)"/>
      <use xlink:href="#DejaVuSans-6e" transform="translate(369.251953 0)"/>
      <use xlink:href="#DejaVuSans-67" transform="translate(432.630859 0)"/>
      <use xlink:href="#DejaVuSans-2d" transform="translate(496.107422 0)"/>
      <use xlink:href="#DejaVuSans-54" transform="translate(523.066406 0)"/>
      <use xlink:href="#DejaVuSans-61" transform="translate(567.650391 0)"/>
      <use xlink:href="#DejaVuSans-72" transform="translate(628.929688 0)"/>
      <use xlink:href="#DejaVuSans-67" transform="translate(668.292969 0)"/>
      <use xlink:href="#DejaVuSans-65" transform="translate(731.769531 0)"/>
      <use xlink:href="#DejaVuSans-74" transform="translate(793.292969 0)"/>
     </g>
    </g>
   </g>
  </g>
 </g>
 <defs>
  <clipPath id="pa60c859115">
   <rect x="90" y="43.2" width="558" height="277.2"/>
  </clipPath>
 </defs>
</svg>
