<?xml version="1.0" encoding="utf-8" standalone="no"?>
<!DOCTYPE svg PUBLIC "-//W3C//DTD SVG 1.1//EN"
  "http://www.w3.org/Graphics/SVG/1.1/DTD/svg11.dtd">
<svg xmlns:xlink="http://www.w3.org/1999/xlink" width="720pt" height="360pt" viewBox="0 0 720 360" xmlns="http://www.w3.org/2000/svg" version="1.1">
 <metadata>
  <rdf:RDF xmlns:dc="http://purl.org/dc/elements/1.1/" xmlns:cc="http://creativecommons.org/ns#" xmlns:rdf="http://www.w3.org/1999/02/22-rdf-syntax-ns#">
   <cc:Work>
    <dc:type rdf:resource="http://purl.org/dc/dcmitype/StillImage"/>
    <dc:date>2025-11-22T04:33:13.623614</dc:date>
    <dc:format>image/svg+xml</dc:format>
    <dc:creator>
     <cc:Agent>
      <dc:title>Matplotlib v3.10.1, https://matplotlib.org/</dc:title>
     </cc:Agent>
    </dc:creator>
   </cc:Work>
  </rdf:RDF>
 </metadata>
 <defs>
  <style type="text/css">*{stroke-linejoin: round; stroke-linecap: butt}</style>
 </defs>
 <g id="figure_1">
  <g id="patch_1">
   <path d="M 0 360 
L 720 360 
L 720 0 
L 0 0 
z
" style="fill: #ffffff"/>
  </g>
  <g id="axes_1">
   <g id="patch_2">
    <path d="M 90 320.4 
L 648 320.4 
L 648 43.2 
L 90 43.2 
z
" style="fill: #ffffff"/>
   </g>
   <g id="matplotlib.axis_1">
    <g id="xtick_1">
     <g id="line2d_1">
      <defs>
       <path id="m9e676b961b" d="M 0 0 
L 0 3.5 
" style="stroke: #000000; stroke-width: 0.8"/>
      </defs>
      <g>
       <use xlink:href="#m9e676b961b" x="115.363636" y="320.4" style="stroke: #000000; stroke-width: 0.8"/>
      </g>
     </g>
     <g id="text_1">
      <!-- 0 -->
      <g transform="translate(112.182386 334.998438) scale(0.1 -0.1)">
       <defs>
        <path id="DejaVuSans-30" d="M 2034 4250 
Q 1547 4250 1301 3770 
Q 1056 3291 1056 2328 
Q 1056 1369 1301 889 
Q 1547 409 2034 409 
Q 2525 409 2770 889 
Q 3016 1369 3016 2328 
Q 3016 3291 2770 3770 
Q 2525 4250 2034 4250 
z
M 2034 4750 
Q 2819 4750 3233 4129 
Q 3647 3509 3647 2328 
Q 3647 1150 3233 529 
Q 2819 -91 2034 -91 
Q 1250 -91 836 529 
Q 422 1150 422 2328 
Q 422 3509 836 4129 
Q 1250 4750 2034 4750 
z
" transform="scale(0.015625)"/>
       </defs>
       <use xlink:href="#DejaVuSans-30"/>
      </g>
     </g>
    </g>
    <g id="xtick_2">
     <g id="line2d_2">
      <g>
       <use xlink:href="#m9e676b961b" x="217.157495" y="320.4" style="stroke: #000000; stroke-width: 0.8"/>
      </g>
     </g>
     <g id="text_2">
      <!-- 60 -->
      <g transform="translate(210.794995 334.998438) scale(0.1 -0.1)">
       <defs>
        <path id="DejaVuSans-36" d="M 2113 2584 
Q 1688 2584 1439 2293 
Q 1191 2003 1191 1497 
Q 1191 994 1439 701 
Q 1688 409 2113 409 
Q 2538 409 2786 701 
Q 3034 994 3034 1497 
Q 3034 2003 2786 2293 
Q 2538 2584 2113 2584 
z
M 3366 4563 
L 3366 3988 
Q 3128 4100 2886 4159 
Q 2644 4219 2406 4219 
Q 1781 4219 1451 3797 
Q 1122 3375 1075 2522 
Q 1259 2794 1537 2939 
Q 1816 3084 2150 3084 
Q 2853 3084 3261 2657 
Q 3669 2231 3669 1497 
Q 3669 778 3244 343 
Q 2819 -91 2113 -91 
Q 1303 -91 875 529 
Q 447 1150 447 2328 
Q 447 3434 972 4092 
Q 1497 4750 2381 4750 
Q 2619 4750 2861 4703 
Q 3103 4656 3366 4563 
z
" transform="scale(0.015625)"/>
       </defs>
       <use xlink:href="#DejaVuSans-36"/>
       <use xlink:href="#DejaVuSans-30" transform="translate(63.623047 0)"/>
      </g>
     </g>
    </g>
    <g id="xtick_3">
     <g id="line2d_3">
      <g>
       <use xlink:href="#m9e676b961b" x="318.951353" y="320.4" style="stroke: #000000; stroke-width: 0.8"/>
      </g>
     </g>
     <g id="text_3">
      <!-- 120 -->
      <g transform="translate(309.407603 334.998438) scale(0.1 -0.1)">
       <defs>
        <path id="DejaVuSans-31" d="M 794 531 
L 1825 531 
L 1825 4091 
L 703 3866 
L 703 4441 
L 1819 4666 
L 2450 4666 
L 2450 531 
L 3481 531 
L 3481 0 
L 794 0 
L 794 531 
z
" transform="scale(0.015625)"/>
        <path id="DejaVuSans-32" d="M 1228 531 
L 3431 531 
L 3431 0 
L 469 0 
L 469 531 
Q 828 903 1448 1529 
Q 2069 2156 2228 2338 
Q 2531 2678 2651 2914 
Q 2772 3150 2772 3378 
Q 2772 3750 2511 3984 
Q 2250 4219 1831 4219 
Q 1534 4219 1204 4116 
Q 875 4013 500 3803 
L 500 4441 
Q 881 4594 1212 4672 
Q 1544 4750 1819 4750 
Q 2544 4750 2975 4387 
Q 3406 4025 3406 3419 
Q 3406 3131 3298 2873 
Q 3191 2616 2906 2266 
Q 2828 2175 2409 1742 
Q 1991 1309 1228 531 
z
" transform="scale(0.015625)"/>
       </defs>
       <use xlink:href="#DejaVuSans-31"/>
       <use xlink:href="#DejaVuSans-32" transform="translate(63.623047 0)"/>
       <use xlink:href="#DejaVuSans-30" transform="translate(127.246094 0)"/>
      </g>
     </g>
    </g>
    <g id="xtick_4">
     <g id="line2d_4">
      <g>
       <use xlink:href="#m9e676b961b" x="420.745211" y="320.4" style="stroke: #000000; stroke-width: 0.8"/>
      </g>
     </g>
     <g id="text_4">
      <!-- 180 -->
      <g transform="translate(411.201461 334.998438) scale(0.1 -0.1)">
       <defs>
        <path id="DejaVuSans-38" d="M 2034 2216 
Q 1584 2216 1326 1975 
Q 1069 1734 1069 1313 
Q 1069 891 1326 650 
Q 1584 409 2034 409 
Q 2484 409 2743 651 
Q 3003 894 3003 1313 
Q 3003 1734 2745 1975 
Q 2488 2216 2034 2216 
z
M 1403 2484 
Q 997 2584 770 2862 
Q 544 3141 544 3541 
Q 544 4100 942 4425 
Q 1341 4750 2034 4750 
Q 2731 4750 3128 4425 
Q 3525 4100 3525 3541 
Q 3525 3141 3298 2862 
Q 3072 2584 2669 2484 
Q 3125 2378 3379 2068 
Q 3634 1759 3634 1313 
Q 3634 634 3220 271 
Q 2806 -91 2034 -91 
Q 1263 -91 848 271 
Q 434 634 434 1313 
Q 434 1759 690 2068 
Q 947 2378 1403 2484 
z
M 1172 3481 
Q 1172 3119 1398 2916 
Q 1625 2713 2034 2713 
Q 2441 2713 2670 2916 
Q 2900 3119 2900 3481 
Q 2900 3844 2670 4047 
Q 2441 4250 2034 4250 
Q 1625 4250 1398 4047 
Q 1172 3844 1172 3481 
z
" transform="scale(0.015625)"/>
       </defs>
       <use xlink:href="#DejaVuSans-31"/>
       <use xlink:href="#DejaVuSans-38" transform="translate(63.623047 0)"/>
       <use xlink:href="#DejaVuSans-30" transform="translate(127.246094 0)"/>
      </g>
     </g>
    </g>
    <g id="xtick_5">
     <g id="line2d_5">
      <g>
       <use xlink:href="#m9e676b961b" x="522.53907" y="320.4" style="stroke: #000000; stroke-width: 0.8"/>
      </g>
     </g>
     <g id="text_5">
      <!-- 240 -->
      <g transform="translate(512.99532 334.998438) scale(0.1 -0.1)">
       <defs>
        <path id="DejaVuSans-34" d="M 2419 4116 
L 825 1625 
L 2419 1625 
L 2419 4116 
z
M 2253 4666 
L 3047 4666 
L 3047 1625 
L 3713 1625 
L 3713 1100 
L 3047 1100 
L 3047 0 
L 2419 0 
L 2419 1100 
L 313 1100 
L 313 1709 
L 2253 4666 
z
" transform="scale(0.015625)"/>
       </defs>
       <use xlink:href="#DejaVuSans-32"/>
       <use xlink:href="#DejaVuSans-34" transform="translate(63.623047 0)"/>
       <use xlink:href="#DejaVuSans-30" transform="translate(127.246094 0)"/>
      </g>
     </g>
    </g>
    <g id="text_6">
     <!-- Epoch -->
     <g transform="translate(353.689062 348.676562) scale(0.1 -0.1)">
      <defs>
       <path id="DejaVuSans-45" d="M 628 4666 
L 3578 4666 
L 3578 4134 
L 1259 4134 
L 1259 2753 
L 3481 2753 
L 3481 2222 
L 1259 2222 
L 1259 531 
L 3634 531 
L 3634 0 
L 628 0 
L 628 4666 
z
" transform="scale(0.015625)"/>
       <path id="DejaVuSans-70" d="M 1159 525 
L 1159 -1331 
L 581 -1331 
L 581 3500 
L 1159 3500 
L 1159 2969 
Q 1341 3281 1617 3432 
Q 1894 3584 2278 3584 
Q 2916 3584 3314 3078 
Q 3713 2572 3713 1747 
Q 3713 922 3314 415 
Q 2916 -91 2278 -91 
Q 1894 -91 1617 61 
Q 1341 213 1159 525 
z
M 3116 1747 
Q 3116 2381 2855 2742 
Q 2594 3103 2138 3103 
Q 1681 3103 1420 2742 
Q 1159 2381 1159 1747 
Q 1159 1113 1420 752 
Q 1681 391 2138 391 
Q 2594 391 2855 752 
Q 3116 1113 3116 1747 
z
" transform="scale(0.015625)"/>
       <path id="DejaVuSans-6f" d="M 1959 3097 
Q 1497 3097 1228 2736 
Q 959 2375 959 1747 
Q 959 1119 1226 758 
Q 1494 397 1959 397 
Q 2419 397 2687 759 
Q 2956 1122 2956 1747 
Q 2956 2369 2687 2733 
Q 2419 3097 1959 3097 
z
M 1959 3584 
Q 2709 3584 3137 3096 
Q 3566 2609 3566 1747 
Q 3566 888 3137 398 
Q 2709 -91 1959 -91 
Q 1206 -91 779 398 
Q 353 888 353 1747 
Q 353 2609 779 3096 
Q 1206 3584 1959 3584 
z
" transform="scale(0.015625)"/>
       <path id="DejaVuSans-63" d="M 3122 3366 
L 3122 2828 
Q 2878 2963 2633 3030 
Q 2388 3097 2138 3097 
Q 1578 3097 1268 2742 
Q 959 2388 959 1747 
Q 959 1106 1268 751 
Q 1578 397 2138 397 
Q 2388 397 2633 464 
Q 2878 531 3122 666 
L 3122 134 
Q 2881 22 2623 -34 
Q 2366 -91 2075 -91 
Q 1284 -91 818 406 
Q 353 903 353 1747 
Q 353 2603 823 3093 
Q 1294 3584 2113 3584 
Q 2378 3584 2631 3529 
Q 2884 3475 3122 3366 
z
" transform="scale(0.015625)"/>
       <path id="DejaVuSans-68" d="M 3513 2113 
L 3513 0 
L 2938 0 
L 2938 2094 
Q 2938 2591 2744 2837 
Q 2550 3084 2163 3084 
Q 1697 3084 1428 2787 
Q 1159 2491 1159 1978 
L 1159 0 
L 581 0 
L 581 4863 
L 1159 4863 
L 1159 2956 
Q 1366 3272 1645 3428 
Q 1925 3584 2291 3584 
Q 2894 3584 3203 3211 
Q 3513 2838 3513 2113 
z
" transform="scale(0.015625)"/>
      </defs>
      <use xlink:href="#DejaVuSans-45"/>
      <use xlink:href="#DejaVuSans-70" transform="translate(63.183594 0)"/>
      <use xlink:href="#DejaVuSans-6f" transform="translate(126.660156 0)"/>
      <use xlink:href="#DejaVuSans-63" transform="translate(187.841797 0)"/>
      <use xlink:href="#DejaVuSans-68" transform="translate(242.822266 0)"/>
     </g>
    </g>
   </g>
   <g id="matplotlib.axis_2">
    <g id="ytick_1">
     <g id="line2d_6">
      <defs>
       <path id="m89e42d02f8" d="M 0 0 
L -3.5 0 
" style="stroke: #000000; stroke-width: 0.8"/>
      </defs>
      <g>
       <use xlink:href="#m89e42d02f8" x="90" y="310.875805" style="stroke: #000000; stroke-width: 0.8"/>
      </g>
     </g>
     <g id="text_7">
      <!-- 0.00 -->
      <g transform="translate(60.734375 314.675024) scale(0.1 -0.1)">
       <defs>
        <path id="DejaVuSans-2e" d="M 684 794 
L 1344 794 
L 1344 0 
L 684 0 
L 684 794 
z
" transform="scale(0.015625)"/>
       </defs>
       <use xlink:href="#DejaVuSans-30"/>
       <use xlink:href="#DejaVuSans-2e" transform="translate(63.623047 0)"/>
       <use xlink:href="#DejaVuSans-30" transform="translate(95.410156 0)"/>
       <use xlink:href="#DejaVuSans-30" transform="translate(159.033203 0)"/>
      </g>
     </g>
    </g>
    <g id="ytick_2">
     <g id="line2d_7">
      <g>
       <use xlink:href="#m89e42d02f8" x="90" y="261.077414" style="stroke: #000000; stroke-width: 0.8"/>
      </g>
     </g>
     <g id="text_8">
      <!-- 0.05 -->
      <g transform="translate(60.734375 264.876633) scale(0.1 -0.1)">
       <defs>
        <path id="DejaVuSans-35" d="M 691 4666 
L 3169 4666 
L 3169 4134 
L 1269 4134 
L 1269 2991 
Q 1406 3038 1543 3061 
Q 1681 3084 1819 3084 
Q 2600 3084 3056 2656 
Q 3513 2228 3513 1497 
Q 3513 744 3044 326 
Q 2575 -91 1722 -91 
Q 1428 -91 1123 -41 
Q 819 9 494 109 
L 494 744 
Q 775 591 1075 516 
Q 1375 441 1709 441 
Q 2250 441 2565 725 
Q 2881 1009 2881 1497 
Q 2881 1984 2565 2268 
Q 2250 2553 1709 2553 
Q 1456 2553 1204 2497 
Q 953 2441 691 2322 
L 691 4666 
z
" transform="scale(0.015625)"/>
       </defs>
       <use xlink:href="#DejaVuSans-30"/>
       <use xlink:href="#DejaVuSans-2e" transform="translate(63.623047 0)"/>
       <use xlink:href="#DejaVuSans-30" transform="translate(95.410156 0)"/>
       <use xlink:href="#DejaVuSans-35" transform="translate(159.033203 0)"/>
      </g>
     </g>
    </g>
    <g id="ytick_3">
     <g id="line2d_8">
      <g>
       <use xlink:href="#m89e42d02f8" x="90" y="211.279023" style="stroke: #000000; stroke-width: 0.8"/>
      </g>
     </g>
     <g id="text_9">
      <!-- 0.10 -->
      <g transform="translate(60.734375 215.078242) scale(0.1 -0.1)">
       <use xlink:href="#DejaVuSans-30"/>
       <use xlink:href="#DejaVuSans-2e" transform="translate(63.623047 0)"/>
       <use xlink:href="#DejaVuSans-31" transform="translate(95.410156 0)"/>
       <use xlink:href="#DejaVuSans-30" transform="translate(159.033203 0)"/>
      </g>
     </g>
    </g>
    <g id="ytick_4">
     <g id="line2d_9">
      <g>
       <use xlink:href="#m89e42d02f8" x="90" y="161.480632" style="stroke: #000000; stroke-width: 0.8"/>
      </g>
     </g>
     <g id="text_10">
      <!-- 0.15 -->
      <g transform="translate(60.734375 165.279851) scale(0.1 -0.1)">
       <use xlink:href="#DejaVuSans-30"/>
       <use xlink:href="#DejaVuSans-2e" transform="translate(63.623047 0)"/>
       <use xlink:href="#DejaVuSans-31" transform="translate(95.410156 0)"/>
       <use xlink:href="#DejaVuSans-35" transform="translate(159.033203 0)"/>
      </g>
     </g>
    </g>
    <g id="ytick_5">
     <g id="line2d_10">
      <g>
       <use xlink:href="#m89e42d02f8" x="90" y="111.682242" style="stroke: #000000; stroke-width: 0.8"/>
      </g>
     </g>
     <g id="text_11">
      <!-- 0.20 -->
      <g transform="translate(60.734375 115.48146) scale(0.1 -0.1)">
       <use xlink:href="#DejaVuSans-30"/>
       <use xlink:href="#DejaVuSans-2e" transform="translate(63.623047 0)"/>
       <use xlink:href="#DejaVuSans-32" transform="translate(95.410156 0)"/>
       <use xlink:href="#DejaVuSans-30" transform="translate(159.033203 0)"/>
      </g>
     </g>
    </g>
    <g id="ytick_6">
     <g id="line2d_11">
      <g>
       <use xlink:href="#m89e42d02f8" x="90" y="61.883851" style="stroke: #000000; stroke-width: 0.8"/>
      </g>
     </g>
     <g id="text_12">
      <!-- 0.25 -->
      <g transform="translate(60.734375 65.683069) scale(0.1 -0.1)">
       <use xlink:href="#DejaVuSans-30"/>
       <use xlink:href="#DejaVuSans-2e" transform="translate(63.623047 0)"/>
       <use xlink:href="#DejaVuSans-32" transform="translate(95.410156 0)"/>
       <use xlink:href="#DejaVuSans-35" transform="translate(159.033203 0)"/>
      </g>
     </g>
    </g>
    <g id="text_13">
     <!-- Estimation Loss -->
     <g transform="translate(54.654687 220.98125) rotate(-90) scale(0.1 -0.1)">
      <defs>
       <path id="DejaVuSans-73" d="M 2834 3397 
L 2834 2853 
Q 2591 2978 2328 3040 
Q 2066 3103 1784 3103 
Q 1356 3103 1142 2972 
Q 928 2841 928 2578 
Q 928 2378 1081 2264 
Q 1234 2150 1697 2047 
L 1894 2003 
Q 2506 1872 2764 1633 
Q 3022 1394 3022 966 
Q 3022 478 2636 193 
Q 2250 -91 1575 -91 
Q 1294 -91 989 -36 
Q 684 19 347 128 
L 347 722 
Q 666 556 975 473 
Q 1284 391 1588 391 
Q 1994 391 2212 530 
Q 2431 669 2431 922 
Q 2431 1156 2273 1281 
Q 2116 1406 1581 1522 
L 1381 1569 
Q 847 1681 609 1914 
Q 372 2147 372 2553 
Q 372 3047 722 3315 
Q 1072 3584 1716 3584 
Q 2034 3584 2315 3537 
Q 2597 3491 2834 3397 
z
" transform="scale(0.015625)"/>
       <path id="DejaVuSans-74" d="M 1172 4494 
L 1172 3500 
L 2356 3500 
L 2356 3053 
L 1172 3053 
L 1172 1153 
Q 1172 725 1289 603 
Q 1406 481 1766 481 
L 2356 481 
L 2356 0 
L 1766 0 
Q 1100 0 847 248 
Q 594 497 594 1153 
L 594 3053 
L 172 3053 
L 172 3500 
L 594 3500 
L 594 4494 
L 1172 4494 
z
" transform="scale(0.015625)"/>
       <path id="DejaVuSans-69" d="M 603 3500 
L 1178 3500 
L 1178 0 
L 603 0 
L 603 3500 
z
M 603 4863 
L 1178 4863 
L 1178 4134 
L 603 4134 
L 603 4863 
z
" transform="scale(0.015625)"/>
       <path id="DejaVuSans-6d" d="M 3328 2828 
Q 3544 3216 3844 3400 
Q 4144 3584 4550 3584 
Q 5097 3584 5394 3201 
Q 5691 2819 5691 2113 
L 5691 0 
L 5113 0 
L 5113 2094 
Q 5113 2597 4934 2840 
Q 4756 3084 4391 3084 
Q 3944 3084 3684 2787 
Q 3425 2491 3425 1978 
L 3425 0 
L 2847 0 
L 2847 2094 
Q 2847 2600 2669 2842 
Q 2491 3084 2119 3084 
Q 1678 3084 1418 2786 
Q 1159 2488 1159 1978 
L 1159 0 
L 581 0 
L 581 3500 
L 1159 3500 
L 1159 2956 
Q 1356 3278 1631 3431 
Q 1906 3584 2284 3584 
Q 2666 3584 2933 3390 
Q 3200 3197 3328 2828 
z
" transform="scale(0.015625)"/>
       <path id="DejaVuSans-61" d="M 2194 1759 
Q 1497 1759 1228 1600 
Q 959 1441 959 1056 
Q 959 750 1161 570 
Q 1363 391 1709 391 
Q 2188 391 2477 730 
Q 2766 1069 2766 1631 
L 2766 1759 
L 2194 1759 
z
M 3341 1997 
L 3341 0 
L 2766 0 
L 2766 531 
Q 2569 213 2275 61 
Q 1981 -91 1556 -91 
Q 1019 -91 701 211 
Q 384 513 384 1019 
Q 384 1609 779 1909 
Q 1175 2209 1959 2209 
L 2766 2209 
L 2766 2266 
Q 2766 2663 2505 2880 
Q 2244 3097 1772 3097 
Q 1472 3097 1187 3025 
Q 903 2953 641 2809 
L 641 3341 
Q 956 3463 1253 3523 
Q 1550 3584 1831 3584 
Q 2591 3584 2966 3190 
Q 3341 2797 3341 1997 
z
" transform="scale(0.015625)"/>
       <path id="DejaVuSans-6e" d="M 3513 2113 
L 3513 0 
L 2938 0 
L 2938 2094 
Q 2938 2591 2744 2837 
Q 2550 3084 2163 3084 
Q 1697 3084 1428 2787 
Q 1159 2491 1159 1978 
L 1159 0 
L 581 0 
L 581 3500 
L 1159 3500 
L 1159 2956 
Q 1366 3272 1645 3428 
Q 1925 3584 2291 3584 
Q 2894 3584 3203 3211 
Q 3513 2838 3513 2113 
z
" transform="scale(0.015625)"/>
       <path id="DejaVuSans-20" transform="scale(0.015625)"/>
       <path id="DejaVuSans-4c" d="M 628 4666 
L 1259 4666 
L 1259 531 
L 3531 531 
L 3531 0 
L 628 0 
L 628 4666 
z
" transform="scale(0.015625)"/>
      </defs>
      <use xlink:href="#DejaVuSans-45"/>
      <use xlink:href="#DejaVuSans-73" transform="translate(63.183594 0)"/>
      <use xlink:href="#DejaVuSans-74" transform="translate(115.283203 0)"/>
      <use xlink:href="#DejaVuSans-69" transform="translate(154.492188 0)"/>
      <use xlink:href="#DejaVuSans-6d" transform="translate(182.275391 0)"/>
      <use xlink:href="#DejaVuSans-61" transform="translate(279.6875 0)"/>
      <use xlink:href="#DejaVuSans-74" transform="translate(340.966797 0)"/>
      <use xlink:href="#DejaVuSans-69" transform="translate(380.175781 0)"/>
      <use xlink:href="#DejaVuSans-6f" transform="translate(407.958984 0)"/>
      <use xlink:href="#DejaVuSans-6e" transform="translate(469.140625 0)"/>
      <use xlink:href="#DejaVuSans-20" transform="translate(532.519531 0)"/>
      <use xlink:href="#DejaVuSans-4c" transform="translate(564.306641 0)"/>
      <use xlink:href="#DejaVuSans-6f" transform="translate(618.269531 0)"/>
      <use xlink:href="#DejaVuSans-73" transform="translate(679.451172 0)"/>
      <use xlink:href="#DejaVuSans-73" transform="translate(731.550781 0)"/>
     </g>
    </g>
   </g>
   <g id="line2d_12">
    <path d="M 115.363636 94.517361 
L 117.060201 127.023474 
L 118.756765 105.343603 
L 120.453329 98.063043 
L 122.149894 95.100557 
L 123.846458 89.832161 
L 125.543022 83.11559 
L 127.239587 78.923238 
L 128.936151 77.938614 
L 130.632715 76.473893 
L 132.329279 74.126573 
L 134.025844 69.764277 
L 135.722408 67.289275 
L 137.418972 66.851182 
L 139.115537 66.636638 
L 140.812101 66.196301 
L 144.20523 64.274441 
L 147.598358 62.998201 
L 149.294922 62.727481 
L 150.991487 63.002546 
L 152.688051 63.097448 
L 157.777744 61.991969 
L 162.867437 59.997772 
L 166.260566 58.987107 
L 167.95713 58.403235 
L 169.653694 58.280287 
L 171.350258 58.63196 
L 174.743387 58.27363 
L 176.439951 58.402419 
L 178.136516 58.164334 
L 179.83308 58.074836 
L 181.529644 57.58895 
L 183.226209 57.935018 
L 184.922773 59.020242 
L 188.315901 60.07111 
L 190.012466 60.144653 
L 191.70903 59.197326 
L 193.405594 58.400282 
L 195.102159 58.562554 
L 198.495287 59.538748 
L 200.191852 59.916119 
L 201.888416 61.771106 
L 205.281545 62.125225 
L 210.371237 64.065443 
L 212.067802 64.202733 
L 213.764366 64.724684 
L 215.46093 65.61069 
L 218.854059 65.432132 
L 222.247188 66.823775 
L 223.943752 66.184415 
L 225.640316 66.250022 
L 227.336881 67.41854 
L 229.033445 69.229138 
L 230.730009 71.209596 
L 232.426573 72.148467 
L 234.123138 72.4216 
L 235.819702 73.689716 
L 239.212831 74.324633 
L 240.909395 75.858929 
L 242.605959 77.627916 
L 244.302524 79.571774 
L 245.999088 80.324733 
L 247.695652 82.641985 
L 249.392216 83.300818 
L 251.088781 83.59049 
L 252.785345 85.080687 
L 254.481909 86.946419 
L 256.178474 87.017857 
L 259.571602 82.577229 
L 261.268167 82.11645 
L 264.661295 83.165486 
L 266.35786 83.116047 
L 268.054424 83.27162 
L 271.447552 84.477043 
L 273.144117 85.615635 
L 274.840681 86.126181 
L 276.537245 88.372386 
L 278.23381 90.016258 
L 279.930374 90.51677 
L 281.626938 91.741928 
L 283.323503 92.664282 
L 286.716631 90.400214 
L 288.413196 90.52688 
L 290.10976 91.56493 
L 291.806324 94.226855 
L 293.502888 95.616708 
L 295.199453 95.440772 
L 296.896017 94.738609 
L 298.592581 94.707511 
L 300.289146 94.469959 
L 301.98571 94.559791 
L 303.682274 96.338911 
L 305.378839 100.40847 
L 307.075403 101.700482 
L 308.771967 102.415001 
L 310.468531 118.417441 
L 312.165096 283.002431 
L 313.86166 255.964217 
L 315.558224 249.744422 
L 317.254789 273.311378 
L 318.951353 282.278952 
L 320.647917 284.633547 
L 322.344482 289.918128 
L 324.041046 293.10158 
L 325.73761 294.516627 
L 327.434175 295.714325 
L 330.827303 297.589394 
L 332.523867 298.170286 
L 341.006689 300.330565 
L 344.399818 300.875328 
L 351.186075 301.796503 
L 361.365461 302.827657 
L 368.151718 303.319153 
L 380.027668 303.996624 
L 390.207054 304.451359 
L 402.083004 304.85106 
L 408.869261 305.036105 
L 452.979933 305.851594 
L 475.035269 306.111276 
L 483.518091 306.197349 
L 493.697476 306.295812 
L 500.483734 306.348487 
L 525.932198 306.557652 
L 537.808148 306.618754 
L 544.594406 306.683122 
L 581.91882 306.917459 
L 590.401642 306.937009 
L 607.367285 307.043204 
L 615.850106 307.077239 
L 622.636364 307.119685 
L 622.636364 307.119685 
" clip-path="url(#p2bd2a4020c)" style="fill: none; stroke: #1f77b4; stroke-width: 1.5; stroke-linecap: square"/>
   </g>
   <g id="line2d_13">
    <path d="M 115.363636 141.227358 
L 117.060201 179.919673 
L 118.756765 182.040998 
L 120.453329 185.333075 
L 122.149894 186.125344 
L 123.846458 184.469966 
L 125.543022 182.257292 
L 127.239587 180.644303 
L 128.936151 181.094278 
L 130.632715 181.368536 
L 132.329279 180.45867 
L 134.025844 178.036151 
L 135.722408 177.788788 
L 140.812101 180.31459 
L 142.508665 180.445452 
L 144.20523 180.736535 
L 147.598358 181.683955 
L 149.294922 182.069379 
L 150.991487 182.808476 
L 152.688051 183.342247 
L 154.384615 183.471839 
L 156.08118 183.797095 
L 157.777744 183.810364 
L 162.867437 182.346042 
L 164.564001 182.246679 
L 166.260566 182.519778 
L 167.95713 182.528123 
L 171.350258 183.311431 
L 178.136516 183.147705 
L 179.83308 183.352762 
L 181.529644 183.671995 
L 183.226209 184.277025 
L 184.922773 185.099247 
L 188.315901 185.637628 
L 190.012466 185.524119 
L 191.70903 184.481521 
L 193.405594 183.799706 
L 195.102159 184.346896 
L 196.798723 185.153194 
L 200.191852 186.187634 
L 201.888416 187.261332 
L 203.58498 187.268985 
L 205.281545 187.863488 
L 206.978109 188.837822 
L 208.674673 189.674845 
L 210.371237 190.08267 
L 212.067802 190.213112 
L 213.764366 190.229133 
L 215.46093 190.618573 
L 217.157495 190.482857 
L 218.854059 190.074008 
L 222.247188 191.231125 
L 223.943752 190.8387 
L 225.640316 191.01137 
L 229.033445 193.403106 
L 230.730009 194.367583 
L 234.123138 194.495896 
L 235.819702 195.345694 
L 237.516266 195.548618 
L 239.212831 195.555373 
L 240.909395 195.930465 
L 244.302524 197.401004 
L 245.999088 197.644258 
L 247.695652 198.788606 
L 249.392216 198.79203 
L 251.088781 199.036132 
L 252.785345 200.073235 
L 254.481909 201.265799 
L 256.178474 201.085997 
L 257.875038 199.575842 
L 259.571602 198.310359 
L 261.268167 197.795664 
L 262.964731 198.01792 
L 264.661295 198.476277 
L 266.35786 198.465927 
L 269.750988 198.820159 
L 271.447552 199.366462 
L 273.144117 199.790139 
L 274.840681 199.973964 
L 276.537245 200.93089 
L 278.23381 201.697596 
L 279.930374 201.848207 
L 281.626938 202.499585 
L 283.323503 202.890718 
L 286.716631 201.435229 
L 288.413196 201.543696 
L 290.10976 201.981745 
L 291.806324 202.951884 
L 293.502888 203.390695 
L 295.199453 203.137499 
L 296.896017 202.691645 
L 298.592581 202.664839 
L 300.289146 202.507833 
L 301.98571 202.560318 
L 303.682274 203.719207 
L 305.378839 205.86702 
L 307.075403 206.153698 
L 308.771967 206.176037 
L 310.468531 213.301419 
L 312.165096 263.328502 
L 313.86166 258.338801 
L 315.558224 255.182712 
L 317.254789 257.472481 
L 318.951353 258.530529 
L 320.647917 260.190596 
L 322.344482 260.266904 
L 325.73761 261.046213 
L 329.130739 261.033728 
L 332.523867 261.3854 
L 334.220432 261.736566 
L 341.006689 262.314029 
L 344.399818 262.745666 
L 349.48951 263.475978 
L 357.972332 264.240072 
L 366.455154 264.801471 
L 368.151718 264.930115 
L 369.848282 264.945998 
L 373.241411 265.182476 
L 374.937975 265.158523 
L 378.331104 265.395522 
L 380.027668 265.406694 
L 381.724232 265.644766 
L 386.813925 265.775235 
L 405.476133 266.608774 
L 407.172697 266.559312 
L 422.441776 267.126992 
L 436.01429 267.357144 
L 437.710854 267.263582 
L 444.497112 267.548836 
L 446.193676 267.489336 
L 451.283369 267.641819 
L 458.069626 267.656263 
L 466.552448 267.839021 
L 468.249012 267.786071 
L 471.64214 267.870491 
L 495.394041 268.197959 
L 497.090605 268.064646 
L 498.787169 268.186507 
L 507.269991 268.253179 
L 512.359684 268.392044 
L 519.145941 268.430534 
L 522.53907 268.439229 
L 536.111584 268.660431 
L 539.504713 268.602126 
L 544.594406 268.666795 
L 546.29097 268.601078 
L 558.16692 268.916678 
L 561.560049 268.79758 
L 566.649742 268.973311 
L 568.346306 269.068661 
L 571.739434 268.963494 
L 576.829127 269.128109 
L 581.91882 269.114092 
L 622.636364 269.49931 
L 622.636364 269.49931 
" clip-path="url(#p2bd2a4020c)" style="fill: none; stroke: #ff7f0e; stroke-width: 1.5; stroke-linecap: square"/>
   </g>
   <g id="line2d_14">
    <path d="M 115.363636 138.435836 
L 117.060201 107.200414 
L 118.756765 101.96769 
L 120.453329 92.175331 
L 122.149894 94.228665 
L 123.846458 85.926377 
L 125.543022 79.590646 
L 127.239587 77.824956 
L 128.936151 81.544445 
L 130.632715 82.108059 
L 132.329279 71.726083 
L 135.722408 66.766976 
L 137.418972 67.152581 
L 139.115537 69.468088 
L 140.812101 68.150863 
L 142.508665 67.472249 
L 144.20523 64.801576 
L 145.901794 64.733002 
L 147.598358 64.230355 
L 149.294922 62.399277 
L 150.991487 63.203395 
L 152.688051 66.617694 
L 154.384615 65.435163 
L 156.08118 61.57135 
L 157.777744 64.069425 
L 159.474308 63.879128 
L 161.170873 61.253651 
L 162.867437 59.362175 
L 164.564001 62.916897 
L 166.260566 61.549841 
L 167.95713 59.023989 
L 169.653694 61.314627 
L 171.350258 61.556804 
L 173.046823 59.408614 
L 174.743387 60.754938 
L 176.439951 55.8 
L 178.136516 57.415028 
L 179.83308 61.433986 
L 181.529644 56.067146 
L 183.226209 58.835214 
L 184.922773 60.673027 
L 188.315901 63.191828 
L 190.012466 60.392514 
L 191.70903 59.350624 
L 193.405594 56.217572 
L 195.102159 60.320403 
L 196.798723 61.494138 
L 198.495287 59.858616 
L 200.191852 61.945932 
L 201.888416 65.240282 
L 203.58498 61.30385 
L 205.281545 62.276041 
L 206.978109 63.889855 
L 208.674673 64.562691 
L 210.371237 63.68396 
L 212.067802 63.160454 
L 213.764366 67.064366 
L 215.46093 68.676551 
L 217.157495 64.544319 
L 218.854059 65.855671 
L 220.550623 66.813986 
L 222.247188 67.276057 
L 223.943752 67.336727 
L 225.640316 65.902678 
L 227.336881 69.506241 
L 229.033445 71.211851 
L 230.730009 73.761541 
L 234.123138 74.014276 
L 235.819702 78.904036 
L 237.516266 74.392235 
L 239.212831 78.300763 
L 240.909395 77.038684 
L 242.605959 80.198115 
L 244.302524 82.980795 
L 245.999088 84.62305 
L 247.695652 87.343823 
L 249.392216 86.232864 
L 251.088781 87.31507 
L 252.785345 89.621077 
L 254.481909 90.855561 
L 256.178474 86.309699 
L 257.875038 82.847778 
L 259.571602 80.657378 
L 261.268167 86.294415 
L 262.964731 86.133787 
L 264.661295 84.629775 
L 266.35786 89.060693 
L 268.054424 85.884735 
L 269.750988 86.902156 
L 271.447552 85.356324 
L 273.144117 87.924877 
L 274.840681 91.804421 
L 278.23381 95.134143 
L 279.930374 94.417611 
L 281.626938 97.069349 
L 283.323503 95.625756 
L 285.020067 93.474978 
L 286.716631 93.645238 
L 288.413196 93.237925 
L 290.10976 97.928938 
L 291.806324 95.073169 
L 293.502888 97.504418 
L 295.199453 93.456552 
L 296.896017 95.03993 
L 298.592581 98.533864 
L 300.289146 94.879428 
L 301.98571 94.561751 
L 303.682274 101.999856 
L 305.378839 103.872689 
L 307.075403 104.939592 
L 308.771967 102.142565 
L 310.468531 214.096427 
L 312.165096 284.059781 
L 313.86166 236.000465 
L 315.558224 269.038929 
L 317.254789 279.288202 
L 318.951353 286.336531 
L 320.647917 289.377883 
L 322.344482 294.733766 
L 324.041046 296.041951 
L 325.73761 297.517634 
L 327.434175 298.515345 
L 330.827303 300.179154 
L 332.523867 300.565316 
L 334.220432 300.702121 
L 341.006689 302.332373 
L 344.399818 302.609128 
L 346.096382 302.736289 
L 347.792946 303.17087 
L 352.882639 303.617987 
L 356.275768 304.021627 
L 357.972332 304.101308 
L 361.365461 304.477784 
L 390.207054 305.757934 
L 391.903618 305.696665 
L 398.689875 305.952611 
L 405.476133 306.019858 
L 407.172697 305.998124 
L 410.565825 306.2459 
L 413.958954 306.273896 
L 441.103983 306.698869 
L 444.497112 306.616186 
L 451.283369 306.730644 
L 452.979933 306.637341 
L 454.676497 306.799545 
L 458.069626 306.842742 
L 463.159319 306.852021 
L 464.855883 306.731784 
L 471.64214 307.000827 
L 473.338705 306.908046 
L 475.035269 307.055935 
L 476.731833 306.958834 
L 478.428398 307.062361 
L 486.911219 307.021466 
L 488.607784 307.100441 
L 493.697476 307.018805 
L 495.394041 307.213947 
L 497.090605 307.16646 
L 498.787169 306.99273 
L 502.180298 307.089318 
L 503.876862 307.020803 
L 505.573427 307.066307 
L 507.269991 306.970361 
L 510.663119 307.263203 
L 514.056248 307.210963 
L 522.53907 307.229443 
L 524.235634 307.285523 
L 525.932198 307.196595 
L 531.021891 307.388451 
L 532.718455 307.274975 
L 537.808148 307.383936 
L 542.897841 307.406383 
L 544.594406 307.46691 
L 551.380663 307.349705 
L 559.863484 307.537133 
L 581.91882 307.5232 
L 583.615385 307.470218 
L 585.311949 307.634761 
L 587.008513 307.50599 
L 588.705078 307.703335 
L 590.401642 307.553998 
L 592.098206 307.659836 
L 597.187899 307.619154 
L 603.974156 307.748899 
L 605.670721 307.613133 
L 607.367285 307.750607 
L 612.456978 307.660204 
L 614.153542 307.8 
L 615.850106 307.642915 
L 617.546671 307.752112 
L 620.939799 307.688634 
L 622.636364 307.726124 
L 622.636364 307.726124 
" clip-path="url(#p2bd2a4020c)" style="fill: none; stroke: #2ca02c; stroke-width: 1.5; stroke-linecap: square"/>
   </g>
   <g id="line2d_15">
    <path d="M 115.363636 177.869467 
L 117.060201 177.233512 
L 118.756765 184.468496 
L 120.453329 182.633495 
L 122.149894 185.330793 
L 123.846458 182.160895 
L 125.543022 179.230106 
L 127.239587 179.40479 
L 128.936151 182.724932 
L 130.632715 183.899983 
L 132.329279 176.786404 
L 134.025844 176.110519 
L 135.722408 176.149129 
L 137.418972 177.129714 
L 139.115537 180.192325 
L 140.812101 180.225661 
L 142.508665 180.761441 
L 144.20523 180.378272 
L 145.901794 181.313129 
L 147.598358 181.930982 
L 149.294922 181.561231 
L 150.991487 182.808524 
L 152.688051 185.055118 
L 154.384615 185.338903 
L 156.08118 183.431861 
L 157.777744 184.911163 
L 159.474308 184.276669 
L 161.170873 182.446007 
L 162.867437 181.327898 
L 164.564001 183.730686 
L 166.260566 183.46784 
L 167.95713 182.173563 
L 169.653694 183.909664 
L 171.350258 184.399494 
L 173.046823 183.132129 
L 174.743387 184.169362 
L 176.439951 180.878275 
L 178.136516 181.910519 
L 179.83308 185.006149 
L 181.529644 182.491778 
L 184.922773 185.54625 
L 186.619337 185.708586 
L 188.315901 186.661712 
L 190.012466 184.266913 
L 191.70903 183.04978 
L 193.405594 181.121162 
L 195.102159 184.569498 
L 196.798723 185.53692 
L 198.495287 184.641006 
L 201.888416 187.871427 
L 203.58498 185.767207 
L 205.281545 187.212056 
L 206.978109 189.34579 
L 208.674673 189.873543 
L 210.371237 189.402598 
L 212.067802 188.774063 
L 213.764366 190.581905 
L 215.46093 191.764005 
L 217.157495 188.664946 
L 220.550623 190.257902 
L 222.247188 190.715698 
L 223.943752 190.814 
L 225.640316 190.349165 
L 227.336881 193.109725 
L 230.730009 195.104859 
L 232.426573 194.885851 
L 234.123138 195.149718 
L 235.819702 198.100097 
L 237.516266 195.364694 
L 239.212831 197.344178 
L 240.909395 196.239687 
L 242.605959 197.805312 
L 244.302524 198.994783 
L 245.999088 200.007597 
L 247.695652 201.351466 
L 249.392216 200.444368 
L 251.088781 201.382429 
L 252.785345 202.973012 
L 254.481909 203.523869 
L 256.178474 200.49749 
L 257.875038 198.26593 
L 259.571602 196.632455 
L 261.268167 199.862177 
L 262.964731 199.766855 
L 264.661295 199.079138 
L 266.35786 201.919098 
L 268.054424 199.816918 
L 269.750988 200.535121 
L 271.447552 199.637443 
L 273.144117 200.845113 
L 274.840681 203.464958 
L 276.537245 204.01142 
L 278.23381 205.260237 
L 279.930374 204.425759 
L 281.626938 205.941414 
L 283.323503 205.061588 
L 285.020067 203.655232 
L 286.716631 203.578461 
L 288.413196 203.330412 
L 290.10976 205.917334 
L 291.806324 203.131204 
L 293.502888 204.335106 
L 295.199453 201.749216 
L 296.896017 202.873284 
L 298.592581 205.155922 
L 300.289146 202.537333 
L 301.98571 202.402265 
L 303.682274 206.917581 
L 305.378839 207.805306 
L 307.075403 207.857977 
L 308.771967 205.616176 
L 310.468531 254.526922 
L 312.165096 265.120586 
L 313.86166 254.582626 
L 315.558224 258.99743 
L 317.254789 260.971488 
L 318.951353 262.448509 
L 320.647917 262.46697 
L 322.344482 262.108051 
L 324.041046 263.001829 
L 325.73761 262.940207 
L 329.130739 263.108989 
L 330.827303 262.259227 
L 332.523867 262.711246 
L 334.220432 263.970789 
L 335.916996 263.626431 
L 337.61356 264.118397 
L 339.310125 264.165508 
L 341.006689 264.45021 
L 346.096382 265.885034 
L 347.792946 265.528853 
L 349.48951 265.855401 
L 351.186075 265.474131 
L 352.882639 265.881898 
L 354.579203 265.340964 
L 356.275768 265.60409 
L 357.972332 266.361166 
L 361.365461 265.198981 
L 363.062025 266.156448 
L 366.455154 266.700624 
L 368.151718 266.827958 
L 369.848282 266.62237 
L 373.241411 266.792129 
L 374.937975 267.433136 
L 376.634539 267.521856 
L 378.331104 267.331138 
L 381.724232 267.523778 
L 383.420797 267.365034 
L 385.117361 267.57331 
L 386.813925 267.370306 
L 388.51049 267.439597 
L 390.207054 267.221812 
L 391.903618 267.849733 
L 396.993311 267.349556 
L 398.689875 267.618201 
L 400.38644 268.026051 
L 402.083004 267.623155 
L 403.779568 267.440512 
L 405.476133 267.816859 
L 407.172697 268.502328 
L 410.565825 267.948938 
L 412.26239 268.710503 
L 413.958954 268.513656 
L 415.655518 268.042892 
L 417.352083 269.00311 
L 419.048647 268.802526 
L 420.745211 269.104025 
L 422.441776 268.916643 
L 424.13834 269.338693 
L 425.834904 268.913106 
L 427.531469 269.254389 
L 429.228033 268.999127 
L 430.924597 268.912342 
L 432.621161 268.667213 
L 434.317726 269.020864 
L 436.01429 268.809189 
L 437.710854 269.348887 
L 439.407419 269.571465 
L 441.103983 269.197777 
L 442.800547 269.691743 
L 444.497112 269.087108 
L 446.193676 269.855606 
L 447.89024 269.391219 
L 449.586804 269.717374 
L 452.979933 270.014014 
L 454.676497 269.60233 
L 458.069626 269.468155 
L 461.462755 270.043918 
L 463.159319 269.890971 
L 464.855883 269.979459 
L 466.552448 269.795049 
L 468.249012 268.844611 
L 469.945576 269.589261 
L 471.64214 269.408997 
L 473.338705 270.189652 
L 475.035269 269.400763 
L 476.731833 269.663994 
L 478.428398 269.354145 
L 483.518091 269.499367 
L 485.214655 269.650592 
L 486.911219 270.054 
L 488.607784 269.678378 
L 492.000912 269.572351 
L 497.090605 269.794329 
L 498.787169 269.597067 
L 500.483734 270.383197 
L 502.180298 269.928229 
L 503.876862 270.086681 
L 505.573427 269.96561 
L 507.269991 270.040269 
L 508.966555 270.407973 
L 510.663119 269.576956 
L 512.359684 270.314153 
L 514.056248 269.80559 
L 515.752812 269.967224 
L 517.449377 269.30895 
L 519.145941 270.131544 
L 520.842505 270.695181 
L 524.235634 269.769804 
L 525.932198 270.363146 
L 527.628763 269.845059 
L 529.325327 270.07202 
L 531.021891 269.904491 
L 532.718455 270.494086 
L 534.41502 269.93667 
L 537.808148 270.080019 
L 539.504713 269.735306 
L 541.201277 270.321857 
L 542.897841 269.563345 
L 544.594406 270.278596 
L 546.29097 270.241555 
L 547.987534 270.510175 
L 549.684099 269.862367 
L 551.380663 270.306365 
L 553.077227 270.229785 
L 554.773791 270.879908 
L 556.470356 270.870256 
L 558.16692 270.368868 
L 561.560049 270.429054 
L 563.256613 270.604714 
L 564.953177 270.180212 
L 566.649742 270.448496 
L 568.346306 270.270817 
L 570.04287 270.434002 
L 571.739434 270.108273 
L 573.435999 270.394215 
L 576.829127 270.234121 
L 578.525692 270.923271 
L 580.222256 270.048643 
L 581.91882 270.879385 
L 583.615385 271.357191 
L 585.311949 270.828107 
L 587.008513 271.151272 
L 588.705078 270.342595 
L 590.401642 270.945367 
L 592.098206 271.106105 
L 593.79477 270.531513 
L 595.491335 271.512664 
L 597.187899 270.474899 
L 598.884463 270.683455 
L 600.581028 270.649024 
L 602.277592 270.733472 
L 603.974156 270.66856 
L 605.670721 271.347508 
L 607.367285 270.850372 
L 609.063849 270.922077 
L 610.760413 270.715154 
L 612.456978 271.38364 
L 614.153542 270.644146 
L 615.850106 270.640385 
L 617.546671 270.823945 
L 619.243235 270.785797 
L 622.636364 271.09754 
L 622.636364 271.09754 
" clip-path="url(#p2bd2a4020c)" style="fill: none; stroke: #d62728; stroke-width: 1.5; stroke-linecap: square"/>
   </g>
   <g id="patch_3">
    <path d="M 90 320.4 
L 90 43.2 
" style="fill: none; stroke: #000000; stroke-width: 0.8; stroke-linejoin: miter; stroke-linecap: square"/>
   </g>
   <g id="patch_4">
    <path d="M 648 320.4 
L 648 43.2 
" style="fill: none; stroke: #000000; stroke-width: 0.8; stroke-linejoin: miter; stroke-linecap: square"/>
   </g>
   <g id="patch_5">
    <path d="M 90 320.4 
L 648 320.4 
" style="fill: none; stroke: #000000; stroke-width: 0.8; stroke-linejoin: miter; stroke-linecap: square"/>
   </g>
   <g id="patch_6">
    <path d="M 90 43.2 
L 648 43.2 
" style="fill: none; stroke: #000000; stroke-width: 0.8; stroke-linejoin: miter; stroke-linecap: square"/>
   </g>
   <g id="text_14">
    <!-- Training and Validating Estimation Loss -->
    <g transform="translate(251.535937 37.2) scale(0.12 -0.12)">
     <defs>
      <path id="DejaVuSans-54" d="M -19 4666 
L 3928 4666 
L 3928 4134 
L 2272 4134 
L 2272 0 
L 1638 0 
L 1638 4134 
L -19 4134 
L -19 4666 
z
" transform="scale(0.015625)"/>
      <path id="DejaVuSans-72" d="M 2631 2963 
Q 2534 3019 2420 3045 
Q 2306 3072 2169 3072 
Q 1681 3072 1420 2755 
Q 1159 2438 1159 1844 
L 1159 0 
L 581 0 
L 581 3500 
L 1159 3500 
L 1159 2956 
Q 1341 3275 1631 3429 
Q 1922 3584 2338 3584 
Q 2397 3584 2469 3576 
Q 2541 3569 2628 3553 
L 2631 2963 
z
" transform="scale(0.015625)"/>
      <path id="DejaVuSans-67" d="M 2906 1791 
Q 2906 2416 2648 2759 
Q 2391 3103 1925 3103 
Q 1463 3103 1205 2759 
Q 947 2416 947 1791 
Q 947 1169 1205 825 
Q 1463 481 1925 481 
Q 2391 481 2648 825 
Q 2906 1169 2906 1791 
z
M 3481 434 
Q 3481 -459 3084 -895 
Q 2688 -1331 1869 -1331 
Q 1566 -1331 1297 -1286 
Q 1028 -1241 775 -1147 
L 775 -588 
Q 1028 -725 1275 -790 
Q 1522 -856 1778 -856 
Q 2344 -856 2625 -561 
Q 2906 -266 2906 331 
L 2906 616 
Q 2728 306 2450 153 
Q 2172 0 1784 0 
Q 1141 0 747 490 
Q 353 981 353 1791 
Q 353 2603 747 3093 
Q 1141 3584 1784 3584 
Q 2172 3584 2450 3431 
Q 2728 3278 2906 2969 
L 2906 3500 
L 3481 3500 
L 3481 434 
z
" transform="scale(0.015625)"/>
      <path id="DejaVuSans-64" d="M 2906 2969 
L 2906 4863 
L 3481 4863 
L 3481 0 
L 2906 0 
L 2906 525 
Q 2725 213 2448 61 
Q 2172 -91 1784 -91 
Q 1150 -91 751 415 
Q 353 922 353 1747 
Q 353 2572 751 3078 
Q 1150 3584 1784 3584 
Q 2172 3584 2448 3432 
Q 2725 3281 2906 2969 
z
M 947 1747 
Q 947 1113 1208 752 
Q 1469 391 1925 391 
Q 2381 391 2643 752 
Q 2906 1113 2906 1747 
Q 2906 2381 2643 2742 
Q 2381 3103 1925 3103 
Q 1469 3103 1208 2742 
Q 947 2381 947 1747 
z
" transform="scale(0.015625)"/>
      <path id="DejaVuSans-56" d="M 1831 0 
L 50 4666 
L 709 4666 
L 2188 738 
L 3669 4666 
L 4325 4666 
L 2547 0 
L 1831 0 
z
" transform="scale(0.015625)"/>
      <path id="DejaVuSans-6c" d="M 603 4863 
L 1178 4863 
L 1178 0 
L 603 0 
L 603 4863 
z
" transform="scale(0.015625)"/>
     </defs>
     <use xlink:href="#DejaVuSans-54"/>
     <use xlink:href="#DejaVuSans-72" transform="translate(46.333984 0)"/>
     <use xlink:href="#DejaVuSans-61" transform="translate(87.447266 0)"/>
     <use xlink:href="#DejaVuSans-69" transform="translate(148.726562 0)"/>
     <use xlink:href="#DejaVuSans-6e" transform="translate(176.509766 0)"/>
     <use xlink:href="#DejaVuSans-69" transform="translate(239.888672 0)"/>
     <use xlink:href="#DejaVuSans-6e" transform="translate(267.671875 0)"/>
     <use xlink:href="#DejaVuSans-67" transform="translate(331.050781 0)"/>
     <use xlink:href="#DejaVuSans-20" transform="translate(394.527344 0)"/>
     <use xlink:href="#DejaVuSans-61" transform="translate(426.314453 0)"/>
     <use xlink:href="#DejaVuSans-6e" transform="translate(487.59375 0)"/>
     <use xlink:href="#DejaVuSans-64" transform="translate(550.972656 0)"/>
     <use xlink:href="#DejaVuSans-20" transform="translate(614.449219 0)"/>
     <use xlink:href="#DejaVuSans-56" transform="translate(646.236328 0)"/>
     <use xlink:href="#DejaVuSans-61" transform="translate(706.894531 0)"/>
     <use xlink:href="#DejaVuSans-6c" transform="translate(768.173828 0)"/>
     <use xlink:href="#DejaVuSans-69" transform="translate(795.957031 0)"/>
     <use xlink:href="#DejaVuSans-64" transform="translate(823.740234 0)"/>
     <use xlink:href="#DejaVuSans-61" transform="translate(887.216797 0)"/>
     <use xlink:href="#DejaVuSans-74" transform="translate(948.496094 0)"/>
     <use xlink:href="#DejaVuSans-69" transform="translate(987.705078 0)"/>
     <use xlink:href="#DejaVuSans-6e" transform="translate(1015.488281 0)"/>
     <use xlink:href="#DejaVuSans-67" transform="translate(1078.867188 0)"/>
     <use xlink:href="#DejaVuSans-20" transform="translate(1142.34375 0)"/>
     <use xlink:href="#DejaVuSans-45" transform="translate(1174.130859 0)"/>
     <use xlink:href="#DejaVuSans-73" transform="translate(1237.314453 0)"/>
     <use xlink:href="#DejaVuSans-74" transform="translate(1289.414062 0)"/>
     <use xlink:href="#DejaVuSans-69" transform="translate(1328.623047 0)"/>
     <use xlink:href="#DejaVuSans-6d" transform="translate(1356.40625 0)"/>
     <use xlink:href="#DejaVuSans-61" transform="translate(1453.818359 0)"/>
     <use xlink:href="#DejaVuSans-74" transform="translate(1515.097656 0)"/>
     <use xlink:href="#DejaVuSans-69" transform="translate(1554.306641 0)"/>
     <use xlink:href="#DejaVuSans-6f" transform="translate(1582.089844 0)"/>
     <use xlink:href="#DejaVuSans-6e" transform="translate(1643.271484 0)"/>
     <use xlink:href="#DejaVuSans-20" transform="translate(1706.650391 0)"/>
     <use xlink:href="#DejaVuSans-4c" transform="translate(1738.4375 0)"/>
     <use xlink:href="#DejaVuSans-6f" transform="translate(1792.400391 0)"/>
     <use xlink:href="#DejaVuSans-73" transform="translate(1853.582031 0)"/>
     <use xlink:href="#DejaVuSans-73" transform="translate(1905.681641 0)"/>
    </g>
   </g>
   <g id="legend_1">
    <g id="patch_7">
     <path d="M 521.439062 109.9125 
L 641 109.9125 
Q 643 109.9125 643 107.9125 
L 643 50.2 
Q 643 48.2 641 48.2 
L 521.439062 48.2 
Q 519.439062 48.2 519.439062 50.2 
L 519.439062 107.9125 
Q 519.439062 109.9125 521.439062 109.9125 
z
" style="fill: #ffffff; opacity: 0.8; stroke: #cccccc; stroke-linejoin: miter"/>
    </g>
    <g id="line2d_16">
     <path d="M 523.439062 56.298437 
L 533.439062 56.298437 
L 543.439062 56.298437 
" style="fill: none; stroke: #1f77b4; stroke-width: 1.5; stroke-linecap: square"/>
    </g>
    <g id="text_15">
     <!-- Training-Source -->
     <g transform="translate(551.439062 59.798437) scale(0.1 -0.1)">
      <defs>
       <path id="DejaVuSans-2d" d="M 313 2009 
L 1997 2009 
L 1997 1497 
L 313 1497 
L 313 2009 
z
" transform="scale(0.015625)"/>
       <path id="DejaVuSans-53" d="M 3425 4513 
L 3425 3897 
Q 3066 4069 2747 4153 
Q 2428 4238 2131 4238 
Q 1616 4238 1336 4038 
Q 1056 3838 1056 3469 
Q 1056 3159 1242 3001 
Q 1428 2844 1947 2747 
L 2328 2669 
Q 3034 2534 3370 2195 
Q 3706 1856 3706 1288 
Q 3706 609 3251 259 
Q 2797 -91 1919 -91 
Q 1588 -91 1214 -16 
Q 841 59 441 206 
L 441 856 
Q 825 641 1194 531 
Q 1563 422 1919 422 
Q 2459 422 2753 634 
Q 3047 847 3047 1241 
Q 3047 1584 2836 1778 
Q 2625 1972 2144 2069 
L 1759 2144 
Q 1053 2284 737 2584 
Q 422 2884 422 3419 
Q 422 4038 858 4394 
Q 1294 4750 2059 4750 
Q 2388 4750 2728 4690 
Q 3069 4631 3425 4513 
z
" transform="scale(0.015625)"/>
       <path id="DejaVuSans-75" d="M 544 1381 
L 544 3500 
L 1119 3500 
L 1119 1403 
Q 1119 906 1312 657 
Q 1506 409 1894 409 
Q 2359 409 2629 706 
Q 2900 1003 2900 1516 
L 2900 3500 
L 3475 3500 
L 3475 0 
L 2900 0 
L 2900 538 
Q 2691 219 2414 64 
Q 2138 -91 1772 -91 
Q 1169 -91 856 284 
Q 544 659 544 1381 
z
M 1991 3584 
L 1991 3584 
z
" transform="scale(0.015625)"/>
       <path id="DejaVuSans-65" d="M 3597 1894 
L 3597 1613 
L 953 1613 
Q 991 1019 1311 708 
Q 1631 397 2203 397 
Q 2534 397 2845 478 
Q 3156 559 3463 722 
L 3463 178 
Q 3153 47 2828 -22 
Q 2503 -91 2169 -91 
Q 1331 -91 842 396 
Q 353 884 353 1716 
Q 353 2575 817 3079 
Q 1281 3584 2069 3584 
Q 2775 3584 3186 3129 
Q 3597 2675 3597 1894 
z
M 3022 2063 
Q 3016 2534 2758 2815 
Q 2500 3097 2075 3097 
Q 1594 3097 1305 2825 
Q 1016 2553 972 2059 
L 3022 2063 
z
" transform="scale(0.015625)"/>
      </defs>
      <use xlink:href="#DejaVuSans-54"/>
      <use xlink:href="#DejaVuSans-72" transform="translate(46.333984 0)"/>
      <use xlink:href="#DejaVuSans-61" transform="translate(87.447266 0)"/>
      <use xlink:href="#DejaVuSans-69" transform="translate(148.726562 0)"/>
      <use xlink:href="#DejaVuSans-6e" transform="translate(176.509766 0)"/>
      <use xlink:href="#DejaVuSans-69" transform="translate(239.888672 0)"/>
      <use xlink:href="#DejaVuSans-6e" transform="translate(267.671875 0)"/>
      <use xlink:href="#DejaVuSans-67" transform="translate(331.050781 0)"/>
      <use xlink:href="#DejaVuSans-2d" transform="translate(394.527344 0)"/>
      <use xlink:href="#DejaVuSans-53" transform="translate(430.611328 0)"/>
      <use xlink:href="#DejaVuSans-6f" transform="translate(494.087891 0)"/>
      <use xlink:href="#DejaVuSans-75" transform="translate(555.269531 0)"/>
      <use xlink:href="#DejaVuSans-72" transform="translate(618.648438 0)"/>
      <use xlink:href="#DejaVuSans-63" transform="translate(657.511719 0)"/>
      <use xlink:href="#DejaVuSans-65" transform="translate(712.492188 0)"/>
     </g>
    </g>
    <g id="line2d_17">
     <path d="M 523.439062 70.976562 
L 533.439062 70.976562 
L 543.439062 70.976562 
" style="fill: none; stroke: #ff7f0e; stroke-width: 1.5; stroke-linecap: square"/>
    </g>
    <g id="text_16">
     <!-- Training-Target -->
     <g transform="translate(551.439062 74.476562) scale(0.1 -0.1)">
      <use xlink:href="#DejaVuSans-54"/>
      <use xlink:href="#DejaVuSans-72" transform="translate(46.333984 0)"/>
      <use xlink:href="#DejaVuSans-61" transform="translate(87.447266 0)"/>
      <use xlink:href="#DejaVuSans-69" transform="translate(148.726562 0)"/>
      <use xlink:href="#DejaVuSans-6e" transform="translate(176.509766 0)"/>
      <use xlink:href="#DejaVuSans-69" transform="translate(239.888672 0)"/>
      <use xlink:href="#DejaVuSans-6e" transform="translate(267.671875 0)"/>
      <use xlink:href="#DejaVuSans-67" transform="translate(331.050781 0)"/>
      <use xlink:href="#DejaVuSans-2d" transform="translate(394.527344 0)"/>
      <use xlink:href="#DejaVuSans-54" transform="translate(421.486328 0)"/>
      <use xlink:href="#DejaVuSans-61" transform="translate(466.070312 0)"/>
      <use xlink:href="#DejaVuSans-72" transform="translate(527.349609 0)"/>
      <use xlink:href="#DejaVuSans-67" transform="translate(566.712891 0)"/>
      <use xlink:href="#DejaVuSans-65" transform="translate(630.189453 0)"/>
      <use xlink:href="#DejaVuSans-74" transform="translate(691.712891 0)"/>
     </g>
    </g>
    <g id="line2d_18">
     <path d="M 523.439062 85.654687 
L 533.439062 85.654687 
L 543.439062 85.654687 
" style="fill: none; stroke: #2ca02c; stroke-width: 1.5; stroke-linecap: square"/>
    </g>
    <g id="text_17">
     <!-- Validating-Source -->
     <g transform="translate(551.439062 89.154687) scale(0.1 -0.1)">
      <use xlink:href="#DejaVuSans-56"/>
      <use xlink:href="#DejaVuSans-61" transform="translate(60.658203 0)"/>
      <use xlink:href="#DejaVuSans-6c" transform="translate(121.9375 0)"/>
      <use xlink:href="#DejaVuSans-69" transform="translate(149.720703 0)"/>
      <use xlink:href="#DejaVuSans-64" transform="translate(177.503906 0)"/>
      <use xlink:href="#DejaVuSans-61" transform="translate(240.980469 0)"/>
      <use xlink:href="#DejaVuSans-74" transform="translate(302.259766 0)"/>
      <use xlink:href="#DejaVuSans-69" transform="translate(341.46875 0)"/>
      <use xlink:href="#DejaVuSans-6e" transform="translate(369.251953 0)"/>
      <use xlink:href="#DejaVuSans-67" transform="translate(432.630859 0)"/>
      <use xlink:href="#DejaVuSans-2d" transform="translate(496.107422 0)"/>
      <use xlink:href="#DejaVuSans-53" transform="translate(532.191406 0)"/>
      <use xlink:href="#DejaVuSans-6f" transform="translate(595.667969 0)"/>
      <use xlink:href="#DejaVuSans-75" transform="translate(656.849609 0)"/>
      <use xlink:href="#DejaVuSans-72" transform="translate(720.228516 0)"/>
      <use xlink:href="#DejaVuSans-63" transform="translate(759.091797 0)"/>
      <use xlink:href="#DejaVuSans-65" transform="translate(814.072266 0)"/>
     </g>
    </g>
    <g id="line2d_19">
     <path d="M 523.439062 100.332812 
L 533.439062 100.332812 
L 543.439062 100.332812 
" style="fill: none; stroke: #d62728; stroke-width: 1.5; stroke-linecap: square"/>
    </g>
    <g id="text_18">
     <!-- Validating-Target -->
     <g transform="translate(551.439062 103.832812) scale(0.1 -0.1)">
      <use xlink:href="#DejaVuSans-56"/>
      <use xlink:href="#DejaVuSans-61" transform="translate(60.658203 0)"/>
      <use xlink:href="#DejaVuSans-6c" transform="translate(121.9375 0)"/>
      <use xlink:href="#DejaVuSans-69" transform="translate(149.720703 0)"/>
      <use xlink:href="#DejaVuSans-64" transform="translate(177.503906 0)"/>
      <use xlink:href="#DejaVuSans-61" transform="translate(240.980469 0)"/>
      <use xlink:href="#DejaVuSans-74" transform="translate(302.259766 0)"/>
      <use xlink:href="#DejaVuSans-69" transform="translate(341.46875 0)"/>
      <use xlink:href="#DejaVuSans-6e" transform="translate(369.251953 0)"/>
      <use xlink:href="#DejaVuSans-67" transform="translate(432.630859 0)"/>
      <use xlink:href="#DejaVuSans-2d" transform="translate(496.107422 0)"/>
      <use xlink:href="#DejaVuSans-54" transform="translate(523.066406 0)"/>
      <use xlink:href="#DejaVuSans-61" transform="translate(567.650391 0)"/>
      <use xlink:href="#DejaVuSans-72" transform="translate(628.929688 0)"/>
      <use xlink:href="#DejaVuSans-67" transform="translate(668.292969 0)"/>
      <use xlink:href="#DejaVuSans-65" transform="translate(731.769531 0)"/>
      <use xlink:href="#DejaVuSans-74" transform="translate(793.292969 0)"/>
     </g>
    </g>
   </g>
  </g>
 </g>
 <defs>
  <clipPath id="p2bd2a4020c">
   <rect x="90" y="43.2" width="558" height="277.2"/>
  </clipPath>
 </defs>
</svg>
