<?xml version="1.0" encoding="utf-8" standalone="no"?>
<!DOCTYPE svg PUBLIC "-//W3C//DTD SVG 1.1//EN"
  "http://www.w3.org/Graphics/SVG/1.1/DTD/svg11.dtd">
<svg xmlns:xlink="http://www.w3.org/1999/xlink" width="720pt" height="360pt" viewBox="0 0 720 360" xmlns="http://www.w3.org/2000/svg" version="1.1">
 <metadata>
  <rdf:RDF xmlns:dc="http://purl.org/dc/elements/1.1/" xmlns:cc="http://creativecommons.org/ns#" xmlns:rdf="http://www.w3.org/1999/02/22-rdf-syntax-ns#">
   <cc:Work>
    <dc:type rdf:resource="http://purl.org/dc/dcmitype/StillImage"/>
    <dc:date>2026-03-06T23:05:53.699121</dc:date>
    <dc:format>image/svg+xml</dc:format>
    <dc:creator>
     <cc:Agent>
      <dc:title>Matplotlib v3.10.1, https://matplotlib.org/</dc:title>
     </cc:Agent>
    </dc:creator>
   </cc:Work>
  </rdf:RDF>
 </metadata>
 <defs>
  <style type="text/css">*{stroke-linejoin: round; stroke-linecap: butt}</style>
 </defs>
 <g id="figure_1">
  <g id="patch_1">
   <path d="M 0 360 
L 720 360 
L 720 0 
L 0 0 
z
" style="fill: #ffffff"/>
  </g>
  <g id="axes_1">
   <g id="patch_2">
    <path d="M 90 320.4 
L 648 320.4 
L 648 43.2 
L 90 43.2 
z
" style="fill: #ffffff"/>
   </g>
   <g id="matplotlib.axis_1">
    <g id="xtick_1">
     <g id="line2d_1">
      <defs>
       <path id="m2ac1c45eb1" d="M 0 0 
L 0 3.5 
" style="stroke: #000000; stroke-width: 0.8"/>
      </defs>
      <g>
       <use xlink:href="#m2ac1c45eb1" x="115.363636" y="320.4" style="stroke: #000000; stroke-width: 0.8"/>
      </g>
     </g>
     <g id="text_1">
      <!-- 0 -->
      <g transform="translate(112.182386 334.998438) scale(0.1 -0.1)">
       <defs>
        <path id="DejaVuSans-30" d="M 2034 4250 
Q 1547 4250 1301 3770 
Q 1056 3291 1056 2328 
Q 1056 1369 1301 889 
Q 1547 409 2034 409 
Q 2525 409 2770 889 
Q 3016 1369 3016 2328 
Q 3016 3291 2770 3770 
Q 2525 4250 2034 4250 
z
M 2034 4750 
Q 2819 4750 3233 4129 
Q 3647 3509 3647 2328 
Q 3647 1150 3233 529 
Q 2819 -91 2034 -91 
Q 1250 -91 836 529 
Q 422 1150 422 2328 
Q 422 3509 836 4129 
Q 1250 4750 2034 4750 
z
" transform="scale(0.015625)"/>
       </defs>
       <use xlink:href="#DejaVuSans-30"/>
      </g>
     </g>
    </g>
    <g id="xtick_2">
     <g id="line2d_2">
      <g>
       <use xlink:href="#m2ac1c45eb1" x="217.157495" y="320.4" style="stroke: #000000; stroke-width: 0.8"/>
      </g>
     </g>
     <g id="text_2">
      <!-- 60 -->
      <g transform="translate(210.794995 334.998438) scale(0.1 -0.1)">
       <defs>
        <path id="DejaVuSans-36" d="M 2113 2584 
Q 1688 2584 1439 2293 
Q 1191 2003 1191 1497 
Q 1191 994 1439 701 
Q 1688 409 2113 409 
Q 2538 409 2786 701 
Q 3034 994 3034 1497 
Q 3034 2003 2786 2293 
Q 2538 2584 2113 2584 
z
M 3366 4563 
L 3366 3988 
Q 3128 4100 2886 4159 
Q 2644 4219 2406 4219 
Q 1781 4219 1451 3797 
Q 1122 3375 1075 2522 
Q 1259 2794 1537 2939 
Q 1816 3084 2150 3084 
Q 2853 3084 3261 2657 
Q 3669 2231 3669 1497 
Q 3669 778 3244 343 
Q 2819 -91 2113 -91 
Q 1303 -91 875 529 
Q 447 1150 447 2328 
Q 447 3434 972 4092 
Q 1497 4750 2381 4750 
Q 2619 4750 2861 4703 
Q 3103 4656 3366 4563 
z
" transform="scale(0.015625)"/>
       </defs>
       <use xlink:href="#DejaVuSans-36"/>
       <use xlink:href="#DejaVuSans-30" transform="translate(63.623047 0)"/>
      </g>
     </g>
    </g>
    <g id="xtick_3">
     <g id="line2d_3">
      <g>
       <use xlink:href="#m2ac1c45eb1" x="318.951353" y="320.4" style="stroke: #000000; stroke-width: 0.8"/>
      </g>
     </g>
     <g id="text_3">
      <!-- 120 -->
      <g transform="translate(309.407603 334.998438) scale(0.1 -0.1)">
       <defs>
        <path id="DejaVuSans-31" d="M 794 531 
L 1825 531 
L 1825 4091 
L 703 3866 
L 703 4441 
L 1819 4666 
L 2450 4666 
L 2450 531 
L 3481 531 
L 3481 0 
L 794 0 
L 794 531 
z
" transform="scale(0.015625)"/>
        <path id="DejaVuSans-32" d="M 1228 531 
L 3431 531 
L 3431 0 
L 469 0 
L 469 531 
Q 828 903 1448 1529 
Q 2069 2156 2228 2338 
Q 2531 2678 2651 2914 
Q 2772 3150 2772 3378 
Q 2772 3750 2511 3984 
Q 2250 4219 1831 4219 
Q 1534 4219 1204 4116 
Q 875 4013 500 3803 
L 500 4441 
Q 881 4594 1212 4672 
Q 1544 4750 1819 4750 
Q 2544 4750 2975 4387 
Q 3406 4025 3406 3419 
Q 3406 3131 3298 2873 
Q 3191 2616 2906 2266 
Q 2828 2175 2409 1742 
Q 1991 1309 1228 531 
z
" transform="scale(0.015625)"/>
       </defs>
       <use xlink:href="#DejaVuSans-31"/>
       <use xlink:href="#DejaVuSans-32" transform="translate(63.623047 0)"/>
       <use xlink:href="#DejaVuSans-30" transform="translate(127.246094 0)"/>
      </g>
     </g>
    </g>
    <g id="xtick_4">
     <g id="line2d_4">
      <g>
       <use xlink:href="#m2ac1c45eb1" x="420.745211" y="320.4" style="stroke: #000000; stroke-width: 0.8"/>
      </g>
     </g>
     <g id="text_4">
      <!-- 180 -->
      <g transform="translate(411.201461 334.998438) scale(0.1 -0.1)">
       <defs>
        <path id="DejaVuSans-38" d="M 2034 2216 
Q 1584 2216 1326 1975 
Q 1069 1734 1069 1313 
Q 1069 891 1326 650 
Q 1584 409 2034 409 
Q 2484 409 2743 651 
Q 3003 894 3003 1313 
Q 3003 1734 2745 1975 
Q 2488 2216 2034 2216 
z
M 1403 2484 
Q 997 2584 770 2862 
Q 544 3141 544 3541 
Q 544 4100 942 4425 
Q 1341 4750 2034 4750 
Q 2731 4750 3128 4425 
Q 3525 4100 3525 3541 
Q 3525 3141 3298 2862 
Q 3072 2584 2669 2484 
Q 3125 2378 3379 2068 
Q 3634 1759 3634 1313 
Q 3634 634 3220 271 
Q 2806 -91 2034 -91 
Q 1263 -91 848 271 
Q 434 634 434 1313 
Q 434 1759 690 2068 
Q 947 2378 1403 2484 
z
M 1172 3481 
Q 1172 3119 1398 2916 
Q 1625 2713 2034 2713 
Q 2441 2713 2670 2916 
Q 2900 3119 2900 3481 
Q 2900 3844 2670 4047 
Q 2441 4250 2034 4250 
Q 1625 4250 1398 4047 
Q 1172 3844 1172 3481 
z
" transform="scale(0.015625)"/>
       </defs>
       <use xlink:href="#DejaVuSans-31"/>
       <use xlink:href="#DejaVuSans-38" transform="translate(63.623047 0)"/>
       <use xlink:href="#DejaVuSans-30" transform="translate(127.246094 0)"/>
      </g>
     </g>
    </g>
    <g id="xtick_5">
     <g id="line2d_5">
      <g>
       <use xlink:href="#m2ac1c45eb1" x="522.53907" y="320.4" style="stroke: #000000; stroke-width: 0.8"/>
      </g>
     </g>
     <g id="text_5">
      <!-- 240 -->
      <g transform="translate(512.99532 334.998438) scale(0.1 -0.1)">
       <defs>
        <path id="DejaVuSans-34" d="M 2419 4116 
L 825 1625 
L 2419 1625 
L 2419 4116 
z
M 2253 4666 
L 3047 4666 
L 3047 1625 
L 3713 1625 
L 3713 1100 
L 3047 1100 
L 3047 0 
L 2419 0 
L 2419 1100 
L 313 1100 
L 313 1709 
L 2253 4666 
z
" transform="scale(0.015625)"/>
       </defs>
       <use xlink:href="#DejaVuSans-32"/>
       <use xlink:href="#DejaVuSans-34" transform="translate(63.623047 0)"/>
       <use xlink:href="#DejaVuSans-30" transform="translate(127.246094 0)"/>
      </g>
     </g>
    </g>
    <g id="text_6">
     <!-- Epoch -->
     <g transform="translate(353.689062 348.676562) scale(0.1 -0.1)">
      <defs>
       <path id="DejaVuSans-45" d="M 628 4666 
L 3578 4666 
L 3578 4134 
L 1259 4134 
L 1259 2753 
L 3481 2753 
L 3481 2222 
L 1259 2222 
L 1259 531 
L 3634 531 
L 3634 0 
L 628 0 
L 628 4666 
z
" transform="scale(0.015625)"/>
       <path id="DejaVuSans-70" d="M 1159 525 
L 1159 -1331 
L 581 -1331 
L 581 3500 
L 1159 3500 
L 1159 2969 
Q 1341 3281 1617 3432 
Q 1894 3584 2278 3584 
Q 2916 3584 3314 3078 
Q 3713 2572 3713 1747 
Q 3713 922 3314 415 
Q 2916 -91 2278 -91 
Q 1894 -91 1617 61 
Q 1341 213 1159 525 
z
M 3116 1747 
Q 3116 2381 2855 2742 
Q 2594 3103 2138 3103 
Q 1681 3103 1420 2742 
Q 1159 2381 1159 1747 
Q 1159 1113 1420 752 
Q 1681 391 2138 391 
Q 2594 391 2855 752 
Q 3116 1113 3116 1747 
z
" transform="scale(0.015625)"/>
       <path id="DejaVuSans-6f" d="M 1959 3097 
Q 1497 3097 1228 2736 
Q 959 2375 959 1747 
Q 959 1119 1226 758 
Q 1494 397 1959 397 
Q 2419 397 2687 759 
Q 2956 1122 2956 1747 
Q 2956 2369 2687 2733 
Q 2419 3097 1959 3097 
z
M 1959 3584 
Q 2709 3584 3137 3096 
Q 3566 2609 3566 1747 
Q 3566 888 3137 398 
Q 2709 -91 1959 -91 
Q 1206 -91 779 398 
Q 353 888 353 1747 
Q 353 2609 779 3096 
Q 1206 3584 1959 3584 
z
" transform="scale(0.015625)"/>
       <path id="DejaVuSans-63" d="M 3122 3366 
L 3122 2828 
Q 2878 2963 2633 3030 
Q 2388 3097 2138 3097 
Q 1578 3097 1268 2742 
Q 959 2388 959 1747 
Q 959 1106 1268 751 
Q 1578 397 2138 397 
Q 2388 397 2633 464 
Q 2878 531 3122 666 
L 3122 134 
Q 2881 22 2623 -34 
Q 2366 -91 2075 -91 
Q 1284 -91 818 406 
Q 353 903 353 1747 
Q 353 2603 823 3093 
Q 1294 3584 2113 3584 
Q 2378 3584 2631 3529 
Q 2884 3475 3122 3366 
z
" transform="scale(0.015625)"/>
       <path id="DejaVuSans-68" d="M 3513 2113 
L 3513 0 
L 2938 0 
L 2938 2094 
Q 2938 2591 2744 2837 
Q 2550 3084 2163 3084 
Q 1697 3084 1428 2787 
Q 1159 2491 1159 1978 
L 1159 0 
L 581 0 
L 581 4863 
L 1159 4863 
L 1159 2956 
Q 1366 3272 1645 3428 
Q 1925 3584 2291 3584 
Q 2894 3584 3203 3211 
Q 3513 2838 3513 2113 
z
" transform="scale(0.015625)"/>
      </defs>
      <use xlink:href="#DejaVuSans-45"/>
      <use xlink:href="#DejaVuSans-70" transform="translate(63.183594 0)"/>
      <use xlink:href="#DejaVuSans-6f" transform="translate(126.660156 0)"/>
      <use xlink:href="#DejaVuSans-63" transform="translate(187.841797 0)"/>
      <use xlink:href="#DejaVuSans-68" transform="translate(242.822266 0)"/>
     </g>
    </g>
   </g>
   <g id="matplotlib.axis_2">
    <g id="ytick_1">
     <g id="line2d_6">
      <defs>
       <path id="mf0346a137c" d="M 0 0 
L -3.5 0 
" style="stroke: #000000; stroke-width: 0.8"/>
      </defs>
      <g>
       <use xlink:href="#mf0346a137c" x="90" y="308.362819" style="stroke: #000000; stroke-width: 0.8"/>
      </g>
     </g>
     <g id="text_7">
      <!-- 0.00 -->
      <g transform="translate(60.734375 312.162038) scale(0.1 -0.1)">
       <defs>
        <path id="DejaVuSans-2e" d="M 684 794 
L 1344 794 
L 1344 0 
L 684 0 
L 684 794 
z
" transform="scale(0.015625)"/>
       </defs>
       <use xlink:href="#DejaVuSans-30"/>
       <use xlink:href="#DejaVuSans-2e" transform="translate(63.623047 0)"/>
       <use xlink:href="#DejaVuSans-30" transform="translate(95.410156 0)"/>
       <use xlink:href="#DejaVuSans-30" transform="translate(159.033203 0)"/>
      </g>
     </g>
    </g>
    <g id="ytick_2">
     <g id="line2d_7">
      <g>
       <use xlink:href="#mf0346a137c" x="90" y="259.166086" style="stroke: #000000; stroke-width: 0.8"/>
      </g>
     </g>
     <g id="text_8">
      <!-- 0.02 -->
      <g transform="translate(60.734375 262.965305) scale(0.1 -0.1)">
       <use xlink:href="#DejaVuSans-30"/>
       <use xlink:href="#DejaVuSans-2e" transform="translate(63.623047 0)"/>
       <use xlink:href="#DejaVuSans-30" transform="translate(95.410156 0)"/>
       <use xlink:href="#DejaVuSans-32" transform="translate(159.033203 0)"/>
      </g>
     </g>
    </g>
    <g id="ytick_3">
     <g id="line2d_8">
      <g>
       <use xlink:href="#mf0346a137c" x="90" y="209.969353" style="stroke: #000000; stroke-width: 0.8"/>
      </g>
     </g>
     <g id="text_9">
      <!-- 0.04 -->
      <g transform="translate(60.734375 213.768572) scale(0.1 -0.1)">
       <use xlink:href="#DejaVuSans-30"/>
       <use xlink:href="#DejaVuSans-2e" transform="translate(63.623047 0)"/>
       <use xlink:href="#DejaVuSans-30" transform="translate(95.410156 0)"/>
       <use xlink:href="#DejaVuSans-34" transform="translate(159.033203 0)"/>
      </g>
     </g>
    </g>
    <g id="ytick_4">
     <g id="line2d_9">
      <g>
       <use xlink:href="#mf0346a137c" x="90" y="160.77262" style="stroke: #000000; stroke-width: 0.8"/>
      </g>
     </g>
     <g id="text_10">
      <!-- 0.06 -->
      <g transform="translate(60.734375 164.571839) scale(0.1 -0.1)">
       <use xlink:href="#DejaVuSans-30"/>
       <use xlink:href="#DejaVuSans-2e" transform="translate(63.623047 0)"/>
       <use xlink:href="#DejaVuSans-30" transform="translate(95.410156 0)"/>
       <use xlink:href="#DejaVuSans-36" transform="translate(159.033203 0)"/>
      </g>
     </g>
    </g>
    <g id="ytick_5">
     <g id="line2d_10">
      <g>
       <use xlink:href="#mf0346a137c" x="90" y="111.575887" style="stroke: #000000; stroke-width: 0.8"/>
      </g>
     </g>
     <g id="text_11">
      <!-- 0.08 -->
      <g transform="translate(60.734375 115.375106) scale(0.1 -0.1)">
       <use xlink:href="#DejaVuSans-30"/>
       <use xlink:href="#DejaVuSans-2e" transform="translate(63.623047 0)"/>
       <use xlink:href="#DejaVuSans-30" transform="translate(95.410156 0)"/>
       <use xlink:href="#DejaVuSans-38" transform="translate(159.033203 0)"/>
      </g>
     </g>
    </g>
    <g id="ytick_6">
     <g id="line2d_11">
      <g>
       <use xlink:href="#mf0346a137c" x="90" y="62.379154" style="stroke: #000000; stroke-width: 0.8"/>
      </g>
     </g>
     <g id="text_12">
      <!-- 0.10 -->
      <g transform="translate(60.734375 66.178373) scale(0.1 -0.1)">
       <use xlink:href="#DejaVuSans-30"/>
       <use xlink:href="#DejaVuSans-2e" transform="translate(63.623047 0)"/>
       <use xlink:href="#DejaVuSans-31" transform="translate(95.410156 0)"/>
       <use xlink:href="#DejaVuSans-30" transform="translate(159.033203 0)"/>
      </g>
     </g>
    </g>
    <g id="text_13">
     <!-- Estimation Loss -->
     <g transform="translate(54.654687 220.98125) rotate(-90) scale(0.1 -0.1)">
      <defs>
       <path id="DejaVuSans-73" d="M 2834 3397 
L 2834 2853 
Q 2591 2978 2328 3040 
Q 2066 3103 1784 3103 
Q 1356 3103 1142 2972 
Q 928 2841 928 2578 
Q 928 2378 1081 2264 
Q 1234 2150 1697 2047 
L 1894 2003 
Q 2506 1872 2764 1633 
Q 3022 1394 3022 966 
Q 3022 478 2636 193 
Q 2250 -91 1575 -91 
Q 1294 -91 989 -36 
Q 684 19 347 128 
L 347 722 
Q 666 556 975 473 
Q 1284 391 1588 391 
Q 1994 391 2212 530 
Q 2431 669 2431 922 
Q 2431 1156 2273 1281 
Q 2116 1406 1581 1522 
L 1381 1569 
Q 847 1681 609 1914 
Q 372 2147 372 2553 
Q 372 3047 722 3315 
Q 1072 3584 1716 3584 
Q 2034 3584 2315 3537 
Q 2597 3491 2834 3397 
z
" transform="scale(0.015625)"/>
       <path id="DejaVuSans-74" d="M 1172 4494 
L 1172 3500 
L 2356 3500 
L 2356 3053 
L 1172 3053 
L 1172 1153 
Q 1172 725 1289 603 
Q 1406 481 1766 481 
L 2356 481 
L 2356 0 
L 1766 0 
Q 1100 0 847 248 
Q 594 497 594 1153 
L 594 3053 
L 172 3053 
L 172 3500 
L 594 3500 
L 594 4494 
L 1172 4494 
z
" transform="scale(0.015625)"/>
       <path id="DejaVuSans-69" d="M 603 3500 
L 1178 3500 
L 1178 0 
L 603 0 
L 603 3500 
z
M 603 4863 
L 1178 4863 
L 1178 4134 
L 603 4134 
L 603 4863 
z
" transform="scale(0.015625)"/>
       <path id="DejaVuSans-6d" d="M 3328 2828 
Q 3544 3216 3844 3400 
Q 4144 3584 4550 3584 
Q 5097 3584 5394 3201 
Q 5691 2819 5691 2113 
L 5691 0 
L 5113 0 
L 5113 2094 
Q 5113 2597 4934 2840 
Q 4756 3084 4391 3084 
Q 3944 3084 3684 2787 
Q 3425 2491 3425 1978 
L 3425 0 
L 2847 0 
L 2847 2094 
Q 2847 2600 2669 2842 
Q 2491 3084 2119 3084 
Q 1678 3084 1418 2786 
Q 1159 2488 1159 1978 
L 1159 0 
L 581 0 
L 581 3500 
L 1159 3500 
L 1159 2956 
Q 1356 3278 1631 3431 
Q 1906 3584 2284 3584 
Q 2666 3584 2933 3390 
Q 3200 3197 3328 2828 
z
" transform="scale(0.015625)"/>
       <path id="DejaVuSans-61" d="M 2194 1759 
Q 1497 1759 1228 1600 
Q 959 1441 959 1056 
Q 959 750 1161 570 
Q 1363 391 1709 391 
Q 2188 391 2477 730 
Q 2766 1069 2766 1631 
L 2766 1759 
L 2194 1759 
z
M 3341 1997 
L 3341 0 
L 2766 0 
L 2766 531 
Q 2569 213 2275 61 
Q 1981 -91 1556 -91 
Q 1019 -91 701 211 
Q 384 513 384 1019 
Q 384 1609 779 1909 
Q 1175 2209 1959 2209 
L 2766 2209 
L 2766 2266 
Q 2766 2663 2505 2880 
Q 2244 3097 1772 3097 
Q 1472 3097 1187 3025 
Q 903 2953 641 2809 
L 641 3341 
Q 956 3463 1253 3523 
Q 1550 3584 1831 3584 
Q 2591 3584 2966 3190 
Q 3341 2797 3341 1997 
z
" transform="scale(0.015625)"/>
       <path id="DejaVuSans-6e" d="M 3513 2113 
L 3513 0 
L 2938 0 
L 2938 2094 
Q 2938 2591 2744 2837 
Q 2550 3084 2163 3084 
Q 1697 3084 1428 2787 
Q 1159 2491 1159 1978 
L 1159 0 
L 581 0 
L 581 3500 
L 1159 3500 
L 1159 2956 
Q 1366 3272 1645 3428 
Q 1925 3584 2291 3584 
Q 2894 3584 3203 3211 
Q 3513 2838 3513 2113 
z
" transform="scale(0.015625)"/>
       <path id="DejaVuSans-20" transform="scale(0.015625)"/>
       <path id="DejaVuSans-4c" d="M 628 4666 
L 1259 4666 
L 1259 531 
L 3531 531 
L 3531 0 
L 628 0 
L 628 4666 
z
" transform="scale(0.015625)"/>
      </defs>
      <use xlink:href="#DejaVuSans-45"/>
      <use xlink:href="#DejaVuSans-73" transform="translate(63.183594 0)"/>
      <use xlink:href="#DejaVuSans-74" transform="translate(115.283203 0)"/>
      <use xlink:href="#DejaVuSans-69" transform="translate(154.492188 0)"/>
      <use xlink:href="#DejaVuSans-6d" transform="translate(182.275391 0)"/>
      <use xlink:href="#DejaVuSans-61" transform="translate(279.6875 0)"/>
      <use xlink:href="#DejaVuSans-74" transform="translate(340.966797 0)"/>
      <use xlink:href="#DejaVuSans-69" transform="translate(380.175781 0)"/>
      <use xlink:href="#DejaVuSans-6f" transform="translate(407.958984 0)"/>
      <use xlink:href="#DejaVuSans-6e" transform="translate(469.140625 0)"/>
      <use xlink:href="#DejaVuSans-20" transform="translate(532.519531 0)"/>
      <use xlink:href="#DejaVuSans-4c" transform="translate(564.306641 0)"/>
      <use xlink:href="#DejaVuSans-6f" transform="translate(618.269531 0)"/>
      <use xlink:href="#DejaVuSans-73" transform="translate(679.451172 0)"/>
      <use xlink:href="#DejaVuSans-73" transform="translate(731.550781 0)"/>
     </g>
    </g>
   </g>
   <g id="line2d_12">
    <path d="M 115.363636 83.801376 
L 117.060201 272.999691 
L 118.756765 285.858315 
L 120.453329 291.479633 
L 122.149894 294.331089 
L 123.846458 296.289465 
L 125.543022 297.813075 
L 128.936151 299.834075 
L 132.329279 300.957059 
L 137.418972 302.317045 
L 147.598358 303.792941 
L 159.474308 304.766268 
L 169.653694 305.336032 
L 176.439951 305.618489 
L 184.922773 305.928985 
L 215.46093 306.629977 
L 240.909395 306.985429 
L 324.041046 307.455055 
L 420.745211 307.618027 
L 432.621161 307.630991 
L 476.731833 307.636127 
L 524.235634 307.659429 
L 547.987534 307.664198 
L 566.649742 307.685923 
L 622.636364 307.711939 
L 622.636364 307.711939 
" clip-path="url(#p8286c13d36)" style="fill: none; stroke: #1f77b4; stroke-width: 1.5; stroke-linecap: square"/>
   </g>
   <g id="line2d_13">
    <path d="M 115.363636 55.8 
L 117.060201 257.214692 
L 118.756765 274.597646 
L 120.453329 281.729631 
L 122.149894 285.597466 
L 123.846458 288.385063 
L 125.543022 290.267889 
L 127.239587 291.850863 
L 128.936151 293.081397 
L 130.632715 294.04842 
L 132.329279 294.738484 
L 134.025844 295.225017 
L 137.418972 296.391191 
L 140.812101 297.1925 
L 147.598358 298.566357 
L 159.474308 299.935731 
L 176.439951 301.071656 
L 184.922773 301.454754 
L 212.067802 302.311675 
L 254.481909 303.031368 
L 278.23381 303.244581 
L 357.972332 303.757777 
L 383.420797 303.872347 
L 393.600182 303.970146 
L 449.586804 304.262635 
L 469.945576 304.310187 
L 485.214655 304.351861 
L 507.269991 304.425067 
L 529.325327 304.441832 
L 539.504713 304.455447 
L 615.850106 304.587871 
L 622.636364 304.56971 
L 622.636364 304.56971 
" clip-path="url(#p8286c13d36)" style="fill: none; stroke: #ff7f0e; stroke-width: 1.5; stroke-linecap: square"/>
   </g>
   <g id="line2d_14">
    <path d="M 115.363636 265.082798 
L 117.060201 281.667674 
L 118.756765 296.263443 
L 120.453329 295.017856 
L 122.149894 297.691904 
L 125.543022 300.735288 
L 127.239587 301.186016 
L 128.936151 299.173355 
L 130.632715 302.91816 
L 132.329279 301.676237 
L 134.025844 303.258348 
L 135.722408 302.119898 
L 137.418972 304.032214 
L 139.115537 303.497186 
L 140.812101 304.532057 
L 142.508665 303.956372 
L 144.20523 304.44342 
L 145.901794 304.44839 
L 147.598358 304.576609 
L 149.294922 305.080335 
L 152.688051 305.024003 
L 154.384615 304.507318 
L 156.08118 305.007299 
L 157.777744 305.091499 
L 159.474308 305.590094 
L 161.170873 305.308971 
L 164.564001 305.558333 
L 166.260566 304.928595 
L 169.653694 305.87063 
L 171.350258 306.024418 
L 173.046823 305.720745 
L 174.743387 305.704075 
L 176.439951 306.070192 
L 179.83308 306.396241 
L 181.529644 306.292356 
L 183.226209 306.36967 
L 184.922773 306.085886 
L 186.619337 306.375698 
L 188.315901 306.310595 
L 190.012466 306.396386 
L 191.70903 306.21287 
L 193.405594 306.479627 
L 195.102159 306.37535 
L 196.798723 306.439884 
L 198.495287 306.657726 
L 200.191852 306.375537 
L 205.281545 306.854224 
L 206.978109 306.515354 
L 208.674673 306.564621 
L 212.067802 306.845807 
L 215.46093 306.839912 
L 217.157495 306.978973 
L 220.550623 306.836529 
L 222.247188 307.053534 
L 225.640316 307.016468 
L 229.033445 307.248905 
L 240.909395 307.225818 
L 244.302524 307.271411 
L 271.447552 307.329007 
L 273.144117 307.477718 
L 274.840681 307.318219 
L 283.323503 307.515809 
L 363.062025 307.489825 
L 368.151718 307.567078 
L 373.241411 307.512002 
L 374.937975 307.582852 
L 376.634539 307.495029 
L 380.027668 307.570138 
L 386.813925 307.655107 
L 390.207054 307.564203 
L 391.903618 307.650036 
L 393.600182 307.596329 
L 395.296747 307.656288 
L 396.993311 307.577588 
L 402.083004 307.66787 
L 583.615385 307.738402 
L 585.311949 307.595212 
L 587.008513 307.721444 
L 588.705078 307.65774 
L 590.401642 307.797783 
L 592.098206 307.633944 
L 593.79477 307.770331 
L 595.491335 307.600013 
L 598.884463 307.789633 
L 600.581028 307.621788 
L 602.277592 307.792215 
L 607.367285 307.638295 
L 609.063849 307.8 
L 615.850106 307.677563 
L 617.546671 307.769252 
L 622.636364 307.645746 
L 622.636364 307.645746 
" clip-path="url(#p8286c13d36)" style="fill: none; stroke: #2ca02c; stroke-width: 1.5; stroke-linecap: square"/>
   </g>
   <g id="line2d_15">
    <path d="M 115.363636 235.732119 
L 117.060201 264.515998 
L 118.756765 283.240621 
L 120.453329 284.301355 
L 122.149894 287.06565 
L 123.846458 291.603722 
L 125.543022 292.749641 
L 127.239587 293.12703 
L 128.936151 292.035682 
L 130.632715 295.525212 
L 132.329279 296.009016 
L 134.025844 295.948706 
L 135.722408 294.609016 
L 137.418972 297.692152 
L 139.115537 296.906215 
L 140.812101 298.859723 
L 142.508665 298.512624 
L 144.20523 299.048492 
L 145.901794 298.851319 
L 147.598358 298.809246 
L 149.294922 300.007342 
L 150.991487 299.556023 
L 152.688051 299.429516 
L 156.08118 300.162037 
L 157.777744 299.854995 
L 159.474308 300.611382 
L 161.170873 300.08674 
L 162.867437 300.755465 
L 164.564001 300.809617 
L 166.260566 298.864702 
L 167.95713 300.724719 
L 171.350258 301.277722 
L 174.743387 300.870182 
L 176.439951 300.950011 
L 178.136516 301.702718 
L 179.83308 301.45662 
L 183.226209 301.797005 
L 184.922773 301.071612 
L 188.315901 301.864195 
L 190.012466 301.774593 
L 191.70903 301.202563 
L 193.405594 301.794132 
L 195.102159 301.464314 
L 196.798723 301.537714 
L 198.495287 302.121036 
L 200.191852 301.457574 
L 201.888416 301.640348 
L 203.58498 302.363365 
L 205.281545 301.990614 
L 206.978109 301.789593 
L 208.674673 301.853538 
L 212.067802 302.390079 
L 213.764366 302.279811 
L 215.46093 302.001385 
L 217.157495 302.336726 
L 218.854059 302.446254 
L 220.550623 302.302155 
L 222.247188 302.604924 
L 225.640316 302.210611 
L 227.336881 302.550169 
L 230.730009 302.792853 
L 232.426573 302.52902 
L 234.123138 302.690309 
L 235.819702 302.634405 
L 237.516266 302.779208 
L 239.212831 302.777737 
L 240.909395 302.55605 
L 242.605959 302.8615 
L 244.302524 302.94049 
L 245.999088 302.732466 
L 249.392216 302.95058 
L 254.481909 302.949348 
L 256.178474 302.727466 
L 262.964731 303.007489 
L 264.661295 302.88081 
L 268.054424 303.045241 
L 269.750988 302.811577 
L 271.447552 302.942012 
L 273.144117 303.194599 
L 274.840681 302.862876 
L 276.537245 303.252972 
L 279.930374 302.92916 
L 281.626938 303.341479 
L 283.323503 303.21483 
L 290.10976 303.246727 
L 293.502888 303.402401 
L 295.199453 303.428651 
L 296.896017 303.269218 
L 298.592581 303.514768 
L 300.289146 303.446611 
L 305.378839 303.53412 
L 313.86166 303.467936 
L 317.254789 303.450092 
L 318.951353 303.509679 
L 322.344482 303.450931 
L 327.434175 303.474536 
L 330.827303 303.472534 
L 390.207054 303.77696 
L 391.903618 303.881685 
L 393.600182 303.813688 
L 395.296747 303.905332 
L 396.993311 303.838318 
L 402.083004 303.958144 
L 424.13834 304.06912 
L 425.834904 303.930246 
L 427.531469 304.003191 
L 429.228033 303.888164 
L 430.924597 303.977277 
L 434.317726 303.920669 
L 439.407419 304.10436 
L 441.103983 303.92944 
L 444.497112 304.039509 
L 447.89024 304.115157 
L 451.283369 303.928175 
L 454.676497 304.139817 
L 456.373062 304.021283 
L 458.069626 304.032515 
L 459.76619 304.159939 
L 461.462755 304.127951 
L 463.159319 304.230225 
L 469.945576 304.039175 
L 471.64214 304.199714 
L 473.338705 304.086772 
L 475.035269 304.177579 
L 476.731833 304.108369 
L 478.428398 304.171607 
L 481.821526 304.078714 
L 483.518091 304.228196 
L 485.214655 304.077121 
L 486.911219 304.227004 
L 490.304348 304.299814 
L 492.000912 304.391492 
L 497.090605 304.356497 
L 502.180298 304.336343 
L 503.876862 304.401509 
L 508.966555 304.302523 
L 510.663119 304.383752 
L 512.359684 304.343554 
L 514.056248 304.420473 
L 515.752812 304.237276 
L 517.449377 304.402717 
L 522.53907 304.388875 
L 524.235634 304.222688 
L 527.628763 304.411923 
L 529.325327 304.44288 
L 531.021891 304.340145 
L 532.718455 304.403517 
L 534.41502 304.280598 
L 539.504713 304.463239 
L 547.987534 304.342608 
L 551.380663 304.446715 
L 554.773791 304.434782 
L 580.222256 304.425735 
L 581.91882 304.32982 
L 583.615385 304.513317 
L 585.311949 304.348893 
L 587.008513 304.482609 
L 592.098206 304.40477 
L 593.79477 304.462349 
L 595.491335 304.305392 
L 597.187899 304.571174 
L 598.884463 304.541194 
L 600.581028 304.388031 
L 603.974156 304.468069 
L 607.367285 304.364239 
L 609.063849 304.593889 
L 614.153542 304.415804 
L 617.546671 304.499492 
L 622.636364 304.397358 
L 622.636364 304.397358 
" clip-path="url(#p8286c13d36)" style="fill: none; stroke: #d62728; stroke-width: 1.5; stroke-linecap: square"/>
   </g>
   <g id="patch_3">
    <path d="M 90 320.4 
L 90 43.2 
" style="fill: none; stroke: #000000; stroke-width: 0.8; stroke-linejoin: miter; stroke-linecap: square"/>
   </g>
   <g id="patch_4">
    <path d="M 648 320.4 
L 648 43.2 
" style="fill: none; stroke: #000000; stroke-width: 0.8; stroke-linejoin: miter; stroke-linecap: square"/>
   </g>
   <g id="patch_5">
    <path d="M 90 320.4 
L 648 320.4 
" style="fill: none; stroke: #000000; stroke-width: 0.8; stroke-linejoin: miter; stroke-linecap: square"/>
   </g>
   <g id="patch_6">
    <path d="M 90 43.2 
L 648 43.2 
" style="fill: none; stroke: #000000; stroke-width: 0.8; stroke-linejoin: miter; stroke-linecap: square"/>
   </g>
   <g id="text_14">
    <!-- Training and Validating Estimation Loss -->
    <g transform="translate(251.535937 37.2) scale(0.12 -0.12)">
     <defs>
      <path id="DejaVuSans-54" d="M -19 4666 
L 3928 4666 
L 3928 4134 
L 2272 4134 
L 2272 0 
L 1638 0 
L 1638 4134 
L -19 4134 
L -19 4666 
z
" transform="scale(0.015625)"/>
      <path id="DejaVuSans-72" d="M 2631 2963 
Q 2534 3019 2420 3045 
Q 2306 3072 2169 3072 
Q 1681 3072 1420 2755 
Q 1159 2438 1159 1844 
L 1159 0 
L 581 0 
L 581 3500 
L 1159 3500 
L 1159 2956 
Q 1341 3275 1631 3429 
Q 1922 3584 2338 3584 
Q 2397 3584 2469 3576 
Q 2541 3569 2628 3553 
L 2631 2963 
z
" transform="scale(0.015625)"/>
      <path id="DejaVuSans-67" d="M 2906 1791 
Q 2906 2416 2648 2759 
Q 2391 3103 1925 3103 
Q 1463 3103 1205 2759 
Q 947 2416 947 1791 
Q 947 1169 1205 825 
Q 1463 481 1925 481 
Q 2391 481 2648 825 
Q 2906 1169 2906 1791 
z
M 3481 434 
Q 3481 -459 3084 -895 
Q 2688 -1331 1869 -1331 
Q 1566 -1331 1297 -1286 
Q 1028 -1241 775 -1147 
L 775 -588 
Q 1028 -725 1275 -790 
Q 1522 -856 1778 -856 
Q 2344 -856 2625 -561 
Q 2906 -266 2906 331 
L 2906 616 
Q 2728 306 2450 153 
Q 2172 0 1784 0 
Q 1141 0 747 490 
Q 353 981 353 1791 
Q 353 2603 747 3093 
Q 1141 3584 1784 3584 
Q 2172 3584 2450 3431 
Q 2728 3278 2906 2969 
L 2906 3500 
L 3481 3500 
L 3481 434 
z
" transform="scale(0.015625)"/>
      <path id="DejaVuSans-64" d="M 2906 2969 
L 2906 4863 
L 3481 4863 
L 3481 0 
L 2906 0 
L 2906 525 
Q 2725 213 2448 61 
Q 2172 -91 1784 -91 
Q 1150 -91 751 415 
Q 353 922 353 1747 
Q 353 2572 751 3078 
Q 1150 3584 1784 3584 
Q 2172 3584 2448 3432 
Q 2725 3281 2906 2969 
z
M 947 1747 
Q 947 1113 1208 752 
Q 1469 391 1925 391 
Q 2381 391 2643 752 
Q 2906 1113 2906 1747 
Q 2906 2381 2643 2742 
Q 2381 3103 1925 3103 
Q 1469 3103 1208 2742 
Q 947 2381 947 1747 
z
" transform="scale(0.015625)"/>
      <path id="DejaVuSans-56" d="M 1831 0 
L 50 4666 
L 709 4666 
L 2188 738 
L 3669 4666 
L 4325 4666 
L 2547 0 
L 1831 0 
z
" transform="scale(0.015625)"/>
      <path id="DejaVuSans-6c" d="M 603 4863 
L 1178 4863 
L 1178 0 
L 603 0 
L 603 4863 
z
" transform="scale(0.015625)"/>
     </defs>
     <use xlink:href="#DejaVuSans-54"/>
     <use xlink:href="#DejaVuSans-72" transform="translate(46.333984 0)"/>
     <use xlink:href="#DejaVuSans-61" transform="translate(87.447266 0)"/>
     <use xlink:href="#DejaVuSans-69" transform="translate(148.726562 0)"/>
     <use xlink:href="#DejaVuSans-6e" transform="translate(176.509766 0)"/>
     <use xlink:href="#DejaVuSans-69" transform="translate(239.888672 0)"/>
     <use xlink:href="#DejaVuSans-6e" transform="translate(267.671875 0)"/>
     <use xlink:href="#DejaVuSans-67" transform="translate(331.050781 0)"/>
     <use xlink:href="#DejaVuSans-20" transform="translate(394.527344 0)"/>
     <use xlink:href="#DejaVuSans-61" transform="translate(426.314453 0)"/>
     <use xlink:href="#DejaVuSans-6e" transform="translate(487.59375 0)"/>
     <use xlink:href="#DejaVuSans-64" transform="translate(550.972656 0)"/>
     <use xlink:href="#DejaVuSans-20" transform="translate(614.449219 0)"/>
     <use xlink:href="#DejaVuSans-56" transform="translate(646.236328 0)"/>
     <use xlink:href="#DejaVuSans-61" transform="translate(706.894531 0)"/>
     <use xlink:href="#DejaVuSans-6c" transform="translate(768.173828 0)"/>
     <use xlink:href="#DejaVuSans-69" transform="translate(795.957031 0)"/>
     <use xlink:href="#DejaVuSans-64" transform="translate(823.740234 0)"/>
     <use xlink:href="#DejaVuSans-61" transform="translate(887.216797 0)"/>
     <use xlink:href="#DejaVuSans-74" transform="translate(948.496094 0)"/>
     <use xlink:href="#DejaVuSans-69" transform="translate(987.705078 0)"/>
     <use xlink:href="#DejaVuSans-6e" transform="translate(1015.488281 0)"/>
     <use xlink:href="#DejaVuSans-67" transform="translate(1078.867188 0)"/>
     <use xlink:href="#DejaVuSans-20" transform="translate(1142.34375 0)"/>
     <use xlink:href="#DejaVuSans-45" transform="translate(1174.130859 0)"/>
     <use xlink:href="#DejaVuSans-73" transform="translate(1237.314453 0)"/>
     <use xlink:href="#DejaVuSans-74" transform="translate(1289.414062 0)"/>
     <use xlink:href="#DejaVuSans-69" transform="translate(1328.623047 0)"/>
     <use xlink:href="#DejaVuSans-6d" transform="translate(1356.40625 0)"/>
     <use xlink:href="#DejaVuSans-61" transform="translate(1453.818359 0)"/>
     <use xlink:href="#DejaVuSans-74" transform="translate(1515.097656 0)"/>
     <use xlink:href="#DejaVuSans-69" transform="translate(1554.306641 0)"/>
     <use xlink:href="#DejaVuSans-6f" transform="translate(1582.089844 0)"/>
     <use xlink:href="#DejaVuSans-6e" transform="translate(1643.271484 0)"/>
     <use xlink:href="#DejaVuSans-20" transform="translate(1706.650391 0)"/>
     <use xlink:href="#DejaVuSans-4c" transform="translate(1738.4375 0)"/>
     <use xlink:href="#DejaVuSans-6f" transform="translate(1792.400391 0)"/>
     <use xlink:href="#DejaVuSans-73" transform="translate(1853.582031 0)"/>
     <use xlink:href="#DejaVuSans-73" transform="translate(1905.681641 0)"/>
    </g>
   </g>
   <g id="legend_1">
    <g id="patch_7">
     <path d="M 521.439062 109.9125 
L 641 109.9125 
Q 643 109.9125 643 107.9125 
L 643 50.2 
Q 643 48.2 641 48.2 
L 521.439062 48.2 
Q 519.439062 48.2 519.439062 50.2 
L 519.439062 107.9125 
Q 519.439062 109.9125 521.439062 109.9125 
z
" style="fill: #ffffff; opacity: 0.8; stroke: #cccccc; stroke-linejoin: miter"/>
    </g>
    <g id="line2d_16">
     <path d="M 523.439062 56.298437 
L 533.439062 56.298437 
L 543.439062 56.298437 
" style="fill: none; stroke: #1f77b4; stroke-width: 1.5; stroke-linecap: square"/>
    </g>
    <g id="text_15">
     <!-- Training-Source -->
     <g transform="translate(551.439062 59.798437) scale(0.1 -0.1)">
      <defs>
       <path id="DejaVuSans-2d" d="M 313 2009 
L 1997 2009 
L 1997 1497 
L 313 1497 
L 313 2009 
z
" transform="scale(0.015625)"/>
       <path id="DejaVuSans-53" d="M 3425 4513 
L 3425 3897 
Q 3066 4069 2747 4153 
Q 2428 4238 2131 4238 
Q 1616 4238 1336 4038 
Q 1056 3838 1056 3469 
Q 1056 3159 1242 3001 
Q 1428 2844 1947 2747 
L 2328 2669 
Q 3034 2534 3370 2195 
Q 3706 1856 3706 1288 
Q 3706 609 3251 259 
Q 2797 -91 1919 -91 
Q 1588 -91 1214 -16 
Q 841 59 441 206 
L 441 856 
Q 825 641 1194 531 
Q 1563 422 1919 422 
Q 2459 422 2753 634 
Q 3047 847 3047 1241 
Q 3047 1584 2836 1778 
Q 2625 1972 2144 2069 
L 1759 2144 
Q 1053 2284 737 2584 
Q 422 2884 422 3419 
Q 422 4038 858 4394 
Q 1294 4750 2059 4750 
Q 2388 4750 2728 4690 
Q 3069 4631 3425 4513 
z
" transform="scale(0.015625)"/>
       <path id="DejaVuSans-75" d="M 544 1381 
L 544 3500 
L 1119 3500 
L 1119 1403 
Q 1119 906 1312 657 
Q 1506 409 1894 409 
Q 2359 409 2629 706 
Q 2900 1003 2900 1516 
L 2900 3500 
L 3475 3500 
L 3475 0 
L 2900 0 
L 2900 538 
Q 2691 219 2414 64 
Q 2138 -91 1772 -91 
Q 1169 -91 856 284 
Q 544 659 544 1381 
z
M 1991 3584 
L 1991 3584 
z
" transform="scale(0.015625)"/>
       <path id="DejaVuSans-65" d="M 3597 1894 
L 3597 1613 
L 953 1613 
Q 991 1019 1311 708 
Q 1631 397 2203 397 
Q 2534 397 2845 478 
Q 3156 559 3463 722 
L 3463 178 
Q 3153 47 2828 -22 
Q 2503 -91 2169 -91 
Q 1331 -91 842 396 
Q 353 884 353 1716 
Q 353 2575 817 3079 
Q 1281 3584 2069 3584 
Q 2775 3584 3186 3129 
Q 3597 2675 3597 1894 
z
M 3022 2063 
Q 3016 2534 2758 2815 
Q 2500 3097 2075 3097 
Q 1594 3097 1305 2825 
Q 1016 2553 972 2059 
L 3022 2063 
z
" transform="scale(0.015625)"/>
      </defs>
      <use xlink:href="#DejaVuSans-54"/>
      <use xlink:href="#DejaVuSans-72" transform="translate(46.333984 0)"/>
      <use xlink:href="#DejaVuSans-61" transform="translate(87.447266 0)"/>
      <use xlink:href="#DejaVuSans-69" transform="translate(148.726562 0)"/>
      <use xlink:href="#DejaVuSans-6e" transform="translate(176.509766 0)"/>
      <use xlink:href="#DejaVuSans-69" transform="translate(239.888672 0)"/>
      <use xlink:href="#DejaVuSans-6e" transform="translate(267.671875 0)"/>
      <use xlink:href="#DejaVuSans-67" transform="translate(331.050781 0)"/>
      <use xlink:href="#DejaVuSans-2d" transform="translate(394.527344 0)"/>
      <use xlink:href="#DejaVuSans-53" transform="translate(430.611328 0)"/>
      <use xlink:href="#DejaVuSans-6f" transform="translate(494.087891 0)"/>
      <use xlink:href="#DejaVuSans-75" transform="translate(555.269531 0)"/>
      <use xlink:href="#DejaVuSans-72" transform="translate(618.648438 0)"/>
      <use xlink:href="#DejaVuSans-63" transform="translate(657.511719 0)"/>
      <use xlink:href="#DejaVuSans-65" transform="translate(712.492188 0)"/>
     </g>
    </g>
    <g id="line2d_17">
     <path d="M 523.439062 70.976562 
L 533.439062 70.976562 
L 543.439062 70.976562 
" style="fill: none; stroke: #ff7f0e; stroke-width: 1.5; stroke-linecap: square"/>
    </g>
    <g id="text_16">
     <!-- Training-Target -->
     <g transform="translate(551.439062 74.476562) scale(0.1 -0.1)">
      <use xlink:href="#DejaVuSans-54"/>
      <use xlink:href="#DejaVuSans-72" transform="translate(46.333984 0)"/>
      <use xlink:href="#DejaVuSans-61" transform="translate(87.447266 0)"/>
      <use xlink:href="#DejaVuSans-69" transform="translate(148.726562 0)"/>
      <use xlink:href="#DejaVuSans-6e" transform="translate(176.509766 0)"/>
      <use xlink:href="#DejaVuSans-69" transform="translate(239.888672 0)"/>
      <use xlink:href="#DejaVuSans-6e" transform="translate(267.671875 0)"/>
      <use xlink:href="#DejaVuSans-67" transform="translate(331.050781 0)"/>
      <use xlink:href="#DejaVuSans-2d" transform="translate(394.527344 0)"/>
      <use xlink:href="#DejaVuSans-54" transform="translate(421.486328 0)"/>
      <use xlink:href="#DejaVuSans-61" transform="translate(466.070312 0)"/>
      <use xlink:href="#DejaVuSans-72" transform="translate(527.349609 0)"/>
      <use xlink:href="#DejaVuSans-67" transform="translate(566.712891 0)"/>
      <use xlink:href="#DejaVuSans-65" transform="translate(630.189453 0)"/>
      <use xlink:href="#DejaVuSans-74" transform="translate(691.712891 0)"/>
     </g>
    </g>
    <g id="line2d_18">
     <path d="M 523.439062 85.654687 
L 533.439062 85.654687 
L 543.439062 85.654687 
" style="fill: none; stroke: #2ca02c; stroke-width: 1.5; stroke-linecap: square"/>
    </g>
    <g id="text_17">
     <!-- Validating-Source -->
     <g transform="translate(551.439062 89.154687) scale(0.1 -0.1)">
      <use xlink:href="#DejaVuSans-56"/>
      <use xlink:href="#DejaVuSans-61" transform="translate(60.658203 0)"/>
      <use xlink:href="#DejaVuSans-6c" transform="translate(121.9375 0)"/>
      <use xlink:href="#DejaVuSans-69" transform="translate(149.720703 0)"/>
      <use xlink:href="#DejaVuSans-64" transform="translate(177.503906 0)"/>
      <use xlink:href="#DejaVuSans-61" transform="translate(240.980469 0)"/>
      <use xlink:href="#DejaVuSans-74" transform="translate(302.259766 0)"/>
      <use xlink:href="#DejaVuSans-69" transform="translate(341.46875 0)"/>
      <use xlink:href="#DejaVuSans-6e" transform="translate(369.251953 0)"/>
      <use xlink:href="#DejaVuSans-67" transform="translate(432.630859 0)"/>
      <use xlink:href="#DejaVuSans-2d" transform="translate(496.107422 0)"/>
      <use xlink:href="#DejaVuSans-53" transform="translate(532.191406 0)"/>
      <use xlink:href="#DejaVuSans-6f" transform="translate(595.667969 0)"/>
      <use xlink:href="#DejaVuSans-75" transform="translate(656.849609 0)"/>
      <use xlink:href="#DejaVuSans-72" transform="translate(720.228516 0)"/>
      <use xlink:href="#DejaVuSans-63" transform="translate(759.091797 0)"/>
      <use xlink:href="#DejaVuSans-65" transform="translate(814.072266 0)"/>
     </g>
    </g>
    <g id="line2d_19">
     <path d="M 523.439062 100.332812 
L 533.439062 100.332812 
L 543.439062 100.332812 
" style="fill: none; stroke: #d62728; stroke-width: 1.5; stroke-linecap: square"/>
    </g>
    <g id="text_18">
     <!-- Validating-Target -->
     <g transform="translate(551.439062 103.832812) scale(0.1 -0.1)">
      <use xlink:href="#DejaVuSans-56"/>
      <use xlink:href="#DejaVuSans-61" transform="translate(60.658203 0)"/>
      <use xlink:href="#DejaVuSans-6c" transform="translate(121.9375 0)"/>
      <use xlink:href="#DejaVuSans-69" transform="translate(149.720703 0)"/>
      <use xlink:href="#DejaVuSans-64" transform="translate(177.503906 0)"/>
      <use xlink:href="#DejaVuSans-61" transform="translate(240.980469 0)"/>
      <use xlink:href="#DejaVuSans-74" transform="translate(302.259766 0)"/>
      <use xlink:href="#DejaVuSans-69" transform="translate(341.46875 0)"/>
      <use xlink:href="#DejaVuSans-6e" transform="translate(369.251953 0)"/>
      <use xlink:href="#DejaVuSans-67" transform="translate(432.630859 0)"/>
      <use xlink:href="#DejaVuSans-2d" transform="translate(496.107422 0)"/>
      <use xlink:href="#DejaVuSans-54" transform="translate(523.066406 0)"/>
      <use xlink:href="#DejaVuSans-61" transform="translate(567.650391 0)"/>
      <use xlink:href="#DejaVuSans-72" transform="translate(628.929688 0)"/>
      <use xlink:href="#DejaVuSans-67" transform="translate(668.292969 0)"/>
      <use xlink:href="#DejaVuSans-65" transform="translate(731.769531 0)"/>
      <use xlink:href="#DejaVuSans-74" transform="translate(793.292969 0)"/>
     </g>
    </g>
   </g>
  </g>
 </g>
 <defs>
  <clipPath id="p8286c13d36">
   <rect x="90" y="43.2" width="558" height="277.2"/>
  </clipPath>
 </defs>
</svg>
