<?xml version="1.0" encoding="utf-8" standalone="no"?>
<!DOCTYPE svg PUBLIC "-//W3C//DTD SVG 1.1//EN"
  "http://www.w3.org/Graphics/SVG/1.1/DTD/svg11.dtd">
<svg xmlns:xlink="http://www.w3.org/1999/xlink" width="720pt" height="360pt" viewBox="0 0 720 360" xmlns="http://www.w3.org/2000/svg" version="1.1">
 <metadata>
  <rdf:RDF xmlns:dc="http://purl.org/dc/elements/1.1/" xmlns:cc="http://creativecommons.org/ns#" xmlns:rdf="http://www.w3.org/1999/02/22-rdf-syntax-ns#">
   <cc:Work>
    <dc:type rdf:resource="http://purl.org/dc/dcmitype/StillImage"/>
    <dc:date>2025-12-04T19:48:25.582822</dc:date>
    <dc:format>image/svg+xml</dc:format>
    <dc:creator>
     <cc:Agent>
      <dc:title>Matplotlib v3.10.1, https://matplotlib.org/</dc:title>
     </cc:Agent>
    </dc:creator>
   </cc:Work>
  </rdf:RDF>
 </metadata>
 <defs>
  <style type="text/css">*{stroke-linejoin: round; stroke-linecap: butt}</style>
 </defs>
 <g id="figure_1">
  <g id="patch_1">
   <path d="M 0 360 
L 720 360 
L 720 0 
L 0 0 
z
" style="fill: #ffffff"/>
  </g>
  <g id="axes_1">
   <g id="patch_2">
    <path d="M 90 320.4 
L 648 320.4 
L 648 43.2 
L 90 43.2 
z
" style="fill: #ffffff"/>
   </g>
   <g id="matplotlib.axis_1">
    <g id="xtick_1">
     <g id="line2d_1">
      <defs>
       <path id="m6d86509474" d="M 0 0 
L 0 3.5 
" style="stroke: #000000; stroke-width: 0.8"/>
      </defs>
      <g>
       <use xlink:href="#m6d86509474" x="115.363636" y="320.4" style="stroke: #000000; stroke-width: 0.8"/>
      </g>
     </g>
     <g id="text_1">
      <!-- 0 -->
      <g transform="translate(112.182386 334.998438) scale(0.1 -0.1)">
       <defs>
        <path id="DejaVuSans-30" d="M 2034 4250 
Q 1547 4250 1301 3770 
Q 1056 3291 1056 2328 
Q 1056 1369 1301 889 
Q 1547 409 2034 409 
Q 2525 409 2770 889 
Q 3016 1369 3016 2328 
Q 3016 3291 2770 3770 
Q 2525 4250 2034 4250 
z
M 2034 4750 
Q 2819 4750 3233 4129 
Q 3647 3509 3647 2328 
Q 3647 1150 3233 529 
Q 2819 -91 2034 -91 
Q 1250 -91 836 529 
Q 422 1150 422 2328 
Q 422 3509 836 4129 
Q 1250 4750 2034 4750 
z
" transform="scale(0.015625)"/>
       </defs>
       <use xlink:href="#DejaVuSans-30"/>
      </g>
     </g>
    </g>
    <g id="xtick_2">
     <g id="line2d_2">
      <g>
       <use xlink:href="#m6d86509474" x="217.157495" y="320.4" style="stroke: #000000; stroke-width: 0.8"/>
      </g>
     </g>
     <g id="text_2">
      <!-- 60 -->
      <g transform="translate(210.794995 334.998438) scale(0.1 -0.1)">
       <defs>
        <path id="DejaVuSans-36" d="M 2113 2584 
Q 1688 2584 1439 2293 
Q 1191 2003 1191 1497 
Q 1191 994 1439 701 
Q 1688 409 2113 409 
Q 2538 409 2786 701 
Q 3034 994 3034 1497 
Q 3034 2003 2786 2293 
Q 2538 2584 2113 2584 
z
M 3366 4563 
L 3366 3988 
Q 3128 4100 2886 4159 
Q 2644 4219 2406 4219 
Q 1781 4219 1451 3797 
Q 1122 3375 1075 2522 
Q 1259 2794 1537 2939 
Q 1816 3084 2150 3084 
Q 2853 3084 3261 2657 
Q 3669 2231 3669 1497 
Q 3669 778 3244 343 
Q 2819 -91 2113 -91 
Q 1303 -91 875 529 
Q 447 1150 447 2328 
Q 447 3434 972 4092 
Q 1497 4750 2381 4750 
Q 2619 4750 2861 4703 
Q 3103 4656 3366 4563 
z
" transform="scale(0.015625)"/>
       </defs>
       <use xlink:href="#DejaVuSans-36"/>
       <use xlink:href="#DejaVuSans-30" transform="translate(63.623047 0)"/>
      </g>
     </g>
    </g>
    <g id="xtick_3">
     <g id="line2d_3">
      <g>
       <use xlink:href="#m6d86509474" x="318.951353" y="320.4" style="stroke: #000000; stroke-width: 0.8"/>
      </g>
     </g>
     <g id="text_3">
      <!-- 120 -->
      <g transform="translate(309.407603 334.998438) scale(0.1 -0.1)">
       <defs>
        <path id="DejaVuSans-31" d="M 794 531 
L 1825 531 
L 1825 4091 
L 703 3866 
L 703 4441 
L 1819 4666 
L 2450 4666 
L 2450 531 
L 3481 531 
L 3481 0 
L 794 0 
L 794 531 
z
" transform="scale(0.015625)"/>
        <path id="DejaVuSans-32" d="M 1228 531 
L 3431 531 
L 3431 0 
L 469 0 
L 469 531 
Q 828 903 1448 1529 
Q 2069 2156 2228 2338 
Q 2531 2678 2651 2914 
Q 2772 3150 2772 3378 
Q 2772 3750 2511 3984 
Q 2250 4219 1831 4219 
Q 1534 4219 1204 4116 
Q 875 4013 500 3803 
L 500 4441 
Q 881 4594 1212 4672 
Q 1544 4750 1819 4750 
Q 2544 4750 2975 4387 
Q 3406 4025 3406 3419 
Q 3406 3131 3298 2873 
Q 3191 2616 2906 2266 
Q 2828 2175 2409 1742 
Q 1991 1309 1228 531 
z
" transform="scale(0.015625)"/>
       </defs>
       <use xlink:href="#DejaVuSans-31"/>
       <use xlink:href="#DejaVuSans-32" transform="translate(63.623047 0)"/>
       <use xlink:href="#DejaVuSans-30" transform="translate(127.246094 0)"/>
      </g>
     </g>
    </g>
    <g id="xtick_4">
     <g id="line2d_4">
      <g>
       <use xlink:href="#m6d86509474" x="420.745211" y="320.4" style="stroke: #000000; stroke-width: 0.8"/>
      </g>
     </g>
     <g id="text_4">
      <!-- 180 -->
      <g transform="translate(411.201461 334.998438) scale(0.1 -0.1)">
       <defs>
        <path id="DejaVuSans-38" d="M 2034 2216 
Q 1584 2216 1326 1975 
Q 1069 1734 1069 1313 
Q 1069 891 1326 650 
Q 1584 409 2034 409 
Q 2484 409 2743 651 
Q 3003 894 3003 1313 
Q 3003 1734 2745 1975 
Q 2488 2216 2034 2216 
z
M 1403 2484 
Q 997 2584 770 2862 
Q 544 3141 544 3541 
Q 544 4100 942 4425 
Q 1341 4750 2034 4750 
Q 2731 4750 3128 4425 
Q 3525 4100 3525 3541 
Q 3525 3141 3298 2862 
Q 3072 2584 2669 2484 
Q 3125 2378 3379 2068 
Q 3634 1759 3634 1313 
Q 3634 634 3220 271 
Q 2806 -91 2034 -91 
Q 1263 -91 848 271 
Q 434 634 434 1313 
Q 434 1759 690 2068 
Q 947 2378 1403 2484 
z
M 1172 3481 
Q 1172 3119 1398 2916 
Q 1625 2713 2034 2713 
Q 2441 2713 2670 2916 
Q 2900 3119 2900 3481 
Q 2900 3844 2670 4047 
Q 2441 4250 2034 4250 
Q 1625 4250 1398 4047 
Q 1172 3844 1172 3481 
z
" transform="scale(0.015625)"/>
       </defs>
       <use xlink:href="#DejaVuSans-31"/>
       <use xlink:href="#DejaVuSans-38" transform="translate(63.623047 0)"/>
       <use xlink:href="#DejaVuSans-30" transform="translate(127.246094 0)"/>
      </g>
     </g>
    </g>
    <g id="xtick_5">
     <g id="line2d_5">
      <g>
       <use xlink:href="#m6d86509474" x="522.53907" y="320.4" style="stroke: #000000; stroke-width: 0.8"/>
      </g>
     </g>
     <g id="text_5">
      <!-- 240 -->
      <g transform="translate(512.99532 334.998438) scale(0.1 -0.1)">
       <defs>
        <path id="DejaVuSans-34" d="M 2419 4116 
L 825 1625 
L 2419 1625 
L 2419 4116 
z
M 2253 4666 
L 3047 4666 
L 3047 1625 
L 3713 1625 
L 3713 1100 
L 3047 1100 
L 3047 0 
L 2419 0 
L 2419 1100 
L 313 1100 
L 313 1709 
L 2253 4666 
z
" transform="scale(0.015625)"/>
       </defs>
       <use xlink:href="#DejaVuSans-32"/>
       <use xlink:href="#DejaVuSans-34" transform="translate(63.623047 0)"/>
       <use xlink:href="#DejaVuSans-30" transform="translate(127.246094 0)"/>
      </g>
     </g>
    </g>
    <g id="text_6">
     <!-- Epoch -->
     <g transform="translate(353.689062 348.676562) scale(0.1 -0.1)">
      <defs>
       <path id="DejaVuSans-45" d="M 628 4666 
L 3578 4666 
L 3578 4134 
L 1259 4134 
L 1259 2753 
L 3481 2753 
L 3481 2222 
L 1259 2222 
L 1259 531 
L 3634 531 
L 3634 0 
L 628 0 
L 628 4666 
z
" transform="scale(0.015625)"/>
       <path id="DejaVuSans-70" d="M 1159 525 
L 1159 -1331 
L 581 -1331 
L 581 3500 
L 1159 3500 
L 1159 2969 
Q 1341 3281 1617 3432 
Q 1894 3584 2278 3584 
Q 2916 3584 3314 3078 
Q 3713 2572 3713 1747 
Q 3713 922 3314 415 
Q 2916 -91 2278 -91 
Q 1894 -91 1617 61 
Q 1341 213 1159 525 
z
M 3116 1747 
Q 3116 2381 2855 2742 
Q 2594 3103 2138 3103 
Q 1681 3103 1420 2742 
Q 1159 2381 1159 1747 
Q 1159 1113 1420 752 
Q 1681 391 2138 391 
Q 2594 391 2855 752 
Q 3116 1113 3116 1747 
z
" transform="scale(0.015625)"/>
       <path id="DejaVuSans-6f" d="M 1959 3097 
Q 1497 3097 1228 2736 
Q 959 2375 959 1747 
Q 959 1119 1226 758 
Q 1494 397 1959 397 
Q 2419 397 2687 759 
Q 2956 1122 2956 1747 
Q 2956 2369 2687 2733 
Q 2419 3097 1959 3097 
z
M 1959 3584 
Q 2709 3584 3137 3096 
Q 3566 2609 3566 1747 
Q 3566 888 3137 398 
Q 2709 -91 1959 -91 
Q 1206 -91 779 398 
Q 353 888 353 1747 
Q 353 2609 779 3096 
Q 1206 3584 1959 3584 
z
" transform="scale(0.015625)"/>
       <path id="DejaVuSans-63" d="M 3122 3366 
L 3122 2828 
Q 2878 2963 2633 3030 
Q 2388 3097 2138 3097 
Q 1578 3097 1268 2742 
Q 959 2388 959 1747 
Q 959 1106 1268 751 
Q 1578 397 2138 397 
Q 2388 397 2633 464 
Q 2878 531 3122 666 
L 3122 134 
Q 2881 22 2623 -34 
Q 2366 -91 2075 -91 
Q 1284 -91 818 406 
Q 353 903 353 1747 
Q 353 2603 823 3093 
Q 1294 3584 2113 3584 
Q 2378 3584 2631 3529 
Q 2884 3475 3122 3366 
z
" transform="scale(0.015625)"/>
       <path id="DejaVuSans-68" d="M 3513 2113 
L 3513 0 
L 2938 0 
L 2938 2094 
Q 2938 2591 2744 2837 
Q 2550 3084 2163 3084 
Q 1697 3084 1428 2787 
Q 1159 2491 1159 1978 
L 1159 0 
L 581 0 
L 581 4863 
L 1159 4863 
L 1159 2956 
Q 1366 3272 1645 3428 
Q 1925 3584 2291 3584 
Q 2894 3584 3203 3211 
Q 3513 2838 3513 2113 
z
" transform="scale(0.015625)"/>
      </defs>
      <use xlink:href="#DejaVuSans-45"/>
      <use xlink:href="#DejaVuSans-70" transform="translate(63.183594 0)"/>
      <use xlink:href="#DejaVuSans-6f" transform="translate(126.660156 0)"/>
      <use xlink:href="#DejaVuSans-63" transform="translate(187.841797 0)"/>
      <use xlink:href="#DejaVuSans-68" transform="translate(242.822266 0)"/>
     </g>
    </g>
   </g>
   <g id="matplotlib.axis_2">
    <g id="ytick_1">
     <g id="line2d_6">
      <defs>
       <path id="mb1b142b90d" d="M 0 0 
L -3.5 0 
" style="stroke: #000000; stroke-width: 0.8"/>
      </defs>
      <g>
       <use xlink:href="#mb1b142b90d" x="90" y="310.585691" style="stroke: #000000; stroke-width: 0.8"/>
      </g>
     </g>
     <g id="text_7">
      <!-- 0.00 -->
      <g transform="translate(60.734375 314.38491) scale(0.1 -0.1)">
       <defs>
        <path id="DejaVuSans-2e" d="M 684 794 
L 1344 794 
L 1344 0 
L 684 0 
L 684 794 
z
" transform="scale(0.015625)"/>
       </defs>
       <use xlink:href="#DejaVuSans-30"/>
       <use xlink:href="#DejaVuSans-2e" transform="translate(63.623047 0)"/>
       <use xlink:href="#DejaVuSans-30" transform="translate(95.410156 0)"/>
       <use xlink:href="#DejaVuSans-30" transform="translate(159.033203 0)"/>
      </g>
     </g>
    </g>
    <g id="ytick_2">
     <g id="line2d_7">
      <g>
       <use xlink:href="#mb1b142b90d" x="90" y="262.551615" style="stroke: #000000; stroke-width: 0.8"/>
      </g>
     </g>
     <g id="text_8">
      <!-- 0.02 -->
      <g transform="translate(60.734375 266.350834) scale(0.1 -0.1)">
       <use xlink:href="#DejaVuSans-30"/>
       <use xlink:href="#DejaVuSans-2e" transform="translate(63.623047 0)"/>
       <use xlink:href="#DejaVuSans-30" transform="translate(95.410156 0)"/>
       <use xlink:href="#DejaVuSans-32" transform="translate(159.033203 0)"/>
      </g>
     </g>
    </g>
    <g id="ytick_3">
     <g id="line2d_8">
      <g>
       <use xlink:href="#mb1b142b90d" x="90" y="214.517539" style="stroke: #000000; stroke-width: 0.8"/>
      </g>
     </g>
     <g id="text_9">
      <!-- 0.04 -->
      <g transform="translate(60.734375 218.316758) scale(0.1 -0.1)">
       <use xlink:href="#DejaVuSans-30"/>
       <use xlink:href="#DejaVuSans-2e" transform="translate(63.623047 0)"/>
       <use xlink:href="#DejaVuSans-30" transform="translate(95.410156 0)"/>
       <use xlink:href="#DejaVuSans-34" transform="translate(159.033203 0)"/>
      </g>
     </g>
    </g>
    <g id="ytick_4">
     <g id="line2d_9">
      <g>
       <use xlink:href="#mb1b142b90d" x="90" y="166.483463" style="stroke: #000000; stroke-width: 0.8"/>
      </g>
     </g>
     <g id="text_10">
      <!-- 0.06 -->
      <g transform="translate(60.734375 170.282682) scale(0.1 -0.1)">
       <use xlink:href="#DejaVuSans-30"/>
       <use xlink:href="#DejaVuSans-2e" transform="translate(63.623047 0)"/>
       <use xlink:href="#DejaVuSans-30" transform="translate(95.410156 0)"/>
       <use xlink:href="#DejaVuSans-36" transform="translate(159.033203 0)"/>
      </g>
     </g>
    </g>
    <g id="ytick_5">
     <g id="line2d_10">
      <g>
       <use xlink:href="#mb1b142b90d" x="90" y="118.449387" style="stroke: #000000; stroke-width: 0.8"/>
      </g>
     </g>
     <g id="text_11">
      <!-- 0.08 -->
      <g transform="translate(60.734375 122.248606) scale(0.1 -0.1)">
       <use xlink:href="#DejaVuSans-30"/>
       <use xlink:href="#DejaVuSans-2e" transform="translate(63.623047 0)"/>
       <use xlink:href="#DejaVuSans-30" transform="translate(95.410156 0)"/>
       <use xlink:href="#DejaVuSans-38" transform="translate(159.033203 0)"/>
      </g>
     </g>
    </g>
    <g id="ytick_6">
     <g id="line2d_11">
      <g>
       <use xlink:href="#mb1b142b90d" x="90" y="70.415311" style="stroke: #000000; stroke-width: 0.8"/>
      </g>
     </g>
     <g id="text_12">
      <!-- 0.10 -->
      <g transform="translate(60.734375 74.21453) scale(0.1 -0.1)">
       <use xlink:href="#DejaVuSans-30"/>
       <use xlink:href="#DejaVuSans-2e" transform="translate(63.623047 0)"/>
       <use xlink:href="#DejaVuSans-31" transform="translate(95.410156 0)"/>
       <use xlink:href="#DejaVuSans-30" transform="translate(159.033203 0)"/>
      </g>
     </g>
    </g>
    <g id="text_13">
     <!-- Estimation Loss -->
     <g transform="translate(54.654687 220.98125) rotate(-90) scale(0.1 -0.1)">
      <defs>
       <path id="DejaVuSans-73" d="M 2834 3397 
L 2834 2853 
Q 2591 2978 2328 3040 
Q 2066 3103 1784 3103 
Q 1356 3103 1142 2972 
Q 928 2841 928 2578 
Q 928 2378 1081 2264 
Q 1234 2150 1697 2047 
L 1894 2003 
Q 2506 1872 2764 1633 
Q 3022 1394 3022 966 
Q 3022 478 2636 193 
Q 2250 -91 1575 -91 
Q 1294 -91 989 -36 
Q 684 19 347 128 
L 347 722 
Q 666 556 975 473 
Q 1284 391 1588 391 
Q 1994 391 2212 530 
Q 2431 669 2431 922 
Q 2431 1156 2273 1281 
Q 2116 1406 1581 1522 
L 1381 1569 
Q 847 1681 609 1914 
Q 372 2147 372 2553 
Q 372 3047 722 3315 
Q 1072 3584 1716 3584 
Q 2034 3584 2315 3537 
Q 2597 3491 2834 3397 
z
" transform="scale(0.015625)"/>
       <path id="DejaVuSans-74" d="M 1172 4494 
L 1172 3500 
L 2356 3500 
L 2356 3053 
L 1172 3053 
L 1172 1153 
Q 1172 725 1289 603 
Q 1406 481 1766 481 
L 2356 481 
L 2356 0 
L 1766 0 
Q 1100 0 847 248 
Q 594 497 594 1153 
L 594 3053 
L 172 3053 
L 172 3500 
L 594 3500 
L 594 4494 
L 1172 4494 
z
" transform="scale(0.015625)"/>
       <path id="DejaVuSans-69" d="M 603 3500 
L 1178 3500 
L 1178 0 
L 603 0 
L 603 3500 
z
M 603 4863 
L 1178 4863 
L 1178 4134 
L 603 4134 
L 603 4863 
z
" transform="scale(0.015625)"/>
       <path id="DejaVuSans-6d" d="M 3328 2828 
Q 3544 3216 3844 3400 
Q 4144 3584 4550 3584 
Q 5097 3584 5394 3201 
Q 5691 2819 5691 2113 
L 5691 0 
L 5113 0 
L 5113 2094 
Q 5113 2597 4934 2840 
Q 4756 3084 4391 3084 
Q 3944 3084 3684 2787 
Q 3425 2491 3425 1978 
L 3425 0 
L 2847 0 
L 2847 2094 
Q 2847 2600 2669 2842 
Q 2491 3084 2119 3084 
Q 1678 3084 1418 2786 
Q 1159 2488 1159 1978 
L 1159 0 
L 581 0 
L 581 3500 
L 1159 3500 
L 1159 2956 
Q 1356 3278 1631 3431 
Q 1906 3584 2284 3584 
Q 2666 3584 2933 3390 
Q 3200 3197 3328 2828 
z
" transform="scale(0.015625)"/>
       <path id="DejaVuSans-61" d="M 2194 1759 
Q 1497 1759 1228 1600 
Q 959 1441 959 1056 
Q 959 750 1161 570 
Q 1363 391 1709 391 
Q 2188 391 2477 730 
Q 2766 1069 2766 1631 
L 2766 1759 
L 2194 1759 
z
M 3341 1997 
L 3341 0 
L 2766 0 
L 2766 531 
Q 2569 213 2275 61 
Q 1981 -91 1556 -91 
Q 1019 -91 701 211 
Q 384 513 384 1019 
Q 384 1609 779 1909 
Q 1175 2209 1959 2209 
L 2766 2209 
L 2766 2266 
Q 2766 2663 2505 2880 
Q 2244 3097 1772 3097 
Q 1472 3097 1187 3025 
Q 903 2953 641 2809 
L 641 3341 
Q 956 3463 1253 3523 
Q 1550 3584 1831 3584 
Q 2591 3584 2966 3190 
Q 3341 2797 3341 1997 
z
" transform="scale(0.015625)"/>
       <path id="DejaVuSans-6e" d="M 3513 2113 
L 3513 0 
L 2938 0 
L 2938 2094 
Q 2938 2591 2744 2837 
Q 2550 3084 2163 3084 
Q 1697 3084 1428 2787 
Q 1159 2491 1159 1978 
L 1159 0 
L 581 0 
L 581 3500 
L 1159 3500 
L 1159 2956 
Q 1366 3272 1645 3428 
Q 1925 3584 2291 3584 
Q 2894 3584 3203 3211 
Q 3513 2838 3513 2113 
z
" transform="scale(0.015625)"/>
       <path id="DejaVuSans-20" transform="scale(0.015625)"/>
       <path id="DejaVuSans-4c" d="M 628 4666 
L 1259 4666 
L 1259 531 
L 3531 531 
L 3531 0 
L 628 0 
L 628 4666 
z
" transform="scale(0.015625)"/>
      </defs>
      <use xlink:href="#DejaVuSans-45"/>
      <use xlink:href="#DejaVuSans-73" transform="translate(63.183594 0)"/>
      <use xlink:href="#DejaVuSans-74" transform="translate(115.283203 0)"/>
      <use xlink:href="#DejaVuSans-69" transform="translate(154.492188 0)"/>
      <use xlink:href="#DejaVuSans-6d" transform="translate(182.275391 0)"/>
      <use xlink:href="#DejaVuSans-61" transform="translate(279.6875 0)"/>
      <use xlink:href="#DejaVuSans-74" transform="translate(340.966797 0)"/>
      <use xlink:href="#DejaVuSans-69" transform="translate(380.175781 0)"/>
      <use xlink:href="#DejaVuSans-6f" transform="translate(407.958984 0)"/>
      <use xlink:href="#DejaVuSans-6e" transform="translate(469.140625 0)"/>
      <use xlink:href="#DejaVuSans-20" transform="translate(532.519531 0)"/>
      <use xlink:href="#DejaVuSans-4c" transform="translate(564.306641 0)"/>
      <use xlink:href="#DejaVuSans-6f" transform="translate(618.269531 0)"/>
      <use xlink:href="#DejaVuSans-73" transform="translate(679.451172 0)"/>
      <use xlink:href="#DejaVuSans-73" transform="translate(731.550781 0)"/>
     </g>
    </g>
   </g>
   <g id="line2d_12">
    <path d="M 115.363636 104.944772 
L 117.060201 263.858963 
L 118.756765 283.325483 
L 120.453329 290.958719 
L 122.149894 294.754993 
L 123.846458 297.013212 
L 125.543022 298.491502 
L 127.239587 299.576493 
L 128.936151 300.416129 
L 130.632715 301.109762 
L 134.025844 302.153208 
L 137.418972 302.93814 
L 142.508665 303.844279 
L 150.991487 304.85453 
L 157.777744 305.418146 
L 166.260566 305.929151 
L 184.922773 306.506293 
L 195.102159 306.608997 
L 206.978109 306.68639 
L 247.695652 306.674254 
L 259.571602 306.625991 
L 288.413196 306.639092 
L 339.310125 306.747874 
L 344.399818 306.802163 
L 349.48951 306.802071 
L 357.972332 306.854065 
L 363.062025 306.816214 
L 366.455154 306.879332 
L 374.937975 306.905728 
L 395.296747 306.954599 
L 403.779568 307.032934 
L 408.869261 307.01425 
L 420.745211 307.077903 
L 430.924597 307.094991 
L 437.710854 307.144372 
L 444.497112 307.14435 
L 456.373062 307.22648 
L 461.462755 307.216045 
L 463.159319 307.301426 
L 468.249012 307.26193 
L 473.338705 307.275015 
L 480.124962 307.303059 
L 485.214655 307.330134 
L 492.000912 307.334824 
L 517.449377 307.446017 
L 531.021891 307.4751 
L 546.29097 307.562924 
L 580.222256 307.654077 
L 622.636364 307.77865 
L 622.636364 307.77865 
" clip-path="url(#pf9cca9c6a4)" style="fill: none; stroke: #1f77b4; stroke-width: 1.5; stroke-linecap: square"/>
   </g>
   <g id="line2d_13">
    <path d="M 115.363636 55.8 
L 117.060201 182.424841 
L 118.756765 196.532009 
L 120.453329 202.147796 
L 122.149894 205.550107 
L 123.846458 207.93194 
L 125.543022 209.760619 
L 127.239587 211.307323 
L 130.632715 213.806568 
L 134.025844 215.569721 
L 137.418972 217.077387 
L 145.901794 219.3852 
L 152.688051 220.386357 
L 161.170873 220.937641 
L 171.350258 220.760602 
L 183.226209 219.500502 
L 193.405594 217.754902 
L 196.798723 217.01098 
L 210.371237 214.281047 
L 215.46093 213.54764 
L 218.854059 212.965851 
L 220.550623 212.895085 
L 225.640316 212.244432 
L 237.516266 211.284652 
L 242.605959 211.058173 
L 245.999088 210.709276 
L 247.695652 210.639924 
L 251.088781 210.135284 
L 261.268167 208.987748 
L 271.447552 208.758785 
L 274.840681 208.728936 
L 279.930374 208.878196 
L 283.323503 208.889765 
L 285.020067 209.104899 
L 288.413196 209.096376 
L 290.10976 209.251261 
L 295.199453 209.396589 
L 296.896017 209.592109 
L 300.289146 209.587708 
L 301.98571 209.888222 
L 308.771967 210.174157 
L 310.468531 210.087217 
L 312.165096 210.219774 
L 318.951353 210.314354 
L 320.647917 210.477452 
L 322.344482 210.480459 
L 324.041046 210.653827 
L 335.916996 210.972215 
L 337.61356 210.829657 
L 341.006689 210.989471 
L 344.399818 211.123153 
L 347.792946 211.214873 
L 349.48951 211.318938 
L 352.882639 211.160204 
L 354.579203 211.417607 
L 363.062025 211.384111 
L 364.758589 211.607047 
L 366.455154 211.492066 
L 378.331104 211.902815 
L 380.027668 211.778652 
L 388.51049 212.095066 
L 390.207054 211.946248 
L 391.903618 212.160254 
L 393.600182 212.23339 
L 395.296747 212.178589 
L 396.993311 212.404561 
L 398.689875 212.170381 
L 400.38644 212.412969 
L 402.083004 212.219329 
L 405.476133 212.470776 
L 408.869261 212.462451 
L 410.565825 212.453837 
L 412.26239 212.597317 
L 419.048647 212.630582 
L 420.745211 212.476566 
L 422.441776 212.761328 
L 424.13834 212.646427 
L 427.531469 212.95267 
L 429.228033 212.696071 
L 430.924597 212.635831 
L 434.317726 212.837975 
L 437.710854 212.691741 
L 439.407419 212.763858 
L 441.103983 212.583519 
L 442.800547 212.72898 
L 444.497112 212.709406 
L 446.193676 212.879845 
L 447.89024 212.785508 
L 449.586804 212.577414 
L 451.283369 212.895278 
L 454.676497 212.755872 
L 459.76619 212.826679 
L 461.462755 212.821105 
L 463.159319 212.63143 
L 464.855883 212.81018 
L 466.552448 212.802696 
L 468.249012 212.6253 
L 475.035269 212.649928 
L 476.731833 212.790806 
L 480.124962 212.622701 
L 485.214655 212.739936 
L 486.911219 212.459691 
L 488.607784 212.71053 
L 502.180298 212.711445 
L 503.876862 212.972946 
L 505.573427 212.858854 
L 507.269991 212.905197 
L 508.966555 212.646418 
L 510.663119 212.846669 
L 512.359684 212.633154 
L 515.752812 212.927371 
L 517.449377 212.808717 
L 519.145941 213.03567 
L 524.235634 212.989565 
L 529.325327 213.216966 
L 531.021891 213.103479 
L 539.504713 213.257389 
L 542.897841 213.262395 
L 547.987534 213.592942 
L 549.684099 213.489784 
L 551.380663 213.708212 
L 553.077227 213.616188 
L 554.773791 213.666263 
L 556.470356 213.59205 
L 558.16692 213.811898 
L 563.256613 213.978402 
L 564.953177 214.078586 
L 568.346306 213.926033 
L 570.04287 214.128248 
L 571.739434 213.996693 
L 573.435999 214.172708 
L 575.132563 214.030258 
L 576.829127 214.027376 
L 580.222256 214.168464 
L 581.91882 214.040443 
L 585.311949 214.455001 
L 587.008513 214.293357 
L 609.063849 214.511665 
L 612.456978 214.382226 
L 614.153542 214.631047 
L 615.850106 214.530128 
L 620.939799 214.688117 
L 622.636364 214.526737 
L 622.636364 214.526737 
" clip-path="url(#pf9cca9c6a4)" style="fill: none; stroke: #ff7f0e; stroke-width: 1.5; stroke-linecap: square"/>
   </g>
   <g id="line2d_14">
    <path d="M 115.363636 248.724037 
L 117.060201 279.33147 
L 118.756765 290.15049 
L 120.453329 294.679602 
L 122.149894 297.314982 
L 123.846458 298.930987 
L 125.543022 300.116167 
L 127.239587 301.021384 
L 128.936151 301.380935 
L 132.329279 302.514698 
L 134.025844 303.016295 
L 135.722408 303.053676 
L 137.418972 303.642458 
L 139.115537 303.832472 
L 140.812101 304.164134 
L 142.508665 303.780367 
L 144.20523 304.474956 
L 145.901794 304.782574 
L 147.598358 304.759703 
L 149.294922 305.04473 
L 154.384615 305.386135 
L 156.08118 305.262262 
L 159.474308 305.798184 
L 166.260566 305.685829 
L 167.95713 306.013243 
L 179.83308 306.243295 
L 181.529644 306.203456 
L 183.226209 306.011405 
L 184.922773 306.634312 
L 186.619337 306.398853 
L 188.315901 306.508965 
L 190.012466 306.080689 
L 191.70903 306.382436 
L 193.405594 306.385562 
L 195.102159 306.665482 
L 200.191852 306.822817 
L 201.888416 306.704383 
L 206.978109 306.988439 
L 208.674673 306.746538 
L 213.764366 306.988813 
L 217.157495 306.728801 
L 218.854059 307.05375 
L 222.247188 307.012057 
L 223.943752 307.037534 
L 225.640316 306.897769 
L 227.336881 307.066218 
L 229.033445 307.026014 
L 230.730009 306.828455 
L 232.426573 307.012501 
L 234.123138 306.948074 
L 235.819702 306.640344 
L 237.516266 307.020113 
L 239.212831 306.966808 
L 240.909395 306.748405 
L 244.302524 306.993561 
L 251.088781 306.700752 
L 254.481909 306.742088 
L 256.178474 306.406616 
L 257.875038 306.718554 
L 262.964731 306.658733 
L 266.35786 306.530192 
L 269.750988 306.47229 
L 271.447552 306.419105 
L 274.840681 306.678712 
L 276.537245 306.449342 
L 278.23381 306.639389 
L 286.716631 306.596569 
L 288.413196 306.208814 
L 290.10976 306.546075 
L 293.502888 306.692661 
L 295.199453 306.567893 
L 296.896017 306.637944 
L 301.98571 306.269541 
L 303.682274 306.735601 
L 305.378839 306.28658 
L 308.771967 306.719128 
L 310.468531 306.262688 
L 312.165096 306.588345 
L 313.86166 306.783261 
L 315.558224 306.598795 
L 318.951353 306.626902 
L 320.647917 306.397445 
L 322.344482 306.462689 
L 324.041046 306.769827 
L 325.73761 306.53987 
L 327.434175 306.545092 
L 329.130739 306.688944 
L 332.523867 306.670514 
L 334.220432 306.525499 
L 339.310125 306.754963 
L 341.006689 306.578426 
L 354.579203 306.739563 
L 356.275768 306.858356 
L 359.668896 306.789402 
L 364.758589 306.700501 
L 366.455154 306.854502 
L 371.544846 306.609915 
L 376.634539 306.68028 
L 380.027668 306.648442 
L 381.724232 306.486726 
L 385.117361 306.739613 
L 386.813925 306.580718 
L 390.207054 306.803236 
L 391.903618 306.645867 
L 393.600182 306.727992 
L 395.296747 306.669303 
L 398.689875 306.827827 
L 400.38644 306.660405 
L 402.083004 306.759361 
L 408.869261 306.628608 
L 410.565825 306.848533 
L 412.26239 306.625803 
L 415.655518 306.735365 
L 417.352083 306.807769 
L 420.745211 306.663403 
L 424.13834 306.72819 
L 429.228033 306.658724 
L 430.924597 306.886874 
L 432.621161 306.873365 
L 434.317726 306.704615 
L 439.407419 306.795473 
L 441.103983 306.749041 
L 442.800547 306.831589 
L 446.193676 306.664925 
L 449.586804 306.919387 
L 451.283369 306.82066 
L 454.676497 306.86641 
L 456.373062 306.767082 
L 459.76619 306.948564 
L 464.855883 306.839706 
L 466.552448 306.981098 
L 469.945576 306.957137 
L 483.518091 306.965383 
L 485.214655 306.871642 
L 488.607784 307.04707 
L 490.304348 306.966519 
L 492.000912 307.09464 
L 495.394041 307.021752 
L 503.876862 307.002213 
L 505.573427 306.977587 
L 508.966555 307.142046 
L 514.056248 307.067429 
L 522.53907 307.012463 
L 524.235634 307.115593 
L 534.41502 307.002767 
L 536.111584 307.164049 
L 537.808148 307.037577 
L 539.504713 307.066607 
L 541.201277 306.94084 
L 542.897841 307.038237 
L 544.594406 306.983332 
L 546.29097 307.074792 
L 553.077227 306.90786 
L 554.773791 306.952121 
L 556.470356 307.126541 
L 558.16692 307.020876 
L 561.560049 307.037095 
L 566.649742 306.924089 
L 568.346306 307.024744 
L 571.739434 307.03812 
L 573.435999 306.711691 
L 575.132563 306.915391 
L 576.829127 306.87141 
L 581.91882 306.999017 
L 585.311949 307.008967 
L 590.401642 307.083928 
L 593.79477 306.943739 
L 600.581028 306.944548 
L 602.277592 306.972409 
L 603.974156 307.136245 
L 607.367285 307.016836 
L 612.456978 307.001954 
L 614.153542 306.82712 
L 617.546671 307.09357 
L 622.636364 307.094371 
L 622.636364 307.094371 
" clip-path="url(#pf9cca9c6a4)" style="fill: none; stroke: #2ca02c; stroke-width: 1.5; stroke-linecap: square"/>
   </g>
   <g id="line2d_15">
    <path d="M 115.363636 155.531053 
L 117.060201 176.707995 
L 118.756765 183.918097 
L 122.149894 190.216926 
L 123.846458 192.48507 
L 125.543022 194.546768 
L 127.239587 196.423613 
L 128.936151 197.480575 
L 130.632715 198.792872 
L 134.025844 200.688941 
L 135.722408 200.923288 
L 137.418972 202.019702 
L 139.115537 202.133526 
L 140.812101 203.026225 
L 142.508665 202.792553 
L 144.20523 203.592801 
L 145.901794 204.223933 
L 147.598358 203.970069 
L 149.294922 204.31523 
L 154.384615 205.028229 
L 156.08118 204.487659 
L 157.777744 204.569462 
L 159.474308 204.859129 
L 162.867437 204.21778 
L 164.564001 204.039133 
L 167.95713 204.388214 
L 169.653694 203.9808 
L 171.350258 204.316276 
L 173.046823 203.267703 
L 174.743387 203.325444 
L 176.439951 203.055299 
L 178.136516 202.991761 
L 181.529644 202.261053 
L 183.226209 201.406979 
L 184.922773 201.639269 
L 186.619337 200.808468 
L 188.315901 201.337262 
L 190.012466 200.04946 
L 191.70903 200.3009 
L 193.405594 199.702655 
L 195.102159 199.418696 
L 196.798723 199.652446 
L 198.495287 199.174761 
L 200.191852 198.906275 
L 201.888416 197.628976 
L 203.58498 197.674537 
L 205.281545 197.518992 
L 206.978109 197.07819 
L 208.674673 196.200705 
L 210.371237 196.429004 
L 212.067802 196.164127 
L 213.764366 196.186485 
L 215.46093 195.783209 
L 217.157495 195.21917 
L 218.854059 195.489164 
L 220.550623 195.27116 
L 222.247188 195.240568 
L 223.943752 194.572114 
L 225.640316 194.93501 
L 230.730009 193.982425 
L 232.426573 193.809619 
L 234.123138 194.320725 
L 235.819702 193.875862 
L 237.516266 193.933399 
L 239.212831 193.57587 
L 242.605959 193.846575 
L 244.302524 193.462068 
L 245.999088 193.573701 
L 247.695652 193.056302 
L 249.392216 193.278167 
L 251.088781 193.148115 
L 252.785345 192.196051 
L 254.481909 191.779036 
L 256.178474 191.970351 
L 257.875038 191.863798 
L 259.571602 191.591695 
L 261.268167 191.510458 
L 262.964731 192.032348 
L 264.661295 191.228895 
L 266.35786 191.768004 
L 268.054424 191.233028 
L 269.750988 191.863725 
L 271.447552 191.779457 
L 273.144117 191.491533 
L 274.840681 191.821224 
L 276.537245 191.801839 
L 278.23381 191.526372 
L 279.930374 191.510688 
L 281.626938 192.033959 
L 283.323503 191.811702 
L 286.716631 192.074662 
L 291.806324 192.740182 
L 293.502888 192.091814 
L 295.199453 192.306369 
L 296.896017 192.672657 
L 300.289146 192.949041 
L 303.682274 193.372492 
L 305.378839 192.898686 
L 307.075403 193.912635 
L 308.771967 192.981021 
L 312.165096 193.630831 
L 313.86166 193.200073 
L 315.558224 193.526518 
L 318.951353 193.047442 
L 320.647917 193.812765 
L 322.344482 193.81332 
L 325.73761 193.302952 
L 327.434175 193.910625 
L 329.130739 193.938507 
L 330.827303 194.12976 
L 332.523867 193.676574 
L 334.220432 192.979012 
L 335.916996 194.127231 
L 337.61356 193.15603 
L 339.310125 193.591452 
L 341.006689 192.722246 
L 342.703253 193.232472 
L 344.399818 193.105379 
L 346.096382 193.380588 
L 347.792946 193.006143 
L 349.48951 192.369233 
L 351.186075 192.807979 
L 352.882639 192.887656 
L 354.579203 192.729895 
L 356.275768 192.83904 
L 357.972332 192.653532 
L 359.668896 192.608893 
L 361.365461 193.073849 
L 363.062025 192.520107 
L 364.758589 192.983066 
L 366.455154 193.117428 
L 368.151718 192.025176 
L 369.848282 192.401029 
L 371.544846 191.79946 
L 373.241411 192.846576 
L 374.937975 192.038176 
L 376.634539 192.496744 
L 378.331104 192.15537 
L 380.027668 191.626224 
L 381.724232 191.350788 
L 383.420797 192.033067 
L 385.117361 192.128172 
L 386.813925 192.671487 
L 388.51049 191.979981 
L 390.207054 192.095798 
L 391.903618 192.352213 
L 395.296747 192.23973 
L 398.689875 192.328004 
L 400.38644 192.56007 
L 402.083004 192.174829 
L 403.779568 192.395611 
L 405.476133 192.335056 
L 407.172697 192.705685 
L 408.869261 192.53055 
L 410.565825 192.97209 
L 412.26239 192.129332 
L 413.958954 192.065493 
L 417.352083 192.84368 
L 419.048647 192.262609 
L 420.745211 192.788411 
L 422.441776 192.967141 
L 424.13834 192.628651 
L 427.531469 193.128956 
L 429.228033 192.555971 
L 430.924597 192.455733 
L 432.621161 192.803227 
L 434.317726 192.777519 
L 436.01429 192.570779 
L 437.710854 192.083348 
L 439.407419 193.132888 
L 441.103983 192.612217 
L 442.800547 192.655599 
L 444.497112 192.577129 
L 446.193676 192.995918 
L 447.89024 192.470928 
L 449.586804 192.958747 
L 451.283369 192.492658 
L 452.979933 193.283875 
L 454.676497 192.926786 
L 456.373062 192.433992 
L 458.069626 193.23805 
L 459.76619 193.186698 
L 461.462755 192.451391 
L 463.159319 193.41399 
L 464.855883 193.402509 
L 466.552448 193.040595 
L 468.249012 193.274127 
L 469.945576 192.663054 
L 471.64214 192.356375 
L 475.035269 193.204042 
L 476.731833 193.005869 
L 480.124962 192.859088 
L 481.821526 193.243029 
L 483.518091 192.6757 
L 485.214655 192.839035 
L 486.911219 191.855445 
L 488.607784 193.575501 
L 490.304348 193.086402 
L 492.000912 193.196752 
L 493.697476 193.038565 
L 495.394041 193.371866 
L 497.090605 193.033126 
L 498.787169 192.484614 
L 502.180298 193.710858 
L 503.876862 192.46945 
L 507.269991 192.925524 
L 508.966555 192.769662 
L 510.663119 192.956285 
L 512.359684 192.843946 
L 514.056248 193.520672 
L 517.449377 192.512546 
L 519.145941 192.914427 
L 520.842505 192.664939 
L 522.53907 192.992407 
L 525.932198 192.728971 
L 527.628763 192.53145 
L 529.325327 193.342053 
L 531.021891 193.116862 
L 532.718455 193.029261 
L 534.41502 192.617629 
L 536.111584 193.564476 
L 537.808148 192.642133 
L 539.504713 192.828663 
L 541.201277 192.41665 
L 542.897841 193.402596 
L 544.594406 192.862583 
L 547.987534 193.84269 
L 549.684099 193.290161 
L 551.380663 193.012191 
L 553.077227 192.882783 
L 556.470356 193.748848 
L 558.16692 192.918814 
L 561.560049 193.877901 
L 563.256613 193.071636 
L 564.953177 193.703554 
L 566.649742 193.228847 
L 568.346306 193.283618 
L 570.04287 193.63792 
L 571.739434 193.220949 
L 573.435999 192.488611 
L 575.132563 192.723846 
L 576.829127 192.488134 
L 578.525692 193.110859 
L 580.222256 193.301903 
L 581.91882 192.755657 
L 583.615385 192.652645 
L 585.311949 193.15894 
L 587.008513 193.355269 
L 588.705078 192.719618 
L 590.401642 193.186442 
L 592.098206 192.681838 
L 595.491335 192.82853 
L 597.187899 192.723188 
L 598.884463 193.647665 
L 602.277592 193.510718 
L 603.974156 194.145781 
L 605.670721 192.588309 
L 607.367285 193.791612 
L 609.063849 193.291704 
L 610.760413 193.184559 
L 612.456978 192.509675 
L 614.153542 192.292279 
L 617.546671 193.477849 
L 619.243235 193.626854 
L 620.939799 194.196935 
L 622.636364 192.666827 
L 622.636364 192.666827 
" clip-path="url(#pf9cca9c6a4)" style="fill: none; stroke: #d62728; stroke-width: 1.5; stroke-linecap: square"/>
   </g>
   <g id="patch_3">
    <path d="M 90 320.4 
L 90 43.2 
" style="fill: none; stroke: #000000; stroke-width: 0.8; stroke-linejoin: miter; stroke-linecap: square"/>
   </g>
   <g id="patch_4">
    <path d="M 648 320.4 
L 648 43.2 
" style="fill: none; stroke: #000000; stroke-width: 0.8; stroke-linejoin: miter; stroke-linecap: square"/>
   </g>
   <g id="patch_5">
    <path d="M 90 320.4 
L 648 320.4 
" style="fill: none; stroke: #000000; stroke-width: 0.8; stroke-linejoin: miter; stroke-linecap: square"/>
   </g>
   <g id="patch_6">
    <path d="M 90 43.2 
L 648 43.2 
" style="fill: none; stroke: #000000; stroke-width: 0.8; stroke-linejoin: miter; stroke-linecap: square"/>
   </g>
   <g id="text_14">
    <!-- Training and Validating Estimation Loss -->
    <g transform="translate(251.535937 37.2) scale(0.12 -0.12)">
     <defs>
      <path id="DejaVuSans-54" d="M -19 4666 
L 3928 4666 
L 3928 4134 
L 2272 4134 
L 2272 0 
L 1638 0 
L 1638 4134 
L -19 4134 
L -19 4666 
z
" transform="scale(0.015625)"/>
      <path id="DejaVuSans-72" d="M 2631 2963 
Q 2534 3019 2420 3045 
Q 2306 3072 2169 3072 
Q 1681 3072 1420 2755 
Q 1159 2438 1159 1844 
L 1159 0 
L 581 0 
L 581 3500 
L 1159 3500 
L 1159 2956 
Q 1341 3275 1631 3429 
Q 1922 3584 2338 3584 
Q 2397 3584 2469 3576 
Q 2541 3569 2628 3553 
L 2631 2963 
z
" transform="scale(0.015625)"/>
      <path id="DejaVuSans-67" d="M 2906 1791 
Q 2906 2416 2648 2759 
Q 2391 3103 1925 3103 
Q 1463 3103 1205 2759 
Q 947 2416 947 1791 
Q 947 1169 1205 825 
Q 1463 481 1925 481 
Q 2391 481 2648 825 
Q 2906 1169 2906 1791 
z
M 3481 434 
Q 3481 -459 3084 -895 
Q 2688 -1331 1869 -1331 
Q 1566 -1331 1297 -1286 
Q 1028 -1241 775 -1147 
L 775 -588 
Q 1028 -725 1275 -790 
Q 1522 -856 1778 -856 
Q 2344 -856 2625 -561 
Q 2906 -266 2906 331 
L 2906 616 
Q 2728 306 2450 153 
Q 2172 0 1784 0 
Q 1141 0 747 490 
Q 353 981 353 1791 
Q 353 2603 747 3093 
Q 1141 3584 1784 3584 
Q 2172 3584 2450 3431 
Q 2728 3278 2906 2969 
L 2906 3500 
L 3481 3500 
L 3481 434 
z
" transform="scale(0.015625)"/>
      <path id="DejaVuSans-64" d="M 2906 2969 
L 2906 4863 
L 3481 4863 
L 3481 0 
L 2906 0 
L 2906 525 
Q 2725 213 2448 61 
Q 2172 -91 1784 -91 
Q 1150 -91 751 415 
Q 353 922 353 1747 
Q 353 2572 751 3078 
Q 1150 3584 1784 3584 
Q 2172 3584 2448 3432 
Q 2725 3281 2906 2969 
z
M 947 1747 
Q 947 1113 1208 752 
Q 1469 391 1925 391 
Q 2381 391 2643 752 
Q 2906 1113 2906 1747 
Q 2906 2381 2643 2742 
Q 2381 3103 1925 3103 
Q 1469 3103 1208 2742 
Q 947 2381 947 1747 
z
" transform="scale(0.015625)"/>
      <path id="DejaVuSans-56" d="M 1831 0 
L 50 4666 
L 709 4666 
L 2188 738 
L 3669 4666 
L 4325 4666 
L 2547 0 
L 1831 0 
z
" transform="scale(0.015625)"/>
      <path id="DejaVuSans-6c" d="M 603 4863 
L 1178 4863 
L 1178 0 
L 603 0 
L 603 4863 
z
" transform="scale(0.015625)"/>
     </defs>
     <use xlink:href="#DejaVuSans-54"/>
     <use xlink:href="#DejaVuSans-72" transform="translate(46.333984 0)"/>
     <use xlink:href="#DejaVuSans-61" transform="translate(87.447266 0)"/>
     <use xlink:href="#DejaVuSans-69" transform="translate(148.726562 0)"/>
     <use xlink:href="#DejaVuSans-6e" transform="translate(176.509766 0)"/>
     <use xlink:href="#DejaVuSans-69" transform="translate(239.888672 0)"/>
     <use xlink:href="#DejaVuSans-6e" transform="translate(267.671875 0)"/>
     <use xlink:href="#DejaVuSans-67" transform="translate(331.050781 0)"/>
     <use xlink:href="#DejaVuSans-20" transform="translate(394.527344 0)"/>
     <use xlink:href="#DejaVuSans-61" transform="translate(426.314453 0)"/>
     <use xlink:href="#DejaVuSans-6e" transform="translate(487.59375 0)"/>
     <use xlink:href="#DejaVuSans-64" transform="translate(550.972656 0)"/>
     <use xlink:href="#DejaVuSans-20" transform="translate(614.449219 0)"/>
     <use xlink:href="#DejaVuSans-56" transform="translate(646.236328 0)"/>
     <use xlink:href="#DejaVuSans-61" transform="translate(706.894531 0)"/>
     <use xlink:href="#DejaVuSans-6c" transform="translate(768.173828 0)"/>
     <use xlink:href="#DejaVuSans-69" transform="translate(795.957031 0)"/>
     <use xlink:href="#DejaVuSans-64" transform="translate(823.740234 0)"/>
     <use xlink:href="#DejaVuSans-61" transform="translate(887.216797 0)"/>
     <use xlink:href="#DejaVuSans-74" transform="translate(948.496094 0)"/>
     <use xlink:href="#DejaVuSans-69" transform="translate(987.705078 0)"/>
     <use xlink:href="#DejaVuSans-6e" transform="translate(1015.488281 0)"/>
     <use xlink:href="#DejaVuSans-67" transform="translate(1078.867188 0)"/>
     <use xlink:href="#DejaVuSans-20" transform="translate(1142.34375 0)"/>
     <use xlink:href="#DejaVuSans-45" transform="translate(1174.130859 0)"/>
     <use xlink:href="#DejaVuSans-73" transform="translate(1237.314453 0)"/>
     <use xlink:href="#DejaVuSans-74" transform="translate(1289.414062 0)"/>
     <use xlink:href="#DejaVuSans-69" transform="translate(1328.623047 0)"/>
     <use xlink:href="#DejaVuSans-6d" transform="translate(1356.40625 0)"/>
     <use xlink:href="#DejaVuSans-61" transform="translate(1453.818359 0)"/>
     <use xlink:href="#DejaVuSans-74" transform="translate(1515.097656 0)"/>
     <use xlink:href="#DejaVuSans-69" transform="translate(1554.306641 0)"/>
     <use xlink:href="#DejaVuSans-6f" transform="translate(1582.089844 0)"/>
     <use xlink:href="#DejaVuSans-6e" transform="translate(1643.271484 0)"/>
     <use xlink:href="#DejaVuSans-20" transform="translate(1706.650391 0)"/>
     <use xlink:href="#DejaVuSans-4c" transform="translate(1738.4375 0)"/>
     <use xlink:href="#DejaVuSans-6f" transform="translate(1792.400391 0)"/>
     <use xlink:href="#DejaVuSans-73" transform="translate(1853.582031 0)"/>
     <use xlink:href="#DejaVuSans-73" transform="translate(1905.681641 0)"/>
    </g>
   </g>
   <g id="legend_1">
    <g id="patch_7">
     <path d="M 521.439062 109.9125 
L 641 109.9125 
Q 643 109.9125 643 107.9125 
L 643 50.2 
Q 643 48.2 641 48.2 
L 521.439062 48.2 
Q 519.439062 48.2 519.439062 50.2 
L 519.439062 107.9125 
Q 519.439062 109.9125 521.439062 109.9125 
z
" style="fill: #ffffff; opacity: 0.8; stroke: #cccccc; stroke-linejoin: miter"/>
    </g>
    <g id="line2d_16">
     <path d="M 523.439062 56.298437 
L 533.439062 56.298437 
L 543.439062 56.298437 
" style="fill: none; stroke: #1f77b4; stroke-width: 1.5; stroke-linecap: square"/>
    </g>
    <g id="text_15">
     <!-- Training-Source -->
     <g transform="translate(551.439062 59.798437) scale(0.1 -0.1)">
      <defs>
       <path id="DejaVuSans-2d" d="M 313 2009 
L 1997 2009 
L 1997 1497 
L 313 1497 
L 313 2009 
z
" transform="scale(0.015625)"/>
       <path id="DejaVuSans-53" d="M 3425 4513 
L 3425 3897 
Q 3066 4069 2747 4153 
Q 2428 4238 2131 4238 
Q 1616 4238 1336 4038 
Q 1056 3838 1056 3469 
Q 1056 3159 1242 3001 
Q 1428 2844 1947 2747 
L 2328 2669 
Q 3034 2534 3370 2195 
Q 3706 1856 3706 1288 
Q 3706 609 3251 259 
Q 2797 -91 1919 -91 
Q 1588 -91 1214 -16 
Q 841 59 441 206 
L 441 856 
Q 825 641 1194 531 
Q 1563 422 1919 422 
Q 2459 422 2753 634 
Q 3047 847 3047 1241 
Q 3047 1584 2836 1778 
Q 2625 1972 2144 2069 
L 1759 2144 
Q 1053 2284 737 2584 
Q 422 2884 422 3419 
Q 422 4038 858 4394 
Q 1294 4750 2059 4750 
Q 2388 4750 2728 4690 
Q 3069 4631 3425 4513 
z
" transform="scale(0.015625)"/>
       <path id="DejaVuSans-75" d="M 544 1381 
L 544 3500 
L 1119 3500 
L 1119 1403 
Q 1119 906 1312 657 
Q 1506 409 1894 409 
Q 2359 409 2629 706 
Q 2900 1003 2900 1516 
L 2900 3500 
L 3475 3500 
L 3475 0 
L 2900 0 
L 2900 538 
Q 2691 219 2414 64 
Q 2138 -91 1772 -91 
Q 1169 -91 856 284 
Q 544 659 544 1381 
z
M 1991 3584 
L 1991 3584 
z
" transform="scale(0.015625)"/>
       <path id="DejaVuSans-65" d="M 3597 1894 
L 3597 1613 
L 953 1613 
Q 991 1019 1311 708 
Q 1631 397 2203 397 
Q 2534 397 2845 478 
Q 3156 559 3463 722 
L 3463 178 
Q 3153 47 2828 -22 
Q 2503 -91 2169 -91 
Q 1331 -91 842 396 
Q 353 884 353 1716 
Q 353 2575 817 3079 
Q 1281 3584 2069 3584 
Q 2775 3584 3186 3129 
Q 3597 2675 3597 1894 
z
M 3022 2063 
Q 3016 2534 2758 2815 
Q 2500 3097 2075 3097 
Q 1594 3097 1305 2825 
Q 1016 2553 972 2059 
L 3022 2063 
z
" transform="scale(0.015625)"/>
      </defs>
      <use xlink:href="#DejaVuSans-54"/>
      <use xlink:href="#DejaVuSans-72" transform="translate(46.333984 0)"/>
      <use xlink:href="#DejaVuSans-61" transform="translate(87.447266 0)"/>
      <use xlink:href="#DejaVuSans-69" transform="translate(148.726562 0)"/>
      <use xlink:href="#DejaVuSans-6e" transform="translate(176.509766 0)"/>
      <use xlink:href="#DejaVuSans-69" transform="translate(239.888672 0)"/>
      <use xlink:href="#DejaVuSans-6e" transform="translate(267.671875 0)"/>
      <use xlink:href="#DejaVuSans-67" transform="translate(331.050781 0)"/>
      <use xlink:href="#DejaVuSans-2d" transform="translate(394.527344 0)"/>
      <use xlink:href="#DejaVuSans-53" transform="translate(430.611328 0)"/>
      <use xlink:href="#DejaVuSans-6f" transform="translate(494.087891 0)"/>
      <use xlink:href="#DejaVuSans-75" transform="translate(555.269531 0)"/>
      <use xlink:href="#DejaVuSans-72" transform="translate(618.648438 0)"/>
      <use xlink:href="#DejaVuSans-63" transform="translate(657.511719 0)"/>
      <use xlink:href="#DejaVuSans-65" transform="translate(712.492188 0)"/>
     </g>
    </g>
    <g id="line2d_17">
     <path d="M 523.439062 70.976562 
L 533.439062 70.976562 
L 543.439062 70.976562 
" style="fill: none; stroke: #ff7f0e; stroke-width: 1.5; stroke-linecap: square"/>
    </g>
    <g id="text_16">
     <!-- Training-Target -->
     <g transform="translate(551.439062 74.476562) scale(0.1 -0.1)">
      <use xlink:href="#DejaVuSans-54"/>
      <use xlink:href="#DejaVuSans-72" transform="translate(46.333984 0)"/>
      <use xlink:href="#DejaVuSans-61" transform="translate(87.447266 0)"/>
      <use xlink:href="#DejaVuSans-69" transform="translate(148.726562 0)"/>
      <use xlink:href="#DejaVuSans-6e" transform="translate(176.509766 0)"/>
      <use xlink:href="#DejaVuSans-69" transform="translate(239.888672 0)"/>
      <use xlink:href="#DejaVuSans-6e" transform="translate(267.671875 0)"/>
      <use xlink:href="#DejaVuSans-67" transform="translate(331.050781 0)"/>
      <use xlink:href="#DejaVuSans-2d" transform="translate(394.527344 0)"/>
      <use xlink:href="#DejaVuSans-54" transform="translate(421.486328 0)"/>
      <use xlink:href="#DejaVuSans-61" transform="translate(466.070312 0)"/>
      <use xlink:href="#DejaVuSans-72" transform="translate(527.349609 0)"/>
      <use xlink:href="#DejaVuSans-67" transform="translate(566.712891 0)"/>
      <use xlink:href="#DejaVuSans-65" transform="translate(630.189453 0)"/>
      <use xlink:href="#DejaVuSans-74" transform="translate(691.712891 0)"/>
     </g>
    </g>
    <g id="line2d_18">
     <path d="M 523.439062 85.654687 
L 533.439062 85.654687 
L 543.439062 85.654687 
" style="fill: none; stroke: #2ca02c; stroke-width: 1.5; stroke-linecap: square"/>
    </g>
    <g id="text_17">
     <!-- Validating-Source -->
     <g transform="translate(551.439062 89.154687) scale(0.1 -0.1)">
      <use xlink:href="#DejaVuSans-56"/>
      <use xlink:href="#DejaVuSans-61" transform="translate(60.658203 0)"/>
      <use xlink:href="#DejaVuSans-6c" transform="translate(121.9375 0)"/>
      <use xlink:href="#DejaVuSans-69" transform="translate(149.720703 0)"/>
      <use xlink:href="#DejaVuSans-64" transform="translate(177.503906 0)"/>
      <use xlink:href="#DejaVuSans-61" transform="translate(240.980469 0)"/>
      <use xlink:href="#DejaVuSans-74" transform="translate(302.259766 0)"/>
      <use xlink:href="#DejaVuSans-69" transform="translate(341.46875 0)"/>
      <use xlink:href="#DejaVuSans-6e" transform="translate(369.251953 0)"/>
      <use xlink:href="#DejaVuSans-67" transform="translate(432.630859 0)"/>
      <use xlink:href="#DejaVuSans-2d" transform="translate(496.107422 0)"/>
      <use xlink:href="#DejaVuSans-53" transform="translate(532.191406 0)"/>
      <use xlink:href="#DejaVuSans-6f" transform="translate(595.667969 0)"/>
      <use xlink:href="#DejaVuSans-75" transform="translate(656.849609 0)"/>
      <use xlink:href="#DejaVuSans-72" transform="translate(720.228516 0)"/>
      <use xlink:href="#DejaVuSans-63" transform="translate(759.091797 0)"/>
      <use xlink:href="#DejaVuSans-65" transform="translate(814.072266 0)"/>
     </g>
    </g>
    <g id="line2d_19">
     <path d="M 523.439062 100.332812 
L 533.439062 100.332812 
L 543.439062 100.332812 
" style="fill: none; stroke: #d62728; stroke-width: 1.5; stroke-linecap: square"/>
    </g>
    <g id="text_18">
     <!-- Validating-Target -->
     <g transform="translate(551.439062 103.832812) scale(0.1 -0.1)">
      <use xlink:href="#DejaVuSans-56"/>
      <use xlink:href="#DejaVuSans-61" transform="translate(60.658203 0)"/>
      <use xlink:href="#DejaVuSans-6c" transform="translate(121.9375 0)"/>
      <use xlink:href="#DejaVuSans-69" transform="translate(149.720703 0)"/>
      <use xlink:href="#DejaVuSans-64" transform="translate(177.503906 0)"/>
      <use xlink:href="#DejaVuSans-61" transform="translate(240.980469 0)"/>
      <use xlink:href="#DejaVuSans-74" transform="translate(302.259766 0)"/>
      <use xlink:href="#DejaVuSans-69" transform="translate(341.46875 0)"/>
      <use xlink:href="#DejaVuSans-6e" transform="translate(369.251953 0)"/>
      <use xlink:href="#DejaVuSans-67" transform="translate(432.630859 0)"/>
      <use xlink:href="#DejaVuSans-2d" transform="translate(496.107422 0)"/>
      <use xlink:href="#DejaVuSans-54" transform="translate(523.066406 0)"/>
      <use xlink:href="#DejaVuSans-61" transform="translate(567.650391 0)"/>
      <use xlink:href="#DejaVuSans-72" transform="translate(628.929688 0)"/>
      <use xlink:href="#DejaVuSans-67" transform="translate(668.292969 0)"/>
      <use xlink:href="#DejaVuSans-65" transform="translate(731.769531 0)"/>
      <use xlink:href="#DejaVuSans-74" transform="translate(793.292969 0)"/>
     </g>
    </g>
   </g>
  </g>
 </g>
 <defs>
  <clipPath id="pf9cca9c6a4">
   <rect x="90" y="43.2" width="558" height="277.2"/>
  </clipPath>
 </defs>
</svg>
