<?xml version="1.0" encoding="utf-8" standalone="no"?>
<!DOCTYPE svg PUBLIC "-//W3C//DTD SVG 1.1//EN"
  "http://www.w3.org/Graphics/SVG/1.1/DTD/svg11.dtd">
<svg xmlns:xlink="http://www.w3.org/1999/xlink" width="720pt" height="360pt" viewBox="0 0 720 360" xmlns="http://www.w3.org/2000/svg" version="1.1">
 <metadata>
  <rdf:RDF xmlns:dc="http://purl.org/dc/elements/1.1/" xmlns:cc="http://creativecommons.org/ns#" xmlns:rdf="http://www.w3.org/1999/02/22-rdf-syntax-ns#">
   <cc:Work>
    <dc:type rdf:resource="http://purl.org/dc/dcmitype/StillImage"/>
    <dc:date>2026-03-06T15:03:44.645277</dc:date>
    <dc:format>image/svg+xml</dc:format>
    <dc:creator>
     <cc:Agent>
      <dc:title>Matplotlib v3.10.1, https://matplotlib.org/</dc:title>
     </cc:Agent>
    </dc:creator>
   </cc:Work>
  </rdf:RDF>
 </metadata>
 <defs>
  <style type="text/css">*{stroke-linejoin: round; stroke-linecap: butt}</style>
 </defs>
 <g id="figure_1">
  <g id="patch_1">
   <path d="M 0 360 
L 720 360 
L 720 0 
L 0 0 
z
" style="fill: #ffffff"/>
  </g>
  <g id="axes_1">
   <g id="patch_2">
    <path d="M 90 320.4 
L 648 320.4 
L 648 43.2 
L 90 43.2 
z
" style="fill: #ffffff"/>
   </g>
   <g id="matplotlib.axis_1">
    <g id="xtick_1">
     <g id="line2d_1">
      <defs>
       <path id="m7dc84d4574" d="M 0 0 
L 0 3.5 
" style="stroke: #000000; stroke-width: 0.8"/>
      </defs>
      <g>
       <use xlink:href="#m7dc84d4574" x="115.363636" y="320.4" style="stroke: #000000; stroke-width: 0.8"/>
      </g>
     </g>
     <g id="text_1">
      <!-- 0 -->
      <g transform="translate(112.182386 334.998438) scale(0.1 -0.1)">
       <defs>
        <path id="DejaVuSans-30" d="M 2034 4250 
Q 1547 4250 1301 3770 
Q 1056 3291 1056 2328 
Q 1056 1369 1301 889 
Q 1547 409 2034 409 
Q 2525 409 2770 889 
Q 3016 1369 3016 2328 
Q 3016 3291 2770 3770 
Q 2525 4250 2034 4250 
z
M 2034 4750 
Q 2819 4750 3233 4129 
Q 3647 3509 3647 2328 
Q 3647 1150 3233 529 
Q 2819 -91 2034 -91 
Q 1250 -91 836 529 
Q 422 1150 422 2328 
Q 422 3509 836 4129 
Q 1250 4750 2034 4750 
z
" transform="scale(0.015625)"/>
       </defs>
       <use xlink:href="#DejaVuSans-30"/>
      </g>
     </g>
    </g>
    <g id="xtick_2">
     <g id="line2d_2">
      <g>
       <use xlink:href="#m7dc84d4574" x="217.157495" y="320.4" style="stroke: #000000; stroke-width: 0.8"/>
      </g>
     </g>
     <g id="text_2">
      <!-- 60 -->
      <g transform="translate(210.794995 334.998438) scale(0.1 -0.1)">
       <defs>
        <path id="DejaVuSans-36" d="M 2113 2584 
Q 1688 2584 1439 2293 
Q 1191 2003 1191 1497 
Q 1191 994 1439 701 
Q 1688 409 2113 409 
Q 2538 409 2786 701 
Q 3034 994 3034 1497 
Q 3034 2003 2786 2293 
Q 2538 2584 2113 2584 
z
M 3366 4563 
L 3366 3988 
Q 3128 4100 2886 4159 
Q 2644 4219 2406 4219 
Q 1781 4219 1451 3797 
Q 1122 3375 1075 2522 
Q 1259 2794 1537 2939 
Q 1816 3084 2150 3084 
Q 2853 3084 3261 2657 
Q 3669 2231 3669 1497 
Q 3669 778 3244 343 
Q 2819 -91 2113 -91 
Q 1303 -91 875 529 
Q 447 1150 447 2328 
Q 447 3434 972 4092 
Q 1497 4750 2381 4750 
Q 2619 4750 2861 4703 
Q 3103 4656 3366 4563 
z
" transform="scale(0.015625)"/>
       </defs>
       <use xlink:href="#DejaVuSans-36"/>
       <use xlink:href="#DejaVuSans-30" transform="translate(63.623047 0)"/>
      </g>
     </g>
    </g>
    <g id="xtick_3">
     <g id="line2d_3">
      <g>
       <use xlink:href="#m7dc84d4574" x="318.951353" y="320.4" style="stroke: #000000; stroke-width: 0.8"/>
      </g>
     </g>
     <g id="text_3">
      <!-- 120 -->
      <g transform="translate(309.407603 334.998438) scale(0.1 -0.1)">
       <defs>
        <path id="DejaVuSans-31" d="M 794 531 
L 1825 531 
L 1825 4091 
L 703 3866 
L 703 4441 
L 1819 4666 
L 2450 4666 
L 2450 531 
L 3481 531 
L 3481 0 
L 794 0 
L 794 531 
z
" transform="scale(0.015625)"/>
        <path id="DejaVuSans-32" d="M 1228 531 
L 3431 531 
L 3431 0 
L 469 0 
L 469 531 
Q 828 903 1448 1529 
Q 2069 2156 2228 2338 
Q 2531 2678 2651 2914 
Q 2772 3150 2772 3378 
Q 2772 3750 2511 3984 
Q 2250 4219 1831 4219 
Q 1534 4219 1204 4116 
Q 875 4013 500 3803 
L 500 4441 
Q 881 4594 1212 4672 
Q 1544 4750 1819 4750 
Q 2544 4750 2975 4387 
Q 3406 4025 3406 3419 
Q 3406 3131 3298 2873 
Q 3191 2616 2906 2266 
Q 2828 2175 2409 1742 
Q 1991 1309 1228 531 
z
" transform="scale(0.015625)"/>
       </defs>
       <use xlink:href="#DejaVuSans-31"/>
       <use xlink:href="#DejaVuSans-32" transform="translate(63.623047 0)"/>
       <use xlink:href="#DejaVuSans-30" transform="translate(127.246094 0)"/>
      </g>
     </g>
    </g>
    <g id="xtick_4">
     <g id="line2d_4">
      <g>
       <use xlink:href="#m7dc84d4574" x="420.745211" y="320.4" style="stroke: #000000; stroke-width: 0.8"/>
      </g>
     </g>
     <g id="text_4">
      <!-- 180 -->
      <g transform="translate(411.201461 334.998438) scale(0.1 -0.1)">
       <defs>
        <path id="DejaVuSans-38" d="M 2034 2216 
Q 1584 2216 1326 1975 
Q 1069 1734 1069 1313 
Q 1069 891 1326 650 
Q 1584 409 2034 409 
Q 2484 409 2743 651 
Q 3003 894 3003 1313 
Q 3003 1734 2745 1975 
Q 2488 2216 2034 2216 
z
M 1403 2484 
Q 997 2584 770 2862 
Q 544 3141 544 3541 
Q 544 4100 942 4425 
Q 1341 4750 2034 4750 
Q 2731 4750 3128 4425 
Q 3525 4100 3525 3541 
Q 3525 3141 3298 2862 
Q 3072 2584 2669 2484 
Q 3125 2378 3379 2068 
Q 3634 1759 3634 1313 
Q 3634 634 3220 271 
Q 2806 -91 2034 -91 
Q 1263 -91 848 271 
Q 434 634 434 1313 
Q 434 1759 690 2068 
Q 947 2378 1403 2484 
z
M 1172 3481 
Q 1172 3119 1398 2916 
Q 1625 2713 2034 2713 
Q 2441 2713 2670 2916 
Q 2900 3119 2900 3481 
Q 2900 3844 2670 4047 
Q 2441 4250 2034 4250 
Q 1625 4250 1398 4047 
Q 1172 3844 1172 3481 
z
" transform="scale(0.015625)"/>
       </defs>
       <use xlink:href="#DejaVuSans-31"/>
       <use xlink:href="#DejaVuSans-38" transform="translate(63.623047 0)"/>
       <use xlink:href="#DejaVuSans-30" transform="translate(127.246094 0)"/>
      </g>
     </g>
    </g>
    <g id="xtick_5">
     <g id="line2d_5">
      <g>
       <use xlink:href="#m7dc84d4574" x="522.53907" y="320.4" style="stroke: #000000; stroke-width: 0.8"/>
      </g>
     </g>
     <g id="text_5">
      <!-- 240 -->
      <g transform="translate(512.99532 334.998438) scale(0.1 -0.1)">
       <defs>
        <path id="DejaVuSans-34" d="M 2419 4116 
L 825 1625 
L 2419 1625 
L 2419 4116 
z
M 2253 4666 
L 3047 4666 
L 3047 1625 
L 3713 1625 
L 3713 1100 
L 3047 1100 
L 3047 0 
L 2419 0 
L 2419 1100 
L 313 1100 
L 313 1709 
L 2253 4666 
z
" transform="scale(0.015625)"/>
       </defs>
       <use xlink:href="#DejaVuSans-32"/>
       <use xlink:href="#DejaVuSans-34" transform="translate(63.623047 0)"/>
       <use xlink:href="#DejaVuSans-30" transform="translate(127.246094 0)"/>
      </g>
     </g>
    </g>
    <g id="text_6">
     <!-- Epoch -->
     <g transform="translate(353.689062 348.676562) scale(0.1 -0.1)">
      <defs>
       <path id="DejaVuSans-45" d="M 628 4666 
L 3578 4666 
L 3578 4134 
L 1259 4134 
L 1259 2753 
L 3481 2753 
L 3481 2222 
L 1259 2222 
L 1259 531 
L 3634 531 
L 3634 0 
L 628 0 
L 628 4666 
z
" transform="scale(0.015625)"/>
       <path id="DejaVuSans-70" d="M 1159 525 
L 1159 -1331 
L 581 -1331 
L 581 3500 
L 1159 3500 
L 1159 2969 
Q 1341 3281 1617 3432 
Q 1894 3584 2278 3584 
Q 2916 3584 3314 3078 
Q 3713 2572 3713 1747 
Q 3713 922 3314 415 
Q 2916 -91 2278 -91 
Q 1894 -91 1617 61 
Q 1341 213 1159 525 
z
M 3116 1747 
Q 3116 2381 2855 2742 
Q 2594 3103 2138 3103 
Q 1681 3103 1420 2742 
Q 1159 2381 1159 1747 
Q 1159 1113 1420 752 
Q 1681 391 2138 391 
Q 2594 391 2855 752 
Q 3116 1113 3116 1747 
z
" transform="scale(0.015625)"/>
       <path id="DejaVuSans-6f" d="M 1959 3097 
Q 1497 3097 1228 2736 
Q 959 2375 959 1747 
Q 959 1119 1226 758 
Q 1494 397 1959 397 
Q 2419 397 2687 759 
Q 2956 1122 2956 1747 
Q 2956 2369 2687 2733 
Q 2419 3097 1959 3097 
z
M 1959 3584 
Q 2709 3584 3137 3096 
Q 3566 2609 3566 1747 
Q 3566 888 3137 398 
Q 2709 -91 1959 -91 
Q 1206 -91 779 398 
Q 353 888 353 1747 
Q 353 2609 779 3096 
Q 1206 3584 1959 3584 
z
" transform="scale(0.015625)"/>
       <path id="DejaVuSans-63" d="M 3122 3366 
L 3122 2828 
Q 2878 2963 2633 3030 
Q 2388 3097 2138 3097 
Q 1578 3097 1268 2742 
Q 959 2388 959 1747 
Q 959 1106 1268 751 
Q 1578 397 2138 397 
Q 2388 397 2633 464 
Q 2878 531 3122 666 
L 3122 134 
Q 2881 22 2623 -34 
Q 2366 -91 2075 -91 
Q 1284 -91 818 406 
Q 353 903 353 1747 
Q 353 2603 823 3093 
Q 1294 3584 2113 3584 
Q 2378 3584 2631 3529 
Q 2884 3475 3122 3366 
z
" transform="scale(0.015625)"/>
       <path id="DejaVuSans-68" d="M 3513 2113 
L 3513 0 
L 2938 0 
L 2938 2094 
Q 2938 2591 2744 2837 
Q 2550 3084 2163 3084 
Q 1697 3084 1428 2787 
Q 1159 2491 1159 1978 
L 1159 0 
L 581 0 
L 581 4863 
L 1159 4863 
L 1159 2956 
Q 1366 3272 1645 3428 
Q 1925 3584 2291 3584 
Q 2894 3584 3203 3211 
Q 3513 2838 3513 2113 
z
" transform="scale(0.015625)"/>
      </defs>
      <use xlink:href="#DejaVuSans-45"/>
      <use xlink:href="#DejaVuSans-70" transform="translate(63.183594 0)"/>
      <use xlink:href="#DejaVuSans-6f" transform="translate(126.660156 0)"/>
      <use xlink:href="#DejaVuSans-63" transform="translate(187.841797 0)"/>
      <use xlink:href="#DejaVuSans-68" transform="translate(242.822266 0)"/>
     </g>
    </g>
   </g>
   <g id="matplotlib.axis_2">
    <g id="ytick_1">
     <g id="line2d_6">
      <defs>
       <path id="m94aa798129" d="M 0 0 
L -3.5 0 
" style="stroke: #000000; stroke-width: 0.8"/>
      </defs>
      <g>
       <use xlink:href="#m94aa798129" x="90" y="284.15234" style="stroke: #000000; stroke-width: 0.8"/>
      </g>
     </g>
     <g id="text_7">
      <!-- 0.2 -->
      <g transform="translate(67.096875 287.951559) scale(0.1 -0.1)">
       <defs>
        <path id="DejaVuSans-2e" d="M 684 794 
L 1344 794 
L 1344 0 
L 684 0 
L 684 794 
z
" transform="scale(0.015625)"/>
       </defs>
       <use xlink:href="#DejaVuSans-30"/>
       <use xlink:href="#DejaVuSans-2e" transform="translate(63.623047 0)"/>
       <use xlink:href="#DejaVuSans-32" transform="translate(95.410156 0)"/>
      </g>
     </g>
    </g>
    <g id="ytick_2">
     <g id="line2d_7">
      <g>
       <use xlink:href="#m94aa798129" x="90" y="245.852411" style="stroke: #000000; stroke-width: 0.8"/>
      </g>
     </g>
     <g id="text_8">
      <!-- 0.3 -->
      <g transform="translate(67.096875 249.651629) scale(0.1 -0.1)">
       <defs>
        <path id="DejaVuSans-33" d="M 2597 2516 
Q 3050 2419 3304 2112 
Q 3559 1806 3559 1356 
Q 3559 666 3084 287 
Q 2609 -91 1734 -91 
Q 1441 -91 1130 -33 
Q 819 25 488 141 
L 488 750 
Q 750 597 1062 519 
Q 1375 441 1716 441 
Q 2309 441 2620 675 
Q 2931 909 2931 1356 
Q 2931 1769 2642 2001 
Q 2353 2234 1838 2234 
L 1294 2234 
L 1294 2753 
L 1863 2753 
Q 2328 2753 2575 2939 
Q 2822 3125 2822 3475 
Q 2822 3834 2567 4026 
Q 2313 4219 1838 4219 
Q 1578 4219 1281 4162 
Q 984 4106 628 3988 
L 628 4550 
Q 988 4650 1302 4700 
Q 1616 4750 1894 4750 
Q 2613 4750 3031 4423 
Q 3450 4097 3450 3541 
Q 3450 3153 3228 2886 
Q 3006 2619 2597 2516 
z
" transform="scale(0.015625)"/>
       </defs>
       <use xlink:href="#DejaVuSans-30"/>
       <use xlink:href="#DejaVuSans-2e" transform="translate(63.623047 0)"/>
       <use xlink:href="#DejaVuSans-33" transform="translate(95.410156 0)"/>
      </g>
     </g>
    </g>
    <g id="ytick_3">
     <g id="line2d_8">
      <g>
       <use xlink:href="#m94aa798129" x="90" y="207.552481" style="stroke: #000000; stroke-width: 0.8"/>
      </g>
     </g>
     <g id="text_9">
      <!-- 0.4 -->
      <g transform="translate(67.096875 211.3517) scale(0.1 -0.1)">
       <use xlink:href="#DejaVuSans-30"/>
       <use xlink:href="#DejaVuSans-2e" transform="translate(63.623047 0)"/>
       <use xlink:href="#DejaVuSans-34" transform="translate(95.410156 0)"/>
      </g>
     </g>
    </g>
    <g id="ytick_4">
     <g id="line2d_9">
      <g>
       <use xlink:href="#m94aa798129" x="90" y="169.252552" style="stroke: #000000; stroke-width: 0.8"/>
      </g>
     </g>
     <g id="text_10">
      <!-- 0.5 -->
      <g transform="translate(67.096875 173.05177) scale(0.1 -0.1)">
       <defs>
        <path id="DejaVuSans-35" d="M 691 4666 
L 3169 4666 
L 3169 4134 
L 1269 4134 
L 1269 2991 
Q 1406 3038 1543 3061 
Q 1681 3084 1819 3084 
Q 2600 3084 3056 2656 
Q 3513 2228 3513 1497 
Q 3513 744 3044 326 
Q 2575 -91 1722 -91 
Q 1428 -91 1123 -41 
Q 819 9 494 109 
L 494 744 
Q 775 591 1075 516 
Q 1375 441 1709 441 
Q 2250 441 2565 725 
Q 2881 1009 2881 1497 
Q 2881 1984 2565 2268 
Q 2250 2553 1709 2553 
Q 1456 2553 1204 2497 
Q 953 2441 691 2322 
L 691 4666 
z
" transform="scale(0.015625)"/>
       </defs>
       <use xlink:href="#DejaVuSans-30"/>
       <use xlink:href="#DejaVuSans-2e" transform="translate(63.623047 0)"/>
       <use xlink:href="#DejaVuSans-35" transform="translate(95.410156 0)"/>
      </g>
     </g>
    </g>
    <g id="ytick_5">
     <g id="line2d_10">
      <g>
       <use xlink:href="#m94aa798129" x="90" y="130.952622" style="stroke: #000000; stroke-width: 0.8"/>
      </g>
     </g>
     <g id="text_11">
      <!-- 0.6 -->
      <g transform="translate(67.096875 134.751841) scale(0.1 -0.1)">
       <use xlink:href="#DejaVuSans-30"/>
       <use xlink:href="#DejaVuSans-2e" transform="translate(63.623047 0)"/>
       <use xlink:href="#DejaVuSans-36" transform="translate(95.410156 0)"/>
      </g>
     </g>
    </g>
    <g id="ytick_6">
     <g id="line2d_11">
      <g>
       <use xlink:href="#m94aa798129" x="90" y="92.652693" style="stroke: #000000; stroke-width: 0.8"/>
      </g>
     </g>
     <g id="text_12">
      <!-- 0.7 -->
      <g transform="translate(67.096875 96.451911) scale(0.1 -0.1)">
       <defs>
        <path id="DejaVuSans-37" d="M 525 4666 
L 3525 4666 
L 3525 4397 
L 1831 0 
L 1172 0 
L 2766 4134 
L 525 4134 
L 525 4666 
z
" transform="scale(0.015625)"/>
       </defs>
       <use xlink:href="#DejaVuSans-30"/>
       <use xlink:href="#DejaVuSans-2e" transform="translate(63.623047 0)"/>
       <use xlink:href="#DejaVuSans-37" transform="translate(95.410156 0)"/>
      </g>
     </g>
    </g>
    <g id="ytick_7">
     <g id="line2d_12">
      <g>
       <use xlink:href="#m94aa798129" x="90" y="54.352763" style="stroke: #000000; stroke-width: 0.8"/>
      </g>
     </g>
     <g id="text_13">
      <!-- 0.8 -->
      <g transform="translate(67.096875 58.151982) scale(0.1 -0.1)">
       <use xlink:href="#DejaVuSans-30"/>
       <use xlink:href="#DejaVuSans-2e" transform="translate(63.623047 0)"/>
       <use xlink:href="#DejaVuSans-38" transform="translate(95.410156 0)"/>
      </g>
     </g>
    </g>
    <g id="text_14">
     <!-- NMSE -->
     <g transform="translate(61.017187 196.188281) rotate(-90) scale(0.1 -0.1)">
      <defs>
       <path id="DejaVuSans-4e" d="M 628 4666 
L 1478 4666 
L 3547 763 
L 3547 4666 
L 4159 4666 
L 4159 0 
L 3309 0 
L 1241 3903 
L 1241 0 
L 628 0 
L 628 4666 
z
" transform="scale(0.015625)"/>
       <path id="DejaVuSans-4d" d="M 628 4666 
L 1569 4666 
L 2759 1491 
L 3956 4666 
L 4897 4666 
L 4897 0 
L 4281 0 
L 4281 4097 
L 3078 897 
L 2444 897 
L 1241 4097 
L 1241 0 
L 628 0 
L 628 4666 
z
" transform="scale(0.015625)"/>
       <path id="DejaVuSans-53" d="M 3425 4513 
L 3425 3897 
Q 3066 4069 2747 4153 
Q 2428 4238 2131 4238 
Q 1616 4238 1336 4038 
Q 1056 3838 1056 3469 
Q 1056 3159 1242 3001 
Q 1428 2844 1947 2747 
L 2328 2669 
Q 3034 2534 3370 2195 
Q 3706 1856 3706 1288 
Q 3706 609 3251 259 
Q 2797 -91 1919 -91 
Q 1588 -91 1214 -16 
Q 841 59 441 206 
L 441 856 
Q 825 641 1194 531 
Q 1563 422 1919 422 
Q 2459 422 2753 634 
Q 3047 847 3047 1241 
Q 3047 1584 2836 1778 
Q 2625 1972 2144 2069 
L 1759 2144 
Q 1053 2284 737 2584 
Q 422 2884 422 3419 
Q 422 4038 858 4394 
Q 1294 4750 2059 4750 
Q 2388 4750 2728 4690 
Q 3069 4631 3425 4513 
z
" transform="scale(0.015625)"/>
      </defs>
      <use xlink:href="#DejaVuSans-4e"/>
      <use xlink:href="#DejaVuSans-4d" transform="translate(74.804688 0)"/>
      <use xlink:href="#DejaVuSans-53" transform="translate(161.083984 0)"/>
      <use xlink:href="#DejaVuSans-45" transform="translate(224.560547 0)"/>
     </g>
    </g>
   </g>
   <g id="line2d_13">
    <path d="M 115.363636 284.889686 
L 117.060201 303.413567 
L 118.756765 306.397221 
L 120.453329 307.615209 
L 122.149894 307.8 
L 123.846458 307.366922 
L 125.543022 306.74022 
L 128.936151 305.983192 
L 130.632715 305.643197 
L 132.329279 304.805579 
L 134.025844 303.711675 
L 135.722408 302.991285 
L 137.418972 301.917018 
L 140.812101 299.392865 
L 142.508665 298.320488 
L 144.20523 297.01739 
L 147.598358 294.877252 
L 149.294922 293.650464 
L 152.688051 292.038317 
L 164.564001 285.842907 
L 169.653694 283.531795 
L 178.136516 279.482618 
L 184.922773 276.420092 
L 195.102159 271.770195 
L 201.888416 269.236722 
L 205.281545 268.187714 
L 212.067802 266.029758 
L 213.764366 265.642372 
L 217.157495 264.540154 
L 220.550623 263.628757 
L 222.247188 263.137787 
L 223.943752 262.85 
L 225.640316 262.243077 
L 232.426573 260.216054 
L 234.123138 259.690814 
L 235.819702 259.295645 
L 237.516266 259.061983 
L 249.392216 256.5652 
L 251.088781 256.359564 
L 252.785345 255.93626 
L 256.178474 255.392241 
L 257.875038 255.000859 
L 259.571602 254.4602 
L 261.268167 254.170844 
L 262.964731 253.719034 
L 264.661295 253.408893 
L 268.054424 252.400832 
L 269.750988 251.989957 
L 271.447552 251.461998 
L 274.840681 250.670398 
L 276.537245 250.114425 
L 278.23381 249.687351 
L 279.930374 249.084076 
L 285.020067 247.623495 
L 286.716631 247.109736 
L 288.413196 246.774949 
L 293.502888 245.134746 
L 295.199453 244.379993 
L 296.896017 243.870967 
L 298.592581 243.233492 
L 300.289146 242.784235 
L 307.075403 240.519357 
L 317.254789 237.26358 
L 320.647917 235.772421 
L 324.041046 234.616554 
L 325.73761 234.289737 
L 329.130739 233.224658 
L 330.827303 232.839002 
L 332.523867 232.121387 
L 339.310125 229.911246 
L 344.399818 228.235193 
L 347.792946 227.094095 
L 349.48951 226.406557 
L 351.186075 226.054554 
L 364.758589 222.357354 
L 366.455154 222.104219 
L 369.848282 221.24578 
L 371.544846 220.958072 
L 374.937975 220.057374 
L 378.331104 219.433247 
L 380.027668 218.980842 
L 381.724232 218.645737 
L 383.420797 218.453251 
L 385.117361 217.895897 
L 386.813925 217.457835 
L 390.207054 217.03337 
L 395.296747 216.036711 
L 396.993311 215.616999 
L 402.083004 214.982772 
L 403.779568 214.330348 
L 405.476133 214.138508 
L 407.172697 213.778066 
L 408.869261 213.253403 
L 410.565825 213.241277 
L 412.26239 212.999012 
L 413.958954 212.567032 
L 415.655518 212.512541 
L 419.048647 211.699185 
L 420.745211 211.549519 
L 425.834904 210.691477 
L 427.531469 210.040219 
L 429.228033 209.746703 
L 432.621161 208.909311 
L 437.710854 208.094391 
L 439.407419 207.632402 
L 447.89024 206.244261 
L 449.586804 205.830779 
L 451.283369 205.698678 
L 459.76619 204.339508 
L 461.462755 203.858312 
L 463.159319 203.779704 
L 464.855883 203.421274 
L 466.552448 203.223416 
L 468.249012 202.865239 
L 469.945576 202.732849 
L 471.64214 202.241209 
L 473.338705 201.968534 
L 475.035269 201.997215 
L 478.428398 201.493751 
L 480.124962 201.107208 
L 481.821526 201.009662 
L 483.518091 200.713511 
L 485.214655 200.264453 
L 486.911219 200.00934 
L 490.304348 199.878225 
L 492.000912 199.627485 
L 493.697476 199.783095 
L 498.787169 199.194155 
L 500.483734 198.649812 
L 503.876862 198.102836 
L 505.573427 197.332341 
L 508.966555 196.768502 
L 510.663119 196.217804 
L 514.056248 195.473139 
L 517.449377 194.940978 
L 519.145941 194.966804 
L 524.235634 193.662442 
L 529.325327 193.086147 
L 531.021891 192.510825 
L 532.718455 192.45009 
L 534.41502 191.991672 
L 536.111584 191.787885 
L 539.504713 191.17276 
L 541.201277 191.200269 
L 542.897841 190.640417 
L 544.594406 190.344512 
L 547.987534 190.280047 
L 549.684099 189.884155 
L 551.380663 190.057901 
L 553.077227 189.846769 
L 554.773791 189.921516 
L 556.470356 189.13801 
L 559.863484 189.258847 
L 561.560049 189.064602 
L 563.256613 188.718013 
L 566.649742 188.576949 
L 568.346306 188.449282 
L 573.435999 187.805252 
L 576.829127 187.501562 
L 580.222256 186.560466 
L 581.91882 186.431429 
L 583.615385 186.122387 
L 585.311949 186.007467 
L 587.008513 186.072737 
L 588.705078 186.269023 
L 590.401642 186.267643 
L 592.098206 185.889785 
L 593.79477 185.949848 
L 595.491335 185.764589 
L 600.581028 185.816224 
L 602.277592 185.584164 
L 605.670721 185.553859 
L 609.063849 184.985603 
L 610.760413 185.306138 
L 612.456978 184.770534 
L 615.850106 184.645101 
L 620.939799 184.625398 
L 622.636364 184.473907 
L 622.636364 184.473907 
" clip-path="url(#p53db11ae06)" style="fill: none; stroke: #1f77b4; stroke-width: 1.5; stroke-linecap: square"/>
   </g>
   <g id="line2d_14">
    <path d="M 115.363636 247.319528 
L 117.060201 268.569382 
L 118.756765 275.392657 
L 120.453329 278.739265 
L 122.149894 281.320657 
L 123.846458 282.37253 
L 125.543022 283.150442 
L 127.239587 284.45622 
L 128.936151 285.467602 
L 130.632715 285.866735 
L 132.329279 285.63223 
L 134.025844 285.558587 
L 135.722408 285.999054 
L 137.418972 285.746308 
L 139.115537 285.28876 
L 142.508665 284.738936 
L 144.20523 283.975681 
L 147.598358 283.05272 
L 149.294922 282.295974 
L 152.688051 281.746833 
L 157.777744 279.99774 
L 159.474308 279.563971 
L 162.867437 278.38355 
L 166.260566 277.528567 
L 174.743387 275.33528 
L 181.529644 273.227621 
L 183.226209 272.813412 
L 184.922773 272.191682 
L 191.70903 270.187955 
L 195.102159 269.028646 
L 206.978109 265.669505 
L 208.674673 265.106085 
L 215.46093 263.35503 
L 217.157495 262.805711 
L 223.943752 261.083868 
L 225.640316 260.419871 
L 235.819702 257.231843 
L 239.212831 256.549322 
L 259.571602 251.553666 
L 261.268167 251.257242 
L 271.447552 248.571428 
L 273.144117 248.391866 
L 274.840681 248.09596 
L 278.23381 247.313758 
L 285.020067 245.839798 
L 290.10976 244.848594 
L 291.806324 244.386001 
L 293.502888 244.247938 
L 295.199453 243.678484 
L 296.896017 243.421969 
L 300.289146 242.556522 
L 305.378839 241.518225 
L 310.468531 240.778889 
L 312.165096 240.405823 
L 313.86166 240.309509 
L 315.558224 239.8388 
L 317.254789 239.643121 
L 320.647917 238.658274 
L 324.041046 238.067223 
L 325.73761 238.019298 
L 329.130739 237.419261 
L 330.827303 237.34641 
L 334.220432 236.669844 
L 337.61356 236.033136 
L 339.310125 235.869138 
L 346.096382 234.806552 
L 347.792946 234.582803 
L 349.48951 234.202968 
L 351.186075 234.0549 
L 352.882639 233.777082 
L 356.275768 233.383781 
L 357.972332 233.021698 
L 361.365461 232.542272 
L 366.455154 231.761347 
L 371.544846 231.405924 
L 374.937975 230.633422 
L 383.420797 229.660077 
L 385.117361 229.204134 
L 386.813925 228.942465 
L 388.51049 229.00103 
L 391.903618 228.730283 
L 393.600182 228.44098 
L 395.296747 228.329508 
L 396.993311 228.011174 
L 398.689875 227.950043 
L 400.38644 227.713921 
L 402.083004 227.718304 
L 403.779568 227.31292 
L 407.172697 226.88565 
L 408.869261 226.377044 
L 410.565825 226.406101 
L 413.958954 226.035176 
L 415.655518 225.923332 
L 417.352083 225.937938 
L 419.048647 225.585543 
L 420.745211 225.722588 
L 424.13834 225.697481 
L 427.531469 225.205129 
L 430.924597 224.896703 
L 432.621161 224.609543 
L 434.317726 224.712025 
L 436.01429 224.59195 
L 439.407419 224.086311 
L 447.89024 223.39305 
L 449.586804 223.161732 
L 451.283369 223.109715 
L 452.979933 222.781224 
L 454.676497 222.594407 
L 458.069626 222.384019 
L 459.76619 222.140791 
L 461.462755 221.721092 
L 463.159319 221.652199 
L 464.855883 221.427019 
L 466.552448 221.510846 
L 473.338705 220.695246 
L 475.035269 220.707456 
L 481.821526 219.991682 
L 483.518091 219.805246 
L 485.214655 219.30726 
L 488.607784 218.801701 
L 492.000912 218.571038 
L 493.697476 218.678909 
L 495.394041 218.572547 
L 500.483734 217.903852 
L 503.876862 217.698069 
L 505.573427 217.116949 
L 508.966555 216.854612 
L 510.663119 216.502225 
L 512.359684 216.368324 
L 514.056248 216.078656 
L 517.449377 215.908064 
L 519.145941 216.018082 
L 524.235634 215.236099 
L 527.628763 214.92872 
L 529.325327 214.765077 
L 531.021891 214.330976 
L 532.718455 214.441871 
L 534.41502 214.128304 
L 536.111584 214.281597 
L 539.504713 213.865981 
L 541.201277 214.145776 
L 542.897841 213.692032 
L 547.987534 213.54788 
L 549.684099 213.314404 
L 551.380663 213.245498 
L 554.773791 213.400806 
L 556.470356 212.902419 
L 561.560049 212.959662 
L 564.953177 212.646331 
L 566.649742 212.967642 
L 571.739434 212.867877 
L 573.435999 212.850428 
L 575.132563 213.021035 
L 576.829127 213.00765 
L 580.222256 212.228193 
L 581.91882 212.161292 
L 583.615385 211.744704 
L 585.311949 211.624327 
L 587.008513 211.892678 
L 592.098206 212.334321 
L 593.79477 212.271577 
L 595.491335 212.450095 
L 597.187899 212.386567 
L 600.581028 212.794279 
L 602.277592 212.641424 
L 605.670721 213.165709 
L 607.367285 212.785577 
L 609.063849 212.781663 
L 610.760413 213.385917 
L 612.456978 212.964815 
L 617.546671 213.093671 
L 619.243235 213.581711 
L 620.939799 213.661376 
L 622.636364 213.450379 
L 622.636364 213.450379 
" clip-path="url(#p53db11ae06)" style="fill: none; stroke: #ff7f0e; stroke-width: 1.5; stroke-linecap: square"/>
   </g>
   <g id="line2d_15">
    <path d="M 115.363636 55.8 
L 117.060201 114.243374 
L 118.756765 159.257283 
L 120.453329 175.31252 
L 122.149894 185.677617 
L 123.846458 192.74452 
L 125.543022 198.237438 
L 127.239587 204.587753 
L 128.936151 208.476865 
L 130.632715 210.202305 
L 132.329279 211.489784 
L 135.722408 218.099594 
L 140.812101 224.680859 
L 142.508665 226.612408 
L 145.901794 229.884494 
L 147.598358 230.866707 
L 150.991487 233.459352 
L 152.688051 234.292649 
L 154.384615 235.68555 
L 159.474308 238.491875 
L 161.170873 239.323829 
L 164.564001 240.719388 
L 166.260566 241.455014 
L 169.653694 242.742085 
L 171.350258 243.472171 
L 174.743387 244.514139 
L 176.439951 245.144678 
L 184.922773 247.157434 
L 186.619337 247.327791 
L 190.012466 247.991978 
L 191.70903 248.138173 
L 193.405594 248.630067 
L 196.798723 249.15063 
L 200.191852 249.617333 
L 203.58498 250.075274 
L 206.978109 250.370692 
L 208.674673 250.661348 
L 215.46093 251.25044 
L 218.854059 251.59319 
L 232.426573 252.777843 
L 239.212831 253.143163 
L 242.605959 253.35161 
L 245.999088 253.572584 
L 249.392216 254.001448 
L 251.088781 254.003263 
L 254.481909 254.304302 
L 256.178474 254.320175 
L 257.875038 254.531358 
L 262.964731 254.515967 
L 264.661295 254.742554 
L 268.054424 254.859445 
L 269.750988 254.844686 
L 271.447552 255.005139 
L 274.840681 255.030365 
L 278.23381 255.127722 
L 295.199453 255.443745 
L 296.896017 255.318721 
L 305.378839 255.503846 
L 308.771967 255.483939 
L 312.165096 255.469692 
L 322.344482 255.434172 
L 325.73761 255.412737 
L 341.006689 255.140403 
L 344.399818 255.009445 
L 347.792946 254.937943 
L 352.882639 254.788199 
L 381.724232 253.692436 
L 390.207054 253.153855 
L 393.600182 252.954653 
L 403.779568 252.395752 
L 439.407419 250.352878 
L 442.800547 250.140292 
L 447.89024 249.811108 
L 452.979933 249.506036 
L 459.76619 249.045323 
L 463.159319 248.909454 
L 468.249012 248.57849 
L 471.64214 248.367895 
L 475.035269 248.16618 
L 481.821526 247.583005 
L 508.966555 246.00187 
L 517.449377 245.550885 
L 522.53907 245.229242 
L 537.808148 244.294021 
L 541.201277 244.066994 
L 544.594406 243.968405 
L 553.077227 243.561461 
L 558.16692 243.380603 
L 559.863484 243.22087 
L 561.560049 243.190579 
L 564.953177 242.963935 
L 575.132563 242.337937 
L 576.829127 242.31919 
L 578.525692 242.114141 
L 583.615385 241.799537 
L 587.008513 241.48271 
L 622.636364 238.454073 
L 622.636364 238.454073 
" clip-path="url(#p53db11ae06)" style="fill: none; stroke: #2ca02c; stroke-width: 1.5; stroke-linecap: square"/>
   </g>
   <g id="patch_3">
    <path d="M 90 320.4 
L 90 43.2 
" style="fill: none; stroke: #000000; stroke-width: 0.8; stroke-linejoin: miter; stroke-linecap: square"/>
   </g>
   <g id="patch_4">
    <path d="M 648 320.4 
L 648 43.2 
" style="fill: none; stroke: #000000; stroke-width: 0.8; stroke-linejoin: miter; stroke-linecap: square"/>
   </g>
   <g id="patch_5">
    <path d="M 90 320.4 
L 648 320.4 
" style="fill: none; stroke: #000000; stroke-width: 0.8; stroke-linejoin: miter; stroke-linecap: square"/>
   </g>
   <g id="patch_6">
    <path d="M 90 43.2 
L 648 43.2 
" style="fill: none; stroke: #000000; stroke-width: 0.8; stroke-linejoin: miter; stroke-linecap: square"/>
   </g>
   <g id="text_15">
    <!-- NMSE in Validation -->
    <g transform="translate(312.822187 37.2) scale(0.12 -0.12)">
     <defs>
      <path id="DejaVuSans-20" transform="scale(0.015625)"/>
      <path id="DejaVuSans-69" d="M 603 3500 
L 1178 3500 
L 1178 0 
L 603 0 
L 603 3500 
z
M 603 4863 
L 1178 4863 
L 1178 4134 
L 603 4134 
L 603 4863 
z
" transform="scale(0.015625)"/>
      <path id="DejaVuSans-6e" d="M 3513 2113 
L 3513 0 
L 2938 0 
L 2938 2094 
Q 2938 2591 2744 2837 
Q 2550 3084 2163 3084 
Q 1697 3084 1428 2787 
Q 1159 2491 1159 1978 
L 1159 0 
L 581 0 
L 581 3500 
L 1159 3500 
L 1159 2956 
Q 1366 3272 1645 3428 
Q 1925 3584 2291 3584 
Q 2894 3584 3203 3211 
Q 3513 2838 3513 2113 
z
" transform="scale(0.015625)"/>
      <path id="DejaVuSans-56" d="M 1831 0 
L 50 4666 
L 709 4666 
L 2188 738 
L 3669 4666 
L 4325 4666 
L 2547 0 
L 1831 0 
z
" transform="scale(0.015625)"/>
      <path id="DejaVuSans-61" d="M 2194 1759 
Q 1497 1759 1228 1600 
Q 959 1441 959 1056 
Q 959 750 1161 570 
Q 1363 391 1709 391 
Q 2188 391 2477 730 
Q 2766 1069 2766 1631 
L 2766 1759 
L 2194 1759 
z
M 3341 1997 
L 3341 0 
L 2766 0 
L 2766 531 
Q 2569 213 2275 61 
Q 1981 -91 1556 -91 
Q 1019 -91 701 211 
Q 384 513 384 1019 
Q 384 1609 779 1909 
Q 1175 2209 1959 2209 
L 2766 2209 
L 2766 2266 
Q 2766 2663 2505 2880 
Q 2244 3097 1772 3097 
Q 1472 3097 1187 3025 
Q 903 2953 641 2809 
L 641 3341 
Q 956 3463 1253 3523 
Q 1550 3584 1831 3584 
Q 2591 3584 2966 3190 
Q 3341 2797 3341 1997 
z
" transform="scale(0.015625)"/>
      <path id="DejaVuSans-6c" d="M 603 4863 
L 1178 4863 
L 1178 0 
L 603 0 
L 603 4863 
z
" transform="scale(0.015625)"/>
      <path id="DejaVuSans-64" d="M 2906 2969 
L 2906 4863 
L 3481 4863 
L 3481 0 
L 2906 0 
L 2906 525 
Q 2725 213 2448 61 
Q 2172 -91 1784 -91 
Q 1150 -91 751 415 
Q 353 922 353 1747 
Q 353 2572 751 3078 
Q 1150 3584 1784 3584 
Q 2172 3584 2448 3432 
Q 2725 3281 2906 2969 
z
M 947 1747 
Q 947 1113 1208 752 
Q 1469 391 1925 391 
Q 2381 391 2643 752 
Q 2906 1113 2906 1747 
Q 2906 2381 2643 2742 
Q 2381 3103 1925 3103 
Q 1469 3103 1208 2742 
Q 947 2381 947 1747 
z
" transform="scale(0.015625)"/>
      <path id="DejaVuSans-74" d="M 1172 4494 
L 1172 3500 
L 2356 3500 
L 2356 3053 
L 1172 3053 
L 1172 1153 
Q 1172 725 1289 603 
Q 1406 481 1766 481 
L 2356 481 
L 2356 0 
L 1766 0 
Q 1100 0 847 248 
Q 594 497 594 1153 
L 594 3053 
L 172 3053 
L 172 3500 
L 594 3500 
L 594 4494 
L 1172 4494 
z
" transform="scale(0.015625)"/>
     </defs>
     <use xlink:href="#DejaVuSans-4e"/>
     <use xlink:href="#DejaVuSans-4d" transform="translate(74.804688 0)"/>
     <use xlink:href="#DejaVuSans-53" transform="translate(161.083984 0)"/>
     <use xlink:href="#DejaVuSans-45" transform="translate(224.560547 0)"/>
     <use xlink:href="#DejaVuSans-20" transform="translate(287.744141 0)"/>
     <use xlink:href="#DejaVuSans-69" transform="translate(319.53125 0)"/>
     <use xlink:href="#DejaVuSans-6e" transform="translate(347.314453 0)"/>
     <use xlink:href="#DejaVuSans-20" transform="translate(410.693359 0)"/>
     <use xlink:href="#DejaVuSans-56" transform="translate(442.480469 0)"/>
     <use xlink:href="#DejaVuSans-61" transform="translate(503.138672 0)"/>
     <use xlink:href="#DejaVuSans-6c" transform="translate(564.417969 0)"/>
     <use xlink:href="#DejaVuSans-69" transform="translate(592.201172 0)"/>
     <use xlink:href="#DejaVuSans-64" transform="translate(619.984375 0)"/>
     <use xlink:href="#DejaVuSans-61" transform="translate(683.460938 0)"/>
     <use xlink:href="#DejaVuSans-74" transform="translate(744.740234 0)"/>
     <use xlink:href="#DejaVuSans-69" transform="translate(783.949219 0)"/>
     <use xlink:href="#DejaVuSans-6f" transform="translate(811.732422 0)"/>
     <use xlink:href="#DejaVuSans-6e" transform="translate(872.914062 0)"/>
    </g>
   </g>
   <g id="legend_1">
    <g id="patch_7">
     <path d="M 530.996875 95.234375 
L 641 95.234375 
Q 643 95.234375 643 93.234375 
L 643 50.2 
Q 643 48.2 641 48.2 
L 530.996875 48.2 
Q 528.996875 48.2 528.996875 50.2 
L 528.996875 93.234375 
Q 528.996875 95.234375 530.996875 95.234375 
z
" style="fill: #ffffff; opacity: 0.8; stroke: #cccccc; stroke-linejoin: miter"/>
    </g>
    <g id="line2d_16">
     <path d="M 532.996875 56.298437 
L 542.996875 56.298437 
L 552.996875 56.298437 
" style="fill: none; stroke: #1f77b4; stroke-width: 1.5; stroke-linecap: square"/>
    </g>
    <g id="text_16">
     <!-- Source Domain -->
     <g transform="translate(560.996875 59.798437) scale(0.1 -0.1)">
      <defs>
       <path id="DejaVuSans-75" d="M 544 1381 
L 544 3500 
L 1119 3500 
L 1119 1403 
Q 1119 906 1312 657 
Q 1506 409 1894 409 
Q 2359 409 2629 706 
Q 2900 1003 2900 1516 
L 2900 3500 
L 3475 3500 
L 3475 0 
L 2900 0 
L 2900 538 
Q 2691 219 2414 64 
Q 2138 -91 1772 -91 
Q 1169 -91 856 284 
Q 544 659 544 1381 
z
M 1991 3584 
L 1991 3584 
z
" transform="scale(0.015625)"/>
       <path id="DejaVuSans-72" d="M 2631 2963 
Q 2534 3019 2420 3045 
Q 2306 3072 2169 3072 
Q 1681 3072 1420 2755 
Q 1159 2438 1159 1844 
L 1159 0 
L 581 0 
L 581 3500 
L 1159 3500 
L 1159 2956 
Q 1341 3275 1631 3429 
Q 1922 3584 2338 3584 
Q 2397 3584 2469 3576 
Q 2541 3569 2628 3553 
L 2631 2963 
z
" transform="scale(0.015625)"/>
       <path id="DejaVuSans-65" d="M 3597 1894 
L 3597 1613 
L 953 1613 
Q 991 1019 1311 708 
Q 1631 397 2203 397 
Q 2534 397 2845 478 
Q 3156 559 3463 722 
L 3463 178 
Q 3153 47 2828 -22 
Q 2503 -91 2169 -91 
Q 1331 -91 842 396 
Q 353 884 353 1716 
Q 353 2575 817 3079 
Q 1281 3584 2069 3584 
Q 2775 3584 3186 3129 
Q 3597 2675 3597 1894 
z
M 3022 2063 
Q 3016 2534 2758 2815 
Q 2500 3097 2075 3097 
Q 1594 3097 1305 2825 
Q 1016 2553 972 2059 
L 3022 2063 
z
" transform="scale(0.015625)"/>
       <path id="DejaVuSans-44" d="M 1259 4147 
L 1259 519 
L 2022 519 
Q 2988 519 3436 956 
Q 3884 1394 3884 2338 
Q 3884 3275 3436 3711 
Q 2988 4147 2022 4147 
L 1259 4147 
z
M 628 4666 
L 1925 4666 
Q 3281 4666 3915 4102 
Q 4550 3538 4550 2338 
Q 4550 1131 3912 565 
Q 3275 0 1925 0 
L 628 0 
L 628 4666 
z
" transform="scale(0.015625)"/>
       <path id="DejaVuSans-6d" d="M 3328 2828 
Q 3544 3216 3844 3400 
Q 4144 3584 4550 3584 
Q 5097 3584 5394 3201 
Q 5691 2819 5691 2113 
L 5691 0 
L 5113 0 
L 5113 2094 
Q 5113 2597 4934 2840 
Q 4756 3084 4391 3084 
Q 3944 3084 3684 2787 
Q 3425 2491 3425 1978 
L 3425 0 
L 2847 0 
L 2847 2094 
Q 2847 2600 2669 2842 
Q 2491 3084 2119 3084 
Q 1678 3084 1418 2786 
Q 1159 2488 1159 1978 
L 1159 0 
L 581 0 
L 581 3500 
L 1159 3500 
L 1159 2956 
Q 1356 3278 1631 3431 
Q 1906 3584 2284 3584 
Q 2666 3584 2933 3390 
Q 3200 3197 3328 2828 
z
" transform="scale(0.015625)"/>
      </defs>
      <use xlink:href="#DejaVuSans-53"/>
      <use xlink:href="#DejaVuSans-6f" transform="translate(63.476562 0)"/>
      <use xlink:href="#DejaVuSans-75" transform="translate(124.658203 0)"/>
      <use xlink:href="#DejaVuSans-72" transform="translate(188.037109 0)"/>
      <use xlink:href="#DejaVuSans-63" transform="translate(226.900391 0)"/>
      <use xlink:href="#DejaVuSans-65" transform="translate(281.880859 0)"/>
      <use xlink:href="#DejaVuSans-20" transform="translate(343.404297 0)"/>
      <use xlink:href="#DejaVuSans-44" transform="translate(375.191406 0)"/>
      <use xlink:href="#DejaVuSans-6f" transform="translate(452.193359 0)"/>
      <use xlink:href="#DejaVuSans-6d" transform="translate(513.375 0)"/>
      <use xlink:href="#DejaVuSans-61" transform="translate(610.787109 0)"/>
      <use xlink:href="#DejaVuSans-69" transform="translate(672.066406 0)"/>
      <use xlink:href="#DejaVuSans-6e" transform="translate(699.849609 0)"/>
     </g>
    </g>
    <g id="line2d_17">
     <path d="M 532.996875 70.976562 
L 542.996875 70.976562 
L 552.996875 70.976562 
" style="fill: none; stroke: #ff7f0e; stroke-width: 1.5; stroke-linecap: square"/>
    </g>
    <g id="text_17">
     <!-- Target Domain -->
     <g transform="translate(560.996875 74.476562) scale(0.1 -0.1)">
      <defs>
       <path id="DejaVuSans-54" d="M -19 4666 
L 3928 4666 
L 3928 4134 
L 2272 4134 
L 2272 0 
L 1638 0 
L 1638 4134 
L -19 4134 
L -19 4666 
z
" transform="scale(0.015625)"/>
       <path id="DejaVuSans-67" d="M 2906 1791 
Q 2906 2416 2648 2759 
Q 2391 3103 1925 3103 
Q 1463 3103 1205 2759 
Q 947 2416 947 1791 
Q 947 1169 1205 825 
Q 1463 481 1925 481 
Q 2391 481 2648 825 
Q 2906 1169 2906 1791 
z
M 3481 434 
Q 3481 -459 3084 -895 
Q 2688 -1331 1869 -1331 
Q 1566 -1331 1297 -1286 
Q 1028 -1241 775 -1147 
L 775 -588 
Q 1028 -725 1275 -790 
Q 1522 -856 1778 -856 
Q 2344 -856 2625 -561 
Q 2906 -266 2906 331 
L 2906 616 
Q 2728 306 2450 153 
Q 2172 0 1784 0 
Q 1141 0 747 490 
Q 353 981 353 1791 
Q 353 2603 747 3093 
Q 1141 3584 1784 3584 
Q 2172 3584 2450 3431 
Q 2728 3278 2906 2969 
L 2906 3500 
L 3481 3500 
L 3481 434 
z
" transform="scale(0.015625)"/>
      </defs>
      <use xlink:href="#DejaVuSans-54"/>
      <use xlink:href="#DejaVuSans-61" transform="translate(44.583984 0)"/>
      <use xlink:href="#DejaVuSans-72" transform="translate(105.863281 0)"/>
      <use xlink:href="#DejaVuSans-67" transform="translate(145.226562 0)"/>
      <use xlink:href="#DejaVuSans-65" transform="translate(208.703125 0)"/>
      <use xlink:href="#DejaVuSans-74" transform="translate(270.226562 0)"/>
      <use xlink:href="#DejaVuSans-20" transform="translate(309.435547 0)"/>
      <use xlink:href="#DejaVuSans-44" transform="translate(341.222656 0)"/>
      <use xlink:href="#DejaVuSans-6f" transform="translate(418.224609 0)"/>
      <use xlink:href="#DejaVuSans-6d" transform="translate(479.40625 0)"/>
      <use xlink:href="#DejaVuSans-61" transform="translate(576.818359 0)"/>
      <use xlink:href="#DejaVuSans-69" transform="translate(638.097656 0)"/>
      <use xlink:href="#DejaVuSans-6e" transform="translate(665.880859 0)"/>
     </g>
    </g>
    <g id="line2d_18">
     <path d="M 532.996875 85.654687 
L 542.996875 85.654687 
L 552.996875 85.654687 
" style="fill: none; stroke: #2ca02c; stroke-width: 1.5; stroke-linecap: square"/>
    </g>
    <g id="text_18">
     <!-- Pseudo Domain -->
     <g transform="translate(560.996875 89.154687) scale(0.1 -0.1)">
      <defs>
       <path id="DejaVuSans-50" d="M 1259 4147 
L 1259 2394 
L 2053 2394 
Q 2494 2394 2734 2622 
Q 2975 2850 2975 3272 
Q 2975 3691 2734 3919 
Q 2494 4147 2053 4147 
L 1259 4147 
z
M 628 4666 
L 2053 4666 
Q 2838 4666 3239 4311 
Q 3641 3956 3641 3272 
Q 3641 2581 3239 2228 
Q 2838 1875 2053 1875 
L 1259 1875 
L 1259 0 
L 628 0 
L 628 4666 
z
" transform="scale(0.015625)"/>
       <path id="DejaVuSans-73" d="M 2834 3397 
L 2834 2853 
Q 2591 2978 2328 3040 
Q 2066 3103 1784 3103 
Q 1356 3103 1142 2972 
Q 928 2841 928 2578 
Q 928 2378 1081 2264 
Q 1234 2150 1697 2047 
L 1894 2003 
Q 2506 1872 2764 1633 
Q 3022 1394 3022 966 
Q 3022 478 2636 193 
Q 2250 -91 1575 -91 
Q 1294 -91 989 -36 
Q 684 19 347 128 
L 347 722 
Q 666 556 975 473 
Q 1284 391 1588 391 
Q 1994 391 2212 530 
Q 2431 669 2431 922 
Q 2431 1156 2273 1281 
Q 2116 1406 1581 1522 
L 1381 1569 
Q 847 1681 609 1914 
Q 372 2147 372 2553 
Q 372 3047 722 3315 
Q 1072 3584 1716 3584 
Q 2034 3584 2315 3537 
Q 2597 3491 2834 3397 
z
" transform="scale(0.015625)"/>
      </defs>
      <use xlink:href="#DejaVuSans-50"/>
      <use xlink:href="#DejaVuSans-73" transform="translate(58.552734 0)"/>
      <use xlink:href="#DejaVuSans-65" transform="translate(110.652344 0)"/>
      <use xlink:href="#DejaVuSans-75" transform="translate(172.175781 0)"/>
      <use xlink:href="#DejaVuSans-64" transform="translate(235.554688 0)"/>
      <use xlink:href="#DejaVuSans-6f" transform="translate(299.03125 0)"/>
      <use xlink:href="#DejaVuSans-20" transform="translate(360.212891 0)"/>
      <use xlink:href="#DejaVuSans-44" transform="translate(392 0)"/>
      <use xlink:href="#DejaVuSans-6f" transform="translate(469.001953 0)"/>
      <use xlink:href="#DejaVuSans-6d" transform="translate(530.183594 0)"/>
      <use xlink:href="#DejaVuSans-61" transform="translate(627.595703 0)"/>
      <use xlink:href="#DejaVuSans-69" transform="translate(688.875 0)"/>
      <use xlink:href="#DejaVuSans-6e" transform="translate(716.658203 0)"/>
     </g>
    </g>
   </g>
  </g>
 </g>
 <defs>
  <clipPath id="p53db11ae06">
   <rect x="90" y="43.2" width="558" height="277.2"/>
  </clipPath>
 </defs>
</svg>
