<?xml version="1.0" encoding="utf-8" standalone="no"?>
<!DOCTYPE svg PUBLIC "-//W3C//DTD SVG 1.1//EN"
  "http://www.w3.org/Graphics/SVG/1.1/DTD/svg11.dtd">
<svg xmlns:xlink="http://www.w3.org/1999/xlink" width="720pt" height="360pt" viewBox="0 0 720 360" xmlns="http://www.w3.org/2000/svg" version="1.1">
 <metadata>
  <rdf:RDF xmlns:dc="http://purl.org/dc/elements/1.1/" xmlns:cc="http://creativecommons.org/ns#" xmlns:rdf="http://www.w3.org/1999/02/22-rdf-syntax-ns#">
   <cc:Work>
    <dc:type rdf:resource="http://purl.org/dc/dcmitype/StillImage"/>
    <dc:date>2025-10-27T04:19:39.419842</dc:date>
    <dc:format>image/svg+xml</dc:format>
    <dc:creator>
     <cc:Agent>
      <dc:title>Matplotlib v3.10.1, https://matplotlib.org/</dc:title>
     </cc:Agent>
    </dc:creator>
   </cc:Work>
  </rdf:RDF>
 </metadata>
 <defs>
  <style type="text/css">*{stroke-linejoin: round; stroke-linecap: butt}</style>
 </defs>
 <g id="figure_1">
  <g id="patch_1">
   <path d="M 0 360 
L 720 360 
L 720 0 
L 0 0 
z
" style="fill: #ffffff"/>
  </g>
  <g id="axes_1">
   <g id="patch_2">
    <path d="M 90 320.4 
L 648 320.4 
L 648 43.2 
L 90 43.2 
z
" style="fill: #ffffff"/>
   </g>
   <g id="matplotlib.axis_1">
    <g id="xtick_1">
     <g id="line2d_1">
      <defs>
       <path id="mca72904147" d="M 0 0 
L 0 3.5 
" style="stroke: #000000; stroke-width: 0.8"/>
      </defs>
      <g>
       <use xlink:href="#mca72904147" x="115.363636" y="320.4" style="stroke: #000000; stroke-width: 0.8"/>
      </g>
     </g>
     <g id="text_1">
      <!-- 0 -->
      <g transform="translate(112.182386 334.998438) scale(0.1 -0.1)">
       <defs>
        <path id="DejaVuSans-30" d="M 2034 4250 
Q 1547 4250 1301 3770 
Q 1056 3291 1056 2328 
Q 1056 1369 1301 889 
Q 1547 409 2034 409 
Q 2525 409 2770 889 
Q 3016 1369 3016 2328 
Q 3016 3291 2770 3770 
Q 2525 4250 2034 4250 
z
M 2034 4750 
Q 2819 4750 3233 4129 
Q 3647 3509 3647 2328 
Q 3647 1150 3233 529 
Q 2819 -91 2034 -91 
Q 1250 -91 836 529 
Q 422 1150 422 2328 
Q 422 3509 836 4129 
Q 1250 4750 2034 4750 
z
" transform="scale(0.015625)"/>
       </defs>
       <use xlink:href="#DejaVuSans-30"/>
      </g>
     </g>
    </g>
    <g id="xtick_2">
     <g id="line2d_2">
      <g>
       <use xlink:href="#mca72904147" x="217.157495" y="320.4" style="stroke: #000000; stroke-width: 0.8"/>
      </g>
     </g>
     <g id="text_2">
      <!-- 60 -->
      <g transform="translate(210.794995 334.998438) scale(0.1 -0.1)">
       <defs>
        <path id="DejaVuSans-36" d="M 2113 2584 
Q 1688 2584 1439 2293 
Q 1191 2003 1191 1497 
Q 1191 994 1439 701 
Q 1688 409 2113 409 
Q 2538 409 2786 701 
Q 3034 994 3034 1497 
Q 3034 2003 2786 2293 
Q 2538 2584 2113 2584 
z
M 3366 4563 
L 3366 3988 
Q 3128 4100 2886 4159 
Q 2644 4219 2406 4219 
Q 1781 4219 1451 3797 
Q 1122 3375 1075 2522 
Q 1259 2794 1537 2939 
Q 1816 3084 2150 3084 
Q 2853 3084 3261 2657 
Q 3669 2231 3669 1497 
Q 3669 778 3244 343 
Q 2819 -91 2113 -91 
Q 1303 -91 875 529 
Q 447 1150 447 2328 
Q 447 3434 972 4092 
Q 1497 4750 2381 4750 
Q 2619 4750 2861 4703 
Q 3103 4656 3366 4563 
z
" transform="scale(0.015625)"/>
       </defs>
       <use xlink:href="#DejaVuSans-36"/>
       <use xlink:href="#DejaVuSans-30" transform="translate(63.623047 0)"/>
      </g>
     </g>
    </g>
    <g id="xtick_3">
     <g id="line2d_3">
      <g>
       <use xlink:href="#mca72904147" x="318.951353" y="320.4" style="stroke: #000000; stroke-width: 0.8"/>
      </g>
     </g>
     <g id="text_3">
      <!-- 120 -->
      <g transform="translate(309.407603 334.998438) scale(0.1 -0.1)">
       <defs>
        <path id="DejaVuSans-31" d="M 794 531 
L 1825 531 
L 1825 4091 
L 703 3866 
L 703 4441 
L 1819 4666 
L 2450 4666 
L 2450 531 
L 3481 531 
L 3481 0 
L 794 0 
L 794 531 
z
" transform="scale(0.015625)"/>
        <path id="DejaVuSans-32" d="M 1228 531 
L 3431 531 
L 3431 0 
L 469 0 
L 469 531 
Q 828 903 1448 1529 
Q 2069 2156 2228 2338 
Q 2531 2678 2651 2914 
Q 2772 3150 2772 3378 
Q 2772 3750 2511 3984 
Q 2250 4219 1831 4219 
Q 1534 4219 1204 4116 
Q 875 4013 500 3803 
L 500 4441 
Q 881 4594 1212 4672 
Q 1544 4750 1819 4750 
Q 2544 4750 2975 4387 
Q 3406 4025 3406 3419 
Q 3406 3131 3298 2873 
Q 3191 2616 2906 2266 
Q 2828 2175 2409 1742 
Q 1991 1309 1228 531 
z
" transform="scale(0.015625)"/>
       </defs>
       <use xlink:href="#DejaVuSans-31"/>
       <use xlink:href="#DejaVuSans-32" transform="translate(63.623047 0)"/>
       <use xlink:href="#DejaVuSans-30" transform="translate(127.246094 0)"/>
      </g>
     </g>
    </g>
    <g id="xtick_4">
     <g id="line2d_4">
      <g>
       <use xlink:href="#mca72904147" x="420.745211" y="320.4" style="stroke: #000000; stroke-width: 0.8"/>
      </g>
     </g>
     <g id="text_4">
      <!-- 180 -->
      <g transform="translate(411.201461 334.998438) scale(0.1 -0.1)">
       <defs>
        <path id="DejaVuSans-38" d="M 2034 2216 
Q 1584 2216 1326 1975 
Q 1069 1734 1069 1313 
Q 1069 891 1326 650 
Q 1584 409 2034 409 
Q 2484 409 2743 651 
Q 3003 894 3003 1313 
Q 3003 1734 2745 1975 
Q 2488 2216 2034 2216 
z
M 1403 2484 
Q 997 2584 770 2862 
Q 544 3141 544 3541 
Q 544 4100 942 4425 
Q 1341 4750 2034 4750 
Q 2731 4750 3128 4425 
Q 3525 4100 3525 3541 
Q 3525 3141 3298 2862 
Q 3072 2584 2669 2484 
Q 3125 2378 3379 2068 
Q 3634 1759 3634 1313 
Q 3634 634 3220 271 
Q 2806 -91 2034 -91 
Q 1263 -91 848 271 
Q 434 634 434 1313 
Q 434 1759 690 2068 
Q 947 2378 1403 2484 
z
M 1172 3481 
Q 1172 3119 1398 2916 
Q 1625 2713 2034 2713 
Q 2441 2713 2670 2916 
Q 2900 3119 2900 3481 
Q 2900 3844 2670 4047 
Q 2441 4250 2034 4250 
Q 1625 4250 1398 4047 
Q 1172 3844 1172 3481 
z
" transform="scale(0.015625)"/>
       </defs>
       <use xlink:href="#DejaVuSans-31"/>
       <use xlink:href="#DejaVuSans-38" transform="translate(63.623047 0)"/>
       <use xlink:href="#DejaVuSans-30" transform="translate(127.246094 0)"/>
      </g>
     </g>
    </g>
    <g id="xtick_5">
     <g id="line2d_5">
      <g>
       <use xlink:href="#mca72904147" x="522.53907" y="320.4" style="stroke: #000000; stroke-width: 0.8"/>
      </g>
     </g>
     <g id="text_5">
      <!-- 240 -->
      <g transform="translate(512.99532 334.998438) scale(0.1 -0.1)">
       <defs>
        <path id="DejaVuSans-34" d="M 2419 4116 
L 825 1625 
L 2419 1625 
L 2419 4116 
z
M 2253 4666 
L 3047 4666 
L 3047 1625 
L 3713 1625 
L 3713 1100 
L 3047 1100 
L 3047 0 
L 2419 0 
L 2419 1100 
L 313 1100 
L 313 1709 
L 2253 4666 
z
" transform="scale(0.015625)"/>
       </defs>
       <use xlink:href="#DejaVuSans-32"/>
       <use xlink:href="#DejaVuSans-34" transform="translate(63.623047 0)"/>
       <use xlink:href="#DejaVuSans-30" transform="translate(127.246094 0)"/>
      </g>
     </g>
    </g>
    <g id="text_6">
     <!-- Epoch -->
     <g transform="translate(353.689062 348.676562) scale(0.1 -0.1)">
      <defs>
       <path id="DejaVuSans-45" d="M 628 4666 
L 3578 4666 
L 3578 4134 
L 1259 4134 
L 1259 2753 
L 3481 2753 
L 3481 2222 
L 1259 2222 
L 1259 531 
L 3634 531 
L 3634 0 
L 628 0 
L 628 4666 
z
" transform="scale(0.015625)"/>
       <path id="DejaVuSans-70" d="M 1159 525 
L 1159 -1331 
L 581 -1331 
L 581 3500 
L 1159 3500 
L 1159 2969 
Q 1341 3281 1617 3432 
Q 1894 3584 2278 3584 
Q 2916 3584 3314 3078 
Q 3713 2572 3713 1747 
Q 3713 922 3314 415 
Q 2916 -91 2278 -91 
Q 1894 -91 1617 61 
Q 1341 213 1159 525 
z
M 3116 1747 
Q 3116 2381 2855 2742 
Q 2594 3103 2138 3103 
Q 1681 3103 1420 2742 
Q 1159 2381 1159 1747 
Q 1159 1113 1420 752 
Q 1681 391 2138 391 
Q 2594 391 2855 752 
Q 3116 1113 3116 1747 
z
" transform="scale(0.015625)"/>
       <path id="DejaVuSans-6f" d="M 1959 3097 
Q 1497 3097 1228 2736 
Q 959 2375 959 1747 
Q 959 1119 1226 758 
Q 1494 397 1959 397 
Q 2419 397 2687 759 
Q 2956 1122 2956 1747 
Q 2956 2369 2687 2733 
Q 2419 3097 1959 3097 
z
M 1959 3584 
Q 2709 3584 3137 3096 
Q 3566 2609 3566 1747 
Q 3566 888 3137 398 
Q 2709 -91 1959 -91 
Q 1206 -91 779 398 
Q 353 888 353 1747 
Q 353 2609 779 3096 
Q 1206 3584 1959 3584 
z
" transform="scale(0.015625)"/>
       <path id="DejaVuSans-63" d="M 3122 3366 
L 3122 2828 
Q 2878 2963 2633 3030 
Q 2388 3097 2138 3097 
Q 1578 3097 1268 2742 
Q 959 2388 959 1747 
Q 959 1106 1268 751 
Q 1578 397 2138 397 
Q 2388 397 2633 464 
Q 2878 531 3122 666 
L 3122 134 
Q 2881 22 2623 -34 
Q 2366 -91 2075 -91 
Q 1284 -91 818 406 
Q 353 903 353 1747 
Q 353 2603 823 3093 
Q 1294 3584 2113 3584 
Q 2378 3584 2631 3529 
Q 2884 3475 3122 3366 
z
" transform="scale(0.015625)"/>
       <path id="DejaVuSans-68" d="M 3513 2113 
L 3513 0 
L 2938 0 
L 2938 2094 
Q 2938 2591 2744 2837 
Q 2550 3084 2163 3084 
Q 1697 3084 1428 2787 
Q 1159 2491 1159 1978 
L 1159 0 
L 581 0 
L 581 4863 
L 1159 4863 
L 1159 2956 
Q 1366 3272 1645 3428 
Q 1925 3584 2291 3584 
Q 2894 3584 3203 3211 
Q 3513 2838 3513 2113 
z
" transform="scale(0.015625)"/>
      </defs>
      <use xlink:href="#DejaVuSans-45"/>
      <use xlink:href="#DejaVuSans-70" transform="translate(63.183594 0)"/>
      <use xlink:href="#DejaVuSans-6f" transform="translate(126.660156 0)"/>
      <use xlink:href="#DejaVuSans-63" transform="translate(187.841797 0)"/>
      <use xlink:href="#DejaVuSans-68" transform="translate(242.822266 0)"/>
     </g>
    </g>
   </g>
   <g id="matplotlib.axis_2">
    <g id="ytick_1">
     <g id="line2d_6">
      <defs>
       <path id="mcb262a14cf" d="M 0 0 
L -3.5 0 
" style="stroke: #000000; stroke-width: 0.8"/>
      </defs>
      <g>
       <use xlink:href="#mcb262a14cf" x="90" y="300.377348" style="stroke: #000000; stroke-width: 0.8"/>
      </g>
     </g>
     <g id="text_7">
      <!-- 2 -->
      <g transform="translate(76.6375 304.176567) scale(0.1 -0.1)">
       <use xlink:href="#DejaVuSans-32"/>
      </g>
     </g>
    </g>
    <g id="ytick_2">
     <g id="line2d_7">
      <g>
       <use xlink:href="#mcb262a14cf" x="90" y="250.348675" style="stroke: #000000; stroke-width: 0.8"/>
      </g>
     </g>
     <g id="text_8">
      <!-- 3 -->
      <g transform="translate(76.6375 254.147894) scale(0.1 -0.1)">
       <defs>
        <path id="DejaVuSans-33" d="M 2597 2516 
Q 3050 2419 3304 2112 
Q 3559 1806 3559 1356 
Q 3559 666 3084 287 
Q 2609 -91 1734 -91 
Q 1441 -91 1130 -33 
Q 819 25 488 141 
L 488 750 
Q 750 597 1062 519 
Q 1375 441 1716 441 
Q 2309 441 2620 675 
Q 2931 909 2931 1356 
Q 2931 1769 2642 2001 
Q 2353 2234 1838 2234 
L 1294 2234 
L 1294 2753 
L 1863 2753 
Q 2328 2753 2575 2939 
Q 2822 3125 2822 3475 
Q 2822 3834 2567 4026 
Q 2313 4219 1838 4219 
Q 1578 4219 1281 4162 
Q 984 4106 628 3988 
L 628 4550 
Q 988 4650 1302 4700 
Q 1616 4750 1894 4750 
Q 2613 4750 3031 4423 
Q 3450 4097 3450 3541 
Q 3450 3153 3228 2886 
Q 3006 2619 2597 2516 
z
" transform="scale(0.015625)"/>
       </defs>
       <use xlink:href="#DejaVuSans-33"/>
      </g>
     </g>
    </g>
    <g id="ytick_3">
     <g id="line2d_8">
      <g>
       <use xlink:href="#mcb262a14cf" x="90" y="200.320003" style="stroke: #000000; stroke-width: 0.8"/>
      </g>
     </g>
     <g id="text_9">
      <!-- 4 -->
      <g transform="translate(76.6375 204.119221) scale(0.1 -0.1)">
       <use xlink:href="#DejaVuSans-34"/>
      </g>
     </g>
    </g>
    <g id="ytick_4">
     <g id="line2d_9">
      <g>
       <use xlink:href="#mcb262a14cf" x="90" y="150.29133" style="stroke: #000000; stroke-width: 0.8"/>
      </g>
     </g>
     <g id="text_10">
      <!-- 5 -->
      <g transform="translate(76.6375 154.090548) scale(0.1 -0.1)">
       <defs>
        <path id="DejaVuSans-35" d="M 691 4666 
L 3169 4666 
L 3169 4134 
L 1269 4134 
L 1269 2991 
Q 1406 3038 1543 3061 
Q 1681 3084 1819 3084 
Q 2600 3084 3056 2656 
Q 3513 2228 3513 1497 
Q 3513 744 3044 326 
Q 2575 -91 1722 -91 
Q 1428 -91 1123 -41 
Q 819 9 494 109 
L 494 744 
Q 775 591 1075 516 
Q 1375 441 1709 441 
Q 2250 441 2565 725 
Q 2881 1009 2881 1497 
Q 2881 1984 2565 2268 
Q 2250 2553 1709 2553 
Q 1456 2553 1204 2497 
Q 953 2441 691 2322 
L 691 4666 
z
" transform="scale(0.015625)"/>
       </defs>
       <use xlink:href="#DejaVuSans-35"/>
      </g>
     </g>
    </g>
    <g id="ytick_5">
     <g id="line2d_10">
      <g>
       <use xlink:href="#mcb262a14cf" x="90" y="100.262657" style="stroke: #000000; stroke-width: 0.8"/>
      </g>
     </g>
     <g id="text_11">
      <!-- 6 -->
      <g transform="translate(76.6375 104.061875) scale(0.1 -0.1)">
       <use xlink:href="#DejaVuSans-36"/>
      </g>
     </g>
    </g>
    <g id="ytick_6">
     <g id="line2d_11">
      <g>
       <use xlink:href="#mcb262a14cf" x="90" y="50.233984" style="stroke: #000000; stroke-width: 0.8"/>
      </g>
     </g>
     <g id="text_12">
      <!-- 7 -->
      <g transform="translate(76.6375 54.033202) scale(0.1 -0.1)">
       <defs>
        <path id="DejaVuSans-37" d="M 525 4666 
L 3525 4666 
L 3525 4397 
L 1831 0 
L 1172 0 
L 2766 4134 
L 525 4134 
L 525 4666 
z
" transform="scale(0.015625)"/>
       </defs>
       <use xlink:href="#DejaVuSans-37"/>
      </g>
     </g>
    </g>
    <g id="text_13">
     <!-- Estimation Loss -->
     <g transform="translate(70.557812 220.98125) rotate(-90) scale(0.1 -0.1)">
      <defs>
       <path id="DejaVuSans-73" d="M 2834 3397 
L 2834 2853 
Q 2591 2978 2328 3040 
Q 2066 3103 1784 3103 
Q 1356 3103 1142 2972 
Q 928 2841 928 2578 
Q 928 2378 1081 2264 
Q 1234 2150 1697 2047 
L 1894 2003 
Q 2506 1872 2764 1633 
Q 3022 1394 3022 966 
Q 3022 478 2636 193 
Q 2250 -91 1575 -91 
Q 1294 -91 989 -36 
Q 684 19 347 128 
L 347 722 
Q 666 556 975 473 
Q 1284 391 1588 391 
Q 1994 391 2212 530 
Q 2431 669 2431 922 
Q 2431 1156 2273 1281 
Q 2116 1406 1581 1522 
L 1381 1569 
Q 847 1681 609 1914 
Q 372 2147 372 2553 
Q 372 3047 722 3315 
Q 1072 3584 1716 3584 
Q 2034 3584 2315 3537 
Q 2597 3491 2834 3397 
z
" transform="scale(0.015625)"/>
       <path id="DejaVuSans-74" d="M 1172 4494 
L 1172 3500 
L 2356 3500 
L 2356 3053 
L 1172 3053 
L 1172 1153 
Q 1172 725 1289 603 
Q 1406 481 1766 481 
L 2356 481 
L 2356 0 
L 1766 0 
Q 1100 0 847 248 
Q 594 497 594 1153 
L 594 3053 
L 172 3053 
L 172 3500 
L 594 3500 
L 594 4494 
L 1172 4494 
z
" transform="scale(0.015625)"/>
       <path id="DejaVuSans-69" d="M 603 3500 
L 1178 3500 
L 1178 0 
L 603 0 
L 603 3500 
z
M 603 4863 
L 1178 4863 
L 1178 4134 
L 603 4134 
L 603 4863 
z
" transform="scale(0.015625)"/>
       <path id="DejaVuSans-6d" d="M 3328 2828 
Q 3544 3216 3844 3400 
Q 4144 3584 4550 3584 
Q 5097 3584 5394 3201 
Q 5691 2819 5691 2113 
L 5691 0 
L 5113 0 
L 5113 2094 
Q 5113 2597 4934 2840 
Q 4756 3084 4391 3084 
Q 3944 3084 3684 2787 
Q 3425 2491 3425 1978 
L 3425 0 
L 2847 0 
L 2847 2094 
Q 2847 2600 2669 2842 
Q 2491 3084 2119 3084 
Q 1678 3084 1418 2786 
Q 1159 2488 1159 1978 
L 1159 0 
L 581 0 
L 581 3500 
L 1159 3500 
L 1159 2956 
Q 1356 3278 1631 3431 
Q 1906 3584 2284 3584 
Q 2666 3584 2933 3390 
Q 3200 3197 3328 2828 
z
" transform="scale(0.015625)"/>
       <path id="DejaVuSans-61" d="M 2194 1759 
Q 1497 1759 1228 1600 
Q 959 1441 959 1056 
Q 959 750 1161 570 
Q 1363 391 1709 391 
Q 2188 391 2477 730 
Q 2766 1069 2766 1631 
L 2766 1759 
L 2194 1759 
z
M 3341 1997 
L 3341 0 
L 2766 0 
L 2766 531 
Q 2569 213 2275 61 
Q 1981 -91 1556 -91 
Q 1019 -91 701 211 
Q 384 513 384 1019 
Q 384 1609 779 1909 
Q 1175 2209 1959 2209 
L 2766 2209 
L 2766 2266 
Q 2766 2663 2505 2880 
Q 2244 3097 1772 3097 
Q 1472 3097 1187 3025 
Q 903 2953 641 2809 
L 641 3341 
Q 956 3463 1253 3523 
Q 1550 3584 1831 3584 
Q 2591 3584 2966 3190 
Q 3341 2797 3341 1997 
z
" transform="scale(0.015625)"/>
       <path id="DejaVuSans-6e" d="M 3513 2113 
L 3513 0 
L 2938 0 
L 2938 2094 
Q 2938 2591 2744 2837 
Q 2550 3084 2163 3084 
Q 1697 3084 1428 2787 
Q 1159 2491 1159 1978 
L 1159 0 
L 581 0 
L 581 3500 
L 1159 3500 
L 1159 2956 
Q 1366 3272 1645 3428 
Q 1925 3584 2291 3584 
Q 2894 3584 3203 3211 
Q 3513 2838 3513 2113 
z
" transform="scale(0.015625)"/>
       <path id="DejaVuSans-20" transform="scale(0.015625)"/>
       <path id="DejaVuSans-4c" d="M 628 4666 
L 1259 4666 
L 1259 531 
L 3531 531 
L 3531 0 
L 628 0 
L 628 4666 
z
" transform="scale(0.015625)"/>
      </defs>
      <use xlink:href="#DejaVuSans-45"/>
      <use xlink:href="#DejaVuSans-73" transform="translate(63.183594 0)"/>
      <use xlink:href="#DejaVuSans-74" transform="translate(115.283203 0)"/>
      <use xlink:href="#DejaVuSans-69" transform="translate(154.492188 0)"/>
      <use xlink:href="#DejaVuSans-6d" transform="translate(182.275391 0)"/>
      <use xlink:href="#DejaVuSans-61" transform="translate(279.6875 0)"/>
      <use xlink:href="#DejaVuSans-74" transform="translate(340.966797 0)"/>
      <use xlink:href="#DejaVuSans-69" transform="translate(380.175781 0)"/>
      <use xlink:href="#DejaVuSans-6f" transform="translate(407.958984 0)"/>
      <use xlink:href="#DejaVuSans-6e" transform="translate(469.140625 0)"/>
      <use xlink:href="#DejaVuSans-20" transform="translate(532.519531 0)"/>
      <use xlink:href="#DejaVuSans-4c" transform="translate(564.306641 0)"/>
      <use xlink:href="#DejaVuSans-6f" transform="translate(618.269531 0)"/>
      <use xlink:href="#DejaVuSans-73" transform="translate(679.451172 0)"/>
      <use xlink:href="#DejaVuSans-73" transform="translate(731.550781 0)"/>
     </g>
    </g>
   </g>
   <g id="line2d_12">
    <path d="M 115.363636 254.220297 
L 117.060201 267.719206 
L 118.756765 271.787817 
L 120.453329 274.058188 
L 122.149894 275.641409 
L 123.846458 276.911543 
L 127.239587 278.930079 
L 128.936151 279.783769 
L 134.025844 281.808411 
L 139.115537 283.336509 
L 149.294922 285.800662 
L 152.688051 286.426085 
L 157.777744 287.585803 
L 169.653694 289.571328 
L 179.83308 290.983664 
L 181.529644 291.348799 
L 183.226209 291.422952 
L 191.70903 292.57704 
L 200.191852 293.447489 
L 201.888416 293.562739 
L 203.58498 293.895342 
L 205.281545 293.885864 
L 206.978109 294.14649 
L 210.371237 294.395249 
L 212.067802 294.537736 
L 213.764366 294.94748 
L 215.46093 294.810797 
L 225.640316 295.609267 
L 227.336881 295.525867 
L 229.033445 295.761796 
L 230.730009 295.808167 
L 232.426573 296.177022 
L 234.123138 296.316076 
L 235.819702 296.222093 
L 239.212831 296.40674 
L 240.909395 296.683483 
L 245.999088 296.815566 
L 251.088781 297.283241 
L 252.785345 297.148412 
L 254.481909 297.327587 
L 256.178474 297.309395 
L 257.875038 297.54034 
L 259.571602 297.580462 
L 261.268167 297.782854 
L 262.964731 297.844852 
L 264.661295 298.064005 
L 266.35786 297.993384 
L 269.750988 298.441822 
L 273.144117 298.628397 
L 274.840681 298.449536 
L 276.537245 298.715678 
L 278.23381 298.658024 
L 279.930374 298.950952 
L 281.626938 298.979477 
L 283.323503 299.254283 
L 285.020067 299.119759 
L 288.413196 299.659118 
L 290.10976 299.868471 
L 296.896017 299.762025 
L 298.592581 300.023407 
L 300.289146 299.642209 
L 301.98571 300.107404 
L 303.682274 299.793788 
L 305.378839 300.04106 
L 307.075403 299.848196 
L 308.771967 300.226208 
L 310.468531 300.330691 
L 312.165096 300.214321 
L 313.86166 300.436011 
L 315.558224 300.877526 
L 317.254789 300.682352 
L 318.951353 300.880257 
L 320.647917 300.749175 
L 329.130739 301.354985 
L 332.523867 301.252377 
L 334.220432 301.555066 
L 339.310125 301.652534 
L 341.006689 301.815099 
L 342.703253 301.547823 
L 346.096382 301.301146 
L 347.792946 302.203793 
L 349.48951 301.878275 
L 351.186075 301.890736 
L 352.882639 302.305562 
L 354.579203 302.211204 
L 356.275768 301.989894 
L 357.972332 302.483806 
L 359.668896 302.459491 
L 361.365461 302.321194 
L 363.062025 301.783215 
L 364.758589 302.210734 
L 366.455154 302.359087 
L 368.151718 302.081402 
L 369.848282 302.620404 
L 371.544846 302.157779 
L 373.241411 302.665154 
L 374.937975 302.642959 
L 376.634539 302.416264 
L 378.331104 302.880537 
L 380.027668 302.894069 
L 383.420797 303.327106 
L 385.117361 302.977465 
L 386.813925 303.561078 
L 388.51049 302.911897 
L 390.207054 303.459804 
L 400.38644 303.517919 
L 402.083004 303.823504 
L 403.779568 303.864026 
L 407.172697 304.382155 
L 408.869261 303.690226 
L 410.565825 303.561222 
L 412.26239 304.103689 
L 413.958954 303.742683 
L 415.655518 303.632622 
L 417.352083 304.282397 
L 419.048647 303.692786 
L 420.745211 304.182613 
L 424.13834 303.954377 
L 425.834904 304.35099 
L 429.228033 304.340122 
L 430.924597 304.104505 
L 432.621161 304.727722 
L 434.317726 303.792525 
L 436.01429 304.630679 
L 437.710854 304.567971 
L 439.407419 304.815124 
L 442.800547 303.890865 
L 444.497112 304.166544 
L 446.193676 304.75009 
L 447.89024 304.496774 
L 449.586804 304.72616 
L 451.283369 304.523493 
L 452.979933 304.538362 
L 454.676497 304.84953 
L 456.373062 304.763673 
L 458.069626 304.971679 
L 459.76619 304.55822 
L 461.462755 304.822914 
L 463.159319 304.231158 
L 466.552448 304.738577 
L 468.249012 304.889686 
L 469.945576 304.510253 
L 471.64214 305.467586 
L 473.338705 305.053556 
L 475.035269 305.48488 
L 476.731833 305.202483 
L 478.428398 305.142993 
L 480.124962 305.757228 
L 481.821526 305.393994 
L 483.518091 305.311723 
L 485.214655 305.804445 
L 486.911219 304.930273 
L 488.607784 305.429303 
L 490.304348 305.385681 
L 492.000912 305.059141 
L 493.697476 305.167147 
L 497.090605 305.793446 
L 498.787169 305.819496 
L 500.483734 305.490978 
L 502.180298 305.656177 
L 503.876862 306.044249 
L 505.573427 305.644236 
L 507.269991 305.995178 
L 508.966555 305.428556 
L 510.663119 305.90507 
L 515.752812 306.010419 
L 517.449377 306.262021 
L 519.145941 306.136182 
L 520.842505 305.885014 
L 522.53907 306.382634 
L 524.235634 306.123333 
L 525.932198 306.056115 
L 529.325327 306.458715 
L 531.021891 306.302603 
L 536.111584 306.417636 
L 537.808148 306.236871 
L 539.504713 306.43851 
L 541.201277 306.38127 
L 542.897841 306.60676 
L 544.594406 306.476667 
L 546.29097 306.168704 
L 549.684099 307.031127 
L 551.380663 306.67053 
L 553.077227 306.599434 
L 554.773791 306.381355 
L 556.470356 306.498027 
L 558.16692 306.731018 
L 559.863484 307.200332 
L 561.560049 306.155435 
L 563.256613 306.95687 
L 564.953177 306.362699 
L 566.649742 306.631496 
L 568.346306 307.460839 
L 570.04287 306.583419 
L 571.739434 307.230035 
L 576.829127 306.773834 
L 578.525692 307.106305 
L 580.222256 306.845354 
L 581.91882 307.046393 
L 583.615385 306.231486 
L 585.311949 306.971654 
L 587.008513 307.400812 
L 588.705078 307.553939 
L 590.401642 307.415051 
L 592.098206 307.598415 
L 593.79477 307.369759 
L 595.491335 306.943562 
L 597.187899 307.4425 
L 598.884463 307.245192 
L 600.581028 307.288783 
L 602.277592 307.555742 
L 603.974156 307.338026 
L 605.670721 307.6007 
L 607.367285 307.649251 
L 609.063849 306.885155 
L 610.760413 307.616513 
L 612.456978 307.518308 
L 614.153542 307.8 
L 617.546671 307.585258 
L 619.243235 307.790439 
L 620.939799 307.52005 
L 622.636364 307.787471 
L 622.636364 307.787471 
" clip-path="url(#p4cbc920a7b)" style="fill: none; stroke: #1f77b4; stroke-width: 1.5; stroke-linecap: square"/>
   </g>
   <g id="line2d_13">
    <path d="M 115.363636 239.646108 
L 117.060201 238.238983 
L 118.756765 235.830342 
L 120.453329 234.459993 
L 122.149894 233.888611 
L 123.846458 233.535155 
L 125.543022 233.345367 
L 128.936151 233.44244 
L 130.632715 233.368271 
L 132.329279 233.749811 
L 139.115537 234.283688 
L 140.812101 234.077059 
L 144.20523 234.466568 
L 147.598358 234.501578 
L 149.294922 234.542518 
L 150.991487 234.295806 
L 152.688051 234.21429 
L 159.474308 234.303921 
L 161.170873 233.996547 
L 162.867437 234.113129 
L 164.564001 233.949345 
L 166.260566 234.105756 
L 167.95713 233.891169 
L 169.653694 233.864015 
L 171.350258 234.100522 
L 173.046823 234.10566 
L 176.439951 233.662512 
L 178.136516 233.590477 
L 179.83308 234.00334 
L 181.529644 233.63656 
L 183.226209 233.579507 
L 184.922773 233.913249 
L 186.619337 233.613681 
L 188.315901 233.915553 
L 193.405594 233.886776 
L 195.102159 234.163736 
L 198.495287 233.916644 
L 200.191852 234.289308 
L 201.888416 234.095625 
L 203.58498 234.321289 
L 206.978109 234.282 
L 215.46093 234.689258 
L 222.247188 234.392096 
L 223.943752 234.789018 
L 225.640316 234.654603 
L 229.033445 234.842315 
L 230.730009 234.771579 
L 232.426573 234.94781 
L 234.123138 235.259434 
L 239.212831 235.649462 
L 240.909395 235.58003 
L 242.605959 235.642428 
L 244.302524 235.880405 
L 247.695652 235.834147 
L 249.392216 236.418672 
L 251.088781 236.40192 
L 254.481909 236.691285 
L 257.875038 237.299576 
L 261.268167 237.402378 
L 262.964731 237.513924 
L 266.35786 237.47487 
L 268.054424 238.117359 
L 269.750988 238.092815 
L 271.447552 238.341642 
L 273.144117 238.373496 
L 274.840681 237.860957 
L 276.537245 238.380367 
L 278.23381 239.385725 
L 279.930374 239.32823 
L 281.626938 238.863922 
L 283.323503 239.405506 
L 285.020067 239.579469 
L 286.716631 239.095126 
L 288.413196 239.049726 
L 290.10976 239.948251 
L 291.806324 239.577427 
L 293.502888 239.483983 
L 295.199453 239.611041 
L 296.896017 240.236463 
L 298.592581 240.739912 
L 300.289146 240.549899 
L 301.98571 240.774175 
L 303.682274 240.828907 
L 305.378839 241.188558 
L 308.771967 240.977401 
L 310.468531 240.751442 
L 312.165096 241.018623 
L 313.86166 240.779707 
L 315.558224 240.861255 
L 317.254789 241.613658 
L 320.647917 241.589468 
L 322.344482 242.057031 
L 324.041046 241.687117 
L 325.73761 241.848727 
L 327.434175 242.330797 
L 329.130739 242.172524 
L 330.827303 242.480091 
L 332.523867 242.534409 
L 335.916996 242.840798 
L 337.61356 242.572352 
L 339.310125 242.964543 
L 341.006689 242.733891 
L 342.703253 243.409364 
L 344.399818 243.276982 
L 346.096382 242.709577 
L 347.792946 242.928813 
L 349.48951 243.479078 
L 351.186075 243.318303 
L 354.579203 243.670127 
L 356.275768 243.099799 
L 357.972332 243.650008 
L 359.668896 243.750367 
L 361.365461 243.51797 
L 363.062025 244.007351 
L 366.455154 243.579997 
L 368.151718 243.834072 
L 369.848282 243.676801 
L 371.544846 243.383722 
L 373.241411 244.058252 
L 374.937975 243.517683 
L 378.331104 243.702393 
L 380.027668 243.634949 
L 381.724232 243.823518 
L 383.420797 243.763841 
L 386.813925 243.905026 
L 388.51049 243.794277 
L 390.207054 243.819763 
L 391.903618 244.307433 
L 393.600182 243.589232 
L 395.296747 243.951726 
L 398.689875 243.888965 
L 400.38644 243.578315 
L 402.083004 244.085266 
L 405.476133 243.906936 
L 407.172697 244.172658 
L 410.565825 244.049194 
L 412.26239 243.802275 
L 413.958954 243.820801 
L 415.655518 244.034482 
L 417.352083 244.629348 
L 419.048647 244.157363 
L 420.745211 243.978668 
L 422.441776 244.014368 
L 424.13834 244.430235 
L 425.834904 243.768873 
L 429.228033 243.905797 
L 430.924597 243.675825 
L 432.621161 243.95346 
L 434.317726 243.564016 
L 436.01429 243.990495 
L 437.710854 244.150748 
L 439.407419 244.195787 
L 441.103983 243.412436 
L 444.497112 244.299088 
L 446.193676 243.852298 
L 447.89024 244.464427 
L 449.586804 244.569499 
L 451.283369 244.060827 
L 452.979933 243.248771 
L 454.676497 243.681204 
L 456.373062 244.244546 
L 458.069626 243.900295 
L 464.855883 243.754214 
L 466.552448 244.238326 
L 468.249012 244.044805 
L 469.945576 243.718149 
L 471.64214 244.351815 
L 473.338705 244.46625 
L 475.035269 244.122748 
L 476.731833 244.424657 
L 478.428398 244.449512 
L 480.124962 244.213427 
L 481.821526 244.531907 
L 483.518091 243.976849 
L 485.214655 244.355765 
L 486.911219 244.470359 
L 492.000912 244.093077 
L 493.697476 244.02535 
L 495.394041 244.251382 
L 497.090605 244.206667 
L 498.787169 243.875276 
L 500.483734 244.687539 
L 502.180298 243.70684 
L 503.876862 243.877512 
L 505.573427 244.277165 
L 507.269991 244.103698 
L 508.966555 243.725876 
L 510.663119 243.673387 
L 512.359684 243.937286 
L 514.056248 244.056292 
L 517.449377 243.547183 
L 519.145941 243.650026 
L 520.842505 244.03119 
L 522.53907 244.209667 
L 524.235634 244.260714 
L 525.932198 243.804417 
L 527.628763 243.556292 
L 529.325327 243.970611 
L 531.021891 243.334238 
L 532.718455 243.400493 
L 534.41502 244.378858 
L 536.111584 244.008348 
L 537.808148 243.226174 
L 539.504713 243.583159 
L 542.897841 243.541712 
L 544.594406 243.757842 
L 546.29097 244.152574 
L 547.987534 243.661072 
L 549.684099 243.746285 
L 553.077227 244.158917 
L 554.773791 243.555691 
L 556.470356 243.734902 
L 558.16692 243.58345 
L 559.863484 243.637044 
L 561.560049 244.04417 
L 563.256613 243.800825 
L 564.953177 243.42725 
L 571.739434 243.93581 
L 575.132563 243.902365 
L 576.829127 244.151787 
L 578.525692 244.192051 
L 580.222256 243.546353 
L 581.91882 243.932885 
L 583.615385 243.765202 
L 585.311949 243.743433 
L 587.008513 244.087919 
L 588.705078 244.276911 
L 590.401642 244.266136 
L 592.098206 243.709808 
L 593.79477 244.498063 
L 595.491335 244.478357 
L 597.187899 244.054538 
L 598.884463 244.239145 
L 600.581028 244.079633 
L 602.277592 244.583152 
L 603.974156 244.71055 
L 605.670721 245.03028 
L 607.367285 245.154151 
L 609.063849 244.444666 
L 610.760413 244.918875 
L 612.456978 245.065436 
L 614.153542 244.850462 
L 615.850106 245.038314 
L 617.546671 244.51369 
L 619.243235 245.16408 
L 622.636364 245.234124 
L 622.636364 245.234124 
" clip-path="url(#p4cbc920a7b)" style="fill: none; stroke: #ff7f0e; stroke-width: 1.5; stroke-linecap: square"/>
   </g>
   <g id="line2d_14">
    <path d="M 115.363636 150.662277 
L 117.060201 159.360391 
L 118.756765 162.99818 
L 120.453329 165.389693 
L 122.149894 167.031919 
L 123.846458 168.105421 
L 127.239587 170.654018 
L 130.632715 171.70692 
L 132.329279 172.009055 
L 134.025844 172.531583 
L 135.722408 172.86565 
L 139.115537 173.18768 
L 140.812101 173.642528 
L 142.508665 173.734326 
L 144.20523 173.468652 
L 145.901794 173.950809 
L 150.991487 174.684305 
L 152.688051 173.943379 
L 154.384615 175.253107 
L 156.08118 174.609864 
L 159.474308 174.407227 
L 161.170873 175.414737 
L 162.867437 175.212017 
L 164.564001 174.867292 
L 166.260566 174.69544 
L 167.95713 175.119853 
L 169.653694 174.384811 
L 171.350258 174.879567 
L 173.046823 175.173698 
L 174.743387 175.274884 
L 176.439951 175.003717 
L 178.136516 175.197913 
L 179.83308 174.98919 
L 181.529644 175.286913 
L 183.226209 175.928594 
L 184.922773 175.861647 
L 186.619337 176.202688 
L 188.315901 175.886078 
L 190.012466 176.591326 
L 195.102159 177.060394 
L 196.798723 176.110663 
L 198.495287 177.112487 
L 201.888416 176.570261 
L 203.58498 177.431486 
L 205.281545 177.554009 
L 206.978109 178.066486 
L 208.674673 177.4467 
L 210.371237 178.668754 
L 212.067802 178.037497 
L 213.764366 178.930302 
L 215.46093 178.697858 
L 217.157495 178.634685 
L 218.854059 178.237847 
L 220.550623 177.497228 
L 222.247188 178.707644 
L 223.943752 178.509605 
L 225.640316 177.729294 
L 227.336881 179.588029 
L 229.033445 179.564239 
L 230.730009 178.086731 
L 232.426573 178.428649 
L 234.123138 179.146606 
L 235.819702 177.975761 
L 237.516266 179.466418 
L 240.909395 177.910979 
L 242.605959 177.380304 
L 244.302524 175.30872 
L 245.999088 175.912511 
L 247.695652 177.459508 
L 249.392216 177.866654 
L 251.088781 177.448962 
L 252.785345 178.626654 
L 254.481909 179.636909 
L 256.178474 179.944294 
L 257.875038 179.516785 
L 259.571602 178.49755 
L 261.268167 178.759901 
L 262.964731 177.963323 
L 264.661295 178.881773 
L 266.35786 179.046158 
L 268.054424 177.433332 
L 269.750988 177.425064 
L 271.447552 178.031081 
L 273.144117 178.759784 
L 274.840681 177.682971 
L 276.537245 178.551158 
L 278.23381 177.209239 
L 279.930374 177.923791 
L 281.626938 177.459088 
L 283.323503 177.941185 
L 285.020067 175.915085 
L 286.716631 175.297652 
L 288.413196 173.883651 
L 290.10976 176.073747 
L 291.806324 174.714313 
L 293.502888 178.026157 
L 295.199453 176.635069 
L 296.896017 174.420285 
L 298.592581 174.936989 
L 300.289146 174.624073 
L 301.98571 175.57757 
L 303.682274 175.744176 
L 305.378839 176.828571 
L 307.075403 175.518084 
L 308.771967 173.949194 
L 310.468531 175.543629 
L 313.86166 174.891161 
L 315.558224 172.308978 
L 317.254789 174.269556 
L 318.951353 171.173987 
L 320.647917 171.78804 
L 322.344482 174.497176 
L 324.041046 174.207924 
L 325.73761 172.531847 
L 327.434175 174.110342 
L 329.130739 173.170353 
L 330.827303 174.008055 
L 332.523867 173.533741 
L 334.220432 172.82535 
L 335.916996 172.732604 
L 337.61356 173.707409 
L 339.310125 171.263912 
L 341.006689 172.004434 
L 342.703253 173.578094 
L 344.399818 175.996656 
L 346.096382 173.759763 
L 347.792946 175.249384 
L 349.48951 172.400781 
L 351.186075 172.988541 
L 352.882639 174.234744 
L 354.579203 174.022402 
L 356.275768 174.186217 
L 357.972332 172.136578 
L 359.668896 171.298549 
L 361.365461 172.892764 
L 363.062025 172.224925 
L 364.758589 174.228021 
L 366.455154 171.789685 
L 368.151718 172.64393 
L 369.848282 171.791357 
L 371.544846 172.829534 
L 373.241411 170.69867 
L 374.937975 173.627639 
L 376.634539 171.261889 
L 378.331104 171.780179 
L 380.027668 173.904493 
L 381.724232 175.545149 
L 383.420797 170.865998 
L 385.117361 172.778641 
L 386.813925 174.323028 
L 388.51049 173.199348 
L 390.207054 174.041105 
L 391.903618 173.76508 
L 393.600182 175.528262 
L 396.993311 169.757845 
L 398.689875 174.036544 
L 400.38644 174.652046 
L 402.083004 173.166733 
L 403.779568 176.180874 
L 405.476133 176.183321 
L 407.172697 171.572955 
L 408.869261 173.369097 
L 410.565825 173.139841 
L 412.26239 173.85554 
L 413.958954 171.416371 
L 415.655518 172.669792 
L 417.352083 175.802768 
L 419.048647 173.184873 
L 420.745211 176.134952 
L 422.441776 174.853807 
L 424.13834 172.23007 
L 425.834904 173.15403 
L 427.531469 174.556374 
L 429.228033 173.597145 
L 430.924597 173.253091 
L 432.621161 174.709292 
L 434.317726 174.418296 
L 436.01429 173.561098 
L 437.710854 175.389284 
L 439.407419 174.168095 
L 441.103983 174.598486 
L 442.800547 172.613602 
L 444.497112 174.980125 
L 446.193676 172.437138 
L 447.89024 174.712678 
L 449.586804 174.976702 
L 451.283369 175.124317 
L 452.979933 175.384377 
L 454.676497 176.115287 
L 456.373062 173.436839 
L 458.069626 176.030208 
L 459.76619 175.840668 
L 461.462755 177.403737 
L 463.159319 176.446407 
L 464.855883 178.407085 
L 466.552448 178.495083 
L 468.249012 178.442113 
L 469.945576 176.786244 
L 471.64214 177.482832 
L 473.338705 173.126545 
L 475.035269 176.575108 
L 476.731833 176.154201 
L 478.428398 177.034376 
L 480.124962 176.34151 
L 481.821526 175.788113 
L 483.518091 175.636034 
L 485.214655 176.875481 
L 486.911219 175.812719 
L 488.607784 173.418137 
L 490.304348 174.766904 
L 492.000912 175.14331 
L 493.697476 178.93347 
L 495.394041 176.329278 
L 497.090605 172.360593 
L 498.787169 175.346298 
L 500.483734 174.525648 
L 502.180298 172.91661 
L 503.876862 174.554101 
L 505.573427 175.489862 
L 507.269991 179.044128 
L 508.966555 174.188848 
L 510.663119 175.359825 
L 512.359684 174.539576 
L 514.056248 174.921682 
L 515.752812 174.658195 
L 517.449377 176.283416 
L 519.145941 173.944668 
L 520.842505 175.486963 
L 522.53907 176.683234 
L 524.235634 171.157095 
L 525.932198 175.028832 
L 527.628763 173.530407 
L 529.325327 173.003913 
L 531.021891 178.383172 
L 532.718455 174.971409 
L 534.41502 175.034158 
L 536.111584 174.898525 
L 537.808148 171.682774 
L 539.504713 172.221942 
L 541.201277 173.597637 
L 542.897841 175.350561 
L 544.594406 178.042072 
L 546.29097 173.023418 
L 547.987534 171.508312 
L 549.684099 173.235761 
L 551.380663 176.983747 
L 553.077227 177.323293 
L 554.773791 175.783557 
L 556.470356 173.761491 
L 558.16692 172.670332 
L 559.863484 174.793864 
L 561.560049 177.101371 
L 563.256613 171.569271 
L 564.953177 171.994071 
L 568.346306 174.756823 
L 570.04287 173.152093 
L 571.739434 175.628331 
L 573.435999 173.383003 
L 575.132563 174.881831 
L 576.829127 175.018097 
L 578.525692 171.172057 
L 580.222256 175.227878 
L 581.91882 174.246342 
L 583.615385 172.037459 
L 585.311949 166.858986 
L 587.008513 173.2451 
L 588.705078 175.485489 
L 590.401642 172.665232 
L 592.098206 171.211629 
L 593.79477 170.96322 
L 597.187899 170.198303 
L 598.884463 167.59667 
L 600.581028 171.5588 
L 602.277592 171.775914 
L 603.974156 171.751186 
L 605.670721 169.244294 
L 607.367285 171.989052 
L 609.063849 171.643024 
L 610.760413 175.121765 
L 612.456978 168.053122 
L 614.153542 168.544861 
L 615.850106 170.691037 
L 617.546671 169.335012 
L 619.243235 165.933204 
L 620.939799 175.243591 
L 622.636364 167.437845 
L 622.636364 167.437845 
" clip-path="url(#p4cbc920a7b)" style="fill: none; stroke: #2ca02c; stroke-width: 1.5; stroke-linecap: square"/>
   </g>
   <g id="line2d_15">
    <path d="M 115.363636 72.865167 
L 117.060201 63.569271 
L 118.756765 59.143132 
L 120.453329 57.27287 
L 123.846458 55.8 
L 127.239587 56.540934 
L 128.936151 56.831765 
L 130.632715 57.396775 
L 132.329279 58.269363 
L 134.025844 58.074151 
L 135.722408 59.768637 
L 137.418972 59.300997 
L 139.115537 60.2556 
L 140.812101 61.80067 
L 142.508665 60.874352 
L 144.20523 61.329633 
L 145.901794 62.322467 
L 147.598358 61.46216 
L 149.294922 63.430373 
L 150.991487 62.983186 
L 152.688051 63.435315 
L 154.384615 64.639703 
L 156.08118 63.736522 
L 157.777744 63.602966 
L 159.474308 63.711481 
L 161.170873 63.695487 
L 162.867437 64.828325 
L 164.564001 65.261285 
L 166.260566 64.411151 
L 167.95713 64.754238 
L 169.653694 62.207239 
L 171.350258 64.227344 
L 173.046823 65.077263 
L 174.743387 62.620975 
L 176.439951 62.509933 
L 178.136516 62.87983 
L 179.83308 63.723939 
L 181.529644 62.868851 
L 184.922773 63.439163 
L 186.619337 63.286256 
L 188.315901 62.09079 
L 190.012466 63.944032 
L 191.70903 62.94392 
L 193.405594 61.31129 
L 195.102159 62.692307 
L 196.798723 62.965581 
L 200.191852 64.364038 
L 201.888416 62.568981 
L 203.58498 63.768553 
L 205.281545 65.11526 
L 208.674673 65.026102 
L 210.371237 66.992088 
L 212.067802 68.416463 
L 213.764366 65.879835 
L 215.46093 65.766725 
L 217.157495 67.665688 
L 218.854059 66.665565 
L 220.550623 66.165277 
L 222.247188 65.867654 
L 223.943752 66.218083 
L 225.640316 66.75655 
L 227.336881 67.087785 
L 229.033445 66.141932 
L 230.730009 67.725325 
L 232.426573 66.970029 
L 234.123138 66.443361 
L 237.516266 66.996204 
L 240.909395 68.945408 
L 242.605959 69.181442 
L 244.302524 66.835416 
L 245.999088 69.359188 
L 247.695652 70.380359 
L 249.392216 68.895253 
L 251.088781 68.002107 
L 252.785345 68.884375 
L 254.481909 71.281551 
L 256.178474 71.32152 
L 257.875038 69.482154 
L 259.571602 73.070086 
L 261.268167 70.409519 
L 262.964731 71.783794 
L 264.661295 71.761366 
L 266.35786 74.572223 
L 268.054424 72.866562 
L 269.750988 72.87575 
L 271.447552 77.1844 
L 274.840681 74.906503 
L 276.537245 76.07561 
L 278.23381 76.805198 
L 279.930374 77.342507 
L 281.626938 79.617868 
L 283.323503 75.381234 
L 285.020067 78.436331 
L 286.716631 78.820667 
L 288.413196 77.592827 
L 290.10976 79.599363 
L 291.806324 79.132573 
L 293.502888 79.58569 
L 295.199453 80.900983 
L 296.896017 78.406879 
L 298.592581 79.81922 
L 300.289146 79.590643 
L 301.98571 79.875524 
L 303.682274 80.414577 
L 305.378839 78.984977 
L 307.075403 80.403333 
L 308.771967 81.359824 
L 310.468531 80.336156 
L 312.165096 78.699703 
L 313.86166 77.757401 
L 315.558224 78.274712 
L 317.254789 81.065653 
L 318.951353 79.258189 
L 320.647917 79.010857 
L 322.344482 79.032057 
L 324.041046 79.521121 
L 325.73761 79.603004 
L 327.434175 79.988185 
L 329.130739 79.613317 
L 330.827303 79.842882 
L 332.523867 80.910496 
L 334.220432 80.164846 
L 335.916996 81.489415 
L 337.61356 81.341395 
L 339.310125 80.544945 
L 341.006689 79.032488 
L 342.703253 82.336552 
L 344.399818 83.324412 
L 346.096382 80.215106 
L 347.792946 79.859187 
L 349.48951 82.501693 
L 351.186075 80.609535 
L 352.882639 82.490393 
L 354.579203 81.639986 
L 357.972332 81.852204 
L 359.668896 81.498315 
L 361.365461 82.968586 
L 363.062025 80.310139 
L 364.758589 80.151485 
L 366.455154 81.134735 
L 368.151718 80.554926 
L 369.848282 80.402474 
L 371.544846 80.68432 
L 373.241411 79.166604 
L 374.937975 81.335552 
L 376.634539 82.160409 
L 378.331104 82.411226 
L 380.027668 80.889483 
L 381.724232 81.750363 
L 383.420797 80.949062 
L 385.117361 79.030585 
L 388.51049 81.385007 
L 390.207054 80.218326 
L 391.903618 81.906683 
L 393.600182 82.178667 
L 395.296747 79.490039 
L 396.993311 83.58249 
L 398.689875 81.243975 
L 400.38644 80.969555 
L 402.083004 82.366592 
L 403.779568 81.676017 
L 405.476133 81.896264 
L 407.172697 80.912786 
L 408.869261 81.032638 
L 410.565825 81.486519 
L 412.26239 79.706143 
L 413.958954 81.922721 
L 415.655518 83.287388 
L 417.352083 82.083709 
L 419.048647 82.703581 
L 420.745211 82.779072 
L 422.441776 79.499192 
L 424.13834 80.54473 
L 425.834904 78.759372 
L 427.531469 80.26585 
L 430.924597 81.492212 
L 432.621161 80.977699 
L 434.317726 79.6554 
L 436.01429 79.808006 
L 437.710854 78.370655 
L 439.407419 80.479412 
L 441.103983 80.439728 
L 442.800547 78.428747 
L 444.497112 79.420261 
L 446.193676 78.149241 
L 447.89024 80.0623 
L 449.586804 79.559791 
L 451.283369 77.086503 
L 452.979933 78.390277 
L 454.676497 78.892276 
L 456.373062 80.958824 
L 458.069626 80.537117 
L 459.76619 78.051328 
L 461.462755 78.37255 
L 463.159319 78.951462 
L 464.855883 78.959064 
L 466.552448 80.006036 
L 468.249012 78.05244 
L 469.945576 79.507316 
L 471.64214 78.329656 
L 475.035269 84.278488 
L 476.731833 77.685192 
L 478.428398 79.695569 
L 480.124962 78.249335 
L 481.821526 80.591517 
L 483.518091 76.819822 
L 485.214655 80.04453 
L 486.911219 79.907105 
L 488.607784 77.482396 
L 490.304348 78.444974 
L 492.000912 72.086378 
L 493.697476 78.770751 
L 495.394041 78.878442 
L 497.090605 81.015051 
L 498.787169 79.639778 
L 500.483734 76.357593 
L 502.180298 78.025895 
L 503.876862 78.684939 
L 507.269991 79.326229 
L 508.966555 77.642298 
L 510.663119 77.855539 
L 512.359684 80.847653 
L 514.056248 75.387591 
L 515.752812 77.568425 
L 517.449377 78.100374 
L 519.145941 76.738382 
L 520.842505 78.29131 
L 522.53907 78.1009 
L 524.235634 79.694696 
L 527.628763 80.330302 
L 529.325327 77.517576 
L 531.021891 76.560721 
L 532.718455 76.185402 
L 534.41502 76.743196 
L 536.111584 75.596926 
L 537.808148 77.533542 
L 539.504713 74.776247 
L 541.201277 76.067717 
L 542.897841 80.451305 
L 544.594406 77.330528 
L 546.29097 77.859693 
L 547.987534 74.63153 
L 549.684099 77.649491 
L 551.380663 74.791366 
L 553.077227 77.022527 
L 556.470356 76.47334 
L 558.16692 75.709789 
L 559.863484 77.42789 
L 561.560049 81.077491 
L 563.256613 77.5709 
L 564.953177 77.621015 
L 566.649742 78.234596 
L 568.346306 75.038621 
L 570.04287 76.783802 
L 571.739434 75.819904 
L 573.435999 77.790934 
L 575.132563 75.99405 
L 576.829127 78.175106 
L 578.525692 74.840855 
L 580.222256 77.371934 
L 581.91882 75.397164 
L 583.615385 78.272348 
L 585.311949 77.242775 
L 587.008513 78.642371 
L 588.705078 80.346803 
L 590.401642 76.576618 
L 592.098206 78.208001 
L 593.79477 78.065787 
L 595.491335 78.646696 
L 597.187899 81.254877 
L 598.884463 75.99564 
L 600.581028 79.925265 
L 602.277592 77.418548 
L 603.974156 79.870852 
L 605.670721 79.454333 
L 607.367285 81.539508 
L 609.063849 80.091123 
L 610.760413 78.878502 
L 612.456978 77.451068 
L 614.153542 81.357375 
L 615.850106 82.472742 
L 617.546671 80.777329 
L 619.243235 81.515904 
L 620.939799 79.992242 
L 622.636364 77.679045 
L 622.636364 77.679045 
" clip-path="url(#p4cbc920a7b)" style="fill: none; stroke: #d62728; stroke-width: 1.5; stroke-linecap: square"/>
   </g>
   <g id="patch_3">
    <path d="M 90 320.4 
L 90 43.2 
" style="fill: none; stroke: #000000; stroke-width: 0.8; stroke-linejoin: miter; stroke-linecap: square"/>
   </g>
   <g id="patch_4">
    <path d="M 648 320.4 
L 648 43.2 
" style="fill: none; stroke: #000000; stroke-width: 0.8; stroke-linejoin: miter; stroke-linecap: square"/>
   </g>
   <g id="patch_5">
    <path d="M 90 320.4 
L 648 320.4 
" style="fill: none; stroke: #000000; stroke-width: 0.8; stroke-linejoin: miter; stroke-linecap: square"/>
   </g>
   <g id="patch_6">
    <path d="M 90 43.2 
L 648 43.2 
" style="fill: none; stroke: #000000; stroke-width: 0.8; stroke-linejoin: miter; stroke-linecap: square"/>
   </g>
   <g id="text_14">
    <!-- Training and Validating Estimation Loss -->
    <g transform="translate(251.535937 37.2) scale(0.12 -0.12)">
     <defs>
      <path id="DejaVuSans-54" d="M -19 4666 
L 3928 4666 
L 3928 4134 
L 2272 4134 
L 2272 0 
L 1638 0 
L 1638 4134 
L -19 4134 
L -19 4666 
z
" transform="scale(0.015625)"/>
      <path id="DejaVuSans-72" d="M 2631 2963 
Q 2534 3019 2420 3045 
Q 2306 3072 2169 3072 
Q 1681 3072 1420 2755 
Q 1159 2438 1159 1844 
L 1159 0 
L 581 0 
L 581 3500 
L 1159 3500 
L 1159 2956 
Q 1341 3275 1631 3429 
Q 1922 3584 2338 3584 
Q 2397 3584 2469 3576 
Q 2541 3569 2628 3553 
L 2631 2963 
z
" transform="scale(0.015625)"/>
      <path id="DejaVuSans-67" d="M 2906 1791 
Q 2906 2416 2648 2759 
Q 2391 3103 1925 3103 
Q 1463 3103 1205 2759 
Q 947 2416 947 1791 
Q 947 1169 1205 825 
Q 1463 481 1925 481 
Q 2391 481 2648 825 
Q 2906 1169 2906 1791 
z
M 3481 434 
Q 3481 -459 3084 -895 
Q 2688 -1331 1869 -1331 
Q 1566 -1331 1297 -1286 
Q 1028 -1241 775 -1147 
L 775 -588 
Q 1028 -725 1275 -790 
Q 1522 -856 1778 -856 
Q 2344 -856 2625 -561 
Q 2906 -266 2906 331 
L 2906 616 
Q 2728 306 2450 153 
Q 2172 0 1784 0 
Q 1141 0 747 490 
Q 353 981 353 1791 
Q 353 2603 747 3093 
Q 1141 3584 1784 3584 
Q 2172 3584 2450 3431 
Q 2728 3278 2906 2969 
L 2906 3500 
L 3481 3500 
L 3481 434 
z
" transform="scale(0.015625)"/>
      <path id="DejaVuSans-64" d="M 2906 2969 
L 2906 4863 
L 3481 4863 
L 3481 0 
L 2906 0 
L 2906 525 
Q 2725 213 2448 61 
Q 2172 -91 1784 -91 
Q 1150 -91 751 415 
Q 353 922 353 1747 
Q 353 2572 751 3078 
Q 1150 3584 1784 3584 
Q 2172 3584 2448 3432 
Q 2725 3281 2906 2969 
z
M 947 1747 
Q 947 1113 1208 752 
Q 1469 391 1925 391 
Q 2381 391 2643 752 
Q 2906 1113 2906 1747 
Q 2906 2381 2643 2742 
Q 2381 3103 1925 3103 
Q 1469 3103 1208 2742 
Q 947 2381 947 1747 
z
" transform="scale(0.015625)"/>
      <path id="DejaVuSans-56" d="M 1831 0 
L 50 4666 
L 709 4666 
L 2188 738 
L 3669 4666 
L 4325 4666 
L 2547 0 
L 1831 0 
z
" transform="scale(0.015625)"/>
      <path id="DejaVuSans-6c" d="M 603 4863 
L 1178 4863 
L 1178 0 
L 603 0 
L 603 4863 
z
" transform="scale(0.015625)"/>
     </defs>
     <use xlink:href="#DejaVuSans-54"/>
     <use xlink:href="#DejaVuSans-72" transform="translate(46.333984 0)"/>
     <use xlink:href="#DejaVuSans-61" transform="translate(87.447266 0)"/>
     <use xlink:href="#DejaVuSans-69" transform="translate(148.726562 0)"/>
     <use xlink:href="#DejaVuSans-6e" transform="translate(176.509766 0)"/>
     <use xlink:href="#DejaVuSans-69" transform="translate(239.888672 0)"/>
     <use xlink:href="#DejaVuSans-6e" transform="translate(267.671875 0)"/>
     <use xlink:href="#DejaVuSans-67" transform="translate(331.050781 0)"/>
     <use xlink:href="#DejaVuSans-20" transform="translate(394.527344 0)"/>
     <use xlink:href="#DejaVuSans-61" transform="translate(426.314453 0)"/>
     <use xlink:href="#DejaVuSans-6e" transform="translate(487.59375 0)"/>
     <use xlink:href="#DejaVuSans-64" transform="translate(550.972656 0)"/>
     <use xlink:href="#DejaVuSans-20" transform="translate(614.449219 0)"/>
     <use xlink:href="#DejaVuSans-56" transform="translate(646.236328 0)"/>
     <use xlink:href="#DejaVuSans-61" transform="translate(706.894531 0)"/>
     <use xlink:href="#DejaVuSans-6c" transform="translate(768.173828 0)"/>
     <use xlink:href="#DejaVuSans-69" transform="translate(795.957031 0)"/>
     <use xlink:href="#DejaVuSans-64" transform="translate(823.740234 0)"/>
     <use xlink:href="#DejaVuSans-61" transform="translate(887.216797 0)"/>
     <use xlink:href="#DejaVuSans-74" transform="translate(948.496094 0)"/>
     <use xlink:href="#DejaVuSans-69" transform="translate(987.705078 0)"/>
     <use xlink:href="#DejaVuSans-6e" transform="translate(1015.488281 0)"/>
     <use xlink:href="#DejaVuSans-67" transform="translate(1078.867188 0)"/>
     <use xlink:href="#DejaVuSans-20" transform="translate(1142.34375 0)"/>
     <use xlink:href="#DejaVuSans-45" transform="translate(1174.130859 0)"/>
     <use xlink:href="#DejaVuSans-73" transform="translate(1237.314453 0)"/>
     <use xlink:href="#DejaVuSans-74" transform="translate(1289.414062 0)"/>
     <use xlink:href="#DejaVuSans-69" transform="translate(1328.623047 0)"/>
     <use xlink:href="#DejaVuSans-6d" transform="translate(1356.40625 0)"/>
     <use xlink:href="#DejaVuSans-61" transform="translate(1453.818359 0)"/>
     <use xlink:href="#DejaVuSans-74" transform="translate(1515.097656 0)"/>
     <use xlink:href="#DejaVuSans-69" transform="translate(1554.306641 0)"/>
     <use xlink:href="#DejaVuSans-6f" transform="translate(1582.089844 0)"/>
     <use xlink:href="#DejaVuSans-6e" transform="translate(1643.271484 0)"/>
     <use xlink:href="#DejaVuSans-20" transform="translate(1706.650391 0)"/>
     <use xlink:href="#DejaVuSans-4c" transform="translate(1738.4375 0)"/>
     <use xlink:href="#DejaVuSans-6f" transform="translate(1792.400391 0)"/>
     <use xlink:href="#DejaVuSans-73" transform="translate(1853.582031 0)"/>
     <use xlink:href="#DejaVuSans-73" transform="translate(1905.681641 0)"/>
    </g>
   </g>
   <g id="legend_1">
    <g id="patch_7">
     <path d="M 97 212.65625 
L 216.560938 212.65625 
Q 218.560938 212.65625 218.560938 210.65625 
L 218.560938 152.94375 
Q 218.560938 150.94375 216.560938 150.94375 
L 97 150.94375 
Q 95 150.94375 95 152.94375 
L 95 210.65625 
Q 95 212.65625 97 212.65625 
z
" style="fill: #ffffff; opacity: 0.8; stroke: #cccccc; stroke-linejoin: miter"/>
    </g>
    <g id="line2d_16">
     <path d="M 99 159.042188 
L 109 159.042188 
L 119 159.042188 
" style="fill: none; stroke: #1f77b4; stroke-width: 1.5; stroke-linecap: square"/>
    </g>
    <g id="text_15">
     <!-- Training-Source -->
     <g transform="translate(127 162.542188) scale(0.1 -0.1)">
      <defs>
       <path id="DejaVuSans-2d" d="M 313 2009 
L 1997 2009 
L 1997 1497 
L 313 1497 
L 313 2009 
z
" transform="scale(0.015625)"/>
       <path id="DejaVuSans-53" d="M 3425 4513 
L 3425 3897 
Q 3066 4069 2747 4153 
Q 2428 4238 2131 4238 
Q 1616 4238 1336 4038 
Q 1056 3838 1056 3469 
Q 1056 3159 1242 3001 
Q 1428 2844 1947 2747 
L 2328 2669 
Q 3034 2534 3370 2195 
Q 3706 1856 3706 1288 
Q 3706 609 3251 259 
Q 2797 -91 1919 -91 
Q 1588 -91 1214 -16 
Q 841 59 441 206 
L 441 856 
Q 825 641 1194 531 
Q 1563 422 1919 422 
Q 2459 422 2753 634 
Q 3047 847 3047 1241 
Q 3047 1584 2836 1778 
Q 2625 1972 2144 2069 
L 1759 2144 
Q 1053 2284 737 2584 
Q 422 2884 422 3419 
Q 422 4038 858 4394 
Q 1294 4750 2059 4750 
Q 2388 4750 2728 4690 
Q 3069 4631 3425 4513 
z
" transform="scale(0.015625)"/>
       <path id="DejaVuSans-75" d="M 544 1381 
L 544 3500 
L 1119 3500 
L 1119 1403 
Q 1119 906 1312 657 
Q 1506 409 1894 409 
Q 2359 409 2629 706 
Q 2900 1003 2900 1516 
L 2900 3500 
L 3475 3500 
L 3475 0 
L 2900 0 
L 2900 538 
Q 2691 219 2414 64 
Q 2138 -91 1772 -91 
Q 1169 -91 856 284 
Q 544 659 544 1381 
z
M 1991 3584 
L 1991 3584 
z
" transform="scale(0.015625)"/>
       <path id="DejaVuSans-65" d="M 3597 1894 
L 3597 1613 
L 953 1613 
Q 991 1019 1311 708 
Q 1631 397 2203 397 
Q 2534 397 2845 478 
Q 3156 559 3463 722 
L 3463 178 
Q 3153 47 2828 -22 
Q 2503 -91 2169 -91 
Q 1331 -91 842 396 
Q 353 884 353 1716 
Q 353 2575 817 3079 
Q 1281 3584 2069 3584 
Q 2775 3584 3186 3129 
Q 3597 2675 3597 1894 
z
M 3022 2063 
Q 3016 2534 2758 2815 
Q 2500 3097 2075 3097 
Q 1594 3097 1305 2825 
Q 1016 2553 972 2059 
L 3022 2063 
z
" transform="scale(0.015625)"/>
      </defs>
      <use xlink:href="#DejaVuSans-54"/>
      <use xlink:href="#DejaVuSans-72" transform="translate(46.333984 0)"/>
      <use xlink:href="#DejaVuSans-61" transform="translate(87.447266 0)"/>
      <use xlink:href="#DejaVuSans-69" transform="translate(148.726562 0)"/>
      <use xlink:href="#DejaVuSans-6e" transform="translate(176.509766 0)"/>
      <use xlink:href="#DejaVuSans-69" transform="translate(239.888672 0)"/>
      <use xlink:href="#DejaVuSans-6e" transform="translate(267.671875 0)"/>
      <use xlink:href="#DejaVuSans-67" transform="translate(331.050781 0)"/>
      <use xlink:href="#DejaVuSans-2d" transform="translate(394.527344 0)"/>
      <use xlink:href="#DejaVuSans-53" transform="translate(430.611328 0)"/>
      <use xlink:href="#DejaVuSans-6f" transform="translate(494.087891 0)"/>
      <use xlink:href="#DejaVuSans-75" transform="translate(555.269531 0)"/>
      <use xlink:href="#DejaVuSans-72" transform="translate(618.648438 0)"/>
      <use xlink:href="#DejaVuSans-63" transform="translate(657.511719 0)"/>
      <use xlink:href="#DejaVuSans-65" transform="translate(712.492188 0)"/>
     </g>
    </g>
    <g id="line2d_17">
     <path d="M 99 173.720313 
L 109 173.720313 
L 119 173.720313 
" style="fill: none; stroke: #ff7f0e; stroke-width: 1.5; stroke-linecap: square"/>
    </g>
    <g id="text_16">
     <!-- Training-Target -->
     <g transform="translate(127 177.220313) scale(0.1 -0.1)">
      <use xlink:href="#DejaVuSans-54"/>
      <use xlink:href="#DejaVuSans-72" transform="translate(46.333984 0)"/>
      <use xlink:href="#DejaVuSans-61" transform="translate(87.447266 0)"/>
      <use xlink:href="#DejaVuSans-69" transform="translate(148.726562 0)"/>
      <use xlink:href="#DejaVuSans-6e" transform="translate(176.509766 0)"/>
      <use xlink:href="#DejaVuSans-69" transform="translate(239.888672 0)"/>
      <use xlink:href="#DejaVuSans-6e" transform="translate(267.671875 0)"/>
      <use xlink:href="#DejaVuSans-67" transform="translate(331.050781 0)"/>
      <use xlink:href="#DejaVuSans-2d" transform="translate(394.527344 0)"/>
      <use xlink:href="#DejaVuSans-54" transform="translate(421.486328 0)"/>
      <use xlink:href="#DejaVuSans-61" transform="translate(466.070312 0)"/>
      <use xlink:href="#DejaVuSans-72" transform="translate(527.349609 0)"/>
      <use xlink:href="#DejaVuSans-67" transform="translate(566.712891 0)"/>
      <use xlink:href="#DejaVuSans-65" transform="translate(630.189453 0)"/>
      <use xlink:href="#DejaVuSans-74" transform="translate(691.712891 0)"/>
     </g>
    </g>
    <g id="line2d_18">
     <path d="M 99 188.398438 
L 109 188.398438 
L 119 188.398438 
" style="fill: none; stroke: #2ca02c; stroke-width: 1.5; stroke-linecap: square"/>
    </g>
    <g id="text_17">
     <!-- Validating-Source -->
     <g transform="translate(127 191.898438) scale(0.1 -0.1)">
      <use xlink:href="#DejaVuSans-56"/>
      <use xlink:href="#DejaVuSans-61" transform="translate(60.658203 0)"/>
      <use xlink:href="#DejaVuSans-6c" transform="translate(121.9375 0)"/>
      <use xlink:href="#DejaVuSans-69" transform="translate(149.720703 0)"/>
      <use xlink:href="#DejaVuSans-64" transform="translate(177.503906 0)"/>
      <use xlink:href="#DejaVuSans-61" transform="translate(240.980469 0)"/>
      <use xlink:href="#DejaVuSans-74" transform="translate(302.259766 0)"/>
      <use xlink:href="#DejaVuSans-69" transform="translate(341.46875 0)"/>
      <use xlink:href="#DejaVuSans-6e" transform="translate(369.251953 0)"/>
      <use xlink:href="#DejaVuSans-67" transform="translate(432.630859 0)"/>
      <use xlink:href="#DejaVuSans-2d" transform="translate(496.107422 0)"/>
      <use xlink:href="#DejaVuSans-53" transform="translate(532.191406 0)"/>
      <use xlink:href="#DejaVuSans-6f" transform="translate(595.667969 0)"/>
      <use xlink:href="#DejaVuSans-75" transform="translate(656.849609 0)"/>
      <use xlink:href="#DejaVuSans-72" transform="translate(720.228516 0)"/>
      <use xlink:href="#DejaVuSans-63" transform="translate(759.091797 0)"/>
      <use xlink:href="#DejaVuSans-65" transform="translate(814.072266 0)"/>
     </g>
    </g>
    <g id="line2d_19">
     <path d="M 99 203.076563 
L 109 203.076563 
L 119 203.076563 
" style="fill: none; stroke: #d62728; stroke-width: 1.5; stroke-linecap: square"/>
    </g>
    <g id="text_18">
     <!-- Validating-Target -->
     <g transform="translate(127 206.576563) scale(0.1 -0.1)">
      <use xlink:href="#DejaVuSans-56"/>
      <use xlink:href="#DejaVuSans-61" transform="translate(60.658203 0)"/>
      <use xlink:href="#DejaVuSans-6c" transform="translate(121.9375 0)"/>
      <use xlink:href="#DejaVuSans-69" transform="translate(149.720703 0)"/>
      <use xlink:href="#DejaVuSans-64" transform="translate(177.503906 0)"/>
      <use xlink:href="#DejaVuSans-61" transform="translate(240.980469 0)"/>
      <use xlink:href="#DejaVuSans-74" transform="translate(302.259766 0)"/>
      <use xlink:href="#DejaVuSans-69" transform="translate(341.46875 0)"/>
      <use xlink:href="#DejaVuSans-6e" transform="translate(369.251953 0)"/>
      <use xlink:href="#DejaVuSans-67" transform="translate(432.630859 0)"/>
      <use xlink:href="#DejaVuSans-2d" transform="translate(496.107422 0)"/>
      <use xlink:href="#DejaVuSans-54" transform="translate(523.066406 0)"/>
      <use xlink:href="#DejaVuSans-61" transform="translate(567.650391 0)"/>
      <use xlink:href="#DejaVuSans-72" transform="translate(628.929688 0)"/>
      <use xlink:href="#DejaVuSans-67" transform="translate(668.292969 0)"/>
      <use xlink:href="#DejaVuSans-65" transform="translate(731.769531 0)"/>
      <use xlink:href="#DejaVuSans-74" transform="translate(793.292969 0)"/>
     </g>
    </g>
   </g>
  </g>
 </g>
 <defs>
  <clipPath id="p4cbc920a7b">
   <rect x="90" y="43.2" width="558" height="277.2"/>
  </clipPath>
 </defs>
</svg>
