<?xml version="1.0" encoding="utf-8" standalone="no"?>
<!DOCTYPE svg PUBLIC "-//W3C//DTD SVG 1.1//EN"
  "http://www.w3.org/Graphics/SVG/1.1/DTD/svg11.dtd">
<svg xmlns:xlink="http://www.w3.org/1999/xlink" width="720pt" height="360pt" viewBox="0 0 720 360" xmlns="http://www.w3.org/2000/svg" version="1.1">
 <metadata>
  <rdf:RDF xmlns:dc="http://purl.org/dc/elements/1.1/" xmlns:cc="http://creativecommons.org/ns#" xmlns:rdf="http://www.w3.org/1999/02/22-rdf-syntax-ns#">
   <cc:Work>
    <dc:type rdf:resource="http://purl.org/dc/dcmitype/StillImage"/>
    <dc:date>2025-10-27T03:52:52.084365</dc:date>
    <dc:format>image/svg+xml</dc:format>
    <dc:creator>
     <cc:Agent>
      <dc:title>Matplotlib v3.10.1, https://matplotlib.org/</dc:title>
     </cc:Agent>
    </dc:creator>
   </cc:Work>
  </rdf:RDF>
 </metadata>
 <defs>
  <style type="text/css">*{stroke-linejoin: round; stroke-linecap: butt}</style>
 </defs>
 <g id="figure_1">
  <g id="patch_1">
   <path d="M 0 360 
L 720 360 
L 720 0 
L 0 0 
z
" style="fill: #ffffff"/>
  </g>
  <g id="axes_1">
   <g id="patch_2">
    <path d="M 90 320.4 
L 648 320.4 
L 648 43.2 
L 90 43.2 
z
" style="fill: #ffffff"/>
   </g>
   <g id="matplotlib.axis_1">
    <g id="xtick_1">
     <g id="line2d_1">
      <defs>
       <path id="m09ef6812aa" d="M 0 0 
L 0 3.5 
" style="stroke: #000000; stroke-width: 0.8"/>
      </defs>
      <g>
       <use xlink:href="#m09ef6812aa" x="115.363636" y="320.4" style="stroke: #000000; stroke-width: 0.8"/>
      </g>
     </g>
     <g id="text_1">
      <!-- 0 -->
      <g transform="translate(112.182386 334.998438) scale(0.1 -0.1)">
       <defs>
        <path id="DejaVuSans-30" d="M 2034 4250 
Q 1547 4250 1301 3770 
Q 1056 3291 1056 2328 
Q 1056 1369 1301 889 
Q 1547 409 2034 409 
Q 2525 409 2770 889 
Q 3016 1369 3016 2328 
Q 3016 3291 2770 3770 
Q 2525 4250 2034 4250 
z
M 2034 4750 
Q 2819 4750 3233 4129 
Q 3647 3509 3647 2328 
Q 3647 1150 3233 529 
Q 2819 -91 2034 -91 
Q 1250 -91 836 529 
Q 422 1150 422 2328 
Q 422 3509 836 4129 
Q 1250 4750 2034 4750 
z
" transform="scale(0.015625)"/>
       </defs>
       <use xlink:href="#DejaVuSans-30"/>
      </g>
     </g>
    </g>
    <g id="xtick_2">
     <g id="line2d_2">
      <g>
       <use xlink:href="#m09ef6812aa" x="217.157495" y="320.4" style="stroke: #000000; stroke-width: 0.8"/>
      </g>
     </g>
     <g id="text_2">
      <!-- 60 -->
      <g transform="translate(210.794995 334.998438) scale(0.1 -0.1)">
       <defs>
        <path id="DejaVuSans-36" d="M 2113 2584 
Q 1688 2584 1439 2293 
Q 1191 2003 1191 1497 
Q 1191 994 1439 701 
Q 1688 409 2113 409 
Q 2538 409 2786 701 
Q 3034 994 3034 1497 
Q 3034 2003 2786 2293 
Q 2538 2584 2113 2584 
z
M 3366 4563 
L 3366 3988 
Q 3128 4100 2886 4159 
Q 2644 4219 2406 4219 
Q 1781 4219 1451 3797 
Q 1122 3375 1075 2522 
Q 1259 2794 1537 2939 
Q 1816 3084 2150 3084 
Q 2853 3084 3261 2657 
Q 3669 2231 3669 1497 
Q 3669 778 3244 343 
Q 2819 -91 2113 -91 
Q 1303 -91 875 529 
Q 447 1150 447 2328 
Q 447 3434 972 4092 
Q 1497 4750 2381 4750 
Q 2619 4750 2861 4703 
Q 3103 4656 3366 4563 
z
" transform="scale(0.015625)"/>
       </defs>
       <use xlink:href="#DejaVuSans-36"/>
       <use xlink:href="#DejaVuSans-30" transform="translate(63.623047 0)"/>
      </g>
     </g>
    </g>
    <g id="xtick_3">
     <g id="line2d_3">
      <g>
       <use xlink:href="#m09ef6812aa" x="318.951353" y="320.4" style="stroke: #000000; stroke-width: 0.8"/>
      </g>
     </g>
     <g id="text_3">
      <!-- 120 -->
      <g transform="translate(309.407603 334.998438) scale(0.1 -0.1)">
       <defs>
        <path id="DejaVuSans-31" d="M 794 531 
L 1825 531 
L 1825 4091 
L 703 3866 
L 703 4441 
L 1819 4666 
L 2450 4666 
L 2450 531 
L 3481 531 
L 3481 0 
L 794 0 
L 794 531 
z
" transform="scale(0.015625)"/>
        <path id="DejaVuSans-32" d="M 1228 531 
L 3431 531 
L 3431 0 
L 469 0 
L 469 531 
Q 828 903 1448 1529 
Q 2069 2156 2228 2338 
Q 2531 2678 2651 2914 
Q 2772 3150 2772 3378 
Q 2772 3750 2511 3984 
Q 2250 4219 1831 4219 
Q 1534 4219 1204 4116 
Q 875 4013 500 3803 
L 500 4441 
Q 881 4594 1212 4672 
Q 1544 4750 1819 4750 
Q 2544 4750 2975 4387 
Q 3406 4025 3406 3419 
Q 3406 3131 3298 2873 
Q 3191 2616 2906 2266 
Q 2828 2175 2409 1742 
Q 1991 1309 1228 531 
z
" transform="scale(0.015625)"/>
       </defs>
       <use xlink:href="#DejaVuSans-31"/>
       <use xlink:href="#DejaVuSans-32" transform="translate(63.623047 0)"/>
       <use xlink:href="#DejaVuSans-30" transform="translate(127.246094 0)"/>
      </g>
     </g>
    </g>
    <g id="xtick_4">
     <g id="line2d_4">
      <g>
       <use xlink:href="#m09ef6812aa" x="420.745211" y="320.4" style="stroke: #000000; stroke-width: 0.8"/>
      </g>
     </g>
     <g id="text_4">
      <!-- 180 -->
      <g transform="translate(411.201461 334.998438) scale(0.1 -0.1)">
       <defs>
        <path id="DejaVuSans-38" d="M 2034 2216 
Q 1584 2216 1326 1975 
Q 1069 1734 1069 1313 
Q 1069 891 1326 650 
Q 1584 409 2034 409 
Q 2484 409 2743 651 
Q 3003 894 3003 1313 
Q 3003 1734 2745 1975 
Q 2488 2216 2034 2216 
z
M 1403 2484 
Q 997 2584 770 2862 
Q 544 3141 544 3541 
Q 544 4100 942 4425 
Q 1341 4750 2034 4750 
Q 2731 4750 3128 4425 
Q 3525 4100 3525 3541 
Q 3525 3141 3298 2862 
Q 3072 2584 2669 2484 
Q 3125 2378 3379 2068 
Q 3634 1759 3634 1313 
Q 3634 634 3220 271 
Q 2806 -91 2034 -91 
Q 1263 -91 848 271 
Q 434 634 434 1313 
Q 434 1759 690 2068 
Q 947 2378 1403 2484 
z
M 1172 3481 
Q 1172 3119 1398 2916 
Q 1625 2713 2034 2713 
Q 2441 2713 2670 2916 
Q 2900 3119 2900 3481 
Q 2900 3844 2670 4047 
Q 2441 4250 2034 4250 
Q 1625 4250 1398 4047 
Q 1172 3844 1172 3481 
z
" transform="scale(0.015625)"/>
       </defs>
       <use xlink:href="#DejaVuSans-31"/>
       <use xlink:href="#DejaVuSans-38" transform="translate(63.623047 0)"/>
       <use xlink:href="#DejaVuSans-30" transform="translate(127.246094 0)"/>
      </g>
     </g>
    </g>
    <g id="xtick_5">
     <g id="line2d_5">
      <g>
       <use xlink:href="#m09ef6812aa" x="522.53907" y="320.4" style="stroke: #000000; stroke-width: 0.8"/>
      </g>
     </g>
     <g id="text_5">
      <!-- 240 -->
      <g transform="translate(512.99532 334.998438) scale(0.1 -0.1)">
       <defs>
        <path id="DejaVuSans-34" d="M 2419 4116 
L 825 1625 
L 2419 1625 
L 2419 4116 
z
M 2253 4666 
L 3047 4666 
L 3047 1625 
L 3713 1625 
L 3713 1100 
L 3047 1100 
L 3047 0 
L 2419 0 
L 2419 1100 
L 313 1100 
L 313 1709 
L 2253 4666 
z
" transform="scale(0.015625)"/>
       </defs>
       <use xlink:href="#DejaVuSans-32"/>
       <use xlink:href="#DejaVuSans-34" transform="translate(63.623047 0)"/>
       <use xlink:href="#DejaVuSans-30" transform="translate(127.246094 0)"/>
      </g>
     </g>
    </g>
    <g id="text_6">
     <!-- Epoch -->
     <g transform="translate(353.689062 348.676562) scale(0.1 -0.1)">
      <defs>
       <path id="DejaVuSans-45" d="M 628 4666 
L 3578 4666 
L 3578 4134 
L 1259 4134 
L 1259 2753 
L 3481 2753 
L 3481 2222 
L 1259 2222 
L 1259 531 
L 3634 531 
L 3634 0 
L 628 0 
L 628 4666 
z
" transform="scale(0.015625)"/>
       <path id="DejaVuSans-70" d="M 1159 525 
L 1159 -1331 
L 581 -1331 
L 581 3500 
L 1159 3500 
L 1159 2969 
Q 1341 3281 1617 3432 
Q 1894 3584 2278 3584 
Q 2916 3584 3314 3078 
Q 3713 2572 3713 1747 
Q 3713 922 3314 415 
Q 2916 -91 2278 -91 
Q 1894 -91 1617 61 
Q 1341 213 1159 525 
z
M 3116 1747 
Q 3116 2381 2855 2742 
Q 2594 3103 2138 3103 
Q 1681 3103 1420 2742 
Q 1159 2381 1159 1747 
Q 1159 1113 1420 752 
Q 1681 391 2138 391 
Q 2594 391 2855 752 
Q 3116 1113 3116 1747 
z
" transform="scale(0.015625)"/>
       <path id="DejaVuSans-6f" d="M 1959 3097 
Q 1497 3097 1228 2736 
Q 959 2375 959 1747 
Q 959 1119 1226 758 
Q 1494 397 1959 397 
Q 2419 397 2687 759 
Q 2956 1122 2956 1747 
Q 2956 2369 2687 2733 
Q 2419 3097 1959 3097 
z
M 1959 3584 
Q 2709 3584 3137 3096 
Q 3566 2609 3566 1747 
Q 3566 888 3137 398 
Q 2709 -91 1959 -91 
Q 1206 -91 779 398 
Q 353 888 353 1747 
Q 353 2609 779 3096 
Q 1206 3584 1959 3584 
z
" transform="scale(0.015625)"/>
       <path id="DejaVuSans-63" d="M 3122 3366 
L 3122 2828 
Q 2878 2963 2633 3030 
Q 2388 3097 2138 3097 
Q 1578 3097 1268 2742 
Q 959 2388 959 1747 
Q 959 1106 1268 751 
Q 1578 397 2138 397 
Q 2388 397 2633 464 
Q 2878 531 3122 666 
L 3122 134 
Q 2881 22 2623 -34 
Q 2366 -91 2075 -91 
Q 1284 -91 818 406 
Q 353 903 353 1747 
Q 353 2603 823 3093 
Q 1294 3584 2113 3584 
Q 2378 3584 2631 3529 
Q 2884 3475 3122 3366 
z
" transform="scale(0.015625)"/>
       <path id="DejaVuSans-68" d="M 3513 2113 
L 3513 0 
L 2938 0 
L 2938 2094 
Q 2938 2591 2744 2837 
Q 2550 3084 2163 3084 
Q 1697 3084 1428 2787 
Q 1159 2491 1159 1978 
L 1159 0 
L 581 0 
L 581 4863 
L 1159 4863 
L 1159 2956 
Q 1366 3272 1645 3428 
Q 1925 3584 2291 3584 
Q 2894 3584 3203 3211 
Q 3513 2838 3513 2113 
z
" transform="scale(0.015625)"/>
      </defs>
      <use xlink:href="#DejaVuSans-45"/>
      <use xlink:href="#DejaVuSans-70" transform="translate(63.183594 0)"/>
      <use xlink:href="#DejaVuSans-6f" transform="translate(126.660156 0)"/>
      <use xlink:href="#DejaVuSans-63" transform="translate(187.841797 0)"/>
      <use xlink:href="#DejaVuSans-68" transform="translate(242.822266 0)"/>
     </g>
    </g>
   </g>
   <g id="matplotlib.axis_2">
    <g id="ytick_1">
     <g id="line2d_6">
      <defs>
       <path id="m4ae2d82101" d="M 0 0 
L -3.5 0 
" style="stroke: #000000; stroke-width: 0.8"/>
      </defs>
      <g>
       <use xlink:href="#m4ae2d82101" x="90" y="300.696568" style="stroke: #000000; stroke-width: 0.8"/>
      </g>
     </g>
     <g id="text_7">
      <!-- 0.4 -->
      <g transform="translate(67.096875 304.495787) scale(0.1 -0.1)">
       <defs>
        <path id="DejaVuSans-2e" d="M 684 794 
L 1344 794 
L 1344 0 
L 684 0 
L 684 794 
z
" transform="scale(0.015625)"/>
       </defs>
       <use xlink:href="#DejaVuSans-30"/>
       <use xlink:href="#DejaVuSans-2e" transform="translate(63.623047 0)"/>
       <use xlink:href="#DejaVuSans-34" transform="translate(95.410156 0)"/>
      </g>
     </g>
    </g>
    <g id="ytick_2">
     <g id="line2d_7">
      <g>
       <use xlink:href="#m4ae2d82101" x="90" y="252.649948" style="stroke: #000000; stroke-width: 0.8"/>
      </g>
     </g>
     <g id="text_8">
      <!-- 0.6 -->
      <g transform="translate(67.096875 256.449167) scale(0.1 -0.1)">
       <use xlink:href="#DejaVuSans-30"/>
       <use xlink:href="#DejaVuSans-2e" transform="translate(63.623047 0)"/>
       <use xlink:href="#DejaVuSans-36" transform="translate(95.410156 0)"/>
      </g>
     </g>
    </g>
    <g id="ytick_3">
     <g id="line2d_8">
      <g>
       <use xlink:href="#m4ae2d82101" x="90" y="204.603327" style="stroke: #000000; stroke-width: 0.8"/>
      </g>
     </g>
     <g id="text_9">
      <!-- 0.8 -->
      <g transform="translate(67.096875 208.402546) scale(0.1 -0.1)">
       <use xlink:href="#DejaVuSans-30"/>
       <use xlink:href="#DejaVuSans-2e" transform="translate(63.623047 0)"/>
       <use xlink:href="#DejaVuSans-38" transform="translate(95.410156 0)"/>
      </g>
     </g>
    </g>
    <g id="ytick_4">
     <g id="line2d_9">
      <g>
       <use xlink:href="#m4ae2d82101" x="90" y="156.556707" style="stroke: #000000; stroke-width: 0.8"/>
      </g>
     </g>
     <g id="text_10">
      <!-- 1.0 -->
      <g transform="translate(67.096875 160.355926) scale(0.1 -0.1)">
       <use xlink:href="#DejaVuSans-31"/>
       <use xlink:href="#DejaVuSans-2e" transform="translate(63.623047 0)"/>
       <use xlink:href="#DejaVuSans-30" transform="translate(95.410156 0)"/>
      </g>
     </g>
    </g>
    <g id="ytick_5">
     <g id="line2d_10">
      <g>
       <use xlink:href="#m4ae2d82101" x="90" y="108.510087" style="stroke: #000000; stroke-width: 0.8"/>
      </g>
     </g>
     <g id="text_11">
      <!-- 1.2 -->
      <g transform="translate(67.096875 112.309305) scale(0.1 -0.1)">
       <use xlink:href="#DejaVuSans-31"/>
       <use xlink:href="#DejaVuSans-2e" transform="translate(63.623047 0)"/>
       <use xlink:href="#DejaVuSans-32" transform="translate(95.410156 0)"/>
      </g>
     </g>
    </g>
    <g id="ytick_6">
     <g id="line2d_11">
      <g>
       <use xlink:href="#m4ae2d82101" x="90" y="60.463466" style="stroke: #000000; stroke-width: 0.8"/>
      </g>
     </g>
     <g id="text_12">
      <!-- 1.4 -->
      <g transform="translate(67.096875 64.262685) scale(0.1 -0.1)">
       <use xlink:href="#DejaVuSans-31"/>
       <use xlink:href="#DejaVuSans-2e" transform="translate(63.623047 0)"/>
       <use xlink:href="#DejaVuSans-34" transform="translate(95.410156 0)"/>
      </g>
     </g>
    </g>
    <g id="text_13">
     <!-- Domain Discrimination Loss -->
     <g transform="translate(61.017187 251.453906) rotate(-90) scale(0.1 -0.1)">
      <defs>
       <path id="DejaVuSans-44" d="M 1259 4147 
L 1259 519 
L 2022 519 
Q 2988 519 3436 956 
Q 3884 1394 3884 2338 
Q 3884 3275 3436 3711 
Q 2988 4147 2022 4147 
L 1259 4147 
z
M 628 4666 
L 1925 4666 
Q 3281 4666 3915 4102 
Q 4550 3538 4550 2338 
Q 4550 1131 3912 565 
Q 3275 0 1925 0 
L 628 0 
L 628 4666 
z
" transform="scale(0.015625)"/>
       <path id="DejaVuSans-6d" d="M 3328 2828 
Q 3544 3216 3844 3400 
Q 4144 3584 4550 3584 
Q 5097 3584 5394 3201 
Q 5691 2819 5691 2113 
L 5691 0 
L 5113 0 
L 5113 2094 
Q 5113 2597 4934 2840 
Q 4756 3084 4391 3084 
Q 3944 3084 3684 2787 
Q 3425 2491 3425 1978 
L 3425 0 
L 2847 0 
L 2847 2094 
Q 2847 2600 2669 2842 
Q 2491 3084 2119 3084 
Q 1678 3084 1418 2786 
Q 1159 2488 1159 1978 
L 1159 0 
L 581 0 
L 581 3500 
L 1159 3500 
L 1159 2956 
Q 1356 3278 1631 3431 
Q 1906 3584 2284 3584 
Q 2666 3584 2933 3390 
Q 3200 3197 3328 2828 
z
" transform="scale(0.015625)"/>
       <path id="DejaVuSans-61" d="M 2194 1759 
Q 1497 1759 1228 1600 
Q 959 1441 959 1056 
Q 959 750 1161 570 
Q 1363 391 1709 391 
Q 2188 391 2477 730 
Q 2766 1069 2766 1631 
L 2766 1759 
L 2194 1759 
z
M 3341 1997 
L 3341 0 
L 2766 0 
L 2766 531 
Q 2569 213 2275 61 
Q 1981 -91 1556 -91 
Q 1019 -91 701 211 
Q 384 513 384 1019 
Q 384 1609 779 1909 
Q 1175 2209 1959 2209 
L 2766 2209 
L 2766 2266 
Q 2766 2663 2505 2880 
Q 2244 3097 1772 3097 
Q 1472 3097 1187 3025 
Q 903 2953 641 2809 
L 641 3341 
Q 956 3463 1253 3523 
Q 1550 3584 1831 3584 
Q 2591 3584 2966 3190 
Q 3341 2797 3341 1997 
z
" transform="scale(0.015625)"/>
       <path id="DejaVuSans-69" d="M 603 3500 
L 1178 3500 
L 1178 0 
L 603 0 
L 603 3500 
z
M 603 4863 
L 1178 4863 
L 1178 4134 
L 603 4134 
L 603 4863 
z
" transform="scale(0.015625)"/>
       <path id="DejaVuSans-6e" d="M 3513 2113 
L 3513 0 
L 2938 0 
L 2938 2094 
Q 2938 2591 2744 2837 
Q 2550 3084 2163 3084 
Q 1697 3084 1428 2787 
Q 1159 2491 1159 1978 
L 1159 0 
L 581 0 
L 581 3500 
L 1159 3500 
L 1159 2956 
Q 1366 3272 1645 3428 
Q 1925 3584 2291 3584 
Q 2894 3584 3203 3211 
Q 3513 2838 3513 2113 
z
" transform="scale(0.015625)"/>
       <path id="DejaVuSans-20" transform="scale(0.015625)"/>
       <path id="DejaVuSans-73" d="M 2834 3397 
L 2834 2853 
Q 2591 2978 2328 3040 
Q 2066 3103 1784 3103 
Q 1356 3103 1142 2972 
Q 928 2841 928 2578 
Q 928 2378 1081 2264 
Q 1234 2150 1697 2047 
L 1894 2003 
Q 2506 1872 2764 1633 
Q 3022 1394 3022 966 
Q 3022 478 2636 193 
Q 2250 -91 1575 -91 
Q 1294 -91 989 -36 
Q 684 19 347 128 
L 347 722 
Q 666 556 975 473 
Q 1284 391 1588 391 
Q 1994 391 2212 530 
Q 2431 669 2431 922 
Q 2431 1156 2273 1281 
Q 2116 1406 1581 1522 
L 1381 1569 
Q 847 1681 609 1914 
Q 372 2147 372 2553 
Q 372 3047 722 3315 
Q 1072 3584 1716 3584 
Q 2034 3584 2315 3537 
Q 2597 3491 2834 3397 
z
" transform="scale(0.015625)"/>
       <path id="DejaVuSans-72" d="M 2631 2963 
Q 2534 3019 2420 3045 
Q 2306 3072 2169 3072 
Q 1681 3072 1420 2755 
Q 1159 2438 1159 1844 
L 1159 0 
L 581 0 
L 581 3500 
L 1159 3500 
L 1159 2956 
Q 1341 3275 1631 3429 
Q 1922 3584 2338 3584 
Q 2397 3584 2469 3576 
Q 2541 3569 2628 3553 
L 2631 2963 
z
" transform="scale(0.015625)"/>
       <path id="DejaVuSans-74" d="M 1172 4494 
L 1172 3500 
L 2356 3500 
L 2356 3053 
L 1172 3053 
L 1172 1153 
Q 1172 725 1289 603 
Q 1406 481 1766 481 
L 2356 481 
L 2356 0 
L 1766 0 
Q 1100 0 847 248 
Q 594 497 594 1153 
L 594 3053 
L 172 3053 
L 172 3500 
L 594 3500 
L 594 4494 
L 1172 4494 
z
" transform="scale(0.015625)"/>
       <path id="DejaVuSans-4c" d="M 628 4666 
L 1259 4666 
L 1259 531 
L 3531 531 
L 3531 0 
L 628 0 
L 628 4666 
z
" transform="scale(0.015625)"/>
      </defs>
      <use xlink:href="#DejaVuSans-44"/>
      <use xlink:href="#DejaVuSans-6f" transform="translate(77.001953 0)"/>
      <use xlink:href="#DejaVuSans-6d" transform="translate(138.183594 0)"/>
      <use xlink:href="#DejaVuSans-61" transform="translate(235.595703 0)"/>
      <use xlink:href="#DejaVuSans-69" transform="translate(296.875 0)"/>
      <use xlink:href="#DejaVuSans-6e" transform="translate(324.658203 0)"/>
      <use xlink:href="#DejaVuSans-20" transform="translate(388.037109 0)"/>
      <use xlink:href="#DejaVuSans-44" transform="translate(419.824219 0)"/>
      <use xlink:href="#DejaVuSans-69" transform="translate(496.826172 0)"/>
      <use xlink:href="#DejaVuSans-73" transform="translate(524.609375 0)"/>
      <use xlink:href="#DejaVuSans-63" transform="translate(576.708984 0)"/>
      <use xlink:href="#DejaVuSans-72" transform="translate(631.689453 0)"/>
      <use xlink:href="#DejaVuSans-69" transform="translate(672.802734 0)"/>
      <use xlink:href="#DejaVuSans-6d" transform="translate(700.585938 0)"/>
      <use xlink:href="#DejaVuSans-69" transform="translate(797.998047 0)"/>
      <use xlink:href="#DejaVuSans-6e" transform="translate(825.78125 0)"/>
      <use xlink:href="#DejaVuSans-61" transform="translate(889.160156 0)"/>
      <use xlink:href="#DejaVuSans-74" transform="translate(950.439453 0)"/>
      <use xlink:href="#DejaVuSans-69" transform="translate(989.648438 0)"/>
      <use xlink:href="#DejaVuSans-6f" transform="translate(1017.431641 0)"/>
      <use xlink:href="#DejaVuSans-6e" transform="translate(1078.613281 0)"/>
      <use xlink:href="#DejaVuSans-20" transform="translate(1141.992188 0)"/>
      <use xlink:href="#DejaVuSans-4c" transform="translate(1173.779297 0)"/>
      <use xlink:href="#DejaVuSans-6f" transform="translate(1227.742188 0)"/>
      <use xlink:href="#DejaVuSans-73" transform="translate(1288.923828 0)"/>
      <use xlink:href="#DejaVuSans-73" transform="translate(1341.023438 0)"/>
     </g>
    </g>
   </g>
   <g id="line2d_12">
    <path d="M 115.363636 166.498006 
L 117.060201 227.09487 
L 118.756765 242.489928 
L 120.453329 251.741563 
L 122.149894 258.25408 
L 123.846458 263.267322 
L 125.543022 267.357619 
L 127.239587 270.800258 
L 128.936151 273.766591 
L 130.632715 276.323189 
L 132.329279 278.576621 
L 134.025844 280.578547 
L 135.722408 282.372109 
L 137.418972 283.971193 
L 140.812101 286.700272 
L 142.508665 287.873136 
L 145.901794 289.872472 
L 149.294922 291.580525 
L 152.688051 293.048224 
L 157.777744 294.867338 
L 161.170873 295.918921 
L 166.260566 297.217173 
L 171.350258 298.265316 
L 178.136516 299.43133 
L 184.922773 300.384467 
L 193.405594 301.290483 
L 206.978109 302.350282 
L 237.516266 303.68611 
L 254.481909 304.152586 
L 256.178474 304.100115 
L 264.661295 304.332814 
L 273.144117 304.479682 
L 274.840681 304.560981 
L 278.23381 304.582132 
L 279.930374 304.663692 
L 283.323503 304.628903 
L 291.806324 304.731319 
L 301.98571 304.849775 
L 308.771967 304.96848 
L 312.165096 304.961643 
L 313.86166 304.904085 
L 315.558224 305.008201 
L 325.73761 305.009863 
L 329.130739 305.120164 
L 330.827303 305.027625 
L 332.523867 305.18833 
L 339.310125 305.252025 
L 344.399818 305.303578 
L 351.186075 305.299495 
L 352.882639 305.42643 
L 356.275768 305.373001 
L 361.365461 305.494613 
L 388.51049 305.508789 
L 391.903618 305.468965 
L 395.296747 305.515331 
L 398.689875 305.434736 
L 403.779568 305.511102 
L 408.869261 305.522543 
L 410.565825 305.634123 
L 412.26239 305.561855 
L 413.958954 305.747262 
L 417.352083 305.538497 
L 420.745211 305.636768 
L 422.441776 305.483724 
L 425.834904 305.549893 
L 427.531469 305.4954 
L 429.228033 305.610355 
L 432.621161 305.647284 
L 436.01429 305.666628 
L 441.103983 305.561927 
L 442.800547 305.725012 
L 444.497112 305.544427 
L 446.193676 305.741589 
L 447.89024 305.593335 
L 449.586804 305.77683 
L 452.979933 305.6053 
L 454.676497 305.792703 
L 473.338705 305.743916 
L 476.731833 305.911311 
L 481.821526 305.781858 
L 483.518091 305.933806 
L 485.214655 305.832492 
L 486.911219 306.000659 
L 488.607784 305.951807 
L 490.304348 306.050479 
L 493.697476 305.906802 
L 497.090605 306.025759 
L 498.787169 306.014759 
L 500.483734 306.239967 
L 502.180298 306.04193 
L 503.876862 306.269354 
L 505.573427 306.17139 
L 507.269991 306.188243 
L 508.966555 306.343143 
L 510.663119 306.192 
L 515.752812 306.245052 
L 517.449377 306.410933 
L 519.145941 306.2871 
L 525.932198 306.493903 
L 527.628763 306.466471 
L 531.021891 306.630166 
L 532.718455 306.411397 
L 534.41502 306.366514 
L 536.111584 306.691882 
L 537.808148 306.462854 
L 547.987534 306.655105 
L 551.380663 306.666808 
L 553.077227 306.952212 
L 556.470356 306.765531 
L 559.863484 306.811467 
L 561.560049 306.799282 
L 563.256613 307.001083 
L 564.953177 306.952683 
L 566.649742 306.659582 
L 568.346306 306.92182 
L 570.04287 306.723766 
L 573.435999 306.889867 
L 576.829127 306.807692 
L 580.222256 307.028913 
L 581.91882 307.13245 
L 583.615385 307.076314 
L 585.311949 306.887633 
L 590.401642 307.105707 
L 592.098206 307.343334 
L 598.884463 307.361159 
L 609.063849 307.421523 
L 610.760413 307.317758 
L 612.456978 307.537488 
L 614.153542 307.452473 
L 617.546671 307.653492 
L 619.243235 307.422335 
L 620.939799 307.8 
L 622.636364 307.576684 
L 622.636364 307.576684 
" clip-path="url(#pcafce8cdb3)" style="fill: none; stroke: #1f77b4; stroke-width: 1.5; stroke-linecap: square"/>
   </g>
   <g id="line2d_13">
    <path d="M 115.363636 55.8 
L 117.060201 98.066945 
L 118.756765 119.971673 
L 120.453329 134.621663 
L 122.149894 145.367833 
L 123.846458 153.846172 
L 125.543022 160.867091 
L 127.239587 166.987311 
L 128.936151 172.16046 
L 130.632715 176.69904 
L 132.329279 180.687606 
L 135.722408 187.430683 
L 139.115537 192.752204 
L 140.812101 195.151728 
L 142.508665 197.234226 
L 145.901794 200.915336 
L 147.598358 202.555956 
L 149.294922 203.948379 
L 150.991487 205.490164 
L 159.474308 210.814306 
L 162.867437 212.402793 
L 164.564001 213.405408 
L 167.95713 214.612833 
L 171.350258 215.830744 
L 179.83308 218.456342 
L 181.529644 218.687027 
L 183.226209 219.263557 
L 186.619337 219.990254 
L 188.315901 220.098882 
L 191.70903 220.982169 
L 193.405594 221.145821 
L 195.102159 221.473781 
L 196.798723 221.647048 
L 200.191852 222.206544 
L 201.888416 222.30781 
L 203.58498 222.672433 
L 215.46093 223.636962 
L 217.157495 223.963811 
L 218.854059 223.991979 
L 220.550623 223.89789 
L 222.247188 224.050896 
L 223.943752 224.453932 
L 225.640316 224.311555 
L 227.336881 224.812326 
L 230.730009 224.547185 
L 232.426573 224.469201 
L 234.123138 225.05647 
L 235.819702 224.92988 
L 239.212831 224.929509 
L 240.909395 225.24664 
L 244.302524 225.162685 
L 245.999088 224.971964 
L 247.695652 224.94365 
L 249.392216 225.18139 
L 251.088781 225.137238 
L 254.481909 225.439411 
L 256.178474 225.201942 
L 257.875038 225.758648 
L 259.571602 225.082824 
L 261.268167 225.366434 
L 262.964731 225.808439 
L 264.661295 225.867649 
L 266.35786 225.338378 
L 268.054424 226.34713 
L 269.750988 225.945495 
L 271.447552 226.132255 
L 273.144117 226.112592 
L 274.840681 226.601872 
L 276.537245 226.423933 
L 278.23381 226.528825 
L 279.930374 226.291901 
L 281.626938 226.857166 
L 283.323503 226.527085 
L 285.020067 227.057448 
L 286.716631 226.832548 
L 288.413196 226.967336 
L 290.10976 226.730329 
L 291.806324 227.211258 
L 293.502888 227.461469 
L 295.199453 227.429448 
L 296.896017 228.035906 
L 298.592581 227.424345 
L 301.98571 228.116941 
L 303.682274 227.91666 
L 305.378839 228.584251 
L 307.075403 228.61716 
L 308.771967 228.427007 
L 312.165096 228.638759 
L 313.86166 228.999915 
L 317.254789 228.842083 
L 318.951353 229.054804 
L 320.647917 228.610016 
L 322.344482 228.921596 
L 324.041046 228.639152 
L 325.73761 228.903282 
L 329.130739 228.84438 
L 330.827303 229.025015 
L 332.523867 228.543416 
L 334.220432 228.678643 
L 335.916996 227.950506 
L 337.61356 228.746018 
L 339.310125 228.827568 
L 341.006689 228.323398 
L 342.703253 228.889521 
L 344.399818 228.295599 
L 346.096382 226.906056 
L 347.792946 228.109937 
L 349.48951 227.5752 
L 351.186075 227.405822 
L 354.579203 228.200467 
L 357.972332 226.410698 
L 359.668896 227.475886 
L 361.365461 228.002641 
L 363.062025 225.849343 
L 364.758589 227.421096 
L 366.455154 226.988994 
L 368.151718 226.722517 
L 369.848282 226.98564 
L 371.544846 226.412564 
L 373.241411 226.508493 
L 374.937975 226.438902 
L 376.634539 227.082489 
L 378.331104 226.873422 
L 380.027668 227.285802 
L 381.724232 227.024772 
L 385.117361 225.735693 
L 386.813925 227.894462 
L 388.51049 226.421367 
L 390.207054 227.145317 
L 391.903618 227.334715 
L 393.600182 227.288813 
L 395.296747 226.730144 
L 396.993311 227.275448 
L 398.689875 228.27662 
L 400.38644 226.709142 
L 402.083004 227.423617 
L 403.779568 227.405562 
L 405.476133 226.974987 
L 407.172697 228.581255 
L 408.869261 226.732103 
L 410.565825 227.006989 
L 412.26239 227.579209 
L 413.958954 228.003178 
L 415.655518 227.246398 
L 417.352083 227.55582 
L 419.048647 228.884997 
L 420.745211 228.225346 
L 422.441776 227.314213 
L 424.13834 227.661999 
L 425.834904 229.109113 
L 430.924597 227.965228 
L 432.621161 227.843717 
L 434.317726 229.049082 
L 436.01429 229.276096 
L 437.710854 229.218735 
L 439.407419 228.965178 
L 441.103983 228.924231 
L 442.800547 229.500505 
L 444.497112 228.961927 
L 446.193676 228.238981 
L 447.89024 228.425829 
L 449.586804 229.332033 
L 452.979933 229.447918 
L 454.676497 227.211012 
L 456.373062 229.024571 
L 458.069626 228.432741 
L 459.76619 228.903984 
L 461.462755 229.910587 
L 463.159319 229.539688 
L 464.855883 228.959044 
L 466.552448 229.652056 
L 468.249012 229.067703 
L 469.945576 230.270804 
L 471.64214 229.579232 
L 473.338705 229.450745 
L 475.035269 229.53449 
L 476.731833 229.224291 
L 478.428398 229.789367 
L 480.124962 229.480784 
L 481.821526 230.113273 
L 483.518091 228.414383 
L 485.214655 230.419016 
L 486.911219 229.693662 
L 488.607784 229.613124 
L 490.304348 228.892118 
L 492.000912 230.028938 
L 493.697476 230.185907 
L 497.090605 229.415901 
L 500.483734 230.828613 
L 502.180298 230.233824 
L 503.876862 229.903269 
L 505.573427 229.928003 
L 507.269991 230.661067 
L 508.966555 230.124542 
L 510.663119 230.147087 
L 512.359684 230.897796 
L 514.056248 230.753161 
L 515.752812 229.981485 
L 519.145941 231.145995 
L 520.842505 231.329836 
L 522.53907 230.780097 
L 524.235634 230.602452 
L 525.932198 230.270159 
L 527.628763 231.020712 
L 529.325327 230.642734 
L 531.021891 230.864069 
L 532.718455 231.324329 
L 534.41502 231.373097 
L 536.111584 230.473592 
L 537.808148 230.402181 
L 539.504713 230.765447 
L 541.201277 231.789497 
L 542.897841 230.600091 
L 544.594406 230.975856 
L 546.29097 231.688633 
L 547.987534 230.29586 
L 549.684099 230.794328 
L 551.380663 230.231513 
L 553.077227 230.611828 
L 554.773791 230.496981 
L 556.470356 230.028497 
L 558.16692 231.197383 
L 559.863484 231.818526 
L 561.560049 230.686074 
L 563.256613 231.036714 
L 564.953177 229.832105 
L 566.649742 230.549779 
L 568.346306 232.2871 
L 570.04287 231.465059 
L 571.739434 229.453142 
L 573.435999 231.74131 
L 575.132563 231.782846 
L 576.829127 231.205848 
L 578.525692 231.778149 
L 580.222256 230.62802 
L 581.91882 230.976715 
L 583.615385 229.770958 
L 587.008513 232.093042 
L 588.705078 231.678961 
L 590.401642 231.702908 
L 592.098206 231.189186 
L 597.187899 231.753319 
L 600.581028 231.751353 
L 602.277592 230.464107 
L 603.974156 230.740946 
L 605.670721 232.614437 
L 607.367285 231.496954 
L 609.063849 232.330196 
L 610.760413 231.62701 
L 612.456978 231.611161 
L 614.153542 232.027549 
L 615.850106 231.783212 
L 617.546671 231.071653 
L 619.243235 232.387732 
L 620.939799 232.037811 
L 622.636364 231.35076 
L 622.636364 231.35076 
" clip-path="url(#pcafce8cdb3)" style="fill: none; stroke: #ff7f0e; stroke-width: 1.5; stroke-linecap: square"/>
   </g>
   <g id="patch_3">
    <path d="M 90 320.4 
L 90 43.2 
" style="fill: none; stroke: #000000; stroke-width: 0.8; stroke-linejoin: miter; stroke-linecap: square"/>
   </g>
   <g id="patch_4">
    <path d="M 648 320.4 
L 648 43.2 
" style="fill: none; stroke: #000000; stroke-width: 0.8; stroke-linejoin: miter; stroke-linecap: square"/>
   </g>
   <g id="patch_5">
    <path d="M 90 320.4 
L 648 320.4 
" style="fill: none; stroke: #000000; stroke-width: 0.8; stroke-linejoin: miter; stroke-linecap: square"/>
   </g>
   <g id="patch_6">
    <path d="M 90 43.2 
L 648 43.2 
" style="fill: none; stroke: #000000; stroke-width: 0.8; stroke-linejoin: miter; stroke-linecap: square"/>
   </g>
   <g id="text_14">
    <!-- Training and Validating Domain Discrimination Loss -->
    <g transform="translate(214.96875 37.2) scale(0.12 -0.12)">
     <defs>
      <path id="DejaVuSans-54" d="M -19 4666 
L 3928 4666 
L 3928 4134 
L 2272 4134 
L 2272 0 
L 1638 0 
L 1638 4134 
L -19 4134 
L -19 4666 
z
" transform="scale(0.015625)"/>
      <path id="DejaVuSans-67" d="M 2906 1791 
Q 2906 2416 2648 2759 
Q 2391 3103 1925 3103 
Q 1463 3103 1205 2759 
Q 947 2416 947 1791 
Q 947 1169 1205 825 
Q 1463 481 1925 481 
Q 2391 481 2648 825 
Q 2906 1169 2906 1791 
z
M 3481 434 
Q 3481 -459 3084 -895 
Q 2688 -1331 1869 -1331 
Q 1566 -1331 1297 -1286 
Q 1028 -1241 775 -1147 
L 775 -588 
Q 1028 -725 1275 -790 
Q 1522 -856 1778 -856 
Q 2344 -856 2625 -561 
Q 2906 -266 2906 331 
L 2906 616 
Q 2728 306 2450 153 
Q 2172 0 1784 0 
Q 1141 0 747 490 
Q 353 981 353 1791 
Q 353 2603 747 3093 
Q 1141 3584 1784 3584 
Q 2172 3584 2450 3431 
Q 2728 3278 2906 2969 
L 2906 3500 
L 3481 3500 
L 3481 434 
z
" transform="scale(0.015625)"/>
      <path id="DejaVuSans-64" d="M 2906 2969 
L 2906 4863 
L 3481 4863 
L 3481 0 
L 2906 0 
L 2906 525 
Q 2725 213 2448 61 
Q 2172 -91 1784 -91 
Q 1150 -91 751 415 
Q 353 922 353 1747 
Q 353 2572 751 3078 
Q 1150 3584 1784 3584 
Q 2172 3584 2448 3432 
Q 2725 3281 2906 2969 
z
M 947 1747 
Q 947 1113 1208 752 
Q 1469 391 1925 391 
Q 2381 391 2643 752 
Q 2906 1113 2906 1747 
Q 2906 2381 2643 2742 
Q 2381 3103 1925 3103 
Q 1469 3103 1208 2742 
Q 947 2381 947 1747 
z
" transform="scale(0.015625)"/>
      <path id="DejaVuSans-56" d="M 1831 0 
L 50 4666 
L 709 4666 
L 2188 738 
L 3669 4666 
L 4325 4666 
L 2547 0 
L 1831 0 
z
" transform="scale(0.015625)"/>
      <path id="DejaVuSans-6c" d="M 603 4863 
L 1178 4863 
L 1178 0 
L 603 0 
L 603 4863 
z
" transform="scale(0.015625)"/>
     </defs>
     <use xlink:href="#DejaVuSans-54"/>
     <use xlink:href="#DejaVuSans-72" transform="translate(46.333984 0)"/>
     <use xlink:href="#DejaVuSans-61" transform="translate(87.447266 0)"/>
     <use xlink:href="#DejaVuSans-69" transform="translate(148.726562 0)"/>
     <use xlink:href="#DejaVuSans-6e" transform="translate(176.509766 0)"/>
     <use xlink:href="#DejaVuSans-69" transform="translate(239.888672 0)"/>
     <use xlink:href="#DejaVuSans-6e" transform="translate(267.671875 0)"/>
     <use xlink:href="#DejaVuSans-67" transform="translate(331.050781 0)"/>
     <use xlink:href="#DejaVuSans-20" transform="translate(394.527344 0)"/>
     <use xlink:href="#DejaVuSans-61" transform="translate(426.314453 0)"/>
     <use xlink:href="#DejaVuSans-6e" transform="translate(487.59375 0)"/>
     <use xlink:href="#DejaVuSans-64" transform="translate(550.972656 0)"/>
     <use xlink:href="#DejaVuSans-20" transform="translate(614.449219 0)"/>
     <use xlink:href="#DejaVuSans-56" transform="translate(646.236328 0)"/>
     <use xlink:href="#DejaVuSans-61" transform="translate(706.894531 0)"/>
     <use xlink:href="#DejaVuSans-6c" transform="translate(768.173828 0)"/>
     <use xlink:href="#DejaVuSans-69" transform="translate(795.957031 0)"/>
     <use xlink:href="#DejaVuSans-64" transform="translate(823.740234 0)"/>
     <use xlink:href="#DejaVuSans-61" transform="translate(887.216797 0)"/>
     <use xlink:href="#DejaVuSans-74" transform="translate(948.496094 0)"/>
     <use xlink:href="#DejaVuSans-69" transform="translate(987.705078 0)"/>
     <use xlink:href="#DejaVuSans-6e" transform="translate(1015.488281 0)"/>
     <use xlink:href="#DejaVuSans-67" transform="translate(1078.867188 0)"/>
     <use xlink:href="#DejaVuSans-20" transform="translate(1142.34375 0)"/>
     <use xlink:href="#DejaVuSans-44" transform="translate(1174.130859 0)"/>
     <use xlink:href="#DejaVuSans-6f" transform="translate(1251.132812 0)"/>
     <use xlink:href="#DejaVuSans-6d" transform="translate(1312.314453 0)"/>
     <use xlink:href="#DejaVuSans-61" transform="translate(1409.726562 0)"/>
     <use xlink:href="#DejaVuSans-69" transform="translate(1471.005859 0)"/>
     <use xlink:href="#DejaVuSans-6e" transform="translate(1498.789062 0)"/>
     <use xlink:href="#DejaVuSans-20" transform="translate(1562.167969 0)"/>
     <use xlink:href="#DejaVuSans-44" transform="translate(1593.955078 0)"/>
     <use xlink:href="#DejaVuSans-69" transform="translate(1670.957031 0)"/>
     <use xlink:href="#DejaVuSans-73" transform="translate(1698.740234 0)"/>
     <use xlink:href="#DejaVuSans-63" transform="translate(1750.839844 0)"/>
     <use xlink:href="#DejaVuSans-72" transform="translate(1805.820312 0)"/>
     <use xlink:href="#DejaVuSans-69" transform="translate(1846.933594 0)"/>
     <use xlink:href="#DejaVuSans-6d" transform="translate(1874.716797 0)"/>
     <use xlink:href="#DejaVuSans-69" transform="translate(1972.128906 0)"/>
     <use xlink:href="#DejaVuSans-6e" transform="translate(1999.912109 0)"/>
     <use xlink:href="#DejaVuSans-61" transform="translate(2063.291016 0)"/>
     <use xlink:href="#DejaVuSans-74" transform="translate(2124.570312 0)"/>
     <use xlink:href="#DejaVuSans-69" transform="translate(2163.779297 0)"/>
     <use xlink:href="#DejaVuSans-6f" transform="translate(2191.5625 0)"/>
     <use xlink:href="#DejaVuSans-6e" transform="translate(2252.744141 0)"/>
     <use xlink:href="#DejaVuSans-20" transform="translate(2316.123047 0)"/>
     <use xlink:href="#DejaVuSans-4c" transform="translate(2347.910156 0)"/>
     <use xlink:href="#DejaVuSans-6f" transform="translate(2401.873047 0)"/>
     <use xlink:href="#DejaVuSans-73" transform="translate(2463.054688 0)"/>
     <use xlink:href="#DejaVuSans-73" transform="translate(2515.154297 0)"/>
    </g>
   </g>
   <g id="legend_1">
    <g id="patch_7">
     <path d="M 559.389063 80.55625 
L 641 80.55625 
Q 643 80.55625 643 78.55625 
L 643 50.2 
Q 643 48.2 641 48.2 
L 559.389063 48.2 
Q 557.389063 48.2 557.389063 50.2 
L 557.389063 78.55625 
Q 557.389063 80.55625 559.389063 80.55625 
z
" style="fill: #ffffff; opacity: 0.8; stroke: #cccccc; stroke-linejoin: miter"/>
    </g>
    <g id="line2d_14">
     <path d="M 561.389063 56.298437 
L 571.389063 56.298437 
L 581.389063 56.298437 
" style="fill: none; stroke: #1f77b4; stroke-width: 1.5; stroke-linecap: square"/>
    </g>
    <g id="text_15">
     <!-- Training -->
     <g transform="translate(589.389063 59.798437) scale(0.1 -0.1)">
      <use xlink:href="#DejaVuSans-54"/>
      <use xlink:href="#DejaVuSans-72" transform="translate(46.333984 0)"/>
      <use xlink:href="#DejaVuSans-61" transform="translate(87.447266 0)"/>
      <use xlink:href="#DejaVuSans-69" transform="translate(148.726562 0)"/>
      <use xlink:href="#DejaVuSans-6e" transform="translate(176.509766 0)"/>
      <use xlink:href="#DejaVuSans-69" transform="translate(239.888672 0)"/>
      <use xlink:href="#DejaVuSans-6e" transform="translate(267.671875 0)"/>
      <use xlink:href="#DejaVuSans-67" transform="translate(331.050781 0)"/>
     </g>
    </g>
    <g id="line2d_15">
     <path d="M 561.389063 70.976562 
L 571.389063 70.976562 
L 581.389063 70.976562 
" style="fill: none; stroke: #ff7f0e; stroke-width: 1.5; stroke-linecap: square"/>
    </g>
    <g id="text_16">
     <!-- Validating -->
     <g transform="translate(589.389063 74.476562) scale(0.1 -0.1)">
      <use xlink:href="#DejaVuSans-56"/>
      <use xlink:href="#DejaVuSans-61" transform="translate(60.658203 0)"/>
      <use xlink:href="#DejaVuSans-6c" transform="translate(121.9375 0)"/>
      <use xlink:href="#DejaVuSans-69" transform="translate(149.720703 0)"/>
      <use xlink:href="#DejaVuSans-64" transform="translate(177.503906 0)"/>
      <use xlink:href="#DejaVuSans-61" transform="translate(240.980469 0)"/>
      <use xlink:href="#DejaVuSans-74" transform="translate(302.259766 0)"/>
      <use xlink:href="#DejaVuSans-69" transform="translate(341.46875 0)"/>
      <use xlink:href="#DejaVuSans-6e" transform="translate(369.251953 0)"/>
      <use xlink:href="#DejaVuSans-67" transform="translate(432.630859 0)"/>
     </g>
    </g>
   </g>
  </g>
 </g>
 <defs>
  <clipPath id="pcafce8cdb3">
   <rect x="90" y="43.2" width="558" height="277.2"/>
  </clipPath>
 </defs>
</svg>
