<?xml version="1.0" encoding="utf-8" standalone="no"?>
<!DOCTYPE svg PUBLIC "-//W3C//DTD SVG 1.1//EN"
  "http://www.w3.org/Graphics/SVG/1.1/DTD/svg11.dtd">
<svg xmlns:xlink="http://www.w3.org/1999/xlink" width="720pt" height="360pt" viewBox="0 0 720 360" xmlns="http://www.w3.org/2000/svg" version="1.1">
 <metadata>
  <rdf:RDF xmlns:dc="http://purl.org/dc/elements/1.1/" xmlns:cc="http://creativecommons.org/ns#" xmlns:rdf="http://www.w3.org/1999/02/22-rdf-syntax-ns#">
   <cc:Work>
    <dc:type rdf:resource="http://purl.org/dc/dcmitype/StillImage"/>
    <dc:date>2026-03-13T15:47:17.588358</dc:date>
    <dc:format>image/svg+xml</dc:format>
    <dc:creator>
     <cc:Agent>
      <dc:title>Matplotlib v3.10.1, https://matplotlib.org/</dc:title>
     </cc:Agent>
    </dc:creator>
   </cc:Work>
  </rdf:RDF>
 </metadata>
 <defs>
  <style type="text/css">*{stroke-linejoin: round; stroke-linecap: butt}</style>
 </defs>
 <g id="figure_1">
  <g id="patch_1">
   <path d="M 0 360 
L 720 360 
L 720 0 
L 0 0 
z
" style="fill: #ffffff"/>
  </g>
  <g id="axes_1">
   <g id="patch_2">
    <path d="M 90 320.4 
L 648 320.4 
L 648 43.2 
L 90 43.2 
z
" style="fill: #ffffff"/>
   </g>
   <g id="matplotlib.axis_1">
    <g id="xtick_1">
     <g id="line2d_1">
      <defs>
       <path id="mb1ad8d04e9" d="M 0 0 
L 0 3.5 
" style="stroke: #000000; stroke-width: 0.8"/>
      </defs>
      <g>
       <use xlink:href="#mb1ad8d04e9" x="115.363636" y="320.4" style="stroke: #000000; stroke-width: 0.8"/>
      </g>
     </g>
     <g id="text_1">
      <!-- 0 -->
      <g transform="translate(112.182386 334.998438) scale(0.1 -0.1)">
       <defs>
        <path id="DejaVuSans-30" d="M 2034 4250 
Q 1547 4250 1301 3770 
Q 1056 3291 1056 2328 
Q 1056 1369 1301 889 
Q 1547 409 2034 409 
Q 2525 409 2770 889 
Q 3016 1369 3016 2328 
Q 3016 3291 2770 3770 
Q 2525 4250 2034 4250 
z
M 2034 4750 
Q 2819 4750 3233 4129 
Q 3647 3509 3647 2328 
Q 3647 1150 3233 529 
Q 2819 -91 2034 -91 
Q 1250 -91 836 529 
Q 422 1150 422 2328 
Q 422 3509 836 4129 
Q 1250 4750 2034 4750 
z
" transform="scale(0.015625)"/>
       </defs>
       <use xlink:href="#DejaVuSans-30"/>
      </g>
     </g>
    </g>
    <g id="xtick_2">
     <g id="line2d_2">
      <g>
       <use xlink:href="#mb1ad8d04e9" x="217.384967" y="320.4" style="stroke: #000000; stroke-width: 0.8"/>
      </g>
     </g>
     <g id="text_2">
      <!-- 36 -->
      <g transform="translate(211.022467 334.998438) scale(0.1 -0.1)">
       <defs>
        <path id="DejaVuSans-33" d="M 2597 2516 
Q 3050 2419 3304 2112 
Q 3559 1806 3559 1356 
Q 3559 666 3084 287 
Q 2609 -91 1734 -91 
Q 1441 -91 1130 -33 
Q 819 25 488 141 
L 488 750 
Q 750 597 1062 519 
Q 1375 441 1716 441 
Q 2309 441 2620 675 
Q 2931 909 2931 1356 
Q 2931 1769 2642 2001 
Q 2353 2234 1838 2234 
L 1294 2234 
L 1294 2753 
L 1863 2753 
Q 2328 2753 2575 2939 
Q 2822 3125 2822 3475 
Q 2822 3834 2567 4026 
Q 2313 4219 1838 4219 
Q 1578 4219 1281 4162 
Q 984 4106 628 3988 
L 628 4550 
Q 988 4650 1302 4700 
Q 1616 4750 1894 4750 
Q 2613 4750 3031 4423 
Q 3450 4097 3450 3541 
Q 3450 3153 3228 2886 
Q 3006 2619 2597 2516 
z
" transform="scale(0.015625)"/>
        <path id="DejaVuSans-36" d="M 2113 2584 
Q 1688 2584 1439 2293 
Q 1191 2003 1191 1497 
Q 1191 994 1439 701 
Q 1688 409 2113 409 
Q 2538 409 2786 701 
Q 3034 994 3034 1497 
Q 3034 2003 2786 2293 
Q 2538 2584 2113 2584 
z
M 3366 4563 
L 3366 3988 
Q 3128 4100 2886 4159 
Q 2644 4219 2406 4219 
Q 1781 4219 1451 3797 
Q 1122 3375 1075 2522 
Q 1259 2794 1537 2939 
Q 1816 3084 2150 3084 
Q 2853 3084 3261 2657 
Q 3669 2231 3669 1497 
Q 3669 778 3244 343 
Q 2819 -91 2113 -91 
Q 1303 -91 875 529 
Q 447 1150 447 2328 
Q 447 3434 972 4092 
Q 1497 4750 2381 4750 
Q 2619 4750 2861 4703 
Q 3103 4656 3366 4563 
z
" transform="scale(0.015625)"/>
       </defs>
       <use xlink:href="#DejaVuSans-33"/>
       <use xlink:href="#DejaVuSans-36" transform="translate(63.623047 0)"/>
      </g>
     </g>
    </g>
    <g id="xtick_3">
     <g id="line2d_3">
      <g>
       <use xlink:href="#mb1ad8d04e9" x="319.406298" y="320.4" style="stroke: #000000; stroke-width: 0.8"/>
      </g>
     </g>
     <g id="text_3">
      <!-- 72 -->
      <g transform="translate(313.043798 334.998438) scale(0.1 -0.1)">
       <defs>
        <path id="DejaVuSans-37" d="M 525 4666 
L 3525 4666 
L 3525 4397 
L 1831 0 
L 1172 0 
L 2766 4134 
L 525 4134 
L 525 4666 
z
" transform="scale(0.015625)"/>
        <path id="DejaVuSans-32" d="M 1228 531 
L 3431 531 
L 3431 0 
L 469 0 
L 469 531 
Q 828 903 1448 1529 
Q 2069 2156 2228 2338 
Q 2531 2678 2651 2914 
Q 2772 3150 2772 3378 
Q 2772 3750 2511 3984 
Q 2250 4219 1831 4219 
Q 1534 4219 1204 4116 
Q 875 4013 500 3803 
L 500 4441 
Q 881 4594 1212 4672 
Q 1544 4750 1819 4750 
Q 2544 4750 2975 4387 
Q 3406 4025 3406 3419 
Q 3406 3131 3298 2873 
Q 3191 2616 2906 2266 
Q 2828 2175 2409 1742 
Q 1991 1309 1228 531 
z
" transform="scale(0.015625)"/>
       </defs>
       <use xlink:href="#DejaVuSans-37"/>
       <use xlink:href="#DejaVuSans-32" transform="translate(63.623047 0)"/>
      </g>
     </g>
    </g>
    <g id="xtick_4">
     <g id="line2d_4">
      <g>
       <use xlink:href="#mb1ad8d04e9" x="421.427628" y="320.4" style="stroke: #000000; stroke-width: 0.8"/>
      </g>
     </g>
     <g id="text_4">
      <!-- 108 -->
      <g transform="translate(411.883878 334.998438) scale(0.1 -0.1)">
       <defs>
        <path id="DejaVuSans-31" d="M 794 531 
L 1825 531 
L 1825 4091 
L 703 3866 
L 703 4441 
L 1819 4666 
L 2450 4666 
L 2450 531 
L 3481 531 
L 3481 0 
L 794 0 
L 794 531 
z
" transform="scale(0.015625)"/>
        <path id="DejaVuSans-38" d="M 2034 2216 
Q 1584 2216 1326 1975 
Q 1069 1734 1069 1313 
Q 1069 891 1326 650 
Q 1584 409 2034 409 
Q 2484 409 2743 651 
Q 3003 894 3003 1313 
Q 3003 1734 2745 1975 
Q 2488 2216 2034 2216 
z
M 1403 2484 
Q 997 2584 770 2862 
Q 544 3141 544 3541 
Q 544 4100 942 4425 
Q 1341 4750 2034 4750 
Q 2731 4750 3128 4425 
Q 3525 4100 3525 3541 
Q 3525 3141 3298 2862 
Q 3072 2584 2669 2484 
Q 3125 2378 3379 2068 
Q 3634 1759 3634 1313 
Q 3634 634 3220 271 
Q 2806 -91 2034 -91 
Q 1263 -91 848 271 
Q 434 634 434 1313 
Q 434 1759 690 2068 
Q 947 2378 1403 2484 
z
M 1172 3481 
Q 1172 3119 1398 2916 
Q 1625 2713 2034 2713 
Q 2441 2713 2670 2916 
Q 2900 3119 2900 3481 
Q 2900 3844 2670 4047 
Q 2441 4250 2034 4250 
Q 1625 4250 1398 4047 
Q 1172 3844 1172 3481 
z
" transform="scale(0.015625)"/>
       </defs>
       <use xlink:href="#DejaVuSans-31"/>
       <use xlink:href="#DejaVuSans-30" transform="translate(63.623047 0)"/>
       <use xlink:href="#DejaVuSans-38" transform="translate(127.246094 0)"/>
      </g>
     </g>
    </g>
    <g id="xtick_5">
     <g id="line2d_5">
      <g>
       <use xlink:href="#mb1ad8d04e9" x="523.448959" y="320.4" style="stroke: #000000; stroke-width: 0.8"/>
      </g>
     </g>
     <g id="text_5">
      <!-- 144 -->
      <g transform="translate(513.905209 334.998438) scale(0.1 -0.1)">
       <defs>
        <path id="DejaVuSans-34" d="M 2419 4116 
L 825 1625 
L 2419 1625 
L 2419 4116 
z
M 2253 4666 
L 3047 4666 
L 3047 1625 
L 3713 1625 
L 3713 1100 
L 3047 1100 
L 3047 0 
L 2419 0 
L 2419 1100 
L 313 1100 
L 313 1709 
L 2253 4666 
z
" transform="scale(0.015625)"/>
       </defs>
       <use xlink:href="#DejaVuSans-31"/>
       <use xlink:href="#DejaVuSans-34" transform="translate(63.623047 0)"/>
       <use xlink:href="#DejaVuSans-34" transform="translate(127.246094 0)"/>
      </g>
     </g>
    </g>
    <g id="text_6">
     <!-- Epoch -->
     <g transform="translate(353.689062 348.676562) scale(0.1 -0.1)">
      <defs>
       <path id="DejaVuSans-45" d="M 628 4666 
L 3578 4666 
L 3578 4134 
L 1259 4134 
L 1259 2753 
L 3481 2753 
L 3481 2222 
L 1259 2222 
L 1259 531 
L 3634 531 
L 3634 0 
L 628 0 
L 628 4666 
z
" transform="scale(0.015625)"/>
       <path id="DejaVuSans-70" d="M 1159 525 
L 1159 -1331 
L 581 -1331 
L 581 3500 
L 1159 3500 
L 1159 2969 
Q 1341 3281 1617 3432 
Q 1894 3584 2278 3584 
Q 2916 3584 3314 3078 
Q 3713 2572 3713 1747 
Q 3713 922 3314 415 
Q 2916 -91 2278 -91 
Q 1894 -91 1617 61 
Q 1341 213 1159 525 
z
M 3116 1747 
Q 3116 2381 2855 2742 
Q 2594 3103 2138 3103 
Q 1681 3103 1420 2742 
Q 1159 2381 1159 1747 
Q 1159 1113 1420 752 
Q 1681 391 2138 391 
Q 2594 391 2855 752 
Q 3116 1113 3116 1747 
z
" transform="scale(0.015625)"/>
       <path id="DejaVuSans-6f" d="M 1959 3097 
Q 1497 3097 1228 2736 
Q 959 2375 959 1747 
Q 959 1119 1226 758 
Q 1494 397 1959 397 
Q 2419 397 2687 759 
Q 2956 1122 2956 1747 
Q 2956 2369 2687 2733 
Q 2419 3097 1959 3097 
z
M 1959 3584 
Q 2709 3584 3137 3096 
Q 3566 2609 3566 1747 
Q 3566 888 3137 398 
Q 2709 -91 1959 -91 
Q 1206 -91 779 398 
Q 353 888 353 1747 
Q 353 2609 779 3096 
Q 1206 3584 1959 3584 
z
" transform="scale(0.015625)"/>
       <path id="DejaVuSans-63" d="M 3122 3366 
L 3122 2828 
Q 2878 2963 2633 3030 
Q 2388 3097 2138 3097 
Q 1578 3097 1268 2742 
Q 959 2388 959 1747 
Q 959 1106 1268 751 
Q 1578 397 2138 397 
Q 2388 397 2633 464 
Q 2878 531 3122 666 
L 3122 134 
Q 2881 22 2623 -34 
Q 2366 -91 2075 -91 
Q 1284 -91 818 406 
Q 353 903 353 1747 
Q 353 2603 823 3093 
Q 1294 3584 2113 3584 
Q 2378 3584 2631 3529 
Q 2884 3475 3122 3366 
z
" transform="scale(0.015625)"/>
       <path id="DejaVuSans-68" d="M 3513 2113 
L 3513 0 
L 2938 0 
L 2938 2094 
Q 2938 2591 2744 2837 
Q 2550 3084 2163 3084 
Q 1697 3084 1428 2787 
Q 1159 2491 1159 1978 
L 1159 0 
L 581 0 
L 581 4863 
L 1159 4863 
L 1159 2956 
Q 1366 3272 1645 3428 
Q 1925 3584 2291 3584 
Q 2894 3584 3203 3211 
Q 3513 2838 3513 2113 
z
" transform="scale(0.015625)"/>
      </defs>
      <use xlink:href="#DejaVuSans-45"/>
      <use xlink:href="#DejaVuSans-70" transform="translate(63.183594 0)"/>
      <use xlink:href="#DejaVuSans-6f" transform="translate(126.660156 0)"/>
      <use xlink:href="#DejaVuSans-63" transform="translate(187.841797 0)"/>
      <use xlink:href="#DejaVuSans-68" transform="translate(242.822266 0)"/>
     </g>
    </g>
   </g>
   <g id="matplotlib.axis_2">
    <g id="ytick_1">
     <g id="line2d_6">
      <defs>
       <path id="me1e7c2dfb8" d="M 0 0 
L -3.5 0 
" style="stroke: #000000; stroke-width: 0.8"/>
      </defs>
      <g>
       <use xlink:href="#me1e7c2dfb8" x="90" y="313.289549" style="stroke: #000000; stroke-width: 0.8"/>
      </g>
     </g>
     <g id="text_7">
      <!-- 0.00 -->
      <g transform="translate(60.734375 317.088768) scale(0.1 -0.1)">
       <defs>
        <path id="DejaVuSans-2e" d="M 684 794 
L 1344 794 
L 1344 0 
L 684 0 
L 684 794 
z
" transform="scale(0.015625)"/>
       </defs>
       <use xlink:href="#DejaVuSans-30"/>
       <use xlink:href="#DejaVuSans-2e" transform="translate(63.623047 0)"/>
       <use xlink:href="#DejaVuSans-30" transform="translate(95.410156 0)"/>
       <use xlink:href="#DejaVuSans-30" transform="translate(159.033203 0)"/>
      </g>
     </g>
    </g>
    <g id="ytick_2">
     <g id="line2d_7">
      <g>
       <use xlink:href="#me1e7c2dfb8" x="90" y="263.317013" style="stroke: #000000; stroke-width: 0.8"/>
      </g>
     </g>
     <g id="text_8">
      <!-- 0.01 -->
      <g transform="translate(60.734375 267.116232) scale(0.1 -0.1)">
       <use xlink:href="#DejaVuSans-30"/>
       <use xlink:href="#DejaVuSans-2e" transform="translate(63.623047 0)"/>
       <use xlink:href="#DejaVuSans-30" transform="translate(95.410156 0)"/>
       <use xlink:href="#DejaVuSans-31" transform="translate(159.033203 0)"/>
      </g>
     </g>
    </g>
    <g id="ytick_3">
     <g id="line2d_8">
      <g>
       <use xlink:href="#me1e7c2dfb8" x="90" y="213.344477" style="stroke: #000000; stroke-width: 0.8"/>
      </g>
     </g>
     <g id="text_9">
      <!-- 0.02 -->
      <g transform="translate(60.734375 217.143696) scale(0.1 -0.1)">
       <use xlink:href="#DejaVuSans-30"/>
       <use xlink:href="#DejaVuSans-2e" transform="translate(63.623047 0)"/>
       <use xlink:href="#DejaVuSans-30" transform="translate(95.410156 0)"/>
       <use xlink:href="#DejaVuSans-32" transform="translate(159.033203 0)"/>
      </g>
     </g>
    </g>
    <g id="ytick_4">
     <g id="line2d_9">
      <g>
       <use xlink:href="#me1e7c2dfb8" x="90" y="163.371941" style="stroke: #000000; stroke-width: 0.8"/>
      </g>
     </g>
     <g id="text_10">
      <!-- 0.03 -->
      <g transform="translate(60.734375 167.17116) scale(0.1 -0.1)">
       <use xlink:href="#DejaVuSans-30"/>
       <use xlink:href="#DejaVuSans-2e" transform="translate(63.623047 0)"/>
       <use xlink:href="#DejaVuSans-30" transform="translate(95.410156 0)"/>
       <use xlink:href="#DejaVuSans-33" transform="translate(159.033203 0)"/>
      </g>
     </g>
    </g>
    <g id="ytick_5">
     <g id="line2d_10">
      <g>
       <use xlink:href="#me1e7c2dfb8" x="90" y="113.399405" style="stroke: #000000; stroke-width: 0.8"/>
      </g>
     </g>
     <g id="text_11">
      <!-- 0.04 -->
      <g transform="translate(60.734375 117.198624) scale(0.1 -0.1)">
       <use xlink:href="#DejaVuSans-30"/>
       <use xlink:href="#DejaVuSans-2e" transform="translate(63.623047 0)"/>
       <use xlink:href="#DejaVuSans-30" transform="translate(95.410156 0)"/>
       <use xlink:href="#DejaVuSans-34" transform="translate(159.033203 0)"/>
      </g>
     </g>
    </g>
    <g id="ytick_6">
     <g id="line2d_11">
      <g>
       <use xlink:href="#me1e7c2dfb8" x="90" y="63.426869" style="stroke: #000000; stroke-width: 0.8"/>
      </g>
     </g>
     <g id="text_12">
      <!-- 0.05 -->
      <g transform="translate(60.734375 67.226088) scale(0.1 -0.1)">
       <defs>
        <path id="DejaVuSans-35" d="M 691 4666 
L 3169 4666 
L 3169 4134 
L 1269 4134 
L 1269 2991 
Q 1406 3038 1543 3061 
Q 1681 3084 1819 3084 
Q 2600 3084 3056 2656 
Q 3513 2228 3513 1497 
Q 3513 744 3044 326 
Q 2575 -91 1722 -91 
Q 1428 -91 1123 -41 
Q 819 9 494 109 
L 494 744 
Q 775 591 1075 516 
Q 1375 441 1709 441 
Q 2250 441 2565 725 
Q 2881 1009 2881 1497 
Q 2881 1984 2565 2268 
Q 2250 2553 1709 2553 
Q 1456 2553 1204 2497 
Q 953 2441 691 2322 
L 691 4666 
z
" transform="scale(0.015625)"/>
       </defs>
       <use xlink:href="#DejaVuSans-30"/>
       <use xlink:href="#DejaVuSans-2e" transform="translate(63.623047 0)"/>
       <use xlink:href="#DejaVuSans-30" transform="translate(95.410156 0)"/>
       <use xlink:href="#DejaVuSans-35" transform="translate(159.033203 0)"/>
      </g>
     </g>
    </g>
    <g id="text_13">
     <!-- Loss -->
     <g transform="translate(54.654688 192.767187) rotate(-90) scale(0.1 -0.1)">
      <defs>
       <path id="DejaVuSans-4c" d="M 628 4666 
L 1259 4666 
L 1259 531 
L 3531 531 
L 3531 0 
L 628 0 
L 628 4666 
z
" transform="scale(0.015625)"/>
       <path id="DejaVuSans-73" d="M 2834 3397 
L 2834 2853 
Q 2591 2978 2328 3040 
Q 2066 3103 1784 3103 
Q 1356 3103 1142 2972 
Q 928 2841 928 2578 
Q 928 2378 1081 2264 
Q 1234 2150 1697 2047 
L 1894 2003 
Q 2506 1872 2764 1633 
Q 3022 1394 3022 966 
Q 3022 478 2636 193 
Q 2250 -91 1575 -91 
Q 1294 -91 989 -36 
Q 684 19 347 128 
L 347 722 
Q 666 556 975 473 
Q 1284 391 1588 391 
Q 1994 391 2212 530 
Q 2431 669 2431 922 
Q 2431 1156 2273 1281 
Q 2116 1406 1581 1522 
L 1381 1569 
Q 847 1681 609 1914 
Q 372 2147 372 2553 
Q 372 3047 722 3315 
Q 1072 3584 1716 3584 
Q 2034 3584 2315 3537 
Q 2597 3491 2834 3397 
z
" transform="scale(0.015625)"/>
      </defs>
      <use xlink:href="#DejaVuSans-4c"/>
      <use xlink:href="#DejaVuSans-6f" transform="translate(53.962891 0)"/>
      <use xlink:href="#DejaVuSans-73" transform="translate(115.144531 0)"/>
      <use xlink:href="#DejaVuSans-73" transform="translate(167.244141 0)"/>
     </g>
    </g>
   </g>
   <g id="line2d_12">
    <path d="M 115.363636 55.8 
L 118.197562 257.158737 
L 121.031488 277.684011 
L 123.865414 286.19653 
L 126.69934 289.576037 
L 132.367191 293.639645 
L 135.201117 294.294668 
L 138.035043 295.385912 
L 140.868969 296.214138 
L 143.702895 297.181321 
L 146.536821 297.688069 
L 149.370747 298.063271 
L 152.204672 298.77459 
L 155.038598 299.600955 
L 157.872524 300.034897 
L 160.70645 300.016747 
L 166.374302 300.903727 
L 169.208228 300.918058 
L 174.876079 301.344251 
L 180.543931 302.235931 
L 183.377857 302.405159 
L 186.211783 303.05562 
L 189.045708 303.463961 
L 197.547486 303.611785 
L 200.381412 304.065714 
L 203.215338 304.276652 
L 214.551041 304.185042 
L 217.384967 303.827938 
L 220.218893 303.8999 
L 223.052819 304.101338 
L 225.886745 304.01343 
L 228.72067 303.749604 
L 231.554596 303.669189 
L 237.222448 304.137985 
L 240.056374 303.848636 
L 242.8903 304.035862 
L 245.724225 304.573391 
L 248.558151 304.684298 
L 251.392077 304.469299 
L 254.226003 304.819653 
L 257.059929 304.878912 
L 259.893855 304.40114 
L 262.727781 304.896753 
L 265.561706 305.037188 
L 268.395632 304.977912 
L 271.229558 304.730324 
L 276.89741 304.98626 
L 285.399187 305.050289 
L 293.900965 305.480156 
L 296.734891 305.968633 
L 299.568817 305.614634 
L 305.236668 305.549919 
L 308.070594 305.750161 
L 310.90452 305.766757 
L 316.572372 306.055991 
L 319.406298 305.794059 
L 325.074149 306.012887 
L 327.908075 305.858035 
L 333.575927 306.406818 
L 339.243779 306.001236 
L 342.077704 306.095349 
L 344.91163 305.935999 
L 347.745556 306.103412 
L 356.247334 305.94451 
L 359.08126 305.64158 
L 367.583037 306.215325 
L 370.416963 306.120193 
L 373.250889 306.18941 
L 376.084815 306.485963 
L 378.91874 306.536887 
L 381.752666 306.327086 
L 387.420518 306.466087 
L 390.254444 306.392746 
L 393.08837 306.693117 
L 395.922296 306.797809 
L 398.756221 306.446404 
L 401.590147 306.536779 
L 410.091925 306.19666 
L 418.593702 306.445051 
L 421.427628 305.939047 
L 424.261554 306.364695 
L 427.09548 306.585609 
L 435.597257 306.371368 
L 441.265109 306.495927 
L 444.099035 306.657465 
L 446.932961 306.254124 
L 455.434738 306.661924 
L 461.10259 306.689152 
L 463.936516 306.235896 
L 466.770442 306.14559 
L 469.604368 306.329729 
L 472.438294 306.306452 
L 478.106145 306.548271 
L 480.940071 306.495113 
L 483.773997 306.821572 
L 486.607923 306.47369 
L 497.943626 306.737182 
L 503.611478 306.535283 
L 514.947181 306.320072 
L 520.615033 306.512936 
L 523.448959 306.348386 
L 540.452514 306.753614 
L 543.28644 306.339484 
L 546.120366 306.35124 
L 548.954292 306.565024 
L 557.456069 305.835916 
L 560.289995 305.854337 
L 563.123921 306.071869 
L 571.625698 306.11632 
L 574.459624 305.972468 
L 577.29355 306.115454 
L 580.127476 305.928515 
L 591.463179 306.220121 
L 594.297105 306.111506 
L 597.131031 306.399523 
L 602.798883 305.862338 
L 605.632809 305.972384 
L 608.466734 305.698681 
L 611.30066 305.807589 
L 614.134586 306.262117 
L 619.802438 305.940383 
L 622.636364 305.919271 
L 622.636364 305.919271 
" clip-path="url(#pf872521482)" style="fill: none; stroke: #1f77b4; stroke-width: 1.5; stroke-linecap: square"/>
   </g>
   <g id="line2d_13">
    <path d="M 115.363636 242.054919 
L 118.197562 276.16024 
L 121.031488 282.919538 
L 123.865414 288.852532 
L 126.69934 289.697642 
L 129.533266 292.811313 
L 132.367191 291.366462 
L 135.201117 292.687752 
L 138.035043 292.329471 
L 140.868969 297.1171 
L 143.702895 300.552647 
L 146.536821 299.570213 
L 149.370747 300.010453 
L 152.204672 300.316695 
L 155.038598 296.665269 
L 157.872524 297.867153 
L 160.70645 300.949938 
L 163.540376 301.988395 
L 166.374302 300.469153 
L 169.208228 299.149129 
L 172.042153 300.687127 
L 174.876079 301.404959 
L 177.710005 303.10737 
L 180.543931 301.939936 
L 183.377857 303.697153 
L 186.211783 302.589338 
L 189.045708 302.462733 
L 191.879634 304.133294 
L 194.71356 302.871662 
L 197.547486 303.36607 
L 200.381412 304.151576 
L 203.215338 303.253298 
L 206.049264 303.541655 
L 208.883189 304.006989 
L 211.717115 303.363013 
L 214.551041 304.030421 
L 217.384967 304.097992 
L 220.218893 303.990053 
L 223.052819 303.334819 
L 228.72067 302.700619 
L 231.554596 300.51612 
L 234.388522 304.766198 
L 237.222448 303.309651 
L 240.056374 303.908503 
L 242.8903 304.003144 
L 245.724225 304.850942 
L 248.558151 304.279836 
L 251.392077 304.066305 
L 254.226003 304.691397 
L 257.059929 304.413609 
L 259.893855 304.668212 
L 262.727781 304.46915 
L 265.561706 305.037298 
L 268.395632 304.713949 
L 271.229558 304.808695 
L 274.063484 304.337485 
L 276.89741 305.426143 
L 279.731336 304.432933 
L 282.565262 304.636228 
L 285.399187 303.998141 
L 288.233113 305.113488 
L 291.067039 305.948968 
L 296.734891 305.540543 
L 299.568817 305.075792 
L 305.236668 305.165892 
L 308.070594 306.023128 
L 310.90452 306.544147 
L 313.738446 306.287822 
L 316.572372 305.692278 
L 319.406298 305.334084 
L 322.240223 306.349514 
L 325.074149 306.066949 
L 327.908075 305.558681 
L 330.742001 305.399907 
L 333.575927 305.37192 
L 336.409853 305.85803 
L 339.243779 306.038287 
L 342.077704 305.505009 
L 344.91163 305.756575 
L 347.745556 304.382101 
L 350.579482 306.076963 
L 353.413408 305.364292 
L 359.08126 305.588615 
L 364.749111 305.620303 
L 367.583037 305.315697 
L 370.416963 306.705082 
L 373.250889 306.230905 
L 376.084815 307.037255 
L 378.91874 307.140004 
L 381.752666 306.248045 
L 384.586592 306.513296 
L 387.420518 307.035593 
L 390.254444 306.381165 
L 393.08837 307.091734 
L 395.922296 306.207304 
L 398.756221 307.665936 
L 401.590147 306.22756 
L 404.424073 306.185122 
L 407.257999 307.061826 
L 410.091925 306.405007 
L 412.925851 306.320403 
L 415.759777 304.091322 
L 418.593702 305.18898 
L 421.427628 306.767366 
L 424.261554 307.099717 
L 427.09548 307.133293 
L 429.929406 305.262443 
L 432.763332 304.422509 
L 435.597257 306.822021 
L 438.431183 306.171267 
L 441.265109 306.506094 
L 444.099035 306.992234 
L 446.932961 306.784705 
L 449.766887 306.696378 
L 452.600813 305.793005 
L 455.434738 307.125715 
L 458.268664 307.8 
L 461.10259 306.510497 
L 463.936516 304.801449 
L 466.770442 306.47165 
L 469.604368 305.80184 
L 472.438294 305.006168 
L 475.272219 306.699359 
L 478.106145 306.179295 
L 480.940071 307.28327 
L 483.773997 306.79772 
L 486.607923 306.574615 
L 489.441849 306.628563 
L 492.275775 305.947358 
L 495.1097 306.327423 
L 497.943626 306.000118 
L 500.777552 306.688366 
L 503.611478 306.216874 
L 506.445404 306.445785 
L 509.27933 306.787141 
L 512.113255 306.220779 
L 514.947181 305.344771 
L 517.781107 307.389849 
L 520.615033 306.908288 
L 523.448959 306.233411 
L 526.282885 306.611957 
L 529.116811 307.128216 
L 531.950736 307.238161 
L 534.784662 306.692305 
L 537.618588 306.465021 
L 540.452514 307.484051 
L 543.28644 306.51261 
L 546.120366 306.179863 
L 548.954292 307.005156 
L 551.788217 305.578035 
L 554.622143 305.674397 
L 557.456069 305.629717 
L 563.123921 306.542944 
L 565.957847 305.010431 
L 568.791772 306.656923 
L 574.459624 306.475424 
L 577.29355 305.60875 
L 580.127476 305.713599 
L 582.961402 306.306893 
L 585.795328 306.728884 
L 588.629253 305.887474 
L 591.463179 305.986702 
L 594.297105 306.748793 
L 597.131031 306.754485 
L 599.964957 306.287577 
L 602.798883 306.556018 
L 605.632809 305.83657 
L 608.466734 306.301703 
L 611.30066 306.29581 
L 614.134586 306.125807 
L 616.968512 305.121477 
L 619.802438 306.337843 
L 622.636364 306.298063 
L 622.636364 306.298063 
" clip-path="url(#pf872521482)" style="fill: none; stroke: #ff7f0e; stroke-width: 1.5; stroke-linecap: square"/>
   </g>
   <g id="line2d_14">
    <path d="M 115.363636 151.545445 
L 118.197562 193.343325 
L 121.031488 204.930402 
L 123.865414 212.500738 
L 126.69934 213.460308 
L 129.533266 220.888985 
L 132.367191 223.562809 
L 135.201117 219.66934 
L 138.035043 225.354109 
L 140.868969 224.761545 
L 143.702895 236.477176 
L 146.536821 234.303739 
L 149.370747 235.359659 
L 152.204672 240.914042 
L 155.038598 227.320171 
L 157.872524 235.430303 
L 160.70645 238.637472 
L 163.540376 239.826922 
L 166.374302 234.971456 
L 169.208228 239.144113 
L 172.042153 229.978423 
L 174.876079 226.35752 
L 177.710005 228.872347 
L 180.543931 235.504223 
L 183.377857 235.340584 
L 186.211783 231.358222 
L 189.045708 233.436307 
L 191.879634 241.108382 
L 194.71356 239.540955 
L 197.547486 236.582047 
L 200.381412 235.655028 
L 203.215338 239.630427 
L 206.049264 238.938388 
L 208.883189 237.997637 
L 211.717115 236.219465 
L 214.551041 235.769813 
L 217.384967 240.538086 
L 220.218893 238.331681 
L 223.052819 242.642646 
L 225.886745 243.875957 
L 228.72067 243.266892 
L 231.554596 234.312978 
L 234.388522 243.533484 
L 237.222448 243.580759 
L 240.056374 243.015368 
L 242.8903 235.846119 
L 245.724225 239.907 
L 248.558151 236.128085 
L 251.392077 238.153667 
L 254.226003 242.922518 
L 257.059929 238.594998 
L 259.893855 234.633911 
L 262.727781 236.819395 
L 265.561706 242.035066 
L 268.395632 243.064549 
L 271.229558 243.340725 
L 274.063484 234.505809 
L 276.89741 234.917065 
L 279.731336 234.480481 
L 282.565262 233.586836 
L 285.399187 240.149073 
L 288.233113 240.548201 
L 291.067039 245.139637 
L 293.900965 244.56716 
L 296.734891 249.479067 
L 299.568817 242.233752 
L 302.402743 239.553015 
L 305.236668 236.621587 
L 308.070594 241.261366 
L 310.90452 240.704277 
L 313.738446 238.723506 
L 316.572372 233.671173 
L 319.406298 237.41934 
L 322.240223 243.233029 
L 325.074149 240.364564 
L 327.908075 240.529075 
L 330.742001 241.804862 
L 333.575927 240.144193 
L 336.409853 240.837393 
L 339.243779 245.952381 
L 342.077704 244.645061 
L 344.91163 245.510288 
L 347.745556 243.088802 
L 350.579482 245.879483 
L 353.413408 242.94196 
L 356.247334 244.952849 
L 359.08126 245.0193 
L 361.915185 247.403278 
L 364.749111 244.775653 
L 367.583037 245.268913 
L 370.416963 244.67336 
L 373.250889 248.478625 
L 376.084815 249.611344 
L 378.91874 248.373487 
L 381.752666 250.621056 
L 384.586592 247.436037 
L 387.420518 246.962116 
L 390.254444 245.352195 
L 393.08837 246.691254 
L 395.922296 247.097221 
L 398.756221 247.385555 
L 401.590147 248.386541 
L 404.424073 249.119471 
L 407.257999 249.583522 
L 410.091925 252.206953 
L 412.925851 253.784962 
L 415.759777 250.376167 
L 418.593702 249.665733 
L 421.427628 253.402596 
L 424.261554 253.182911 
L 427.09548 252.46189 
L 429.929406 252.625544 
L 432.763332 253.2384 
L 435.597257 255.548784 
L 438.431183 257.202877 
L 441.265109 256.67442 
L 444.099035 256.277383 
L 446.932961 256.186797 
L 449.766887 254.722486 
L 452.600813 256.231556 
L 455.434738 254.325127 
L 458.268664 256.374217 
L 461.10259 256.347063 
L 463.936516 253.504768 
L 466.770442 253.604667 
L 469.604368 255.748284 
L 472.438294 258.419378 
L 475.272219 255.699504 
L 478.106145 252.718494 
L 480.940071 256.176459 
L 483.773997 257.687429 
L 486.607923 257.159354 
L 489.441849 257.441498 
L 492.275775 257.398492 
L 495.1097 258.480143 
L 497.943626 259.000159 
L 500.777552 256.442179 
L 503.611478 256.782467 
L 506.445404 254.55884 
L 509.27933 256.449522 
L 512.113255 258.896433 
L 514.947181 257.064751 
L 517.781107 254.210413 
L 520.615033 259.191204 
L 523.448959 260.772669 
L 526.282885 259.668529 
L 529.116811 257.868001 
L 531.950736 258.163105 
L 534.784662 257.709291 
L 537.618588 258.178741 
L 543.28644 257.339814 
L 546.120366 260.238539 
L 548.954292 259.602691 
L 551.788217 258.103616 
L 554.622143 257.821027 
L 557.456069 254.894966 
L 560.289995 253.936676 
L 563.123921 254.711874 
L 565.957847 253.332066 
L 568.791772 255.156883 
L 571.625698 254.28627 
L 574.459624 256.466484 
L 577.29355 255.085103 
L 580.127476 255.627638 
L 585.795328 255.020154 
L 588.629253 254.670444 
L 591.463179 254.829597 
L 594.297105 257.505913 
L 597.131031 257.415124 
L 599.964957 256.848738 
L 602.798883 258.856066 
L 605.632809 259.053552 
L 608.466734 259.899169 
L 611.30066 263.354353 
L 614.134586 264.421093 
L 619.802438 264.88467 
L 622.636364 263.351054 
L 622.636364 263.351054 
" clip-path="url(#pf872521482)" style="fill: none; stroke: #2ca02c; stroke-width: 1.5; stroke-linecap: square"/>
   </g>
   <g id="patch_3">
    <path d="M 90 320.4 
L 90 43.2 
" style="fill: none; stroke: #000000; stroke-width: 0.8; stroke-linejoin: miter; stroke-linecap: square"/>
   </g>
   <g id="patch_4">
    <path d="M 648 320.4 
L 648 43.2 
" style="fill: none; stroke: #000000; stroke-width: 0.8; stroke-linejoin: miter; stroke-linecap: square"/>
   </g>
   <g id="patch_5">
    <path d="M 90 320.4 
L 648 320.4 
" style="fill: none; stroke: #000000; stroke-width: 0.8; stroke-linejoin: miter; stroke-linecap: square"/>
   </g>
   <g id="patch_6">
    <path d="M 90 43.2 
L 648 43.2 
" style="fill: none; stroke: #000000; stroke-width: 0.8; stroke-linejoin: miter; stroke-linecap: square"/>
   </g>
   <g id="text_14">
    <!-- Estimation Losses -->
    <g transform="translate(315.165 37.2) scale(0.12 -0.12)">
     <defs>
      <path id="DejaVuSans-74" d="M 1172 4494 
L 1172 3500 
L 2356 3500 
L 2356 3053 
L 1172 3053 
L 1172 1153 
Q 1172 725 1289 603 
Q 1406 481 1766 481 
L 2356 481 
L 2356 0 
L 1766 0 
Q 1100 0 847 248 
Q 594 497 594 1153 
L 594 3053 
L 172 3053 
L 172 3500 
L 594 3500 
L 594 4494 
L 1172 4494 
z
" transform="scale(0.015625)"/>
      <path id="DejaVuSans-69" d="M 603 3500 
L 1178 3500 
L 1178 0 
L 603 0 
L 603 3500 
z
M 603 4863 
L 1178 4863 
L 1178 4134 
L 603 4134 
L 603 4863 
z
" transform="scale(0.015625)"/>
      <path id="DejaVuSans-6d" d="M 3328 2828 
Q 3544 3216 3844 3400 
Q 4144 3584 4550 3584 
Q 5097 3584 5394 3201 
Q 5691 2819 5691 2113 
L 5691 0 
L 5113 0 
L 5113 2094 
Q 5113 2597 4934 2840 
Q 4756 3084 4391 3084 
Q 3944 3084 3684 2787 
Q 3425 2491 3425 1978 
L 3425 0 
L 2847 0 
L 2847 2094 
Q 2847 2600 2669 2842 
Q 2491 3084 2119 3084 
Q 1678 3084 1418 2786 
Q 1159 2488 1159 1978 
L 1159 0 
L 581 0 
L 581 3500 
L 1159 3500 
L 1159 2956 
Q 1356 3278 1631 3431 
Q 1906 3584 2284 3584 
Q 2666 3584 2933 3390 
Q 3200 3197 3328 2828 
z
" transform="scale(0.015625)"/>
      <path id="DejaVuSans-61" d="M 2194 1759 
Q 1497 1759 1228 1600 
Q 959 1441 959 1056 
Q 959 750 1161 570 
Q 1363 391 1709 391 
Q 2188 391 2477 730 
Q 2766 1069 2766 1631 
L 2766 1759 
L 2194 1759 
z
M 3341 1997 
L 3341 0 
L 2766 0 
L 2766 531 
Q 2569 213 2275 61 
Q 1981 -91 1556 -91 
Q 1019 -91 701 211 
Q 384 513 384 1019 
Q 384 1609 779 1909 
Q 1175 2209 1959 2209 
L 2766 2209 
L 2766 2266 
Q 2766 2663 2505 2880 
Q 2244 3097 1772 3097 
Q 1472 3097 1187 3025 
Q 903 2953 641 2809 
L 641 3341 
Q 956 3463 1253 3523 
Q 1550 3584 1831 3584 
Q 2591 3584 2966 3190 
Q 3341 2797 3341 1997 
z
" transform="scale(0.015625)"/>
      <path id="DejaVuSans-6e" d="M 3513 2113 
L 3513 0 
L 2938 0 
L 2938 2094 
Q 2938 2591 2744 2837 
Q 2550 3084 2163 3084 
Q 1697 3084 1428 2787 
Q 1159 2491 1159 1978 
L 1159 0 
L 581 0 
L 581 3500 
L 1159 3500 
L 1159 2956 
Q 1366 3272 1645 3428 
Q 1925 3584 2291 3584 
Q 2894 3584 3203 3211 
Q 3513 2838 3513 2113 
z
" transform="scale(0.015625)"/>
      <path id="DejaVuSans-20" transform="scale(0.015625)"/>
      <path id="DejaVuSans-65" d="M 3597 1894 
L 3597 1613 
L 953 1613 
Q 991 1019 1311 708 
Q 1631 397 2203 397 
Q 2534 397 2845 478 
Q 3156 559 3463 722 
L 3463 178 
Q 3153 47 2828 -22 
Q 2503 -91 2169 -91 
Q 1331 -91 842 396 
Q 353 884 353 1716 
Q 353 2575 817 3079 
Q 1281 3584 2069 3584 
Q 2775 3584 3186 3129 
Q 3597 2675 3597 1894 
z
M 3022 2063 
Q 3016 2534 2758 2815 
Q 2500 3097 2075 3097 
Q 1594 3097 1305 2825 
Q 1016 2553 972 2059 
L 3022 2063 
z
" transform="scale(0.015625)"/>
     </defs>
     <use xlink:href="#DejaVuSans-45"/>
     <use xlink:href="#DejaVuSans-73" transform="translate(63.183594 0)"/>
     <use xlink:href="#DejaVuSans-74" transform="translate(115.283203 0)"/>
     <use xlink:href="#DejaVuSans-69" transform="translate(154.492188 0)"/>
     <use xlink:href="#DejaVuSans-6d" transform="translate(182.275391 0)"/>
     <use xlink:href="#DejaVuSans-61" transform="translate(279.6875 0)"/>
     <use xlink:href="#DejaVuSans-74" transform="translate(340.966797 0)"/>
     <use xlink:href="#DejaVuSans-69" transform="translate(380.175781 0)"/>
     <use xlink:href="#DejaVuSans-6f" transform="translate(407.958984 0)"/>
     <use xlink:href="#DejaVuSans-6e" transform="translate(469.140625 0)"/>
     <use xlink:href="#DejaVuSans-20" transform="translate(532.519531 0)"/>
     <use xlink:href="#DejaVuSans-4c" transform="translate(564.306641 0)"/>
     <use xlink:href="#DejaVuSans-6f" transform="translate(618.269531 0)"/>
     <use xlink:href="#DejaVuSans-73" transform="translate(679.451172 0)"/>
     <use xlink:href="#DejaVuSans-73" transform="translate(731.550781 0)"/>
     <use xlink:href="#DejaVuSans-65" transform="translate(783.650391 0)"/>
     <use xlink:href="#DejaVuSans-73" transform="translate(845.173828 0)"/>
    </g>
   </g>
   <g id="legend_1">
    <g id="patch_7">
     <path d="M 515.59375 95.234375 
L 641 95.234375 
Q 643 95.234375 643 93.234375 
L 643 50.2 
Q 643 48.2 641 48.2 
L 515.59375 48.2 
Q 513.59375 48.2 513.59375 50.2 
L 513.59375 93.234375 
Q 513.59375 95.234375 515.59375 95.234375 
z
" style="fill: #ffffff; opacity: 0.8; stroke: #cccccc; stroke-linejoin: miter"/>
    </g>
    <g id="line2d_15">
     <path d="M 517.59375 56.298437 
L 527.59375 56.298437 
L 537.59375 56.298437 
" style="fill: none; stroke: #1f77b4; stroke-width: 1.5; stroke-linecap: square"/>
    </g>
    <g id="text_15">
     <!-- Train Loss - Source -->
     <g transform="translate(545.59375 59.798437) scale(0.1 -0.1)">
      <defs>
       <path id="DejaVuSans-54" d="M -19 4666 
L 3928 4666 
L 3928 4134 
L 2272 4134 
L 2272 0 
L 1638 0 
L 1638 4134 
L -19 4134 
L -19 4666 
z
" transform="scale(0.015625)"/>
       <path id="DejaVuSans-72" d="M 2631 2963 
Q 2534 3019 2420 3045 
Q 2306 3072 2169 3072 
Q 1681 3072 1420 2755 
Q 1159 2438 1159 1844 
L 1159 0 
L 581 0 
L 581 3500 
L 1159 3500 
L 1159 2956 
Q 1341 3275 1631 3429 
Q 1922 3584 2338 3584 
Q 2397 3584 2469 3576 
Q 2541 3569 2628 3553 
L 2631 2963 
z
" transform="scale(0.015625)"/>
       <path id="DejaVuSans-2d" d="M 313 2009 
L 1997 2009 
L 1997 1497 
L 313 1497 
L 313 2009 
z
" transform="scale(0.015625)"/>
       <path id="DejaVuSans-53" d="M 3425 4513 
L 3425 3897 
Q 3066 4069 2747 4153 
Q 2428 4238 2131 4238 
Q 1616 4238 1336 4038 
Q 1056 3838 1056 3469 
Q 1056 3159 1242 3001 
Q 1428 2844 1947 2747 
L 2328 2669 
Q 3034 2534 3370 2195 
Q 3706 1856 3706 1288 
Q 3706 609 3251 259 
Q 2797 -91 1919 -91 
Q 1588 -91 1214 -16 
Q 841 59 441 206 
L 441 856 
Q 825 641 1194 531 
Q 1563 422 1919 422 
Q 2459 422 2753 634 
Q 3047 847 3047 1241 
Q 3047 1584 2836 1778 
Q 2625 1972 2144 2069 
L 1759 2144 
Q 1053 2284 737 2584 
Q 422 2884 422 3419 
Q 422 4038 858 4394 
Q 1294 4750 2059 4750 
Q 2388 4750 2728 4690 
Q 3069 4631 3425 4513 
z
" transform="scale(0.015625)"/>
       <path id="DejaVuSans-75" d="M 544 1381 
L 544 3500 
L 1119 3500 
L 1119 1403 
Q 1119 906 1312 657 
Q 1506 409 1894 409 
Q 2359 409 2629 706 
Q 2900 1003 2900 1516 
L 2900 3500 
L 3475 3500 
L 3475 0 
L 2900 0 
L 2900 538 
Q 2691 219 2414 64 
Q 2138 -91 1772 -91 
Q 1169 -91 856 284 
Q 544 659 544 1381 
z
M 1991 3584 
L 1991 3584 
z
" transform="scale(0.015625)"/>
      </defs>
      <use xlink:href="#DejaVuSans-54"/>
      <use xlink:href="#DejaVuSans-72" transform="translate(46.333984 0)"/>
      <use xlink:href="#DejaVuSans-61" transform="translate(87.447266 0)"/>
      <use xlink:href="#DejaVuSans-69" transform="translate(148.726562 0)"/>
      <use xlink:href="#DejaVuSans-6e" transform="translate(176.509766 0)"/>
      <use xlink:href="#DejaVuSans-20" transform="translate(239.888672 0)"/>
      <use xlink:href="#DejaVuSans-4c" transform="translate(271.675781 0)"/>
      <use xlink:href="#DejaVuSans-6f" transform="translate(325.638672 0)"/>
      <use xlink:href="#DejaVuSans-73" transform="translate(386.820312 0)"/>
      <use xlink:href="#DejaVuSans-73" transform="translate(438.919922 0)"/>
      <use xlink:href="#DejaVuSans-20" transform="translate(491.019531 0)"/>
      <use xlink:href="#DejaVuSans-2d" transform="translate(522.806641 0)"/>
      <use xlink:href="#DejaVuSans-20" transform="translate(558.890625 0)"/>
      <use xlink:href="#DejaVuSans-53" transform="translate(590.677734 0)"/>
      <use xlink:href="#DejaVuSans-6f" transform="translate(654.154297 0)"/>
      <use xlink:href="#DejaVuSans-75" transform="translate(715.335938 0)"/>
      <use xlink:href="#DejaVuSans-72" transform="translate(778.714844 0)"/>
      <use xlink:href="#DejaVuSans-63" transform="translate(817.578125 0)"/>
      <use xlink:href="#DejaVuSans-65" transform="translate(872.558594 0)"/>
     </g>
    </g>
    <g id="line2d_16">
     <path d="M 517.59375 70.976562 
L 527.59375 70.976562 
L 537.59375 70.976562 
" style="fill: none; stroke: #ff7f0e; stroke-width: 1.5; stroke-linecap: square"/>
    </g>
    <g id="text_16">
     <!-- Val Loss - Source -->
     <g transform="translate(545.59375 74.476562) scale(0.1 -0.1)">
      <defs>
       <path id="DejaVuSans-56" d="M 1831 0 
L 50 4666 
L 709 4666 
L 2188 738 
L 3669 4666 
L 4325 4666 
L 2547 0 
L 1831 0 
z
" transform="scale(0.015625)"/>
       <path id="DejaVuSans-6c" d="M 603 4863 
L 1178 4863 
L 1178 0 
L 603 0 
L 603 4863 
z
" transform="scale(0.015625)"/>
      </defs>
      <use xlink:href="#DejaVuSans-56"/>
      <use xlink:href="#DejaVuSans-61" transform="translate(60.658203 0)"/>
      <use xlink:href="#DejaVuSans-6c" transform="translate(121.9375 0)"/>
      <use xlink:href="#DejaVuSans-20" transform="translate(149.720703 0)"/>
      <use xlink:href="#DejaVuSans-4c" transform="translate(181.507812 0)"/>
      <use xlink:href="#DejaVuSans-6f" transform="translate(235.470703 0)"/>
      <use xlink:href="#DejaVuSans-73" transform="translate(296.652344 0)"/>
      <use xlink:href="#DejaVuSans-73" transform="translate(348.751953 0)"/>
      <use xlink:href="#DejaVuSans-20" transform="translate(400.851562 0)"/>
      <use xlink:href="#DejaVuSans-2d" transform="translate(432.638672 0)"/>
      <use xlink:href="#DejaVuSans-20" transform="translate(468.722656 0)"/>
      <use xlink:href="#DejaVuSans-53" transform="translate(500.509766 0)"/>
      <use xlink:href="#DejaVuSans-6f" transform="translate(563.986328 0)"/>
      <use xlink:href="#DejaVuSans-75" transform="translate(625.167969 0)"/>
      <use xlink:href="#DejaVuSans-72" transform="translate(688.546875 0)"/>
      <use xlink:href="#DejaVuSans-63" transform="translate(727.410156 0)"/>
      <use xlink:href="#DejaVuSans-65" transform="translate(782.390625 0)"/>
     </g>
    </g>
    <g id="line2d_17">
     <path d="M 517.59375 85.654687 
L 527.59375 85.654687 
L 537.59375 85.654687 
" style="fill: none; stroke: #2ca02c; stroke-width: 1.5; stroke-linecap: square"/>
    </g>
    <g id="text_17">
     <!-- Val Loss - Target -->
     <g transform="translate(545.59375 89.154687) scale(0.1 -0.1)">
      <defs>
       <path id="DejaVuSans-67" d="M 2906 1791 
Q 2906 2416 2648 2759 
Q 2391 3103 1925 3103 
Q 1463 3103 1205 2759 
Q 947 2416 947 1791 
Q 947 1169 1205 825 
Q 1463 481 1925 481 
Q 2391 481 2648 825 
Q 2906 1169 2906 1791 
z
M 3481 434 
Q 3481 -459 3084 -895 
Q 2688 -1331 1869 -1331 
Q 1566 -1331 1297 -1286 
Q 1028 -1241 775 -1147 
L 775 -588 
Q 1028 -725 1275 -790 
Q 1522 -856 1778 -856 
Q 2344 -856 2625 -561 
Q 2906 -266 2906 331 
L 2906 616 
Q 2728 306 2450 153 
Q 2172 0 1784 0 
Q 1141 0 747 490 
Q 353 981 353 1791 
Q 353 2603 747 3093 
Q 1141 3584 1784 3584 
Q 2172 3584 2450 3431 
Q 2728 3278 2906 2969 
L 2906 3500 
L 3481 3500 
L 3481 434 
z
" transform="scale(0.015625)"/>
      </defs>
      <use xlink:href="#DejaVuSans-56"/>
      <use xlink:href="#DejaVuSans-61" transform="translate(60.658203 0)"/>
      <use xlink:href="#DejaVuSans-6c" transform="translate(121.9375 0)"/>
      <use xlink:href="#DejaVuSans-20" transform="translate(149.720703 0)"/>
      <use xlink:href="#DejaVuSans-4c" transform="translate(181.507812 0)"/>
      <use xlink:href="#DejaVuSans-6f" transform="translate(235.470703 0)"/>
      <use xlink:href="#DejaVuSans-73" transform="translate(296.652344 0)"/>
      <use xlink:href="#DejaVuSans-73" transform="translate(348.751953 0)"/>
      <use xlink:href="#DejaVuSans-20" transform="translate(400.851562 0)"/>
      <use xlink:href="#DejaVuSans-2d" transform="translate(432.638672 0)"/>
      <use xlink:href="#DejaVuSans-20" transform="translate(468.722656 0)"/>
      <use xlink:href="#DejaVuSans-54" transform="translate(500.509766 0)"/>
      <use xlink:href="#DejaVuSans-61" transform="translate(545.09375 0)"/>
      <use xlink:href="#DejaVuSans-72" transform="translate(606.373047 0)"/>
      <use xlink:href="#DejaVuSans-67" transform="translate(645.736328 0)"/>
      <use xlink:href="#DejaVuSans-65" transform="translate(709.212891 0)"/>
      <use xlink:href="#DejaVuSans-74" transform="translate(770.736328 0)"/>
     </g>
    </g>
   </g>
  </g>
 </g>
 <defs>
  <clipPath id="pf872521482">
   <rect x="90" y="43.2" width="558" height="277.2"/>
  </clipPath>
 </defs>
</svg>
