<?xml version="1.0" encoding="utf-8" standalone="no"?>
<!DOCTYPE svg PUBLIC "-//W3C//DTD SVG 1.1//EN"
  "http://www.w3.org/Graphics/SVG/1.1/DTD/svg11.dtd">
<svg xmlns:xlink="http://www.w3.org/1999/xlink" width="720pt" height="360pt" viewBox="0 0 720 360" xmlns="http://www.w3.org/2000/svg" version="1.1">
 <metadata>
  <rdf:RDF xmlns:dc="http://purl.org/dc/elements/1.1/" xmlns:cc="http://creativecommons.org/ns#" xmlns:rdf="http://www.w3.org/1999/02/22-rdf-syntax-ns#">
   <cc:Work>
    <dc:type rdf:resource="http://purl.org/dc/dcmitype/StillImage"/>
    <dc:date>2025-11-15T00:20:57.164053</dc:date>
    <dc:format>image/svg+xml</dc:format>
    <dc:creator>
     <cc:Agent>
      <dc:title>Matplotlib v3.10.1, https://matplotlib.org/</dc:title>
     </cc:Agent>
    </dc:creator>
   </cc:Work>
  </rdf:RDF>
 </metadata>
 <defs>
  <style type="text/css">*{stroke-linejoin: round; stroke-linecap: butt}</style>
 </defs>
 <g id="figure_1">
  <g id="patch_1">
   <path d="M 0 360 
L 720 360 
L 720 0 
L 0 0 
z
" style="fill: #ffffff"/>
  </g>
  <g id="axes_1">
   <g id="patch_2">
    <path d="M 90 320.4 
L 648 320.4 
L 648 43.2 
L 90 43.2 
z
" style="fill: #ffffff"/>
   </g>
   <g id="matplotlib.axis_1">
    <g id="xtick_1">
     <g id="line2d_1">
      <defs>
       <path id="m2d49156724" d="M 0 0 
L 0 3.5 
" style="stroke: #000000; stroke-width: 0.8"/>
      </defs>
      <g>
       <use xlink:href="#m2d49156724" x="115.363636" y="320.4" style="stroke: #000000; stroke-width: 0.8"/>
      </g>
     </g>
     <g id="text_1">
      <!-- 0 -->
      <g transform="translate(112.182386 334.998438) scale(0.1 -0.1)">
       <defs>
        <path id="DejaVuSans-30" d="M 2034 4250 
Q 1547 4250 1301 3770 
Q 1056 3291 1056 2328 
Q 1056 1369 1301 889 
Q 1547 409 2034 409 
Q 2525 409 2770 889 
Q 3016 1369 3016 2328 
Q 3016 3291 2770 3770 
Q 2525 4250 2034 4250 
z
M 2034 4750 
Q 2819 4750 3233 4129 
Q 3647 3509 3647 2328 
Q 3647 1150 3233 529 
Q 2819 -91 2034 -91 
Q 1250 -91 836 529 
Q 422 1150 422 2328 
Q 422 3509 836 4129 
Q 1250 4750 2034 4750 
z
" transform="scale(0.015625)"/>
       </defs>
       <use xlink:href="#DejaVuSans-30"/>
      </g>
     </g>
    </g>
    <g id="xtick_2">
     <g id="line2d_2">
      <g>
       <use xlink:href="#m2d49156724" x="217.157495" y="320.4" style="stroke: #000000; stroke-width: 0.8"/>
      </g>
     </g>
     <g id="text_2">
      <!-- 60 -->
      <g transform="translate(210.794995 334.998438) scale(0.1 -0.1)">
       <defs>
        <path id="DejaVuSans-36" d="M 2113 2584 
Q 1688 2584 1439 2293 
Q 1191 2003 1191 1497 
Q 1191 994 1439 701 
Q 1688 409 2113 409 
Q 2538 409 2786 701 
Q 3034 994 3034 1497 
Q 3034 2003 2786 2293 
Q 2538 2584 2113 2584 
z
M 3366 4563 
L 3366 3988 
Q 3128 4100 2886 4159 
Q 2644 4219 2406 4219 
Q 1781 4219 1451 3797 
Q 1122 3375 1075 2522 
Q 1259 2794 1537 2939 
Q 1816 3084 2150 3084 
Q 2853 3084 3261 2657 
Q 3669 2231 3669 1497 
Q 3669 778 3244 343 
Q 2819 -91 2113 -91 
Q 1303 -91 875 529 
Q 447 1150 447 2328 
Q 447 3434 972 4092 
Q 1497 4750 2381 4750 
Q 2619 4750 2861 4703 
Q 3103 4656 3366 4563 
z
" transform="scale(0.015625)"/>
       </defs>
       <use xlink:href="#DejaVuSans-36"/>
       <use xlink:href="#DejaVuSans-30" transform="translate(63.623047 0)"/>
      </g>
     </g>
    </g>
    <g id="xtick_3">
     <g id="line2d_3">
      <g>
       <use xlink:href="#m2d49156724" x="318.951353" y="320.4" style="stroke: #000000; stroke-width: 0.8"/>
      </g>
     </g>
     <g id="text_3">
      <!-- 120 -->
      <g transform="translate(309.407603 334.998438) scale(0.1 -0.1)">
       <defs>
        <path id="DejaVuSans-31" d="M 794 531 
L 1825 531 
L 1825 4091 
L 703 3866 
L 703 4441 
L 1819 4666 
L 2450 4666 
L 2450 531 
L 3481 531 
L 3481 0 
L 794 0 
L 794 531 
z
" transform="scale(0.015625)"/>
        <path id="DejaVuSans-32" d="M 1228 531 
L 3431 531 
L 3431 0 
L 469 0 
L 469 531 
Q 828 903 1448 1529 
Q 2069 2156 2228 2338 
Q 2531 2678 2651 2914 
Q 2772 3150 2772 3378 
Q 2772 3750 2511 3984 
Q 2250 4219 1831 4219 
Q 1534 4219 1204 4116 
Q 875 4013 500 3803 
L 500 4441 
Q 881 4594 1212 4672 
Q 1544 4750 1819 4750 
Q 2544 4750 2975 4387 
Q 3406 4025 3406 3419 
Q 3406 3131 3298 2873 
Q 3191 2616 2906 2266 
Q 2828 2175 2409 1742 
Q 1991 1309 1228 531 
z
" transform="scale(0.015625)"/>
       </defs>
       <use xlink:href="#DejaVuSans-31"/>
       <use xlink:href="#DejaVuSans-32" transform="translate(63.623047 0)"/>
       <use xlink:href="#DejaVuSans-30" transform="translate(127.246094 0)"/>
      </g>
     </g>
    </g>
    <g id="xtick_4">
     <g id="line2d_4">
      <g>
       <use xlink:href="#m2d49156724" x="420.745211" y="320.4" style="stroke: #000000; stroke-width: 0.8"/>
      </g>
     </g>
     <g id="text_4">
      <!-- 180 -->
      <g transform="translate(411.201461 334.998438) scale(0.1 -0.1)">
       <defs>
        <path id="DejaVuSans-38" d="M 2034 2216 
Q 1584 2216 1326 1975 
Q 1069 1734 1069 1313 
Q 1069 891 1326 650 
Q 1584 409 2034 409 
Q 2484 409 2743 651 
Q 3003 894 3003 1313 
Q 3003 1734 2745 1975 
Q 2488 2216 2034 2216 
z
M 1403 2484 
Q 997 2584 770 2862 
Q 544 3141 544 3541 
Q 544 4100 942 4425 
Q 1341 4750 2034 4750 
Q 2731 4750 3128 4425 
Q 3525 4100 3525 3541 
Q 3525 3141 3298 2862 
Q 3072 2584 2669 2484 
Q 3125 2378 3379 2068 
Q 3634 1759 3634 1313 
Q 3634 634 3220 271 
Q 2806 -91 2034 -91 
Q 1263 -91 848 271 
Q 434 634 434 1313 
Q 434 1759 690 2068 
Q 947 2378 1403 2484 
z
M 1172 3481 
Q 1172 3119 1398 2916 
Q 1625 2713 2034 2713 
Q 2441 2713 2670 2916 
Q 2900 3119 2900 3481 
Q 2900 3844 2670 4047 
Q 2441 4250 2034 4250 
Q 1625 4250 1398 4047 
Q 1172 3844 1172 3481 
z
" transform="scale(0.015625)"/>
       </defs>
       <use xlink:href="#DejaVuSans-31"/>
       <use xlink:href="#DejaVuSans-38" transform="translate(63.623047 0)"/>
       <use xlink:href="#DejaVuSans-30" transform="translate(127.246094 0)"/>
      </g>
     </g>
    </g>
    <g id="xtick_5">
     <g id="line2d_5">
      <g>
       <use xlink:href="#m2d49156724" x="522.53907" y="320.4" style="stroke: #000000; stroke-width: 0.8"/>
      </g>
     </g>
     <g id="text_5">
      <!-- 240 -->
      <g transform="translate(512.99532 334.998438) scale(0.1 -0.1)">
       <defs>
        <path id="DejaVuSans-34" d="M 2419 4116 
L 825 1625 
L 2419 1625 
L 2419 4116 
z
M 2253 4666 
L 3047 4666 
L 3047 1625 
L 3713 1625 
L 3713 1100 
L 3047 1100 
L 3047 0 
L 2419 0 
L 2419 1100 
L 313 1100 
L 313 1709 
L 2253 4666 
z
" transform="scale(0.015625)"/>
       </defs>
       <use xlink:href="#DejaVuSans-32"/>
       <use xlink:href="#DejaVuSans-34" transform="translate(63.623047 0)"/>
       <use xlink:href="#DejaVuSans-30" transform="translate(127.246094 0)"/>
      </g>
     </g>
    </g>
    <g id="text_6">
     <!-- Epoch -->
     <g transform="translate(353.689062 348.676562) scale(0.1 -0.1)">
      <defs>
       <path id="DejaVuSans-45" d="M 628 4666 
L 3578 4666 
L 3578 4134 
L 1259 4134 
L 1259 2753 
L 3481 2753 
L 3481 2222 
L 1259 2222 
L 1259 531 
L 3634 531 
L 3634 0 
L 628 0 
L 628 4666 
z
" transform="scale(0.015625)"/>
       <path id="DejaVuSans-70" d="M 1159 525 
L 1159 -1331 
L 581 -1331 
L 581 3500 
L 1159 3500 
L 1159 2969 
Q 1341 3281 1617 3432 
Q 1894 3584 2278 3584 
Q 2916 3584 3314 3078 
Q 3713 2572 3713 1747 
Q 3713 922 3314 415 
Q 2916 -91 2278 -91 
Q 1894 -91 1617 61 
Q 1341 213 1159 525 
z
M 3116 1747 
Q 3116 2381 2855 2742 
Q 2594 3103 2138 3103 
Q 1681 3103 1420 2742 
Q 1159 2381 1159 1747 
Q 1159 1113 1420 752 
Q 1681 391 2138 391 
Q 2594 391 2855 752 
Q 3116 1113 3116 1747 
z
" transform="scale(0.015625)"/>
       <path id="DejaVuSans-6f" d="M 1959 3097 
Q 1497 3097 1228 2736 
Q 959 2375 959 1747 
Q 959 1119 1226 758 
Q 1494 397 1959 397 
Q 2419 397 2687 759 
Q 2956 1122 2956 1747 
Q 2956 2369 2687 2733 
Q 2419 3097 1959 3097 
z
M 1959 3584 
Q 2709 3584 3137 3096 
Q 3566 2609 3566 1747 
Q 3566 888 3137 398 
Q 2709 -91 1959 -91 
Q 1206 -91 779 398 
Q 353 888 353 1747 
Q 353 2609 779 3096 
Q 1206 3584 1959 3584 
z
" transform="scale(0.015625)"/>
       <path id="DejaVuSans-63" d="M 3122 3366 
L 3122 2828 
Q 2878 2963 2633 3030 
Q 2388 3097 2138 3097 
Q 1578 3097 1268 2742 
Q 959 2388 959 1747 
Q 959 1106 1268 751 
Q 1578 397 2138 397 
Q 2388 397 2633 464 
Q 2878 531 3122 666 
L 3122 134 
Q 2881 22 2623 -34 
Q 2366 -91 2075 -91 
Q 1284 -91 818 406 
Q 353 903 353 1747 
Q 353 2603 823 3093 
Q 1294 3584 2113 3584 
Q 2378 3584 2631 3529 
Q 2884 3475 3122 3366 
z
" transform="scale(0.015625)"/>
       <path id="DejaVuSans-68" d="M 3513 2113 
L 3513 0 
L 2938 0 
L 2938 2094 
Q 2938 2591 2744 2837 
Q 2550 3084 2163 3084 
Q 1697 3084 1428 2787 
Q 1159 2491 1159 1978 
L 1159 0 
L 581 0 
L 581 4863 
L 1159 4863 
L 1159 2956 
Q 1366 3272 1645 3428 
Q 1925 3584 2291 3584 
Q 2894 3584 3203 3211 
Q 3513 2838 3513 2113 
z
" transform="scale(0.015625)"/>
      </defs>
      <use xlink:href="#DejaVuSans-45"/>
      <use xlink:href="#DejaVuSans-70" transform="translate(63.183594 0)"/>
      <use xlink:href="#DejaVuSans-6f" transform="translate(126.660156 0)"/>
      <use xlink:href="#DejaVuSans-63" transform="translate(187.841797 0)"/>
      <use xlink:href="#DejaVuSans-68" transform="translate(242.822266 0)"/>
     </g>
    </g>
   </g>
   <g id="matplotlib.axis_2">
    <g id="ytick_1">
     <g id="line2d_6">
      <defs>
       <path id="m176d49c086" d="M 0 0 
L -3.5 0 
" style="stroke: #000000; stroke-width: 0.8"/>
      </defs>
      <g>
       <use xlink:href="#m176d49c086" x="90" y="313.059826" style="stroke: #000000; stroke-width: 0.8"/>
      </g>
     </g>
     <g id="text_7">
      <!-- 0.05 -->
      <g transform="translate(60.734375 316.859045) scale(0.1 -0.1)">
       <defs>
        <path id="DejaVuSans-2e" d="M 684 794 
L 1344 794 
L 1344 0 
L 684 0 
L 684 794 
z
" transform="scale(0.015625)"/>
        <path id="DejaVuSans-35" d="M 691 4666 
L 3169 4666 
L 3169 4134 
L 1269 4134 
L 1269 2991 
Q 1406 3038 1543 3061 
Q 1681 3084 1819 3084 
Q 2600 3084 3056 2656 
Q 3513 2228 3513 1497 
Q 3513 744 3044 326 
Q 2575 -91 1722 -91 
Q 1428 -91 1123 -41 
Q 819 9 494 109 
L 494 744 
Q 775 591 1075 516 
Q 1375 441 1709 441 
Q 2250 441 2565 725 
Q 2881 1009 2881 1497 
Q 2881 1984 2565 2268 
Q 2250 2553 1709 2553 
Q 1456 2553 1204 2497 
Q 953 2441 691 2322 
L 691 4666 
z
" transform="scale(0.015625)"/>
       </defs>
       <use xlink:href="#DejaVuSans-30"/>
       <use xlink:href="#DejaVuSans-2e" transform="translate(63.623047 0)"/>
       <use xlink:href="#DejaVuSans-30" transform="translate(95.410156 0)"/>
       <use xlink:href="#DejaVuSans-35" transform="translate(159.033203 0)"/>
      </g>
     </g>
    </g>
    <g id="ytick_2">
     <g id="line2d_7">
      <g>
       <use xlink:href="#m176d49c086" x="90" y="262.319385" style="stroke: #000000; stroke-width: 0.8"/>
      </g>
     </g>
     <g id="text_8">
      <!-- 0.10 -->
      <g transform="translate(60.734375 266.118604) scale(0.1 -0.1)">
       <use xlink:href="#DejaVuSans-30"/>
       <use xlink:href="#DejaVuSans-2e" transform="translate(63.623047 0)"/>
       <use xlink:href="#DejaVuSans-31" transform="translate(95.410156 0)"/>
       <use xlink:href="#DejaVuSans-30" transform="translate(159.033203 0)"/>
      </g>
     </g>
    </g>
    <g id="ytick_3">
     <g id="line2d_8">
      <g>
       <use xlink:href="#m176d49c086" x="90" y="211.578944" style="stroke: #000000; stroke-width: 0.8"/>
      </g>
     </g>
     <g id="text_9">
      <!-- 0.15 -->
      <g transform="translate(60.734375 215.378162) scale(0.1 -0.1)">
       <use xlink:href="#DejaVuSans-30"/>
       <use xlink:href="#DejaVuSans-2e" transform="translate(63.623047 0)"/>
       <use xlink:href="#DejaVuSans-31" transform="translate(95.410156 0)"/>
       <use xlink:href="#DejaVuSans-35" transform="translate(159.033203 0)"/>
      </g>
     </g>
    </g>
    <g id="ytick_4">
     <g id="line2d_9">
      <g>
       <use xlink:href="#m176d49c086" x="90" y="160.838503" style="stroke: #000000; stroke-width: 0.8"/>
      </g>
     </g>
     <g id="text_10">
      <!-- 0.20 -->
      <g transform="translate(60.734375 164.637721) scale(0.1 -0.1)">
       <use xlink:href="#DejaVuSans-30"/>
       <use xlink:href="#DejaVuSans-2e" transform="translate(63.623047 0)"/>
       <use xlink:href="#DejaVuSans-32" transform="translate(95.410156 0)"/>
       <use xlink:href="#DejaVuSans-30" transform="translate(159.033203 0)"/>
      </g>
     </g>
    </g>
    <g id="ytick_5">
     <g id="line2d_10">
      <g>
       <use xlink:href="#m176d49c086" x="90" y="110.098061" style="stroke: #000000; stroke-width: 0.8"/>
      </g>
     </g>
     <g id="text_11">
      <!-- 0.25 -->
      <g transform="translate(60.734375 113.89728) scale(0.1 -0.1)">
       <use xlink:href="#DejaVuSans-30"/>
       <use xlink:href="#DejaVuSans-2e" transform="translate(63.623047 0)"/>
       <use xlink:href="#DejaVuSans-32" transform="translate(95.410156 0)"/>
       <use xlink:href="#DejaVuSans-35" transform="translate(159.033203 0)"/>
      </g>
     </g>
    </g>
    <g id="ytick_6">
     <g id="line2d_11">
      <g>
       <use xlink:href="#m176d49c086" x="90" y="59.35762" style="stroke: #000000; stroke-width: 0.8"/>
      </g>
     </g>
     <g id="text_12">
      <!-- 0.30 -->
      <g transform="translate(60.734375 63.156839) scale(0.1 -0.1)">
       <defs>
        <path id="DejaVuSans-33" d="M 2597 2516 
Q 3050 2419 3304 2112 
Q 3559 1806 3559 1356 
Q 3559 666 3084 287 
Q 2609 -91 1734 -91 
Q 1441 -91 1130 -33 
Q 819 25 488 141 
L 488 750 
Q 750 597 1062 519 
Q 1375 441 1716 441 
Q 2309 441 2620 675 
Q 2931 909 2931 1356 
Q 2931 1769 2642 2001 
Q 2353 2234 1838 2234 
L 1294 2234 
L 1294 2753 
L 1863 2753 
Q 2328 2753 2575 2939 
Q 2822 3125 2822 3475 
Q 2822 3834 2567 4026 
Q 2313 4219 1838 4219 
Q 1578 4219 1281 4162 
Q 984 4106 628 3988 
L 628 4550 
Q 988 4650 1302 4700 
Q 1616 4750 1894 4750 
Q 2613 4750 3031 4423 
Q 3450 4097 3450 3541 
Q 3450 3153 3228 2886 
Q 3006 2619 2597 2516 
z
" transform="scale(0.015625)"/>
       </defs>
       <use xlink:href="#DejaVuSans-30"/>
       <use xlink:href="#DejaVuSans-2e" transform="translate(63.623047 0)"/>
       <use xlink:href="#DejaVuSans-33" transform="translate(95.410156 0)"/>
       <use xlink:href="#DejaVuSans-30" transform="translate(159.033203 0)"/>
      </g>
     </g>
    </g>
    <g id="text_13">
     <!-- Estimation Loss -->
     <g transform="translate(54.654687 220.98125) rotate(-90) scale(0.1 -0.1)">
      <defs>
       <path id="DejaVuSans-73" d="M 2834 3397 
L 2834 2853 
Q 2591 2978 2328 3040 
Q 2066 3103 1784 3103 
Q 1356 3103 1142 2972 
Q 928 2841 928 2578 
Q 928 2378 1081 2264 
Q 1234 2150 1697 2047 
L 1894 2003 
Q 2506 1872 2764 1633 
Q 3022 1394 3022 966 
Q 3022 478 2636 193 
Q 2250 -91 1575 -91 
Q 1294 -91 989 -36 
Q 684 19 347 128 
L 347 722 
Q 666 556 975 473 
Q 1284 391 1588 391 
Q 1994 391 2212 530 
Q 2431 669 2431 922 
Q 2431 1156 2273 1281 
Q 2116 1406 1581 1522 
L 1381 1569 
Q 847 1681 609 1914 
Q 372 2147 372 2553 
Q 372 3047 722 3315 
Q 1072 3584 1716 3584 
Q 2034 3584 2315 3537 
Q 2597 3491 2834 3397 
z
" transform="scale(0.015625)"/>
       <path id="DejaVuSans-74" d="M 1172 4494 
L 1172 3500 
L 2356 3500 
L 2356 3053 
L 1172 3053 
L 1172 1153 
Q 1172 725 1289 603 
Q 1406 481 1766 481 
L 2356 481 
L 2356 0 
L 1766 0 
Q 1100 0 847 248 
Q 594 497 594 1153 
L 594 3053 
L 172 3053 
L 172 3500 
L 594 3500 
L 594 4494 
L 1172 4494 
z
" transform="scale(0.015625)"/>
       <path id="DejaVuSans-69" d="M 603 3500 
L 1178 3500 
L 1178 0 
L 603 0 
L 603 3500 
z
M 603 4863 
L 1178 4863 
L 1178 4134 
L 603 4134 
L 603 4863 
z
" transform="scale(0.015625)"/>
       <path id="DejaVuSans-6d" d="M 3328 2828 
Q 3544 3216 3844 3400 
Q 4144 3584 4550 3584 
Q 5097 3584 5394 3201 
Q 5691 2819 5691 2113 
L 5691 0 
L 5113 0 
L 5113 2094 
Q 5113 2597 4934 2840 
Q 4756 3084 4391 3084 
Q 3944 3084 3684 2787 
Q 3425 2491 3425 1978 
L 3425 0 
L 2847 0 
L 2847 2094 
Q 2847 2600 2669 2842 
Q 2491 3084 2119 3084 
Q 1678 3084 1418 2786 
Q 1159 2488 1159 1978 
L 1159 0 
L 581 0 
L 581 3500 
L 1159 3500 
L 1159 2956 
Q 1356 3278 1631 3431 
Q 1906 3584 2284 3584 
Q 2666 3584 2933 3390 
Q 3200 3197 3328 2828 
z
" transform="scale(0.015625)"/>
       <path id="DejaVuSans-61" d="M 2194 1759 
Q 1497 1759 1228 1600 
Q 959 1441 959 1056 
Q 959 750 1161 570 
Q 1363 391 1709 391 
Q 2188 391 2477 730 
Q 2766 1069 2766 1631 
L 2766 1759 
L 2194 1759 
z
M 3341 1997 
L 3341 0 
L 2766 0 
L 2766 531 
Q 2569 213 2275 61 
Q 1981 -91 1556 -91 
Q 1019 -91 701 211 
Q 384 513 384 1019 
Q 384 1609 779 1909 
Q 1175 2209 1959 2209 
L 2766 2209 
L 2766 2266 
Q 2766 2663 2505 2880 
Q 2244 3097 1772 3097 
Q 1472 3097 1187 3025 
Q 903 2953 641 2809 
L 641 3341 
Q 956 3463 1253 3523 
Q 1550 3584 1831 3584 
Q 2591 3584 2966 3190 
Q 3341 2797 3341 1997 
z
" transform="scale(0.015625)"/>
       <path id="DejaVuSans-6e" d="M 3513 2113 
L 3513 0 
L 2938 0 
L 2938 2094 
Q 2938 2591 2744 2837 
Q 2550 3084 2163 3084 
Q 1697 3084 1428 2787 
Q 1159 2491 1159 1978 
L 1159 0 
L 581 0 
L 581 3500 
L 1159 3500 
L 1159 2956 
Q 1366 3272 1645 3428 
Q 1925 3584 2291 3584 
Q 2894 3584 3203 3211 
Q 3513 2838 3513 2113 
z
" transform="scale(0.015625)"/>
       <path id="DejaVuSans-20" transform="scale(0.015625)"/>
       <path id="DejaVuSans-4c" d="M 628 4666 
L 1259 4666 
L 1259 531 
L 3531 531 
L 3531 0 
L 628 0 
L 628 4666 
z
" transform="scale(0.015625)"/>
      </defs>
      <use xlink:href="#DejaVuSans-45"/>
      <use xlink:href="#DejaVuSans-73" transform="translate(63.183594 0)"/>
      <use xlink:href="#DejaVuSans-74" transform="translate(115.283203 0)"/>
      <use xlink:href="#DejaVuSans-69" transform="translate(154.492188 0)"/>
      <use xlink:href="#DejaVuSans-6d" transform="translate(182.275391 0)"/>
      <use xlink:href="#DejaVuSans-61" transform="translate(279.6875 0)"/>
      <use xlink:href="#DejaVuSans-74" transform="translate(340.966797 0)"/>
      <use xlink:href="#DejaVuSans-69" transform="translate(380.175781 0)"/>
      <use xlink:href="#DejaVuSans-6f" transform="translate(407.958984 0)"/>
      <use xlink:href="#DejaVuSans-6e" transform="translate(469.140625 0)"/>
      <use xlink:href="#DejaVuSans-20" transform="translate(532.519531 0)"/>
      <use xlink:href="#DejaVuSans-4c" transform="translate(564.306641 0)"/>
      <use xlink:href="#DejaVuSans-6f" transform="translate(618.269531 0)"/>
      <use xlink:href="#DejaVuSans-73" transform="translate(679.451172 0)"/>
      <use xlink:href="#DejaVuSans-73" transform="translate(731.550781 0)"/>
     </g>
    </g>
   </g>
   <g id="line2d_12">
    <path d="M 115.363636 109.918704 
L 117.060201 224.492964 
L 118.756765 242.803064 
L 120.453329 254.084588 
L 122.149894 262.14636 
L 123.846458 267.69882 
L 127.239587 275.179436 
L 128.936151 277.604687 
L 130.632715 279.067144 
L 132.329279 279.629204 
L 134.025844 280.548861 
L 135.722408 282.581126 
L 137.418972 283.533527 
L 139.115537 285.226451 
L 140.812101 286.444503 
L 145.901794 289.1758 
L 150.991487 289.858361 
L 154.384615 291.925451 
L 156.08118 292.170451 
L 157.777744 292.297683 
L 159.474308 292.790195 
L 161.170873 292.880521 
L 162.867437 293.328338 
L 164.564001 293.623953 
L 166.260566 293.745381 
L 169.653694 294.837579 
L 171.350258 295.162901 
L 173.046823 295.248815 
L 174.743387 295.870929 
L 176.439951 295.958111 
L 178.136516 296.253374 
L 181.529644 296.485176 
L 184.922773 295.999547 
L 186.619337 296.286456 
L 188.315901 296.927069 
L 190.012466 297.155827 
L 191.70903 297.502816 
L 193.405594 297.473399 
L 195.102159 297.70484 
L 196.798723 298.201822 
L 198.495287 298.25586 
L 200.191852 298.659342 
L 208.674673 298.46472 
L 210.371237 299.109607 
L 213.764366 299.490595 
L 215.46093 299.054343 
L 217.157495 299.202265 
L 218.854059 299.530952 
L 223.943752 300.131741 
L 225.640316 300.046971 
L 227.336881 300.458077 
L 229.033445 300.743199 
L 234.123138 300.802104 
L 235.819702 300.525178 
L 239.212831 301.190092 
L 240.909395 301.405695 
L 242.605959 301.274792 
L 245.999088 301.4838 
L 247.695652 301.256769 
L 249.392216 301.288948 
L 252.785345 301.614841 
L 254.481909 301.481495 
L 256.178474 302.013603 
L 257.875038 302.298163 
L 259.571602 302.237276 
L 261.268167 301.926742 
L 262.964731 302.002236 
L 264.661295 302.292451 
L 268.054424 302.562757 
L 269.750988 302.135545 
L 271.447552 302.522021 
L 273.144117 302.706305 
L 274.840681 302.687864 
L 279.930374 303.060953 
L 283.323503 302.575177 
L 285.020067 302.598007 
L 286.716631 302.983364 
L 288.413196 302.995848 
L 290.10976 302.82695 
L 291.806324 302.905461 
L 293.502888 303.175265 
L 295.199453 303.134749 
L 296.896017 303.495876 
L 298.592581 303.667321 
L 300.289146 303.510406 
L 303.682274 303.585235 
L 307.075403 303.309688 
L 308.771967 303.584965 
L 310.468531 303.539453 
L 312.165096 303.32268 
L 313.86166 303.629699 
L 315.558224 303.605311 
L 318.951353 303.979074 
L 320.647917 304.083387 
L 322.344482 303.877449 
L 324.041046 304.021159 
L 325.73761 303.811014 
L 327.434175 303.933011 
L 329.130739 303.889962 
L 330.827303 304.018822 
L 332.523867 303.91704 
L 334.220432 304.061894 
L 337.61356 304.706366 
L 339.310125 304.617414 
L 341.006689 304.4137 
L 344.399818 304.363653 
L 347.792946 304.771361 
L 349.48951 304.386185 
L 351.186075 304.281375 
L 352.882639 304.696406 
L 354.579203 304.616722 
L 357.972332 304.945133 
L 359.668896 304.647495 
L 364.758589 305.00329 
L 366.455154 305.296889 
L 368.151718 305.266558 
L 369.848282 305.020439 
L 378.331104 305.174114 
L 380.027668 305.013779 
L 388.51049 305.350249 
L 391.903618 305.206366 
L 393.600182 305.499103 
L 395.296747 305.513857 
L 396.993311 305.232491 
L 400.38644 305.668234 
L 402.083004 305.614667 
L 403.779568 305.429365 
L 405.476133 305.448004 
L 407.172697 305.684814 
L 410.565825 305.474049 
L 422.441776 305.674612 
L 424.13834 305.544461 
L 427.531469 305.869113 
L 432.621161 305.754892 
L 436.01429 305.957258 
L 437.710854 305.839375 
L 439.407419 305.904938 
L 442.800547 305.718102 
L 449.586804 306.141466 
L 451.283369 306.011824 
L 452.979933 306.044802 
L 454.676497 306.22291 
L 458.069626 305.793467 
L 463.159319 306.304086 
L 466.552448 306.495621 
L 469.945576 306.063601 
L 471.64214 306.036959 
L 475.035269 306.3128 
L 478.428398 306.373209 
L 480.124962 306.779018 
L 483.518091 306.918254 
L 485.214655 306.757085 
L 486.911219 306.484206 
L 488.607784 306.435254 
L 490.304348 306.64199 
L 492.000912 306.965271 
L 495.394041 306.654244 
L 497.090605 306.754918 
L 503.876862 306.624659 
L 505.573427 306.630546 
L 508.966555 306.430898 
L 512.359684 306.645582 
L 514.056248 306.556515 
L 525.932198 306.879727 
L 527.628763 306.77497 
L 529.325327 306.971198 
L 534.41502 307.09536 
L 536.111584 307.108469 
L 537.808148 306.907462 
L 539.504713 307.303643 
L 542.897841 307.296466 
L 544.594406 307.190322 
L 547.987534 307.185298 
L 553.077227 306.929463 
L 554.773791 307.153091 
L 556.470356 307.250311 
L 558.16692 307.080141 
L 561.560049 306.968335 
L 563.256613 306.742571 
L 564.953177 307.057357 
L 566.649742 307.580258 
L 570.04287 307.8 
L 576.829127 307.592131 
L 578.525692 307.67469 
L 585.311949 307.151409 
L 588.705078 307.351237 
L 590.401642 307.335473 
L 592.098206 307.599023 
L 593.79477 307.486218 
L 595.491335 307.644468 
L 603.974156 307.498694 
L 605.670721 307.705003 
L 609.063849 307.590064 
L 622.636364 307.729195 
L 622.636364 307.729195 
" clip-path="url(#p55af768819)" style="fill: none; stroke: #1f77b4; stroke-width: 1.5; stroke-linecap: square"/>
   </g>
   <g id="line2d_13">
    <path d="M 115.363636 122.031668 
L 117.060201 211.250638 
L 118.756765 217.242779 
L 120.453329 217.884688 
L 122.149894 217.878795 
L 123.846458 216.210113 
L 125.543022 215.969605 
L 127.239587 216.491371 
L 128.936151 216.288498 
L 130.632715 215.818591 
L 132.329279 216.269815 
L 134.025844 218.084286 
L 135.722408 218.399761 
L 137.418972 219.067017 
L 139.115537 218.820734 
L 140.812101 219.059442 
L 142.508665 219.467869 
L 144.20523 219.718657 
L 145.901794 220.962072 
L 147.598358 221.519611 
L 149.294922 223.527307 
L 150.991487 224.910554 
L 152.688051 225.216756 
L 154.384615 225.718368 
L 156.08118 225.571417 
L 157.777744 225.962135 
L 159.474308 226.89633 
L 161.170873 227.153981 
L 162.867437 228.554071 
L 164.564001 228.286514 
L 166.260566 229.397966 
L 167.95713 230.965569 
L 169.653694 230.657094 
L 171.350258 230.197809 
L 173.046823 230.890498 
L 174.743387 231.088017 
L 176.439951 231.034635 
L 178.136516 231.636069 
L 179.83308 232.072222 
L 181.529644 231.032448 
L 183.226209 231.146439 
L 184.922773 232.114116 
L 186.619337 232.658675 
L 188.315901 233.059733 
L 191.70903 233.10249 
L 193.405594 232.339694 
L 195.102159 231.239064 
L 196.798723 231.192455 
L 198.495287 231.411287 
L 200.191852 232.02074 
L 201.888416 231.840821 
L 203.58498 231.254436 
L 206.978109 233.117007 
L 208.674673 233.44627 
L 210.371237 233.941558 
L 212.067802 233.819866 
L 213.764366 233.957163 
L 215.46093 234.565369 
L 217.157495 232.584485 
L 218.854059 233.062808 
L 220.550623 233.694883 
L 222.247188 234.069124 
L 223.943752 233.938623 
L 225.640316 234.531074 
L 227.336881 234.488496 
L 229.033445 234.234538 
L 230.730009 234.719308 
L 232.426573 234.347133 
L 234.123138 234.206081 
L 235.819702 232.977287 
L 237.516266 232.833372 
L 239.212831 234.209507 
L 240.909395 233.213617 
L 242.605959 233.684037 
L 244.302524 233.929224 
L 245.999088 233.269596 
L 247.695652 234.209336 
L 251.088781 234.107218 
L 252.785345 235.00583 
L 254.481909 234.763171 
L 256.178474 235.954112 
L 257.875038 235.510126 
L 259.571602 235.683385 
L 261.268167 234.403947 
L 262.964731 234.833398 
L 264.661295 234.894179 
L 266.35786 234.669573 
L 269.750988 235.036905 
L 271.447552 236.01169 
L 273.144117 235.500246 
L 274.840681 236.497795 
L 278.23381 236.857305 
L 279.930374 236.777571 
L 281.626938 236.408503 
L 283.323503 236.952737 
L 285.020067 236.609152 
L 286.716631 237.866977 
L 290.10976 235.926687 
L 291.806324 236.117466 
L 293.502888 235.943829 
L 295.199453 236.329042 
L 296.896017 236.433902 
L 298.592581 237.39817 
L 300.289146 236.140865 
L 303.682274 235.396684 
L 305.378839 236.370121 
L 307.075403 236.693796 
L 308.771967 236.54965 
L 310.468531 235.971555 
L 312.165096 236.210135 
L 313.86166 235.116899 
L 317.254789 235.882537 
L 318.951353 236.034543 
L 320.647917 236.346949 
L 322.344482 236.119563 
L 324.041046 236.39703 
L 325.73761 236.042258 
L 327.434175 236.50723 
L 329.130739 236.705962 
L 330.827303 237.272479 
L 332.523867 236.874378 
L 334.220432 237.665696 
L 335.916996 236.569036 
L 337.61356 237.232951 
L 339.310125 238.199552 
L 341.006689 237.334451 
L 342.703253 237.539039 
L 344.399818 238.403366 
L 349.48951 238.115213 
L 351.186075 237.325276 
L 352.882639 238.335822 
L 354.579203 238.597337 
L 356.275768 237.361265 
L 357.972332 238.253511 
L 361.365461 237.968055 
L 363.062025 238.596081 
L 364.758589 238.662896 
L 366.455154 238.402717 
L 368.151718 238.4177 
L 371.544846 237.94919 
L 373.241411 239.102369 
L 374.937975 238.536886 
L 376.634539 239.55891 
L 378.331104 239.665344 
L 380.027668 238.901151 
L 381.724232 239.536393 
L 385.117361 238.726112 
L 386.813925 238.501893 
L 388.51049 239.285394 
L 391.903618 238.507136 
L 393.600182 239.178205 
L 395.296747 239.626713 
L 396.993311 239.14082 
L 398.689875 239.503702 
L 400.38644 240.191849 
L 403.779568 240.656869 
L 405.476133 240.297156 
L 407.172697 240.344091 
L 410.565825 241.091472 
L 412.26239 240.175443 
L 413.958954 240.150153 
L 415.655518 239.878908 
L 417.352083 240.940569 
L 419.048647 241.437612 
L 420.745211 241.646401 
L 424.13834 241.031029 
L 425.834904 241.921176 
L 427.531469 240.645668 
L 429.228033 240.679989 
L 430.924597 239.909142 
L 434.317726 239.997647 
L 436.01429 240.814973 
L 437.710854 240.862158 
L 439.407419 240.725253 
L 441.103983 241.590897 
L 442.800547 241.040668 
L 444.497112 241.449082 
L 446.193676 241.668072 
L 447.89024 241.170586 
L 449.586804 241.874796 
L 451.283369 242.129167 
L 452.979933 241.355971 
L 454.676497 242.222151 
L 456.373062 242.245152 
L 458.069626 242.138982 
L 459.76619 241.110117 
L 461.462755 241.958684 
L 463.159319 242.661694 
L 464.855883 242.543812 
L 466.552448 242.907963 
L 469.945576 242.369002 
L 471.64214 241.963773 
L 473.338705 242.193424 
L 475.035269 242.819673 
L 480.124962 242.413263 
L 481.821526 243.355793 
L 483.518091 243.508987 
L 485.214655 243.375939 
L 486.911219 243.631458 
L 488.607784 242.869231 
L 490.304348 242.691913 
L 493.697476 243.175679 
L 495.394041 243.320499 
L 497.090605 242.878489 
L 498.787169 242.981231 
L 502.180298 242.787262 
L 503.876862 242.41691 
L 505.573427 241.702958 
L 507.269991 242.920761 
L 508.966555 243.695186 
L 510.663119 243.811332 
L 512.359684 243.412123 
L 514.056248 243.473833 
L 515.752812 243.070026 
L 519.145941 243.374844 
L 520.842505 243.261548 
L 522.53907 243.858327 
L 527.628763 243.808016 
L 529.325327 243.995731 
L 531.021891 243.579807 
L 532.718455 243.405667 
L 534.41502 242.94417 
L 536.111584 244.268436 
L 537.808148 243.215102 
L 539.504713 243.222421 
L 541.201277 243.944342 
L 544.594406 243.929383 
L 546.29097 243.69591 
L 547.987534 243.080413 
L 549.684099 243.995583 
L 551.380663 243.537679 
L 553.077227 243.568825 
L 554.773791 244.386517 
L 558.16692 244.563495 
L 559.863484 245.047135 
L 561.560049 245.159383 
L 563.256613 244.441361 
L 564.953177 243.430503 
L 566.649742 243.97516 
L 568.346306 243.39274 
L 571.739434 243.889376 
L 573.435999 244.189197 
L 575.132563 244.093359 
L 578.525692 244.505113 
L 580.222256 245.157643 
L 581.91882 244.600997 
L 583.615385 243.925666 
L 585.311949 243.851755 
L 587.008513 244.14563 
L 588.705078 244.765162 
L 590.401642 244.07454 
L 593.79477 244.581575 
L 595.491335 244.237187 
L 598.884463 244.696663 
L 600.581028 245.156192 
L 602.277592 244.990048 
L 603.974156 244.95726 
L 607.367285 245.799753 
L 609.063849 244.992304 
L 610.760413 244.667185 
L 612.456978 244.461144 
L 614.153542 244.446085 
L 615.850106 244.572711 
L 617.546671 245.065072 
L 622.636364 244.681601 
L 622.636364 244.681601 
" clip-path="url(#p55af768819)" style="fill: none; stroke: #ff7f0e; stroke-width: 1.5; stroke-linecap: square"/>
   </g>
   <g id="line2d_14">
    <path d="M 115.363636 55.8 
L 117.060201 109.170936 
L 118.756765 133.239649 
L 120.453329 151.659389 
L 122.149894 166.037665 
L 125.543022 179.776969 
L 127.239587 186.966013 
L 128.936151 191.43689 
L 130.632715 191.646851 
L 132.329279 193.92513 
L 135.722408 199.278708 
L 137.418972 200.359133 
L 139.115537 204.49484 
L 140.812101 205.681668 
L 142.508665 207.257563 
L 145.901794 210.751374 
L 147.598358 210.725577 
L 149.294922 210.395943 
L 150.991487 211.868087 
L 152.688051 214.682316 
L 154.384615 215.494684 
L 156.08118 216.116292 
L 157.777744 215.582283 
L 159.474308 216.966022 
L 161.170873 215.850871 
L 162.867437 217.45298 
L 164.564001 217.116136 
L 166.260566 218.00306 
L 167.95713 219.767246 
L 169.653694 220.96538 
L 171.350258 219.790035 
L 173.046823 221.360543 
L 174.743387 222.015021 
L 176.439951 222.288742 
L 178.136516 222.850246 
L 179.83308 222.594045 
L 181.529644 223.201839 
L 183.226209 222.363386 
L 184.922773 222.271916 
L 186.619337 223.462818 
L 188.315901 223.863192 
L 190.012466 224.721112 
L 191.70903 225.085054 
L 193.405594 223.882173 
L 195.102159 226.092338 
L 196.798723 226.123563 
L 198.495287 227.066569 
L 200.191852 227.165824 
L 201.888416 225.950372 
L 203.58498 226.771451 
L 205.281545 226.561281 
L 206.978109 227.010216 
L 208.674673 226.841495 
L 210.371237 227.691158 
L 212.067802 228.322672 
L 213.764366 227.819828 
L 217.157495 228.198412 
L 218.854059 229.833759 
L 220.550623 228.885412 
L 222.247188 229.758187 
L 223.943752 230.073125 
L 225.640316 229.635264 
L 227.336881 230.758061 
L 229.033445 231.264886 
L 230.730009 230.661418 
L 232.426573 231.03153 
L 234.123138 230.911493 
L 235.819702 229.728934 
L 237.516266 230.945972 
L 239.212831 231.276691 
L 240.909395 231.744303 
L 242.605959 231.733075 
L 244.302524 231.848797 
L 245.999088 231.331838 
L 247.695652 231.557744 
L 249.392216 231.661891 
L 251.088781 231.62168 
L 252.785345 232.652226 
L 256.178474 232.854611 
L 257.875038 233.439331 
L 259.571602 233.551324 
L 261.268167 233.033382 
L 264.661295 232.974982 
L 266.35786 234.313406 
L 268.054424 234.126892 
L 269.750988 232.902931 
L 271.447552 234.275754 
L 273.144117 234.860293 
L 274.840681 233.934644 
L 276.537245 234.096839 
L 278.23381 235.492629 
L 279.930374 234.243666 
L 281.626938 233.79627 
L 283.323503 233.070807 
L 285.020067 234.504062 
L 286.716631 234.755686 
L 288.413196 234.175652 
L 290.10976 234.535631 
L 291.806324 234.569048 
L 293.502888 235.347766 
L 296.896017 236.079316 
L 298.592581 235.587397 
L 300.289146 235.715965 
L 301.98571 234.883582 
L 303.682274 235.834458 
L 305.378839 235.409722 
L 307.075403 236.291488 
L 310.468531 236.141512 
L 312.165096 235.312752 
L 313.86166 235.355715 
L 315.558224 235.927813 
L 317.254789 236.953996 
L 318.951353 236.724214 
L 320.647917 236.920121 
L 322.344482 236.447322 
L 324.041046 235.722269 
L 325.73761 236.326871 
L 327.434175 235.51633 
L 329.130739 236.492333 
L 330.827303 236.034573 
L 332.523867 237.224045 
L 334.220432 236.603554 
L 335.916996 237.461658 
L 337.61356 238.036654 
L 339.310125 237.007302 
L 341.006689 237.025793 
L 342.703253 237.277089 
L 344.399818 236.826947 
L 346.096382 238.257292 
L 349.48951 236.66064 
L 351.186075 237.08362 
L 352.882639 237.317038 
L 354.579203 238.09834 
L 356.275768 237.795335 
L 357.972332 237.773124 
L 359.668896 238.335883 
L 361.365461 237.488474 
L 363.062025 237.792229 
L 364.758589 238.414692 
L 366.455154 238.914739 
L 368.151718 238.959945 
L 369.848282 238.152087 
L 371.544846 238.902608 
L 373.241411 237.685814 
L 374.937975 238.946978 
L 376.634539 239.007851 
L 378.331104 238.3727 
L 380.027668 238.16364 
L 381.724232 238.472396 
L 385.117361 238.739322 
L 386.813925 238.454435 
L 388.51049 239.190497 
L 390.207054 237.556906 
L 391.903618 238.837484 
L 393.600182 239.340696 
L 395.296747 239.088352 
L 396.993311 238.701848 
L 398.689875 238.918973 
L 400.38644 239.359776 
L 402.083004 238.961148 
L 403.779568 238.762336 
L 405.476133 239.393641 
L 407.172697 239.521091 
L 408.869261 239.476804 
L 410.565825 239.844175 
L 412.26239 238.828923 
L 413.958954 239.017431 
L 415.655518 238.954072 
L 417.352083 239.160381 
L 419.048647 239.016627 
L 420.745211 239.319233 
L 422.441776 238.636273 
L 424.13834 239.653991 
L 425.834904 240.185948 
L 427.531469 239.145477 
L 429.228033 239.773699 
L 430.924597 239.686128 
L 432.621161 238.363416 
L 434.317726 240.082952 
L 436.01429 238.782471 
L 439.407419 239.43921 
L 441.103983 239.20887 
L 442.800547 238.405541 
L 444.497112 239.839454 
L 447.89024 239.915643 
L 449.586804 240.000804 
L 451.283369 240.258873 
L 452.979933 240.632351 
L 454.676497 239.842493 
L 456.373062 239.249299 
L 458.069626 239.088958 
L 459.76619 238.752256 
L 461.462755 238.985147 
L 463.159319 239.824683 
L 464.855883 240.395346 
L 466.552448 240.622897 
L 468.249012 240.276598 
L 469.945576 239.318456 
L 471.64214 238.957646 
L 473.338705 240.271094 
L 475.035269 239.766477 
L 476.731833 240.444048 
L 480.124962 240.894093 
L 481.821526 241.606927 
L 483.518091 240.661612 
L 485.214655 240.046909 
L 486.911219 240.374326 
L 488.607784 239.332237 
L 490.304348 240.657998 
L 492.000912 241.022412 
L 493.697476 240.364282 
L 495.394041 240.322279 
L 497.090605 241.13161 
L 498.787169 240.954995 
L 500.483734 241.011429 
L 502.180298 241.593299 
L 503.876862 240.690621 
L 505.573427 240.754945 
L 507.269991 240.14013 
L 508.966555 240.480173 
L 510.663119 241.307623 
L 512.359684 240.935067 
L 514.056248 240.783168 
L 515.752812 241.288213 
L 517.449377 241.126665 
L 519.145941 241.30031 
L 524.235634 241.259425 
L 525.932198 241.917825 
L 527.628763 241.244583 
L 529.325327 242.037303 
L 531.021891 241.352492 
L 532.718455 241.672497 
L 534.41502 241.655438 
L 536.111584 241.481901 
L 537.808148 241.913959 
L 539.504713 241.534559 
L 541.201277 241.83027 
L 542.897841 241.377704 
L 544.594406 242.02897 
L 546.29097 241.685096 
L 547.987534 241.630794 
L 551.380663 241.977921 
L 554.773791 241.279943 
L 556.470356 241.570351 
L 559.863484 241.315919 
L 563.256613 240.426294 
L 564.953177 242.391248 
L 566.649742 242.730787 
L 568.346306 242.863784 
L 570.04287 243.150467 
L 571.739434 243.016163 
L 573.435999 242.084479 
L 578.525692 243.07935 
L 580.222256 242.525426 
L 583.615385 241.900683 
L 585.311949 242.127727 
L 587.008513 240.963012 
L 588.705078 241.64426 
L 590.401642 242.782011 
L 592.098206 242.666855 
L 593.79477 241.63242 
L 595.491335 242.58631 
L 597.187899 242.020026 
L 598.884463 242.423583 
L 600.581028 242.06641 
L 602.277592 242.441666 
L 603.974156 242.233556 
L 605.670721 242.404952 
L 607.367285 242.072779 
L 609.063849 242.771343 
L 610.760413 242.006546 
L 612.456978 242.424058 
L 614.153542 242.996519 
L 615.850106 242.156889 
L 617.546671 242.232258 
L 619.243235 242.875194 
L 620.939799 242.331656 
L 622.636364 243.166465 
L 622.636364 243.166465 
" clip-path="url(#p55af768819)" style="fill: none; stroke: #2ca02c; stroke-width: 1.5; stroke-linecap: square"/>
   </g>
   <g id="line2d_15">
    <path d="M 115.363636 61.064781 
L 117.060201 84.797131 
L 118.756765 89.783819 
L 120.453329 90.535512 
L 122.149894 88.770067 
L 123.846458 85.772871 
L 125.543022 86.269631 
L 127.239587 87.423588 
L 128.936151 85.161361 
L 130.632715 84.165574 
L 132.329279 85.904355 
L 134.025844 90.286351 
L 135.722408 86.235743 
L 137.418972 91.493504 
L 139.115537 90.68672 
L 140.812101 88.573235 
L 142.508665 87.749089 
L 144.20523 87.305022 
L 145.901794 90.901325 
L 147.598358 92.499414 
L 149.294922 95.031836 
L 150.991487 99.346771 
L 152.688051 99.410835 
L 154.384615 100.505273 
L 156.08118 99.102129 
L 157.777744 101.527401 
L 159.474308 101.069252 
L 161.170873 101.8268 
L 162.867437 103.804825 
L 164.564001 105.075592 
L 166.260566 109.959445 
L 167.95713 109.365289 
L 169.653694 107.559544 
L 171.350258 106.437332 
L 173.046823 106.303767 
L 174.743387 109.175558 
L 176.439951 108.742629 
L 178.136516 108.765466 
L 179.83308 108.939064 
L 183.226209 111.133625 
L 184.922773 109.212811 
L 186.619337 113.235514 
L 188.315901 112.240472 
L 190.012466 112.53431 
L 191.70903 113.57864 
L 193.405594 109.653689 
L 195.102159 109.358446 
L 196.798723 111.442522 
L 198.495287 108.469305 
L 200.191852 109.763065 
L 201.888416 105.359448 
L 203.58498 107.157686 
L 205.281545 108.087464 
L 206.978109 107.690782 
L 208.674673 111.361165 
L 210.371237 112.486122 
L 212.067802 110.510686 
L 213.764366 111.169226 
L 217.157495 107.851913 
L 218.854059 110.180896 
L 220.550623 111.709739 
L 222.247188 112.377142 
L 223.943752 112.44171 
L 225.640316 110.470017 
L 227.336881 108.811758 
L 229.033445 110.228987 
L 230.730009 110.317612 
L 232.426573 110.148381 
L 234.123138 108.523931 
L 235.819702 109.351941 
L 237.516266 110.602409 
L 239.212831 110.497243 
L 240.909395 109.098649 
L 242.605959 110.767957 
L 244.302524 110.338619 
L 245.999088 109.792996 
L 247.695652 115.85259 
L 249.392216 112.804644 
L 251.088781 114.178609 
L 252.785345 112.562881 
L 254.481909 112.457653 
L 256.178474 113.556751 
L 257.875038 115.582222 
L 259.571602 114.476078 
L 261.268167 110.86625 
L 262.964731 116.120862 
L 264.661295 113.936434 
L 268.054424 113.338994 
L 269.750988 116.52795 
L 271.447552 116.102671 
L 273.144117 111.572156 
L 274.840681 118.973768 
L 276.537245 116.737274 
L 278.23381 115.197067 
L 279.930374 115.231169 
L 281.626938 117.363588 
L 283.323503 114.405778 
L 285.020067 118.547183 
L 286.716631 117.093401 
L 288.413196 115.287913 
L 290.10976 111.863597 
L 291.806324 116.576024 
L 293.502888 114.766355 
L 295.199453 114.238979 
L 296.896017 115.540338 
L 298.592581 117.422199 
L 300.289146 114.866021 
L 301.98571 114.211513 
L 303.682274 111.241131 
L 305.378839 112.080035 
L 307.075403 115.175147 
L 308.771967 114.51254 
L 310.468531 114.362449 
L 312.165096 117.205103 
L 313.86166 111.387407 
L 315.558224 115.436376 
L 317.254789 113.431222 
L 318.951353 115.90027 
L 320.647917 115.220072 
L 322.344482 115.931385 
L 325.73761 113.397113 
L 327.434175 115.026498 
L 329.130739 115.89062 
L 330.827303 116.880676 
L 332.523867 116.107848 
L 334.220432 114.416685 
L 335.916996 113.670516 
L 337.61356 115.429139 
L 339.310125 115.396667 
L 341.006689 117.438515 
L 342.703253 117.354319 
L 346.096382 116.474253 
L 347.792946 119.025987 
L 349.48951 114.782322 
L 351.186075 118.143922 
L 352.882639 119.347774 
L 354.579203 114.525366 
L 356.275768 115.045291 
L 357.972332 120.051538 
L 359.668896 113.338828 
L 361.365461 118.627088 
L 363.062025 120.359568 
L 364.758589 117.547578 
L 366.455154 117.709648 
L 368.151718 119.11408 
L 369.848282 117.212403 
L 371.544846 119.900714 
L 374.937975 119.456941 
L 376.634539 120.797164 
L 378.331104 120.892028 
L 380.027668 118.570449 
L 381.724232 121.074851 
L 383.420797 118.503893 
L 385.117361 117.177546 
L 386.813925 121.614707 
L 388.51049 120.053696 
L 390.207054 120.989941 
L 391.903618 120.331474 
L 393.600182 122.035581 
L 395.296747 119.69988 
L 396.993311 118.068769 
L 398.689875 121.824345 
L 400.38644 118.354273 
L 402.083004 120.333237 
L 403.779568 124.336896 
L 405.476133 121.973386 
L 407.172697 123.178672 
L 408.869261 121.087555 
L 410.565825 122.144981 
L 412.26239 120.688835 
L 413.958954 119.400273 
L 415.655518 122.100075 
L 417.352083 124.481128 
L 419.048647 123.375863 
L 420.745211 123.821243 
L 422.441776 122.387711 
L 424.13834 121.184582 
L 425.834904 123.64589 
L 427.531469 123.688521 
L 429.228033 120.765191 
L 430.924597 119.540672 
L 432.621161 119.82304 
L 434.317726 121.649044 
L 436.01429 120.727332 
L 437.710854 122.465779 
L 439.407419 125.519466 
L 441.103983 119.585368 
L 442.800547 123.853434 
L 444.497112 127.363757 
L 446.193676 124.368056 
L 447.89024 122.658202 
L 449.586804 124.822664 
L 451.283369 124.393858 
L 452.979933 120.981532 
L 454.676497 129.390926 
L 456.373062 128.323959 
L 458.069626 126.899426 
L 459.76619 128.270529 
L 461.462755 129.097356 
L 463.159319 128.644617 
L 464.855883 127.00585 
L 466.552448 127.545037 
L 468.249012 129.598482 
L 469.945576 126.648993 
L 471.64214 126.650392 
L 473.338705 124.271794 
L 475.035269 125.921714 
L 476.731833 121.983842 
L 478.428398 124.410652 
L 480.124962 125.643363 
L 481.821526 125.832316 
L 483.518091 127.876128 
L 485.214655 129.378267 
L 486.911219 128.359303 
L 488.607784 128.237271 
L 490.304348 127.065946 
L 492.000912 129.775444 
L 493.697476 127.065684 
L 495.394041 127.656918 
L 497.090605 124.741559 
L 498.787169 126.476956 
L 500.483734 126.167519 
L 502.180298 127.629997 
L 503.876862 124.432928 
L 505.573427 126.509503 
L 507.269991 130.273401 
L 508.966555 130.710571 
L 510.663119 129.627296 
L 512.359684 129.983543 
L 514.056248 125.852822 
L 515.752812 125.475418 
L 517.449377 128.031735 
L 519.145941 126.910423 
L 520.842505 129.484825 
L 522.53907 127.51275 
L 524.235634 127.337878 
L 525.932198 125.086067 
L 527.628763 129.568462 
L 529.325327 127.076396 
L 531.021891 127.553138 
L 532.718455 125.800371 
L 534.41502 128.704228 
L 536.111584 130.423099 
L 537.808148 124.87158 
L 539.504713 127.601894 
L 541.201277 127.907316 
L 542.897841 129.477583 
L 544.594406 127.583831 
L 546.29097 125.319324 
L 547.987534 124.781516 
L 549.684099 128.15869 
L 551.380663 123.099058 
L 553.077227 124.373867 
L 556.470356 129.664239 
L 559.863484 129.547559 
L 561.560049 130.779388 
L 563.256613 127.380779 
L 564.953177 127.135102 
L 566.649742 127.552688 
L 568.346306 123.507607 
L 570.04287 127.065236 
L 571.739434 129.965336 
L 573.435999 128.512787 
L 575.132563 126.798663 
L 576.829127 126.59322 
L 578.525692 130.428293 
L 580.222256 131.392598 
L 581.91882 129.75537 
L 583.615385 128.652248 
L 585.311949 128.190119 
L 587.008513 127.590845 
L 588.705078 128.040955 
L 590.401642 128.34576 
L 592.098206 126.795988 
L 593.79477 127.331387 
L 595.491335 129.768947 
L 597.187899 131.735217 
L 598.884463 130.416081 
L 600.581028 128.658889 
L 602.277592 128.603615 
L 603.974156 129.91706 
L 605.670721 129.102712 
L 607.367285 130.996669 
L 609.063849 128.800306 
L 610.760413 128.188502 
L 612.456978 128.268072 
L 614.153542 124.536526 
L 615.850106 128.344713 
L 617.546671 125.284904 
L 619.243235 129.292888 
L 620.939799 131.134733 
L 622.636364 124.855277 
L 622.636364 124.855277 
" clip-path="url(#p55af768819)" style="fill: none; stroke: #d62728; stroke-width: 1.5; stroke-linecap: square"/>
   </g>
   <g id="patch_3">
    <path d="M 90 320.4 
L 90 43.2 
" style="fill: none; stroke: #000000; stroke-width: 0.8; stroke-linejoin: miter; stroke-linecap: square"/>
   </g>
   <g id="patch_4">
    <path d="M 648 320.4 
L 648 43.2 
" style="fill: none; stroke: #000000; stroke-width: 0.8; stroke-linejoin: miter; stroke-linecap: square"/>
   </g>
   <g id="patch_5">
    <path d="M 90 320.4 
L 648 320.4 
" style="fill: none; stroke: #000000; stroke-width: 0.8; stroke-linejoin: miter; stroke-linecap: square"/>
   </g>
   <g id="patch_6">
    <path d="M 90 43.2 
L 648 43.2 
" style="fill: none; stroke: #000000; stroke-width: 0.8; stroke-linejoin: miter; stroke-linecap: square"/>
   </g>
   <g id="text_14">
    <!-- Training and Validating Estimation Loss -->
    <g transform="translate(251.535937 37.2) scale(0.12 -0.12)">
     <defs>
      <path id="DejaVuSans-54" d="M -19 4666 
L 3928 4666 
L 3928 4134 
L 2272 4134 
L 2272 0 
L 1638 0 
L 1638 4134 
L -19 4134 
L -19 4666 
z
" transform="scale(0.015625)"/>
      <path id="DejaVuSans-72" d="M 2631 2963 
Q 2534 3019 2420 3045 
Q 2306 3072 2169 3072 
Q 1681 3072 1420 2755 
Q 1159 2438 1159 1844 
L 1159 0 
L 581 0 
L 581 3500 
L 1159 3500 
L 1159 2956 
Q 1341 3275 1631 3429 
Q 1922 3584 2338 3584 
Q 2397 3584 2469 3576 
Q 2541 3569 2628 3553 
L 2631 2963 
z
" transform="scale(0.015625)"/>
      <path id="DejaVuSans-67" d="M 2906 1791 
Q 2906 2416 2648 2759 
Q 2391 3103 1925 3103 
Q 1463 3103 1205 2759 
Q 947 2416 947 1791 
Q 947 1169 1205 825 
Q 1463 481 1925 481 
Q 2391 481 2648 825 
Q 2906 1169 2906 1791 
z
M 3481 434 
Q 3481 -459 3084 -895 
Q 2688 -1331 1869 -1331 
Q 1566 -1331 1297 -1286 
Q 1028 -1241 775 -1147 
L 775 -588 
Q 1028 -725 1275 -790 
Q 1522 -856 1778 -856 
Q 2344 -856 2625 -561 
Q 2906 -266 2906 331 
L 2906 616 
Q 2728 306 2450 153 
Q 2172 0 1784 0 
Q 1141 0 747 490 
Q 353 981 353 1791 
Q 353 2603 747 3093 
Q 1141 3584 1784 3584 
Q 2172 3584 2450 3431 
Q 2728 3278 2906 2969 
L 2906 3500 
L 3481 3500 
L 3481 434 
z
" transform="scale(0.015625)"/>
      <path id="DejaVuSans-64" d="M 2906 2969 
L 2906 4863 
L 3481 4863 
L 3481 0 
L 2906 0 
L 2906 525 
Q 2725 213 2448 61 
Q 2172 -91 1784 -91 
Q 1150 -91 751 415 
Q 353 922 353 1747 
Q 353 2572 751 3078 
Q 1150 3584 1784 3584 
Q 2172 3584 2448 3432 
Q 2725 3281 2906 2969 
z
M 947 1747 
Q 947 1113 1208 752 
Q 1469 391 1925 391 
Q 2381 391 2643 752 
Q 2906 1113 2906 1747 
Q 2906 2381 2643 2742 
Q 2381 3103 1925 3103 
Q 1469 3103 1208 2742 
Q 947 2381 947 1747 
z
" transform="scale(0.015625)"/>
      <path id="DejaVuSans-56" d="M 1831 0 
L 50 4666 
L 709 4666 
L 2188 738 
L 3669 4666 
L 4325 4666 
L 2547 0 
L 1831 0 
z
" transform="scale(0.015625)"/>
      <path id="DejaVuSans-6c" d="M 603 4863 
L 1178 4863 
L 1178 0 
L 603 0 
L 603 4863 
z
" transform="scale(0.015625)"/>
     </defs>
     <use xlink:href="#DejaVuSans-54"/>
     <use xlink:href="#DejaVuSans-72" transform="translate(46.333984 0)"/>
     <use xlink:href="#DejaVuSans-61" transform="translate(87.447266 0)"/>
     <use xlink:href="#DejaVuSans-69" transform="translate(148.726562 0)"/>
     <use xlink:href="#DejaVuSans-6e" transform="translate(176.509766 0)"/>
     <use xlink:href="#DejaVuSans-69" transform="translate(239.888672 0)"/>
     <use xlink:href="#DejaVuSans-6e" transform="translate(267.671875 0)"/>
     <use xlink:href="#DejaVuSans-67" transform="translate(331.050781 0)"/>
     <use xlink:href="#DejaVuSans-20" transform="translate(394.527344 0)"/>
     <use xlink:href="#DejaVuSans-61" transform="translate(426.314453 0)"/>
     <use xlink:href="#DejaVuSans-6e" transform="translate(487.59375 0)"/>
     <use xlink:href="#DejaVuSans-64" transform="translate(550.972656 0)"/>
     <use xlink:href="#DejaVuSans-20" transform="translate(614.449219 0)"/>
     <use xlink:href="#DejaVuSans-56" transform="translate(646.236328 0)"/>
     <use xlink:href="#DejaVuSans-61" transform="translate(706.894531 0)"/>
     <use xlink:href="#DejaVuSans-6c" transform="translate(768.173828 0)"/>
     <use xlink:href="#DejaVuSans-69" transform="translate(795.957031 0)"/>
     <use xlink:href="#DejaVuSans-64" transform="translate(823.740234 0)"/>
     <use xlink:href="#DejaVuSans-61" transform="translate(887.216797 0)"/>
     <use xlink:href="#DejaVuSans-74" transform="translate(948.496094 0)"/>
     <use xlink:href="#DejaVuSans-69" transform="translate(987.705078 0)"/>
     <use xlink:href="#DejaVuSans-6e" transform="translate(1015.488281 0)"/>
     <use xlink:href="#DejaVuSans-67" transform="translate(1078.867188 0)"/>
     <use xlink:href="#DejaVuSans-20" transform="translate(1142.34375 0)"/>
     <use xlink:href="#DejaVuSans-45" transform="translate(1174.130859 0)"/>
     <use xlink:href="#DejaVuSans-73" transform="translate(1237.314453 0)"/>
     <use xlink:href="#DejaVuSans-74" transform="translate(1289.414062 0)"/>
     <use xlink:href="#DejaVuSans-69" transform="translate(1328.623047 0)"/>
     <use xlink:href="#DejaVuSans-6d" transform="translate(1356.40625 0)"/>
     <use xlink:href="#DejaVuSans-61" transform="translate(1453.818359 0)"/>
     <use xlink:href="#DejaVuSans-74" transform="translate(1515.097656 0)"/>
     <use xlink:href="#DejaVuSans-69" transform="translate(1554.306641 0)"/>
     <use xlink:href="#DejaVuSans-6f" transform="translate(1582.089844 0)"/>
     <use xlink:href="#DejaVuSans-6e" transform="translate(1643.271484 0)"/>
     <use xlink:href="#DejaVuSans-20" transform="translate(1706.650391 0)"/>
     <use xlink:href="#DejaVuSans-4c" transform="translate(1738.4375 0)"/>
     <use xlink:href="#DejaVuSans-6f" transform="translate(1792.400391 0)"/>
     <use xlink:href="#DejaVuSans-73" transform="translate(1853.582031 0)"/>
     <use xlink:href="#DejaVuSans-73" transform="translate(1905.681641 0)"/>
    </g>
   </g>
   <g id="legend_1">
    <g id="patch_7">
     <path d="M 521.439062 109.9125 
L 641 109.9125 
Q 643 109.9125 643 107.9125 
L 643 50.2 
Q 643 48.2 641 48.2 
L 521.439062 48.2 
Q 519.439062 48.2 519.439062 50.2 
L 519.439062 107.9125 
Q 519.439062 109.9125 521.439062 109.9125 
z
" style="fill: #ffffff; opacity: 0.8; stroke: #cccccc; stroke-linejoin: miter"/>
    </g>
    <g id="line2d_16">
     <path d="M 523.439062 56.298437 
L 533.439062 56.298437 
L 543.439062 56.298437 
" style="fill: none; stroke: #1f77b4; stroke-width: 1.5; stroke-linecap: square"/>
    </g>
    <g id="text_15">
     <!-- Training-Source -->
     <g transform="translate(551.439062 59.798437) scale(0.1 -0.1)">
      <defs>
       <path id="DejaVuSans-2d" d="M 313 2009 
L 1997 2009 
L 1997 1497 
L 313 1497 
L 313 2009 
z
" transform="scale(0.015625)"/>
       <path id="DejaVuSans-53" d="M 3425 4513 
L 3425 3897 
Q 3066 4069 2747 4153 
Q 2428 4238 2131 4238 
Q 1616 4238 1336 4038 
Q 1056 3838 1056 3469 
Q 1056 3159 1242 3001 
Q 1428 2844 1947 2747 
L 2328 2669 
Q 3034 2534 3370 2195 
Q 3706 1856 3706 1288 
Q 3706 609 3251 259 
Q 2797 -91 1919 -91 
Q 1588 -91 1214 -16 
Q 841 59 441 206 
L 441 856 
Q 825 641 1194 531 
Q 1563 422 1919 422 
Q 2459 422 2753 634 
Q 3047 847 3047 1241 
Q 3047 1584 2836 1778 
Q 2625 1972 2144 2069 
L 1759 2144 
Q 1053 2284 737 2584 
Q 422 2884 422 3419 
Q 422 4038 858 4394 
Q 1294 4750 2059 4750 
Q 2388 4750 2728 4690 
Q 3069 4631 3425 4513 
z
" transform="scale(0.015625)"/>
       <path id="DejaVuSans-75" d="M 544 1381 
L 544 3500 
L 1119 3500 
L 1119 1403 
Q 1119 906 1312 657 
Q 1506 409 1894 409 
Q 2359 409 2629 706 
Q 2900 1003 2900 1516 
L 2900 3500 
L 3475 3500 
L 3475 0 
L 2900 0 
L 2900 538 
Q 2691 219 2414 64 
Q 2138 -91 1772 -91 
Q 1169 -91 856 284 
Q 544 659 544 1381 
z
M 1991 3584 
L 1991 3584 
z
" transform="scale(0.015625)"/>
       <path id="DejaVuSans-65" d="M 3597 1894 
L 3597 1613 
L 953 1613 
Q 991 1019 1311 708 
Q 1631 397 2203 397 
Q 2534 397 2845 478 
Q 3156 559 3463 722 
L 3463 178 
Q 3153 47 2828 -22 
Q 2503 -91 2169 -91 
Q 1331 -91 842 396 
Q 353 884 353 1716 
Q 353 2575 817 3079 
Q 1281 3584 2069 3584 
Q 2775 3584 3186 3129 
Q 3597 2675 3597 1894 
z
M 3022 2063 
Q 3016 2534 2758 2815 
Q 2500 3097 2075 3097 
Q 1594 3097 1305 2825 
Q 1016 2553 972 2059 
L 3022 2063 
z
" transform="scale(0.015625)"/>
      </defs>
      <use xlink:href="#DejaVuSans-54"/>
      <use xlink:href="#DejaVuSans-72" transform="translate(46.333984 0)"/>
      <use xlink:href="#DejaVuSans-61" transform="translate(87.447266 0)"/>
      <use xlink:href="#DejaVuSans-69" transform="translate(148.726562 0)"/>
      <use xlink:href="#DejaVuSans-6e" transform="translate(176.509766 0)"/>
      <use xlink:href="#DejaVuSans-69" transform="translate(239.888672 0)"/>
      <use xlink:href="#DejaVuSans-6e" transform="translate(267.671875 0)"/>
      <use xlink:href="#DejaVuSans-67" transform="translate(331.050781 0)"/>
      <use xlink:href="#DejaVuSans-2d" transform="translate(394.527344 0)"/>
      <use xlink:href="#DejaVuSans-53" transform="translate(430.611328 0)"/>
      <use xlink:href="#DejaVuSans-6f" transform="translate(494.087891 0)"/>
      <use xlink:href="#DejaVuSans-75" transform="translate(555.269531 0)"/>
      <use xlink:href="#DejaVuSans-72" transform="translate(618.648438 0)"/>
      <use xlink:href="#DejaVuSans-63" transform="translate(657.511719 0)"/>
      <use xlink:href="#DejaVuSans-65" transform="translate(712.492188 0)"/>
     </g>
    </g>
    <g id="line2d_17">
     <path d="M 523.439062 70.976562 
L 533.439062 70.976562 
L 543.439062 70.976562 
" style="fill: none; stroke: #ff7f0e; stroke-width: 1.5; stroke-linecap: square"/>
    </g>
    <g id="text_16">
     <!-- Training-Target -->
     <g transform="translate(551.439062 74.476562) scale(0.1 -0.1)">
      <use xlink:href="#DejaVuSans-54"/>
      <use xlink:href="#DejaVuSans-72" transform="translate(46.333984 0)"/>
      <use xlink:href="#DejaVuSans-61" transform="translate(87.447266 0)"/>
      <use xlink:href="#DejaVuSans-69" transform="translate(148.726562 0)"/>
      <use xlink:href="#DejaVuSans-6e" transform="translate(176.509766 0)"/>
      <use xlink:href="#DejaVuSans-69" transform="translate(239.888672 0)"/>
      <use xlink:href="#DejaVuSans-6e" transform="translate(267.671875 0)"/>
      <use xlink:href="#DejaVuSans-67" transform="translate(331.050781 0)"/>
      <use xlink:href="#DejaVuSans-2d" transform="translate(394.527344 0)"/>
      <use xlink:href="#DejaVuSans-54" transform="translate(421.486328 0)"/>
      <use xlink:href="#DejaVuSans-61" transform="translate(466.070312 0)"/>
      <use xlink:href="#DejaVuSans-72" transform="translate(527.349609 0)"/>
      <use xlink:href="#DejaVuSans-67" transform="translate(566.712891 0)"/>
      <use xlink:href="#DejaVuSans-65" transform="translate(630.189453 0)"/>
      <use xlink:href="#DejaVuSans-74" transform="translate(691.712891 0)"/>
     </g>
    </g>
    <g id="line2d_18">
     <path d="M 523.439062 85.654687 
L 533.439062 85.654687 
L 543.439062 85.654687 
" style="fill: none; stroke: #2ca02c; stroke-width: 1.5; stroke-linecap: square"/>
    </g>
    <g id="text_17">
     <!-- Validating-Source -->
     <g transform="translate(551.439062 89.154687) scale(0.1 -0.1)">
      <use xlink:href="#DejaVuSans-56"/>
      <use xlink:href="#DejaVuSans-61" transform="translate(60.658203 0)"/>
      <use xlink:href="#DejaVuSans-6c" transform="translate(121.9375 0)"/>
      <use xlink:href="#DejaVuSans-69" transform="translate(149.720703 0)"/>
      <use xlink:href="#DejaVuSans-64" transform="translate(177.503906 0)"/>
      <use xlink:href="#DejaVuSans-61" transform="translate(240.980469 0)"/>
      <use xlink:href="#DejaVuSans-74" transform="translate(302.259766 0)"/>
      <use xlink:href="#DejaVuSans-69" transform="translate(341.46875 0)"/>
      <use xlink:href="#DejaVuSans-6e" transform="translate(369.251953 0)"/>
      <use xlink:href="#DejaVuSans-67" transform="translate(432.630859 0)"/>
      <use xlink:href="#DejaVuSans-2d" transform="translate(496.107422 0)"/>
      <use xlink:href="#DejaVuSans-53" transform="translate(532.191406 0)"/>
      <use xlink:href="#DejaVuSans-6f" transform="translate(595.667969 0)"/>
      <use xlink:href="#DejaVuSans-75" transform="translate(656.849609 0)"/>
      <use xlink:href="#DejaVuSans-72" transform="translate(720.228516 0)"/>
      <use xlink:href="#DejaVuSans-63" transform="translate(759.091797 0)"/>
      <use xlink:href="#DejaVuSans-65" transform="translate(814.072266 0)"/>
     </g>
    </g>
    <g id="line2d_19">
     <path d="M 523.439062 100.332812 
L 533.439062 100.332812 
L 543.439062 100.332812 
" style="fill: none; stroke: #d62728; stroke-width: 1.5; stroke-linecap: square"/>
    </g>
    <g id="text_18">
     <!-- Validating-Target -->
     <g transform="translate(551.439062 103.832812) scale(0.1 -0.1)">
      <use xlink:href="#DejaVuSans-56"/>
      <use xlink:href="#DejaVuSans-61" transform="translate(60.658203 0)"/>
      <use xlink:href="#DejaVuSans-6c" transform="translate(121.9375 0)"/>
      <use xlink:href="#DejaVuSans-69" transform="translate(149.720703 0)"/>
      <use xlink:href="#DejaVuSans-64" transform="translate(177.503906 0)"/>
      <use xlink:href="#DejaVuSans-61" transform="translate(240.980469 0)"/>
      <use xlink:href="#DejaVuSans-74" transform="translate(302.259766 0)"/>
      <use xlink:href="#DejaVuSans-69" transform="translate(341.46875 0)"/>
      <use xlink:href="#DejaVuSans-6e" transform="translate(369.251953 0)"/>
      <use xlink:href="#DejaVuSans-67" transform="translate(432.630859 0)"/>
      <use xlink:href="#DejaVuSans-2d" transform="translate(496.107422 0)"/>
      <use xlink:href="#DejaVuSans-54" transform="translate(523.066406 0)"/>
      <use xlink:href="#DejaVuSans-61" transform="translate(567.650391 0)"/>
      <use xlink:href="#DejaVuSans-72" transform="translate(628.929688 0)"/>
      <use xlink:href="#DejaVuSans-67" transform="translate(668.292969 0)"/>
      <use xlink:href="#DejaVuSans-65" transform="translate(731.769531 0)"/>
      <use xlink:href="#DejaVuSans-74" transform="translate(793.292969 0)"/>
     </g>
    </g>
   </g>
  </g>
 </g>
 <defs>
  <clipPath id="p55af768819">
   <rect x="90" y="43.2" width="558" height="277.2"/>
  </clipPath>
 </defs>
</svg>
