<?xml version="1.0" encoding="utf-8" standalone="no"?>
<!DOCTYPE svg PUBLIC "-//W3C//DTD SVG 1.1//EN"
  "http://www.w3.org/Graphics/SVG/1.1/DTD/svg11.dtd">
<svg xmlns:xlink="http://www.w3.org/1999/xlink" width="720pt" height="360pt" viewBox="0 0 720 360" xmlns="http://www.w3.org/2000/svg" version="1.1">
 <metadata>
  <rdf:RDF xmlns:dc="http://purl.org/dc/elements/1.1/" xmlns:cc="http://creativecommons.org/ns#" xmlns:rdf="http://www.w3.org/1999/02/22-rdf-syntax-ns#">
   <cc:Work>
    <dc:type rdf:resource="http://purl.org/dc/dcmitype/StillImage"/>
    <dc:date>2025-10-27T03:53:34.898215</dc:date>
    <dc:format>image/svg+xml</dc:format>
    <dc:creator>
     <cc:Agent>
      <dc:title>Matplotlib v3.10.1, https://matplotlib.org/</dc:title>
     </cc:Agent>
    </dc:creator>
   </cc:Work>
  </rdf:RDF>
 </metadata>
 <defs>
  <style type="text/css">*{stroke-linejoin: round; stroke-linecap: butt}</style>
 </defs>
 <g id="figure_1">
  <g id="patch_1">
   <path d="M 0 360 
L 720 360 
L 720 0 
L 0 0 
z
" style="fill: #ffffff"/>
  </g>
  <g id="axes_1">
   <g id="patch_2">
    <path d="M 90 320.4 
L 648 320.4 
L 648 43.2 
L 90 43.2 
z
" style="fill: #ffffff"/>
   </g>
   <g id="matplotlib.axis_1">
    <g id="xtick_1">
     <g id="line2d_1">
      <defs>
       <path id="mfd2c19acfa" d="M 0 0 
L 0 3.5 
" style="stroke: #000000; stroke-width: 0.8"/>
      </defs>
      <g>
       <use xlink:href="#mfd2c19acfa" x="115.363636" y="320.4" style="stroke: #000000; stroke-width: 0.8"/>
      </g>
     </g>
     <g id="text_1">
      <!-- 0 -->
      <g transform="translate(112.182386 334.998438) scale(0.1 -0.1)">
       <defs>
        <path id="DejaVuSans-30" d="M 2034 4250 
Q 1547 4250 1301 3770 
Q 1056 3291 1056 2328 
Q 1056 1369 1301 889 
Q 1547 409 2034 409 
Q 2525 409 2770 889 
Q 3016 1369 3016 2328 
Q 3016 3291 2770 3770 
Q 2525 4250 2034 4250 
z
M 2034 4750 
Q 2819 4750 3233 4129 
Q 3647 3509 3647 2328 
Q 3647 1150 3233 529 
Q 2819 -91 2034 -91 
Q 1250 -91 836 529 
Q 422 1150 422 2328 
Q 422 3509 836 4129 
Q 1250 4750 2034 4750 
z
" transform="scale(0.015625)"/>
       </defs>
       <use xlink:href="#DejaVuSans-30"/>
      </g>
     </g>
    </g>
    <g id="xtick_2">
     <g id="line2d_2">
      <g>
       <use xlink:href="#mfd2c19acfa" x="217.157495" y="320.4" style="stroke: #000000; stroke-width: 0.8"/>
      </g>
     </g>
     <g id="text_2">
      <!-- 60 -->
      <g transform="translate(210.794995 334.998438) scale(0.1 -0.1)">
       <defs>
        <path id="DejaVuSans-36" d="M 2113 2584 
Q 1688 2584 1439 2293 
Q 1191 2003 1191 1497 
Q 1191 994 1439 701 
Q 1688 409 2113 409 
Q 2538 409 2786 701 
Q 3034 994 3034 1497 
Q 3034 2003 2786 2293 
Q 2538 2584 2113 2584 
z
M 3366 4563 
L 3366 3988 
Q 3128 4100 2886 4159 
Q 2644 4219 2406 4219 
Q 1781 4219 1451 3797 
Q 1122 3375 1075 2522 
Q 1259 2794 1537 2939 
Q 1816 3084 2150 3084 
Q 2853 3084 3261 2657 
Q 3669 2231 3669 1497 
Q 3669 778 3244 343 
Q 2819 -91 2113 -91 
Q 1303 -91 875 529 
Q 447 1150 447 2328 
Q 447 3434 972 4092 
Q 1497 4750 2381 4750 
Q 2619 4750 2861 4703 
Q 3103 4656 3366 4563 
z
" transform="scale(0.015625)"/>
       </defs>
       <use xlink:href="#DejaVuSans-36"/>
       <use xlink:href="#DejaVuSans-30" transform="translate(63.623047 0)"/>
      </g>
     </g>
    </g>
    <g id="xtick_3">
     <g id="line2d_3">
      <g>
       <use xlink:href="#mfd2c19acfa" x="318.951353" y="320.4" style="stroke: #000000; stroke-width: 0.8"/>
      </g>
     </g>
     <g id="text_3">
      <!-- 120 -->
      <g transform="translate(309.407603 334.998438) scale(0.1 -0.1)">
       <defs>
        <path id="DejaVuSans-31" d="M 794 531 
L 1825 531 
L 1825 4091 
L 703 3866 
L 703 4441 
L 1819 4666 
L 2450 4666 
L 2450 531 
L 3481 531 
L 3481 0 
L 794 0 
L 794 531 
z
" transform="scale(0.015625)"/>
        <path id="DejaVuSans-32" d="M 1228 531 
L 3431 531 
L 3431 0 
L 469 0 
L 469 531 
Q 828 903 1448 1529 
Q 2069 2156 2228 2338 
Q 2531 2678 2651 2914 
Q 2772 3150 2772 3378 
Q 2772 3750 2511 3984 
Q 2250 4219 1831 4219 
Q 1534 4219 1204 4116 
Q 875 4013 500 3803 
L 500 4441 
Q 881 4594 1212 4672 
Q 1544 4750 1819 4750 
Q 2544 4750 2975 4387 
Q 3406 4025 3406 3419 
Q 3406 3131 3298 2873 
Q 3191 2616 2906 2266 
Q 2828 2175 2409 1742 
Q 1991 1309 1228 531 
z
" transform="scale(0.015625)"/>
       </defs>
       <use xlink:href="#DejaVuSans-31"/>
       <use xlink:href="#DejaVuSans-32" transform="translate(63.623047 0)"/>
       <use xlink:href="#DejaVuSans-30" transform="translate(127.246094 0)"/>
      </g>
     </g>
    </g>
    <g id="xtick_4">
     <g id="line2d_4">
      <g>
       <use xlink:href="#mfd2c19acfa" x="420.745211" y="320.4" style="stroke: #000000; stroke-width: 0.8"/>
      </g>
     </g>
     <g id="text_4">
      <!-- 180 -->
      <g transform="translate(411.201461 334.998438) scale(0.1 -0.1)">
       <defs>
        <path id="DejaVuSans-38" d="M 2034 2216 
Q 1584 2216 1326 1975 
Q 1069 1734 1069 1313 
Q 1069 891 1326 650 
Q 1584 409 2034 409 
Q 2484 409 2743 651 
Q 3003 894 3003 1313 
Q 3003 1734 2745 1975 
Q 2488 2216 2034 2216 
z
M 1403 2484 
Q 997 2584 770 2862 
Q 544 3141 544 3541 
Q 544 4100 942 4425 
Q 1341 4750 2034 4750 
Q 2731 4750 3128 4425 
Q 3525 4100 3525 3541 
Q 3525 3141 3298 2862 
Q 3072 2584 2669 2484 
Q 3125 2378 3379 2068 
Q 3634 1759 3634 1313 
Q 3634 634 3220 271 
Q 2806 -91 2034 -91 
Q 1263 -91 848 271 
Q 434 634 434 1313 
Q 434 1759 690 2068 
Q 947 2378 1403 2484 
z
M 1172 3481 
Q 1172 3119 1398 2916 
Q 1625 2713 2034 2713 
Q 2441 2713 2670 2916 
Q 2900 3119 2900 3481 
Q 2900 3844 2670 4047 
Q 2441 4250 2034 4250 
Q 1625 4250 1398 4047 
Q 1172 3844 1172 3481 
z
" transform="scale(0.015625)"/>
       </defs>
       <use xlink:href="#DejaVuSans-31"/>
       <use xlink:href="#DejaVuSans-38" transform="translate(63.623047 0)"/>
       <use xlink:href="#DejaVuSans-30" transform="translate(127.246094 0)"/>
      </g>
     </g>
    </g>
    <g id="xtick_5">
     <g id="line2d_5">
      <g>
       <use xlink:href="#mfd2c19acfa" x="522.53907" y="320.4" style="stroke: #000000; stroke-width: 0.8"/>
      </g>
     </g>
     <g id="text_5">
      <!-- 240 -->
      <g transform="translate(512.99532 334.998438) scale(0.1 -0.1)">
       <defs>
        <path id="DejaVuSans-34" d="M 2419 4116 
L 825 1625 
L 2419 1625 
L 2419 4116 
z
M 2253 4666 
L 3047 4666 
L 3047 1625 
L 3713 1625 
L 3713 1100 
L 3047 1100 
L 3047 0 
L 2419 0 
L 2419 1100 
L 313 1100 
L 313 1709 
L 2253 4666 
z
" transform="scale(0.015625)"/>
       </defs>
       <use xlink:href="#DejaVuSans-32"/>
       <use xlink:href="#DejaVuSans-34" transform="translate(63.623047 0)"/>
       <use xlink:href="#DejaVuSans-30" transform="translate(127.246094 0)"/>
      </g>
     </g>
    </g>
    <g id="text_6">
     <!-- Epoch -->
     <g transform="translate(353.689062 348.676562) scale(0.1 -0.1)">
      <defs>
       <path id="DejaVuSans-45" d="M 628 4666 
L 3578 4666 
L 3578 4134 
L 1259 4134 
L 1259 2753 
L 3481 2753 
L 3481 2222 
L 1259 2222 
L 1259 531 
L 3634 531 
L 3634 0 
L 628 0 
L 628 4666 
z
" transform="scale(0.015625)"/>
       <path id="DejaVuSans-70" d="M 1159 525 
L 1159 -1331 
L 581 -1331 
L 581 3500 
L 1159 3500 
L 1159 2969 
Q 1341 3281 1617 3432 
Q 1894 3584 2278 3584 
Q 2916 3584 3314 3078 
Q 3713 2572 3713 1747 
Q 3713 922 3314 415 
Q 2916 -91 2278 -91 
Q 1894 -91 1617 61 
Q 1341 213 1159 525 
z
M 3116 1747 
Q 3116 2381 2855 2742 
Q 2594 3103 2138 3103 
Q 1681 3103 1420 2742 
Q 1159 2381 1159 1747 
Q 1159 1113 1420 752 
Q 1681 391 2138 391 
Q 2594 391 2855 752 
Q 3116 1113 3116 1747 
z
" transform="scale(0.015625)"/>
       <path id="DejaVuSans-6f" d="M 1959 3097 
Q 1497 3097 1228 2736 
Q 959 2375 959 1747 
Q 959 1119 1226 758 
Q 1494 397 1959 397 
Q 2419 397 2687 759 
Q 2956 1122 2956 1747 
Q 2956 2369 2687 2733 
Q 2419 3097 1959 3097 
z
M 1959 3584 
Q 2709 3584 3137 3096 
Q 3566 2609 3566 1747 
Q 3566 888 3137 398 
Q 2709 -91 1959 -91 
Q 1206 -91 779 398 
Q 353 888 353 1747 
Q 353 2609 779 3096 
Q 1206 3584 1959 3584 
z
" transform="scale(0.015625)"/>
       <path id="DejaVuSans-63" d="M 3122 3366 
L 3122 2828 
Q 2878 2963 2633 3030 
Q 2388 3097 2138 3097 
Q 1578 3097 1268 2742 
Q 959 2388 959 1747 
Q 959 1106 1268 751 
Q 1578 397 2138 397 
Q 2388 397 2633 464 
Q 2878 531 3122 666 
L 3122 134 
Q 2881 22 2623 -34 
Q 2366 -91 2075 -91 
Q 1284 -91 818 406 
Q 353 903 353 1747 
Q 353 2603 823 3093 
Q 1294 3584 2113 3584 
Q 2378 3584 2631 3529 
Q 2884 3475 3122 3366 
z
" transform="scale(0.015625)"/>
       <path id="DejaVuSans-68" d="M 3513 2113 
L 3513 0 
L 2938 0 
L 2938 2094 
Q 2938 2591 2744 2837 
Q 2550 3084 2163 3084 
Q 1697 3084 1428 2787 
Q 1159 2491 1159 1978 
L 1159 0 
L 581 0 
L 581 4863 
L 1159 4863 
L 1159 2956 
Q 1366 3272 1645 3428 
Q 1925 3584 2291 3584 
Q 2894 3584 3203 3211 
Q 3513 2838 3513 2113 
z
" transform="scale(0.015625)"/>
      </defs>
      <use xlink:href="#DejaVuSans-45"/>
      <use xlink:href="#DejaVuSans-70" transform="translate(63.183594 0)"/>
      <use xlink:href="#DejaVuSans-6f" transform="translate(126.660156 0)"/>
      <use xlink:href="#DejaVuSans-63" transform="translate(187.841797 0)"/>
      <use xlink:href="#DejaVuSans-68" transform="translate(242.822266 0)"/>
     </g>
    </g>
   </g>
   <g id="matplotlib.axis_2">
    <g id="ytick_1">
     <g id="line2d_6">
      <defs>
       <path id="m45713f1b1c" d="M 0 0 
L -3.5 0 
" style="stroke: #000000; stroke-width: 0.8"/>
      </defs>
      <g>
       <use xlink:href="#m45713f1b1c" x="90" y="282.665377" style="stroke: #000000; stroke-width: 0.8"/>
      </g>
     </g>
     <g id="text_7">
      <!-- 2 -->
      <g transform="translate(76.6375 286.464595) scale(0.1 -0.1)">
       <use xlink:href="#DejaVuSans-32"/>
      </g>
     </g>
    </g>
    <g id="ytick_2">
     <g id="line2d_7">
      <g>
       <use xlink:href="#m45713f1b1c" x="90" y="233.810924" style="stroke: #000000; stroke-width: 0.8"/>
      </g>
     </g>
     <g id="text_8">
      <!-- 3 -->
      <g transform="translate(76.6375 237.610143) scale(0.1 -0.1)">
       <defs>
        <path id="DejaVuSans-33" d="M 2597 2516 
Q 3050 2419 3304 2112 
Q 3559 1806 3559 1356 
Q 3559 666 3084 287 
Q 2609 -91 1734 -91 
Q 1441 -91 1130 -33 
Q 819 25 488 141 
L 488 750 
Q 750 597 1062 519 
Q 1375 441 1716 441 
Q 2309 441 2620 675 
Q 2931 909 2931 1356 
Q 2931 1769 2642 2001 
Q 2353 2234 1838 2234 
L 1294 2234 
L 1294 2753 
L 1863 2753 
Q 2328 2753 2575 2939 
Q 2822 3125 2822 3475 
Q 2822 3834 2567 4026 
Q 2313 4219 1838 4219 
Q 1578 4219 1281 4162 
Q 984 4106 628 3988 
L 628 4550 
Q 988 4650 1302 4700 
Q 1616 4750 1894 4750 
Q 2613 4750 3031 4423 
Q 3450 4097 3450 3541 
Q 3450 3153 3228 2886 
Q 3006 2619 2597 2516 
z
" transform="scale(0.015625)"/>
       </defs>
       <use xlink:href="#DejaVuSans-33"/>
      </g>
     </g>
    </g>
    <g id="ytick_3">
     <g id="line2d_8">
      <g>
       <use xlink:href="#m45713f1b1c" x="90" y="184.956471" style="stroke: #000000; stroke-width: 0.8"/>
      </g>
     </g>
     <g id="text_9">
      <!-- 4 -->
      <g transform="translate(76.6375 188.75569) scale(0.1 -0.1)">
       <use xlink:href="#DejaVuSans-34"/>
      </g>
     </g>
    </g>
    <g id="ytick_4">
     <g id="line2d_9">
      <g>
       <use xlink:href="#m45713f1b1c" x="90" y="136.102018" style="stroke: #000000; stroke-width: 0.8"/>
      </g>
     </g>
     <g id="text_10">
      <!-- 5 -->
      <g transform="translate(76.6375 139.901237) scale(0.1 -0.1)">
       <defs>
        <path id="DejaVuSans-35" d="M 691 4666 
L 3169 4666 
L 3169 4134 
L 1269 4134 
L 1269 2991 
Q 1406 3038 1543 3061 
Q 1681 3084 1819 3084 
Q 2600 3084 3056 2656 
Q 3513 2228 3513 1497 
Q 3513 744 3044 326 
Q 2575 -91 1722 -91 
Q 1428 -91 1123 -41 
Q 819 9 494 109 
L 494 744 
Q 775 591 1075 516 
Q 1375 441 1709 441 
Q 2250 441 2565 725 
Q 2881 1009 2881 1497 
Q 2881 1984 2565 2268 
Q 2250 2553 1709 2553 
Q 1456 2553 1204 2497 
Q 953 2441 691 2322 
L 691 4666 
z
" transform="scale(0.015625)"/>
       </defs>
       <use xlink:href="#DejaVuSans-35"/>
      </g>
     </g>
    </g>
    <g id="ytick_5">
     <g id="line2d_10">
      <g>
       <use xlink:href="#m45713f1b1c" x="90" y="87.247565" style="stroke: #000000; stroke-width: 0.8"/>
      </g>
     </g>
     <g id="text_11">
      <!-- 6 -->
      <g transform="translate(76.6375 91.046784) scale(0.1 -0.1)">
       <use xlink:href="#DejaVuSans-36"/>
      </g>
     </g>
    </g>
    <g id="text_12">
     <!-- Estimation Loss -->
     <g transform="translate(70.557812 220.98125) rotate(-90) scale(0.1 -0.1)">
      <defs>
       <path id="DejaVuSans-73" d="M 2834 3397 
L 2834 2853 
Q 2591 2978 2328 3040 
Q 2066 3103 1784 3103 
Q 1356 3103 1142 2972 
Q 928 2841 928 2578 
Q 928 2378 1081 2264 
Q 1234 2150 1697 2047 
L 1894 2003 
Q 2506 1872 2764 1633 
Q 3022 1394 3022 966 
Q 3022 478 2636 193 
Q 2250 -91 1575 -91 
Q 1294 -91 989 -36 
Q 684 19 347 128 
L 347 722 
Q 666 556 975 473 
Q 1284 391 1588 391 
Q 1994 391 2212 530 
Q 2431 669 2431 922 
Q 2431 1156 2273 1281 
Q 2116 1406 1581 1522 
L 1381 1569 
Q 847 1681 609 1914 
Q 372 2147 372 2553 
Q 372 3047 722 3315 
Q 1072 3584 1716 3584 
Q 2034 3584 2315 3537 
Q 2597 3491 2834 3397 
z
" transform="scale(0.015625)"/>
       <path id="DejaVuSans-74" d="M 1172 4494 
L 1172 3500 
L 2356 3500 
L 2356 3053 
L 1172 3053 
L 1172 1153 
Q 1172 725 1289 603 
Q 1406 481 1766 481 
L 2356 481 
L 2356 0 
L 1766 0 
Q 1100 0 847 248 
Q 594 497 594 1153 
L 594 3053 
L 172 3053 
L 172 3500 
L 594 3500 
L 594 4494 
L 1172 4494 
z
" transform="scale(0.015625)"/>
       <path id="DejaVuSans-69" d="M 603 3500 
L 1178 3500 
L 1178 0 
L 603 0 
L 603 3500 
z
M 603 4863 
L 1178 4863 
L 1178 4134 
L 603 4134 
L 603 4863 
z
" transform="scale(0.015625)"/>
       <path id="DejaVuSans-6d" d="M 3328 2828 
Q 3544 3216 3844 3400 
Q 4144 3584 4550 3584 
Q 5097 3584 5394 3201 
Q 5691 2819 5691 2113 
L 5691 0 
L 5113 0 
L 5113 2094 
Q 5113 2597 4934 2840 
Q 4756 3084 4391 3084 
Q 3944 3084 3684 2787 
Q 3425 2491 3425 1978 
L 3425 0 
L 2847 0 
L 2847 2094 
Q 2847 2600 2669 2842 
Q 2491 3084 2119 3084 
Q 1678 3084 1418 2786 
Q 1159 2488 1159 1978 
L 1159 0 
L 581 0 
L 581 3500 
L 1159 3500 
L 1159 2956 
Q 1356 3278 1631 3431 
Q 1906 3584 2284 3584 
Q 2666 3584 2933 3390 
Q 3200 3197 3328 2828 
z
" transform="scale(0.015625)"/>
       <path id="DejaVuSans-61" d="M 2194 1759 
Q 1497 1759 1228 1600 
Q 959 1441 959 1056 
Q 959 750 1161 570 
Q 1363 391 1709 391 
Q 2188 391 2477 730 
Q 2766 1069 2766 1631 
L 2766 1759 
L 2194 1759 
z
M 3341 1997 
L 3341 0 
L 2766 0 
L 2766 531 
Q 2569 213 2275 61 
Q 1981 -91 1556 -91 
Q 1019 -91 701 211 
Q 384 513 384 1019 
Q 384 1609 779 1909 
Q 1175 2209 1959 2209 
L 2766 2209 
L 2766 2266 
Q 2766 2663 2505 2880 
Q 2244 3097 1772 3097 
Q 1472 3097 1187 3025 
Q 903 2953 641 2809 
L 641 3341 
Q 956 3463 1253 3523 
Q 1550 3584 1831 3584 
Q 2591 3584 2966 3190 
Q 3341 2797 3341 1997 
z
" transform="scale(0.015625)"/>
       <path id="DejaVuSans-6e" d="M 3513 2113 
L 3513 0 
L 2938 0 
L 2938 2094 
Q 2938 2591 2744 2837 
Q 2550 3084 2163 3084 
Q 1697 3084 1428 2787 
Q 1159 2491 1159 1978 
L 1159 0 
L 581 0 
L 581 3500 
L 1159 3500 
L 1159 2956 
Q 1366 3272 1645 3428 
Q 1925 3584 2291 3584 
Q 2894 3584 3203 3211 
Q 3513 2838 3513 2113 
z
" transform="scale(0.015625)"/>
       <path id="DejaVuSans-20" transform="scale(0.015625)"/>
       <path id="DejaVuSans-4c" d="M 628 4666 
L 1259 4666 
L 1259 531 
L 3531 531 
L 3531 0 
L 628 0 
L 628 4666 
z
" transform="scale(0.015625)"/>
      </defs>
      <use xlink:href="#DejaVuSans-45"/>
      <use xlink:href="#DejaVuSans-73" transform="translate(63.183594 0)"/>
      <use xlink:href="#DejaVuSans-74" transform="translate(115.283203 0)"/>
      <use xlink:href="#DejaVuSans-69" transform="translate(154.492188 0)"/>
      <use xlink:href="#DejaVuSans-6d" transform="translate(182.275391 0)"/>
      <use xlink:href="#DejaVuSans-61" transform="translate(279.6875 0)"/>
      <use xlink:href="#DejaVuSans-74" transform="translate(340.966797 0)"/>
      <use xlink:href="#DejaVuSans-69" transform="translate(380.175781 0)"/>
      <use xlink:href="#DejaVuSans-6f" transform="translate(407.958984 0)"/>
      <use xlink:href="#DejaVuSans-6e" transform="translate(469.140625 0)"/>
      <use xlink:href="#DejaVuSans-20" transform="translate(532.519531 0)"/>
      <use xlink:href="#DejaVuSans-4c" transform="translate(564.306641 0)"/>
      <use xlink:href="#DejaVuSans-6f" transform="translate(618.269531 0)"/>
      <use xlink:href="#DejaVuSans-73" transform="translate(679.451172 0)"/>
      <use xlink:href="#DejaVuSans-73" transform="translate(731.550781 0)"/>
     </g>
    </g>
   </g>
   <g id="line2d_11">
    <path d="M 115.363636 257.043774 
L 117.060201 267.709823 
L 118.756765 270.781476 
L 120.453329 272.683692 
L 122.149894 274.132726 
L 125.543022 276.311424 
L 130.632715 278.531922 
L 137.418972 280.607431 
L 142.508665 281.942925 
L 145.901794 282.725857 
L 147.598358 282.944055 
L 152.688051 283.986617 
L 159.474308 285.190681 
L 161.170873 285.399413 
L 164.564001 286.040863 
L 173.046823 287.280463 
L 174.743387 287.603379 
L 176.439951 287.704132 
L 183.226209 288.784769 
L 188.315901 289.480203 
L 196.798723 290.664876 
L 206.978109 291.850212 
L 210.371237 292.254272 
L 217.157495 293.02516 
L 220.550623 293.499156 
L 222.247188 293.588863 
L 223.943752 293.962136 
L 225.640316 293.916532 
L 227.336881 293.992286 
L 237.516266 295.363882 
L 242.605959 295.679198 
L 247.695652 296.20295 
L 252.785345 296.51367 
L 254.481909 296.838732 
L 256.178474 297.021146 
L 257.875038 297.07415 
L 259.571602 296.897497 
L 262.964731 297.506054 
L 264.661295 297.512873 
L 266.35786 297.714135 
L 268.054424 297.796188 
L 269.750988 297.729403 
L 271.447552 298.242656 
L 273.144117 298.381469 
L 274.840681 298.266415 
L 276.537245 298.5912 
L 279.930374 298.595498 
L 281.626938 298.814386 
L 283.323503 298.733382 
L 285.020067 299.042924 
L 288.413196 299.152382 
L 290.10976 299.291781 
L 291.806324 299.279222 
L 293.502888 299.486241 
L 295.199453 299.563693 
L 296.896017 299.372944 
L 300.289146 299.830719 
L 307.075403 299.964179 
L 308.771967 300.395156 
L 312.165096 300.222858 
L 313.86166 300.51206 
L 315.558224 300.559653 
L 317.254789 300.294995 
L 318.951353 300.808718 
L 320.647917 300.669696 
L 322.344482 300.991187 
L 325.73761 301.00508 
L 329.130739 301.148838 
L 330.827303 300.889693 
L 335.916996 301.348212 
L 337.61356 301.351758 
L 339.310125 301.504194 
L 342.703253 301.189483 
L 344.399818 301.684485 
L 346.096382 301.885571 
L 347.792946 301.900113 
L 351.186075 301.706096 
L 352.882639 301.997225 
L 354.579203 302.00059 
L 356.275768 301.753639 
L 357.972332 301.949296 
L 359.668896 302.298348 
L 363.062025 302.296517 
L 364.758589 302.704076 
L 366.455154 302.049918 
L 368.151718 302.612908 
L 369.848282 302.711666 
L 373.241411 302.643946 
L 376.634539 302.788401 
L 378.331104 302.643795 
L 380.027668 302.777622 
L 381.724232 302.766204 
L 383.420797 303.221345 
L 385.117361 302.842325 
L 386.813925 302.645259 
L 388.51049 302.685564 
L 390.207054 303.119099 
L 391.903618 303.293045 
L 393.600182 303.008139 
L 395.296747 303.405216 
L 396.993311 303.242042 
L 400.38644 303.371571 
L 403.779568 303.069915 
L 405.476133 303.476016 
L 407.172697 303.42477 
L 408.869261 303.921256 
L 412.26239 303.620316 
L 413.958954 303.347373 
L 415.655518 303.924776 
L 417.352083 303.841959 
L 419.048647 304.221994 
L 422.441776 303.413401 
L 424.13834 304.028958 
L 425.834904 303.88924 
L 427.531469 304.123768 
L 429.228033 303.977114 
L 430.924597 304.651954 
L 432.621161 304.260454 
L 437.710854 304.110981 
L 439.407419 304.33357 
L 441.103983 304.312862 
L 442.800547 304.432687 
L 444.497112 303.937107 
L 446.193676 304.203254 
L 447.89024 304.714552 
L 449.586804 303.862712 
L 451.283369 304.676455 
L 452.979933 304.150794 
L 454.676497 304.105428 
L 458.069626 304.909499 
L 459.76619 304.357953 
L 463.159319 304.65439 
L 464.855883 304.788058 
L 466.552448 305.254624 
L 468.249012 304.787813 
L 469.945576 305.074561 
L 471.64214 304.879337 
L 473.338705 305.035479 
L 475.035269 304.9831 
L 478.428398 305.178152 
L 480.124962 305.043946 
L 481.821526 305.166808 
L 485.214655 304.738772 
L 486.911219 305.14366 
L 488.607784 305.309154 
L 490.304348 305.126134 
L 492.000912 305.335017 
L 493.697476 305.141755 
L 495.394041 305.45337 
L 497.090605 305.126654 
L 498.787169 305.194763 
L 500.483734 305.847766 
L 503.876862 305.402506 
L 505.573427 305.82617 
L 507.269991 305.470525 
L 510.663119 305.862242 
L 512.359684 305.741904 
L 514.056248 305.375909 
L 515.752812 305.797314 
L 517.449377 306.015425 
L 519.145941 305.732139 
L 520.842505 306.139258 
L 522.53907 305.8601 
L 525.932198 306.086072 
L 527.628763 305.782298 
L 529.325327 306.308733 
L 531.021891 305.848942 
L 532.718455 306.091046 
L 534.41502 305.993518 
L 536.111584 306.506027 
L 537.808148 306.346343 
L 539.504713 306.538226 
L 541.201277 306.219297 
L 544.594406 306.330724 
L 546.29097 306.763845 
L 547.987534 305.921068 
L 549.684099 306.336762 
L 553.077227 306.539489 
L 554.773791 306.806106 
L 558.16692 306.489318 
L 559.863484 306.750633 
L 561.560049 306.878777 
L 563.256613 306.710237 
L 564.953177 307.076187 
L 566.649742 306.956156 
L 568.346306 306.566867 
L 570.04287 306.872525 
L 571.739434 307.005326 
L 573.435999 307.39859 
L 575.132563 306.944659 
L 580.222256 307.056788 
L 581.91882 306.966699 
L 583.615385 307.193425 
L 585.311949 307.073872 
L 587.008513 307.41928 
L 588.705078 307.178482 
L 592.098206 307.394503 
L 593.79477 307.310138 
L 595.491335 307.407764 
L 597.187899 307.295719 
L 600.581028 307.364285 
L 602.277592 306.813241 
L 603.974156 307.623346 
L 605.670721 307.624394 
L 607.367285 307.437788 
L 610.760413 307.582255 
L 612.456978 307.283531 
L 615.850106 307.51175 
L 619.243235 307.288388 
L 620.939799 307.8 
L 622.636364 307.66474 
L 622.636364 307.66474 
" clip-path="url(#pa751c5750b)" style="fill: none; stroke: #1f77b4; stroke-width: 1.5; stroke-linecap: square"/>
   </g>
   <g id="line2d_12">
    <path d="M 115.363636 225.438775 
L 117.060201 225.7901 
L 118.756765 224.695183 
L 120.453329 224.015606 
L 125.543022 223.343353 
L 127.239587 223.30457 
L 128.936151 223.13878 
L 130.632715 223.221545 
L 144.20523 222.14089 
L 147.598358 222.361947 
L 152.688051 222.161702 
L 157.777744 222.195626 
L 161.170873 221.948128 
L 166.260566 222.186217 
L 167.95713 222.057336 
L 169.653694 222.338882 
L 173.046823 222.317206 
L 174.743387 222.51659 
L 176.439951 222.336747 
L 184.922773 222.65581 
L 186.619337 222.868136 
L 188.315901 222.756826 
L 190.012466 222.979648 
L 191.70903 223.05894 
L 195.102159 222.923484 
L 198.495287 223.365101 
L 200.191852 223.291541 
L 203.58498 223.509009 
L 206.978109 223.457584 
L 208.674673 223.49117 
L 210.371237 223.387427 
L 213.764366 223.793183 
L 215.46093 223.6153 
L 217.157495 223.739686 
L 220.550623 224.26584 
L 222.247188 223.944594 
L 223.943752 224.077348 
L 225.640316 223.843107 
L 229.033445 224.488601 
L 230.730009 224.268317 
L 235.819702 224.178457 
L 239.212831 224.423039 
L 240.909395 224.156171 
L 242.605959 224.647725 
L 245.999088 224.494539 
L 247.695652 224.745621 
L 249.392216 224.86538 
L 251.088781 224.843619 
L 254.481909 225.324048 
L 256.178474 224.932304 
L 259.571602 225.130837 
L 261.268167 224.900648 
L 262.964731 225.350477 
L 266.35786 225.163888 
L 268.054424 225.346001 
L 269.750988 225.731114 
L 271.447552 225.569619 
L 273.144117 225.947738 
L 274.840681 225.865737 
L 278.23381 225.860174 
L 279.930374 225.778913 
L 281.626938 225.902856 
L 283.323503 226.18879 
L 285.020067 226.06341 
L 286.716631 226.420156 
L 290.10976 226.377509 
L 291.806324 226.568345 
L 293.502888 226.413635 
L 296.896017 226.597125 
L 298.592581 226.472566 
L 301.98571 226.607845 
L 303.682274 227.001035 
L 305.378839 227.118112 
L 307.075403 227.02165 
L 308.771967 227.159778 
L 310.468531 226.862078 
L 312.165096 227.147318 
L 313.86166 227.238536 
L 315.558224 227.115724 
L 317.254789 227.315754 
L 318.951353 227.279304 
L 320.647917 226.955669 
L 322.344482 227.39187 
L 325.73761 227.728195 
L 327.434175 227.071791 
L 329.130739 227.565253 
L 330.827303 227.543225 
L 332.523867 227.727133 
L 334.220432 227.678787 
L 335.916996 227.055428 
L 337.61356 227.113011 
L 339.310125 227.43672 
L 341.006689 227.381692 
L 342.703253 227.150673 
L 344.399818 227.41593 
L 347.792946 227.485378 
L 349.48951 227.145152 
L 351.186075 227.58916 
L 352.882639 227.425134 
L 354.579203 227.63868 
L 356.275768 227.477572 
L 359.668896 227.57508 
L 363.062025 227.323493 
L 364.758589 227.352396 
L 366.455154 227.572156 
L 368.151718 227.403127 
L 371.544846 227.415226 
L 373.241411 227.315059 
L 374.937975 227.467583 
L 376.634539 226.983593 
L 381.724232 227.302295 
L 383.420797 227.149381 
L 385.117361 227.310243 
L 386.813925 227.245855 
L 388.51049 226.94461 
L 390.207054 227.272914 
L 393.600182 227.078659 
L 395.296747 227.100794 
L 396.993311 227.249729 
L 398.689875 227.158704 
L 400.38644 226.891453 
L 402.083004 227.098506 
L 403.779568 227.175935 
L 407.172697 227.02471 
L 408.869261 227.112231 
L 410.565825 226.847377 
L 412.26239 227.214061 
L 413.958954 226.95102 
L 415.655518 227.085744 
L 417.352083 226.687164 
L 422.441776 227.15599 
L 424.13834 226.46794 
L 427.531469 226.968867 
L 429.228033 227.030498 
L 432.621161 226.303061 
L 434.317726 226.877604 
L 436.01429 226.985534 
L 439.407419 226.981016 
L 441.103983 227.19179 
L 442.800547 226.651626 
L 444.497112 226.502305 
L 447.89024 227.303149 
L 449.586804 226.916056 
L 451.283369 227.401836 
L 452.979933 227.50052 
L 454.676497 227.30742 
L 456.373062 226.920292 
L 463.159319 227.269569 
L 464.855883 226.738964 
L 466.552448 227.318694 
L 469.945576 226.951823 
L 471.64214 226.99975 
L 473.338705 227.191739 
L 475.035269 226.969873 
L 476.731833 227.272287 
L 478.428398 226.862719 
L 480.124962 226.808057 
L 483.518091 227.262564 
L 485.214655 226.321071 
L 486.911219 226.549003 
L 488.607784 227.296695 
L 490.304348 226.851264 
L 492.000912 226.747267 
L 493.697476 227.319211 
L 495.394041 226.501765 
L 497.090605 226.659301 
L 498.787169 226.981319 
L 502.180298 227.1639 
L 503.876862 227.073656 
L 505.573427 227.337211 
L 507.269991 226.765449 
L 508.966555 226.49659 
L 510.663119 226.465825 
L 512.359684 226.71847 
L 514.056248 226.840565 
L 515.752812 226.480772 
L 519.145941 226.307373 
L 520.842505 227.139791 
L 522.53907 226.841035 
L 524.235634 227.023555 
L 525.932198 226.953779 
L 527.628763 226.527268 
L 529.325327 226.929477 
L 534.41502 226.66813 
L 536.111584 226.521085 
L 537.808148 226.246384 
L 544.594406 227.330102 
L 546.29097 227.326202 
L 547.987534 226.850805 
L 549.684099 227.146636 
L 551.380663 227.657509 
L 553.077227 227.590296 
L 554.773791 226.777751 
L 558.16692 227.247942 
L 559.863484 227.180364 
L 561.560049 227.780575 
L 563.256613 227.711524 
L 566.649742 228.122868 
L 570.04287 227.358635 
L 571.739434 227.964962 
L 573.435999 228.018691 
L 578.525692 227.918009 
L 580.222256 227.561763 
L 581.91882 228.282997 
L 583.615385 227.870834 
L 585.311949 227.874853 
L 587.008513 228.175686 
L 588.705078 227.778175 
L 590.401642 227.562721 
L 592.098206 228.33981 
L 593.79477 227.989691 
L 595.491335 229.027077 
L 597.187899 227.931175 
L 598.884463 228.615045 
L 600.581028 227.705833 
L 602.277592 228.21414 
L 603.974156 228.388958 
L 605.670721 228.370121 
L 607.367285 228.160999 
L 609.063849 228.38673 
L 610.760413 228.830835 
L 612.456978 228.305022 
L 614.153542 228.560061 
L 615.850106 228.348224 
L 617.546671 228.740248 
L 619.243235 228.857404 
L 622.636364 228.363044 
L 622.636364 228.363044 
" clip-path="url(#pa751c5750b)" style="fill: none; stroke: #ff7f0e; stroke-width: 1.5; stroke-linecap: square"/>
   </g>
   <g id="line2d_13">
    <path d="M 115.363636 153.398702 
L 117.060201 159.40005 
L 118.756765 162.599826 
L 120.453329 164.666753 
L 122.149894 166.295598 
L 123.846458 167.611615 
L 125.543022 168.744005 
L 127.239587 169.573477 
L 134.025844 172.301248 
L 140.812101 173.507818 
L 142.508665 174.007201 
L 145.901794 173.883865 
L 147.598358 173.837526 
L 150.991487 174.300109 
L 154.384615 174.407617 
L 156.08118 173.963188 
L 157.777744 174.864455 
L 159.474308 174.586942 
L 162.867437 174.672205 
L 166.260566 174.21887 
L 167.95713 173.711778 
L 169.653694 174.286612 
L 171.350258 173.684381 
L 173.046823 175.069606 
L 174.743387 173.617865 
L 176.439951 174.565457 
L 178.136516 174.537002 
L 179.83308 173.157205 
L 181.529644 173.405727 
L 183.226209 173.277977 
L 184.922773 173.274143 
L 186.619337 173.872131 
L 188.315901 172.885494 
L 190.012466 173.022046 
L 191.70903 172.913901 
L 193.405594 172.452995 
L 195.102159 173.226011 
L 196.798723 172.770965 
L 198.495287 172.64063 
L 200.191852 173.125374 
L 201.888416 172.273137 
L 203.58498 172.021749 
L 205.281545 172.375511 
L 206.978109 172.064484 
L 208.674673 172.776489 
L 210.371237 173.118725 
L 212.067802 171.807535 
L 213.764366 171.955052 
L 215.46093 172.650295 
L 217.157495 173.157732 
L 218.854059 172.332757 
L 220.550623 173.118208 
L 222.247188 173.604397 
L 223.943752 173.622506 
L 225.640316 172.600245 
L 227.336881 173.53238 
L 230.730009 173.166425 
L 232.426573 172.789001 
L 234.123138 173.108018 
L 235.819702 172.564622 
L 237.516266 172.728874 
L 239.212831 173.01615 
L 240.909395 172.366712 
L 242.605959 172.303571 
L 244.302524 173.116777 
L 245.999088 172.50857 
L 247.695652 172.649338 
L 249.392216 172.977899 
L 251.088781 172.138403 
L 252.785345 171.789711 
L 254.481909 173.293048 
L 256.178474 171.515081 
L 257.875038 172.890672 
L 259.571602 172.061973 
L 261.268167 172.046483 
L 262.964731 174.382777 
L 264.661295 171.381266 
L 266.35786 172.656598 
L 268.054424 170.620941 
L 271.447552 172.37112 
L 273.144117 171.09398 
L 274.840681 171.679622 
L 276.537245 170.627305 
L 278.23381 172.336195 
L 279.930374 169.863741 
L 281.626938 173.554413 
L 283.323503 172.283715 
L 285.020067 171.674623 
L 286.716631 172.00523 
L 288.413196 170.500689 
L 290.10976 172.166129 
L 291.806324 175.237169 
L 293.502888 172.203829 
L 296.896017 174.767975 
L 298.592581 173.559642 
L 300.289146 173.743883 
L 301.98571 174.108208 
L 305.378839 174.598998 
L 307.075403 173.634553 
L 308.771967 174.619219 
L 310.468531 174.800664 
L 312.165096 174.786101 
L 313.86166 172.615612 
L 315.558224 172.641608 
L 317.254789 173.927479 
L 318.951353 174.435347 
L 320.647917 177.366888 
L 322.344482 175.000588 
L 324.041046 176.780045 
L 325.73761 176.474039 
L 327.434175 175.305641 
L 329.130739 175.650005 
L 330.827303 176.502408 
L 332.523867 174.98791 
L 334.220432 178.553005 
L 335.916996 177.763099 
L 337.61356 177.601151 
L 339.310125 176.327541 
L 341.006689 178.662852 
L 342.703253 177.277987 
L 344.399818 175.425219 
L 346.096382 175.512615 
L 349.48951 177.09343 
L 351.186075 177.012133 
L 352.882639 174.349076 
L 354.579203 175.713643 
L 356.275768 174.459784 
L 357.972332 174.486818 
L 359.668896 177.056181 
L 361.365461 175.533039 
L 363.062025 176.241682 
L 364.758589 176.127883 
L 366.455154 175.480037 
L 368.151718 177.013022 
L 369.848282 174.694778 
L 371.544846 174.420735 
L 373.241411 174.608501 
L 374.937975 172.42332 
L 376.634539 172.585332 
L 378.331104 177.33571 
L 380.027668 173.848681 
L 381.724232 172.519606 
L 383.420797 170.741412 
L 385.117361 173.186652 
L 386.813925 175.145382 
L 388.51049 175.414548 
L 390.207054 169.954815 
L 391.903618 171.041748 
L 393.600182 171.420201 
L 395.296747 173.127135 
L 396.993311 169.776888 
L 398.689875 174.702702 
L 400.38644 172.871511 
L 402.083004 172.086159 
L 403.779568 176.044866 
L 405.476133 174.688487 
L 407.172697 173.584494 
L 408.869261 171.023638 
L 410.565825 174.955391 
L 412.26239 168.889649 
L 415.655518 176.015468 
L 417.352083 176.490901 
L 419.048647 176.324743 
L 420.745211 174.279951 
L 422.441776 176.023429 
L 424.13834 174.711249 
L 425.834904 175.098383 
L 427.531469 176.514824 
L 429.228033 173.503765 
L 430.924597 174.7444 
L 432.621161 174.997609 
L 434.317726 171.749977 
L 436.01429 174.800252 
L 437.710854 176.565907 
L 439.407419 171.471673 
L 441.103983 178.636891 
L 442.800547 177.615392 
L 444.497112 176.242573 
L 446.193676 169.419898 
L 447.89024 169.714616 
L 449.586804 177.229634 
L 451.283369 168.50501 
L 452.979933 177.43214 
L 454.676497 178.531039 
L 456.373062 177.088599 
L 458.069626 176.646571 
L 459.76619 173.447977 
L 461.462755 177.75266 
L 463.159319 176.765335 
L 464.855883 173.182428 
L 466.552448 175.732121 
L 468.249012 175.999588 
L 469.945576 171.756853 
L 471.64214 175.114159 
L 473.338705 176.688257 
L 475.035269 172.293173 
L 476.731833 177.001834 
L 478.428398 174.474522 
L 480.124962 175.643479 
L 481.821526 180.194873 
L 483.518091 172.398782 
L 485.214655 175.82962 
L 486.911219 176.48499 
L 488.607784 176.932259 
L 490.304348 174.526784 
L 492.000912 175.315498 
L 493.697476 175.008486 
L 495.394041 181.01322 
L 497.090605 175.019521 
L 498.787169 176.225351 
L 500.483734 176.8512 
L 502.180298 177.86591 
L 503.876862 181.789356 
L 505.573427 174.633761 
L 507.269991 181.282261 
L 508.966555 179.132595 
L 510.663119 179.389628 
L 512.359684 178.618448 
L 514.056248 175.669574 
L 515.752812 175.152159 
L 517.449377 178.769113 
L 519.145941 180.787578 
L 520.842505 181.754968 
L 522.53907 179.523733 
L 524.235634 179.765428 
L 525.932198 179.851358 
L 527.628763 177.585291 
L 529.325327 173.446166 
L 531.021891 179.997219 
L 532.718455 175.829537 
L 534.41502 176.17735 
L 536.111584 180.475169 
L 537.808148 177.422468 
L 539.504713 182.012959 
L 541.201277 178.716349 
L 542.897841 179.135056 
L 544.594406 177.793387 
L 546.29097 180.615007 
L 547.987534 180.995782 
L 549.684099 178.697663 
L 551.380663 175.689837 
L 553.077227 183.282682 
L 554.773791 181.634061 
L 556.470356 179.075516 
L 558.16692 174.027357 
L 559.863484 175.147139 
L 561.560049 180.399212 
L 563.256613 178.435463 
L 564.953177 183.201185 
L 566.649742 179.485083 
L 568.346306 180.601579 
L 570.04287 180.329683 
L 571.739434 180.178869 
L 573.435999 184.035139 
L 575.132563 179.061035 
L 576.829127 179.803331 
L 578.525692 180.898769 
L 580.222256 180.808269 
L 581.91882 179.611493 
L 583.615385 169.862357 
L 585.311949 176.534151 
L 587.008513 179.970122 
L 588.705078 178.611823 
L 590.401642 181.320341 
L 592.098206 180.189312 
L 593.79477 181.006169 
L 595.491335 180.312051 
L 597.187899 175.905938 
L 598.884463 177.111309 
L 600.581028 174.542862 
L 602.277592 178.415849 
L 603.974156 184.364174 
L 605.670721 180.12466 
L 607.367285 179.846929 
L 609.063849 182.949782 
L 610.760413 178.335646 
L 612.456978 174.550389 
L 614.153542 177.018299 
L 615.850106 175.416798 
L 617.546671 178.284952 
L 619.243235 178.29983 
L 620.939799 179.09832 
L 622.636364 184.524673 
L 622.636364 184.524673 
" clip-path="url(#pa751c5750b)" style="fill: none; stroke: #2ca02c; stroke-width: 1.5; stroke-linecap: square"/>
   </g>
   <g id="line2d_14">
    <path d="M 115.363636 66.150948 
L 117.060201 62.503893 
L 118.756765 60.974711 
L 120.453329 59.923568 
L 122.149894 59.139604 
L 123.846458 58.494233 
L 125.543022 58.9538 
L 127.239587 58.802393 
L 128.936151 58.329895 
L 130.632715 58.076109 
L 132.329279 57.709452 
L 134.025844 57.779262 
L 135.722408 57.582425 
L 137.418972 57.572779 
L 139.115537 57.145214 
L 142.508665 56.688325 
L 144.20523 56.391228 
L 145.901794 57.312563 
L 147.598358 56.489656 
L 149.294922 55.828066 
L 150.991487 57.193501 
L 152.688051 56.43461 
L 154.384615 56.132298 
L 156.08118 56.440069 
L 157.777744 55.972789 
L 159.474308 56.598495 
L 162.867437 55.8 
L 164.564001 56.682689 
L 166.260566 57.798481 
L 169.653694 55.864921 
L 171.350258 57.436829 
L 173.046823 57.208165 
L 174.743387 58.723955 
L 176.439951 58.480849 
L 178.136516 57.404582 
L 179.83308 58.026604 
L 183.226209 58.77346 
L 184.922773 59.624026 
L 186.619337 58.216976 
L 188.315901 59.998392 
L 190.012466 60.603924 
L 191.70903 60.641346 
L 193.405594 59.652654 
L 195.102159 60.651227 
L 196.798723 61.387985 
L 198.495287 60.695882 
L 200.191852 62.190671 
L 201.888416 60.168111 
L 203.58498 62.697833 
L 205.281545 61.795708 
L 206.978109 61.561394 
L 208.674673 63.130828 
L 210.371237 63.460037 
L 212.067802 64.324693 
L 213.764366 62.909715 
L 215.46093 64.278342 
L 217.157495 65.088226 
L 220.550623 63.44833 
L 222.247188 65.355558 
L 223.943752 64.176603 
L 225.640316 65.407152 
L 227.336881 62.741508 
L 229.033445 65.531795 
L 230.730009 64.699946 
L 232.426573 66.078052 
L 234.123138 65.986188 
L 235.819702 66.474995 
L 237.516266 66.086462 
L 239.212831 65.9941 
L 240.909395 67.494246 
L 242.605959 65.487897 
L 244.302524 65.684044 
L 245.999088 64.610914 
L 247.695652 65.894841 
L 249.392216 66.64777 
L 254.481909 68.478226 
L 256.178474 66.118079 
L 257.875038 67.635036 
L 259.571602 67.36406 
L 261.268167 69.196138 
L 262.964731 68.004739 
L 264.661295 67.609554 
L 266.35786 67.755127 
L 268.054424 69.187858 
L 269.750988 67.487709 
L 271.447552 69.300795 
L 273.144117 67.759637 
L 274.840681 68.89894 
L 276.537245 69.19836 
L 278.23381 69.380464 
L 279.930374 69.804899 
L 281.626938 70.57022 
L 283.323503 70.658388 
L 285.020067 71.387389 
L 286.716631 70.666771 
L 288.413196 71.257827 
L 290.10976 72.1972 
L 291.806324 70.390436 
L 293.502888 70.082038 
L 296.896017 72.176633 
L 298.592581 71.935715 
L 301.98571 73.482209 
L 305.378839 73.112343 
L 307.075403 73.700866 
L 308.771967 73.00404 
L 310.468531 72.999426 
L 312.165096 72.794315 
L 313.86166 74.489958 
L 315.558224 73.828026 
L 317.254789 73.624843 
L 318.951353 73.196666 
L 320.647917 74.234151 
L 322.344482 74.349505 
L 324.041046 75.22334 
L 325.73761 72.150863 
L 327.434175 74.206391 
L 329.130739 74.807721 
L 330.827303 75.282701 
L 332.523867 73.134494 
L 334.220432 75.227659 
L 335.916996 74.221037 
L 337.61356 74.463265 
L 339.310125 75.014653 
L 341.006689 76.426794 
L 342.703253 76.113903 
L 344.399818 75.651664 
L 346.096382 73.912324 
L 347.792946 75.865453 
L 349.48951 74.603696 
L 351.186075 76.100062 
L 352.882639 75.653716 
L 354.579203 75.368809 
L 356.275768 75.240348 
L 357.972332 76.233177 
L 359.668896 75.104187 
L 361.365461 74.779195 
L 363.062025 75.026976 
L 364.758589 74.994092 
L 366.455154 76.54818 
L 368.151718 75.51133 
L 369.848282 76.428035 
L 371.544846 76.795556 
L 373.241411 76.212915 
L 374.937975 75.288656 
L 376.634539 75.517467 
L 378.331104 76.665803 
L 380.027668 76.418024 
L 381.724232 75.799025 
L 383.420797 73.610328 
L 385.117361 74.000377 
L 388.51049 75.936957 
L 390.207054 75.196219 
L 391.903618 73.112311 
L 393.600182 72.02587 
L 395.296747 74.317167 
L 396.993311 71.077138 
L 398.689875 74.478642 
L 400.38644 72.420461 
L 402.083004 73.228164 
L 403.779568 70.293869 
L 405.476133 72.370444 
L 408.869261 73.456658 
L 412.26239 73.71349 
L 413.958954 71.811518 
L 415.655518 71.795135 
L 417.352083 72.982164 
L 419.048647 75.336973 
L 422.441776 71.159228 
L 424.13834 71.94305 
L 425.834904 68.832508 
L 427.531469 70.945564 
L 429.228033 70.933871 
L 430.924597 71.211681 
L 432.621161 69.592553 
L 436.01429 69.436348 
L 437.710854 72.394259 
L 439.407419 71.761842 
L 441.103983 71.651848 
L 442.800547 71.263184 
L 444.497112 69.517677 
L 446.193676 70.329445 
L 447.89024 69.767743 
L 449.586804 72.037926 
L 451.283369 70.160077 
L 452.979933 71.189078 
L 454.676497 69.04419 
L 456.373062 71.697934 
L 458.069626 71.49876 
L 459.76619 73.837797 
L 461.462755 72.430875 
L 463.159319 69.124411 
L 464.855883 70.79918 
L 466.552448 70.907956 
L 468.249012 68.13536 
L 469.945576 72.901593 
L 471.64214 72.301758 
L 473.338705 70.572823 
L 475.035269 70.705035 
L 476.731833 68.850795 
L 480.124962 72.219591 
L 481.821526 70.512907 
L 483.518091 70.042674 
L 485.214655 68.584342 
L 486.911219 71.979033 
L 488.607784 72.753089 
L 490.304348 71.572709 
L 492.000912 69.526952 
L 493.697476 70.738713 
L 495.394041 71.610742 
L 497.090605 73.847877 
L 498.787169 72.309603 
L 500.483734 69.332258 
L 502.180298 72.535339 
L 503.876862 73.461889 
L 505.573427 71.580335 
L 507.269991 71.942638 
L 508.966555 72.146064 
L 510.663119 69.986793 
L 512.359684 71.574375 
L 514.056248 68.23118 
L 517.449377 71.499491 
L 519.145941 70.552022 
L 520.842505 70.777522 
L 522.53907 73.364844 
L 524.235634 72.105075 
L 525.932198 69.495014 
L 527.628763 70.241961 
L 529.325327 71.48818 
L 531.021891 71.235483 
L 532.718455 69.701934 
L 534.41502 67.967554 
L 536.111584 68.54366 
L 537.808148 67.569869 
L 539.504713 69.398514 
L 541.201277 69.374468 
L 542.897841 71.306306 
L 544.594406 68.844579 
L 546.29097 70.961095 
L 547.987534 73.536626 
L 549.684099 69.141264 
L 551.380663 72.378228 
L 553.077227 70.954452 
L 554.773791 69.343238 
L 556.470356 69.92894 
L 558.16692 71.221764 
L 559.863484 69.010137 
L 561.560049 73.365061 
L 563.256613 71.884386 
L 564.953177 71.300528 
L 568.346306 72.642247 
L 570.04287 70.855073 
L 571.739434 71.211342 
L 573.435999 73.317377 
L 575.132563 71.610691 
L 576.829127 70.240273 
L 578.525692 71.730782 
L 580.222256 72.861987 
L 581.91882 69.289376 
L 583.615385 71.326618 
L 585.311949 74.435842 
L 587.008513 71.192232 
L 588.705078 73.8222 
L 590.401642 72.694129 
L 592.098206 71.99632 
L 593.79477 71.508716 
L 595.491335 72.387905 
L 597.187899 71.378615 
L 598.884463 78.112681 
L 600.581028 67.411117 
L 602.277592 73.122321 
L 603.974156 71.916672 
L 605.670721 71.180923 
L 609.063849 74.258735 
L 610.760413 75.019032 
L 612.456978 75.00549 
L 614.153542 73.553881 
L 615.850106 72.57897 
L 617.546671 74.693118 
L 619.243235 73.797577 
L 620.939799 73.743133 
L 622.636364 72.959769 
L 622.636364 72.959769 
" clip-path="url(#pa751c5750b)" style="fill: none; stroke: #d62728; stroke-width: 1.5; stroke-linecap: square"/>
   </g>
   <g id="patch_3">
    <path d="M 90 320.4 
L 90 43.2 
" style="fill: none; stroke: #000000; stroke-width: 0.8; stroke-linejoin: miter; stroke-linecap: square"/>
   </g>
   <g id="patch_4">
    <path d="M 648 320.4 
L 648 43.2 
" style="fill: none; stroke: #000000; stroke-width: 0.8; stroke-linejoin: miter; stroke-linecap: square"/>
   </g>
   <g id="patch_5">
    <path d="M 90 320.4 
L 648 320.4 
" style="fill: none; stroke: #000000; stroke-width: 0.8; stroke-linejoin: miter; stroke-linecap: square"/>
   </g>
   <g id="patch_6">
    <path d="M 90 43.2 
L 648 43.2 
" style="fill: none; stroke: #000000; stroke-width: 0.8; stroke-linejoin: miter; stroke-linecap: square"/>
   </g>
   <g id="text_13">
    <!-- Training and Validating Estimation Loss -->
    <g transform="translate(251.535937 37.2) scale(0.12 -0.12)">
     <defs>
      <path id="DejaVuSans-54" d="M -19 4666 
L 3928 4666 
L 3928 4134 
L 2272 4134 
L 2272 0 
L 1638 0 
L 1638 4134 
L -19 4134 
L -19 4666 
z
" transform="scale(0.015625)"/>
      <path id="DejaVuSans-72" d="M 2631 2963 
Q 2534 3019 2420 3045 
Q 2306 3072 2169 3072 
Q 1681 3072 1420 2755 
Q 1159 2438 1159 1844 
L 1159 0 
L 581 0 
L 581 3500 
L 1159 3500 
L 1159 2956 
Q 1341 3275 1631 3429 
Q 1922 3584 2338 3584 
Q 2397 3584 2469 3576 
Q 2541 3569 2628 3553 
L 2631 2963 
z
" transform="scale(0.015625)"/>
      <path id="DejaVuSans-67" d="M 2906 1791 
Q 2906 2416 2648 2759 
Q 2391 3103 1925 3103 
Q 1463 3103 1205 2759 
Q 947 2416 947 1791 
Q 947 1169 1205 825 
Q 1463 481 1925 481 
Q 2391 481 2648 825 
Q 2906 1169 2906 1791 
z
M 3481 434 
Q 3481 -459 3084 -895 
Q 2688 -1331 1869 -1331 
Q 1566 -1331 1297 -1286 
Q 1028 -1241 775 -1147 
L 775 -588 
Q 1028 -725 1275 -790 
Q 1522 -856 1778 -856 
Q 2344 -856 2625 -561 
Q 2906 -266 2906 331 
L 2906 616 
Q 2728 306 2450 153 
Q 2172 0 1784 0 
Q 1141 0 747 490 
Q 353 981 353 1791 
Q 353 2603 747 3093 
Q 1141 3584 1784 3584 
Q 2172 3584 2450 3431 
Q 2728 3278 2906 2969 
L 2906 3500 
L 3481 3500 
L 3481 434 
z
" transform="scale(0.015625)"/>
      <path id="DejaVuSans-64" d="M 2906 2969 
L 2906 4863 
L 3481 4863 
L 3481 0 
L 2906 0 
L 2906 525 
Q 2725 213 2448 61 
Q 2172 -91 1784 -91 
Q 1150 -91 751 415 
Q 353 922 353 1747 
Q 353 2572 751 3078 
Q 1150 3584 1784 3584 
Q 2172 3584 2448 3432 
Q 2725 3281 2906 2969 
z
M 947 1747 
Q 947 1113 1208 752 
Q 1469 391 1925 391 
Q 2381 391 2643 752 
Q 2906 1113 2906 1747 
Q 2906 2381 2643 2742 
Q 2381 3103 1925 3103 
Q 1469 3103 1208 2742 
Q 947 2381 947 1747 
z
" transform="scale(0.015625)"/>
      <path id="DejaVuSans-56" d="M 1831 0 
L 50 4666 
L 709 4666 
L 2188 738 
L 3669 4666 
L 4325 4666 
L 2547 0 
L 1831 0 
z
" transform="scale(0.015625)"/>
      <path id="DejaVuSans-6c" d="M 603 4863 
L 1178 4863 
L 1178 0 
L 603 0 
L 603 4863 
z
" transform="scale(0.015625)"/>
     </defs>
     <use xlink:href="#DejaVuSans-54"/>
     <use xlink:href="#DejaVuSans-72" transform="translate(46.333984 0)"/>
     <use xlink:href="#DejaVuSans-61" transform="translate(87.447266 0)"/>
     <use xlink:href="#DejaVuSans-69" transform="translate(148.726562 0)"/>
     <use xlink:href="#DejaVuSans-6e" transform="translate(176.509766 0)"/>
     <use xlink:href="#DejaVuSans-69" transform="translate(239.888672 0)"/>
     <use xlink:href="#DejaVuSans-6e" transform="translate(267.671875 0)"/>
     <use xlink:href="#DejaVuSans-67" transform="translate(331.050781 0)"/>
     <use xlink:href="#DejaVuSans-20" transform="translate(394.527344 0)"/>
     <use xlink:href="#DejaVuSans-61" transform="translate(426.314453 0)"/>
     <use xlink:href="#DejaVuSans-6e" transform="translate(487.59375 0)"/>
     <use xlink:href="#DejaVuSans-64" transform="translate(550.972656 0)"/>
     <use xlink:href="#DejaVuSans-20" transform="translate(614.449219 0)"/>
     <use xlink:href="#DejaVuSans-56" transform="translate(646.236328 0)"/>
     <use xlink:href="#DejaVuSans-61" transform="translate(706.894531 0)"/>
     <use xlink:href="#DejaVuSans-6c" transform="translate(768.173828 0)"/>
     <use xlink:href="#DejaVuSans-69" transform="translate(795.957031 0)"/>
     <use xlink:href="#DejaVuSans-64" transform="translate(823.740234 0)"/>
     <use xlink:href="#DejaVuSans-61" transform="translate(887.216797 0)"/>
     <use xlink:href="#DejaVuSans-74" transform="translate(948.496094 0)"/>
     <use xlink:href="#DejaVuSans-69" transform="translate(987.705078 0)"/>
     <use xlink:href="#DejaVuSans-6e" transform="translate(1015.488281 0)"/>
     <use xlink:href="#DejaVuSans-67" transform="translate(1078.867188 0)"/>
     <use xlink:href="#DejaVuSans-20" transform="translate(1142.34375 0)"/>
     <use xlink:href="#DejaVuSans-45" transform="translate(1174.130859 0)"/>
     <use xlink:href="#DejaVuSans-73" transform="translate(1237.314453 0)"/>
     <use xlink:href="#DejaVuSans-74" transform="translate(1289.414062 0)"/>
     <use xlink:href="#DejaVuSans-69" transform="translate(1328.623047 0)"/>
     <use xlink:href="#DejaVuSans-6d" transform="translate(1356.40625 0)"/>
     <use xlink:href="#DejaVuSans-61" transform="translate(1453.818359 0)"/>
     <use xlink:href="#DejaVuSans-74" transform="translate(1515.097656 0)"/>
     <use xlink:href="#DejaVuSans-69" transform="translate(1554.306641 0)"/>
     <use xlink:href="#DejaVuSans-6f" transform="translate(1582.089844 0)"/>
     <use xlink:href="#DejaVuSans-6e" transform="translate(1643.271484 0)"/>
     <use xlink:href="#DejaVuSans-20" transform="translate(1706.650391 0)"/>
     <use xlink:href="#DejaVuSans-4c" transform="translate(1738.4375 0)"/>
     <use xlink:href="#DejaVuSans-6f" transform="translate(1792.400391 0)"/>
     <use xlink:href="#DejaVuSans-73" transform="translate(1853.582031 0)"/>
     <use xlink:href="#DejaVuSans-73" transform="translate(1905.681641 0)"/>
    </g>
   </g>
   <g id="legend_1">
    <g id="patch_7">
     <path d="M 521.439062 109.9125 
L 641 109.9125 
Q 643 109.9125 643 107.9125 
L 643 50.2 
Q 643 48.2 641 48.2 
L 521.439062 48.2 
Q 519.439062 48.2 519.439062 50.2 
L 519.439062 107.9125 
Q 519.439062 109.9125 521.439062 109.9125 
z
" style="fill: #ffffff; opacity: 0.8; stroke: #cccccc; stroke-linejoin: miter"/>
    </g>
    <g id="line2d_15">
     <path d="M 523.439062 56.298437 
L 533.439062 56.298437 
L 543.439062 56.298437 
" style="fill: none; stroke: #1f77b4; stroke-width: 1.5; stroke-linecap: square"/>
    </g>
    <g id="text_14">
     <!-- Training-Source -->
     <g transform="translate(551.439062 59.798437) scale(0.1 -0.1)">
      <defs>
       <path id="DejaVuSans-2d" d="M 313 2009 
L 1997 2009 
L 1997 1497 
L 313 1497 
L 313 2009 
z
" transform="scale(0.015625)"/>
       <path id="DejaVuSans-53" d="M 3425 4513 
L 3425 3897 
Q 3066 4069 2747 4153 
Q 2428 4238 2131 4238 
Q 1616 4238 1336 4038 
Q 1056 3838 1056 3469 
Q 1056 3159 1242 3001 
Q 1428 2844 1947 2747 
L 2328 2669 
Q 3034 2534 3370 2195 
Q 3706 1856 3706 1288 
Q 3706 609 3251 259 
Q 2797 -91 1919 -91 
Q 1588 -91 1214 -16 
Q 841 59 441 206 
L 441 856 
Q 825 641 1194 531 
Q 1563 422 1919 422 
Q 2459 422 2753 634 
Q 3047 847 3047 1241 
Q 3047 1584 2836 1778 
Q 2625 1972 2144 2069 
L 1759 2144 
Q 1053 2284 737 2584 
Q 422 2884 422 3419 
Q 422 4038 858 4394 
Q 1294 4750 2059 4750 
Q 2388 4750 2728 4690 
Q 3069 4631 3425 4513 
z
" transform="scale(0.015625)"/>
       <path id="DejaVuSans-75" d="M 544 1381 
L 544 3500 
L 1119 3500 
L 1119 1403 
Q 1119 906 1312 657 
Q 1506 409 1894 409 
Q 2359 409 2629 706 
Q 2900 1003 2900 1516 
L 2900 3500 
L 3475 3500 
L 3475 0 
L 2900 0 
L 2900 538 
Q 2691 219 2414 64 
Q 2138 -91 1772 -91 
Q 1169 -91 856 284 
Q 544 659 544 1381 
z
M 1991 3584 
L 1991 3584 
z
" transform="scale(0.015625)"/>
       <path id="DejaVuSans-65" d="M 3597 1894 
L 3597 1613 
L 953 1613 
Q 991 1019 1311 708 
Q 1631 397 2203 397 
Q 2534 397 2845 478 
Q 3156 559 3463 722 
L 3463 178 
Q 3153 47 2828 -22 
Q 2503 -91 2169 -91 
Q 1331 -91 842 396 
Q 353 884 353 1716 
Q 353 2575 817 3079 
Q 1281 3584 2069 3584 
Q 2775 3584 3186 3129 
Q 3597 2675 3597 1894 
z
M 3022 2063 
Q 3016 2534 2758 2815 
Q 2500 3097 2075 3097 
Q 1594 3097 1305 2825 
Q 1016 2553 972 2059 
L 3022 2063 
z
" transform="scale(0.015625)"/>
      </defs>
      <use xlink:href="#DejaVuSans-54"/>
      <use xlink:href="#DejaVuSans-72" transform="translate(46.333984 0)"/>
      <use xlink:href="#DejaVuSans-61" transform="translate(87.447266 0)"/>
      <use xlink:href="#DejaVuSans-69" transform="translate(148.726562 0)"/>
      <use xlink:href="#DejaVuSans-6e" transform="translate(176.509766 0)"/>
      <use xlink:href="#DejaVuSans-69" transform="translate(239.888672 0)"/>
      <use xlink:href="#DejaVuSans-6e" transform="translate(267.671875 0)"/>
      <use xlink:href="#DejaVuSans-67" transform="translate(331.050781 0)"/>
      <use xlink:href="#DejaVuSans-2d" transform="translate(394.527344 0)"/>
      <use xlink:href="#DejaVuSans-53" transform="translate(430.611328 0)"/>
      <use xlink:href="#DejaVuSans-6f" transform="translate(494.087891 0)"/>
      <use xlink:href="#DejaVuSans-75" transform="translate(555.269531 0)"/>
      <use xlink:href="#DejaVuSans-72" transform="translate(618.648438 0)"/>
      <use xlink:href="#DejaVuSans-63" transform="translate(657.511719 0)"/>
      <use xlink:href="#DejaVuSans-65" transform="translate(712.492188 0)"/>
     </g>
    </g>
    <g id="line2d_16">
     <path d="M 523.439062 70.976562 
L 533.439062 70.976562 
L 543.439062 70.976562 
" style="fill: none; stroke: #ff7f0e; stroke-width: 1.5; stroke-linecap: square"/>
    </g>
    <g id="text_15">
     <!-- Training-Target -->
     <g transform="translate(551.439062 74.476562) scale(0.1 -0.1)">
      <use xlink:href="#DejaVuSans-54"/>
      <use xlink:href="#DejaVuSans-72" transform="translate(46.333984 0)"/>
      <use xlink:href="#DejaVuSans-61" transform="translate(87.447266 0)"/>
      <use xlink:href="#DejaVuSans-69" transform="translate(148.726562 0)"/>
      <use xlink:href="#DejaVuSans-6e" transform="translate(176.509766 0)"/>
      <use xlink:href="#DejaVuSans-69" transform="translate(239.888672 0)"/>
      <use xlink:href="#DejaVuSans-6e" transform="translate(267.671875 0)"/>
      <use xlink:href="#DejaVuSans-67" transform="translate(331.050781 0)"/>
      <use xlink:href="#DejaVuSans-2d" transform="translate(394.527344 0)"/>
      <use xlink:href="#DejaVuSans-54" transform="translate(421.486328 0)"/>
      <use xlink:href="#DejaVuSans-61" transform="translate(466.070312 0)"/>
      <use xlink:href="#DejaVuSans-72" transform="translate(527.349609 0)"/>
      <use xlink:href="#DejaVuSans-67" transform="translate(566.712891 0)"/>
      <use xlink:href="#DejaVuSans-65" transform="translate(630.189453 0)"/>
      <use xlink:href="#DejaVuSans-74" transform="translate(691.712891 0)"/>
     </g>
    </g>
    <g id="line2d_17">
     <path d="M 523.439062 85.654687 
L 533.439062 85.654687 
L 543.439062 85.654687 
" style="fill: none; stroke: #2ca02c; stroke-width: 1.5; stroke-linecap: square"/>
    </g>
    <g id="text_16">
     <!-- Validating-Source -->
     <g transform="translate(551.439062 89.154687) scale(0.1 -0.1)">
      <use xlink:href="#DejaVuSans-56"/>
      <use xlink:href="#DejaVuSans-61" transform="translate(60.658203 0)"/>
      <use xlink:href="#DejaVuSans-6c" transform="translate(121.9375 0)"/>
      <use xlink:href="#DejaVuSans-69" transform="translate(149.720703 0)"/>
      <use xlink:href="#DejaVuSans-64" transform="translate(177.503906 0)"/>
      <use xlink:href="#DejaVuSans-61" transform="translate(240.980469 0)"/>
      <use xlink:href="#DejaVuSans-74" transform="translate(302.259766 0)"/>
      <use xlink:href="#DejaVuSans-69" transform="translate(341.46875 0)"/>
      <use xlink:href="#DejaVuSans-6e" transform="translate(369.251953 0)"/>
      <use xlink:href="#DejaVuSans-67" transform="translate(432.630859 0)"/>
      <use xlink:href="#DejaVuSans-2d" transform="translate(496.107422 0)"/>
      <use xlink:href="#DejaVuSans-53" transform="translate(532.191406 0)"/>
      <use xlink:href="#DejaVuSans-6f" transform="translate(595.667969 0)"/>
      <use xlink:href="#DejaVuSans-75" transform="translate(656.849609 0)"/>
      <use xlink:href="#DejaVuSans-72" transform="translate(720.228516 0)"/>
      <use xlink:href="#DejaVuSans-63" transform="translate(759.091797 0)"/>
      <use xlink:href="#DejaVuSans-65" transform="translate(814.072266 0)"/>
     </g>
    </g>
    <g id="line2d_18">
     <path d="M 523.439062 100.332812 
L 533.439062 100.332812 
L 543.439062 100.332812 
" style="fill: none; stroke: #d62728; stroke-width: 1.5; stroke-linecap: square"/>
    </g>
    <g id="text_17">
     <!-- Validating-Target -->
     <g transform="translate(551.439062 103.832812) scale(0.1 -0.1)">
      <use xlink:href="#DejaVuSans-56"/>
      <use xlink:href="#DejaVuSans-61" transform="translate(60.658203 0)"/>
      <use xlink:href="#DejaVuSans-6c" transform="translate(121.9375 0)"/>
      <use xlink:href="#DejaVuSans-69" transform="translate(149.720703 0)"/>
      <use xlink:href="#DejaVuSans-64" transform="translate(177.503906 0)"/>
      <use xlink:href="#DejaVuSans-61" transform="translate(240.980469 0)"/>
      <use xlink:href="#DejaVuSans-74" transform="translate(302.259766 0)"/>
      <use xlink:href="#DejaVuSans-69" transform="translate(341.46875 0)"/>
      <use xlink:href="#DejaVuSans-6e" transform="translate(369.251953 0)"/>
      <use xlink:href="#DejaVuSans-67" transform="translate(432.630859 0)"/>
      <use xlink:href="#DejaVuSans-2d" transform="translate(496.107422 0)"/>
      <use xlink:href="#DejaVuSans-54" transform="translate(523.066406 0)"/>
      <use xlink:href="#DejaVuSans-61" transform="translate(567.650391 0)"/>
      <use xlink:href="#DejaVuSans-72" transform="translate(628.929688 0)"/>
      <use xlink:href="#DejaVuSans-67" transform="translate(668.292969 0)"/>
      <use xlink:href="#DejaVuSans-65" transform="translate(731.769531 0)"/>
      <use xlink:href="#DejaVuSans-74" transform="translate(793.292969 0)"/>
     </g>
    </g>
   </g>
  </g>
 </g>
 <defs>
  <clipPath id="pa751c5750b">
   <rect x="90" y="43.2" width="558" height="277.2"/>
  </clipPath>
 </defs>
</svg>
