<?xml version="1.0" encoding="utf-8" standalone="no"?>
<!DOCTYPE svg PUBLIC "-//W3C//DTD SVG 1.1//EN"
  "http://www.w3.org/Graphics/SVG/1.1/DTD/svg11.dtd">
<svg xmlns:xlink="http://www.w3.org/1999/xlink" width="720pt" height="360pt" viewBox="0 0 720 360" xmlns="http://www.w3.org/2000/svg" version="1.1">
 <metadata>
  <rdf:RDF xmlns:dc="http://purl.org/dc/elements/1.1/" xmlns:cc="http://creativecommons.org/ns#" xmlns:rdf="http://www.w3.org/1999/02/22-rdf-syntax-ns#">
   <cc:Work>
    <dc:type rdf:resource="http://purl.org/dc/dcmitype/StillImage"/>
    <dc:date>2026-02-17T18:58:49.125576</dc:date>
    <dc:format>image/svg+xml</dc:format>
    <dc:creator>
     <cc:Agent>
      <dc:title>Matplotlib v3.10.1, https://matplotlib.org/</dc:title>
     </cc:Agent>
    </dc:creator>
   </cc:Work>
  </rdf:RDF>
 </metadata>
 <defs>
  <style type="text/css">*{stroke-linejoin: round; stroke-linecap: butt}</style>
 </defs>
 <g id="figure_1">
  <g id="patch_1">
   <path d="M 0 360 
L 720 360 
L 720 0 
L 0 0 
z
" style="fill: #ffffff"/>
  </g>
  <g id="axes_1">
   <g id="patch_2">
    <path d="M 90 320.4 
L 648 320.4 
L 648 43.2 
L 90 43.2 
z
" style="fill: #ffffff"/>
   </g>
   <g id="matplotlib.axis_1">
    <g id="xtick_1">
     <g id="line2d_1">
      <defs>
       <path id="m25a6f7e276" d="M 0 0 
L 0 3.5 
" style="stroke: #000000; stroke-width: 0.8"/>
      </defs>
      <g>
       <use xlink:href="#m25a6f7e276" x="115.363636" y="320.4" style="stroke: #000000; stroke-width: 0.8"/>
      </g>
     </g>
     <g id="text_1">
      <!-- 0 -->
      <g transform="translate(112.182386 334.998438) scale(0.1 -0.1)">
       <defs>
        <path id="DejaVuSans-30" d="M 2034 4250 
Q 1547 4250 1301 3770 
Q 1056 3291 1056 2328 
Q 1056 1369 1301 889 
Q 1547 409 2034 409 
Q 2525 409 2770 889 
Q 3016 1369 3016 2328 
Q 3016 3291 2770 3770 
Q 2525 4250 2034 4250 
z
M 2034 4750 
Q 2819 4750 3233 4129 
Q 3647 3509 3647 2328 
Q 3647 1150 3233 529 
Q 2819 -91 2034 -91 
Q 1250 -91 836 529 
Q 422 1150 422 2328 
Q 422 3509 836 4129 
Q 1250 4750 2034 4750 
z
" transform="scale(0.015625)"/>
       </defs>
       <use xlink:href="#DejaVuSans-30"/>
      </g>
     </g>
    </g>
    <g id="xtick_2">
     <g id="line2d_2">
      <g>
       <use xlink:href="#m25a6f7e276" x="217.157495" y="320.4" style="stroke: #000000; stroke-width: 0.8"/>
      </g>
     </g>
     <g id="text_2">
      <!-- 60 -->
      <g transform="translate(210.794995 334.998438) scale(0.1 -0.1)">
       <defs>
        <path id="DejaVuSans-36" d="M 2113 2584 
Q 1688 2584 1439 2293 
Q 1191 2003 1191 1497 
Q 1191 994 1439 701 
Q 1688 409 2113 409 
Q 2538 409 2786 701 
Q 3034 994 3034 1497 
Q 3034 2003 2786 2293 
Q 2538 2584 2113 2584 
z
M 3366 4563 
L 3366 3988 
Q 3128 4100 2886 4159 
Q 2644 4219 2406 4219 
Q 1781 4219 1451 3797 
Q 1122 3375 1075 2522 
Q 1259 2794 1537 2939 
Q 1816 3084 2150 3084 
Q 2853 3084 3261 2657 
Q 3669 2231 3669 1497 
Q 3669 778 3244 343 
Q 2819 -91 2113 -91 
Q 1303 -91 875 529 
Q 447 1150 447 2328 
Q 447 3434 972 4092 
Q 1497 4750 2381 4750 
Q 2619 4750 2861 4703 
Q 3103 4656 3366 4563 
z
" transform="scale(0.015625)"/>
       </defs>
       <use xlink:href="#DejaVuSans-36"/>
       <use xlink:href="#DejaVuSans-30" transform="translate(63.623047 0)"/>
      </g>
     </g>
    </g>
    <g id="xtick_3">
     <g id="line2d_3">
      <g>
       <use xlink:href="#m25a6f7e276" x="318.951353" y="320.4" style="stroke: #000000; stroke-width: 0.8"/>
      </g>
     </g>
     <g id="text_3">
      <!-- 120 -->
      <g transform="translate(309.407603 334.998438) scale(0.1 -0.1)">
       <defs>
        <path id="DejaVuSans-31" d="M 794 531 
L 1825 531 
L 1825 4091 
L 703 3866 
L 703 4441 
L 1819 4666 
L 2450 4666 
L 2450 531 
L 3481 531 
L 3481 0 
L 794 0 
L 794 531 
z
" transform="scale(0.015625)"/>
        <path id="DejaVuSans-32" d="M 1228 531 
L 3431 531 
L 3431 0 
L 469 0 
L 469 531 
Q 828 903 1448 1529 
Q 2069 2156 2228 2338 
Q 2531 2678 2651 2914 
Q 2772 3150 2772 3378 
Q 2772 3750 2511 3984 
Q 2250 4219 1831 4219 
Q 1534 4219 1204 4116 
Q 875 4013 500 3803 
L 500 4441 
Q 881 4594 1212 4672 
Q 1544 4750 1819 4750 
Q 2544 4750 2975 4387 
Q 3406 4025 3406 3419 
Q 3406 3131 3298 2873 
Q 3191 2616 2906 2266 
Q 2828 2175 2409 1742 
Q 1991 1309 1228 531 
z
" transform="scale(0.015625)"/>
       </defs>
       <use xlink:href="#DejaVuSans-31"/>
       <use xlink:href="#DejaVuSans-32" transform="translate(63.623047 0)"/>
       <use xlink:href="#DejaVuSans-30" transform="translate(127.246094 0)"/>
      </g>
     </g>
    </g>
    <g id="xtick_4">
     <g id="line2d_4">
      <g>
       <use xlink:href="#m25a6f7e276" x="420.745211" y="320.4" style="stroke: #000000; stroke-width: 0.8"/>
      </g>
     </g>
     <g id="text_4">
      <!-- 180 -->
      <g transform="translate(411.201461 334.998438) scale(0.1 -0.1)">
       <defs>
        <path id="DejaVuSans-38" d="M 2034 2216 
Q 1584 2216 1326 1975 
Q 1069 1734 1069 1313 
Q 1069 891 1326 650 
Q 1584 409 2034 409 
Q 2484 409 2743 651 
Q 3003 894 3003 1313 
Q 3003 1734 2745 1975 
Q 2488 2216 2034 2216 
z
M 1403 2484 
Q 997 2584 770 2862 
Q 544 3141 544 3541 
Q 544 4100 942 4425 
Q 1341 4750 2034 4750 
Q 2731 4750 3128 4425 
Q 3525 4100 3525 3541 
Q 3525 3141 3298 2862 
Q 3072 2584 2669 2484 
Q 3125 2378 3379 2068 
Q 3634 1759 3634 1313 
Q 3634 634 3220 271 
Q 2806 -91 2034 -91 
Q 1263 -91 848 271 
Q 434 634 434 1313 
Q 434 1759 690 2068 
Q 947 2378 1403 2484 
z
M 1172 3481 
Q 1172 3119 1398 2916 
Q 1625 2713 2034 2713 
Q 2441 2713 2670 2916 
Q 2900 3119 2900 3481 
Q 2900 3844 2670 4047 
Q 2441 4250 2034 4250 
Q 1625 4250 1398 4047 
Q 1172 3844 1172 3481 
z
" transform="scale(0.015625)"/>
       </defs>
       <use xlink:href="#DejaVuSans-31"/>
       <use xlink:href="#DejaVuSans-38" transform="translate(63.623047 0)"/>
       <use xlink:href="#DejaVuSans-30" transform="translate(127.246094 0)"/>
      </g>
     </g>
    </g>
    <g id="xtick_5">
     <g id="line2d_5">
      <g>
       <use xlink:href="#m25a6f7e276" x="522.53907" y="320.4" style="stroke: #000000; stroke-width: 0.8"/>
      </g>
     </g>
     <g id="text_5">
      <!-- 240 -->
      <g transform="translate(512.99532 334.998438) scale(0.1 -0.1)">
       <defs>
        <path id="DejaVuSans-34" d="M 2419 4116 
L 825 1625 
L 2419 1625 
L 2419 4116 
z
M 2253 4666 
L 3047 4666 
L 3047 1625 
L 3713 1625 
L 3713 1100 
L 3047 1100 
L 3047 0 
L 2419 0 
L 2419 1100 
L 313 1100 
L 313 1709 
L 2253 4666 
z
" transform="scale(0.015625)"/>
       </defs>
       <use xlink:href="#DejaVuSans-32"/>
       <use xlink:href="#DejaVuSans-34" transform="translate(63.623047 0)"/>
       <use xlink:href="#DejaVuSans-30" transform="translate(127.246094 0)"/>
      </g>
     </g>
    </g>
    <g id="text_6">
     <!-- Epoch -->
     <g transform="translate(353.689062 348.676562) scale(0.1 -0.1)">
      <defs>
       <path id="DejaVuSans-45" d="M 628 4666 
L 3578 4666 
L 3578 4134 
L 1259 4134 
L 1259 2753 
L 3481 2753 
L 3481 2222 
L 1259 2222 
L 1259 531 
L 3634 531 
L 3634 0 
L 628 0 
L 628 4666 
z
" transform="scale(0.015625)"/>
       <path id="DejaVuSans-70" d="M 1159 525 
L 1159 -1331 
L 581 -1331 
L 581 3500 
L 1159 3500 
L 1159 2969 
Q 1341 3281 1617 3432 
Q 1894 3584 2278 3584 
Q 2916 3584 3314 3078 
Q 3713 2572 3713 1747 
Q 3713 922 3314 415 
Q 2916 -91 2278 -91 
Q 1894 -91 1617 61 
Q 1341 213 1159 525 
z
M 3116 1747 
Q 3116 2381 2855 2742 
Q 2594 3103 2138 3103 
Q 1681 3103 1420 2742 
Q 1159 2381 1159 1747 
Q 1159 1113 1420 752 
Q 1681 391 2138 391 
Q 2594 391 2855 752 
Q 3116 1113 3116 1747 
z
" transform="scale(0.015625)"/>
       <path id="DejaVuSans-6f" d="M 1959 3097 
Q 1497 3097 1228 2736 
Q 959 2375 959 1747 
Q 959 1119 1226 758 
Q 1494 397 1959 397 
Q 2419 397 2687 759 
Q 2956 1122 2956 1747 
Q 2956 2369 2687 2733 
Q 2419 3097 1959 3097 
z
M 1959 3584 
Q 2709 3584 3137 3096 
Q 3566 2609 3566 1747 
Q 3566 888 3137 398 
Q 2709 -91 1959 -91 
Q 1206 -91 779 398 
Q 353 888 353 1747 
Q 353 2609 779 3096 
Q 1206 3584 1959 3584 
z
" transform="scale(0.015625)"/>
       <path id="DejaVuSans-63" d="M 3122 3366 
L 3122 2828 
Q 2878 2963 2633 3030 
Q 2388 3097 2138 3097 
Q 1578 3097 1268 2742 
Q 959 2388 959 1747 
Q 959 1106 1268 751 
Q 1578 397 2138 397 
Q 2388 397 2633 464 
Q 2878 531 3122 666 
L 3122 134 
Q 2881 22 2623 -34 
Q 2366 -91 2075 -91 
Q 1284 -91 818 406 
Q 353 903 353 1747 
Q 353 2603 823 3093 
Q 1294 3584 2113 3584 
Q 2378 3584 2631 3529 
Q 2884 3475 3122 3366 
z
" transform="scale(0.015625)"/>
       <path id="DejaVuSans-68" d="M 3513 2113 
L 3513 0 
L 2938 0 
L 2938 2094 
Q 2938 2591 2744 2837 
Q 2550 3084 2163 3084 
Q 1697 3084 1428 2787 
Q 1159 2491 1159 1978 
L 1159 0 
L 581 0 
L 581 4863 
L 1159 4863 
L 1159 2956 
Q 1366 3272 1645 3428 
Q 1925 3584 2291 3584 
Q 2894 3584 3203 3211 
Q 3513 2838 3513 2113 
z
" transform="scale(0.015625)"/>
      </defs>
      <use xlink:href="#DejaVuSans-45"/>
      <use xlink:href="#DejaVuSans-70" transform="translate(63.183594 0)"/>
      <use xlink:href="#DejaVuSans-6f" transform="translate(126.660156 0)"/>
      <use xlink:href="#DejaVuSans-63" transform="translate(187.841797 0)"/>
      <use xlink:href="#DejaVuSans-68" transform="translate(242.822266 0)"/>
     </g>
    </g>
   </g>
   <g id="matplotlib.axis_2">
    <g id="ytick_1">
     <g id="line2d_6">
      <defs>
       <path id="m24f9fb9ad3" d="M 0 0 
L -3.5 0 
" style="stroke: #000000; stroke-width: 0.8"/>
      </defs>
      <g>
       <use xlink:href="#m24f9fb9ad3" x="90" y="291.653497" style="stroke: #000000; stroke-width: 0.8"/>
      </g>
     </g>
     <g id="text_7">
      <!-- 0.2 -->
      <g transform="translate(67.096875 295.452716) scale(0.1 -0.1)">
       <defs>
        <path id="DejaVuSans-2e" d="M 684 794 
L 1344 794 
L 1344 0 
L 684 0 
L 684 794 
z
" transform="scale(0.015625)"/>
       </defs>
       <use xlink:href="#DejaVuSans-30"/>
       <use xlink:href="#DejaVuSans-2e" transform="translate(63.623047 0)"/>
       <use xlink:href="#DejaVuSans-32" transform="translate(95.410156 0)"/>
      </g>
     </g>
    </g>
    <g id="ytick_2">
     <g id="line2d_7">
      <g>
       <use xlink:href="#m24f9fb9ad3" x="90" y="239.443639" style="stroke: #000000; stroke-width: 0.8"/>
      </g>
     </g>
     <g id="text_8">
      <!-- 0.4 -->
      <g transform="translate(67.096875 243.242858) scale(0.1 -0.1)">
       <use xlink:href="#DejaVuSans-30"/>
       <use xlink:href="#DejaVuSans-2e" transform="translate(63.623047 0)"/>
       <use xlink:href="#DejaVuSans-34" transform="translate(95.410156 0)"/>
      </g>
     </g>
    </g>
    <g id="ytick_3">
     <g id="line2d_8">
      <g>
       <use xlink:href="#m24f9fb9ad3" x="90" y="187.233781" style="stroke: #000000; stroke-width: 0.8"/>
      </g>
     </g>
     <g id="text_9">
      <!-- 0.6 -->
      <g transform="translate(67.096875 191.032999) scale(0.1 -0.1)">
       <use xlink:href="#DejaVuSans-30"/>
       <use xlink:href="#DejaVuSans-2e" transform="translate(63.623047 0)"/>
       <use xlink:href="#DejaVuSans-36" transform="translate(95.410156 0)"/>
      </g>
     </g>
    </g>
    <g id="ytick_4">
     <g id="line2d_9">
      <g>
       <use xlink:href="#m24f9fb9ad3" x="90" y="135.023923" style="stroke: #000000; stroke-width: 0.8"/>
      </g>
     </g>
     <g id="text_10">
      <!-- 0.8 -->
      <g transform="translate(67.096875 138.823141) scale(0.1 -0.1)">
       <use xlink:href="#DejaVuSans-30"/>
       <use xlink:href="#DejaVuSans-2e" transform="translate(63.623047 0)"/>
       <use xlink:href="#DejaVuSans-38" transform="translate(95.410156 0)"/>
      </g>
     </g>
    </g>
    <g id="ytick_5">
     <g id="line2d_10">
      <g>
       <use xlink:href="#m24f9fb9ad3" x="90" y="82.814064" style="stroke: #000000; stroke-width: 0.8"/>
      </g>
     </g>
     <g id="text_11">
      <!-- 1.0 -->
      <g transform="translate(67.096875 86.613283) scale(0.1 -0.1)">
       <use xlink:href="#DejaVuSans-31"/>
       <use xlink:href="#DejaVuSans-2e" transform="translate(63.623047 0)"/>
       <use xlink:href="#DejaVuSans-30" transform="translate(95.410156 0)"/>
      </g>
     </g>
    </g>
    <g id="text_12">
     <!-- Domain Loss -->
     <g transform="translate(61.017187 213.757812) rotate(-90) scale(0.1 -0.1)">
      <defs>
       <path id="DejaVuSans-44" d="M 1259 4147 
L 1259 519 
L 2022 519 
Q 2988 519 3436 956 
Q 3884 1394 3884 2338 
Q 3884 3275 3436 3711 
Q 2988 4147 2022 4147 
L 1259 4147 
z
M 628 4666 
L 1925 4666 
Q 3281 4666 3915 4102 
Q 4550 3538 4550 2338 
Q 4550 1131 3912 565 
Q 3275 0 1925 0 
L 628 0 
L 628 4666 
z
" transform="scale(0.015625)"/>
       <path id="DejaVuSans-6d" d="M 3328 2828 
Q 3544 3216 3844 3400 
Q 4144 3584 4550 3584 
Q 5097 3584 5394 3201 
Q 5691 2819 5691 2113 
L 5691 0 
L 5113 0 
L 5113 2094 
Q 5113 2597 4934 2840 
Q 4756 3084 4391 3084 
Q 3944 3084 3684 2787 
Q 3425 2491 3425 1978 
L 3425 0 
L 2847 0 
L 2847 2094 
Q 2847 2600 2669 2842 
Q 2491 3084 2119 3084 
Q 1678 3084 1418 2786 
Q 1159 2488 1159 1978 
L 1159 0 
L 581 0 
L 581 3500 
L 1159 3500 
L 1159 2956 
Q 1356 3278 1631 3431 
Q 1906 3584 2284 3584 
Q 2666 3584 2933 3390 
Q 3200 3197 3328 2828 
z
" transform="scale(0.015625)"/>
       <path id="DejaVuSans-61" d="M 2194 1759 
Q 1497 1759 1228 1600 
Q 959 1441 959 1056 
Q 959 750 1161 570 
Q 1363 391 1709 391 
Q 2188 391 2477 730 
Q 2766 1069 2766 1631 
L 2766 1759 
L 2194 1759 
z
M 3341 1997 
L 3341 0 
L 2766 0 
L 2766 531 
Q 2569 213 2275 61 
Q 1981 -91 1556 -91 
Q 1019 -91 701 211 
Q 384 513 384 1019 
Q 384 1609 779 1909 
Q 1175 2209 1959 2209 
L 2766 2209 
L 2766 2266 
Q 2766 2663 2505 2880 
Q 2244 3097 1772 3097 
Q 1472 3097 1187 3025 
Q 903 2953 641 2809 
L 641 3341 
Q 956 3463 1253 3523 
Q 1550 3584 1831 3584 
Q 2591 3584 2966 3190 
Q 3341 2797 3341 1997 
z
" transform="scale(0.015625)"/>
       <path id="DejaVuSans-69" d="M 603 3500 
L 1178 3500 
L 1178 0 
L 603 0 
L 603 3500 
z
M 603 4863 
L 1178 4863 
L 1178 4134 
L 603 4134 
L 603 4863 
z
" transform="scale(0.015625)"/>
       <path id="DejaVuSans-6e" d="M 3513 2113 
L 3513 0 
L 2938 0 
L 2938 2094 
Q 2938 2591 2744 2837 
Q 2550 3084 2163 3084 
Q 1697 3084 1428 2787 
Q 1159 2491 1159 1978 
L 1159 0 
L 581 0 
L 581 3500 
L 1159 3500 
L 1159 2956 
Q 1366 3272 1645 3428 
Q 1925 3584 2291 3584 
Q 2894 3584 3203 3211 
Q 3513 2838 3513 2113 
z
" transform="scale(0.015625)"/>
       <path id="DejaVuSans-20" transform="scale(0.015625)"/>
       <path id="DejaVuSans-4c" d="M 628 4666 
L 1259 4666 
L 1259 531 
L 3531 531 
L 3531 0 
L 628 0 
L 628 4666 
z
" transform="scale(0.015625)"/>
       <path id="DejaVuSans-73" d="M 2834 3397 
L 2834 2853 
Q 2591 2978 2328 3040 
Q 2066 3103 1784 3103 
Q 1356 3103 1142 2972 
Q 928 2841 928 2578 
Q 928 2378 1081 2264 
Q 1234 2150 1697 2047 
L 1894 2003 
Q 2506 1872 2764 1633 
Q 3022 1394 3022 966 
Q 3022 478 2636 193 
Q 2250 -91 1575 -91 
Q 1294 -91 989 -36 
Q 684 19 347 128 
L 347 722 
Q 666 556 975 473 
Q 1284 391 1588 391 
Q 1994 391 2212 530 
Q 2431 669 2431 922 
Q 2431 1156 2273 1281 
Q 2116 1406 1581 1522 
L 1381 1569 
Q 847 1681 609 1914 
Q 372 2147 372 2553 
Q 372 3047 722 3315 
Q 1072 3584 1716 3584 
Q 2034 3584 2315 3537 
Q 2597 3491 2834 3397 
z
" transform="scale(0.015625)"/>
      </defs>
      <use xlink:href="#DejaVuSans-44"/>
      <use xlink:href="#DejaVuSans-6f" transform="translate(77.001953 0)"/>
      <use xlink:href="#DejaVuSans-6d" transform="translate(138.183594 0)"/>
      <use xlink:href="#DejaVuSans-61" transform="translate(235.595703 0)"/>
      <use xlink:href="#DejaVuSans-69" transform="translate(296.875 0)"/>
      <use xlink:href="#DejaVuSans-6e" transform="translate(324.658203 0)"/>
      <use xlink:href="#DejaVuSans-20" transform="translate(388.037109 0)"/>
      <use xlink:href="#DejaVuSans-4c" transform="translate(419.824219 0)"/>
      <use xlink:href="#DejaVuSans-6f" transform="translate(473.787109 0)"/>
      <use xlink:href="#DejaVuSans-73" transform="translate(534.96875 0)"/>
      <use xlink:href="#DejaVuSans-73" transform="translate(587.068359 0)"/>
     </g>
    </g>
   </g>
   <g id="line2d_11">
    <path d="M 115.363636 55.8 
L 117.060201 126.390125 
L 118.756765 159.880775 
L 120.453329 177.251292 
L 122.149894 188.603442 
L 123.846458 196.792771 
L 125.543022 202.886042 
L 127.239587 207.66757 
L 128.936151 211.74946 
L 130.632715 215.41905 
L 132.329279 219.401812 
L 134.025844 224.16674 
L 135.722408 229.611217 
L 137.418972 234.153247 
L 139.115537 237.913345 
L 140.812101 240.535742 
L 142.508665 241.957398 
L 144.20523 243.182995 
L 145.901794 245.074017 
L 147.598358 245.612007 
L 149.294922 247.345014 
L 150.991487 248.667016 
L 152.688051 251.642804 
L 154.384615 254.875969 
L 156.08118 256.051511 
L 157.777744 254.041198 
L 159.474308 258.438125 
L 161.170873 261.098373 
L 164.564001 267.734142 
L 166.260566 265.951067 
L 167.95713 269.135982 
L 169.653694 268.263226 
L 171.350258 270.659357 
L 173.046823 270.964922 
L 174.743387 270.68225 
L 176.439951 270.835082 
L 178.136516 268.238093 
L 179.83308 270.288241 
L 181.529644 268.916937 
L 183.226209 273.565855 
L 184.922773 272.156889 
L 186.619337 259.195327 
L 188.315901 270.916067 
L 190.012466 264.017587 
L 191.70903 272.874678 
L 193.405594 269.53295 
L 195.102159 274.333217 
L 196.798723 273.157274 
L 198.495287 274.477731 
L 200.191852 272.476512 
L 201.888416 274.067538 
L 203.58498 269.594634 
L 205.281545 277.31407 
L 206.978109 277.343477 
L 208.674673 277.043642 
L 210.371237 276.193162 
L 212.067802 280.22654 
L 213.764366 277.604854 
L 215.46093 279.649336 
L 217.157495 280.06945 
L 218.854059 282.436446 
L 220.550623 277.206131 
L 222.247188 277.5079 
L 223.943752 279.670542 
L 225.640316 276.329831 
L 227.336881 279.758768 
L 229.033445 280.600246 
L 230.730009 280.02298 
L 232.426573 277.924013 
L 234.123138 276.506475 
L 235.819702 280.076491 
L 237.516266 273.623028 
L 239.212831 280.432131 
L 240.909395 261.30146 
L 242.605959 276.037519 
L 244.302524 281.928465 
L 245.999088 281.879265 
L 247.695652 282.528837 
L 249.392216 280.687249 
L 251.088781 281.579451 
L 252.785345 274.201169 
L 254.481909 276.675972 
L 256.178474 283.136994 
L 257.875038 281.668205 
L 259.571602 276.539681 
L 261.268167 280.196109 
L 262.964731 279.873845 
L 264.661295 278.830626 
L 266.35786 277.01864 
L 268.054424 285.649883 
L 269.750988 286.503128 
L 271.447552 277.903818 
L 273.144117 284.702396 
L 274.840681 284.82092 
L 276.537245 285.374698 
L 278.23381 278.145579 
L 279.930374 285.639713 
L 281.626938 287.628887 
L 283.323503 288.218208 
L 285.020067 287.359534 
L 286.716631 276.245801 
L 288.413196 288.068663 
L 290.10976 287.3663 
L 291.806324 285.508369 
L 293.502888 288.71481 
L 295.199453 289.315463 
L 296.896017 290.967492 
L 298.592581 286.525585 
L 300.289146 287.397075 
L 301.98571 287.929476 
L 303.682274 290.056591 
L 305.378839 288.347671 
L 307.075403 290.084729 
L 308.771967 285.967717 
L 310.468531 288.826977 
L 312.165096 290.110537 
L 313.86166 289.733626 
L 315.558224 284.743049 
L 317.254789 289.669586 
L 318.951353 289.016372 
L 320.647917 289.583057 
L 322.344482 288.417431 
L 324.041046 291.529418 
L 325.73761 286.929763 
L 327.434175 289.031804 
L 329.130739 288.615411 
L 330.827303 288.473846 
L 332.523867 288.140887 
L 334.220432 288.819036 
L 335.916996 285.893912 
L 337.61356 287.338616 
L 339.310125 291.723325 
L 341.006689 288.80429 
L 342.703253 292.368739 
L 344.399818 290.346405 
L 346.096382 278.08677 
L 347.792946 291.691697 
L 349.48951 291.31391 
L 351.186075 290.501379 
L 354.579203 280.484028 
L 356.275768 290.147715 
L 357.972332 290.665882 
L 359.668896 292.032841 
L 361.365461 289.73796 
L 363.062025 291.731172 
L 364.758589 290.146551 
L 366.455154 291.710622 
L 368.151718 291.977827 
L 371.544846 292.811752 
L 373.241411 294.017554 
L 374.937975 293.21703 
L 376.634539 294.172407 
L 378.331104 291.401415 
L 380.027668 294.279373 
L 381.724232 295.660897 
L 385.117361 294.815276 
L 386.813925 296.305048 
L 388.51049 296.302815 
L 390.207054 295.551794 
L 391.903618 296.760843 
L 393.600182 297.168047 
L 395.296747 296.355738 
L 398.689875 296.271784 
L 400.38644 297.120278 
L 402.083004 295.606111 
L 403.779568 295.622365 
L 405.476133 293.857028 
L 407.172697 296.791835 
L 408.869261 296.291129 
L 412.26239 296.544151 
L 413.958954 296.365446 
L 415.655518 293.044018 
L 417.352083 295.049181 
L 419.048647 297.687305 
L 420.745211 297.258727 
L 422.441776 296.598518 
L 424.13834 297.498794 
L 427.531469 296.940156 
L 429.228033 298.766872 
L 430.924597 297.328137 
L 432.621161 297.292225 
L 434.317726 297.516091 
L 436.01429 296.171775 
L 437.710854 295.796341 
L 439.407419 296.502206 
L 441.103983 296.760454 
L 442.800547 298.226217 
L 444.497112 298.15498 
L 446.193676 297.589129 
L 447.89024 298.341844 
L 449.586804 297.142299 
L 451.283369 297.883014 
L 452.979933 300.321968 
L 454.676497 297.441417 
L 456.373062 298.243539 
L 458.069626 298.151698 
L 459.76619 292.43788 
L 461.462755 298.092586 
L 463.159319 299.471469 
L 464.855883 300.054214 
L 468.249012 298.62736 
L 469.945576 298.102696 
L 471.64214 299.784898 
L 473.338705 297.781129 
L 475.035269 299.647076 
L 476.731833 299.48033 
L 478.428398 298.656046 
L 480.124962 298.502478 
L 481.821526 298.725426 
L 483.518091 299.30392 
L 486.911219 301.122886 
L 488.607784 299.413546 
L 490.304348 299.527171 
L 492.000912 300.560137 
L 493.697476 299.288838 
L 495.394041 300.049036 
L 497.090605 298.124888 
L 498.787169 301.034722 
L 500.483734 299.004059 
L 502.180298 300.368146 
L 503.876862 299.583092 
L 505.573427 301.745192 
L 507.269991 298.234541 
L 508.966555 301.5788 
L 510.663119 299.630374 
L 512.359684 302.179641 
L 514.056248 301.873345 
L 515.752812 300.264096 
L 517.449377 302.843414 
L 519.145941 301.136104 
L 520.842505 302.072417 
L 522.53907 301.806509 
L 524.235634 300.604593 
L 525.932198 303.095168 
L 527.628763 303.386564 
L 529.325327 303.983164 
L 531.021891 304.191182 
L 532.718455 301.339766 
L 534.41502 304.434898 
L 536.111584 301.002683 
L 537.808148 303.069911 
L 539.504713 304.552755 
L 541.201277 304.341338 
L 542.897841 305.50031 
L 544.594406 301.84053 
L 546.29097 300.612102 
L 547.987534 303.646995 
L 551.380663 303.742908 
L 553.077227 300.79937 
L 554.773791 302.594783 
L 556.470356 301.25378 
L 558.16692 302.839991 
L 559.863484 300.378533 
L 561.560049 300.132053 
L 563.256613 304.106916 
L 564.953177 303.838102 
L 566.649742 304.083651 
L 568.346306 302.62051 
L 570.04287 304.04124 
L 571.739434 303.645339 
L 573.435999 302.905787 
L 575.132563 303.341995 
L 576.829127 304.459232 
L 578.525692 296.815265 
L 580.222256 304.826173 
L 581.91882 306.90724 
L 583.615385 304.154228 
L 585.311949 304.093114 
L 587.008513 304.815597 
L 588.705078 305.221991 
L 590.401642 306.351614 
L 592.098206 306.50992 
L 593.79477 307.8 
L 595.491335 304.05525 
L 597.187899 306.358999 
L 598.884463 298.780902 
L 600.581028 305.8144 
L 602.277592 303.502311 
L 603.974156 306.718993 
L 605.670721 305.119557 
L 607.367285 306.096543 
L 609.063849 302.656684 
L 610.760413 305.973092 
L 612.456978 305.845492 
L 614.153542 307.333812 
L 615.850106 307.574581 
L 617.546671 299.142709 
L 619.243235 305.710859 
L 620.939799 302.658372 
L 622.636364 306.600118 
L 622.636364 306.600118 
" clip-path="url(#p9265c68121)" style="fill: none; stroke: #1f77b4; stroke-width: 1.5; stroke-linecap: square"/>
   </g>
   <g id="line2d_12">
    <path d="M 115.363636 69.688679 
L 117.060201 130.564224 
L 118.756765 159.983398 
L 120.453329 178.117943 
L 122.149894 190.284632 
L 123.846458 198.1937 
L 125.543022 203.45184 
L 127.239587 207.134641 
L 128.936151 210.109064 
L 130.632715 212.677758 
L 132.329279 214.864136 
L 134.025844 217.914494 
L 135.722408 220.714919 
L 137.418972 221.155879 
L 139.115537 222.486035 
L 140.812101 222.702668 
L 142.508665 223.065091 
L 144.20523 224.858417 
L 145.901794 228.457818 
L 147.598358 230.468434 
L 149.294922 231.24778 
L 150.991487 231.665819 
L 152.688051 252.556185 
L 154.384615 256.924408 
L 156.08118 255.409972 
L 157.777744 260.515793 
L 159.474308 256.882075 
L 161.170873 256.870853 
L 162.867437 262.369385 
L 164.564001 261.746845 
L 166.260566 265.203616 
L 167.95713 266.172804 
L 169.653694 268.007254 
L 171.350258 268.220751 
L 174.743387 273.120001 
L 176.439951 273.266615 
L 178.136516 272.893822 
L 179.83308 270.099128 
L 181.529644 273.244555 
L 183.226209 274.201754 
L 184.922773 272.854975 
L 186.619337 271.781979 
L 188.315901 272.019763 
L 191.70903 271.213173 
L 193.405594 268.776619 
L 195.102159 267.000018 
L 196.798723 270.683411 
L 198.495287 266.764632 
L 200.191852 265.300949 
L 201.888416 272.979859 
L 203.58498 263.043834 
L 205.281545 261.90306 
L 206.978109 265.161144 
L 208.674673 263.567671 
L 210.371237 270.335059 
L 212.067802 271.998053 
L 213.764366 271.674791 
L 215.46093 264.574775 
L 217.157495 264.943443 
L 218.854059 269.342686 
L 220.550623 267.986881 
L 222.247188 263.120986 
L 223.943752 270.570429 
L 225.640316 266.805192 
L 227.336881 275.531427 
L 229.033445 269.466986 
L 230.730009 272.612789 
L 232.426573 276.439926 
L 234.123138 263.391331 
L 235.819702 272.124757 
L 237.516266 271.818037 
L 239.212831 273.633816 
L 240.909395 257.133577 
L 242.605959 274.283792 
L 244.302524 268.815927 
L 245.999088 270.4988 
L 247.695652 266.49688 
L 249.392216 275.579038 
L 251.088781 266.852189 
L 252.785345 262.760386 
L 254.481909 262.15903 
L 256.178474 275.459889 
L 257.875038 268.455401 
L 261.268167 271.556922 
L 262.964731 273.960713 
L 264.661295 263.050613 
L 266.35786 266.022841 
L 268.054424 264.096967 
L 269.750988 272.611144 
L 271.447552 275.918373 
L 273.144117 267.134967 
L 274.840681 274.65304 
L 276.537245 253.687564 
L 278.23381 271.07414 
L 279.930374 265.951987 
L 281.626938 264.104081 
L 283.323503 263.299752 
L 285.020067 256.393397 
L 286.716631 266.603512 
L 288.413196 262.86296 
L 290.10976 253.130006 
L 291.806324 269.154686 
L 293.502888 270.991053 
L 295.199453 262.64475 
L 296.896017 269.72295 
L 298.592581 264.757884 
L 300.289146 258.396315 
L 301.98571 265.457442 
L 303.682274 260.271072 
L 305.378839 276.612128 
L 307.075403 264.826391 
L 308.771967 268.602022 
L 310.468531 264.400072 
L 312.165096 266.705997 
L 313.86166 270.49287 
L 315.558224 269.572592 
L 317.254789 263.53344 
L 318.951353 265.571533 
L 320.647917 265.729639 
L 322.344482 267.705229 
L 324.041046 265.495271 
L 325.73761 262.268962 
L 327.434175 250.417743 
L 329.130739 262.755524 
L 330.827303 264.825722 
L 332.523867 239.709316 
L 334.220432 242.465793 
L 335.916996 268.421554 
L 337.61356 265.412547 
L 339.310125 270.744703 
L 341.006689 256.135341 
L 342.703253 269.735749 
L 344.399818 245.036672 
L 346.096382 268.054395 
L 347.792946 267.760046 
L 349.48951 257.683935 
L 351.186075 246.454815 
L 352.882639 236.680936 
L 354.579203 263.933787 
L 356.275768 269.416569 
L 357.972332 264.088061 
L 359.668896 254.276623 
L 361.365461 264.719644 
L 363.062025 268.830754 
L 364.758589 267.561848 
L 366.455154 269.116408 
L 368.151718 264.207842 
L 369.848282 266.15375 
L 371.544846 263.607813 
L 373.241411 263.499288 
L 374.937975 264.025122 
L 376.634539 263.693628 
L 380.027668 264.070172 
L 381.724232 266.540385 
L 383.420797 265.265731 
L 385.117361 265.425852 
L 388.51049 264.703714 
L 390.207054 262.712102 
L 391.903618 265.592423 
L 393.600182 265.372302 
L 395.296747 269.439532 
L 396.993311 258.926638 
L 398.689875 267.258391 
L 400.38644 268.688666 
L 402.083004 263.842803 
L 403.779568 265.971714 
L 405.476133 268.511646 
L 407.172697 266.810783 
L 408.869261 265.427172 
L 410.565825 264.283054 
L 412.26239 252.846986 
L 413.958954 264.424625 
L 415.655518 261.146686 
L 417.352083 265.6037 
L 419.048647 268.396439 
L 420.745211 265.572668 
L 422.441776 265.915911 
L 424.13834 265.601859 
L 425.834904 267.696673 
L 427.531469 266.961591 
L 429.228033 265.085088 
L 430.924597 267.825753 
L 432.621161 266.951699 
L 434.317726 266.822415 
L 436.01429 263.458332 
L 437.710854 272.12374 
L 439.407419 266.772977 
L 441.103983 264.997243 
L 442.800547 269.483306 
L 444.497112 264.123083 
L 446.193676 265.491137 
L 447.89024 263.969589 
L 449.586804 269.807541 
L 451.283369 266.433929 
L 452.979933 266.965222 
L 454.676497 264.214582 
L 456.373062 267.189036 
L 458.069626 264.805357 
L 459.76619 266.707952 
L 461.462755 266.99387 
L 463.159319 265.148039 
L 464.855883 266.173891 
L 466.552448 267.657671 
L 468.249012 268.975885 
L 469.945576 263.173669 
L 471.64214 254.298851 
L 473.338705 261.93689 
L 475.035269 264.120271 
L 476.731833 265.95325 
L 478.428398 251.512465 
L 480.124962 264.695702 
L 481.821526 262.345379 
L 483.518091 260.582509 
L 485.214655 264.49502 
L 486.911219 265.678767 
L 488.607784 261.436812 
L 490.304348 264.828184 
L 492.000912 260.370402 
L 493.697476 262.910593 
L 495.394041 252.366815 
L 497.090605 266.063288 
L 498.787169 257.074506 
L 500.483734 263.191436 
L 502.180298 258.566122 
L 503.876862 259.611711 
L 505.573427 237.866317 
L 507.269991 242.135222 
L 508.966555 245.850079 
L 510.663119 262.415289 
L 512.359684 260.855402 
L 514.056248 261.539189 
L 515.752812 256.749643 
L 517.449377 259.058921 
L 519.145941 263.057403 
L 520.842505 263.548041 
L 522.53907 256.602537 
L 524.235634 256.538968 
L 525.932198 241.934148 
L 527.628763 259.009856 
L 529.325327 260.244578 
L 531.021891 238.614854 
L 532.718455 262.012731 
L 534.41502 260.077793 
L 536.111584 259.361861 
L 537.808148 261.00111 
L 539.504713 261.479369 
L 541.201277 265.959805 
L 542.897841 256.72138 
L 544.594406 261.303271 
L 547.987534 265.713549 
L 549.684099 256.705492 
L 551.380663 251.698054 
L 553.077227 262.040332 
L 554.773791 263.485373 
L 556.470356 261.556394 
L 558.16692 263.612542 
L 559.863484 264.483187 
L 561.560049 259.295169 
L 563.256613 253.667395 
L 564.953177 256.364162 
L 566.649742 257.933106 
L 568.346306 261.08216 
L 570.04287 260.625857 
L 571.739434 262.571912 
L 573.435999 263.012736 
L 575.132563 262.366763 
L 576.829127 262.249891 
L 578.525692 261.618166 
L 580.222256 262.689091 
L 581.91882 265.417443 
L 583.615385 261.910239 
L 585.311949 263.265442 
L 587.008513 260.613303 
L 588.705078 259.080593 
L 590.401642 260.823561 
L 592.098206 259.034476 
L 593.79477 243.604041 
L 595.491335 258.471683 
L 597.187899 259.881918 
L 598.884463 262.38026 
L 600.581028 254.901766 
L 602.277592 263.939167 
L 603.974156 251.151537 
L 605.670721 252.860379 
L 607.367285 257.625981 
L 609.063849 250.020223 
L 610.760413 262.26231 
L 614.153542 258.965744 
L 615.850106 249.316328 
L 617.546671 251.781313 
L 619.243235 261.718468 
L 620.939799 241.115723 
L 622.636364 250.910673 
L 622.636364 250.910673 
" clip-path="url(#p9265c68121)" style="fill: none; stroke: #ff7f0e; stroke-width: 1.5; stroke-linecap: square"/>
   </g>
   <g id="patch_3">
    <path d="M 90 320.4 
L 90 43.2 
" style="fill: none; stroke: #000000; stroke-width: 0.8; stroke-linejoin: miter; stroke-linecap: square"/>
   </g>
   <g id="patch_4">
    <path d="M 648 320.4 
L 648 43.2 
" style="fill: none; stroke: #000000; stroke-width: 0.8; stroke-linejoin: miter; stroke-linecap: square"/>
   </g>
   <g id="patch_5">
    <path d="M 90 320.4 
L 648 320.4 
" style="fill: none; stroke: #000000; stroke-width: 0.8; stroke-linejoin: miter; stroke-linecap: square"/>
   </g>
   <g id="patch_6">
    <path d="M 90 43.2 
L 648 43.2 
" style="fill: none; stroke: #000000; stroke-width: 0.8; stroke-linejoin: miter; stroke-linecap: square"/>
   </g>
   <g id="text_13">
    <!-- Training and Validating Domain Loss -->
    <g transform="translate(260.204063 37.2) scale(0.12 -0.12)">
     <defs>
      <path id="DejaVuSans-54" d="M -19 4666 
L 3928 4666 
L 3928 4134 
L 2272 4134 
L 2272 0 
L 1638 0 
L 1638 4134 
L -19 4134 
L -19 4666 
z
" transform="scale(0.015625)"/>
      <path id="DejaVuSans-72" d="M 2631 2963 
Q 2534 3019 2420 3045 
Q 2306 3072 2169 3072 
Q 1681 3072 1420 2755 
Q 1159 2438 1159 1844 
L 1159 0 
L 581 0 
L 581 3500 
L 1159 3500 
L 1159 2956 
Q 1341 3275 1631 3429 
Q 1922 3584 2338 3584 
Q 2397 3584 2469 3576 
Q 2541 3569 2628 3553 
L 2631 2963 
z
" transform="scale(0.015625)"/>
      <path id="DejaVuSans-67" d="M 2906 1791 
Q 2906 2416 2648 2759 
Q 2391 3103 1925 3103 
Q 1463 3103 1205 2759 
Q 947 2416 947 1791 
Q 947 1169 1205 825 
Q 1463 481 1925 481 
Q 2391 481 2648 825 
Q 2906 1169 2906 1791 
z
M 3481 434 
Q 3481 -459 3084 -895 
Q 2688 -1331 1869 -1331 
Q 1566 -1331 1297 -1286 
Q 1028 -1241 775 -1147 
L 775 -588 
Q 1028 -725 1275 -790 
Q 1522 -856 1778 -856 
Q 2344 -856 2625 -561 
Q 2906 -266 2906 331 
L 2906 616 
Q 2728 306 2450 153 
Q 2172 0 1784 0 
Q 1141 0 747 490 
Q 353 981 353 1791 
Q 353 2603 747 3093 
Q 1141 3584 1784 3584 
Q 2172 3584 2450 3431 
Q 2728 3278 2906 2969 
L 2906 3500 
L 3481 3500 
L 3481 434 
z
" transform="scale(0.015625)"/>
      <path id="DejaVuSans-64" d="M 2906 2969 
L 2906 4863 
L 3481 4863 
L 3481 0 
L 2906 0 
L 2906 525 
Q 2725 213 2448 61 
Q 2172 -91 1784 -91 
Q 1150 -91 751 415 
Q 353 922 353 1747 
Q 353 2572 751 3078 
Q 1150 3584 1784 3584 
Q 2172 3584 2448 3432 
Q 2725 3281 2906 2969 
z
M 947 1747 
Q 947 1113 1208 752 
Q 1469 391 1925 391 
Q 2381 391 2643 752 
Q 2906 1113 2906 1747 
Q 2906 2381 2643 2742 
Q 2381 3103 1925 3103 
Q 1469 3103 1208 2742 
Q 947 2381 947 1747 
z
" transform="scale(0.015625)"/>
      <path id="DejaVuSans-56" d="M 1831 0 
L 50 4666 
L 709 4666 
L 2188 738 
L 3669 4666 
L 4325 4666 
L 2547 0 
L 1831 0 
z
" transform="scale(0.015625)"/>
      <path id="DejaVuSans-6c" d="M 603 4863 
L 1178 4863 
L 1178 0 
L 603 0 
L 603 4863 
z
" transform="scale(0.015625)"/>
      <path id="DejaVuSans-74" d="M 1172 4494 
L 1172 3500 
L 2356 3500 
L 2356 3053 
L 1172 3053 
L 1172 1153 
Q 1172 725 1289 603 
Q 1406 481 1766 481 
L 2356 481 
L 2356 0 
L 1766 0 
Q 1100 0 847 248 
Q 594 497 594 1153 
L 594 3053 
L 172 3053 
L 172 3500 
L 594 3500 
L 594 4494 
L 1172 4494 
z
" transform="scale(0.015625)"/>
     </defs>
     <use xlink:href="#DejaVuSans-54"/>
     <use xlink:href="#DejaVuSans-72" transform="translate(46.333984 0)"/>
     <use xlink:href="#DejaVuSans-61" transform="translate(87.447266 0)"/>
     <use xlink:href="#DejaVuSans-69" transform="translate(148.726562 0)"/>
     <use xlink:href="#DejaVuSans-6e" transform="translate(176.509766 0)"/>
     <use xlink:href="#DejaVuSans-69" transform="translate(239.888672 0)"/>
     <use xlink:href="#DejaVuSans-6e" transform="translate(267.671875 0)"/>
     <use xlink:href="#DejaVuSans-67" transform="translate(331.050781 0)"/>
     <use xlink:href="#DejaVuSans-20" transform="translate(394.527344 0)"/>
     <use xlink:href="#DejaVuSans-61" transform="translate(426.314453 0)"/>
     <use xlink:href="#DejaVuSans-6e" transform="translate(487.59375 0)"/>
     <use xlink:href="#DejaVuSans-64" transform="translate(550.972656 0)"/>
     <use xlink:href="#DejaVuSans-20" transform="translate(614.449219 0)"/>
     <use xlink:href="#DejaVuSans-56" transform="translate(646.236328 0)"/>
     <use xlink:href="#DejaVuSans-61" transform="translate(706.894531 0)"/>
     <use xlink:href="#DejaVuSans-6c" transform="translate(768.173828 0)"/>
     <use xlink:href="#DejaVuSans-69" transform="translate(795.957031 0)"/>
     <use xlink:href="#DejaVuSans-64" transform="translate(823.740234 0)"/>
     <use xlink:href="#DejaVuSans-61" transform="translate(887.216797 0)"/>
     <use xlink:href="#DejaVuSans-74" transform="translate(948.496094 0)"/>
     <use xlink:href="#DejaVuSans-69" transform="translate(987.705078 0)"/>
     <use xlink:href="#DejaVuSans-6e" transform="translate(1015.488281 0)"/>
     <use xlink:href="#DejaVuSans-67" transform="translate(1078.867188 0)"/>
     <use xlink:href="#DejaVuSans-20" transform="translate(1142.34375 0)"/>
     <use xlink:href="#DejaVuSans-44" transform="translate(1174.130859 0)"/>
     <use xlink:href="#DejaVuSans-6f" transform="translate(1251.132812 0)"/>
     <use xlink:href="#DejaVuSans-6d" transform="translate(1312.314453 0)"/>
     <use xlink:href="#DejaVuSans-61" transform="translate(1409.726562 0)"/>
     <use xlink:href="#DejaVuSans-69" transform="translate(1471.005859 0)"/>
     <use xlink:href="#DejaVuSans-6e" transform="translate(1498.789062 0)"/>
     <use xlink:href="#DejaVuSans-20" transform="translate(1562.167969 0)"/>
     <use xlink:href="#DejaVuSans-4c" transform="translate(1593.955078 0)"/>
     <use xlink:href="#DejaVuSans-6f" transform="translate(1647.917969 0)"/>
     <use xlink:href="#DejaVuSans-73" transform="translate(1709.099609 0)"/>
     <use xlink:href="#DejaVuSans-73" transform="translate(1761.199219 0)"/>
    </g>
   </g>
   <g id="legend_1">
    <g id="patch_7">
     <path d="M 559.389063 80.55625 
L 641 80.55625 
Q 643 80.55625 643 78.55625 
L 643 50.2 
Q 643 48.2 641 48.2 
L 559.389063 48.2 
Q 557.389063 48.2 557.389063 50.2 
L 557.389063 78.55625 
Q 557.389063 80.55625 559.389063 80.55625 
z
" style="fill: #ffffff; opacity: 0.8; stroke: #cccccc; stroke-linejoin: miter"/>
    </g>
    <g id="line2d_13">
     <path d="M 561.389063 56.298437 
L 571.389063 56.298437 
L 581.389063 56.298437 
" style="fill: none; stroke: #1f77b4; stroke-width: 1.5; stroke-linecap: square"/>
    </g>
    <g id="text_14">
     <!-- Training -->
     <g transform="translate(589.389063 59.798437) scale(0.1 -0.1)">
      <use xlink:href="#DejaVuSans-54"/>
      <use xlink:href="#DejaVuSans-72" transform="translate(46.333984 0)"/>
      <use xlink:href="#DejaVuSans-61" transform="translate(87.447266 0)"/>
      <use xlink:href="#DejaVuSans-69" transform="translate(148.726562 0)"/>
      <use xlink:href="#DejaVuSans-6e" transform="translate(176.509766 0)"/>
      <use xlink:href="#DejaVuSans-69" transform="translate(239.888672 0)"/>
      <use xlink:href="#DejaVuSans-6e" transform="translate(267.671875 0)"/>
      <use xlink:href="#DejaVuSans-67" transform="translate(331.050781 0)"/>
     </g>
    </g>
    <g id="line2d_14">
     <path d="M 561.389063 70.976562 
L 571.389063 70.976562 
L 581.389063 70.976562 
" style="fill: none; stroke: #ff7f0e; stroke-width: 1.5; stroke-linecap: square"/>
    </g>
    <g id="text_15">
     <!-- Validating -->
     <g transform="translate(589.389063 74.476562) scale(0.1 -0.1)">
      <use xlink:href="#DejaVuSans-56"/>
      <use xlink:href="#DejaVuSans-61" transform="translate(60.658203 0)"/>
      <use xlink:href="#DejaVuSans-6c" transform="translate(121.9375 0)"/>
      <use xlink:href="#DejaVuSans-69" transform="translate(149.720703 0)"/>
      <use xlink:href="#DejaVuSans-64" transform="translate(177.503906 0)"/>
      <use xlink:href="#DejaVuSans-61" transform="translate(240.980469 0)"/>
      <use xlink:href="#DejaVuSans-74" transform="translate(302.259766 0)"/>
      <use xlink:href="#DejaVuSans-69" transform="translate(341.46875 0)"/>
      <use xlink:href="#DejaVuSans-6e" transform="translate(369.251953 0)"/>
      <use xlink:href="#DejaVuSans-67" transform="translate(432.630859 0)"/>
     </g>
    </g>
   </g>
  </g>
 </g>
 <defs>
  <clipPath id="p9265c68121">
   <rect x="90" y="43.2" width="558" height="277.2"/>
  </clipPath>
 </defs>
</svg>
