<?xml version="1.0" encoding="utf-8" standalone="no"?>
<!DOCTYPE svg PUBLIC "-//W3C//DTD SVG 1.1//EN"
  "http://www.w3.org/Graphics/SVG/1.1/DTD/svg11.dtd">
<svg xmlns:xlink="http://www.w3.org/1999/xlink" width="720pt" height="360pt" viewBox="0 0 720 360" xmlns="http://www.w3.org/2000/svg" version="1.1">
 <metadata>
  <rdf:RDF xmlns:dc="http://purl.org/dc/elements/1.1/" xmlns:cc="http://creativecommons.org/ns#" xmlns:rdf="http://www.w3.org/1999/02/22-rdf-syntax-ns#">
   <cc:Work>
    <dc:type rdf:resource="http://purl.org/dc/dcmitype/StillImage"/>
    <dc:date>2025-10-19T08:14:36.520010</dc:date>
    <dc:format>image/svg+xml</dc:format>
    <dc:creator>
     <cc:Agent>
      <dc:title>Matplotlib v3.10.1, https://matplotlib.org/</dc:title>
     </cc:Agent>
    </dc:creator>
   </cc:Work>
  </rdf:RDF>
 </metadata>
 <defs>
  <style type="text/css">*{stroke-linejoin: round; stroke-linecap: butt}</style>
 </defs>
 <g id="figure_1">
  <g id="patch_1">
   <path d="M 0 360 
L 720 360 
L 720 0 
L 0 0 
z
" style="fill: #ffffff"/>
  </g>
  <g id="axes_1">
   <g id="patch_2">
    <path d="M 90 320.4 
L 648 320.4 
L 648 43.2 
L 90 43.2 
z
" style="fill: #ffffff"/>
   </g>
   <g id="matplotlib.axis_1">
    <g id="xtick_1">
     <g id="line2d_1">
      <defs>
       <path id="m989f5d0fae" d="M 0 0 
L 0 3.5 
" style="stroke: #000000; stroke-width: 0.8"/>
      </defs>
      <g>
       <use xlink:href="#m989f5d0fae" x="115.363636" y="320.4" style="stroke: #000000; stroke-width: 0.8"/>
      </g>
     </g>
     <g id="text_1">
      <!-- 0 -->
      <g transform="translate(112.182386 334.998438) scale(0.1 -0.1)">
       <defs>
        <path id="DejaVuSans-30" d="M 2034 4250 
Q 1547 4250 1301 3770 
Q 1056 3291 1056 2328 
Q 1056 1369 1301 889 
Q 1547 409 2034 409 
Q 2525 409 2770 889 
Q 3016 1369 3016 2328 
Q 3016 3291 2770 3770 
Q 2525 4250 2034 4250 
z
M 2034 4750 
Q 2819 4750 3233 4129 
Q 3647 3509 3647 2328 
Q 3647 1150 3233 529 
Q 2819 -91 2034 -91 
Q 1250 -91 836 529 
Q 422 1150 422 2328 
Q 422 3509 836 4129 
Q 1250 4750 2034 4750 
z
" transform="scale(0.015625)"/>
       </defs>
       <use xlink:href="#DejaVuSans-30"/>
      </g>
     </g>
    </g>
    <g id="xtick_2">
     <g id="line2d_2">
      <g>
       <use xlink:href="#m989f5d0fae" x="217.157495" y="320.4" style="stroke: #000000; stroke-width: 0.8"/>
      </g>
     </g>
     <g id="text_2">
      <!-- 60 -->
      <g transform="translate(210.794995 334.998438) scale(0.1 -0.1)">
       <defs>
        <path id="DejaVuSans-36" d="M 2113 2584 
Q 1688 2584 1439 2293 
Q 1191 2003 1191 1497 
Q 1191 994 1439 701 
Q 1688 409 2113 409 
Q 2538 409 2786 701 
Q 3034 994 3034 1497 
Q 3034 2003 2786 2293 
Q 2538 2584 2113 2584 
z
M 3366 4563 
L 3366 3988 
Q 3128 4100 2886 4159 
Q 2644 4219 2406 4219 
Q 1781 4219 1451 3797 
Q 1122 3375 1075 2522 
Q 1259 2794 1537 2939 
Q 1816 3084 2150 3084 
Q 2853 3084 3261 2657 
Q 3669 2231 3669 1497 
Q 3669 778 3244 343 
Q 2819 -91 2113 -91 
Q 1303 -91 875 529 
Q 447 1150 447 2328 
Q 447 3434 972 4092 
Q 1497 4750 2381 4750 
Q 2619 4750 2861 4703 
Q 3103 4656 3366 4563 
z
" transform="scale(0.015625)"/>
       </defs>
       <use xlink:href="#DejaVuSans-36"/>
       <use xlink:href="#DejaVuSans-30" transform="translate(63.623047 0)"/>
      </g>
     </g>
    </g>
    <g id="xtick_3">
     <g id="line2d_3">
      <g>
       <use xlink:href="#m989f5d0fae" x="318.951353" y="320.4" style="stroke: #000000; stroke-width: 0.8"/>
      </g>
     </g>
     <g id="text_3">
      <!-- 120 -->
      <g transform="translate(309.407603 334.998438) scale(0.1 -0.1)">
       <defs>
        <path id="DejaVuSans-31" d="M 794 531 
L 1825 531 
L 1825 4091 
L 703 3866 
L 703 4441 
L 1819 4666 
L 2450 4666 
L 2450 531 
L 3481 531 
L 3481 0 
L 794 0 
L 794 531 
z
" transform="scale(0.015625)"/>
        <path id="DejaVuSans-32" d="M 1228 531 
L 3431 531 
L 3431 0 
L 469 0 
L 469 531 
Q 828 903 1448 1529 
Q 2069 2156 2228 2338 
Q 2531 2678 2651 2914 
Q 2772 3150 2772 3378 
Q 2772 3750 2511 3984 
Q 2250 4219 1831 4219 
Q 1534 4219 1204 4116 
Q 875 4013 500 3803 
L 500 4441 
Q 881 4594 1212 4672 
Q 1544 4750 1819 4750 
Q 2544 4750 2975 4387 
Q 3406 4025 3406 3419 
Q 3406 3131 3298 2873 
Q 3191 2616 2906 2266 
Q 2828 2175 2409 1742 
Q 1991 1309 1228 531 
z
" transform="scale(0.015625)"/>
       </defs>
       <use xlink:href="#DejaVuSans-31"/>
       <use xlink:href="#DejaVuSans-32" transform="translate(63.623047 0)"/>
       <use xlink:href="#DejaVuSans-30" transform="translate(127.246094 0)"/>
      </g>
     </g>
    </g>
    <g id="xtick_4">
     <g id="line2d_4">
      <g>
       <use xlink:href="#m989f5d0fae" x="420.745211" y="320.4" style="stroke: #000000; stroke-width: 0.8"/>
      </g>
     </g>
     <g id="text_4">
      <!-- 180 -->
      <g transform="translate(411.201461 334.998438) scale(0.1 -0.1)">
       <defs>
        <path id="DejaVuSans-38" d="M 2034 2216 
Q 1584 2216 1326 1975 
Q 1069 1734 1069 1313 
Q 1069 891 1326 650 
Q 1584 409 2034 409 
Q 2484 409 2743 651 
Q 3003 894 3003 1313 
Q 3003 1734 2745 1975 
Q 2488 2216 2034 2216 
z
M 1403 2484 
Q 997 2584 770 2862 
Q 544 3141 544 3541 
Q 544 4100 942 4425 
Q 1341 4750 2034 4750 
Q 2731 4750 3128 4425 
Q 3525 4100 3525 3541 
Q 3525 3141 3298 2862 
Q 3072 2584 2669 2484 
Q 3125 2378 3379 2068 
Q 3634 1759 3634 1313 
Q 3634 634 3220 271 
Q 2806 -91 2034 -91 
Q 1263 -91 848 271 
Q 434 634 434 1313 
Q 434 1759 690 2068 
Q 947 2378 1403 2484 
z
M 1172 3481 
Q 1172 3119 1398 2916 
Q 1625 2713 2034 2713 
Q 2441 2713 2670 2916 
Q 2900 3119 2900 3481 
Q 2900 3844 2670 4047 
Q 2441 4250 2034 4250 
Q 1625 4250 1398 4047 
Q 1172 3844 1172 3481 
z
" transform="scale(0.015625)"/>
       </defs>
       <use xlink:href="#DejaVuSans-31"/>
       <use xlink:href="#DejaVuSans-38" transform="translate(63.623047 0)"/>
       <use xlink:href="#DejaVuSans-30" transform="translate(127.246094 0)"/>
      </g>
     </g>
    </g>
    <g id="xtick_5">
     <g id="line2d_5">
      <g>
       <use xlink:href="#m989f5d0fae" x="522.53907" y="320.4" style="stroke: #000000; stroke-width: 0.8"/>
      </g>
     </g>
     <g id="text_5">
      <!-- 240 -->
      <g transform="translate(512.99532 334.998438) scale(0.1 -0.1)">
       <defs>
        <path id="DejaVuSans-34" d="M 2419 4116 
L 825 1625 
L 2419 1625 
L 2419 4116 
z
M 2253 4666 
L 3047 4666 
L 3047 1625 
L 3713 1625 
L 3713 1100 
L 3047 1100 
L 3047 0 
L 2419 0 
L 2419 1100 
L 313 1100 
L 313 1709 
L 2253 4666 
z
" transform="scale(0.015625)"/>
       </defs>
       <use xlink:href="#DejaVuSans-32"/>
       <use xlink:href="#DejaVuSans-34" transform="translate(63.623047 0)"/>
       <use xlink:href="#DejaVuSans-30" transform="translate(127.246094 0)"/>
      </g>
     </g>
    </g>
    <g id="text_6">
     <!-- Epoch -->
     <g transform="translate(353.689062 348.676562) scale(0.1 -0.1)">
      <defs>
       <path id="DejaVuSans-45" d="M 628 4666 
L 3578 4666 
L 3578 4134 
L 1259 4134 
L 1259 2753 
L 3481 2753 
L 3481 2222 
L 1259 2222 
L 1259 531 
L 3634 531 
L 3634 0 
L 628 0 
L 628 4666 
z
" transform="scale(0.015625)"/>
       <path id="DejaVuSans-70" d="M 1159 525 
L 1159 -1331 
L 581 -1331 
L 581 3500 
L 1159 3500 
L 1159 2969 
Q 1341 3281 1617 3432 
Q 1894 3584 2278 3584 
Q 2916 3584 3314 3078 
Q 3713 2572 3713 1747 
Q 3713 922 3314 415 
Q 2916 -91 2278 -91 
Q 1894 -91 1617 61 
Q 1341 213 1159 525 
z
M 3116 1747 
Q 3116 2381 2855 2742 
Q 2594 3103 2138 3103 
Q 1681 3103 1420 2742 
Q 1159 2381 1159 1747 
Q 1159 1113 1420 752 
Q 1681 391 2138 391 
Q 2594 391 2855 752 
Q 3116 1113 3116 1747 
z
" transform="scale(0.015625)"/>
       <path id="DejaVuSans-6f" d="M 1959 3097 
Q 1497 3097 1228 2736 
Q 959 2375 959 1747 
Q 959 1119 1226 758 
Q 1494 397 1959 397 
Q 2419 397 2687 759 
Q 2956 1122 2956 1747 
Q 2956 2369 2687 2733 
Q 2419 3097 1959 3097 
z
M 1959 3584 
Q 2709 3584 3137 3096 
Q 3566 2609 3566 1747 
Q 3566 888 3137 398 
Q 2709 -91 1959 -91 
Q 1206 -91 779 398 
Q 353 888 353 1747 
Q 353 2609 779 3096 
Q 1206 3584 1959 3584 
z
" transform="scale(0.015625)"/>
       <path id="DejaVuSans-63" d="M 3122 3366 
L 3122 2828 
Q 2878 2963 2633 3030 
Q 2388 3097 2138 3097 
Q 1578 3097 1268 2742 
Q 959 2388 959 1747 
Q 959 1106 1268 751 
Q 1578 397 2138 397 
Q 2388 397 2633 464 
Q 2878 531 3122 666 
L 3122 134 
Q 2881 22 2623 -34 
Q 2366 -91 2075 -91 
Q 1284 -91 818 406 
Q 353 903 353 1747 
Q 353 2603 823 3093 
Q 1294 3584 2113 3584 
Q 2378 3584 2631 3529 
Q 2884 3475 3122 3366 
z
" transform="scale(0.015625)"/>
       <path id="DejaVuSans-68" d="M 3513 2113 
L 3513 0 
L 2938 0 
L 2938 2094 
Q 2938 2591 2744 2837 
Q 2550 3084 2163 3084 
Q 1697 3084 1428 2787 
Q 1159 2491 1159 1978 
L 1159 0 
L 581 0 
L 581 4863 
L 1159 4863 
L 1159 2956 
Q 1366 3272 1645 3428 
Q 1925 3584 2291 3584 
Q 2894 3584 3203 3211 
Q 3513 2838 3513 2113 
z
" transform="scale(0.015625)"/>
      </defs>
      <use xlink:href="#DejaVuSans-45"/>
      <use xlink:href="#DejaVuSans-70" transform="translate(63.183594 0)"/>
      <use xlink:href="#DejaVuSans-6f" transform="translate(126.660156 0)"/>
      <use xlink:href="#DejaVuSans-63" transform="translate(187.841797 0)"/>
      <use xlink:href="#DejaVuSans-68" transform="translate(242.822266 0)"/>
     </g>
    </g>
   </g>
   <g id="matplotlib.axis_2">
    <g id="ytick_1">
     <g id="line2d_6">
      <defs>
       <path id="mac8bbbe48c" d="M 0 0 
L -3.5 0 
" style="stroke: #000000; stroke-width: 0.8"/>
      </defs>
      <g>
       <use xlink:href="#mac8bbbe48c" x="90" y="280.38137" style="stroke: #000000; stroke-width: 0.8"/>
      </g>
     </g>
     <g id="text_7">
      <!-- 2 -->
      <g transform="translate(76.6375 284.180589) scale(0.1 -0.1)">
       <use xlink:href="#DejaVuSans-32"/>
      </g>
     </g>
    </g>
    <g id="ytick_2">
     <g id="line2d_7">
      <g>
       <use xlink:href="#mac8bbbe48c" x="90" y="235.133659" style="stroke: #000000; stroke-width: 0.8"/>
      </g>
     </g>
     <g id="text_8">
      <!-- 3 -->
      <g transform="translate(76.6375 238.932878) scale(0.1 -0.1)">
       <defs>
        <path id="DejaVuSans-33" d="M 2597 2516 
Q 3050 2419 3304 2112 
Q 3559 1806 3559 1356 
Q 3559 666 3084 287 
Q 2609 -91 1734 -91 
Q 1441 -91 1130 -33 
Q 819 25 488 141 
L 488 750 
Q 750 597 1062 519 
Q 1375 441 1716 441 
Q 2309 441 2620 675 
Q 2931 909 2931 1356 
Q 2931 1769 2642 2001 
Q 2353 2234 1838 2234 
L 1294 2234 
L 1294 2753 
L 1863 2753 
Q 2328 2753 2575 2939 
Q 2822 3125 2822 3475 
Q 2822 3834 2567 4026 
Q 2313 4219 1838 4219 
Q 1578 4219 1281 4162 
Q 984 4106 628 3988 
L 628 4550 
Q 988 4650 1302 4700 
Q 1616 4750 1894 4750 
Q 2613 4750 3031 4423 
Q 3450 4097 3450 3541 
Q 3450 3153 3228 2886 
Q 3006 2619 2597 2516 
z
" transform="scale(0.015625)"/>
       </defs>
       <use xlink:href="#DejaVuSans-33"/>
      </g>
     </g>
    </g>
    <g id="ytick_3">
     <g id="line2d_8">
      <g>
       <use xlink:href="#mac8bbbe48c" x="90" y="189.885948" style="stroke: #000000; stroke-width: 0.8"/>
      </g>
     </g>
     <g id="text_9">
      <!-- 4 -->
      <g transform="translate(76.6375 193.685167) scale(0.1 -0.1)">
       <use xlink:href="#DejaVuSans-34"/>
      </g>
     </g>
    </g>
    <g id="ytick_4">
     <g id="line2d_9">
      <g>
       <use xlink:href="#mac8bbbe48c" x="90" y="144.638237" style="stroke: #000000; stroke-width: 0.8"/>
      </g>
     </g>
     <g id="text_10">
      <!-- 5 -->
      <g transform="translate(76.6375 148.437456) scale(0.1 -0.1)">
       <defs>
        <path id="DejaVuSans-35" d="M 691 4666 
L 3169 4666 
L 3169 4134 
L 1269 4134 
L 1269 2991 
Q 1406 3038 1543 3061 
Q 1681 3084 1819 3084 
Q 2600 3084 3056 2656 
Q 3513 2228 3513 1497 
Q 3513 744 3044 326 
Q 2575 -91 1722 -91 
Q 1428 -91 1123 -41 
Q 819 9 494 109 
L 494 744 
Q 775 591 1075 516 
Q 1375 441 1709 441 
Q 2250 441 2565 725 
Q 2881 1009 2881 1497 
Q 2881 1984 2565 2268 
Q 2250 2553 1709 2553 
Q 1456 2553 1204 2497 
Q 953 2441 691 2322 
L 691 4666 
z
" transform="scale(0.015625)"/>
       </defs>
       <use xlink:href="#DejaVuSans-35"/>
      </g>
     </g>
    </g>
    <g id="ytick_5">
     <g id="line2d_10">
      <g>
       <use xlink:href="#mac8bbbe48c" x="90" y="99.390526" style="stroke: #000000; stroke-width: 0.8"/>
      </g>
     </g>
     <g id="text_11">
      <!-- 6 -->
      <g transform="translate(76.6375 103.189745) scale(0.1 -0.1)">
       <use xlink:href="#DejaVuSans-36"/>
      </g>
     </g>
    </g>
    <g id="ytick_6">
     <g id="line2d_11">
      <g>
       <use xlink:href="#mac8bbbe48c" x="90" y="54.142815" style="stroke: #000000; stroke-width: 0.8"/>
      </g>
     </g>
     <g id="text_12">
      <!-- 7 -->
      <g transform="translate(76.6375 57.942034) scale(0.1 -0.1)">
       <defs>
        <path id="DejaVuSans-37" d="M 525 4666 
L 3525 4666 
L 3525 4397 
L 1831 0 
L 1172 0 
L 2766 4134 
L 525 4134 
L 525 4666 
z
" transform="scale(0.015625)"/>
       </defs>
       <use xlink:href="#DejaVuSans-37"/>
      </g>
     </g>
    </g>
    <g id="text_13">
     <!-- Estimation Loss -->
     <g transform="translate(70.557812 220.98125) rotate(-90) scale(0.1 -0.1)">
      <defs>
       <path id="DejaVuSans-73" d="M 2834 3397 
L 2834 2853 
Q 2591 2978 2328 3040 
Q 2066 3103 1784 3103 
Q 1356 3103 1142 2972 
Q 928 2841 928 2578 
Q 928 2378 1081 2264 
Q 1234 2150 1697 2047 
L 1894 2003 
Q 2506 1872 2764 1633 
Q 3022 1394 3022 966 
Q 3022 478 2636 193 
Q 2250 -91 1575 -91 
Q 1294 -91 989 -36 
Q 684 19 347 128 
L 347 722 
Q 666 556 975 473 
Q 1284 391 1588 391 
Q 1994 391 2212 530 
Q 2431 669 2431 922 
Q 2431 1156 2273 1281 
Q 2116 1406 1581 1522 
L 1381 1569 
Q 847 1681 609 1914 
Q 372 2147 372 2553 
Q 372 3047 722 3315 
Q 1072 3584 1716 3584 
Q 2034 3584 2315 3537 
Q 2597 3491 2834 3397 
z
" transform="scale(0.015625)"/>
       <path id="DejaVuSans-74" d="M 1172 4494 
L 1172 3500 
L 2356 3500 
L 2356 3053 
L 1172 3053 
L 1172 1153 
Q 1172 725 1289 603 
Q 1406 481 1766 481 
L 2356 481 
L 2356 0 
L 1766 0 
Q 1100 0 847 248 
Q 594 497 594 1153 
L 594 3053 
L 172 3053 
L 172 3500 
L 594 3500 
L 594 4494 
L 1172 4494 
z
" transform="scale(0.015625)"/>
       <path id="DejaVuSans-69" d="M 603 3500 
L 1178 3500 
L 1178 0 
L 603 0 
L 603 3500 
z
M 603 4863 
L 1178 4863 
L 1178 4134 
L 603 4134 
L 603 4863 
z
" transform="scale(0.015625)"/>
       <path id="DejaVuSans-6d" d="M 3328 2828 
Q 3544 3216 3844 3400 
Q 4144 3584 4550 3584 
Q 5097 3584 5394 3201 
Q 5691 2819 5691 2113 
L 5691 0 
L 5113 0 
L 5113 2094 
Q 5113 2597 4934 2840 
Q 4756 3084 4391 3084 
Q 3944 3084 3684 2787 
Q 3425 2491 3425 1978 
L 3425 0 
L 2847 0 
L 2847 2094 
Q 2847 2600 2669 2842 
Q 2491 3084 2119 3084 
Q 1678 3084 1418 2786 
Q 1159 2488 1159 1978 
L 1159 0 
L 581 0 
L 581 3500 
L 1159 3500 
L 1159 2956 
Q 1356 3278 1631 3431 
Q 1906 3584 2284 3584 
Q 2666 3584 2933 3390 
Q 3200 3197 3328 2828 
z
" transform="scale(0.015625)"/>
       <path id="DejaVuSans-61" d="M 2194 1759 
Q 1497 1759 1228 1600 
Q 959 1441 959 1056 
Q 959 750 1161 570 
Q 1363 391 1709 391 
Q 2188 391 2477 730 
Q 2766 1069 2766 1631 
L 2766 1759 
L 2194 1759 
z
M 3341 1997 
L 3341 0 
L 2766 0 
L 2766 531 
Q 2569 213 2275 61 
Q 1981 -91 1556 -91 
Q 1019 -91 701 211 
Q 384 513 384 1019 
Q 384 1609 779 1909 
Q 1175 2209 1959 2209 
L 2766 2209 
L 2766 2266 
Q 2766 2663 2505 2880 
Q 2244 3097 1772 3097 
Q 1472 3097 1187 3025 
Q 903 2953 641 2809 
L 641 3341 
Q 956 3463 1253 3523 
Q 1550 3584 1831 3584 
Q 2591 3584 2966 3190 
Q 3341 2797 3341 1997 
z
" transform="scale(0.015625)"/>
       <path id="DejaVuSans-6e" d="M 3513 2113 
L 3513 0 
L 2938 0 
L 2938 2094 
Q 2938 2591 2744 2837 
Q 2550 3084 2163 3084 
Q 1697 3084 1428 2787 
Q 1159 2491 1159 1978 
L 1159 0 
L 581 0 
L 581 3500 
L 1159 3500 
L 1159 2956 
Q 1366 3272 1645 3428 
Q 1925 3584 2291 3584 
Q 2894 3584 3203 3211 
Q 3513 2838 3513 2113 
z
" transform="scale(0.015625)"/>
       <path id="DejaVuSans-20" transform="scale(0.015625)"/>
       <path id="DejaVuSans-4c" d="M 628 4666 
L 1259 4666 
L 1259 531 
L 3531 531 
L 3531 0 
L 628 0 
L 628 4666 
z
" transform="scale(0.015625)"/>
      </defs>
      <use xlink:href="#DejaVuSans-45"/>
      <use xlink:href="#DejaVuSans-73" transform="translate(63.183594 0)"/>
      <use xlink:href="#DejaVuSans-74" transform="translate(115.283203 0)"/>
      <use xlink:href="#DejaVuSans-69" transform="translate(154.492188 0)"/>
      <use xlink:href="#DejaVuSans-6d" transform="translate(182.275391 0)"/>
      <use xlink:href="#DejaVuSans-61" transform="translate(279.6875 0)"/>
      <use xlink:href="#DejaVuSans-74" transform="translate(340.966797 0)"/>
      <use xlink:href="#DejaVuSans-69" transform="translate(380.175781 0)"/>
      <use xlink:href="#DejaVuSans-6f" transform="translate(407.958984 0)"/>
      <use xlink:href="#DejaVuSans-6e" transform="translate(469.140625 0)"/>
      <use xlink:href="#DejaVuSans-20" transform="translate(532.519531 0)"/>
      <use xlink:href="#DejaVuSans-4c" transform="translate(564.306641 0)"/>
      <use xlink:href="#DejaVuSans-6f" transform="translate(618.269531 0)"/>
      <use xlink:href="#DejaVuSans-73" transform="translate(679.451172 0)"/>
      <use xlink:href="#DejaVuSans-73" transform="translate(731.550781 0)"/>
     </g>
    </g>
   </g>
   <g id="line2d_12">
    <path d="M 115.363636 256.775455 
L 117.060201 265.860833 
L 118.756765 268.350216 
L 122.149894 270.972051 
L 125.543022 272.918848 
L 127.239587 273.270998 
L 128.936151 273.898828 
L 130.632715 274.721118 
L 132.329279 275.31547 
L 137.418972 276.49812 
L 140.812101 276.931116 
L 144.20523 277.481585 
L 145.901794 277.760769 
L 149.294922 277.874942 
L 150.991487 278.263377 
L 154.384615 278.560995 
L 156.08118 278.78752 
L 157.777744 278.886035 
L 161.170873 279.46859 
L 162.867437 279.506735 
L 164.564001 279.70526 
L 166.260566 279.738074 
L 173.046823 281.125752 
L 174.743387 281.194623 
L 176.439951 281.434308 
L 179.83308 281.561704 
L 186.619337 282.971381 
L 190.012466 283.383576 
L 193.405594 283.756978 
L 195.102159 283.966752 
L 196.798723 284.367363 
L 201.888416 286.019619 
L 205.281545 286.92654 
L 206.978109 287.083134 
L 212.067802 288.278471 
L 213.764366 289.026644 
L 215.46093 289.492076 
L 217.157495 290.108027 
L 220.550623 291.530251 
L 222.247188 292.007771 
L 225.640316 293.329285 
L 229.033445 293.678438 
L 230.730009 294.612034 
L 232.426573 295.066421 
L 234.123138 295.889048 
L 237.516266 296.812311 
L 239.212831 297.163042 
L 240.909395 297.891721 
L 242.605959 298.199739 
L 247.695652 299.460956 
L 249.392216 299.754588 
L 254.481909 301.199217 
L 256.178474 301.604664 
L 259.571602 301.995371 
L 273.144117 303.44547 
L 279.930374 304.062433 
L 285.020067 304.16947 
L 286.716631 304.485905 
L 288.413196 304.514454 
L 290.10976 304.756646 
L 303.682274 304.992438 
L 305.378839 305.080082 
L 307.075403 305.325719 
L 308.771967 305.328357 
L 313.86166 305.657058 
L 315.558224 305.570104 
L 318.951353 305.633813 
L 322.344482 305.677071 
L 325.73761 305.772928 
L 327.434175 305.821255 
L 329.130739 305.752591 
L 330.827303 305.888922 
L 334.220432 305.902364 
L 342.703253 306.0416 
L 344.399818 306.195874 
L 349.48951 306.248747 
L 354.579203 306.320856 
L 361.365461 306.17044 
L 364.758589 306.440032 
L 373.241411 306.588288 
L 376.634539 306.56838 
L 378.331104 306.640814 
L 383.420797 306.603035 
L 386.813925 306.713592 
L 388.51049 306.630018 
L 390.207054 306.672645 
L 393.600182 306.578373 
L 396.993311 306.802358 
L 402.083004 306.737661 
L 403.779568 306.917427 
L 410.565825 306.953273 
L 413.958954 306.970617 
L 419.048647 306.918349 
L 424.13834 306.894346 
L 425.834904 306.955915 
L 427.531469 306.829599 
L 430.924597 306.957827 
L 432.621161 306.727904 
L 436.01429 306.981192 
L 439.407419 307.104071 
L 442.800547 307.134301 
L 446.193676 307.216077 
L 464.855883 307.250101 
L 468.249012 307.230409 
L 473.338705 307.339537 
L 480.124962 307.282669 
L 481.821526 307.349664 
L 483.518091 307.270364 
L 488.607784 307.362318 
L 492.000912 307.283346 
L 497.090605 307.427821 
L 505.573427 307.424433 
L 525.932198 307.476853 
L 527.628763 307.367455 
L 531.021891 307.516227 
L 554.773791 307.660008 
L 568.346306 307.634373 
L 573.435999 307.756261 
L 576.829127 307.711418 
L 590.401642 307.755701 
L 593.79477 307.698412 
L 598.884463 307.749736 
L 622.636364 307.760301 
L 622.636364 307.760301 
" clip-path="url(#pf8af891a58)" style="fill: none; stroke: #1f77b4; stroke-width: 1.5; stroke-linecap: square"/>
   </g>
   <g id="line2d_13">
    <path d="M 115.363636 229.9458 
L 117.060201 229.236315 
L 118.756765 227.502519 
L 120.453329 226.556617 
L 122.149894 226.210125 
L 123.846458 225.528358 
L 125.543022 225.377747 
L 127.239587 225.635145 
L 128.936151 225.188122 
L 130.632715 225.709065 
L 132.329279 225.684218 
L 134.025844 225.019795 
L 135.722408 225.138094 
L 137.418972 225.141273 
L 139.115537 225.28253 
L 140.812101 224.552376 
L 142.508665 225.255024 
L 145.901794 225.493161 
L 147.598358 226.917696 
L 150.991487 226.285655 
L 152.688051 226.201596 
L 154.384615 225.691666 
L 156.08118 226.898555 
L 157.777744 225.91617 
L 159.474308 225.74648 
L 161.170873 225.832408 
L 164.564001 226.189554 
L 166.260566 225.23427 
L 167.95713 225.432495 
L 169.653694 225.417043 
L 171.350258 225.018921 
L 173.046823 224.980501 
L 174.743387 224.123257 
L 176.439951 224.7558 
L 178.136516 224.641192 
L 179.83308 224.959455 
L 181.529644 224.930375 
L 183.226209 224.605933 
L 184.922773 224.920088 
L 186.619337 225.441934 
L 188.315901 225.399741 
L 190.012466 225.009809 
L 191.70903 225.034493 
L 193.405594 225.340276 
L 195.102159 224.617301 
L 196.798723 225.081707 
L 198.495287 224.717729 
L 200.191852 224.665821 
L 201.888416 223.996008 
L 203.58498 224.181633 
L 205.281545 224.247708 
L 206.978109 223.0951 
L 208.674673 223.229738 
L 210.371237 223.742375 
L 212.067802 224.094896 
L 215.46093 224.316855 
L 217.157495 223.859277 
L 218.854059 223.591033 
L 220.550623 224.21012 
L 222.247188 224.535091 
L 223.943752 224.165865 
L 225.640316 225.098864 
L 227.336881 225.301024 
L 229.033445 224.693868 
L 230.730009 223.613474 
L 232.426573 224.625095 
L 234.123138 224.414269 
L 235.819702 225.677738 
L 239.212831 223.167619 
L 240.909395 222.299888 
L 242.605959 220.958942 
L 244.302524 221.871509 
L 245.999088 223.020434 
L 247.695652 223.84873 
L 249.392216 225.703185 
L 251.088781 223.759105 
L 252.785345 225.003012 
L 254.481909 223.123458 
L 256.178474 224.201977 
L 257.875038 224.014937 
L 259.571602 224.038055 
L 261.268167 224.825949 
L 262.964731 226.143141 
L 264.661295 225.119167 
L 266.35786 223.913627 
L 268.054424 224.82089 
L 269.750988 225.185674 
L 271.447552 225.15987 
L 273.144117 224.597745 
L 274.840681 226.226882 
L 276.537245 225.654406 
L 279.930374 226.549816 
L 281.626938 224.235717 
L 283.323503 224.910194 
L 285.020067 226.027759 
L 286.716631 226.300768 
L 288.413196 222.712411 
L 291.806324 227.039226 
L 293.502888 227.802486 
L 295.199453 226.383432 
L 296.896017 227.835083 
L 298.592581 225.644484 
L 300.289146 226.876578 
L 301.98571 223.354945 
L 303.682274 226.296381 
L 305.378839 225.490244 
L 307.075403 226.026782 
L 308.771967 227.241605 
L 310.468531 226.917642 
L 312.165096 227.563968 
L 313.86166 227.083386 
L 315.558224 225.157059 
L 317.254789 226.203622 
L 318.951353 226.67384 
L 322.344482 224.413872 
L 324.041046 228.115586 
L 325.73761 227.889855 
L 327.434175 224.860141 
L 329.130739 228.250296 
L 330.827303 226.633206 
L 332.523867 229.715557 
L 334.220432 227.484042 
L 335.916996 227.223222 
L 337.61356 227.473762 
L 339.310125 227.526085 
L 341.006689 226.693007 
L 342.703253 227.057079 
L 346.096382 226.897708 
L 347.792946 226.45548 
L 349.48951 226.900067 
L 351.186075 227.514822 
L 352.882639 229.225995 
L 354.579203 225.695681 
L 356.275768 226.601504 
L 357.972332 225.547572 
L 359.668896 226.349853 
L 361.365461 226.586151 
L 363.062025 225.038034 
L 364.758589 224.407698 
L 366.455154 226.504961 
L 368.151718 225.673208 
L 369.848282 226.214504 
L 371.544846 224.739061 
L 373.241411 225.152061 
L 374.937975 227.423892 
L 376.634539 227.472857 
L 378.331104 222.950706 
L 380.027668 224.94024 
L 381.724232 226.416074 
L 383.420797 225.58135 
L 385.117361 227.425985 
L 386.813925 225.855588 
L 390.207054 225.72976 
L 391.903618 224.228222 
L 393.600182 228.604846 
L 395.296747 226.609871 
L 396.993311 227.042678 
L 398.689875 227.034461 
L 400.38644 227.369566 
L 402.083004 227.891629 
L 403.779568 229.038277 
L 405.476133 225.833238 
L 407.172697 225.997484 
L 408.869261 226.602062 
L 410.565825 224.682116 
L 412.26239 226.200233 
L 415.655518 226.818091 
L 417.352083 227.81666 
L 419.048647 227.844299 
L 420.745211 226.629984 
L 422.441776 224.645778 
L 424.13834 224.810353 
L 425.834904 223.040237 
L 427.531469 223.851546 
L 429.228033 226.697052 
L 430.924597 226.662741 
L 432.621161 224.95981 
L 434.317726 225.231413 
L 436.01429 224.680829 
L 437.710854 224.876977 
L 439.407419 225.715788 
L 441.103983 225.670696 
L 442.800547 224.991914 
L 444.497112 225.413559 
L 446.193676 224.882095 
L 447.89024 224.096993 
L 449.586804 223.996087 
L 451.283369 225.673668 
L 452.979933 225.715922 
L 454.676497 226.39138 
L 456.373062 225.434546 
L 458.069626 222.733947 
L 459.76619 223.146603 
L 461.462755 223.794997 
L 463.159319 223.694981 
L 464.855883 224.269373 
L 466.552448 224.218815 
L 468.249012 224.313347 
L 469.945576 226.365572 
L 471.64214 225.947727 
L 473.338705 224.052263 
L 475.035269 224.036781 
L 476.731833 223.81425 
L 478.428398 222.63115 
L 480.124962 224.271964 
L 481.821526 224.039876 
L 483.518091 224.083416 
L 485.214655 227.054919 
L 486.911219 222.996113 
L 488.607784 225.410447 
L 490.304348 225.26019 
L 492.000912 222.363767 
L 493.697476 223.334457 
L 495.394041 224.717589 
L 497.090605 226.404778 
L 498.787169 222.851966 
L 500.483734 224.297283 
L 502.180298 224.990166 
L 503.876862 222.971126 
L 505.573427 223.712499 
L 507.269991 222.277164 
L 508.966555 223.690931 
L 510.663119 225.511914 
L 512.359684 223.701805 
L 514.056248 223.883509 
L 515.752812 221.205602 
L 517.449377 223.519269 
L 519.145941 223.264663 
L 520.842505 223.526331 
L 522.53907 223.099367 
L 524.235634 221.991281 
L 525.932198 223.352081 
L 527.628763 224.38424 
L 529.325327 222.018018 
L 532.718455 221.533412 
L 534.41502 220.830861 
L 536.111584 223.8539 
L 537.808148 222.751806 
L 539.504713 223.113873 
L 541.201277 222.788606 
L 542.897841 221.61115 
L 544.594406 223.843625 
L 546.29097 224.069202 
L 547.987534 222.851944 
L 549.684099 222.397394 
L 551.380663 222.068561 
L 553.077227 222.138261 
L 554.773791 223.04902 
L 556.470356 223.641892 
L 558.16692 223.565259 
L 559.863484 222.029121 
L 561.560049 222.074821 
L 563.256613 222.430176 
L 564.953177 221.551971 
L 566.649742 223.898129 
L 568.346306 224.110668 
L 570.04287 222.416124 
L 571.739434 222.670089 
L 573.435999 221.658509 
L 575.132563 221.713406 
L 576.829127 222.550996 
L 578.525692 222.835496 
L 580.222256 222.073162 
L 581.91882 223.559575 
L 583.615385 223.136325 
L 585.311949 223.612054 
L 587.008513 222.975521 
L 588.705078 221.926987 
L 590.401642 223.781885 
L 592.098206 222.444053 
L 593.79477 222.616805 
L 595.491335 220.699811 
L 597.187899 221.276889 
L 598.884463 223.37748 
L 600.581028 222.524204 
L 602.277592 223.371097 
L 603.974156 223.18224 
L 605.670721 223.127906 
L 607.367285 221.352008 
L 609.063849 224.998502 
L 610.760413 223.865281 
L 612.456978 221.247547 
L 614.153542 220.527939 
L 615.850106 222.54428 
L 617.546671 223.181118 
L 619.243235 224.983365 
L 620.939799 223.801237 
L 622.636364 225.114489 
L 622.636364 225.114489 
" clip-path="url(#pf8af891a58)" style="fill: none; stroke: #ff7f0e; stroke-width: 1.5; stroke-linecap: square"/>
   </g>
   <g id="line2d_14">
    <path d="M 115.363636 160.777133 
L 117.060201 165.1118 
L 118.756765 168.074549 
L 120.453329 169.928329 
L 122.149894 171.960354 
L 123.846458 173.551364 
L 125.543022 174.086448 
L 127.239587 174.911686 
L 130.632715 177.688794 
L 132.329279 178.070104 
L 134.025844 178.850824 
L 135.722408 179.138521 
L 137.418972 179.93268 
L 139.115537 180.174505 
L 142.508665 181.188869 
L 144.20523 181.658713 
L 147.598358 182.299503 
L 150.991487 183.421495 
L 152.688051 183.60386 
L 154.384615 184.178516 
L 156.08118 184.104149 
L 157.777744 184.214606 
L 159.474308 184.914793 
L 161.170873 185.443533 
L 162.867437 185.402083 
L 164.564001 185.203227 
L 166.260566 185.513478 
L 167.95713 186.666992 
L 169.653694 187.084145 
L 174.743387 187.786543 
L 176.439951 188.160437 
L 178.136516 187.093654 
L 179.83308 188.816059 
L 181.529644 188.843524 
L 183.226209 189.664549 
L 184.922773 190.27639 
L 186.619337 190.202558 
L 188.315901 190.605997 
L 191.70903 191.930808 
L 193.405594 191.910916 
L 195.102159 192.826476 
L 196.798723 191.858117 
L 198.495287 194.288034 
L 200.191852 194.92382 
L 201.888416 194.189808 
L 203.58498 195.233656 
L 205.281545 195.435255 
L 206.978109 198.125305 
L 208.674673 195.851905 
L 210.371237 200.181291 
L 212.067802 201.165824 
L 213.764366 203.071687 
L 215.46093 203.495713 
L 217.157495 206.577829 
L 218.854059 207.867215 
L 220.550623 210.047675 
L 222.247188 212.983389 
L 223.943752 213.537604 
L 225.640316 215.300601 
L 227.336881 214.889652 
L 229.033445 216.819736 
L 230.730009 219.198846 
L 234.123138 222.643622 
L 235.819702 223.069741 
L 239.212831 224.430619 
L 240.909395 227.434674 
L 242.605959 227.60791 
L 244.302524 227.376369 
L 245.999088 227.597294 
L 247.695652 231.134141 
L 249.392216 231.152791 
L 251.088781 233.296561 
L 252.785345 233.319772 
L 254.481909 234.072541 
L 256.178474 235.738747 
L 257.875038 236.370733 
L 259.571602 235.637771 
L 261.268167 235.553914 
L 262.964731 237.308824 
L 266.35786 238.322371 
L 268.054424 238.235256 
L 269.750988 238.374553 
L 271.447552 238.767681 
L 273.144117 239.424557 
L 274.840681 237.91387 
L 276.537245 239.598654 
L 278.23381 239.843947 
L 279.930374 240.413535 
L 281.626938 240.392779 
L 283.323503 240.076347 
L 285.020067 240.558128 
L 286.716631 240.769108 
L 288.413196 240.403844 
L 290.10976 241.373421 
L 291.806324 241.427075 
L 296.896017 241.037864 
L 298.592581 241.534211 
L 300.289146 241.846936 
L 301.98571 241.17979 
L 303.682274 242.349618 
L 305.378839 241.661579 
L 307.075403 242.663877 
L 308.771967 242.685712 
L 310.468531 242.548666 
L 312.165096 241.334443 
L 313.86166 243.040025 
L 315.558224 243.119454 
L 317.254789 242.202357 
L 318.951353 242.686129 
L 320.647917 242.741609 
L 322.344482 240.690262 
L 324.041046 242.972067 
L 325.73761 242.5283 
L 327.434175 242.684881 
L 330.827303 242.844189 
L 332.523867 243.386336 
L 334.220432 244.21436 
L 335.916996 243.638907 
L 337.61356 244.019754 
L 339.310125 243.910654 
L 341.006689 243.30012 
L 342.703253 242.302357 
L 344.399818 244.05859 
L 346.096382 243.861434 
L 347.792946 242.715651 
L 349.48951 243.287686 
L 351.186075 244.397204 
L 352.882639 243.569772 
L 354.579203 243.337132 
L 356.275768 244.528023 
L 357.972332 244.146648 
L 359.668896 243.473861 
L 361.365461 243.177886 
L 363.062025 243.753683 
L 364.758589 244.162236 
L 366.455154 244.692477 
L 368.151718 244.945154 
L 371.544846 243.978261 
L 373.241411 244.81776 
L 376.634539 244.014179 
L 380.027668 244.72491 
L 381.724232 244.813302 
L 383.420797 244.435552 
L 385.117361 244.913358 
L 386.813925 245.029226 
L 388.51049 244.893744 
L 390.207054 245.293347 
L 391.903618 245.139747 
L 393.600182 244.126845 
L 395.296747 243.940375 
L 396.993311 245.518636 
L 398.689875 245.409729 
L 400.38644 245.593624 
L 402.083004 245.061765 
L 403.779568 245.4178 
L 407.172697 245.656593 
L 408.869261 245.11858 
L 410.565825 245.559093 
L 412.26239 245.505126 
L 413.958954 245.739139 
L 415.655518 244.549033 
L 417.352083 245.243717 
L 419.048647 245.568913 
L 420.745211 245.431803 
L 422.441776 245.113939 
L 424.13834 245.906297 
L 425.834904 245.825222 
L 427.531469 244.216259 
L 429.228033 245.807917 
L 430.924597 245.61198 
L 432.621161 244.951271 
L 434.317726 245.075249 
L 436.01429 245.660326 
L 437.710854 245.578198 
L 439.407419 246.023734 
L 441.103983 245.49613 
L 442.800547 245.828863 
L 444.497112 246.339895 
L 447.89024 246.035351 
L 449.586804 246.239632 
L 451.283369 245.829108 
L 452.979933 246.186599 
L 454.676497 245.646104 
L 456.373062 245.943912 
L 458.069626 245.993106 
L 459.76619 246.237916 
L 461.462755 246.221554 
L 463.159319 245.398457 
L 464.855883 246.058741 
L 466.552448 245.522488 
L 468.249012 246.254742 
L 469.945576 245.940267 
L 471.64214 245.898631 
L 473.338705 246.487878 
L 475.035269 246.557053 
L 476.731833 246.262291 
L 478.428398 245.830107 
L 480.124962 246.38904 
L 481.821526 245.362721 
L 485.214655 246.330397 
L 486.911219 245.814571 
L 488.607784 246.177138 
L 490.304348 246.358697 
L 492.000912 246.15755 
L 493.697476 246.601436 
L 497.090605 246.205358 
L 498.787169 246.498896 
L 500.483734 246.2152 
L 502.180298 246.376618 
L 503.876862 246.276646 
L 505.573427 245.85691 
L 507.269991 246.384215 
L 510.663119 246.273786 
L 512.359684 246.462301 
L 514.056248 246.820877 
L 515.752812 245.357029 
L 517.449377 246.508563 
L 519.145941 246.213298 
L 520.842505 246.654441 
L 522.53907 246.742767 
L 524.235634 246.492916 
L 525.932198 246.717894 
L 529.325327 246.237564 
L 531.021891 246.469508 
L 532.718455 247.008482 
L 536.111584 246.237139 
L 537.808148 246.262977 
L 539.504713 247.037755 
L 541.201277 246.351508 
L 542.897841 246.857569 
L 544.594406 246.601744 
L 546.29097 246.841847 
L 547.987534 246.514831 
L 551.380663 247.015388 
L 553.077227 247.080989 
L 554.773791 246.797012 
L 559.863484 247.058053 
L 561.560049 246.777169 
L 563.256613 246.886137 
L 564.953177 246.819209 
L 566.649742 246.341394 
L 568.346306 246.794312 
L 570.04287 247.0105 
L 571.739434 246.90946 
L 573.435999 246.172465 
L 575.132563 246.932942 
L 576.829127 247.054756 
L 580.222256 246.835447 
L 581.91882 246.892566 
L 583.615385 247.203473 
L 585.311949 246.626383 
L 587.008513 247.13356 
L 588.705078 247.001281 
L 590.401642 247.185467 
L 592.098206 246.878199 
L 593.79477 247.225455 
L 595.491335 246.91231 
L 597.187899 246.87663 
L 600.581028 247.221549 
L 602.277592 246.758873 
L 603.974156 247.146941 
L 605.670721 247.228921 
L 607.367285 247.076881 
L 609.063849 247.081529 
L 610.760413 246.896159 
L 612.456978 247.174496 
L 614.153542 247.22515 
L 617.546671 246.874094 
L 619.243235 247.084124 
L 622.636364 247.250065 
L 622.636364 247.250065 
" clip-path="url(#pf8af891a58)" style="fill: none; stroke: #2ca02c; stroke-width: 1.5; stroke-linecap: square"/>
   </g>
   <g id="line2d_15">
    <path d="M 115.363636 85.189949 
L 117.060201 79.900722 
L 118.756765 80.164363 
L 120.453329 77.386113 
L 122.149894 76.144972 
L 123.846458 76.907051 
L 125.543022 74.834024 
L 127.239587 75.541453 
L 128.936151 77.547849 
L 130.632715 77.762304 
L 132.329279 77.391731 
L 134.025844 75.14769 
L 135.722408 74.521476 
L 137.418972 76.85628 
L 139.115537 76.001052 
L 140.812101 74.279974 
L 142.508665 76.73324 
L 144.20523 74.739225 
L 145.901794 78.466134 
L 147.598358 80.215542 
L 149.294922 76.098249 
L 150.991487 76.99384 
L 152.688051 76.363681 
L 154.384615 78.998419 
L 157.777744 77.792319 
L 159.474308 75.153145 
L 161.170873 76.658262 
L 162.867437 75.995295 
L 164.564001 77.007971 
L 167.95713 73.507641 
L 169.653694 74.586782 
L 171.350258 76.883251 
L 173.046823 72.717856 
L 174.743387 72.685983 
L 176.439951 74.159869 
L 178.136516 76.14829 
L 179.83308 75.63705 
L 181.529644 75.789193 
L 183.226209 77.07351 
L 184.922773 77.067167 
L 186.619337 81.204248 
L 188.315901 75.285888 
L 190.012466 79.645004 
L 191.70903 76.51398 
L 193.405594 75.456949 
L 195.102159 79.256274 
L 196.798723 74.121387 
L 198.495287 75.589535 
L 200.191852 73.103941 
L 201.888416 73.541747 
L 203.58498 72.897438 
L 205.281545 75.227739 
L 206.978109 68.267944 
L 208.674673 67.766555 
L 210.371237 74.245447 
L 212.067802 68.532479 
L 213.764366 77.916682 
L 215.46093 76.228441 
L 217.157495 70.076408 
L 218.854059 66.195133 
L 220.550623 72.868803 
L 222.247188 70.444189 
L 223.943752 71.091255 
L 225.640316 74.151592 
L 227.336881 81.107255 
L 229.033445 71.928545 
L 230.730009 69.573603 
L 232.426573 76.831619 
L 234.123138 76.211388 
L 235.819702 76.507517 
L 237.516266 76.567403 
L 239.212831 63.925798 
L 240.909395 71.525911 
L 242.605959 61.030458 
L 244.302524 67.546079 
L 245.999088 69.556037 
L 247.695652 72.490917 
L 249.392216 72.984152 
L 251.088781 74.527195 
L 252.785345 67.091691 
L 254.481909 69.51129 
L 256.178474 67.525147 
L 257.875038 72.136944 
L 259.571602 72.229255 
L 261.268167 71.837378 
L 262.964731 70.57852 
L 264.661295 58.822808 
L 266.35786 70.097473 
L 268.054424 69.939374 
L 269.750988 65.633694 
L 271.447552 67.060645 
L 273.144117 65.161805 
L 274.840681 76.025494 
L 276.537245 61.542755 
L 278.23381 75.36176 
L 279.930374 65.326017 
L 281.626938 62.216066 
L 283.323503 67.793772 
L 285.020067 68.839702 
L 286.716631 60.792507 
L 288.413196 66.320337 
L 290.10976 67.965876 
L 291.806324 78.31743 
L 293.502888 76.226765 
L 295.199453 69.017885 
L 296.896017 68.100927 
L 298.592581 80.186262 
L 300.289146 67.233263 
L 301.98571 58.635696 
L 303.682274 79.289767 
L 305.378839 70.36287 
L 307.075403 71.331351 
L 308.771967 66.988111 
L 310.468531 80.74313 
L 312.165096 78.776256 
L 313.86166 76.106158 
L 315.558224 72.541047 
L 317.254789 78.296183 
L 318.951353 71.185794 
L 320.647917 73.96058 
L 322.344482 79.931847 
L 324.041046 74.879952 
L 325.73761 77.026607 
L 327.434175 71.306351 
L 329.130739 77.447564 
L 330.827303 76.906126 
L 332.523867 82.905716 
L 334.220432 71.774541 
L 335.916996 81.535649 
L 337.61356 56.439724 
L 339.310125 78.52097 
L 341.006689 77.97801 
L 342.703253 76.759731 
L 344.399818 81.221744 
L 346.096382 73.567778 
L 347.792946 77.432372 
L 349.48951 79.030973 
L 351.186075 77.63568 
L 352.882639 65.09014 
L 354.579203 79.065196 
L 356.275768 74.707054 
L 357.972332 60.792044 
L 359.668896 58.653753 
L 361.365461 74.142356 
L 363.062025 71.506377 
L 364.758589 70.920211 
L 366.455154 73.650366 
L 368.151718 69.030397 
L 369.848282 69.569858 
L 371.544846 72.774099 
L 373.241411 68.980931 
L 374.937975 75.807676 
L 376.634539 76.970119 
L 378.331104 63.398557 
L 380.027668 70.666214 
L 381.724232 64.149082 
L 383.420797 74.677688 
L 385.117361 78.198701 
L 386.813925 72.884072 
L 388.51049 71.897835 
L 390.207054 73.798074 
L 391.903618 79.298706 
L 393.600182 78.236583 
L 395.296747 78.679802 
L 396.993311 75.697406 
L 398.689875 79.843506 
L 400.38644 70.478533 
L 402.083004 77.526394 
L 403.779568 77.258079 
L 405.476133 68.340526 
L 407.172697 72.451604 
L 408.869261 73.486674 
L 410.565825 68.081501 
L 412.26239 73.054236 
L 413.958954 75.463982 
L 415.655518 79.066288 
L 417.352083 74.335378 
L 419.048647 77.738315 
L 420.745211 69.90231 
L 422.441776 71.931709 
L 424.13834 63.281169 
L 425.834904 70.773635 
L 427.531469 75.019423 
L 429.228033 76.356394 
L 430.924597 75.290413 
L 432.621161 67.895297 
L 434.317726 72.197796 
L 436.01429 72.976699 
L 437.710854 70.131071 
L 439.407419 74.447761 
L 441.103983 70.029647 
L 442.800547 73.448399 
L 444.497112 73.130456 
L 446.193676 70.218549 
L 447.89024 70.253247 
L 449.586804 74.569573 
L 451.283369 73.858664 
L 452.979933 76.655009 
L 454.676497 78.926976 
L 456.373062 68.310084 
L 458.069626 70.138209 
L 459.76619 65.102601 
L 461.462755 72.695374 
L 463.159319 69.135973 
L 464.855883 75.942002 
L 466.552448 74.994498 
L 468.249012 73.486797 
L 469.945576 79.874681 
L 471.64214 73.434907 
L 473.338705 70.920981 
L 475.035269 76.521068 
L 476.731833 67.545108 
L 478.428398 66.627005 
L 480.124962 69.803044 
L 481.821526 71.853325 
L 483.518091 70.043097 
L 485.214655 76.268212 
L 486.911219 64.63159 
L 488.607784 70.462726 
L 490.304348 72.773491 
L 492.000912 66.392598 
L 493.697476 76.481543 
L 495.394041 68.649362 
L 497.090605 76.691869 
L 498.787169 65.622652 
L 500.483734 77.440202 
L 502.180298 74.013236 
L 503.876862 69.136109 
L 505.573427 68.734024 
L 507.269991 71.514401 
L 508.966555 76.344877 
L 510.663119 74.065536 
L 512.359684 69.15194 
L 514.056248 62.931174 
L 515.752812 69.887791 
L 517.449377 70.132099 
L 519.145941 69.593152 
L 520.842505 69.971238 
L 522.53907 68.934083 
L 524.235634 69.858436 
L 525.932198 77.464359 
L 527.628763 83.459252 
L 529.325327 58.708807 
L 531.021891 70.744386 
L 532.718455 60.651779 
L 534.41502 62.506144 
L 536.111584 71.289445 
L 537.808148 67.124686 
L 539.504713 70.372396 
L 541.201277 65.701958 
L 542.897841 68.462242 
L 544.594406 70.086989 
L 546.29097 68.60787 
L 547.987534 68.179848 
L 549.684099 65.195219 
L 551.380663 63.237221 
L 553.077227 68.291453 
L 554.773791 71.343129 
L 556.470356 70.555603 
L 558.16692 71.957004 
L 559.863484 68.167455 
L 561.560049 70.518299 
L 563.256613 67.350101 
L 564.953177 66.684442 
L 566.649742 73.710453 
L 568.346306 68.884661 
L 570.04287 67.496871 
L 571.739434 67.127693 
L 573.435999 67.97283 
L 575.132563 68.145313 
L 576.829127 69.257979 
L 578.525692 67.792674 
L 580.222256 68.897832 
L 581.91882 67.389085 
L 583.615385 69.366452 
L 585.311949 69.162247 
L 587.008513 63.027534 
L 588.705078 64.198637 
L 590.401642 66.633085 
L 592.098206 69.787095 
L 593.79477 60.874858 
L 595.491335 61.944765 
L 597.187899 66.711423 
L 598.884463 67.576478 
L 600.581028 62.948673 
L 602.277592 66.776112 
L 603.974156 70.892137 
L 605.670721 63.014353 
L 607.367285 64.050262 
L 609.063849 68.301185 
L 610.760413 62.658049 
L 612.456978 64.770594 
L 614.153542 55.8 
L 615.850106 65.672741 
L 619.243235 77.359834 
L 620.939799 73.668955 
L 622.636364 66.416502 
L 622.636364 66.416502 
" clip-path="url(#pf8af891a58)" style="fill: none; stroke: #d62728; stroke-width: 1.5; stroke-linecap: square"/>
   </g>
   <g id="patch_3">
    <path d="M 90 320.4 
L 90 43.2 
" style="fill: none; stroke: #000000; stroke-width: 0.8; stroke-linejoin: miter; stroke-linecap: square"/>
   </g>
   <g id="patch_4">
    <path d="M 648 320.4 
L 648 43.2 
" style="fill: none; stroke: #000000; stroke-width: 0.8; stroke-linejoin: miter; stroke-linecap: square"/>
   </g>
   <g id="patch_5">
    <path d="M 90 320.4 
L 648 320.4 
" style="fill: none; stroke: #000000; stroke-width: 0.8; stroke-linejoin: miter; stroke-linecap: square"/>
   </g>
   <g id="patch_6">
    <path d="M 90 43.2 
L 648 43.2 
" style="fill: none; stroke: #000000; stroke-width: 0.8; stroke-linejoin: miter; stroke-linecap: square"/>
   </g>
   <g id="text_14">
    <!-- Training and Validating Estimation Loss -->
    <g transform="translate(251.535937 37.2) scale(0.12 -0.12)">
     <defs>
      <path id="DejaVuSans-54" d="M -19 4666 
L 3928 4666 
L 3928 4134 
L 2272 4134 
L 2272 0 
L 1638 0 
L 1638 4134 
L -19 4134 
L -19 4666 
z
" transform="scale(0.015625)"/>
      <path id="DejaVuSans-72" d="M 2631 2963 
Q 2534 3019 2420 3045 
Q 2306 3072 2169 3072 
Q 1681 3072 1420 2755 
Q 1159 2438 1159 1844 
L 1159 0 
L 581 0 
L 581 3500 
L 1159 3500 
L 1159 2956 
Q 1341 3275 1631 3429 
Q 1922 3584 2338 3584 
Q 2397 3584 2469 3576 
Q 2541 3569 2628 3553 
L 2631 2963 
z
" transform="scale(0.015625)"/>
      <path id="DejaVuSans-67" d="M 2906 1791 
Q 2906 2416 2648 2759 
Q 2391 3103 1925 3103 
Q 1463 3103 1205 2759 
Q 947 2416 947 1791 
Q 947 1169 1205 825 
Q 1463 481 1925 481 
Q 2391 481 2648 825 
Q 2906 1169 2906 1791 
z
M 3481 434 
Q 3481 -459 3084 -895 
Q 2688 -1331 1869 -1331 
Q 1566 -1331 1297 -1286 
Q 1028 -1241 775 -1147 
L 775 -588 
Q 1028 -725 1275 -790 
Q 1522 -856 1778 -856 
Q 2344 -856 2625 -561 
Q 2906 -266 2906 331 
L 2906 616 
Q 2728 306 2450 153 
Q 2172 0 1784 0 
Q 1141 0 747 490 
Q 353 981 353 1791 
Q 353 2603 747 3093 
Q 1141 3584 1784 3584 
Q 2172 3584 2450 3431 
Q 2728 3278 2906 2969 
L 2906 3500 
L 3481 3500 
L 3481 434 
z
" transform="scale(0.015625)"/>
      <path id="DejaVuSans-64" d="M 2906 2969 
L 2906 4863 
L 3481 4863 
L 3481 0 
L 2906 0 
L 2906 525 
Q 2725 213 2448 61 
Q 2172 -91 1784 -91 
Q 1150 -91 751 415 
Q 353 922 353 1747 
Q 353 2572 751 3078 
Q 1150 3584 1784 3584 
Q 2172 3584 2448 3432 
Q 2725 3281 2906 2969 
z
M 947 1747 
Q 947 1113 1208 752 
Q 1469 391 1925 391 
Q 2381 391 2643 752 
Q 2906 1113 2906 1747 
Q 2906 2381 2643 2742 
Q 2381 3103 1925 3103 
Q 1469 3103 1208 2742 
Q 947 2381 947 1747 
z
" transform="scale(0.015625)"/>
      <path id="DejaVuSans-56" d="M 1831 0 
L 50 4666 
L 709 4666 
L 2188 738 
L 3669 4666 
L 4325 4666 
L 2547 0 
L 1831 0 
z
" transform="scale(0.015625)"/>
      <path id="DejaVuSans-6c" d="M 603 4863 
L 1178 4863 
L 1178 0 
L 603 0 
L 603 4863 
z
" transform="scale(0.015625)"/>
     </defs>
     <use xlink:href="#DejaVuSans-54"/>
     <use xlink:href="#DejaVuSans-72" transform="translate(46.333984 0)"/>
     <use xlink:href="#DejaVuSans-61" transform="translate(87.447266 0)"/>
     <use xlink:href="#DejaVuSans-69" transform="translate(148.726562 0)"/>
     <use xlink:href="#DejaVuSans-6e" transform="translate(176.509766 0)"/>
     <use xlink:href="#DejaVuSans-69" transform="translate(239.888672 0)"/>
     <use xlink:href="#DejaVuSans-6e" transform="translate(267.671875 0)"/>
     <use xlink:href="#DejaVuSans-67" transform="translate(331.050781 0)"/>
     <use xlink:href="#DejaVuSans-20" transform="translate(394.527344 0)"/>
     <use xlink:href="#DejaVuSans-61" transform="translate(426.314453 0)"/>
     <use xlink:href="#DejaVuSans-6e" transform="translate(487.59375 0)"/>
     <use xlink:href="#DejaVuSans-64" transform="translate(550.972656 0)"/>
     <use xlink:href="#DejaVuSans-20" transform="translate(614.449219 0)"/>
     <use xlink:href="#DejaVuSans-56" transform="translate(646.236328 0)"/>
     <use xlink:href="#DejaVuSans-61" transform="translate(706.894531 0)"/>
     <use xlink:href="#DejaVuSans-6c" transform="translate(768.173828 0)"/>
     <use xlink:href="#DejaVuSans-69" transform="translate(795.957031 0)"/>
     <use xlink:href="#DejaVuSans-64" transform="translate(823.740234 0)"/>
     <use xlink:href="#DejaVuSans-61" transform="translate(887.216797 0)"/>
     <use xlink:href="#DejaVuSans-74" transform="translate(948.496094 0)"/>
     <use xlink:href="#DejaVuSans-69" transform="translate(987.705078 0)"/>
     <use xlink:href="#DejaVuSans-6e" transform="translate(1015.488281 0)"/>
     <use xlink:href="#DejaVuSans-67" transform="translate(1078.867188 0)"/>
     <use xlink:href="#DejaVuSans-20" transform="translate(1142.34375 0)"/>
     <use xlink:href="#DejaVuSans-45" transform="translate(1174.130859 0)"/>
     <use xlink:href="#DejaVuSans-73" transform="translate(1237.314453 0)"/>
     <use xlink:href="#DejaVuSans-74" transform="translate(1289.414062 0)"/>
     <use xlink:href="#DejaVuSans-69" transform="translate(1328.623047 0)"/>
     <use xlink:href="#DejaVuSans-6d" transform="translate(1356.40625 0)"/>
     <use xlink:href="#DejaVuSans-61" transform="translate(1453.818359 0)"/>
     <use xlink:href="#DejaVuSans-74" transform="translate(1515.097656 0)"/>
     <use xlink:href="#DejaVuSans-69" transform="translate(1554.306641 0)"/>
     <use xlink:href="#DejaVuSans-6f" transform="translate(1582.089844 0)"/>
     <use xlink:href="#DejaVuSans-6e" transform="translate(1643.271484 0)"/>
     <use xlink:href="#DejaVuSans-20" transform="translate(1706.650391 0)"/>
     <use xlink:href="#DejaVuSans-4c" transform="translate(1738.4375 0)"/>
     <use xlink:href="#DejaVuSans-6f" transform="translate(1792.400391 0)"/>
     <use xlink:href="#DejaVuSans-73" transform="translate(1853.582031 0)"/>
     <use xlink:href="#DejaVuSans-73" transform="translate(1905.681641 0)"/>
    </g>
   </g>
   <g id="legend_1">
    <g id="patch_7">
     <path d="M 521.439062 212.65625 
L 641 212.65625 
Q 643 212.65625 643 210.65625 
L 643 152.94375 
Q 643 150.94375 641 150.94375 
L 521.439062 150.94375 
Q 519.439062 150.94375 519.439062 152.94375 
L 519.439062 210.65625 
Q 519.439062 212.65625 521.439062 212.65625 
z
" style="fill: #ffffff; opacity: 0.8; stroke: #cccccc; stroke-linejoin: miter"/>
    </g>
    <g id="line2d_16">
     <path d="M 523.439062 159.042188 
L 533.439062 159.042188 
L 543.439062 159.042188 
" style="fill: none; stroke: #1f77b4; stroke-width: 1.5; stroke-linecap: square"/>
    </g>
    <g id="text_15">
     <!-- Training-Source -->
     <g transform="translate(551.439062 162.542188) scale(0.1 -0.1)">
      <defs>
       <path id="DejaVuSans-2d" d="M 313 2009 
L 1997 2009 
L 1997 1497 
L 313 1497 
L 313 2009 
z
" transform="scale(0.015625)"/>
       <path id="DejaVuSans-53" d="M 3425 4513 
L 3425 3897 
Q 3066 4069 2747 4153 
Q 2428 4238 2131 4238 
Q 1616 4238 1336 4038 
Q 1056 3838 1056 3469 
Q 1056 3159 1242 3001 
Q 1428 2844 1947 2747 
L 2328 2669 
Q 3034 2534 3370 2195 
Q 3706 1856 3706 1288 
Q 3706 609 3251 259 
Q 2797 -91 1919 -91 
Q 1588 -91 1214 -16 
Q 841 59 441 206 
L 441 856 
Q 825 641 1194 531 
Q 1563 422 1919 422 
Q 2459 422 2753 634 
Q 3047 847 3047 1241 
Q 3047 1584 2836 1778 
Q 2625 1972 2144 2069 
L 1759 2144 
Q 1053 2284 737 2584 
Q 422 2884 422 3419 
Q 422 4038 858 4394 
Q 1294 4750 2059 4750 
Q 2388 4750 2728 4690 
Q 3069 4631 3425 4513 
z
" transform="scale(0.015625)"/>
       <path id="DejaVuSans-75" d="M 544 1381 
L 544 3500 
L 1119 3500 
L 1119 1403 
Q 1119 906 1312 657 
Q 1506 409 1894 409 
Q 2359 409 2629 706 
Q 2900 1003 2900 1516 
L 2900 3500 
L 3475 3500 
L 3475 0 
L 2900 0 
L 2900 538 
Q 2691 219 2414 64 
Q 2138 -91 1772 -91 
Q 1169 -91 856 284 
Q 544 659 544 1381 
z
M 1991 3584 
L 1991 3584 
z
" transform="scale(0.015625)"/>
       <path id="DejaVuSans-65" d="M 3597 1894 
L 3597 1613 
L 953 1613 
Q 991 1019 1311 708 
Q 1631 397 2203 397 
Q 2534 397 2845 478 
Q 3156 559 3463 722 
L 3463 178 
Q 3153 47 2828 -22 
Q 2503 -91 2169 -91 
Q 1331 -91 842 396 
Q 353 884 353 1716 
Q 353 2575 817 3079 
Q 1281 3584 2069 3584 
Q 2775 3584 3186 3129 
Q 3597 2675 3597 1894 
z
M 3022 2063 
Q 3016 2534 2758 2815 
Q 2500 3097 2075 3097 
Q 1594 3097 1305 2825 
Q 1016 2553 972 2059 
L 3022 2063 
z
" transform="scale(0.015625)"/>
      </defs>
      <use xlink:href="#DejaVuSans-54"/>
      <use xlink:href="#DejaVuSans-72" transform="translate(46.333984 0)"/>
      <use xlink:href="#DejaVuSans-61" transform="translate(87.447266 0)"/>
      <use xlink:href="#DejaVuSans-69" transform="translate(148.726562 0)"/>
      <use xlink:href="#DejaVuSans-6e" transform="translate(176.509766 0)"/>
      <use xlink:href="#DejaVuSans-69" transform="translate(239.888672 0)"/>
      <use xlink:href="#DejaVuSans-6e" transform="translate(267.671875 0)"/>
      <use xlink:href="#DejaVuSans-67" transform="translate(331.050781 0)"/>
      <use xlink:href="#DejaVuSans-2d" transform="translate(394.527344 0)"/>
      <use xlink:href="#DejaVuSans-53" transform="translate(430.611328 0)"/>
      <use xlink:href="#DejaVuSans-6f" transform="translate(494.087891 0)"/>
      <use xlink:href="#DejaVuSans-75" transform="translate(555.269531 0)"/>
      <use xlink:href="#DejaVuSans-72" transform="translate(618.648438 0)"/>
      <use xlink:href="#DejaVuSans-63" transform="translate(657.511719 0)"/>
      <use xlink:href="#DejaVuSans-65" transform="translate(712.492188 0)"/>
     </g>
    </g>
    <g id="line2d_17">
     <path d="M 523.439062 173.720313 
L 533.439062 173.720313 
L 543.439062 173.720313 
" style="fill: none; stroke: #ff7f0e; stroke-width: 1.5; stroke-linecap: square"/>
    </g>
    <g id="text_16">
     <!-- Training-Target -->
     <g transform="translate(551.439062 177.220313) scale(0.1 -0.1)">
      <use xlink:href="#DejaVuSans-54"/>
      <use xlink:href="#DejaVuSans-72" transform="translate(46.333984 0)"/>
      <use xlink:href="#DejaVuSans-61" transform="translate(87.447266 0)"/>
      <use xlink:href="#DejaVuSans-69" transform="translate(148.726562 0)"/>
      <use xlink:href="#DejaVuSans-6e" transform="translate(176.509766 0)"/>
      <use xlink:href="#DejaVuSans-69" transform="translate(239.888672 0)"/>
      <use xlink:href="#DejaVuSans-6e" transform="translate(267.671875 0)"/>
      <use xlink:href="#DejaVuSans-67" transform="translate(331.050781 0)"/>
      <use xlink:href="#DejaVuSans-2d" transform="translate(394.527344 0)"/>
      <use xlink:href="#DejaVuSans-54" transform="translate(421.486328 0)"/>
      <use xlink:href="#DejaVuSans-61" transform="translate(466.070312 0)"/>
      <use xlink:href="#DejaVuSans-72" transform="translate(527.349609 0)"/>
      <use xlink:href="#DejaVuSans-67" transform="translate(566.712891 0)"/>
      <use xlink:href="#DejaVuSans-65" transform="translate(630.189453 0)"/>
      <use xlink:href="#DejaVuSans-74" transform="translate(691.712891 0)"/>
     </g>
    </g>
    <g id="line2d_18">
     <path d="M 523.439062 188.398438 
L 533.439062 188.398438 
L 543.439062 188.398438 
" style="fill: none; stroke: #2ca02c; stroke-width: 1.5; stroke-linecap: square"/>
    </g>
    <g id="text_17">
     <!-- Validating-Source -->
     <g transform="translate(551.439062 191.898438) scale(0.1 -0.1)">
      <use xlink:href="#DejaVuSans-56"/>
      <use xlink:href="#DejaVuSans-61" transform="translate(60.658203 0)"/>
      <use xlink:href="#DejaVuSans-6c" transform="translate(121.9375 0)"/>
      <use xlink:href="#DejaVuSans-69" transform="translate(149.720703 0)"/>
      <use xlink:href="#DejaVuSans-64" transform="translate(177.503906 0)"/>
      <use xlink:href="#DejaVuSans-61" transform="translate(240.980469 0)"/>
      <use xlink:href="#DejaVuSans-74" transform="translate(302.259766 0)"/>
      <use xlink:href="#DejaVuSans-69" transform="translate(341.46875 0)"/>
      <use xlink:href="#DejaVuSans-6e" transform="translate(369.251953 0)"/>
      <use xlink:href="#DejaVuSans-67" transform="translate(432.630859 0)"/>
      <use xlink:href="#DejaVuSans-2d" transform="translate(496.107422 0)"/>
      <use xlink:href="#DejaVuSans-53" transform="translate(532.191406 0)"/>
      <use xlink:href="#DejaVuSans-6f" transform="translate(595.667969 0)"/>
      <use xlink:href="#DejaVuSans-75" transform="translate(656.849609 0)"/>
      <use xlink:href="#DejaVuSans-72" transform="translate(720.228516 0)"/>
      <use xlink:href="#DejaVuSans-63" transform="translate(759.091797 0)"/>
      <use xlink:href="#DejaVuSans-65" transform="translate(814.072266 0)"/>
     </g>
    </g>
    <g id="line2d_19">
     <path d="M 523.439062 203.076563 
L 533.439062 203.076563 
L 543.439062 203.076563 
" style="fill: none; stroke: #d62728; stroke-width: 1.5; stroke-linecap: square"/>
    </g>
    <g id="text_18">
     <!-- Validating-Target -->
     <g transform="translate(551.439062 206.576563) scale(0.1 -0.1)">
      <use xlink:href="#DejaVuSans-56"/>
      <use xlink:href="#DejaVuSans-61" transform="translate(60.658203 0)"/>
      <use xlink:href="#DejaVuSans-6c" transform="translate(121.9375 0)"/>
      <use xlink:href="#DejaVuSans-69" transform="translate(149.720703 0)"/>
      <use xlink:href="#DejaVuSans-64" transform="translate(177.503906 0)"/>
      <use xlink:href="#DejaVuSans-61" transform="translate(240.980469 0)"/>
      <use xlink:href="#DejaVuSans-74" transform="translate(302.259766 0)"/>
      <use xlink:href="#DejaVuSans-69" transform="translate(341.46875 0)"/>
      <use xlink:href="#DejaVuSans-6e" transform="translate(369.251953 0)"/>
      <use xlink:href="#DejaVuSans-67" transform="translate(432.630859 0)"/>
      <use xlink:href="#DejaVuSans-2d" transform="translate(496.107422 0)"/>
      <use xlink:href="#DejaVuSans-54" transform="translate(523.066406 0)"/>
      <use xlink:href="#DejaVuSans-61" transform="translate(567.650391 0)"/>
      <use xlink:href="#DejaVuSans-72" transform="translate(628.929688 0)"/>
      <use xlink:href="#DejaVuSans-67" transform="translate(668.292969 0)"/>
      <use xlink:href="#DejaVuSans-65" transform="translate(731.769531 0)"/>
      <use xlink:href="#DejaVuSans-74" transform="translate(793.292969 0)"/>
     </g>
    </g>
   </g>
  </g>
 </g>
 <defs>
  <clipPath id="pf8af891a58">
   <rect x="90" y="43.2" width="558" height="277.2"/>
  </clipPath>
 </defs>
</svg>
